<svg width="24" height="24" viewBox="0 0 24 24" fill="none" xmlns="http://www.w3.org/2000/svg">
<path d="M18.3601 12.7609C18.3601 16.3601 21.5231 17.5599 21.6321 17.6689C21.6321 17.778 21.0868 19.414 19.9961 21.05C19.0145 22.4679 17.9238 23.9948 16.2878 23.9948C14.6518 23.9948 14.1065 23.0132 12.3614 23.0132C10.5073 23.0132 9.96192 23.8858 8.43498 23.9948C6.79896 24.1039 5.59922 22.4679 4.61762 20.9409C2.43627 17.9961 0.909325 12.5428 2.98161 8.83446C4.07228 6.98031 5.92643 5.88964 7.99871 5.78057C9.52565 5.78057 11.0526 6.87125 11.9251 6.87125C12.9067 6.87125 14.6518 5.56244 16.506 5.78057C17.2694 5.78057 19.4508 6.10777 20.8687 8.18006C20.8687 8.28912 18.3601 9.707 18.3601 12.7609ZM15.4153 3.81736C16.1788 2.83575 16.7241 1.41788 16.615 0C15.4153 0 13.8883 0.763472 13.0158 1.85415C12.2523 2.72669 11.5979 4.14456 11.707 5.56244C13.1249 5.6715 14.5428 4.79897 15.4153 3.81736Z" fill="black"/>
</svg>
