<svg width="24" height="24" viewBox="0 0 24 24" fill="none" xmlns="http://www.w3.org/2000/svg">
<g clip-path="url(#clip0_865_754)">
<path fill-rule="evenodd" clip-rule="evenodd" d="M23.4 9.3C22.95 9.15 20.7 9.3 20.1 8.85C19.65 8.4 19.65 6 18.75 4.2C17.7 1.95 15.15 0 12.9 0H7.65C3.45 0 0 3.45 0 7.65V16.5C0 20.7 3.45 24 7.65 24H16.35C20.55 24 23.85 20.55 24 16.5V10.35C24 10.35 24 9.6 23.4 9.3ZM7.5 6H12C12.9 6 13.5 6.6 13.5 7.5C13.5 8.4 12.9 9 12 9H7.5C6.6 9 6 8.4 6 7.5C6 6.6 6.6 6 7.5 6ZM16.5 18H7.5C6.6 18 6 17.4 6 16.5C6 15.6 6.6 15 7.5 15H16.5C17.4 15 18 15.6 18 16.5C18 17.4 17.4 18 16.5 18Z" fill="black"/>
</g>
<defs>
<clipPath id="clip0_865_754">
<rect width="24" height="24" fill="white"/>
</clipPath>
</defs>
</svg>
