<svg width="24" height="24" viewBox="0 0 24 24" fill="none" xmlns="http://www.w3.org/2000/svg">
<g clip-path="url(#clip0_865_794)">
<path d="M15.8329 11.5739V8.86829L14.8308 9.41943L15.8329 11.624V11.5739ZM18.3382 9.72006L22.4969 5.5614L15.8329 8.86829L18.3382 9.72006ZM15.833 12.1252L14.9812 14.43L16.8852 12.5261L18.0877 14.8309H24L15.833 12.1252Z" fill="#C9EBEC"/>
<path d="M15.8329 8.86829V11.5739H24L18.3382 9.72006L15.8329 8.86829Z" fill="#00868C"/>
<path d="M15.8329 11.5739V11.624L15.833 12.1252L24 14.8309V11.5739H15.8329Z" fill="#00B3BB"/>
<path d="M12.3757 15.833H15.0814L14.2797 18.2881L18.4384 22.4968L14.5803 14.7808L12.3757 15.833Z" fill="#C9EBEC"/>
<path d="M14.9812 14.43L20.7432 20.1921L18.0877 14.8309L16.8852 12.5261L14.9812 14.43Z" fill="#00868C"/>
<path d="M14.9812 14.43L14.5803 14.7808L18.4384 22.4968L20.7432 20.1921L14.9812 14.43Z" fill="#00B3BB"/>
<path d="M9.56984 14.9813L11.4738 16.8853L9.1189 18.0377V23.95L11.8245 15.8331L9.56984 14.9813Z" fill="#C9EBEC"/>
<path d="M12.3757 15.833V23.9499L14.2797 18.2881L15.0814 15.833H12.3757Z" fill="#00868C"/>
<path d="M12.3757 15.833L11.8245 15.8331L9.1189 23.95L12.3757 23.9499V15.833Z" fill="#00B3BB"/>
<path d="M5.66184 14.2797L1.50317 18.4383L8.16706 15.0813L5.66184 14.2797ZM8.16699 12.3757L8.16706 15.0813L9.16908 14.5803L8.16699 12.3757Z" fill="#C9EBEC"/>
<path d="M9.56984 14.9813L3.80786 20.7433L9.1189 18.0377L11.4738 16.8853L9.56984 14.9813Z" fill="#00868C"/>
<path d="M9.56984 14.9813L9.16908 14.5803L8.16706 15.0813L1.50317 18.4383L3.80786 20.7433L9.56984 14.9813Z" fill="#00B3BB"/>
<path d="M9.01879 9.56971L7.11482 11.4737L5.91232 9.11877H0L8.16701 11.8244L9.01879 9.56971Z" fill="#C9EBEC"/>
<path d="M8.16706 15.0813L8.16699 12.3757H0L5.66184 14.2797L8.16706 15.0813Z" fill="#00868C"/>
<path d="M8.16699 12.3757L8.16701 11.8244L0 9.11877V12.3757H8.16699Z" fill="#00B3BB"/>
<path d="M11.574 8.16693H8.91852L9.72019 5.66172L5.56152 1.50305L9.41956 9.16902L11.574 8.16693Z" fill="#C9EBEC"/>
<path d="M9.01879 9.56971L3.25684 3.80786L5.91232 9.11877L7.11482 11.4737L9.01879 9.56971Z" fill="#00868C"/>
<path d="M9.01879 9.56971L9.41956 9.16902L5.56152 1.50305L3.25684 3.80786L9.01879 9.56971Z" fill="#00B3BB"/>
<path d="M14.43 9.01879L12.526 7.11482L14.8809 5.91232V0L12.1753 8.16701L14.43 9.01879Z" fill="#C9EBEC"/>
<path d="M11.574 8.16693L11.6243 8.16701V0L9.72019 5.66172L8.91852 8.16693H11.574Z" fill="#00868C"/>
<path d="M11.6243 8.16701H12.1753L14.8809 0H11.6243V8.16701Z" fill="#00B3BB"/>
<path d="M14.43 9.01879L20.1921 3.25696L14.8809 5.91232L12.526 7.11482L14.43 9.01879Z" fill="#00868C"/>
<path d="M14.43 9.01879L14.8308 9.41943L15.8329 8.86829L22.4969 5.5614L20.1921 3.25696L14.43 9.01879Z" fill="#00B3BB"/>
</g>
<defs>
<clipPath id="clip0_865_794">
<rect width="24" height="24" fill="white"/>
</clipPath>
</defs>
</svg>
