<svg width="24" height="24" viewBox="0 0 24 24" fill="none" xmlns="http://www.w3.org/2000/svg">
<g clip-path="url(#clip0_865_812)">
<path fill-rule="evenodd" clip-rule="evenodd" d="M0 12C0 18.595 5.40496 24 12 24C18.595 24 24 18.595 24 12C24 9.19197 23.0201 6.59969 21.3858 4.5485C22.1209 3.52188 22.9096 2.41901 23.7521 1.23962L20.7999 3.86653C18.6031 1.49276 15.4659 0 12 0C5.40496 0 0 5.40496 0 12ZM19.3392 5.16634C18.5665 4.25047 17.4099 3.66942 16.1157 3.66942H7.8843C5.55372 3.66942 3.66942 5.55372 3.66942 7.8843V16.1157C3.66942 17.2562 4.1157 18.2975 4.90909 19.0909C5.70248 19.8843 6.79339 20.3306 7.8843 20.3306H16.1157C18.4463 20.3306 20.3306 18.4463 20.3306 16.1157V7.8843C20.3306 7.36047 20.2354 6.85918 20.0613 6.39677C16.4341 11.4543 14.3916 14.2656 13.9339 14.876C13.0413 16.0661 11.5041 16.4628 10.6116 14.876C10.1573 14.0811 9.38532 12.6217 8.27342 10.5199C7.92867 9.86816 7.55124 9.15469 7.14048 8.38012L12.0496 11.6528L19.3392 5.16634Z" fill="black"/>
</g>
<defs>
<clipPath id="clip0_865_812">
<rect width="24" height="24" fill="white"/>
</clipPath>
</defs>
</svg>
