<svg width="24" height="24" viewBox="0 0 24 24" fill="none" xmlns="http://www.w3.org/2000/svg">
<path d="M17.3636 4.47273C16.0545 3.70909 14.8545 3.38182 13.6545 2.61818C12.8909 2.18182 11.9091 0.981818 11.0364 0C10.8182 1.63636 10.3818 2.29091 9.72727 2.72727C8.52727 3.6 7.76364 3.92727 6.67273 4.47273C5.8 4.90909 1 7.63636 1 13.6364C1 19.6364 6.23636 24 12.0182 24C17.8 24 22.8182 19.9636 22.8182 13.8545C22.8182 7.74545 18.1273 4.90909 17.3636 4.47273ZM17.4727 21.8182C17.3636 21.9273 16.2727 22.6909 14.9636 22.8C13.6545 22.9091 11.9091 23.0182 10.8182 22.0364C10.6 21.9273 10.7091 21.6 10.8182 21.6C10.9273 21.4909 11.0364 21.4909 11.1455 21.4909C11.2545 21.4909 11.2545 21.4909 11.3636 21.4909C11.8 21.8182 12.5636 22.1455 14.0909 22.1455C15.6182 22.1455 16.7091 21.7091 17.1455 21.3818C17.3636 21.2727 17.4727 21.3818 17.4727 21.4909C17.5818 21.4909 17.6909 21.7091 17.4727 21.8182ZM13.3273 19.7455C13.5455 19.5273 13.9818 19.0909 14.4182 18.9818C14.8545 18.8727 15.0727 18.8727 15.4 18.8727C15.8364 18.8727 16.1636 18.8727 16.4909 19.0909C16.8182 19.3091 16.9273 19.7455 17.0364 19.9636C17.1455 20.1818 17.0364 20.2909 16.8182 20.4C16.6 20.5091 16.6 20.4 16.4909 20.1818C16.2727 19.8545 16.1636 19.5273 15.2909 19.5273C14.4182 19.5273 14.2 19.8545 13.7636 20.1818C13.3273 20.5091 13.2182 20.6182 13.1091 20.4C13 20.1818 13 19.9636 13.3273 19.7455ZM19.6545 19.8545C18.7818 19.7455 17.0364 17.2364 15.9455 17.1273C14.5273 17.1273 11.4727 19.9636 9.18182 19.9636C7.76364 19.9636 7.32727 19.7455 6.78182 19.4182C6.01818 18.9818 5.69091 18.2182 5.69091 17.1273C5.69091 15.2727 7.43636 13.6364 9.72727 13.6364C12.5636 13.6364 14.5273 16.3636 15.9455 16.2545C17.1455 16.2545 19.4364 13.9636 20.6364 13.9636C21.8364 13.9636 22.1636 15.1636 22.1636 15.9273C22.1636 16.6909 21.9455 17.8909 21.4 18.7636C20.6364 19.6364 20.3091 19.9636 19.6545 19.8545Z" fill="black"/>
</svg>
