<svg width="24" height="24" viewBox="0 0 24 24" fill="none" xmlns="http://www.w3.org/2000/svg">
<path d="M18.9677 13.0553C18.9677 13.0553 21.1797 11.2857 23.6129 8.63134L24 8.79724V23.341L23.5023 23.5622C23.5023 23.5622 12.2212 19.1382 0.221198 23.5069H0V21.682C0 21.682 9.06912 12.9447 11.3364 1L11.8894 1.1106V18.6406L11.5576 18.8065C11.5576 18.8065 5.97235 18.8618 0.276498 23.1751C0.276498 23.1751 5.58525 19.3041 12.0553 19.2488L12.3318 18.9723V13.6636C12.3318 13.6636 15.5945 10.6221 17.9723 4.81567L18.47 5.03687V20.4101L17.6406 20.6313C17.6406 20.6313 8.51613 18.3088 0.497696 23.0645C0.497696 23.0645 8.46083 18.7512 18.3594 21.129L18.9124 21.0184C18.9677 21.0737 18.8571 12.9447 18.9677 13.0553Z" fill="#2946D5"/>
</svg>
