<svg width="24" height="24" viewBox="0 0 24 24" fill="none" xmlns="http://www.w3.org/2000/svg">
<path d="M23.9999 18.6C23.0999 18.8 22.5999 18.6 22.0999 17.9C20.9999 16.3 19.7999 14.7 18.6999 13.1C18.5999 12.9 18.3999 12.7 18.1999 12.4C16.7999 14.3 15.4999 16 14.1999 17.9C13.6999 18.6 13.2999 18.8 12.3999 18.6L17.5999 11.6L12.7999 5.29996C13.5999 5.09996 14.1999 5.19996 14.6999 5.99996C15.7999 7.59996 16.9999 9.19995 18.2999 10.9C19.4999 9.29995 20.7999 7.69996 21.8999 6.09996C22.3999 5.39996 22.8999 5.19996 23.6999 5.39996C23.0999 6.19996 22.4999 7.09996 21.7999 7.89996C20.9999 8.99996 20.0999 10.1 19.2999 11.2C18.9999 11.6 18.9999 11.8 19.2999 12.2C20.7999 14.3 22.3999 16.4 23.9999 18.6ZM0 11.6C0.1 10.9 0.2 10.2 0.4 9.5C1.5 5.4 6.3 3.7 9.5 6.2C11.4 7.7 11.9 9.79998 11.8 12.2H1.1C0.9 16.5 4 19 7.9 17.7C9.3 17.2 10.1 16.2 10.5 14.8C10.7 14.1 11 14 11.7 14.2C11.4 15.9 10.6 17.3 9.1 18.2C6.8 19.5 3.5 19.1 1.8 17.3C0.8 16.2 0.3 14.9 0.2 13.4C0.1 13.2 0 13 0 12.7C0 12.3 0 12 0 11.6ZM1.1 11.3H10.8C10.7 8.2 8.8 6 6.2 6C3.3 6 1.3 8.1 1.1 11.3Z" fill="black"/>
</svg>
