<svg width="24" height="24" viewBox="0 0 24 24" fill="none" xmlns="http://www.w3.org/2000/svg">
<g clip-path="url(#clip0_865_939)">
<path fill-rule="evenodd" clip-rule="evenodd" d="M8.285 0.654886L8.28345 0.655415C5.26527 1.62885 2.78107 3.78019 1.35969 6.57905L1.31992 6.54886C0.775772 7.53119 0.449283 8.51352 0.231624 9.605C-0.312524 12.2245 0.122794 14.9532 1.31992 17.3545L1.36567 17.3201C1.35039 17.3316 1.33516 17.343 1.31992 17.3545C1.82429 18.4385 2.51951 19.379 3.37393 20.1759C4.91415 21.8041 6.90973 23.0128 9.15564 23.5759C11.2234 24.1217 13.4 24.1217 15.3589 23.6851C15.9253 23.5514 16.4815 23.3768 17.0212 23.1645C18.157 22.7601 19.2224 22.1439 20.16 21.3446C20.2291 21.2887 20.2974 21.2321 20.3651 21.1747C21.8887 19.8649 22.8682 18.1185 23.4123 16.1539C23.4659 15.9496 23.5153 15.7443 23.5604 15.5381C24.0794 13.6175 24.1388 11.6197 23.7388 9.71404H12.2029V14.5166H18.8248C18.5819 15.9979 17.722 17.2661 16.4472 18.1184L16.4967 18.1557C15.6458 18.684 14.7926 19.1034 13.8353 19.2101C12.8559 19.4284 11.8764 19.4284 10.8969 19.2101C9.91748 18.9918 8.93802 18.5552 8.17621 18.0095C6.87025 17.0272 5.89079 15.8265 5.34664 14.2985C5.31816 14.3199 5.28964 14.3414 5.26106 14.3629L5.34664 14.2985C4.81273 12.7991 4.80266 11.1946 5.3165 9.69129L5.34664 9.71416C5.67313 8.62269 6.32611 7.64036 7.19674 6.87632C9.04685 5.02081 11.7676 4.25678 14.3795 5.02081C15.0386 5.24116 15.6485 5.56037 16.209 5.94517C16.4035 6.09331 16.5917 6.25717 16.7737 6.43972L16.8137 6.39974C16.8736 6.44877 16.9328 6.4985 16.9914 6.54888C17.3723 6.16686 17.7532 5.81213 18.1341 5.4574C18.515 5.10268 18.8959 4.74794 19.2768 4.36593L20.4739 3.1653C19.6982 2.38728 18.7566 1.77563 17.7673 1.29083C17.2995 1.05081 16.8189 0.840257 16.3384 0.654886C13.8353 -0.218295 10.8969 -0.218295 8.285 0.654886Z" fill="black"/>
</g>
<defs>
<clipPath id="clip0_865_939">
<rect width="24" height="24" fill="white"/>
</clipPath>
</defs>
</svg>
