<svg width="24" height="24" viewBox="0 0 24 24" fill="none" xmlns="http://www.w3.org/2000/svg">
<g clip-path="url(#clip0_865_945)">
<path d="M22.6987 4.30129C21.1987 2.80129 18.8977 2.80129 17.3977 4.19929C17.3009 4.30129 17.3009 4.39804 17.3009 4.50004C17.3009 4.60204 17.3009 4.69879 17.3977 4.80079L17.8979 5.30104C17.9999 5.39779 18.1987 5.39779 18.3982 5.30104C18.8009 5.00029 19.1992 4.89829 19.6994 4.89829C20.8987 4.89829 21.8984 5.89804 21.8984 7.10254C21.8984 7.69954 21.6997 8.19979 21.3014 8.60254C18.3014 11.6025 14.1997 3.19954 5.10216 7.50079C4.49991 7.80154 4.19916 8.50054 4.49991 9.10279V9.19954L5.99991 11.8988C6.30066 12.501 7.10166 12.6998 7.69866 12.399L8.39766 12.0008C9.19866 11.5005 9.89766 11.001 10.6019 10.3988C10.6987 10.302 11.0002 10.302 11.1022 10.3988C11.3009 10.5008 11.3009 10.6995 11.1989 10.899L11.1022 11.001C10.3979 11.6033 9.60216 12.2003 8.80116 12.6998L8.10216 13.0005C7.80141 13.1993 7.49991 13.3013 7.10241 13.3013C6.39816 13.3013 5.69916 12.8985 5.39841 12.3015L3.89841 9.69979C1.10241 11.7 -0.698344 15.603 0.301406 20.5005C0.301406 20.6993 0.500156 20.8013 0.699656 20.8013H2.39841C2.60241 20.8013 2.69916 20.6993 2.80116 20.5005C2.99991 19.1025 4.19916 18.1995 5.60241 18.3983C6.69966 18.5003 7.60266 19.398 7.69941 20.5005C7.69941 20.6993 7.89816 20.8013 8.10216 20.8013H9.69891C9.89766 20.8013 9.99966 20.6993 10.1017 20.5005C10.3004 19.1025 11.4997 18.1995 12.8977 18.3983C13.9994 18.5003 14.8979 19.398 14.9999 20.5005C14.9999 20.6993 15.1987 20.8013 15.3982 20.8013H17.0002C17.1989 20.8013 17.3984 20.6025 17.3984 20.3985C17.3984 18.1028 18.1027 15.5003 19.8014 14.1998C25.6994 9.60304 24.1027 5.70004 22.6994 4.30204L22.6987 4.30129ZM16.4999 11.199L15.3007 10.602C15.3007 10.1993 15.6014 9.89779 15.9997 9.89779C16.3979 9.89779 16.6987 10.1985 16.6987 10.602C16.8007 10.8983 16.6987 11.1023 16.4999 11.199Z" fill="#02303A"/>
</g>
<defs>
<clipPath id="clip0_865_945">
<rect width="24" height="24" fill="white"/>
</clipPath>
</defs>
</svg>
