<svg width="24" height="24" viewBox="0 0 24 24" fill="none" xmlns="http://www.w3.org/2000/svg">
<path d="M19.4157 17.9569L12 15.0822L4.58427 17.9569L7.51281 13.3726L0 10.5681L9.22787 10.6112L12 6L14.7721 10.6058L24 10.5681L16.4872 13.3726L19.4157 17.9569Z" fill="#010101"/>
<path d="M18.4127 17.1372L12.0055 14.6563L5.5983 17.1372L8.12774 13.1785L1.63965 10.7516L9.61088 10.7893L12.0055 6.80908L14.4001 10.7893L22.3713 10.7516L15.8832 13.1731L18.4127 17.1372Z" fill="#619CBC"/>
<path d="M19.8148 12.3423C19.7393 12.0726 19.68 11.7976 19.6207 11.501C19.5775 11.2852 19.529 11.0587 19.4751 10.8322C19.4643 10.7944 19.4589 10.7567 19.4481 10.7243C19.4319 10.6542 19.4104 10.5895 19.3996 10.5248C19.3888 10.2929 19.2378 10.0879 19.0113 10.0232C18.8926 9.98545 18.7686 9.98545 18.6715 9.98006C18.6445 9.98006 18.6122 9.98006 18.6014 9.97466C18.4072 9.95848 18.2184 10.0448 18.1052 10.2066C18.062 10.2713 18.0351 10.3414 18.0243 10.4169C17.9919 10.363 17.9596 10.309 17.9272 10.2605C17.9056 10.2335 17.8895 10.2066 17.8679 10.1796C17.7924 10.0879 17.6953 10.0286 17.5874 10.0016C17.5281 9.98545 17.4688 9.98545 17.4095 9.99084C17.4041 9.99084 17.3933 9.99084 17.3879 9.99084C17.2477 10.007 17.129 10.0825 17.0427 10.185C17.0427 10.185 17.0427 10.185 17.0427 10.1904C17.0319 10.2066 17.0157 10.2228 17.005 10.2443C17.005 10.2443 17.005 10.2497 16.9996 10.2497C16.9942 10.2605 16.9888 10.2767 16.978 10.2875C16.7299 10.0987 16.4495 9.99624 16.1474 9.99624C15.9964 9.99624 15.8508 10.034 15.7322 10.1095C15.6459 10.0556 15.5434 10.0286 15.4409 10.0286C15.2791 10.034 15.1281 10.1095 15.031 10.2335C15.0149 10.2551 14.9987 10.2767 14.9825 10.2929C14.6697 10.0232 14.2868 9.87219 13.8823 9.87219C13.4346 9.87219 13.138 10.1472 12.9438 10.4439C12.7173 10.1419 12.4045 9.97466 12.054 9.97466C12.0486 9.97466 12.0216 9.96927 12.0054 9.96927C11.9515 9.95848 11.8706 9.9477 11.7789 9.9477C11.369 9.9477 11.04 10.2713 10.8351 10.541C10.765 10.3198 10.5492 10.1634 10.3065 10.1742C10.1663 10.1796 10.0584 10.2228 9.96676 10.2821C9.94519 10.2659 9.91822 10.2443 9.89126 10.2281C9.65935 10.0771 9.35193 10.1257 9.17935 10.3414C9.09306 10.2335 8.96901 10.158 8.82879 10.1419C8.64002 10.1149 8.44587 10.1958 8.33261 10.3468L8.16002 10.5679C8.13845 10.4708 8.12227 10.3846 8.12227 10.3144C8.11688 10.158 8.04676 10.0124 7.92272 9.91534C7.90654 9.89916 7.88497 9.88837 7.86879 9.87759C7.99823 9.32747 8.06834 8.63174 7.79868 8.21107C7.64227 7.96298 7.38339 7.82275 7.09216 7.82275C6.43957 7.82275 5.76542 8.52388 5.31238 9.05242C4.85396 9.58096 4.37396 10.2713 4.19598 10.6488C3.88317 11.3068 3.87778 11.927 4.17441 12.3962C4.32003 12.6228 4.51958 12.7953 4.77306 12.914C4.71913 12.9302 4.67059 12.9463 4.62744 12.9625C4.44407 13.0219 4.30924 13.1783 4.27149 13.367C4.23373 13.5558 4.29845 13.7499 4.44407 13.874C4.66519 14.0681 4.84856 14.3324 4.99958 14.6884C5.05351 14.8178 5.16137 14.9257 5.2962 14.9742C5.36092 15.0012 5.42564 15.012 5.49036 15.012C5.56587 15.012 5.63598 14.9958 5.70609 14.9688C5.89486 14.8879 6.14834 14.8232 6.418 14.7531C7.18384 14.5589 8.13845 14.3216 8.56991 13.4102C8.60227 13.3454 8.62384 13.2807 8.64542 13.216C8.6616 13.2592 8.67238 13.2969 8.69396 13.3347C8.94205 13.9171 9.38969 14.0034 9.63238 14.0034C9.92362 14.0034 10.2256 13.9171 10.4683 13.7607C10.614 13.669 10.7002 13.518 10.7164 13.3508C10.9268 13.5396 11.2018 13.6367 11.52 13.6367C12.0378 13.6367 12.5124 13.3886 12.8575 12.9625C13.1488 13.3131 13.5964 13.5072 14.1411 13.5072C14.6535 13.5072 15.1065 13.2484 15.3762 12.8061C15.4247 12.9841 15.4895 13.1567 15.565 13.3185C15.8724 13.9495 16.3362 14.1005 16.6868 14.1113C16.6436 14.1976 16.6166 14.3001 16.6274 14.3971C16.6382 14.5589 16.6382 14.6722 16.5843 14.7801C16.5465 14.861 16.498 14.9257 16.3578 15.0174C16.2337 15.0983 16.1474 15.2223 16.1205 15.3679C16.0935 15.5135 16.1259 15.6646 16.2175 15.7832C16.347 15.9558 16.5573 16.0583 16.8 16.0583C17.0319 16.0583 17.3987 15.9828 17.76 15.8911C17.8625 15.9396 17.9811 15.9666 18.1052 15.9666C18.8602 15.9666 19.5506 15.3625 19.8364 14.7908C19.8418 14.7801 19.8472 14.7747 19.8472 14.7639C19.8904 14.6722 19.9281 14.5751 19.9551 14.478C20.187 13.6259 19.9713 12.887 19.8148 12.3423ZM18.4935 11.7329C18.4396 11.5872 18.3856 11.4201 18.3479 11.296V11.2906C18.3587 11.3122 18.3695 11.3392 18.3802 11.3607C18.4342 11.4794 18.4827 11.6088 18.4935 11.7329ZM17.5335 13.6637C17.5335 13.669 17.5389 13.6744 17.5389 13.6798C17.5443 13.7014 17.5551 13.7284 17.5659 13.7553C17.5713 13.7661 17.5766 13.7769 17.582 13.7877C17.5874 13.8039 17.5928 13.8147 17.5982 13.8308C17.5119 13.8308 17.4418 13.8308 17.3879 13.8308C17.4418 13.7823 17.4904 13.7284 17.5335 13.6637ZM10.3119 11.8569C10.3119 11.8731 10.3065 11.8893 10.3065 11.9055C10.2904 11.9001 10.2796 11.9001 10.2634 11.8947C10.2796 11.8785 10.2958 11.8677 10.3119 11.8569Z" fill="black"/>
<path fill-rule="evenodd" clip-rule="evenodd" d="M12.0377 10.514C11.9406 10.514 11.8597 10.4817 11.768 10.4817C11.5092 10.4817 11.1748 10.9293 11.0777 11.1343C10.7271 11.8785 10.6139 13.1082 11.5146 13.1082C12.0269 13.1082 12.426 12.763 12.6471 12.2884C12.9384 11.6736 12.6849 10.514 12.0377 10.514ZM12.6471 11.6844C12.5069 11.9864 12.1402 12.2669 11.822 12.2669C11.2503 12.2669 11.0507 11.5334 11.2988 11.0048C11.3689 10.8592 11.4714 10.7082 11.6278 10.6057C11.3743 10.9671 11.3689 11.528 11.795 11.528C11.8813 11.528 12.0485 11.4417 12.097 11.3446C12.1671 11.1936 11.6764 10.9833 11.7734 10.7729C11.822 10.6705 11.9083 10.6219 12.0107 10.6219C12.3775 10.6219 12.8251 11.3123 12.6471 11.6844ZM13.8715 10.4062C13.5856 10.4062 13.3969 10.6759 13.2782 10.9186C12.7928 11.9487 13.0139 12.9788 14.1411 12.9788C14.4971 12.9788 14.8099 12.7847 14.9771 12.4233C15.4031 11.5227 14.7721 10.4062 13.8715 10.4062ZM14.9393 11.6413C14.8045 11.9218 14.4755 12.0674 14.2166 12.0674C13.6018 12.0674 13.1757 11.431 13.4724 10.8054C13.5209 10.6975 13.591 10.5842 13.7097 10.5087C13.4184 10.8539 13.6773 11.3177 14.0171 11.3177C14.0764 11.3177 14.2166 11.253 14.2652 11.1937C14.2652 10.9995 13.7906 10.8377 13.8768 10.6489C13.9146 10.5627 13.9901 10.5357 14.071 10.5357C14.4539 10.5411 15.1281 11.2422 14.9393 11.6413ZM7.46438 10.3576C7.43202 10.6435 7.35651 10.9509 7.21089 11.2529C6.9682 11.7653 6.46662 12.3531 5.85718 12.3531C4.95651 12.3531 4.66527 11.3176 5.06437 10.4817C5.2855 10.0124 6.34797 8.51312 6.9628 8.51312C7.49674 8.51312 7.01674 10.239 6.82797 10.6435C6.73629 10.843 6.50977 11.1558 6.25089 11.1558C5.96505 11.1558 5.9219 10.7136 6.04055 10.4601C6.11606 10.3037 6.25629 10.1473 6.321 10.0017C6.41808 9.79132 6.17539 9.62413 6.2455 9.37604C5.95966 9.61334 5.75471 9.93154 5.61988 10.2174C5.37179 10.7459 5.35561 11.4417 5.97584 11.4417C6.49359 11.4417 6.93584 10.8484 7.12999 10.4331C7.35651 9.95312 7.72865 8.35132 7.09224 8.35132C6.36415 8.35132 4.9619 10.2929 4.68685 10.8754C4.22842 11.8462 4.6437 12.5473 5.61449 12.5473C6.31561 12.5473 6.99516 12.0241 7.30797 11.3554C7.3619 11.2367 7.40505 11.1181 7.43741 10.9994C7.61539 11.1828 7.72325 11.7329 7.56685 12.0619C7.19471 12.8439 5.49583 13.2376 4.8001 13.4695C5.11291 13.7392 5.33404 14.0951 5.49584 14.4781C6.27247 14.1383 7.63157 14.1437 8.09 13.1837C8.44595 12.4286 7.61 11.1235 7.58303 10.336L7.46438 10.3576ZM9.96668 11.005C9.66466 11.005 9.75634 10.7785 9.58915 10.676C9.50286 10.8055 9.16848 11.307 8.98511 11.307C8.89881 11.307 8.78555 10.7677 8.7478 10.676L8.45117 11.0643C9.23859 11.4904 8.76937 13.4751 9.62151 13.4751C9.7887 13.4751 9.99365 13.4266 10.1716 13.3133C10.1069 13.0275 10.1123 12.7524 10.1608 12.418C9.96668 12.5043 9.74555 12.6392 9.55679 12.6392C9.20623 12.6392 8.86106 11.7223 8.9905 11.4473C9.02286 11.3825 9.11994 11.3556 9.17387 11.3556C9.22241 11.3556 9.4705 11.5713 9.64848 11.5713C9.89657 11.5713 10.1501 11.2855 10.2525 11.0697C10.3172 10.9295 10.3118 10.8216 10.3065 10.703C10.1716 10.7138 10.1069 11.005 9.96668 11.005ZM17.1667 13.2269C17.5981 12.31 17.1074 10.5303 16.1366 10.5303C16.0719 10.5303 15.9694 10.5518 15.9316 10.6381C15.7968 10.924 16.0557 11.3123 16.3038 11.3608C16.5411 10.8485 16.3038 11.0372 16.2876 10.7352C16.2876 10.7083 16.3523 10.7083 16.3577 10.7083C16.8107 10.7083 17.226 11.528 16.9995 12.0026C16.9132 12.1806 16.7568 12.3586 16.5519 12.3586C15.6512 12.3586 15.8615 11.0588 15.4408 10.5626C15.3923 10.6274 15.3384 10.6921 15.2791 10.7514C15.9047 11.377 15.6188 13.5775 16.7244 13.5775C16.9294 13.5775 17.0858 13.4049 17.1667 13.2269ZM19.3025 12.4935C19.1569 11.9919 19.0814 11.4742 18.9574 10.9672C18.925 10.8378 18.8873 10.7083 18.8657 10.5735C18.8657 10.5573 18.8765 10.5411 18.8603 10.5358C18.7794 10.5142 18.6446 10.5196 18.5529 10.5088C18.7632 10.9079 19.2432 11.6198 18.952 12.2346C18.8873 12.3749 18.7201 12.5259 18.5637 12.5259C17.9165 12.5259 17.8895 11.0589 17.4473 10.525C17.4149 10.5951 17.3771 10.6652 17.3394 10.7299C18.0837 11.3555 17.6144 13.9982 18.5475 13.9982C18.7578 13.9982 18.898 13.8149 18.9843 13.6369C19.1677 13.254 19.1731 12.7793 19.1569 12.4396C19.1569 12.4342 19.1569 12.4234 19.1623 12.4126L19.1569 12.4018L19.1515 12.3802C19.1677 12.3802 19.1623 12.3964 19.1569 12.4126V12.4234L19.1947 12.6176C19.2216 12.7524 19.2378 12.8872 19.254 13.0274C19.281 13.3079 19.3079 13.6423 19.1515 13.9713C18.5529 15.0769 17.3825 14.4782 17.1722 14.4782C17.1183 14.4782 16.9942 14.4243 16.9565 14.3973C16.9727 14.5969 16.9727 14.818 16.8648 15.0499C16.7731 15.2441 16.6437 15.3789 16.4387 15.5083C16.4657 15.5461 16.5304 15.5623 16.5897 15.5623C17.0751 15.5623 18.6284 15.9398 19.3565 14.5429C19.3888 14.4728 19.4158 14.4081 19.432 14.338C19.6261 13.6531 19.4589 13.0382 19.3025 12.4935Z" fill="white"/>
</svg>
