<svg width="24" height="24" viewBox="0 0 24 24" fill="none" xmlns="http://www.w3.org/2000/svg">
<path fill-rule="evenodd" clip-rule="evenodd" d="M19.4157 17.9569L12 15.0822L4.58427 17.9569L6.67272 14.6876C6.59082 14.7093 6.51009 14.7297 6.4313 14.7497L6.41797 14.7531L6.3899 14.7604C6.13076 14.8277 5.88826 14.8907 5.70606 14.9688C5.63595 14.9958 5.56584 15.012 5.49033 15.012C5.42561 15.012 5.36089 15.0012 5.29617 14.9742C5.16134 14.9257 5.05348 14.8178 4.99955 14.6884C4.84853 14.3324 4.66516 14.0681 4.44404 13.874C4.29842 13.7499 4.2337 13.5558 4.27146 13.367C4.30921 13.1783 4.44404 13.0219 4.62741 12.9625C4.67056 12.9463 4.7191 12.9302 4.77303 12.914C4.51955 12.7953 4.31999 12.6228 4.17438 12.3962C4.10993 12.2943 4.05974 12.1852 4.02386 12.0702L0 10.5681L4.22592 10.5878C4.42348 10.2004 4.87762 9.55364 5.31235 9.05242C5.76539 8.52388 6.43954 7.82275 7.09213 7.82275C7.38336 7.82275 7.64224 7.96298 7.79865 8.21107C8.06831 8.63174 7.9982 9.32747 7.86876 9.87759C7.8732 9.88055 7.87806 9.88352 7.8831 9.88659C7.89639 9.89471 7.91096 9.90361 7.92269 9.91534C8.04673 10.0124 8.11685 10.158 8.12224 10.3144C8.12224 10.3846 8.13842 10.4708 8.15999 10.5679L8.33258 10.3468C8.44584 10.1958 8.63999 10.1149 8.82876 10.1419C8.96898 10.158 9.09303 10.2335 9.17932 10.3414C9.26405 10.2355 9.38128 10.1699 9.50611 10.1484L12 6L14.3773 9.94984C14.5963 10.0201 14.8011 10.1366 14.9825 10.2929C14.9986 10.2767 15.0148 10.2551 15.031 10.2335C15.1281 10.1095 15.2791 10.034 15.4409 10.0286C15.5434 10.0286 15.6458 10.0556 15.7321 10.1095C15.8508 10.034 15.9964 9.99624 16.1474 9.99624C16.4494 9.99624 16.7299 10.0987 16.978 10.2875C16.9862 10.2792 16.9913 10.2678 16.9956 10.2581L16.9995 10.2497C17.0049 10.2497 17.0049 10.2443 17.0049 10.2443C17.0118 10.2305 17.021 10.2189 17.0295 10.2081C17.0342 10.202 17.0388 10.1962 17.0427 10.1904V10.185C17.129 10.0825 17.2476 10.007 17.3879 9.99084H17.4094C17.4688 9.98545 17.5281 9.98545 17.5874 10.0016C17.6953 10.0286 17.7923 10.0879 17.8679 10.1796C17.8786 10.1931 17.8881 10.2066 17.8975 10.2201C17.907 10.2335 17.9164 10.247 17.9272 10.2605C17.9595 10.309 17.9919 10.363 18.0243 10.4169C18.035 10.3414 18.062 10.2713 18.1052 10.2066C18.2184 10.0448 18.4072 9.95848 18.6013 9.97466C18.6121 9.98006 18.6445 9.98006 18.6714 9.98006L18.7163 9.98224C18.8052 9.98628 18.9102 9.99105 19.0112 10.0232C19.2377 10.0879 19.3888 10.2929 19.3995 10.5248C19.403 10.5454 19.4075 10.566 19.4126 10.5869L24 10.5681L19.7637 12.1495C19.7799 12.2142 19.7969 12.2784 19.8148 12.3423L19.8183 12.3544C19.9744 12.8979 20.1852 13.6322 19.955 14.478C19.9281 14.5751 19.8903 14.6722 19.8472 14.7639C19.8472 14.7718 19.8443 14.7768 19.8406 14.7831C19.8393 14.7855 19.8378 14.788 19.8364 14.7908C19.5555 15.3527 18.8838 15.9459 18.144 15.966L19.4157 17.9569ZM17.5335 13.6637C17.5335 13.6663 17.5348 13.669 17.5362 13.6717C17.5375 13.6744 17.5389 13.6771 17.5389 13.6798C17.5443 13.7014 17.555 13.7283 17.5658 13.7553L17.582 13.7877C17.5847 13.7958 17.5874 13.8025 17.5901 13.8093C17.5928 13.816 17.5955 13.8228 17.5982 13.8308H17.3879C17.4418 13.7823 17.4903 13.7284 17.5335 13.6637ZM7.21079 11.2529C7.3564 10.9509 7.43191 10.6435 7.46427 10.3576L7.58292 10.336C7.59334 10.6402 7.72442 11.0215 7.86091 11.4186C8.07782 12.0496 8.30837 12.7202 8.08989 13.1837C7.76537 13.8633 6.98952 14.0591 6.28845 14.236C5.99915 14.309 5.72259 14.3788 5.49573 14.4781C5.33393 14.0951 5.11281 13.7392 4.8 13.4695C4.90577 13.4343 5.03473 13.3953 5.17869 13.3517C5.98163 13.1089 7.25118 12.725 7.56674 12.0619C7.72315 11.7329 7.61528 11.1828 7.4373 10.9994C7.40494 11.1181 7.3618 11.2367 7.30787 11.3554C6.99506 12.0241 6.3155 12.5473 5.61438 12.5473C4.64359 12.5473 4.22831 11.8462 4.68674 10.8754C4.96179 10.2929 6.36404 8.35132 7.09213 8.35132C7.72854 8.35132 7.3564 9.95312 7.12989 10.4331C6.93573 10.8484 6.49348 11.4417 5.97573 11.4417C5.3555 11.4417 5.37168 10.7459 5.61977 10.2174C5.7546 9.93154 5.95955 9.61334 6.24539 9.37604C6.21093 9.498 6.25205 9.60041 6.29125 9.698C6.33178 9.79894 6.37025 9.89472 6.3209 10.0017C6.28771 10.0763 6.23466 10.1538 6.18067 10.2327C6.12938 10.3077 6.07723 10.3839 6.04045 10.4601C5.9218 10.7136 5.96494 11.1558 6.25079 11.1558C6.50966 11.1558 6.73618 10.843 6.82786 10.6435C7.01663 10.239 7.49663 8.51312 6.9627 8.51312C6.34786 8.51312 5.28539 10.0124 5.06427 10.4817C4.66517 11.3176 4.9564 12.3531 5.85708 12.3531C6.46652 12.3531 6.96809 11.7653 7.21079 11.2529ZM13.8715 10.4062C13.5856 10.4062 13.3969 10.6759 13.2782 10.9186C12.7928 11.9487 13.0139 12.9788 14.1411 12.9788C14.4971 12.9788 14.8099 12.7847 14.9771 12.4233C15.4031 11.5227 14.7721 10.4062 13.8715 10.4062ZM14.9393 11.6413C14.8045 11.9218 14.4755 12.0674 14.2166 12.0674C13.6018 12.0674 13.1757 11.431 13.4724 10.8054C13.5209 10.6975 13.591 10.5842 13.7097 10.5087C13.4184 10.8539 13.6773 11.3177 14.0171 11.3177C14.0764 11.3177 14.2166 11.253 14.2652 11.1937C14.2652 11.1036 14.163 11.0204 14.062 10.9383C13.9455 10.8435 13.8306 10.7501 13.8768 10.6489C13.9146 10.5627 13.9901 10.5357 14.071 10.5357C14.4539 10.5411 15.1281 11.2422 14.9393 11.6413ZM12.0378 10.514C11.9885 10.514 11.9434 10.5057 11.899 10.4975C11.8558 10.4895 11.8133 10.4817 11.7681 10.4817C11.5092 10.4817 11.1748 10.9293 11.0777 11.1343C10.7272 11.8785 10.6139 13.1082 11.5146 13.1082C12.027 13.1082 12.4261 12.763 12.6472 12.2884C12.9384 11.6736 12.6849 10.514 12.0378 10.514ZM12.6472 11.6844C12.507 11.9864 12.1402 12.2669 11.822 12.2669C11.2503 12.2669 11.0508 11.5334 11.2989 11.0048C11.369 10.8592 11.4715 10.7082 11.6279 10.6057C11.3744 10.9671 11.369 11.528 11.7951 11.528C11.8813 11.528 12.0485 11.4417 12.0971 11.3446C12.1293 11.2753 12.0433 11.1935 11.9503 11.105C11.8405 11.0006 11.721 10.8867 11.7735 10.7729C11.822 10.6705 11.9083 10.6219 12.0108 10.6219C12.3775 10.6219 12.8252 11.3123 12.6472 11.6844ZM9.96674 11.005C9.78204 11.005 9.74458 10.9203 9.70511 10.8311C9.68004 10.7744 9.65416 10.7158 9.58921 10.676C9.50292 10.8055 9.16854 11.307 8.98517 11.307C8.92289 11.307 8.84658 11.0262 8.79473 10.8354C8.77473 10.7618 8.75837 10.7015 8.74786 10.676L8.45123 11.0643C8.82837 11.2684 8.91724 11.83 9.00108 12.3599C9.0923 12.9363 9.17756 13.4751 9.62157 13.4751C9.78876 13.4751 9.99371 13.4266 10.1717 13.3133C10.107 13.0275 10.1124 12.7524 10.1609 12.418C10.1164 12.4378 10.0705 12.4602 10.0239 12.4828C9.86715 12.5591 9.70234 12.6392 9.55685 12.6392C9.20629 12.6392 8.86112 11.7223 8.99056 11.4473C9.02292 11.3825 9.12 11.3556 9.17393 11.3556C9.19058 11.3556 9.23072 11.381 9.28346 11.4143C9.38444 11.4782 9.53162 11.5713 9.64854 11.5713C9.89663 11.5713 10.1501 11.2855 10.2526 11.0697C10.3169 10.9305 10.312 10.8231 10.3066 10.7054L10.3065 10.703C10.2407 10.7083 10.1916 10.7803 10.1423 10.8527C10.0905 10.9287 10.0385 11.005 9.96674 11.005ZM16.1366 10.5303C17.1074 10.5303 17.5982 12.31 17.1667 13.2269C17.0858 13.4049 16.9294 13.5775 16.7245 13.5775C16.0624 13.5775 15.8993 12.7884 15.7407 12.021C15.6344 11.5069 15.5301 11.0024 15.2791 10.7514C15.3384 10.6921 15.3924 10.6274 15.4409 10.5626C15.5951 10.7446 15.6646 11.0345 15.735 11.3289C15.8567 11.8372 15.9815 12.3586 16.5519 12.3586C16.7568 12.3586 16.9132 12.1806 16.9995 12.0026C17.2261 11.528 16.8108 10.7083 16.3577 10.7083C16.3524 10.7083 16.2876 10.7083 16.2876 10.7352C16.2937 10.8479 16.3305 10.8922 16.3619 10.9302C16.4148 10.994 16.4526 11.0396 16.3038 11.3608C16.0557 11.3123 15.7969 10.924 15.9317 10.6381C15.9694 10.5518 16.0719 10.5303 16.1366 10.5303ZM19.3025 12.4935C19.2164 12.1969 19.1548 11.8947 19.0932 11.5924C19.0506 11.3834 19.008 11.1744 18.9573 10.9672C18.9497 10.9368 18.9418 10.9064 18.9339 10.876C18.9081 10.7768 18.8821 10.6767 18.8656 10.5735C18.8656 10.5686 18.8666 10.5637 18.8675 10.5591C18.8697 10.5485 18.8715 10.5395 18.8602 10.5358C18.8102 10.5224 18.7394 10.5194 18.6711 10.5165C18.629 10.5147 18.5878 10.5129 18.5528 10.5088C18.5776 10.5559 18.6062 10.6073 18.6368 10.6624C18.8657 11.0745 19.2088 11.6923 18.9519 12.2346C18.8872 12.3749 18.72 12.5259 18.5636 12.5259C18.1727 12.5259 18.008 11.9906 17.8415 11.449C17.7323 11.094 17.6223 10.7364 17.4472 10.525C17.4148 10.5951 17.3771 10.6652 17.3393 10.7299C17.6805 11.0167 17.7667 11.7273 17.8498 12.413C17.9481 13.223 18.0421 13.9982 18.5474 13.9982C18.7578 13.9982 18.898 13.8149 18.9843 13.6369C19.1676 13.254 19.173 12.7793 19.1569 12.4396C19.1569 12.4367 19.1569 12.4324 19.1576 12.4274L19.1946 12.6176C19.2216 12.7524 19.2378 12.8872 19.2539 13.0274C19.2809 13.3079 19.3079 13.6423 19.1515 13.9713C18.6586 14.8816 17.7781 14.6365 17.365 14.5216C17.2764 14.4969 17.2093 14.4782 17.1721 14.4782C17.1182 14.4782 16.9942 14.4243 16.9564 14.3973C16.9726 14.5969 16.9726 14.818 16.8647 15.0499C16.773 15.2441 16.6436 15.3789 16.4387 15.5083C16.4656 15.5461 16.5303 15.5623 16.5897 15.5623C16.6596 15.5623 16.7516 15.5701 16.8601 15.5793C17.5053 15.6342 18.7332 15.7386 19.3564 14.5429C19.3888 14.4728 19.4157 14.4081 19.4319 14.338C19.6261 13.6531 19.4589 13.0382 19.3025 12.4935ZM19.159 12.4061L19.1622 12.4126C19.1597 12.4177 19.1583 12.4229 19.1576 12.4274L19.1569 12.4234V12.4126L19.159 12.4061ZM19.159 12.4061L19.1569 12.4018L19.1515 12.3802C19.1655 12.3802 19.1633 12.3924 19.159 12.4061Z" fill="black"/>
</svg>
