<svg width="24" height="24" viewBox="0 0 24 24" fill="none" xmlns="http://www.w3.org/2000/svg">
<path d="M22.0545 11.4545C21.5091 10.5818 20.7455 9.81818 19.7636 9.27273C19.1091 8.83636 18.3455 8.61818 17.4727 8.50909V5.56364C18.3455 5.23636 18.7818 4.47273 18.7818 3.6C18.7818 2.4 17.8 1.41818 16.6 1.41818C15.4 1.41818 14.3091 2.4 14.3091 3.6C14.3091 4.47273 14.7455 5.23636 15.6182 5.56364V8.50909C14.9636 8.61818 14.3091 8.83636 13.6545 9.16364C12.3455 8.18182 8.2 5.01818 5.69091 3.27273C5.8 3.05455 5.8 2.83636 5.8 2.61818C5.90909 1.09091 4.81818 0 3.50909 0C2.2 0 1 1.09091 1 2.4C1 3.70909 2.09091 4.8 3.50909 4.8C3.94545 4.8 4.38182 4.69091 4.81818 4.47273L5.36364 4.90909L12.4545 9.92727C12.1273 10.2545 11.6909 10.6909 11.4727 11.1273C10.9273 12 10.6 12.9818 10.6 14.0727V14.2909C10.6 15.0545 10.7091 15.7091 11.0364 16.3636C11.2545 16.9091 11.5818 17.4545 11.9091 17.8909L9.50909 20.1818C8.85455 19.9636 7.98182 20.0727 7.54545 20.6182C7.21818 20.9455 7 21.4909 7 21.9273C7 22.4727 7.21818 22.9091 7.54545 23.2364C7.76364 23.7818 8.2 24 8.74546 24C9.29091 24 9.72727 23.7818 10.0545 23.4545C10.3818 23.1273 10.6 22.5818 10.6 22.1455C10.6 21.9273 10.6 21.7091 10.4909 21.6L12.8909 19.2C13.2182 19.4182 13.5455 19.6364 13.9818 19.7455C14.7455 20.0727 15.6182 20.2909 16.4909 20.2909H16.7091C17.6909 20.2909 18.6727 20.0727 19.5455 19.5273C20.5273 18.9818 21.2909 18.3273 21.8364 17.4545C22.3818 16.5818 22.7091 15.6 22.7091 14.5091C22.8182 13.3091 22.6 12.3273 22.0545 11.4545ZM19.1091 16.4727C18.4545 17.2364 17.6909 17.6727 16.8182 17.6727H16.7091C16.2727 17.6727 15.7273 17.5636 15.2909 17.3455C14.7455 17.1273 14.3091 16.6909 13.9818 16.2545C13.6545 15.8182 13.4364 15.2727 13.4364 14.7273V14.5091C13.4364 13.9636 13.5455 13.4182 13.7636 12.9818C14.0909 12.4364 14.4182 12 14.9636 11.6727C15.5091 11.3455 15.9455 11.2364 16.6 11.2364H16.7091C17.2545 11.2364 17.8 11.3455 18.2364 11.5636C18.6727 11.7818 19.1091 12.2182 19.4364 12.6545C19.7636 13.0909 19.8727 13.6364 19.9818 14.1818C19.9818 14.2909 19.9818 14.4 19.9818 14.5091C19.8727 15.1636 19.6545 15.8182 19.1091 16.4727Z" fill="black"/>
</svg>
