<svg width="24" height="24" viewBox="0 0 24 24" fill="none" xmlns="http://www.w3.org/2000/svg">
<g clip-path="url(#clip0_865_997)">
<path d="M6.54545 0C2.93455 0 0 2.93455 0 6.54545V17.4545C0 21.0655 2.93455 24 6.54545 24H17.4545C21.0655 24 24 21.0655 24 17.4545V6.54545C24 2.93455 21.0655 0 17.4545 0H6.54545ZM4.70135 8.22017C5.08317 8.22017 5.36719 8.49298 5.36719 8.85298C5.36719 9.20753 5.08317 9.48047 4.70135 9.48047C4.31408 9.48047 4.03125 9.20753 4.03125 8.85298C4.03125 8.49298 4.31408 8.22017 4.70135 8.22017ZM10.3849 8.53125C12.3759 8.53125 13.6033 9.92143 13.6033 12.1523C13.6033 14.3778 12.3868 15.7798 10.3849 15.7798C8.37222 15.7798 7.15057 14.3833 7.15057 12.1523C7.15057 9.91598 8.39949 8.53125 10.3849 8.53125ZM17.4386 8.53125C18.8404 8.53125 19.8649 9.34871 19.9304 10.516H18.8832C18.7795 9.8778 18.2288 9.48047 17.4215 9.48047C16.5706 9.48047 16.0089 9.88338 16.0089 10.5107C16.0089 11.0016 16.369 11.2855 17.2745 11.4982L18.033 11.6836C19.4567 12.0163 20.0401 12.5892 20.0401 13.631C20.0401 14.9565 19.0143 15.7852 17.3725 15.7852C15.8398 15.7852 14.809 14.9949 14.7326 13.7567H15.7969C15.8896 14.4113 16.5327 14.8306 17.4545 14.8306C18.3164 14.8306 18.9492 14.3838 18.9492 13.7674C18.9492 13.2438 18.551 12.9277 17.6346 12.7095L16.7397 12.4964C15.4906 12.2019 14.918 11.5966 14.918 10.582C14.918 9.3493 15.9277 8.53125 17.4386 8.53125ZM10.3849 9.52947C9.08131 9.52947 8.2532 10.5487 8.2532 12.1523C8.2532 13.7505 9.05403 14.7816 10.3849 14.7816C11.6995 14.7816 12.5071 13.7505 12.5071 12.1523C12.5071 10.5487 11.6995 9.52947 10.3849 9.52947ZM4.18892 10.3967H5.21484V15.6168H4.18892V10.3967Z" fill="black"/>
</g>
<defs>
<clipPath id="clip0_865_997">
<rect width="24" height="24" fill="white"/>
</clipPath>
</defs>
</svg>
