<svg width="24" height="24" viewBox="0 0 24 24" fill="none" xmlns="http://www.w3.org/2000/svg">
<g clip-path="url(#clip0_865_1024)">
<path d="M0 0V24H24V0H0ZM12.6545 20.6182C12.2182 21.3818 11.5636 21.8182 10.8 22.0364C9.6 22.2545 8.50909 22.1455 7.63636 21.6C7.09091 21.2727 6.65455 20.7273 6.32727 19.9636L8.18182 18.8727C8.18182 18.8727 8.18182 18.9818 8.29091 19.0909C8.61818 19.5273 8.72727 19.7455 9.16364 19.9636C9.49091 20.0727 10.3636 20.1818 10.6909 19.5273C10.9091 19.2 10.8 18 10.8 16.8V11.0182H13.0909C13.0909 13.0909 13.0909 15.1636 13.0909 17.2364C13.0909 18.5455 13.2 19.6364 12.6545 20.6182ZM21.9273 20.1818C21.1636 22.8 16.8 22.9091 15.0545 21.1636C14.7273 20.7273 14.5091 20.5091 14.2909 20.0727C15.2727 19.5273 15.2727 19.5273 16.1455 18.9818C16.5818 19.7455 17.1273 20.0727 17.8909 20.2909C18.9818 20.4 20.0727 20.0727 19.8545 18.8727C19.6364 18 17.5636 17.6727 16.2545 16.6909C14.9455 15.7091 14.6182 13.5273 15.7091 12.2182C16.1455 11.7818 16.8 11.4545 17.4545 11.2364L18.1091 11.1273C19.5273 11.0182 20.2909 11.4545 20.9455 12.1091C21.0545 12.3273 21.2727 12.4364 21.4909 12.8727C20.7273 13.3091 20.7273 13.3091 19.7455 13.9636C19.5273 13.5273 19.2 13.2 18.7636 13.0909C18.1091 12.8727 17.3455 13.0909 17.2364 13.7455C17.1273 13.8545 17.1273 14.0727 17.2364 14.4C17.4545 14.9455 18.2182 15.1636 18.9818 15.4909C21.1636 16.3636 21.8182 17.2364 22.0364 18.3273C22.2545 19.2 22.0364 19.8545 21.9273 20.1818Z" fill="black"/>
</g>
<defs>
<clipPath id="clip0_865_1024">
<rect width="24" height="24" fill="white"/>
</clipPath>
</defs>
</svg>
