<svg width="24" height="24" viewBox="0 0 24 24" fill="none" xmlns="http://www.w3.org/2000/svg">
<path d="M14.9999 16.5C12.1999 17 10.5999 17 8.59989 16.8C7.09989 16.7 8.09989 15.9 8.09989 15.9C3.99989 17.3 10.3999 18.8 15.9999 17.1C15.3999 16.9 14.9999 16.5 14.9999 16.5ZM8.7001 18.6C5.0001 19.6 10.9001 21.7 15.7001 19.7C15.0001 19.4 14.4001 19.1 14.4001 19.1C12.3001 19.5 11.3001 19.5 9.4001 19.3C7.8001 19.1 8.7001 18.6 8.7001 18.6Z" fill="#0074BD"/>
<path d="M17.2001 4.90002C17.2001 4.90002 9.00006 7.00002 12.9001 11.5C14.1001 12.8 12.6001 14 12.6001 14C12.6001 14 15.5001 12.5 14.2001 10.6C12.9001 8.80002 12.0001 7.90002 17.2001 4.90002Z" fill="#EA2D2E"/>
<path d="M16.8999 17.6V17.7C22.8999 16.1 20.6999 12.1 17.7999 13.1C17.4999 13.2 17.3999 13.4 17.3999 13.4C17.3999 13.4 17.4999 13.4 17.8999 13.3C19.2999 13 21.3999 15.3 16.8999 17.6ZM19.2 20.5C19.2 20.5 19.9 21.1 18.5 21.5C15.8 22.3 7.20002 22.6 4.80002 21.5C3.90002 21.1 5.50002 20.6 6.10002 20.5C6.60002 20.4 6.90002 20.4 6.90002 20.4C5.90002 19.7 0.700022 21.7 4.30002 22.3C13.8 23.9 21.6 21.6 19.2 20.5ZM15.9001 14.6C16.4001 14.3 17.0001 14 17.0001 14C17.0001 14 15.2001 14.3 13.4001 14.5C11.2001 14.7 8.80006 14.8 7.60006 14.6C4.70006 14.2 9.10006 13.2 9.10006 13.2C9.10006 13.2 7.40006 13.1 5.40006 14C2.90006 15.2 11.5001 15.8 15.9001 14.6Z" fill="#0074BD"/>
<path d="M11.8001 13.1C10.9001 11.1 7.90008 9.4 11.8001 6.3C16.7001 2.5 14.2001 0 14.2001 0C15.2001 4 10.7001 5.2 9.00008 7.6C7.90008 9.3 9.60008 11.1 11.8001 13.1Z" fill="#EA2D2E"/>
<path d="M17.1 23.1C13.4 23.8 8.89995 23.6999 6.19995 23.2999C6.19995 23.2999 6.69995 23.6999 9.59995 23.9C13.9 24.1999 20.6 23.7 20.7 21.7C20.7 21.7 20.4 22.5 17.1 23.1Z" fill="#0074BD"/>
</svg>
