<svg width="24" height="24" viewBox="0 0 24 24" fill="none" xmlns="http://www.w3.org/2000/svg">
<path fill-rule="evenodd" clip-rule="evenodd" d="M12.0533 19.7801C11.8407 20.4302 11.6282 21.0804 11.4031 21.7556L11.5532 21.7465C13.1566 21.6494 14.807 21.5495 16.5045 21.3555C19.2552 21.1054 21.1557 19.605 22.5061 17.3544C24.8067 13.5034 24.4066 7.85185 21.6059 4.30089C19.2552 1.35009 16.0044 1.05001 12.5534 1V4.701C18.1049 5.60124 19.8554 7.15166 19.9054 11.2028C19.9554 12.9532 19.6553 14.6537 18.455 16.0541C17.1303 17.6271 15.3602 17.6926 13.7118 17.7535C13.3687 17.7662 13.0309 17.7787 12.7035 17.8045C12.4784 18.4797 12.2658 19.1299 12.0533 19.7801ZM1.50041 17.9048C1.00027 18.3674 0.500136 18.83 0 19.3051C0.278024 19.5554 0.540593 19.7592 0.787706 19.9511C0.985123 20.1043 1.17268 20.25 1.35036 20.4054C3.30089 22.0059 5.50148 22.556 7.95215 21.8558C9.95269 21.3057 11.103 19.6552 11.153 17.1546C11.253 11.9031 11.253 6.70174 11.253 1.45032C11.253 1.35029 11.203 1.20025 11.153 1.10023H7.20194V2.30055C7.20194 7.05178 7.20194 11.8032 7.15193 16.5544C7.10192 18.2048 6.05163 18.755 4.65126 17.8547C4.24449 17.6175 3.90664 17.3113 3.54429 16.9828C3.37202 16.8267 3.1942 16.6655 3.00081 16.5044C2.50068 16.9795 2.00054 17.4421 1.50041 17.9048Z" fill="black"/>
</svg>
