<svg width="24" height="24" viewBox="0 0 24 24" fill="none" xmlns="http://www.w3.org/2000/svg">
<g clip-path="url(#clip0_865_1062)">
<path fill-rule="evenodd" clip-rule="evenodd" d="M2.58296 0.108597C2.79821 0 3.01345 0 3.2287 0H21.6323C22.0628 0.108597 22.3857 0.325792 22.7085 0.542986C23.0314 0.868778 23.2466 1.19457 23.4619 1.62896V1.73756L23.3543 1.62896C23.3005 1.62896 23.2466 1.60181 23.1928 1.57466C23.139 1.54751 23.0852 1.52036 23.0314 1.52036H22.6009C22.4933 1.52036 22.3587 1.54751 22.2242 1.57466C22.0897 1.60181 21.9552 1.62896 21.8475 1.62896C21.7399 1.62896 21.6323 1.65611 21.5247 1.68326C21.417 1.71041 21.3094 1.73756 21.2018 1.73756L20.6637 1.84615L19.9103 2.06335C19.7326 2.06335 19.5874 2.09626 19.457 2.12585C19.3505 2.15 19.2537 2.17195 19.157 2.17195C19.0493 2.17195 18.9148 2.1991 18.7803 2.22624C18.6457 2.25339 18.5112 2.28054 18.4036 2.28054C18.296 2.28054 18.2152 2.30769 18.1345 2.33484C18.0538 2.36199 17.9731 2.38914 17.8655 2.38914L17.0045 2.49774C16.8969 2.49774 16.7623 2.52489 16.6278 2.55204C16.4933 2.57919 16.3587 2.60634 16.2511 2.60634C16.125 2.60634 16.0359 2.6436 15.962 2.67447C15.9098 2.6963 15.8652 2.71493 15.8206 2.71493C15.775 2.71493 15.7487 2.71493 15.7254 2.72322C15.6936 2.73446 15.6674 2.76099 15.6054 2.82353C15.4978 2.93213 15.3901 3.04072 15.4978 3.25792C15.4978 3.31222 15.5247 3.33937 15.5516 3.36652C15.5785 3.39367 15.6054 3.42081 15.6054 3.47511L15.9283 3.9095C16.0038 4.13806 16.1322 4.31318 16.2765 4.50984C16.3379 4.59349 16.4021 4.68105 16.4664 4.77828L17.1121 5.64706L18.1883 7.38462L18.8341 8.25339L19.9103 9.99095V10.0995H19.8027L17.6502 10.6425C17.3274 10.6968 17.0045 10.7783 16.6816 10.8597C16.3588 10.9412 16.0359 11.0226 15.713 11.0769C15.3901 11.0769 15.0673 11.1855 14.7444 11.2941C14.3272 11.3543 13.943 11.4477 13.5735 11.5376C13.2758 11.61 12.9877 11.68 12.6996 11.7285C12.3767 11.7828 12.0538 11.8643 11.7309 11.9457C11.4081 12.0271 11.0852 12.1086 10.7623 12.1629L9.79372 12.3801C9.47085 12.4344 9.14798 12.5158 8.82511 12.5973C8.50224 12.6787 8.17937 12.7602 7.8565 12.8145C7.64126 12.8688 7.45292 12.9231 7.26457 12.9774C7.07623 13.0317 6.88789 13.086 6.67265 13.1403H6.56502V13.0317C6.40359 12.7602 6.26906 12.4887 6.13453 12.2172C6 11.9457 5.86547 11.6742 5.70404 11.4027L4.6278 9.66516C4.46637 9.44796 4.33184 9.20362 4.19731 8.95928C4.06278 8.71493 3.92825 8.47059 3.76682 8.25339C3.55157 7.9276 3.33632 7.60181 3.2287 7.27602L2.36771 5.75566C2.15246 5.42987 1.93722 5.10407 1.72197 4.88688L1.07623 3.9095C0.96861 3.69231 0.860987 3.50226 0.753363 3.31222C0.64574 3.12217 0.538117 2.93213 0.430493 2.71493C0.430493 2.66063 0.403588 2.63348 0.376682 2.60633C0.349776 2.57919 0.32287 2.55204 0.32287 2.49774C0.430493 2.06335 0.64574 1.62896 0.860987 1.30317C0.96861 1.08597 1.18386 0.868778 1.3991 0.651584C1.72197 0.434389 2.15247 0.217195 2.58296 0.108597ZM9.57848 22.2624C9.79372 22.8054 10.1166 23.3484 10.4395 23.8914H3.12108L2.90583 23.7828C2.79821 23.7285 2.69058 23.7014 2.58296 23.6742C2.47534 23.6471 2.36771 23.6199 2.26009 23.5656C1.61435 23.3484 1.07623 22.914 0.753363 22.371C0.430493 22.0452 0.32287 21.6109 0.215247 21.1765C0.107623 21.0679 0.107623 20.9593 0.107623 20.8507L0 20.7421V16.724H0.107623C0.430493 16.6154 0.753363 16.5339 1.07623 16.4525C1.3991 16.371 1.72197 16.2896 2.04484 16.181C2.36771 16.0724 2.69058 15.991 3.01345 15.9095C3.33632 15.8281 3.65919 15.7466 3.98206 15.638C4.1435 15.5837 4.27803 15.5566 4.41256 15.5294C4.54709 15.5023 4.68161 15.4751 4.84305 15.4208C4.95067 15.4208 5.0583 15.3937 5.16592 15.3665C5.27354 15.3394 5.38117 15.3122 5.48879 15.3122H5.59641L5.70404 15.4208C5.81166 15.638 5.91928 15.8281 6.02691 16.0181C6.13453 16.2081 6.24215 16.3982 6.34978 16.6154C6.78027 17.1584 7.10314 17.81 7.42601 18.4615C7.58744 18.7873 7.77578 19.1131 7.96412 19.4389C8.15246 19.7647 8.34081 20.0905 8.50224 20.4163C8.93274 21.0679 9.25561 21.6109 9.57848 22.2624ZM1.90045 14.3852C1.52036 14.4674 1.14027 14.5496 0.760181 14.6592L0.108597 14.7688H0V5.67363C0.217195 5.67363 0.108597 5.78321 0.108597 5.78321C0.217195 6.00237 0.325792 6.22153 0.542986 6.44069C0.651584 6.65985 0.78733 6.87901 0.923077 7.09817C1.05882 7.31733 1.19457 7.53649 1.30317 7.75565C1.62896 8.41312 1.95474 8.96101 2.28053 9.50891L3.25792 11.2622L4.23529 12.9059C4.34389 13.1251 4.45249 13.3442 4.66968 13.5634C4.66968 13.673 4.66968 13.7826 4.56109 13.7826C4.45249 13.7826 4.37104 13.8099 4.28959 13.8373C4.20814 13.8647 4.1267 13.8921 4.0181 13.8921C3.8552 13.9469 3.69231 13.9743 3.52941 14.0017C3.36652 14.0291 3.20362 14.0565 3.04072 14.1113C2.66063 14.2209 2.28054 14.3031 1.90045 14.3852ZM23.3484 21.2888C23.4842 21.234 23.6199 21.1792 23.7828 21.1244H24V21.234C23.8914 21.6723 23.7828 22.1106 23.5656 22.4394C23.3484 22.7681 23.1312 23.0969 22.8054 23.316C22.371 23.6448 21.9367 23.8639 21.3937 23.9735C21.2851 24.0831 21.1765 24.0831 21.0679 24.0831L20.9593 24.1927H15.9638C16.0181 24.1927 16.0724 24.1379 16.1267 24.0831C16.181 24.0283 16.2353 23.9735 16.2896 23.9735C16.724 23.7543 17.1584 23.5352 17.5928 23.4256C17.9729 23.316 18.3529 23.179 18.733 23.0421C19.1131 22.9051 19.4932 22.7681 19.8733 22.6585C20.1364 22.4816 20.4702 22.3761 20.7605 22.2843C20.8298 22.2624 20.8965 22.2413 20.9593 22.2202C21.6108 21.8915 22.2624 21.6723 22.914 21.4532C23.0769 21.3984 23.2127 21.3436 23.3484 21.2888ZM23.3484 14.3304C23.4027 14.4399 23.4842 14.5496 23.5656 14.6592C23.6471 14.7688 23.7285 14.8784 23.7828 14.9879C23.8452 15.0509 23.8717 15.0776 23.883 15.1098C23.8914 15.1336 23.8914 15.1604 23.8914 15.2071V18.9328C23.8914 19.0424 23.7828 19.0424 23.7828 19.0424C23.2398 19.152 22.5882 19.3711 22.0452 19.5903C21.7738 19.6999 21.4751 19.8095 21.1765 19.919C20.8778 20.0286 20.5792 20.1382 20.3077 20.2478C20.0905 20.3574 19.8462 20.4395 19.6018 20.5217C19.3575 20.6039 19.1131 20.6861 18.8959 20.7957L17.4842 21.234C17.267 21.2888 17.0226 21.371 16.7783 21.4532C16.5339 21.5353 16.2896 21.6175 16.0724 21.6723C15.8552 21.7819 15.6109 21.8641 15.3665 21.9463C15.1222 22.0285 14.8778 22.1106 14.6606 22.2202C14.3348 22.3298 14.0362 22.4394 13.7376 22.549C13.4389 22.6585 13.1403 22.7681 12.8145 22.8777L12.5973 22.9873H12.4887C12.4887 23.055 12.4472 23.039 12.3899 23.0169C12.3545 23.0033 12.313 22.9873 12.2715 22.9873C12.23 22.9454 12.1885 22.9196 12.1531 22.8975C12.0958 22.8617 12.0543 22.8358 12.0543 22.7681C12 22.7133 11.9728 22.6585 11.9457 22.6037C11.9186 22.549 11.8914 22.4942 11.8371 22.4394C11.7285 22.2202 11.6199 22.0285 11.5113 21.8367C11.4027 21.6449 11.2941 21.4532 11.1855 21.234C10.9683 20.7957 10.7511 20.467 10.534 20.1382C10.3711 19.8095 10.181 19.5081 9.99095 19.2068C9.8009 18.9054 9.61086 18.6041 9.44796 18.2753L8.47059 16.6316C8.30769 16.3577 8.17195 16.1111 8.0362 15.8646C7.90045 15.618 7.76471 15.3715 7.60181 15.0975V14.9879C7.60181 14.8784 7.71041 14.8784 7.71041 14.8784C8.03619 14.8784 8.36198 14.7688 8.68777 14.6592L10.5339 14.0017C10.8597 13.9469 11.1855 13.8647 11.5113 13.7826C11.8371 13.7004 12.1629 13.6182 12.4887 13.5634L14.552 13.0155C14.8778 12.9607 15.2036 12.8785 15.5294 12.7963C15.8552 12.7141 16.181 12.632 16.5068 12.5772C16.8326 12.5224 17.1584 12.4402 17.4842 12.358C17.81 12.2758 18.1357 12.1936 18.4615 12.1389L19.7647 12.0293C20.0362 11.9745 20.3077 11.8923 20.5792 11.8101C20.8507 11.7279 21.1222 11.6457 21.3937 11.591C21.3937 11.4814 21.5023 11.591 21.5023 11.591C21.5566 11.7005 21.6109 11.7827 21.6652 11.8649C21.7195 11.9471 21.7738 12.0293 21.8281 12.1389C22.0452 12.5772 22.371 13.0155 22.6968 13.4538C22.914 13.673 23.1312 14.0017 23.3484 14.3304ZM22.6968 2.71497C22.914 2.71497 23.1312 2.71497 23.2398 2.93413C23.335 3.07826 23.4303 3.20133 23.5163 3.31257C23.6266 3.45505 23.7218 3.57812 23.7828 3.70119C23.8452 3.76411 23.8717 3.7909 23.883 3.82305C23.8914 3.84689 23.8914 3.87369 23.8914 3.92035V8.96103L21.2851 9.50893V9.39935C21.1765 9.23497 21.0407 9.0432 20.905 8.85143C20.7692 8.65967 20.6335 8.46791 20.5249 8.30355C20.362 8.08439 20.1991 7.83783 20.0362 7.59128C19.8733 7.34472 19.7104 7.09817 19.5475 6.87901C19.3303 6.60506 19.1403 6.33111 18.9502 6.05716C18.7602 5.78321 18.5701 5.50926 18.3529 5.23531C18.19 5.01615 18.0543 4.82438 17.9186 4.63262C17.7828 4.44085 17.6471 4.24909 17.4842 4.02993C17.4842 3.97514 17.457 3.94774 17.4299 3.92035C17.4027 3.89295 17.3756 3.86556 17.3756 3.81077C17.3756 3.81077 17.3756 3.70119 17.4842 3.70119H17.7014L19.1131 3.48203C19.3123 3.43177 19.4887 3.40456 19.6527 3.37926C19.8463 3.3494 20.0227 3.32219 20.1991 3.26287C20.6335 3.15329 21.0679 3.04371 21.5023 3.04371C21.6198 2.98438 21.7693 2.95717 21.9333 2.92731C22.0722 2.90201 22.2216 2.8748 22.371 2.82455C22.4796 2.71497 22.5882 2.71497 22.6968 2.71497ZM22.6968 11.043C23.1312 11.043 23.457 10.9335 23.7828 10.8239C23.8422 10.8839 23.8691 10.911 23.8635 10.9233C23.8589 10.9335 23.832 10.9335 23.7828 10.9335V12.5772C23.6742 12.4676 22.6968 11.1526 22.6968 11.043Z" fill="black"/>
</g>
<defs>
<clipPath id="clip0_865_1062">
<rect width="24" height="24" fill="white"/>
</clipPath>
</defs>
</svg>
