<svg width="24" height="24" viewBox="0 0 24 24" fill="none" xmlns="http://www.w3.org/2000/svg">
<g clip-path="url(#clip0_865_1074)">
<path d="M22.3464 0H1.75266C0.76679 0 0 0.763636 0 1.74545V22.2545C0 23.2364 0.76679 24 1.75266 24H22.2369C23.2228 24 23.9896 23.2364 23.9896 22.2545V1.74545C24.0991 0.763636 23.3323 0 22.3464 0ZM3.61487 20.4V8.94545H7.22973V20.4H3.61487ZM5.36753 7.41818C4.16257 7.41818 3.28624 6.54545 3.28624 5.34545C3.28624 4.14545 4.16257 3.27273 5.36753 3.27273C6.46294 3.27273 7.44881 4.14545 7.44881 5.34545C7.44881 6.54545 6.46294 7.41818 5.36753 7.41818ZM20.4842 20.4H16.8694V14.8364C16.8694 13.5273 16.8694 11.7818 15.0072 11.7818C13.145 11.7818 12.8163 13.2 12.8163 14.7273V20.4H9.42056V8.94545H12.8163V10.4727C13.364 9.70909 14.4595 8.72727 16.2121 8.72727C19.827 8.72727 20.4842 11.1273 20.4842 14.1818V20.4Z" fill="black"/>
</g>
<defs>
<clipPath id="clip0_865_1074">
<rect width="24" height="24" fill="white"/>
</clipPath>
</defs>
</svg>
