<svg width="24" height="24" viewBox="0 0 24 24" fill="none" xmlns="http://www.w3.org/2000/svg">
<g clip-path="url(#clip0_865_1113)">
<path d="M12.7611 7.967C14.723 7.967 16.3135 6.38681 16.3135 4.43754C16.3135 2.48827 14.723 0.908081 12.7611 0.908081C10.7992 0.908081 9.20874 2.48827 9.20874 4.43754C9.20874 6.38681 10.7992 7.967 12.7611 7.967Z" fill="#7B83EB"/>
<path d="M12.5077 5.19373H9.29102L9.30696 5.26402L9.30851 5.27007L9.32445 5.33519C9.80739 7.15393 11.6719 8.28693 13.5215 7.88521V6.20177C13.5199 5.64946 13.0637 5.19538 12.5077 5.19373Z" fill="black" fill-opacity="0.098039"/>
<path d="M11.7465 5.94995H9.55127C10.1383 7.17975 11.3911 7.967 12.7611 7.967V6.95876C12.7594 6.40634 12.3024 5.9516 11.7465 5.94995Z" fill="black" fill-opacity="0.2"/>
<path d="M20.7535 8.21891C22.2248 8.21891 23.4176 7.03384 23.4176 5.57198C23.4176 4.11012 22.2248 2.92505 20.7535 2.92505C19.2821 2.92505 18.0894 4.11012 18.0894 5.57198C18.0894 7.03384 19.2821 8.21891 20.7535 8.21891Z" fill="#5059C9"/>
<path d="M23.037 8.97498H17.0535C16.7866 8.97498 16.5671 9.19311 16.5671 9.45821V15.5914C16.5328 17.4141 17.7982 19.0261 19.5858 19.437C19.8432 19.4906 20.1054 19.5176 20.3684 19.5176C22.4578 19.5176 24.1774 17.8103 24.1787 15.7344V10.1093C24.1787 9.48703 23.6633 8.97498 23.037 8.97498Z" fill="#5059C9"/>
<path d="M18.8504 17.2971C18.8504 20.614 16.1034 23.3433 12.7649 23.3433C10.5929 23.3433 8.57948 22.188 7.49393 20.3187C7.34745 20.0768 7.22024 19.8239 7.11329 19.5625C7.01365 19.3159 6.92984 19.0633 6.86219 18.8062C6.73664 18.3117 6.67276 17.8037 6.67188 17.2937V10.1079C6.67188 9.48637 7.18659 8.97498 7.81212 8.97498H17.7102C18.3357 8.97498 18.8504 9.48637 18.8504 10.1079V17.2971Z" fill="#7B83EB"/>
<path d="M11.7465 5.94995H9.55127C10.1383 7.17975 11.3911 7.967 12.7611 7.967V6.95876C12.7594 6.40634 12.3024 5.9516 11.7465 5.94995Z" fill="black" fill-opacity="0.2"/>
<path d="M13.5223 8.97498V18.5566C13.5223 19.0247 13.1911 19.4329 12.7307 19.5322C12.6591 19.5533 12.5847 19.5636 12.5099 19.5625H7.11329C7.01365 19.3159 6.92984 19.0633 6.86219 18.8062C6.73664 18.3117 6.67276 17.8037 6.67188 17.2937V10.1079C6.67188 9.48637 7.18659 8.97498 7.81212 8.97498H13.5223Z" fill="black" fill-opacity="0.098039"/>
<path d="M12.7612 8.97498V19.3129C12.7623 19.3871 12.752 19.4611 12.7307 19.5322C12.6307 19.9896 12.2199 20.3187 11.7488 20.3187H7.49393C7.34745 20.0768 7.22024 19.8239 7.11329 19.5625C7.01365 19.3159 6.92984 19.0633 6.86219 18.8062C6.73664 18.3117 6.67276 17.8037 6.67188 17.2937V10.1079C6.67188 9.48637 7.18659 8.97498 7.81212 8.97498H12.7612ZM12.7612 8.97498V17.8004C12.7586 18.3513 12.3032 18.8037 11.7488 18.8062H6.86219C6.73664 18.3117 6.67276 17.8037 6.67188 17.2937V10.1079C6.67188 9.48637 7.18659 8.97498 7.81212 8.97498H12.7612ZM7.81356 8.97498C7.81312 8.97498 7.81256 8.97498 7.81212 8.97498C7.18659 8.97498 6.67188 9.48637 6.67188 10.1079V17.2937C6.67276 17.8037 6.73664 18.3117 6.86219 18.8062H10.9876C11.5421 18.8037 11.9975 18.3513 12 17.8004V8.97498H7.81356Z" fill="black" fill-opacity="0.2"/>
<path d="M0.836119 5.94995H10.9847C11.5413 5.94995 11.9993 6.40502 11.9993 6.95799V17.0411C11.9993 17.5941 11.5413 18.0492 10.9847 18.0492H0.836119C0.279558 18.0492 -0.178467 17.5941 -0.178467 17.0411V6.95799C-0.178467 6.40502 0.279558 5.94995 0.836119 5.94995Z" fill="#4B53BC"/>
<path d="M8.94026 9.71237H6.66508V15.7776H5.17021V9.71237H2.88208V8.22253H8.94026V9.71237Z" fill="white"/>
</g>
<defs>
<clipPath id="clip0_865_1113">
<rect width="24" height="24" fill="white"/>
</clipPath>
</defs>
</svg>
