<svg width="24" height="24" viewBox="0 0 24 24" fill="none" xmlns="http://www.w3.org/2000/svg">
<g clip-path="url(#clip0_865_1120)">
<path d="M20.753 8.21899C22.224 8.21899 23.417 7.03399 23.417 5.57199C23.417 4.10999 22.224 2.92499 20.753 2.92499C19.282 2.92499 18.089 4.10999 18.089 5.57199C18.089 7.03399 19.282 8.21899 20.753 8.21899ZM19.85 17.297V10.108C19.85 9.48599 19.335 8.97499 18.71 8.97499H23.037C23.663 8.97499 24.179 9.48699 24.179 10.109V15.734C24.178 17.81 22.458 19.517 20.369 19.517C20.1059 19.517 19.8435 19.4898 19.586 19.436L19.464 19.406C19.7202 18.732 19.8513 18.017 19.851 17.296L19.85 17.297ZM6.93098 19.049L7.11298 19.562C7.22008 19.8235 7.34747 20.0763 7.49398 20.318C8.03152 21.2389 8.80109 22.0029 9.72595 22.5336C10.6508 23.0644 11.6986 23.3435 12.765 23.343C16.104 23.343 18.851 20.614 18.851 17.297V10.108C18.851 9.48599 18.336 8.97499 17.711 8.97499H13V18.041C13 18.594 12.542 19.049 11.985 19.049H6.93098ZM9.24598 4.94999H11.985C12.542 4.94999 13 5.40499 13 5.95799V7.95899C13.896 7.90167 14.7368 7.506 15.3521 6.85208C15.9674 6.19816 16.3113 5.33487 16.314 4.43699C16.314 2.48799 14.724 0.90799 12.762 0.90799C10.8 0.90799 9.20998 2.48799 9.20998 4.43699C9.20998 4.61099 9.22198 4.78199 9.24598 4.94999Z" fill="black"/>
<path fill-rule="evenodd" clip-rule="evenodd" d="M10.985 5.94999H0.835984C0.278984 5.94999 -0.179016 6.40499 -0.179016 6.95799V17.041C-0.179016 17.594 0.278984 18.049 0.835984 18.049H10.985C11.542 18.049 12 17.594 12 17.041V6.95799C12 6.40499 11.542 5.94999 10.985 5.94999ZM6.66498 9.71199H8.93998V8.22199H2.88198V9.71199H5.16998V15.777H6.66498V9.71199Z" fill="black"/>
</g>
<defs>
<clipPath id="clip0_865_1120">
<rect width="24" height="24" fill="white"/>
</clipPath>
</defs>
</svg>
