<svg width="24" height="24" viewBox="0 0 24 24" fill="none" xmlns="http://www.w3.org/2000/svg">
<path fill-rule="evenodd" clip-rule="evenodd" d="M18.7636 10.1644H17.4545L20.7273 13.3283L24 10.1644H22.3636C21.7091 5.03671 17.2364 1 11.7818 1C7.30909 1 3.6 3.61841 1.96364 7.32782L5.23636 8.63702C6.32727 6.23681 8.83636 4.49121 11.7818 4.49121C15.2727 4.49121 18.1091 6.89141 18.7636 10.1644ZM12 14.3104C10.6909 14.3104 9.6 13.2194 9.6 11.9102C9.6 10.601 10.6909 9.51 12 9.51C13.3091 9.51 14.4 10.601 14.4 11.9102C14.4 13.2194 13.3091 14.3104 12 14.3104ZM5.23636 13.7646C5.89091 16.9285 8.72727 19.3287 12.2182 19.3287C15.0545 19.3287 17.5636 17.5831 18.7636 15.0738L22.1455 16.383C20.5091 20.2015 16.6909 22.8199 12.2182 22.8199C6.76364 22.8199 2.29091 18.8923 1.52727 13.7646H0L3.38182 10.4916L6.76364 13.7646H5.23636Z" fill="black"/>
</svg>
