<svg width="24" height="24" viewBox="0 0 24 24" fill="none" xmlns="http://www.w3.org/2000/svg">
<g clip-path="url(#clip0_865_1154)">
<path d="M21.2847 5.34225L12.6068 0.243946C12.0644 -0.0814781 11.3051 -0.0814781 10.7627 0.243946L1.97627 5.34225C1.4339 5.66767 1 6.21005 1 6.8609V16.949C1 17.5999 1.4339 18.2507 1.97627 18.5761L4.25424 19.8778C5.33898 20.4202 5.66441 20.4202 6.20678 20.4202C7.8339 20.4202 8.70169 19.4439 8.70169 17.7084V7.72869C8.70169 7.62022 8.81017 7.40327 8.70169 7.40327H7.61695C7.4 7.40327 7.07458 7.62022 7.07458 7.72869V17.7084C7.07458 18.4677 6.31525 19.227 5.01356 18.5761L2.73559 17.2745C2.62712 17.2745 2.62712 17.166 2.62712 17.0575V6.8609C2.62712 6.75242 2.73559 6.64395 2.84407 6.64395L11.6305 1.54564C11.739 1.54564 11.8475 1.54564 11.9559 1.54564L20.6339 6.53547C20.7424 6.53547 20.7424 6.64395 20.7424 6.75242V16.8406C20.7424 16.949 20.7424 17.0575 20.6339 17.0575L11.9559 22.1558C11.8475 22.1558 11.739 22.1558 11.739 22.1558L9.24407 20.9626C9.13559 20.9626 9.13559 20.9626 9.02712 20.9626C8.37627 21.288 8.2678 21.3965 7.72542 21.6134C7.61695 21.6134 7.4 21.7219 7.8339 22.0473L10.7627 23.7829C11.0881 23.8914 11.4136 23.9999 11.6305 23.9999C11.9559 23.9999 12.2814 23.8914 12.4983 23.7829L21.1763 18.6846C21.7186 18.3592 22.0441 17.7084 22.0441 17.0575V6.8609C22.1525 6.21005 21.8271 5.66767 21.2847 5.34225ZM14.3424 15.4304C12.0644 15.4304 11.522 14.7795 11.3051 13.6948C11.3051 13.5863 11.1966 13.3694 11.0881 13.3694H10.0034C9.89491 13.3694 9.78644 13.5863 9.78644 13.6948C9.78644 15.2134 10.5458 16.949 14.4508 16.949C17.2712 16.949 18.7898 15.8643 18.7898 14.0202C18.7898 12.1761 17.4881 11.6338 14.7763 11.3084C12.0644 10.9829 11.739 10.766 11.739 10.1151C11.739 9.57276 11.9559 8.92191 14.0169 8.92191C15.861 8.92191 16.5119 9.35581 16.7288 10.549C16.7288 10.6575 16.8373 10.766 16.9458 10.766H18.0305C18.139 10.766 18.139 10.766 18.2475 10.6575C18.2475 10.6575 18.3559 10.549 18.3559 10.4406C18.139 8.37954 16.8373 7.40327 14.0169 7.40327C11.522 7.40327 10.0034 8.48801 10.0034 10.2236C10.0034 12.1761 11.522 12.7185 13.9085 12.9355C16.7288 13.2609 16.9458 13.5863 16.9458 14.2372C16.9458 14.9965 16.1864 15.4304 14.3424 15.4304Z" fill="black"/>
</g>
<defs>
<clipPath id="clip0_865_1154">
<rect width="24" height="24" fill="white"/>
</clipPath>
</defs>
</svg>
