<svg width="24" height="24" viewBox="0 0 24 24" fill="none" xmlns="http://www.w3.org/2000/svg">
<path d="M12 6C5.34545 6 0 8.72727 0 12.1091C0 15.4909 5.34545 18.2182 12 18.2182C18.6545 18.2182 24 15.4909 24 12.1091C24 8.72727 18.6545 6 12 6ZM8.83636 13.3091C8.50909 13.5273 8.18182 13.6364 7.85455 13.8545C7.52727 13.9636 7.09091 13.9636 6.54545 13.9636H5.34545L5.01818 15.8182H3.6L4.90909 9.16364H7.63636C8.50909 9.16364 9.05455 9.38182 9.49091 9.81818C9.92727 10.2545 10.0364 10.9091 9.81818 11.6727C9.70909 12 9.6 12.3273 9.49091 12.5455C9.27273 12.7636 9.16364 13.0909 8.83636 13.3091ZM13.0909 13.8545L13.6364 11.0182C13.7455 10.6909 13.6364 10.4727 13.5273 10.3636C13.4182 10.2545 13.2 10.1455 12.7636 10.1455H11.6727L10.9091 13.8545H9.6L10.9091 7.41818H12.3273L12 9.16364H13.3091C14.0727 9.16364 14.6182 9.27273 14.9455 9.6C15.2727 9.92727 15.3818 10.2545 15.1636 10.9091L14.6182 13.8545H13.0909ZM20.9455 11.6727C20.8364 12 20.7273 12.3273 20.6182 12.5455C20.5091 12.7636 20.2909 13.0909 20.0727 13.3091C19.7455 13.5273 19.4182 13.6364 19.0909 13.8545C18.7636 13.9636 18.3273 13.9636 17.7818 13.9636H16.5818L16.2545 15.8182H14.8364L16.1455 9.16364H18.8727C19.7455 9.16364 20.2909 9.38182 20.7273 9.81818C21.0545 10.2545 21.1636 10.9091 20.9455 11.6727ZM18.2182 10.1455H17.2364L16.6909 12.8727H17.5636C18.1091 12.8727 18.5455 12.7636 18.8727 12.5455C19.2 12.3273 19.3091 12 19.4182 11.4545C19.5273 11.0182 19.4182 10.5818 19.3091 10.3636C19.2 10.2545 18.7636 10.1455 18.2182 10.1455ZM7.09091 10.1455H6.10909L5.56364 12.8727H6.43636C6.98182 12.8727 7.41818 12.7636 7.74546 12.5455C8.07273 12.3273 8.18182 12 8.29091 11.4545C8.4 11.0182 8.29091 10.5818 8.18182 10.3636C7.96364 10.2545 7.63636 10.1455 7.09091 10.1455Z" fill="black"/>
</svg>
