<svg width="24" height="24" viewBox="0 0 24 24" fill="none" xmlns="http://www.w3.org/2000/svg">
<g clip-path="url(#clip0_865_1193)">
<path d="M23.6007 9.12155C23.1612 7.47308 22.3919 6.1543 20.7434 6.1543H18.6553V8.68196C18.6553 10.6601 16.897 12.1987 15.0287 12.1987H9.09417C7.5556 12.1987 6.23682 13.6274 6.23682 15.2759V20.7708C6.23682 22.3093 7.5556 23.2984 9.09417 23.738C10.9624 24.2875 12.6109 24.3974 14.8089 23.738C16.2376 23.2984 17.6662 22.4192 17.6662 20.7708V18.5728H11.9515V17.8035H20.6335C22.282 17.8035 22.9414 16.7045 23.4908 14.9462C24.1502 13.0779 24.1502 11.4294 23.6007 9.12155ZM15.2485 20.1114C15.798 20.1114 16.3475 20.551 16.3475 21.2104C16.3475 21.8698 15.9079 22.3093 15.2485 22.3093C14.699 22.3093 14.1495 21.8698 14.1495 21.2104C14.1495 20.551 14.699 20.1114 15.2485 20.1114Z" fill="#FFD845"/>
<path d="M14.9187 0.219797C13.9296 0.109898 12.8306 0 11.8415 0C10.8525 0 9.97327 0.109898 9.09408 0.219797C6.67632 0.65939 6.34663 1.53858 6.34663 3.18705V5.27512H12.0613V6.04441H4.03876C2.39029 6.04441 0.851712 7.03349 0.412119 9.01166C-0.137373 11.2096 -0.137373 12.5284 0.412119 14.8363C0.851712 16.5946 1.8408 17.6936 3.48927 17.6936H5.46744V15.166C5.46744 13.2977 7.11591 11.6492 9.09408 11.6492H14.9187C16.5672 11.6492 17.7761 10.3304 17.7761 8.68197V3.18705C17.7761 1.64847 16.4573 0.439593 14.9187 0.219797ZM8.76439 3.95634C8.2149 3.95634 7.66541 3.51675 7.66541 2.85736C7.66541 2.19797 8.105 1.75837 8.76439 1.75837C9.42378 1.75837 9.86337 2.19797 9.86337 2.85736C9.86337 3.51675 9.31388 3.95634 8.76439 3.95634Z" fill="#3979B0"/>
</g>
<defs>
<clipPath id="clip0_865_1193">
<rect width="24" height="24" fill="white"/>
</clipPath>
</defs>
</svg>
