<svg width="24" height="24" viewBox="0 0 24 24" fill="none" xmlns="http://www.w3.org/2000/svg">
<g clip-path="url(#clip0_865_1199)">
<path fill-rule="evenodd" clip-rule="evenodd" d="M11.7474 0C12.7286 0 13.8188 0.109024 14.8 0.218049C16.3264 0.436097 17.6347 1.63536 17.6347 3.1617V8.61292C17.6347 10.2483 16.4354 11.5566 14.8 11.5566H9.02176C7.05932 11.5566 5.42396 13.1919 5.42396 15.0454V17.5529H3.46152C1.82616 17.5529 0.844938 16.4627 0.408841 14.7183C-0.13628 12.4288 -0.13628 11.1205 0.408841 8.93999C0.844938 6.97755 2.37128 5.99634 4.00664 5.99634H11.9654V5.23317H6.29615V3.1617C6.29615 1.52634 6.62322 0.654146 9.02176 0.218049C9.89395 0.109024 10.7661 0 11.7474 0ZM7.60444 2.83463C7.60444 3.48878 8.14956 3.92487 8.69468 3.92487C9.23981 3.92487 9.78493 3.48878 9.78493 2.83463C9.78493 2.18049 9.34883 1.74439 8.69468 1.74439C8.04054 1.74439 7.60444 2.18049 7.60444 2.83463ZM20.5784 6.10547C22.2137 6.10547 22.9769 7.41376 23.413 9.04912C23.9581 11.3386 23.9581 12.974 23.304 14.8274C22.7588 16.5718 22.1047 17.662 20.4693 17.662H11.8564V18.4252H17.5257V20.6057C17.5257 22.2411 16.1084 23.1133 14.691 23.5494C12.5106 24.2035 10.8752 24.0945 9.02178 23.5494C7.49544 23.1133 6.18715 22.132 6.18715 20.6057V15.1545C6.18715 13.5191 7.49544 12.1018 9.02178 12.1018H14.9091C16.7625 12.1018 18.5069 10.5755 18.5069 8.61302V6.10547H20.5784ZM16.2174 21.0418C16.2174 20.3876 15.6723 19.9515 15.1271 19.9515C14.582 19.9515 14.0369 20.3876 14.0369 21.0418C14.0369 21.6959 14.582 22.132 15.1271 22.132C15.7813 22.132 16.2174 21.6959 16.2174 21.0418Z" fill="black"/>
</g>
<defs>
<clipPath id="clip0_865_1199">
<rect width="24" height="24" fill="white"/>
</clipPath>
</defs>
</svg>
