<svg width="24" height="24" viewBox="0 0 24 24" fill="none" xmlns="http://www.w3.org/2000/svg">
<g clip-path="url(#clip0_865_1211)">
<path d="M20.8364 2.4C18.4364 1.2 16.0364 1.09091 13.5273 1.96364C11.2364 2.72727 9.38182 4.25455 8.07273 6.21818C5.78182 9.6 4.14545 13.2 3.16364 17.1273C2.72727 19.2 2.4 21.2727 2.50909 23.3455C2.50909 23.5636 2.50909 23.5636 2.50909 24H14.1818C14.1818 23.5636 14.0727 23.6727 14.0727 23.6727C13.4182 22.1455 12.9818 20.4 12.6545 18.7636C12.2182 16.3636 11.8909 13.9636 12.4364 11.5636C13.0909 8.18182 15.0545 5.78182 18.2182 4.47273C20.0727 3.70909 21.8182 3.92727 23.3455 5.34545C23.3455 5.34545 23.3455 5.34545 23.4545 5.34545L24 4.58182C23.0182 3.70909 22.0364 2.94545 20.8364 2.4ZM0.218182 17.8909C0.109091 18.6545 0 19.4182 0 20.0727L2.18182 20.2909L2.61818 18C1.74545 18 0.981818 17.8909 0.218182 17.8909ZM4.47273 11.2364L2.4 10.4727L1.74545 12.3273L3.81818 12.9818C4.03636 12.3273 4.25455 11.7818 4.47273 11.2364ZM14.0727 21.6C14.7273 21.6 15.4909 21.7091 16.2545 21.7091C15.9273 21.1636 15.7091 20.6182 15.4909 20.0727C15.4909 19.9636 15.3818 19.9636 15.2727 19.9636C14.7273 19.9636 14.0727 19.9636 13.5273 19.9636C13.6364 20.5091 13.7455 20.9455 13.9636 21.3818C13.8545 21.6 13.9636 21.6 14.0727 21.6ZM7.96364 5.56364L6.43636 4.58182C6 5.01818 5.56364 5.45455 5.12727 5.89091L6.76364 6.98182L7.96364 5.56364ZM12.8727 15.9273C12.8727 16.0364 12.8727 16.0364 12.9818 16.1455C13.5273 16.3636 14.0727 16.5818 14.7273 16.9091C14.7273 16.4727 14.7273 16.0364 14.6182 15.6C14.6182 15.4909 14.6182 15.3818 14.5091 15.3818C13.9636 15.0545 13.5273 14.8364 12.8727 14.5091C12.8727 15.0545 12.8727 15.4909 12.8727 15.9273ZM12.3273 1.96364L11.2364 0.763636L9.81818 1.41818C10.1455 1.85455 10.4727 2.29091 10.9091 2.72727L12.3273 1.96364ZM12.9818 11.4545C12.9818 11.5636 12.9818 11.6727 13.0909 11.7818C13.5273 12.1091 13.9636 12.5455 14.4 12.9818C14.5091 12.5455 14.6182 12.1091 14.7273 11.6727C14.7273 11.5636 14.7273 11.4545 14.6182 11.4545C14.2909 11.1273 13.8545 10.9091 13.4182 10.5818C13.3091 10.8 13.2 11.1273 12.9818 11.4545ZM15.4909 1.30909C16.0364 1.30909 16.5818 1.30909 17.1273 1.30909C17.0182 0.872727 17.0182 0.654545 17.0182 0.327273C17.0182 0.218182 16.9091 0.109091 16.8 0.109091C16.2545 0.109091 15.7091 0 15.1636 0C15.2727 0.436364 15.2727 0.763636 15.3818 1.09091C15.2727 1.2 15.3818 1.30909 15.4909 1.30909ZM16.1455 8.18182C16.1455 8.18182 16.1455 8.07273 16.1455 7.96364C15.8182 7.63636 15.6 7.2 15.2727 6.76364L14.4 7.63636L15.7091 9.05455C15.8182 8.72727 15.9273 8.50909 16.1455 8.18182ZM17.1273 5.34545L17.6727 6.32727C18.5455 5.89091 18.5455 5.78182 18.3273 5.12727L17.1273 5.34545ZM21.1636 2.18182C21.4909 2.4 21.9273 2.61818 22.2545 2.83636L22.4727 2.4C22.0364 2.07273 21.6 1.74545 21.0545 1.30909C21.0545 1.52727 21.0545 1.63636 21.0545 1.85455C21.1636 1.96364 21.1636 2.18182 21.1636 2.18182ZM20.7273 5.45455C21.1636 5.45455 21.7091 5.56364 22.0364 5.56364V5.01818C21.6 4.90909 21.0545 4.8 20.7273 4.8V5.45455Z" fill="black"/>
</g>
<defs>
<clipPath id="clip0_865_1211">
<rect width="24" height="24" fill="white"/>
</clipPath>
</defs>
</svg>
