<svg width="24" height="24" viewBox="0 0 24 24" fill="none" xmlns="http://www.w3.org/2000/svg">
<path d="M20.3 8.3C19.9 8.1 19.4 8 19 7.8C19.1 7.3 19.2 6.9 19.3 6.4C19.7 3.8 19.3 2 18 1.3C17.6 1.1 17.2 1 16.8 1C15.5 1 13.8 2 12 3.7C10.3 2 8.6 1 7.2 1C6.8 1 6.4 1.1 6 1.3C4.8 2 4.3 3.9 4.7 6.5C4.8 6.9 4.9 7.4 5 7.8C4.6 8 4.1 8.1 3.7 8.3C1.3 9.2 0 10.5 0 12C0 13.5 1.3 14.8 3.7 15.7C4.1 15.9 4.6 16 5 16.2C4.9 16.7 4.8 17.1 4.7 17.6C4.3 20.2 4.7 22 6 22.7C6.4 22.9 6.8 23 7.2 23C8.6 23 10.3 22 12 20.3C13.7 22 15.4 23 16.8 23C17.3 23 17.7 22.9 18 22.7C19.2 22 19.7 20.1 19.3 17.6C19.2 17.1 19.1 16.7 19 16.2C19.5 16.1 19.9 15.9 20.3 15.7C22.7 14.8 24 13.5 24 12C24 10.5 22.7 9.2 20.3 8.3ZM16.8 2.1C17 2.1 17.3 2.2 17.5 2.3C18.3 2.8 18.6 4.2 18.2 6.3C18.1 6.7 18 7.1 17.9 7.6C16.9 7.4 15.8 7.2 14.7 7.1C14 6.2 13.4 5.3 12.7 4.5C14.2 3.1 15.6 2.1 16.8 2.1ZM7.7 14.5C7.9 14.9 8.2 15.3 8.4 15.7C7.7 15.6 7 15.5 6.3 15.3C6.5 14.7 6.7 14 7 13.3C7.3 13.7 7.5 14.1 7.7 14.5ZM6.4 8.7C7 8.5 7.7 8.4 8.4 8.3C8.2 8.7 8 9 7.7 9.5C7.5 9.9 7.3 10.3 7 10.7C6.8 10 6.6 9.3 6.4 8.7ZM7.7 12C8 11.4 8.4 10.7 8.7 10C9 9.4 9.5 8.8 9.9 8.1C10.6 8 11.3 8 12 8C12.7 8 13.5 8 14.1 8.1C14.5 8.7 14.9 9.4 15.3 10C15.7 10.6 16 11.3 16.3 12C16 12.6 15.6 13.3 15.3 14C15 14.6 14.6 15.3 14.1 15.9C13.4 16 12.7 16 12 16C11.3 16 10.5 16 9.9 15.9C9.4 15.2 9 14.6 8.7 14C8.3 13.3 8 12.6 7.7 12ZM16.3 14.5C16.5 14.1 16.7 13.7 17 13.3C17.3 14 17.5 14.7 17.7 15.3C17 15.5 16.4 15.6 15.6 15.7C15.8 15.3 16 15 16.3 14.5ZM16.3 9.5L15.6 8.3C16.3 8.4 17 8.5 17.7 8.7C17.5 9.3 17.3 10 17 10.7C16.7 10.3 16.5 9.9 16.3 9.5ZM13.3 7C12.9 7 12.4 7 12 7C11.6 7 11.1 7 10.7 7C11.1 6.4 11.6 5.9 12 5.4C12.5 5.9 12.9 6.4 13.3 7ZM6.5 2.3C6.7 2.2 7 2.1 7.2 2.1C8.4 2.1 9.8 3.1 11.2 4.5C10.5 5.2 9.9 6.1 9.2 7.1C8.1 7.2 7.1 7.4 6.1 7.6C6 7.1 5.9 6.7 5.8 6.3C5.5 4.2 5.8 2.8 6.5 2.3ZM5.3 15.1C2.7 14.3 1.1 13.1 1.1 12C1.1 11.1 2.2 10.1 4.1 9.4C4.5 9.2 4.9 9.1 5.3 9C5.6 10 6 11 6.5 12.1C6 13.1 5.6 14.1 5.3 15.1ZM7.2 21.9C7 21.9 6.7 21.8 6.5 21.7C5.7 21.2 5.4 19.8 5.8 17.7C5.9 17.3 6 16.9 6.1 16.4C7.1 16.6 8.2 16.8 9.3 16.9C10 17.8 10.6 18.7 11.3 19.5C9.8 20.9 8.4 21.9 7.2 21.9ZM10.7 17C11.1 17 11.6 17 12 17C12.4 17 12.9 17 13.3 17C12.9 17.6 12.4 18.1 12 18.6C11.5 18.1 11.1 17.6 10.7 17ZM17.5 21.7C17.3 21.8 17.1 21.9 16.8 21.9C15.6 21.9 14.2 20.9 12.8 19.5C13.5 18.8 14.1 17.9 14.8 16.9C15.9 16.8 17 16.6 18 16.4C18.1 16.9 18.2 17.3 18.3 17.7C18.5 19.8 18.2 21.2 17.5 21.7ZM19.9 14.6C19.5 14.8 19.1 14.9 18.7 15C18.4 14 18 13 17.5 11.9C18 10.9 18.4 9.8 18.7 8.8C21.3 9.6 22.9 10.8 22.9 11.9C22.9 12.9 21.8 13.9 19.9 14.6ZM12 14.2C13.215 14.2 14.2 13.215 14.2 12C14.2 10.785 13.215 9.8 12 9.8C10.785 9.8 9.8 10.785 9.8 12C9.8 13.215 10.785 14.2 12 14.2Z" fill="black"/>
</svg>
