<svg width="24" height="24" viewBox="0 0 24 24" fill="none" xmlns="http://www.w3.org/2000/svg">
<path d="M9.97002 5.85011C10.7409 5.02784 11.8201 4.56531 13.0021 4.56531C14.5953 4.56531 15.9829 5.43897 16.7024 6.72377C17.3704 6.41542 18.0899 6.26124 18.8094 6.26124C21.6874 6.26124 24 8.57388 24 11.4518C24 14.3298 21.6874 16.6424 18.8094 16.6424C18.4497 16.6424 18.1413 16.591 17.7816 16.5396C16.8051 18.2869 14.6467 18.955 12.848 18.0814C12.1799 19.6745 10.5867 20.7024 8.89079 20.7024C7.09208 20.7024 5.44754 19.5717 4.83084 17.8758C4.57388 17.9272 4.26552 17.9786 4.00857 17.9786C1.79872 17.9786 0 16.1799 0 13.97C0 12.531 0.770878 11.1949 2.00428 10.4754C1.74732 9.91006 1.64454 9.29336 1.64454 8.62527C1.64454 6.05567 3.75161 4 6.3212 4C7.70878 4.05139 9.09636 4.71949 9.97002 5.85011ZM3.44325 12.6852C3.44325 12.7366 3.44325 12.7366 3.44325 12.7366C3.49465 12.788 3.54604 12.788 3.59743 12.8394C3.85439 12.9936 4.05996 12.9936 4.31692 12.9936C4.83084 12.9936 5.13919 12.7366 5.13919 12.3255C5.13919 11.9143 4.77944 11.8116 4.47109 11.7088H4.4197C4.16274 11.606 3.95717 11.5546 3.95717 11.4004C3.95717 11.2463 4.05996 11.1435 4.26552 11.1435C4.47109 11.1435 4.72805 11.1949 4.88223 11.2976C4.88223 11.2976 4.93362 11.349 4.93362 11.2976L5.0364 11.0407V10.9893C4.83084 10.8865 4.57388 10.7837 4.31692 10.7837H4.26552C3.803 10.7837 3.49465 11.0407 3.49465 11.4518C3.49465 11.863 3.85439 12.0171 4.16274 12.0685H4.21413C4.47109 12.1199 4.67666 12.2227 4.67666 12.3769C4.67666 12.531 4.52248 12.6338 4.31692 12.6338C4.21413 12.6338 3.95717 12.6338 3.70021 12.4283C3.64882 12.4283 3.64882 12.3769 3.59743 12.3769H3.54604L3.44325 12.6852ZM10.6381 12.6852C10.6381 12.7366 10.6381 12.7366 10.6381 12.7366C10.6895 12.788 10.7409 12.788 10.7923 12.8394C11.0493 12.9936 11.2548 12.9936 11.5118 12.9936C12.0257 12.9936 12.334 12.7366 12.334 12.3255C12.334 11.9143 11.9743 11.8116 11.666 11.7088H11.6146C11.3576 11.606 11.152 11.5546 11.152 11.4004C11.152 11.2463 11.2548 11.1435 11.4604 11.1435C11.666 11.1435 11.9229 11.1949 12.0771 11.2976C12.0771 11.2976 12.1285 11.349 12.1285 11.2976L12.2313 11.0407V10.9893C12.0257 10.8865 11.7687 10.7837 11.5118 10.7837H11.4604C10.9979 10.7837 10.6895 11.0407 10.6895 11.4518C10.6895 11.863 11.0492 12.0171 11.3576 12.0685H11.409C11.666 12.1199 11.8715 12.2227 11.8715 12.3769C11.8715 12.531 11.7173 12.6338 11.5118 12.6338C11.409 12.6338 11.152 12.6338 10.8951 12.4283C10.8437 12.4283 10.8437 12.3769 10.7923 12.3769H10.7409L10.6381 12.6852ZM15.5717 11.863C15.5717 12.1199 15.5203 12.2741 15.4176 12.4283C15.3148 12.5824 15.212 12.6338 15.0064 12.6338C14.8009 12.6338 14.6981 12.5824 14.5953 12.4283C14.4925 12.2741 14.4411 12.1199 14.4411 11.863C14.4411 11.606 14.4925 11.4518 14.5953 11.2976C14.6981 11.1435 14.8009 11.0921 15.0064 11.0921C15.212 11.0921 15.3148 11.1435 15.4176 11.2976C15.5203 11.4518 15.5717 11.6574 15.5717 11.863ZM15.9829 11.4518C15.9315 11.2976 15.8801 11.1949 15.7773 11.0921C15.6745 10.9893 15.5717 10.8865 15.469 10.8351C15.3148 10.7837 15.1606 10.7323 15.0064 10.7323C14.8522 10.7323 14.6981 10.7837 14.5439 10.8351C14.4411 10.8865 14.2869 10.9893 14.2355 11.0921C14.1328 11.1949 14.0814 11.2976 14.03 11.4518C13.9786 11.606 13.9786 11.7088 13.9786 11.9143C13.9786 12.0685 13.9786 12.2227 14.03 12.3769C14.0814 12.531 14.1328 12.6338 14.2355 12.7366C14.3383 12.8394 14.4411 12.8908 14.5439 12.9936C14.6467 13.045 14.8009 13.0964 15.0064 13.0964C15.212 13.0964 15.3148 13.045 15.469 12.9936C15.6231 12.9422 15.7259 12.8394 15.7773 12.7366C15.8801 12.6338 15.9315 12.531 15.9829 12.3769C16.0343 12.2227 16.0343 12.1199 16.0343 11.9143C16.0343 11.7088 16.0343 11.5546 15.9829 11.4518ZM19.3747 12.5824C19.3747 12.531 19.3233 12.5824 19.3233 12.5824C19.2719 12.5824 19.2206 12.6338 19.1178 12.6338C19.0664 12.6338 18.9636 12.6338 18.9122 12.6338C18.7066 12.6338 18.5525 12.5824 18.4497 12.4797C18.3469 12.3769 18.2955 12.1713 18.2955 11.9143C18.2955 11.7088 18.3469 11.5032 18.4497 11.4004C18.5525 11.2463 18.7066 11.1949 18.9122 11.1949C19.0664 11.1949 19.2206 11.1949 19.3233 11.2463C19.3233 11.2463 19.3747 11.2463 19.3747 11.1949C19.4261 11.0921 19.4261 11.0407 19.4775 10.9379C19.4775 10.8865 19.4775 10.8865 19.4775 10.8865C19.2719 10.8351 19.1178 10.7837 18.9122 10.7837C18.758 10.7837 18.6039 10.8351 18.4497 10.8865C18.3469 10.9379 18.1927 11.0407 18.1413 11.1435C18.0385 11.2463 17.9872 11.349 17.9358 11.5032C17.8844 11.6574 17.8844 11.8116 17.8844 11.9657C17.8844 12.3255 17.9872 12.5824 18.1413 12.788C18.3469 12.9936 18.6039 13.0964 18.9636 13.0964C19.1692 13.0964 19.3747 13.045 19.5289 12.9936C19.5289 12.9936 19.5803 12.9936 19.5289 12.9422L19.3747 12.5824ZM20.0942 11.6574C20.0942 11.5032 20.1456 11.4004 20.197 11.349C20.2998 11.1949 20.4026 11.1435 20.6081 11.1435C20.8137 11.1435 20.9165 11.1949 21.0193 11.349C21.0707 11.4518 21.1221 11.5546 21.1221 11.6574H20.0942ZM21.4818 11.349C21.4304 11.2463 21.379 11.1435 21.3276 11.0407C21.2762 10.9379 21.1734 10.8865 21.0707 10.8351C20.9679 10.7837 20.8137 10.7323 20.6595 10.7323C20.5054 10.7323 20.3512 10.7837 20.197 10.8351C20.0942 10.8865 19.94 10.9893 19.8887 11.0921C19.7859 11.1949 19.7345 11.2976 19.6831 11.4518C19.6317 11.606 19.6317 11.7602 19.6317 11.9143C19.6317 12.0685 19.6317 12.2227 19.6831 12.3769C19.7345 12.531 19.7859 12.6338 19.8887 12.7366C19.9914 12.8394 20.0942 12.8908 20.2484 12.9422C20.4026 12.9936 20.5567 13.045 20.7623 13.045C21.1734 13.045 21.379 12.9422 21.4818 12.8908C21.4818 12.8908 21.5332 12.8908 21.4818 12.8394L21.379 12.5824C21.379 12.531 21.3276 12.5824 21.3276 12.5824C21.2248 12.6338 21.0707 12.6852 20.7623 12.6852C20.5567 12.6852 20.4026 12.6338 20.2998 12.531C20.197 12.4283 20.1456 12.2741 20.1456 12.0685H21.5332C21.5332 12.0685 21.5846 12.0685 21.5846 12.0171C21.4818 11.9143 21.5332 11.6574 21.4818 11.349ZM8.94218 11.6574C8.94218 11.5032 8.99358 11.4004 9.04497 11.349C9.14775 11.1949 9.25054 11.1435 9.4561 11.1435C9.66167 11.1435 9.76445 11.1949 9.86724 11.349C9.91863 11.4004 9.91863 11.5032 9.91863 11.6574H8.94218ZM10.3298 11.349C10.2784 11.2463 10.227 11.1435 10.1756 11.0407C10.1242 10.9379 10.0214 10.8865 9.91863 10.8351C9.81585 10.7837 9.66167 10.7323 9.50749 10.7323C9.35332 10.7323 9.19914 10.7837 9.04497 10.8351C8.94218 10.8865 8.78801 10.9893 8.73662 11.0921C8.63383 11.1949 8.58244 11.2976 8.53105 11.4518C8.47966 11.606 8.47966 11.7602 8.47966 11.9143C8.47966 12.0685 8.47966 12.2227 8.53105 12.3769C8.58244 12.531 8.63383 12.6338 8.73662 12.7366C8.8394 12.8394 8.94218 12.8908 9.09636 12.9422C9.25054 12.9936 9.40471 13.045 9.61028 13.045C10.0214 13.045 10.227 12.9422 10.3298 12.8908C10.3298 12.8908 10.3812 12.8908 10.3298 12.8394L10.227 12.5824C10.227 12.531 10.1756 12.5824 10.1756 12.5824C10.0728 12.6338 9.91863 12.6852 9.61028 12.6852C9.40471 12.6852 9.25054 12.6338 9.14775 12.531C9.04497 12.4283 8.99358 12.2741 8.99358 12.0685H10.3812C10.3812 12.0685 10.4325 12.0685 10.4325 12.0171C10.3812 11.9143 10.4325 11.6574 10.3298 11.349ZM5.96146 12.531C5.91006 12.531 5.91006 12.4797 5.85867 12.4283C5.80728 12.4283 5.80728 12.3769 5.80728 12.2741C5.80728 12.1713 5.85867 12.0685 5.91006 12.0171C5.91006 12.0171 6.01285 11.9143 6.3212 11.9143C6.52677 11.9143 6.68094 11.9657 6.68094 11.9657V12.5824C6.68094 12.5824 6.52677 12.6338 6.3212 12.6338C6.06424 12.6338 5.96146 12.531 5.96146 12.531ZM6.47538 11.606C6.42398 11.606 6.3212 11.606 6.26981 11.606C6.16702 11.606 6.01285 11.606 5.91006 11.6574C5.80728 11.7088 5.7045 11.7088 5.60171 11.8116C5.49893 11.863 5.44754 11.9657 5.39615 12.0171C5.34475 12.1199 5.29336 12.2227 5.34475 12.3255C5.34475 12.4283 5.34475 12.531 5.39615 12.6338C5.44754 12.7366 5.49893 12.788 5.60171 12.8394C5.7045 12.8908 5.75589 12.9422 5.91006 12.9422C6.01285 12.9422 6.16702 12.9936 6.26981 12.9936C6.42398 12.9936 6.57816 12.9936 6.68094 12.9422C6.83512 12.9422 6.98929 12.8908 7.04069 12.8908C7.09208 12.8908 7.14347 12.8908 7.14347 12.8908C7.19486 12.8908 7.19486 12.8394 7.19486 12.8394V11.5546C7.19486 11.2976 7.14347 11.0921 6.98929 10.9379C6.83512 10.8351 6.62955 10.7323 6.37259 10.7323C6.26981 10.7323 6.11563 10.7323 6.01285 10.7837C6.01285 10.7837 5.7045 10.8351 5.60171 10.9379C5.60171 10.9379 5.55032 10.9379 5.60171 10.9893L5.7045 11.2463C5.7045 11.2976 5.75589 11.2463 5.75589 11.2463C6.01285 11.0921 6.37259 11.0921 6.37259 11.0921C6.52677 11.0921 6.62955 11.1435 6.73233 11.1949C6.78373 11.2463 6.83512 11.349 6.83512 11.5032V11.5546C6.57816 11.606 6.47538 11.606 6.47538 11.606ZM17.6788 10.8865C17.7302 10.8351 17.7302 10.8351 17.6788 10.8865C17.6788 10.8351 17.6788 10.8351 17.6788 10.8865C17.576 10.8351 17.5246 10.7837 17.4218 10.7837C17.2677 10.7837 17.1649 10.7837 17.0621 10.8351C16.9593 10.8865 16.8565 10.9379 16.8051 10.9893V10.8351C16.8051 10.8351 16.8051 10.7837 16.7537 10.7837H16.394C16.394 10.7837 16.3426 10.7837 16.3426 10.8351V12.8908C16.3426 12.8908 16.3426 12.9422 16.394 12.9422H16.7537C16.7537 12.9422 16.8051 12.9422 16.8051 12.8908V11.863C16.8051 11.7088 16.8051 11.606 16.8565 11.5032C16.9079 11.4004 16.9079 11.349 16.9593 11.2976C17.0107 11.2463 17.0621 11.1949 17.1135 11.1949C17.1649 11.1949 17.2163 11.1435 17.3191 11.1435C17.3705 11.1435 17.4732 11.1435 17.4732 11.1435C17.5246 11.1435 17.5246 11.1435 17.5246 11.0921C17.6274 11.0921 17.6788 10.8865 17.6788 10.8865ZM14.2869 9.91006C14.1842 9.85867 14.0814 9.85867 13.9786 9.85867C13.7216 9.85867 13.5161 9.91006 13.4133 10.0642C13.2591 10.2184 13.1563 10.424 13.1563 10.6809V10.7837H12.848C12.848 10.7837 12.7966 10.7837 12.7966 10.8351L12.6424 11.1435C12.6424 11.1949 12.6424 11.1949 12.6938 11.1949H13.0021L12.6938 12.9422C12.6938 13.0964 12.6424 13.1991 12.591 13.3019C12.5396 13.4047 12.5396 13.4561 12.4882 13.5075C12.4368 13.5589 12.4368 13.6103 12.3854 13.6103C12.334 13.6103 12.2827 13.6103 12.2313 13.6103C12.1799 13.6103 12.1285 13.6103 12.1285 13.6103C12.0771 13.6103 12.0771 13.6103 12.0771 13.6103H12.0257C12.0257 13.6617 11.9229 13.8672 11.9229 13.8672C11.9229 13.9186 11.9229 13.9186 11.9229 13.9186C12.0257 13.97 12.1285 13.97 12.2313 13.97C12.334 13.97 12.4882 13.97 12.591 13.9186C12.6938 13.8672 12.7966 13.8158 12.848 13.7645C12.9507 13.6617 13.0021 13.5589 13.0535 13.4561C13.1049 13.3533 13.1563 13.1991 13.1563 12.9936L13.4647 11.2463H13.9272C13.9272 11.2463 13.9786 11.2463 13.9786 11.1949L14.03 10.8865C14.03 10.8351 14.03 10.8351 13.9786 10.8351H13.5161C13.5161 10.8351 13.5161 10.6809 13.5675 10.5268C13.5675 10.4754 13.6188 10.424 13.6702 10.3726C13.7216 10.3212 13.7216 10.3212 13.773 10.3212C13.8244 10.3212 13.8758 10.3212 13.9272 10.3212C13.9786 10.3212 14.03 10.3212 14.03 10.3212C14.0814 10.3212 14.0814 10.3212 14.0814 10.3212C14.1328 10.3212 14.1328 10.3212 14.1328 10.3212L14.2869 9.91006ZM8.06852 12.8908V9.96146C8.06852 9.96146 8.06852 9.91006 8.01713 9.91006H7.65739C7.65739 9.91006 7.606 9.91006 7.606 9.96146V12.8908C7.606 12.8908 7.606 12.9422 7.65739 12.9422L8.06852 12.8908C8.06852 12.9422 8.06852 12.9422 8.06852 12.8908Z" fill="black"/>
</svg>
