<svg width="24" height="24" viewBox="0 0 24 24" fill="none" xmlns="http://www.w3.org/2000/svg">
<g clip-path="url(#clip0_865_1273)">
<path fill-rule="evenodd" clip-rule="evenodd" d="M8.83631 5.01816C7.41814 5.01816 6.32723 3.92726 6.32723 2.50908C6.32723 1.0909 7.41814 0 8.83631 0C10.2545 0 11.3454 1.0909 11.3454 2.50908V5.01816H8.83631ZM2.50908 17.6728C3.92726 17.6728 5.01816 16.5819 5.01816 15.1637V12.6546H2.50908C1.0909 12.6546 0 13.7455 0 15.1637C0 16.5819 1.0909 17.6728 2.50908 17.6728ZM8.83631 12.6546C7.41814 12.6546 6.32723 13.7455 6.32723 15.1637V21.4909C6.32723 22.9091 7.41814 24 8.83631 24C10.2545 24 11.3454 22.9091 11.3454 21.4909V15.1637C11.3454 13.7455 10.2545 12.6546 8.83631 12.6546ZM11.3454 8.83638C11.3454 7.4182 10.2545 6.3273 8.83632 6.3273H2.50908C1.0909 6.3273 0 7.4182 0 8.83638C0 10.2546 1.0909 11.3455 2.50908 11.3455H8.83632C10.2545 11.3455 11.3454 10.2546 11.3454 8.83638ZM18.9818 8.83638C18.9818 7.4182 20.0727 6.3273 21.4908 6.3273C22.909 6.3273 23.9999 7.4182 23.9999 8.83638C23.9999 10.2546 22.909 11.3455 21.4908 11.3455H18.9818V8.83638ZM15.1635 11.3454C16.5817 11.3454 17.6726 10.2545 17.6726 8.83632V2.50908C17.6726 1.0909 16.5817 0 15.1635 0C13.7454 0 12.6545 1.0909 12.6545 2.50908V8.83632C12.6545 10.2545 13.7454 11.3454 15.1635 11.3454ZM15.1635 18.9816C16.5817 18.9816 17.6726 20.0725 17.6726 21.4907C17.6726 22.9089 16.5817 23.9998 15.1635 23.9998C13.7454 23.9998 12.6545 22.9089 12.6545 21.4907V18.9816H15.1635ZM12.6545 15.1637C12.6545 16.5819 13.7454 17.6728 15.1635 17.6728H21.4908C22.909 17.6728 23.9999 16.5819 23.9999 15.1637C23.9999 13.7455 22.909 12.6546 21.4908 12.6546H15.1635C13.7454 12.6546 12.6545 13.7455 12.6545 15.1637Z" fill="black"/>
</g>
<defs>
<clipPath id="clip0_865_1273">
<rect width="24" height="24" fill="white"/>
</clipPath>
</defs>
</svg>
