<svg width="24" height="24" viewBox="0 0 24 24" fill="none" xmlns="http://www.w3.org/2000/svg">
<g clip-path="url(#clip0_865_1299)">
<path fill-rule="evenodd" clip-rule="evenodd" d="M1.10041 4.18793C1.10041 4.40269 2.06685 4.88591 5.98632 6.44296C9.31519 7.73156 11.1407 8.37585 11.6776 8.42954C12.1608 8.42954 13.8253 7.89263 17.2615 6.49665C21.2347 4.88591 22.1474 4.45638 22.1474 4.18793C22.1474 3.7047 12.8588 0 11.6239 0C10.389 0 1.10041 3.7047 1.10041 4.18793ZM5.23468 22.0673C2.17427 20.8324 0.50984 20.0807 0.295075 19.8122C-0.0270736 19.4364 -0.0270736 19.0069 0.0266178 12.4028C0.0803091 6.38939 0.134 5.36925 0.348766 5.20818C0.670914 5.04711 10.228 8.8055 10.7649 9.39611L11.1407 9.77194L11.087 16.8055V23.8928L10.4964 23.9465C10.0669 23.9465 8.40247 23.3559 5.23468 22.0673ZM12.3219 23.8389C12.2683 23.7852 12.2146 20.6174 12.2146 16.8054C12.2146 10.953 12.2683 9.82548 12.483 9.50333C12.8052 9.0738 22.2012 5.26172 22.7918 5.31541L23.1676 5.3691L23.2213 12.4027C23.275 18.8993 23.2213 19.4362 22.9528 19.8121C22.6307 20.1879 13.3421 24 12.7515 24C12.6978 23.9866 12.6474 23.9765 12.6013 23.9673C12.4629 23.9396 12.3622 23.9195 12.3219 23.8389Z" fill="black"/>
</g>
<defs>
<clipPath id="clip0_865_1299">
<rect width="24" height="24" fill="white"/>
</clipPath>
</defs>
</svg>
