<svg width="24" height="24" viewBox="0 0 24 24" fill="none" xmlns="http://www.w3.org/2000/svg">
<g clip-path="url(#clip0_865_1309)">
<path fill-rule="evenodd" clip-rule="evenodd" d="M23.5388 4.91817C23.6372 5.40136 23.6868 5.8932 23.687 6.38629H23.6888V17.6138C23.6641 18.1053 23.6146 18.5953 23.5407 19.0819C23.4575 19.5806 23.2894 20.0613 23.0438 20.5032C22.819 20.948 22.5168 21.3492 22.1513 21.6882C21.7775 22.0267 21.3601 22.3136 20.9101 22.5413C20.4563 22.7701 19.971 22.93 19.4701 23.0157C18.9624 23.1101 18.4471 23.1578 17.9307 23.1582H6.07697C5.91014 23.1424 5.73781 23.132 5.56368 23.1214C5.21919 23.1005 4.86764 23.0792 4.5376 23.0157C4.03669 22.93 3.55136 22.7701 3.0976 22.5413C2.6378 22.3305 2.21788 22.0419 1.85635 21.6882C1.50582 21.336 1.20549 20.9373 0.963848 20.5032C0.732621 20.055 0.565369 19.5766 0.466973 19.0819C0.368625 18.5987 0.319002 18.1069 0.318848 17.6138V6.29067C0.343646 5.79912 0.393083 5.30913 0.466973 4.82254C0.550229 4.3239 0.718284 3.8432 0.963848 3.40129C1.18871 2.95649 1.49092 2.55523 1.85635 2.21629C1.90506 2.17034 1.95377 2.13565 2.00249 2.10095C2.05315 2.06487 2.10381 2.02879 2.15447 1.98004C2.4482 1.74776 2.76193 1.54196 3.09197 1.36504C3.14166 1.34161 3.20353 1.3177 3.26541 1.29379C3.32728 1.26989 3.38916 1.24598 3.43885 1.22254C3.7877 1.07762 4.15493 0.98171 4.5301 0.937544C4.90815 0.880092 5.28963 0.848145 5.67197 0.841919H17.9288C18.0957 0.857658 18.268 0.868112 18.4421 0.878676C18.7866 0.899575 19.1382 0.920901 19.4682 0.984419C19.9691 1.07011 20.4545 1.22999 20.9082 1.45879C21.368 1.66956 21.7879 1.95818 22.1495 2.31192C22.5 2.66404 22.8003 3.06279 23.042 3.49692C23.2732 3.94512 23.4405 4.42353 23.5388 4.91817ZM8.10935 18.1819C10.9912 19.3613 13.8543 19.2431 15.9375 18.0938C16.9443 17.6869 18.9375 17.0625 20.0156 19.0838C20.265 19.5525 20.8106 17.0456 18.825 14.6775L18.7893 14.6363C18.7993 14.6019 18.8091 14.5693 18.8187 14.5373C18.8379 14.4732 18.8562 14.4119 18.8737 14.3456C19.875 10.6969 17.4843 6.33939 13.4643 4.02002C15.2006 6.29439 15.9956 9.04127 15.3 11.4581C15.2369 11.6816 15.1611 11.9014 15.0731 12.1163C14.9906 12.06 14.8875 12 14.7543 11.9288C11.7514 10.0507 8.9563 7.85905 6.41622 5.39064C7.94428 7.53984 9.63686 9.56718 11.4787 11.4544C10.1887 10.7438 6.56247 8.23314 4.28247 6.24377C4.56986 6.70187 4.90212 7.13023 5.27435 7.52252C7.1606 9.84377 9.69184 12.6863 12.6731 14.8725C10.5787 16.1119 7.60497 16.2038 4.62935 14.8725C3.90412 14.5646 3.22061 14.1664 2.59497 13.6875C3.9412 15.7044 5.86238 17.2702 8.10935 18.1819Z" fill="black"/>
</g>
<defs>
<clipPath id="clip0_865_1309">
<rect width="24" height="24" fill="white"/>
</clipPath>
</defs>
</svg>
