<svg width="24" height="24" viewBox="0 0 24 24" fill="none" xmlns="http://www.w3.org/2000/svg">
<path d="M7.52727 21.6526C16.5818 21.6526 21.4909 14.1254 21.4909 7.5799C21.4909 7.36172 21.4909 7.14354 21.4909 6.92536C22.4727 6.16172 23.3455 5.28899 24 4.30717C23.1273 4.74354 22.1455 4.96172 21.1636 5.07081C22.1455 4.41627 22.9091 3.43445 23.3455 2.34354C22.3636 2.88899 21.2727 3.32536 20.1818 3.54354C18.3273 1.5799 15.1636 1.47081 13.2 3.32536C12 4.52536 11.4545 6.3799 11.7818 8.12536C7.85455 7.90717 4.14545 6.05263 1.63636 2.99808C0.327273 5.1799 0.981818 8.12536 3.16364 9.54354C2.4 9.54354 1.63636 9.32536 0.981818 8.88899C0.981818 8.88899 0.981818 8.88899 0.981818 8.99808C0.981818 11.3981 2.61818 13.3617 4.90909 13.9072C4.14545 14.1254 3.38182 14.1254 2.72727 14.0163C3.38182 16.089 5.23636 17.3981 7.30909 17.5072C5.56364 18.7072 3.38182 19.4708 1.2 19.4708C0.763636 19.4708 0.436364 19.4708 0 19.4708C2.29091 20.889 4.90909 21.6526 7.52727 21.6526Z" fill="black"/>
</svg>
