<svg width="24" height="24" viewBox="0 0 24 24" fill="none" xmlns="http://www.w3.org/2000/svg">
<g clip-path="url(#clip0_865_1353)">
<path d="M22.2778 5.29937C21.8702 3.84423 21.0632 2.6948 19.8811 1.88163C18.3893 0.852437 16.6733 0.489671 15.1917 0.267528C13.1414 -0.0381728 11.2848 -0.0809708 9.51377 0.135058C7.85484 0.338859 6.60554 0.662902 5.46629 1.18667C3.23264 2.21383 1.89163 3.8748 1.48199 6.12272C1.28226 7.21509 1.14776 8.20149 1.07031 9.14305C0.890966 11.3196 1.05401 13.2456 1.56758 15.0309C2.06893 16.7713 2.94324 18.0145 4.24145 18.8317C4.57161 19.0396 4.99551 19.1904 5.40515 19.3351C5.63749 19.4166 5.8637 19.4961 6.04916 19.5838C6.22035 19.6632 6.22035 19.6775 6.21832 19.8202C6.20405 21.0572 6.21832 23.4825 6.21832 23.4825L6.22239 24.0001H7.15172L7.30254 23.8534C7.4024 23.7596 9.70535 21.5341 10.5267 20.6374L10.6388 20.5131C10.7794 20.3501 10.7794 20.3501 10.9241 20.348C12.0328 20.3256 13.1659 20.2828 14.2909 20.2217C15.6543 20.1483 17.2337 20.0158 18.7215 19.3963C20.0829 18.8277 21.0774 17.9248 21.6746 16.7142C22.2982 15.4507 22.6671 14.0832 22.8057 12.5323C23.0502 9.8054 22.877 7.43928 22.2778 5.29937ZM17.3744 15.9031C17.032 16.4595 16.5225 16.8467 15.9213 17.0974C15.4811 17.2808 15.0327 17.2421 14.5986 17.0587C10.9648 15.52 8.11366 13.0968 6.23055 9.61179C5.84129 8.89441 5.57227 8.11182 5.26249 7.35368C5.19931 7.19879 5.20339 7.01537 5.17486 6.84418C5.20135 5.61933 6.14087 4.92845 7.09058 4.72057C7.45335 4.63905 7.77535 4.76745 8.04437 5.02628C8.79028 5.7355 9.37927 6.56089 9.82355 7.48615C10.0172 7.89171 9.92953 8.2504 9.59937 8.55203C9.53008 8.6152 9.45875 8.67227 9.38334 8.72933C8.62928 9.2959 8.51923 9.72592 8.92071 10.5798C9.60548 12.0329 10.7427 13.0091 12.2121 13.6144C12.5993 13.7734 12.9641 13.6939 13.2596 13.3801C13.3004 13.3393 13.3452 13.2985 13.3738 13.2496C13.9526 12.2836 14.7943 12.3794 15.5707 12.9297C16.0802 13.2924 16.5755 13.6756 17.0789 14.0445C17.8472 14.609 17.8411 15.1389 17.3744 15.9031ZM12.5545 6.26131C12.3833 6.26131 12.2121 6.27557 12.0429 6.30411C11.7576 6.35098 11.4906 6.15941 11.4417 5.87409C11.3949 5.5908 11.5864 5.32179 11.8717 5.27491C12.0959 5.23619 12.3262 5.21785 12.5545 5.21785C14.8146 5.21785 16.6529 7.05613 16.6529 9.31628C16.6529 9.54657 16.6346 9.77687 16.5958 9.99901C16.5531 10.2538 16.3329 10.4351 16.0823 10.4351C16.0537 10.4351 16.0252 10.4331 15.9946 10.427C15.7114 10.3801 15.5198 10.1111 15.5667 9.82782C15.5952 9.6607 15.6095 9.48951 15.6095 9.31628C15.6095 7.63289 14.2379 6.26131 12.5545 6.26131ZM15.0877 9.39169C15.0877 9.67904 14.8534 9.91342 14.566 9.91342C14.2786 9.91342 14.0443 9.67904 14.0443 9.39169C14.0443 8.52961 13.3412 7.8265 12.4791 7.8265C12.1917 7.8265 11.9573 7.59213 11.9573 7.30477C11.9573 7.01741 12.1917 6.78304 12.4791 6.78304C13.9179 6.78304 15.0877 7.95285 15.0877 9.39169ZM18.0673 10.5513C18.0123 10.7938 17.7962 10.9569 17.5578 10.9569C17.5191 10.9569 17.4803 10.9528 17.4416 10.9446C17.1604 10.8794 16.9851 10.6002 17.0483 10.319C17.1237 9.98678 17.1624 9.64236 17.1624 9.2959C17.1624 6.76062 15.0979 4.69612 12.5626 4.69612C12.2162 4.69612 11.8717 4.73484 11.5396 4.81025C11.2583 4.87546 10.9791 4.69816 10.9159 4.41691C10.8507 4.13567 11.028 3.85646 11.3093 3.79328C11.7169 3.69953 12.1387 3.65266 12.5626 3.65266C15.6747 3.65266 18.2059 6.18386 18.2059 9.2959C18.2059 9.7198 18.159 10.1417 18.0673 10.5513Z" fill="black"/>
</g>
<defs>
<clipPath id="clip0_865_1353">
<rect width="24" height="24" fill="white"/>
</clipPath>
</defs>
</svg>
