<svg width="24" height="24" viewBox="0 0 24 24" fill="none" xmlns="http://www.w3.org/2000/svg">
<path d="M20 3H4C2.89543 3 2 3.89543 2 5V15.3333C2 16.4379 2.89543 17.3333 4 17.3333H6.91081L7.64323 19.3333H7.64109L8.1633 20.5446L7.47741 22.2314C7.46213 22.269 7.41121 22.2694 7.39546 22.2319L6.17516 19.3333H4C1.79086 19.3333 0 17.5425 0 15.3333V5C0 2.79086 1.79086 1 4 1H20C22.2091 1 24 2.79086 24 5V15.3333C24 17.5425 22.2091 19.3333 20 19.3333H11.8156C11.1715 20.8649 10.3669 22.7639 10.2149 23.0571C9.9857 23.4993 9.5721 24 8.99857 24H7.67462C7.67016 24 7.66652 23.9962 7.66652 23.9915C7.66652 23.9874 7.66942 23.9838 7.67334 23.9832C8.09638 23.9136 8.32499 23.6965 8.66994 23.1278C8.84422 22.8405 9.68019 20.8925 10.3407 19.3333H10.3333L11.0833 17.3333H20C21.1046 17.3333 22 16.4379 22 15.3333V5C22 3.89543 21.1046 3 20 3Z" fill="url(#paint0_linear_865_1379)"/>
<defs>
<linearGradient id="paint0_linear_865_1379" x1="1.165" y1="22.994" x2="23.067" y2="22.994" gradientUnits="userSpaceOnUse">
<stop stop-color="#D5279B"/>
<stop offset="1" stop-color="#FEA18C"/>
</linearGradient>
</defs>
</svg>
