<svg width="24" height="24" viewBox="0 0 24 24" fill="none" xmlns="http://www.w3.org/2000/svg">
<g clip-path="url(#clip0_865_1396)">
<path fill-rule="evenodd" clip-rule="evenodd" d="M20.5033 3.48781C18.2473 1.23934 15.2473 0.00132692 12.0507 0C5.46333 0 0.102667 5.33422 0.1 11.8919C0.0986667 13.9877 0.649333 16.0338 1.69533 17.8371L0 24L6.33467 22.3467C8.08 23.2947 10.0453 23.793 12.0453 23.7937H12.0507C18.6367 23.7937 23.998 18.4588 24 11.9018C24.0013 8.72383 22.7593 5.73562 20.5033 3.48781ZM12.0507 21.7847H12.0467C10.2647 21.7847 8.51667 21.3077 6.99133 20.4067L6.62867 20.1924L2.86933 21.1737L3.87267 17.526L3.63667 17.1518C2.64267 15.578 2.11733 13.7588 2.118 11.8912C2.12 6.44153 6.576 2.00763 12.0547 2.00763C14.7073 2.00896 17.2013 3.03798 19.0767 4.90695C20.952 6.77525 21.984 9.25925 21.9827 11.8998C21.98 17.3501 17.5247 21.7847 12.0507 21.7847ZM17.4987 14.3825C17.2 14.2339 15.732 13.5153 15.458 13.4158C15.184 13.3163 14.9853 13.2672 14.7867 13.5644C14.588 13.8623 14.0153 14.5318 13.8413 14.7295C13.6673 14.9278 13.4927 14.9524 13.1947 14.8038C12.896 14.6552 11.934 14.3414 10.7933 13.3289C9.906 12.5407 9.30667 11.5681 9.132 11.2702C8.958 10.9723 9.11333 10.8117 9.26267 10.6638C9.39667 10.5304 9.56133 10.3168 9.71067 10.143C9.86 9.96981 9.90933 9.84508 10.0093 9.64737C10.1093 9.449 10.0593 9.27583 9.98467 9.12656C9.91 8.97794 9.31333 7.51501 9.064 6.92055C8.82133 6.34135 8.57533 6.41964 8.39267 6.41035C8.21867 6.40173 8.01933 6.4004 7.82 6.4004C7.62067 6.4004 7.29733 6.47471 7.02333 6.77194C6.74933 7.06983 5.978 7.78836 5.978 9.25062C5.978 10.7129 7.048 12.1261 7.19733 12.3251C7.34667 12.5235 9.30333 15.525 12.298 16.8121C13.01 17.1186 13.5667 17.301 14.0007 17.4384C14.716 17.6646 15.3667 17.6328 15.8813 17.5565C16.4547 17.4709 17.648 16.8373 17.8967 16.1433C18.1453 15.4493 18.1453 14.8542 18.0707 14.7301C17.996 14.6061 17.7974 14.5312 17.4987 14.3825Z" fill="black"/>
</g>
<defs>
<clipPath id="clip0_865_1396">
<rect width="24" height="24" fill="white"/>
</clipPath>
</defs>
</svg>
