<svg width="24" height="24" viewBox="0 0 24 24" fill="none" xmlns="http://www.w3.org/2000/svg">
<g clip-path="url(#clip0_865_1418)">
<path d="M11.9992 24C18.6533 24 23.9984 18.6549 23.9984 12.0008C23.9984 5.45579 18.6533 0.110692 12.3264 0.00160841C5.56326 -0.107475 0 5.3467 0 11.8917C0 18.6549 5.3451 24 11.9992 24ZM11.9992 0.547026C18.326 0.547026 23.453 5.67396 23.453 12.1099C23.453 18.2186 18.217 23.3455 11.9992 23.3455C5.67235 23.3455 0.545418 18.2186 0.545418 11.8917C0.545418 5.67395 5.78143 0.547026 11.9992 0.547026ZM7.19952 6.65571C7.3086 6.98296 6.98135 7.09204 6.6541 7.09204C6.32685 7.09204 5.9996 7.09204 5.67235 7.20113C6.87227 10.91 8.18127 14.5097 9.38119 18.3277C9.49027 18.2186 9.49027 18.1095 9.49027 18.1095C10.1448 16.0369 10.9084 13.9643 11.5629 11.8917C11.6719 11.6736 11.5629 11.4554 11.5629 11.2372C11.2356 10.2555 10.7993 9.16463 10.472 8.18288C10.2539 7.41929 9.92661 6.98296 9.16302 7.09204C9.05394 7.09204 8.83577 6.76479 8.72669 6.65571C8.83577 6.54662 9.05394 6.32846 9.27211 6.32846C11.0174 6.32846 12.6537 6.32846 14.399 6.32846C14.6172 6.32846 14.8354 6.54662 14.9445 6.65571C14.7263 6.76479 14.6172 7.09204 14.399 7.09204C14.0718 7.20113 13.7445 7.20113 13.3082 7.20113C14.5081 10.91 15.8171 14.5097 17.017 18.3277C17.5625 16.4732 18.1079 14.7279 18.6533 12.9826C19.0896 11.4554 18.8715 10.0373 17.9988 8.61921C17.7806 8.18288 17.4534 7.85563 17.3443 7.41929C17.2352 6.87387 17.017 6.32846 17.1261 5.78304C17.2352 4.91037 17.8897 4.47404 18.8715 4.36495C13.9627 -0.107475 6.32685 1.52878 3.49068 6.43754C4.58151 6.43754 5.67235 6.32846 6.6541 6.32846C6.87227 6.32846 7.19952 6.43754 7.19952 6.65571ZM9.16302 21.6002C9.16302 21.7092 9.16302 21.7092 9.16302 21.8183C11.2356 22.3637 13.3082 22.3637 15.4899 21.6002L12.2174 12.7644C11.1265 15.8187 10.1448 18.764 9.16302 21.6002ZM7.52677 21.2729L2.61801 7.85563C0.436335 12.1099 2.07259 18.6549 7.52677 21.2729ZM22.2531 12.6553C22.3621 10.5827 21.7076 7.85563 21.0531 7.41929C20.9441 8.18288 21.0531 8.94646 20.835 9.71005C20.2896 11.4554 19.7441 13.2007 19.0896 14.9461C18.4351 16.8005 17.7806 18.764 17.1261 20.6184C20.2896 18.8731 22.0349 16.2551 22.2531 12.6553Z" fill="black"/>
</g>
<defs>
<clipPath id="clip0_865_1418">
<rect width="24" height="24" fill="white"/>
</clipPath>
</defs>
</svg>
