<svg width="24" height="24" viewBox="0 0 24 24" fill="none" xmlns="http://www.w3.org/2000/svg">
<g clip-path="url(#clip0_865_1424)">
<path d="M5.61482 8.07275C5.68075 8.06995 5.72888 8.06589 5.77668 8.06589C6.62854 8.06589 7.48007 8.0687 8.33193 8.06215C8.46116 8.06215 8.51061 8.10641 8.55445 8.21083C9.42192 10.2767 10.2914 12.3415 11.1628 14.4053C11.1888 14.4677 11.2162 14.5284 11.2548 14.6166C11.291 14.5406 11.3174 14.4904 11.3395 14.439C12.0773 12.732 12.8155 11.0249 13.5542 9.31763C13.7464 8.87566 14.0111 8.47607 14.4545 8.21426C15.1573 7.79691 16.5386 7.76885 17.1792 8.79587C17.4367 9.20823 17.6302 9.65862 17.825 10.1028C18.5133 11.6724 19.1895 13.2465 19.8689 14.8189C19.8937 14.876 19.9207 14.9324 19.9609 15.0197C20.0793 14.8364 20.1894 14.6768 20.2876 14.5122C21.0877 13.1685 21.4955 11.7207 21.3755 10.1857C21.1118 6.76428 19.2709 4.36927 15.936 3.02059C14.7219 2.52968 13.4325 2.38226 12.1119 2.47327C9.20027 2.67337 6.80425 3.83379 4.92516 5.93301C3.7784 7.20335 3.02671 8.74947 2.75364 10.3995C2.30793 13.0476 2.8921 15.4782 4.57736 17.6416C6.07668 19.5653 8.08006 20.7984 10.5545 21.3239C12.147 21.6651 13.8033 21.6365 15.3815 21.2403C15.4181 21.2313 15.4567 21.2276 15.5117 21.2185C15.515 21.2743 15.52 21.3229 15.5203 21.3716C15.5203 22.1031 15.5163 22.8365 15.5243 23.5662C15.5259 23.6996 15.4801 23.7398 15.3485 23.7644C14.2053 23.9787 13.0369 24.0485 11.8742 23.972C10.1104 23.863 8.3907 23.4034 6.82766 22.623C4.65912 21.5462 2.95474 20.0077 1.71454 18.0075C0.297606 15.7126 -0.26509 13.035 0.116312 10.4023C0.4051 8.40584 1.1763 6.59358 2.42991 4.96553C3.76374 3.24044 5.4635 1.93852 7.52919 1.05976C9.47455 0.236282 11.5162 -0.121536 13.6415 0.0364903C16.4585 0.246256 18.8677 1.31441 20.8447 3.22194C22.3612 4.68688 23.3558 6.42766 23.7692 8.43836C24.4091 11.549 23.7175 14.3882 21.7055 16.9284C21.3221 17.4128 20.8213 17.774 20.167 17.8719C19.3428 17.9966 18.6258 17.8009 18.156 17.1089C17.9213 16.7626 17.7393 16.3799 17.5712 15.999C16.9082 14.4935 16.2594 12.9806 15.605 11.4702C15.5829 11.4187 15.5582 11.3682 15.519 11.2831C15.4778 11.3713 15.4494 11.4284 15.424 11.4867C14.6964 13.1698 13.9686 14.8529 13.2407 16.536C13.0722 16.9235 12.8451 17.275 12.493 17.5453C11.8135 18.0677 10.2493 18.1409 9.59026 17.0843C9.31928 16.6498 9.1139 16.1757 8.90983 15.7076C7.82985 13.2261 6.75546 10.743 5.68669 8.2582C5.66229 8.20023 5.64185 8.14257 5.61482 8.07275Z" fill="#373E4C"/>
</g>
<defs>
<clipPath id="clip0_865_1424">
<rect width="24" height="24" fill="white"/>
</clipPath>
</defs>
</svg>
