<svg width="24" height="24" viewBox="0 0 24 24" fill="none" xmlns="http://www.w3.org/2000/svg">
<path fill-rule="evenodd" clip-rule="evenodd" d="M23.9979 16.3329L23.3294 15.6803L23.3162 7.66323L23.9979 7.00531V16.3329Z" fill="#803300"/>
<path d="M23.3293 7.66326H0.658193V15.6829H23.3293V7.66326Z" fill="#FF6600"/>
<path fill-rule="evenodd" clip-rule="evenodd" d="M0.000244141 6.99994L24 7.00263L23.321 7.66064L0.665819 7.66845L0.000244141 6.99994Z" fill="#FFCCAA"/>
<path fill-rule="evenodd" clip-rule="evenodd" d="M0.00292714 16.3328L24 16.3353L23.3288 15.6773H0.658368L0.00292714 16.3328Z" fill="#552200"/>
<path fill-rule="evenodd" clip-rule="evenodd" d="M0.663388 15.6724L0.000260654 16.3332L0.000244141 6.99994L0.660699 7.66079L0.663388 15.6724Z" fill="#FF9955"/>
<path d="M3.21143 9.57804H5.16056L6.17612 11.3397L7.16048 9.57804H9.09008L7.30888 12.3514L9.258 15.3044H7.26981L6.14092 13.4646L5.00817 15.3044H3.03171L5.00817 12.3201L3.21143 9.57804ZM9.80492 9.57804H12.133L13.0314 13.0623L13.9259 9.57804H16.2461V15.3043H14.8009V10.9373L13.6798 15.3043H12.3713L11.2541 10.9373V15.3043H9.80498L9.80492 9.57804ZM17.3713 9.57804H19.1408V13.8943H21.9024V15.3043H17.3713V9.57804Z" fill="#803300"/>
<path d="M2.82838 8.95939H4.77751L5.79307 10.721L6.77743 8.95939H8.70703L6.92583 11.7327L8.87495 14.6858H6.88676L5.75787 12.846L4.62511 14.6858H2.64865L4.62511 11.7015L2.82838 8.95939ZM9.42186 8.95939H11.7499L12.6483 12.4436L13.5428 8.95939H15.8631V14.6857H14.4178V10.3187L13.2968 14.6857H11.9882L10.8711 10.3187V14.6857H9.42193L9.42186 8.95939ZM16.9882 8.95939H18.7577V13.2756H21.5193V14.6857H16.9882V8.95939Z" fill="white"/>
</svg>
