<svg width="24" height="24" viewBox="0 0 24 24" fill="none" xmlns="http://www.w3.org/2000/svg">
<g clip-path="url(#clip0_865_1493)">
<path d="M20.157 20.5786C19.9587 20.2811 19.6612 20.0332 19.3636 19.8348C19.0165 19.6365 18.5702 19.4877 18.0248 19.4381C17.4297 19.339 16.8347 19.2894 16.2397 19.339L8.45454 19.3886C8.6033 18.8431 9.04959 18.1489 9.69421 17.3059C10.438 16.3638 11.4793 15.3224 12.8182 14.0828L13.8595 13.091C14.0083 12.9423 14.2562 12.6943 14.6033 12.4464C16.6859 10.5125 18.0248 8.92574 18.6694 7.5869C19.1157 6.64475 19.4132 5.65301 19.6116 4.61169C19.7107 4.01665 19.7603 3.4712 19.7107 2.87615C19.7107 2.3307 19.6612 1.88442 19.5124 1.53731C19.3636 1.09103 19.1653 0.79351 18.9174 0.595163C18.6198 0.34723 18.2231 0.198469 17.6281 0.0992956C17.1818 0.0497088 16.5868 0.00012207 15.8926 0.00012207L6.91735 0.0497088C5.82645 0.0497088 4.98347 0.248056 4.43802 0.595163C3.99174 0.892684 3.69421 1.38855 3.59504 1.88442C3.59504 2.03318 3.54545 2.18194 3.54545 2.3307C3.54545 3.0745 3.84297 3.66954 4.43802 4.01665C4.78512 4.215 5.2314 4.36376 5.72727 4.46293C6.07438 4.51252 6.47107 4.56211 6.91735 4.56211H14.4545C14.405 5.15715 14.2562 5.7026 13.9587 6.19847C13.6612 6.74392 12.9669 7.48773 11.9256 8.42987C11.6281 8.67781 11.1818 9.0745 10.5868 9.61996C8.2562 11.6034 6.52066 13.339 5.38017 14.8762C4.58678 15.9175 3.99174 16.9588 3.59504 18.0001C3.34711 18.5952 3.19835 19.1902 3.09917 19.7852C3.04959 20.2315 3 20.6282 3 21.0249C3 21.62 3.09917 22.1158 3.19835 22.5125C3.34711 22.9092 3.54545 23.2067 3.84298 23.4547C4.09091 23.653 4.53719 23.7522 5.08264 23.8514C5.82645 23.9505 6.81818 24.0001 8.10744 24.0001L16.2893 23.9505C17.7273 23.9505 18.7686 23.7522 19.4132 23.4051C19.9091 23.1571 20.2562 22.6613 20.3058 22.0662C20.3058 21.9175 20.3554 21.7687 20.3554 21.62C20.4545 21.2233 20.3554 20.8762 20.157 20.5786Z" fill="black"/>
</g>
<defs>
<clipPath id="clip0_865_1493">
<rect width="24" height="24" fill="white"/>
</clipPath>
</defs>
</svg>
