<svg xmlns="http://www.w3.org/2000/svg" viewBox="0 0 24 24"><g fill="currentColor" clip-path="url(#clip0_5832_84)"><path d="M10.5 6H13.443L17.8886 1.55443C16.1463 0.5656 14.136 0 12 0C5.4 0 3.72529e-09 5.4 3.72529e-09 12C3.72529e-09 14.136 0.5656 16.1463 1.55443 17.8886L10.5 8.943V6Z"/><path fill-rule="evenodd" d="M4.33881 21.2182L1.87947 23.6775C1.44952 24.1075 0.752421 24.1075 0.322466 23.6775C-0.107489 23.2476 -0.107489 22.5505 0.322466 22.1205L22.1205 0.322466C22.5505 -0.107488 23.2476 -0.107489 23.6775 0.322466C24.1075 0.752421 24.1075 1.44952 23.6775 1.87947L21.2182 4.33882C22.9532 6.42097 24 9.09418 24 12C24 18.6 18.6 24 12 24C9.09418 24 6.42097 22.9532 4.33881 21.2182ZM15.057 10.5H18V13.5H12.057L15.057 10.5Z" clip-rule="evenodd"/></g></svg>