<svg xmlns="http://www.w3.org/2000/svg" viewBox="0 0 24 24"><path fill="currentColor" d="M7.53032 7.28033C7.82323 6.98744 7.82323 6.51257 7.53032 6.21968 7.23743 5.92677 6.76256 5.92677 6.46967 6.21968L1.22173 11.4676C1.21499 11.4743 1.20837 11.4811 1.20188 11.4881 1.07665 11.6221 1 11.8021 1 12 1 12.1012 1.02006 12.1978 1.05642 12.2859 1.09276 12.3742 1.14664 12.4569 1.21808 12.5287L1.21967 12.5303 7.53032 7.28033zM7.53032 7.28033L3.56067 11.25H22.25C22.6642 11.25 23 11.5858 23 12 23 12.4142 22.6642 12.75 22.25 12.75H3.56067L7.53032 16.7196C7.82323 17.0126 7.82323 17.4875 7.53032 17.7804 7.23743 18.0732 6.76256 18.0732 6.46967 17.7804L1.21967 12.5303 7.53032 7.28033zM11.5 2.75C11.5 2.33579 11.8358 2 12.25 2H22.25C22.6642 2 23 2.33579 23 2.75 23 3.16421 22.6642 3.5 22.25 3.5H12.25C11.8358 3.5 11.5 3.16421 11.5 2.75zM12.25 20.5C11.8358 20.5 11.5 20.8358 11.5 21.25 11.5 21.6642 11.8358 22 12.25 22H22.25C22.6642 22 23 21.6642 23 21.25 23 20.8358 22.6642 20.5 22.25 20.5H12.25z"/></svg>