<svg xmlns="http://www.w3.org/2000/svg" viewBox="0 0 24 24"><g fill="currentColor" clip-path="url(#clip0_33732_59541)"><path d="M12.4955 21.4977C12.5746 21.0557 12.6545 20.6089 12.7435 20.1486 12.7897 19.9166 12.8288 19.6935 12.867 19.4747 12.8972 19.3021 12.927 19.1321 12.9594 18.9627 13.065 18.4107 13.1721 17.8589 13.2792 17.3071 13.4576 16.3878 13.6362 15.4676 13.8079 14.547 13.8829 14.1449 13.9656 13.8655 14.4885 13.8045 15.0882 13.7346 15.6807 13.6045 16.2733 13.4743 16.5548 13.4125 16.8363 13.3507 17.1186 13.2953 18.083 13.1061 19.0483 12.9213 20.0143 12.7409 20.9389 12.5681 21.864 12.3983 22.7891 12.2284L22.7944 12.2274C23.189 12.155 23.5835 12.0826 23.978 12.0099L24 11.9071C23.9367 11.8885 23.8737 11.8681 23.8107 11.8477 23.6748 11.8037 23.5389 11.7597 23.3996 11.734 22.6413 11.5943 21.8825 11.4573 21.1237 11.3203L21.1225 11.3201C20.1576 11.1459 19.1919 10.9715 18.228 10.7918 16.9036 10.5449 15.5817 10.284 14.2621 10.0127 14.1257 9.9846 13.9335 9.86356 13.903 9.74936 13.8224 9.44812 13.771 9.13914 13.7195 8.83011 13.6985 8.70361 13.6774 8.57696 13.6543 8.45097 13.5812 8.05157 13.5085 7.65208 13.4359 7.25259 13.2492 6.22595 13.0625 5.19919 12.8678 4.17408 12.6249 2.89567 12.3672 1.62007 12.1095.344543L12.0974.284339C12.0836.216002 12.0458.152509 12.008.0890166 11.9904.0595065 11.9729.0299965 11.9577 0 11.7704.648557 11.6517 1.28115 11.5339 1.90898 11.5099 2.03678 11.4859 2.16466 11.4614 2.29216 11.2847 3.21269 11.1031 4.13229 10.9216 5.05189 10.8226 5.55293 10.7237 6.05397 10.6256 6.55516 10.5693 6.84238 10.5137 7.12974 10.4581 7.41709 10.308 8.19277 10.1578 8.96881 9.99526 9.74187 9.97268 9.84925 9.8271 9.99029 9.71865 10.011 9.10314 10.1282 8.48603 10.2369 7.86891 10.3457 7.30646 10.4448 6.74338 10.544 6.18214 10.6496 4.72053 10.9245 3.26087 11.2098 1.80123 11.4952L.988953 11.6539C.762266 11.6981.537068 11.75.311871 11.8019.207963 11.8258.104055 11.8498 0 11.873.184748 12.0098.359819 12.0814.541903 12.1154 1.16791 12.2322 1.79443 12.3463 2.42095 12.4604L2.42204 12.4606C3.22118 12.6061 4.02032 12.7516 4.81838 12.9028 5.46658 13.0255 6.11378 13.1536 6.76098 13.2816 7.5588 13.4395 8.35747 13.5975 9.15712 13.7455L9.2186 13.7569C9.9663 13.8947 9.97437 13.8962 10.1477 14.6536 10.1522 14.6735 10.1533 14.6942 10.1544 14.7149 10.1553 14.7328 10.1562 14.7507 10.1594 14.7681 10.2195 15.0989 10.2792 15.4299 10.3389 15.7608L10.3394 15.7632C10.4922 16.61 10.645 17.4568 10.8041 18.3024 10.9605 19.1342 11.1231 19.9649 11.2857 20.7956 11.3505 21.1266 11.4153 21.4576 11.4797 21.7888 11.5718 22.2624 11.6644 22.736 11.757 23.2096L11.8819 23.8485 11.9753 23.8694C11.9886 23.8409 12.0037 23.8129 12.0188 23.7848 12.0516 23.724 12.0844 23.6631 12.0977 23.5983 12.1993 23.1054 12.2941 22.611 12.3843 22.1159 12.4217 21.9103 12.4585 21.7045 12.4955 21.4977zM9.56514 18.8009C8.33146 18.36 7.30251 17.6218 6.40749 16.6375 5.86622 15.8918 5.36256 15.1572 5.09592 14.2875 5.07392 14.2157 4.91701 14.1639 4.81441 14.1419 4.29833 14.0312 3.78071 13.9266 3.26117 13.8337 3.01314 13.7893 2.76322 13.7555 2.50793 13.721 2.3923 13.7054 2.27555 13.6896 2.1574 13.6726 2.97332 18.5016 7.09562 21.2941 10.258 21.7171L10.1547 21.2073 10.1545 21.2063 10.1541 21.2045C10.0004 20.4454 9.84815 19.6936 9.69102 18.9429 9.67953 18.888 9.61845 18.8199 9.56514 18.8009zM17.7647 19.9941C17.3557 20.2789 16.9545 20.5583 16.5181 20.7627 15.902 21.0513 15.2602 21.285 14.6184 21.5187 14.3441 21.6186 14.0698 21.7185 13.7975 21.8227L13.7021 21.711C13.7296 21.5498 13.7566 21.3885 13.7836 21.2271 13.8479 20.8435 13.9121 20.4597 13.9827 20.0773 14.0052 19.9555 14.0359 19.8346 14.0666 19.7139 14.1166 19.517 14.1665 19.3204 14.1805 19.121 14.1994 18.8521 14.3482 18.7945 14.5489 18.7167 16.5688 17.9339 17.9501 16.4945 18.7624 14.5111 18.889 14.202 19.0685 14.1703 19.3128 14.127L19.3578 14.119C19.9113 14.0188 20.4623 13.9049 21.0453 13.7843 21.281 13.7356 21.5222 13.6858 21.7706 13.6353 21.7421 13.7642 21.7172 13.8864 21.6933 14.0036 21.6443 14.2437 21.5996 14.4631 21.5368 14.6772 21.1161 16.1116 20.4458 17.4119 19.4148 18.5079 19.1653 18.7731 18.9056 19.0286 18.639 19.2908 18.5238 19.4041 18.4073 19.5187 18.2899 19.6358 18.1113 19.7527 17.9373 19.8739 17.7647 19.9941zM9.9481 3.73411C10.0084 3.40822 10.0695 3.07841 10.1368 2.74172 10.1788 2.53856 10.203 2.36438 10.235 2.1342 8.8863 2.26991 7.69596 2.80515 6.60057 3.51248 4.1898 5.0692 2.73055 7.29586 2.15933 10.1267 2.1869 10.1292 2.21377 10.1334 2.23995 10.1375 2.29427 10.146 2.34562 10.154 2.39378 10.1451 3.14867 10.005 3.90267 9.86011 4.65641 9.7139 4.68236 9.70887 4.70783 9.7046 4.73277 9.70041 4.91088 9.67054 5.0616 9.64526 5.16179 9.38008 5.93495 7.33375 7.36038 5.90394 9.40154 5.11335 9.63178 5.02417 9.72536 4.89411 9.76364 4.70339 9.8281 4.38225 9.88774 4.06015 9.9481 3.73411zM21.569 2.94292C21.4563 2.69957 21.3491 2.42652 21.2581 2.13402 21.3743 2.38078 21.4743 2.647 21.569 2.94292zM21.1154 2.25105C21.0841 2.23282 21.0487 2.19097 21.0273 2.13402 21.0646 2.15509 21.0879 2.19126 21.1154 2.25105zM20.1687 2.16654C20.1482 2.17617 20.133 2.16308 20.1111 2.13522 20.1254 2.1307 20.1486 2.13849 20.1687 2.16654zM20.1541 9.9227C20.4802 9.98308 20.8102 10.0442 21.147 10.1116L21.1498 10.1121C21.3521 10.1539 21.5505 10.1948 21.7797 10.2267 21.6439 8.87793 21.0836 7.67065 20.3763 6.57528 18.8196 4.16452 16.5929 2.70527 13.7621 2.13402 13.7596 2.16161 13.7554 2.18851 13.7513 2.2147 13.7428 2.26904 13.7347 2.32034 13.7437 2.3685 13.8837 3.12337 14.0287 3.87738 14.1749 4.63115 14.1799 4.65708 14.1842 4.68253 14.1884 4.70745 14.2182 4.88557 14.2435 5.0363 14.5087 5.13647 16.555 5.90966 17.9848 7.33512 18.7754 9.37626 18.8646 9.60647 18.9947 9.70006 19.1854 9.73835 19.5063 9.80275 19.8283 9.86236 20.1541 9.9227z"/></g></svg>