<svg xmlns="http://www.w3.org/2000/svg" viewBox="0 0 24 24"><g fill="currentColor" clip-path="url(#clip0_970_5597)"><path d="M3.3 8.4L8.4 3.3 5.55.45C4.95-.15 4.05-.15 3.45.45L.45 3.45C-.15 4.05-.15 4.95.45 5.55L3.3 8.4zM20.6999 15.6006L15.5999 20.7006 18.4499 23.5506C18.7499 23.8506 19.0499 24.0006 19.4999 24.0006H23.9999V19.5006C23.9999 19.0506 23.8499 18.7506 23.5499 18.4506L20.6999 15.6006zM17.55.45L23.55 6.45C24.15 7.05 24.15 7.95 23.55 8.55L8.55 23.55C7.95 24.15 7.05 24.15 6.45 23.55L.45 17.55C-.15 16.95-.15 16.05.45 15.45L2.4 13.5 4.95 16.05 7.05 13.95 4.5 11.4 6.9 9 9.45 11.55 11.55 9.45 9 6.9 11.4 4.5 13.95 7.05 16.05 4.95 13.5 2.4 15.45.45C16.05-.15 16.95-.15 17.55.45z"/></g></svg>