<svg xmlns="http://www.w3.org/2000/svg" viewBox="0 0 24 24"><path fill="currentColor" fill-rule="evenodd" d="M12 7.5C9.51472 7.5 7.5 9.51472 7.5 12 7.5 14.4853 9.51472 16.5 12 16.5 14.4853 16.5 16.5 14.4853 16.5 12 16.5 9.51472 14.4853 7.5 12 7.5zM9 12C9 10.3431 10.3431 9 12 9 13.6569 9 15 10.3431 15 12 15 13.6569 13.6569 15 12 15 10.3431 15 9 13.6569 9 12zM23.9081 11.6404C24.0303 11.8642 24.0305 12.1353 23.9084 12.3591L23.25 12C23.9084 12.3591 23.9078 12.3603 23.9078 12.3603L23.9067 12.3623 23.9033 12.3684 23.8916 12.3894C23.8817 12.4073 23.8673 12.4328 23.8486 12.4654 23.8113 12.5306 23.7567 12.6242 23.6855 12.7422 23.543 12.9781 23.3334 13.3121 23.0611 13.7116 22.5174 14.509 21.7186 15.5745 20.6988 16.6429 18.6809 18.7568 15.6834 21 12 21 8.31657 21 5.31912 18.7568 3.30123 16.6429 2.2814 15.5745 1.48263 14.509.938923 13.7116.666591 13.3121.457016 12.9781.314529 12.7422.243258 12.6242.18869 12.5306.151367 12.4654.132703 12.4328.118345 12.4073.108359 12.3894L.0966663 12.3684.0932936 12.3623.0915783 12.3591C-.0305261 12.1353-.0305261 11.8647.0915783 11.6409L.75 12C.0915783 11.6409.0922284 11.6397.0922284 11.6397L.0932936 11.6377.0966663 11.6316.108359 11.6106C.118345 11.5927.132703 11.5672.151367 11.5346.18869 11.4694.243258 11.3758.314529 11.2578.457016 11.0219.666591 10.6879.938923 10.2884 1.48263 9.49099 2.2814 8.42554 3.30123 7.35714 5.31912 5.24316 8.31657 3 12 3 15.6834 3 18.6809 5.24316 20.6988 7.35714 21.7186 8.42554 22.5174 9.49099 23.0611 10.2884 23.3334 10.6879 23.543 11.0219 23.6855 11.2578 23.7567 11.3758 23.8113 11.4694 23.8486 11.5346 23.8673 11.5672 23.8817 11.5927 23.8916 11.6106L23.9033 11.6316 23.9067 11.6377 23.9081 11.6404zM2.17826 12.8666C1.93609 12.5114 1.74829 12.2134 1.61867 12 1.74829 11.7866 1.93609 11.4886 2.17826 11.1334 2.68924 10.384 3.43735 9.38696 4.38627 8.39286 6.30588 6.38184 8.93343 4.5 12 4.5 15.0666 4.5 17.6941 6.38184 19.6137 8.39286 20.5627 9.38696 21.3108 10.384 21.8217 11.1334 22.0639 11.4886 22.2517 11.7866 22.3813 12 22.2517 12.2134 22.0639 12.5114 21.8217 12.8666 21.3108 13.616 20.5627 14.613 19.6137 15.6071 17.6941 17.6182 15.0666 19.5 12 19.5 8.93343 19.5 6.30588 17.6182 4.38627 15.6071 3.43735 14.613 2.68924 13.616 2.17826 12.8666zM23.25 12C23.9084 11.6409 23.9081 11.6404 23.9081 11.6404L23.25 12z" clip-rule="evenodd"/></svg>