<svg xmlns="http://www.w3.org/2000/svg" viewBox="0 0 24 24"><path fill="currentColor" d="M.75 0H20.25C20.7 0 21 .3 21 .75V9.75C21 10.2 20.7 10.5 20.25 10.5 19.8 10.5 19.5 10.2 19.5 9.75V1.5H1.5V22.5H9.75C10.2 22.5 10.5 22.8 10.5 23.25 10.5 23.7 10.2 24 9.75 24H.75C.3 24 0 23.7 0 23.25V.75C0 .3.3 0 .75 0zM5.25 4.5H15.75C16.2 4.5 16.5 4.8 16.5 5.25 16.5 5.7 16.2 6 15.75 6H5.25C4.8 6 4.5 5.7 4.5 5.25 4.5 4.8 4.8 4.5 5.25 4.5zM11.25 9H5.25C4.8 9 4.5 9.3 4.5 9.75 4.5 10.2 4.8 10.5 5.25 10.5H11.25C11.7 10.5 12 10.2 12 9.75 12 9.3 11.7 9 11.25 9zM5.25 13.5H8.25C8.7 13.5 9 13.8 9 14.25 9 14.7 8.7 15 8.25 15H5.25C4.8 15 4.5 14.7 4.5 14.25 4.5 13.8 4.8 13.5 5.25 13.5zM8.25 18H5.25C4.8 18 4.5 18.3 4.5 18.75 4.5 19.2 4.8 19.5 5.25 19.5H8.25C8.7 19.5 9 19.2 9 18.75 9 18.3 8.7 18 8.25 18z"/><path fill="currentColor" fill-rule="evenodd" d="M23.85 17.1V19.05H21.6C21.45 19.5 21.3 19.8 21.15 20.1L22.65 21.6L21.3 22.95L19.8 21.45C19.65 21.525 19.4625 21.6 19.275 21.675C19.0875 21.75 18.9 21.825 18.75 21.9V24H16.8V21.9C16.35 21.75 16.05 21.6 15.75 21.45L14.25 22.95L12.9 21.6L14.4 20.1C14.325 19.95 14.25 19.7625 14.175 19.575C14.1 19.3875 14.025 19.2 13.95 19.05H11.85V17.1H13.95C14.1 16.65 14.25 16.35 14.4 16.05L12.9 14.55L14.4 13.05L15.9 14.55C16.05 14.475 16.2375 14.4 16.425 14.325C16.6125 14.25 16.8 14.175 16.95 14.1V12H18.9V14.25C19.35 14.4 19.65 14.55 19.95 14.7L21.45 13.2L22.8 14.55L21.3 16.05C21.375 16.2 21.45 16.3875 21.525 16.575C21.6 16.7625 21.675 16.95 21.75 17.1H23.85ZM18 20.1C18.45 20.1 19.05 19.8 19.35 19.5C19.65 19.05 19.95 18.6 19.95 18.15C19.95 17.7 19.65 17.1 19.35 16.8C19.05 16.35 18.6 16.2 18 16.2C17.55 16.2 16.95 16.5 16.65 16.8C16.2 17.1 16.05 17.55 16.05 18.15C16.05 18.6 16.35 19.2 16.65 19.5C16.95 19.95 17.4 20.1 18 20.1Z" clip-rule="evenodd"/></svg>