<svg xmlns="http://www.w3.org/2000/svg" viewBox="0 0 24 24"><path fill="currentColor" fill-rule="evenodd" d="M3 0H21C21.2652 0 21.5196 0.105357 21.7071 0.292893C21.8946 0.48043 22 0.734784 22 1V23C22 23.2652 21.8946 23.5196 21.7071 23.7071C21.5196 23.8946 21.2652 24 21 24H3C2.73478 24 2.48043 23.8946 2.29289 23.7071C2.10536 23.5196 2 23.2652 2 23V1C2 0.734784 2.10536 0.48043 2.29289 0.292893C2.48043 0.105357 2.73478 0 3 0ZM10.7084 16.9873L15.7294 13.05C16.357 12.525 16.357 11.475 15.7294 10.95L10.7084 7.01274C9.82978 6.35652 8.70007 7.01274 8.70007 8.06269V15.9373C8.70007 16.9873 9.9553 17.6435 10.7084 16.9873Z" clip-rule="evenodd"/></svg>