<svg xmlns="http://www.w3.org/2000/svg" fill="none" viewBox="0 0 37 24"><path fill="#73AF00" d="M0 15.9927H36.0902V23.3498C36.0902 23.6998 35.8083 23.9784 35.4699 23.9784H0.620301C0.274906 23.9784 0 23.6927 0 23.3498V15.9927Z"/><path fill="#FF4B55" d="M0.620301 0.0214844H35.4629C35.8083 0.0214844 36.0832 0.307199 36.0832 0.650056V8.0072H0V0.650056C0 0.300056 0.281955 0.0214844 0.620301 0.0214844Z"/><path fill="#F5F5F5" d="M0 8.007H36.09V15.992999999999999H0z"/><path fill="#FFCD5A" d="M18.1932 13.1286V11.85C18.2567 11.7072 18.3976 11.6072 18.5598 11.6072 18.6162 11.6072 18.6725 11.6214 18.7219 11.6429L18.9052 11.7286 18.877 11.5286C18.8206 11.1072 18.4611 10.7929 18.0452 10.7929 17.6293 10.7929 17.2698 11.1072 17.2134 11.5286L17.1852 11.7286 17.3685 11.6429C17.4249 11.6214 17.4742 11.6072 17.5306 11.6072 17.6928 11.6072 17.8337 11.7072 17.8972 11.85V13.1429C17.8972 13.2214 17.7703 13.45 17.5377 13.6 17.6505 13.6572 17.7632 13.6857 17.8831 13.6929 17.9465 13.6357 17.9959 13.5714 18.0452 13.5 18.0875 13.5572 18.1298 13.6143 18.1862 13.6643 18.299 13.6429 18.4047 13.6 18.5104 13.5429 18.306 13.4072 18.1932 13.2 18.1932 13.1286zM15.5148 15.1929L15.6064 15.4715C16.2267 15.2643 17.1149 15.1429 18.0453 15.1429 18.9758 15.1429 19.8639 15.2643 20.4842 15.4715L20.5759 15.1929C19.9274 14.9715 19.004 14.85 18.0453 14.85 17.0867 14.85 16.1633 14.9715 15.5148 15.1929zM15.4511 13.8L15.5427 14.0786C16.163 13.8714 17.0512 13.75 17.9817 13.75 18.9121 13.75 19.8003 13.8714 20.4206 14.0786L20.5122 13.8C19.8637 13.5786 18.9403 13.4572 17.9817 13.4572 17.023 13.4572 16.0996 13.5786 15.4511 13.8zM16.6283 14.7215C16.7879 14.7215 16.9173 14.5903 16.9173 14.4286 16.9173 14.2669 16.7879 14.1357 16.6283 14.1357 16.4687 14.1357 16.3393 14.2669 16.3393 14.4286 16.3393 14.5903 16.4687 14.7215 16.6283 14.7215zM18.0589 14.5929C18.2186 14.5929 18.348 14.4618 18.348 14.3 18.348 14.1383 18.2186 14.0072 18.0589 14.0072 17.8993 14.0072 17.7699 14.1383 17.7699 14.3 17.7699 14.4618 17.8993 14.5929 18.0589 14.5929zM19.4548 14.7357C19.6144 14.7357 19.7438 14.6046 19.7438 14.4429 19.7438 14.2811 19.6144 14.15 19.4548 14.15 19.2952 14.15 19.1658 14.2811 19.1658 14.4429 19.1658 14.6046 19.2952 14.7357 19.4548 14.7357zM14.944 11.3714C15.1737 11.3714 15.3599 11.1828 15.3599 10.95 15.3599 10.7173 15.1737 10.5286 14.944 10.5286 14.7144 10.5286 14.5282 10.7173 14.5282 10.95 14.5282 11.1828 14.7144 11.3714 14.944 11.3714zM16.2622 10.0357C16.4919 10.0357 16.6781 9.84704 16.6781 9.61429 16.6781 9.38154 16.4919 9.19286 16.2622 9.19286 16.0325 9.19286 15.8463 9.38154 15.8463 9.61429 15.8463 9.84704 16.0325 10.0357 16.2622 10.0357zM18.0452 9.53573C18.2749 9.53573 18.4611 9.34705 18.4611 9.1143 18.4611 8.88155 18.2749 8.69287 18.0452 8.69287 17.8155 8.69287 17.6293 8.88155 17.6293 9.1143 17.6293 9.34705 17.8155 9.53573 18.0452 9.53573zM19.8148 10.0357C20.0445 10.0357 20.2307 9.84704 20.2307 9.61429 20.2307 9.38154 20.0445 9.19286 19.8148 9.19286 19.5852 9.19286 19.399 9.38154 19.399 9.61429 19.399 9.84704 19.5852 10.0357 19.8148 10.0357zM21.1182 11.3643C21.3479 11.3643 21.5341 11.1756 21.5341 10.9429 21.5341 10.7101 21.3479 10.5214 21.1182 10.5214 20.8885 10.5214 20.7023 10.7101 20.7023 10.9429 20.7023 11.1756 20.8885 11.3643 21.1182 11.3643zM21.6052 13.1715C21.8349 13.1715 22.0211 12.9828 22.0211 12.75 22.0211 12.5173 21.8349 12.3286 21.6052 12.3286 21.3755 12.3286 21.1894 12.5173 21.1894 12.75 21.1894 12.9828 21.3755 13.1715 21.6052 13.1715zM14.514 13.2143C14.7437 13.2143 14.9299 13.0256 14.9299 12.7929 14.9299 12.5601 14.7437 12.3714 14.514 12.3714 14.2843 12.3714 14.0981 12.5601 14.0981 12.7929 14.0981 13.0256 14.2843 13.2143 14.514 13.2143z"/></svg>