<svg xmlns="http://www.w3.org/2000/svg" fill="none" viewBox="0 0 37 24"><path fill="#F5F5F5" d="M0 8.007H36.09V15.992999999999999H0z"/><path fill="#41479B" d="M36.0902 8.0072H0V.650056C0 .300056.281955.0214844.620301.0214844H35.4629C35.8083.0214844 36.0832.307199 36.0832.650056L36.0902 8.0072zM35.4699 23.9786H.620301C.274906 23.9786 0 23.6929 0 23.3501V15.9929H36.0902V23.3501C36.0902 23.7001 35.8083 23.9786 35.4699 23.9786zM18.0661 13.6144C19.4404 13.6144 20.5544 12.8277 20.5544 11.8573 20.5544 10.8869 19.4404 10.1002 18.0661 10.1002 16.6919 10.1002 15.5779 10.8869 15.5779 11.8573 15.5779 12.8277 16.6919 13.6144 18.0661 13.6144z"/><path fill="#FFE15A" d="M20.2868 12.9785L18.1087 9.67131C18.0805 9.62845 18.01 9.62845 17.9818 9.67131L15.8037 12.9785C15.7826 12.9999 15.7826 13.0285 15.7967 13.057 15.8108 13.0856 15.839 13.0999 15.8672 13.0999H20.2234C20.2516 13.0999 20.2798 13.0856 20.2939 13.057 20.3009 13.0356 20.3009 12.9999 20.2868 12.9785zM17.2697 10.907C17.2486 10.907 17.2204 10.8999 17.2063 10.8784L16.2335 9.60702C16.2053 9.5713 16.2124 9.5213 16.2476 9.49988 16.2829 9.4713 16.3322 9.47845 16.3534 9.51416L17.3261 10.7856C17.3543 10.8213 17.3473 10.8713 17.312 10.8927 17.2979 10.8999 17.2838 10.907 17.2697 10.907zM16.7973 11.6856C16.7832 11.6856 16.7691 11.6784 16.755 11.6713L15.5074 10.8856C15.4721 10.8642 15.458 10.8142 15.4792 10.7785 15.5003 10.7427 15.5497 10.7285 15.5849 10.7499L16.8326 11.5356C16.8678 11.557 16.8819 11.607 16.8607 11.6427 16.8537 11.6713 16.8255 11.6856 16.7973 11.6856zM18.8205 10.8999C18.8064 10.8999 18.7852 10.8927 18.7711 10.8856 18.7359 10.857 18.7288 10.807 18.757 10.7784L19.7298 9.50701C19.758 9.4713 19.8073 9.46416 19.8355 9.49273 19.8637 9.5213 19.8778 9.5713 19.8496 9.59987L18.8769 10.8713C18.8698 10.8927 18.8487 10.8999 18.8205 10.8999zM19.2929 11.6856C19.2647 11.6856 19.2435 11.6713 19.2294 11.6499 19.2083 11.6142 19.2153 11.5642 19.2576 11.5427L20.5053 10.757C20.5405 10.7356 20.5899 10.7427 20.611 10.7856 20.6322 10.8213 20.6251 10.8713 20.5828 10.8927L19.3352 11.6785C19.3211 11.6785 19.307 11.6856 19.2929 11.6856z"/><path fill="#FF4B55" d="M18.0453 11.4499C18.2166 11.4499 18.3554 11.3092 18.3554 11.1356C18.3554 10.962 18.2166 10.8213 18.0453 10.8213C17.874 10.8213 17.7351 10.962 17.7351 11.1356C17.7351 11.3092 17.874 11.4499 18.0453 11.4499Z"/><path fill="#41479B" d="M18.0451 9.78573C17.9746 9.78573 17.9182 9.72858 17.9182 9.65716V9.07144C17.9182 9.00001 17.9746 8.94287 18.0451 8.94287C18.1156 8.94287 18.172 9.00001 18.172 9.07144V9.65001C18.172 9.72858 18.1156 9.78573 18.0451 9.78573Z"/><path fill="#50AF69" d="M18.045 15.1785C16.3251 15.1785 14.9294 13.7642 14.9294 12.0213C14.9294 11.1785 15.2537 10.3856 15.8387 9.7856C15.9797 9.64275 16.1982 9.64275 16.3392 9.7856C16.4802 9.92846 16.4802 10.1499 16.3392 10.2927C15.881 10.757 15.6343 11.3713 15.6343 12.0213C15.6343 13.3713 16.7128 14.4642 18.045 14.4642C19.3773 14.4642 20.4558 13.3713 20.4558 12.0213C20.4558 11.3356 20.1809 10.6999 19.6874 10.2356C19.5465 10.0999 19.5394 9.87846 19.6733 9.72846C19.8073 9.5856 20.0258 9.57846 20.1738 9.71418C20.8012 10.307 21.1677 11.1499 21.1677 12.0213C21.1606 13.7642 19.765 15.1785 18.045 15.1785Z"/></svg>