<svg xmlns="http://www.w3.org/2000/svg" fill="none" viewBox="0 0 36 24"><path fill="#73AF00" d="M35.3647 23.9073H0.61846C0.27409 23.9073 0 23.6224 0 23.2806V17.626H35.9831V23.2806C35.9831 23.6295 35.702 23.9073 35.3647 23.9073Z"/><path fill="#FF4B55" d="M35.3647 0.0214844H0.61846C0.27409 0.0214844 0 0.306351 0 0.648191V17.6191H35.9831V0.648191C35.9831 0.299229 35.702 0.0214844 35.3647 0.0214844Z"/><path fill="#F5F5F5" d="M4.96174 23.9075H0.61846C0.27409 23.9075 0 23.6227 0 23.2808V0.648191C0 0.299229 0.281118 0.0214844 0.61846 0.0214844H4.96174V23.9075Z"/><path fill="#FF4B55" fill-rule="evenodd" d="M1.71478 17.7612H1.49691L0.618421 15.6674L1.27905 13.5736V13.2674L0.618421 13.8941V12.9541L1.06118 12.1707H1.27905V11.7505H1.06118L0.618421 10.9671V10.0271L1.27905 10.6538L0.618421 8.26801L1.50394 6.17424H1.72181L2.37541 8.26801H2.59328L3.24688 6.17424L3.46474 6.16712L4.33621 8.26089L3.68261 10.6609L4.33621 10.0342V10.9742L3.90048 11.7576H3.68261V12.1707H3.90048L4.33621 12.9541V13.8941L3.68261 13.2674V13.5736L4.33621 15.6674L4.11834 16.1802L3.46474 17.7612H3.24688L2.58625 15.6674H2.36838L1.71478 17.7612ZM1.71494 12.1707L1.93281 12.541L2.26312 12.9541L2.36854 13.6805H2.59344L2.70588 12.9541L3.0362 12.541L3.25406 12.1707H3.47193V11.7576H3.25406L3.0362 11.3944V11.1808L2.70588 10.9742L2.59344 10.2407H2.36854L2.26312 10.9742L1.71494 11.7505H1.49708V12.1707H1.71494Z" clip-rule="evenodd"/><path fill="#FF4B55" d="M.618408 1.06822H.843303V1.69493H.618408V1.06822zM2.37535 1.06822H2.59322V1.69493H2.37535V1.06822zM.843315 4.93509C.843315 4.92797.618421 5.54756.618421 5.54756V5.96061L.843315 6.58732H1.17363L1.3915 5.96061V5.55468L1.17363 4.93509H.843315zM2.62842 4.93509C2.62842 4.92797 2.5722 5.09176 2.51597 5.24844L2.40353 4.93509H2.07321C2.07321 4.92797 1.84832 5.54755 1.84832 5.54755V5.96061L2.07321 6.58731H2.40353L2.51597 6.27396 2.62842 6.58731H2.95873L3.1766 5.96061V5.55467L2.95873 4.93509H2.62842zM4.13233 4.93509H3.80202C3.80202 4.92797 3.57712 5.54756 3.57712 5.54756V5.96061L3.80202 6.58732H4.13233L4.3502 5.96061V5.55468L4.13233 4.93509zM.843315 17.3054C.843315 17.2983.618421 17.9179.618421 17.9179V18.3309L.843315 18.9576H1.17363L1.3915 18.3309V17.925L1.17363 17.3054H.843315zM2.62842 17.3054C2.62842 17.2983 2.5722 17.4621 2.51597 17.6188L2.40353 17.3054H2.07321C2.07321 17.2983 1.84832 17.9179 1.84832 17.9179V18.3309L2.07321 18.9576H2.40353L2.51597 18.6443 2.62842 18.9576H2.95873L3.1766 18.3309V17.925L2.95873 17.3054H2.62842zM4.13233 17.3054H3.80202C3.80202 17.2983 3.57712 17.9179 3.57712 17.9179V18.3309L3.80202 18.9576H4.13233L4.3502 18.3309V17.925L4.13233 17.3054zM4.12535 22.2409H4.34322V22.8676H4.12535V22.2409zM4.12535 1.06822H4.34322V1.69493H4.12535V1.06822z"/><path fill="#FF4B55" fill-rule="evenodd" d="M3.33121 18.5873L2.59328 20.6811H2.37541L1.56719 18.5873.618421 20.9446 1.60233 23.2947 2.36838 21.1938H2.58625L3.35932 23.2876 4.33621 20.9446 3.33121 18.5873zM1.51796 22.255L.990862 20.9446 1.51796 19.6342 2.08019 20.9802 1.51796 22.255zM2.88158 20.9588L3.40868 22.255 3.97091 20.9303 3.40868 19.6342 2.88158 20.9588zM3.33121.733398L2.59328 2.82717H2.37541L1.56719.733398.618421 3.09067 1.60233 5.44082 2.36838 3.33993H2.58625L3.35932 5.4337 4.33621 3.09067 3.33121.733398zM1.51796 4.40105L.990862 3.09066 1.51796 1.78027 2.08019 3.12627 1.51796 4.40105zM2.88158 3.1049L3.40868 4.40105 3.97091 3.07642 3.40868 1.78027 2.88158 3.1049z" clip-rule="evenodd"/><path fill="#FF4B55" d="M.618408 22.2409H.843303V22.8676H.618408V22.2409zM2.37535 22.2409H2.59322V22.8676H2.37535V22.2409z"/></svg>