<svg xmlns="http://www.w3.org/2000/svg" fill="none" viewBox="0 0 37 24"><path fill="#41479B" d="M0 15.9927H36.0902V23.3498C36.0902 23.6998 35.8083 23.9784 35.4699 23.9784H0.620301C0.274906 23.9784 0 23.6927 0 23.3498V15.9927Z"/><path fill="#F5F5F5" d="M0 8.00732H36.0902V15.993H0V8.00732zM18.0802 18.393C20.3498 18.393 22.1897 17.0531 22.1897 15.4002 22.1897 13.7473 20.3498 12.4073 18.0802 12.4073 15.8106 12.4073 13.9707 13.7473 13.9707 15.4002 13.9707 17.0531 15.8106 18.393 18.0802 18.393z"/><path fill="#FF4B55" fill-rule="evenodd" d="M36.0832 0.650056C36.0832 0.307199 35.8083 0.0214844 35.4629 0.0214844H0.620301C0.281955 0.0214844 0 0.300056 0 0.650056V8.0072H13.3788V13.8858C13.3788 16.4929 15.4723 18.6143 18.0451 18.6143C20.618 18.6143 22.7115 16.4929 22.7115 13.8858V8.0072H36.0832V0.650056ZM20.6675 12.2501H22.4085V10.2286H20.6675V8.21434H18.9193V10.2286H17.1783V8.21434H15.4372V10.2286H13.6961V12.2572H15.4372V14.2715L13.7173 14.2786C13.7099 14.2335 13.7044 14.1884 13.7009 14.1433C13.6988 14.1029 13.6972 14.0623 13.6961 14.0215C13.6961 14.0621 13.6977 14.1027 13.7009 14.1433C13.7424 14.9322 13.9917 15.6607 14.394 16.2858H15.4302V17.4143C15.9377 17.8001 16.5298 18.0786 17.1783 18.2143V16.2858H18.9193L18.9264 18.2072C19.5537 18.0786 20.1318 17.8072 20.6322 17.4358C20.7803 17.3215 20.7943 17.3072 20.6534 17.4143V16.2858H18.9193V14.2715H20.6604V16.2858H21.6966C21.9997 15.7643 22.3099 15.1429 22.3874 14.2715H20.6675V12.2501Z" clip-rule="evenodd"/><path fill="#FF4B55" d="M15.4299 10.2358H17.171V12.2501H15.4299V10.2358zM18.9192 10.2358H20.6603V12.2501H18.9192V10.2358zM17.171 12.2501L18.9121 12.25V14.2643H17.1711L17.171 12.2501zM15.4299 14.2715H17.171V16.2858L15.4302 16.2858 15.4299 14.2715z"/><path fill="#41479B" d="M22.3591 4.75713C21.9643 4.77856 21.5766 4.82141 21.196 4.8857C21.1044 5.2857 21.0973 5.2857 21.196 4.87856C20.8858 4.64999 20.5616 4.4357 20.2232 4.2357C19.8426 4.32141 19.469 4.42856 19.1025 4.54284C19.0743 4.90713 19.0743 4.91427 19.1025 4.54284C18.7641 4.37141 18.4117 4.20713 18.0451 4.05713C17.6786 4.20713 17.3262 4.36427 16.9878 4.54284C16.6213 4.42141 16.2477 4.32141 15.867 4.2357C15.5287 4.4357 15.2045 4.65713 14.9014 4.87856C14.5278 4.82141 14.1119 4.77856 13.7312 4.74999C13.4281 5.00713 13.1321 5.27141 12.8572 5.54284C13.1321 6.22141 13.414 6.89999 13.6889 7.57856C13.9709 7.46427 16.008 6.8357 18.0451 6.8357C20.0823 6.8357 22.1194 7.47141 22.4014 7.59284C22.6833 6.90713 22.9653 6.22856 23.2402 5.54999C22.9582 5.27141 22.6622 5.00713 22.3591 4.75713Z"/><path fill="#FFE15A" d="M14.5772 6.05713C14.6266 6.2357 14.5068 6.42142 14.3094 6.4857 14.112 6.54999 13.9076 6.47142 13.8442 6.29999 13.7807 6.12856 13.9006 5.92856 14.105 5.85713 14.3164 5.7857 14.5279 5.87856 14.5772 6.05713zM22.1408 6.35711C22.0492 6.5214 21.8377 6.56425 21.6544 6.4714 21.4712 6.37854 21.3795 6.17854 21.45 6.00711 21.5205 5.84283 21.7461 5.78569 21.9434 5.87854 22.1408 5.9714 22.2254 6.19283 22.1408 6.35711zM17.9466 5.3214C17.9466 5.46426 17.8197 5.58569 17.6576 5.59283 17.4955 5.59998 17.3616 5.48569 17.3545 5.34283 17.3475 5.19998 17.4744 5.07141 17.6435 5.06426 17.8057 5.06426 17.9466 5.17855 17.9466 5.3214zM18.7432 5.34284C18.7361 5.48569 18.5951 5.59998 18.4401 5.59284 18.2779 5.58569 18.1511 5.47141 18.1511 5.32141 18.1511 5.17855 18.292 5.05712 18.4542 5.06426 18.6163 5.07141 18.7502 5.19998 18.7432 5.34284zM18.3274 6.00711C18.3203 6.14997 18.1934 6.2714 18.0454 6.2714 17.8903 6.2714 17.7705 6.15711 17.7634 6.00711 17.7564 5.86426 17.8833 5.73568 18.0454 5.74283 18.2075 5.73568 18.3344 5.85711 18.3274 6.00711z"/></svg>