<svg xmlns="http://www.w3.org/2000/svg" fill="none" viewBox="0 0 37 24"><path fill="#73AF00" d="M35.4702 23.9786H9.33301V0.0214844H35.4702C35.8156 0.0214844 36.0905 0.307199 36.0905 0.650056V23.3501C36.0905 23.7001 35.8086 23.9786 35.4702 23.9786Z"/><path fill="#F5F5F5" d="M9.33271 23.9786H.620301C.274906 23.9786 0 23.6929 0 23.3501V.650056C0 .300056.281955.0214844.620301.0214844H9.33271V23.9786zM29.0488 15.3C26.187 17.8858 21.8026 17.6215 19.2509 14.7143 16.7062 11.8143 16.9671 7.35719 19.8289 4.77148 19.8359 4.76434 19.8359 4.76434 19.843 4.75719 19.9135 4.70005 19.843 4.58577 19.7584 4.62148 16.9318 5.73577 14.9299 8.52148 14.9299 11.7786 14.9299 16.0215 18.3204 19.4643 22.5004 19.4643 25.3905 19.4643 27.8999 17.8143 29.1687 15.3929 29.218 15.3143 29.1193 15.2358 29.0488 15.3zM25.3619 6.04291L26.3558 7.17148 27.7374 6.58577C27.9136 6.5072 28.0898 6.7072 27.9912 6.87862L27.2369 8.18577 28.2167 9.33577C28.3436 9.48577 28.2097 9.7072 28.0193 9.67148L26.5602 9.35005 25.7849 10.6501C25.6862 10.8215 25.4324 10.7572 25.4113 10.5643L25.2632 9.0572 23.8041 8.71434C23.6138 8.67148 23.5927 8.4072 23.7689 8.32862L25.1364 7.72148 25.0095 6.21434C24.9954 6.00005 25.235 5.89291 25.3619 6.04291z"/></svg>