<svg xmlns="http://www.w3.org/2000/svg" fill="none" viewBox="0 0 37 24"><path fill="#F5F5F5" d="M35.4699 23.9786H0.620301C0.274906 23.9786 0 23.6929 0 23.3501V0.650056C0 0.300056 0.281955 0.0214844 0.620301 0.0214844H35.4629C35.8083 0.0214844 36.0832 0.307199 36.0832 0.650056V23.3501C36.0902 23.7001 35.8083 23.9786 35.4699 23.9786Z"/><path fill="#41479B" d="M14.9366 9.47863H.620301C.274906 9.47863 0 9.19291 0 8.85005V.650056C0 .300056.281955.0214844.620301.0214844H14.9295C15.2749.0214844 15.5498.307199 15.5498.650056V8.85005C15.5569 9.19291 15.2749 9.47863 14.9366 9.47863zM35.4696 23.9786H21.1604C20.815 23.9786 20.5401 23.6929 20.5401 23.3501V15.1501C20.5401 14.8001 20.8221 14.5215 21.1604 14.5215H35.4696C35.815 14.5215 36.0899 14.8072 36.0899 15.1501V23.3501C36.0899 23.7001 35.808 23.9786 35.4696 23.9786z"/><path fill="#FF4B55" d="M35.4696 9.47863H21.1604C20.815 9.47863 20.5401 9.19291 20.5401 8.85005V.650056C20.5401.300056 20.8221.0214844 21.1604.0214844H35.4696C35.815.0214844 36.0899.307199 36.0899.650056V8.85005C36.0899 9.19291 35.808 9.47863 35.4696 9.47863zM14.9366 23.9786H.620301C.274906 23.9786 0 23.6929 0 23.3501V15.1501C0 14.8001.281955 14.5215.620301 14.5215H14.9295C15.2749 14.5215 15.5498 14.8072 15.5498 15.1501V23.3501C15.5569 23.7001 15.2749 23.9786 14.9366 23.9786z"/><path fill="#464655" d="M18.3275 10.2002V10.9859L17.7706 11.0002V10.2002H16.7626L16.7485 11.6073H17.7706V11.3645L18.3275 11.3573V11.6073H19.3425L19.3284 10.2002H18.3275Z"/><path fill="#FF6B71" d="M18.2498 11.7427H17.8268V12.0712C17.8268 12.0784 17.8198 12.0784 17.8198 12.0855H16.7483V12.8355C16.7483 13.0427 16.9105 13.207 17.1149 13.207H17.6717C17.8268 13.207 17.9537 13.2855 18.0312 13.3927 18.1088 13.2855 18.2427 13.207 18.3907 13.207H18.9476C19.152 13.207 19.3141 13.0427 19.3141 12.8355V12.0855H18.2498V11.7427zM18.2983 13.9784L18.0445 14.0427 17.7907 13.9784C17.7343 13.9641 17.678 14.007 17.678 14.0712V14.1998C17.678 14.2641 17.7343 14.307 17.7907 14.2927L18.0445 14.2284V14.2355L18.2983 14.2998C18.3547 14.3141 18.411 14.2712 18.411 14.207V14.0712C18.411 14.007 18.3547 13.9641 18.2983 13.9784zM15.6411 14.1284C15.6905 14.2427 15.7468 14.357 15.7962 14.4641 15.9795 14.3784 17.0368 13.907 18.08 13.907 19.1021 13.907 20.1172 14.3784 20.2934 14.4641 20.3427 14.357 20.3991 14.2427 20.4484 14.1284 20.3145 14.0641 19.1797 13.5998 18.0448 13.5998 16.9099 13.5998 15.7821 14.0641 15.6411 14.1284z"/><path fill="#64B496" d="M15.874 10.7856C15.7541 10.9642 15.5145 11.5142 15.6061 11.9927 15.6977 12.4642 16.0008 13.0499 16.5436 13.4427 17.0864 13.8356 17.3119 13.8784 17.3119 13.8784L17.9886 13.7999C17.9886 13.7999 17.9957 13.4784 17.6785 13.1999 17.3613 12.9213 16.9877 12.8642 16.7269 12.3284 16.4661 11.7927 16.5225 11.1427 16.4449 10.8856 16.3674 10.6284 16.0008 10.5999 15.874 10.7856zM20.1456 10.7856C20.2654 10.9642 20.5051 11.5142 20.4134 11.9927 20.3218 12.4713 20.0187 13.0499 19.4759 13.4427 18.9332 13.8356 18.7076 13.8784 18.7076 13.8784L18.0309 13.7999C18.0309 13.7999 18.0239 13.4784 18.3411 13.1999 18.6583 12.9213 19.0319 12.8642 19.2927 12.3284 19.5535 11.7927 19.4971 11.1427 19.5746 10.8856 19.6522 10.6284 20.0187 10.5999 20.1456 10.7856z"/><path fill="#41479B" d="M18.0025 9.25C16.924 9.25 15.8244 10.1857 15.6411 10.4429C15.7398 10.5143 15.8385 10.5929 15.9372 10.6643C16.1416 10.3857 16.8535 9.62143 18.0236 9.62143C19.1937 9.62143 20.0044 10.4571 20.1594 10.6643C20.2581 10.5929 20.3568 10.5143 20.4555 10.4429C20.2229 10.1214 19.3277 9.25 18.0025 9.25Z"/></svg>