<svg xmlns="http://www.w3.org/2000/svg" fill="none" viewBox="0 0 37 24"><path fill="#4173CD" d="M36.0902 12.0001H0V0.650056C0 0.300056 0.281955 0.0214844 0.620301 0.0214844H35.4629C35.8083 0.0214844 36.0832 0.307199 36.0832 0.650056L36.0902 12.0001Z"/><path fill="#73AF00" d="M0.620301 23.9784H35.4629C35.8083 23.9784 36.0832 23.6927 36.0832 23.3498V17.9927H0V23.3498C0 23.6998 0.281955 23.9784 0.620301 23.9784Z"/><path fill="#FFE15A" d="M0 12.0001H36.0902V17.9929H0V12.0001zM32.2982 6.43577L34.8428 6.0072 32.2982 5.57863 34.4904 4.19291 31.9739 4.78577 33.4753 2.6572 31.3748 4.17863 31.9598 1.62863 30.5924 3.85006 30.1694 1.27148 29.7465 3.85006 28.3931 1.64291 28.9782 4.19291 26.8776 2.67148 28.379 4.80006 25.8626 4.2072 28.0548 5.59291 25.5101 6.02148 28.0548 6.45006 25.8696 7.82149 28.3861 7.22863 26.8776 9.3572 28.9782 7.83577 28.3931 10.3858 29.7606 8.16434 30.1835 10.7429 30.6065 8.16434 31.9739 10.3858 31.3889 7.83577 33.4824 9.3572 31.981 7.22863 34.4974 7.82149 32.2982 6.43577z"/></svg>