<svg xmlns="http://www.w3.org/2000/svg" viewBox="0 0 24 24"><path fill="currentColor" d="M13.484 9.78513C13.0452 9.4919 12.5293 9.33533 12.0015 9.33522V9.33265C11.6512 9.33251 11.3043 9.40135 10.9806 9.53524C10.6569 9.66913 10.3627 9.86544 10.115 10.113C9.86717 10.3605 9.67059 10.6544 9.53645 10.9779C9.40231 11.3013 9.33323 11.648 9.33316 11.9982C9.33245 12.5257 9.48829 13.0416 9.78099 13.4806C10.0737 13.9196 10.4901 14.2619 10.9775 14.4643C11.4649 14.6667 12.0014 14.7201 12.5191 14.6176C13.0368 14.5152 13.5125 14.2616 13.886 13.8888C14.2595 13.5161 14.514 13.041 14.6173 12.5237C14.7206 12.0063 14.6681 11.47 14.4663 10.9825C14.2646 10.4951 13.9227 10.0784 13.484 9.78513Z"/><path fill="currentColor" fill-rule="evenodd" d="M12.0015 5.44418H11.2838V5.44212C9.79294 5.44367 9.50655 5.45347 8.76863 5.48699 8.26119 5.49264 7.75856 5.586 7.28298 5.76293 6.93778 5.89599 6.62429 6.09985 6.36273 6.36138 6.10116 6.62291 5.8973 6.93631 5.7643 7.28139 5.58783 7.75688 5.49462 8.2592 5.48874 8.76632 5.45004 9.60962 5.4423 9.86132 5.4423 11.9977 5.4423 14.134 5.45004 14.3873 5.48874 15.2306 5.4943 15.7377 5.58752 16.2401 5.7643 16.7155 5.89757 17.0603 6.10152 17.3734 6.36307 17.6348 6.62461 17.8961 6.93796 18.0999 7.28298 18.2329 7.75872 18.4093 8.26125 18.5026 8.76863 18.5089 9.61182 18.547 9.86519 18.5553 12.0015 18.5553 14.1379 18.5553 14.3913 18.547 15.2345 18.5089 15.7418 18.5031 16.2444 18.4099 16.7201 18.2335 17.065 18.1003 17.3782 17.8965 17.6397 17.6351 17.9011 17.3738 18.105 17.0608 18.2383 16.716 18.4145 16.2405 18.5078 15.7382 18.5138 15.2311 18.552 14.3878 18.5608 14.1346 18.5608 11.9997 18.5608 9.86493 18.552 9.61168 18.5138 8.76838 18.5078 8.26128 18.4145 7.759 18.2383 7.28345 18.1051 6.9386 17.9013 6.6254 17.6398 6.36399 17.3784 6.10257 17.0651 5.89871 16.7201 5.76551 16.2443 5.58933 15.7418 5.49616 15.2345 5.49009 14.3913 5.4514 14.1379 5.44418 12.0015 5.44418zM15.7386 6.93412C15.8966 6.82862 16.0822 6.77232 16.2722 6.77232 16.3983 6.77225 16.5232 6.79701 16.6397 6.84519 16.7562 6.89338 16.862 6.96403 16.9512 7.05312 17.0404 7.14221 17.1112 7.24799 17.1594 7.36442 17.2077 7.48085 17.2325 7.60564 17.2325 7.73167 17.2326 7.92153 17.1764 8.10716 17.0709 8.26508 16.9655 8.423 16.8155 8.5461 16.6401 8.61883 16.4646 8.69156 16.2715 8.71064 16.0852 8.67367 15.8988 8.63669 15.7277 8.54531 15.5933 8.41109 15.459 8.27687 15.3675 8.10584 15.3304 7.91963 15.2933 7.73342 15.3123 7.5404 15.3849 7.36498 15.4576 7.18955 15.5807 7.03961 15.7386 6.93412zM9.71745 8.58184C10.3937 8.13083 11.1886 7.89043 12.0015 7.89104 13.0909 7.89186 14.1353 8.32492 14.9053 9.09506 15.6754 9.8652 16.108 10.9094 16.1081 11.9982 16.1082 12.8108 15.8672 13.6051 15.4155 14.2808 14.9639 14.9564 14.3219 15.483 13.5708 15.7938 12.8197 16.1047 11.9932 16.186 11.1959 16.0273 10.3986 15.8686 9.66625 15.4771 9.09157 14.9024 8.5169 14.3276 8.12569 13.5954 7.96742 12.7984 7.80916 12.0013 7.89095 11.1753 8.20246 10.4247 8.51397 9.67419 9.0412 9.03285 9.71745 8.58184zM5.80671 1.02829C6.06757 1.00681 7.41121 1.0021 12.0037 1.0021L15.5804 1C18.1629 1.00463 18.3096 1.0259 18.7997 1.09697L18.8282 1.1011C19.8338 1.22794 20.7725 1.67346 21.5065 2.37238 21.8975 2.74076 22.2172 3.17813 22.4495 3.66252 22.7668 4.32109 22.9468 5.03736 22.9785 5.76771 22.9932 5.95733 23 8.97448 23 11.9927 23 15.0109 22.9937 18.0332 22.979 18.2229 22.9465 18.9452 22.7702 19.6537 22.4605 20.3071 22.169 20.911 21.7492 21.4439 21.2304 21.8687 20.7116 22.2934 20.1063 22.5998 19.4568 22.7664 18.915 22.8999 18.3599 22.9727 17.802 22.9832 17.5364 22.9969 14.758 23 11.9796 23 9.20115 23 6.42431 22.9916 6.15191 22.9796 5.61372 22.9651 5.07847 22.8948 4.55474 22.7701 3.90653 22.6022 3.30239 22.2959 2.78387 21.8723 2.26535 21.4486 1.84477 20.9177 1.55107 20.316 1.23649 19.6495 1.05839 18.9268 1.02724 18.1904 1.00524 17.93 1 16.5875 1 11.9979V8.42238C1.00464 5.83794 1.02549 5.69383 1.09692 5.20001 1.09813 5.1917 1.09934 5.18329 1.10058 5.17476 1.22723 4.16923 1.67408 3.23113 2.37507 2.49914 2.73742 2.11725 3.16559 1.80372 3.63908 1.57357 4.31621 1.24408 5.05426 1.05842 5.80671 1.02829zM8.70257 4.04797C9.55609 4.00928 9.82855 4 12.0015 4L11.9974 4.00155C14.1709 4.00155 14.4429 4.01083 15.2964 4.04951 15.9605 4.06297 16.6176 4.18871 17.2398 4.42139 17.7714 4.62687 18.2542 4.94114 18.6572 5.34403 19.0602 5.74693 19.3745 6.22955 19.58 6.76097 19.8117 7.38276 19.9374 8.03899 19.952 8.70236 19.9902 9.55546 20 9.82831 20 12.0008 20 14.1732 19.9902 14.4451 19.952 15.2982 19.9374 15.9617 19.8116 16.6181 19.58 17.2401 19.3742 17.7713 19.0598 18.2538 18.657 18.6567 18.2541 19.0596 17.7716 19.3741 17.2403 19.5802 16.6182 19.8125 15.9614 19.9381 15.2974 19.9515 14.4439 19.9902 14.1715 20 11.999 20 9.82648 20 9.55402 19.9902 8.70051 19.9515 8.03674 19.9382 7.38002 19.8126 6.75818 19.5802 6.22701 19.3743 5.74469 19.0599 5.34208 18.657 4.93947 18.2541 4.62542 17.7717 4.42005 17.2406 4.18748 16.619 4.06186 15.9626 4.04851 15.2992 4.0098 14.4461 4 14.1768 4 12.0018 4 9.82676 4.0098 9.55392 4.04799 8.70082 4.06083 8.0371 4.18664 7.38041 4.42005 6.7589 4.62563 6.22754 4.94005 5.74498 5.34313 5.34217 5.74622 4.93937 6.22908 4.62521 6.76076 4.41984 7.38232 4.18699 8.03891 4.06124 8.70257 4.04797z" clip-rule="evenodd"/></svg>