<svg xmlns="http://www.w3.org/2000/svg" viewBox="0 0 24 24"><path fill="currentColor" fill-rule="evenodd" d="M22.7075 0.221759C23.0032 -0.0739198 23.4826 -0.0739198 23.7782 0.221759C24.0739 0.517439 24.0739 0.996829 23.7782 1.29251L18.9682 6.10254C18.9892 6.31563 19 6.5316 19 6.75V9.75C19 13.4777 15.8658 16.5 12 16.5C10.9861 16.5 10.0225 16.2921 9.15264 15.9181L7.01806 18.0527C8.46828 18.971 10.1758 19.5 12 19.5C17.2298 19.5 21.5 15.1519 21.5 9.75C21.5 9.33579 21.8358 9 22.25 9C22.6642 9 23 9.33579 23 9.75C23 15.6897 18.4899 20.5797 12.75 20.9743V23.25C12.75 23.6642 12.4142 24 12 24C11.5858 24 11.25 23.6642 11.25 23.25V20.9743C9.29131 20.8397 7.47583 20.1815 5.93389 19.1369L1.29251 23.7782C0.996826 24.0739 0.517437 24.0739 0.221758 23.7782C-0.0739212 23.4826 -0.0739231 23.0032 0.221758 22.7075L22.7075 0.221759ZM10.3242 14.7466L17.4444 7.6263V9.75C17.4444 12.6493 15.0067 15 12 15C11.4153 15 10.8521 14.9111 10.3242 14.7466Z" clip-rule="evenodd"/><path fill="currentColor" d="M17.4342 2.49502L16.3442 3.58509C15.3501 2.31844 13.7741 1.5 12 1.5 8.99333 1.5 6.55556 3.85071 6.55556 6.75V9.75C6.55556 10.7756 6.86063 11.7326 7.38805 12.5412L6.28318 13.6461C5.47498 12.5454 5 11.2012 5 9.75V6.75C5 3.02229 8.13422 0 12 0 14.1931 0 16.1507.972677 17.4342 2.49502zM4.36955 15.5597L3.29767 16.6316C1.85636 14.7271 1 12.3382 1 9.75 1 9.33579 1.33579 9 1.75 9 2.16421 9 2.5 9.33579 2.5 9.75 2.5 11.9305 3.19576 13.9393 4.36955 15.5597z"/></svg>