<svg xmlns="http://www.w3.org/2000/svg" viewBox="0 0 24 24"><g fill="currentColor" clip-path="url(#clip0_969_6498)"><path d="M5.5 9.6C5.5 13.1344 8.41037 16 12 16 15.5896 16 18.5 13.1344 18.5 9.6V6.4C18.5 2.8656 15.5896 0 12 0 8.41037 0 5.5 2.8656 5.5 6.4V9.6zM3 10.3333C3 9.59695 2.32843 9 1.5 9 .671573 9 0 9.59695 0 10.3333 0 15.7728 4.58052 20.2613 10.5 20.9175V24H13.5V20.9175C19.4195 20.2613 24 15.7728 24 10.3333 24 9.59695 23.3284 9 22.5 9 21.6716 9 21 9.59695 21 10.3333 21 14.7516 16.9706 18.3333 12 18.3333 7.02943 18.3333 3 14.7516 3 10.3333z"/></g></svg>