<svg xmlns="http://www.w3.org/2000/svg" viewBox="0 0 24 24"><g fill="currentColor" clip-path="url(#clip0_971_4907)"><path d="M20.7929 11.4451L18.9734 13.3501 10.6934 5.06864 12.5549 3.20114C13.4628 2.29837 14.6435 1.72074 15.9135 1.55799 17.1834 1.39525 18.4716 1.65649 19.5779 2.30114L21.4394.439636C21.5756.287706 21.7413.165162 21.9265.079501 22.1117-.0061597 22.3124-.0531357 22.5164-.0585532 22.7204-.0639707 22.9233-.0277157 23.1128.0479937 23.3023.123703 23.4743.237275 23.6184.381761 23.7625.526247 23.8756.69861 23.9507.888304 24.0259 1.078 24.0616 1.28103 24.0556 1.48499 24.0496 1.68895 24.0021 1.88954 23.9159 2.07449 23.8297 2.25944 23.7067 2.42486 23.5544 2.56064L21.6929 4.42214C22.3375 5.52838 22.5987 6.81656 22.436 8.08654 22.2733 9.35652 21.6956 10.5372 20.7929 11.4451zM12.7049 12.7051L14.2949 14.2951 11.4824 17.1076 13.3064 18.9376 11.4449 20.7991C10.5369 21.7018 9.35626 22.2795 8.08628 22.4422 6.8163 22.605 5.52812 22.3437 4.42188 21.6991L2.56038 23.5606C2.42201 23.7038 2.25649 23.8181 2.07348 23.8967 1.89048 23.9753 1.69365 24.0167 1.49448 24.0185 1.29531 24.0202 1.09779 23.9822.913447 23.9068.729102 23.8314.561624 23.72.420785 23.5792.279946 23.4383.168566 23.2709.0931451 23.0865.0177238 22.9022-.0202288 22.7046-.0184981 22.5055-.0167673 22.3063.024612 22.1095.103226 21.9265.181839 21.7435.296112 21.5779.439378 21.4396L2.30688 19.5781C1.66223 18.4718 1.40099 17.1837 1.56374 15.9137 1.72648 14.6437 2.30411 13.463 3.20688 12.5551L5.02638 10.6501 6.89988 12.5176 9.70488 9.70508 11.2949 11.2951 8.48988 14.1076 9.89988 15.5176 12.7049 12.7051z"/></g></svg>