<svg xmlns="http://www.w3.org/2000/svg" viewBox="0 0 24 24"><g fill="currentColor" clip-path="url(#clip0_959_18428)"><path d="M17.4215 5.45345C15.9092 4.20497 13.9943 3.498 12 3.498 7.85222 3.498 4.34388 6.42617 3.66049 10.4591L.322998 9.90588C1.28212 4.25678 6.19278.155332 12 .155332 14.8926.155332 17.6718 1.21161 19.8235 3.08016L23.0883-.145508 24 10.2351 13.4936 9.33428 17.4215 5.45345zM6.57855 18.2556C8.09083 19.5041 10.0057 20.2111 12.0001 20.2111 16.1478 20.2111 19.6562 17.2829 20.3396 13.25L23.677 13.8032C22.7179 19.4523 17.8073 23.5538 12.0001 23.5538 9.10747 23.5538 6.3282 22.4975 4.17651 20.6289L.911762 23.8546 0 13.474 10.5064 14.3748 6.57855 18.2556z"/></g></svg>