<svg xmlns="http://www.w3.org/2000/svg" viewBox="0 0 24 24"><path fill="currentColor" fill-rule="evenodd" d="M1.79655.0457121C1.94302.01574 2.09467 0 2.25 0H21.75C21.7771 0 21.8041.000479227 21.831.00142967 22.266.0168197 22.6697.15576 23.0079.384245 23.6064.788571 24 1.4733 24 2.25V21.75C24 22.9926 22.9926 24 21.75 24H2.25C1.00728 24 0 22.9925 0 21.75V2.25C0 1.95454.0569486 1.67239.160468 1.41391.43791.721168 1.04986.198506 1.79655.0457121zM1.51524 2.09885C1.50525 2.14767 1.5 2.19822 1.5 2.25V21.75C1.5 22.1642 1.8358 22.5 2.25 22.5H21.75C22.1642 22.5 22.5 22.1642 22.5 21.75V2.25C22.5 1.8358 22.1642 1.5 21.75 1.5H2.25C2.1518 1.5 2.05801 1.51887 1.97205 1.55319 1.74076 1.64553 1.56622 1.84969 1.51524 2.09885zM5.5 4.5V19.5H8.5V4.5H5.5zM5 3C4.44772 3 4 3.44772 4 4V20C4 20.5523 4.44772 21 5 21H9C9.55228 21 10 20.5523 10 20V4C10 3.44772 9.55228 3 9 3H5z" clip-rule="evenodd"/></svg>