<svg xmlns="http://www.w3.org/2000/svg" viewBox="0 0 24 24"><path fill="currentColor" fill-rule="evenodd" d="M9 16.5C9 14.85 10.35 13.5 12 13.5 13.65 13.5 15 14.85 15 16.5 15 18.15 13.65 19.5 12 19.5 10.35 19.5 9 18.15 9 16.5zM10.5 16.5C10.5 17.4 11.1 18 12 18 12.9 18 13.5 17.4 13.5 16.5 13.5 15.6 12.9 15 12 15 11.1 15 10.5 15.6 10.5 16.5zM7.5 9H20.25C21.45 9 22.5 10.05 22.5 11.25V21.75C22.5 22.95 21.45 24 20.25 24H3.75C2.55 24 1.5 22.95 1.5 21.75V11.25C1.5 10.05 2.55 9 3.75 9H6V6C6 2.7 8.7 0 12 0 14.7 0 16.95 1.8 17.7 4.2 17.85 4.5 17.7 4.95 17.25 5.1 16.95 5.25 16.5 5.1 16.35 4.65 15.75 2.85 14.1 1.5 12 1.5 9.45 1.5 7.5 3.45 7.5 6V9zM20.25 22.5C20.7 22.5 21 22.2 21 21.75V11.25C21 10.8 20.7 10.5 20.25 10.5H3.75C3.3 10.5 3 10.8 3 11.25V21.75C3 22.2 3.3 22.5 3.75 22.5H20.25z" clip-rule="evenodd"/></svg>