<svg xmlns="http://www.w3.org/2000/svg" viewBox="0 0 24 24"><g fill="currentColor" clip-path="url(#clip0_969_6460)"><path d="M19.438 16.228C18.854 16.8214 18.854 17.7115 19.438 18.3049 20.0219 18.8984 21.0438 18.8984 21.4818 18.3049 24.8394 14.7445 24.8394 9.10714 21.4818 5.69505 20.8978 5.10165 20.0219 5.10165 19.438 5.69505 18.854 6.28846 18.854 7.17857 19.438 7.77198 21.7737 10.1456 21.7737 13.8544 19.438 16.228zM14.6.296775C15.65-.455241 17 .296775 17 1.5V22.5564C17 23.7597 15.65 24.3613 14.6 23.7597L6 17.9957 1.5 18C.6 18 0 17.447 0 16.5446V7.52043C0 6.61801.6 6.0164 1.5 6.0164L6 6 14.6.296775z"/></g></svg>