<svg xmlns="http://www.w3.org/2000/svg" viewBox="0 0 24 24"><path fill="currentColor" fill-rule="evenodd" d="M11.2498 2.99994C6.69351 2.99994 2.99994 6.69351 2.99994 11.2498 2.99994 15.806 6.69351 19.4996 11.2498 19.4996 13.513 19.4996 15.5633 18.5883 17.0538 17.1126 17.063 17.1024 17.0724 17.0924 17.0822 17.0826 17.092 17.0728 17.102 17.0633 17.1122 17.0542 18.5881 15.5636 19.4996 13.5131 19.4996 11.2498 19.4996 6.69351 15.806 2.99994 11.2498 2.99994zM18.6538 17.5935C20.1161 15.8884 20.9996 13.6722 20.9996 11.2498 20.9996 5.8651 16.6344 1.49997 11.2498 1.49997 5.8651 1.49997 1.49997 5.8651 1.49997 11.2498 1.49997 16.6344 5.8651 20.9996 11.2498 20.9996 13.672 20.9996 15.888 20.1162 17.5931 18.6541L22.7191 23.7801C23.012 24.073 23.4869 24.073 23.7798 23.7801 24.0726 23.4872 24.0726 23.0124 23.7798 22.7195L18.6538 17.5935zM5.99988 11.2498C5.99988 10.8356 6.33566 10.4998 6.74986 10.4998H15.7497C16.1639 10.4998 16.4997 10.8356 16.4997 11.2498 16.4997 11.664 16.1639 11.9998 15.7497 11.9998H6.74986C6.33566 11.9998 5.99988 11.664 5.99988 11.2498z" clip-rule="evenodd"/></svg>