<svg xmlns="http://www.w3.org/2000/svg" viewBox="0 0 24 24"><path fill="currentColor" fill-rule="evenodd" d="M9 12C9 10.35 10.35 9 12 9 13.65 9 15 10.35 15 12 15 13.65 13.65 15 12 15 10.35 15 9 13.65 9 12zM10.5 12C10.5 12.9 11.1 13.5 12 13.5 12.9 13.5 13.5 12.9 13.5 12 13.5 11.1 12.9 10.5 12 10.5 11.1 10.5 10.5 11.1 10.5 12zM19.5 9.45C19.95 9.15 20.4 9 21 9 22.65 9 24 10.35 24 12 24 13.65 22.65 15 21 15 20.4 15 19.95 14.85 19.5 14.55L14.55 19.5C14.85 19.95 15 20.4 15 21 15 22.65 13.65 24 12 24 10.35 24 9 22.65 9 21 9 20.4 9.15 19.95 9.45 19.5L4.5 14.55C4.05 14.85 3.6 15 3 15 1.35 15 0 13.65 0 12 0 10.35 1.35 9 3 9 3.6 9 4.05 9.15 4.5 9.45L9.45 4.5C9.15 4.05 9 3.6 9 3 9 1.35 10.35 0 12 0 13.65 0 15 1.35 15 3 15 3.6 14.85 4.05 14.55 4.5L19.5 9.45zM10.5 18.45C10.95 18.15 11.4 18 12 18 12.6 18 13.05 18.15 13.5 18.45L18.45 13.5C18.15 13.05 18 12.6 18 12 18 11.4 18.15 10.95 18.45 10.5L13.5 5.55C13.05 5.85 12.6 6 12 6 11.4 6 10.95 5.85 10.5 5.55L5.55 10.5C5.85 10.95 6 11.4 6 12 6 12.6 5.85 13.05 5.55 13.5L10.5 18.45zM13.5 3C13.5 2.1 12.9 1.5 12 1.5 11.1 1.5 10.5 2.1 10.5 3 10.5 3.9 11.1 4.5 12 4.5 12.9 4.5 13.5 3.9 13.5 3zM3 10.5C2.1 10.5 1.5 11.1 1.5 12 1.5 12.9 2.1 13.5 3 13.5 3.9 13.5 4.5 12.9 4.5 12 4.5 11.1 3.9 10.5 3 10.5zM10.5 21C10.5 21.9 11.1 22.5 12 22.5 12.9 22.5 13.5 21.9 13.5 21 13.5 20.1 12.9 19.5 12 19.5 11.1 19.5 10.5 20.1 10.5 21zM19.5 12C19.5 12.9 20.1 13.5 21 13.5 21.9 13.5 22.5 12.9 22.5 12 22.5 11.1 21.9 10.5 21 10.5 20.1 10.5 19.5 11.1 19.5 12z" clip-rule="evenodd"/></svg>