<svg xmlns="http://www.w3.org/2000/svg" viewBox="0 0 24 24"><path fill="currentColor" d="M1.5 1.5C.671573 1.5 0 2.17157 0 3 0 3.82843.671573 4.5 1.5 4.5H22.5C23.3284 4.5 24 3.82843 24 3 24 2.17157 23.3284 1.5 22.5 1.5H1.5zM1.5 7.5C.671573 7.5 0 8.17157 0 9 0 9.82843.671573 10.5 1.5 10.5H13.5C14.3284 10.5 15 9.82843 15 9 15 8.17157 14.3284 7.5 13.5 7.5H1.5zM0 15C0 14.1716.671573 13.5 1.5 13.5H22.5C23.3284 13.5 24 14.1716 24 15 24 15.8284 23.3284 16.5 22.5 16.5H1.5C.671573 16.5 0 15.8284 0 15zM1.5 19.5C.671573 19.5 0 20.1716 0 21 0 21.8284.671573 22.5 1.5 22.5H13.5C14.3284 22.5 15 21.8284 15 21 15 20.1716 14.3284 19.5 13.5 19.5H1.5z"/></svg>