<svg xmlns="http://www.w3.org/2000/svg" fill="none" viewBox="0 0 24 24"><g clip-path="url(#clip0_971_5632)"><path fill="#C9EBEC" d="M15.8329 11.5739V8.86829L14.8308 9.41943 15.8329 11.624V11.5739zM18.3382 9.72006L22.4969 5.5614 15.833 8.86829 18.3382 9.72006zM15.833 12.1252L14.9812 14.43 16.8852 12.5261 18.0877 14.8309H24L15.833 12.1252z"/><path fill="#00868C" d="M15.833 8.86829V11.5739H24L18.3382 9.72006L15.833 8.86829Z"/><path fill="#00B3BB" d="M15.833 11.574V11.6241V12.1251L24 14.8308V11.574H15.833Z"/><path fill="#C9EBEC" d="M12.3757 15.833H15.0814L14.2797 18.2881L18.4384 22.4968L14.5803 14.7808L12.3757 15.833Z"/><path fill="#00868C" d="M14.9812 14.4301L20.7432 20.1921L18.0877 14.8309L16.8852 12.5261L14.9812 14.4301Z"/><path fill="#00B3BB" d="M14.9812 14.4303L14.5803 14.781L18.4384 22.4971L20.7432 20.1923L14.9812 14.4303Z"/><path fill="#C9EBEC" d="M9.56984 14.9813L11.4738 16.8853L9.1189 18.0377V23.95L11.8245 15.8331L9.56984 14.9813Z"/><path fill="#00868C" d="M12.3757 15.833V23.9499L14.2797 18.2881L15.0814 15.833H12.3757Z"/><path fill="#00B3BB" d="M12.3757 15.833H11.8245L9.1189 23.9499H12.3757V15.833Z"/><path fill="#C9EBEC" d="M5.66184 14.2797L1.50317 18.4383 8.16706 15.0813 5.66184 14.2797zM8.16699 12.3757V15.0814L9.16908 14.5803 8.16699 12.3757z"/><path fill="#00868C" d="M9.56987 14.9813L3.80786 20.7433L9.11893 18.0377L11.4738 16.8853L9.56987 14.9813Z"/><path fill="#00B3BB" d="M9.56998 14.9813L9.16914 14.5804L8.16706 15.0815L1.50317 18.4385L3.80798 20.7433L9.56998 14.9813Z"/><path fill="#C9EBEC" d="M9.01879 9.56971L7.11482 11.4737L5.91232 9.11877H0L8.16701 11.8244L9.01879 9.56971Z"/><path fill="#00868C" d="M8.16701 15.0814V12.3757H0L5.6618 14.2797L8.16701 15.0814Z"/><path fill="#00B3BB" d="M8.16701 12.3756V11.8244L0 9.11877V12.3756H8.16701Z"/><path fill="#C9EBEC" d="M11.574 8.16693H8.91852L9.72019 5.66172L5.56152 1.50305L9.41956 9.16902L11.574 8.16693Z"/><path fill="#00868C" d="M9.01884 9.56987L3.25684 3.80786L5.91237 9.11893L7.11487 11.4738L9.01884 9.56987Z"/><path fill="#00B3BB" d="M9.01884 9.56986L9.41967 9.16902L5.56164 1.50305L3.25684 3.80785L9.01884 9.56986Z"/><path fill="#C9EBEC" d="M14.43 9.01879L12.526 7.11482L14.8809 5.91232V0L12.1753 8.16701L14.43 9.01879Z"/><path fill="#00868C" d="M11.5742 8.16701H11.6243V0L9.72037 5.6618L8.9187 8.16701H11.5742Z"/><path fill="#00B3BB" d="M11.6243 8.16701H12.1754L14.8811 0H11.6243V8.16701Z"/><path fill="#00868C" d="M14.4301 9.01896L20.1921 3.25696L14.881 5.91249L12.5261 7.115L14.4301 9.01896Z"/><path fill="#00B3BB" d="M14.4302 9.01896L14.831 9.4198L15.8331 8.86865L22.497 5.56176L20.1922 3.25696L14.4302 9.01896Z"/></g></svg>