<svg xmlns="http://www.w3.org/2000/svg" viewBox="0 0 24 24"><g fill="currentColor" fill-rule="evenodd" clip-path="url(#clip0_959_18426)" clip-rule="evenodd"><path d="M9 9V15H15V9H9zM7 6C6.44772 6 6 6.44772 6 7V17C6 17.5523 6.44772 18 7 18H17C17.5523 18 18 17.5523 18 17V7C18 6.44772 17.5523 6 17 6H7zM0 1.6C0 .716346.716342 0 1.6 0H9.5V3H3V9.5H0V1.6zM24 1.6C24 .716346 23.2837 0 22.4 0H14.5V3H21V9.5H24V1.6zM0 22.4C0 23.2837.716342 24 1.6 24H9.5V21H3V14.5H0V22.4zM24 22.4C24 23.2837 23.2837 24 22.4 24H14.5V21H21V14.5H24V22.4z"/></g></svg>