<svg xmlns="http://www.w3.org/2000/svg" fill="none" viewBox="0 0 37 24"><path fill="#F5F5F5" d="M35.4699 23.9713H0.620301C0.274906 23.9713 0 23.6856 0 23.3427V0.642732C0 0.292732 0.281955 0.0141602 0.620301 0.0141602H35.4629C35.8083 0.0141602 36.0832 0.299874 36.0832 0.642732V23.3427C36.0902 23.6927 35.8083 23.9713 35.4699 23.9713Z"/><path fill="#D57800" d="M9.44558 9.77129C9.44558 9.77129 10.1364 10.8284 10.7426 10.5499C11.3488 10.2713 11.6237 9.32843 12.2087 9.07843C12.7938 8.82843 13.9639 9.72129 14.5419 9.44272C15.1199 9.16415 14.986 6.907 14.986 6.907C14.986 6.907 17.9395 7.99272 20.4841 7.48557C23.0288 6.97843 29.0626 4.07129 29.0626 4.07129L28.971 4.557C28.971 4.557 23.5927 7.62129 23.3742 8.557C23.1556 9.49272 24.9249 11.3213 24.9249 11.3213C24.9249 11.3213 22.0631 10.8713 21.5062 11.2499C20.9493 11.6284 21.2383 12.4356 20.7943 12.7927C20.3502 13.1427 18.8558 13.8641 18.165 13.907C17.4813 13.9499 16.5367 13.6499 15.994 14.2713C15.4442 14.8927 15.9517 15.2713 15.9517 15.2713L15.127 15.207C15.127 15.207 15.2186 14.6356 14.7111 14.3356C14.1965 14.0356 13.548 14.5141 12.9912 14.4499C12.4343 14.3856 10.6721 13.7141 10.0236 12.207C9.38214 10.6999 9.44558 9.77129 9.44558 9.77129Z"/><path fill="#4E5B31" d="M18.052 20.8427C18.045 20.8427 18.0379 20.8427 18.0379 20.8427C16.2546 20.8355 14.3937 19.5713 12.4905 17.8927C11.1159 16.6713 10.2419 15.4641 10.1996 15.4141C9.98108 15.1141 10.0516 14.6927 10.3476 14.4784C10.6437 14.257 11.0596 14.3284 11.271 14.6284C11.3063 14.6713 14.5276 18.6855 18.0379 18.6927C18.045 18.6927 18.045 18.6927 18.052 18.6927C19.053 18.6927 20.6672 18.7141 22.7184 16.8927C23.9872 15.7641 24.8049 14.6355 24.8119 14.6284C25.0304 14.3284 25.4393 14.2641 25.7353 14.4784C26.0314 14.6998 26.0948 15.1141 25.8833 15.4141C25.7424 15.6213 22.232 20.8427 18.052 20.8427Z"/></svg>