<svg xmlns="http://www.w3.org/2000/svg" fill="none" viewBox="0 0 37 24"><path fill="#FF4B55" d="M35.4699 23.9786H0.620301C0.274906 23.9786 0 23.6929 0 23.3501V0.650056C0 0.300056 0.281955 0.0214844 0.620301 0.0214844H35.4629C35.8083 0.0214844 36.0832 0.307199 36.0832 0.650056V23.3501C36.0902 23.7001 35.8083 23.9786 35.4699 23.9786Z"/><path fill="#FFE15A" d="M32.3543 3.7998V20.1927H3.73584V3.7998H32.3543Z"/><path fill="#73AF00" d="M3.73584 3.7998L18.0451 11.9998 3.73584 20.1998V3.7998zM32.3544 3.7998L18.0451 11.9998 32.3544 20.1998V3.7998z"/><path fill="#FF4B55" d="M18.0451 14.5214C19.4194 14.5214 20.5334 13.3925 20.5334 11.9999C20.5334 10.6074 19.4194 9.47852 18.0451 9.47852C16.6709 9.47852 15.5569 10.6074 15.5569 11.9999C15.5569 13.3925 16.6709 14.5214 18.0451 14.5214Z"/><path fill="#FFE15A" d="M18.2005 10.1501L18.5882 11.3358 19.8217 11.343C19.9838 11.343 20.0473 11.5501 19.9204 11.643L18.9335 12.3858 19.3071 13.5715C19.3565 13.7287 19.1803 13.8501 19.0534 13.7572L18.0454 13.0358 17.0444 13.7644C16.9176 13.8572 16.7413 13.7287 16.7907 13.5787L17.1643 12.393 16.1774 11.6501C16.0506 11.5572 16.114 11.3501 16.2761 11.3501L17.5097 11.343 17.8974 10.1572C17.9397 10.0001 18.1511 10.0001 18.2005 10.1501zM18.1368.857241L18.3694 1.55724 19.0954 1.56438C19.1871 1.56438 19.2293 1.68581 19.1518 1.74295L18.5668 2.17867 18.7853 2.87867C18.8135 2.97153 18.7148 3.04295 18.6372 2.98581L18.0451 2.55724 17.453 2.98581C17.3755 3.04295 17.2768 2.96438 17.305 2.87867L17.5235 2.17867 16.9385 1.74295C16.8609 1.68581 16.9032 1.56438 16.9949 1.56438L17.7209 1.55724 17.9535.857241C17.9817.764383 18.1086.764383 18.1368.857241zM26.3278.857241L26.5604 1.55724 27.2865 1.56438C27.3781 1.56438 27.4204 1.68581 27.3428 1.74295L26.7578 2.17867 26.9763 2.87867C27.0045 2.97153 26.9058 3.04295 26.8283 2.98581L26.2362 2.55724 25.6441 2.98581C25.5665 3.04295 25.4678 2.96438 25.496 2.87867L25.7146 2.17867 25.1295 1.74295C25.052 1.68581 25.0943 1.56438 25.1859 1.56438L25.9119 1.55724 26.1445.857241C26.1657.764383 26.2926.764383 26.3278.857241zM9.95314.857241L10.1858 1.55724 10.9118 1.56438C11.0034 1.56438 11.0457 1.68581 10.9682 1.74295L10.3831 2.17867 10.6016 2.87867C10.6298 2.97153 10.5311 3.04295 10.4536 2.98581L9.8615 2.55724 9.2694 2.98581C9.19186 3.04295 9.09318 2.96438 9.12137 2.87867L9.33989 2.17867 8.75483 1.74295C8.67729 1.68581 8.71959 1.56438 8.81122 1.56438L9.53726 1.55724 9.76987.857241C9.79806.764383 9.92494.764383 9.95314.857241zM18.1368 21.0001L18.3694 21.7001 19.0954 21.7072C19.1871 21.7072 19.2293 21.8287 19.1518 21.8858L18.5668 22.3215 18.7853 23.0215C18.8135 23.1144 18.7148 23.1858 18.6372 23.1287L18.0451 22.7001 17.453 23.1287C17.3755 23.1858 17.2768 23.1072 17.305 23.0215L17.5235 22.3215 16.9385 21.8858C16.8609 21.8287 16.9032 21.7072 16.9949 21.7072L17.7209 21.7001 17.9535 21.0001C17.9817 20.9072 18.1086 20.9072 18.1368 21.0001zM26.3278 21.0001L26.5604 21.7001 27.2865 21.7072C27.3781 21.7072 27.4204 21.8287 27.3428 21.8858L26.7578 22.3215 26.9763 23.0215C27.0045 23.1144 26.9058 23.1858 26.8283 23.1287L26.2362 22.7001 25.6441 23.1287C25.5665 23.1858 25.4678 23.1072 25.496 23.0215L25.7146 22.3215 25.1295 21.8858C25.052 21.8287 25.0943 21.7072 25.1859 21.7072L25.9119 21.7001 26.1445 21.0001C26.1657 20.9072 26.2926 20.9072 26.3278 21.0001zM9.95314 21.0001L10.1858 21.7001 10.9118 21.7072C11.0034 21.7072 11.0457 21.8287 10.9682 21.8858L10.3831 22.3215 10.6016 23.0215C10.6298 23.1144 10.5311 23.1858 10.4536 23.1287L9.8615 22.7001 9.2694 23.1287C9.19186 23.1858 9.09318 23.1072 9.12137 23.0215L9.33989 22.3215 8.75483 21.8858C8.67729 21.8287 8.71959 21.7072 8.81122 21.7072L9.53726 21.7001 9.76987 21.0001C9.79806 20.9072 9.92494 20.9072 9.95314 21.0001zM8.32489 10.4215H6.76709V12.0001C6.76709 12.8715 7.46493 13.5787 8.32489 13.5787 9.18485 13.5787 9.88269 12.8715 9.88269 12.0001 9.88269 11.1287 9.18485 10.4215 8.32489 10.4215z"/></svg>