<svg xmlns="http://www.w3.org/2000/svg" fill="none" viewBox="0 0 37 24"><path fill="#FFE15A" d="M36.0902 8.0072H0V0.650056C0 0.300056 0.281955 0.0214844 0.620301 0.0214844H35.4629C35.8083 0.0214844 36.0832 0.307199 36.0832 0.650056L36.0902 8.0072Z"/><path fill="#FF4B55" d="M35.4699 23.9784H0.620301C0.274906 23.9784 0 23.6927 0 23.3498V15.9927H36.0902V23.3498C36.0902 23.6998 35.8083 23.9784 35.4699 23.9784Z"/><path fill="#41479B" d="M0 8.007H36.09V15.992999999999999H0z"/><path fill="#fff" fill-rule="evenodd" d="M14.652 15.3109C14.6515 15.3145 14.651 15.3182 14.6504 15.3219C14.6504 15.3219 14.6505 15.3217 14.6508 15.3197L14.6514 15.3153L14.6518 15.3125L14.652 15.3109ZM21.4371 15.3678C21.6902 16.5683 22.8658 17.3404 24.0693 17.0937C25.277 16.8462 26.0553 15.6666 25.8078 14.4589L23.6212 14.907C25.8078 14.4589 25.8075 14.4571 25.8075 14.4571L25.8062 14.4508L25.804 14.4407L25.7984 14.4144C25.794 14.3942 25.7883 14.3688 25.7812 14.3385C25.767 14.278 25.7473 14.1976 25.7214 14.1003C25.6696 13.906 25.5922 13.6411 25.4833 13.3287C25.2681 12.7112 24.9165 11.8692 24.37 11.0095C23.2722 9.28254 21.2224 7.2749 17.8622 7.2749C14.4504 7.2749 12.472 9.36602 11.4626 11.1579C10.9636 12.0436 10.6625 12.9079 10.4855 13.5377C10.3958 13.857 10.3348 14.1273 10.2951 14.3253C10.2752 14.4246 10.2605 14.5065 10.2502 14.5682C10.245 14.599 10.2409 14.6249 10.2377 14.6454L10.2337 14.6721L10.2322 14.6825L10.2316 14.6868L10.2313 14.6888C10.2313 14.6888 10.231 14.6907 12.4416 14.9999L10.231 14.6907C10.0603 15.9116 10.9115 17.0397 12.1324 17.2105C13.3491 17.3807 14.4736 16.5359 14.6504 15.3219L14.6527 15.3083C14.6558 15.2895 14.6622 15.2533 14.6724 15.2024C14.6929 15.1 14.7283 14.9413 14.7833 14.7456C14.8957 14.3455 15.0775 13.8366 15.3521 13.3491C15.8899 12.3945 16.6218 11.7392 17.8622 11.7392C19.1543 11.7392 19.984 12.4316 20.6025 13.4045C20.9142 13.8948 21.1301 14.4029 21.2678 14.7979C21.3353 14.9917 21.3807 15.1487 21.4076 15.2498C21.421 15.3001 21.4297 15.3357 21.434 15.3543L21.4371 15.3678Z" clip-rule="evenodd"/></svg>