<svg xmlns="http://www.w3.org/2000/svg" fill="none" viewBox="0 0 36 24"><path fill="#73AF00" d="M35.3876 0H0.61886C0.274268 0 0 0.286221 0 0.629687V23.37C0 23.7206 0.2813 23.9997 0.61886 23.9997H35.3805C35.7251 23.9997 35.9994 23.7135 35.9994 23.37V0.629687C36.0064 0.279066 35.7251 0 35.3876 0Z"/><path fill="#FF4B55" d="M22.964 8H27.308999999999997V24H22.964z"/><path fill="#464655" d="M27.309 8H31.654V24H27.309z"/><path fill="#FF9B55" d="M34.945 2.92132C34.9591 2.89275 34.952 2.85704 34.9309 2.84275 34.9099 2.82133 34.8747 2.82133 34.8466 2.83561 34.72 2.92132 34.5935 2.99989 34.4669 3.06418 34.8677 2.72847 34.9309 2.42847 34.9309 2.40705 34.938 2.37847 34.9239 2.3499 34.9028 2.33562 34.8817 2.32133 34.8536 2.32133 34.8255 2.33562 34.3895 2.63561 33.9536 2.8499 33.5739 2.99989 34.0802 2.67847 34.277 2.34276 34.2911 2.32133 34.3052 2.29276 34.3052 2.25705 34.2841 2.23562 34.263 2.21419 34.2278 2.20705 34.1997 2.22848 33.7989 2.47847 33.3208 2.67133 32.8638 2.82133 32.9271 2.72847 32.9693 2.62133 32.9271 2.55704 32.8919 2.4999 32.8286 2.4999 32.7302 2.55704 32.5404 2.67133 31.099 3.04275 30.5365 3.18561 29.9669 3.07847 29.4959 3.22846 29.3482 3.28561 29.306 3.23561 29.292 3.19275 29.2849 3.15704 29.2709 3.09989 29.2849 3.04275 29.306 2.99989 29.3482 2.93561 29.4396 2.92847 29.524 2.92132 29.5591 2.92132 29.5873 2.91418 29.6154 2.90704 29.6295 2.91418 29.6576 2.92132 29.6576 2.92847 29.6576 2.95704 29.6787 2.98561 29.7068 2.99989 29.7349 3.00704 29.7701 2.99989 29.7841 2.97132 29.7912 2.96418 29.8826 2.80704 29.8123 2.67133 29.756 2.57133 29.6365 2.52133 29.4466 2.52133 29.3693 2.46419 29.074 2.28562 28.7154 2.42847 28.3498 2.57133 28.1881 2.9499 28.1318 3.11418 27.8506 3.07132 26.5428 2.87133 25.8326 2.4499 25.7975 2.43562 25.6779 2.38562 25.6147 2.4499 25.5725 2.48562 25.5725 2.5499 25.6006 2.62847 25.6147 2.67133 25.6428 2.71418 25.6779 2.75704 25.2983 2.57847 24.785 2.33562 24.3983 2.11419 24.335 2.08562 24.2295 2.04991 24.1733 2.10705 24.1381 2.14276 24.1381 2.19991 24.1733 2.27133 24.1803 2.28562 24.1873 2.2999 24.1944 2.32133 24.2295 2.40705 24.2858 2.51419 24.4123 2.64276 24.3209 2.59276 24.2366 2.53562 24.1662 2.48562 23.8287 2.21419 23.7795 2.19276 23.7162 2.23562 23.667 2.27133 23.6811 2.33562 23.7022 2.39276L23.7092 2.40705C23.7233 2.45705 23.7514 2.5499 23.8147 2.6499 23.7655 2.61419 23.7162 2.60704 23.6811 2.62847 23.66 2.64276 23.6248 2.67847 23.653 2.76418 23.7092 2.95704 26.4795 5.17129 28.6943 5.18558 28.7013 5.407 28.2935 6.02128 28.2654 6.40699 28.2654 6.43556 28.2795 6.46413 28.3076 6.47128 28.3357 6.48556 28.3638 6.47842 28.3849 6.45699 28.3849 6.45699 28.624 6.58556 28.7154 6.67842 28.7365 6.69984 28.7646 6.70699 28.7857 6.6927 28.8138 6.68556 29.067 6.64984 29.1795 6.72127 29.1865 6.72841 29.2006 6.72841 29.2146 6.72841 29.2287 6.72841 29.2427 6.72127 29.2568 6.71413 29.2779 6.6927 29.2849 6.66413 29.2779 6.63556L29.2427 6.53556C29.2638 6.51413 29.299 6.47842 29.3271 6.43556 29.3412 6.45699 29.6435 6.61413 29.6505 6.62127 29.6646 6.63556 29.6787 6.6427 29.6998 6.6427 29.7068 6.6427 29.7138 6.6427 29.7138 6.6427 29.7349 6.63556 29.756 6.62127 29.763 6.5927L29.7982 6.44985C29.8966 6.39985 30.0302 6.32842 30.0935 6.42128 30.1076 6.4427 30.1287 6.44985 30.1498 6.44985 30.1709 6.44985 30.1919 6.43556 30.206 6.42128 30.206 6.42128 30.2552 6.34271 30.2834 6.29271 30.3888 6.09271 30.2271 5.97128 30.1498 5.91414 30.1287 5.89985 30.1005 5.87843 30.1005 5.87843 30.0865 5.84271 30.0935 5.807 30.1005 5.77843 30.1638 5.82128 30.2412 5.86414 30.3255 5.88557 30.3326 5.88557 30.3326 5.88557 30.3396 5.88557 30.3607 5.88557 30.3818 5.87843 30.3958 5.857 30.4099 5.83557 34.7059 3.59274 34.6567 3.47132 34.6427 3.4356 34.6005 3.40703 34.5442 3.42846 34.5302 3.4356 34.502 3.44989 34.4599 3.46417 34.7974 3.19989 34.9309 2.94275 34.945 2.92132zM31.6548 7.99989H36.0001V23.4997C36.0001 23.7758 35.7762 23.9997 35.5001 23.9997H31.6548V7.99989z"/></svg>