<svg xmlns="http://www.w3.org/2000/svg" fill="none" viewBox="0 0 36 24"><path fill="#FF4B55" d="M35.9831 11.9645H0V0.648191C0 0.299229 0.281118 0.0214844 0.61846 0.0214844H35.3576C35.702 0.0214844 35.9761 0.306351 35.9761 0.648191L35.9831 11.9645Z"/><path fill="#73AF00" d="M0 11.9644H35.9831V23.2807C35.9831 23.6296 35.702 23.9074 35.3647 23.9074H0.61846C0.27409 23.9074 0 23.6225 0 23.2807V11.9644Z"/><path fill="#FFE15A" d="M18.1813 8.53866L18.9614 10.9102L21.4282 10.9315C21.618 10.9315 21.6953 11.1808 21.5477 11.2947L19.5658 12.7832L20.3108 15.1689C20.367 15.3541 20.1632 15.5036 20.0086 15.3968L17.9915 13.9298L15.9816 15.3826C15.8269 15.4965 15.6161 15.3398 15.6793 15.1547L16.4243 12.7689L14.4424 11.2805C14.2878 11.1665 14.3651 10.9173 14.5619 10.9173L17.0287 10.8959L17.8088 8.52441C17.865 8.35349 18.118 8.35349 18.1813 8.53866Z"/></svg>