<svg xmlns="http://www.w3.org/2000/svg" fill="none" viewBox="0 0 37 24"><path fill="#FF4B55" d="M24.0571 0.0214844H35.4622C35.8076 0.0214844 36.0825 0.307199 36.0825 0.650056V23.3501C36.0825 23.7001 35.8005 23.9786 35.4622 23.9786H24.0571V0.0214844Z"/><path fill="#FFE15A" d="M12.033 0.021H24.064999999999998V23.985H12.033z"/><path fill="#41479B" d="M0.620301 0.0214844H12.0254V23.9786H0.620301C0.274906 23.9786 0 23.6929 0 23.3501V0.650056C0 0.300056 0.281955 0.0214844 0.620301 0.0214844Z"/><path fill="#FFAA5A" d="M22.9364 12.1999C22.9294 12.1641 22.9012 12.1284 22.8659 12.107L22.6544 11.9784L22.5276 11.8999L22.443 11.8499C22.4218 11.8356 22.3936 11.8284 22.3654 11.8284C22.3161 11.8284 22.2668 11.857 22.2386 11.8999L21.7451 12.7213V8.67129C21.7451 8.24986 21.4068 7.91415 20.998 7.91415C20.5891 7.91415 20.2508 8.257 20.2508 8.67129V8.92843C20.2367 8.92843 20.2155 8.92843 20.2014 8.92843C19.7292 8.92843 19.3344 9.27843 19.2639 9.73557H19.1371C19.0877 9.33557 18.9538 8.14986 18.9538 7.66415C18.9538 6.957 18.4604 6.69986 18.0022 6.69986C17.6638 6.69986 17.4453 6.82843 17.3466 6.89986H17.3396C17.3466 6.88557 17.3466 6.86415 17.3466 6.84986V6.64986C17.3466 6.56415 17.2762 6.49986 17.1986 6.49986H17.1493V6.44986C17.1845 6.38557 17.114 6.32129 17.0294 6.32129H16.8321C16.7475 6.32129 16.6841 6.39272 16.6841 6.47129V6.52129H16.6347C16.5501 6.52129 16.4867 6.59272 16.4867 6.67129V6.87129C16.4867 6.957 16.5572 7.02129 16.6347 7.02129H16.6841V7.87843C16.6841 7.96415 16.7545 8.02843 16.8321 8.02843H17.0294C17.114 8.02843 17.1775 7.957 17.1775 7.87843V7.72843L17.3396 7.84986L17.4665 7.94272L17.107 9.74986H16.7686C16.6982 9.29272 16.3034 8.94272 15.8311 8.94272C15.817 8.94272 15.7959 8.94272 15.7818 8.94272V8.68557C15.7818 8.26415 15.4435 7.92843 15.0346 7.92843C14.6258 7.92843 14.2874 8.27129 14.2874 8.68557V12.057C14.2099 11.9713 14.1183 11.8999 14.0055 11.8499C13.9984 11.8499 13.9914 11.8427 13.9843 11.8427C13.9068 11.8141 13.8152 11.7927 13.7235 11.7927C13.3147 11.7927 12.9834 12.1284 12.9834 12.5427C12.9834 12.957 13.3147 13.2927 13.7235 13.2927C13.7588 13.2927 13.794 13.2927 13.8293 13.2856C13.8504 13.2999 13.8645 13.3141 13.8857 13.3213C13.794 13.4427 13.7447 13.5927 13.7447 13.757C13.7447 14.0927 13.9632 14.3784 14.2663 14.4713V16.7641C14.2663 16.8284 14.3015 16.8784 14.3579 16.907C14.3791 16.9141 14.3932 16.9213 14.4143 16.9213C14.4566 16.9213 14.4919 16.907 14.5201 16.8784C14.5412 16.857 15.0135 16.3784 15.1333 15.8141C15.1826 15.7499 15.8241 16.6784 15.8241 16.6784C15.8523 16.707 17.9247 18.107 17.9247 18.107C17.9529 18.1284 17.981 18.1356 18.0092 18.1356C18.0374 18.1356 18.0727 18.1284 18.0938 18.107C18.0938 18.107 20.3495 16.6999 20.3847 16.6641C20.3847 16.6641 20.9134 15.9784 20.9204 15.9499C21.0825 16.4427 21.4702 16.8427 21.4914 16.8641C21.5196 16.8927 21.5619 16.907 21.5971 16.907C21.6183 16.907 21.6324 16.8999 21.6535 16.8927C21.7099 16.8713 21.7451 16.8141 21.7451 16.7499V14.0713L22.161 13.3713C22.1681 13.3713 22.1822 13.3713 22.1892 13.3713C22.2386 13.3713 22.2879 13.3427 22.3161 13.2999L22.9153 12.2999C22.9435 12.2784 22.9505 12.2356 22.9364 12.1999Z"/><path fill="#FF4B55" d="M15.8313 9.91406C15.8313 9.91406 15.8313 12.7998 15.8313 13.7569C15.8313 14.7712 17.2763 14.6355 18.0305 15.3784C18.7777 14.6355 20.2298 14.7712 20.2298 13.7569C20.2298 12.7926 20.2298 9.91406 20.2298 9.91406H15.8313Z"/><path fill="#41479B" d="M15.8313 12.1357C15.8313 12.7786 15.8313 13.4 15.8313 13.7572C15.8313 14.7715 17.2763 14.6357 18.0305 15.3786C18.7777 14.6357 20.2298 14.7715 20.2298 13.7572C20.2298 13.4 20.2298 12.7786 20.2298 12.1357H15.8313Z"/><path fill="#FFE15A" d="M18.4317 12.7428C18.4317 12.7428 19.6229 11.7214 19.6229 11.1285 19.6229 10.3143 18.8264 10.1143 18.8264 10.1143 18.8264 10.1143 19.5736 11.2428 18.5515 11.6857L18.4317 11.5285H17.6281L17.5083 11.6857C16.4862 11.2357 17.2334 10.1143 17.2334 10.1143 17.2334 10.1143 16.4369 10.3143 16.4369 11.1285 16.4369 11.7143 17.6281 12.7428 17.6281 12.7428V13.9571L17.4307 14.3643 18.0299 14.7714 18.6291 14.3643 18.4317 13.9571V12.7428zM19.3348 13.4857C19.3771 13.2571 19.5674 13.0928 19.7859 13.0714 19.7436 13.05 19.6943 13.0286 19.6379 13.0143 19.3559 12.9571 19.0881 13.1428 19.0317 13.4286 18.9753 13.7143 19.1586 13.9857 19.4405 14.0428 19.4899 14.05 19.5463 14.05 19.5956 14.05 19.4053 13.9357 19.2925 13.7143 19.3348 13.4857zM18.0444 11.1786C18.2897 11.1786 18.4885 10.9771 18.4885 10.7286 18.4885 10.48 18.2897 10.2786 18.0444 10.2786 17.7992 10.2786 17.6003 10.48 17.6003 10.7286 17.6003 10.9771 17.7992 11.1786 18.0444 11.1786zM16.7477 13.9428C16.993 13.9428 17.1918 13.7413 17.1918 13.4928 17.1918 13.2443 16.993 13.0428 16.7477 13.0428 16.5024 13.0428 16.3036 13.2443 16.3036 13.4928 16.3036 13.7413 16.5024 13.9428 16.7477 13.9428zM16.6425 16.6358L16.283 16.0644 17.3262 15.2501 16.6425 16.6358zM15.9231 15.4787L15.8596 14.3144 16.4024 14.7216 15.9231 15.4787zM19.4624 16.6358L19.829 16.0644 18.7787 15.2501 19.4624 16.6358zM20.1817 15.4787L20.2451 14.3144 19.7024 14.7216 20.1817 15.4787z"/><path fill="#73AF00" d="M16.5079 16.7145L15.6127 15.3073C15.7043 15.2073 15.7678 15.0788 15.7678 14.9288C15.7678 14.6288 15.5281 14.3859 15.232 14.3859C15.1686 14.3859 15.1052 14.4002 15.0488 14.4216L14.8866 14.1716C14.9994 14.0716 15.0699 13.9288 15.0699 13.7645C15.0699 13.4645 14.8303 13.2216 14.5342 13.2216C14.4567 13.2216 14.3791 13.243 14.3086 13.2716L14.0831 12.9216C14.1747 12.8216 14.2311 12.693 14.2311 12.5502C14.2311 12.2502 13.9914 12.0073 13.6954 12.0073C13.3993 12.0073 13.1597 12.2502 13.1597 12.5502C13.1597 12.8502 13.3993 13.093 13.6954 13.093C13.78 13.093 13.8505 13.0716 13.9209 13.043L14.1465 13.393C14.0549 13.493 13.9985 13.6216 13.9985 13.7716C13.9985 14.0716 14.2381 14.3145 14.5342 14.3145C14.5976 14.3145 14.6611 14.3002 14.7175 14.2788L14.8796 14.5288C14.7668 14.6288 14.6963 14.7716 14.6963 14.9359C14.6963 15.2359 14.936 15.4788 15.232 15.4788C15.3096 15.4788 15.3871 15.4645 15.4506 15.4288L16.3458 16.8287L16.5079 16.7145Z"/><path fill="#FF4B55" d="M15.5641 15.5999C15.6731 15.5999 15.7614 15.5103 15.7614 15.3999 15.7614 15.2894 15.6731 15.1999 15.5641 15.1999 15.455 15.1999 15.3667 15.2894 15.3667 15.3999 15.3667 15.5103 15.455 15.5999 15.5641 15.5999zM14.8032 14.4142C14.9122 14.4142 15.0006 14.3246 15.0006 14.2142 15.0006 14.1037 14.9122 14.0142 14.8032 14.0142 14.6942 14.0142 14.6058 14.1037 14.6058 14.2142 14.6058 14.3246 14.6942 14.4142 14.8032 14.4142zM14.0409 13.2213C14.1499 13.2213 14.2382 13.1317 14.2382 13.0213 14.2382 12.9108 14.1499 12.8213 14.0409 12.8213 13.9319 12.8213 13.8435 12.9108 13.8435 13.0213 13.8435 13.1317 13.9319 13.2213 14.0409 13.2213z"/></svg>