<svg xmlns="http://www.w3.org/2000/svg" fill="none" viewBox="0 0 37 24"><path fill="#C8414B" d="M0.620301 23.9786H35.4629C35.8083 23.9786 36.0832 23.6929 36.0832 23.3501V0.650056C36.0832 0.300056 35.8012 0.0214844 35.4629 0.0214844H0.620301C0.274906 0.0214844 0 0.307199 0 0.650056V23.3501C0 23.7001 0.281955 23.9786 0.620301 23.9786Z"/><path fill="#FFD250" d="M0 5.064H36.09V18.935000000000002H0z"/><path fill="#FFA0D2" d="M12.1308 12.6284C11.7854 12.6284 11.5105 12.3427 11.5105 11.9998V11.3712C11.5105 11.0212 11.7925 10.7427 12.1308 10.7427C12.4762 10.7427 12.7511 11.0284 12.7511 11.3712V11.9998C12.7581 12.3498 12.4762 12.6284 12.1308 12.6284Z"/><path fill="#C8414B" d="M10.5804 13.2645V10.1145H8.09216C7.75382 10.1145 7.47186 10.3931 7.47186 10.7431V12.0002H4.97656V12.6288H7.47186V13.2645H8.09216V16.0859C8.26839 16.2288 8.47985 16.3359 8.71246 16.3788V13.2645H9.33276V16.3859C9.56538 16.3359 9.77684 16.2288 9.95307 16.0931V13.2645H10.5734V14.8431C10.5734 15.7145 11.2712 16.4217 12.1312 16.4217 12.9911 16.4217 13.689 15.7145 13.689 14.8431V13.2645H10.5804zM4.97656 14.5217L6.84451 13.8931V13.2645L4.97656 13.8931V14.5217zM14.838 10.1074H15.6628L15.7755 9.59307C15.8249 9.37164 15.6557 9.1645 15.4372 9.1645H15.0636C14.838 9.1645 14.6759 9.37164 14.7253 9.59307L14.838 10.1074zM14.972 10.7359L15.2469 12.0002 15.5219 10.7359H14.972zM13.0684 12.0002H16.177V12.6288H13.0684V12.0002zM8.71208 9.47879L8.09178 8.85022 8.45832 8.47879C9.02223 7.90737 9.78351 7.58594 10.58 7.58594 11.3766 7.58594 12.1378 7.90737 12.7017 8.47879L13.0683 8.85022 12.448 9.47879H8.71208z"/><path fill="#5064AA" d="M4.6665 16.4141H7.15476V17.0426H4.6665V16.4141zM13.9988 16.4141H16.4871V17.0426H13.9988V16.4141zM10.5804 14.207C11.0942 14.207 11.5108 13.7849 11.5108 13.2641 11.5108 12.7434 11.0942 12.3213 10.5804 12.3213 10.0665 12.3213 9.6499 12.7434 9.6499 13.2641 9.6499 13.7849 10.0665 14.207 10.5804 14.207z"/><path fill="#FAB446" fill-rule="evenodd" d="M11.2004 13.8931H13.0684L13.0613 14.8359C13.0613 15.3574 12.6455 15.7788 12.1309 15.7788C11.6163 15.7788 11.2004 15.3574 11.2004 14.8359V13.8931ZM12.4484 14.8359V14.5216H11.8281V14.8359C11.8281 15.0074 11.969 15.1502 12.1382 15.1502C12.3074 15.1502 12.4484 15.0074 12.4484 14.8359Z" clip-rule="evenodd"/><path fill="#FAB446" d="M9.95975 11.3644V10.7358H8.0918V11.3644H8.40195V12.0001H8.0918V12.6287H9.95975V12.0001H9.6496V11.3644H9.95975Z"/></svg>