<svg xmlns="http://www.w3.org/2000/svg" fill="none" viewBox="0 0 36 24"><path fill="#82AFFF" d="M35.9831 7.9835H0V.648191C0 .299229.281118.0214844.61846.0214844H35.3576C35.702.0214844 35.9761.306351 35.9761.648191L35.9831 7.9835zM35.3647 23.9075H.61846C.27409 23.9075 0 23.6227 0 23.2808V15.9455H35.9831V23.2808C35.9831 23.6298 35.702 23.9075 35.3647 23.9075z"/><path fill="#FFE15A" d="M0 7.983H35.983V15.945H0z"/><path fill="#464655" d="M0.231923 23.7578L14.4846 12.292C14.6884 12.1282 14.6884 11.8077 14.4846 11.6368L0.231923 0.170898C0.0913634 0.284845 0 0.455765 0 0.64805V23.2807C0 23.473 0.0913634 23.6439 0.231923 23.7578Z"/></svg>