<svg xmlns="http://www.w3.org/2000/svg" fill="none" viewBox="0 0 37 25"><path fill="#FF4B55" d="M36.3711 24.8941H0.63606C0.28189 24.8941 0 24.5975 0 24.2416V0.675096C0 0.311736 0.289118 0.0225309 0.63606 0.0225309H36.3639C36.718 0.0225309 36.9999 0.319151 36.9999 0.675096V24.2416C37.0071 24.6049 36.718 24.8941 36.3711 24.8941Z"/><path fill="#F5F5F5" d="M18.3235 10.2184L19.321 11.5606 20.8822 11.0267C20.9689 10.9971 21.0412 11.1009 20.9906 11.175L20.0582 12.5692 21.0412 13.9262C21.099 14.0004 21.0268 14.1042 20.94 14.0819L19.3643 13.5999 18.4102 14.9718C18.3596 15.0459 18.2368 15.0089 18.2368 14.9199L18.1934 13.2291 16.6249 12.7249C16.5382 12.6952 16.5382 12.5692 16.6249 12.5395L18.1789 11.9759 18.1645 10.2852C18.15 10.1814 18.2657 10.1369 18.3235 10.2184zM12.7941 17.7007C9.97521 17.7007 7.69117 15.3574 7.69117 12.4579 7.69117 9.56589 9.97521 7.21517 12.7941 7.21517 13.8422 7.21517 14.8107 7.54887 15.613 8.10503 15.7359 8.19402 15.8804 8.02346 15.772 7.91223 14.565 6.62934 12.8664 5.8433 10.9727 5.91004 7.72731 6.02127 5.03851 8.69827 4.8289 12.0204 4.59038 15.832 7.53216 18.9984 11.1967 18.9984 13.0037 18.9984 14.6228 18.2272 15.7793 16.9888 15.8804 16.8776 15.7431 16.7144 15.6202 16.8034 14.8107 17.367 13.8422 17.7007 12.7941 17.7007z"/></svg>