<svg xmlns="http://www.w3.org/2000/svg" viewBox="0 0 24 24"><path fill="currentColor" d="M6.20802 1.0621C5.88732.876759 5.5 1.12858 5.5 1.52241V8.47831C5.5 8.76643 5.71555 9 5.98145 9H18.0178C18.519 9 18.6866 8.27357 18.2444 8.01799L6.20802 1.0621zM2.5 13.5H21.5C22.3284 13.5 23 12.8284 23 12 23 11.1716 22.3284 10.5 21.5 10.5H2.5C1.67157 10.5 1 11.1716 1 12 1 12.8284 1.67157 13.5 2.5 13.5zM5.5 22.4776C5.5 22.8714 5.88732 23.1232 6.20802 22.9379L18.2444 15.982C18.6866 15.7264 18.519 15 18.0178 15H5.98145C5.71555 15 5.5 15.2336 5.5 15.5217V22.4776z"/></svg>