<svg xmlns="http://www.w3.org/2000/svg" viewBox="0 0 24 24"><path fill="currentColor" d="M17.1368 8.92596L23.8929 2.1699 21.7234.000366205 14.9671 6.75662V1.93733H11.8989V11.9941H21.9558V8.92596H17.1368zM3.85602.853728C4.26557.750415 4.68727.77103 5.08697.943878 5.52705 1.13418 5.83982 1.49807 6.06706 1.87688 6.25536 2.17249 6.76041 2.9675 7.58166 4.26103 8.42369 5.5873 8.92772 6.89875 8.59347 8.02212 8.37589 8.80783 8.01343 9.54725 7.35876 9.93662 7.34937 9.9876 7.34193 10.1103 7.39098 10.3366L7.39531 10.3565C7.47769 10.786 7.77982 11.3906 8.43287 12.1853 9.11936 13.0206 9.6256 13.5983 9.96108 13.9368 10.3152 14.2941 10.8965 14.8091 11.7225 15.4901 12.5098 16.1392 13.1168 16.4579 13.5563 16.5588 13.769 16.6054 13.8858 16.5997 13.9355 16.5915 14.3166 15.9396 15.0429 15.5591 15.8251 15.3179L15.8461 15.3114C16.4196 15.1507 17.0313 15.2127 17.6345 15.3983 18.2395 15.5845 18.8888 15.9112 19.5758 16.3499 20.8283 17.1496 21.6334 17.6743 21.9603 17.9069 22.3312 18.1365 22.6823 18.4492 22.8665 18.8829 23.0361 19.2822 23.0563 19.7026 22.955 20.1114L22.9435 20.1576 22.5013 21.3529C22.1253 22.3691 21.3545 23.116 20.308 23.62L20.2967 23.6255C19.3159 24.0802 18.1677 24.097 16.9293 23.8043 15.7216 23.5189 14.4828 23.0347 13.2141 22.3626 11.9578 21.6971 10.7353 20.9219 9.54663 20.0381 8.36481 19.1594 7.34747 18.2931 6.50008 17.438 5.65271 16.583 4.7942 15.5566 3.92356 14.3643 3.04788 13.1652 2.27994 11.9321 1.6207 10.665.955016 9.38563.475755 8.13698.193334 6.92037-.0960145 5.67392-.0788386 4.52084.369523 3.53618L.374654 3.52492C.872372 2.47266 1.61191 1.69327 2.62368 1.31213L3.80921.865536 3.85602.853728z"/></svg>