<svg xmlns="http://www.w3.org/2000/svg" viewBox="0 0 24 24"><g fill="currentColor" clip-path="url(#clip0_16117_75546)"><path d="M14.1667 10.2472C14.4134 10.4121 14.7033 10.5001 14.9999 10.5001 15.3977 10.5 15.7792 10.3419 16.0604 10.0606L23.5604 2.56062C23.8337 2.27772 23.9849 1.89882 23.9814 1.50552 23.978 1.11223 23.8203.736007 23.5422.457895 23.264.179782 22.8878.022029 22.4945.0186114 22.1012.0151938 21.7223.166385 21.4394.439622L13.9394 7.93962C13.7297 8.1494 13.5869 8.41665 13.529 8.70757 13.4712 8.9985 13.5009 9.30005 13.6144 9.5741 13.7279 9.84815 13.9201 10.0824 14.1667 10.2472zM3.73201 13.9035L1.44901 16.188.871512 14.841C.784513 14.619-.719987 10.596 1.93951 7.93948L7.98451 1.89448C10.65-.766525 14.6655.736475 14.835.802475L16.2345 1.40248 13.9515 3.68698 13.707 3.58198 13.7012 3.58008C13.5725 3.53701 11.3334 2.78756 10.107 4.01398L4.06201 10.059C2.78551 11.3355 3.64051 13.6875 3.64951 13.7115L3.73201 13.9035zM1.49992 24.0001C1.2033 24.0001.913352 23.9121.666737 23.7472.420122 23.5824.227913 23.3482.114408 23.0741.000902496 22.8001-.0288019 22.4985.0290494 22.2076.0869007 21.9166.22971 21.6494.439425 21.4396L7.93942 13.9396C8.22233 13.6664 8.60123 13.5152 8.99453 13.5186 9.38782 13.522 9.76404 13.6798 10.0422 13.9579 10.3203 14.236 10.478 14.6122 10.4814 15.0055 10.4849 15.3988 10.3337 15.7777 10.0604 16.0606L2.56042 23.5606C2.27919 23.8419 1.89772 24 1.49992 24.0001z"/><path fill-rule="evenodd" d="M7.81201 22.5516L10.0965 20.2687L10.2885 20.3512C10.3053 20.3574 11.4598 20.7772 12.5893 20.5931C12.3736 20.143 12.2137 19.6653 12.1153 19.1705C11.8838 18.0067 12.0026 16.8003 12.4567 15.7039C12.9109 14.6075 13.6799 13.6705 14.6666 13.0112C15.6533 12.3519 16.8133 12 18 12C18.9192 12 19.8167 12.2109 20.6278 12.606C20.8275 11.5174 20.4501 10.3897 20.4199 10.2995L20.418 10.2936L20.313 10.0491L22.5975 7.76465L23.1975 9.16415C23.2536 9.30825 24.3483 12.2363 23.0402 14.7447C23.6619 15.7074 24 16.8363 24 18C24 19.1867 23.6481 20.3467 22.9888 21.3334C22.3295 22.3201 21.3925 23.0892 20.2961 23.5433C19.1997 23.9974 17.9933 24.1162 16.8295 23.8847C16.0761 23.7349 15.3625 23.4426 14.7252 23.0275C12.2322 24.2808 9.34632 23.201 9.16051 23.1276L7.81201 22.5516ZM20.5 19C20.7761 19 21 18.7761 21 18.5V17.5C21 17.2239 20.7761 17 20.5 17H15.5C15.2239 17 15 17.2239 15 17.5V18.5C15 18.7761 15.2239 19 15.5 19H20.5Z" clip-rule="evenodd"/></g></svg>