<svg xmlns="http://www.w3.org/2000/svg" viewBox="0 0 24 24"><path fill="currentColor" d="M1.91978 5.45666H3.47168V0H2.10367L.160222 1.53019.952817 2.47126 1.58689 1.96017C1.71414 1.85153 1.83283 1.73389 1.94198 1.60823 1.92718 1.89999 1.91978 2.22133 1.91978 2.57225V5.45666zM.0634076 14.6776H4.16747L4.17222 13.4642H2.03221V13.4259C2.65889 12.8832 3.0684 12.515 3.26074 12.3211 3.43366 12.1512 3.58871 11.9651 3.72361 11.7657 3.83452 11.5995 3.92095 11.4193 3.98041 11.2301 4.03788 11.0366 4.06617 10.8361 4.06443 10.6349 4.0671 10.3596 3.98428 10.0899 3.82665 9.86059 3.66114 9.62487 3.42894 9.44003 3.1577 9.32808 2.84766 9.19867 2.51262 9.1345 2.17488 9.13986 1.90793 9.13661 1.64163 9.16591 1.38229 9.22709 1.1563 9.28177.938819 9.36512.735528 9.47498.471993 9.63046.225546 9.81145 0 10.0151L.840151 10.9639C1.0303 10.7997 1.23686 10.6541 1.45679 10.5293 1.61995 10.4334 1.80637 10.3806 1.99734 10.3763 2.14266 10.3673 2.28623 10.4109 2.39998 10.4987 2.4478 10.5413 2.48535 10.5936 2.51 10.6517 2.53465 10.7099 2.54579 10.7725 2.54265 10.8353 2.54342 10.949 2.51966 11.0615 2.4729 11.1658 2.40468 11.3004 2.31949 11.4263 2.21927 11.5407 2.09721 11.6861 1.84041 11.9585 1.44569 12.3563L.0634076 13.706V14.6776zM3.97888 19.6431C3.98705 19.962 3.87431 20.2727 3.66185 20.5169 3.41367 20.7783 3.09017 20.9622 2.73292 21.0448V21.0662C3.6777 21.1805 4.15008 21.612 4.15008 22.3608 4.15799 22.5951 4.1048 22.8276 3.9954 23.037 3.886 23.2463 3.72388 23.4258 3.52393 23.5589 3.00586 23.8777 2.39669 24.0303 1.78339 23.995 1.50046 23.9964 1.21788 23.9754.938488 23.9323.650557 23.8828.368543 23.8054.0967523 23.7012V22.4771C.336719 22.5961.590564 22.687.852888 22.7479 1.08522 22.8039 1.3236 22.8332 1.56305 22.8351 1.81579 22.8519 2.06871 22.805 2.297 22.6989 2.37248 22.6553 2.43393 22.5922 2.47451 22.5169 2.51509 22.4415 2.53321 22.3567 2.52685 22.272 2.53561 22.1454 2.49232 22.0206 2.40637 21.9247 2.29731 21.8307 2.16345 21.7677 2.01959 21.7426 1.79086 21.6961 1.55737 21.6751 1.32369 21.6798H.974948V20.572H1.33162C2.10677 20.572 2.49673 20.3807 2.49673 19.9966 2.50062 19.933 2.48661 19.8695 2.45619 19.813 2.42578 19.7564 2.38008 19.7088 2.32394 19.6753 2.18274 19.5994 2.02251 19.5629 1.86107 19.5697 1.45996 19.5819 1.07072 19.704.738754 19.9216L.104678 18.9347C.384493 18.7445.695233 18.6007 1.02409 18.5093 1.3758 18.4201 1.73841 18.3774 2.10202 18.3823 2.58601 18.3563 3.06665 18.4738 3.47955 18.7189 3.63742 18.8192 3.76615 18.9567 3.85354 19.1184 3.94093 19.2802 3.98407 19.4608 3.97888 19.6431zM8.94069 2.57174C8.50295 2.57174 8.1481 2.91428 8.1481 3.33683 8.1481 3.75938 8.50295 4.10193 8.94069 4.10193H23.2074C23.6451 4.10193 24 3.75938 24 3.33683 24 2.91428 23.6451 2.57174 23.2074 2.57174H8.94069zM8.1481 12.518C8.1481 12.0954 8.50295 11.7529 8.94069 11.7529H23.2074C23.6451 11.7529 24 12.0954 24 12.518 24 12.9405 23.6451 13.2831 23.2074 13.2831H8.94069C8.50295 13.2831 8.1481 12.9405 8.1481 12.518zM8.94069 20.934C8.50295 20.934 8.1481 21.2766 8.1481 21.6991 8.1481 22.1217 8.50295 22.4642 8.94069 22.4642H23.2074C23.6451 22.4642 24 22.1217 24 21.6991 24 21.2766 23.6451 20.934 23.2074 20.934H8.94069z"/></svg>