<svg xmlns="http://www.w3.org/2000/svg" viewBox="0 0 24 24"><g fill="currentColor" clip-path="url(#clip0_987_4483)"><path d="M9 9C9 9.82843 8.32843 10.5 7.5 10.5 6.67157 10.5 6 9.82843 6 9 6 8.17157 6.67157 7.5 7.5 7.5 8.32843 7.5 9 8.17157 9 9zM16.5 10.5C17.3284 10.5 18 9.82843 18 9 18 8.17157 17.3284 7.5 16.5 7.5 15.6716 7.5 15 8.17157 15 9 15 9.82843 15.6716 10.5 16.5 10.5zM15.9914 14.8538C16.3247 14.7205 16.4869 14.3422 16.3535 14.0089 16.2202 13.6756 15.8419 13.5134 15.5086 13.6468L8.00862 16.6468C7.67531 16.7801 7.51319 17.1584 7.64652 17.4917 7.77984 17.825 8.15812 17.9871 8.49143 17.8538L15.9914 14.8538z"/><path fill-rule="evenodd" d="M12.0001 0.100098C5.42791 0.100098 0.100098 5.42791 0.100098 12.0001C0.100098 18.5723 5.42791 23.9001 12.0001 23.9001C18.5723 23.9001 23.9001 18.5723 23.9001 12.0001C23.9001 5.42791 18.5723 0.100098 12.0001 0.100098ZM1.4001 12.0001C1.4001 6.14588 6.14588 1.4001 12.0001 1.4001C17.8543 1.4001 22.6001 6.14588 22.6001 12.0001C22.6001 17.8543 17.8543 22.6001 12.0001 22.6001C6.14588 22.6001 1.4001 17.8543 1.4001 12.0001Z" clip-rule="evenodd"/></g></svg>