<svg xmlns="http://www.w3.org/2000/svg" viewBox="0 0 24 24"><path fill="currentColor" d="M3.85326 1.06212C4.26252.959732 4.68392.980162 5.08334 1.15145 5.5231 1.34005 5.83565 1.70065 6.06272 2.07606 6.25089 2.36901 6.75558 3.15686 7.57624 4.43874 8.41767 5.75307 8.92134 7.05271 8.58733 8.16597 8.3699 8.94461 8.00771 9.67737 7.35351 10.0632 7.34412 10.1138 7.33669 10.2354 7.3857 10.4596L7.39003 10.4794C7.47235 10.905 7.77426 11.5042 8.42685 12.2916 9.11285 13.1194 9.61873 13.692 9.95396 14.0274 10.3078 14.3815 10.8887 14.8919 11.7141 15.5667 12.5009 16.21 13.1074 16.5258 13.5467 16.6258 13.7592 16.672 13.8759 16.6663 13.9256 16.6582 14.3063 16.0122 15.0322 15.6351 15.8138 15.3961L15.8348 15.3896C16.4079 15.2303 17.0191 15.2918 17.6219 15.4757 18.2265 15.6603 18.8753 15.984 19.5619 16.4188 20.8135 17.2113 21.6179 17.7313 21.9446 17.9618 22.3153 18.1893 22.6661 18.4991 22.8502 18.929 23.0197 19.3247 23.0398 19.7413 22.9386 20.1465L22.9271 20.1922 22.4852 21.3767C22.1095 22.3838 21.3393 23.124 20.2935 23.6234L20.2822 23.6288C19.3021 24.0794 18.1547 24.0961 16.9172 23.8061 15.7104 23.5232 14.4725 23.0434 13.2047 22.3773 11.9492 21.7178 10.7276 20.9496 9.53981 20.0738 8.35884 19.203 7.34222 18.3444 6.49543 17.4971 5.64867 16.6498 4.79077 15.6326 3.92076 14.4511 3.0457 13.2627 2.27831 12.0407 1.61954 10.7851.954334 9.51721.475415 8.27979.193196 7.07414-.0959459 5.83891-.0787823 4.69621.369259 3.72042L.374386 3.70925C.871749 2.66647 1.61075 1.8941 2.6218 1.51639L3.80649 1.07382 3.85326 1.06212zM18 .559317C19.3326.559317 20.6164 1.01884 21.6488 1.83953L23.4743 0 24 6.10353 17.9428 5.57385 20.0259 3.47483C19.4318 3.07101 18.7278 2.84709 18 2.84709 16.2158 2.84709 14.7139 4.13005 14.4214 5.89003L14.3652 6.22838 12.1334 5.8511 12.1901 5.51021C12.6681 2.63912 15.1148.559317 18 .559317zM12.5257 13L14.3512 11.1605C15.3836 11.9812 16.6674 12.4407 18 12.4407 20.8852 12.4407 23.3319 10.3609 23.8099 7.48979L23.8666 7.1489 21.6348 6.77162 21.5786 7.10997C21.2861 8.86995 19.7842 10.1529 18 10.1529 17.2722 10.1529 16.5682 9.92899 15.9741 9.52517L18.0572 7.42615 12 6.89647 12.5257 13z"/></svg>