<svg xmlns="http://www.w3.org/2000/svg" viewBox="0 0 25 24"><path fill="currentColor" fill-rule="evenodd" d="M21.2557 16.9091C21.7299 15.1161 21.6532 13.1917 21.0017 11.4 22.5017 8.55 23.7017 5.1 24.0017.75 24.0017.6 24.0017.3 23.8517.15 23.7017 0 23.4017 0 23.2517 0 18.9017.15 15.4517 1.5 12.7517 3.3 10.9775 2.65485 9.07326 2.52997 7.29536 2.94868L8.56434 4.21766C9.46121 4.09192 10.3764 4.13118 11.2517 4.35 10.702 4.71645 10.2269 5.08291 9.79604 5.44936L10.8651 6.51838C12.0509 5.51494 13.4298 4.53595 15.0017 3.75L20.2517 9C19.4577 10.5879 18.5325 11.9788 17.5193 13.1727L18.6376 14.291C18.9756 13.909 19.3137 13.5007 19.6517 13.05 19.8592 13.8283 19.9052 14.6425 19.8021 15.4554L21.2557 16.9091zM22.5017 1.5C22.3517 3.75 21.7517 5.7 21.0017 7.5L16.5017 3C18.1517 2.25 20.2517 1.8 22.5017 1.5zM17.0351 15.9665L17.0312 15.9705 19.0089 17.9482 19.0116 17.943 20.2873 19.2187 20.2843 19.2237 23.2803 22.2197C23.5732 22.5126 23.5732 22.9874 23.2803 23.2803 22.9874 23.5732 22.5126 23.5732 22.2197 23.2803L19.3997 20.4603C19.2421 20.6455 19.0761 20.8256 18.9017 21 18.3017 21.6 17.7017 22.05 17.1017 22.35 16.8017 22.5 16.5017 22.5 16.2017 22.2L13.0517 19.05C12.9017 19.2 12.7517 19.35 12.6017 19.35L11.1017 20.1C11.0267 20.1 10.9517 20.1375 10.8767 20.175 10.8017 20.2125 10.7267 20.25 10.6517 20.25H10.5017C10.3517 20.4 9.90165 20.25 9.75165 20.1L3.90165 14.25C3.75165 14.1 3.60165 13.8 3.75165 13.5V13.35C3.82665 13.275 3.86415 13.2 3.90165 13.125 3.93915 13.05 3.97665 12.975 4.05165 12.9 4.09377 12.8158 4.13589 12.7079 4.18464 12.583 4.30954 12.2631 4.478 11.8315 4.80165 11.4L5.10165 11.1 1.95165 7.95C1.65165 7.8 1.65165 7.35 1.80165 7.05 2.10165 6.45 2.55165 5.85 3.15165 5.25 3.32644 5.07521 3.50687 4.90958 3.69241 4.75307L1.21967 2.28033C.926777 1.98744.926777 1.51256 1.21967 1.21967 1.51256.926776 1.98744.926776 2.28033 1.21967L4.93907 3.8784 4.94409 3.87551 6.08884 5.02027 6.08367 5.02301 8.10616 7.0455 8.11011 7.04154 9.16011 8.09154 9.15616 8.0955 12.0998 11.0392C12.0982 11.0349 12.0966 11.0307 12.095 11.0264L12.9736 11.905C12.9693 11.9034 12.9651 11.9018 12.9608 11.9002L15.9064 14.8457 15.9105 14.8419 17.0351 15.9665zM4.35165 6.3C4.50025 6.1514 4.65499 6.00996 4.81518 5.87584L7.10218 8.16284C6.81507 8.51138 6.54785 8.85658 6.30127 9.1751 6.14307 9.37947 5.99317 9.5731 5.85165 9.75L3.45165 7.35C3.5672 7.23445 3.6605 7.09665 3.75726 6.95374 3.91171 6.72561 4.07498 6.48445 4.35165 6.3zM6.00165 12.3C6.45518 11.393 7.16581 10.3145 8.13354 9.1942L14.7666 15.8273C14.0145 16.4569 13.3081 16.9963 12.6017 17.4 12.4517 17.475 12.3017 17.5875 12.1517 17.7 12.0017 17.8125 11.8517 17.925 11.7017 18 11.3504 18.1756 11.0502 18.3515 10.8017 18.497 10.626 18.6 10.4759 18.6879 10.3517 18.75L5.25165 13.65C5.40165 13.425 5.51416 13.2 5.62666 12.975 5.73916 12.75 5.85166 12.525 6.00165 12.3zM14.2517 18.3C14.814 17.9251 15.3764 17.4916 15.9388 16.9995L18.1782 19.2388C18.0286 19.4306 17.8697 19.6179 17.7016 19.8 17.4016 20.1 17.1016 20.4 16.6517 20.7L14.2517 18.3z" clip-rule="evenodd"/><path fill="currentColor" d="M14.993 10.6463C14.9976 10.5981 15 10.5494 15 10.5 15 9.67157 14.3284 9 13.5 9 13.4506 9 13.4019 9.00238 13.3537 9.00704L14.993 10.6463zM1.65 18.15C.45 19.35 0 24 0 24 0 24 4.65 23.55 5.85 22.35 7.05 21.15 7.05 19.35 5.85 18.15 4.65 16.95 2.85 16.95 1.65 18.15z"/></svg>