<svg xmlns="http://www.w3.org/2000/svg" viewBox="0 0 24 24"><g fill="currentColor" clip-path="url(#clip0_1081_4)"><path d="M1 0C.447716 0 0 .447715 0 1V11C0 11.5523.447715 12 1 12H23C23.5523 12 24 11.5523 24 11V1C24 .447715 23.5523 0 23 0H1zM11 14.5C11 14.2239 10.7761 14 10.5 14H.5C.223858 14 0 14.2239 0 14.5V17.5C0 17.7761.223858 18 .5 18H10.5C10.7761 18 11 17.7761 11 17.5V14.5zM24 14.5C24 14.2239 23.7761 14 23.5 14H13.5C13.2239 14 13 14.2239 13 14.5V17.5C13 17.7761 13.2239 18 13.5 18H23.5C23.7761 18 24 17.7761 24 17.5V14.5zM0 20.5C0 20.2239.223858 20 .5 20H10.5C10.7761 20 11 20.2239 11 20.5V23.5C11 23.7761 10.7761 24 10.5 24H.5C.223858 24 0 23.7761 0 23.5V20.5zM24 20.5C24 20.2239 23.7761 20 23.5 20H13.5C13.2239 20 13 20.2239 13 20.5V23.5C13 23.7761 13.2239 24 13.5 24H23.5C23.7761 24 24 23.7761 24 23.5V20.5z"/></g></svg>