<svg xmlns="http://www.w3.org/2000/svg" viewBox="0 0 24 24"><path fill="currentColor" d="M12 11.5C14.7614 11.5 17 9.26142 17 6.5 17 3.73858 14.7614 1.5 12 1.5 9.23858 1.5 7 3.73858 7 6.5 7 9.26142 9.23858 11.5 12 11.5zM15.805 13.7044C14.1308 14.6473 13 16.4416 13 18.5 13 20.076 13.6629 21.4972 14.7251 22.5H2.43911C1.84507 22.5 1.3844 21.9632 1.52569 21.3747 2.67972 16.5672 6.93149 13 12 13 13.3394 13 14.6218 13.2491 15.805 13.7044zM19 15.5455C19.6191 15.5455 20.2054 15.8012 20.6329 16.2355L19.4008 17.138 22.672 17.8636 23 14.5015 21.8766 15.3245C21.1563 14.4976 20.1119 14 19 14 17.2513 14 15.7256 15.1915 15.2889 16.8977L16.7739 17.2833C17.0352 16.2602 17.9502 15.5455 19 15.5455zM17.3671 20.2645C17.7946 20.6988 18.3809 20.9545 19 20.9545 20.0498 20.9545 20.9648 20.2398 21.2261 19.2167L22.7111 19.6023C22.2744 21.3085 20.7487 22.5 19 22.5 17.8881 22.5 16.8437 22.0024 16.1234 21.1755L15 21.9985 15.328 18.6364 18.5992 19.362 17.3671 20.2645z"/></svg>