<svg width="1088" height="509" viewBox="0 0 1088 509" fill="none" xmlns="http://www.w3.org/2000/svg">
<g opacity="0.9" filter="url(#filter0_ddd_1378_37171)">
<g clip-path="url(#clip0_1378_37171)">
<rect x="32" y="26" width="1024" height="442.811" rx="12" fill="white"/>
<g opacity="0.6" clip-path="url(#clip1_1378_37171)">
<rect width="1025" height="443" transform="translate(32 26)" fill="#E6E6E6"/>
<rect x="32" y="26" width="1025" height="445" fill="url(#paint0_linear_1378_37171)"/>
<rect x="60.5338" y="66.3779" width="108.213" height="95.2921" rx="4.30699" fill="white"/>
<rect x="65.9175" y="73.377" width="47.3769" height="8.61397" fill="#E6E6E6"/>
<rect x="60.5338" y="87.3745" width="108.213" height="17.2279" fill="#E6E6E6"/>
<rect x="65.9175" y="91.6814" width="71.0653" height="8.61397" fill="#999999"/>
<rect x="65.9175" y="109.986" width="35.5326" height="8.61397" fill="#E6E6E6"/>
<rect x="65.9175" y="128.291" width="52.2222" height="8.61397" fill="#E6E6E6"/>
<rect x="65.9175" y="146.596" width="36.071" height="8.61397" fill="#E6E6E6"/>
<path d="M154.211 99.5956L151.842 97.2806C151.734 97.173 151.734 97.0114 151.842 96.9038C151.949 96.7961 152.111 96.7961 152.219 96.9038L154.211 98.8419L159.379 93.6735C159.487 93.5659 159.648 93.5659 159.756 93.6735C159.864 93.7812 159.864 93.9427 159.756 94.0504L154.211 99.5956Z" fill="black"/>
<rect x="60.5338" y="41.6128" width="108.213" height="21.5349" rx="3.23024" fill="#E6E6E6"/>
<g opacity="0.796921">
<path fill-rule="evenodd" clip-rule="evenodd" d="M154.053 51.5042C154.14 51.384 154.309 51.3574 154.429 51.4448L156.902 53.2439L159.376 51.4448C159.496 51.3574 159.665 51.384 159.752 51.5042C159.84 51.6244 159.813 51.7928 159.693 51.8802L157.061 53.7944C156.966 53.8631 156.839 53.8631 156.744 53.7944L154.112 51.8802C153.992 51.7928 153.965 51.6244 154.053 51.5042Z" fill="black"/>
</g>
<rect x="65.9175" y="48.0732" width="66.2199" height="8.61397" fill="#999999"/>
<rect x="44.3826" y="41.6128" width="2.21092" height="12.318" fill="#D6219C"/>
<rect x="44.3826" y="55.1941" width="2.21092" height="12.318" fill="#F89B85"/>
<rect x="44.3826" y="68.7754" width="2.21092" height="12.318" fill="#65BAFF"/>
<rect x="189.496" y="62.8245" width="52.3027" height="14.5285" rx="2.03399" stroke="#E6E6E6" stroke-width="0.581141"/>
<rect x="195.016" y="66.0208" width="41.261" height="8.13598" fill="#E6E6E6"/>
<rect x="248.191" y="62.8245" width="65.0878" height="14.5285" rx="2.03399" stroke="#E6E6E6" stroke-width="0.581141"/>
<rect x="253.712" y="66.0208" width="43.5856" height="8.13598" fill="#E6E6E6"/>
<g clip-path="url(#clip2_1378_37171)">
<path d="M308.447 67.6546C308.302 67.5093 308.084 67.5093 307.939 67.6546L306.014 69.5796L304.089 67.6546C303.943 67.5093 303.725 67.5093 303.58 67.6546C303.435 67.7999 303.435 68.0178 303.58 68.1631L305.505 70.0881L303.58 72.0132C303.435 72.1585 303.435 72.3764 303.58 72.5217C303.653 72.5943 303.725 72.6306 303.834 72.6306C303.943 72.6306 304.016 72.5943 304.089 72.5217L306.014 70.5966L307.939 72.5217C308.011 72.5943 308.12 72.6306 308.193 72.6306C308.266 72.6306 308.375 72.5943 308.447 72.5217C308.592 72.3764 308.592 72.1585 308.447 72.0132L306.522 70.0881L308.447 68.1631C308.592 68.0178 308.592 67.7999 308.447 67.6546Z" fill="#999999"/>
</g>
<rect x="247.9" y="41.6128" width="65.669" height="15.1097" rx="2.32457" fill="#E6E6E6"/>
<rect x="253.712" y="45.0996" width="43.5856" height="8.13598" fill="#F2F2F2"/>
<g clip-path="url(#clip3_1378_37171)">
<path d="M308.447 46.7332C308.302 46.5879 308.084 46.5879 307.939 46.7332L306.014 48.6583L304.089 46.7332C303.943 46.5879 303.725 46.5879 303.58 46.7332C303.435 46.8785 303.435 47.0964 303.58 47.2417L305.505 49.1668L303.58 51.0918C303.435 51.2371 303.435 51.455 303.58 51.6003C303.653 51.6729 303.725 51.7093 303.834 51.7093C303.943 51.7093 304.016 51.6729 304.089 51.6003L306.014 49.6753L307.939 51.6003C308.011 51.6729 308.12 51.7093 308.193 51.7093C308.266 51.7093 308.375 51.6729 308.447 51.6003C308.592 51.455 308.592 51.2371 308.447 51.0918L306.522 49.1668L308.447 47.2417C308.592 47.0964 308.592 46.8785 308.447 46.7332Z" fill="white"/>
</g>
<rect x="189.205" y="41.6128" width="52.8839" height="15.1097" rx="2.32457" fill="#E6E6E6"/>
<rect x="195.016" y="45.0996" width="41.261" height="8.13598" fill="#F2F2F2"/>
<rect x="189.743" y="88.9897" width="26.0686" height="13.0343" rx="2.03661" fill="#9941FF"/>
<rect x="189.743" y="108.541" width="26.0686" height="13.0343" rx="2.03661" fill="#9941FF"/>
<rect x="189.743" y="128.093" width="26.0686" height="13.0343" rx="2.03661" fill="#9941FF"/>
<rect x="189.743" y="147.644" width="26.0686" height="13.0343" rx="2.03661" fill="#E6E6E6"/>
<rect x="222.329" y="88.9897" width="26.0686" height="13.0343" rx="2.03661" fill="#D6219C"/>
<rect x="222.329" y="108.541" width="26.0686" height="13.0343" rx="2.03661" fill="#D6219C"/>
<rect x="222.329" y="128.093" width="26.0686" height="13.0343" rx="2.03661" fill="#D6219C"/>
<rect x="222.329" y="147.644" width="26.0686" height="13.0343" rx="2.03661" fill="#E6E6E6"/>
<rect x="254.915" y="88.9897" width="26.0686" height="13.0343" rx="2.03661" fill="#65BAFF"/>
<rect x="254.915" y="108.541" width="26.0686" height="13.0343" rx="2.03661" fill="#65BAFF"/>
<rect x="254.915" y="128.093" width="26.0686" height="13.0343" rx="2.03661" fill="#65BAFF"/>
<rect x="254.915" y="147.644" width="26.0686" height="13.0343" rx="2.03661" fill="#E6E6E6"/>
<rect x="287.501" y="88.9897" width="26.0686" height="13.0343" rx="2.03661" fill="#F89B85"/>
<rect x="287.501" y="108.541" width="26.0686" height="13.0343" rx="2.03661" fill="#F89B85"/>
<rect x="287.501" y="128.093" width="26.0686" height="13.0343" rx="2.03661" fill="#F89B85"/>
<rect x="287.501" y="147.644" width="26.0686" height="13.0343" rx="2.03661" fill="#E6E6E6"/>
<rect x="194.05" y="92.7583" width="17.2279" height="5.38373" fill="white" fill-opacity="0.5"/>
<rect x="194.05" y="112.14" width="17.2279" height="5.38373" fill="white" fill-opacity="0.5"/>
<rect x="194.05" y="132.06" width="17.2279" height="5.38373" fill="white" fill-opacity="0.5"/>
<rect x="194.05" y="151.441" width="17.2279" height="5.38373" fill="#757575"/>
<rect x="226.891" y="92.7583" width="17.2279" height="5.38373" fill="white" fill-opacity="0.5"/>
<rect x="226.891" y="112.14" width="17.2279" height="5.38373" fill="white" fill-opacity="0.5"/>
<rect x="226.891" y="132.06" width="17.2279" height="5.38373" fill="white" fill-opacity="0.5"/>
<rect x="226.891" y="151.441" width="17.2279" height="5.38373" fill="#757575"/>
<rect x="259.732" y="92.7583" width="16.6896" height="5.38373" fill="white" fill-opacity="0.5"/>
<rect x="259.732" y="112.14" width="16.6896" height="5.38373" fill="white" fill-opacity="0.5"/>
<rect x="259.732" y="132.06" width="16.6896" height="5.38373" fill="white" fill-opacity="0.5"/>
<rect x="259.732" y="151.441" width="16.6896" height="5.38373" fill="#757575"/>
<rect x="292.034" y="92.7583" width="17.2279" height="5.38373" fill="white" fill-opacity="0.5"/>
<rect x="292.034" y="112.14" width="17.2279" height="5.38373" fill="white" fill-opacity="0.5"/>
<rect x="292.034" y="132.06" width="17.2279" height="5.38373" fill="white" fill-opacity="0.5"/>
<rect x="292.034" y="151.441" width="17.2279" height="5.38373" fill="#757575"/>
<g filter="url(#filter1_d_1378_37171)">
<rect x="85.299" y="300.57" width="129.21" height="80.756" rx="4.30699" fill="white"/>
</g>
<path fill-rule="evenodd" clip-rule="evenodd" d="M95.528 308.377C95.528 308.228 95.6485 308.107 95.7972 308.107H100.643C100.791 308.107 100.912 308.228 100.912 308.377V309.992C100.912 310.14 100.791 310.261 100.643 310.261C100.494 310.261 100.373 310.14 100.373 309.992V308.646H96.0664V309.992C96.0664 310.14 95.9458 310.261 95.7972 310.261C95.6485 310.261 95.528 310.14 95.528 309.992V308.377ZM93.9128 311.069C93.9128 310.92 94.0334 310.799 94.182 310.799H102.258C102.406 310.799 102.527 310.92 102.527 311.069V314.837C102.527 314.986 102.406 315.106 102.258 315.106H100.912V316.452C100.912 316.601 100.791 316.721 100.643 316.721H95.7972C95.6485 316.721 95.528 316.601 95.528 316.452V315.106H94.182C94.0334 315.106 93.9128 314.986 93.9128 314.837V311.069ZM95.528 314.568V313.222C95.528 313.073 95.6485 312.953 95.7972 312.953H100.643C100.791 312.953 100.912 313.073 100.912 313.222V314.568H101.988V311.338H94.4512V314.568H95.528ZM100.373 314.833V313.491H96.0664V316.183H100.373V314.842C100.373 314.84 100.373 314.839 100.373 314.837C100.373 314.836 100.373 314.834 100.373 314.833Z" fill="#757575"/>
<rect x="111.141" y="308.646" width="75.9106" height="8.0756" fill="#757575"/>
<path fill-rule="evenodd" clip-rule="evenodd" d="M94.4512 347.14C94.4512 346.694 94.8128 346.332 95.2588 346.332C95.7048 346.332 96.0663 346.694 96.0663 347.14C96.0663 347.586 95.7048 347.947 95.2588 347.947C94.8128 347.947 94.4512 347.586 94.4512 347.14ZM95.2588 345.794C94.5154 345.794 93.9128 346.396 93.9128 347.14C93.9128 347.883 94.5154 348.486 95.2588 348.486C96.0021 348.486 96.6047 347.883 96.6047 347.14C96.6047 346.396 96.0021 345.794 95.2588 345.794ZM94.4512 353.062C94.4512 352.616 94.8128 352.254 95.2588 352.254C95.7048 352.254 96.0663 352.616 96.0663 353.062C96.0663 353.508 95.7048 353.869 95.2588 353.869C94.8128 353.869 94.4512 353.508 94.4512 353.062ZM95.2588 351.716C94.5154 351.716 93.9128 352.318 93.9128 353.062C93.9128 353.805 94.5154 354.408 95.2588 354.408C96.0021 354.408 96.6047 353.805 96.6047 353.062C96.6047 352.318 96.0021 351.716 95.2588 351.716ZM100.912 349.024C100.317 349.024 99.835 349.506 99.835 350.101C99.835 350.695 100.317 351.177 100.912 351.177C101.506 351.177 101.988 350.695 101.988 350.101C101.988 349.506 101.506 349.024 100.912 349.024ZM99.2966 350.101C99.2966 349.209 100.02 348.486 100.912 348.486C101.804 348.486 102.527 349.209 102.527 350.101C102.527 350.993 101.804 351.716 100.912 351.716C100.02 351.716 99.2966 350.993 99.2966 350.101ZM95.528 349.293C95.528 349.144 95.4075 349.024 95.2588 349.024C95.1101 349.024 94.9896 349.144 94.9896 349.293V350.908C94.9896 351.057 95.1101 351.177 95.2588 351.177C95.4075 351.177 95.528 351.057 95.528 350.908V349.293ZM96.8616 347.979C96.9306 347.847 97.0933 347.796 97.225 347.865L98.9661 348.777C99.0978 348.846 99.1486 349.009 99.0796 349.141C99.0106 349.272 98.848 349.323 98.7163 349.254L96.9752 348.342C96.8435 348.273 96.7926 348.111 96.8616 347.979ZM98.9661 351.424C99.0978 351.355 99.1486 351.192 99.0796 351.061C99.0106 350.929 98.848 350.878 98.7163 350.947L96.9752 351.859C96.8435 351.928 96.7926 352.091 96.8616 352.222C96.9306 352.354 97.0933 352.405 97.225 352.336L98.9661 351.424Z" fill="#757575"/>
<rect x="111.141" y="346.332" width="41.9931" height="8.0756" fill="#757575"/>
<path fill-rule="evenodd" clip-rule="evenodd" d="M99.8343 366.252H101.898C102.06 366.252 102.167 366.36 102.167 366.521V368.136C102.167 368.298 102.06 368.405 101.898 368.405H94.5403C94.3788 368.405 94.2711 368.298 94.2711 368.136V366.521C94.2711 366.36 94.3788 366.252 94.5403 366.252H96.6041V364.906C96.6041 364.744 96.7117 364.637 96.8733 364.637H99.5651C99.7266 364.637 99.8343 364.744 99.8343 364.906V366.252ZM99.2959 365.175H97.1424V366.252H99.2959V365.175ZM94.8095 367.867H101.629V366.79H99.5651H96.8733H94.8095V367.867ZM100.553 369.213C100.553 369.051 100.661 368.944 100.822 368.944C100.984 368.944 101.091 369.051 101.091 369.213V371.905C101.091 372.658 100.499 373.251 99.7453 373.251H96.6945C95.9408 373.251 95.3486 372.658 95.3486 371.905V369.213C95.3486 369.051 95.4563 368.944 95.6178 368.944C95.7793 368.944 95.887 369.051 95.887 369.213V371.905C95.887 372.335 96.2638 372.712 96.6945 372.712H99.7453C100.176 372.712 100.553 372.335 100.553 371.905V369.213Z" fill="#757575"/>
<rect x="111.141" y="365.175" width="86.1397" height="8.0756" fill="#757575"/>
<rect x="85.299" y="322.105" width="129.21" height="18.8431" fill="#E6E6E6"/>
<path fill-rule="evenodd" clip-rule="evenodd" d="M99.5657 328.117H94.0026V333.321H95.1062C95.2309 333.936 95.7741 334.398 96.4252 334.398C97.0764 334.398 97.6196 333.936 97.7443 333.321H99.2966V333.321H99.7489C99.7462 333.351 99.7448 333.381 99.7448 333.411C99.7448 333.956 100.187 334.398 100.732 334.398C101.277 334.398 101.719 333.956 101.719 333.411C101.719 333.381 101.718 333.351 101.715 333.321H102.437V331.45L101.719 331.091V329.553H99.5657V328.117ZM101.493 332.783H101.899V331.783L101.181 331.424V330.091H99.5657V332.783H99.9704C100.151 332.564 100.425 332.424 100.732 332.424C101.038 332.424 101.312 332.564 101.493 332.783ZM96.4252 331.706C95.7741 331.706 95.231 332.169 95.1062 332.783H94.5409V328.655H99.0274V332.783H97.7442C97.6195 332.169 97.0764 331.706 96.4252 331.706ZM96.4252 332.245C95.9792 332.245 95.6177 332.606 95.6177 333.052C95.6177 333.498 95.9792 333.86 96.4252 333.86C96.8712 333.86 97.2328 333.498 97.2328 333.052C97.2328 332.606 96.8712 332.245 96.4252 332.245ZM100.283 333.411C100.283 333.163 100.484 332.962 100.732 332.962C100.98 332.962 101.181 333.163 101.181 333.411C101.181 333.659 100.98 333.86 100.732 333.86C100.484 333.86 100.283 333.659 100.283 333.411ZM97.0534 330.45V331.168H96.515V330.45H95.7972V329.912H96.515V329.194H97.0534V329.912H97.7712V330.45H97.0534Z" fill="#757575"/>
<rect x="111.141" y="327.489" width="67.2967" height="8.0756" fill="#757575"/>
<rect x="46.5361" y="175.668" width="36.6094" height="205.659" fill="white"/>
<rect width="36.6094" height="29.0722" transform="translate(46.5361 175.668)" fill="white"/>
<path fill-rule="evenodd" clip-rule="evenodd" d="M63.9292 194.974C64.5185 194.026 68.9184 183.743 68.9184 183.743H71.8397C71.8397 183.743 67.5144 193.863 66.9971 194.837C66.542 195.694 65.7207 196.664 64.5818 196.664H61.9528C61.9439 196.664 61.9367 196.657 61.9367 196.648C61.9367 196.64 61.9424 196.633 61.9502 196.632C62.7903 196.497 63.2442 196.076 63.9292 194.974ZM57.3036 183.743H60.1743L62.9234 189.967L61.5615 193.237C61.5311 193.309 61.43 193.31 61.3987 193.238L57.3036 183.743Z" fill="#1A1A1A"/>
<rect width="36.6094" height="21.5349" transform="translate(46.5361 204.74)" fill="white"/>
<path fill-rule="evenodd" clip-rule="evenodd" d="M59.7824 214.732C59.7824 212.361 61.6749 210.449 63.998 210.449C66.3212 210.449 68.2137 212.361 68.2137 214.732C68.2137 215.909 67.7475 216.972 66.9938 217.745C66.9892 217.749 66.9846 217.754 66.9801 217.758C66.973 217.765 66.9663 217.772 66.9599 217.78C66.1978 218.544 65.1509 219.015 63.998 219.015C61.6749 219.015 59.7824 217.102 59.7824 214.732ZM67.2307 218.54C66.3636 219.297 65.2345 219.755 63.998 219.755C61.2559 219.755 59.0421 217.501 59.0421 214.732C59.0421 211.963 61.2559 209.709 63.998 209.709C66.7401 209.709 68.9539 211.963 68.9539 214.732C68.9539 215.985 68.5009 217.132 67.7508 218.013L70.3758 220.676C70.5192 220.822 70.5175 221.056 70.3719 221.2C70.2263 221.343 69.992 221.342 69.8485 221.196L67.2307 218.54Z" fill="#757575"/>
<rect width="36.6094" height="8.0756" transform="translate(46.5361 226.275)" fill="white"/>
<rect x="52.9966" y="229.737" width="24.079" height="0.538373" fill="#CCCCCC"/>
<rect width="36.6094" height="22.0733" transform="translate(46.5361 234.35)" fill="white"/>
<path fill-rule="evenodd" clip-rule="evenodd" d="M63.3267 240.273C63.1594 240.273 63.0238 240.408 63.0238 240.575V242.998V246.792C62.7024 246.504 62.2779 246.329 61.8125 246.329C60.809 246.329 59.9955 247.143 59.9955 248.146C59.9955 249.15 60.809 249.963 61.8125 249.963C62.816 249.963 63.6295 249.15 63.6295 248.146V243.301H68.4749V245.581C68.1534 245.293 67.7289 245.118 67.2635 245.118C66.26 245.118 65.4465 245.931 65.4465 246.935C65.4465 247.938 66.26 248.752 67.2635 248.752C68.267 248.752 69.0805 247.938 69.0805 246.935V242.998V240.575C69.0805 240.408 68.9449 240.273 68.7777 240.273H63.3267ZM68.4749 246.935C68.4749 246.266 67.9325 245.724 67.2635 245.724C66.5945 245.724 66.0522 246.266 66.0522 246.935C66.0522 247.604 66.5945 248.146 67.2635 248.146C67.9325 248.146 68.4749 247.604 68.4749 246.935ZM61.8125 246.935C62.4815 246.935 63.0238 247.477 63.0238 248.146C63.0238 248.815 62.4815 249.358 61.8125 249.358C61.1435 249.358 60.6012 248.815 60.6012 248.146C60.6012 247.477 61.1435 246.935 61.8125 246.935ZM68.4749 242.695V240.878H63.6295V242.695H68.4749Z" fill="#757575"/>
<rect width="36.6094" height="22.0733" transform="translate(46.5361 278.497)" fill="white"/>
<path fill-rule="evenodd" clip-rule="evenodd" d="M61.9132 285.226C61.9132 285.058 61.7776 284.923 61.6104 284.923C61.4431 284.923 61.3075 285.058 61.3075 285.226V287.373L62.5162 288.539C62.549 288.584 62.5526 288.629 62.5444 288.66C62.5401 288.676 62.5325 288.688 62.5225 288.698C62.513 288.708 62.4962 288.72 62.4656 288.727L61.3075 289.029V289.876L60.584 290.205L60.5718 290.212C60.0857 290.49 60.0857 291.187 60.5718 291.464L61.3075 291.866V292.09C61.3075 292.367 61.0797 292.595 60.8028 292.595H60.399C60.2318 292.595 60.0962 292.73 60.0962 292.897C60.0962 293.065 60.2318 293.2 60.399 293.2H60.8028C61.4142 293.2 61.9132 292.701 61.9132 292.09V291.506L60.8705 290.938C60.796 290.893 60.7938 290.791 60.8639 290.743L61.9132 290.266V289.497L62.6142 289.314C62.8826 289.247 63.0658 289.053 63.1293 288.817C63.1911 288.587 63.1354 288.335 62.9736 288.141L62.963 288.128L61.9132 287.116V285.226ZM64.74 286.842C64.74 286.565 64.9678 286.337 65.2447 286.337H68.475C68.7519 286.337 68.9797 286.565 68.9797 286.842V290.072C68.9797 290.349 68.7519 290.577 68.475 290.577H63.8315L64.74 289.365V286.842ZM65.2447 285.731C64.6333 285.731 64.1343 286.23 64.1343 286.842V289.163L62.6201 291.182H68.475C69.0864 291.182 69.5853 290.683 69.5853 290.072V286.842C69.5853 286.23 69.0864 285.731 68.475 285.731H65.2447ZM65.7493 287.346H67.9701V287.952H65.7493V287.346ZM67.1625 288.961H65.7493V289.567H67.1625V288.961Z" fill="#757575"/>
<rect width="36.6094" height="22.0733" transform="translate(46.5361 344.717)" fill="white"/>
<path d="M68.7777 351.85H67.2635V350.942C67.2635 350.76 67.1424 350.639 66.9607 350.639C66.779 350.639 66.6579 350.76 66.6579 350.942V351.85H63.0238V350.942C63.0238 350.76 62.9027 350.639 62.721 350.639C62.5393 350.639 62.4182 350.76 62.4182 350.942V351.85H60.904C60.4195 351.85 59.9955 352.274 59.9955 352.759V353.97V359.421C59.9955 359.906 60.4195 360.33 60.904 360.33H68.7777C69.2622 360.33 69.6862 359.906 69.6862 359.421V353.97V352.759C69.6862 352.274 69.2622 351.85 68.7777 351.85ZM69.0805 359.421C69.0805 359.603 68.9594 359.724 68.7777 359.724H60.904C60.7223 359.724 60.6012 359.603 60.6012 359.421V354.273H69.0805V359.421ZM69.0805 353.667H60.6012V352.759C60.6012 352.577 60.7223 352.456 60.904 352.456H62.721H66.9607H68.7777C68.9594 352.456 69.0805 352.577 69.0805 352.759V353.667Z" fill="#757575"/>
<rect width="36.6094" height="22.0733" transform="translate(46.5361 256.424)" fill="white"/>
<path d="M69.6256 264.829L67.203 262.407C67.0818 262.286 66.9001 262.286 66.779 262.407L60.7223 268.463C60.6617 268.524 60.6012 268.584 60.6012 268.645L59.9955 271.673C59.9955 271.795 59.9955 271.855 60.0561 271.976C60.1772 272.037 60.2378 272.037 60.3589 272.037L63.3872 271.431C63.4478 271.431 63.5084 271.371 63.5689 271.371L69.6256 265.314C69.6862 265.193 69.6862 264.95 69.6256 264.829ZM63.2055 270.825L60.7223 271.31L61.2068 268.827L65.4465 264.587L67.4452 266.586L63.2055 270.825ZM67.8692 266.162L65.8705 264.163L66.9607 263.073L68.9594 265.072L67.8692 266.162Z" fill="#757575"/>
<rect width="36.6094" height="22.0733" transform="translate(46.5361 322.644)" fill="white"/>
<path fill-rule="evenodd" clip-rule="evenodd" d="M60.7409 330.073H68.9408C68.9471 330.073 68.9554 330.075 68.966 330.086C68.9769 330.097 68.9863 330.115 68.9863 330.14V336.278C68.9863 336.303 68.9769 336.321 68.966 336.333C68.9554 336.344 68.9471 336.345 68.9408 336.345H60.7409C60.7346 336.345 60.7263 336.344 60.7157 336.333C60.7047 336.321 60.6954 336.303 60.6954 336.278V330.14C60.6954 330.115 60.7047 330.097 60.7157 330.086C60.7263 330.075 60.7346 330.073 60.7409 330.073ZM68.9408 329.373H60.7409C60.3291 329.373 59.9955 329.716 59.9955 330.14V336.278C59.9955 336.702 60.3291 337.045 60.7409 337.045H68.9408C69.3526 337.045 69.6862 336.702 69.6862 336.278V330.14C69.6862 329.716 69.3526 329.373 68.9408 329.373ZM64.2352 331.796C64.2352 331.461 64.5063 331.19 64.8408 331.19C65.1753 331.19 65.4465 331.461 65.4465 331.796C65.4465 332.13 65.1753 332.402 64.8408 332.402C64.5063 332.402 64.2352 332.13 64.2352 331.796ZM64.8408 330.585C64.1718 330.585 63.6295 331.127 63.6295 331.796C63.6295 332.465 64.1718 333.007 64.8408 333.007C65.5098 333.007 66.0522 332.465 66.0522 331.796C66.0522 331.127 65.5098 330.585 64.8408 330.585ZM64.538 334.219C64.1364 334.219 63.7513 334.378 63.4673 334.662C63.2558 334.874 63.1134 335.141 63.0544 335.43H66.6273C66.5683 335.141 66.4259 334.874 66.2144 334.662C65.9304 334.378 65.5453 334.219 65.1437 334.219H64.538ZM63.0391 334.234C63.4366 333.836 63.9758 333.613 64.538 333.613H65.1437C65.7059 333.613 66.2451 333.836 66.6426 334.234C67.0402 334.631 67.2635 335.17 67.2635 335.733C67.2635 335.9 67.1279 336.036 66.9607 336.036H62.721C62.5537 336.036 62.4182 335.9 62.4182 335.733C62.4182 335.17 62.6415 334.631 63.0391 334.234ZM62.721 337.651H66.9607C67.1424 337.651 67.2635 337.772 67.2635 337.953C67.2635 338.135 67.1424 338.256 66.9607 338.256H62.721C62.5393 338.256 62.4182 338.135 62.4182 337.953C62.4182 337.772 62.5393 337.651 62.721 337.651Z" fill="#757575"/>
<rect width="36.6094" height="22.0733" transform="translate(46.5361 300.57)" fill="white"/>
<rect x="52.9966" y="301.647" width="24.079" height="19.9198" rx="2.69187" fill="#9941FF"/>
<path fill-rule="evenodd" clip-rule="evenodd" d="M60.9039 310.127C60.9039 308.816 61.4347 307.629 62.2928 306.771L62.7211 307.199C61.9721 307.948 61.5096 308.982 61.5096 310.127C61.5096 311.271 61.9721 312.305 62.7211 313.054L62.2928 313.482C61.4347 312.624 60.9039 311.437 60.9039 310.127ZM62.5191 310.127C62.5191 308.372 63.8942 306.997 65.6483 306.997C67.4025 306.997 68.7776 308.372 68.7776 310.127H68.172C68.172 308.707 67.068 307.603 65.6483 307.603C64.2287 307.603 63.1247 308.707 63.1247 310.127C63.1247 310.578 63.262 311.089 63.5191 311.555L63.5191 311.555C63.855 312.164 64.2449 312.468 64.5892 312.733C64.5893 312.733 64.5894 312.733 64.5895 312.733L64.5996 312.741C64.9209 312.987 65.2234 313.218 65.3829 313.707C65.6065 314.385 65.8737 314.721 66.3298 314.962C66.494 315.035 66.6748 315.073 66.8597 315.073C67.5848 315.073 68.172 314.486 68.172 313.761H68.7776C68.7776 314.82 67.9193 315.679 66.8597 315.679C66.5872 315.679 66.3186 315.621 66.073 315.51L66.0651 315.507L66.0573 315.503C65.42 315.17 65.0672 314.683 64.8076 313.896L64.8073 313.895C64.7101 313.597 64.5494 313.465 64.2206 313.214L64.2199 313.213C63.8617 312.937 63.3877 312.571 62.9888 311.848C62.6886 311.304 62.5191 310.693 62.5191 310.127ZM64.3361 310.127C64.3361 309.402 64.9239 308.814 65.6483 308.814C66.3728 308.814 66.9606 309.402 66.9606 310.127C66.9606 310.851 66.3728 311.439 65.6483 311.439C64.9239 311.439 64.3361 310.851 64.3361 310.127ZM65.6483 309.42C65.2584 309.42 64.9417 309.737 64.9417 310.127C64.9417 310.517 65.2584 310.833 65.6483 310.833C66.0383 310.833 66.355 310.517 66.355 310.127C66.355 309.737 66.0383 309.42 65.6483 309.42Z" fill="white"/>
<g filter="url(#filter2_d_1378_37171)">
<path d="M100.373 179.975C100.373 177.596 102.302 175.668 104.68 175.668H310.339C312.718 175.668 314.646 177.596 314.646 179.975V277.42C314.646 279.799 312.718 281.727 310.339 281.727H104.68C102.302 281.727 100.373 279.799 100.373 277.42V179.975Z" fill="white"/>
</g>
<g clip-path="url(#clip4_1378_37171)">
<path fill-rule="evenodd" clip-rule="evenodd" d="M299.639 192.223H302.243C302.728 192.223 303.212 192.405 303.515 192.828C303.818 193.131 303.939 193.616 303.878 194.1L303.394 196.886C303.273 197.674 302.607 198.28 301.819 198.28H296.61V193.434C296.671 193.434 298.064 188.892 298.064 188.892C298.064 188.71 298.246 188.589 298.427 188.589C299.154 188.589 299.639 188.892 299.639 189.8V192.223ZM294.188 193.434H295.399V198.28H294.188V193.434Z" fill="#9941FF"/>
</g>
<path fill-rule="evenodd" clip-rule="evenodd" d="M127.427 191.953C127.427 193.838 125.946 195.318 124.062 195.318C122.178 195.318 120.697 193.838 120.697 191.953C120.697 190.069 122.178 188.589 124.062 188.589C125.946 188.589 127.427 190.069 127.427 191.953ZM126.081 191.953C126.081 190.877 125.139 189.935 124.062 189.935C122.985 189.935 122.043 190.877 122.043 191.953C122.043 193.03 122.985 193.972 124.062 193.972C125.139 193.972 126.081 193.03 126.081 191.953ZM133.483 193.972C133.483 195.453 132.272 196.664 130.792 196.664C129.311 196.664 128.1 195.453 128.1 193.972C128.1 192.492 129.311 191.28 130.792 191.28C132.272 191.28 133.483 192.492 133.483 193.972ZM132.138 193.972C132.138 193.165 131.599 192.626 130.792 192.626C129.984 192.626 129.446 193.165 129.446 193.972C129.446 194.78 129.984 195.318 130.792 195.318C131.599 195.318 132.138 194.78 132.138 193.972ZM129.446 200.029C129.446 199.087 129.042 198.279 128.503 197.606C127.831 197.068 127.023 196.664 126.081 196.664H122.043C121.101 196.664 120.293 197.068 119.62 197.606C119.082 198.279 118.678 199.087 118.678 200.029V204.067C118.678 204.471 118.947 204.74 119.351 204.74H120.024V209.451C120.024 209.854 120.293 210.124 120.697 210.124H127.427C127.831 210.124 128.1 209.854 128.1 209.451V204.74H128.773C129.176 204.74 129.446 204.471 129.446 204.067V200.029ZM128.1 203.394H127.427C127.023 203.394 126.754 203.663 126.754 204.067V208.778H121.37V204.067C121.37 203.663 121.101 203.394 120.697 203.394H120.024V200.029C120.024 199.491 120.293 198.952 120.562 198.549C120.832 198.145 121.505 198.01 122.043 198.01H126.081C126.619 198.01 127.158 198.279 127.561 198.549C127.831 198.952 128.1 199.491 128.1 200.029V203.394ZM132.81 198.01C133.349 198.01 133.887 198.279 134.291 198.549C134.56 198.952 134.829 199.491 134.829 200.029V204.067C134.829 204.471 134.56 204.74 134.156 204.74H133.483V208.105C133.483 208.508 133.214 208.778 132.81 208.778H130.119C129.715 208.778 129.446 208.508 129.446 208.105C129.446 207.701 129.715 207.432 130.119 207.432H132.138V204.067C132.138 203.663 132.407 203.394 132.81 203.394H133.483V200.029C133.483 199.962 133.45 199.861 133.416 199.76C133.382 199.659 133.349 199.558 133.349 199.491C133.282 199.491 133.181 199.457 133.08 199.423C132.979 199.39 132.878 199.356 132.81 199.356H131.465C131.061 199.356 130.792 199.087 130.792 198.683C130.792 198.279 131.061 198.01 131.465 198.01H132.81ZM117.332 196.664C118.813 196.664 120.024 195.453 120.024 193.972C120.024 192.492 118.813 191.28 117.332 191.28C115.852 191.28 114.64 192.492 114.64 193.972C114.64 195.453 115.852 196.664 117.332 196.664ZM117.332 192.626C118.14 192.626 118.678 193.165 118.678 193.972C118.678 194.78 118.14 195.318 117.332 195.318C116.525 195.318 115.986 194.78 115.986 193.972C115.986 193.165 116.525 192.626 117.332 192.626ZM115.986 207.432H118.005C118.409 207.432 118.678 207.701 118.678 208.105C118.678 208.508 118.409 208.778 118.005 208.778H115.313C114.91 208.778 114.64 208.508 114.64 208.105V204.74H113.967C113.564 204.74 113.294 204.471 113.294 204.067V200.029C113.294 199.491 113.429 198.818 113.833 198.549C114.237 198.279 114.775 198.01 115.313 198.01H116.659C117.063 198.01 117.332 198.279 117.332 198.683C117.332 199.087 117.063 199.356 116.659 199.356H115.313C115.246 199.356 115.145 199.39 115.044 199.423C114.943 199.457 114.842 199.491 114.775 199.491C114.775 199.558 114.741 199.659 114.708 199.76C114.674 199.861 114.64 199.962 114.64 200.029V203.394H115.313C115.717 203.394 115.986 203.663 115.986 204.067V207.432Z" fill="#757575"/>
<rect x="113.294" y="221.968" width="60.8362" height="16.6896" fill="#757575"/>
<rect x="181.129" y="221.968" width="33.9175" height="16.6896" fill="#757575"/>
<rect x="113.294" y="243.503" width="160.435" height="8.61397" fill="#E6E6E6"/>
<rect x="113.294" y="256.424" width="136.208" height="8.61397" fill="#E6E6E6"/>
<rect x="246.811" y="190.742" width="42.5315" height="7.53723" fill="#E6E6E6"/>
<g filter="url(#filter3_d_1378_37171)">
<path fill-rule="evenodd" clip-rule="evenodd" d="M334.566 43.5402C334.566 41.8811 335.911 40.5361 337.57 40.5361H631.974C633.633 40.5361 634.978 41.8811 634.978 43.5403V279.364C634.978 281.023 633.633 282.368 631.974 282.368H337.57C335.911 282.368 334.566 281.023 334.566 279.364V43.5402Z" fill="white"/>
</g>
<g clip-path="url(#clip5_1378_37171)">
<rect x="358.849" y="99.3666" width="121.667" height="24.5337" rx="2.75378" fill="white" stroke="#1A1A1A" stroke-width="0.500687"/>
<rect x="365.609" y="112.134" width="70.5969" height="7.51031" fill="#757575"/>
<rect x="365.609" y="103.622" width="36.0495" height="6.00825" fill="#E6E6E6"/>
</g>
<g clip-path="url(#clip6_1378_37171)">
<rect x="489.028" y="99.3666" width="121.667" height="24.5337" rx="2.75378" fill="white" stroke="#E6E6E6" stroke-width="0.500687"/>
</g>
<g clip-path="url(#clip7_1378_37171)">
<rect x="358.849" y="132.412" width="251.846" height="24.5337" rx="2.75378" fill="white" stroke="#E6E6E6" stroke-width="0.500687"/>
<rect x="365.609" y="140.674" width="127.675" height="8.01099" fill="#E6E6E6"/>
</g>
<rect x="495.787" y="107.628" width="70.5969" height="8.01099" fill="#E6E6E6"/>
<g clip-path="url(#clip8_1378_37171)">
<rect x="358.849" y="165.457" width="251.846" height="24.5337" rx="2.75378" fill="white" stroke="#E6E6E6" stroke-width="0.500687"/>
<rect x="365.609" y="173.719" width="127.675" height="8.01099" fill="#E6E6E6"/>
</g>
<rect x="614.951" y="44.5415" width="16.0219" height="16.022" rx="8.01096" fill="white"/>
<g clip-path="url(#clip9_1378_37171)">
<path d="M625.477 50.0355C625.327 49.8853 625.101 49.8853 624.951 50.0355L622.961 52.0257L620.971 50.0355C620.821 49.8853 620.595 49.8853 620.445 50.0355C620.295 50.1857 620.295 50.411 620.445 50.5612L622.435 52.5515L620.445 54.5417C620.295 54.6919 620.295 54.9172 620.445 55.0674C620.52 55.1425 620.595 55.1801 620.708 55.1801C620.821 55.1801 620.896 55.1425 620.971 55.0674L622.961 53.0772L624.951 55.0674C625.026 55.1425 625.139 55.1801 625.214 55.1801C625.289 55.1801 625.402 55.1425 625.477 55.0674C625.627 54.9172 625.627 54.6919 625.477 54.5417L623.487 52.5515L625.477 50.5612C625.627 50.411 625.627 50.1857 625.477 50.0355Z" fill="#757575"/>
</g>
<rect x="422.687" y="234.302" width="60.0825" height="24.033" rx="3.00412" fill="#757575"/>
<rect x="358.599" y="206.264" width="12.0165" height="12.0165" rx="1.50206" fill="#757575"/>
<path d="M361.603 212.886L363.205 214.525L367.611 210.019" stroke="white" stroke-width="1.00137" stroke-linecap="square"/>
<rect x="358.849" y="234.552" width="59.5818" height="23.5323" rx="2.75378" stroke="#757575" stroke-width="0.500687"/>
<rect x="375.622" y="208.266" width="35.5488" height="8.01099" fill="#E6E6E6"/>
<rect x="413.674" y="208.266" width="61.0838" height="8.01099" fill="#757575"/>
<rect x="430.698" y="242.313" width="44.0605" height="8.01099" fill="#757575"/>
<rect x="366.61" y="242.313" width="44.0605" height="8.01099" fill="#757575"/>
<rect x="358.599" y="64.5688" width="97.634" height="12.5172" fill="#757575"/>
<g filter="url(#filter4_d_1378_37171)">
<g clip-path="url(#clip10_1378_37171)">
<path fill-rule="evenodd" clip-rule="evenodd" d="M235.505 297.878C235.505 296.689 236.469 295.725 237.659 295.725H553.145C554.335 295.725 555.299 296.689 555.299 297.878V322.644C555.299 323.833 554.335 324.797 553.145 324.797H237.659C236.469 324.797 235.505 323.833 235.505 322.644V297.878Z" fill="white"/>
<rect x="536.994" y="296.802" width="17.2279" height="17.2279" rx="8.61397" fill="white"/>
<g clip-path="url(#clip11_1378_37171)">
<path d="M548.313 302.71C548.151 302.548 547.909 302.548 547.747 302.71L545.607 304.85L543.467 302.71C543.306 302.548 543.064 302.548 542.902 302.71C542.741 302.871 542.741 303.114 542.902 303.275L545.042 305.415L542.902 307.555C542.741 307.717 542.741 307.959 542.902 308.12C542.983 308.201 543.064 308.242 543.185 308.242C543.306 308.242 543.387 308.201 543.467 308.12L545.607 305.98L547.747 308.12C547.828 308.201 547.949 308.242 548.03 308.242C548.111 308.242 548.232 308.201 548.313 308.12C548.474 307.959 548.474 307.717 548.313 307.555L546.173 305.415L548.313 303.275C548.474 303.114 548.474 302.871 548.313 302.71Z" fill="#757575"/>
</g>
<path d="M251.656 304.877C248.695 304.877 246.273 307.3 246.273 310.261C246.273 313.222 248.695 315.645 251.656 315.645C254.617 315.645 257.04 313.222 257.04 310.261C257.04 307.3 254.617 304.877 251.656 304.877ZM250.983 312.549L248.695 310.261L249.637 309.319L250.983 310.665L253.675 307.973L254.617 308.915L250.983 312.549Z" fill="#F89B85"/>
<rect x="263.5" y="305.954" width="97.9839" height="8.61397" fill="#F89B85"/>
</g>
</g>
<g filter="url(#filter5_d_1378_37171)">
<g clip-path="url(#clip12_1378_37171)">
<path fill-rule="evenodd" clip-rule="evenodd" d="M235.505 334.488C235.505 333.299 236.469 332.334 237.659 332.334H553.145C554.335 332.334 555.299 333.299 555.299 334.488V359.253C555.299 360.442 554.335 361.407 553.145 361.407H237.659C236.469 361.407 235.505 360.442 235.505 359.253V334.488Z" fill="white"/>
<g clip-path="url(#clip13_1378_37171)">
<path fill-rule="evenodd" clip-rule="evenodd" d="M254.325 341.57C254.477 341.515 254.637 341.487 254.798 341.487C256.077 341.487 257.041 343.222 257.041 345.524C257.041 347.826 256.077 349.562 254.798 349.562C254.637 349.562 254.478 349.534 254.327 349.479L247.485 347.298C247.111 347.185 246.786 346.948 246.566 346.625C246.346 346.303 246.242 345.914 246.274 345.524C246.243 345.133 246.348 344.742 246.571 344.418C246.794 344.095 247.121 343.857 247.498 343.747L254.325 341.57ZM253.452 345.524C253.452 347.322 254.163 348.665 254.798 348.665C255.433 348.665 256.144 347.322 256.144 345.524C256.144 343.727 255.433 342.384 254.798 342.384C254.163 342.384 253.452 343.727 253.452 345.524ZM255.246 345.525C255.245 345.195 255.123 344.877 254.903 344.632C254.683 344.386 254.381 344.23 254.053 344.194C253.949 344.63 253.898 345.076 253.9 345.525C253.898 345.973 253.949 346.419 254.053 346.855C254.381 346.819 254.683 346.663 254.903 346.417C255.123 346.172 255.245 345.854 255.246 345.525ZM251.507 349.523L248.91 348.695L250.091 351.6C250.142 351.727 250.218 351.843 250.314 351.941C250.41 352.039 250.525 352.117 250.651 352.171C250.777 352.225 250.913 352.253 251.05 352.254C251.188 352.256 251.324 352.23 251.451 352.179C251.578 352.127 251.694 352.051 251.792 351.955C251.89 351.859 251.968 351.745 252.022 351.618C252.076 351.492 252.104 351.357 252.105 351.219C252.107 351.082 252.081 350.946 252.03 350.819L251.507 349.523Z" fill="#D6219C"/>
</g>
<rect x="263.501" y="342.563" width="146.438" height="8.61397" fill="#D6219C"/>
<rect x="536.994" y="333.411" width="17.2279" height="17.2279" rx="8.61397" fill="white"/>
<g clip-path="url(#clip14_1378_37171)">
<path d="M548.313 339.319C548.151 339.157 547.909 339.157 547.747 339.319L545.607 341.459L543.467 339.319C543.306 339.157 543.064 339.157 542.902 339.319C542.741 339.48 542.741 339.723 542.902 339.884L545.042 342.024L542.902 344.164C542.741 344.326 542.741 344.568 542.902 344.73C542.983 344.81 543.064 344.851 543.185 344.851C543.306 344.851 543.387 344.81 543.467 344.73L545.607 342.59L547.747 344.73C547.828 344.81 547.949 344.851 548.03 344.851C548.111 344.851 548.232 344.81 548.313 344.73C548.474 344.568 548.474 344.326 548.313 344.164L546.173 342.024L548.313 339.884C548.474 339.723 548.474 339.48 548.313 339.319Z" fill="#757575"/>
</g>
</g>
</g>
<g filter="url(#filter6_d_1378_37171)">
<g clip-path="url(#clip15_1378_37171)">
<path fill-rule="evenodd" clip-rule="evenodd" d="M235.505 371.097C235.505 369.908 236.469 368.944 237.659 368.944H553.145C554.335 368.944 555.299 369.908 555.299 371.097V395.862C555.299 397.052 554.335 398.016 553.145 398.016H237.659C236.469 398.016 235.505 397.052 235.505 395.862V371.097Z" fill="white"/>
<path d="M251.656 378.096C248.695 378.096 246.273 380.519 246.273 383.48C246.273 386.441 248.695 388.864 251.656 388.864C254.617 388.864 257.04 386.441 257.04 383.48C257.04 380.519 254.617 378.096 251.656 378.096ZM251.656 387.518C249.436 387.518 247.619 385.701 247.619 383.48C247.619 381.259 249.436 379.442 251.656 379.442C253.877 379.442 255.694 381.259 255.694 383.48C255.694 385.701 253.877 387.518 251.656 387.518Z" fill="black"/>
<path d="M252.329 382.807H250.983V386.172H252.329V382.807Z" fill="black"/>
<path d="M251.656 382.134C252.028 382.134 252.329 381.833 252.329 381.461C252.329 381.089 252.028 380.788 251.656 380.788C251.285 380.788 250.983 381.089 250.983 381.461C250.983 381.833 251.285 382.134 251.656 382.134Z" fill="black"/>
<rect x="263.501" y="379.173" width="122.211" height="8.61397" fill="#9941FF"/>
<rect x="536.994" y="370.021" width="17.2279" height="17.2279" rx="8.61397" fill="white"/>
<g clip-path="url(#clip16_1378_37171)">
<path d="M548.313 375.928C548.151 375.767 547.909 375.767 547.747 375.928L545.607 378.068L543.467 375.928C543.306 375.767 543.064 375.767 542.902 375.928C542.741 376.09 542.741 376.332 542.902 376.494L545.042 378.634L542.902 380.774C542.741 380.935 542.741 381.178 542.902 381.339C542.983 381.42 543.064 381.46 543.185 381.46C543.306 381.46 543.387 381.42 543.467 381.339L545.607 379.199L547.747 381.339C547.828 381.42 547.949 381.46 548.03 381.46C548.111 381.46 548.232 381.42 548.313 381.339C548.474 381.178 548.474 380.935 548.313 380.774L546.173 378.634L548.313 376.494C548.474 376.332 548.474 376.09 548.313 375.928Z" fill="#757575"/>
</g>
</g>
</g>
<g filter="url(#filter7_d_1378_37171)">
<g clip-path="url(#clip17_1378_37171)">
<path fill-rule="evenodd" clip-rule="evenodd" d="M235.505 412.706C235.505 410.922 236.951 409.475 238.735 409.475H402.939C404.723 409.475 406.169 410.922 406.169 412.706V474.08C406.169 475.864 404.723 477.31 402.939 477.31H238.735C236.951 477.31 235.505 475.864 235.505 474.08V412.706Z" fill="white"/>
<path fill-rule="evenodd" clip-rule="evenodd" d="M235.505 412.167C235.505 410.681 236.71 409.475 238.197 409.475V409.475V477.31V477.31C236.71 477.31 235.505 476.105 235.505 474.619V412.167Z" fill="#1C8731"/>
<path fill-rule="evenodd" clip-rule="evenodd" d="M267.807 453.084C267.807 451.597 269.013 450.392 270.499 450.392H314.108C315.594 450.392 316.799 451.597 316.799 453.084V463.851C316.799 465.338 315.594 466.543 314.108 466.543H270.499C269.013 466.543 267.807 465.338 267.807 463.851V453.084Z" fill="#1C8731"/>
<path d="M253.002 420.243C249.597 420.243 246.811 423.029 246.811 426.434C246.811 429.839 249.597 432.625 253.002 432.625C256.407 432.625 259.194 429.839 259.194 426.434C259.194 423.029 256.407 420.243 253.002 420.243ZM252.228 429.065L249.597 426.434L250.68 425.351L252.228 426.898L255.324 423.803L256.407 424.886L252.228 429.065Z" fill="#1C8731"/>
<rect x="267.807" y="420.243" width="71.0653" height="10.7675" fill="#757575"/>
<rect x="267.807" y="436.932" width="127.594" height="8.61397" fill="#E6E6E6"/>
<rect opacity="0.7" x="274.268" y="455.237" width="36.071" height="6.46048" fill="white"/>
</g>
</g>
<rect x="419.09" y="408.783" width="149.668" height="38.7629" fill="#E6E6E6"/>
<circle cx="439.01" cy="428.165" r="12.921" fill="#757575"/>
<rect x="458.392" y="416.859" width="71.0653" height="10.7675" fill="#757575"/>
<rect x="458.392" y="430.857" width="101.753" height="8.61397" fill="#757575"/>
<g clip-path="url(#clip18_1378_37171)">
<path fill-rule="evenodd" clip-rule="evenodd" d="M441.971 424.666C441.971 426.301 440.645 427.627 439.01 427.627C437.375 427.627 436.049 426.301 436.049 424.666C436.049 423.03 437.375 421.704 439.01 421.704C440.645 421.704 441.971 423.03 441.971 424.666ZM434.075 431.903C434.075 430.692 435.679 428.614 439.01 428.614C442.341 428.614 443.945 430.692 443.945 431.903V432.562C443.945 432.823 443.841 433.075 443.656 433.26C443.471 433.445 443.22 433.549 442.958 433.549H435.062C434.8 433.549 434.549 433.445 434.364 433.26C434.179 433.075 434.075 432.823 434.075 432.562V431.903Z" fill="#757575"/>
</g>
<circle cx="447.893" cy="437.048" r="3.49943" fill="#757575" stroke="#E6E6E6" stroke-width="1.07675"/>
<rect x="419.09" y="450.238" width="149.668" height="38.7629" fill="#E6E6E6"/>
<circle cx="439.01" cy="469.62" r="12.921" fill="#757575"/>
<rect x="458.392" y="458.314" width="41.4547" height="10.7675" fill="#757575"/>
<g clip-path="url(#clip19_1378_37171)">
<path fill-rule="evenodd" clip-rule="evenodd" d="M439.01 466.12C439.828 466.12 440.491 465.457 440.491 464.64C440.491 463.822 439.828 463.159 439.01 463.159C438.192 463.159 437.53 463.822 437.53 464.64C437.53 465.457 438.192 466.12 439.01 466.12ZM434.569 467.971C435.386 467.971 436.049 467.308 436.049 466.49C436.049 465.673 435.386 465.01 434.569 465.01C433.751 465.01 433.088 465.673 433.088 466.49C433.088 467.308 433.751 467.971 434.569 467.971ZM444.932 466.49C444.932 467.308 444.269 467.971 443.452 467.971C442.634 467.971 441.971 467.308 441.971 466.49C441.971 465.673 442.634 465.01 443.452 465.01C444.269 465.01 444.932 465.673 444.932 466.49ZM439.01 471.672C440.237 471.672 441.231 470.678 441.231 469.451C441.231 468.225 440.237 467.231 439.01 467.231C437.784 467.231 436.789 468.225 436.789 469.451C436.789 470.678 437.784 471.672 439.01 471.672ZM436.539 472.561C438.1 472.364 439.92 472.364 441.481 472.561C442.399 472.676 443.082 473.47 443.082 474.396V474.634C443.082 474.839 442.916 475.003 442.711 475.003H435.309C435.104 475.003 434.939 474.839 434.939 474.542V474.396C434.939 473.47 435.621 472.676 436.539 472.561Z" fill="#757575"/>
</g>
<g filter="url(#filter8_d_1378_37171)">
<path fill-rule="evenodd" clip-rule="evenodd" d="M52.9966 395.787C52.9966 394.003 54.4428 392.557 56.2268 392.557H217.739C219.523 392.557 220.969 394.003 220.969 395.787V462.545C220.969 464.329 219.523 465.775 217.739 465.775H56.2268C54.4428 465.775 52.9966 464.329 52.9966 462.545V395.787Z" fill="white"/>
</g>
<g clip-path="url(#clip20_1378_37171)">
<path d="M80.4537 411.4C80.4537 407.846 77.5465 404.939 73.9932 404.939C70.4399 404.939 67.5327 407.846 67.5327 411.4C67.5327 413.769 68.8248 415.922 70.763 416.999V418.937H77.2234V416.999C79.1616 415.922 80.4537 413.769 80.4537 411.4Z" fill="#9941FF"/>
<path d="M72.9164 422.167H75.0699C76.2543 422.167 77.2234 421.198 77.2234 420.014H70.7629C70.7629 421.198 71.732 422.167 72.9164 422.167Z" fill="#9941FF"/>
</g>
<path fill-rule="evenodd" clip-rule="evenodd" d="M52.9966 395.249C52.9966 393.762 54.2018 392.557 55.6884 392.557V392.557V465.775V465.775C54.2018 465.775 52.9966 464.57 52.9966 463.084V395.249Z" fill="#9941FF"/>
<rect x="185.706" y="437.511" width="26.9187" height="16.6896" rx="8.34479" stroke="#9941FF" stroke-width="0.538373"/>
<rect x="195.127" y="442.625" width="8.0756" height="6.46048" fill="#9941FF"/>
<rect x="93.913" y="406.554" width="31.2257" height="9.69072" fill="#9B9DA3"/>
<rect x="93.913" y="421.629" width="66.2199" height="7.53723" fill="#E6E6E6"/>
<rect x="93.913" y="433.473" width="66.2199" height="7.53723" fill="#E6E6E6"/>
<rect x="93.913" y="445.856" width="50.0687" height="7.53723" fill="#E6E6E6"/>
<g filter="url(#filter9_d_1378_37171)">
<rect x="582.756" y="303.262" width="323.024" height="188.431" rx="4.30699" fill="white"/>
</g>
<rect x="595.677" y="386.172" width="297.182" height="8.61397" fill="#E6E6E6"/>
<rect x="595.677" y="414.167" width="297.182" height="8.61397" fill="#E6E6E6"/>
<rect x="595.677" y="400.169" width="297.182" height="8.61397" fill="#E6E6E6"/>
<rect x="595.677" y="428.165" width="141.054" height="8.61397" fill="#E6E6E6"/>
<rect x="595.677" y="459.929" width="63.528" height="8.61397" fill="#D6219C"/>
<path d="M582.756 307.569C582.756 305.191 584.684 303.262 587.063 303.262H901.473C903.852 303.262 905.78 305.191 905.78 307.569V374.866H582.756V307.569Z" fill="#E6E6E6"/>
<g clip-path="url(#clip21_1378_37171)">
<path fill-rule="evenodd" clip-rule="evenodd" d="M765.466 352.187C765.668 352.389 765.87 352.389 766.072 352.389C766.88 352.389 767.687 351.783 768.091 350.976L776.167 326.749C776.57 325.538 775.965 324.528 774.955 324.124C773.744 323.721 772.734 324.326 772.331 325.336L764.255 349.563C763.851 350.774 764.457 351.783 765.466 352.187ZM760.621 345.726L754.564 339.669C753.757 338.862 753.757 337.65 754.564 336.843L760.621 330.786L763.447 333.613L758.804 338.256L763.447 342.899L760.621 345.726ZM779.599 345.726L776.772 342.899L781.416 338.256L776.772 333.613L779.599 330.786L785.655 336.843C786.463 337.65 786.463 338.862 785.655 339.669L779.599 345.726Z" fill="#757575"/>
</g>
<g clip-path="url(#clip22_1378_37171)">
<path fill-rule="evenodd" clip-rule="evenodd" d="M804.566 325.667C804.566 324.294 805.678 323.182 807.051 323.182H834.383C835.756 323.182 836.868 324.294 836.868 325.667V345.545C836.868 346.918 835.756 348.03 834.383 348.03H807.051C805.678 348.03 804.566 346.918 804.566 345.545V325.667ZM828.793 351.447H812.641C811.43 351.447 810.622 352.254 810.622 353.466C810.622 354.677 811.43 355.484 812.641 355.484H828.793C830.004 355.484 830.811 354.677 830.811 353.466C830.811 352.254 830.004 351.447 828.793 351.447ZM817.277 330.659C817.277 328.76 818.817 327.22 820.717 327.22C822.617 327.22 824.157 328.76 824.157 330.659C824.157 332.559 822.617 334.099 820.717 334.099C818.817 334.099 817.277 332.559 817.277 330.659ZM815.601 338.404C816.73 337.276 818.261 336.641 819.857 336.641H821.577C823.173 336.641 824.705 337.276 825.833 338.404C826.962 339.533 827.596 341.064 827.596 342.661C827.596 343.136 827.211 343.521 826.736 343.521H814.698C814.47 343.521 814.251 343.43 814.09 343.269C813.929 343.107 813.838 342.889 813.838 342.661C813.838 341.064 814.472 339.533 815.601 338.404Z" fill="#757575"/>
</g>
<g clip-path="url(#clip23_1378_37171)">
<path d="M871.324 322.105V332.161C873.435 332.656 875.051 334.655 875.051 337.014C875.051 338.504 874.42 339.746 873.304 340.741L877.769 344.468H878.041C879.036 344.468 879.904 345.337 879.904 346.332C879.904 347.327 879.152 348.196 878.157 348.196C877.162 348.196 876.294 347.443 876.294 346.448L870.936 341.984H870.082C867.349 341.984 865.112 339.746 865.112 337.014C865.112 334.655 866.728 332.782 868.839 332.161V322.222C861.88 322.843 856.415 328.691 856.415 335.772C856.415 339.004 857.551 341.877 859.288 344.235C860.531 345.852 861.385 347.836 861.385 349.826V350.447C861.385 351.069 861.773 351.564 862.394 351.69L874.818 354.408C875.566 354.655 876.294 354.034 876.294 353.165V351.302L878.39 351.418C881.249 351.666 883.748 349.428 883.748 346.448V342.605L886.349 341.246C886.97 340.998 887.228 340.236 886.854 339.615L883.631 334.141C882.884 327.803 877.783 322.726 871.324 322.105ZM870.082 334.529C868.708 334.529 867.597 335.641 867.597 337.014C867.597 338.387 868.708 339.499 870.082 339.499C871.455 339.499 872.566 338.387 872.566 337.014C872.566 335.641 871.455 334.529 870.082 334.529Z" fill="#757575"/>
</g>
<rect x="582.756" y="449.7" width="323.024" height="1.07675" fill="#E6E6E6"/>
<path fill-rule="evenodd" clip-rule="evenodd" d="M923.118 50.4481C925.261 50.4481 926.998 48.7113 926.998 46.5689C926.998 44.4265 925.261 42.6897 923.118 42.6897C920.976 42.6897 919.239 44.4265 919.239 46.5689C919.239 48.7113 920.976 50.4481 923.118 50.4481Z" fill="#D6219C"/>
<path fill-rule="evenodd" clip-rule="evenodd" d="M1025.79 50.4481C1027.93 50.4481 1029.67 48.7113 1029.67 46.5689C1029.67 44.4265 1027.93 42.6897 1025.79 42.6897C1023.65 42.6897 1021.91 44.4265 1021.91 46.5689C1021.91 48.7113 1023.65 50.4481 1025.79 50.4481Z" fill="#65BAFF"/>
<path fill-rule="evenodd" clip-rule="evenodd" d="M974.583 128.291C976.725 128.291 978.462 126.554 978.462 124.412C978.462 122.269 976.725 120.532 974.583 120.532C972.44 120.532 970.703 122.269 970.703 124.412C970.703 126.554 972.44 128.291 974.583 128.291Z" fill="#F89B85"/>
<rect x="926.998" y="53.0344" width="94.9115" height="64.6536" fill="url(#paint1_linear_1378_37171)"/>
<rect x="926.998" y="53.0344" width="94.9115" height="64.6536" fill="url(#paint2_linear_1378_37171)"/>
<g filter="url(#filter10_d_1378_37171)">
<rect x="920.316" y="137.443" width="105.521" height="86.6781" fill="white"/>
</g>
<path fill-rule="evenodd" clip-rule="evenodd" d="M1013.03 151.662C1015.17 151.662 1016.91 149.925 1016.91 147.783C1016.91 145.641 1015.17 143.904 1013.03 143.904C1010.88 143.904 1009.15 145.641 1009.15 147.783C1009.15 149.925 1010.88 151.662 1013.03 151.662Z" fill="#D6219C"/>
<path fill-rule="evenodd" clip-rule="evenodd" d="M1013.03 169.111C1015.17 169.111 1016.91 167.374 1016.91 165.232C1016.91 163.09 1015.17 161.353 1013.03 161.353C1010.88 161.353 1009.15 163.09 1009.15 165.232C1009.15 167.374 1010.88 169.111 1013.03 169.111Z" fill="#65BAFF"/>
<path fill-rule="evenodd" clip-rule="evenodd" d="M1013.03 186.56C1015.17 186.56 1016.91 184.823 1016.91 182.681C1016.91 180.539 1015.17 178.802 1013.03 178.802C1010.88 178.802 1009.15 180.539 1009.15 182.681C1009.15 184.823 1010.88 186.56 1013.03 186.56Z" fill="#F89B85"/>
<g filter="url(#filter11_d_1378_37171)">
<rect x="920.316" y="236.504" width="105.521" height="26.9187" fill="white"/>
</g>
<g filter="url(#filter12_d_1378_37171)">
<rect x="920.316" y="280.651" width="105.521" height="201.352" fill="white"/>
</g>
<rect x="933.237" y="293.572" width="79.6792" height="8.61397" fill="#E6E6E6"/>
<rect x="933.237" y="389.402" width="79.6792" height="8.61397" fill="#E6E6E6"/>
<rect x="933.237" y="341.487" width="79.6792" height="8.61397" fill="#E6E6E6"/>
<rect x="933.237" y="437.317" width="79.6792" height="8.61397" fill="#E6E6E6"/>
<rect x="933.237" y="307.569" width="79.6792" height="8.61397" fill="#E6E6E6"/>
<rect x="933.237" y="403.4" width="79.6792" height="8.61397" fill="#F89B85"/>
<rect x="933.237" y="355.484" width="79.6792" height="8.61397" fill="#E6E6E6"/>
<rect x="933.237" y="451.315" width="79.6792" height="8.61397" fill="#9941FF"/>
<rect x="920.316" y="327.489" width="105.521" height="1.07675" fill="#E6E6E6"/>
<rect x="920.316" y="156.825" width="105.521" height="1.07675" fill="#E6E6E6"/>
<rect x="920.316" y="174.053" width="105.521" height="1.07675" fill="#E6E6E6"/>
<rect x="920.316" y="191.281" width="105.521" height="1.07675" fill="#E6E6E6"/>
<rect x="920.316" y="423.319" width="105.521" height="1.07675" fill="#E6E6E6"/>
<rect x="920.316" y="375.404" width="105.521" height="1.07675" fill="#E6E6E6"/>
<path fill-rule="evenodd" clip-rule="evenodd" d="M652.744 71.4526C649.176 71.4526 646.284 74.3451 646.284 77.9131V77.9131C646.284 81.4811 649.176 84.3736 652.744 84.3736H663.512C667.08 84.3736 669.972 81.4811 669.972 77.9131V77.9131C669.972 74.3451 667.08 71.4526 663.512 71.4526H652.744Z" fill="#1C8731"/>
<path fill-rule="evenodd" clip-rule="evenodd" d="M663.512 82.7583C666.188 82.7583 668.357 80.589 668.357 77.913C668.357 75.237 666.188 73.0676 663.512 73.0676C660.836 73.0676 658.666 75.237 658.666 77.913C658.666 80.589 660.836 82.7583 663.512 82.7583Z" fill="white"/>
<g clip-path="url(#clip24_1378_37171)">
<path fill-rule="evenodd" clip-rule="evenodd" d="M652.745 55.0723C649.177 55.0723 646.284 57.9647 646.284 61.5327V61.5327C646.284 65.1008 649.177 67.9932 652.745 67.9932H663.512C667.08 67.9932 669.972 65.1008 669.972 61.5327V61.5327C669.972 57.9647 667.08 55.0723 663.512 55.0723H652.745Z" fill="#E61D1D"/>
<path fill-rule="evenodd" clip-rule="evenodd" d="M663.512 66.3782C666.188 66.3782 668.357 64.2089 668.357 61.5329C668.357 58.8568 666.188 56.6875 663.512 56.6875C660.836 56.6875 658.666 58.8568 658.666 61.5329C658.666 64.2089 660.836 66.3782 663.512 66.3782Z" fill="white"/>
</g>
<g clip-path="url(#clip25_1378_37171)">
<path fill-rule="evenodd" clip-rule="evenodd" d="M652.744 87.833C649.176 87.833 646.284 90.7255 646.284 94.2935V94.2935C646.284 97.8615 649.176 100.754 652.744 100.754H663.512C667.08 100.754 669.972 97.8615 669.972 94.2935V94.2935C669.972 90.7255 667.08 87.833 663.512 87.833H652.744Z" fill="#9941FF"/>
<path fill-rule="evenodd" clip-rule="evenodd" d="M663.511 99.139C666.188 99.139 668.357 96.9696 668.357 94.2936C668.357 91.6176 666.188 89.4482 663.511 89.4482C660.835 89.4482 658.666 91.6176 658.666 94.2936C658.666 96.9696 660.835 99.139 663.511 99.139Z" fill="white"/>
</g>
<g clip-path="url(#clip26_1378_37171)">
<path fill-rule="evenodd" clip-rule="evenodd" d="M652.744 104.213C649.176 104.213 646.284 107.106 646.284 110.674V110.674C646.284 114.242 649.176 117.134 652.744 117.134H663.512C667.08 117.134 669.972 114.242 669.972 110.674V110.674C669.972 107.106 667.08 104.213 663.512 104.213H652.744Z" fill="black"/>
<path fill-rule="evenodd" clip-rule="evenodd" d="M663.512 115.519C666.188 115.519 668.357 113.35 668.357 110.674C668.357 107.998 666.188 105.828 663.512 105.828C660.836 105.828 658.666 107.998 658.666 110.674C658.666 113.35 660.836 115.519 663.512 115.519Z" fill="white"/>
</g>
<g clip-path="url(#clip27_1378_37171)">
<path fill-rule="evenodd" clip-rule="evenodd" d="M663.511 123.984C667.079 123.984 669.972 126.877 669.972 130.445V130.445C669.972 134.013 667.079 136.905 663.511 136.905H652.744C649.176 136.905 646.283 134.013 646.283 130.445V130.445C646.283 126.877 649.176 123.984 652.744 123.984H663.511Z" fill="#E6E6E6"/>
<path fill-rule="evenodd" clip-rule="evenodd" d="M652.744 135.29C650.068 135.29 647.899 133.121 647.899 130.445C647.899 127.769 650.068 125.599 652.744 125.599C655.42 125.599 657.589 127.769 657.589 130.445C657.589 133.121 655.42 135.29 652.744 135.29Z" fill="white"/>
</g>
<g filter="url(#filter13_d_1378_37171)">
<path d="M704.967 46.8706C704.967 44.8589 706.597 43.228 708.609 43.228H901.06C903.072 43.228 904.703 44.8589 904.703 46.8706V284.247C904.703 286.259 903.072 287.89 901.06 287.89H708.609C706.597 287.89 704.967 286.259 704.967 284.247V46.8706Z" fill="white"/>
</g>
<rect x="704.967" y="87.5464" width="199.736" height="32.7835" fill="url(#paint3_linear_1378_37171)"/>
<g clip-path="url(#clip28_1378_37171)">
<rect x="889.222" y="59.316" width="17.606" height="17.606" rx="8.80298" transform="rotate(90 889.222 59.316)" fill="white" stroke="#F2F2F2" stroke-width="0.607102"/>
<path fill-rule="evenodd" clip-rule="evenodd" d="M878.598 71.8526C878.598 71.7191 878.647 71.586 878.746 71.4852L882.038 68.119L878.746 64.7525C878.55 64.553 878.548 64.2259 878.741 64.0229C878.933 63.82 879.248 63.8176 879.444 64.0178L883.455 68.119L879.444 72.22C879.248 72.4201 878.933 72.4177 878.741 72.2148C878.645 72.1144 878.598 71.9833 878.598 71.8526" fill="#757575"/>
<mask id="mask0_1378_37171" style="mask-type:alpha" maskUnits="userSpaceOnUse" x="878" y="63" width="6" height="10">
<path fill-rule="evenodd" clip-rule="evenodd" d="M878.598 71.8526C878.598 71.7191 878.647 71.586 878.746 71.4852L882.038 68.119L878.746 64.7525C878.55 64.553 878.548 64.2259 878.741 64.0229C878.933 63.82 879.248 63.8176 879.444 64.0178L883.455 68.119L879.444 72.22C879.248 72.4201 878.933 72.4177 878.741 72.2148C878.645 72.1144 878.598 71.9833 878.598 71.8526" fill="white"/>
</mask>
<g mask="url(#mask0_1378_37171)">
</g>
<rect x="0.303551" y="0.303551" width="17.606" height="17.606" rx="8.80298" transform="matrix(0 1 1 0 847.028 59.0125)" fill="white" stroke="#F2F2F2" stroke-width="0.607102"/>
<mask id="mask1_1378_37171" style="mask-type:alpha" maskUnits="userSpaceOnUse" x="853" y="63" width="5" height="10">
<path fill-rule="evenodd" clip-rule="evenodd" d="M857.956 71.8526C857.956 71.7191 857.907 71.586 857.808 71.4852L854.516 68.119L857.808 64.7525C858.004 64.553 858.006 64.2259 857.813 64.0229C857.621 63.82 857.306 63.8176 857.11 64.0178L853.099 68.119L857.11 72.22C857.306 72.4201 857.621 72.4177 857.813 72.2148C857.909 72.1144 857.956 71.9833 857.956 71.8526" fill="white"/>
</mask>
<g mask="url(#mask1_1378_37171)">
<rect width="14.5704" height="14.5704" transform="matrix(0 1 1 0 848.243 60.8337)" fill="#757575"/>
</g>
<rect x="722.573" y="60.834" width="89.244" height="14.5704" fill="#E6E6E6"/>
<rect x="723.18" y="104.545" width="57.0676" height="7.28522" fill="#E6E6E6"/>
<rect x="828.208" y="104.545" width="57.0676" height="7.28522" fill="#E6E6E6"/>
<rect x="723.18" y="96.0459" width="16.3917" height="4.85681" fill="#E6E6E6"/>
<rect x="828.208" y="96.0459" width="16.3917" height="4.85681" fill="#E6E6E6"/>
<rect x="803.924" y="93.6174" width="0.607102" height="21.2486" fill="white"/>
</g>
<rect x="845.207" y="169.505" width="43.1042" height="15.7846" rx="7.89232" fill="#E6E6E6"/>
<rect x="720.83" y="206.334" width="167.56" height="16.0629" rx="8.03145" fill="#E6E6E6"/>
<rect x="720.83" y="224.722" width="167.56" height="16.0629" rx="8.03145" fill="#E6E6E6"/>
<rect x="720.83" y="188.028" width="167.56" height="16.0629" rx="8.03145" fill="#E6E6E6"/>
<rect x="720.83" y="242.503" width="42.4971" height="16.0629" rx="8.03145" fill="#E6E6E6"/>
<rect x="747.971" y="242.699" width="15.7846" height="15.7846" rx="7.89232" fill="#D6219C"/>
<rect x="845.207" y="169.505" width="15.7846" height="15.7846" rx="7.89232" fill="#9941FF"/>
<path d="M888.613 143.704L720.144 143.403" stroke="#E6E6E6" stroke-width="0.303551"/>
<rect x="850.064" y="174.362" width="6.07102" height="6.07102" fill="white"/>
<rect x="825.78" y="174.362" width="6.07102" height="6.07102" fill="#757575"/>
<rect x="801.496" y="174.362" width="6.07102" height="6.07102" fill="#757575"/>
<rect x="874.348" y="174.362" width="6.07102" height="6.07102" fill="#757575"/>
<rect x="874.348" y="193.182" width="6.07102" height="6.07102" fill="#757575"/>
<rect x="850.064" y="193.182" width="6.07102" height="6.07102" fill="#757575"/>
<rect x="825.78" y="193.182" width="6.07102" height="6.07102" fill="#757575"/>
<rect x="801.496" y="193.182" width="6.07102" height="6.07102" fill="#757575"/>
<rect x="874.348" y="211.395" width="6.07102" height="6.07102" fill="#757575"/>
<rect x="850.064" y="211.395" width="6.07102" height="6.07102" fill="#757575"/>
<rect x="825.78" y="211.395" width="6.07102" height="6.07102" fill="#757575"/>
<rect x="801.496" y="211.395" width="6.07102" height="6.07102" fill="#757575"/>
<rect x="874.348" y="229.608" width="6.07102" height="6.07102" fill="#757575"/>
<rect x="850.064" y="229.608" width="6.07102" height="6.07102" fill="#757575"/>
<rect x="825.78" y="229.608" width="6.07102" height="6.07102" fill="#757575"/>
<rect x="801.496" y="229.608" width="6.07102" height="6.07102" fill="#757575"/>
<rect x="850.064" y="156.149" width="6.07102" height="6.07102" fill="#757575"/>
<rect x="825.78" y="156.149" width="6.07102" height="6.07102" fill="#E6E6E6"/>
<rect x="801.496" y="156.149" width="6.07102" height="6.07102" fill="#E6E6E6"/>
<rect x="728.644" y="174.362" width="6.07102" height="6.07102" fill="#757575"/>
<rect x="728.644" y="193.182" width="6.07102" height="6.07102" fill="#757575"/>
<rect x="728.644" y="211.395" width="6.07102" height="6.07102" fill="#757575"/>
<rect x="728.644" y="229.608" width="6.07102" height="6.07102" fill="#757575"/>
<rect x="728.644" y="247.821" width="6.07102" height="6.07102" fill="#757575"/>
<rect x="728.644" y="156.149" width="6.07102" height="6.07102" fill="#E6E6E6"/>
<rect x="752.928" y="174.362" width="6.07102" height="6.07102" fill="#757575"/>
<rect x="752.928" y="193.182" width="6.07102" height="6.07102" fill="#757575"/>
<rect x="752.928" y="211.395" width="6.07102" height="6.07102" fill="#757575"/>
<rect x="752.928" y="229.608" width="6.07102" height="6.07102" fill="#757575"/>
<rect x="752.928" y="247.821" width="6.07102" height="6.07102" fill="white"/>
<rect x="752.928" y="156.149" width="6.07102" height="6.07102" fill="#E6E6E6"/>
<rect x="777.212" y="174.362" width="6.07096" height="6.07103" fill="#757575"/>
<rect x="777.212" y="193.182" width="6.07096" height="6.07103" fill="#757575"/>
<rect x="777.212" y="211.395" width="6.07096" height="6.07103" fill="#757575"/>
<rect x="777.212" y="229.608" width="6.07096" height="6.07101" fill="#757575"/>
<rect x="777.212" y="156.149" width="6.07096" height="6.07102" fill="#E6E6E6"/>
<rect x="874.348" y="156.149" width="6.07102" height="6.07102" fill="#757575"/>
<rect x="847.028" y="131.258" width="12.142" height="7.28522" fill="#757575"/>
<rect x="822.744" y="131.258" width="12.142" height="7.28522" fill="#757575"/>
<rect x="798.46" y="131.258" width="12.142" height="7.28522" fill="#757575"/>
<rect x="725.608" y="131.258" width="12.142" height="7.28522" fill="#757575"/>
<rect x="749.892" y="131.258" width="12.142" height="7.28522" fill="#757575"/>
<rect x="774.176" y="131.258" width="12.142" height="7.28522" fill="#757575"/>
<rect x="871.313" y="131.258" width="12.142" height="7.28522" fill="#757575"/>
<rect x="868.884" y="266.641" width="21.2486" height="6.67812" fill="#E6E6E6"/>
<g clip-path="url(#clip29_1378_37171)">
<rect x="647.361" y="176.206" width="13.9977" height="8.0756" fill="#757575"/>
</g>
<rect x="647.361" y="189.665" width="13.9977" height="1.61512" fill="#9941FF"/>
<g clip-path="url(#clip30_1378_37171)">
<rect x="663.512" y="206.355" width="12.921" height="8.0756" fill="#757575"/>
</g>
<rect x="647.361" y="220.891" width="29.0722" height="1.61512" fill="#9941FF"/>
<path fill-rule="evenodd" clip-rule="evenodd" d="M655.365 214.278H647.971C647.901 214.278 647.841 214.219 647.841 214.149V211.804H649.999L650.084 212.243C650.147 212.529 650.396 212.728 650.688 212.728H652.666C652.959 212.728 653.207 212.529 653.272 212.237L653.355 211.804H655.494V214.149C655.494 214.219 655.435 214.278 655.365 214.278V214.278ZM654.185 208.627C654.055 208.464 653.872 208.37 653.682 208.37H653.146C653.014 208.37 652.906 208.478 652.906 208.61C652.906 208.743 653.014 208.851 653.146 208.851H653.682C653.741 208.851 653.79 208.903 653.793 208.903V208.903L655.301 211.324H653.313C653.102 211.324 652.933 211.461 652.892 211.666L652.801 212.14C652.789 212.192 652.742 212.247 652.666 212.247H650.688C650.612 212.247 650.565 212.192 650.554 212.146L650.461 211.664C650.42 211.461 650.251 211.324 650.041 211.324H648.034L649.539 208.91C649.566 208.868 649.6 208.851 649.653 208.851H650.189C650.322 208.851 650.429 208.743 650.429 208.61C650.429 208.478 650.322 208.37 650.189 208.37H649.653C649.439 208.37 649.256 208.467 649.134 208.649L647.361 211.496V214.149C647.361 214.485 647.634 214.758 647.971 214.758H655.365C655.701 214.758 655.975 214.485 655.975 214.149V211.496L654.185 208.627ZM651.497 210.81L651.499 210.812L651.668 210.98L651.837 210.812L651.838 210.81L652.577 210.072C652.671 209.979 652.671 209.826 652.577 209.733C652.483 209.639 652.331 209.639 652.237 209.733L651.908 210.062V207.133C651.908 207.001 651.801 206.893 651.668 206.893C651.535 206.893 651.427 207.001 651.427 207.133V210.062L651.098 209.733C651.005 209.639 650.852 209.639 650.758 209.733C650.664 209.826 650.664 209.979 650.758 210.072L651.497 210.81Z" fill="#757575"/>
<rect x="647.361" y="158.44" width="10.7675" height="1.61512" fill="#9941FF"/>
<path fill-rule="evenodd" clip-rule="evenodd" d="M656.441 151.827H649.047C648.978 151.827 648.918 151.768 648.918 151.697V149.353H651.076L651.161 149.792C651.224 150.077 651.472 150.276 651.765 150.276H653.743C654.035 150.276 654.284 150.077 654.348 149.786L654.431 149.353H656.571V151.697C656.571 151.768 656.511 151.827 656.441 151.827V151.827ZM655.262 146.175C655.132 146.012 654.949 145.919 654.759 145.919H654.223C654.09 145.919 653.983 146.027 653.983 146.159C653.983 146.292 654.09 146.399 654.223 146.399H654.759C654.818 146.399 654.867 146.452 654.869 146.452V146.452L656.378 148.873H654.39C654.179 148.873 654.01 149.01 653.969 149.215L653.878 149.689C653.866 149.741 653.819 149.796 653.743 149.796H651.765C651.689 149.796 651.642 149.741 651.631 149.695L651.538 149.213C651.497 149.01 651.328 148.873 651.118 148.873H649.111L650.615 146.459C650.643 146.417 650.677 146.399 650.73 146.399H651.266C651.398 146.399 651.506 146.292 651.506 146.159C651.506 146.027 651.398 145.919 651.266 145.919H650.73C650.516 145.919 650.333 146.016 650.211 146.198L648.437 149.045V151.697C648.437 152.034 648.711 152.307 649.047 152.307H656.441C656.778 152.307 657.051 152.034 657.051 151.697V149.045L655.262 146.175ZM652.574 148.359L652.575 148.36L652.745 148.529L652.914 148.36L652.915 148.359L653.654 147.621C653.748 147.528 653.748 147.375 653.654 147.282C653.56 147.188 653.408 147.188 653.314 147.282L652.985 147.61V144.682C652.985 144.55 652.877 144.442 652.745 144.442C652.612 144.442 652.504 144.55 652.504 144.682V147.61L652.175 147.282C652.081 147.188 651.929 147.188 651.835 147.282C651.741 147.375 651.741 147.528 651.835 147.621L652.574 148.359Z" fill="#757575"/>
<path d="M693.93 101.372C693.93 104.791 691.158 107.563 687.739 107.563C684.319 107.563 681.547 104.791 681.547 101.372C681.547 97.9527 684.319 95.1808 687.739 95.1808C691.158 95.1808 693.93 97.9527 693.93 101.372Z" fill="white" stroke="#999999" stroke-width="0.538373"/>
<path d="M693.93 121.83C693.93 125.25 691.158 128.022 687.739 128.022C684.319 128.022 681.547 125.25 681.547 121.83C681.547 118.411 684.319 115.639 687.739 115.639C691.158 115.639 693.93 118.411 693.93 121.83Z" fill="white" stroke="#B3B3B3" stroke-width="0.538373"/>
<path d="M693.93 142.289C693.93 145.708 691.158 148.48 687.739 148.48C684.319 148.48 681.547 145.708 681.547 142.289C681.547 138.869 684.319 136.097 687.739 136.097C691.158 136.097 693.93 138.869 693.93 142.289Z" fill="white" stroke="black" stroke-width="0.538373"/>
<path d="M693.93 60.4558C693.93 63.8752 691.158 66.6471 687.739 66.6471C684.319 66.6471 681.547 63.8752 681.547 60.4558C681.547 57.0365 684.319 54.2645 687.739 54.2645C691.158 54.2645 693.93 57.0365 693.93 60.4558Z" fill="#F2F2F2" stroke="#B3B3B3" stroke-width="0.538373"/>
<path d="M693.93 80.9138C693.93 84.3332 691.158 87.1051 687.739 87.1051C684.319 87.1051 681.547 84.3332 681.547 80.9138C681.547 77.4945 684.319 74.7226 687.739 74.7226C691.158 74.7226 693.93 77.4945 693.93 80.9138Z" fill="white" stroke="black" stroke-width="0.538373"/>
<path fill-rule="evenodd" clip-rule="evenodd" d="M687.739 84.1441C689.523 84.1441 690.969 82.6978 690.969 80.9138C690.969 79.1298 689.523 77.6836 687.739 77.6836C685.955 77.6836 684.508 79.1298 684.508 80.9138C684.508 82.6978 685.955 84.1441 687.739 84.1441Z" fill="black"/>
<path d="M693.93 162.747C693.93 166.166 691.158 168.938 687.739 168.938C684.319 168.938 681.547 166.166 681.547 162.747C681.547 159.327 684.319 156.555 687.739 156.555C691.158 156.555 693.93 159.327 693.93 162.747Z" fill="white" stroke="#E61D1D" stroke-width="0.538373"/>
<rect x="930.007" y="144.442" width="65.6815" height="6.99885" fill="#757575"/>
<rect x="930.007" y="162.208" width="65.6815" height="6.99885" fill="#757575"/>
<rect x="930.007" y="178.898" width="65.6815" height="6.99885" fill="#757575"/>
<rect x="946.158" y="246.733" width="65.6815" height="6.99885" fill="#757575"/>
<path fill-rule="evenodd" clip-rule="evenodd" d="M930 202.692C930 201.205 931.205 200 932.692 200H976.297C977.784 200 978.989 201.205 978.989 202.692V211.66C978.989 213.147 977.784 214.352 976.297 214.352H932.692C931.205 214.352 930 213.147 930 211.66V202.692Z" fill="#65BAFF"/>
<rect opacity="0.7" x="936.467" y="204.202" width="36.071" height="6.46048" fill="white"/>
<rect x="926.776" y="243.503" width="12.921" height="12.921" rx="1.61512" fill="#757575"/>
<g clip-path="url(#clip31_1378_37171)">
<path d="M936.629 246.895L931.622 251.901L929.845 250.125C929.63 249.909 929.307 249.909 929.091 250.125C928.876 250.34 928.876 250.663 929.091 250.879L931.245 253.032C931.353 253.14 931.46 253.194 931.622 253.194C931.783 253.194 931.891 253.14 931.999 253.032L937.382 247.648C937.598 247.433 937.598 247.11 937.382 246.895C937.167 246.679 936.844 246.679 936.629 246.895Z" fill="white"/>
</g>
</g>
<g opacity="0.9" filter="url(#filter14_f_1378_37171)">
<rect x="296.995" y="158.151" width="482.249" height="219.33" rx="77.5017" fill="white"/>
</g>
<path d="M499.227 261.955C497.849 261.955 496.709 261.741 495.806 261.314C494.951 260.886 494.238 260.268 493.668 259.461L462.308 215.13C461.928 214.512 461.738 213.966 461.738 213.49C461.738 212.968 461.904 212.493 462.237 212.065C462.57 211.59 462.997 211.186 463.52 210.853C464.09 210.473 464.684 210.188 465.302 209.998C465.967 209.808 466.608 209.713 467.226 209.713C467.844 209.713 468.461 209.832 469.079 210.069C469.744 210.307 470.267 210.687 470.647 211.21L499.441 252.619L527.95 211.21C528.567 210.212 529.613 209.713 531.086 209.713C531.703 209.713 532.321 209.808 532.939 209.998C533.556 210.188 534.127 210.473 534.649 210.853C535.172 211.186 535.599 211.59 535.932 212.065C536.265 212.493 536.431 212.991 536.431 213.562C536.431 214.132 536.241 214.654 535.861 215.13L504.858 259.461C504.287 260.268 503.551 260.886 502.648 261.314C501.745 261.741 500.605 261.955 499.227 261.955ZM551.56 258.605C551.56 259.983 551.156 260.886 550.348 261.314C549.54 261.741 548.352 261.955 546.784 261.955C545.264 261.955 544.1 261.741 543.292 261.314C542.484 260.886 542.08 259.983 542.08 258.605V213.063C542.08 211.685 542.484 210.782 543.292 210.354C544.1 209.927 545.264 209.713 546.784 209.713C548.352 209.713 549.54 209.927 550.348 210.354C551.156 210.782 551.56 211.685 551.56 213.063V258.605ZM594.648 261.955C593.27 261.955 592.13 261.741 591.227 261.314C590.372 260.886 589.659 260.268 589.089 259.461L557.729 215.13C557.349 214.512 557.159 213.966 557.159 213.49C557.159 212.968 557.325 212.493 557.658 212.065C557.99 211.59 558.418 211.186 558.941 210.853C559.511 210.473 560.105 210.188 560.722 209.998C561.388 209.808 562.029 209.713 562.647 209.713C563.264 209.713 563.882 209.832 564.5 210.069C565.165 210.307 565.688 210.687 566.068 211.21L594.862 252.619L623.37 211.21C623.988 210.212 625.033 209.713 626.506 209.713C627.124 209.713 627.742 209.808 628.359 209.998C628.977 210.188 629.547 210.473 630.07 210.853C630.593 211.186 631.02 211.59 631.353 212.065C631.685 212.493 631.852 212.991 631.852 213.562C631.852 214.132 631.662 214.654 631.282 215.13L600.278 259.461C599.708 260.268 598.972 260.886 598.069 261.314C597.166 261.741 596.026 261.955 594.648 261.955ZM646.98 258.605C646.98 259.983 646.576 260.886 645.769 261.314C644.961 261.741 643.773 261.955 642.205 261.955C640.685 261.955 639.521 261.741 638.713 261.314C637.905 260.886 637.501 259.983 637.501 258.605V213.063C637.501 211.685 637.905 210.782 638.713 210.354C639.521 209.927 640.685 209.713 642.205 209.713C643.773 209.713 644.961 209.927 645.769 210.354C646.576 210.782 646.98 211.685 646.98 213.063V258.605ZM719.86 248.414C719.86 257.251 712.828 261.67 698.764 261.67H658.353C656.167 261.67 655.074 260.554 655.074 258.32V213.277C655.074 211.091 656.167 209.998 658.353 209.998H698.764C712.828 209.998 719.86 214.417 719.86 223.255V248.414ZM664.553 253.973H698.479C702.66 253.973 705.701 253.426 707.602 252.334C709.55 251.241 710.524 249.934 710.524 248.414V223.255C710.524 221.687 709.55 220.38 707.602 219.335C705.701 218.242 702.66 217.695 698.479 217.695H664.553V253.973Z" fill="black"/>
<path d="M417.426 264.698H369.042C363.738 264.698 357.841 260.397 355.874 255.093L335.691 201.166C333.724 195.862 336.427 191.561 341.734 191.561H390.115C395.419 191.561 401.316 195.862 403.283 201.166L423.467 255.093C425.436 260.397 422.732 264.698 417.426 264.698Z" fill="url(#paint4_linear_1378_37171)"/>
<path d="M440.052 205.832H390.412C385.455 205.832 379.944 209.851 378.105 214.808L362.927 255.72C361.088 260.677 363.615 264.696 368.574 264.696H418.215C423.172 264.696 428.683 260.677 430.522 255.72L445.699 214.808C447.538 209.851 445.009 205.832 440.052 205.832Z" fill="url(#paint5_linear_1378_37171)"/>
<path fill-rule="evenodd" clip-rule="evenodd" d="M368.726 264.697H417.488C417.788 264.691 418.08 264.671 418.362 264.638C418.379 264.639 418.397 264.64 418.415 264.64C421.257 264.64 424.247 263.118 425.621 262.001C427.62 260.377 428.805 259.218 430.087 256.825C427.79 260.842 425.412 260.639 423.693 255.912C423.618 255.705 423.535 255.534 423.445 255.394C423.411 255.294 423.375 255.194 423.338 255.093L405.465 206.912C405.33 206.547 405.176 206.187 405.005 205.833H390.412C385.455 205.833 379.944 209.852 378.104 214.809L362.927 255.721C362.855 255.915 362.789 256.109 362.73 256.301C360.997 260.607 358.924 260.66 356.643 256.713C357.967 259.158 359.19 260.342 361.253 262.002C362.672 263.142 365.759 264.698 368.693 264.698C368.704 264.698 368.715 264.697 368.726 264.697Z" fill="url(#paint6_linear_1378_37171)"/>
<g style="mix-blend-mode:hard-light" opacity="0.4">
<path fill-rule="evenodd" clip-rule="evenodd" d="M369.042 264.698H417.426C417.711 264.698 417.988 264.686 418.257 264.662C418.293 264.671 418.332 264.675 418.374 264.675C421.216 264.675 424.206 263.153 425.58 262.036C427.578 260.412 428.764 259.253 430.045 256.86C427.863 260.677 425.607 260.684 423.913 256.619C423.808 256.122 423.66 255.612 423.467 255.093L403.283 201.166C401.316 195.862 395.419 191.561 390.115 191.561H341.734C336.427 191.561 333.724 195.862 335.691 201.166L355.874 255.093C357.841 260.397 363.738 264.698 369.042 264.698Z" fill="url(#paint7_linear_1378_37171)"/>
</g>
<g style="mix-blend-mode:hard-light" opacity="0.15">
<path fill-rule="evenodd" clip-rule="evenodd" d="M390.474 205.893H440.114C445.071 205.893 447.601 209.912 445.762 214.869L430.584 255.781C428.745 260.738 423.234 264.757 418.277 264.757H368.795C368.782 264.758 368.769 264.758 368.755 264.758C368.703 264.758 368.651 264.758 368.599 264.757C367.927 264.754 367.301 264.677 366.724 264.534C364.487 264.063 362.407 262.94 361.316 262.062C359.252 260.403 358.029 259.218 356.706 256.774C358.986 260.721 361.059 260.667 362.793 256.361C362.852 256.169 362.917 255.976 362.99 255.781L378.167 214.869C380.006 209.912 385.517 205.893 390.474 205.893Z" fill="url(#paint8_linear_1378_37171)"/>
</g>
<path d="M440.164 205.893H390.523C385.566 205.893 380.055 209.912 378.216 214.869L363.039 255.781C361.2 260.738 363.727 264.757 368.686 264.757H418.326C423.283 264.757 428.794 260.738 430.633 255.781L445.811 214.869C447.65 209.912 445.12 205.893 440.164 205.893Z" fill="url(#paint9_linear_1378_37171)" fill-opacity="0.2"/>
<path d="M396.906 307.749L391.016 294.454H384.865L393.683 314.647C393.724 314.738 393.841 314.738 393.882 314.647L396.906 307.749Z" fill="black"/>
<path d="M409.742 294.454C409.742 294.454 401.767 312.757 400.766 314.996C398.38 320.353 396.611 321.692 394.814 321.978C394.801 321.978 394.787 321.992 394.787 322.013C394.787 322.034 394.801 322.048 394.821 322.048H400.451C402.933 322.048 404.627 320.353 407.013 314.996C407.849 313.127 415.996 294.454 415.996 294.454H409.742Z" fill="black"/>
<path d="M448.47 301.353C444.493 301.353 441.936 303.975 441.936 308.251C441.936 312.527 444.493 315.15 448.47 315.15C452.441 315.15 455.005 312.527 455.005 308.251C455.012 303.975 452.441 301.353 448.47 301.353ZM448.47 312.973C445.926 312.973 444.267 311.292 444.267 308.258C444.267 305.224 445.933 303.543 448.47 303.543C451.001 303.543 452.674 305.224 452.674 308.258C452.674 311.285 451.007 312.973 448.47 312.973Z" fill="black"/>
<path d="M468.506 301.659V314.849H465.812L459.4 305.182V314.849H457.103V301.659H459.805L466.216 311.39V301.659H468.506Z" fill="black"/>
<path d="M508.215 303.863V301.659H498.89V314.849H508.215V312.638H501.187V309.172H507.667V306.967H501.187V303.863H508.215Z" fill="black"/>
<path d="M439.049 301.659L434.4 312.038C434.372 312.094 434.304 312.094 434.276 312.038L429.627 301.659H427.008C427.008 301.659 431.554 311.857 431.911 312.652C432.631 314.263 433.22 315.003 434.345 315.003C435.469 315.003 436.066 314.263 436.779 312.652C437.129 311.857 441.682 301.659 441.682 301.659H439.049Z" fill="black"/>
<path d="M479.197 303.871C478.504 302.252 477.983 301.52 476.9 301.52C475.816 301.52 475.302 302.252 474.602 303.871C474.266 304.659 469.912 314.863 469.912 314.863H472.333L473.677 311.669H480.129L481.473 314.863H483.894C483.894 314.857 479.533 304.659 479.197 303.871ZM474.609 309.451L476.845 304.115C476.865 304.059 476.948 304.059 476.968 304.115L479.203 309.451H474.609Z" fill="black"/>
<path d="M490.243 307.693V309.695H494.131C493.96 311.466 492.293 312.952 490.319 312.952C487.987 312.952 486.294 311.215 486.294 308.355C486.294 305.377 487.857 303.543 490.531 303.543C492.122 303.543 493.439 304.317 493.871 305.663H496.25C495.736 302.964 493.377 301.366 490.531 301.366C486.472 301.366 483.962 304.073 483.962 308.411C483.962 312.624 486.705 315.163 490.127 315.163C493.061 315.163 494.179 313.426 494.488 312.868V314.856H496.524V307.693H490.243Z" fill="black"/>
<path d="M522.149 296.386H521.813V317.737H522.149V296.386Z" fill="black"/>
<path d="M536.123 301.038V313.519H540.979C544.8 313.519 547.142 311.074 547.142 307.235C547.142 303.353 544.731 301.038 541.023 301.038H536.123ZM537.907 302.735H540.727C544.06 302.735 545.323 304.702 545.323 307.27C545.323 309.829 544.06 311.822 540.727 311.822H537.907V302.735ZM557.464 308.262C557.464 305.668 555.775 304.102 553.199 304.102C550.388 304.102 548.525 305.964 548.525 308.941C548.525 311.761 550.196 313.659 553.138 313.659C555.157 313.659 556.463 312.753 557.316 311.509L555.958 310.708C555.462 311.474 554.644 312.127 553.225 312.127C551.371 312.127 550.336 310.995 550.24 309.489H557.464V308.262ZM553.182 305.634C554.74 305.634 555.688 306.426 555.741 308.053H550.249C550.466 306.6 551.458 305.634 553.182 305.634ZM566.916 306.539C566.402 305.103 565.01 304.102 562.738 304.102C560.397 304.102 558.874 305.155 558.874 306.957C558.874 309.037 560.928 309.298 562.729 309.524C564.139 309.698 565.393 309.855 565.393 310.839C565.393 311.674 564.479 312.214 563.182 312.214C561.903 312.214 560.701 311.691 560.258 310.456L558.682 311.047C559.326 312.762 561.067 313.659 563.112 313.659C565.436 313.659 567.107 312.484 567.107 310.621C567.107 308.541 565.018 308.323 563.225 308.114C561.815 307.949 560.571 307.801 560.571 306.817C560.571 306.051 561.328 305.555 562.66 305.555C564.078 305.555 565.01 306.121 565.393 307.113L566.916 306.539ZM570.771 300.742H568.804V302.744H570.771V300.742ZM570.649 304.276H568.926V313.519H570.649V304.276ZM581.773 304.276H580.058V305.79C579.44 304.633 578.369 304.102 576.855 304.102C573.826 304.102 572.468 306.252 572.468 308.532C572.468 310.821 573.835 312.988 576.837 312.988C578.361 312.988 579.44 312.423 580.058 311.248V313.014C580.058 314.416 579.013 315.356 577.177 315.356C575.671 315.356 574.635 314.712 574.226 313.519L572.599 314.033C573.13 315.73 574.775 316.888 577.168 316.888C580.032 316.888 581.773 315.217 581.773 312.962V304.276ZM577.133 305.642C578.935 305.642 580.058 306.835 580.058 308.532C580.058 310.229 578.935 311.448 577.133 311.448C575.34 311.448 574.192 310.238 574.192 308.532C574.192 306.835 575.332 305.642 577.133 305.642ZM584.122 304.276V313.519H585.846V308.515C585.846 306.983 586.838 305.695 588.657 305.695C590.154 305.695 590.92 306.574 590.92 308.123V313.519H592.635V307.453C592.635 305.399 591.338 304.102 589.066 304.102C587.256 304.102 586.35 304.929 585.846 305.834V304.276H584.122ZM608.083 304.345C607.726 302.178 606.003 300.76 603.131 300.76C600.467 300.76 598.396 301.969 598.396 304.485C598.396 307.218 600.841 307.627 603.052 308.001C604.889 308.314 606.56 308.602 606.56 310.151C606.56 311.43 605.42 312.205 603.644 312.205C601.677 312.205 600.232 311.256 599.928 309.437L598.117 309.759C598.526 312.275 600.737 313.807 603.574 313.807C606.334 313.807 608.362 312.353 608.362 309.881C608.362 307.157 605.898 306.783 603.696 306.434C601.895 306.147 600.197 305.877 600.197 304.302C600.197 302.996 601.355 302.361 603.017 302.361C604.932 302.361 606.072 303.205 606.351 304.72L608.083 304.345ZM616.969 304.276L614.132 311.691L611.207 304.276H609.319L613.244 313.554C612.835 314.59 612.217 315.173 611.12 315.173C610.711 315.173 610.311 315.103 609.876 314.99L609.58 316.452C610.172 316.618 610.763 316.714 611.32 316.714C612.878 316.714 614.106 315.939 614.75 314.346L618.823 304.276H616.969ZM627.57 306.539C627.057 305.103 625.664 304.102 623.392 304.102C621.051 304.102 619.528 305.155 619.528 306.957C619.528 309.037 621.582 309.298 623.384 309.524C624.794 309.698 626.047 309.855 626.047 310.839C626.047 311.674 625.133 312.214 623.836 312.214C622.557 312.214 621.356 311.691 620.912 310.456L619.336 311.047C619.98 312.762 621.721 313.659 623.766 313.659C626.09 313.659 627.762 312.484 627.762 310.621C627.762 308.541 625.673 308.323 623.88 308.114C622.47 307.949 621.225 307.801 621.225 306.817C621.225 306.051 621.982 305.555 623.314 305.555C624.733 305.555 625.664 306.121 626.047 307.113L627.57 306.539ZM634.785 304.276H632.104V301.482L630.381 301.952V304.276H628.457V305.851H630.381V310.96C630.381 312.614 631.069 313.659 633.192 313.659C633.784 313.659 634.42 313.572 635.064 313.415L634.898 311.979C634.463 312.074 634.054 312.127 633.697 312.127C632.104 312.127 632.104 311.108 632.104 310.647V305.851H634.785V304.276ZM644.846 308.262C644.846 305.668 643.158 304.102 640.581 304.102C637.77 304.102 635.908 305.964 635.908 308.941C635.908 311.761 637.579 313.659 640.521 313.659C642.54 313.659 643.845 312.753 644.698 311.509L643.341 310.708C642.844 311.474 642.026 312.127 640.608 312.127C638.754 312.127 637.718 310.995 637.622 309.489H644.846V308.262ZM640.564 305.634C642.122 305.634 643.071 306.426 643.123 308.053H637.631C637.848 306.6 638.841 305.634 640.564 305.634ZM646.674 304.276V313.519H648.397V308.384C648.397 306.904 649.32 305.695 650.947 305.695C652.314 305.695 653.019 306.548 653.019 308.045V313.519H654.742V308.384C654.742 306.896 655.656 305.695 657.275 305.695C658.65 305.695 659.373 306.539 659.373 308.045V313.519H661.087V307.322C661.087 305.373 659.886 304.102 657.71 304.102C655.787 304.102 654.786 305.094 654.298 306.191C653.863 304.868 653.001 304.102 651.417 304.102C649.746 304.102 648.867 304.92 648.397 305.799V304.276H646.674ZM666.753 301.212V302.857H673.272L668.824 306.687L669.703 308.149C670.191 308.001 670.974 307.871 671.688 307.871C673.368 307.871 674.36 308.593 674.36 309.855C674.36 311.169 673.289 312.031 671.488 312.031C669.625 312.031 668.641 311.108 668.285 309.942L666.57 310.525C667.197 312.388 668.903 313.659 671.444 313.659C674.395 313.659 676.135 311.953 676.135 309.777C676.135 307.583 674.36 306.382 672.114 306.382C671.871 306.382 671.618 306.4 671.357 306.426L675.665 302.831V301.212H666.753ZM680.113 311.256H677.876V313.519H680.113V311.256ZM686.762 301.029C683.611 301.029 681.853 303.197 681.853 307.078V307.609C681.853 311.491 683.611 313.659 686.762 313.659C689.921 313.659 691.68 311.491 691.68 307.609V307.078C691.68 303.197 689.921 301.029 686.762 301.029ZM686.762 302.657C688.86 302.657 689.895 304.137 689.895 307.078V307.609C689.895 310.56 688.86 312.031 686.762 312.031C684.673 312.031 683.637 310.56 683.637 307.609V307.078C683.637 304.137 684.673 302.657 686.762 302.657Z" fill="black"/>
</g>
</g>
<defs>
<filter id="filter0_ddd_1378_37171" x="0" y="0" width="1088" height="508.811" filterUnits="userSpaceOnUse" color-interpolation-filters="sRGB">
<feFlood flood-opacity="0" result="BackgroundImageFix"/>
<feColorMatrix in="SourceAlpha" type="matrix" values="0 0 0 0 0 0 0 0 0 0 0 0 0 0 0 0 0 0 127 0" result="hardAlpha"/>
<feOffset dy="6"/>
<feGaussianBlur stdDeviation="16"/>
<feColorMatrix type="matrix" values="0 0 0 0 0 0 0 0 0 0 0 0 0 0 0 0 0 0 0.1 0"/>
<feBlend mode="normal" in2="BackgroundImageFix" result="effect1_dropShadow_1378_37171"/>
<feColorMatrix in="SourceAlpha" type="matrix" values="0 0 0 0 0 0 0 0 0 0 0 0 0 0 0 0 0 0 127 0" result="hardAlpha"/>
<feOffset dy="16"/>
<feGaussianBlur stdDeviation="12"/>
<feColorMatrix type="matrix" values="0 0 0 0 0 0 0 0 0 0 0 0 0 0 0 0 0 0 0.05 0"/>
<feBlend mode="normal" in2="effect1_dropShadow_1378_37171" result="effect2_dropShadow_1378_37171"/>
<feColorMatrix in="SourceAlpha" type="matrix" values="0 0 0 0 0 0 0 0 0 0 0 0 0 0 0 0 0 0 127 0" result="hardAlpha"/>
<feOffset dy="8"/>
<feGaussianBlur stdDeviation="6"/>
<feColorMatrix type="matrix" values="0 0 0 0 0 0 0 0 0 0 0 0 0 0 0 0 0 0 0.05 0"/>
<feBlend mode="normal" in2="effect2_dropShadow_1378_37171" result="effect3_dropShadow_1378_37171"/>
<feBlend mode="normal" in="SourceGraphic" in2="effect3_dropShadow_1378_37171" result="shape"/>
</filter>
<filter id="filter1_d_1378_37171" x="83.1455" y="299.494" width="133.517" height="85.063" filterUnits="userSpaceOnUse" color-interpolation-filters="sRGB">
<feFlood flood-opacity="0" result="BackgroundImageFix"/>
<feColorMatrix in="SourceAlpha" type="matrix" values="0 0 0 0 0 0 0 0 0 0 0 0 0 0 0 0 0 0 127 0" result="hardAlpha"/>
<feOffset dy="1.07675"/>
<feGaussianBlur stdDeviation="1.07675"/>
<feColorMatrix type="matrix" values="0 0 0 0 0 0 0 0 0 0 0 0 0 0 0 0 0 0 0.1 0"/>
<feBlend mode="normal" in2="BackgroundImageFix" result="effect1_dropShadow_1378_37171"/>
<feBlend mode="normal" in="SourceGraphic" in2="effect1_dropShadow_1378_37171" result="shape"/>
</filter>
<filter id="filter2_d_1378_37171" x="89.6059" y="167.054" width="235.808" height="127.595" filterUnits="userSpaceOnUse" color-interpolation-filters="sRGB">
<feFlood flood-opacity="0" result="BackgroundImageFix"/>
<feColorMatrix in="SourceAlpha" type="matrix" values="0 0 0 0 0 0 0 0 0 0 0 0 0 0 0 0 0 0 127 0" result="hardAlpha"/>
<feOffset dy="2.15349"/>
<feGaussianBlur stdDeviation="5.38373"/>
<feColorMatrix type="matrix" values="0 0 0 0 0.0745098 0 0 0 0 0.0784314 0 0 0 0 0.0823529 0 0 0 0.1 0"/>
<feBlend mode="normal" in2="BackgroundImageFix" result="effect1_dropShadow_1378_37171"/>
<feBlend mode="normal" in="SourceGraphic" in2="effect1_dropShadow_1378_37171" result="shape"/>
</filter>
<filter id="filter3_d_1378_37171" x="319.545" y="33.0258" width="330.454" height="271.873" filterUnits="userSpaceOnUse" color-interpolation-filters="sRGB">
<feFlood flood-opacity="0" result="BackgroundImageFix"/>
<feColorMatrix in="SourceAlpha" type="matrix" values="0 0 0 0 0 0 0 0 0 0 0 0 0 0 0 0 0 0 127 0" result="hardAlpha"/>
<feOffset dy="7.51031"/>
<feGaussianBlur stdDeviation="7.51031"/>
<feColorMatrix type="matrix" values="0 0 0 0 0 0 0 0 0 0 0 0 0 0 0 0 0 0 0.15 0"/>
<feBlend mode="normal" in2="BackgroundImageFix" result="effect1_dropShadow_1378_37171"/>
<feBlend mode="normal" in="SourceGraphic" in2="effect1_dropShadow_1378_37171" result="shape"/>
</filter>
<filter id="filter4_d_1378_37171" x="230.121" y="291.418" width="330.561" height="39.8396" filterUnits="userSpaceOnUse" color-interpolation-filters="sRGB">
<feFlood flood-opacity="0" result="BackgroundImageFix"/>
<feColorMatrix in="SourceAlpha" type="matrix" values="0 0 0 0 0 0 0 0 0 0 0 0 0 0 0 0 0 0 127 0" result="hardAlpha"/>
<feOffset dy="1.07675"/>
<feGaussianBlur stdDeviation="2.69187"/>
<feColorMatrix type="matrix" values="0 0 0 0 0.0745098 0 0 0 0 0.0784314 0 0 0 0 0.0823529 0 0 0 0.1 0"/>
<feBlend mode="normal" in2="BackgroundImageFix" result="effect1_dropShadow_1378_37171"/>
<feBlend mode="normal" in="SourceGraphic" in2="effect1_dropShadow_1378_37171" result="shape"/>
</filter>
<filter id="filter5_d_1378_37171" x="230.121" y="328.027" width="330.561" height="39.8396" filterUnits="userSpaceOnUse" color-interpolation-filters="sRGB">
<feFlood flood-opacity="0" result="BackgroundImageFix"/>
<feColorMatrix in="SourceAlpha" type="matrix" values="0 0 0 0 0 0 0 0 0 0 0 0 0 0 0 0 0 0 127 0" result="hardAlpha"/>
<feOffset dy="1.07675"/>
<feGaussianBlur stdDeviation="2.69187"/>
<feColorMatrix type="matrix" values="0 0 0 0 0.0745098 0 0 0 0 0.0784314 0 0 0 0 0.0823529 0 0 0 0.1 0"/>
<feBlend mode="normal" in2="BackgroundImageFix" result="effect1_dropShadow_1378_37171"/>
<feBlend mode="normal" in="SourceGraphic" in2="effect1_dropShadow_1378_37171" result="shape"/>
</filter>
<filter id="filter6_d_1378_37171" x="230.121" y="364.637" width="330.561" height="39.8396" filterUnits="userSpaceOnUse" color-interpolation-filters="sRGB">
<feFlood flood-opacity="0" result="BackgroundImageFix"/>
<feColorMatrix in="SourceAlpha" type="matrix" values="0 0 0 0 0 0 0 0 0 0 0 0 0 0 0 0 0 0 127 0" result="hardAlpha"/>
<feOffset dy="1.07675"/>
<feGaussianBlur stdDeviation="2.69187"/>
<feColorMatrix type="matrix" values="0 0 0 0 0.0745098 0 0 0 0 0.0784314 0 0 0 0 0.0823529 0 0 0 0.1 0"/>
<feBlend mode="normal" in2="BackgroundImageFix" result="effect1_dropShadow_1378_37171"/>
<feBlend mode="normal" in="SourceGraphic" in2="effect1_dropShadow_1378_37171" result="shape"/>
</filter>
<filter id="filter7_d_1378_37171" x="224.738" y="400.861" width="341.329" height="89.37" filterUnits="userSpaceOnUse" color-interpolation-filters="sRGB">
<feFlood flood-opacity="0" result="BackgroundImageFix"/>
<feColorMatrix in="SourceAlpha" type="matrix" values="0 0 0 0 0 0 0 0 0 0 0 0 0 0 0 0 0 0 127 0" result="hardAlpha"/>
<feOffset dy="2.15349"/>
<feGaussianBlur stdDeviation="5.38373"/>
<feColorMatrix type="matrix" values="0 0 0 0 0.0745098 0 0 0 0 0.0784314 0 0 0 0 0.0823529 0 0 0 0.1 0"/>
<feBlend mode="normal" in2="BackgroundImageFix" result="effect1_dropShadow_1378_37171"/>
<feBlend mode="normal" in="SourceGraphic" in2="effect1_dropShadow_1378_37171" result="shape"/>
</filter>
<filter id="filter8_d_1378_37171" x="42.2291" y="383.943" width="189.507" height="94.7537" filterUnits="userSpaceOnUse" color-interpolation-filters="sRGB">
<feFlood flood-opacity="0" result="BackgroundImageFix"/>
<feColorMatrix in="SourceAlpha" type="matrix" values="0 0 0 0 0 0 0 0 0 0 0 0 0 0 0 0 0 0 127 0" result="hardAlpha"/>
<feOffset dy="2.15349"/>
<feGaussianBlur stdDeviation="5.38373"/>
<feColorMatrix type="matrix" values="0 0 0 0 0.0745098 0 0 0 0 0.0784314 0 0 0 0 0.0823529 0 0 0 0.1 0"/>
<feBlend mode="normal" in2="BackgroundImageFix" result="effect1_dropShadow_1378_37171"/>
<feBlend mode="normal" in="SourceGraphic" in2="effect1_dropShadow_1378_37171" result="shape"/>
</filter>
<filter id="filter9_d_1378_37171" x="577.372" y="298.955" width="333.791" height="199.198" filterUnits="userSpaceOnUse" color-interpolation-filters="sRGB">
<feFlood flood-opacity="0" result="BackgroundImageFix"/>
<feColorMatrix in="SourceAlpha" type="matrix" values="0 0 0 0 0 0 0 0 0 0 0 0 0 0 0 0 0 0 127 0" result="hardAlpha"/>
<feOffset dy="1.07675"/>
<feGaussianBlur stdDeviation="2.69187"/>
<feColorMatrix type="matrix" values="0 0 0 0 0.0745098 0 0 0 0 0.0784314 0 0 0 0 0.0823529 0 0 0 0.1 0"/>
<feBlend mode="normal" in2="BackgroundImageFix" result="effect1_dropShadow_1378_37171"/>
<feBlend mode="normal" in="SourceGraphic" in2="effect1_dropShadow_1378_37171" result="shape"/>
</filter>
<filter id="filter10_d_1378_37171" x="909.549" y="128.829" width="127.056" height="108.213" filterUnits="userSpaceOnUse" color-interpolation-filters="sRGB">
<feFlood flood-opacity="0" result="BackgroundImageFix"/>
<feColorMatrix in="SourceAlpha" type="matrix" values="0 0 0 0 0 0 0 0 0 0 0 0 0 0 0 0 0 0 127 0" result="hardAlpha"/>
<feOffset dy="2.15349"/>
<feGaussianBlur stdDeviation="5.38373"/>
<feColorMatrix type="matrix" values="0 0 0 0 0.0745098 0 0 0 0 0.0784314 0 0 0 0 0.0823529 0 0 0 0.1 0"/>
<feBlend mode="normal" in2="BackgroundImageFix" result="effect1_dropShadow_1378_37171"/>
<feBlend mode="normal" in="SourceGraphic" in2="effect1_dropShadow_1378_37171" result="shape"/>
</filter>
<filter id="filter11_d_1378_37171" x="909.549" y="227.89" width="127.056" height="48.4536" filterUnits="userSpaceOnUse" color-interpolation-filters="sRGB">
<feFlood flood-opacity="0" result="BackgroundImageFix"/>
<feColorMatrix in="SourceAlpha" type="matrix" values="0 0 0 0 0 0 0 0 0 0 0 0 0 0 0 0 0 0 127 0" result="hardAlpha"/>
<feOffset dy="2.15349"/>
<feGaussianBlur stdDeviation="5.38373"/>
<feColorMatrix type="matrix" values="0 0 0 0 0.0745098 0 0 0 0 0.0784314 0 0 0 0 0.0823529 0 0 0 0.1 0"/>
<feBlend mode="normal" in2="BackgroundImageFix" result="effect1_dropShadow_1378_37171"/>
<feBlend mode="normal" in="SourceGraphic" in2="effect1_dropShadow_1378_37171" result="shape"/>
</filter>
<filter id="filter12_d_1378_37171" x="909.549" y="272.037" width="127.056" height="222.886" filterUnits="userSpaceOnUse" color-interpolation-filters="sRGB">
<feFlood flood-opacity="0" result="BackgroundImageFix"/>
<feColorMatrix in="SourceAlpha" type="matrix" values="0 0 0 0 0 0 0 0 0 0 0 0 0 0 0 0 0 0 127 0" result="hardAlpha"/>
<feOffset dy="2.15349"/>
<feGaussianBlur stdDeviation="5.38373"/>
<feColorMatrix type="matrix" values="0 0 0 0 0.0745098 0 0 0 0 0.0784314 0 0 0 0 0.0823529 0 0 0 0.1 0"/>
<feBlend mode="normal" in2="BackgroundImageFix" result="effect1_dropShadow_1378_37171"/>
<feBlend mode="normal" in="SourceGraphic" in2="effect1_dropShadow_1378_37171" result="shape"/>
</filter>
<filter id="filter13_d_1378_37171" x="686.753" y="31.086" width="236.163" height="281.088" filterUnits="userSpaceOnUse" color-interpolation-filters="sRGB">
<feFlood flood-opacity="0" result="BackgroundImageFix"/>
<feColorMatrix in="SourceAlpha" type="matrix" values="0 0 0 0 0 0 0 0 0 0 0 0 0 0 0 0 0 0 127 0" result="hardAlpha"/>
<feOffset dy="6.07102"/>
<feGaussianBlur stdDeviation="9.10653"/>
<feColorMatrix type="matrix" values="0 0 0 0 0.0745098 0 0 0 0 0.0784314 0 0 0 0 0.0823529 0 0 0 0.1 0"/>
<feBlend mode="normal" in2="BackgroundImageFix" result="effect1_dropShadow_1378_37171"/>
<feBlend mode="normal" in="SourceGraphic" in2="effect1_dropShadow_1378_37171" result="shape"/>
</filter>
<filter id="filter14_f_1378_37171" x="250.494" y="111.65" width="575.251" height="312.332" filterUnits="userSpaceOnUse" color-interpolation-filters="sRGB">
<feFlood flood-opacity="0" result="BackgroundImageFix"/>
<feBlend mode="normal" in="SourceGraphic" in2="BackgroundImageFix" result="shape"/>
<feGaussianBlur stdDeviation="23.2505" result="effect1_foregroundBlur_1378_37171"/>
</filter>
<linearGradient id="paint0_linear_1378_37171" x1="32" y1="197.195" x2="561.583" y2="197.195" gradientUnits="userSpaceOnUse">
<stop stop-color="white"/>
<stop offset="1" stop-color="white" stop-opacity="0"/>
</linearGradient>
<linearGradient id="paint1_linear_1378_37171" x1="905.898" y1="76.343" x2="924.095" y2="128.16" gradientUnits="userSpaceOnUse">
<stop stop-color="#D6219C"/>
<stop offset="1" stop-color="#FFA78C"/>
</linearGradient>
<linearGradient id="paint2_linear_1378_37171" x1="977.609" y1="50.9275" x2="958.014" y2="103.553" gradientUnits="userSpaceOnUse">
<stop stop-color="#80C7F5"/>
<stop offset="1" stop-color="#FFA78C" stop-opacity="0.01"/>
</linearGradient>
<linearGradient id="paint3_linear_1378_37171" x1="714.664" y1="118.897" x2="896.935" y2="118.897" gradientUnits="userSpaceOnUse">
<stop stop-color="#9B9DA3"/>
<stop offset="1" stop-color="#C2C4CC"/>
</linearGradient>
<linearGradient id="paint4_linear_1378_37171" x1="392.695" y1="191.561" x2="335.049" y2="178.662" gradientUnits="userSpaceOnUse">
<stop stop-color="#A662FF"/>
<stop offset="1" stop-color="#57EDFD"/>
</linearGradient>
<linearGradient id="paint5_linear_1378_37171" x1="409.415" y1="254.621" x2="449.385" y2="207.326" gradientUnits="userSpaceOnUse">
<stop stop-color="#FC27F6"/>
<stop offset="1" stop-color="#FFA694"/>
</linearGradient>
<linearGradient id="paint6_linear_1378_37171" x1="380.114" y1="205.893" x2="429.957" y2="205.893" gradientUnits="userSpaceOnUse">
<stop stop-color="#7600FF"/>
<stop offset="1" stop-color="#FB2FFB"/>
</linearGradient>
<linearGradient id="paint7_linear_1378_37171" x1="401.134" y1="192.994" x2="389.51" y2="197.772" gradientUnits="userSpaceOnUse">
<stop stop-color="white"/>
<stop offset="1" stop-color="white" stop-opacity="0"/>
</linearGradient>
<linearGradient id="paint8_linear_1378_37171" x1="381.229" y1="209.715" x2="387.873" y2="212.153" gradientUnits="userSpaceOnUse">
<stop stop-color="white"/>
<stop offset="1" stop-color="white" stop-opacity="0"/>
</linearGradient>
<linearGradient id="paint9_linear_1378_37171" x1="439.353" y1="236.468" x2="431.072" y2="233.601" gradientUnits="userSpaceOnUse">
<stop stop-color="white"/>
<stop offset="1" stop-color="white" stop-opacity="0"/>
</linearGradient>
<clipPath id="clip0_1378_37171">
<rect x="32" y="26" width="1024" height="442.811" rx="12" fill="white"/>
</clipPath>
<clipPath id="clip1_1378_37171">
<rect width="1025" height="443" fill="white" transform="translate(32 26)"/>
</clipPath>
<clipPath id="clip2_1378_37171">
<rect width="5.81141" height="5.81141" fill="white" transform="translate(303.109 67.1831)"/>
</clipPath>
<clipPath id="clip3_1378_37171">
<rect width="5.81141" height="5.81141" fill="white" transform="translate(303.109 46.262)"/>
</clipPath>
<clipPath id="clip4_1378_37171">
<rect width="9.69072" height="9.69072" fill="white" transform="translate(294.188 188.589)"/>
</clipPath>
<clipPath id="clip5_1378_37171">
<rect width="122.168" height="25.0344" fill="white" transform="translate(358.599 99.1162)"/>
</clipPath>
<clipPath id="clip6_1378_37171">
<rect width="122.168" height="25.0344" fill="white" transform="translate(488.777 99.1162)"/>
</clipPath>
<clipPath id="clip7_1378_37171">
<rect width="252.346" height="25.0344" fill="white" transform="translate(358.599 132.162)"/>
</clipPath>
<clipPath id="clip8_1378_37171">
<rect width="252.346" height="25.0344" fill="white" transform="translate(358.599 165.207)"/>
</clipPath>
<clipPath id="clip9_1378_37171">
<rect width="6.00825" height="6.00825" fill="white" transform="translate(619.958 49.5483)"/>
</clipPath>
<clipPath id="clip10_1378_37171">
<rect width="319.794" height="29.0722" fill="white" transform="translate(235.505 295.725)"/>
</clipPath>
<clipPath id="clip11_1378_37171">
<rect width="6.46048" height="6.46048" fill="white" transform="translate(542.378 302.186)"/>
</clipPath>
<clipPath id="clip12_1378_37171">
<rect width="319.794" height="29.0722" fill="white" transform="translate(235.505 332.334)"/>
</clipPath>
<clipPath id="clip13_1378_37171">
<rect width="10.7675" height="10.7675" fill="white" transform="translate(246.273 341.487)"/>
</clipPath>
<clipPath id="clip14_1378_37171">
<rect width="6.46048" height="6.46048" fill="white" transform="translate(542.378 338.795)"/>
</clipPath>
<clipPath id="clip15_1378_37171">
<rect width="319.794" height="29.0722" fill="white" transform="translate(235.505 368.944)"/>
</clipPath>
<clipPath id="clip16_1378_37171">
<rect width="6.46048" height="6.46048" fill="white" transform="translate(542.378 375.404)"/>
</clipPath>
<clipPath id="clip17_1378_37171">
<rect width="319.794" height="67.835" fill="white" transform="translate(235.505 409.475)"/>
</clipPath>
<clipPath id="clip18_1378_37171">
<rect width="11.8442" height="11.8442" fill="white" transform="translate(433.088 421.704)"/>
</clipPath>
<clipPath id="clip19_1378_37171">
<rect width="11.8442" height="11.8442" fill="white" transform="translate(433.088 463.159)"/>
</clipPath>
<clipPath id="clip20_1378_37171">
<rect width="17.2279" height="17.2279" fill="white" transform="translate(65.3793 404.939)"/>
</clipPath>
<clipPath id="clip21_1378_37171">
<rect width="32.3024" height="32.3024" fill="white" transform="translate(753.959 322.105)"/>
</clipPath>
<clipPath id="clip22_1378_37171">
<rect width="32.3024" height="32.3024" fill="white" transform="translate(804.566 323.182)"/>
</clipPath>
<clipPath id="clip23_1378_37171">
<rect width="32.3024" height="32.3024" fill="white" transform="translate(855.173 322.105)"/>
</clipPath>
<clipPath id="clip24_1378_37171">
<rect width="23.6884" height="12.921" fill="white" transform="translate(646.284 55.0723)"/>
</clipPath>
<clipPath id="clip25_1378_37171">
<rect width="23.6884" height="12.921" fill="white" transform="translate(646.284 87.833)"/>
</clipPath>
<clipPath id="clip26_1378_37171">
<rect width="23.6884" height="12.921" fill="white" transform="translate(646.284 104.213)"/>
</clipPath>
<clipPath id="clip27_1378_37171">
<rect width="23.6884" height="12.921" fill="white" transform="matrix(-1 0 0 1 669.972 123.984)"/>
</clipPath>
<clipPath id="clip28_1378_37171">
<rect width="171.203" height="56.4605" fill="white" transform="translate(722.573 59.0127)"/>
</clipPath>
<clipPath id="clip29_1378_37171">
<rect width="13.9977" height="11.3058" fill="white" transform="translate(647.361 174.591)"/>
</clipPath>
<clipPath id="clip30_1378_37171">
<rect width="13.9977" height="11.3058" fill="white" transform="translate(662.435 205.817)"/>
</clipPath>
<clipPath id="clip31_1378_37171">
<rect width="8.61397" height="8.61397" fill="white" transform="translate(928.93 245.656)"/>
</clipPath>
</defs>
</svg>
