<svg width="24" height="24" viewBox="0 0 24 24"  xmlns="http://www.w3.org/2000/svg">
<path fill-rule="evenodd" clip-rule="evenodd" d="M18.27 8.57589L20.6022 6.3002H1.6V21.7002H8.8C9.24183 21.7002 9.6 22.0584 9.6 22.5002C9.6 22.942 9.24183 23.3002 8.8 23.3002H0.800001C0.358171 23.3002 0 22.942 0 22.5002V5.5002C0 5.05837 0.342995 4.7002 0.766102 4.7002H20.579L18.3483 2.40907C18.0285 2.08062 18.0355 1.55512 18.364 1.23533C18.6924 0.915534 19.2179 0.922554 19.5377 1.251L23.135 4.94574C23.1424 4.95274 23.1496 4.9599 23.1568 4.96722C23.4769 5.29532 23.4705 5.82083 23.1424 6.14098L19.4294 9.76404C19.1013 10.0842 18.5758 10.0778 18.2556 9.74965C17.9355 9.42155 17.9419 8.89604 18.27 8.57589ZM22.8095 18.2456C22.8095 15.3765 21.6161 13.834 19.3944 13.834C17.1791 13.834 15.9857 15.3765 15.9857 18.2456V18.6899C15.9857 21.5591 17.1791 23.1016 19.3944 23.1016C21.6161 23.1016 22.8095 21.5591 22.8095 18.6899V18.2456ZM17.5917 18.2266C17.5917 16.2207 18.182 15.2939 19.3944 15.2939C20.6132 15.2939 21.2035 16.2207 21.2035 18.2266V18.709C21.2035 20.7148 20.6132 21.6416 19.3944 21.6416C18.182 21.6416 17.5917 20.7148 17.5917 18.709V18.2266ZM13.8529 23V13.9863H12.5199C11.9105 14.7417 11.0917 15.2114 10.057 15.3828V17.0205C11.0282 16.8491 11.7709 16.4873 12.2724 15.9604V23H13.8529Z" fill="currentColor"/>
</svg>
