<svg width="24" height="24" viewBox="0 0 24 24"  xmlns="http://www.w3.org/2000/svg">
<g clip-path="url(#clip0_865_6626)">
<path fill-rule="evenodd" clip-rule="evenodd" d="M6.41667 0V4.00228C6.44425 4.00076 6.47204 4 6.5 4H22.5C23.3284 4 24 4.67157 24 5.5V22.5C24 23.3284 23.3284 24 22.5 24H18.5C17.6716 24 17 23.3284 17 22.5C17 21.6716 17.6716 21 18.5 21H21V7H6.5C6.47204 7 6.44425 6.99924 6.41667 6.99772V11L0 5.5L6.41667 0ZM7.46383 14.6581C8.14939 13.7711 9.1595 13.334 10.3945 13.334C11.6323 13.334 12.644 13.7708 13.3306 14.6578C14.0008 15.5238 14.3096 16.7529 14.3096 18.2456V18.6899C14.3096 20.1827 14.0008 21.4118 13.3306 22.2777C12.644 23.1648 11.6323 23.6016 10.3945 23.6016C9.1595 23.6016 8.14939 23.1644 7.46383 22.2775C6.7946 21.4116 6.48584 20.1827 6.48584 18.6899V18.2456C6.48584 16.7529 6.7946 15.5239 7.46383 14.6581ZM3.28096 13.4863H5.35303V23.5H2.77246V16.9635C2.30473 17.2224 1.75752 17.4046 1.14402 17.5129L0.557129 17.6165V14.9588L0.97542 14.8895C1.89693 14.7369 2.60336 14.3263 3.13086 13.6724L3.28096 13.4863ZM9.46345 16.2715C9.23817 16.6349 9.0918 17.2546 9.0918 18.2266V18.709C9.0918 19.681 9.23817 20.3007 9.46345 20.664C9.66134 20.9831 9.94137 21.1416 10.3945 21.1416C10.8519 21.1416 11.1333 20.9823 11.3315 20.6635C11.5572 20.3004 11.7036 19.681 11.7036 18.709V18.2266C11.7036 17.2545 11.5572 16.6351 11.3315 16.2721C11.1333 15.9532 10.8519 15.7939 10.3945 15.7939C9.94137 15.7939 9.66134 15.9524 9.46345 16.2715Z" fill="currentColor"/>
</g>
<defs>
<clipPath id="clip0_865_6626">
<rect width="24" height="24" fill="currentColor"/>
</clipPath>
</defs>
</svg>
