<svg width="24" height="24" viewBox="0 0 24 24"  xmlns="http://www.w3.org/2000/svg">
<path fill-rule="evenodd" clip-rule="evenodd" d="M5.1227 8.57589L2.79053 6.3002H21.7927V21.7002H14.5927C14.1509 21.7002 13.7927 22.0584 13.7927 22.5002C13.7927 22.942 14.1509 23.3002 14.5927 23.3002H22.5927C23.0346 23.3002 23.3927 22.942 23.3927 22.5002V5.5002C23.3927 5.05837 23.0497 4.7002 22.6266 4.7002H2.81373L5.04444 2.40907C5.36423 2.08062 5.35721 1.55512 5.02876 1.23533C4.70031 0.915534 4.17481 0.922554 3.85502 1.251L0.257699 4.94574C0.250355 4.95274 0.243108 4.9599 0.235964 4.96722C-0.0841892 5.29532 -0.0777482 5.82083 0.25035 6.14098L3.96332 9.76404C4.29142 10.0842 4.81693 10.0778 5.13708 9.74965C5.45724 9.42155 5.4508 8.89604 5.1227 8.57589ZM12.8096 18.2456C12.8096 15.3765 11.6162 13.834 9.39453 13.834C7.1792 13.834 5.98584 15.3765 5.98584 18.2456V18.6899C5.98584 21.5591 7.1792 23.1016 9.39453 23.1016C11.6162 23.1016 12.8096 21.5591 12.8096 18.6899V18.2456ZM7.5918 18.2266C7.5918 16.2207 8.18213 15.2939 9.39453 15.2939C10.6133 15.2939 11.2036 16.2207 11.2036 18.2266V18.709C11.2036 20.7148 10.6133 21.6416 9.39453 21.6416C8.18213 21.6416 7.5918 20.7148 7.5918 18.709V18.2266ZM3.85303 23V13.9863H2.52002C1.91064 14.7417 1.0918 15.2114 0.0571289 15.3828V17.0205C1.02832 16.8491 1.771 16.4873 2.27246 15.9604V23H3.85303Z" fill="currentColor"/>
</svg>
