<svg width="24" height="24" viewBox="0 0 24 24"  xmlns="http://www.w3.org/2000/svg">
<g clip-path="url(#clip0_865_6636)">
<path fill-rule="evenodd" clip-rule="evenodd" d="M17.5833 0V4.00228C17.5557 4.00076 17.528 4 17.5 4H1.5C0.671574 4 0 4.67157 0 5.5V22.5C0 23.3284 0.671574 24 1.5 24H5.5C6.32843 24 7 23.3284 7 22.5C7 21.6716 6.32843 21 5.5 21H3V7H17.5C17.528 7 17.5557 6.99924 17.5833 6.99772V11L24 5.5L17.5833 0ZM15.4638 14.6581C16.1494 13.7711 17.1595 13.334 18.3945 13.334C19.6323 13.334 20.644 13.7708 21.3306 14.6578C22.0008 15.5238 22.3096 16.7529 22.3096 18.2456V18.6899C22.3096 20.1827 22.0008 21.4118 21.3306 22.2777C20.644 23.1648 19.6323 23.6016 18.3945 23.6016C17.1595 23.6016 16.1494 23.1644 15.4638 22.2775C14.7946 21.4116 14.4858 20.1827 14.4858 18.6899V18.2456C14.4858 16.7529 14.7946 15.5239 15.4638 14.6581ZM11.281 13.4863H13.353V23.5H10.7725V16.9635C10.3047 17.2224 9.75752 17.4046 9.14402 17.5129L8.55713 17.6165V14.9588L8.97542 14.8895C9.89693 14.7369 10.6034 14.3263 11.1309 13.6724L11.281 13.4863ZM17.4635 16.2715C17.2382 16.6349 17.0918 17.2546 17.0918 18.2266V18.709C17.0918 19.681 17.2382 20.3007 17.4635 20.664C17.6613 20.9831 17.9414 21.1416 18.3945 21.1416C18.8519 21.1416 19.1333 20.9823 19.3315 20.6635C19.5572 20.3004 19.7036 19.681 19.7036 18.709V18.2266C19.7036 17.2545 19.5572 16.6351 19.3315 16.2721C19.1333 15.9532 18.8519 15.7939 18.3945 15.7939C17.9414 15.7939 17.6613 15.9524 17.4635 16.2715Z" fill="currentColor"/>
</g>
<defs>
<clipPath id="clip0_865_6636">
<rect width="24" height="24" fill="currentColor"/>
</clipPath>
</defs>
</svg>
