<svg width="24" height="24" viewBox="0 0 24 24"  xmlns="http://www.w3.org/2000/svg">
<g clip-path="url(#clip0_865_6650)">
<path d="M6.41667 4.00228V0L0 5.5L6.41667 11V6.99772C6.44425 6.99924 6.47204 7 6.5 7H21V21H20.5C19.6716 21 19 21.6716 19 22.5C19 23.3284 19.6716 24 20.5 24H22.5C23.3284 24 24 23.3284 24 22.5V5.5C24 4.67157 23.3284 4 22.5 4H6.5C6.47204 4 6.44425 4.00076 6.41667 4.00228Z" fill="currentColor"/>
<path fill-rule="evenodd" clip-rule="evenodd" d="M9.48197 14.7193C10.1455 13.8609 11.124 13.4341 12.3336 13.4341C13.5459 13.4341 14.5261 13.8606 15.1905 14.7191C15.8419 15.5608 16.1486 16.7646 16.1486 18.2457V18.69C16.1486 20.1711 15.8419 21.375 15.1905 22.2166C14.5261 23.0751 13.5459 23.5017 12.3336 23.5017C11.124 23.5017 10.1455 23.0748 9.48197 22.2164C8.83153 21.3749 8.52486 20.1712 8.52486 18.69V18.2457C8.52486 16.7646 8.83153 15.5609 9.48197 14.7193ZM11.3175 16.2189C11.0774 16.6061 10.9308 17.2485 10.9308 18.2267V18.7091C10.9308 19.6872 11.0774 20.3297 11.3175 20.7168C11.5356 21.0686 11.8498 21.2417 12.3336 21.2417C12.8213 21.2417 13.1369 21.0679 13.3554 20.7164C13.596 20.3294 13.7426 19.6873 13.7426 18.7091V18.2267C13.7426 17.2484 13.596 16.6063 13.3554 16.2193C13.1369 15.8678 12.8213 15.694 12.3336 15.694C11.8498 15.694 11.5356 15.8671 11.3175 16.2189Z" fill="currentColor"/>
<path d="M0.514117 13.5864H7.53482V15.5885L5.42084 17.4582C5.93759 17.5572 6.40988 17.757 6.7995 18.0614C7.43869 18.5609 7.82046 19.3161 7.82046 20.2643C7.82046 21.1937 7.46244 22.0137 6.80956 22.5976C6.15976 23.1788 5.24631 23.5017 4.17046 23.5017C2.30344 23.5017 0.819669 22.5102 0.363585 20.8596L2.6856 20.1912C2.84493 20.8186 3.33652 21.2798 4.15777 21.2798C4.58232 21.2798 4.89847 21.1629 5.10091 20.9936C5.29638 20.8302 5.41451 20.5955 5.41451 20.2833C5.41451 19.9917 5.3125 19.7995 5.14701 19.6696C4.96809 19.5292 4.66863 19.4265 4.22125 19.4265C4.22125 19.4265 3.77938 19.4145 3.5 19.5L2.5 17.4582L4.04426 15.8591H0.514117V13.5864Z" fill="currentColor"/>
</g>
<defs>
<clipPath id="clip0_865_6650">
<rect width="24" height="24" fill="currentColor"/>
</clipPath>
</defs>
</svg>
