<svg width="25" height="24" viewBox="0 0 25 24"  xmlns="http://www.w3.org/2000/svg">
<path d="M3.04151 6.3002L5.37368 8.57589C5.70178 8.89604 5.70822 9.42155 5.38806 9.74965C5.06791 10.0778 4.5424 10.0842 4.2143 9.76404L0.501327 6.14098C0.173228 5.82083 0.166787 5.29532 0.486941 4.96722C0.494085 4.9599 0.501332 4.95274 0.508676 4.94574L4.106 1.251C4.42579 0.922554 4.95129 0.915534 5.27974 1.23533C5.60819 1.55512 5.61521 2.08062 5.29542 2.40907L3.06471 4.7002H22.8776C23.3007 4.7002 23.6437 5.05837 23.6437 5.5002V22.5002C23.6437 22.942 23.2856 23.3002 22.8437 23.3002H17.8437C17.4019 23.3002 17.0437 22.942 17.0437 22.5002C17.0437 22.0584 17.4019 21.7002 17.8437 21.7002H22.0437V6.3002H3.04151Z" fill="currentColor"/>
<path fill-rule="evenodd" clip-rule="evenodd" d="M11.5845 13.834C13.8062 13.834 14.9995 15.3765 14.9995 18.2456V18.6899C14.9995 21.5591 13.8062 23.1016 11.5845 23.1016C9.36914 23.1016 8.17578 21.5591 8.17578 18.6899V18.2456C8.17578 15.3765 9.36914 13.834 11.5845 13.834ZM11.5845 15.2939C10.3721 15.2939 9.78174 16.2207 9.78174 18.2266V18.709C9.78174 20.7148 10.3721 21.6416 11.5845 21.6416C12.8032 21.6416 13.3936 20.7148 13.3936 18.709V18.2266C13.3936 16.2207 12.8032 15.2939 11.5845 15.2939Z" fill="currentColor"/>
<path d="M0.165039 13.9863H6.38574V15.4082L3.69434 17.7886C5.35107 17.7188 6.67139 18.6011 6.67139 20.2642C6.67139 21.9082 5.41455 23.1016 3.42139 23.1016C1.70117 23.1016 0.399902 22.2002 0 20.7529L1.54883 20.2896C1.75195 21.0894 2.39941 21.6797 3.40869 21.6797C4.39893 21.6797 5.06543 21.1338 5.06543 20.2832C5.06543 19.4834 4.4751 19.0264 3.47217 19.0264C3.03418 19.0264 2.56445 19.1152 2.25342 19.2104L1.51709 17.9727L4.34814 15.459H0.165039V13.9863Z" fill="currentColor"/>
</svg>
