<svg width="24" height="24" viewBox="0 0 24 24"  xmlns="http://www.w3.org/2000/svg">
<g clip-path="url(#clip0_865_6664)">
<path d="M17.5833 0V4.00228C17.5557 4.00076 17.528 4 17.5 4H1.5C0.671574 4 0 4.67157 0 5.5V22.5C0 23.3284 0.671574 24 1.5 24H3.5C4.32843 24 5 23.3284 5 22.5C5 21.6716 4.32843 21 3.5 21H3V7H17.5C17.528 7 17.5557 6.99924 17.5833 6.99772V11L24 5.5L17.5833 0Z" fill="currentColor"/>
<path fill-rule="evenodd" clip-rule="evenodd" d="M19.3335 13.4341C18.124 13.4341 17.1455 13.8609 16.482 14.7193C15.8315 15.5609 15.5249 16.7646 15.5249 18.2457V18.69C15.5249 20.1712 15.8315 21.3749 16.482 22.2164C17.1455 23.0748 18.124 23.5017 19.3335 23.5017C20.5459 23.5017 21.5261 23.0751 22.1905 22.2166C22.8419 21.375 23.1486 20.1711 23.1486 18.69V18.2457C23.1486 16.7646 22.8419 15.5608 22.1905 14.7191C21.5261 13.8606 20.5459 13.4341 19.3335 13.4341ZM17.9308 18.2267C17.9308 17.2485 18.0774 16.6061 18.3175 16.2189C18.5356 15.8671 18.8498 15.694 19.3335 15.694C19.8213 15.694 20.1369 15.8678 20.3554 16.2193C20.596 16.6063 20.7426 17.2484 20.7426 18.2267V18.7091C20.7426 19.6873 20.596 20.3294 20.3554 20.7164C20.1369 21.0679 19.8213 21.2417 19.3335 21.2417C18.8498 21.2417 18.5356 21.0686 18.3175 20.7168C18.0774 20.3297 17.9308 19.6872 17.9308 18.7091V18.2267Z" fill="currentColor"/>
<path d="M14.5348 13.5864H7.51406V15.8591H11.0442L9.49994 17.4582L10.4999 19.5C10.7793 19.4145 11.2212 19.4265 11.2212 19.4265C11.6686 19.4265 11.968 19.5292 12.1469 19.6696C12.3124 19.7995 12.4144 19.9917 12.4144 20.2833C12.4144 20.5955 12.2963 20.8302 12.1008 20.9936C11.8984 21.1629 11.5823 21.2798 11.1577 21.2798C10.3365 21.2798 9.84487 20.8186 9.68554 20.1912L7.36353 20.8596C7.81961 22.5102 9.30338 23.5017 11.1704 23.5017C12.2462 23.5017 13.1597 23.1788 13.8095 22.5976C14.4624 22.0137 14.8204 21.1937 14.8204 20.2643C14.8204 19.3161 14.4386 18.5609 13.7994 18.0614C13.4098 17.757 12.9375 17.5572 12.4208 17.4582L14.5348 15.5885V13.5864Z" fill="currentColor"/>
</g>
<defs>
<clipPath id="clip0_865_6664">
<rect width="24" height="24" fill="currentColor"/>
</clipPath>
</defs>
</svg>
