<svg width="25" height="24" viewBox="0 0 25 24"  xmlns="http://www.w3.org/2000/svg">
<path d="M18.27 8.57589L20.6022 6.3002H1.6V21.7002H5.8C6.2418 21.7002 6.6 22.0584 6.6 22.5002C6.6 22.942 6.2418 23.3002 5.8 23.3002H0.800001C0.358101 23.3002 0 22.942 0 22.5002V5.5002C0 5.05837 0.343 4.7002 0.7661 4.7002H20.579L18.3483 2.40907C18.0285 2.08062 18.0355 1.55512 18.3639 1.23533C18.6924 0.915534 19.2179 0.922554 19.5377 1.251L23.135 4.94574C23.1423 4.95274 23.1496 4.9599 23.1567 4.96722C23.4769 5.29532 23.4704 5.82083 23.1423 6.14098L19.4294 9.76404C19.1013 10.0842 18.5758 10.0778 18.2556 9.74965C17.9355 9.42155 17.9419 8.89604 18.27 8.57589Z" fill="currentColor"/>
<path fill-rule="evenodd" clip-rule="evenodd" d="M16.6442 18.2456C16.6442 15.3765 17.8375 13.834 20.0592 13.834C22.2745 13.834 23.4679 15.3765 23.4679 18.2456V18.6899C23.4679 21.5591 22.2745 23.1016 20.0592 23.1016C17.8375 23.1016 16.6442 21.5591 16.6442 18.6899V18.2456ZM21.8619 18.2266C21.8619 16.2207 21.2716 15.2939 20.0592 15.2939C18.8405 15.2939 18.2501 16.2207 18.2501 18.2266V18.709C18.2501 20.7148 18.8405 21.6416 20.0592 21.6416C21.2716 21.6416 21.8619 20.7148 21.8619 18.709V18.2266Z" fill="currentColor"/>
<path d="M14.3859 13.9863H8.16516V15.459H12.3483L9.51721 17.9727L10.2535 19.2104C10.5646 19.1152 11.0343 19.0264 11.4723 19.0264C12.4752 19.0264 13.0656 19.4834 13.0656 20.2832C13.0656 21.1338 12.399 21.6797 11.4088 21.6797C10.3995 21.6797 9.75208 21.0894 9.54895 20.2896L8.00012 20.7529C8.40002 22.2002 9.70129 23.1016 11.4215 23.1016C13.4147 23.1016 14.6715 21.9082 14.6715 20.2642C14.6715 18.6011 13.3512 17.7188 11.6945 17.7886L14.3859 15.4082V13.9863Z" fill="currentColor"/>
</svg>
