<svg width="24" height="24" viewBox="0 0 24 24"  xmlns="http://www.w3.org/2000/svg">
<g clip-path="url(#clip0_865_6674)">
<path d="M6.41667 0V4.00228C6.44425 4.00076 6.47204 4 6.5 4H22.5C23.3284 4 24 4.67157 24 5.5V22.5C24 23.3284 23.3284 24 22.5 24H12.5C11.6716 24 11 23.3284 11 22.5C11 21.6716 11.6716 21 12.5 21H21V7H6.5C6.47204 7 6.44425 6.99924 6.41667 6.99772V11L0 5.5L6.41667 0ZM7.36306 13.5864H1.44015L0.691608 19.1242L2.92781 19.4622C3.2245 19.1253 3.71717 18.8742 4.31609 18.8742C4.75515 18.8742 5.04238 19.0147 5.22178 19.2058C5.40522 19.4012 5.5157 19.6922 5.5157 20.0611C5.5157 20.4169 5.40133 20.7162 5.20138 20.924C5.00485 21.1282 4.69138 21.2798 4.22087 21.2798C3.81663 21.2798 3.50155 21.1667 3.26541 20.9855C3.02795 20.8034 2.84758 20.5349 2.74438 20.1882L0.42749 20.8622C0.896398 22.5142 2.3571 23.5017 4.22087 23.5017C5.31358 23.5017 6.2448 23.1602 6.90609 22.5355C7.56915 21.9091 7.928 21.0283 7.928 20.0167C7.928 19.0998 7.63301 18.2681 7.05366 17.6628C6.47164 17.0548 5.63519 16.7095 4.62077 16.7095C4.17659 16.7095 3.68173 16.7763 3.20045 16.984L3.35188 15.8591H7.36306V13.5864Z" fill="currentColor"/>
</g>
<defs>
<clipPath id="clip0_865_6674">
<rect width="24" height="24" fill="currentColor"/>
</clipPath>
</defs>
</svg>
