<svg width="24" height="24" viewBox="0 0 24 24"  xmlns="http://www.w3.org/2000/svg">
<g clip-path="url(#clip0_865_6684)">
<path d="M17.5833 0V4.00228C17.5557 4.00076 17.528 4 17.5 4H1.5C0.671574 4 0 4.67157 0 5.5V22.5C0 23.3284 0.671574 24 1.5 24H10.5C11.3284 24 12 23.3284 12 22.5C12 21.6716 11.3284 21 10.5 21H3V7H17.5C17.528 7 17.5557 6.99924 17.5833 6.99772V11L24 5.5L17.5833 0ZM22.3631 13.5864H16.4402L15.6916 19.1242L17.9278 19.4622C18.2245 19.1253 18.7172 18.8742 19.3161 18.8742C19.7552 18.8742 20.0424 19.0147 20.2218 19.2058C20.4052 19.4012 20.5157 19.6922 20.5157 20.0611C20.5157 20.4169 20.4013 20.7162 20.2014 20.924C20.0049 21.1282 19.6914 21.2798 19.2209 21.2798C18.8166 21.2798 18.5016 21.1667 18.2654 20.9855C18.028 20.8034 17.8476 20.5349 17.7444 20.1882L15.4275 20.8622C15.8964 22.5142 17.3571 23.5017 19.2209 23.5017C20.3136 23.5017 21.2448 23.1602 21.9061 22.5355C22.5692 21.9091 22.928 21.0283 22.928 20.0167C22.928 19.0998 22.633 18.2681 22.0537 17.6628C21.4717 17.0548 20.6352 16.7095 19.6208 16.7095C19.1766 16.7095 18.6817 16.7763 18.2005 16.984L18.3519 15.8591H22.3631V13.5864Z" fill="currentColor"/>
</g>
<defs>
<clipPath id="clip0_865_6684">
<rect width="24" height="24" fill="currentColor"/>
</clipPath>
</defs>
</svg>
