<svg width="25" height="24" viewBox="0 0 25 24"  xmlns="http://www.w3.org/2000/svg">
<path d="M2.97803 6.3002L5.3102 8.57589C5.6383 8.89604 5.64474 9.42155 5.32458 9.74965C5.00443 10.0778 4.47892 10.0842 4.15082 9.76404L0.43785 6.14098C0.109752 5.82083 0.103311 5.29532 0.42346 4.96722C0.43061 4.9599 0.43786 4.95274 0.4452 4.94574L4.04252 1.251C4.36231 0.922554 4.88781 0.915534 5.21626 1.23533C5.54471 1.55512 5.55173 2.08062 5.23194 2.40907L3.00123 4.7002H22.8141C23.2372 4.7002 23.5802 5.05837 23.5802 5.5002V22.5002C23.5802 22.942 23.2221 23.3002 22.7802 23.3002H10.7802C10.3384 23.3002 9.9802 22.942 9.9802 22.5002C9.9802 22.0584 10.3384 21.7002 10.7802 21.7002H21.9802V6.3002H2.97803ZM6.1509 13.9863V15.459H2.1899L1.8789 17.7695C2.4756 17.2554 3.1802 17.1094 3.8086 17.1094C5.6494 17.1094 6.7158 18.3535 6.7158 20.0166C6.7158 21.8447 5.4272 23.1016 3.4087 23.1016C1.6948 23.1016 0.4126 22.2065 0 20.7529L1.5488 20.3022C1.7964 21.1338 2.4438 21.6797 3.4087 21.6797C4.5322 21.6797 5.1035 20.9434 5.1035 20.061C5.1035 19.166 4.564 18.4741 3.5039 18.4741C2.793 18.4741 2.1899 18.7725 1.8154 19.1978L0.3237 18.8232L0.9775 13.9863H6.1509Z" fill="currentColor"/>
</svg>
