<svg width="24" height="24" viewBox="0 0 24 24"  xmlns="http://www.w3.org/2000/svg">
<path d="M18.27 8.57589L20.6022 6.3002H1.6V21.7002H12.8C13.2418 21.7002 13.6 22.0584 13.6 22.5002C13.6 22.942 13.2418 23.3002 12.8 23.3002H0.800001C0.358171 23.3002 0 22.942 0 22.5002V5.5002C0 5.05837 0.342995 4.7002 0.766102 4.7002H20.579L18.3483 2.40907C18.0285 2.08062 18.0355 1.55512 18.364 1.23533C18.6924 0.915534 19.2179 0.922554 19.5377 1.251L23.135 4.94574C23.1424 4.95274 23.1496 4.9599 23.1568 4.96722C23.4769 5.29532 23.4705 5.82083 23.1424 6.14098L19.4294 9.76404C19.1013 10.0842 18.5758 10.0778 18.2556 9.74965C17.9355 9.42155 17.9419 8.89604 18.27 8.57589ZM21.9634 13.9863V15.459H18.0024L17.6914 17.7695C18.2881 17.2554 18.9927 17.1094 19.6211 17.1094C21.4619 17.1094 22.5283 18.3535 22.5283 20.0166C22.5283 21.8447 21.2397 23.1016 19.2212 23.1016C17.5073 23.1016 16.2251 22.2065 15.8125 20.7529L17.3613 20.3022C17.6089 21.1338 18.2563 21.6797 19.2212 21.6797C20.3447 21.6797 20.916 20.9434 20.916 20.061C20.916 19.166 20.3765 18.4741 19.3164 18.4741C18.6055 18.4741 18.0024 18.7725 17.6279 19.1978L16.1362 18.8232L16.79 13.9863H21.9634Z" fill="currentColor"/>
</svg>
