<svg width="24" height="24" viewBox="0 0 24 24"  xmlns="http://www.w3.org/2000/svg">
<path d="M3.53399 6.50681C3.53399 6.2308 3.7568 6.00705 4.03166 6.00705H5.38641C5.66127 6.00705 5.88408 6.2308 5.88408 6.50681V8.00611C5.88408 8.28212 5.66127 8.50587 5.38641 8.50587H4.03166C3.7568 8.50587 3.53399 8.28212 3.53399 8.00611V6.50681Z" fill="currentColor"/>
<path d="M8.23417 6.50681C8.23417 6.2308 8.45698 6.00705 8.73183 6.00705H10.0866C10.3614 6.00705 10.5843 6.2308 10.5843 6.50681V8.00611C10.5843 8.28212 10.3614 8.50587 10.0866 8.50587H8.73183C8.45698 8.50587 8.23417 8.28212 8.23417 8.00611V6.50681Z" fill="currentColor"/>
<path d="M4.03166 10.5049C3.7568 10.5049 3.53399 10.7287 3.53399 11.0047V12.504C3.53399 12.78 3.7568 13.0038 4.03166 13.0038H5.38641C5.66127 13.0038 5.88408 12.78 5.88408 12.504V11.0047C5.88408 10.7287 5.66127 10.5049 5.38641 10.5049H4.03166Z" fill="currentColor"/>
<path d="M8.23417 11.0047C8.23417 10.7287 8.45698 10.5049 8.73183 10.5049H10.0866C10.3614 10.5049 10.5843 10.7287 10.5843 11.0047V12.504C10.5843 12.78 10.3614 13.0038 10.0866 13.0038H8.73183C8.45698 13.0038 8.23417 12.78 8.23417 12.504V11.0047Z" fill="currentColor"/>
<path d="M13.902 6.00705C13.6272 6.00705 13.4044 6.2308 13.4044 6.50681V8.00611C13.4044 8.28212 13.6272 8.50587 13.902 8.50587H15.2568C15.5316 8.50587 15.7544 8.28212 15.7544 8.00611V6.50681C15.7544 6.2308 15.5316 6.00705 15.2568 6.00705H13.902Z" fill="currentColor"/>
<path d="M13.4044 11.0047C13.4044 10.7287 13.6272 10.5049 13.902 10.5049H15.2568C15.5316 10.5049 15.7544 10.7287 15.7544 11.0047V12.504C15.7544 12.78 15.5316 13.0038 15.2568 13.0038H13.902C13.6272 13.0038 13.4044 12.78 13.4044 12.504V11.0047Z" fill="currentColor"/>
<path d="M18.6022 6.00705C18.3273 6.00705 18.1045 6.2308 18.1045 6.50681V8.00611C18.1045 8.28212 18.3273 8.50587 18.6022 8.50587H19.9569C20.2318 8.50587 20.4546 8.28212 20.4546 8.00611V6.50681C20.4546 6.2308 20.2318 6.00705 19.9569 6.00705H18.6022Z" fill="currentColor"/>
<path d="M18.1045 11.0047C18.1045 10.7287 18.3273 10.5049 18.6022 10.5049H19.9569C20.2318 10.5049 20.4546 10.7287 20.4546 11.0047V12.504C20.4546 12.78 20.2318 13.0038 19.9569 13.0038H18.6022C18.3273 13.0038 18.1045 12.78 18.1045 12.504V11.0047Z" fill="currentColor"/>
<path d="M5.99994 16.25C5.99994 15.8358 6.33573 15.5 6.74994 15.5H17.2499C17.6642 15.5 17.9999 15.8358 17.9999 16.25C17.9999 16.6642 17.6642 17 17.2499 17H6.74994C6.33573 17 5.99994 16.6642 5.99994 16.25Z" fill="currentColor"/>
<path fill-rule="evenodd" clip-rule="evenodd" d="M0 6C0 3.79086 1.79086 2 4 2H20C22.2091 2 24 3.79086 24 6V17C24 19.2091 22.2091 21 20 21H4C1.79086 21 0 19.2091 0 17V6ZM4 3.5H20C21.3807 3.5 22.5 4.61929 22.5 6V17C22.5 18.3807 21.3807 19.5 20 19.5H4C2.61929 19.5 1.5 18.3807 1.5 17V6C1.5 4.61929 2.61929 3.5 4 3.5Z" fill="currentColor"/>
</svg>
