<svg width="24" height="24" viewBox="0 0 24 24"  xmlns="http://www.w3.org/2000/svg">
<path fill-rule="evenodd" clip-rule="evenodd" d="M4 2.5C2.93913 2.5 1.92172 2.92143 1.17157 3.67157C0.421427 4.42172 0 5.43913 0 6.5L0 17.5C0 18.5609 0.421427 19.5783 1.17157 20.3284C1.92172 21.0786 2.93913 21.5 4 21.5H20C21.0609 21.5 22.0783 21.0786 22.8284 20.3284C23.5786 19.5783 24 18.5609 24 17.5V6.5C24 5.43913 23.5786 4.42172 22.8284 3.67157C22.0783 2.92143 21.0609 2.5 20 2.5H4ZM5.5 17C5.5 16.7348 5.60536 16.4804 5.79289 16.2929C5.98043 16.1054 6.23478 16 6.5 16H17.5C17.7652 16 18.0196 16.1054 18.2071 16.2929C18.3946 16.4804 18.5 16.7348 18.5 17C18.5 17.2652 18.3946 17.5196 18.2071 17.7071C18.0196 17.8946 17.7652 18 17.5 18H6.5C6.23478 18 5.98043 17.8946 5.79289 17.7071C5.60536 17.5196 5.5 17.2652 5.5 17ZM3.529 6C3.237 6 3 6.224 3 6.5V8C3 8.276 3.237 8.5 3.529 8.5H4.97C5.262 8.5 5.499 8.276 5.499 8V6.5C5.499 6.224 5.262 6 4.97 6H3.529ZM19.029 6C18.737 6 18.5 6.224 18.5 6.5V8C18.5 8.276 18.737 8.5 19.029 8.5H20.47C20.762 8.5 20.999 8.276 20.999 8V6.5C20.999 6.224 20.762 6 20.47 6H19.029ZM3 11.5C3 11.224 3.237 11 3.529 11H4.97C5.262 11 5.499 11.224 5.499 11.5V13C5.499 13.276 5.262 13.5 4.97 13.5H3.529C3.237 13.5 3 13.276 3 13V11.5ZM8.618 6C8.326 6 8.089 6.224 8.089 6.5V8C8.089 8.276 8.326 8.5 8.618 8.5H9.971C10.263 8.5 10.5 8.276 10.5 8V6.5C10.5 6.224 10.263 6 9.971 6H8.618ZM8.089 11.5C8.089 11.224 8.326 11 8.618 11H9.971C10.263 11 10.5 11.224 10.5 11.5V13C10.5 13.276 10.263 13.5 9.971 13.5H8.618C8.326 13.5 8.089 13.276 8.089 13V11.5ZM14 6C13.708 6 13.471 6.224 13.471 6.5V8C13.471 8.276 13.708 8.5 14 8.5H15.382C15.674 8.5 15.911 8.276 15.911 8V6.5C15.911 6.224 15.674 6 15.382 6H14ZM13.471 11.5C13.471 11.224 13.708 11 14 11H15.382C15.674 11 15.911 11.224 15.911 11.5V13C15.911 13.276 15.674 13.5 15.382 13.5H14C13.708 13.5 13.471 13.276 13.471 13V11.5ZM19.03 11C18.738 11 18.501 11.224 18.501 11.5V13C18.501 13.276 18.738 13.5 19.03 13.5H20.471C20.763 13.5 21 13.276 21 13V11.5C21 11.224 20.763 11 20.471 11H19.03Z" fill="currentColor"/>
</svg>
