<svg width="24" height="24" viewBox="0 0 24 24"  xmlns="http://www.w3.org/2000/svg">
<g clip-path="url(#clip0_865_5638)">
<path fill-rule="evenodd" clip-rule="evenodd" d="M0 12C0 5.4 5.4 0 12 0C18.6 0 24 5.4 24 12C24 18.6 18.6 24 12 24C5.4 24 0 18.6 0 12ZM14 6C14 7.10457 13.1046 8 12 8C10.8954 8 10 7.10457 10 6C10 4.89543 10.8954 4 12 4C13.1046 4 14 4.89543 14 6ZM6.22421 9.76878L9.99994 11.1439V14H10.0276L8.13122 19.2208C7.94316 19.7386 8.21101 20.3116 8.72803 20.5015C9.24643 20.692 9.82291 20.4269 10.0134 19.9085L12.0349 14.4072L13.5143 19.9685C13.6543 20.4948 14.1945 20.808 14.7209 20.668C15.2456 20.5284 15.5588 19.9908 15.4214 19.4655L13.9924 14H13.9999V11.1483L18.1316 9.78312C18.656 9.60985 18.9399 9.04201 18.7666 8.51761C18.5939 7.99498 18.0306 7.7079 17.5072 7.87809L13.9999 9.01838V9H10.0197L6.90568 7.88323C6.38763 7.69744 5.81599 7.96749 5.62765 8.48462C5.43865 9.00356 5.70527 9.57978 6.22421 9.76878Z" fill="currentColor"/>
</g>
<defs>
<clipPath id="clip0_865_5638">
<rect width="24" height="24" fill="currentColor"/>
</clipPath>
</defs>
</svg>
