<svg width="24" height="24" viewBox="0 0 24 24"  xmlns="http://www.w3.org/2000/svg">
<g clip-path="url(#clip0_865_5632)">
<path fill-rule="evenodd" clip-rule="evenodd" d="M12 22.5C17.799 22.5 22.5 17.799 22.5 12C22.5 6.20101 17.799 1.5 12 1.5C6.20101 1.5 1.5 6.20101 1.5 12C1.5 17.799 6.20101 22.5 12 22.5ZM12 24C18.6274 24 24 18.6274 24 12C24 5.37258 18.6274 0 12 0C5.37258 0 0 5.37258 0 12C0 18.6274 5.37258 24 12 24ZM11.9999 8C13.1045 8 13.9999 7.10457 13.9999 6C13.9999 4.89543 13.1045 4 11.9999 4C10.8954 4 9.99992 4.89543 9.99992 6C9.99992 7.10457 10.8954 8 11.9999 8ZM13.9999 13.0284V11.1483L17.8031 9.89168C18.3275 9.71841 18.6113 9.15044 18.438 8.62604C18.2654 8.10351 17.7022 7.8163 17.1788 7.98632L13.9999 9.01895V9H10.0192L6.89568 7.8798C6.37762 7.69401 5.80598 7.96405 5.61764 8.48119C5.42864 9.00013 5.69526 9.57634 6.2142 9.76534L9.99992 11.1441V13.0753L8.02605 18.5074C7.83791 19.0251 8.10569 19.5982 8.62276 19.7882C9.14116 19.9787 9.71758 19.7135 9.90807 19.1951L11.817 14H12.1926L13.5868 19.2411C13.7268 19.7674 14.267 20.0806 14.7933 19.9406C15.3181 19.801 15.6312 19.2634 15.4938 18.738L13.9999 13.0284Z" fill="currentColor"/>
</g>
<defs>
<clipPath id="clip0_865_5632">
<rect width="24" height="24" fill="currentColor"/>
</clipPath>
</defs>
</svg>
