<svg width="24" height="24" viewBox="0 0 24 24"  xmlns="http://www.w3.org/2000/svg">
<g clip-path="url(#clip0_865_1506)">
<path d="M20.7595 12.7664H23.9511C23.9511 5.74489 18.2062 0 11.1846 0V3.19161C16.4508 3.19161 20.7595 7.50027 20.7595 12.7664ZM14.3763 12.7664H17.5679C17.5679 9.25566 14.6954 6.38321 11.1846 6.38321V9.57482C12.94 9.57482 14.3763 11.011 14.3763 12.7664ZM18.5257 16.7555C19.6428 17.5534 20.4407 18.0322 20.7598 18.1917C20.8396 18.2715 20.9194 18.3413 20.9992 18.4112C21.2386 18.6206 21.4779 18.8301 21.7173 19.3088C21.8769 19.628 22.0365 20.1067 21.8769 20.4259L21.3981 21.5429C21.079 22.5004 20.2811 23.1387 19.3236 23.6175C18.3661 24.0962 17.2491 24.0962 16.132 23.777C15.0149 23.6175 13.8979 23.1387 12.6212 22.5004C11.3446 21.8621 10.2275 21.0642 9.11047 20.2663C7.9934 19.4684 7.03592 18.6705 6.23802 17.8726C5.44012 17.0747 4.64222 16.1172 3.84432 15.0001C3.05814 14.0829 2.48713 13.0581 1.95462 12.1024C1.83859 11.8942 1.72439 11.6892 1.61019 11.4894C0.971871 10.2127 0.49313 9.09566 0.17397 7.9786C-0.145191 6.86154 0.0143893 5.74447 0.33355 4.78699C0.812291 3.82951 1.61019 3.03161 2.56767 2.71245L3.68474 2.23371C4.0039 2.23371 4.48264 2.23371 4.8018 2.39329C5.15686 2.51164 5.33637 2.71777 5.53562 2.94658C5.60502 3.02628 5.67683 3.10874 5.75928 3.19119C5.91886 3.51035 6.3976 4.30825 7.1955 5.42531L8.15298 7.34028C8.31256 7.9786 8.31256 8.61692 8.15298 9.09566C7.9934 9.73398 7.67424 10.5319 7.03592 10.851V11.1702C7.03592 11.6489 7.35508 12.1277 7.9934 12.9256C8.63173 13.7235 9.11047 14.2022 9.58921 14.5214C9.90837 14.8406 10.3871 15.3193 11.185 15.9576C11.9829 16.5959 12.4617 16.7555 12.9404 16.9151H13.2596C13.5787 16.4364 14.217 15.9576 15.0149 15.798C15.9724 15.4789 17.2491 15.9576 18.5257 16.7555Z" fill="currentColor"/>
</g>
<defs>
<clipPath id="clip0_865_1506">
<rect width="24" height="24" fill="currentColor"/>
</clipPath>
</defs>
</svg>
