<svg width="24" height="24" viewBox="0 0 24 24"  xmlns="http://www.w3.org/2000/svg">
<path d="M12 1.5C12 1.05 12.3 0.75 12.75 0.75C18.6 0.75 23.25 5.4 23.25 11.25C23.25 11.7 22.95 12 22.5 12C22.05 12 21.75 11.7 21.75 11.25C21.75 6.3 17.7 2.25 12.75 2.25C12.3 2.25 12 1.95 12 1.5Z" fill="currentColor"/>
<path fill-rule="evenodd" clip-rule="evenodd" d="M5.4002 1.5H4.8002C1.9502 2.25 0.600205 4.35 1.2002 7.2C1.8002 10.35 3.7502 13.65 7.0502 17.25C10.2002 20.55 14.7002 23.1 17.5502 23.1H18.1502C20.2502 22.8 21.6002 21.15 22.0502 19.5C22.3502 18.3 22.0502 17.25 21.3002 16.65C19.0502 14.85 17.7002 14.1 16.2002 14.1H15.4502C14.5502 14.25 13.9502 14.7 13.5002 15.15C13.444 15.1125 13.3783 15.0703 13.3045 15.0229C12.7877 14.6906 11.869 14.1 10.9502 13.05C9.75021 11.85 9.1502 10.95 8.8502 10.2C9.4502 9.6 10.0502 8.7 9.9002 7.35C9.9002 6 8.5502 4.05 7.5002 2.55C7.0502 1.95 6.3002 1.5 5.4002 1.5ZM5.4002 3C5.8502 3 6.1502 3.3 6.3002 3.45C6.7502 4.05 8.4002 6.45 8.4002 7.5C8.4002 8.55 7.9502 9.15 7.0502 9.75C7.0502 9.75 7.3502 11.55 9.9002 14.1C12.1502 16.5 14.2502 16.95 14.2502 16.95C14.2502 16.95 14.7002 15.75 15.9002 15.6H16.3502C17.4002 15.6 18.4502 16.2 20.5502 17.85C21.3002 18.45 20.4002 21.15 18.1502 21.6H17.7002C15.3002 21.6 11.2502 19.35 8.2502 16.2C5.5502 13.35 3.3002 10.2 2.7002 6.9C1.99542 3.93989 4.33722 3.23161 4.99554 3.03249C5.03776 3.01972 5.07308 3.00904 5.1002 3H5.4002Z" fill="currentColor"/>
<path d="M17.25 11.25C17.25 11.7 17.55 12 18 12C18.45 12 18.75 11.7 18.75 11.25C18.75 7.95 16.05 5.25 12.75 5.25C12.3 5.25 12 5.55 12 6C12 6.45 12.3 6.75 12.75 6.75C15.3 6.75 17.25 8.7 17.25 11.25Z" fill="currentColor"/>
</svg>
