<svg width="24" height="24" viewBox="0 0 24 24"  xmlns="http://www.w3.org/2000/svg">
<g clip-path="url(#clip0_865_1512)">
<path fill-rule="evenodd" clip-rule="evenodd" d="M4.82238 0H4.15572C0.989051 0.833333 -0.51095 3.16667 0.155717 6.33333C0.822384 9.83333 2.98905 13.5 6.65572 17.5C10.1557 21.1667 15.1557 24 18.3224 24H18.9891C21.3224 23.6667 22.8224 21.8333 23.3224 20C23.6557 18.6667 23.3224 17.5 22.4891 16.8333C19.9891 14.8333 18.4891 14 16.8224 14H15.9891C14.9891 14.1667 14.3224 14.6667 13.8224 15.1667C13.7599 15.125 13.687 15.0781 13.6049 15.0254C13.0307 14.6563 12.0099 14 10.9891 12.8333C9.65572 11.5 8.98905 10.5 8.65572 9.66667C9.32238 9 9.98905 8 9.82238 6.5C9.82238 5 8.32238 2.83333 7.15572 1.16667C6.65572 0.5 5.82238 0 4.82238 0ZM4.82238 1.66667C5.32238 1.66667 5.65572 2 5.82238 2.16667C6.32238 2.83333 8.15572 5.5 8.15572 6.66667C8.15572 7.83333 7.65572 8.5 6.65572 9.16667C6.65572 9.16667 6.98905 11.1667 9.82238 14C12.3224 16.6667 14.6557 17.1667 14.6557 17.1667C14.6557 17.1667 15.1557 15.8333 16.4891 15.6667H16.989C18.1557 15.6667 19.3224 16.3333 21.6557 18.1667C22.4891 18.8333 21.4891 21.8333 18.9891 22.3333H18.4891C15.8224 22.3333 11.3224 19.8333 7.98905 16.3333C4.98905 13.1667 2.48905 9.66667 1.82238 6C1.03929 2.71101 3.64126 1.92402 4.37275 1.70277C4.41967 1.68858 4.45891 1.67671 4.48905 1.66667H4.82238Z" fill="currentColor"/>
<path d="M17.1554 6.66671V10.8334H18.8221V6.66671H22.9888V5.00004H18.8221V0.833374H17.1554V5.00004H12.9888V6.66671H17.1554Z" fill="currentColor"/>
</g>
<defs>
<clipPath id="clip0_865_1512">
<rect width="24" height="24" fill="currentColor"/>
</clipPath>
</defs>
</svg>
