<svg width="24" height="24" viewBox="0 0 24 24"  xmlns="http://www.w3.org/2000/svg">
<path d="M12 11.5C14.7614 11.5 17 9.26142 17 6.5C17 3.73858 14.7614 1.5 12 1.5C9.23858 1.5 7 3.73858 7 6.5C7 9.26142 9.23858 11.5 12 11.5ZM15.805 13.7044C14.1308 14.6473 13 16.4416 13 18.5C13 20.076 13.6629 21.4972 14.7251 22.5H2.43911C1.84507 22.5 1.3844 21.9632 1.52569 21.3747C2.67972 16.5672 6.93149 13 12 13C13.3394 13 14.6218 13.2491 15.805 13.7044ZM17.8722 14C17.5976 14 17.375 14.2226 17.375 14.4972V17.375H14.4972C14.2226 17.375 14 17.5976 14 17.8722V19.1278C14 19.4024 14.2226 19.625 14.4972 19.625H17.375V22.5028C17.375 22.7774 17.5976 23 17.8722 23H19.1278C19.4024 23 19.625 22.7774 19.625 22.5028V19.625H22.5028C22.7774 19.625 23 19.4024 23 19.1278V17.8722C23 17.5976 22.7774 17.375 22.5028 17.375H19.625V14.4972C19.625 14.2226 19.4024 14 19.1278 14H17.8722Z" fill="currentColor"/>
</svg>
