<svg width="24" height="24" viewBox="0 0 24 24"  xmlns="http://www.w3.org/2000/svg">
<g clip-path="url(#clip0_3483_5)">
<path d="M20.6667 0C21.0349 1.60941e-08 21.3333 0.298477 21.3333 0.666667V2.66667H23.3333C23.7015 2.66667 24 2.96514 24 3.33333V4.66667C24 5.03486 23.7015 5.33333 23.3333 5.33333H21.3333V7.33333C21.3333 7.70152 21.0349 8 20.6667 8H19.3333C18.9651 8 18.6667 7.70152 18.6667 7.33333V5.33333H16.6667C16.2985 5.33333 16 5.03486 16 4.66667V3.33333C16 2.96514 16.2985 2.66667 16.6667 2.66667H18.6667V0.666667C18.6667 0.298477 18.9651 1.55709e-07 19.3333 0H20.6667Z" fill="currentColor"/>
<path fill-rule="evenodd" clip-rule="evenodd" d="M13.3333 2.66667C13.7015 2.66667 14 2.96514 14 3.33333V4.66667C14 5.03486 13.7015 5.33333 13.3333 5.33333H2.66667V15.4479L6 12.1146L9.88932 16.0039L15.2227 9.33724L18.6667 12.7812V10.6667C18.6667 10.2985 18.9651 10 19.3333 10H20.6667C21.0349 10 21.3333 10.2985 21.3333 10.6667V22.5781C21.3331 23.3629 20.6962 23.9998 19.9115 24H1.42188C0.637084 23.9998 0.000188217 23.3629 0 22.5781V4.08854C0.000187845 3.30375 0.637084 2.66686 1.42188 2.66667H13.3333ZM10.1107 19.9961L6 15.8854L2.66667 19.2188V21.3333H18.6667V16.5521L15.444 13.3294L10.1107 19.9961Z" fill="currentColor"/>
<path d="M8.66667 6.66667C9.7712 6.66667 10.6667 7.5621 10.6667 8.66667C10.6667 9.77124 9.7712 10.6667 8.66667 10.6667C7.5621 10.6667 6.66667 9.77123 6.66667 8.66667C6.66667 7.5621 7.5621 6.66667 8.66667 6.66667Z" fill="currentColor"/>
</g>
<defs>
<clipPath id="clip0_3483_5">
<rect width="24" height="24" fill="currentColor"/>
</clipPath>
</defs>
</svg>
