<svg width="24" height="24" viewBox="0 0 24 24"  xmlns="http://www.w3.org/2000/svg">
<path d="M9 13.5C9 15.1569 7.65685 16.5 6 16.5C4.34315 16.5 3 15.1569 3 13.5C3 11.8431 4.34315 10.5 6 10.5C7.65685 10.5 9 11.8431 9 13.5Z" fill="currentColor"/>
<path fill-rule="evenodd" clip-rule="evenodd" d="M10.0671 22.5C10.6287 22.5 11.0945 22.0478 10.9835 21.5064C10.515 19.221 8.46185 17.5 6 17.5C3.53815 17.5 1.48501 19.221 1.01647 21.5064C0.905487 22.0478 1.37132 22.5 1.93287 22.5H10.0671Z" fill="currentColor"/>
<path d="M21 13.5C21 15.1569 19.6569 16.5 18 16.5C16.3431 16.5 15 15.1569 15 13.5C15 11.8431 16.3431 10.5 18 10.5C19.6569 10.5 21 11.8431 21 13.5Z" fill="currentColor"/>
<path fill-rule="evenodd" clip-rule="evenodd" d="M22.0671 22.5C22.6287 22.5 23.0945 22.0478 22.9835 21.5064C22.515 19.221 20.4618 17.5 18 17.5C15.5382 17.5 13.485 19.221 13.0165 21.5064C12.9055 22.0478 13.3713 22.5 13.9329 22.5H22.0671Z" fill="currentColor"/>
<path d="M11.3722 1.5C11.0976 1.5 10.875 1.7226 10.875 1.99718V4.875H7.99718C7.7226 4.875 7.5 5.0976 7.5 5.37218V6.62782C7.5 6.9024 7.7226 7.125 7.99718 7.125H10.875V10.0028C10.875 10.2774 11.0976 10.5 11.3722 10.5H12.6278C12.9024 10.5 13.125 10.2774 13.125 10.0028V7.125H16.0028C16.2774 7.125 16.5 6.9024 16.5 6.62782V5.37218C16.5 5.0976 16.2774 4.875 16.0028 4.875H13.125V1.99718C13.125 1.7226 12.9024 1.5 12.6278 1.5H11.3722Z" fill="currentColor"/>
</svg>
