<svg width="24" height="24" viewBox="0 0 24 24"  xmlns="http://www.w3.org/2000/svg">
<path fill-rule="evenodd" clip-rule="evenodd" d="M0 11.4348C0 5.69565 4.69565 1 10.4348 1C15.5099 1 19.7691 4.67198 20.6867 9.49038C20.24 9.39696 19.7777 9.34783 19.3043 9.34783C15.5739 9.34783 12.5217 12.4 12.5217 16.1304C12.5217 18.0359 13.3181 19.7644 14.5944 20.9996C13.3183 21.5589 11.9111 21.8696 10.4348 21.8696C4.69565 21.8696 0 17.1739 0 11.4348ZM9.76731 4.65217H12V12.4783L6.26087 16.1304L5.21739 14.0435L9.76731 11.2215V4.65217Z" fill="currentColor"/>
<path d="M18.1304 11.9536C18.1304 11.6671 18.3627 11.4348 18.6492 11.4348H19.9595C20.246 11.4348 20.4783 11.6671 20.4783 11.9536V14.9565H23.4812C23.7677 14.9565 24 15.1888 24 15.4753V16.7855C24 17.0721 23.7677 17.3043 23.4812 17.3043H20.4783V20.3073C20.4783 20.5938 20.246 20.8261 19.9595 20.8261H18.6492C18.3627 20.8261 18.1304 20.5938 18.1304 20.3073V17.3043H15.1275C14.841 17.3043 14.6087 17.0721 14.6087 16.7855V15.4753C14.6087 15.1888 14.841 14.9565 15.1275 14.9565H18.1304V11.9536Z" fill="currentColor"/>
</svg>
