<svg width="24" height="24" viewBox="0 0 24 24"  xmlns="http://www.w3.org/2000/svg">
<path fill-rule="evenodd" clip-rule="evenodd" d="M6 14.5C6.82843 14.5 7.5 13.8284 7.5 13C7.5 12.1716 6.82843 11.5 6 11.5C5.17157 11.5 4.5 12.1716 4.5 13C4.5 13.8284 5.17157 14.5 6 14.5ZM6 16C7.65685 16 9 14.6569 9 13C9 11.3431 7.65685 10 6 10C4.34315 10 3 11.3431 3 13C3 14.6569 4.34315 16 6 16ZM10.0671 22.5C10.6287 22.5 11.0945 22.0478 10.9835 21.5064C10.515 19.221 8.46185 17.5 6 17.5C3.53815 17.5 1.48501 19.221 1.01647 21.5064C0.905485 22.0478 1.37132 22.5 1.93287 22.5H10.0671ZM6 19C4.58037 19 3.35489 19.8175 2.78373 21H9.21627C8.64511 19.8175 7.41963 19 6 19ZM18 14.5C18.8284 14.5 19.5 13.8284 19.5 13C19.5 12.1716 18.8284 11.5 18 11.5C17.1716 11.5 16.5 12.1716 16.5 13C16.5 13.8284 17.1716 14.5 18 14.5ZM18 16C19.6569 16 21 14.6569 21 13C21 11.3431 19.6569 10 18 10C16.3431 10 15 11.3431 15 13C15 14.6569 16.3431 16 18 16ZM22.0671 22.5C22.6287 22.5 23.0945 22.0478 22.9835 21.5064C22.515 19.221 20.4618 17.5 18 17.5C15.5382 17.5 13.485 19.221 13.0165 21.5064C12.9055 22.0478 13.3713 22.5 13.9329 22.5H22.0671ZM18 19C16.5804 19 15.3549 19.8175 14.7837 21H21.2163C20.6451 19.8175 19.4196 19 18 19Z" fill="currentColor"/>
<path d="M11.25 9.75C11.25 10.1642 11.5858 10.5 12 10.5C12.4142 10.5 12.75 10.1642 12.75 9.75V6.75H15.75C16.1642 6.75 16.5 6.41421 16.5 6C16.5 5.58579 16.1642 5.25 15.75 5.25H12.75V2.25C12.75 1.83579 12.4142 1.5 12 1.5C11.5858 1.5 11.25 1.83579 11.25 2.25V5.25H8.25C7.83579 5.25 7.5 5.58579 7.5 6C7.5 6.41421 7.83579 6.75 8.25 6.75H11.25V9.75Z" fill="currentColor"/>
</svg>
