<svg width="24" height="24" viewBox="0 0 24 24"  xmlns="http://www.w3.org/2000/svg">
<g clip-path="url(#clip0_865_1517)">
<path d="M19.5888 4.3031V0H16.1463V4.3031H11.8432V7.74558H16.1463V12.0487H19.5888V7.74558H23.8919V4.3031H19.5888ZM3.89378 0.627025C4.30735 0.522699 4.73318 0.543517 5.1368 0.718057C5.58118 0.910226 5.89702 1.27768 6.12648 1.6602C6.31662 1.9587 6.82662 2.7615 7.65592 4.0677C8.5062 5.40695 9.01516 6.73125 8.67764 7.86563C8.45792 8.65903 8.09192 9.40569 7.43084 9.79888C7.42135 9.85036 7.41384 9.97428 7.46337 10.2027L7.46774 10.2229C7.55093 10.6566 7.85602 11.2671 8.51547 12.0695C9.20868 12.913 9.71988 13.4964 10.0586 13.8383C10.4162 14.1991 11.0033 14.7191 11.8373 15.4067C12.6323 16.0622 13.2453 16.384 13.6891 16.4859C13.9039 16.533 14.0218 16.5272 14.072 16.5189C14.4568 15.8606 15.1902 15.4764 15.9801 15.2329L16.0013 15.2263C16.5805 15.064 17.1981 15.1266 17.8072 15.3141C18.4182 15.5021 19.0738 15.832 19.7676 16.2749C21.0323 17.0825 21.8453 17.6124 22.1754 17.8473C22.55 18.0791 22.9045 18.3948 23.0905 18.8328C23.2618 19.236 23.2821 19.6605 23.1798 20.0734L23.1682 20.12L22.7217 21.3269C22.342 22.3531 21.5637 23.1074 20.5069 23.6163L20.4955 23.6218C19.5051 24.081 18.3456 24.0979 17.0951 23.8024C15.8756 23.5142 14.6247 23.0252 13.3435 22.3465C12.0749 21.6745 10.8405 20.8917 9.64014 19.9993C8.44674 19.112 7.41944 18.2372 6.56374 17.3737C5.70807 16.5103 4.84115 15.4739 3.96199 14.27C3.07773 13.059 2.30227 11.8139 1.63657 10.5344C0.96437 9.24249 0.480415 7.98161 0.195228 6.75309C-0.0969549 5.49442 -0.0796109 4.33006 0.373143 3.33575L0.378323 3.32437C0.880917 2.26181 1.62769 1.47479 2.64938 1.08992L3.84652 0.638948L3.89378 0.627025Z" fill="currentColor"/>
</g>
<defs>
<clipPath id="clip0_865_1517">
<rect width="24" height="24" fill="currentColor"/>
</clipPath>
</defs>
</svg>
