<svg width="24" height="24" viewBox="0 0 24 24"  xmlns="http://www.w3.org/2000/svg">
<g clip-path="url(#clip0_3483_3)">
<path fill-rule="evenodd" clip-rule="evenodd" d="M15 3.51074C15 3.87588 14.704 4.17188 14.3389 4.17188H1.98242C1.61795 4.17209 1.32227 4.46849 1.32227 4.83301V17.7773L5.48145 13.6182C5.73955 13.3605 6.15803 13.3603 6.41602 13.6182L9.85938 17.0625L14.6855 11.0293C14.803 10.8825 14.9774 10.7926 15.165 10.7822C15.3527 10.7718 15.5361 10.8417 15.6689 10.9746L19.8281 15.1338V9.66113C19.8281 9.296 20.1241 9 20.4893 9C20.8544 9 21.1504 9.296 21.1504 9.66113V22.0176C21.1502 23.1121 20.2616 24 19.167 24H1.98242C0.888032 23.9998 0.00020834 23.112 0 22.0176V4.83301C0 3.73844 0.887904 2.84982 1.98242 2.84961H14.3389C14.704 2.84961 15 3.14561 15 3.51074ZM10.4307 18.4648C10.3132 18.6116 10.1379 18.7015 9.9502 18.7119C9.76265 18.7222 9.57907 18.6514 9.44629 18.5186L5.94824 15.0205L1.32227 19.6475V22.0176C1.32247 22.3819 1.61808 22.6775 1.98242 22.6777H19.167C19.5315 22.6777 19.8279 22.3821 19.8281 22.0176V17.0039L15.2568 12.4316L10.4307 18.4648Z" fill="currentColor"/>
<path d="M8.5918 6.81543C9.68684 6.81543 10.5752 7.70375 10.5752 8.79883C10.575 9.89373 9.68671 10.7812 8.5918 10.7812C7.49703 10.781 6.60958 9.8936 6.60938 8.79883C6.60938 7.70388 7.4969 6.81564 8.5918 6.81543Z" fill="currentColor"/>
<path d="M20.5 0C20.858 4.73012e-08 21.1484 0.290475 21.1484 0.648438V2.85156H23.3516C23.7095 2.85156 24 3.14204 24 3.5C24 3.85796 23.7095 4.14844 23.3516 4.14844H21.1484V6.35156C21.1484 6.70952 20.858 7 20.5 7C20.142 7 19.8516 6.70952 19.8516 6.35156V4.14844H17.6484C17.2905 4.14844 17 3.85796 17 3.5C17 3.14204 17.2905 2.85156 17.6484 2.85156H19.8516V0.648438C19.8516 0.290475 20.142 -1.50882e-08 20.5 0Z" fill="currentColor"/>
</g>
<defs>
<clipPath id="clip0_3483_3">
<rect width="24" height="24" fill="currentColor"/>
</clipPath>
</defs>
</svg>
