<svg width="24" height="24" viewBox="0 0 24 24"  xmlns="http://www.w3.org/2000/svg">
<path fill-rule="evenodd" clip-rule="evenodd" d="M12 10C13.933 10 15.5 8.433 15.5 6.5C15.5 4.567 13.933 3 12 3C10.067 3 8.5 4.567 8.5 6.5C8.5 8.433 10.067 10 12 10ZM12 11.5C14.7614 11.5 17 9.26142 17 6.5C17 3.73858 14.7614 1.5 12 1.5C9.23858 1.5 7 3.73858 7 6.5C7 9.26142 9.23858 11.5 12 11.5Z" fill="currentColor"/>
<path d="M17.75 22.25C17.75 22.6642 18.0858 23 18.5 23C18.9142 23 19.25 22.6642 19.25 22.25V19.25H22.25C22.6642 19.25 23 18.9142 23 18.5C23 18.0858 22.6642 17.75 22.25 17.75H19.25V14.75C19.25 14.3358 18.9142 14 18.5 14C18.0858 14 17.75 14.3358 17.75 14.75V17.75H14.75C14.3358 17.75 14 18.0858 14 18.5C14 18.9142 14.3358 19.25 14.75 19.25H17.75V22.25ZM11.4585 13C12.3289 13 13.1734 13.1111 13.9785 13.32C14.5271 13.4623 14.6719 14.1308 14.2732 14.5294C14.0659 14.7366 13.7601 14.8097 13.4738 14.7402C12.8278 14.5832 12.1529 14.5 11.4585 14.5C7.27433 14.5 3.79603 17.021 3.08729 21H11.8258C12.2401 21 12.5846 21.3358 12.5846 21.75C12.5846 22.1642 12.2401 22.5 11.8258 22.5H2.46656C1.90775 22.5 1.44914 22.0509 1.50455 21.5014C2.00833 16.5041 6.27259 13 11.4585 13Z" fill="currentColor"/>
</svg>
