<svg width="25" height="24" viewBox="0 0 25 24"  xmlns="http://www.w3.org/2000/svg">
<path d="M11.609 20.0646C12.1122 19.9897 12.5963 20.3586 12.5963 20.8673C12.5963 21.2279 12.3472 21.5438 11.9913 21.6019C11.4726 21.6866 10.9391 21.7313 10.3906 21.7313C4.71881 21.7313 0.149902 17.1624 0.149902 11.4907C0.149902 5.81891 4.71881 1.25 10.3906 1.25C14.0979 1.25 17.334 3.20206 19.1309 6.13821C19.4501 6.65972 19.0473 7.28936 18.4359 7.28936C18.1318 7.28936 17.854 7.12388 17.6898 6.868C16.1392 4.45162 13.4275 2.82549 10.3906 2.82549C5.6641 2.82549 1.72539 6.7642 1.72539 11.4907C1.72539 16.2171 5.6641 20.1558 10.3906 20.1558C10.7984 20.1558 11.2062 20.1246 11.609 20.0646ZM11.9659 6.7642C11.9659 6.32914 11.6133 5.97646 11.1782 5.97646C10.7431 5.97646 10.3905 6.32914 10.3905 6.7642V11.8058L6.76135 13.6875C6.41486 13.8672 6.2768 14.2917 6.45134 14.6408C6.6262 14.9906 7.04979 15.1346 7.40162 14.964L11.9659 12.751V6.7642ZM18.8983 20.9436C18.4149 20.9436 18.023 20.5517 18.023 20.0683V16.5672H14.5219C14.0385 16.5672 13.6467 16.1754 13.6467 15.692C13.6467 15.2086 14.0385 14.8167 14.5219 14.8167H18.023V11.3156C18.023 10.8322 18.4149 10.4403 18.8983 10.4403C19.3817 10.4403 19.7736 10.8322 19.7736 11.3156V14.8167H23.2746C23.758 14.8167 24.1499 15.2086 24.1499 15.692C24.1499 16.1754 23.758 16.5672 23.2746 16.5672H19.7736V20.0683C19.7736 20.5517 19.3817 20.9436 18.8983 20.9436Z" fill="currentColor"/>
</svg>
