<svg width="24" height="24" viewBox="0 0 24 24"  xmlns="http://www.w3.org/2000/svg">
<g clip-path="url(#clip0_865_6189)">
<path fill-rule="evenodd" clip-rule="evenodd" d="M10.5 4.5C8.85 4.5 7.5 5.85 7.5 7.5C7.5 9.15 8.85 10.5 10.5 10.5C12.15 10.5 13.5 9.15 13.5 7.5C13.5 5.85 12.15 4.5 10.5 4.5ZM9 7.5C9 6.6 9.6 6 10.5 6C11.4 6 12 6.6 12 7.5C12 8.4 11.4 9 10.5 9C9.6 9 9 8.4 9 7.5ZM9.75001 12H11.25C12.6 12 13.95 12.6 15 13.5C15.75 14.25 16.35 15.15 16.5 16.2C16.65 16.65 16.5 17.1 16.2 17.4C15.9 17.85 15.45 18 15 18H6.15001C5.70001 18 5.25001 17.85 4.80001 17.4C4.50001 17.1 4.35001 16.65 4.50001 16.2C4.80001 15.15 5.25001 14.25 6.00001 13.5C7.05001 12.6 8.40001 12 9.75001 12ZM13.95 14.55C13.2 13.95 12.3 13.5 11.25 13.5H9.75001C8.70001 13.5 7.80001 13.95 7.20001 14.55C6.60001 15.15 6.30001 15.75 6.15001 16.5H15C14.85 15.75 14.4 15 13.95 14.55ZM2.25 0C1.05 0 0 1.05 0 2.25V21.75C0 22.95 1.05 24 2.25 24H18.75C19.95 24 21 22.95 21 21.75V2.25C21 1.05 19.95 0 18.75 0H2.25ZM1.5 2.25C1.5 1.8 1.8 1.5 2.25 1.5H18.75C19.2 1.5 19.5 1.8 19.5 2.25V21.75C19.5 22.2 19.2 22.5 18.75 22.5H2.25C1.8 22.5 1.5 22.2 1.5 21.75V2.25Z" fill="currentColor"/>
<path d="M24 3.75C24 3.3 23.7 3 23.25 3C22.8 3 22.5 3.3 22.5 3.75V6.75C22.5 7.2 22.8 7.5 23.25 7.5C23.7 7.5 24 7.2 24 6.75V3.75ZM23.25 9C23.7 9 24 9.3 24 9.75V12.75C24 13.2 23.7 13.5 23.25 13.5C22.8 13.5 22.5 13.2 22.5 12.75V9.75C22.5 9.3 22.8 9 23.25 9Z" fill="currentColor"/>
</g>
<defs>
<clipPath id="clip0_865_6189">
<rect width="24" height="24" fill="currentColor"/>
</clipPath>
</defs>
</svg>
