<svg width="24" height="24" viewBox="0 0 24 24"  xmlns="http://www.w3.org/2000/svg">
<g clip-path="url(#clip0_4697_5)">
<path fill-rule="evenodd" clip-rule="evenodd" d="M9 12C9 10.35 10.35 9 12 9C13.65 9 15 10.35 15 12C15 13.65 13.65 15 12 15C10.35 15 9 13.65 9 12ZM19.5 9.45C19.95 9.15 20.4 9 21 9C22.65 9 24 10.35 24 12C24 13.65 22.65 15 21 15C20.4 15 19.95 14.85 19.5 14.55L14.55 19.5C14.85 19.95 15 20.4 15 21C15 22.65 13.65 24 12 24C10.35 24 9 22.65 9 21C9 20.4 9.15 19.95 9.45 19.5L4.5 14.55C4.05 14.85 3.6 15 3 15C1.35 15 0 13.65 0 12C0 10.35 1.35 9 3 9C3.6 9 4.05 9.15 4.5 9.45L9.45 4.5C9.15 4.05 9 3.6 9 3C9 1.35 10.35 0 12 0C13.65 0 15 1.35 15 3C15 3.6 14.85 4.05 14.55 4.5L19.5 9.45ZM10.5 18.45C10.95 18.15 11.4 18 12 18C12.6 18 13.05 18.15 13.5 18.45L18.45 13.5C18.15 13.05 18 12.6 18 12C18 11.4 18.15 10.95 18.45 10.5L13.5 5.55C13.05 5.85 12.6 6 12 6C11.4 6 10.95 5.85 10.5 5.55L5.55 10.5C5.85 10.95 6 11.4 6 12C6 12.6 5.85 13.05 5.55 13.5L10.5 18.45Z" fill="currentColor"/>
</g>
<defs>
<clipPath id="clip0_4697_5">
<rect width="24" height="24" fill="currentColor"/>
</clipPath>
</defs>
</svg>
