<svg width="24" height="24" viewBox="0 0 24 24"  xmlns="http://www.w3.org/2000/svg">
<g clip-path="url(#clip0_865_5024)">
<path d="M20.25 8.25C19.7829 8.25185 19.3203 8.34194 18.8865 8.5155L15.4845 5.1135C15.658 4.67977 15.7482 4.21716 15.75 3.75C15.75 2.75544 15.3549 1.8016 14.6517 1.09835C13.9484 0.395088 12.9946 0 12 0C11.0054 0 10.0516 0.395088 9.34834 1.09835C8.64509 1.8016 8.25 2.75544 8.25 3.75C8.25185 4.21716 8.34194 4.67977 8.5155 5.1135L5.1135 8.5155C4.67977 8.34194 4.21716 8.25185 3.75 8.25C2.75544 8.25 1.8016 8.64509 1.09835 9.34834C0.395088 10.0516 0 11.0054 0 12C0 12.9946 0.395088 13.9484 1.09835 14.6517C1.8016 15.3549 2.75544 15.75 3.75 15.75C4.21716 15.7482 4.67977 15.658 5.1135 15.4845L8.5155 18.8865C8.34194 19.3203 8.25185 19.7829 8.25 20.25C8.25 21.2445 8.64509 22.1984 9.34834 22.9017C10.0516 23.6049 11.0054 24 12 24C12.9946 24 13.9484 23.6049 14.6517 22.9017C15.3549 22.1984 15.75 21.2445 15.75 20.25C15.7482 19.7829 15.658 19.3203 15.4845 18.8865L18.8865 15.4845C19.3203 15.658 19.7829 15.7482 20.25 15.75C21.2445 15.75 22.1984 15.3549 22.9017 14.6517C23.6049 13.9484 24 12.9946 24 12C24 11.0054 23.6049 10.0516 22.9017 9.34834C22.1984 8.64509 21.2445 8.25 20.25 8.25ZM12 16.5C11.5328 16.5018 11.0702 16.5919 10.6365 16.7655L7.2345 13.3635C7.58844 12.489 7.58844 11.511 7.2345 10.6365L10.6365 7.2345C11.511 7.58844 12.489 7.58844 13.3635 7.2345L16.7655 10.6365C16.4115 11.511 16.4115 12.489 16.7655 13.3635L13.3635 16.7655C12.9298 16.5919 12.4672 16.5018 12 16.5Z" fill="currentColor"/>
</g>
<defs>
<clipPath id="clip0_865_5024">
<rect width="24" height="24" fill="currentColor"/>
</clipPath>
</defs>
</svg>
