<svg width="24" height="25" viewBox="0 0 24 25"  xmlns="http://www.w3.org/2000/svg">
<g clip-path="url(#clip0_865_5029)">
<path fill-rule="evenodd" clip-rule="evenodd" d="M17.6166 0.840643C16.0195 0.159983 14.2786 -0.114039 12.5496 0.0431039C10.8206 0.200246 9.15759 0.783649 7.70937 1.7411C6.26113 2.69853 5.07292 4.00013 4.25106 5.52938C3.42924 7.05855 2.9994 8.76789 3 10.5039V11.0265L0.125966 15.3376C0.00663716 15.5167 -0.0300862 15.7382 0.0251289 15.9461C0.0803442 16.154 0.222181 16.3283 0.414594 16.4245L3 17.7172V21.0037C3 21.7993 3.31608 22.5623 3.87868 23.125C4.44129 23.6876 5.20435 24.0037 6 24.0037H11.25C12.6424 24.0037 13.9777 23.4505 14.9623 22.4659C15.9469 21.4814 16.5 20.146 16.5 18.7537V13.4286C18.2116 13.0812 19.5 11.5679 19.5 9.75366C19.5 7.6826 17.821 6.00366 15.75 6.00366C13.6789 6.00366 12 7.6826 12 9.75366C12 11.5679 13.2883 13.0812 15 13.4286V18.7537C15 19.7482 14.6049 20.702 13.9016 21.4052C13.1984 22.1086 12.2446 22.5037 11.25 22.5037H6C5.60218 22.5037 5.22064 22.3456 4.93935 22.0643C4.65804 21.7829 4.5 21.4015 4.5 21.0037V17.2537C4.5 16.9696 4.3395 16.7099 4.08541 16.5829L1.8453 15.4628L4.37404 11.6697C4.45617 11.5464 4.5 11.4017 4.5 11.2536V10.5033C4.49944 9.01526 4.86789 7.55025 5.57233 6.23948C6.27679 4.92869 7.29526 3.81303 8.5366 2.99237C9.77792 2.1717 11.2034 1.67165 12.6854 1.53695C14.1673 1.40225 15.6595 1.63713 17.0286 2.22056C18.3975 2.80397 19.6005 3.71774 20.5296 4.88004C21.4588 6.04233 22.0854 7.41692 22.3531 8.88072C22.6209 10.3445 22.5214 11.8519 22.0638 13.2678C21.6061 14.6838 20.8045 15.9643 19.7307 16.9945C19.5834 17.1359 19.5 17.3314 19.5 17.5357V23.2537C19.5 23.6678 19.8358 24.0037 20.25 24.0037C20.6641 24.0037 21 23.6678 21 23.2537V17.8484C22.1371 16.6879 22.9905 15.278 23.4912 13.7291C24.025 12.0772 24.141 10.3186 23.8287 8.61084C23.5162 6.90306 22.7853 5.2994 21.7012 3.94338C20.6172 2.58735 19.2138 1.5213 17.6166 0.840643ZM15.7566 12.0036C15.7543 12.0036 15.7522 12.0036 15.75 12.0036C15.7477 12.0036 15.7456 12.0036 15.7434 12.0036C14.5038 12.0001 13.5 10.9941 13.5 9.75366C13.5 8.51102 14.5073 7.50366 15.75 7.50366C16.9926 7.50366 18 8.51102 18 9.75366C18 10.9941 16.9962 12.0001 15.7566 12.0036Z" fill="currentColor"/>
</g>
<defs>
<clipPath id="clip0_865_5029">
<rect width="24" height="25" fill="currentColor"/>
</clipPath>
</defs>
</svg>
