<svg width="24" height="24" viewBox="0 0 24 24"  xmlns="http://www.w3.org/2000/svg">
<g clip-path="url(#clip0_865_5035)">
<path d="M13.4655 0C10.7724 0 8.22894 1.05 6.28392 2.85C4.33889 4.8 3.14196 7.35 2.99234 10.05L0.299234 14.1C0.149617 14.4 0 14.55 0 14.7C0 14.85 0 15.15 0 15.3C0 15.45 0.149617 15.75 0.299234 15.9C0.448851 16.05 0.598468 16.2 0.748085 16.35L2.99234 17.4V20.25C2.99234 21.3 3.44119 22.2 4.03966 22.95C4.78775 23.55 5.68545 24 6.73277 24H10.4732C11.6701 24 12.8671 23.55 13.6152 22.65C14.5129 21.9 14.9617 20.7 14.9617 19.5V13.05C14.3632 12.75 13.9144 12.15 13.7648 11.55C13.4655 10.95 13.4655 10.35 13.6152 9.75C13.7648 9 14.064 8.55 14.6625 8.1C15.1113 7.65 15.8594 7.5 16.4579 7.5C17.0563 7.5 17.8044 7.65 18.2533 8.1C18.7021 8.55 19.151 9 19.3006 9.75C19.4502 10.35 19.4502 10.95 19.151 11.7C18.8517 12.3 18.4029 12.75 17.954 13.2V19.5C17.954 21.15 17.3556 22.65 16.4579 24H19.4502C19.8991 24 20.1983 23.85 20.4975 23.55C20.7968 23.25 20.9464 22.95 20.9464 22.5V17.85C22.4426 16.35 23.3403 14.55 23.7891 12.45C24.238 10.35 23.9387 8.25 23.1906 6.45C22.2929 4.5 20.9464 2.85 19.3006 1.8C17.5052 0.6 15.5602 0 13.4655 0Z" fill="currentColor"/>
</g>
<defs>
<clipPath id="clip0_865_5035">
<rect width="24" height="24" fill="currentColor"/>
</clipPath>
</defs>
</svg>
