<svg width="24" height="24" viewBox="0 0 24 24"  xmlns="http://www.w3.org/2000/svg">
<g clip-path="url(#clip0_865_5040)">
<path fill-rule="evenodd" clip-rule="evenodd" d="M6.75 6C6.33579 6 6 6.33579 6 6.75V17.25C6 17.6642 6.33579 18 6.75 18H17.25C17.6642 18 18 17.6642 18 17.25V6.75C18 6.33579 17.6642 6 17.25 6H6.75ZM7.5 16.5V7.5H16.5V16.5H7.5ZM9 0.75C9 0.335787 8.66421 0 8.25 0C7.83579 0 7.5 0.335787 7.5 0.75V3H5.4C4.07451 3 3 4.07451 3 5.4V7.5H0.75C0.335787 7.5 0 7.83579 0 8.25C0 8.66421 0.335787 9 0.75 9H3V15H0.75C0.335787 15 0 15.3358 0 15.75C0 16.1642 0.335787 16.5 0.75 16.5H3V18.6C3 19.9255 4.07451 21 5.4 21H7.5V23.25C7.5 23.6642 7.83579 24 8.25 24C8.66421 24 9 23.6642 9 23.25V21H15V23.25C15 23.6642 15.3358 24 15.75 24C16.1642 24 16.5 23.6642 16.5 23.25V21H18.6C19.9255 21 21 19.9255 21 18.6V16.5H23.25C23.6642 16.5 24 16.1642 24 15.75C24 15.3358 23.6642 15 23.25 15H21V9H23.25C23.6642 9 24 8.66421 24 8.25C24 7.83579 23.6642 7.5 23.25 7.5H21V5.4C21 4.07451 19.9255 3 18.6 3H16.5V0.75C16.5 0.335787 16.1642 0 15.75 0C15.3358 0 15 0.335787 15 0.75V3H9V0.75ZM4.5 5.4C4.5 4.90294 4.90294 4.5 5.4 4.5H18.6C19.0971 4.5 19.5 4.90294 19.5 5.4V18.6C19.5 19.0971 19.0971 19.5 18.6 19.5H5.4C4.90294 19.5 4.5 19.0971 4.5 18.6V5.4Z" fill="currentColor"/>
</g>
<defs>
<clipPath id="clip0_865_5040">
<rect width="24" height="24" fill="currentColor"/>
</clipPath>
</defs>
</svg>
