<svg width="24" height="24" viewBox="0 0 24 24"  xmlns="http://www.w3.org/2000/svg">
<path d="M21.2861 1C21.6804 1.00022 22 1.30794 22 1.6875V14.2861C21.9998 14.6803 21.6803 14.9998 21.2861 15C20.8918 15 20.5715 14.6804 20.5713 14.2861V2.375H3.42871V21.625H13.3125C13.6922 21.625 14 21.9328 14 22.3125C14 22.6922 13.6922 23 13.3125 23H2.71387C2.31957 22.9998 2 22.6921 2 22.3125V1.6875C2 1.30794 2.31957 1.00022 2.71387 1H21.2861ZM17.916 15.1445C17.9718 14.9517 18.0282 14.9517 18.084 15.1445C18.5448 16.7376 20.2624 18.4552 21.8555 18.916C22.0483 18.9718 22.0483 19.0282 21.8555 19.084C20.2624 19.5448 18.5448 21.2624 18.084 22.8555C18.0282 23.0483 17.9718 23.0483 17.916 22.8555C17.4552 21.2624 15.7376 19.5448 14.1445 19.084C13.9517 19.0282 13.9517 18.9718 14.1445 18.916C15.7376 18.4552 17.4552 16.7376 17.916 15.1445ZM11.2861 17.5C11.6804 17.5002 12 17.808 12 18.1875C12 18.5671 11.6804 18.8748 11.2861 18.875H7C6.60552 18.875 6.28613 18.5672 6.28613 18.1875C6.28613 17.8078 6.60552 17.5 7 17.5H11.2861ZM14 13.375C14.3945 13.375 14.7139 13.6828 14.7139 14.0625C14.7139 14.4422 14.3945 14.75 14 14.75H7C6.60552 14.75 6.28613 14.4422 6.28613 14.0625C6.28613 13.6828 6.60552 13.375 7 13.375H14ZM17 9.25C17.3945 9.25 17.7139 9.55781 17.7139 9.9375C17.7139 10.3172 17.3945 10.625 17 10.625H7C6.60552 10.625 6.28613 10.3172 6.28613 9.9375C6.28613 9.55781 6.60552 9.25 7 9.25H17ZM17 5.125C17.3945 5.125 17.7139 5.43281 17.7139 5.8125C17.7139 6.19219 17.3945 6.5 17 6.5H7C6.60552 6.5 6.28613 6.19219 6.28613 5.8125C6.28613 5.43281 6.60552 5.125 7 5.125H17Z" fill="currentColor"/>
</svg>
