<svg width="24" height="24" viewBox="0 0 24 24"  xmlns="http://www.w3.org/2000/svg">
<path d="M20.5713 1C21.4284 1 22 1.55 22 2.375V16.8223C21.6808 16.6557 21.3135 16.3955 20.959 16.041C20.5032 15.5852 20.2 15.11 20.0566 14.7402L20.0049 14.5889L19.9287 14.3623C19.8914 14.2657 19.8411 14.1522 19.7734 14.0352C19.706 13.9185 19.5675 13.7023 19.3291 13.4961C19.0775 13.2785 18.624 13 18 13C17.376 13 16.9225 13.2785 16.6709 13.4961C16.4325 13.7023 16.294 13.9185 16.2266 14.0352C16.1589 14.1522 16.1086 14.2657 16.0713 14.3623L15.9951 14.5889C15.8837 14.9741 15.5618 15.5202 15.041 16.041C14.5852 16.4968 14.11 16.8 13.7402 16.9434L13.5889 16.9951C13.488 17.0243 13.2689 17.0914 13.0352 17.2266C12.9185 17.294 12.7023 17.4325 12.4961 17.6709C12.2785 17.9225 12 18.376 12 19C12 19.624 12.2785 20.0775 12.4961 20.3291C12.7023 20.5675 12.9185 20.706 13.0352 20.7734C13.2689 20.9086 13.488 20.9757 13.5889 21.0049C13.9741 21.1163 14.5202 21.4382 15.041 21.959C15.3956 22.3136 15.6567 22.6807 15.8232 23H3.42871C2.57157 23 2 22.45 2 21.625V2.375C2 1.55 2.57157 1 3.42871 1H20.5713ZM17.916 15.1445C17.9718 14.9517 18.0282 14.9517 18.084 15.1445C18.228 15.6424 18.4944 16.1527 18.8418 16.6328C18.9111 16.7286 18.9841 16.8229 19.0596 16.916L19.2949 17.1914C19.4569 17.371 19.629 17.5431 19.8086 17.7051C19.8986 17.7862 19.9906 17.8647 20.084 17.9404L20.3672 18.1582C20.8473 18.5056 21.3576 18.772 21.8555 18.916C22.0483 18.9718 22.0483 19.0282 21.8555 19.084C20.2624 19.5448 18.5448 21.2624 18.084 22.8555C18.0282 23.0483 17.9718 23.0483 17.916 22.8555C17.772 22.3576 17.5056 21.8473 17.1582 21.3672C17.0889 21.2714 17.0159 21.1771 16.9404 21.084L16.7051 20.8086L16.4551 20.5449L16.1914 20.2949C16.1014 20.2138 16.0094 20.1353 15.916 20.0596L15.6328 19.8418L15.3408 19.6436L15.0449 19.4658C14.9456 19.4107 14.8452 19.3605 14.7451 19.3135L14.4443 19.1846L14.1445 19.084C13.9517 19.0282 13.9517 18.9718 14.1445 18.916C14.5427 18.8008 14.9486 18.6071 15.3408 18.3564L15.6328 18.1582C15.7286 18.0889 15.8229 18.0159 15.916 17.9404L16.1914 17.7051C16.371 17.5431 16.5431 17.371 16.7051 17.1914C16.7862 17.1014 16.8647 17.0094 16.9404 16.916L17.1582 16.6328L17.3564 16.3408L17.5342 16.0449C17.5893 15.9456 17.6395 15.8452 17.6865 15.7451L17.8154 15.4443C17.8537 15.3442 17.8872 15.2441 17.916 15.1445ZM6.28613 18.875H11V16.125H6.28613V18.875ZM6.28613 13.375H13.7139V10.625H6.28613V13.375ZM6.28613 7.875H17.7139V5.125H6.28613V7.875Z" fill="currentColor"/>
</svg>
