<svg width="24" height="24" viewBox="0 0 24 24"  xmlns="http://www.w3.org/2000/svg">
<g clip-path="url(#clip0_865_5047)">
<path d="M9 9.5C9 9.22386 9.22386 9 9.5 9H14.5C14.7761 9 15 9.22386 15 9.5V14.5C15 14.7761 14.7761 15 14.5 15H9.5C9.22386 15 9 14.7761 9 14.5V9.5Z" fill="currentColor"/>
<path fill-rule="evenodd" clip-rule="evenodd" d="M23.5 6C23.7761 6 24 6.22386 24 6.5V8.5C24 8.77614 23.7761 9 23.5 9H21V15H23.5C23.7761 15 24 15.2239 24 15.5V17.5C24 17.7761 23.7761 18 23.5 18H21V19.5C21 19.8978 20.8419 20.2794 20.5606 20.5606C20.2794 20.8419 19.8978 21 19.5 21H18V23.5C18 23.7761 17.7761 24 17.5 24H15.5C15.2239 24 15 23.7761 15 23.5V21H9V23.5C9 23.7761 8.77614 24 8.5 24H6.5C6.22386 24 6 23.7761 6 23.5V21H4.5C4.10217 21 3.72065 20.8419 3.43934 20.5606C3.15804 20.2794 3 19.8978 3 19.5V18H0.5C0.223858 18 0 17.7761 0 17.5V15.5C0 15.2239 0.223858 15 0.5 15H3V9H0.5C0.223858 9 0 8.77614 0 8.5V6.5C0 6.22386 0.223858 6 0.5 6H3V4.5C3 4.10217 3.15804 3.72065 3.43934 3.43934C3.72065 3.15804 4.10217 3 4.5 3H6V0.5C6 0.223858 6.22386 0 6.5 0H8.5C8.77614 0 9 0.223858 9 0.5V3H15V0.5C15 0.223858 15.2239 0 15.5 0H17.5C17.7761 0 18 0.223858 18 0.5V3H19.5C19.8978 3 20.2794 3.15804 20.5606 3.43934C20.8419 3.72065 21 4.10217 21 4.5V6H23.5ZM6 18H18V6H6V18Z" fill="currentColor"/>
</g>
<defs>
<clipPath id="clip0_865_5047">
<rect width="24" height="24" fill="currentColor"/>
</clipPath>
</defs>
</svg>
