<svg width="24" height="24" viewBox="0 0 24 24"  xmlns="http://www.w3.org/2000/svg">
<g clip-path="url(#clip0_865_5560)">
<path d="M1.49998 5.98125C1.49998 6.42984 1.49998 6.87843 1.64998 7.32703C1.79998 7.62609 1.64998 8.07468 1.19999 8.07468C0.899991 8.22422 0.449995 8.07468 0.299997 7.62609C0.149998 7.1775 0 6.57937 0 5.98125C0 2.69156 2.69997 0 5.99994 0C6.89993 0 7.79992 0.149531 8.69991 0.598125C8.99991 0.897187 9.2999 1.34578 8.99991 1.64484C8.69991 1.94391 8.24992 2.09344 7.94992 1.94391C7.34993 1.64484 6.74993 1.49531 5.99994 1.49531C3.44996 1.49531 1.49998 3.43922 1.49998 5.98125ZM13.05 13.4579H17.2499C17.6999 13.4579 17.9999 13.757 17.9999 14.2056C17.9999 14.6542 17.6999 14.9532 17.2499 14.9532H12.75C12.675 14.9532 12.5625 14.9158 12.45 14.8785C12.3375 14.8411 12.225 14.8037 12.15 14.8037L7.65002 10.3177C7.50002 10.0187 7.50002 9.42056 7.65002 9.1215C7.95002 8.97197 8.55001 8.97197 8.85001 9.1215L13.05 13.4579Z" fill="currentColor"/>
<path fill-rule="evenodd" clip-rule="evenodd" d="M19.9501 20.3362C21.6001 18.5419 22.5001 16.1494 22.5001 13.4578C22.5001 7.62609 17.8501 2.99062 12.0002 2.99062C6.15023 2.99062 1.50028 7.62609 1.50028 13.4578C1.50028 16.1494 2.40027 18.5419 4.05025 20.3362L1.65028 22.7287C1.35028 23.0278 1.35028 23.4764 1.65028 23.7755C1.95027 24.0745 2.40027 24.0745 2.70027 23.7755L5.10024 21.383C6.90022 23.0278 9.3002 23.925 12.0002 23.925C14.7001 23.925 17.1001 23.0278 18.9001 21.383L21.3001 23.7755C21.6001 24.0745 22.0501 24.0745 22.3501 23.7755C22.6501 23.4764 22.6501 23.0278 22.3501 22.7287L19.9501 20.3362ZM18.4501 19.7381C16.6501 21.383 14.5501 22.4297 12.0002 22.4297C9.4502 22.4297 7.35022 21.383 5.70023 19.8876C4.05025 18.0933 3.00026 15.9998 3.00026 13.4578C3.00026 8.52328 7.05022 4.48594 12.0002 4.48594C16.9501 4.48594 21.0001 8.52328 21.0001 13.4578C21.0001 15.9998 19.9501 18.0933 18.4501 19.7381Z" fill="currentColor"/>
<path d="M15.4501 0.598125C16.2001 0.149531 17.1 0 18 0C21.3 0 24 2.69156 24 5.98125C24 6.57937 23.85 7.1775 23.7 7.77562C23.55 8.07468 23.25 8.37375 22.8 8.22422C22.5 8.07468 22.2 7.77562 22.35 7.32703C22.5 6.87843 22.5 6.42984 22.5 5.98125C22.5 3.43922 20.55 1.49531 18 1.49531C17.25 1.49531 16.65 1.64484 16.2001 1.79437C15.7501 2.09344 15.3001 1.79437 15.1501 1.49531C14.8501 1.19625 15.0001 0.747656 15.4501 0.598125Z" fill="currentColor"/>
</g>
<defs>
<clipPath id="clip0_865_5560">
<rect width="24" height="24" fill="currentColor"/>
</clipPath>
</defs>
</svg>
