<svg width="24" height="24" viewBox="0 0 24 24"  xmlns="http://www.w3.org/2000/svg">
<path fill-rule="evenodd" clip-rule="evenodd" d="M24 3C24 2.17157 23.3284 1.5 22.5 1.5H1.5C0.671574 1.5 0 2.17157 0 3C0 3.82843 0.671574 4.5 1.5 4.5H22.5C23.3284 4.5 24 3.82843 24 3ZM24 9C24 8.17157 23.3284 7.5 22.5 7.5H10.5C9.67157 7.5 9 8.17157 9 9C9 9.82843 9.67157 10.5 10.5 10.5H22.5C23.3284 10.5 24 9.82843 24 9ZM24 15C24 14.1716 23.3284 13.5 22.5 13.5H1.5C0.671574 13.5 0 14.1716 0 15C0 15.8284 0.671574 16.5 1.5 16.5H22.5C23.3284 16.5 24 15.8284 24 15ZM24 21C24 20.1716 23.3284 19.5 22.5 19.5H10.5C9.67157 19.5 9 20.1716 9 21C9 21.8284 9.67157 22.5 10.5 22.5H22.5C23.3284 22.5 24 21.8284 24 21Z" fill="currentColor"/>
</svg>
