<svg width="24" height="24" viewBox="0 0 24 24"  xmlns="http://www.w3.org/2000/svg">
<path fill-rule="evenodd" clip-rule="evenodd" d="M22.9999 3C22.9999 2.58579 22.6641 2.25 22.2499 2.25H1.74987C1.33566 2.25 0.999874 2.58579 0.999874 3C0.999874 3.41421 1.33566 3.75 1.74987 3.75H22.2499C22.6641 3.75 22.9999 3.41421 22.9999 3ZM22.9999 9C22.9999 8.58579 22.6641 8.25 22.2499 8.25H9.74987C9.33566 8.25 8.99987 8.58579 8.99987 9C8.99987 9.41421 9.33566 9.75 9.74987 9.75H22.2499C22.6641 9.75 22.9999 9.41421 22.9999 9ZM23.0001 15C23.0001 14.5858 22.6643 14.25 22.2501 14.25H1.74976C1.33554 14.25 0.999756 14.5858 0.999756 15C0.999756 15.4142 1.33554 15.75 1.74976 15.75H22.2501C22.6643 15.75 23.0001 15.4142 23.0001 15ZM22.9999 21C22.9999 20.5858 22.6641 20.25 22.2499 20.25H9.74987C9.33566 20.25 8.99987 20.5858 8.99987 21C8.99987 21.4142 9.33566 21.75 9.74987 21.75H22.2499C22.6641 21.75 22.9999 21.4142 22.9999 21Z" fill="currentColor"/>
</svg>
