<svg width="24" height="24" viewBox="0 0 24 24"  xmlns="http://www.w3.org/2000/svg">
<path d="M1.75 2.25C1.33579 2.25 1 2.58579 1 3C1 3.41421 1.33579 3.75 1.75 3.75H22.25C22.6642 3.75 23 3.41421 23 3C23 2.58579 22.6642 2.25 22.25 2.25H1.75ZM1.75 8.25C1.33579 8.25 1 8.58579 1 9C1 9.41421 1.33579 9.75 1.75 9.75H14.25C14.6642 9.75 15 9.41421 15 9C15 8.58579 14.6642 8.25 14.25 8.25H1.75ZM1 15C1 14.5858 1.33579 14.25 1.75 14.25H22.2501C22.6643 14.25 23.0001 14.5858 23.0001 15C23.0001 15.4142 22.6643 15.75 22.2501 15.75H1.75C1.33579 15.75 1 15.4142 1 15ZM1.75 20.25C1.33579 20.25 1 20.5858 1 21C1 21.4142 1.33579 21.75 1.75 21.75H14.25C14.6642 21.75 15 21.4142 15 21C15 20.5858 14.6642 20.25 14.25 20.25H1.75Z" fill="currentColor"/>
</svg>
