<svg width="24" height="24" viewBox="0 0 24 24"  xmlns="http://www.w3.org/2000/svg">
<path d="M8.75 9.75V11.75H7.25V9.75H5.25V8.25H7.25V6.25H8.75V8.25H10.75V9.75H8.75Z" fill="currentColor"/>
<path fill-rule="evenodd" clip-rule="evenodd" d="M15.75 3.25H0.25V17.75H3.32501C3.67245 19.4617 5.18577 20.75 7 20.75C8.81423 20.75 10.3276 19.4617 10.675 17.75H16.2602C16.2528 17.8324 16.249 17.9158 16.249 18.0001C16.249 19.5189 17.4802 20.75 18.999 20.75C20.5179 20.75 21.7491 19.5189 21.7491 18.0001C21.7491 17.9158 21.7453 17.8324 21.7379 17.75H23.75V12.5365L21.75 11.5365V7.25H15.75V3.25ZM21.1205 16.25H22.25V13.4635L20.25 12.4635V8.75H15.75V16.25H16.8776C17.382 15.6392 18.145 15.25 18.999 15.25C19.853 15.25 20.6161 15.6393 21.1205 16.25ZM7 13.25C5.18579 13.25 3.67248 14.5383 3.32502 16.25H1.75V4.75H14.25V16.25H10.675C10.3275 14.5383 8.81421 13.25 7 13.25ZM7 14.75C5.75737 14.75 4.75 15.7573 4.75 17C4.75 18.2426 5.75737 19.25 7 19.25C8.24264 19.25 9.25 18.2426 9.25 17C9.25 15.7573 8.24264 14.75 7 14.75ZM17.749 18.0001C17.749 17.3096 18.3087 16.75 18.999 16.75C19.6894 16.75 20.2491 17.3096 20.2491 18.0001C20.2491 18.6904 19.6894 19.25 18.999 19.25C18.3087 19.25 17.749 18.6904 17.749 18.0001Z" fill="currentColor"/>
</svg>
