<svg width="24" height="24" viewBox="0 0 24 24"  xmlns="http://www.w3.org/2000/svg">
<path d="M23.4 12.1L22 11.4V8C22 7.4 21.6 7 21 7H16V4C16 3.4 15.6 3 15 3H1C0.4 3 0 3.4 0 4V17C0 17.6 0.4 18 1 18H2.1C2.5 19.7 4.1 21 6 21C7.9 21 9.4 19.7 9.9 18H14.1C14.3 19.7 15.8 21 17.5 21C19.2 21 20.7 19.7 20.9 18H23C23.6 18 24 17.6 24 17V13C24 12.6 23.8 12.3 23.4 12.1ZM6 19C4.9 19 4 18.1 4 17C4 15.9 4.9 15 6 15C7.1 15 8 15.9 8 17C8 18.1 7.1 19 6 19ZM11 10H9V12H7V10H5V8H7V6H9V8H11V10ZM17.5 19C16.7 19 16 18.3 16 17.5C16 16.7 16.7 16 17.5 16C18.3 16 19 16.7 19 17.5C19 18.3 18.3 19 17.5 19ZM20 10.5C20 10.8 19.8 11 19.5 11H17.5C17.2 11 17 10.8 17 10.5V9.5C17 9.2 17.2 9 17.5 9H19.5C19.8 9 20 9.2 20 9.5V10.5Z" fill="currentColor"/>
</svg>
