<svg width="24" height="24" viewBox="0 0 24 24" fill="none" xmlns="http://www.w3.org/2000/svg">
<g clip-path="url(#clip0_865_716)">
<path d="M3.55116 7.77405C3.14404 7.77405 2.71007 7.91818 2.42608 8.20679C2.14209 8.4953 2 8.84141 2 9.2452V15.4475C2 15.8607 2.14204 16.2116 2.42608 16.5002C2.71007 16.7887 3.14384 16.9327 3.55101 16.9327C3.95829 16.9327 4.30153 16.7887 4.58084 16.5002C4.86035 16.2116 5 15.8607 5 15.4475V9.2452C5 8.84126 4.85786 8.49515 4.57387 8.20679C4.28984 7.91833 3.94878 7.77405 3.55116 7.77405ZM5.48035 17.6542C5.48035 18.0964 5.6319 18.4714 5.93489 18.7792C6.23793 19.0866 6.60714 19.2404 7.04287 19.2404H8.09404L8.10837 22.5145C8.10837 22.9281 8.25041 23.2788 8.53445 23.5674C8.81843 23.8559 9.15944 24.0001 9.55711 24.0001C9.96448 24.0001 10.31 23.8559 10.5941 23.5674C10.8783 23.2788 11.0202 22.9281 11.0202 22.5145V19.2404H12.9803V22.5145C12.9803 22.9281 13.1223 23.2788 13.4063 23.5674C13.6906 23.8559 14.0363 24.0001 14.4435 24.0001C14.8505 24.0001 15.1961 23.8559 15.4801 23.5674C15.7641 23.2788 15.9059 22.9281 15.9059 22.5145V19.2404H16.9714C17.3973 19.2404 17.762 19.0869 18.0649 18.7792C18.368 18.4714 18.5196 18.0964 18.5196 17.6542V8.0481H5.48035V17.6542ZM15.2244 2.20679L16.2326 0.317239C16.299 0.192256 16.2751 0.0961185 16.1617 0.028878C16.0385 -0.0288649 15.9438 -1.8701e-05 15.8778 0.115467L14.8549 2.01927C13.9552 1.61542 13.0038 1.4135 11.9999 1.4135C10.9962 1.4135 10.0444 1.61542 9.14473 2.01927L8.12202 0.115518C8.05595 3.1814e-05 7.96112 -0.0288144 7.83804 0.0289285C7.72435 0.096169 7.70082 0.192306 7.76709 0.31729L8.77562 2.20679C7.75276 2.73557 6.93861 3.4736 6.33238 4.42073C5.72635 5.3679 5.42326 6.40404 5.42326 7.52889H18.5626C18.5626 6.40404 18.2596 5.36785 17.6535 4.42073C17.0471 3.4736 16.2379 2.73552 15.2244 2.20679ZM9.39334 4.95431C9.28454 5.06494 9.15438 5.12021 9.00284 5.12021C8.85129 5.12021 8.72353 5.06499 8.61925 4.95431C8.51522 4.84382 8.46303 4.71156 8.46303 4.55773C8.46303 4.40385 8.51522 4.2716 8.61925 4.16096C8.72338 4.05032 8.85134 3.99516 9.00284 3.99516C9.15418 3.99516 9.28439 4.05027 9.39334 4.16096C9.5023 4.2716 9.55673 4.40385 9.55673 4.55773C9.55673 4.71161 9.5023 4.84367 9.39334 4.95431ZM15.3808 4.95431C15.2764 5.06494 15.1485 5.12021 14.997 5.12021C14.8455 5.12021 14.7156 5.06499 14.6066 4.95431C14.4976 4.84382 14.4434 4.71156 14.4434 4.55773C14.4434 4.40385 14.4976 4.2716 14.6066 4.16096C14.7155 4.05032 14.8455 3.99516 14.997 3.99516C15.1485 3.99516 15.2764 4.05027 15.3808 4.16096C15.4847 4.2716 15.537 4.40385 15.537 4.55773C15.537 4.71161 15.4848 4.84367 15.3808 4.95431ZM21.5737 8.19952C21.2897 7.9159 20.856 7.77405 20.4487 7.77405C20.0512 7.77405 19.7103 7.9159 19.4263 8.19952C19.1421 8.48323 19 8.83186 19 9.2452V15.4475C19 15.8607 19.1421 16.2116 19.4263 16.5002C19.7103 16.7887 20.0512 16.9327 20.4487 16.9327C20.856 16.9327 21.2897 16.7887 21.5737 16.5002C21.8581 16.2116 22 15.8607 22 15.4475V9.2452C22 8.83181 21.8581 8.48318 21.5737 8.19952Z" fill="#A4C439"/>
</g>
<defs>
<clipPath id="clip0_865_716">
<rect width="24" height="24" fill="white"/>
</clipPath>
</defs>
</svg>
