<svg width="24" height="24" viewBox="0 0 24 24"  xmlns="http://www.w3.org/2000/svg">
<path fill-rule="evenodd" clip-rule="evenodd" d="M2.8125 2.5C2.63991 2.5 2.5 2.63991 2.5 2.8125V9.1875C2.5 9.36009 2.63991 9.5 2.8125 9.5H9.1875C9.36009 9.5 9.5 9.36009 9.5 9.1875V2.8125C9.5 2.63991 9.36009 2.5 9.1875 2.5H2.8125ZM1 2.8125C1 1.81148 1.81148 1 2.8125 1H9.1875C10.1885 1 11 1.81148 11 2.8125V9.1875C11 10.1885 10.1885 11 9.1875 11H2.8125C1.81148 11 1 10.1885 1 9.1875V2.8125ZM13.5753 5.82282C13.4774 5.92067 13.4774 6.07933 13.5753 6.17718L17.8228 10.4247C17.9207 10.5226 18.0793 10.5226 18.1772 10.4247L22.4247 6.17718C22.5226 6.07933 22.5226 5.92067 22.4247 5.82282L18.1772 1.57526C18.0793 1.47741 17.9207 1.47741 17.8228 1.57526L13.5753 5.82282ZM12.5133 7.23917C11.8289 6.55479 11.8289 5.44521 12.5133 4.76084L16.7608 0.513279C17.4452 -0.171092 18.5548 -0.171093 19.2392 0.513279L23.4867 4.76084C24.1711 5.44521 24.1711 6.55479 23.4867 7.23916L19.2392 11.4867C18.5548 12.1711 17.4452 12.1711 16.7608 11.4867L12.5133 7.23917ZM14.8125 14.5C14.6399 14.5 14.5 14.6399 14.5 14.8125V21.1875C14.5 21.3601 14.6399 21.5 14.8125 21.5H21.1875C21.3601 21.5 21.5 21.3601 21.5 21.1875V14.8125C21.5 14.6399 21.3601 14.5 21.1875 14.5H14.8125ZM13 14.8125C13 13.8115 13.8115 13 14.8125 13H21.1875C22.1885 13 23 13.8115 23 14.8125V21.1875C23 22.1885 22.1885 23 21.1875 23H14.8125C13.8115 23 13 22.1885 13 21.1875V14.8125ZM2.8125 14.5C2.63991 14.5 2.5 14.6399 2.5 14.8125V21.1875C2.5 21.3601 2.63991 21.5 2.8125 21.5H9.1875C9.36009 21.5 9.5 21.3601 9.5 21.1875V14.8125C9.5 14.6399 9.36009 14.5 9.1875 14.5H2.8125ZM1 14.8125C1 13.8115 1.81148 13 2.8125 13H9.1875C10.1885 13 11 13.8115 11 14.8125V21.1875C11 22.1885 10.1885 23 9.1875 23H2.8125C1.81148 23 1 22.1885 1 21.1875V14.8125Z" fill="currentColor"/>
</svg>
