<svg width="24" height="24" viewBox="0 0 24 24"  xmlns="http://www.w3.org/2000/svg">
<path d="M9 1.0001H3C1.89543 1.0001 1 1.89553 1 3.0001V9.0001C1 10.1047 1.89543 11.0001 3 11.0001H9C10.1046 11.0001 11 10.1047 11 9.0001V3.0001C11 1.89553 10.1046 1.0001 9 1.0001ZM23.428 4.6181L19.381 0.572099C19.0142 0.206805 18.5177 0.00170898 18 0.00170898C17.4823 0.00170898 16.9858 0.206805 16.619 0.572099L12.572 4.6181C12.2066 4.98522 12.0014 5.48212 12.0014 6.0001C12.0014 6.51808 12.2066 7.01498 12.572 7.3821L16.619 11.4291C16.9858 11.7944 17.4823 11.9995 18 11.9995C18.5177 11.9995 19.0142 11.7944 19.381 11.4291L23.428 7.3831C23.7937 7.01594 23.9991 6.51883 23.9991 6.0006C23.9991 5.48237 23.7937 4.98526 23.428 4.6181ZM21 13.0001H15C13.8954 13.0001 13 13.8955 13 15.0001V21.0001C13 22.1047 13.8954 23.0001 15 23.0001H21C22.1046 23.0001 23 22.1047 23 21.0001V15.0001C23 13.8955 22.1046 13.0001 21 13.0001ZM9 13.0001H3C1.89543 13.0001 1 13.8955 1 15.0001V21.0001C1 22.1047 1.89543 23.0001 3 23.0001H9C10.1046 23.0001 11 22.1047 11 21.0001V15.0001C11 13.8955 10.1046 13.0001 9 13.0001Z" fill="currentColor"/>
</svg>
