<svg width="24" height="24" viewBox="0 0 24 24"  xmlns="http://www.w3.org/2000/svg">
<g clip-path="url(#clip0_865_4232)">
<path fill-rule="evenodd" clip-rule="evenodd" d="M2.25 1.5C1.83621 1.5 1.5 1.83621 1.5 2.25V6H22.5V2.25C22.5 1.83621 22.1638 1.5 21.75 1.5H2.25ZM0 2.25V17.25C0 18.4922 1.00779 19.5 2.25 19.5H6.75C7.16421 19.5 7.5 19.1642 7.5 18.75C7.5 18.3358 7.16421 18 6.75 18H2.25C1.83621 18 1.5 17.6638 1.5 17.25V7.5H22.5V9.75C22.5 10.1642 22.8358 10.5 23.25 10.5C23.6642 10.5 24 10.1642 24 9.75V2.25C24 1.00779 22.9922 0 21.75 0H2.25C1.00779 0 0 1.00779 0 2.25ZM12 17.25C12 14.3505 14.3505 12 17.25 12C20.1495 12 22.5 14.3505 22.5 17.25C22.5 20.1495 20.1495 22.5 17.25 22.5C14.3505 22.5 12 20.1495 12 17.25ZM17.25 10.5C13.5221 10.5 10.5 13.5221 10.5 17.25C10.5 20.9779 13.5221 24 17.25 24C20.9779 24 24 20.9779 24 17.25C24 13.5221 20.9779 10.5 17.25 10.5ZM17.25 13.5C17.6642 13.5 18 13.8358 18 14.25V16.5H20.25C20.6642 16.5 21 16.8358 21 17.25C21 17.6642 20.6642 18 20.25 18H18V20.25C18 20.6642 17.6642 21 17.25 21C16.8358 21 16.5 20.6642 16.5 20.25V18H14.25C13.8358 18 13.5 17.6642 13.5 17.25C13.5 16.8358 13.8358 16.5 14.25 16.5H16.5V14.25C16.5 13.8358 16.8358 13.5 17.25 13.5Z" fill="currentColor"/>
</g>
<defs>
<clipPath id="clip0_865_4232">
<rect width="24" height="24" fill="currentColor"/>
</clipPath>
</defs>
</svg>
