<svg width="24" height="24" viewBox="0 0 24 24"  xmlns="http://www.w3.org/2000/svg">
<path d="M3 18H11.5C11.7761 18 12 18.2239 12 18.5V20.5C12 20.7761 11.7761 21 11.5 21H1.5C0.672 21 0 20.328 0 19.5V1.5C0 0.672 0.672 0 1.5 0H22.5C23.328 0 24 0.672 24 1.5V10.5C24 10.7761 23.7761 11 23.5 11H21.5C21.2239 11 21 10.7761 21 10.5V6H3V18ZM20.5 14C20.7761 14 21 14.2239 21 14.5V17H23.5C23.7761 17 24 17.2239 24 17.5V19.5C24 19.7761 23.7761 20 23.5 20H21V22.5C21 22.7761 20.7761 23 20.5 23H18.5C18.2239 23 18 22.7761 18 22.5V20H15.5C15.2239 20 15 19.7761 15 19.5V17.5C15 17.2239 15.2239 17 15.5 17H18V14.5C18 14.2239 18.2239 14 18.5 14H20.5Z" fill="currentColor"/>
</svg>
