<svg width="24" height="24" viewBox="0 0 24 24"  xmlns="http://www.w3.org/2000/svg">
<g clip-path="url(#clip0_865_4249)">
<path fill-rule="evenodd" clip-rule="evenodd" d="M1.5 1.5V9.5H9.5V1.5H1.5ZM1 0C0.447715 0 0 0.447715 0 1V10C0 10.5523 0.447715 11 1 11H10C10.5523 11 11 10.5523 11 10V1C11 0.447715 10.5523 0 10 0H1ZM14.5 1.5V9.5H22.5V1.5H14.5ZM14 0C13.4477 0 13 0.447715 13 1V10C13 10.5523 13.4477 11 14 11H23C23.5523 11 24 10.5523 24 10V1C24 0.447715 23.5523 0 23 0H14ZM1.5 14.5V22.5H9.5V14.5H1.5ZM1 13C0.447715 13 0 13.4477 0 14V23C0 23.5523 0.447715 24 1 24H10C10.5523 24 11 23.5523 11 23V14C11 13.4477 10.5523 13 10 13H1ZM14.5 14.5V22.5H22.5V14.5H14.5ZM14 13C13.4477 13 13 13.4477 13 14V23C13 23.5523 13.4477 24 14 24H23C23.5523 24 24 23.5523 24 23V14C24 13.4477 23.5523 13 23 13H14Z" fill="currentColor"/>
</g>
<defs>
<clipPath id="clip0_865_4249">
<rect width="24" height="24" fill="currentColor"/>
</clipPath>
</defs>
</svg>
