<svg width="24" height="24" viewBox="0 0 24 24"  xmlns="http://www.w3.org/2000/svg">
<g clip-path="url(#clip0_865_4255)">
<path d="M0 1C0 0.447715 0.447715 0 1 0H10C10.5523 0 11 0.447715 11 1V10C11 10.5523 10.5523 11 10 11H1C0.447715 11 0 10.5523 0 10V1ZM13 1C13 0.447715 13.4477 0 14 0H23C23.5523 0 24 0.447715 24 1V10C24 10.5523 23.5523 11 23 11H14C13.4477 11 13 10.5523 13 10V1ZM0 14C0 13.4477 0.447715 13 1 13H10C10.5523 13 11 13.4477 11 14V23C11 23.5523 10.5523 24 10 24H1C0.447715 24 0 23.5523 0 23V14ZM13 14C13 13.4477 13.4477 13 14 13H23C23.5523 13 24 13.4477 24 14V23C24 23.5523 23.5523 24 23 24H14C13.4477 24 13 23.5523 13 23V14Z" fill="currentColor"/>
</g>
<defs>
<clipPath id="clip0_865_4255">
<rect width="24" height="24" fill="currentColor"/>
</clipPath>
</defs>
</svg>
