<svg width="24" height="24" viewBox="0 0 24 24"  xmlns="http://www.w3.org/2000/svg">
<path fill-rule="evenodd" clip-rule="evenodd" d="M22.7489 2.46323C23.0837 2.1285 23.0837 1.58579 22.7489 1.25105C22.4142 0.916317 21.8716 0.916317 21.5368 1.25105L2.71429 20.0735V12.1429C2.71429 11.6695 2.33053 11.2857 1.85714 11.2857C1.38376 11.2857 1 11.6695 1 12.1429V22.1427C1 22.259 1.02313 22.3698 1.06504 22.4709C1.10687 22.5721 1.16887 22.6667 1.25105 22.7489C1.33323 22.8311 1.42795 22.8932 1.52904 22.9349C1.62097 22.973 1.71817 22.9943 1.81603 22.9989C1.82972 22.9997 1.84343 23 1.85714 23H11.8571C12.3305 23 12.7143 22.6163 12.7143 22.1429C12.7143 21.6695 12.3305 21.2856 11.8571 21.2856H3.92647L22.7489 2.46323Z" fill="currentColor"/>
</svg>
