<svg width="24" height="24" viewBox="0 0 24 24"  xmlns="http://www.w3.org/2000/svg">
<path fill-rule="evenodd" clip-rule="evenodd" d="M8.32963 19.6756C8.76897 20.1081 9.48127 20.1081 9.92062 19.6756C10.36 19.243 10.36 18.5416 9.92062 18.109L4.84063 13.1072H22C22.6213 13.1072 23 12.6113 23 11.9995C23 11.3877 22.6213 10.8918 22 10.8918H4.84161L9.92062 5.89094C10.36 5.45837 10.36 4.75701 9.92062 4.32443C9.48127 3.89186 8.76897 3.89186 8.32963 4.32443L1.35186 11.1948C1.13518 11.3967 1 11.6826 1 11.9995C1 12.1283 1.02233 12.252 1.0634 12.367C1.11748 12.519 1.20622 12.6617 1.32963 12.7832L8.32963 19.6756Z" fill="currentColor"/>
</svg>
