<svg width="24" height="24" viewBox="0 0 24 24"  xmlns="http://www.w3.org/2000/svg">
<path fill-rule="evenodd" clip-rule="evenodd" d="M15.6704 19.6756C15.231 20.1081 14.5187 20.1081 14.0794 19.6756C13.64 19.243 13.64 18.5416 14.0794 18.109L19.1594 13.1072H2C1.3787 13.1072 1 12.6113 1 11.9995C1 11.3877 1.3787 10.8918 2 10.8918H19.1584L14.0794 5.89094C13.64 5.45837 13.64 4.75701 14.0794 4.32443C14.5187 3.89186 15.231 3.89186 15.6704 4.32443L22.6481 11.1948C22.8648 11.3967 23 11.6826 23 11.9995C23 12.1283 22.9777 12.252 22.9366 12.367C22.8825 12.519 22.7938 12.6617 22.6704 12.7832L15.6704 19.6756Z" fill="currentColor"/>
</svg>
