<svg width="24" height="24" viewBox="0 0 24 24"  xmlns="http://www.w3.org/2000/svg">
<path fill-rule="evenodd" clip-rule="evenodd" d="M22.9349 1.52904C22.8932 1.42795 22.8311 1.33323 22.7489 1.25105C22.6667 1.16887 22.5721 1.10687 22.4709 1.06504C22.3698 1.02313 22.2591 1 22.1429 1H12.1429C11.6695 1 11.2857 1.38376 11.2857 1.85714C11.2857 2.33053 11.6695 2.71429 12.1429 2.71429H20.0735L1.25105 21.5368C0.916317 21.8716 0.916317 22.4142 1.25105 22.7489C1.58579 23.0837 2.1285 23.0837 2.46323 22.7489L21.2856 3.92647V11.8571C21.2856 12.3305 21.6695 12.7143 22.1429 12.7143C22.6163 12.7143 23 12.3305 23 11.8571V1.852C22.9993 1.73765 22.9763 1.62862 22.9349 1.52904Z" fill="currentColor"/>
</svg>
