<svg width="24" height="24" viewBox="0 0 24 24"  xmlns="http://www.w3.org/2000/svg">
<path fill-rule="evenodd" clip-rule="evenodd" d="M12 10C13.933 10 15.5 8.433 15.5 6.5C15.5 4.567 13.933 3 12 3C10.067 3 8.5 4.567 8.5 6.5C8.5 8.433 10.067 10 12 10ZM12 11.5C14.7614 11.5 17 9.26142 17 6.5C17 3.73858 14.7614 1.5 12 1.5C9.23858 1.5 7 3.73858 7 6.5C7 9.26142 9.23858 11.5 12 11.5Z" fill="currentColor"/>
<path d="M16.9937 22.9995C16.7946 22.9995 16.6037 22.9228 16.4629 22.7864L14.2107 20.6047C14.074 20.4676 13.9983 20.2839 14 20.0932C14.0017 19.9025 14.0807 19.7201 14.2199 19.5853C14.3591 19.4504 14.5474 19.374 14.7442 19.3723C14.9411 19.3706 15.1307 19.4439 15.2723 19.5764L17 21.1763L21.6558 15.2806C21.778 15.1283 21.9578 15.0292 22.1554 15.0052C22.3531 14.9812 22.5525 15.0342 22.7098 15.1526C22.8671 15.2711 22.9694 15.4452 22.9942 15.6366C23.0189 15.8281 22.9642 16.0213 22.8419 16.1737L17.5868 22.7188C17.5215 22.8005 17.439 22.8678 17.3448 22.9162C17.2505 22.9646 17.1467 22.993 17.0403 22.9995H16.9937ZM11.4585 13C12.3289 13 13.1734 13.1111 13.9785 13.32C14.5271 13.4623 14.6719 14.1308 14.2732 14.5294C14.0659 14.7366 13.7601 14.8097 13.4738 14.7402C12.8278 14.5832 12.1529 14.5 11.4585 14.5C7.27433 14.5 3.79603 17.021 3.08729 21H11.8258C12.2401 21 12.5846 21.3358 12.5846 21.75C12.5846 22.1642 12.2401 22.5 11.8258 22.5H2.46656C1.90775 22.5 1.44914 22.0509 1.50455 21.5014C2.00833 16.5041 6.27259 13 11.4585 13Z" fill="currentColor"/>
</svg>
