<svg width="24" height="24" viewBox="0 0 24 24"  xmlns="http://www.w3.org/2000/svg">
<path d="M12 11.5C14.7614 11.5 17 9.26142 17 6.5C17 3.73858 14.7614 1.5 12 1.5C9.23858 1.5 7 3.73858 7 6.5C7 9.26142 9.23858 11.5 12 11.5ZM15.805 13.7044C14.1308 14.6473 13 16.4416 13 18.5C13 20.076 13.6629 21.4972 14.7251 22.5H2.43911C1.84507 22.5 1.3844 21.9632 1.52569 21.3747C2.67972 16.5672 6.93149 13 12 13C13.3394 13 14.6218 13.2491 15.805 13.7044ZM17.5492 23C17.2418 23 16.9344 22.8761 16.7003 22.6295L14.6431 20.4628C14.4523 20.2619 14.4523 19.9384 14.6431 19.7375L15.6451 18.6822C15.8386 18.4783 16.1546 18.4783 16.3482 18.6822L17.5492 19.9471L21.1518 16.1529C21.3454 15.949 21.6614 15.949 21.8549 16.1529L22.8569 17.2082C23.0477 17.4091 23.0477 17.7326 22.8569 17.9335L18.3982 22.6295C18.164 22.8761 17.8566 23 17.5492 23Z" fill="currentColor"/>
</svg>
