<svg width="24" height="24" viewBox="0 0 24 24"  xmlns="http://www.w3.org/2000/svg">
<path d="M9.7 13.2821H1.3C0.6 13.2821 0 12.6821 0 11.9821C0 11.2821 0.6 10.6821 1.3 10.6821H9.7L5.5 3.48213C5.3 3.18213 5.3 2.78213 5.4 2.48213C5.5 2.18213 5.7 1.88213 6 1.68213C6.6 1.28213 7.5 1.58213 7.8 2.18213L12 9.38213L16.2 2.18213C16.6 1.58213 17.4 1.28213 18 1.68213C18.3 1.88213 18.5 2.18213 18.6 2.48213C18.7 2.78213 18.6 3.18213 18.5 3.48213L14.3 10.6821H22.7C23.4 10.6821 24 11.2821 24 11.9821C24 12.6821 23.4 13.2821 22.7 13.2821H14.3L18.5 20.4821C18.7 20.7821 18.7 21.1821 18.6 21.4821C18.5 21.7821 18.3 22.0821 18 22.2821C17.4 22.6821 16.5 22.3821 16.2 21.7821L12 14.5821L7.8 21.7821C7.4 22.3821 6.6 22.6821 6 22.2821C5.7 22.0821 5.5 21.7821 5.4 21.4821C5.3 21.1821 5.4 20.7821 5.5 20.4821L9.7 13.2821Z" fill="currentColor"/>
</svg>
