<svg width="24" height="24" viewBox="0 0 24 24"  xmlns="http://www.w3.org/2000/svg">
<g clip-path="url(#clip0_865_5053)">
<path fill-rule="evenodd" clip-rule="evenodd" d="M3.75 0C1.67894 0 0 1.67894 0 3.75C0 5.82106 1.67894 7.5 3.75 7.5C5.82106 7.5 7.5 5.82106 7.5 3.75C7.5 1.67894 5.82106 0 3.75 0ZM1.5 3.75C1.5 2.50735 2.50735 1.5 3.75 1.5C4.99264 1.5 6 2.50735 6 3.75C6 4.99264 4.99264 6 3.75 6C2.50735 6 1.5 4.99264 1.5 3.75ZM3.75 16.5C1.67894 16.5 0 18.1789 0 20.25C0 22.3211 1.67894 24 3.75 24C5.82106 24 7.5 22.3211 7.5 20.25C7.5 18.1789 5.82106 16.5 3.75 16.5ZM1.5 20.25C1.5 19.0074 2.50735 18 3.75 18C4.99264 18 6 19.0074 6 20.25C6 21.4926 4.99264 22.5 3.75 22.5C2.50735 22.5 1.5 21.4926 1.5 20.25ZM15 12C15 9.51472 17.0147 7.5 19.5 7.5C21.9853 7.5 24 9.51472 24 12C24 14.4853 21.9853 16.5 19.5 16.5C17.0147 16.5 15 14.4853 15 12ZM19.5 9C17.8431 9 16.5 10.3431 16.5 12C16.5 13.6569 17.8431 15 19.5 15C21.1569 15 22.5 13.6569 22.5 12C22.5 10.3431 21.1569 9 19.5 9Z" fill="currentColor"/>
<path d="M4.5 9.75C4.5 9.33579 4.16421 9 3.75 9C3.33579 9 3 9.33579 3 9.75V14.25C3 14.6642 3.33579 15 3.75 15C4.16421 15 4.5 14.6642 4.5 14.25V9.75ZM8.21566 6.08867C8.40786 5.72175 8.86111 5.58011 9.22804 5.7723L14.079 8.3133C14.446 8.5055 14.5876 8.95875 14.3954 9.32568C14.2032 9.6926 13.75 9.83424 13.383 9.64205L8.53203 7.10105C8.1651 6.90885 8.02347 6.4556 8.21566 6.08867ZM14.079 15.687C14.446 15.4948 14.5876 15.0415 14.3954 14.6746C14.2032 14.3077 13.75 14.166 13.383 14.3582L8.53203 16.8993C8.1651 17.0914 8.02347 17.5447 8.21566 17.9116C8.40786 18.2785 8.86111 18.4201 9.22804 18.228L14.079 15.687Z" fill="currentColor"/>
</g>
<defs>
<clipPath id="clip0_865_5053">
<rect width="24" height="24" fill="currentColor"/>
</clipPath>
</defs>
</svg>
