<svg width="24" height="24" viewBox="0 0 24 24"  xmlns="http://www.w3.org/2000/svg">
<g clip-path="url(#clip0_865_5059)">
<path d="M18 6C16.2 6 14.7 6.75 13.65 7.95L10.35 6.3C10.5 6 10.5 5.55 10.5 5.25C10.5 2.4 8.1 0 5.25 0C2.4 0 0 2.4 0 5.25C0 7.35 1.2 9.15 3 9.9V13.95C1.2 14.85 0 16.65 0 18.6C0 21.6 2.4 24 5.25 24C8.1 24 10.5 21.6 10.5 18.75C10.5 18.45 10.5 18 10.35 17.7L13.5 16.05C14.7 17.25 16.2 18 18 18C21.3 18 24 15.3 24 12C24 8.7 21.3 6 18 6ZM5.25 3C6.45 3 7.5 4.05 7.5 5.25C7.5 6.45 6.45 7.5 5.25 7.5C4.05 7.5 3 6.45 3 5.25C3 4.05 4.05 3 5.25 3ZM5.25 21C4.05 21 3 19.95 3 18.75C3 17.55 4.05 16.5 5.25 16.5C6.45 16.5 7.5 17.55 7.5 18.75C7.5 19.95 6.45 21 5.25 21ZM9 15C8.25 14.25 7.2 13.65 6 13.5V10.35C7.2 10.2 8.25 9.6 9 8.85L12.15 10.5C12 11.55 12 12.45 12.15 13.35L9 15ZM18 15C16.35 15 15 13.65 15 12C15 10.35 16.35 9 18 9C19.65 9 21 10.35 21 12C21 13.65 19.65 15 18 15Z" fill="currentColor"/>
</g>
<defs>
<clipPath id="clip0_865_5059">
<rect width="24" height="24" fill="currentColor"/>
</clipPath>
</defs>
</svg>
