<svg width="24" height="24" viewBox="0 0 24 24"  xmlns="http://www.w3.org/2000/svg">
<g clip-path="url(#clip0_865_4489)">
<path fill-rule="evenodd" clip-rule="evenodd" d="M19.3182 1.82511C16.8846 -0.60837 12.9398 -0.60837 10.5063 1.82511L3.6229 8.71005C0.125515 12.2075 0.125865 17.8783 3.62296 21.3771C7.1204 24.8746 12.7913 24.8741 16.2901 21.377L22.622 15.0436C22.9262 14.7394 22.9261 14.2462 22.6218 13.9421C22.3178 13.638 21.8246 13.6381 21.5204 13.9423L15.1885 20.2757C12.2978 23.1649 7.61331 23.1645 4.72439 20.2757C1.83521 17.385 1.83551 12.7003 4.72445 9.81137L11.6078 2.92649C13.433 1.10137 16.3916 1.1014 18.2168 2.92655C20.0419 4.75173 20.0419 7.71037 18.2168 9.53555L11.8837 15.8686C11.1222 16.6291 9.88902 16.6281 9.12947 15.8691C8.36939 15.1074 8.37009 13.8746 9.12947 13.1152L13.8103 8.43445C14.1144 8.1303 14.1144 7.63716 13.8103 7.33301C13.5061 7.02886 13.013 7.02886 12.7088 7.33301L8.02804 12.0138C6.65977 13.3821 6.66075 15.6011 8.02804 16.9705C9.39629 18.3387 11.6154 18.3378 12.9847 16.9705L19.3182 10.637C21.7516 8.20351 21.7516 4.2586 19.3182 1.82511Z" fill="currentColor"/>
</g>
<defs>
<clipPath id="clip0_865_4489">
<rect width="24" height="24" fill="currentColor"/>
</clipPath>
</defs>
</svg>
