<svg width="24" height="24" viewBox="0 0 24 24"  xmlns="http://www.w3.org/2000/svg">
<g clip-path="url(#clip0_865_4495)">
<path d="M14.3999 19.2004C11.9999 21.6004 8.2499 21.6004 5.8499 19.2004C3.4499 16.8004 3.2999 13.2004 5.6999 10.9504L12.4499 4.20039C13.9499 2.70039 16.3499 2.70039 17.6999 4.20039C19.1999 5.70039 19.1999 8.10039 17.6999 9.45039L12.4499 14.8504C11.8499 15.4504 10.9499 15.4504 10.3499 14.8504C9.7499 14.2504 9.7499 13.3504 10.3499 12.7504L14.5499 8.55039L12.2999 6.45039L8.2499 10.5004C6.4499 12.3004 6.4499 15.1504 8.2499 16.8004C10.0499 18.4504 12.8999 18.6004 14.5499 16.8004L19.9499 11.4004C22.6499 8.70039 22.6499 4.50039 19.9499 1.80039C17.2499 -0.899609 13.0499 -0.899609 10.3499 1.80039L3.5999 8.85039C0.149905 12.3004 0.299905 17.8504 3.7499 21.3004C5.5499 23.1004 7.7999 24.0004 10.1999 24.0004C12.5999 24.0004 14.8499 23.1004 16.4999 21.3004L22.9499 14.8504L20.8499 12.7504L14.3999 19.2004Z" fill="currentColor"/>
</g>
<defs>
<clipPath id="clip0_865_4495">
<rect width="24" height="24" fill="currentColor"/>
</clipPath>
</defs>
</svg>
