<svg width="24" height="24" viewBox="0 0 24 24"  xmlns="http://www.w3.org/2000/svg">
<path d="M15.9318 19.5447C15.5352 19.5447 15.2063 19.8842 15.2063 20.2937V21.502H8.77432V20.2637C8.77432 19.8543 8.44546 19.5148 8.0489 19.5148C7.65234 19.5148 7.32348 19.8543 7.32348 20.2637V22.251C7.32348 22.4508 7.40086 22.6405 7.53627 22.7803C7.67168 22.9201 7.85545 23 8.0489 23H15.9318C16.1252 23 16.309 22.9201 16.4444 22.7803C16.5798 22.6405 16.6572 22.4508 16.6572 22.251V20.2937C16.6572 19.8842 16.3283 19.5447 15.9318 19.5447Z" fill="currentColor"/>
<path d="M21 10.2773L19.0849 8.34998L19.259 7.601L19.288 7.49115C19.3074 7.42124 19.3267 7.31139 19.3557 7.18157C19.4138 6.92192 19.4911 6.5724 19.5588 6.22288C19.5975 6.00318 19.6459 5.79346 19.6749 5.60372L17.1698 4.94462L16.5024 2.23831L13.8909 2.99728L11.9952 1L10.0994 2.99728L7.48791 2.23831L6.82053 4.94462L4.19936 5.63368L4.93444 8.33L3 10.2873L4.93444 12.2447L4.19936 14.941L6.82053 15.6301L7.48791 18.3364L10.0994 17.5774L11.9952 19.5747L13.8909 17.5774L16.5024 18.3364L17.1698 15.6301L19.791 14.941L19.0559 12.2447L20.9903 10.2873L21 10.2773ZM18.05 11.1661L17.431 11.7853L17.9919 13.8625L16.8023 14.172L15.9704 14.3917L15.7577 15.2506L15.4578 16.4789L13.446 15.8997L12.8463 16.5388L11.9855 17.4476L11.1247 16.5388L10.525 15.8997L8.51316 16.4789L8.21333 15.2506L8.00054 14.3917L7.16873 14.172L5.97904 13.8625L6.54003 11.7853L5.92101 11.1661L5.04084 10.2773L5.92101 9.38856L6.54003 8.76941L5.97904 6.69224L7.16873 6.38266L8.00054 6.16296L8.21333 5.30413L8.51316 4.07581L10.525 4.65502L11.1247 4.01589L11.9855 3.10713L12.8463 4.01589L13.446 4.65502L15.4578 4.07581L15.7577 5.30413L15.9704 6.16296L16.8023 6.38266L17.9629 6.69224C17.9533 6.74217 17.9436 6.7921 17.9339 6.84203L17.8662 7.15161L17.8469 7.25147L17.4793 8.82932L18.0693 9.42851L18.9205 10.2873L18.0403 11.1661H18.05Z" fill="currentColor"/>
<path d="M11.1827 6.09305L8.43579 13.3731H9.94465L10.525 11.7154H13.3396L13.9586 13.3731H15.5062L12.6819 6.09305H11.173H11.1827ZM10.9699 10.497L11.9178 7.79074L12.885 10.497H10.9602H10.9699Z" fill="currentColor"/>
</svg>
