<svg width="24" height="24" viewBox="0 0 24 24"  xmlns="http://www.w3.org/2000/svg">
<path fill-rule="evenodd" clip-rule="evenodd" d="M12 21.6196L10.1067 19.3333L7.5 20.1961V21.8892C7.5 22.5039 8.01219 23 8.64329 23L12.0732 22.9784L15.3567 23C15.9878 23 16.5 22.5039 16.5 21.8892V20.1961L13.8933 19.3333L12 21.6196Z" fill="currentColor"/>
<path d="M12.8851 10.497H10.9704L11.9178 7.79067L12.8851 10.497Z" fill="currentColor"/>
<path fill-rule="evenodd" clip-rule="evenodd" d="M13.8911 2.99731L16.5028 2.23759L17.1697 4.94391L19.6757 5.60318C19.6467 5.79288 19.5982 6.00282 19.5595 6.22246C19.4918 6.57189 19.4145 6.92151 19.3564 7.18113C19.3274 7.31096 19.3078 7.42136 19.2884 7.49126L19.2591 7.60049L19.0853 8.34948L21 10.2776L20.9906 10.2873L19.056 12.2446L19.7909 14.9412L17.1697 15.6297L16.5028 18.336L13.8911 17.5773L11.9953 19.5746L10.0995 17.5773L7.48772 18.336L6.82084 15.6297L4.19962 14.9412L4.93451 12.2446L3 10.2873L4.93451 8.32998L4.19962 5.63341L6.82084 4.94391L7.48772 2.23759L10.0995 2.99731L11.9953 1L13.8911 2.99731ZM8.43608 13.373H9.94458L10.5246 11.7151H13.3394L13.9591 13.373H15.5063L12.682 6.09276H11.1829L8.43608 13.373Z" fill="currentColor"/>
</svg>
