<svg width="24" height="24" viewBox="0 0 24 24"  xmlns="http://www.w3.org/2000/svg">
<g clip-path="url(#clip0_865_520)">
<path fill-rule="evenodd" clip-rule="evenodd" d="M1.29251 0.221759C0.996829 -0.0739197 0.517439 -0.0739197 0.221759 0.221759C-0.0739197 0.517439 -0.0739197 0.996829 0.221759 1.29251L22.7075 23.7782C23.0032 24.0739 23.4826 24.0739 23.7782 23.7782C24.0739 23.4826 24.0739 23.0032 23.7782 22.7075L21.28 20.2092C25.316 14.7998 24.8604 7.11807 19.9137 2.22057C19.6204 1.93019 19.1405 1.92598 18.8419 2.21117C18.5433 2.49636 18.5389 2.96295 18.8322 3.25333C23.1901 7.56785 23.6478 14.3108 20.2054 19.1346L18.4456 17.3749C21.0153 13.6902 20.6451 8.58482 17.3358 5.30846C17.0425 5.01808 16.5627 5.01388 16.264 5.29907C15.9654 5.58426 15.9611 6.05085 16.2544 6.34123C18.9739 9.03371 19.3432 13.1996 17.3621 16.2914L15.5471 14.4764C16.63 12.538 16.3432 10.0362 14.6869 8.39636C14.3936 8.10598 13.9137 8.10177 13.6151 8.38696C13.3165 8.67215 13.3121 9.13875 13.6054 9.42913C14.6661 10.4793 14.9367 12.0372 14.4173 13.3465L11.0274 9.95668V3.24935C11.0274 2.8285 10.5188 2.60245 10.1915 2.87786L6.80148 5.73073L1.29251 0.221759ZM7.85997 6.78922L9.51164 8.44089V5.39926L7.85997 6.78922Z" fill="currentColor"/>
<path d="M2.20549 7.74247H3.67172L5.06802 9.13877L4.97582 9.21636H2.20549C1.84976 9.21636 1.51579 9.50845 1.51579 9.92602V14.0748C1.51579 14.4923 1.84976 14.7844 2.20549 14.7844H4.97582L9.51164 18.6015V13.5824L11.0274 15.0982V20.7514C11.0274 21.1723 10.5188 21.3983 10.1915 21.1229L4.41097 16.2583H2.20549C0.986955 16.2583 5.58794e-09 15.2812 5.58794e-09 14.0748V9.92602C5.58794e-09 8.71961 0.986955 7.74247 2.20549 7.74247Z" fill="currentColor"/>
</g>
<defs>
<clipPath id="clip0_865_520">
<rect width="24" height="24" fill="currentColor"/>
</clipPath>
</defs>
</svg>
