<svg width="24" height="24" viewBox="0 0 24 24"  xmlns="http://www.w3.org/2000/svg">
<path d="M14.4343 8.43451C14.7467 8.12209 15.2532 8.12209 15.5656 8.43451L18.0001 10.869L20.4343 8.4349C20.7467 8.12248 21.2532 8.12248 21.5656 8.4349C21.8781 8.74732 21.8781 9.25385 21.5656 9.56627L19.1315 12.0004L21.5656 14.4345C21.8781 14.7469 21.8781 15.2535 21.5656 15.5659C21.2532 15.8783 20.7467 15.8783 20.4343 15.5659L18.0001 13.1318L15.5656 15.5663C15.2532 15.8787 14.7467 15.8787 14.4343 15.5663C14.1218 15.2539 14.1218 14.7473 14.4343 14.4349L16.8688 12.0004L14.4343 9.56588C14.1218 9.25346 14.1218 8.74693 14.4343 8.43451Z" fill="currentColor"/>
<path fill-rule="evenodd" clip-rule="evenodd" d="M2.20549 7.74269H4.41097L10.1915 2.87809C10.5188 2.60268 11.0274 2.82873 11.0274 3.24958V20.7517C11.0274 21.1725 10.5188 21.3986 10.1915 21.1232L4.41097 16.2586H2.20549C0.986955 16.2586 0 15.2814 0 14.075V9.92624C0 8.71983 0.986955 7.74269 2.20549 7.74269ZM2.20549 9.21659H4.97582L9.51164 5.39948V18.6018L4.97582 14.7847H2.20549C1.84976 14.7847 1.51579 14.4926 1.51579 14.075V9.92624C1.51579 9.50867 1.84976 9.21659 2.20549 9.21659Z" fill="currentColor"/>
</svg>
