<svg width="24" height="24" viewBox="0 0 24 24"  xmlns="http://www.w3.org/2000/svg">
<path d="M19.9137 2.22057C19.6204 1.93019 19.1405 1.92598 18.8419 2.21117C18.5433 2.49636 18.5389 2.96295 18.8322 3.25333C23.7015 8.07417 23.7015 15.9269 18.8323 20.7466C18.539 21.037 18.5432 21.5035 18.8418 21.7888C19.1404 22.074 19.6203 22.0698 19.9136 21.7795C25.3622 16.3863 25.362 7.6147 19.9137 2.22057Z" fill="currentColor"/>
<path fill-rule="evenodd" clip-rule="evenodd" d="M2.20549 7.74247H4.41097L10.1915 2.87786C10.5188 2.60245 11.0274 2.8285 11.0274 3.24935V20.7514C11.0274 21.1723 10.5188 21.3983 10.1915 21.1229L4.41097 16.2583H2.20549C0.986955 16.2583 0 15.2812 0 14.0748V9.92602C0 8.71961 0.986955 7.74247 2.20549 7.74247ZM2.20549 9.21637H4.97582L9.51164 5.39926V18.6015L4.97582 14.7844H2.20549C1.84976 14.7844 1.51579 14.4923 1.51579 14.0748V9.92602C1.51579 9.50845 1.84976 9.21637 2.20549 9.21637Z" fill="currentColor"/>
<path d="M14.6869 8.39636C14.3936 8.10598 13.9137 8.10177 13.6151 8.38696C13.3165 8.67215 13.3121 9.13875 13.6054 9.42913C15.0294 10.839 15.0294 13.164 13.6054 14.5739C13.3121 14.8642 13.3165 15.3308 13.6151 15.616C13.9137 15.9012 14.3936 15.897 14.6869 15.6066C16.69 13.6234 16.69 10.3796 14.6869 8.39636ZM16.264 5.29907C16.5627 5.01388 17.0425 5.01808 17.3358 5.30846C21.0615 8.99716 21.0619 15.0042 17.3357 18.6921C17.0424 18.9824 16.5625 18.9865 16.2639 18.7013C15.9653 18.416 15.9611 17.9494 16.2545 17.6591C19.4012 14.5448 19.4011 9.45669 16.2544 6.34123C15.9611 6.05085 15.9654 5.58426 16.264 5.29907Z" fill="currentColor"/>
</svg>
