<svg width="24" height="24" viewBox="0 0 24 24"  xmlns="http://www.w3.org/2000/svg">
<path d="M10.0853 2.71592C10.4092 2.43563 10.9125 2.66569 10.9125 3.09399V20.906C10.9125 21.3343 10.4092 21.5644 10.0853 21.2841L4.36502 16.3333H2.18251C0.976673 16.3333 0 15.3389 0 14.1111V9.88889C0 8.66111 0.976673 7.66667 2.18251 7.66667H4.36502L10.0853 2.71592ZM14.7122 8.15672C14.3252 7.76269 13.6921 7.75698 13.2981 8.14397C12.904 8.53096 12.8983 9.16409 13.2853 9.55812C14.599 10.8957 14.599 13.1061 13.2853 14.4436C12.8983 14.8376 12.904 15.4708 13.2981 15.8578C13.6921 16.2448 14.3252 16.239 14.7122 15.845C16.79 13.7294 16.79 10.2723 14.7122 8.15672Z" fill="currentColor"/>
</svg>
