<svg width="24" height="24" viewBox="0 0 24 24"  xmlns="http://www.w3.org/2000/svg">
<path d="M10.9125 3.09399C10.9125 2.66569 10.4092 2.43563 10.0853 2.71592L4.36502 7.66667H2.18251C0.976673 7.66667 0 8.66111 0 9.88889V14.1111C0 15.3389 0.976673 16.3333 2.18251 16.3333H4.36502L10.0853 21.2841C10.4092 21.5644 10.9125 21.3343 10.9125 20.906V3.09399ZM13.2981 8.14397C13.6921 7.75698 14.3252 7.76269 14.7122 8.15672C16.79 10.2723 16.79 13.7294 14.7122 15.845C14.3252 16.239 13.6921 16.2448 13.2981 15.8578C12.904 15.4708 12.8983 14.8376 13.2853 14.4436C14.599 13.1061 14.599 10.8957 13.2853 9.55812C12.8983 9.16409 12.904 8.53096 13.2981 8.14397ZM17.3336 5.01414C16.9466 4.62011 16.3134 4.6144 15.9194 5.00139C15.5254 5.38838 15.5197 6.02152 15.9067 6.41555C18.9251 9.48894 18.9251 14.5113 15.9068 17.5835C15.5197 17.9774 15.5253 18.6106 15.9193 18.9976C16.3132 19.3847 16.9464 19.3791 17.3334 18.9851C21.1164 15.1347 21.116 8.86539 17.3336 5.01414Z" fill="currentColor"/>
</svg>
