<svg width="24" height="24" viewBox="0 0 24 24"  xmlns="http://www.w3.org/2000/svg">
<path fill-rule="evenodd" clip-rule="evenodd" d="M2.20549 7.74245H4.41097L10.1915 2.87784C10.5188 2.60243 11.0274 2.82848 11.0274 3.24933V20.7514C11.0274 21.1723 10.5188 21.3983 10.1915 21.1229L4.41097 16.2583H2.20549C0.986955 16.2583 0 15.2812 0 14.0748V9.926C0 8.71959 0.986955 7.74245 2.20549 7.74245ZM2.20549 9.21634H4.97582L9.51164 5.39924V18.6015L4.97582 14.7844H2.20549C1.84976 14.7844 1.51579 14.4923 1.51579 14.0748V9.926C1.51579 9.50843 1.84976 9.21634 2.20549 9.21634Z" fill="currentColor"/>
<path d="M14.6869 8.39634C14.3936 8.10596 13.9137 8.10175 13.6151 8.38694C13.3165 8.67213 13.3121 9.13873 13.6054 9.42911C15.0294 10.8389 15.0294 13.164 13.6054 14.5738C13.3121 14.8642 13.3165 15.3308 13.6151 15.616C13.9137 15.9012 14.3936 15.897 14.6869 15.6066C16.69 13.6234 16.69 10.3795 14.6869 8.39634Z" fill="currentColor"/>
</svg>
