<svg width="24" height="24" viewBox="0 0 24 24"  xmlns="http://www.w3.org/2000/svg">
<path d="M10.0853 2.71592C10.4092 2.43563 10.9125 2.66569 10.9125 3.09399V20.906C10.9125 21.3343 10.4092 21.5644 10.0853 21.2841L4.36502 16.3333H2.18251C0.976673 16.3333 0 15.3389 0 14.1111V9.88889C0 8.66111 0.976673 7.66667 2.18251 7.66667H4.36502L10.0853 2.71592ZM21.7071 8.29289C22.0976 8.68342 22.0976 9.31658 21.7071 9.70711L19.4142 12L21.7071 14.2929C22.0976 14.6834 22.0976 15.3166 21.7071 15.7071C21.3166 16.0976 20.6834 16.0976 20.2929 15.7071L18 13.4142L15.7071 15.7071C15.3166 16.0976 14.6834 16.0976 14.2929 15.7071C13.9024 15.3166 13.9024 14.6834 14.2929 14.2929L16.5858 12L14.2929 9.70711C13.9024 9.31658 13.9024 8.68342 14.2929 8.29289C14.6834 7.90237 15.3166 7.90237 15.7071 8.29289L18 10.5858L20.2929 8.29289C20.6834 7.90237 21.3166 7.90237 21.7071 8.29289Z" fill="currentColor"/>
</svg>
