<svg width="24" height="24" viewBox="0 0 24 24"  xmlns="http://www.w3.org/2000/svg">
<path d="M19.8846 2.28704C19.4976 1.90915 18.8645 1.90367 18.4704 2.27481C18.0764 2.64595 18.0707 3.25315 18.4577 3.63104C23.1807 8.24304 23.1807 15.758 18.4578 20.3689C18.0707 20.7467 18.0764 21.3539 18.4704 21.7251C18.8643 22.0963 19.4975 22.0909 19.8845 21.713C25.3719 16.3559 25.3716 7.6451 19.8846 2.28704ZM10.0853 3.09681C10.4092 2.82801 10.9125 3.04864 10.9125 3.45939V20.5419C10.9125 20.9526 10.4092 21.1732 10.0853 20.9044L4.36502 16.1565H2.18251C0.976673 16.1565 0 15.2028 0 14.0253V9.97598C0 8.79849 0.976673 7.84478 2.18251 7.84478H4.36502L10.0853 3.09681ZM14.7122 8.31476C14.3252 7.93687 13.6921 7.9314 13.2981 8.30253C12.904 8.67367 12.8983 9.28088 13.2853 9.65877C14.599 10.9415 14.599 13.0614 13.2853 14.3441C12.8983 14.722 12.904 15.3292 13.2981 15.7004C13.6921 16.0715 14.3252 16.066 14.7122 15.6882C16.79 13.6592 16.79 10.3437 14.7122 8.31476ZM15.9194 5.28867C16.3134 4.91753 16.9466 4.92301 17.3336 5.3009C21.116 8.9944 21.1164 15.0069 17.3334 18.6996C16.9464 19.0775 16.3132 19.0828 15.9193 18.7116C15.5253 18.3404 15.5197 17.7332 15.9068 17.3554C18.9251 14.4091 18.9251 9.59242 15.9067 6.64491C15.5197 6.26701 15.5254 5.65981 15.9194 5.28867Z" fill="currentColor"/>
</svg>
