<svg width="24" height="24" viewBox="0 0 24 24"  xmlns="http://www.w3.org/2000/svg">
<path d="M2 14C2 14.2761 1.77614 14.5 1.5 14.5C1.22386 14.5 1 14.2761 1 14C1 13.7239 1.22386 13.5 1.5 13.5C1.77614 13.5 2 13.7239 2 14Z" fill="currentColor"/>
<path d="M2 9C2 9.27614 1.77614 9.5 1.5 9.5C1.22386 9.5 1 9.27614 1 9C1 8.72386 1.22386 8.5 1.5 8.5C1.77614 8.5 2 8.72386 2 9Z" fill="currentColor"/>
<path d="M10 1.5C10 1.77614 9.77614 2 9.5 2C9.22386 2 9 1.77614 9 1.5C9 1.22386 9.22386 1 9.5 1C9.77614 1 10 1.22386 10 1.5Z" fill="currentColor"/>
<path d="M10 22.5C10 22.7761 9.77614 23 9.5 23C9.22386 23 9 22.7761 9 22.5C9 22.2239 9.22386 22 9.5 22C9.77614 22 10 22.2239 10 22.5Z" fill="currentColor"/>
<path d="M22 14C22 14.2761 22.2239 14.5 22.5 14.5C22.7761 14.5 23 14.2761 23 14C23 13.7239 22.7761 13.5 22.5 13.5C22.2239 13.5 22 13.7239 22 14Z" fill="currentColor"/>
<path d="M22 9C22 9.27614 22.2239 9.5 22.5 9.5C22.7761 9.5 23 9.27614 23 9C23 8.72386 22.7761 8.5 22.5 8.5C22.2239 8.5 22 8.72386 22 9Z" fill="currentColor"/>
<path d="M14 1.5C14 1.77614 14.2239 2 14.5 2C14.7761 2 15 1.77614 15 1.5C15 1.22386 14.7761 1 14.5 1C14.2239 1 14 1.22386 14 1.5Z" fill="currentColor"/>
<path d="M14 22.5C14 22.7761 14.2239 23 14.5 23C14.7761 23 15 22.7761 15 22.5C15 22.2239 14.7761 22 14.5 22C14.2239 22 14 22.2239 14 22.5Z" fill="currentColor"/>
<path d="M5.5 9C5.5 9.27614 5.27614 9.5 5 9.5C4.72386 9.5 4.5 9.27614 4.5 9C4.5 8.72386 4.72386 8.5 5 8.5C5.27614 8.5 5.5 8.72386 5.5 9Z" fill="currentColor"/>
<path d="M5.5 4C5.5 4.27614 5.27614 4.5 5 4.5C4.72386 4.5 4.5 4.27614 4.5 4C4.5 3.72386 4.72386 3.5 5 3.5C5.27614 3.5 5.5 3.72386 5.5 4Z" fill="currentColor"/>
<path d="M5.5 14C5.5 14.2761 5.27614 14.5 5 14.5C4.72386 14.5 4.5 14.2761 4.5 14C4.5 13.7239 4.72386 13.5 5 13.5C5.27614 13.5 5.5 13.7239 5.5 14Z" fill="currentColor"/>
<path d="M19.5 9C19.5 9.27614 19.2761 9.5 19 9.5C18.7239 9.5 18.5 9.27614 18.5 9C18.5 8.72386 18.7239 8.5 19 8.5C19.2761 8.5 19.5 8.72386 19.5 9Z" fill="currentColor"/>
<path d="M19.5 4C19.5 4.27614 19.2761 4.5 19 4.5C18.7239 4.5 18.5 4.27614 18.5 4C18.5 3.72386 18.7239 3.5 19 3.5C19.2761 3.5 19.5 3.72386 19.5 4Z" fill="currentColor"/>
<path d="M19.5 14C19.5 14.2761 19.2761 14.5 19 14.5C18.7239 14.5 18.5 14.2761 18.5 14C18.5 13.7239 18.7239 13.5 19 13.5C19.2761 13.5 19.5 13.7239 19.5 14Z" fill="currentColor"/>
<path d="M15.8095 7.80952C15.8095 9.91346 14.1039 11.619 12 11.619C9.89606 11.619 8.19048 9.91346 8.19048 7.80952C8.19048 5.70558 9.89606 4 12 4C14.1039 4 15.8095 5.70558 15.8095 7.80952ZM19.9804 19.1426C20.0881 19.591 19.7371 20 19.2845 20H4.71551C4.26291 20 3.91192 19.591 4.01957 19.1426C4.89883 15.4798 8.13828 12.7619 12 12.7619C15.8617 12.7619 19.1012 15.4798 19.9804 19.1426Z" fill="currentColor"/>
</svg>
