<svg width="24" height="24" viewBox="0 0 24 24"  xmlns="http://www.w3.org/2000/svg">
<path d="M2 14C2 14.2761 1.77614 14.5 1.5 14.5C1.22386 14.5 1 14.2761 1 14C1 13.7239 1.22386 13.5 1.5 13.5C1.77614 13.5 2 13.7239 2 14Z" fill="currentColor"/>
<path d="M2 9C2 9.27614 1.77614 9.5 1.5 9.5C1.22386 9.5 1 9.27614 1 9C1 8.72386 1.22386 8.5 1.5 8.5C1.77614 8.5 2 8.72386 2 9Z" fill="currentColor"/>
<path d="M10 1.5C10 1.77614 9.77614 2 9.5 2C9.22386 2 9 1.77614 9 1.5C9 1.22386 9.22386 1 9.5 1C9.77614 1 10 1.22386 10 1.5Z" fill="currentColor"/>
<path d="M10 22.5C10 22.7761 9.77614 23 9.5 23C9.22386 23 9 22.7761 9 22.5C9 22.2239 9.22386 22 9.5 22C9.77614 22 10 22.2239 10 22.5Z" fill="currentColor"/>
<path d="M6 14C6 14.5523 5.55228 15 5 15C4.44772 15 4 14.5523 4 14C4 13.4477 4.44772 13 5 13C5.55228 13 6 13.4477 6 14Z" fill="currentColor"/>
<path d="M6 9C6 9.55229 5.55228 10 5 10C4.44772 10 4 9.55229 4 9C4 8.44772 4.44772 8 5 8C5.55228 8 6 8.44772 6 9Z" fill="currentColor"/>
<path d="M6 4C6 4.55228 5.55228 5 5 5C4.44772 5 4 4.55228 4 4C4 3.44772 4.44772 3 5 3C5.55228 3 6 3.44772 6 4Z" fill="currentColor"/>
<path d="M22 14C22 14.2761 22.2239 14.5 22.5 14.5C22.7761 14.5 23 14.2761 23 14C23 13.7239 22.7761 13.5 22.5 13.5C22.2239 13.5 22 13.7239 22 14Z" fill="currentColor"/>
<path d="M22 9C22 9.27614 22.2239 9.5 22.5 9.5C22.7761 9.5 23 9.27614 23 9C23 8.72386 22.7761 8.5 22.5 8.5C22.2239 8.5 22 8.72386 22 9Z" fill="currentColor"/>
<path d="M14 1.5C14 1.77614 14.2239 2 14.5 2C14.7761 2 15 1.77614 15 1.5C15 1.22386 14.7761 1 14.5 1C14.2239 1 14 1.22386 14 1.5Z" fill="currentColor"/>
<path d="M14 22.5C14 22.7761 14.2239 23 14.5 23C14.7761 23 15 22.7761 15 22.5C15 22.2239 14.7761 22 14.5 22C14.2239 22 14 22.2239 14 22.5Z" fill="currentColor"/>
<path d="M18 14C18 14.5523 18.4477 15 19 15C19.5523 15 20 14.5523 20 14C20 13.4477 19.5523 13 19 13C18.4477 13 18 13.4477 18 14Z" fill="currentColor"/>
<path d="M18 9C18 9.55229 18.4477 10 19 10C19.5523 10 20 9.55229 20 9C20 8.44772 19.5523 8 19 8C18.4477 8 18 8.44772 18 9Z" fill="currentColor"/>
<path d="M18 4C18 4.55228 18.4477 5 19 5C19.5523 5 20 4.55228 20 4C20 3.44772 19.5523 3 19 3C18.4477 3 18 3.44772 18 4Z" fill="currentColor"/>
<path d="M15.8095 7.80952C15.8095 9.91346 14.1039 11.619 12 11.619C9.89606 11.619 8.19048 9.91346 8.19048 7.80952C8.19048 5.70558 9.89606 4 12 4C14.1039 4 15.8095 5.70558 15.8095 7.80952ZM19.9804 19.1426C20.0881 19.591 19.7371 20 19.2845 20H4.71551C4.26291 20 3.91192 19.591 4.01957 19.1426C4.89883 15.4798 8.13828 12.7619 12 12.7619C15.8617 12.7619 19.1012 15.4798 19.9804 19.1426Z" fill="currentColor"/>
</svg>
