<svg width="24" height="24" viewBox="0 0 24 24"  xmlns="http://www.w3.org/2000/svg">
<path fill-rule="evenodd" clip-rule="evenodd" d="M12.3544 18.0283V13.5659C12.3965 13.6007 12.4404 13.6339 12.4861 13.6654L21.2475 19.6937C22.459 20.5272 24 19.5559 24 18.0283V5.97173C24 4.44403 22.459 3.47276 21.2475 4.30631L12.4861 10.3346C12.4404 10.3661 12.3965 10.3993 12.3544 10.434V5.97173C12.3544 4.44403 10.8134 3.47276 9.60196 4.30631L0.840577 10.3346C-0.280194 11.1057 -0.28019 12.8943 0.840575 13.6654L9.60197 19.6937C10.8134 20.5272 12.3544 19.5559 12.3544 18.0283ZM22.3297 5.97173C22.3297 5.90714 22.3 5.86228 22.261 5.83851C22.2228 5.8152 22.1809 5.81422 22.1403 5.84215L13.379 11.8704C13.2948 11.9283 13.2948 12.0717 13.379 12.1296L22.1403 18.1579C22.1809 18.1858 22.2228 18.1848 22.261 18.1615C22.3 18.1377 22.3297 18.0929 22.3297 18.0283V5.97173ZM10.6842 5.97173C10.6842 5.90714 10.6544 5.86228 10.6154 5.83851C10.5772 5.8152 10.5354 5.81422 10.4948 5.84215L1.73339 11.8704C1.64925 11.9283 1.64923 12.0717 1.73341 12.1296L10.4948 18.1579C10.5354 18.1858 10.5772 18.1848 10.6154 18.1615C10.6544 18.1377 10.6842 18.0929 10.6842 18.0283V5.97173Z" fill="currentColor"/>
</svg>
