<svg width="24" height="24" viewBox="0 0 24 24"  xmlns="http://www.w3.org/2000/svg">
<path d="M2.00015 14C2.00015 14.2761 1.77629 14.5 1.50015 14.5C1.22401 14.5 1.00015 14.2761 1.00015 14C1.00015 13.7239 1.22401 13.5 1.50015 13.5C1.77629 13.5 2.00015 13.7239 2.00015 14Z" fill="currentColor"/>
<path d="M2.00015 9C2.00015 9.27614 1.77629 9.5 1.50015 9.5C1.22401 9.5 1.00015 9.27614 1.00015 9C1.00015 8.72386 1.22401 8.5 1.50015 8.5C1.77629 8.5 2.00015 8.72386 2.00015 9Z" fill="currentColor"/>
<path d="M10.0002 1.5C10.0002 1.77614 9.77629 2 9.50015 2C9.22401 2 9.00015 1.77614 9.00015 1.5C9.00015 1.22386 9.22401 1 9.50015 1C9.77629 1 10.0002 1.22386 10.0002 1.5Z" fill="currentColor"/>
<path d="M10.0002 22.5C10.0002 22.7761 9.77629 23 9.50015 23C9.22401 23 9.00015 22.7761 9.00015 22.5C9.00015 22.2239 9.22401 22 9.50015 22C9.77629 22 10.0002 22.2239 10.0002 22.5Z" fill="currentColor"/>
<path d="M6.00015 14C6.00015 14.5523 5.55244 15 5.00015 15C4.44787 15 4.00015 14.5523 4.00015 14C4.00015 13.4477 4.44787 13 5.00015 13C5.55244 13 6.00015 13.4477 6.00015 14Z" fill="currentColor"/>
<path d="M6.00015 9C6.00015 9.55229 5.55244 10 5.00015 10C4.44787 10 4.00015 9.55229 4.00015 9C4.00015 8.44772 4.44787 8 5.00015 8C5.55244 8 6.00015 8.44772 6.00015 9Z" fill="currentColor"/>
<path d="M6.00015 4C6.00015 4.55228 5.55244 5 5.00015 5C4.44787 5 4.00015 4.55228 4.00015 4C4.00015 3.44772 4.44787 3 5.00015 3C5.55244 3 6.00015 3.44772 6.00015 4Z" fill="currentColor"/>
<path d="M22.0002 14C22.0002 14.2761 22.224 14.5 22.5002 14.5C22.7763 14.5 23.0002 14.2761 23.0002 14C23.0002 13.7239 22.7763 13.5 22.5002 13.5C22.224 13.5 22.0002 13.7239 22.0002 14Z" fill="currentColor"/>
<path d="M22.0002 9C22.0002 9.27614 22.224 9.5 22.5002 9.5C22.7763 9.5 23.0002 9.27614 23.0002 9C23.0002 8.72386 22.7763 8.5 22.5002 8.5C22.224 8.5 22.0002 8.72386 22.0002 9Z" fill="currentColor"/>
<path d="M14.0002 1.5C14.0002 1.77614 14.224 2 14.5002 2C14.7763 2 15.0002 1.77614 15.0002 1.5C15.0002 1.22386 14.7763 1 14.5002 1C14.224 1 14.0002 1.22386 14.0002 1.5Z" fill="currentColor"/>
<path d="M14.0002 22.5C14.0002 22.7761 14.224 23 14.5002 23C14.7763 23 15.0002 22.7761 15.0002 22.5C15.0002 22.2239 14.7763 22 14.5002 22C14.224 22 14.0002 22.2239 14.0002 22.5Z" fill="currentColor"/>
<path d="M18.0002 14C18.0002 14.5523 18.4479 15 19.0002 15C19.5524 15 20.0002 14.5523 20.0002 14C20.0002 13.4477 19.5524 13 19.0002 13C18.4479 13 18.0002 13.4477 18.0002 14Z" fill="currentColor"/>
<path d="M18.0002 9C18.0002 9.55229 18.4479 10 19.0002 10C19.5524 10 20.0002 9.55229 20.0002 9C20.0002 8.44772 19.5524 8 19.0002 8C18.4479 8 18.0002 8.44772 18.0002 9Z" fill="currentColor"/>
<path d="M18.0002 4C18.0002 4.55228 18.4479 5 19.0002 5C19.5524 5 20.0002 4.55228 20.0002 4C20.0002 3.44772 19.5524 3 19.0002 3C18.4479 3 18.0002 3.44772 18.0002 4Z" fill="currentColor"/>
<path fill-rule="evenodd" clip-rule="evenodd" d="M19.2709 20C19.6936 20 20.0407 19.6578 19.9963 19.2393C19.5917 15.4317 16.1661 12.7619 12.0001 12.7619C7.83419 12.7619 4.40862 15.4317 4.004 19.2393C3.95953 19.6578 4.30667 20 4.72936 20H19.2709ZM12.0001 13.9048C8.63896 13.9048 5.84479 15.8255 5.27546 18.8571H18.7248C18.1555 15.8255 15.3614 13.9048 12.0001 13.9048ZM12.0001 10.4762C13.4729 10.4762 14.6668 9.28229 14.6668 7.80952C14.6668 6.33676 13.4729 5.14286 12.0001 5.14286C10.5274 5.14286 9.33348 6.33676 9.33348 7.80952C9.33348 9.28229 10.5274 10.4762 12.0001 10.4762ZM12.0001 11.619C14.1041 11.619 15.8097 9.91346 15.8097 7.80952C15.8097 5.70559 14.1041 4 12.0001 4C9.8962 4 8.19062 5.70559 8.19062 7.80952C8.19062 9.91346 9.8962 11.619 12.0001 11.619Z" fill="currentColor"/>
</svg>
