<svg width="24" height="24" viewBox="0 0 24 24"  xmlns="http://www.w3.org/2000/svg">
<path fill-rule="evenodd" clip-rule="evenodd" d="M5 4.86624C5 4.38783 5.38056 4 5.85 4C6.31944 4 6.7 4.38783 6.7 4.86624V10.6296C6.79452 10.5227 6.90244 10.4255 7.02376 10.3407L15.6529 4.30509C16.8398 3.47492 18.3501 4.442 18.3501 5.96442V18.0356C18.3501 19.558 16.8398 20.5251 15.6529 19.6949L7.02376 13.6593C6.90244 13.5745 6.79452 13.4772 6.7 13.3704V19.1338C6.7 19.6122 6.31944 20 5.85 20C5.38056 20 5 19.6122 5 19.1338V4.86624ZM16.5226 5.82655C16.597 5.77449 16.7228 5.82223 16.7228 5.96442V18.0356C16.7228 18.1777 16.597 18.2255 16.5226 18.1735L7.89351 12.1379C7.80518 12.0761 7.80519 11.9239 7.8935 11.8621L16.5226 5.82655Z" fill="currentColor"/>
</svg>
