<svg width="24" height="24" viewBox="0 0 24 24"  xmlns="http://www.w3.org/2000/svg">
<path fill-rule="evenodd" clip-rule="evenodd" d="M8.22535 3C8.07512 3 7.77465 3.15 7.62441 3.3L0.112676 11.55C-0.0375587 11.85 -0.0375587 12.15 0.112676 12.45L7.62441 20.7C7.77465 20.85 8.07512 21 8.22535 21H21.7465C22.9484 21 24 19.95 24 18.75V5.25C24 4.05 22.9484 3 21.7465 3H8.22535ZM1.76526 12L8.52582 4.5H21.7465C22.1972 4.5 22.4977 4.8 22.4977 5.25V18.75C22.4977 19.2 22.1972 19.5 21.7465 19.5H8.52582L1.76526 12Z" fill="currentColor"/>
<path d="M18.7803 9.28033C19.0732 8.98744 19.0732 8.51256 18.7803 8.21967C18.4874 7.92678 18.0126 7.92678 17.7197 8.21967L15 10.9393L12.2803 8.21967C11.9874 7.92678 11.5126 7.92678 11.2197 8.21967C10.9268 8.51256 10.9268 8.98744 11.2197 9.28033L13.9393 12L11.2197 14.7197C10.9268 15.0126 10.9268 15.4874 11.2197 15.7803C11.5126 16.0732 11.9874 16.0732 12.2803 15.7803L15 13.0607L17.7197 15.7803C18.0126 16.0732 18.4874 16.0732 18.7803 15.7803C19.0732 15.4874 19.0732 15.0126 18.7803 14.7197L16.0607 12L18.7803 9.28033Z" fill="currentColor"/>
</svg>
