<svg width="24" height="24" viewBox="0 0 24 24"  xmlns="http://www.w3.org/2000/svg">
<path fill-rule="evenodd" clip-rule="evenodd" d="M6.49712 3.90741C7.13755 2.78088 8.34182 2 9.74856 2C10.6007 2 11.3763 2.28852 11.9986 2.76294C12.6208 2.28852 13.3964 2 14.2486 2C15.6553 2 16.8596 2.78088 17.5 3.90742L22.9211 12.5666C23.6011 13.5394 24 14.7232 24 16.0001C24 19.3138 21.3137 22.0001 18 22.0001C14.6863 22.0001 12 19.3138 12 16.0001C12 12.6864 14.6863 10.0001 18 10.0001C18.5895 10.0001 19.1592 10.0851 19.6974 10.2436L16.2353 4.71444C16.2246 4.69833 16.2145 4.6818 16.2051 4.66491C15.8156 3.96677 15.0867 3.5 14.2486 3.5C13.5797 3.5 12.9824 3.79885 12.5633 4.2785C12.4209 4.44149 12.215 4.535 11.9986 4.535C11.7821 4.535 11.5762 4.44149 11.4338 4.2785C11.0147 3.79885 10.4174 3.5 9.74856 3.5C8.91038 3.5 8.18152 3.96677 7.79202 4.66491C7.78259 4.68181 7.77252 4.69833 7.76182 4.71444L4.30129 10.2439C4.83989 10.0852 5.41 10.0001 6 10.0001C9.31371 10.0001 12 12.6864 12 16.0001C12 19.3138 9.31371 22.0001 6 22.0001C2.68629 22.0001 0 19.3138 0 16.0001C0 14.7235 0.398676 13.54 1.07831 12.5674L6.49712 3.90741ZM21.678 13.4067C20.8632 12.2533 19.5196 11.5001 18 11.5001C15.5147 11.5001 13.5 13.5148 13.5 16.0001C13.5 18.4854 15.5147 20.5001 18 20.5001C20.4853 20.5001 22.5 18.4854 22.5 16.0001C22.5 15.0554 22.2089 14.1788 21.7116 13.4549C21.7018 13.442 21.6923 13.4287 21.6832 13.415L21.678 13.4067ZM2.31673 13.415C2.3078 13.4285 2.29851 13.4415 2.28889 13.4542C1.79125 14.1782 1.5 15.0551 1.5 16.0001C1.5 18.4854 3.51472 20.5001 6 20.5001C8.48528 20.5001 10.5 18.4854 10.5 16.0001C10.5 13.5148 8.48528 11.5001 6 11.5001C4.48014 11.5001 3.13626 12.2536 2.32153 13.4074L2.31673 13.415Z" fill="currentColor"/>
</svg>
