<svg width="24" height="24" viewBox="0 0 24 24"  xmlns="http://www.w3.org/2000/svg">
<path d="M22.8 12.55C22.5 12 18.45 4.7 17.25 3.05C16.65 2.45 15.9 2 15 2C13.35 2 12 3.35 12 5C12 3.35 10.65 2 9 2C8.1 2 7.35 2.45 6.75 3.05C5.55 4.55 2 11 1.2 12.55C0.67634 13.5646 0 14.65 0 16C0 19.3 2.7 22 6 22C9.3 22 12 19.3 12 16C12 19.3 14.7 22 18 22C21.3 22 24 19.3 24 16C24 14.65 23.1511 13.1937 22.8 12.55ZM6 19C4.35 19 3 17.65 3 16C3 14.35 4.35 13 6 13C7.65 13 9 14.35 9 16C9 17.65 7.65 19 6 19ZM18 19C16.35 19 15 17.65 15 16C15 14.35 16.35 13 18 13C19.65 13 21 14.35 21 16C21 17.65 19.65 19 18 19Z" fill="currentColor"/>
</svg>
