<svg width="24" height="24" viewBox="0 0 24 24"  xmlns="http://www.w3.org/2000/svg">
<path fill-rule="evenodd" clip-rule="evenodd" d="M12 1C5.92487 1 1 5.92487 1 12C1 18.0751 5.92487 23 12 23C18.0751 23 23 18.0751 23 12C23 5.92487 18.0751 1 12 1ZM4 12C4 7.58172 7.58172 4 12 4C13.6671 4 15.2151 4.50992 16.4965 5.38229L5.38229 16.4965C4.50992 15.2151 4 13.6671 4 12ZM7.50362 18.6178C8.78503 19.4901 10.333 20 12 20C16.4183 20 20 16.4183 20 12C20 10.333 19.4901 8.78503 18.6178 7.50362L7.50362 18.6178Z" fill="currentColor"/>
</svg>
