<svg width="24" height="24" viewBox="0 0 24 24"  xmlns="http://www.w3.org/2000/svg">
<g clip-path="url(#clip0_865_1548)">
<path fill-rule="evenodd" clip-rule="evenodd" d="M23.8961 6.64662C23.8961 10.3174 20.9203 13.2932 17.2494 13.2932C13.5786 13.2932 10.6028 10.3174 10.6028 6.64662C10.6028 2.97579 13.5786 0 17.2494 0C20.9203 0 23.8961 2.97579 23.8961 6.64662ZM17.2494 10.4684C19.3602 10.4684 21.0712 8.75734 21.0712 6.64662C21.0712 6.10908 20.9603 5.59745 20.76 5.13341L15.7362 10.1572C16.2003 10.3574 16.7119 10.4684 17.2494 10.4684ZM18.7625 3.13601L13.7388 8.15967C13.5386 7.69567 13.4276 7.1841 13.4276 6.64662C13.4276 4.53589 15.1387 2.82481 17.2494 2.82481C17.7869 2.82481 18.2985 2.93576 18.7625 3.13601Z" fill="currentColor"/>
<path d="M4.95922 1.52403C4.56957 1.35553 4.15848 1.33543 3.75923 1.43615L3.7136 1.44766L2.5579 1.88301C1.57159 2.25456 0.850665 3.01434 0.36547 4.04012L0.360469 4.0511C-0.0766107 5.01099 -0.0933544 6.13505 0.188714 7.35014C0.464028 8.53613 0.93123 9.75336 1.58016 11.0006C2.22282 12.2358 2.97143 13.4378 3.82508 14.6068C4.67381 15.769 5.51072 16.7696 6.33676 17.6031C7.16284 18.4367 8.15458 19.2812 9.30666 20.1378C10.4654 20.9993 11.6571 21.755 12.8818 22.4038C14.1186 23.059 15.3263 23.531 16.5036 23.8092C17.7108 24.0946 18.8301 24.0782 19.7863 23.6349L19.7973 23.6296C20.8174 23.1383 21.5688 22.4102 21.9353 21.4195L22.3665 20.2543L22.3776 20.2093C22.4764 19.8107 22.4567 19.4009 22.2914 19.0117C22.1118 18.5888 21.7696 18.284 21.408 18.0602C21.0893 17.8335 20.3045 17.322 19.0835 16.5424C18.4137 16.1147 17.7808 15.7963 17.191 15.6147C16.603 15.4338 16.0067 15.3733 15.4476 15.53L15.4272 15.5364C14.6646 15.7715 13.9566 16.1424 13.5851 16.7779C13.5367 16.7859 13.4228 16.7915 13.2155 16.746C12.787 16.6477 12.1953 16.337 11.4277 15.7042C10.6226 15.0404 10.0559 14.5384 9.71068 14.19C9.38364 13.8601 8.89014 13.2968 8.22092 12.4825C7.5843 11.7079 7.28978 11.1185 7.20947 10.6998L7.20525 10.6804C7.15743 10.4598 7.16469 10.3402 7.17384 10.2905C7.81204 9.91092 8.16537 9.1901 8.37748 8.42416C8.70332 7.32906 8.21198 6.0506 7.39113 4.75771C6.59054 3.49673 6.0982 2.72172 5.91464 2.43356C5.69312 2.06427 5.38822 1.70954 4.95922 1.52403Z" fill="currentColor"/>
</g>
<defs>
<clipPath id="clip0_865_1548">
<rect width="24" height="24" fill="currentColor"/>
</clipPath>
</defs>
</svg>
