<svg width="24" height="24" viewBox="0 0 24 24" fill="none" xmlns="http://www.w3.org/2000/svg">
<g clip-path="url(#clip0_865_748)">
<path fill-rule="evenodd" clip-rule="evenodd" d="M23.3466 9.28566C22.8415 9.06917 20.6763 9.30972 20.0749 8.76445C19.6499 8.37153 19.6231 7.66012 19.4575 6.71166C19.1801 5.12282 19.0646 4.76311 18.7759 4.13765C17.7254 1.90845 15.2084 0 12.9222 0H7.62187C3.45214 0 0.0441895 3.41597 0.0441895 7.5857V16.4303C0.0441895 20.592 3.45214 24 7.62187 24H16.3302C20.4999 24 23.8838 20.592 23.9079 16.4303L23.956 10.304C23.956 10.304 23.956 9.54688 23.3466 9.28566ZM7.50009 6H11.5001C12.3285 6 13.0001 6.67157 13.0001 7.5C13.0001 8.32843 12.3285 9 11.5001 9H7.50009C6.67166 9 6.00009 8.32843 6.00009 7.5C6.00009 6.67158 6.67166 6 7.50009 6ZM16.5001 18H7.50009C6.67166 18 6.00009 17.3284 6.00009 16.5C6.00009 15.6716 6.67166 15 7.50009 15H16.5001C17.3285 15 18.0001 15.6716 18.0001 16.5C18.0001 17.3284 17.3285 18 16.5001 18Z" fill="#FF6600"/>
</g>
<defs>
<clipPath id="clip0_865_748">
<rect width="24" height="24" fill="white"/>
</clipPath>
</defs>
</svg>
