<svg width="24" height="24" viewBox="0 0 24 24"  xmlns="http://www.w3.org/2000/svg">
<path d="M11.0222 1.13095C11.5486 0.893206 12.1662 0.984225 12.6014 1.36298L18.4959 6.49625C18.8324 6.78927 19.0178 7.21852 18.9986 7.66308C18.9794 8.10767 18.7577 8.51995 18.3971 8.78311L13.9887 12L18.3971 15.2169C18.7577 15.48 18.9794 15.8923 18.9986 16.3369C19.0178 16.7815 18.8324 17.2107 18.4959 17.5038L12.6014 22.637C12.1662 23.0158 11.5486 23.1068 11.0222 22.869C10.4957 22.6312 10.1578 22.1086 10.1578 21.5332V14.7958L7.34481 16.8497C6.68852 17.3284 5.76618 17.1867 5.28498 16.5336C4.80401 15.8805 4.94635 14.9625 5.60254 14.4836L9.00457 12L5.60254 9.51644C4.94635 9.03752 4.80401 8.11955 5.28498 7.46638C5.76618 6.81331 6.68852 6.67164 7.34481 7.15032L10.1578 9.20325V2.46679C10.1578 1.89136 10.4957 1.36878 11.0222 1.13095ZM13.105 18.3011L15.1716 16.5002L13.105 14.9915V18.3011ZM13.105 9.0075L15.1716 7.49884L13.105 5.698V9.0075Z" fill="currentColor"/>
</svg>
