<svg width="24" height="24" viewBox="0 0 24 24"  xmlns="http://www.w3.org/2000/svg">
<path d="M11.2633 1.06715C11.5401 0.947765 11.8647 0.992891 12.0935 1.18324L18.7341 6.70962C18.9109 6.85683 19.0075 7.07258 18.9974 7.29584C18.9873 7.51915 18.8711 7.72585 18.6816 7.85807L12.7411 12.0009L18.6816 16.1438C18.8711 16.276 18.9872 16.4827 18.9974 16.706C19.0075 16.9292 18.9108 17.145 18.7341 17.2922L12.0935 22.8186C11.8648 23.0089 11.54 23.0549 11.2633 22.9357C10.9864 22.8162 10.8083 22.5532 10.8083 22.2641V13.3489L6.23059 16.5429C5.88571 16.7833 5.40125 16.7124 5.1482 16.3846C4.89517 16.0564 4.96961 15.5948 5.31464 15.3542L10.1214 12.0009L5.31464 8.64769C4.96962 8.40704 4.89521 7.94637 5.1482 7.61821C5.40122 7.29004 5.88556 7.21924 6.23059 7.4599L10.8083 10.652V1.7378C10.8083 1.44868 10.9864 1.18662 11.2633 1.06715ZM12.3578 20.6397L16.9849 16.7876L12.3578 13.56V20.6397ZM12.3578 10.4418L16.9859 7.21332L12.3578 3.36117V10.4418Z" fill="currentColor"/>
</svg>
