<svg width="24" height="24" viewBox="0 0 24 24"  xmlns="http://www.w3.org/2000/svg">
<g clip-path="url(#clip0_865_5709)">
<path d="M1.29251 0.221759C0.996829 -0.0739197 0.517439 -0.0739197 0.221759 0.221759C-0.0739197 0.517439 -0.0739197 0.996829 0.221759 1.29251L22.7075 23.7782C23.0032 24.0739 23.4826 24.0739 23.7782 23.7782C24.0739 23.4826 24.0739 23.0032 23.7782 22.7075L20.1022 19.0315C20.1042 19.0037 20.1053 18.9756 20.1053 18.9474C20.1053 18.3105 19.5842 17.7895 18.9474 17.7895C18.9191 17.7895 18.8911 17.7905 18.8633 17.7925L15.9572 14.8864C16.019 14.7078 16.0526 14.5158 16.0526 14.3158C16.0526 13.3547 15.2768 12.5789 14.3158 12.5789C14.1158 12.5789 13.9238 12.6125 13.7452 12.6744L11.3256 10.2548C11.3875 10.0762 11.4211 9.88421 11.4211 9.68421C11.4211 8.72316 10.6453 7.94737 9.68421 7.94737C9.48421 7.94737 9.29223 7.98097 9.11359 8.04284L6.20748 5.13673C6.2095 5.10895 6.21053 5.0809 6.21053 5.05263C6.21053 4.41579 5.68947 3.89474 5.05263 3.89474C5.02436 3.89474 4.99631 3.89576 4.96853 3.89778L1.29251 0.221759ZM14.3158 2.15789C14.64 2.15789 14.8947 1.90316 14.8947 1.57895C14.8947 1.25474 14.64 1 14.3158 1C13.9916 1 13.7368 1.25474 13.7368 1.57895C13.7368 1.90316 13.9916 2.15789 14.3158 2.15789ZM3.89474 9.68421C3.89474 9.22159 4.16969 8.82007 4.56426 8.63501L6.10183 10.1726C5.91677 10.5671 5.51525 10.8421 5.05263 10.8421C4.41579 10.8421 3.89474 10.3211 3.89474 9.68421ZM7.94737 14.3158C7.94737 13.6912 8.275 13.1449 8.76818 12.8389L11.1611 15.2318C10.8551 15.725 10.3088 16.0526 9.68421 16.0526C8.72316 16.0526 7.94737 15.2768 7.94737 14.3158ZM13.8274 17.8982C13.4329 18.0832 13.1579 18.4847 13.1579 18.9474C13.1579 19.5842 13.6789 20.1053 14.3158 20.1053C14.7784 20.1053 15.1799 19.8303 15.365 19.4357L13.8274 17.8982ZM3.89474 14.3158C3.89474 13.6789 4.41579 13.1579 5.05263 13.1579C5.68947 13.1579 6.21053 13.6789 6.21053 14.3158C6.21053 14.9526 5.68947 15.4737 5.05263 15.4737C4.41579 15.4737 3.89474 14.9526 3.89474 14.3158ZM5.05263 17.7895C4.41579 17.7895 3.89474 18.3105 3.89474 18.9474C3.89474 19.5842 4.41579 20.1053 5.05263 20.1053C5.68947 20.1053 6.21053 19.5842 6.21053 18.9474C6.21053 18.3105 5.68947 17.7895 5.05263 17.7895ZM1 9.68421C1 9.36 1.25474 9.10526 1.57895 9.10526C1.90316 9.10526 2.15789 9.36 2.15789 9.68421C2.15789 10.0084 1.90316 10.2632 1.57895 10.2632C1.25474 10.2632 1 10.0084 1 9.68421ZM22.4211 10.2632C22.7453 10.2632 23 10.0084 23 9.68421C23 9.36 22.7453 9.10526 22.4211 9.10526C22.0968 9.10526 21.8421 9.36 21.8421 9.68421C21.8421 10.0084 22.0968 10.2632 22.4211 10.2632ZM15.4737 5.05263C15.4737 5.68947 14.9526 6.21053 14.3158 6.21053C13.6789 6.21053 13.1579 5.68947 13.1579 5.05263C13.1579 4.41579 13.6789 3.89474 14.3158 3.89474C14.9526 3.89474 15.4737 4.41579 15.4737 5.05263ZM1 14.3158C1 13.9916 1.25474 13.7368 1.57895 13.7368C1.90316 13.7368 2.15789 13.9916 2.15789 14.3158C2.15789 14.64 1.90316 14.8947 1.57895 14.8947C1.25474 14.8947 1 14.64 1 14.3158ZM9.68421 21.8421C9.36 21.8421 9.10526 22.0968 9.10526 22.4211C9.10526 22.7453 9.36 23 9.68421 23C10.0084 23 10.2632 22.7453 10.2632 22.4211C10.2632 22.0968 10.0084 21.8421 9.68421 21.8421ZM10.2632 1.57895C10.2632 1.90316 10.0084 2.15789 9.68421 2.15789C9.36 2.15789 9.10526 1.90316 9.10526 1.57895C9.10526 1.25474 9.36 1 9.68421 1C10.0084 1 10.2632 1.25474 10.2632 1.57895ZM9.68421 6.21053C10.3211 6.21053 10.8421 5.68947 10.8421 5.05263C10.8421 4.41579 10.3211 3.89474 9.68421 3.89474C9.04737 3.89474 8.52632 4.41579 8.52632 5.05263C8.52632 5.68947 9.04737 6.21053 9.68421 6.21053ZM17.7895 14.3158C17.7895 13.6789 18.3105 13.1579 18.9474 13.1579C19.5842 13.1579 20.1053 13.6789 20.1053 14.3158C20.1053 14.9526 19.5842 15.4737 18.9474 15.4737C18.3105 15.4737 17.7895 14.9526 17.7895 14.3158ZM18.9474 8.52632C18.3105 8.52632 17.7895 9.04737 17.7895 9.68421C17.7895 10.3211 18.3105 10.8421 18.9474 10.8421C19.5842 10.8421 20.1053 10.3211 20.1053 9.68421C20.1053 9.04737 19.5842 8.52632 18.9474 8.52632ZM17.7895 5.05263C17.7895 4.41579 18.3105 3.89474 18.9474 3.89474C19.5842 3.89474 20.1053 4.41579 20.1053 5.05263C20.1053 5.68947 19.5842 6.21053 18.9474 6.21053C18.3105 6.21053 17.7895 5.68947 17.7895 5.05263ZM22.4211 13.7368C22.0968 13.7368 21.8421 13.9916 21.8421 14.3158C21.8421 14.64 22.0968 14.8947 22.4211 14.8947C22.7453 14.8947 23 14.64 23 14.3158C23 13.9916 22.7453 13.7368 22.4211 13.7368ZM13.7368 22.4211C13.7368 22.0968 13.9916 21.8421 14.3158 21.8421C14.64 21.8421 14.8947 22.0968 14.8947 22.4211C14.8947 22.7453 14.64 23 14.3158 23C13.9916 23 13.7368 22.7453 13.7368 22.4211ZM9.68421 17.7895C9.04737 17.7895 8.52632 18.3105 8.52632 18.9474C8.52632 19.5842 9.04737 20.1053 9.68421 20.1053C10.3211 20.1053 10.8421 19.5842 10.8421 18.9474C10.8421 18.3105 10.3211 17.7895 9.68421 17.7895ZM12.5789 9.68421C12.5789 8.72316 13.3547 7.94737 14.3158 7.94737C15.2768 7.94737 16.0526 8.72316 16.0526 9.68421C16.0526 10.6453 15.2768 11.4211 14.3158 11.4211C13.3547 11.4211 12.5789 10.6453 12.5789 9.68421Z" fill="currentColor"/>
</g>
<defs>
<clipPath id="clip0_865_5709">
<rect width="24" height="24" fill="currentColor"/>
</clipPath>
</defs>
</svg>
