<svg width="24" height="24" viewBox="0 0 24 24"  xmlns="http://www.w3.org/2000/svg">
<path d="M5.05263 13.1579C4.41579 13.1579 3.89474 13.6789 3.89474 14.3158C3.89474 14.9526 4.41579 15.4737 5.05263 15.4737C5.68947 15.4737 6.21053 14.9526 6.21053 14.3158C6.21053 13.6789 5.68947 13.1579 5.05263 13.1579ZM5.05263 17.7895C4.41579 17.7895 3.89474 18.3105 3.89474 18.9474C3.89474 19.5842 4.41579 20.1053 5.05263 20.1053C5.68947 20.1053 6.21053 19.5842 6.21053 18.9474C6.21053 18.3105 5.68947 17.7895 5.05263 17.7895ZM5.05263 8.52632C4.41579 8.52632 3.89474 9.04737 3.89474 9.68421C3.89474 10.3211 4.41579 10.8421 5.05263 10.8421C5.68947 10.8421 6.21053 10.3211 6.21053 9.68421C6.21053 9.04737 5.68947 8.52632 5.05263 8.52632ZM1.57895 9.10526C1.25474 9.10526 1 9.36 1 9.68421C1 10.0084 1.25474 10.2632 1.57895 10.2632C1.90316 10.2632 2.15789 10.0084 2.15789 9.68421C2.15789 9.36 1.90316 9.10526 1.57895 9.10526ZM5.05263 3.89474C4.41579 3.89474 3.89474 4.41579 3.89474 5.05263C3.89474 5.68947 4.41579 6.21053 5.05263 6.21053C5.68947 6.21053 6.21053 5.68947 6.21053 5.05263C6.21053 4.41579 5.68947 3.89474 5.05263 3.89474ZM22.4211 10.2632C22.7453 10.2632 23 10.0084 23 9.68421C23 9.36 22.7453 9.10526 22.4211 9.10526C22.0968 9.10526 21.8421 9.36 21.8421 9.68421C21.8421 10.0084 22.0968 10.2632 22.4211 10.2632ZM14.3158 6.21053C14.9526 6.21053 15.4737 5.68947 15.4737 5.05263C15.4737 4.41579 14.9526 3.89474 14.3158 3.89474C13.6789 3.89474 13.1579 4.41579 13.1579 5.05263C13.1579 5.68947 13.6789 6.21053 14.3158 6.21053ZM14.3158 2.15789C14.64 2.15789 14.8947 1.90316 14.8947 1.57895C14.8947 1.25474 14.64 1 14.3158 1C13.9916 1 13.7368 1.25474 13.7368 1.57895C13.7368 1.90316 13.9916 2.15789 14.3158 2.15789ZM1.57895 13.7368C1.25474 13.7368 1 13.9916 1 14.3158C1 14.64 1.25474 14.8947 1.57895 14.8947C1.90316 14.8947 2.15789 14.64 2.15789 14.3158C2.15789 13.9916 1.90316 13.7368 1.57895 13.7368ZM9.68421 21.8421C9.36 21.8421 9.10526 22.0968 9.10526 22.4211C9.10526 22.7453 9.36 23 9.68421 23C10.0084 23 10.2632 22.7453 10.2632 22.4211C10.2632 22.0968 10.0084 21.8421 9.68421 21.8421ZM9.68421 2.15789C10.0084 2.15789 10.2632 1.90316 10.2632 1.57895C10.2632 1.25474 10.0084 1 9.68421 1C9.36 1 9.10526 1.25474 9.10526 1.57895C9.10526 1.90316 9.36 2.15789 9.68421 2.15789ZM9.68421 6.21053C10.3211 6.21053 10.8421 5.68947 10.8421 5.05263C10.8421 4.41579 10.3211 3.89474 9.68421 3.89474C9.04737 3.89474 8.52632 4.41579 8.52632 5.05263C8.52632 5.68947 9.04737 6.21053 9.68421 6.21053ZM9.68421 12.5789C8.72316 12.5789 7.94737 13.3547 7.94737 14.3158C7.94737 15.2768 8.72316 16.0526 9.68421 16.0526C10.6453 16.0526 11.4211 15.2768 11.4211 14.3158C11.4211 13.3547 10.6453 12.5789 9.68421 12.5789ZM18.9474 13.1579C18.3105 13.1579 17.7895 13.6789 17.7895 14.3158C17.7895 14.9526 18.3105 15.4737 18.9474 15.4737C19.5842 15.4737 20.1053 14.9526 20.1053 14.3158C20.1053 13.6789 19.5842 13.1579 18.9474 13.1579ZM18.9474 17.7895C18.3105 17.7895 17.7895 18.3105 17.7895 18.9474C17.7895 19.5842 18.3105 20.1053 18.9474 20.1053C19.5842 20.1053 20.1053 19.5842 20.1053 18.9474C20.1053 18.3105 19.5842 17.7895 18.9474 17.7895ZM18.9474 8.52632C18.3105 8.52632 17.7895 9.04737 17.7895 9.68421C17.7895 10.3211 18.3105 10.8421 18.9474 10.8421C19.5842 10.8421 20.1053 10.3211 20.1053 9.68421C20.1053 9.04737 19.5842 8.52632 18.9474 8.52632ZM18.9474 3.89474C18.3105 3.89474 17.7895 4.41579 17.7895 5.05263C17.7895 5.68947 18.3105 6.21053 18.9474 6.21053C19.5842 6.21053 20.1053 5.68947 20.1053 5.05263C20.1053 4.41579 19.5842 3.89474 18.9474 3.89474ZM22.4211 13.7368C22.0968 13.7368 21.8421 13.9916 21.8421 14.3158C21.8421 14.64 22.0968 14.8947 22.4211 14.8947C22.7453 14.8947 23 14.64 23 14.3158C23 13.9916 22.7453 13.7368 22.4211 13.7368ZM14.3158 17.7895C13.6789 17.7895 13.1579 18.3105 13.1579 18.9474C13.1579 19.5842 13.6789 20.1053 14.3158 20.1053C14.9526 20.1053 15.4737 19.5842 15.4737 18.9474C15.4737 18.3105 14.9526 17.7895 14.3158 17.7895ZM14.3158 21.8421C13.9916 21.8421 13.7368 22.0968 13.7368 22.4211C13.7368 22.7453 13.9916 23 14.3158 23C14.64 23 14.8947 22.7453 14.8947 22.4211C14.8947 22.0968 14.64 21.8421 14.3158 21.8421ZM9.68421 7.94737C8.72316 7.94737 7.94737 8.72316 7.94737 9.68421C7.94737 10.6453 8.72316 11.4211 9.68421 11.4211C10.6453 11.4211 11.4211 10.6453 11.4211 9.68421C11.4211 8.72316 10.6453 7.94737 9.68421 7.94737ZM9.68421 17.7895C9.04737 17.7895 8.52632 18.3105 8.52632 18.9474C8.52632 19.5842 9.04737 20.1053 9.68421 20.1053C10.3211 20.1053 10.8421 19.5842 10.8421 18.9474C10.8421 18.3105 10.3211 17.7895 9.68421 17.7895ZM14.3158 12.5789C13.3547 12.5789 12.5789 13.3547 12.5789 14.3158C12.5789 15.2768 13.3547 16.0526 14.3158 16.0526C15.2768 16.0526 16.0526 15.2768 16.0526 14.3158C16.0526 13.3547 15.2768 12.5789 14.3158 12.5789ZM14.3158 7.94737C13.3547 7.94737 12.5789 8.72316 12.5789 9.68421C12.5789 10.6453 13.3547 11.4211 14.3158 11.4211C15.2768 11.4211 16.0526 10.6453 16.0526 9.68421C16.0526 8.72316 15.2768 7.94737 14.3158 7.94737Z" fill="currentColor"/>
</svg>
