<svg width="24" height="24" viewBox="0 0 24 24"  xmlns="http://www.w3.org/2000/svg">
<path fill-rule="evenodd" clip-rule="evenodd" d="M2 1.75C2 1.33579 2.33579 1 2.75 1H14.25C17.3493 1 20 3.27813 20 6.25C20 8.20501 18.8529 9.8598 17.1856 10.7633C19.9375 11.5286 21.9961 13.8812 21.9961 16.75C21.9961 20.2619 18.9113 23 15.2461 23H2.75C2.33579 23 2 22.6642 2 22.25C2 21.8358 2.33579 21.5 2.75 21.5H4.25V11.25C4.25 11.2074 4.25355 11.1656 4.26038 11.125C4.25355 11.0843 4.25 11.0425 4.25 10.9999V2.5H2.75C2.33579 2.5 2 2.16421 2 1.75ZM14.25 10H5.75V2.5H14.25C16.6735 2.5 18.5 4.2513 18.5 6.25C18.5 8.24869 16.6735 10 14.25 10ZM15.2461 21.5H5.75V12H15.2461C18.2084 12 20.4961 14.1867 20.4961 16.75C20.4961 19.3133 18.2084 21.5 15.2461 21.5Z" fill="currentColor"/>
</svg>
