<svg width="24" height="24" viewBox="0 0 24 24"  xmlns="http://www.w3.org/2000/svg">
<path d="M2.5 24C2.22386 24 2 23.7761 2 23.5V21.783C2 21.5637 2.14286 21.37 2.35234 21.3053L3.44477 20.9676C3.9075 20.8245 4.22222 20.4033 4.22222 19.927V4.09655C4.22222 3.60903 3.89277 3.18069 3.41517 3.04728L2.36548 2.75406C2.14942 2.69371 2 2.49683 2 2.2725V0.499999C2 0.223857 2.22386 0 2.5 0H13.233C19.0063 0 20.627 2.58584 20.627 5.86672C20.627 9.0167 18.5678 10.7739 16.5087 11.4365V11.5351C20.3575 11.9669 22 14.1399 22 17.4545C22 22.3604 18.2297 24 12.9292 24H2.5ZM11.0721 10.0775C13.5024 10.0775 15.6633 9.51336 15.6633 6.69539C15.6633 3.97729 13.9079 3.61289 11.578 3.61289H9.77778V10.0775H11.0721ZM12.0509 20.4195C14.8866 20.4195 16.7437 19.7569 16.7437 16.8728C16.7437 14.1209 14.8537 13.3921 12.5581 13.3921H9.77778V20.4195H12.0509Z" fill="currentColor"/>
</svg>
