<svg width="24" height="24" viewBox="0 0 24 24"  xmlns="http://www.w3.org/2000/svg">
<path fill-rule="evenodd" clip-rule="evenodd" d="M18.0004 1.65022L21.7504 13.0502L13.3504 15.9002L9.45037 4.50022C9.01836 3.20422 9.96877 2.73766 10.3109 2.5697C10.3252 2.5627 10.3384 2.55622 10.3504 2.55022L16.0504 0.750219C16.9504 0.450219 17.7004 0.900219 18.0004 1.65022ZM17.5504 9.75022L15.6004 4.05022L12.7504 4.95022L14.7004 10.6502L17.5504 9.75022ZM9 3V15H0V3C0 2.1 0.6 1.5 1.5 1.5H7.5C8.4 1.5 9 2.1 9 3ZM6 4.5H3V10.5H6V4.5Z" fill="currentColor"/>
<path d="M0 21V18H9V21C9 21.9 8.4 22.5 7.5 22.5H1.5C0.6 22.5 0 21.9 0 21ZM22.8 15.9009L14.25 18.7509L15.15 21.6009C15.3 22.2009 15.9 22.8009 17.1 22.5009L22.8 20.5509C23.55 20.2509 24 19.5009 23.7 18.6009L22.8 15.9009Z" fill="currentColor"/>
</svg>
