<svg width="24" height="24" viewBox="0 0 24 24"  xmlns="http://www.w3.org/2000/svg">
<path fill-rule="evenodd" clip-rule="evenodd" d="M0.75 1.5H8.25C8.7 1.5 9 1.8 9 2.25V21.75C9 22.2 8.7 22.5 8.25 22.5H0.75C0.3 22.5 0 22.2 0 21.75V2.25C0 1.8 0.3 1.5 0.75 1.5ZM1.5 21H7.5V18H1.5V21ZM1.5 16.5H7.5V3H1.5V16.5ZM10.5461 3.07236L17.7056 1.03519C18.1352 0.912963 18.5037 1.11565 18.6269 1.54192L23.9645 20.0135C24.0877 20.4397 23.8835 20.8054 23.4539 20.9276L16.2944 22.9648C15.8648 23.087 15.4963 22.8843 15.3731 22.4581L10.0355 3.98652C9.91229 3.56025 10.1165 3.19459 10.5461 3.07236ZM16.5997 21.3402L22.3273 19.7105L21.5062 16.8687L15.7786 18.4984L16.5997 21.3402ZM15.368 17.0775L21.0956 15.4478L17.4003 2.6598L11.6727 4.28953L15.368 17.0775Z" fill="currentColor"/>
</svg>
