<svg width="24" height="24" viewBox="0 0 24 24"  xmlns="http://www.w3.org/2000/svg">
<path d="M6 0C4.95 0 4.05 0.4479 3.3 1.0451C2.7 1.7916 2.25 2.6874 2.25 3.7325V23.1415C2.25 23.4401 2.4 23.5894 2.55 23.7387C2.7 23.888 3 23.888 3.3 23.7387L12 19.5583L20.7 23.888C21 24.0373 21.15 24.0373 21.45 23.888C21.75 23.7387 21.75 23.4401 21.75 23.2908V3.8818C21.75 2.8367 21.3 1.9409 20.7 1.1944C19.95 0.4479 19.05 0 18 0H6ZM4.35 2.0902C4.8 1.7916 5.4 1.493 6 1.493H18C18.6 1.493 19.2 1.7916 19.65 2.0902C20.1 2.5381 20.25 3.1353 20.25 3.7325V21.9471L12.3 18.0653C12.15 17.916 11.85 17.916 11.7 18.0653L3.75 21.9471V3.7325C3.75 3.1353 4.05 2.5381 4.35 2.0902Z" fill="currentColor"/>
</svg>
