<svg width="24" height="24" viewBox="0 0 24 24"  xmlns="http://www.w3.org/2000/svg">
<g clip-path="url(#clip0_865_5071)">
<path fill-rule="evenodd" clip-rule="evenodd" d="M17.5 4.79198C18.383 4.4062 19 3.52516 19 2.5C19 1.11929 17.8807 0 16.5 0C15.1193 0 14 1.11929 14 2.5C14 3.52516 14.617 4.4062 15.5 4.79198V6.19287H8.5V4.79198C9.38295 4.4062 10 3.52516 10 2.5C10 1.11929 8.88071 0 7.5 0C6.11929 0 5 1.11929 5 2.5C5 3.52516 5.61705 4.4062 6.5 4.79198V6.19287H3.87106C3.35792 6.19349 2.86597 6.3976 2.50313 6.76045C2.14028 7.1233 1.93616 7.61524 1.93555 8.12839V12H1C0.447715 12 0 12.4477 0 13V16C0 16.5523 0.447715 17 1 17H1.93555V22.0641C1.93616 22.5772 2.14028 23.0692 2.50313 23.432C2.86597 23.7949 3.35792 23.999 3.87106 23.9996H20.1294C20.6425 23.999 21.1345 23.7949 21.4973 23.432C21.8602 23.0692 22.0643 22.5772 22.0649 22.0641V17H23C23.5523 17 24 16.5523 24 16V13C24 12.4477 23.5523 12 23 12H22.0649V8.12839C22.0643 7.61524 21.8602 7.1233 21.4973 6.76045C21.1345 6.3976 20.6425 6.19349 20.1294 6.19287H17.5V4.79198ZM8.43031 10.3901C8.11201 10.1774 7.7378 10.0639 7.35499 10.0639C6.84166 10.0639 6.34935 10.2678 5.98637 10.6308C5.62339 10.9938 5.41948 11.4861 5.41948 11.9994C5.41948 12.3822 5.53299 12.7564 5.74567 13.0747C5.95835 13.393 6.26063 13.6411 6.6143 13.7876C6.96797 13.9341 7.35714 13.9724 7.73259 13.8977C8.10804 13.8231 8.45292 13.6387 8.72361 13.368C8.99429 13.0973 9.17863 12.7525 9.25332 12.377C9.328 12.0016 9.28967 11.6124 9.14317 11.2587C8.99668 10.9051 8.7486 10.6028 8.43031 10.3901ZM15.5702 13.6087C15.8884 13.8214 16.2627 13.9349 16.6455 13.9349C17.1588 13.9349 17.6511 13.731 18.0141 13.368C18.3771 13.0051 18.581 12.5127 18.581 11.9994C18.581 11.6166 18.4675 11.2424 18.2548 10.9241C18.0421 10.6058 17.7398 10.3577 17.3862 10.2112C17.0325 10.0647 16.6433 10.0264 16.2679 10.1011C15.8924 10.1758 15.5475 10.3601 15.2768 10.6308C15.0062 10.9015 14.8218 11.2464 14.7471 11.6218C14.6725 11.9973 14.7108 12.3864 14.8573 12.7401C15.0038 13.0938 15.2519 13.3961 15.5702 13.6087ZM19 17.5455V17H5V17.5455C5 17.7142 5.06903 17.886 5.14818 18.0317C5.23267 18.1872 5.3523 18.3555 5.50151 18.5282C5.80018 18.8738 6.23786 19.2606 6.81303 19.6236C7.96859 20.353 9.70342 21 12 21C14.2966 21 16.0314 20.353 17.187 19.6236C17.7621 19.2606 18.1998 18.8738 18.4985 18.5282C18.6477 18.3555 18.7673 18.1872 18.8518 18.0317C18.931 17.886 19 17.7142 19 17.5455Z" fill="currentColor"/>
</g>
<defs>
<clipPath id="clip0_865_5071">
<rect width="24" height="24" fill="currentColor"/>
</clipPath>
</defs>
</svg>
