<svg width="24" height="24" viewBox="0 0 24 24"  xmlns="http://www.w3.org/2000/svg">
<g clip-path="url(#clip0_865_5065)">
<path fill-rule="evenodd" clip-rule="evenodd" d="M6.75 0C5.50736 0 4.5 1.00736 4.5 2.25C4.5 3.22966 5.12611 4.06309 6 4.37197V6H4.25C3.00736 6 2 7.00736 2 8.25V21.75C2 22.9926 3.00736 24 4.25 24H19.778C21.0207 24 22.028 22.9926 22.028 21.75V8.25C22.028 7.00736 21.0207 6 19.778 6H18V4.37197C18.8739 4.06309 19.5 3.22966 19.5 2.25C19.5 1.00736 18.4926 0 17.25 0C16.0074 0 15 1.00736 15 2.25C15 3.22966 15.6261 4.06309 16.5 4.37197V6H7.5V4.37197C8.37389 4.06309 9 3.22966 9 2.25C9 1.00736 7.99264 0 6.75 0ZM6 2.25C6 1.83579 6.33579 1.5 6.75 1.5C7.16421 1.5 7.5 1.83579 7.5 2.25C7.5 2.66421 7.16421 3 6.75 3C6.33579 3 6 2.66421 6 2.25ZM4.25 7.5C3.83579 7.5 3.5 7.83579 3.5 8.25V21.75C3.5 22.1642 3.83579 22.5 4.25 22.5H19.778C20.1922 22.5 20.528 22.1642 20.528 21.75V8.25C20.528 7.83579 20.1922 7.5 19.778 7.5H4.25ZM17.25 1.5C16.8358 1.5 16.5 1.83579 16.5 2.25C16.5 2.66421 16.8358 3 17.25 3C17.6642 3 18 2.66421 18 2.25C18 1.83579 17.6642 1.5 17.25 1.5ZM23 12C23.5523 12 24 12.4477 24 13V16C24 16.5523 23.5523 17 23 17H22.5V12H23ZM1 12C0.447715 12 0 12.4477 0 13V16C0 16.5523 0.447715 17 1 17H1.5V12H1ZM7.5 10.875C6.87868 10.875 6.375 11.3787 6.375 12C6.375 12.6213 6.87868 13.125 7.5 13.125C8.12132 13.125 8.625 12.6213 8.625 12C8.625 11.3787 8.12132 10.875 7.5 10.875ZM4.875 12C4.875 10.5503 6.05025 9.375 7.5 9.375C8.94975 9.375 10.125 10.5503 10.125 12C10.125 13.4497 8.94975 14.625 7.5 14.625C6.05025 14.625 4.875 13.4497 4.875 12ZM16.5 10.875C15.8787 10.875 15.375 11.3787 15.375 12C15.375 12.6213 15.8787 13.125 16.5 13.125C17.1213 13.125 17.625 12.6213 17.625 12C17.625 11.3787 17.1213 10.875 16.5 10.875ZM13.875 12C13.875 10.5503 15.0503 9.375 16.5 9.375C17.9497 9.375 19.125 10.5503 19.125 12C19.125 13.4497 17.9497 14.625 16.5 14.625C15.0503 14.625 13.875 13.4497 13.875 12ZM5 16.5H19V17.1818C19 17.3928 18.931 17.6075 18.8518 17.7896C18.7673 17.984 18.6477 18.1944 18.4985 18.4102C18.1998 18.8422 17.7621 19.3257 17.187 19.7795C16.0314 20.6912 14.2966 21.5 12 21.5C9.70342 21.5 7.96859 20.6912 6.81303 19.7795C6.23786 19.3257 5.80018 18.8422 5.50151 18.4102C5.3523 18.1944 5.23267 17.984 5.14818 17.7896C5.06903 17.6075 5 17.3928 5 17.1818V16.5ZM6.94899 17.8636C7.16584 18.145 7.4671 18.461 7.85364 18.7659C8.77215 19.4906 10.1484 20.1364 12 20.1364C13.8516 20.1364 15.2278 19.4906 16.1464 18.7659C16.5329 18.461 16.8342 18.145 17.051 17.8636H6.94899Z" fill="currentColor"/>
</g>
<defs>
<clipPath id="clip0_865_5065">
<rect width="24" height="24" fill="currentColor"/>
</clipPath>
</defs>
</svg>
