<svg width="24" height="24" viewBox="0 0 24 24"  xmlns="http://www.w3.org/2000/svg">
<g clip-path="url(#clip0_865_4267)">
<path d="M18.5 19C18.7761 19 19 18.7761 19 18.5V14.5C19 14.2239 18.7761 14 18.5 14H5.5C5.22386 14 5 14.2239 5 14.5V18.5C5 18.7761 5.22386 19 5.5 19H18.5Z" fill="currentColor"/>
<path fill-rule="evenodd" clip-rule="evenodd" d="M1.5 0H22.5C23.328 0 24 0.766285 24 1.71428V22.2857C24 23.232 23.328 24 22.5 24H1.5C0.672 24 0 23.232 0 22.2857V1.71428C0 0.766285 0.672 0 1.5 0ZM21 3.5C21 3.22386 20.7761 3 20.5 3H3.5C3.22386 3 3 3.22386 3 3.5V20.5C3 20.7761 3.22386 21 3.5 21H20.5C20.7761 21 21 20.7761 21 20.5V3.5Z" fill="currentColor"/>
</g>
<defs>
<clipPath id="clip0_865_4267">
<rect width="24" height="24" fill="currentColor"/>
</clipPath>
</defs>
</svg>
