<svg width="24" height="24" viewBox="0 0 24 24"  xmlns="http://www.w3.org/2000/svg">
<path d="M1.20209 6.24032C1.2152 6.22634 1.22884 6.21284 1.24299 6.19988C1.31014 6.13828 1.38582 6.09091 1.4661 6.05779C1.55612 6.02056 1.65494 6 1.75862 6H10.8621C11.281 6 11.6207 6.33579 11.6207 6.75C11.6207 7.16421 11.281 7.5 10.8621 7.5H3.59008L12.3793 16.1894L21.7049 6.96968C22.0012 6.67677 22.4816 6.67677 22.7779 6.96968C23.074 7.26257 23.074 7.73744 22.7779 8.03033L12.9157 17.7804C12.6195 18.0732 12.1391 18.0732 11.8429 17.7804L2.51724 8.56066V15.75C2.51724 16.1642 2.17759 16.5 1.75862 16.5C1.33965 16.5 1 16.1642 1 15.75V6.75011C1 6.55331 1.07667 6.37411 1.20209 6.24032Z" fill="currentColor"/>
</svg>
