<svg width="24" height="24" viewBox="0 0 24 24"  xmlns="http://www.w3.org/2000/svg">
<g clip-path="url(#clip0_865_5077)">
<path fill-rule="evenodd" clip-rule="evenodd" d="M9.45031 1.53225C9.75175 1.52667 10.0512 1.58193 10.3308 1.69473C10.6104 1.80752 10.8644 1.97554 11.0776 2.18872C11.2908 2.40191 11.4588 2.6559 11.5716 2.9355C11.6844 3.2151 11.7396 3.51457 11.7341 3.81601L11.7199 4.58181L13.2515 4.61015L13.2657 3.84435C13.2751 3.33701 13.1821 2.83298 12.9922 2.36239C12.8024 1.89181 12.5196 1.46434 12.1608 1.10553C11.802 0.746722 11.3745 0.463945 10.9039 0.274105C10.4369 0.0857 9.93693 -0.00732967 9.43347 0.000450667C8.64308 -0.0062629 7.87076 0.237566 7.2274 0.697105C6.73476 1.04899 6.33724 1.51343 6.06578 2.0484C5.39858 2.0778 4.74059 2.22183 4.12086 2.47492C3.40402 2.76768 2.75278 3.20049 2.20526 3.74801C1.65773 4.29554 1.22492 4.94678 0.932168 5.66362C0.640182 6.37857 0.49336 7.14445 0.50023 7.91666C0.494023 9.16584 0.886099 10.3768 1.60819 11.3788C1.36305 11.6234 1.15177 11.9016 0.98121 12.2062C0.667741 12.7659 0.502217 13.3964 0.50026 14.0379C0.494534 14.6545 0.64561 15.2625 0.939322 15.8047C1.13686 16.1694 1.39456 16.4963 1.70021 16.7723C1.58405 17.2121 1.52381 17.6656 1.52151 18.122C1.51409 18.8956 1.66091 19.6629 1.95341 20.3791C2.24617 21.096 2.67898 21.7472 3.2265 22.2947C3.77403 22.8423 4.42527 23.2751 5.14211 23.5678C5.8566 23.8596 6.62195 24.0064 7.39365 23.9998C8.16535 24.0064 8.9307 23.8596 9.64519 23.5678C10.362 23.2751 11.0133 22.8423 11.5608 22.2947C12.1083 21.7472 12.5411 21.096 12.8339 20.3791C13.1261 19.6635 13.273 18.8969 13.2658 18.1239V17.8723H15.2463L16.1746 18.8006C15.9479 19.2057 15.8187 19.6728 15.8187 20.1701C15.8187 21.7211 17.076 22.9785 18.6271 22.9785C20.1781 22.9785 21.4355 21.7211 21.4355 20.1701C21.4355 18.619 20.1781 17.3616 18.6271 17.3616C18.1299 17.3616 17.663 17.4908 17.2579 17.7174L15.8809 16.3404H11.7339V18.1276L11.734 18.1352C11.7396 18.7058 11.6315 19.2717 11.4157 19.8C11.2 20.3282 10.8811 20.8081 10.4776 21.2115C10.0741 21.615 9.59424 21.9339 9.06601 22.1497C8.53778 22.3654 7.97182 22.4736 7.40127 22.4679L7.39365 22.4678L7.38603 22.4679C6.81547 22.4736 6.24952 22.3654 5.72128 22.1497C5.19305 21.9339 4.71316 21.615 4.30969 21.2115C3.90623 20.8081 3.5873 20.3282 3.37157 19.8C3.15584 19.2717 3.04765 18.7058 3.05332 18.1352L3.05335 18.1312C3.05552 17.665 3.14213 17.2031 3.30899 16.7678L3.53273 16.1841L3.00573 15.8479C2.70421 15.6555 2.45662 15.3896 2.28628 15.0751C2.11594 14.7607 2.02848 14.408 2.0321 14.0504L2.03211 14.0443C2.03297 13.6627 2.1313 13.2876 2.31777 12.9546C2.41365 12.7834 2.53119 12.6263 2.66694 12.4868C3.5335 13.1731 4.57279 13.6076 5.66975 13.7425C5.76932 14.2758 5.98428 14.7841 6.30301 15.2303C6.76478 15.8768 7.42038 16.3595 8.17483 16.6084L8.90219 16.8484L9.38221 15.3937L8.65485 15.1537C8.20935 15.0067 7.82222 14.7217 7.54954 14.3399C7.28693 13.9723 7.14361 13.5333 7.13824 13.0823L7.13916 12.9306C7.14782 12.6447 7.21319 12.3631 7.33178 12.1022C7.462 11.8157 7.65326 11.5612 7.89216 11.3563L8.47361 10.8577L7.47649 9.69484L6.89503 10.1934C6.4867 10.5435 6.1598 10.9787 5.93722 11.4683C5.83037 11.7034 5.7488 11.9483 5.69338 12.199C4.76997 12.0508 3.90963 11.6165 3.23863 10.9489C2.45819 10.1345 2.02542 9.04805 2.0322 7.91976L2.03208 7.90754C2.0264 7.33698 2.1346 6.77102 2.35033 6.24279C2.56605 5.71456 2.88499 5.23467 3.28845 4.8312C3.69192 4.42774 4.17181 4.10881 4.70004 3.89308C5.22827 3.67735 5.79423 3.56919 6.36479 3.57487H7.13047L7.30401 3.04895C7.45101 2.60344 7.73604 2.21631 8.11778 1.94364C8.49953 1.67096 8.95817 1.5269 9.42727 1.53233L9.43879 1.53246L9.45031 1.53225ZM17.6996 19.293L17.75 19.2425C17.9787 19.0262 18.2874 18.8935 18.6271 18.8935C19.3321 18.8935 19.9036 19.465 19.9036 20.1701C19.9036 20.8751 19.3321 21.4466 18.6271 21.4466C17.9221 21.4466 17.3505 20.8751 17.3505 20.1701C17.3505 19.8304 17.4832 19.5217 17.6996 19.293ZM17.9669 11.2342H11.7337V14.8085H13.2656V12.7661H17.9669C18.3003 13.9448 19.3841 14.8085 20.6696 14.8085C22.2206 14.8085 23.478 13.5512 23.478 12.0001C23.478 10.4491 22.2206 9.1917 20.6696 9.1917C19.3841 9.1917 18.3003 10.0554 17.9669 11.2342ZM19.393 11.9979V12.0023C19.3942 12.7063 19.9653 13.2767 20.6696 13.2767C21.3746 13.2767 21.9461 12.7051 21.9461 12.0001C21.9461 11.2951 21.3746 10.7236 20.6696 10.7236C19.9653 10.7236 19.3942 11.2939 19.393 11.9979ZM15.8187 3.83016C15.8187 4.32742 15.9479 4.79449 16.1746 5.19963L15.2461 6.12814H11.7337V9.7025H13.2656V7.66001H15.8806L17.2579 6.28277C17.6629 6.5094 18.1299 6.63859 18.6271 6.63859C20.1781 6.63859 21.4355 5.38121 21.4355 3.83016C21.4355 2.27912 20.1781 1.02174 18.6271 1.02174C17.076 1.02174 15.8187 2.27912 15.8187 3.83016ZM18.6271 5.10672C18.2823 5.10672 17.9695 4.97007 17.7398 4.74797L17.7093 4.71742C17.4872 4.48773 17.3505 4.17491 17.3505 3.83016C17.3505 3.12514 17.9221 2.55361 18.6271 2.55361C19.3321 2.55361 19.9036 3.12514 19.9036 3.83016C19.9036 4.53519 19.3321 5.10672 18.6271 5.10672Z" fill="currentColor"/>
</g>
<defs>
<clipPath id="clip0_865_5077">
<rect width="24" height="24" fill="currentColor"/>
</clipPath>
</defs>
</svg>
