<svg width="24" height="24" viewBox="0 0 24 24"  xmlns="http://www.w3.org/2000/svg">
<g clip-path="url(#clip0_865_5083)">
<path d="M18.4339 18.0908C18.6172 18.0334 18.8078 18.0028 18.9999 17.9998C19.419 17.9986 19.8277 18.1295 20.1682 18.3737C20.5088 18.618 20.7637 18.9633 20.8969 19.3606C21.0301 19.7579 21.0349 20.1871 20.9104 20.5872C20.786 20.9874 20.5387 21.3382 20.2036 21.5899C19.8686 21.8416 19.4628 21.9814 19.0438 21.9894C18.6248 21.9975 18.2139 21.8734 17.8694 21.6348C17.5249 21.3962 17.2643 21.0551 17.1246 20.66C16.9849 20.265 16.9731 19.8359 17.0909 19.4338C17.0144 19.3962 16.9431 19.3488 16.8789 19.2928L15.5859 17.9998H12.9999V18.4998C13.0024 19.2923 12.8336 20.076 12.5051 20.7973C12.1765 21.5185 11.696 22.1602 11.0964 22.6784C10.4967 23.1966 9.79221 23.5792 9.031 23.7998C8.26979 24.0204 7.4699 24.0739 6.68609 23.9566C5.90228 23.8394 5.15307 23.5541 4.48977 23.1203C3.82648 22.6866 3.26475 22.1146 2.84307 21.4436C2.42139 20.7725 2.14971 20.0183 2.04664 19.2325C1.94357 18.4467 2.01155 17.6479 2.24591 16.8908C1.63062 16.3106 1.21744 15.5485 1.06699 14.7164C0.916531 13.8842 1.03671 13.0257 1.40991 12.2668C2.4544 13.1818 3.74836 13.764 5.12591 13.9388C5.28257 14.5823 5.59658 15.1768 6.03973 15.669C6.48288 16.1612 7.04132 16.5357 7.66491 16.7588C7.91487 16.8476 8.1899 16.8335 8.42947 16.7196C8.66905 16.6057 8.85356 16.4013 8.94241 16.1513C9.03125 15.9013 9.01716 15.6263 8.90323 15.3867C8.78931 15.1471 8.58487 14.9626 8.33491 14.8738C7.94652 14.7369 7.60987 14.4834 7.37093 14.148C7.132 13.8126 7.00242 13.4116 6.99991 12.9998C6.99984 12.7204 7.05909 12.4442 7.17373 12.1894C7.28836 11.9346 7.45578 11.7071 7.66491 11.5218C7.76241 11.4338 7.84163 11.3275 7.89805 11.2089C7.95446 11.0903 7.98696 10.9617 7.99369 10.8306C8.00043 10.6994 7.98126 10.5682 7.93728 10.4444C7.89331 10.3207 7.82539 10.2068 7.73741 10.1093C7.64942 10.0118 7.54309 9.93256 7.42449 9.87615C7.30589 9.81973 7.17733 9.78723 7.04617 9.7805C6.91501 9.77377 6.7838 9.79294 6.66005 9.83691C6.53629 9.88088 6.42241 9.9488 6.32491 10.0368C5.77136 10.5432 5.37058 11.1944 5.16791 11.9168C4.25075 11.7599 3.39583 11.3494 2.69991 10.7318C1.93503 10.0635 1.39272 9.17744 1.14568 8.19227C0.89864 7.2071 0.958671 6.16995 1.31773 5.21987C1.67678 4.26978 2.31771 3.45216 3.15457 2.87663C3.99144 2.30109 4.98425 1.99514 5.99991 1.99979C6.06574 1.99979 6.12891 2.00846 6.19211 2.01714C6.23834 2.02348 6.28459 2.02983 6.33191 2.03279C6.66524 1.30849 7.23626 0.71999 7.95018 0.364979C8.6641 0.00996849 9.47796 -0.0901927 10.2567 0.0811244C11.0354 0.252441 11.732 0.684931 12.231 1.30679C12.73 1.92865 13.0013 2.70247 12.9999 3.49979V5.99979H15.5859L16.8789 4.70679C16.9431 4.65075 17.0144 4.60335 17.0909 4.56579C16.956 4.1308 16.9707 3.66317 17.1327 3.23752C17.2946 2.81187 17.5945 2.45272 17.9844 2.21739C18.3743 1.98206 18.8318 1.88411 19.2838 1.93916C19.7359 1.99422 20.1565 2.1991 20.4786 2.52113C20.8006 2.84316 21.0055 3.26377 21.0605 3.71585C21.1156 4.16793 21.0176 4.62542 20.7823 5.01532C20.547 5.40523 20.1878 5.70507 19.7622 5.86702C19.3365 6.02896 18.8689 6.04366 18.4339 5.90879C18.3963 5.9853 18.3489 6.05657 18.2929 6.12079L16.7069 7.70679C16.5194 7.89434 16.2651 7.99973 15.9999 7.99979H12.9999V15.9998H15.9999C16.2651 15.9998 16.5194 16.1052 16.7069 16.2928L18.2929 17.8788C18.3489 17.943 18.3963 18.0143 18.4339 18.0908ZM20.0045 10.2694C20.307 10.0939 20.6502 10.001 20.9999 10C21.3513 9.99843 21.697 10.0895 22.0021 10.264C22.3071 10.4385 22.5608 10.6904 22.7376 10.9941C22.9143 11.2979 23.0079 11.6429 23.0089 11.9943C23.0099 12.3458 22.9183 12.6913 22.7432 12.9961C22.5682 13.3008 22.3159 13.5541 22.0119 13.7303C21.7078 13.9066 21.3626 13.9996 21.0112 14C20.6597 14.0004 20.3144 13.9082 20.0099 13.7326C19.7054 13.5571 19.4526 13.3044 19.2769 13H14.9999V11H19.2769C19.4512 10.6969 19.7021 10.4449 20.0045 10.2694Z" fill="currentColor"/>
</g>
<defs>
<clipPath id="clip0_865_5083">
<rect width="24" height="24" fill="currentColor"/>
</clipPath>
</defs>
</svg>
