<svg width="24" height="24" viewBox="0 0 24 24"  xmlns="http://www.w3.org/2000/svg">
<path d="M16.4009 0.999756H7.60085C6.38756 0.999756 5.40085 1.9783 5.40085 3.18157V20.8179C5.40085 22.0212 6.38756 22.9998 7.60085 22.9998H16.4009C17.6142 22.9998 18.6009 22.0212 18.6009 20.8179V3.18157C18.6009 1.9783 17.6142 0.999756 16.4009 0.999756ZM12.0009 19.8179C11.3937 19.8179 10.9009 19.3292 10.9009 18.727C10.9009 18.1248 11.3937 17.6361 12.0009 17.6361C12.6081 17.6361 13.1009 18.1248 13.1009 18.727C13.1009 19.3292 12.6081 19.8179 12.0009 19.8179ZM16.4009 14.1998H7.60085V3.18157H16.4009V14.1998Z" fill="currentColor"/>
<path d="M19.4725 6.34128C19.6544 6.12831 19.9425 6.12831 20.1168 6.34128C20.2836 6.55426 20.8369 7.33207 20.799 8.48028C20.7687 9.48032 20.3063 10.147 20.1168 10.3785C20.0259 10.4896 19.9122 10.5452 19.7909 10.5452C19.6696 10.5452 19.5559 10.4896 19.4725 10.3878C19.2906 10.1748 19.2906 9.82293 19.4725 9.6007C19.5938 9.45255 19.8743 9.04512 19.8894 8.43398C19.9122 7.73024 19.5711 7.24873 19.4649 7.1191C19.2906 6.89687 19.2906 6.545 19.4649 6.33202L19.4725 6.34128Z" fill="currentColor"/>
<path d="M21.9102 8.4534C21.9374 6.99722 21.1838 6.00662 20.9477 5.72926C20.7389 5.49151 20.757 5.11508 20.975 4.88725C21.1929 4.65941 21.5379 4.67922 21.7468 4.91696C22.1372 5.37264 23.0361 6.6307 22.9998 8.47321C22.9635 10.2068 22.11 11.3856 21.7468 11.8115C21.6378 11.9403 21.4925 11.9997 21.3472 11.9997C21.211 11.9997 21.0839 11.9502 20.975 11.8412C20.757 11.6134 20.748 11.237 20.9477 10.9992C21.2292 10.6723 21.883 9.7709 21.9102 8.4435V8.4534Z" fill="currentColor"/>
<path d="M4.52919 6.34128C4.34727 6.12831 4.05924 6.12831 3.8849 6.34128C3.71814 6.55426 3.16481 7.33207 3.20271 8.48028C3.23303 9.48032 3.6954 10.147 3.8849 10.3785C3.97586 10.4896 4.08956 10.5452 4.21083 10.5452C4.33211 10.5452 4.44581 10.4896 4.52919 10.3878C4.71111 10.1748 4.71111 9.82293 4.52919 9.6007C4.40791 9.45255 4.12746 9.04512 4.1123 8.43398C4.08956 7.73024 4.43065 7.24873 4.53677 7.1191C4.71111 6.89687 4.71111 6.545 4.53677 6.33202L4.52919 6.34128Z" fill="currentColor"/>
<path d="M2.09152 8.4534C2.06428 6.99722 2.81791 6.00662 3.05399 5.72926C3.26283 5.49151 3.24467 5.11508 3.02675 4.88725C2.80883 4.65941 2.46379 4.67922 2.25495 4.91696C1.86452 5.37264 0.965603 6.6307 1.00192 8.47321C1.03824 10.2068 1.89176 11.3856 2.25495 11.8115C2.36391 11.9403 2.50919 11.9997 2.65447 11.9997C2.79067 11.9997 2.91779 11.9502 3.02675 11.8412C3.24467 11.6134 3.25375 11.237 3.05399 10.9992C2.77251 10.6723 2.11876 9.7709 2.09152 8.4435V8.4534Z" fill="currentColor"/>
<path d="M10.6361 10.9014C10.7643 11.0309 10.9292 11.0907 11.0941 11.0907C11.2589 11.0907 11.4329 11.0209 11.5703 10.8815L14.5377 7.83306C14.8124 7.55412 14.8216 7.07594 14.5652 6.77708C14.3087 6.47821 13.8691 6.46825 13.5943 6.74719L11.0849 9.32737L10.398 8.65991C10.1141 8.39093 9.68363 8.41086 9.42719 8.71968C9.17075 9.02851 9.19823 9.49672 9.48214 9.77566L10.6453 10.9014H10.6361Z" fill="currentColor"/>
</svg>
