<svg width="24" height="24" viewBox="0 0 24 24"  xmlns="http://www.w3.org/2000/svg">
<path d="M15.8133 1H8.18667C6.64667 1 5.4 2.23636 5.4 3.76363V20.3091C5.4 21.7636 6.64667 23 8.18667 23H15.8867C17.4267 23 18.6733 21.7636 18.6733 20.2364V3.69091C18.6 2.23636 17.3533 1 15.8133 1ZM17.5733 20.2364C17.5733 21.1091 16.7667 21.8364 15.8867 21.8364H8.18667C7.30667 21.8364 6.57333 21.1091 6.57333 20.2364V19.6545H17.5733V20.2364ZM17.5 18.6364H6.5V3.76363C6.5 2.89091 7.23333 2.16364 8.11333 2.16364H15.8133C16.6933 2.16364 17.4267 2.89091 17.4267 3.76363V18.6364H17.5Z" fill="currentColor"/>
<path d="M10.6353 12.7198C10.7635 12.8493 10.9283 12.9091 11.0932 12.9091C11.2581 12.9091 11.4321 12.8394 11.5694 12.6999L14.5368 9.6515C14.8116 9.37257 14.8207 8.89439 14.5643 8.59552C14.3079 8.29666 13.8682 8.2867 13.5935 8.56564L11.084 11.1458L10.3971 10.4784C10.1132 10.2094 9.68278 10.2293 9.42634 10.5381C9.1699 10.847 9.19737 11.3152 9.48129 11.5941L10.6444 12.7198H10.6353Z" fill="currentColor"/>
<path d="M19.4717 8.15973C19.6536 7.94676 19.9416 7.94676 20.116 8.15973C20.2827 8.3727 20.836 9.15052 20.7981 10.2987C20.7678 11.2988 20.3055 11.9655 20.116 12.197C20.025 12.3081 19.9113 12.3636 19.79 12.3636C19.6687 12.3636 19.555 12.3081 19.4717 12.2062C19.2897 11.9932 19.2897 11.6414 19.4717 11.4191C19.5929 11.271 19.8734 10.8636 19.8886 10.2524C19.9113 9.54869 19.5702 9.06718 19.4641 8.93755C19.2897 8.71531 19.2897 8.36344 19.4641 8.15047L19.4717 8.15973Z" fill="currentColor"/>
<path d="M21.9093 10.2718C21.9366 8.81567 21.1829 7.82507 20.9469 7.5477C20.738 7.30996 20.7562 6.93353 20.9741 6.7057C21.192 6.47786 21.5371 6.49767 21.7459 6.73541C22.1363 7.19109 23.0353 8.44915 22.9989 10.2917C22.9626 12.0252 22.1091 13.204 21.7459 13.63C21.6369 13.7588 21.4917 13.8182 21.3464 13.8182C21.2102 13.8182 21.0831 13.7687 20.9741 13.6597C20.7562 13.4319 20.7471 13.0554 20.9469 12.8177C21.2283 12.4908 21.8821 11.5893 21.9093 10.2619V10.2718Z" fill="currentColor"/>
<path d="M4.52833 8.15973C4.34642 7.94676 4.05838 7.94676 3.88404 8.15973C3.71729 8.3727 3.16396 9.15052 3.20186 10.2987C3.23218 11.2988 3.69455 11.9655 3.88404 12.197C3.975 12.3081 4.0887 12.3636 4.20998 12.3636C4.33126 12.3636 4.44496 12.3081 4.52833 12.2062C4.71025 11.9932 4.71025 11.6414 4.52833 11.4191C4.40706 11.271 4.1266 10.8636 4.11144 10.2524C4.0887 9.54869 4.4298 9.06718 4.53591 8.93755C4.71025 8.71531 4.71025 8.36344 4.53591 8.15047L4.52833 8.15973Z" fill="currentColor"/>
<path d="M2.09066 10.2718C2.06342 8.81567 2.81706 7.82507 3.05313 7.5477C3.26197 7.30996 3.24381 6.93353 3.02589 6.7057C2.80798 6.47786 2.46294 6.49767 2.2541 6.73541C1.86366 7.19109 0.964749 8.44915 1.00107 10.2917C1.03739 12.0252 1.8909 13.204 2.2541 13.63C2.36306 13.7588 2.50834 13.8182 2.65362 13.8182C2.78982 13.8182 2.91694 13.7687 3.02589 13.6597C3.24381 13.4319 3.25289 13.0554 3.05313 12.8177C2.77166 12.4908 2.1179 11.5893 2.09066 10.2619V10.2718Z" fill="currentColor"/>
</svg>
