<svg width="24" height="24" viewBox="0 0 24 24"  xmlns="http://www.w3.org/2000/svg">
<g clip-path="url(#clip0_865_7087)">
<path d="M2 0C0.895431 0 0 0.895431 0 2V10C0 11.1046 0.895431 12 2 12H4V7C4 5.34315 5.34315 4 7 4H12V2C12 0.895431 11.1046 0 10 0H2ZM12 20V22C12 23.1046 12.8954 24 14 24H22C23.1046 24 24 23.1046 24 22V14C24 12.8954 23.1046 12 22 12H20V17C20 18.6569 18.6569 20 17 20H12ZM8 6C6.89543 6 6 6.89543 6 8V16C6 17.1046 6.89543 18 8 18H16C17.1046 18 18 17.1046 18 16V8C18 6.89543 17.1046 6 16 6H8Z" fill="currentColor"/>
</g>
<defs>
<clipPath id="clip0_865_7087">
<rect width="24" height="24" fill="currentColor"/>
</clipPath>
</defs>
</svg>
