<svg width="24" height="24" viewBox="0 0 24 24"  xmlns="http://www.w3.org/2000/svg">
<g clip-path="url(#clip0_865_7082)">
<path fill-rule="evenodd" clip-rule="evenodd" d="M17 19C18.1046 19 19 18.1046 19 17V7C19 5.89543 18.1046 5 17 5H7C5.89543 5 5 5.89543 5 7V17C5 18.1046 5.89543 19 7 19H17ZM12 22V20.5H13.5V22C13.5 22.2761 13.7239 22.5 14 22.5H22C22.2761 22.5 22.5 22.2761 22.5 22V14C22.5 13.7239 22.2761 13.5 22 13.5H20.5V12H22C23.1046 12 24 12.8954 24 14V22C24 23.1046 23.1046 24 22 24H14C12.8954 24 12 23.1046 12 22ZM10 0C11.1046 0 12 0.895431 12 2V3.5H10.5V2C10.5 1.72386 10.2761 1.5 10 1.5H2C1.72386 1.5 1.5 1.72386 1.5 2V10C1.5 10.2761 1.72386 10.5 2 10.5H3.5V12H2C0.895431 12 0 11.1046 0 10V2C0 0.895431 0.895431 0 2 0H10ZM7 6.5C6.72386 6.5 6.5 6.72386 6.5 7V17C6.5 17.2761 6.72386 17.5 7 17.5H17C17.2761 17.5 17.5 17.2761 17.5 17V7C17.5 6.72386 17.2761 6.5 17 6.5H7Z" fill="currentColor"/>
</g>
<defs>
<clipPath id="clip0_865_7082">
<rect width="24" height="24" fill="currentColor"/>
</clipPath>
</defs>
</svg>
