<svg width="24" height="24" viewBox="0 0 24 24"  xmlns="http://www.w3.org/2000/svg">
<g clip-path="url(#clip0_865_2379)">
<path d="M24 13.5H21V12C20.9976 9.61378 20.0486 7.32598 18.3613 5.63867C16.674 3.95136 14.3862 3.00238 12 3H10.5V0H12C15.1815 0.00357316 18.2317 1.269 20.4813 3.51867C22.731 5.76833 23.9964 8.8185 24 12V13.5ZM11.5605 14.5602L13.6815 12.4392L11.5605 10.3182L9.43955 12.4392L3.07505 6.07471C1.10581 8.04394 -0.000488281 10.7148 -0.000488281 13.4997C-0.000488281 16.2846 1.10581 18.9555 3.07505 20.9247C5.04428 22.8939 7.71513 24.0002 10.5 24.0002C13.285 24.0002 15.9558 22.8939 17.925 20.9247L11.5605 14.5602ZM16.5 13.5H19.5V12C19.4976 10.0116 18.7067 8.10534 17.3007 6.69933C15.8947 5.29332 13.9884 4.50238 12 4.5H10.5V7.5H12C13.1935 7.5 14.3381 7.97411 15.182 8.81802C16.0259 9.66193 16.5 10.8065 16.5 12V13.5Z" fill="currentColor"/>
</g>
<defs>
<clipPath id="clip0_865_2379">
<rect width="24" height="24" fill="currentColor"/>
</clipPath>
</defs>
</svg>
