<svg width="24" height="24" viewBox="0 0 24 24"  xmlns="http://www.w3.org/2000/svg">
<g clip-path="url(#clip0_865_2373)">
<path d="M12.75 0C12.3358 0 12 0.335786 12 0.75C12 1.16421 12.3358 1.5 12.75 1.5C15.3359 1.5 17.8158 2.52723 19.6443 4.35571C21.4728 6.18419 22.5 8.66414 22.5 11.25C22.5 11.6642 22.8358 12 23.25 12C23.6642 12 24 11.6642 24 11.25C24 8.26631 22.8147 5.40483 20.705 3.29505C18.5952 1.18526 15.7337 0 12.75 0ZM12.75 4.5C12.3358 4.5 12 4.83579 12 5.25C12 5.66421 12.3358 6 12.75 6C14.1424 6 15.4777 6.55312 16.4623 7.53769C17.4469 8.52225 18 9.85761 18 11.25C18 11.6642 18.3358 12 18.75 12C19.1642 12 19.5 11.6642 19.5 11.25C19.5 9.45979 18.7888 7.7429 17.523 6.47703C16.2571 5.21116 14.5402 4.5 12.75 4.5Z" fill="currentColor"/>
<path fill-rule="evenodd" clip-rule="evenodd" d="M13.2803 10.7197C13.5732 11.0126 13.5732 11.4874 13.2803 11.7803L12.3108 12.7498L19.2054 19.6444C19.4983 19.9373 19.4983 20.4121 19.2054 20.705C17.0955 22.8149 14.2339 24.0002 11.25 24.0002C8.26622 24.0002 5.4046 22.8149 3.29472 20.705C1.18483 18.5952 -0.000488281 15.7335 -0.000488281 12.7497C-0.000488281 9.76588 1.18483 6.90426 3.29472 4.79438C3.43537 4.65372 3.62614 4.57471 3.82505 4.57471C4.02396 4.57471 4.21473 4.65372 4.35538 4.79438L11.2502 11.6892L12.2197 10.7197C12.5126 10.4268 12.9874 10.4268 13.2803 10.7197ZM10.7063 13.2666L3.84546 6.40578C2.33694 8.16637 1.49951 10.4149 1.49951 12.7497C1.49951 15.3357 2.5268 17.8158 4.35538 19.6444C6.18396 21.473 8.66404 22.5002 11.25 22.5002C13.5849 22.5002 15.8334 21.6628 17.594 20.1543L10.7334 13.2937C10.7288 13.2893 10.7242 13.2849 10.7197 13.2803C10.7151 13.2758 10.7107 13.2712 10.7063 13.2666Z" fill="currentColor"/>
</g>
<defs>
<clipPath id="clip0_865_2373">
<rect width="24" height="24" fill="currentColor"/>
</clipPath>
</defs>
</svg>
