<svg width="24" height="24" viewBox="0 0 24 24"  xmlns="http://www.w3.org/2000/svg">
<g clip-path="url(#clip0_865_2917)">
<path d="M2.21 0C1.62387 0 1.06175 0.232839 0.647294 0.647294C0.232839 1.06175 0 1.62387 0 2.21L0 21.74C0 22.3261 0.232839 22.8883 0.647294 23.3027C1.06175 23.7172 1.62387 23.95 2.21 23.95H9.095C9.64269 23.9499 10.1708 23.7464 10.577 23.379L23.222 11.945C23.4512 11.7379 23.6343 11.485 23.7597 11.2027C23.8851 10.9204 23.9499 10.6149 23.95 10.306V2.21C23.95 1.91978 23.8928 1.6324 23.7818 1.36427C23.6707 1.09614 23.5079 0.852511 23.3027 0.647294C23.0975 0.442077 22.8539 0.279289 22.5857 0.168226C22.3176 0.0571633 22.0302 0 21.74 0L2.21 0ZM1.539 2.21C1.53887 2.12185 1.55613 2.03453 1.58981 1.95306C1.62348 1.87159 1.6729 1.79757 1.73524 1.73524C1.79757 1.6729 1.87159 1.62348 1.95306 1.58981C2.03453 1.55613 2.12185 1.53887 2.21 1.539H21.74C21.8282 1.53887 21.9155 1.55613 21.9969 1.58981C22.0784 1.62348 22.1524 1.6729 22.2148 1.73524C22.2771 1.79757 22.3265 1.87159 22.3602 1.95306C22.3939 2.03453 22.4111 2.12185 22.411 2.21V10.306C22.4111 10.3999 22.3915 10.4927 22.3534 10.5785C22.3153 10.6643 22.2597 10.7411 22.19 10.804L18.785 13.883L14.892 7.885C14.763 7.686 14.545 7.563 14.308 7.555C14.071 7.547 13.845 7.655 13.702 7.845L9.716 13.162L7.283 10.72C7.20119 10.6383 7.10113 10.5772 6.99108 10.5417C6.88103 10.5063 6.76413 10.4974 6.65 10.516C6.418 10.554 6.22 10.702 6.116 10.913L3.163 16.932C3.053 17.156 3.066 17.422 3.198 17.634C3.26297 17.7383 3.35321 17.8245 3.46037 17.8846C3.56753 17.9448 3.68813 17.9769 3.811 17.978L14.187 18.04L9.545 22.238C9.42166 22.3495 9.26127 22.4112 9.095 22.411H2.21C2.12185 22.4111 2.03453 22.3939 1.95306 22.3602C1.87159 22.3265 1.79757 22.2771 1.73524 22.2148C1.6729 22.1524 1.62348 22.0784 1.58981 21.9969C1.55613 21.9155 1.53887 21.8282 1.539 21.74V2.21ZM17.694 14.87L15.783 16.598L4.977 16.534L6.972 12.467L9.279 14.782C9.428 14.931 9.634 15.009 9.844 14.994C10.054 14.979 10.248 14.874 10.374 14.705L14.239 9.548L17.694 14.87ZM23.556 15.568C23.6879 15.627 23.8 15.7228 23.8788 15.844C23.9576 15.9651 23.9997 16.1065 24 16.251V21.586C24 23.609 22.496 23.998 21.392 23.998H15.506C15.3554 23.9969 15.2085 23.9504 15.0847 23.8646C14.9608 23.7789 14.8657 23.6578 14.8116 23.5172C14.7575 23.3766 14.7471 23.2229 14.7816 23.0763C14.8161 22.9296 14.8939 22.7968 15.005 22.695L22.752 15.696C22.8596 15.5993 22.9928 15.5358 23.1356 15.5131C23.2784 15.4904 23.4238 15.5095 23.556 15.568ZM17.449 22.502H21.695C21.9095 22.5017 22.1151 22.4164 22.2668 22.2648C22.4184 22.1131 22.5037 21.9075 22.504 21.693V17.935L17.449 22.502Z" fill="currentColor"/>
<path d="M10.514 6.047C10.514 6.882 9.837 7.56 9.001 7.56C8.165 7.56 7.489 6.883 7.489 6.047C7.489 5.211 8.166 4.534 9.001 4.534C9.836 4.534 10.514 5.211 10.514 6.047Z" fill="currentColor"/>
</g>
<defs>
<clipPath id="clip0_865_2917">
<rect width="24" height="24" fill="currentColor"/>
</clipPath>
</defs>
</svg>
