<svg width="24" height="24" viewBox="0 0 24 24"  xmlns="http://www.w3.org/2000/svg">
<g clip-path="url(#clip0_865_5318)">
<path fill-rule="evenodd" clip-rule="evenodd" d="M3 0C1.34314 0 0 1.34314 0 3C0 4.65686 1.34314 6 3 6C4.65686 6 6 4.65686 6 3C6 1.34314 4.65686 0 3 0ZM3 9C1.34314 9 0 10.3431 0 12C0 13.6569 1.34314 15 3 15C4.65686 15 6 13.6569 6 12C6 10.3431 4.65686 9 3 9ZM0 21C0 19.3431 1.34314 18 3 18C4.65686 18 6 19.3431 6 21C6 22.6569 4.65686 24 3 24C1.34314 24 0 22.6569 0 21ZM9.75 3C9.33579 3 9 3.33579 9 3.75C9 4.16421 9.33579 4.5 9.75 4.5H23.25C23.6642 4.5 24 4.16421 24 3.75C24 3.33579 23.6642 3 23.25 3H9.75ZM9 12.75C9 12.3358 9.33579 12 9.75 12H23.25C23.6642 12 24 12.3358 24 12.75C24 13.1642 23.6642 13.5 23.25 13.5H9.75C9.33579 13.5 9 13.1642 9 12.75ZM9.75 21C9.33579 21 9 21.3358 9 21.75C9 22.1642 9.33579 22.5 9.75 22.5H23.25C23.6642 22.5 24 22.1642 24 21.75C24 21.3358 23.6642 21 23.25 21H9.75Z" fill="currentColor"/>
</g>
<defs>
<clipPath id="clip0_865_5318">
<rect width="24" height="24" fill="currentColor"/>
</clipPath>
</defs>
</svg>
