<svg width="24" height="24" viewBox="0 0 24 24"  xmlns="http://www.w3.org/2000/svg">
<g clip-path="url(#clip0_865_5336)">
<path fill-rule="evenodd" clip-rule="evenodd" d="M1.31702 0.214014C1.02381 -0.0791962 0.539199 -0.069974 0.234612 0.234612C-0.069974 0.539199 -0.0791962 1.02381 0.214014 1.31702L0.399809 1.50281C0.145505 1.94347 7.05867e-08 2.45482 7.05867e-08 3.00015C7.05867e-08 4.65701 1.34314 6.00015 3 6.00015C3.54533 6.00015 4.05668 5.85465 4.49734 5.60034L10.8971 12.0002H9.75C9.33579 12.0002 9 12.3359 9 12.7502C9 13.1644 9.33579 13.5002 9.75 13.5002H12.3971L19.8971 21.0002H9.75C9.33579 21.0002 9 21.336 9 21.7502C9 22.1643 9.33579 22.5002 9.75 22.5002H21.3971L22.683 23.786C22.9762 24.0792 23.4608 24.07 23.7654 23.7654C24.07 23.4608 24.0792 22.9762 23.786 22.683L1.31702 0.214014ZM3.35491 4.45792L1.54224 2.64524C1.51463 2.75902 1.5 2.87788 1.5 3.00015C1.5 3.82857 2.17158 4.50015 3 4.50015C3.12227 4.50015 3.24113 4.48552 3.35491 4.45792Z" fill="currentColor"/>
<path d="M16.103 12.0002L17.603 13.5002H23.25C23.6642 13.5002 24 13.1644 24 12.7502C24 12.3359 23.6642 12.0002 23.25 12.0002H16.103Z" fill="currentColor"/>
<path fill-rule="evenodd" clip-rule="evenodd" d="M3 9.00015C1.34314 9.00015 6.48238e-09 10.3433 6.48238e-09 12.0002C6.48238e-09 13.657 1.34314 15.0002 3 15.0002C4.65686 15.0002 6 13.657 6 12.0002C6 10.3433 4.65686 9.00015 3 9.00015ZM1.5 12.0002C1.5 11.1717 2.17158 10.5002 3 10.5002C3.82842 10.5002 4.5 11.1717 4.5 12.0002C4.5 12.8286 3.82842 13.5002 3 13.5002C2.17158 13.5002 1.5 12.8286 1.5 12.0002ZM3 18.0002C1.34314 18.0002 6.48238e-09 19.3433 6.48238e-09 21.0002C6.48238e-09 22.6571 1.34314 24.0002 3 24.0002C4.65686 24.0002 6 22.6571 6 21.0002C6 19.3433 4.65686 18.0002 3 18.0002ZM1.5 21.0002C1.5 20.1717 2.17158 19.5002 3 19.5002C3.82842 19.5002 4.5 20.1717 4.5 21.0002C4.5 21.8286 3.82842 22.5002 3 22.5002C2.17158 22.5002 1.5 21.8286 1.5 21.0002Z" fill="currentColor"/>
<path d="M9.75 3.00015C9.33579 3.00015 9 3.33594 9 3.75015C9 4.16436 9.33579 4.50015 9.75 4.50015H23.25C23.6642 4.50015 24 4.16436 24 3.75015C24 3.33594 23.6642 3.00015 23.25 3.00015H9.75Z" fill="currentColor"/>
</g>
<defs>
<clipPath id="clip0_865_5336">
<rect width="24" height="24" fill="currentColor"/>
</clipPath>
</defs>
</svg>
