<svg width="24" height="24" viewBox="0 0 24 24"  xmlns="http://www.w3.org/2000/svg">
<g clip-path="url(#clip0_865_5323)">
<path d="M6 3C6 4.65685 4.65685 6 3 6C1.34315 6 0 4.65685 0 3C0 1.34315 1.34315 0 3 0C4.65685 0 6 1.34315 6 3ZM9 2C9 1.72386 9.22386 1.5 9.5 1.5H23.5C23.7761 1.5 24 1.72386 24 2V4C24 4.27614 23.7761 4.5 23.5 4.5H9.5C9.22386 4.5 9 4.27614 9 4V2ZM3 15C4.65685 15 6 13.6569 6 12C6 10.3431 4.65685 9 3 9C1.34315 9 0 10.3431 0 12C0 13.6569 1.34315 15 3 15ZM9 11C9 10.7239 9.22386 10.5 9.5 10.5H23.5C23.7761 10.5 24 10.7239 24 11V13C24 13.2761 23.7761 13.5 23.5 13.5H9.5C9.22386 13.5 9 13.2761 9 13V11ZM3 24C4.65685 24 6 22.6569 6 21C6 19.3431 4.65685 18 3 18C1.34315 18 0 19.3431 0 21C0 22.6569 1.34315 24 3 24ZM9 20C9 19.7239 9.22386 19.5 9.5 19.5H23.5C23.7761 19.5 24 19.7239 24 20V22C24 22.2761 23.7761 22.5 23.5 22.5H9.5C9.22386 22.5 9 22.2761 9 22V20Z" fill="currentColor"/>
</g>
<defs>
<clipPath id="clip0_865_5323">
<rect width="24" height="24" fill="currentColor"/>
</clipPath>
</defs>
</svg>
