<svg width="24" height="24" viewBox="0 0 24 24" fill="none" xmlns="http://www.w3.org/2000/svg">
<g clip-path="url(#clip0_865_760)">
<path fill-rule="evenodd" clip-rule="evenodd" d="M23.9369 13.5403C23.904 13.4474 23.8705 13.353 23.8705 13.2502C23.6181 13.2922 23.4532 13.5005 23.2921 13.704C23.0658 13.9898 22.847 14.2661 22.4039 14.0593C21.8511 13.8968 21.7165 13.1906 21.5833 12.492C21.5093 12.1041 21.4358 11.7185 21.2913 11.4295L20.8361 10.7215C20.8112 10.6093 20.7924 10.5093 20.7752 10.4179C20.7227 10.1385 20.6851 9.93865 20.5327 9.71005C20.0775 9.10317 17.5489 7.73769 16.6386 7.78827L16.5374 7.88941C16.453 8.05833 16.5722 8.63471 16.6946 9.22598C16.792 9.69686 16.8914 10.1772 16.8914 10.4686H16.8409C16.7367 10.2951 16.6803 10.0501 16.6224 9.79906C16.5959 9.68429 16.5692 9.56824 16.5374 9.45718C16.5042 9.3574 16.4709 9.25488 16.4372 9.15098C16.2659 8.62294 16.0829 8.05913 15.8294 7.63655C15.3742 6.92852 14.6156 6.52394 13.7559 6.2205L12.9973 6.01821L12.5927 5.61362C12.2852 5.42145 11.7733 5.34611 11.3011 5.27662C11.1519 5.25468 11.0068 5.23331 10.8732 5.20904C10.7721 5.05732 10.7721 4.9056 10.7721 4.65273C10.7363 4.66169 10.7036 4.67065 10.673 4.67904C10.5308 4.71805 10.4328 4.74492 10.2664 4.7033L10.2158 4.60216L10.1652 4.45044L10.5698 3.99528H9.81119C9.65947 4.04585 9.6089 4.04585 9.55833 3.89413C10.0135 3.64127 11.4801 2.57923 11.2778 1.77006C11.1323 1.22448 10.0974 0.914327 9.28315 0.670283C8.96521 0.574999 8.68091 0.489792 8.49629 0.404585C8.39825 0.355562 8.31076 0.295979 8.2253 0.237778C8.04628 0.115856 7.87617 0 7.63655 0L7.58597 0.101146L7.63655 0.252866C7.80795 0.595678 8.26983 0.873941 8.73048 1.15146C9.08531 1.36524 9.43942 1.57857 9.65947 1.82063V1.92178C9.55833 2.0735 8.24343 3.03439 7.99056 2.93324C7.63655 2.78152 7.23196 2.6298 6.7768 2.8321C6.60559 2.9177 6.49878 3.08382 6.39278 3.24867C6.31092 3.37598 6.22954 3.50254 6.11935 3.59069C6.01738 3.64168 5.79974 3.65412 5.57657 3.66687C5.35703 3.67941 5.13214 3.69226 5.00674 3.74241C4.8415 3.82504 4.78124 3.96765 4.71979 4.11308C4.6684 4.23471 4.61617 4.35831 4.50101 4.45044L3.23668 4.9056C2.32637 5.15846 1.3149 4.95617 0.657451 4.65273C0.606878 4.62744 0.549983 4.58951 0.490718 4.55C0.312921 4.43147 0.11379 4.29872 0 4.45044C0.505732 5.76534 2.22522 6.06878 3.89413 6.06878L3.94471 6.11935C3.86658 6.48394 3.708 6.75465 3.55182 7.02127C3.40469 7.27242 3.2597 7.51993 3.18611 7.83884C3.15545 8.02279 3.18055 8.16956 3.20507 8.31297C3.221 8.40613 3.23668 8.49786 3.23668 8.59744C3.23668 9.0526 3.28726 9.40661 3.48955 9.71005C3.84712 10.2464 4.52071 10.0805 5.18964 9.91573C5.65604 9.80086 6.12018 9.68654 6.47337 9.81119L7.33311 10.4686C8.09171 11.1261 8.74916 12.0364 9.30546 12.8962C9.44557 13.1238 9.56748 13.3697 9.68801 13.6128C9.91551 14.0716 10.1381 14.5204 10.4686 14.8179C11.2272 15.526 12.2893 15.9811 13.4525 16.234C13.6626 16.2913 13.9304 16.3053 14.2042 16.3196C14.6553 16.3432 15.1225 16.3677 15.3742 16.588C15.5437 16.7333 15.6437 17.1105 15.7462 17.4975C15.8578 17.9187 15.9725 18.3516 16.1834 18.5098C16.2649 18.5709 16.3464 18.6074 16.4246 18.6424C16.5405 18.6943 16.6491 18.743 16.7397 18.8638C16.7987 18.9817 16.8423 19.1072 16.8856 19.2314C16.9536 19.427 17.0206 19.6195 17.1443 19.7741C17.5995 20.381 18.8638 20.6844 19.1167 19.7235C19.2659 19.0894 18.7548 18.8955 18.3342 18.7359C18.1845 18.6791 18.0464 18.6267 17.9535 18.5604C17.9029 18.5604 17.3466 17.4477 17.3466 17.3972V17.1443C17.4577 16.7831 17.7979 16.6051 18.1405 16.4257C18.4215 16.2786 18.7043 16.1306 18.8638 15.88C18.9968 15.6938 18.9899 15.3116 18.9829 14.925C18.9766 14.5766 18.9702 14.2245 19.0661 14.0088V13.9582L19.1167 13.9076C19.1167 15.2717 19.5942 15.9791 20.075 16.6914C20.3607 17.1146 20.6476 17.5396 20.8361 18.1052C21.1306 19.0253 21.2375 19.9722 21.3519 20.9848C21.3947 21.3637 21.4385 21.7517 21.4936 22.151L21.5947 22.2016C21.7465 22.2016 21.9488 22.2016 22.1005 22.151L22.2016 21.797C22.3028 21.797 22.4039 21.8476 22.5051 21.8982L22.8085 21.6959C22.9318 20.9562 22.6606 20.5171 22.3842 20.0694C22.2071 19.7824 22.0278 19.492 21.9488 19.1167C21.8931 18.866 21.9294 18.646 21.9648 18.4314C21.9937 18.2563 22.0221 18.0847 21.9993 17.9029L21.7465 17.296L21.8982 15.88L21.8476 14.5145C21.976 14.4503 22.1044 14.5084 22.2458 14.5723C22.3271 14.609 22.4127 14.6477 22.5051 14.6662C22.7579 14.6662 23.8705 14.1605 23.9717 13.9582C24.0317 13.8081 23.9849 13.6759 23.9369 13.5403ZM16.1834 19.6224L15.9811 18.8638L15.0202 17.0938L13.9582 16.9421C13.727 16.8843 13.4876 16.8347 13.2481 16.7852C12.6495 16.6613 12.0509 16.5375 11.5813 16.2846C11.8847 17.1444 12.7444 18.0041 13.503 18.3581C13.6079 18.4031 13.7216 18.4436 13.8377 18.4849C14.1134 18.5831 14.4021 18.6859 14.6156 18.8638C14.7692 18.9867 14.8482 19.1656 14.9319 19.3551C14.9859 19.4775 15.042 19.6045 15.1214 19.7236L15.6777 20.2799L16.4363 22.1511C16.4854 22.3475 16.4987 22.5081 16.511 22.6561C16.5241 22.813 16.5359 22.9558 16.588 23.112C16.7903 23.1626 17.0432 23.2131 17.2455 23.1626V22.8591L17.296 22.8086C17.3806 22.8086 17.418 22.8086 17.4433 22.8261C17.4635 22.84 17.4759 22.8649 17.4983 22.9097C17.7006 22.8591 17.9029 22.758 18.0041 22.6063C17.8808 21.7432 17.4193 21.2183 16.9632 20.6994C16.6709 20.3671 16.3809 20.0372 16.1834 19.6224Z" fill="#FF6B03"/>
</g>
<defs>
<clipPath id="clip0_865_760">
<rect width="24" height="24" fill="white"/>
</clipPath>
</defs>
</svg>
