<svg width="24" height="24" viewBox="0 0 24 24"  xmlns="http://www.w3.org/2000/svg">
<g clip-path="url(#clip0_865_5342)">
<path d="M2.52034 0.432421C1.94377 -0.14414 1.00898 -0.14414 0.432421 0.432421C-0.0640461 0.928888 -0.133014 1.69097 0.225518 2.26123C0.0797708 2.64631 4.0473e-08 3.06381 4.0473e-08 3.49994C4.0473e-08 5.43294 1.567 6.99994 3.5 6.99994C3.92181 6.99994 4.32619 6.92532 4.70066 6.78857L9.5 11.5879V12.9999C9.5 13.2761 9.72386 13.4999 10 13.4999H11.412L17.412 19.4999H10C9.72386 19.4999 9.5 19.7238 9.5 19.9999V21.9999C9.5 22.2761 9.72386 22.4999 10 22.4999H20.412L21.4797 23.5676C22.0562 24.1441 22.991 24.1441 23.5676 23.5676C24.1441 22.991 24.1441 22.0562 23.5676 21.4797L2.52034 0.432421ZM10.5879 4.49994H23.5C23.7761 4.49994 24 4.27608 24 3.99994V1.99994C24 1.7238 23.7761 1.49994 23.5 1.49994H10C9.72386 1.49994 9.5 1.7238 9.5 1.99994V3.41209L10.5879 4.49994ZM19.5879 13.4999H23.5C23.7761 13.4999 24 13.2761 24 12.9999V10.9999C24 10.7238 23.7761 10.4999 23.5 10.4999H16.5879L19.5879 13.4999Z" fill="currentColor"/>
<path fill-rule="evenodd" clip-rule="evenodd" d="M3.5 15.4999C5.433 15.4999 7 13.9329 7 11.9999C7 10.0669 5.433 8.49994 3.5 8.49994C1.567 8.49994 4.2556e-08 10.0669 4.2556e-08 11.9999C4.2556e-08 13.9329 1.567 15.4999 3.5 15.4999ZM4.6 11.9999C4.6 12.6075 4.10751 13.0999 3.5 13.0999C2.89249 13.0999 2.4 12.6075 2.4 11.9999C2.4 11.3924 2.89249 10.8999 3.5 10.8999C4.10751 10.8999 4.6 11.3924 4.6 11.9999ZM7 20.4999C7 22.4329 5.433 23.9999 3.5 23.9999C1.567 23.9999 4.2556e-08 22.4329 4.2556e-08 20.4999C4.2556e-08 18.5669 1.567 16.9999 3.5 16.9999C5.433 16.9999 7 18.5669 7 20.4999ZM3.5 21.5999C4.10751 21.5999 4.6 21.1075 4.6 20.4999C4.6 19.8924 4.10751 19.3999 3.5 19.3999C2.89249 19.3999 2.4 19.8924 2.4 20.4999C2.4 21.1075 2.89249 21.5999 3.5 21.5999Z" fill="currentColor"/>
</g>
<defs>
<clipPath id="clip0_865_5342">
<rect width="24" height="24" fill="currentColor"/>
</clipPath>
</defs>
</svg>
