<svg width="24" height="24" viewBox="0 0 24 24"  xmlns="http://www.w3.org/2000/svg">
<g clip-path="url(#clip0_865_5352)">
<path fill-rule="evenodd" clip-rule="evenodd" d="M3.5 7C5.433 7 7 5.433 7 3.5C7 1.567 5.433 0 3.5 0C1.567 0 0 1.567 0 3.5C0 5.433 1.567 7 3.5 7ZM4.6 3.5C4.6 4.10751 4.10751 4.6 3.5 4.6C2.89249 4.6 2.4 4.10751 2.4 3.5C2.4 2.89249 2.89249 2.4 3.5 2.4C4.10751 2.4 4.6 2.89249 4.6 3.5Z" fill="currentColor"/>
<path d="M9.5 2C9.5 1.72386 9.72386 1.5 10 1.5H23.5C23.7761 1.5 24 1.72386 24 2V4C24 4.27614 23.7761 4.5 23.5 4.5H10C9.72386 4.5 9.5 4.27614 9.5 4V2Z" fill="currentColor"/>
<path fill-rule="evenodd" clip-rule="evenodd" d="M7 12C7 13.933 5.433 15.5 3.5 15.5C1.567 15.5 0 13.933 0 12C0 10.067 1.567 8.5 3.5 8.5C5.433 8.5 7 10.067 7 12ZM3.5 13.1C4.10751 13.1 4.6 12.6075 4.6 12C4.6 11.3925 4.10751 10.9 3.5 10.9C2.89249 10.9 2.4 11.3925 2.4 12C2.4 12.6075 2.89249 13.1 3.5 13.1Z" fill="currentColor"/>
<path d="M9.5 11C9.5 10.7239 9.72386 10.5 10 10.5H23.5C23.7761 10.5 24 10.7239 24 11V13C24 13.2761 23.7761 13.5 23.5 13.5H10C9.72386 13.5 9.5 13.2761 9.5 13V11Z" fill="currentColor"/>
<path fill-rule="evenodd" clip-rule="evenodd" d="M7 20.5C7 22.433 5.433 24 3.5 24C1.567 24 0 22.433 0 20.5C0 18.567 1.567 17 3.5 17C5.433 17 7 18.567 7 20.5ZM3.5 21.6C4.10751 21.6 4.6 21.1075 4.6 20.5C4.6 19.8925 4.10751 19.4 3.5 19.4C2.89249 19.4 2.4 19.8925 2.4 20.5C2.4 21.1075 2.89249 21.6 3.5 21.6Z" fill="currentColor"/>
<path d="M9.5 20C9.5 19.7239 9.72386 19.5 10 19.5H23.5C23.7761 19.5 24 19.7239 24 20V22C24 22.2761 23.7761 22.5 23.5 22.5H10C9.72386 22.5 9.5 22.2761 9.5 22V20Z" fill="currentColor"/>
</g>
<defs>
<clipPath id="clip0_865_5352">
<rect width="24" height="24" fill="currentColor"/>
</clipPath>
</defs>
</svg>
