<svg width="24" height="24" viewBox="0 0 24 24"  xmlns="http://www.w3.org/2000/svg">
<path fill-rule="evenodd" clip-rule="evenodd" d="M4.5 3.75C4.5 3.33579 4.83579 3 5.25 3H18.75C19.1642 3 19.5 3.33579 19.5 3.75V8.25C19.5 8.66421 19.1642 9 18.75 9H5.25C4.83579 9 4.5 8.66421 4.5 8.25V3.75ZM6 4.5V7.5H18V4.5H6ZM5.25 10.5C4.83579 10.5 4.5 10.8358 4.5 11.25V14.25C4.5 14.6642 4.83579 15 5.25 15H11.25C11.6642 15 12 14.6642 12 14.25V11.25C12 10.8358 11.6642 10.5 11.25 10.5H5.25ZM6 13.5V12H10.5V13.5H6ZM4.5 17.25C4.5 16.8358 4.83579 16.5 5.25 16.5H11.25C11.6642 16.5 12 16.8358 12 17.25V20.25C12 20.6642 11.6642 21 11.25 21H5.25C4.83579 21 4.5 20.6642 4.5 20.25V17.25ZM6 18V19.5H10.5V18H6ZM14.25 10.5C13.8358 10.5 13.5 10.8358 13.5 11.25V20.25C13.5 20.6642 13.8358 21 14.25 21H18.75C19.1642 21 19.5 20.6642 19.5 20.25V11.25C19.5 10.8358 19.1642 10.5 18.75 10.5H14.25ZM15 19.5V12H18V19.5H15ZM1.5 2.25C1.5 1.00736 2.50736 0 3.75 0H20.25C21.4926 0 22.5 1.00736 22.5 2.25V21.75C22.5 22.9926 21.4926 24 20.25 24H3.75C2.50736 24 1.5 22.9926 1.5 21.75V2.25ZM3.75 1.5C3.33579 1.5 3 1.83579 3 2.25V21.75C3 22.1642 3.33579 22.5 3.75 22.5H20.25C20.6642 22.5 21 22.1642 21 21.75V2.25C21 1.83579 20.6642 1.5 20.25 1.5H3.75Z" fill="currentColor"/>
</svg>
