<svg width="24" height="24" viewBox="0 0 24 24"  xmlns="http://www.w3.org/2000/svg">
<g clip-path="url(#clip0_865_2501)">
<path d="M19.5 3H22.5C23.4 3 24 3.6 24 4.5V13H21V9H3V21H10V24H1.5C0.6 24 0 23.4 0 22.5V4.5C0 3.6 0.6 3 1.5 3H4.5V1.5C4.5 0.6 5.1 0 6 0H7.5C8.4 0 9 0.6 9 1.5V3H15V1.5C15 0.6 15.6 0 16.5 0H18C18.9 0 19.5 0.6 19.5 1.5V3ZM16.3814 24C15.9522 23.9999 15.5406 23.8337 15.2371 23.5379L12 20.3839L14.2886 18.154L16.3814 20.1931L21.7114 15L24 17.2299L17.5258 23.5379C17.2223 23.8337 16.8107 23.9999 16.3814 24Z" fill="currentColor"/>
</g>
<defs>
<clipPath id="clip0_865_2501">
<rect width="24" height="24" fill="currentColor"/>
</clipPath>
</defs>
</svg>
