<svg width="24" height="24" viewBox="0 0 24 24"  xmlns="http://www.w3.org/2000/svg">
<g clip-path="url(#clip0_865_2495)">
<path fill-rule="evenodd" clip-rule="evenodd" d="M7.5 0.75C7.5 0.335786 7.16421 0 6.75 0C6.33579 0 6 0.335786 6 0.75V3H2.25C1.65326 3 1.08097 3.23705 0.65901 3.65901C0.237053 4.08097 0 4.65326 0 5.25V21.75C0 22.3467 0.237053 22.919 0.65901 23.341C1.08097 23.7629 1.65326 24 2.25 24H9.75C10.1642 24 10.5 23.6642 10.5 23.25C10.5 22.8358 10.1642 22.5 9.75 22.5H2.25C2.05109 22.5 1.86032 22.421 1.71967 22.2803C1.57902 22.1397 1.5 21.9489 1.5 21.75V9H22.5V12.75C22.5 13.1642 22.8358 13.5 23.25 13.5C23.6642 13.5 24 13.1642 24 12.75V5.25C24 4.65326 23.7629 4.08097 23.341 3.65901C22.919 3.23705 22.3467 3 21.75 3H18V0.75C18 0.335786 17.6642 0 17.25 0C16.8358 0 16.5 0.335786 16.5 0.75V3H7.5V0.75ZM21.75 4.5C21.9489 4.5 22.1397 4.57902 22.2803 4.71967C22.421 4.86032 22.5 5.05109 22.5 5.25V7.5H1.5V5.25C1.5 5.05109 1.57902 4.86032 1.71967 4.71967C1.86032 4.57902 2.05109 4.5 2.25 4.5H21.75Z" fill="currentColor"/>
<path d="M23.7803 17.7803C24.0732 17.4874 24.0732 17.0126 23.7803 16.7197C23.4874 16.4268 23.0126 16.4268 22.7197 16.7197L17.25 22.1893L14.7803 19.7197C14.4874 19.4268 14.0126 19.4268 13.7197 19.7197C13.4268 20.0126 13.4268 20.4874 13.7197 20.7803L16.7197 23.7803C17.0126 24.0732 17.4874 24.0732 17.7803 23.7803L23.7803 17.7803Z" fill="currentColor"/>
</g>
<defs>
<clipPath id="clip0_865_2495">
<rect width="24" height="24" fill="currentColor"/>
</clipPath>
</defs>
</svg>
