<svg width="24" height="24" viewBox="0 0 24 24"  xmlns="http://www.w3.org/2000/svg">
<g clip-path="url(#clip0_865_2529)">
<path fill-rule="evenodd" clip-rule="evenodd" d="M7.5 0.75C7.5 0.335786 7.16421 0 6.75 0C6.33579 0 6 0.335786 6 0.75V3H2.25C1.65326 3 1.08097 3.23705 0.65901 3.65901C0.237053 4.08097 0 4.65326 0 5.25V21.75C0 22.3467 0.237053 22.919 0.65901 23.341C1.08097 23.7629 1.65326 24 2.25 24H9.75C10.1642 24 10.5 23.6642 10.5 23.25C10.5 22.8358 10.1642 22.5 9.75 22.5H2.25C2.05109 22.5 1.86032 22.421 1.71967 22.2803C1.57902 22.1397 1.5 21.9489 1.5 21.75V9H23.25C23.6642 9 24 8.66421 24 8.25V5.25C24 4.65326 23.7629 4.08097 23.341 3.65901C22.919 3.23705 22.3467 3 21.75 3H18V0.75C18 0.335786 17.6642 0 17.25 0C16.8358 0 16.5 0.335786 16.5 0.75V3H7.5V0.75ZM21.75 4.5C21.9489 4.5 22.1397 4.57902 22.2803 4.71967C22.421 4.86032 22.5 5.05109 22.5 5.25V7.5H1.5V5.25C1.5 5.05109 1.57902 4.86032 1.71967 4.71967C1.86032 4.57902 2.05109 4.5 2.25 4.5H21.75Z" fill="currentColor"/>
<path d="M17.25 13.5C17.6642 13.5 18 13.8358 18 14.25V16.5H20.25C20.6642 16.5 21 16.8358 21 17.25C21 17.6642 20.6642 18 20.25 18H18V20.25C18 20.6642 17.6642 21 17.25 21C16.8358 21 16.5 20.6642 16.5 20.25V18H14.25C13.8358 18 13.5 17.6642 13.5 17.25C13.5 16.8358 13.8358 16.5 14.25 16.5H16.5V14.25C16.5 13.8358 16.8358 13.5 17.25 13.5Z" fill="currentColor"/>
<path fill-rule="evenodd" clip-rule="evenodd" d="M17.25 10.5C13.5221 10.5 10.5 13.5221 10.5 17.25C10.5 20.9779 13.5221 24 17.25 24C20.9779 24 24 20.9779 24 17.25C24 13.5221 20.9779 10.5 17.25 10.5ZM12 17.25C12 14.3505 14.3505 12 17.25 12C20.1495 12 22.5 14.3505 22.5 17.25C22.5 20.1495 20.1495 22.5 17.25 22.5C14.3505 22.5 12 20.1495 12 17.25Z" fill="currentColor"/>
</g>
<defs>
<clipPath id="clip0_865_2529">
<rect width="24" height="24" fill="currentColor"/>
</clipPath>
</defs>
</svg>
