<svg width="24" height="24" viewBox="0 0 24 24"  xmlns="http://www.w3.org/2000/svg">
<g clip-path="url(#clip0_865_2521)">
<path d="M21.75 3H18V0.75C18 0.3 17.7 0 17.25 0C16.8 0 16.5 0.3 16.5 0.75V3H7.5V0.75C7.5 0.3 7.2 0 6.75 0C6.3 0 6 0.3 6 0.75V3H2.25C1.05 3 0 4.05 0 5.25V21.75C0 22.95 1.05 24 2.25 24H21.75C22.95 24 24 22.95 24 21.75V5.25C24 4.05 22.95 3 21.75 3ZM22.5 21.75C22.5 22.2 22.2 22.5 21.75 22.5H2.25C1.8 22.5 1.5 22.2 1.5 21.75V9H22.5V21.75ZM22.5 7.5H1.5V5.25C1.5 4.8 1.8 4.5 2.25 4.5H21.75C22.2 4.5 22.5 4.8 22.5 5.25V7.5Z" fill="currentColor"/>
</g>
<defs>
<clipPath id="clip0_865_2521">
<rect width="24" height="24" fill="currentColor"/>
</clipPath>
</defs>
</svg>
