<svg width="24" height="24" viewBox="0 0 24 24"  xmlns="http://www.w3.org/2000/svg">
<g clip-path="url(#clip0_865_2509)">
<path fill-rule="evenodd" clip-rule="evenodd" d="M6.75 0C7.16421 0 7.5 0.335786 7.5 0.75V3H16.5V0.75C16.5 0.335786 16.8358 0 17.25 0C17.6642 0 18 0.335786 18 0.75V3H21.75C22.3467 3 22.919 3.23705 23.341 3.65901C23.7629 4.08097 24 4.65326 24 5.25V8.25C24 8.66421 23.6642 9 23.25 9H1.5V21.75C1.5 21.9489 1.57902 22.1397 1.71967 22.2803C1.86032 22.421 2.05109 22.5 2.25 22.5H9.75C10.1642 22.5 10.5 22.8358 10.5 23.25C10.5 23.6642 10.1642 24 9.75 24H2.25C1.65326 24 1.08097 23.7629 0.65901 23.341C0.237053 22.919 0 22.3467 0 21.75V5.25C0 4.65326 0.237053 4.08097 0.65901 3.65901C1.08097 3.23705 1.65326 3 2.25 3H6V0.75C6 0.335786 6.33579 0 6.75 0ZM2.25 4.5C2.05109 4.5 1.86032 4.57902 1.71967 4.71967C1.57902 4.86032 1.5 5.05109 1.5 5.25V7.5H22.5V5.25C22.5 5.05109 22.421 4.86032 22.2803 4.71967C22.1397 4.57902 21.9489 4.5 21.75 4.5H2.25Z" fill="currentColor"/>
<path d="M18 14.25C18 13.8358 17.6642 13.5 17.25 13.5C16.8358 13.5 16.5 13.8358 16.5 14.25V17.25C16.5 17.6642 16.8358 18 17.25 18H20.25C20.6642 18 21 17.6642 21 17.25C21 16.8358 20.6642 16.5 20.25 16.5H18V14.25Z" fill="currentColor"/>
<path fill-rule="evenodd" clip-rule="evenodd" d="M10.5 17.25C10.5 13.5221 13.5221 10.5 17.25 10.5C20.9779 10.5 24 13.5221 24 17.25C24 20.9779 20.9779 24 17.25 24C13.5221 24 10.5 20.9779 10.5 17.25ZM17.25 12C14.3505 12 12 14.3505 12 17.25C12 20.1495 14.3505 22.5 17.25 22.5C20.1495 22.5 22.5 20.1495 22.5 17.25C22.5 14.3505 20.1495 12 17.25 12Z" fill="currentColor"/>
</g>
<defs>
<clipPath id="clip0_865_2509">
<rect width="24" height="24" fill="currentColor"/>
</clipPath>
</defs>
</svg>
