<svg width="24" height="24" viewBox="0 0 24 24"  xmlns="http://www.w3.org/2000/svg">
<g clip-path="url(#clip0_865_1558)">
<path fill-rule="evenodd" clip-rule="evenodd" d="M4.01949 0.0647334C4.44381 -0.0413453 4.88033 -0.0202111 5.29451 0.157288C5.75099 0.352922 6.07694 0.727895 6.31452 1.12039C6.51099 1.42606 7.03794 2.2481 7.89478 3.58558C8.35441 4.30304 8.69507 4.98228 8.88531 5.61641C9.07407 6.24559 9.13015 6.88349 8.95098 7.48039C8.72332 8.29506 8.34428 9.05945 7.66264 9.46072C7.65326 9.51283 7.64591 9.63824 7.69648 9.8694L7.70103 9.89024C7.78665 10.3326 8.10119 10.9572 8.78287 11.7792C9.49912 12.6429 10.0274 13.2404 10.3775 13.5905C10.7471 13.9601 11.3538 14.4927 12.2156 15.1968C13.0371 15.8681 13.672 16.1989 14.1335 16.3039C14.363 16.3538 14.4877 16.3464 14.5396 16.337C14.9368 15.6621 15.6937 15.2694 16.5082 15.0205L16.5298 15.0139C17.6846 14.6931 19.035 15.2161 20.4102 16.0864C21.7173 16.9135 22.5571 17.456 22.8979 17.6963C23.2836 17.9328 23.65 18.2557 23.8427 18.7051C24.0202 19.1194 24.0414 19.5561 23.9352 19.9805L23.9232 20.0286L23.4617 21.2649C23.0688 22.3172 22.2644 23.0885 21.1751 23.6084L21.1635 23.6139C20.1437 24.0825 18.9494 24.1002 17.6594 23.7981C16.4008 23.5032 15.1092 23.003 13.7861 22.3084C12.4758 21.6205 11.2007 20.8192 9.96071 19.9056C8.72788 18.9972 7.66662 18.1015 6.78264 17.2175C5.89865 16.3336 5.00296 15.2723 4.09455 14.0395C3.18089 12.7996 2.3796 11.5245 1.69168 10.2142C0.997029 8.89107 0.496768 7.5995 0.201932 6.3408C-0.100242 5.05077 -0.0824524 3.8564 0.38616 2.83649L0.39154 2.82478C0.911494 1.73538 1.68296 0.931091 2.73516 0.538278L3.9714 0.0767561L4.01949 0.0647334Z" fill="currentColor"/>
</g>
<defs>
<clipPath id="clip0_865_1558">
<rect width="24" height="24" fill="currentColor"/>
</clipPath>
</defs>
</svg>
