<svg width="24" height="24" viewBox="0 0 24 24"  xmlns="http://www.w3.org/2000/svg">
<g clip-path="url(#clip0_865_1568)">
<path fill-rule="evenodd" clip-rule="evenodd" d="M21.8008 9.37389C21.8008 9.37389 22.5449 6.26431 22.3925 6.00021C22.2394 5.73552 21.9868 5.54407 21.6912 5.46879L19.1747 4.82531L18.5311 2.30834C18.4559 2.01328 18.2644 1.76072 18.0004 1.60797C17.736 1.45544 17.4221 1.41615 17.1286 1.49782L14.6261 2.19921L12.8104 0.341028C12.597 0.122843 12.305 0 12 0C11.695 0 11.403 0.122843 11.1897 0.340852L9.37388 2.19921L6.87235 1.49809C6.57865 1.41561 6.26416 1.45511 5.99988 1.60778C5.73558 1.76072 5.54412 2.01328 5.46882 2.30872L4.82531 4.82531L2.30834 5.46891C2.01324 5.54407 1.76062 5.73552 1.60783 5.99956C1.45514 6.26431 1.41566 6.57868 1.49794 6.87232L2.1992 9.37389L0.341028 11.1896C0.122843 11.403 0 11.695 0 12C0 12.305 0.122843 12.597 0.340852 12.8103L2.1992 14.6261L1.49796 17.1276C1.41566 17.4213 1.45514 17.7357 1.60746 17.9998C1.76059 18.2644 2.01315 18.4559 2.30858 18.5312L4.82532 19.1748L5.46891 21.6917C5.54407 21.9868 5.73552 22.2394 5.99956 22.3922C6.26417 22.5448 6.57838 22.5842 6.87192 22.5022L9.37389 21.8009L11.1896 23.659C11.4029 23.8771 11.6951 24 12 24C12.3049 24 12.5971 23.8771 12.8103 23.6591L14.6261 21.8009L17.1276 22.5021C17.4212 22.5845 17.7353 22.5449 17.9996 22.3926C18.2645 22.2394 18.4559 21.9868 18.5312 21.6912L19.1747 19.1748L21.6918 18.5311C21.9869 18.4559 22.2394 18.2644 22.3922 18.0004C22.5449 17.7357 22.5843 17.4213 22.5021 17.1277L21.8008 14.6261L23.659 12.8104C23.8772 12.597 24 12.305 24 12C24 11.695 23.8772 11.403 23.6591 11.1897L21.8008 9.37389ZM9.06638 6.81865C8.88518 6.741 8.6942 6.73175 8.50855 6.77816L8.48751 6.78342L7.94665 6.98534C7.48631 7.1572 7.14878 7.50908 6.9213 7.9857L6.91895 7.99082C6.71393 8.43704 6.70614 8.95959 6.83835 9.52398C6.96734 10.0747 7.18621 10.6397 7.49012 11.2186C7.79109 11.7919 8.14166 12.3497 8.54139 12.8922C8.93883 13.4316 9.3307 13.8959 9.71745 14.2826C10.1042 14.6694 10.5685 15.0612 11.1079 15.4587C11.6504 15.8584 12.2082 16.2089 12.7815 16.5099C13.3604 16.8138 13.9254 17.0327 14.4761 17.1616C15.0405 17.2938 15.563 17.2861 16.0092 17.0811L16.0142 17.0787C16.4908 16.8512 16.8428 16.5137 17.0146 16.0534L17.2166 15.5125L17.2218 15.4914C17.2683 15.3057 17.259 15.1147 17.1813 14.9335C17.0971 14.7368 16.9367 14.5956 16.768 14.4921C16.6189 14.3869 16.2515 14.1496 15.6796 13.7877C15.0779 13.407 14.4871 13.1782 13.9819 13.3185L13.9725 13.3214C13.6161 13.4303 13.2849 13.6021 13.1112 13.8974C13.0885 13.9015 13.0339 13.9047 12.9335 13.8829C12.7316 13.837 12.4538 13.6922 12.0944 13.3986C11.7173 13.0905 11.4519 12.8575 11.2902 12.6958C11.137 12.5426 10.9059 12.2812 10.5926 11.9033C10.2943 11.5437 10.1567 11.2704 10.1193 11.0769L10.1173 11.0678C10.0951 10.9666 10.0984 10.9118 10.1025 10.889C10.4007 10.7134 10.5665 10.379 10.6661 10.0226C10.7445 9.76141 10.72 9.48233 10.6374 9.20706C10.5542 8.92962 10.4051 8.63245 10.204 8.31856C9.82915 7.7334 9.5986 7.37375 9.51264 7.24002C9.4087 7.0683 9.2661 6.90425 9.06638 6.81865Z" fill="currentColor"/>
</g>
<defs>
<clipPath id="clip0_865_1568">
<rect width="24" height="24" fill="currentColor"/>
</clipPath>
</defs>
</svg>
