<svg width="24" height="24" viewBox="0 0 24 24"  xmlns="http://www.w3.org/2000/svg">
<g clip-path="url(#clip0_865_1553)">
<path fill-rule="evenodd" clip-rule="evenodd" d="M4.25316 0H4.93546C5.95891 0 6.81179 0.5 7.32351 1.16667C8.51754 2.83333 10.0527 5 10.0527 6.5C10.2233 8 9.54099 9 8.85869 9.66667C9.19983 10.5 9.88213 11.5 11.2467 12.8333C12.2915 14 13.3363 14.6563 13.924 15.0254C14.0079 15.0781 14.0825 15.125 14.1465 15.1667C14.6582 14.6667 15.3405 14.1667 16.364 14H17.2169C18.9226 14 20.4578 14.8333 23.0164 16.8333C23.8693 17.5 24.2104 18.6667 23.8693 20C23.3575 21.8333 21.8224 23.6667 19.4343 24H18.752C15.5111 24 10.3939 21.1667 6.81179 17.5C3.05914 13.5 0.841669 9.83333 0.159369 6.33333C-0.52293 3.16667 1.01224 0.833333 4.25316 0ZM5.95891 2.16667C5.78834 2 5.44719 1.66667 4.93546 1.66667H4.59431C4.56347 1.67671 4.52332 1.68858 4.4753 1.70277C3.72667 1.92401 1.06366 2.71099 1.86512 6C2.54742 9.66667 5.10604 13.1667 8.17639 16.3333C11.5879 19.8333 16.1934 22.3333 18.9226 22.3333H19.4343C21.9929 21.8333 23.0164 18.8333 22.1635 18.1667C19.7755 16.3333 18.5814 15.6667 17.3874 15.6667H16.8757C15.5111 15.8333 14.9994 17.1667 14.9994 17.1667C14.9994 17.1667 12.6113 16.6667 10.0527 14C7.15294 11.1667 6.81179 9.16667 6.81179 9.16667C7.83524 8.5 8.34696 7.83333 8.34696 6.66667C8.34696 5.5 6.47064 2.83333 5.95891 2.16667Z" fill="currentColor"/>
</g>
<defs>
<clipPath id="clip0_865_1553">
<rect width="24" height="24" fill="currentColor"/>
</clipPath>
</defs>
</svg>
