<svg width="24" height="24" viewBox="0 0 24 24"  xmlns="http://www.w3.org/2000/svg">
<path d="M8.35687 7.57514C8.64977 7.28225 9.12464 7.28225 9.41753 7.57514L12.5729 10.7305H9.26221C7.60535 10.7305 6.26221 12.0736 6.26221 13.7305C6.26221 15.3873 7.60535 16.7305 9.26221 16.7305C9.67642 16.7305 10.0122 17.0662 10.0122 17.4805C10.0122 17.8947 9.67642 18.2305 9.26221 18.2305C6.77692 18.2305 4.76221 16.2157 4.76221 13.7305C4.76221 11.3463 6.61639 9.39512 8.96144 9.24036L8.35687 8.6358C8.06398 8.34291 8.06398 7.86803 8.35687 7.57514ZM15.6425 19.8858C15.3497 20.1787 14.8748 20.1787 14.5819 19.8858L11.4265 16.7305H14.7372C16.3941 16.7305 17.7372 15.3873 17.7372 13.7305C17.7372 12.0736 16.3941 10.7305 14.7372 10.7305C14.323 10.7305 13.9872 10.3947 13.9872 9.98046C13.9872 9.56625 14.323 9.23046 14.7372 9.23046C17.2224 9.23046 19.2372 11.2452 19.2372 13.7305C19.2372 16.1146 17.3831 18.0658 15.038 18.2206L15.6425 18.8251C15.9354 19.1181 15.9354 19.593 15.6425 19.8858Z" fill="currentColor"/>
<path fill-rule="evenodd" clip-rule="evenodd" d="M18.75 5.5L16.2 1.6C15.9 1.3 15.45 1 15 1H9C8.55 1 8.1 1.3 7.8 1.6L5.25 5.5H1.5C0.6 5.5 0 6.1 0 7V21.5C0 22.4 0.6 23 1.5 23H22.5C23.4 23 24 22.4 24 21.5V7C24 6.1 23.4 5.5 22.5 5.5H18.75ZM15.048 2.57904L17.9387 7H22.5V21.5H1.5V7H6.06141L8.95205 2.57904L8.96535 2.56862C9.00285 2.53978 9.03598 2.51856 9.06203 2.50435L9.07018 2.5H14.9298L14.938 2.50435C14.964 2.51856 14.9971 2.53978 15.0346 2.56862L15.048 2.57904Z" fill="currentColor"/>
</svg>
