<svg width="24" height="24" viewBox="0 0 24 24"  xmlns="http://www.w3.org/2000/svg">
<path fill-rule="evenodd" clip-rule="evenodd" d="M18 13.5001C18 16.8139 15.3137 19.5001 12 19.5001C8.68629 19.5001 6 16.8139 6 13.5001C6 10.1864 8.68629 7.50014 12 7.50014C15.3137 7.50014 18 10.1864 18 13.5001ZM16.5 13.5001C16.5 15.9854 14.4853 18.0001 12 18.0001C9.51472 18.0001 7.5 15.9854 7.5 13.5001C7.5 11.0149 9.51472 9.00014 12 9.00014C14.4853 9.00014 16.5 11.0149 16.5 13.5001ZM18.75 5.5L16.2 1.6C15.9 1.3 15.45 1 15 1H9C8.55 1 8.1 1.3 7.8 1.6L5.25 5.5H1.5C0.6 5.5 0 6.1 0 7V21.5001C0 22.4001 0.6 23.0001 1.5 23.0001H22.5C23.4 23.0001 24 22.4001 24 21.5001V7C24 6.1 23.4 5.5 22.5 5.5H18.75ZM15.048 2.57904L17.9387 7H22.5V21.5001H1.5V7H6.06141L8.95205 2.57904L8.96535 2.56862C9.00285 2.53978 9.03598 2.51856 9.06203 2.50435L9.07018 2.5H14.9298L14.938 2.50435C14.964 2.51856 14.9971 2.53978 15.0346 2.56862L15.048 2.57904Z" fill="currentColor"/>
</svg>
