<svg width="24" height="24" viewBox="0 0 24 24"  xmlns="http://www.w3.org/2000/svg">
<path d="M16.5 13.9999C16.5 16.4852 14.4853 18.4999 12 18.4999C9.51472 18.4999 7.5 16.4852 7.5 13.9999C7.5 11.5146 9.51472 9.49987 12 9.49987C14.4853 9.49987 16.5 11.5146 16.5 13.9999Z" fill="currentColor"/>
<path fill-rule="evenodd" clip-rule="evenodd" d="M22.5 5.5H18.75L16.2 1.6C15.9 1.3 15.45 1 15 1H9C8.55 1 8.1 1.3 7.8 1.6L5.25 5.5H1.5C0.6 5.5 0 6.1 0 7V21.4999C0 22.3999 0.6 22.9999 1.5 22.9999H22.5C23.4 22.9999 24 22.3999 24 21.4999V7C24 6.1 23.4 5.5 22.5 5.5ZM18 13.9999C18 17.3136 15.3137 19.9999 12 19.9999C8.68629 19.9999 6 17.3136 6 13.9999C6 10.6862 8.68629 7.99987 12 7.99987C15.3137 7.99987 18 10.6862 18 13.9999Z" fill="currentColor"/>
</svg>
