<svg width="24" height="24" viewBox="0 0 24 24"  xmlns="http://www.w3.org/2000/svg">
<path fill-rule="evenodd" clip-rule="evenodd" d="M18.75 5.5H22.5C23.4 5.5 24 6.1 24 7V21.5C24 22.4 23.4 23 22.5 23H1.5C0.6 23 0 22.4 0 21.5V7C0 6.1 0.6 5.5 1.5 5.5H5.25L7.8 1.6C8.1 1.3 8.55 1 9 1H15C15.45 1 15.9 1.3 16.2 1.6L18.75 5.5ZM9.1875 10.9503H12.9375L9.1875 7.2003V9.0753C6.60281 9.0753 4.5 11.1781 4.5 13.7628C4.5 16.3475 6.60281 18.4503 9.1875 18.4503V16.5753C7.63688 16.5753 6.375 15.3134 6.375 13.7628C6.375 12.2122 7.63688 10.9503 9.1875 10.9503ZM14.8125 9.0753V10.9503C16.3631 10.9503 17.625 12.2122 17.625 13.7628C17.625 15.3134 16.3631 16.5753 14.8125 16.5753H11.0625L14.8125 20.3253V18.4503C17.3972 18.4503 19.5 16.3475 19.5 13.7628C19.5 11.1781 17.3972 9.0753 14.8125 9.0753Z" fill="currentColor"/>
</svg>
