<svg width="24" height="24" viewBox="0 0 24 24"  xmlns="http://www.w3.org/2000/svg">
<g clip-path="url(#clip0_865_4391)">
<path d="M23.55 12.45L22.35 11.25L20.85 1.2C20.85 0.6 20.25 0 19.5 0H4.5C3.75 0 3.15 0.6 3 1.35L1.5 11.4L0.45 12.45C0.15 12.75 0 13.05 0 13.5V19.5C0 20.4 0.6 21 1.5 21V22.5C1.5 23.4 2.1 24 3 24H6C6.9 24 7.5 23.4 7.5 22.5V21H16.5V22.5C16.5 23.4 17.1 24 18 24H21C21.9 24 22.5 23.4 22.5 22.5V21C23.4 21 24 20.4 24 19.5V13.5C24 13.05 23.85 12.75 23.55 12.45ZM4.5 18C3.6 18 3 17.4 3 16.5C3 15.6 3.6 15 4.5 15C5.4 15 6 15.6 6 16.5C6 17.4 5.4 18 4.5 18ZM4.8 10.5L5.85 3H18.3L19.35 10.5H4.8ZM19.5 18C18.6 18 18 17.4 18 16.5C18 15.6 18.6 15 19.5 15C20.4 15 21 15.6 21 16.5C21 17.4 20.4 18 19.5 18Z" fill="currentColor"/>
</g>
<defs>
<clipPath id="clip0_865_4391">
<rect width="24" height="24" fill="currentColor"/>
</clipPath>
</defs>
</svg>
