<svg width="24" height="24" viewBox="0 0 24 24"  xmlns="http://www.w3.org/2000/svg">
<path d="M4.05 3.45C4.2 3.15 4.5 3 4.8 3H19.2C19.5 3 19.8 3.15 19.95 3.45L22.2 10.5H1.8L4.05 3.45ZM0 11.1C0 11.25 0 11.25 0 11.1V21.75C0 22.2 0.3 22.5 0.75 22.5H6.75C7.2 22.5 7.5 22.2 7.5 21.75V19.5H16.5V21.75C16.5 22.2 16.8 22.5 17.25 22.5H23.25C23.7 22.5 24 22.2 24 21.75V10.95L21.3 3C21 2.1 20.1 1.5 19.2 1.5H4.8C3.9 1.5 3 2.1 2.7 3L0 11.1ZM18 19.5H22.5V21H18V19.5ZM22.5 18H1.5V12H22.5V18ZM1.5 19.5H6V21H1.5V19.5ZM6 15C6 15.9 5.4 16.5 4.5 16.5C3.6 16.5 3 15.9 3 15C3 14.1 3.6 13.5 4.5 13.5C5.4 13.5 6 14.1 6 15ZM19.5 16.5C20.4 16.5 21 15.9 21 15C21 14.1 20.4 13.5 19.5 13.5C18.6 13.5 18 14.1 18 15C18 15.9 18.6 16.5 19.5 16.5Z" fill="currentColor"/>
</svg>
