<svg width="24" height="24" viewBox="0 0 24 24"  xmlns="http://www.w3.org/2000/svg">
<path fill-rule="evenodd" clip-rule="evenodd" d="M4.65713 0.25H1.00049V1.75001H3.34385L5.34386 16.75H20.6154L22.9153 5.25H20.3106L16.0001 0.939453L13.6753 3.26417L11.3506 0.939453L7.04009 5.25H6.75V6.75H21.0857L19.3857 15.25H6.65712L4.65713 0.25ZM9.16141 5.25H13.5399L11.3506 3.06077L9.16141 5.25ZM15.6612 5.25H18.1893L16.0001 3.06077L14.736 4.32483L15.6612 5.25ZM6.99951 18.25C5.48073 18.25 4.24951 19.4812 4.24951 21.0001C4.24951 22.5189 5.48073 23.75 6.99951 23.75C8.51829 23.75 9.7495 22.5189 9.7495 21.0001C9.7495 19.4812 8.51829 18.25 6.99951 18.25ZM5.74951 21.0001C5.74951 20.3097 6.30915 19.75 6.99951 19.75C7.68987 19.75 8.2495 20.3097 8.2495 21.0001C8.2495 21.6904 7.68987 22.25 6.99951 22.25C6.30915 22.25 5.74951 21.6904 5.74951 21.0001ZM16.2495 21.0001C16.2495 19.4812 17.4807 18.25 18.9995 18.25C20.5184 18.25 21.7496 19.4812 21.7496 21.0001C21.7496 22.5189 20.5184 23.75 18.9995 23.75C17.4807 23.75 16.2495 22.5189 16.2495 21.0001ZM18.9995 19.75C18.3092 19.75 17.7495 20.3097 17.7495 21.0001C17.7495 21.6904 18.3092 22.25 18.9995 22.25C19.6899 22.25 20.2496 21.6904 20.2496 21.0001C20.2496 20.3097 19.6899 19.75 18.9995 19.75Z" fill="currentColor"/>
</svg>
