<svg width="24" height="24" viewBox="0 0 24 24"  xmlns="http://www.w3.org/2000/svg">
<g clip-path="url(#clip0_865_2263)">
<path d="M0 0.75C0 0.3 0.3 0 0.75 0H5.25C5.7 0 6 0.3 6 0.6L7.5 13.5H19.8L22.35 6H9.75C9.3 6 9 5.7 9 5.25C9 4.8 9.3 4.5 9.75 4.5H23.25C23.55 4.5 23.7 4.65 23.85 4.8C24 4.95 24 5.25 24 5.55L21 14.55C20.85 14.85 20.55 15 20.25 15H6.75C6.3 15 6 14.7 6 14.4L4.65 1.5H0.75C0.3 1.5 0 1.2 0 0.75ZM7.5 19.5C6.6 19.5 6 20.1 6 21C6 21.9 6.6 22.5 7.5 22.5C8.4 22.5 9 21.9 9 21C9 20.1 8.4 19.5 7.5 19.5ZM4.5 21C4.5 19.35 5.85 18 7.5 18C9.15 18 10.5 19.35 10.5 21C10.5 22.65 9.15 24 7.5 24C5.85 24 4.5 22.65 4.5 21ZM18 21C18 20.1 18.6 19.5 19.5 19.5C20.4 19.5 21 20.1 21 21C21 21.9 20.4 22.5 19.5 22.5C18.6 22.5 18 21.9 18 21ZM19.5 18C17.85 18 16.5 19.35 16.5 21C16.5 22.65 17.85 24 19.5 24C21.15 24 22.5 22.65 22.5 21C22.5 19.35 21.15 18 19.5 18Z" fill="currentColor"/>
</g>
<defs>
<clipPath id="clip0_865_2263">
<rect width="24" height="24" fill="currentColor"/>
</clipPath>
</defs>
</svg>
