<svg width="24" height="24" viewBox="0 0 24 24"  xmlns="http://www.w3.org/2000/svg">
<path fill-rule="evenodd" clip-rule="evenodd" d="M2 17.9167C2.41421 17.9167 2.75 18.2525 2.75 18.6667V22.75H1.25V18.6667C1.25 18.2525 1.58579 17.9167 2 17.9167ZM8.66667 12.3611C9.08088 12.3611 9.41667 12.6969 9.41667 13.1111V22.75H7.91667V13.1111C7.91667 12.6969 8.25245 12.3611 8.66667 12.3611ZM15.3333 6.80556C15.7475 6.80556 16.0833 7.14134 16.0833 7.55556V22.75H14.5833V7.55556C14.5833 7.14134 14.9191 6.80556 15.3333 6.80556ZM22 1.25C22.4142 1.25 22.75 1.58579 22.75 2V22.75H21.25V2C21.25 1.58579 21.5858 1.25 22 1.25Z" fill="currentColor"/>
</svg>
