<svg width="24" height="24" viewBox="0 0 24 24"  xmlns="http://www.w3.org/2000/svg">
<g clip-path="url(#clip0_865_4718)">
<path d="M7.95029 16.05L9.00029 17.1L11.1003 15L10.0503 13.95C8.55029 12.45 8.55029 10.05 10.0503 8.55L14.5503 4.05C16.0503 2.55 18.4503 2.55 19.9503 4.05C21.4503 5.55 21.4503 7.95 19.9503 9.45L18.9003 10.5L21.0003 12.6L22.0503 11.55C24.7503 8.85 24.7503 4.65 22.0503 1.95C20.7003 0.75 19.0503 0 17.2503 0C15.4503 0 13.8003 0.6 12.4503 1.95L7.95029 6.45C5.25029 9.15 5.25029 13.35 7.95029 16.05ZM1.95029 22.0501C3.30029 23.2501 4.95029 24.0001 6.75029 24.0001C8.55029 24.0001 10.3503 23.2501 11.5503 22.0501L16.0503 17.5501C18.7503 14.8501 18.7503 10.6501 16.0503 7.95015L15.0003 6.90015L12.9003 9.00015L13.9503 10.0501C15.4503 11.5501 15.4503 13.9501 13.9503 15.4501L9.45029 19.9501C7.95029 21.4501 5.55029 21.4501 4.05029 19.9501C2.55029 18.4501 2.55029 16.0501 4.05029 14.5501L5.10029 13.5001L3.00029 11.4001L1.95029 12.4501C-0.749706 15.1501 -0.749706 19.3501 1.95029 22.0501Z" fill="currentColor"/>
</g>
<defs>
<clipPath id="clip0_865_4718">
<rect width="24" height="24" fill="currentColor"/>
</clipPath>
</defs>
</svg>
