<svg width="24" height="24" viewBox="0 0 24 24"  xmlns="http://www.w3.org/2000/svg">
<g clip-path="url(#clip0_865_4712)">
<path fill-rule="evenodd" clip-rule="evenodd" d="M14.0232 3.5756C15.7913 1.80749 18.6569 1.80749 20.4251 3.5756C22.192 5.34246 22.1932 8.20532 20.4287 9.97373L17.8108 12.5168C17.5136 12.8054 17.5069 13.2802 17.7955 13.5773C18.0841 13.8744 18.5588 13.8813 18.856 13.5927L21.478 11.0457L21.4858 11.0381C23.8396 8.68419 23.8396 4.86882 21.4858 2.51493C19.1318 0.161039 15.3164 0.161039 12.9626 2.51493L9.97758 5.49993C7.62368 7.85382 7.62368 11.6692 9.97758 14.0231C10.2705 14.316 10.7453 14.316 11.0382 14.0231C11.3311 13.7302 11.3311 13.2553 11.0382 12.9624C9.27012 11.1943 9.27012 8.32869 11.0382 6.56058L14.0232 3.5756ZM14.0231 9.97742C13.7302 9.68453 13.2553 9.68453 12.9624 9.97742C12.6695 10.2703 12.6695 10.7452 12.9624 11.0381C14.7305 12.8062 14.7305 15.6718 12.9624 17.44L9.97743 20.425C8.20932 22.193 5.34369 22.193 3.5756 20.425C1.80872 18.658 1.80749 15.7952 3.57188 14.0268L6.18984 11.4837C6.48695 11.1951 6.49385 10.7203 6.20523 10.4232C5.91662 10.1261 5.44179 10.1192 5.14469 10.4078L2.52267 12.9548L2.51493 12.9624C0.161039 15.3163 0.161039 19.1317 2.51493 21.4856C4.86882 23.8394 8.68419 23.8394 11.0381 21.4856L14.0231 18.5006C16.3769 16.1467 16.3769 12.3313 14.0231 9.97742Z" fill="currentColor"/>
</g>
<defs>
<clipPath id="clip0_865_4712">
<rect width="24" height="24" fill="currentColor"/>
</clipPath>
</defs>
</svg>
