<svg width="24" height="24" viewBox="0 0 24 24"  xmlns="http://www.w3.org/2000/svg">
<g clip-path="url(#clip0_865_1923)">
<path fill-rule="evenodd" clip-rule="evenodd" d="M9 0.75C9 0.335787 9.33579 0 9.75 0H14.25C14.6642 0 15 0.335787 15 0.75V23.25C15 23.6642 14.6642 24 14.25 24H9.75C9.33579 24 9 23.6642 9 23.25V0.75ZM10.5 1.5V22.5H13.5V1.5H10.5ZM0 15.75C0 15.3358 0.335787 15 0.75 15H5.25C5.66421 15 6 15.3358 6 15.75V23.25C6 23.6642 5.66421 24 5.25 24H0.75C0.335787 24 0 23.6642 0 23.25V15.75ZM1.5 16.5V22.5H4.5V16.5H1.5ZM18.75 7.5C18.3358 7.5 18 7.83579 18 8.25V23.25C18 23.6642 18.3358 24 18.75 24H23.25C23.6642 24 24 23.6642 24 23.25V8.25C24 7.83579 23.6642 7.5 23.25 7.5H18.75ZM22.5 22.5H19.5V9H22.5V22.5Z" fill="currentColor"/>
</g>
<defs>
<clipPath id="clip0_865_1923">
<rect width="24" height="24" fill="currentColor"/>
</clipPath>
</defs>
</svg>
