<svg width="24" height="24" viewBox="0 0 24 24"  xmlns="http://www.w3.org/2000/svg">
<path fill-rule="evenodd" clip-rule="evenodd" d="M2.78068 13.4989C2.91772 13.5661 3.07592 13.5759 3.22018 13.526C3.52059 13.4164 3.67867 13.0862 3.57418 12.784C3.30718 12.009 3.16018 11.202 3.12018 10.382H6.47518L6.47825 10.5177C6.4838 10.7686 6.48939 11.0214 6.50718 11.267C6.53373 11.5823 6.80508 11.8201 7.12118 11.805C7.43913 11.7785 7.67594 11.5001 7.65118 11.182C7.63484 10.9671 7.63051 10.7475 7.6262 10.5287L7.62318 10.382H11.4032V11.506C11.4015 11.8252 11.658 12.0857 11.9772 12.089C12.2963 12.0857 12.5528 11.8252 12.5512 11.506V10.382H16.3242C16.3087 11.3139 16.2127 12.2427 16.0372 13.158C15.973 13.4711 16.1728 13.7775 16.4852 13.845C16.7977 13.9062 17.1008 13.7025 17.1622 13.39C17.3518 12.3981 17.4555 11.3917 17.4722 10.382H20.8272C20.7765 11.5635 20.4831 12.7219 19.9652 13.785C19.8232 14.0718 19.9376 14.4195 20.2222 14.566C20.3589 14.6337 20.5169 14.6443 20.6614 14.5953C20.8058 14.5464 20.9249 14.4419 20.9922 14.305C21.6592 12.9504 22.0042 11.4599 22.0002 9.95C22.0002 4.464 17.5032 0 11.9762 0C6.45018 0 1.95418 4.464 1.95418 9.95C1.95268 11.045 2.13383 12.1326 2.49018 13.168C2.53907 13.3126 2.64364 13.4317 2.78068 13.4989ZM20.8822 16.6368C20.2382 15.9198 19.0972 15.8548 18.2302 16.4918C17.3402 17.1468 14.9462 18.4198 13.8762 18.5108C12.7472 18.6078 9.77418 17.5328 9.59518 17.0178C9.71118 16.7928 10.1482 16.9028 11.1482 17.2468C11.8642 17.4938 12.6752 17.7728 13.5712 17.8488C14.9742 17.9668 15.6442 17.2788 15.8142 16.5948C16.0152 15.7858 15.5762 14.9128 14.7782 14.5588C12.1962 13.4078 9.73618 13.0458 7.46918 13.4838C4.08318 14.1368 0.820178 17.1888 0.683178 17.3188C0.451352 17.54 0.438477 17.9058 0.654178 18.1428C0.757026 18.2552 0.900653 18.3216 1.0529 18.3273C1.20515 18.3329 1.3533 18.2773 1.46418 18.1728C1.49518 18.1428 4.62518 15.2188 7.68418 14.6288C9.71918 14.2358 11.9502 14.5708 14.3302 15.6318C14.6312 15.7658 14.7572 16.0868 14.7022 16.3078C14.6312 16.5948 14.2432 16.7368 13.6672 16.6878C12.9112 16.6238 12.1702 16.3688 11.5172 16.1438L11.5143 16.1428C10.415 15.763 9.16666 15.3318 8.57718 16.4778C8.38618 16.8498 8.41818 17.2618 8.66618 17.6398C9.46418 18.8558 12.8252 19.7808 13.9732 19.6718C15.4532 19.5458 18.1332 18.0018 18.9032 17.4368C19.3332 17.1198 19.8162 17.1798 20.0352 17.4228C20.3082 17.7278 19.9762 18.1798 19.8212 18.3598C19.0912 19.2068 16.4632 21.9748 13.1162 21.8308C11.7382 21.7758 10.6122 21.4458 9.52218 21.1258C7.65818 20.5768 5.89718 20.0608 3.53818 21.2158C3.25193 21.359 3.1335 21.7053 3.27218 21.9938C3.33709 22.1317 3.45446 22.238 3.59815 22.2889C3.74184 22.3398 3.89992 22.3311 4.03718 22.2648C5.99918 21.3038 7.41418 21.7178 9.20418 22.2448L9.21201 22.2471C10.3121 22.5695 11.5588 22.9349 13.0712 22.9948C13.1642 22.9978 13.2552 22.9998 13.3452 22.9998C17.0512 22.9998 19.8892 20.0508 20.6852 19.1278C21.5652 18.1068 21.3422 17.1478 20.8822 16.6368ZM5.97217 3.5L5.97127 3.50082L5.97017 3.5H5.97217ZM5.97127 3.50082C6.41617 3.83163 6.88814 4.1244 7.38217 4.376C6.86717 5.768 6.55017 7.421 6.48017 9.217H3.14117C3.32911 7.02264 4.34014 4.98061 5.97127 3.50082ZM17.9802 3.5C19.6136 4.97902 20.6264 7.02159 20.8152 9.217H17.4732C17.4032 7.421 17.0862 5.769 16.5722 4.377C17.0652 4.12454 17.5362 3.83118 17.9802 3.5ZM12.5512 5.47005V9.21705H16.3252C16.2572 7.60805 15.9592 6.11205 15.5032 4.85205C14.5602 5.20505 13.5652 5.41205 12.5512 5.47005ZM8.81717 1.75098C8.43647 2.23326 8.11016 2.75609 7.84417 3.30998C7.52117 3.14198 7.20417 2.95998 6.90417 2.75198C7.49858 2.34146 8.14103 2.00529 8.81717 1.75098ZM11.4032 1.25586C10.4412 1.52186 9.56718 2.43886 8.90018 3.78186C9.70018 4.07486 10.5442 4.24886 11.4032 4.30386V1.25586ZM15.1383 1.75241C15.4969 2.1991 15.8205 2.72461 16.1092 3.31098C16.4322 3.14098 16.7482 2.95898 17.0492 2.75198C16.455 2.34264 15.8134 2.007 15.1383 1.75241ZM12.5512 1.25586V4.30486C13.4059 4.25054 14.2485 4.07408 15.0532 3.78086C14.3872 2.43886 13.5132 1.52286 12.5512 1.25586ZM11.4032 9.21603H7.62623C7.69731 7.60741 7.99329 6.11277 8.45019 4.85303C9.39806 5.20546 10.3935 5.41344 11.4032 5.47003V9.21603Z" fill="currentColor"/>
</svg>
