<svg width="24" height="24" viewBox="0 0 24 24"  xmlns="http://www.w3.org/2000/svg">
<path fill-rule="evenodd" clip-rule="evenodd" d="M10.9033 11.0833C11.2726 11.7149 11.7683 12.2603 12.3507 12.7003L8.89839 11.2053C8.519 10.3225 8.30762 9.35267 8.30762 8.33333C8.30762 4.28992 11.6206 1 15.6923 1C19.764 1 23.0769 4.28992 23.0769 8.33333C23.0769 11.8863 20.5191 14.8554 17.136 15.5246C16.7861 14.8838 16.2304 14.3604 15.5215 14.0753C15.5058 14.068 15.4892 14.0607 15.4735 14.0533L12.7458 12.8718C12.5399 12.3208 12.3701 11.7222 12.2501 11.0833H10.9033ZM14.1461 11.0833C14.5421 12.8204 15.2427 13.8333 15.6923 13.8333C16.1418 13.8333 16.8424 12.8204 17.2375 11.0833H14.1461ZM21.2308 8.33333C21.2308 8.02075 21.1984 7.7155 21.1477 7.41667H19.3541C19.3726 7.721 19.3846 8.02717 19.3846 8.33333C19.3846 8.6395 19.3726 8.94567 19.3551 9.25H21.1477C21.1984 8.95117 21.2308 8.64592 21.2308 8.33333ZM19.1344 5.58333H20.4812C20.0215 4.79592 19.3707 4.13408 18.5917 3.6565C18.8224 4.24225 19.0043 4.89217 19.1344 5.58333ZM20.4812 11.0833H19.1344C19.0043 11.7745 18.8224 12.4244 18.5917 13.0102C19.3707 12.5326 20.0206 11.8708 20.4812 11.0833ZM17.2384 5.58333C16.8424 3.84625 16.1418 2.83333 15.6923 2.83333C15.2427 2.83333 14.5421 3.84625 14.147 5.58333H17.2384ZM17.4987 7.41667H13.8858L13.8836 7.45051C13.8649 7.73633 13.8461 8.0238 13.8461 8.33333C13.8461 8.64286 13.8649 8.93034 13.8836 9.21616L13.8858 9.25H17.4987L17.501 9.21616C17.5196 8.93034 17.5384 8.64286 17.5384 8.33333C17.5384 8.0238 17.5196 7.73633 17.501 7.45051L17.4987 7.41667ZM12.2501 5.58333C12.3803 4.89217 12.5621 4.24225 12.7919 3.6565C12.0138 4.13408 11.363 4.79592 10.9033 5.58333H12.2501ZM11.9999 8.33333C11.9999 8.02717 12.0119 7.721 12.0304 7.41667H10.2369C10.1861 7.7155 10.1538 8.02075 10.1538 8.33333C10.1538 8.64592 10.1861 8.95117 10.2369 9.25H12.0304C12.0119 8.94567 11.9999 8.6395 11.9999 8.33333Z" fill="currentColor"/>
<path d="M14.736 15.7341L6.71265 12.2589L6.71128 12.2588C6.34753 12.09 5.94762 12 5.53837 12C5.17962 12 4.82804 12.0691 4.50169 12.2L0 13.8337V21.1671L3.89633 19.4859C4.35602 19.2879 4.87664 19.2815 5.34095 19.4703L13.7068 22.8647H13.7086C13.8938 22.9529 14.0983 23 14.3076 23C14.5504 23 14.7865 22.9367 14.9938 22.8193L14.9955 22.8189L23.2903 18.2429C23.4009 18.1816 23.5033 18.1045 23.5945 18.0139C23.8541 17.7561 24 17.4063 24 17.0417C24 16.677 23.8541 16.3273 23.5945 16.0694C23.3348 15.8115 22.9826 15.6667 22.6154 15.6667C22.4071 15.6667 22.2037 15.7133 22.0193 15.8006L15.6924 18.4171H14.3078C14.6749 18.417 15.0271 18.2718 15.2867 18.0139C15.5464 17.7561 15.6923 17.4063 15.6923 17.0417C15.6923 16.677 15.5464 16.3273 15.2867 16.0694C15.1309 15.9147 14.9418 15.8006 14.736 15.7341Z" fill="currentColor"/>
</svg>
