<svg width="24" height="24" viewBox="0 0 24 24"  xmlns="http://www.w3.org/2000/svg">
<g clip-path="url(#clip0_865_1573)">
<path fill-rule="evenodd" clip-rule="evenodd" d="M12.553 1.44966V12.0805L16.0966 9.50336H22.3785C23.1838 9.50336 23.8281 8.85906 23.8281 8.05369V1.44966C23.8281 0.644295 23.1838 0 22.3785 0H14.0026C13.1973 0 12.553 0.644295 12.553 1.44966ZM22.2174 7.73154H15.4523L14.1637 8.85906V1.61074H22.2174V7.73154ZM4.01626 0.805369H4.66056C5.627 0.805369 6.43237 1.28859 6.91559 1.93289C8.04311 3.54362 9.49277 5.63758 9.49277 7.08725C9.65385 8.53691 9.00955 9.50336 8.36526 10.1477C8.68741 10.953 9.3317 11.9195 10.6203 13.2081C11.6069 14.3356 12.5934 14.9698 13.1484 15.3266C13.2277 15.3775 13.2981 15.4228 13.3585 15.4631C13.8418 14.9799 14.4861 14.4966 15.4525 14.3356H16.2579C17.8686 14.3356 19.3183 15.1409 21.7344 17.0738C22.5398 17.7181 22.8619 18.8456 22.5398 20.1342C22.0565 21.906 20.6069 23.6779 18.3518 24H17.7075C14.6471 24 9.81492 21.2617 6.43237 17.7181C2.88875 13.8524 0.794787 10.3087 0.150492 6.92618C-0.493804 3.86577 0.955861 1.61074 4.01626 0.805369ZM5.627 2.89933C5.46593 2.73826 5.14378 2.41611 4.66056 2.41611H4.33841C4.30928 2.42582 4.27137 2.43728 4.22602 2.451C3.5191 2.66481 1.00441 3.42538 1.76123 6.60403C2.40553 10.1477 4.82163 13.5302 7.72096 16.5906C10.9424 19.9732 15.2914 22.3893 17.8686 22.3893H18.3518C20.7679 21.906 21.7344 19.0067 20.929 18.3624C18.674 16.5906 17.5465 15.9463 16.4189 15.9463H15.9357C14.6471 16.1074 14.1639 17.396 14.1639 17.396C14.1639 17.396 11.9089 16.9128 9.49277 14.3356C6.75452 11.5973 6.43237 9.66443 6.43237 9.66443C7.39881 9.02013 7.88204 8.37584 7.88204 7.24832C7.88204 6.12081 6.11022 3.54362 5.627 2.89933Z" fill="currentColor"/>
</g>
<defs>
<clipPath id="clip0_865_1573">
<rect width="24" height="24" fill="currentColor"/>
</clipPath>
</defs>
</svg>
