<svg width="24" height="24" viewBox="0 0 24 24"  xmlns="http://www.w3.org/2000/svg">
<g clip-path="url(#clip0_865_4522)">
<path d="M2.25 0C1.05 0 0 1.04729 0 2.24419V11.221C0 12.4179 1.05 13.4651 2.25 13.4651H4.5V17.2055C4.5 17.5047 4.65 17.8039 4.95 17.9535C5.25 18.1031 5.55 17.9535 5.7 17.8039L10.05 13.4651H15.75C16.95 13.4651 18 12.4179 18 11.221V2.24419C18 1.04729 16.95 0 15.75 0H2.25ZM1.5 2.24419C1.5 1.79535 1.8 1.49613 2.25 1.49613H15.75C16.2 1.49613 16.5 1.79535 16.5 2.24419V11.221C16.5 11.6698 16.2 11.969 15.75 11.969H9.75C9.6 11.969 9.3 12.1186 9.15 12.1186L6 15.4101V12.7171C6 12.2682 5.7 11.969 5.25 11.969H2.25C1.8 11.969 1.5 11.6698 1.5 11.221V2.24419ZM20.25 5.98451C19.8 5.98451 19.5 6.28373 19.5 6.73257C19.5 7.18141 19.8 7.48063 20.25 7.48063H21.75C22.2 7.48063 22.5 7.77986 22.5 8.2287V17.2055C22.5 17.6543 22.2 17.9535 21.75 17.9535H18.75C18.3 17.9535 18 18.2527 18 18.7016V21.3946L14.85 18.2527C14.7 18.1031 14.4 17.9535 14.25 17.9535H9.75C9.3 17.9535 9 18.2527 9 18.7016C9 19.1504 9.3 19.4496 9.75 19.4496H13.95L18.3 23.7884C18.45 23.938 18.9 24.0876 19.05 23.938C19.35 23.7884 19.5 23.4892 19.5 23.19V19.4496H21.75C22.95 19.4496 24 18.4024 24 17.2055V8.2287C24 7.0318 22.95 5.98451 21.75 5.98451H20.25Z" fill="currentColor"/>
</g>
<defs>
<clipPath id="clip0_865_4522">
<rect width="24" height="24" fill="currentColor"/>
</clipPath>
</defs>
</svg>
