<svg width="24" height="24" viewBox="0 0 24 24"  xmlns="http://www.w3.org/2000/svg">
<g clip-path="url(#clip0_865_4511)">
<path d="M0.229699 0.498368C0.539418 0.187597 1.04591 0.192025 1.36092 0.507699L23.4078 22.6342C23.7227 22.9503 23.7269 23.4585 23.4171 23.7695C23.1072 24.0805 22.6008 24.0763 22.2858 23.7601L0.238996 1.63471C-0.0760002 1.31858 -0.0801591 0.809334 0.229699 0.498368Z" fill="currentColor"/>
<path d="M14.5453 17.4722C14.6907 17.4722 14.9814 17.6181 15.1269 17.7636L18.1817 20.8211V18.2011C18.1817 17.959 18.2726 17.7631 18.4266 17.635L19.7158 18.929H19.6363V22.5692C19.6362 22.8602 19.491 23.1514 19.2003 23.297C19.0549 23.4426 18.6185 23.2964 18.4731 23.1508L14.254 18.929H10.1816C9.74537 18.929 9.4545 18.6377 9.45431 18.2011C9.45431 17.7642 9.74523 17.4722 10.1816 17.4722H14.5453Z" fill="currentColor"/>
<path d="M21.8181 5.82374C22.9818 5.82374 24 6.84345 24 8.00829V16.7444C24 17.8641 23.059 18.847 21.9524 18.9217L20.5082 17.4722H21.8181C22.2545 17.4722 22.5454 17.1812 22.5454 16.7444V8.00829C22.5454 7.57148 22.2545 7.28045 21.8181 7.28045H20.3636C19.9273 7.28045 19.6365 6.98923 19.6363 6.55261C19.6363 6.11579 19.9272 5.82374 20.3636 5.82374H21.8181Z" fill="currentColor"/>
<path d="M2.45007 1.60083C2.28185 1.72797 2.18147 1.93047 2.18147 2.18455V10.9207C2.18157 11.3573 2.47246 11.6485 2.90875 11.6485H5.81789C6.25422 11.6485 6.54511 11.9396 6.54518 12.3763V14.9974L9.59998 11.7937C9.7455 11.7935 10.0362 11.6485 10.1816 11.6485H12.4616L13.912 13.1042H10.4729L6.25385 17.3271C6.10832 17.4726 5.81732 17.6178 5.52657 17.4722C5.23598 17.3266 5.09061 17.0354 5.09061 16.7444V13.1042H2.90875C1.74517 13.1042 0.727026 12.0854 0.726902 10.9207V2.18455C0.726902 1.57134 1.00993 0.999266 1.44695 0.59409L2.45007 1.60083Z" fill="currentColor"/>
<path d="M15.9999 0C17.1635 0 18.1817 1.01971 18.1817 2.18455V10.9207C18.1816 12.0358 17.2482 13.0143 16.1476 13.0959L14.7054 11.6485H15.9999C16.4362 11.6485 16.7271 11.3573 16.7272 10.9207V2.18455C16.7272 1.74773 16.4362 1.45568 15.9999 1.45568H4.54928L3.09884 0H15.9999Z" fill="currentColor"/>
</g>
<defs>
<clipPath id="clip0_865_4511">
<rect width="24" height="24" fill="currentColor"/>
</clipPath>
</defs>
</svg>
