<svg width="24" height="24" viewBox="0 0 24 24"  xmlns="http://www.w3.org/2000/svg">
<g clip-path="url(#clip0_865_4528)">
<path fill-rule="evenodd" clip-rule="evenodd" d="M16.5 0H1.5C0.672 0 0 0.672 0 1.5V12C0 12.828 0.672 13.5 1.5 13.5H4.5V18L9 13.5H16.5C17.328 13.5 18 12.828 18 12V1.5C18 0.672 17.328 0 16.5 0ZM21 6H22.5C23.328 6 24 6.672 24 7.5V18C24 18.828 23.328 19.5 22.5 19.5H19.5V24L15 19.5H7.5L10.242 16.5H19.5C20.328 16.5 21 15.828 21 15V6Z" fill="currentColor"/>
</g>
<defs>
<clipPath id="clip0_865_4528">
<rect width="24" height="24" fill="currentColor"/>
</clipPath>
</defs>
</svg>
