<svg width="24" height="24" viewBox="0 0 24 24"  xmlns="http://www.w3.org/2000/svg">
<g clip-path="url(#clip0_865_4517)">
<path fill-rule="evenodd" clip-rule="evenodd" d="M0.229699 0.498531C-0.0801637 0.809498 -0.0759977 1.31787 0.239003 1.63399L22.2858 23.7601C22.6008 24.0763 23.1074 24.0805 23.4172 23.7695C23.7271 23.4585 23.7229 22.9502 23.4079 22.6341L1.36102 0.507869C1.04602 0.191742 0.539561 0.187562 0.229699 0.498531Z" fill="currentColor"/>
<path d="M19.7643 18.9777H19.6362V23.3572L15.2725 18.9777H7.99952L10.6587 16.058H16.8552L19.7643 18.9777Z" fill="currentColor"/>
<path d="M22.5454 5.83929C23.3483 5.83929 24 6.49329 24 7.29911V17.5179C24 18.3237 23.3483 18.9777 22.5454 18.9777H22.0082L19.099 16.058H19.6362C20.4392 16.058 21.0908 15.404 21.0908 14.5982V5.83929H22.5454Z" fill="currentColor"/>
<path d="M1.24002 0.348367C1.27375 0.404705 1.31256 0.459215 1.36102 0.507869L13.946 13.1384H9.45411L5.09034 17.5179V13.1384H2.18116C1.37823 13.1384 0.726572 12.4844 0.726572 11.6786V1.45982C0.726572 1.01442 0.926338 0.616202 1.24002 0.348367Z" fill="currentColor"/>
<path d="M16.7271 0C17.53 0 18.1816 0.654001 18.1816 1.45982V11.6786C18.1816 12.4844 17.53 13.1384 16.7271 13.1384H16.1898L3.09854 0H16.7271Z" fill="currentColor"/>
</g>
<defs>
<clipPath id="clip0_865_4517">
<rect width="24" height="24" fill="currentColor"/>
</clipPath>
</defs>
</svg>
