<svg width="24" height="24" viewBox="0 0 24 24"  xmlns="http://www.w3.org/2000/svg">
<g clip-path="url(#clip0_865_4511)">
<path fill-rule="evenodd" clip-rule="evenodd" d="M23.7657 1.36216C24.0781 1.05055 24.0781 0.545322 23.7657 0.23371C23.4533 -0.0779033 22.9467 -0.0779033 22.6343 0.23371L0.234315 22.5759C-0.078105 22.8875 -0.078105 23.3927 0.234315 23.7043C0.546734 24.0159 1.05327 24.0159 1.36569 23.7043L11.6314 13.4651H15.75C16.95 13.4651 18 12.4179 18 11.221V7.11296L23.7657 1.36216ZM16.5 8.60908L13.1314 11.969H15.75C16.2 11.969 16.5 11.6698 16.5 11.221V8.60908Z" fill="currentColor"/>
<path d="M15.75 0C16.6883 0 17.5349 0.640334 17.8595 1.49183L16.5 2.84786V2.24419C16.5 1.79535 16.2 1.49613 15.75 1.49613H2.25C1.8 1.49613 1.5 1.79535 1.5 2.24419V11.221C1.5 11.6698 1.8 11.969 2.25 11.969H5.25C5.7 11.969 6 12.2682 6 12.7171V13.3207L4.5 14.8169V13.4651H2.25C1.05 13.4651 0 12.4179 0 11.221V2.24419C0 1.04729 1.05 0 2.25 0H15.75ZM20.25 5.98451C19.8 5.98451 19.5 6.28373 19.5 6.73257C19.5 7.18141 19.8 7.48063 20.25 7.48063H21.75C22.2 7.48063 22.5 7.77986 22.5 8.2287V17.2055C22.5 17.6543 22.2 17.9535 21.75 17.9535H18.75C18.3 17.9535 18 18.2527 18 18.7016V21.3946L14.85 18.2527C14.7 18.1031 14.4 17.9535 14.25 17.9535H9.75C9.3 17.9535 9 18.2527 9 18.7016C9 19.1504 9.3 19.4496 9.75 19.4496H13.95L18.3 23.7884C18.45 23.938 18.9 24.0876 19.05 23.938C19.35 23.7884 19.5 23.4892 19.5 23.19V19.4496H21.75C22.95 19.4496 24 18.4024 24 17.2055V8.2287C24 7.0318 22.95 5.98451 21.75 5.98451H20.25Z" fill="currentColor"/>
</g>
<defs>
<clipPath id="clip0_865_4511">
<rect width="24" height="24" fill="currentColor"/>
</clipPath>
</defs>
</svg>
