<svg width="24" height="24" viewBox="0 0 24 24"  xmlns="http://www.w3.org/2000/svg">
<g clip-path="url(#clip0_865_4500)">
<path fill-rule="evenodd" clip-rule="evenodd" d="M9.75 0C4.49856 0 0 3.57212 0 8.25C0 9.87695 0.557802 11.384 1.5 12.6483V18C1.5 18.2841 1.66051 18.5438 1.91461 18.6708C2.16872 18.7979 2.47278 18.7704 2.70003 18.6L6.23987 15.9447C7.32962 16.3022 8.51232 16.5 9.75 16.5C15.0015 16.5 19.5 12.9279 19.5 8.25C19.5 3.57212 15.0015 0 9.75 0ZM1.5 8.25C1.5 4.64489 5.05944 1.5 9.75 1.5C14.4406 1.5 18 4.64489 18 8.25C18 11.8551 14.4406 15 9.75 15C8.54226 15 7.40048 14.7836 6.37014 14.4017C6.13108 14.3132 5.86341 14.352 5.65945 14.505L3 16.4999V12.393C3 12.2232 2.94238 12.0585 2.83659 11.9257C1.98436 10.856 1.5 9.59409 1.5 8.25ZM22.6681 9.33069C22.4325 8.99009 21.9653 8.90508 21.6246 9.14081C21.2841 9.37653 21.199 9.84374 21.4348 10.1843C22.1173 11.1706 22.5 12.3015 22.5 13.5C22.5 14.8455 22.0156 16.106 21.1633 17.1756C21.0576 17.3085 21 17.4732 21 17.643V21.8489L17.9884 19.8419C17.7963 19.7139 17.556 19.6815 17.3369 19.754C16.3814 20.0702 15.3419 20.25 14.25 20.25C11.9042 20.25 9.80444 19.4477 8.31342 18.1839C7.99743 17.916 7.52417 17.9552 7.25636 18.2711C6.98853 18.5871 7.02758 19.0604 7.34356 19.3281C9.11955 20.8334 11.5678 21.75 14.25 21.75C15.374 21.75 16.451 21.5844 17.4545 21.2886L21.334 23.8742C21.5641 24.0275 21.8601 24.0417 22.104 23.9112C22.3477 23.7807 22.5 23.5266 22.5 23.25V17.8983C23.4422 16.6343 24 15.1284 24 13.5C24 11.9715 23.5096 10.5464 22.6681 9.33069Z" fill="currentColor"/>
</g>
<defs>
<clipPath id="clip0_865_4500">
<rect width="24" height="24" fill="currentColor"/>
</clipPath>
</defs>
</svg>
