<svg width="24" height="24" viewBox="0 0 24 24"  xmlns="http://www.w3.org/2000/svg">
<g clip-path="url(#clip0_865_1578)">
<path d="M12.2642 1.45395V12.4624L15.8991 9.65837H22.4419C23.2452 9.65837 23.8958 9.00772 23.8958 8.20442V1.45395C23.8958 0.650642 23.2452 0 22.4419 0H13.7182C12.9149 0 12.2642 0.650642 12.2642 1.45395ZM4.95897 1.52403C4.56933 1.35553 4.15824 1.33543 3.75899 1.43615L3.71336 1.44766L2.55766 1.88301C1.57135 2.25456 0.850421 3.01434 0.365226 4.04012L0.360225 4.0511C-0.0768547 5.01099 -0.0935984 6.13505 0.188469 7.35014C0.463784 8.53613 0.930986 9.75336 1.57991 11.0006C2.22257 12.2358 2.97119 13.4378 3.82483 14.6068C4.67356 15.769 5.51047 16.7696 6.33652 17.6031C7.16259 18.4367 8.15433 19.2812 9.30642 20.1378C10.4652 20.9993 11.6569 21.755 12.8816 22.4038C14.1184 23.059 15.326 23.531 16.5033 23.8092C17.7105 24.0946 18.8299 24.0782 19.786 23.6349L19.797 23.6296C20.8172 23.1383 21.5686 22.4102 21.9351 21.4195L22.3662 20.2543L22.3774 20.2093C22.4761 19.8107 22.4565 19.4009 22.2912 19.0117C22.1116 18.5888 21.7693 18.284 21.4077 18.0602C21.089 17.8335 20.3042 17.322 19.0833 16.5424C18.4135 16.1147 17.7806 15.7963 17.1908 15.6147C16.6027 15.4338 16.0065 15.3733 15.4474 15.53L15.4269 15.5364C14.6644 15.7715 13.9563 16.1424 13.5849 16.7779C13.5364 16.7859 13.4226 16.7915 13.2152 16.746C12.7868 16.6477 12.195 16.337 11.4275 15.7042C10.6223 15.0404 10.0556 14.5384 9.71043 14.19C9.3834 13.8601 8.8899 13.2968 8.22068 12.4825C7.58406 11.7079 7.28953 11.1185 7.20922 10.6998L7.205 10.6804C7.15719 10.4598 7.16444 10.3402 7.1736 10.2905C7.8118 9.91092 8.16513 9.1901 8.37724 8.42416C8.70308 7.32906 8.21173 6.0506 7.39089 4.75771C6.5903 3.49673 6.09795 2.72172 5.91439 2.43356C5.69288 2.06427 5.38797 1.70954 4.95897 1.52403Z" fill="currentColor"/>
</g>
<defs>
<clipPath id="clip0_865_1578">
<rect width="24" height="24" fill="currentColor"/>
</clipPath>
</defs>
</svg>
