<svg width="24" height="24" viewBox="0 0 24 24"  xmlns="http://www.w3.org/2000/svg">
<g clip-path="url(#clip0_865_4505)">
<path fill-rule="evenodd" clip-rule="evenodd" d="M0 8.25C0 3.693 4.365 0 9.75 0C15.135 0 19.5 3.693 19.5 8.25C19.5 12.807 15.135 16.5 9.75 16.5C8.244 16.5 6.822 16.203 5.5485 15.687L1.5 18V12.633C0.555 11.361 0 9.8625 0 8.25ZM22.2792 10.2913C23.3562 11.4043 23.9997 12.7693 23.9997 14.2498C23.9997 15.6372 23.4402 16.9272 22.4817 17.9997H22.4997V23.9997L16.9602 20.8347C16.3287 20.9397 15.6732 20.9997 14.9997 20.9997C12.8337 20.9997 10.8462 20.4252 9.29223 19.4682C9.36262 19.4703 9.43177 19.477 9.5008 19.4838C9.58329 19.4917 9.66562 19.4997 9.74973 19.4997C15.9897 19.4997 21.1857 15.5217 22.2792 10.2913Z" fill="currentColor"/>
</g>
<defs>
<clipPath id="clip0_865_4505">
<rect width="24" height="24" fill="currentColor"/>
</clipPath>
</defs>
</svg>
