<svg width="24" height="24" viewBox="0 0 24 24"  xmlns="http://www.w3.org/2000/svg">
<g clip-path="url(#clip0_865_2087)">
<path fill-rule="evenodd" clip-rule="evenodd" d="M19 2H5C3.34315 2 2 3.34315 2 5V19C2 20.6569 3.34315 22 5 22H19C20.6569 22 22 20.6569 22 19V5C22 3.34315 20.6569 2 19 2ZM5 0C2.23858 0 0 2.23858 0 5V19C0 21.7614 2.23858 24 5 24H19C21.7614 24 24 21.7614 24 19V5C24 2.23858 21.7614 0 19 0H5Z" fill="currentColor"/>
</g>
<defs>
<clipPath id="clip0_865_2087">
<rect width="24" height="24" fill="currentColor"/>
</clipPath>
</defs>
</svg>
