<svg width="25" height="24" viewBox="0 0 25 24"  xmlns="http://www.w3.org/2000/svg">
<path d="M4.95793 19.0607C5.23917 19.342 5.62064 19.5001 6.01843 19.5002H6.16843C6.38947 19.4772 6.60264 19.4054 6.79253 19.29C6.98242 19.1745 7.14429 19.0183 7.26643 18.8327L16.2664 5.33269C16.4872 5.0017 16.5675 4.59656 16.4896 4.20639C16.4116 3.81622 16.1819 3.47299 15.8509 3.25219C15.5199 3.0314 15.1148 2.95114 14.7246 3.02906C14.3345 3.10698 13.9912 3.3367 13.7704 3.66769L5.78593 15.6467L2.57893 12.4397C2.44056 12.2964 2.27504 12.1822 2.09204 12.1035C1.90903 12.0249 1.7122 11.9835 1.51303 11.9818C1.31387 11.9801 1.11635 12.018 0.932001 12.0935C0.747657 12.1689 0.580179 12.2803 0.43934 12.4211C0.298501 12.5619 0.187121 12.7294 0.1117 12.9138C0.0362785 13.0981 -0.00167409 13.2956 5.66351e-05 13.4948C0.00178736 13.694 0.0431667 13.8908 0.12178 14.0738C0.200394 14.2568 0.314667 14.4223 0.457932 14.5607L4.95793 19.0607Z" fill="currentColor"/>
</svg>
