<svg width="24" height="24" viewBox="0 0 24 24"  xmlns="http://www.w3.org/2000/svg">
<path d="M17.7755 8.28509C18.0711 7.99484 18.0753 7.51999 17.7851 7.22447C17.4949 6.92895 17.02 6.92467 16.7245 7.21491L9.58366 14.2282L7.24325 12.185C6.93122 11.9126 6.45743 11.9447 6.18502 12.2568C5.91261 12.5688 5.94473 13.0426 6.25677 13.315L9.1204 15.815C9.41565 16.0727 9.85956 16.0597 10.1392 15.7851L17.7755 8.28509Z" fill="currentColor"/>
<path fill-rule="evenodd" clip-rule="evenodd" d="M1 3.25C1 2.00736 2.00736 1 3.25 1H20.75C21.9926 1 23 2.00736 23 3.25V20.75C23 21.9926 21.9926 23 20.75 23H3.25C2.00736 23 1 21.9926 1 20.75V3.25ZM3.25 2.5C2.83579 2.5 2.5 2.83579 2.5 3.25V20.75C2.5 21.1642 2.83579 21.5 3.25 21.5H20.75C21.1642 21.5 21.5 21.1642 21.5 20.75V3.25C21.5 2.83579 21.1642 2.5 20.75 2.5H3.25Z" fill="currentColor"/>
</svg>
