<svg width="24" height="24" viewBox="0 0 24 24"  xmlns="http://www.w3.org/2000/svg">
<path d="M20 1H4C2.35 1 1 2.35 1 4V20C1 21.65 2.35 23 4 23H20C21.65 23 23 21.65 23 20V4C23 2.35 21.65 1 20 1ZM10.8536 16.7464C10.6583 16.9417 10.3417 16.9417 10.1464 16.7464L5.75355 12.3536C5.55829 12.1583 5.55829 11.8417 5.75355 11.6464L7.14645 10.2536C7.34171 10.0583 7.65829 10.0583 7.85355 10.2536L10.5 12.9L16.1464 7.25355C16.3417 7.05829 16.6583 7.05829 16.8536 7.25355L18.2464 8.64645C18.4417 8.84171 18.4417 9.15829 18.2464 9.35355L10.8536 16.7464Z" fill="currentColor"/>
</svg>
