<svg width="24" height="24" viewBox="0 0 24 24"  xmlns="http://www.w3.org/2000/svg">
<path d="M18.3357 4.96855C18.5944 4.6451 18.542 4.17313 18.2185 3.91438C17.8951 3.65562 17.4231 3.70806 17.1643 4.03151L5.68781 18.3772L2.28033 14.9697C1.98744 14.6768 1.51256 14.6768 1.21967 14.9697C0.926777 15.2626 0.926777 15.7375 1.21967 16.0304L5.21967 20.0304C5.37052 20.1812 5.57847 20.2607 5.79148 20.2489C6.00448 20.2371 6.20238 20.1351 6.33565 19.9685L18.3357 4.96855ZM19.25 8C18.8358 8 18.5 8.33579 18.5 8.75C18.5 9.16421 18.8358 9.5 19.25 9.5H22.25C22.6642 9.5 23 9.16421 23 8.75C23 8.33579 22.6642 8 22.25 8H19.25ZM14.5 13.75C14.5 13.3358 14.8358 13 15.25 13H22.25C22.6642 13 23 13.3358 23 13.75C23 14.1642 22.6642 14.5 22.25 14.5H15.25C14.8358 14.5 14.5 14.1642 14.5 13.75ZM11.25 18C10.8358 18 10.5 18.3358 10.5 18.75C10.5 19.1642 10.8358 19.5 11.25 19.5H22.25C22.6642 19.5 23 19.1642 23 18.75C23 18.3358 22.6642 18 22.25 18H11.25Z" fill="currentColor"/>
</svg>
