<svg width="24" height="24" viewBox="0 0 24 24"  xmlns="http://www.w3.org/2000/svg">
<g clip-path="url(#clip0_865_2061)">
<path fill-rule="evenodd" clip-rule="evenodd" d="M5 0C2.23858 0 0 2.23858 0 5V19C0 21.7614 2.23858 24 5 24H19C21.7614 24 24 21.7614 24 19V5C24 2.23858 21.7614 0 19 0H5ZM8.875 15.4L17.6625 6.45C18.2125 5.85 19.0375 5.85 19.5875 6.45C20.1375 7.05 20.1375 7.95 19.5875 8.55L9.8375 18.55C9.5625 18.85 9.2875 19 8.875 19C8.4625 19 8.1875 18.85 7.9125 18.55L4.4125 14.55C3.8625 13.95 3.8625 13.05 4.4125 12.45C4.9625 11.85 5.7875 11.85 6.3375 12.45L8.875 15.4Z" fill="currentColor"/>
</g>
<defs>
<clipPath id="clip0_865_2061">
<rect width="24" height="24" fill="currentColor"/>
</clipPath>
</defs>
</svg>
