<svg width="24" height="24" viewBox="0 0 24 24"  xmlns="http://www.w3.org/2000/svg">
<path d="M1.89933 13.6416C1.38556 14.2048 1.37181 15.0625 1.86725 15.6419L5.41765 19.7937C5.51278 19.9042 5.61933 20.0042 5.73551 20.0922C6.16259 20.4151 6.70009 20.5548 7.22988 20.4806C7.75968 20.4065 8.23844 20.1245 8.56094 19.6966L19.1643 5.62093C19.5992 5.04359 19.4046 4.21328 18.7584 3.88938C18.2982 3.65872 17.741 3.75961 17.3909 4.13697L6.71432 15.6452L3.94929 13.472C3.32701 12.9829 2.43275 13.0569 1.89933 13.6416ZM19.9999 10.0001H21.9999C22.2651 10.0001 22.5195 9.89474 22.707 9.70721C22.8945 9.51967 22.9999 9.26532 22.9999 9.0001C22.9999 8.73488 22.8945 8.48053 22.707 8.29299C22.5195 8.10546 22.2651 8.0001 21.9999 8.0001H19.9999C19.7347 8.0001 19.4803 8.10546 19.2928 8.29299C19.1052 8.48053 18.9999 8.73488 18.9999 9.0001C18.9999 9.26532 19.1052 9.51967 19.2928 9.70721C19.4803 9.89474 19.7347 10.0001 19.9999 10.0001ZM21.9999 15.0001H16.9999C16.7347 15.0001 16.4874 14.8947 16.2999 14.7072C16.1124 14.5197 15.9999 14.2653 15.9999 14.0001C15.9999 13.7349 16.1124 13.4805 16.2999 13.293C16.4874 13.1055 16.7347 13.0001 16.9999 13.0001H21.9999C22.2651 13.0001 22.5195 13.1055 22.707 13.293C22.8945 13.4805 22.9999 13.7349 22.9999 14.0001C22.9999 14.2653 22.8945 14.5197 22.707 14.7072C22.5195 14.8947 22.2651 15.0001 21.9999 15.0001ZM13.9999 20.0001H21.9999C22.2651 20.0001 22.5195 19.8947 22.707 19.7072C22.8945 19.5197 22.9999 19.2653 22.9999 19.0001C22.9999 18.7349 22.8945 18.4805 22.707 18.293C22.5195 18.1055 22.2651 18.0001 21.9999 18.0001H13.9999C13.7347 18.0001 13.4803 18.1055 13.2928 18.293C13.1052 18.4805 12.9999 18.7349 12.9999 19.0001C12.9999 19.2653 13.1052 19.5197 13.2928 19.7072C13.4803 19.8947 13.7347 20.0001 13.9999 20.0001Z" fill="currentColor"/>
</svg>
