<svg width="24" height="24" viewBox="0 0 24 24"  xmlns="http://www.w3.org/2000/svg">
<path fill-rule="evenodd" clip-rule="evenodd" d="M12 23C18.0751 23 23 18.0751 23 12C23 5.92487 18.0751 1 12 1C5.92487 1 1 5.92487 1 12C1 18.0751 5.92487 23 12 23ZM10.8535 16.7463C10.6582 16.9416 10.3416 16.9416 10.1463 16.7463L5.75346 12.3535C5.55819 12.1582 5.55819 11.8416 5.75346 11.6463L7.14635 10.2535C7.34161 10.0582 7.65819 10.0582 7.85346 10.2535L10.4999 12.8999L16.1463 7.25346C16.3416 7.05819 16.6582 7.05819 16.8535 7.25346L18.2463 8.64635C18.4416 8.84161 18.4416 9.15819 18.2463 9.35346L10.8535 16.7463Z" fill="currentColor"/>
</svg>
