<svg width="24" height="24" viewBox="0 0 24 24"  xmlns="http://www.w3.org/2000/svg">
<path d="M17.7755 8.28509C18.0711 7.99484 18.0753 7.51999 17.7851 7.22447C17.4949 6.92895 17.02 6.92467 16.7245 7.21491L9.58366 14.2282L7.24325 12.185C6.93122 11.9126 6.45743 11.9447 6.18502 12.2568C5.91261 12.5688 5.94473 13.0426 6.25677 13.315L9.1204 15.815C9.41565 16.0727 9.85956 16.0597 10.1392 15.7851L17.7755 8.28509Z" fill="currentColor"/>
<path fill-rule="evenodd" clip-rule="evenodd" d="M23 12C23 18.0751 18.0751 23 12 23C5.92487 23 1 18.0751 1 12C1 5.92487 5.92487 1 12 1C18.0751 1 23 5.92487 23 12ZM21.5 12C21.5 17.2467 17.2467 21.5 12 21.5C6.75329 21.5 2.5 17.2467 2.5 12C2.5 6.75329 6.75329 2.5 12 2.5C17.2467 2.5 21.5 6.75329 21.5 12Z" fill="currentColor"/>
</svg>
