<svg width="24" height="24" viewBox="0 0 24 24"  xmlns="http://www.w3.org/2000/svg">
<g clip-path="url(#clip0_865_2056)">
<path fill-rule="evenodd" clip-rule="evenodd" d="M5 0C2.23858 0 0 2.23858 0 5V19C0 21.7614 2.23858 24 5 24H19C21.7614 24 24 21.7614 24 19V5C24 2.23858 21.7614 0 19 0H5ZM9.59367 15.15L17.053 7.0125C17.3739 6.6625 17.8551 6.6625 18.176 7.0125C18.4968 7.3625 18.4968 7.8875 18.176 8.2375L10.1551 16.9875C9.99471 17.1625 9.83429 17.25 9.59367 17.25C9.35304 17.25 9.19263 17.1625 9.03221 16.9875L5.82388 13.4875C5.50304 13.1375 5.50304 12.6125 5.82388 12.2625C6.14471 11.9125 6.62596 11.9125 6.94679 12.2625L9.59367 15.15Z" fill="currentColor"/>
</g>
<defs>
<clipPath id="clip0_865_2056">
<rect width="24" height="24" fill="currentColor"/>
</clipPath>
</defs>
</svg>
