<svg width="24" height="24" viewBox="0 0 24 24"  xmlns="http://www.w3.org/2000/svg">
<g clip-path="url(#clip0_865_2082)">
<path fill-rule="evenodd" clip-rule="evenodd" d="M5 0C2.23858 0 0 2.23858 0 5V19C0 21.7614 2.23858 24 5 24H19C21.7614 24 24 21.7614 24 19V5C24 2.23858 21.7614 0 19 0H5ZM5.375 12C5.375 11.2406 5.99061 10.625 6.75 10.625H17.25C18.0094 10.625 18.625 11.2406 18.625 12C18.625 12.7594 18.0094 13.375 17.25 13.375H6.75C5.99061 13.375 5.375 12.7594 5.375 12Z" fill="currentColor"/>
</g>
<defs>
<clipPath id="clip0_865_2082">
<rect width="24" height="24" fill="currentColor"/>
</clipPath>
</defs>
</svg>
