<svg width="24" height="24" viewBox="0 0 24 24"  xmlns="http://www.w3.org/2000/svg">
<g clip-path="url(#clip0_865_2025)">
<path d="M16.3144 5.74389C16.5872 5.43216 16.5556 4.95834 16.2439 4.68558C15.9321 4.41282 15.4583 4.4444 15.1856 4.75613L5.21347 16.1528L1.28033 12.2197C0.987437 11.9268 0.512563 11.9268 0.21967 12.2197C-0.0732233 12.5126 -0.0732233 12.9874 0.21967 13.2803L4.71967 17.7803C4.86645 17.9271 5.0675 18.0065 5.27496 17.9996C5.48242 17.9927 5.67774 17.9001 5.81443 17.7439L16.3144 5.74389ZM23.8144 5.74389C24.0872 5.43216 24.0556 4.95834 23.7439 4.68558C23.4322 4.41282 22.9583 4.4444 22.6856 4.75613L12.7135 16.1528L11.7803 15.2197C11.4874 14.9268 11.0126 14.9268 10.7197 15.2197C10.4268 15.5126 10.4268 15.9874 10.7197 16.2803L12.2197 17.7803C12.3664 17.9271 12.5675 18.0065 12.775 17.9996C12.9824 17.9927 13.1777 17.9001 13.3144 17.7439L23.8144 5.74389Z" fill="currentColor"/>
</g>
<defs>
<clipPath id="clip0_865_2025">
<rect width="24" height="24" fill="currentColor"/>
</clipPath>
</defs>
</svg>
