<svg width="24" height="24" viewBox="0 0 24 24"  xmlns="http://www.w3.org/2000/svg">
<path fill-rule="evenodd" clip-rule="evenodd" d="M12 23C18.0751 23 23 18.0751 23 12C23 5.92487 18.0751 1 12 1C5.92487 1 1 5.92487 1 12C1 18.0751 5.92487 23 12 23ZM12 13.3387L17.1039 9.25582C17.3456 9.06245 17.6541 8.97299 17.9617 9.00712C18.114 9.02402 18.2615 9.07075 18.3958 9.14465C18.53 9.21854 18.6484 9.31815 18.7442 9.4378C18.9375 9.67943 19.027 9.98797 18.9929 10.2956C18.9587 10.6031 18.8038 10.8846 18.5622 11.0779L12.7291 15.7441C12.5222 15.9097 12.2651 16 12 16C11.7349 16 11.4778 15.9097 11.2709 15.7441L5.43782 11.0779C5.31817 10.9822 5.21855 10.8638 5.14465 10.7296C5.07075 10.5953 5.02402 10.4479 5.00712 10.2956C4.99022 10.1433 5.00348 9.98912 5.04616 9.84194C5.08883 9.69477 5.16008 9.55744 5.25583 9.4378C5.35158 9.31815 5.46996 9.21854 5.60421 9.14465C5.73846 9.07075 5.88595 9.02402 6.03826 9.00712C6.19058 8.99022 6.34472 9.00349 6.49191 9.04616C6.63909 9.08883 6.77643 9.16007 6.89608 9.25582L12 13.3387Z" fill="currentColor"/>
</svg>
