<svg width="24" height="24" viewBox="0 0 24 24"  xmlns="http://www.w3.org/2000/svg">
<path d="M18.5629 8.32894L12.0004 13.5789L5.43794 8.32894C5.2841 8.20583 5.10751 8.11422 4.91826 8.05935C4.72902 8.00448 4.53082 7.98743 4.33498 8.00916C4.13914 8.03089 3.9495 8.09097 3.77688 8.18599C3.60426 8.28101 3.45205 8.4091 3.32894 8.56294C3.20583 8.71679 3.11422 8.89337 3.05935 9.08262C3.00448 9.27187 2.98742 9.47007 3.00915 9.66591C3.03088 9.86175 3.09097 10.0514 3.18599 10.224C3.28101 10.3966 3.4091 10.5488 3.56294 10.6719L11.0629 16.6719C11.329 16.885 11.6596 17.001 12.0004 17.001C12.3412 17.001 12.6719 16.885 12.9379 16.6719L20.4379 10.6719C20.7486 10.4233 20.9478 10.0614 20.9917 9.66591C21.0356 9.27039 20.9206 8.87365 20.6719 8.56294C20.5488 8.4091 20.3966 8.28101 20.224 8.18599C20.0514 8.09097 19.8617 8.03089 19.6659 8.00916C19.2704 7.96527 18.8736 8.0803 18.5629 8.32894Z" fill="currentColor"/>
</svg>
