<svg width="24" height="24" viewBox="0 0 24 24"  xmlns="http://www.w3.org/2000/svg">
<path d="M15.4381 3.32912C15.2842 3.20595 15.1077 3.11429 14.9184 3.05939C14.7292 3.00449 14.5309 2.98742 14.3351 3.00915C14.1392 3.03088 13.9496 3.09099 13.777 3.18604C13.6043 3.28109 13.4521 3.40923 13.3291 3.56312L7.32906 11.0631C7.11606 11.3292 7 11.6598 7 12.0006C7 12.3414 7.11606 12.6721 7.32906 12.9381L13.3291 20.4381C13.5777 20.7488 13.9396 20.948 14.3351 20.9919C14.7306 21.0358 15.1274 20.9208 15.4381 20.6721C15.7488 20.4235 15.948 20.0616 15.9919 19.6661C16.0357 19.2706 15.9207 18.8738 15.6721 18.5631L10.4221 12.0006L15.6721 5.43812C15.7952 5.2843 15.8869 5.10772 15.9418 4.91846C15.9967 4.72921 16.0138 4.53099 15.992 4.33513C15.9703 4.13928 15.9102 3.94963 15.8151 3.77701C15.7201 3.60439 15.592 3.4522 15.4381 3.32912Z" fill="currentColor"/>
</svg>
