<svg width="24" height="24" viewBox="0 0 24 24"  xmlns="http://www.w3.org/2000/svg">
<path d="M20.4379 13.3291L12.9379 7.32906C12.6719 7.11606 12.3413 7 12.0004 7C11.6596 7 11.329 7.11606 11.0629 7.32906L3.56294 13.3291C3.25224 13.5777 3.05304 13.9396 3.00916 14.3351C2.96527 14.7306 3.0803 15.1274 3.32894 15.4381C3.57758 15.7488 3.93947 15.948 4.33498 15.9919C4.7305 16.0357 5.12724 15.9207 5.43794 15.6721L12.0004 10.4221L18.5629 15.6721C18.8736 15.9207 19.2704 16.0357 19.6659 15.9919C20.0614 15.948 20.4233 15.7488 20.6719 15.4381C20.9206 15.1274 21.0356 14.7306 20.9917 14.3351C20.9478 13.9396 20.7486 13.5777 20.4379 13.3291Z" fill="currentColor"/>
</svg>
