<svg width="24" height="24" viewBox="0 0 24 24"  xmlns="http://www.w3.org/2000/svg">
<path d="M10.6719 3.56294C10.5488 3.4091 10.3966 3.28101 10.224 3.18599C10.0514 3.09097 9.86175 3.03089 9.66591 3.00916C9.27039 2.96527 8.87365 3.0803 8.56294 3.32894C8.25224 3.57758 8.05304 3.93947 8.00916 4.33498C7.96527 4.7305 8.0803 5.12724 8.32894 5.43794L13.5789 12.0004L8.32894 18.5629C8.0803 18.8736 7.96527 19.2704 8.00916 19.6659C8.05304 20.0614 8.25224 20.4233 8.56294 20.6719C8.87365 20.9206 9.27039 21.0356 9.66591 20.9917C10.0614 20.9478 10.4233 20.7486 10.6719 20.4379L16.6719 12.9379C16.8849 12.6719 17.001 12.3413 17.001 12.0004C17.001 11.6596 16.8849 11.329 16.6719 11.0629L10.6719 3.56294Z" fill="currentColor"/>
</svg>
