<svg width="24" height="24" viewBox="0 0 24 24"  xmlns="http://www.w3.org/2000/svg">
<path d="M6.21967 9.21967C6.51256 8.92678 6.98744 8.92678 7.28033 9.21967L12 13.9393L16.7197 9.21967C17.0126 8.92678 17.4874 8.92678 17.7803 9.21967C18.0732 9.51256 18.0732 9.98744 17.7803 10.2803L12.5303 15.5303C12.2374 15.8232 11.7626 15.8232 11.4697 15.5303L6.21967 10.2803C5.92678 9.98744 5.92678 9.51256 6.21967 9.21967Z" fill="currentColor"/>
<path fill-rule="evenodd" clip-rule="evenodd" d="M23 12C23 18.0751 18.0751 23 12 23C5.92487 23 1 18.0751 1 12C1 5.92487 5.92487 1 12 1C18.0751 1 23 5.92487 23 12ZM21.5 12C21.5 17.2467 17.2467 21.5 12 21.5C6.75329 21.5 2.5 17.2467 2.5 12C2.5 6.75329 6.75329 2.5 12 2.5C17.2467 2.5 21.5 6.75329 21.5 12Z" fill="currentColor"/>
</svg>
