<svg width="24" height="24" viewBox="0 0 24 24"  xmlns="http://www.w3.org/2000/svg">
<g clip-path="url(#clip0_865_5753)">
<path fill-rule="evenodd" clip-rule="evenodd" d="M10.1666 0.450195C9.77763 0.450195 9.40458 0.604719 9.12953 0.879772C8.85448 1.15483 8.69995 1.52788 8.69995 1.91686V2.86235C7.36088 3.34903 6.14299 4.12368 5.13321 5.13346C4.12344 6.14323 3.34878 7.36113 2.86211 8.7002H1.91662C1.52763 8.7002 1.15458 8.85472 0.879528 9.12977C0.604475 9.40483 0.449951 9.77788 0.449951 10.1669V13.8335C0.449951 14.2225 0.604475 14.5956 0.879528 14.8706C1.15458 15.1457 1.52763 15.3002 1.91662 15.3002H2.86211C3.34878 16.6393 4.12344 17.8572 5.13321 18.8669C6.14299 19.8767 7.36088 20.6514 8.69995 21.138V22.0835C8.69995 22.4725 8.85448 22.8456 9.12953 23.1206C9.40458 23.3957 9.77763 23.5502 10.1666 23.5502H13.8333C14.2223 23.5502 14.5953 23.3957 14.8704 23.1206C15.1454 22.8456 15.3 22.4725 15.3 22.0835V21.138C16.639 20.6514 17.8569 19.8767 18.8667 18.8669C19.8765 17.8572 20.6511 16.6393 21.1378 15.3002H22.0833C22.4723 15.3002 22.8453 15.1457 23.1204 14.8706C23.3954 14.5956 23.55 14.2225 23.55 13.8335V10.1669C23.55 9.77788 23.3954 9.40483 23.1204 9.12977C22.8453 8.85472 22.4723 8.7002 22.0833 8.7002H21.1378C20.6511 7.36113 19.8765 6.14323 18.8667 5.13346C17.8569 4.12368 16.639 3.34903 15.3 2.86235V1.91686C15.3 1.52788 15.1454 1.15483 14.8704 0.879772C14.5953 0.604719 14.2223 0.450195 13.8333 0.450195H10.1666ZM16.7908 16.791C16.3273 17.2545 15.8004 17.6478 15.2269 17.9598C15.1559 17.7432 15.0346 17.544 14.8704 17.3798C14.5953 17.1047 14.2223 16.9502 13.8333 16.9502H10.1666C9.77763 16.9502 9.40458 17.1047 9.12953 17.3798C8.9653 17.544 8.84405 17.7432 8.773 17.9598C8.19951 17.6478 7.67261 17.2545 7.20913 16.791C6.74565 16.3275 6.35233 15.8006 6.04036 15.2272C6.25699 15.1561 6.45615 15.0348 6.62037 14.8706C6.89543 14.5956 7.04995 14.2225 7.04995 13.8335V10.1669C7.04995 9.77788 6.89543 9.40483 6.62037 9.12977C6.45615 8.96555 6.25699 8.84429 6.04036 8.77323C6.35233 8.19975 6.74565 7.67285 7.20913 7.20937C7.67261 6.74589 8.19951 6.35257 8.77299 6.0406C8.84404 6.25723 8.9653 6.45639 9.12953 6.62062C9.40458 6.89567 9.77763 7.0502 10.1666 7.0502H13.8333C14.2223 7.0502 14.5953 6.89567 14.8704 6.62062C15.0346 6.45639 15.1559 6.25723 15.2269 6.0406C15.8004 6.35257 16.3273 6.74589 16.7908 7.20937C17.2543 7.67285 17.6476 8.19976 17.9595 8.77324C17.7429 8.8443 17.5438 8.96555 17.3795 9.12977C17.1045 9.40483 16.95 9.77788 16.95 10.1669V13.8335C16.95 14.2225 17.1045 14.5956 17.3795 14.8706C17.5438 15.0348 17.7429 15.1561 17.9595 15.2272C17.6476 15.8006 17.2543 16.3275 16.7908 16.791Z" fill="currentColor"/>
</g>
<defs>
<clipPath id="clip0_865_5753">
<rect width="24" height="24" fill="currentColor"/>
</clipPath>
</defs>
</svg>
