<svg width="24" height="24" viewBox="0 0 24 24"  xmlns="http://www.w3.org/2000/svg">
<path fill-rule="evenodd" clip-rule="evenodd" d="M9.25 2C9.25 1.58579 9.58579 1.25 10 1.25H14C14.4142 1.25 14.75 1.58579 14.75 2V3.73545C17.3673 4.58545 19.4249 6.64885 20.3472 9.25H22C22.4142 9.25 22.75 9.58579 22.75 10V14C22.75 14.4142 22.4142 14.75 22 14.75H20.3472C19.4249 17.3512 17.3673 19.4146 14.75 20.2646V22C14.75 22.4142 14.4142 22.75 14 22.75H10C9.58579 22.75 9.25 22.4142 9.25 22V20.2956C6.61645 19.4673 4.54324 17.3474 3.66817 14.75H2C1.58579 14.75 1.25 14.4142 1.25 14V10C1.25 9.58579 1.58579 9.25 2 9.25H3.73545C4.5831 6.64085 6.64085 4.58311 9.25 3.73547V2ZM9.25 18.7051V18C9.25 17.5858 9.58579 17.25 10 17.25H14C14.4142 17.25 14.75 17.5858 14.75 18V18.6692C16.5258 17.9516 17.9573 16.5351 18.7356 14.75H18C17.5858 14.75 17.25 14.4142 17.25 14V10C17.25 9.58579 17.5858 9.25 18 9.25H18.7356C17.9573 7.46487 16.5257 6.04838 14.75 5.33084V6C14.75 6.41421 14.4142 6.75 14 6.75H10C9.58579 6.75 9.25 6.41421 9.25 6V5.33084C7.47027 6.05033 6.05032 7.47027 5.33082 9.25H6C6.41421 9.25 6.75 9.58579 6.75 10V14C6.75 14.4142 6.41421 14.75 6 14.75H5.26982C6.01734 16.543 7.46233 17.9987 9.25 18.7051ZM13.25 19.6829V18.75H10.75V21.25H13.25V19.716C13.2498 19.7049 13.2498 19.6939 13.25 19.6829ZM19.8171 10.75C19.8054 10.7503 19.7938 10.7503 19.7821 10.75H18.75V13.25H19.7831C19.7941 13.2498 19.8051 13.2498 19.8161 13.25H21.25V10.75H19.8171ZM4.28373 10.75H2.75V13.25H3.82543C4.13672 13.25 4.03906 13.25 4.20312 13.25C4.45703 13.25 4.35938 13.25 4.57419 13.25H5.25V10.75H4.31736C4.30619 10.7503 4.29498 10.7503 4.28373 10.75ZM13.25 2.75V4.28406C13.2498 4.2951 13.2498 4.30612 13.25 4.31709V5.25H10.75V4.31598C10.7502 4.30574 10.7502 4.29547 10.75 4.28517V2.75H13.25Z" fill="currentColor"/>
</svg>
