<svg width="24" height="24" viewBox="0 0 24 24"  xmlns="http://www.w3.org/2000/svg">
<g clip-path="url(#clip0_865_1595)">
<path d="M1.71967 1.71967C1.86032 1.57902 2.05109 1.5 2.25 1.5H21.75C21.9489 1.5 22.1397 1.57902 22.2803 1.71967C22.421 1.86032 22.5 2.05109 22.5 2.25V9.74999C22.5 10.1642 22.8358 10.5 23.25 10.5C23.6642 10.5 24 10.1642 24 9.74999V2.25C24 1.65326 23.7629 1.08097 23.341 0.659009C22.919 0.237053 22.3467 0 21.75 0H2.25C1.65326 0 1.08097 0.237053 0.659009 0.659009C0.237053 1.08097 0 1.65326 0 2.25V12.75C0 13.3467 0.237053 13.919 0.659009 14.341C1.08097 14.7629 1.65326 15 2.25 15H5.25C5.66421 15 5.99999 14.6642 5.99999 14.25C5.99999 13.8358 5.66421 13.5 5.25 13.5H2.25C2.05109 13.5 1.86032 13.421 1.71967 13.2803C1.57902 13.1397 1.5 12.9489 1.5 12.75V2.25C1.5 2.05109 1.57902 1.86032 1.71967 1.71967Z" fill="currentColor"/>
<path fill-rule="evenodd" clip-rule="evenodd" d="M8.43192 9.02241C8.17634 8.95851 7.90597 9.0334 7.71969 9.21969C7.5334 9.40597 7.45851 9.67634 7.52241 9.93192L10.5224 21.9319C10.6033 22.2554 10.888 22.4867 11.2212 22.4995C11.5544 22.5122 11.8561 22.3035 11.9615 21.9872L13.0778 18.6384L18.2197 23.7803C18.5126 24.0732 18.9874 24.0732 19.2803 23.7803L22.2803 20.7803C22.5732 20.4874 22.5732 20.0126 22.2803 19.7197L17.1384 14.5778L20.4872 13.4615C20.8035 13.3561 21.0122 13.0544 20.9995 12.7212C20.9867 12.388 20.7554 12.1033 20.4319 12.0224L8.43192 9.02241ZM11.353 19.0695L9.28079 10.7808L17.5695 12.853L15.5128 13.5385C15.2662 13.6207 15.0798 13.8247 15.0201 14.0777C14.9604 14.3307 15.0359 14.5965 15.2197 14.7803L20.6893 20.25L18.75 22.1893L13.2803 16.7197C13.0965 16.5359 12.8307 16.4604 12.5777 16.5201C12.3247 16.5798 12.1207 16.7662 12.0385 17.0128L11.353 19.0695Z" fill="currentColor"/>
</g>
<defs>
<clipPath id="clip0_865_1595">
<rect width="24" height="24" fill="currentColor"/>
</clipPath>
</defs>
</svg>
