<svg width="24" height="24" viewBox="0 0 24 24"  xmlns="http://www.w3.org/2000/svg">
<g clip-path="url(#clip0_865_5776)">
<path d="M16.5 0.5C16.5 0.223858 16.2761 0 16 0H8C7.72386 0 7.5 0.223858 7.5 0.5V5.5C7.5 5.77614 7.72386 6 8 6H16C16.2761 6 16.5 5.77614 16.5 5.5V0.5ZM22.5 1.5H18V4.5H21V21H3V4.5H6V1.5H1.5C0.6 1.5 0 2.1 0 3V22.5C0 23.4 0.6 24 1.5 24H22.5C23.4 24 24 23.4 24 22.5V3C24 2.1 23.4 1.5 22.5 1.5ZM5.5 18.875C5.5 13.8375 7.775 10.75 12 10.75V8.60188C12 8.17231 12.506 7.94272 12.8293 8.2256L18.5 13.1875L12 18.875V15.625C7.69375 15.625 6.71875 16.925 5.5 18.875Z" fill="currentColor"/>
</g>
<defs>
<clipPath id="clip0_865_5776">
<rect width="24" height="24" fill="currentColor"/>
</clipPath>
</defs>
</svg>
