<svg width="24" height="24" viewBox="0 0 24 24"  xmlns="http://www.w3.org/2000/svg">
<g clip-path="url(#clip0_865_5770)">
<path fill-rule="evenodd" clip-rule="evenodd" d="M6.75 0.75C6.75 0.335787 7.08579 0 7.5 0H16.5C16.9142 0 17.25 0.335787 17.25 0.75V3.75C17.25 4.16421 16.9142 4.5 16.5 4.5H7.5C7.08579 4.5 6.75 4.16421 6.75 3.75V0.75ZM8.25 3H15.75V1.5H8.25V3Z" fill="currentColor"/>
<path d="M3 3C2.80108 3 2.61032 3.07902 2.46968 3.21968C2.32902 3.36032 2.25 3.55108 2.25 3.75V21.75C2.25 21.9489 2.32902 22.1397 2.46968 22.2804C2.61032 22.4209 2.80108 22.5 3 22.5H21C21.1989 22.5 21.3897 22.4209 21.5304 22.2804C21.6709 22.1397 21.75 21.9489 21.75 21.75V3.75C21.75 3.55108 21.6709 3.36032 21.5304 3.21968C21.3897 3.07902 21.1989 3 21 3H19.5C19.0858 3 18.75 2.66421 18.75 2.25C18.75 1.83579 19.0858 1.5 19.5 1.5H21C21.5967 1.5 22.1691 1.73706 22.5911 2.15901C23.013 2.58096 23.25 3.15325 23.25 3.75V21.75C23.25 22.3467 23.013 22.9191 22.5911 23.3411C22.1691 23.763 21.5967 24 21 24H3C2.40325 24 1.83096 23.763 1.40901 23.3411C0.98706 22.9191 0.75 22.3467 0.75 21.75V3.75C0.75 3.15327 0.98706 2.58096 1.40901 2.15901C1.83096 1.73706 2.40327 1.5 3 1.5H4.5C4.91421 1.5 5.25 1.83579 5.25 2.25C5.25 2.66421 4.91421 3 4.5 3H3ZM6 18.25C6 13.6 8.1 10.75 12 10.75V7.75L18 13L12 18.25V15.25C8.025 15.25 7.125 16.45 6 18.25Z" fill="currentColor"/>
</g>
<defs>
<clipPath id="clip0_865_5770">
<rect width="24" height="24" fill="currentColor"/>
</clipPath>
</defs>
</svg>
