<svg width="24" height="24" viewBox="0 0 24 24"  xmlns="http://www.w3.org/2000/svg">
<g clip-path="url(#clip0_865_5758)">
<path fill-rule="evenodd" clip-rule="evenodd" d="M7.5 0C7.08579 0 6.75 0.335787 6.75 0.75V3.75C6.75 4.16421 7.08579 4.5 7.5 4.5H16.5C16.9142 4.5 17.25 4.16421 17.25 3.75V0.75C17.25 0.335787 16.9142 0 16.5 0H7.5ZM15.75 3H8.25V1.5H15.75V3ZM2.46968 3.21968C2.61032 3.07902 2.80108 3 3 3H4.5C4.91421 3 5.25 2.66421 5.25 2.25C5.25 1.83579 4.91421 1.5 4.5 1.5H3C2.40327 1.5 1.83096 1.73706 1.40901 2.15901C0.98706 2.58096 0.75 3.15327 0.75 3.75V21.75C0.75 22.3467 0.98706 22.9191 1.40901 23.3411C1.83096 23.763 2.40325 24 3 24H21C21.5967 24 22.1691 23.763 22.5911 23.3411C23.013 22.9191 23.25 22.3467 23.25 21.75V3.75C23.25 3.15325 23.013 2.58096 22.5911 2.15901C22.1691 1.73706 21.5967 1.5 21 1.5H19.5C19.0858 1.5 18.75 1.83579 18.75 2.25C18.75 2.66421 19.0858 3 19.5 3H21C21.1989 3 21.3897 3.07902 21.5304 3.21968C21.6709 3.36032 21.75 3.55108 21.75 3.75V21.75C21.75 21.9489 21.6709 22.1397 21.5304 22.2804C21.3897 22.4209 21.1989 22.5 21 22.5H3C2.80108 22.5 2.61032 22.4209 2.46968 22.2804C2.32902 22.1397 2.25 21.9489 2.25 21.75V3.75C2.25 3.55108 2.32902 3.36032 2.46968 3.21968ZM12 9C12.4142 9 12.75 9.33579 12.75 9.75V13.5H16.5C16.9142 13.5 17.25 13.8358 17.25 14.25C17.25 14.6642 16.9142 15 16.5 15H12.75V18.75C12.75 19.1642 12.4142 19.5 12 19.5C11.5858 19.5 11.25 19.1642 11.25 18.75V15H7.5C7.08579 15 6.75 14.6642 6.75 14.25C6.75 13.8358 7.08579 13.5 7.5 13.5H11.25V9.75C11.25 9.33579 11.5858 9 12 9Z" fill="currentColor"/>
</g>
<defs>
<clipPath id="clip0_865_5758">
<rect width="24" height="24" fill="currentColor"/>
</clipPath>
</defs>
</svg>
