<svg width="24" height="24" viewBox="0 0 24 24"  xmlns="http://www.w3.org/2000/svg">
<g clip-path="url(#clip0_865_5764)">
<path d="M16.5 0.5C16.5 0.223858 16.2761 0 16 0H8C7.72386 0 7.5 0.223858 7.5 0.5V5.5C7.5 5.77614 7.72386 6 8 6H16C16.2761 6 16.5 5.77614 16.5 5.5V0.5ZM22.5 1.5H18V4.5H21V21H3V4.5H6V1.5H1.5C0.6 1.5 0 2.1 0 3V22.5C0 23.4 0.6 24 1.5 24H22.5C23.4 24 24 23.4 24 22.5V3C24 2.1 23.4 1.5 22.5 1.5ZM13.5 12H16C16.2761 12 16.5 12.2239 16.5 12.5V14.5C16.5 14.7761 16.2761 15 16 15H13.5V17.5C13.5 17.7761 13.2761 18 13 18H11C10.7239 18 10.5 17.7761 10.5 17.5V15H8C7.72386 15 7.5 14.7761 7.5 14.5V12.5C7.5 12.2239 7.72386 12 8 12H10.5V9.5C10.5 9.22386 10.7239 9 11 9H13C13.2761 9 13.5 9.22386 13.5 9.5V12Z" fill="currentColor"/>
</g>
<defs>
<clipPath id="clip0_865_5764">
<rect width="24" height="24" fill="currentColor"/>
</clipPath>
</defs>
</svg>
