<svg width="24" height="24" viewBox="0 0 24 24"  xmlns="http://www.w3.org/2000/svg">
<g clip-path="url(#clip0_865_5572)">
<path fill-rule="evenodd" clip-rule="evenodd" d="M1.6 12C1.6 6.25624 6.25624 1.6 12 1.6C17.7438 1.6 22.4 6.25624 22.4 12C22.4 17.7438 17.7438 22.4 12 22.4C6.25624 22.4 1.6 17.7438 1.6 12ZM12 0C5.37258 0 0 5.37258 0 12C0 18.6274 5.37258 24 12 24C18.6274 24 24 18.6274 24 12C24 5.37258 18.6274 0 12 0ZM12.8 5.6C12.8 5.15818 12.4418 4.8 12 4.8C11.5582 4.8 11.2 5.15818 11.2 5.6V12C11.2 12.4418 11.5582 12.8 12 12.8H18.4C18.8418 12.8 19.2 12.4418 19.2 12C19.2 11.5582 18.8418 11.2 18.4 11.2H12.8V5.6Z" fill="currentColor"/>
</g>
<defs>
<clipPath id="clip0_865_5572">
<rect width="24" height="24" fill="currentColor"/>
</clipPath>
</defs>
</svg>
