<svg width="24" height="24" viewBox="0 0 24 24"  xmlns="http://www.w3.org/2000/svg">
<g clip-path="url(#clip0_865_5578)">
<path fill-rule="evenodd" clip-rule="evenodd" d="M0.229699 0.498531C-0.0801637 0.809498 -0.0759977 1.31787 0.239003 1.63399L22.2858 23.7601C22.6008 24.0763 23.1074 24.0805 23.4172 23.7695C23.7271 23.4585 23.7229 22.9502 23.4079 22.6341L1.36102 0.507869C1.04602 0.191742 0.539561 0.187562 0.229699 0.498531Z" fill="currentColor"/>
<path d="M5.29696 4.45826C3.43413 6.29471 2.27827 8.85092 2.27827 11.6786C2.27827 17.2685 6.79341 21.7999 12.3633 21.7999C15.1808 21.7999 17.7268 20.6388 19.5567 18.7693L20.6538 19.8704C18.5431 22.0217 15.6093 23.3572 12.3633 23.3572C5.9365 23.3572 0.726572 18.1285 0.726572 11.6786C0.726572 8.42093 2.05623 5.47545 4.19982 3.35718L5.29696 4.45826Z" fill="currentColor"/>
<path d="M12.3633 0C18.79 0 24 5.22868 24 11.6786C24 14.2963 23.1405 16.7119 21.691 18.6594L20.5794 17.5438C21.7545 15.8888 22.4483 13.8657 22.4483 11.6786C22.4483 6.08867 17.9332 1.55728 12.3633 1.55728C10.184 1.55728 8.16719 2.2524 6.51807 3.43183L5.40646 2.31622C7.34702 0.86152 9.75485 5.55229e-08 12.3633 0Z" fill="currentColor"/>
<path d="M18.569 10.8999C18.9975 10.8999 19.3449 11.2486 19.3449 11.6786C19.3449 12.1085 18.9975 12.4572 18.569 12.4572H15.5111L13.9594 10.8999H18.569Z" fill="currentColor"/>
<path d="M13.2672 12.4572H12.3633C11.9349 12.4572 11.5874 12.1085 11.5874 11.6786V10.7714L13.2672 12.4572Z" fill="currentColor"/>
<path d="M12.3633 4.67185C12.7917 4.67185 13.1391 5.0205 13.1391 5.45049V10.0767L11.5874 8.51943V5.45049C11.5874 5.0205 11.9349 4.67185 12.3633 4.67185Z" fill="currentColor"/>
</g>
<defs>
<clipPath id="clip0_865_5578">
<rect width="24" height="24" fill="currentColor"/>
</clipPath>
</defs>
</svg>
