<svg width="24" height="24" viewBox="0 0 24 24"  xmlns="http://www.w3.org/2000/svg">
<g clip-path="url(#clip0_865_5585)">
<path fill-rule="evenodd" clip-rule="evenodd" d="M0.229699 0.498531C-0.0801637 0.809498 -0.0759977 1.31787 0.239003 1.63399L22.2858 23.7601C22.6008 24.0763 23.1074 24.0805 23.4172 23.7695C23.7271 23.4585 23.7229 22.9502 23.4079 22.6341L1.36102 0.507869C1.04602 0.191742 0.539561 0.187562 0.229699 0.498531Z" fill="currentColor"/>
<path d="M10.9087 10.0902V13.1384H13.946L20.6435 19.86C18.5294 22.0146 15.5958 23.3572 12.3633 23.3572C5.96309 23.3572 0.726572 18.1018 0.726572 11.6786C0.726572 8.43446 2.06333 5.48924 4.21015 3.36755L10.9087 10.0902Z" fill="currentColor"/>
<path d="M12.3633 0C18.7635 0 24 5.25536 24 11.6786C24 14.2865 23.1366 16.7018 21.6828 18.6511L16.1898 13.1384H18.1816V10.2188H13.8179V5.83929H10.9087V7.83825L5.41473 2.32452C7.35707 0.865355 9.76464 5.60598e-08 12.3633 0Z" fill="currentColor"/>
</g>
<defs>
<clipPath id="clip0_865_5585">
<rect width="24" height="24" fill="currentColor"/>
</clipPath>
</defs>
</svg>
