<svg width="24" height="24" viewBox="0 0 24 24"  xmlns="http://www.w3.org/2000/svg">
<path d="M7.93601 10.0165C7.64514 10.1829 7.41422 10.4313 7.2721 10.7274C7.08755 11.12 6.99694 11.5485 7.00674 11.9801C7.00725 12.0023 7.00677 12.0244 7.00531 12.0465C6.9657 12.6476 7.14871 13.2434 7.52202 13.7236C7.69558 13.898 7.90516 14.0353 8.1376 14.1259C8.38042 14.2205 8.64177 14.2615 8.90302 14.2457C8.9221 14.2446 8.94122 14.2442 8.96034 14.2445C9.40865 14.2518 9.8544 14.1787 10.2757 14.0289C10.666 13.8902 11.0949 14.0942 11.2336 14.4844C11.3723 14.8747 11.1684 15.3036 10.7781 15.4423C10.1962 15.6491 9.58178 15.7515 8.96383 15.7447C8.49654 15.7687 8.02914 15.6934 7.5932 15.5236C7.14809 15.3502 6.74615 15.0823 6.41618 14.7381C6.40066 14.7219 6.38588 14.705 6.37188 14.6875C5.75878 13.9208 5.45039 12.9582 5.50651 11.9811C5.49669 11.3269 5.63679 10.679 5.91611 10.086L5.91803 10.082C6.19466 9.50375 6.64348 9.02486 7.20228 8.70813L7.21438 8.70128C7.78567 8.39132 8.42907 8.23598 9.07958 8.24988C9.77084 8.24547 10.4542 8.39906 11.076 8.69915C11.449 8.87918 11.6055 9.32753 11.4255 9.70058C11.2454 10.0736 10.7971 10.2301 10.424 10.0501C10.0066 9.84859 9.54656 9.74565 9.08072 9.74992C9.07223 9.74999 9.06374 9.74993 9.05525 9.74972C8.66417 9.74002 8.27802 9.83231 7.93601 10.0165ZM14.2723 10.7277C14.415 10.4316 14.6464 10.1831 14.9375 10.0164C15.2793 9.83222 15.6653 9.73996 16.0563 9.74973C16.0649 9.74994 16.0734 9.75001 16.082 9.74993C16.5473 9.74558 17.0068 9.84847 17.4237 10.0499C17.7967 10.2301 18.2451 10.0738 18.4253 9.70088C18.6055 9.32791 18.4492 8.87949 18.0763 8.69928C17.4548 8.39903 16.7718 8.24538 16.0808 8.24989C15.4302 8.23589 14.7868 8.39126 14.2156 8.70134L14.2034 8.70822C13.6449 9.02497 13.1961 9.5034 12.9188 10.081L12.9165 10.086C12.6373 10.6787 12.4972 11.3262 12.5069 11.9802C12.449 12.9567 12.7558 13.9194 13.3676 14.6865C13.3817 14.7041 13.3966 14.7212 13.4122 14.7375C13.7428 15.0828 14.1459 15.3514 14.5923 15.5248C15.0292 15.6946 15.4978 15.7693 15.966 15.7443C16.5834 15.7508 17.1974 15.6485 17.7789 15.4421C18.1692 15.3035 18.3733 14.8747 18.2347 14.4843C18.0961 14.094 17.6673 13.8899 17.277 14.0285C16.8555 14.1782 16.4097 14.2513 15.9613 14.2441C15.9417 14.2438 15.9221 14.2443 15.9025 14.2455C15.6408 14.2619 15.3789 14.2212 15.1355 14.1266C14.9026 14.0361 14.6926 13.8986 14.5188 13.7238C14.1466 13.2437 13.9648 12.6482 14.0056 12.0479C14.0072 12.0253 14.0077 12.0026 14.0072 11.98C13.9974 11.5485 14.0879 11.1202 14.2723 10.7277Z" fill="currentColor"/>
<path fill-rule="evenodd" clip-rule="evenodd" d="M0 3.75C0 3.33579 0.335786 3 0.75 3H23.25C23.6642 3 24 3.33579 24 3.75V20.25C24 20.6642 23.6642 21 23.25 21H0.75C0.335786 21 0 20.6642 0 20.25V3.75ZM1.5 4.5V19.5H22.5V4.5H1.5Z" fill="currentColor"/>
</svg>
