<svg width="24" height="24" viewBox="0 0 24 24"  xmlns="http://www.w3.org/2000/svg">
<path d="M18.0607 8.06066C18.6464 7.47487 18.6464 6.52513 18.0607 5.93934C17.4749 5.35355 16.5251 5.35355 15.9393 5.93934L12 9.87868L8.06066 5.93934C7.47487 5.35355 6.52513 5.35355 5.93934 5.93934C5.35355 6.52513 5.35355 7.47487 5.93934 8.06066L9.87868 12L5.93934 15.9393C5.35355 16.5251 5.35355 17.4749 5.93934 18.0607C6.52513 18.6464 7.47487 18.6464 8.06066 18.0607L12 14.1213L15.9393 18.0607C16.5251 18.6464 17.4749 18.6464 18.0607 18.0607C18.6464 17.4749 18.6464 16.5251 18.0607 15.9393L14.1213 12L18.0607 8.06066Z" fill="currentColor"/>
</svg>
