<svg width="24" height="24" viewBox="0 0 24 24"  xmlns="http://www.w3.org/2000/svg">
<g clip-path="url(#clip0_865_6746)">
<path fill-rule="evenodd" clip-rule="evenodd" d="M3.06066 0.93934C2.47487 0.353553 1.52513 0.353553 0.93934 0.93934C0.353553 1.52513 0.353553 2.47487 0.93934 3.06066L20.9393 23.0607C21.5251 23.6464 22.4749 23.6464 23.0607 23.0607C23.6287 22.4926 23.6459 21.5822 23.1122 20.9935C23.3361 20.9682 23.5462 20.8678 23.7071 20.7069C23.8946 20.5193 24 20.265 24 19.9998V3.99977C24 3.73456 23.8946 3.4802 23.7071 3.29267C23.5196 3.10513 23.2652 2.99977 23 2.99977H5.12109L3.06066 0.93934ZM10.1812 8.05983L11.2948 9.17351L11.552 8.51277C11.1152 8.30249 10.6543 8.15061 10.1812 8.05983ZM12.6567 10.5354L14.6527 12.5313C14.6369 12.3749 14.629 12.208 14.629 12.0308C14.5958 11.4308 14.7435 10.8348 15.053 10.3198C15.1795 10.123 15.355 9.96242 15.5622 9.85374C15.7693 9.74507 16.0012 9.69202 16.235 9.69977C16.5521 9.69701 16.8676 9.74426 17.17 9.83977C17.467 9.93538 17.7576 10.0499 18.04 10.1828L18.69 8.51277C17.9311 8.14736 17.0993 7.95831 16.257 7.95977C15.5486 7.94389 14.8488 8.11644 14.229 8.45977C13.657 8.79069 13.1975 9.28572 12.91 9.88077C12.8093 10.0931 12.7248 10.3119 12.6567 10.5354ZM16.4206 14.2992L17.8913 15.77C18.0451 15.7202 18.1968 15.6634 18.346 15.5998V13.8048C18.0248 13.9386 17.6967 14.0551 17.363 14.1538C17.0568 14.2448 16.7397 14.2937 16.4206 14.2992Z" fill="currentColor"/>
<path d="M15 21L9.96268 15.9627C9.64016 16.016 9.31262 16.0404 8.984 16.035C8.48246 16.0682 7.97965 15.9933 7.50954 15.8154C7.03943 15.6375 6.61298 15.3608 6.259 15.004C5.57497 14.1672 5.2356 13.1012 5.31 12.023C5.30528 11.7956 5.31684 11.5688 5.34432 11.3443L0 6V20C0 20.2652 0.105357 20.5196 0.292893 20.7071C0.48043 20.8946 0.734784 21 1 21H15Z" fill="currentColor"/>
</g>
<defs>
<clipPath id="clip0_865_6746">
<rect width="24" height="24" fill="currentColor"/>
</clipPath>
</defs>
</svg>
