<svg width="24" height="24" viewBox="0 0 24 24"  xmlns="http://www.w3.org/2000/svg">
<path d="M23 3H1C0.734784 3 0.48043 3.10536 0.292893 3.29289C0.105357 3.48043 0 3.73478 0 4V20C0 20.2652 0.105357 20.5196 0.292893 20.7071C0.48043 20.8946 0.734784 21 1 21H23C23.2652 21 23.5196 20.8946 23.7071 20.7071C23.8946 20.5196 24 20.2652 24 20V4C24 3.73478 23.8946 3.48043 23.7071 3.29289C23.5196 3.10536 23.2652 3 23 3ZM9.215 14.3C9.55697 14.3006 9.8972 14.2514 10.225 14.154C10.5587 14.0553 10.8868 13.9388 11.208 13.805V15.6C10.5054 15.8994 9.74764 16.0476 8.984 16.035C8.48246 16.0682 7.97965 15.9933 7.50954 15.8154C7.03943 15.6375 6.61298 15.3608 6.259 15.004C5.57497 14.1672 5.2356 13.1012 5.31 12.023C5.29464 11.2827 5.45178 10.549 5.769 9.88C6.05743 9.2849 6.518 8.79018 7.091 8.46C7.71037 8.11652 8.40995 7.94395 9.118 7.96C9.96065 7.95842 10.7928 8.14747 11.552 8.513L10.902 10.183C10.6194 10.05 10.3284 9.93543 10.031 9.84C9.72993 9.74479 9.41576 9.69754 9.1 9.7C8.86618 9.69224 8.63434 9.7453 8.42716 9.85397C8.21997 9.96264 8.04454 10.1232 7.918 10.32C7.60852 10.835 7.4608 11.4311 7.494 12.031C7.492 13.5437 8.06567 14.3 9.215 14.3ZM16.353 14.3C16.695 14.3006 17.0352 14.2514 17.363 14.154C17.6967 14.0553 18.0248 13.9388 18.346 13.805V15.6C17.6434 15.8995 16.8856 16.0477 16.122 16.035C15.621 16.0677 15.1189 15.9927 14.6494 15.815C14.1798 15.6374 13.7538 15.3612 13.4 15.005C12.716 14.1682 12.3766 13.1022 12.451 12.024C12.4356 11.2837 12.5928 10.55 12.91 9.881C13.1975 9.28595 13.657 8.79091 14.229 8.46C14.8488 8.11666 15.5486 7.94411 16.257 7.96C17.0993 7.95854 17.9311 8.14759 18.69 8.513L18.04 10.183C17.7576 10.0502 17.467 9.93561 17.17 9.84C16.8676 9.74449 16.5521 9.69724 16.235 9.7C16.0012 9.69224 15.7693 9.7453 15.5622 9.85397C15.355 9.96264 15.1795 10.1232 15.053 10.32C14.7435 10.835 14.5958 11.4311 14.629 12.031C14.629 13.5437 15.2037 14.3 16.353 14.3Z" fill="currentColor"/>
</svg>
