<svg width="24" height="24" viewBox="0 0 24 24"  xmlns="http://www.w3.org/2000/svg">
<g clip-path="url(#clip0_865_6739)">
<path fill-rule="evenodd" clip-rule="evenodd" d="M23.5656 23.5659C23.2532 23.8783 22.7467 23.8783 22.4343 23.5659L0.434266 1.56588C0.121847 1.25346 0.121846 0.746929 0.434265 0.434509C0.746685 0.12209 1.25322 0.122091 1.56564 0.43451L4.13134 3.00022H23.2501C23.6643 3.00022 24.0001 3.336 24.0001 3.75022V20.2502C24.0001 20.6644 23.6643 21.0002 23.2501 21.0002H22.1313L23.5656 22.4345C23.8781 22.7469 23.8781 23.2535 23.5656 23.5659ZM9.38985 8.25873L5.63134 4.50022H22.5001V19.5002H20.6313L16.8156 15.6845C17.1432 15.6345 17.4658 15.5535 17.779 15.4423C18.1693 15.3037 18.3734 14.8749 18.2348 14.4846C18.0962 14.0942 17.6674 13.8901 17.2771 14.0287C16.8556 14.1784 16.4098 14.2515 15.9613 14.2444C15.9417 14.244 15.9222 14.2445 15.9026 14.2457C15.7051 14.2581 15.5075 14.2379 15.3178 14.1866L14.1288 12.9977C14.0264 12.6941 13.9837 12.3718 14.0057 12.0481C14.0072 12.0255 14.0078 12.0028 14.0072 11.9802C13.9974 11.5487 14.088 11.1204 14.2724 10.728C14.4151 10.4318 14.6464 10.1833 14.9375 10.0166C15.2794 9.83244 15.6654 9.74017 16.0564 9.74994C16.0649 9.75016 16.0735 9.75022 16.0821 9.75014C16.5474 9.74579 17.0069 9.84868 17.4238 10.0501C17.7967 10.2303 18.2452 10.0741 18.4254 9.70109C18.6056 9.32813 18.4493 8.8797 18.0764 8.6995C17.4549 8.39924 16.7718 8.24559 16.0808 8.25011C15.4303 8.23611 14.7869 8.39147 14.2156 8.70155L14.2035 8.70844C13.645 9.02519 13.1962 9.50361 12.9189 10.0812L12.9166 10.0862C12.7195 10.5045 12.5918 10.9501 12.5371 11.4059L11.1442 10.013C11.2619 9.9405 11.361 9.83457 11.4255 9.70079C11.6056 9.32775 11.4491 8.87939 11.076 8.69936C10.5475 8.44427 9.97443 8.29503 9.38985 8.25873Z" fill="currentColor"/>
<path d="M0 3.75006C0 3.54295 0.0839466 3.35545 0.21967 3.21973L1.5 4.50006V19.5001H16.5L18 21.0001H0.75C0.335786 21.0001 0 20.6643 0 20.2501V3.75006ZM6.37969 9.37988C6.19582 9.59101 6.04015 9.8269 5.91803 10.0821L5.91611 10.0862C5.63679 10.6792 5.49669 11.327 5.50651 11.9813C5.45039 12.9584 5.75878 13.921 6.37188 14.6877C6.38588 14.7052 6.40066 14.7221 6.41618 14.7382C6.74615 15.0825 7.14809 15.3504 7.5932 15.5238C8.02914 15.6936 8.49654 15.7688 8.96383 15.7448C9.58178 15.7516 10.1962 15.6493 10.7781 15.4425C11.1684 15.3037 11.3723 14.8749 11.2336 14.4846C11.0949 14.0943 10.666 13.8904 10.2757 14.0291C9.8544 14.1789 9.40865 14.252 8.96034 14.2446C8.94122 14.2443 8.9221 14.2447 8.90302 14.2459C8.64177 14.2616 8.38042 14.2206 8.1376 14.126C7.90516 14.0355 7.69558 13.8982 7.52202 13.7238C7.14871 13.2436 6.9657 12.6478 7.00531 12.0466C7.00677 12.0246 7.00725 12.0024 7.00674 11.9803C6.99694 11.5486 7.08755 11.1201 7.2721 10.7275C7.32006 10.6276 7.37814 10.5331 7.44523 10.4454L6.37969 9.37988Z" fill="currentColor"/>
</g>
<defs>
<clipPath id="clip0_865_6739">
<rect width="24" height="24" fill="currentColor"/>
</clipPath>
</defs>
</svg>
