<svg width="24" height="24" viewBox="0 0 24 24"  xmlns="http://www.w3.org/2000/svg">
<path d="M21.5714 2.42857C21 1.85714 20.1429 1.85714 19.5714 2.42857L12 10L4.42857 2.42857C3.85714 1.85714 3 1.85714 2.42857 2.42857C1.85714 3 1.85714 3.85714 2.42857 4.42857L10 12L2.42857 19.5714C1.85714 20.1429 1.85714 21 2.42857 21.5714C2.71429 21.8571 3 22 3.42857 22C3.85714 22 4.14286 21.8571 4.42857 21.5714L12 14L19.5714 21.5714C19.8571 21.8571 20.2857 22 20.5714 22C20.8571 22 21.2857 21.8571 21.5714 21.5714C22.1429 21 22.1429 20.1429 21.5714 19.5714L14 12L21.5714 4.42857C22.1429 3.85714 22.1429 3 21.5714 2.42857Z" fill="currentColor"/>
</svg>
