<svg width="24" height="24" viewBox="0 0 24 24"  xmlns="http://www.w3.org/2000/svg">
<g clip-path="url(#clip0_865_1610)">
<path fill-rule="evenodd" clip-rule="evenodd" d="M13 0H14.5V2H14.7377C15.4339 2 16 2.71345 16 3.59081V9H8V3.59081C8 2.71345 8.56613 2 9.26308 2H13V0ZM8 9C6.29316 10.079 5.05115 11.9842 4.64 14.04C2.05 14.22 0 16.36 0 19C0 21.76 2.24 24 5 24H18C21.31 24 24 21.31 24 18C24 14.91 21.66 12.36 18.65 12.04C18.036 10.861 17.1178 9.70786 16 9V19.4082C16 20.2856 15.4339 21 14.7377 21H9.26308C8.56613 21 8 20.2856 8 19.4082V9ZM11.5 15C11.5 15.5523 11.0523 16 10.5 16C9.94771 16 9.5 15.5523 9.5 15C9.5 14.4477 9.94771 14 10.5 14C11.0523 14 11.5 14.4477 11.5 15ZM10.5 12.5C11.0523 12.5 11.5 12.0523 11.5 11.5C11.5 10.9477 11.0523 10.5 10.5 10.5C9.94771 10.5 9.5 10.9477 9.5 11.5C9.5 12.0523 9.94771 12.5 10.5 12.5ZM11.5 18.5C11.5 19.0523 11.0523 19.5 10.5 19.5C9.94771 19.5 9.5 19.0523 9.5 18.5C9.5 17.9477 9.94771 17.5 10.5 17.5C11.0523 17.5 11.5 17.9477 11.5 18.5ZM13.5 16C14.0523 16 14.5 15.5523 14.5 15C14.5 14.4477 14.0523 14 13.5 14C12.9477 14 12.5 14.4477 12.5 15C12.5 15.5523 12.9477 16 13.5 16ZM14.5 11.5C14.5 12.0523 14.0523 12.5 13.5 12.5C12.9477 12.5 12.5 12.0523 12.5 11.5C12.5 10.9477 12.9477 10.5 13.5 10.5C14.0523 10.5 14.5 10.9477 14.5 11.5ZM13.5 19.5C14.0523 19.5 14.5 19.0523 14.5 18.5C14.5 17.9477 14.0523 17.5 13.5 17.5C12.9477 17.5 12.5 17.9477 12.5 18.5C12.5 19.0523 12.9477 19.5 13.5 19.5Z" fill="currentColor"/>
</g>
<defs>
<clipPath id="clip0_865_1610">
<rect width="24" height="24" fill="currentColor"/>
</clipPath>
</defs>
</svg>
