<svg width="24" height="24" viewBox="0 0 24 24"  xmlns="http://www.w3.org/2000/svg">
<path d="M13 8V12H15.5L11.5 16L7.5 12H10V8H13Z" fill="currentColor"/>
<path fill-rule="evenodd" clip-rule="evenodd" d="M3.11059 10.5019C3.59845 6.32779 7.18022 3 11.4894 3C15.7595 3 19.2098 6.17001 19.8366 10.2614C22.1834 10.6005 24 12.648 24 15.1061C24 17.7995 21.8188 20 19.1489 20H4.85106C2.18123 20 0 17.7995 0 15.1061C0 13.0032 1.2987 11.1838 3.11059 10.5019ZM11.4894 4.54545C7.81475 4.54545 4.77825 7.51738 4.59474 11.1275C4.57728 11.4709 4.337 11.7613 4.00522 11.8401C2.623 12.1682 1.53191 13.4988 1.53191 15.1061C1.53191 16.946 3.02728 18.4545 4.85106 18.4545H19.1489C20.9727 18.4545 22.4681 16.946 22.4681 15.1061C22.4681 13.2662 20.9727 11.7576 19.1489 11.7576C18.7487 11.7576 18.4159 11.4467 18.3852 11.0441C18.1085 7.41508 15.161 4.54545 11.4894 4.54545Z" fill="currentColor"/>
</svg>
