<svg width="24" height="24" viewBox="0 0 24 24"  xmlns="http://www.w3.org/2000/svg">
<g clip-path="url(#clip0_865_1605)">
<path fill-rule="evenodd" clip-rule="evenodd" d="M8.18555 2.41022V18.9154C8.18555 19.1065 8.34521 19.2675 8.5348 19.2675H15.6756C15.8642 19.2675 16.0239 19.1065 16.0239 18.9154V2.41022C16.0239 2.22008 15.8642 2.05811 15.6756 2.05811H8.5348C8.34521 2.05811 8.18555 2.22008 8.18555 2.41022ZM8.53446 20.5761C7.62539 20.5761 6.88696 19.8306 6.88696 18.9151V2.40997C6.88696 1.49447 7.62539 0.75 8.53446 0.75H15.6753C16.5833 0.75 17.3217 1.49447 17.3217 2.40997V18.9151C17.3217 19.8306 16.5833 20.5761 15.6753 20.5761H8.53446ZM10.6003 9.07926H13.6079V5.32471H10.6003V9.07926ZM9.30322 10.3881H14.9063V4.01587H9.30322V10.3881ZM10.5292 12.093C9.94347 12.093 9.46948 12.5719 9.46948 13.1614C9.46948 13.752 9.94347 14.2309 10.5292 14.2309C11.115 14.2309 11.589 13.752 11.589 13.1614C11.589 12.5719 11.115 12.093 10.5292 12.093ZM13.5856 12.093C12.9999 12.093 12.5259 12.5719 12.5259 13.1614C12.5259 13.752 12.9999 14.2309 13.5856 14.2309C14.1714 14.2309 14.6454 13.752 14.6454 13.1614C14.6454 12.5719 14.1714 12.093 13.5856 12.093ZM10.5292 15.2373C9.94347 15.2373 9.46948 15.7162 9.46948 16.3057C9.46948 16.8963 9.94347 17.3751 10.5292 17.3751C11.115 17.3751 11.589 16.8963 11.589 16.3057C11.589 15.7162 11.115 15.2373 10.5292 15.2373ZM13.5856 15.2373C12.9999 15.2373 12.5259 15.7162 12.5259 16.3057C12.5259 16.8963 12.9999 17.3751 13.5856 17.3751C14.1714 17.3751 14.6454 16.8963 14.6454 16.3057C14.6454 15.7162 14.1714 15.2373 13.5856 15.2373ZM20.0541 11.384C19.8253 10.9367 19.5561 10.5043 19.2506 10.0977C19.0379 9.81139 18.6276 9.74876 18.3352 9.96149C18.0439 10.1732 17.9813 10.5778 18.1971 10.8651C18.5056 11.2767 18.7717 11.7171 18.9865 12.1743L19.1054 12.4248L19.3696 12.5133C21.3556 13.1784 22.6884 15.0095 22.6884 17.0742C22.6884 19.7304 20.4967 21.8915 17.8029 21.8915H5.15164C3.03352 21.8915 1.3116 20.1936 1.3116 18.1061C1.3116 16.436 2.4125 14.9866 4.04974 14.4985L4.43384 14.3852L4.50542 13.9955C4.72923 12.7867 5.2575 11.6355 6.03478 10.6663C6.25859 10.386 6.21121 9.98038 5.92691 9.7587C5.64564 9.53801 5.23129 9.58473 5.00647 9.86507C4.17777 10.8989 3.59002 12.1097 3.29362 13.3891C1.30858 14.1426 0 15.9926 0 18.1061C0 20.9034 2.30665 23.1799 5.19499 23.1799L17.8029 23.1848C21.2195 23.1848 24 20.4432 24 17.0742C24 14.5492 22.4263 12.2966 20.0541 11.384Z" fill="currentColor"/>
</g>
<defs>
<clipPath id="clip0_865_1605">
<rect width="24" height="24" fill="currentColor"/>
</clipPath>
</defs>
</svg>
