<svg width="24" height="24" viewBox="0 0 24 24"  xmlns="http://www.w3.org/2000/svg">
<path fill-rule="evenodd" clip-rule="evenodd" d="M11.25 3C6.86124 3 3.27192 6.42849 3.01474 10.7528C1.26045 11.3664 0 13.0345 0 15C0 17.4857 2.01429 19.5 4.5 19.5H19.5C21.9856 19.5 24 17.4857 24 15C24 12.5143 21.9856 10.5 19.5 10.5L19.4664 10.5001C19.0874 6.29571 15.5529 3 11.25 3ZM4.50161 11.2221L4.50012 11.2096C4.52186 7.5009 7.53618 4.5 11.25 4.5C14.964 4.5 17.9784 7.50119 17.9998 11.2101L17.9981 11.2254C17.9953 11.2504 17.9925 11.2852 17.9925 11.3265C17.9925 11.5515 18.0935 11.7646 18.2677 11.9071C18.4419 12.0495 18.6708 12.1062 18.8913 12.0616C19.089 12.0216 19.2925 12 19.5 12C21.1574 12 22.5 13.3427 22.5 15C22.5 16.6574 21.1574 18 19.5 18H4.5C2.84271 18 1.5 16.6574 1.5 15C1.5 13.5484 2.53351 12.3363 3.90546 12.0603C4.25562 11.9898 4.5075 11.6822 4.5075 11.325C4.5075 11.2823 4.50436 11.2466 4.50161 11.2221Z" fill="currentColor"/>
</svg>
