<svg width="24" height="24" viewBox="0 0 24 24"  xmlns="http://www.w3.org/2000/svg">
<g clip-path="url(#clip0_865_2432)">
<path fill-rule="evenodd" clip-rule="evenodd" d="M12 0.75C16.0695 0.75 19.467 3.65925 20.1315 7.60875C22.344 8.07825 24 10.0642 24 12.375C24 14.883 22.053 17.0228 19.5675 17.247C19.545 17.2493 19.5225 17.25 19.5 17.25H13.125V10.5H16.5L12 6L7.5 10.5H10.875V17.25H5.25C2.2815 17.0257 0 14.556 0 11.625C0 9.0195 1.761 6.7965 4.24875 6.17475C5.4315 2.91225 8.4915 0.75 12 0.75ZM10.875 17.25V23.25H13.125V17.25H10.875Z" fill="currentColor"/>
</g>
<defs>
<clipPath id="clip0_865_2432">
<rect width="24" height="24" fill="currentColor"/>
</clipPath>
</defs>
</svg>
