<svg width="24" height="24" viewBox="0 0 24 24"  xmlns="http://www.w3.org/2000/svg">
<g clip-path="url(#clip0_865_4278)">
<path d="M22.5 0H1.5C1.10218 0 0.720644 0.158035 0.43934 0.43934C0.158035 0.720644 0 1.10218 0 1.5V22.5C0 22.8978 0.158035 23.2794 0.43934 23.5607C0.720644 23.842 1.10218 24 1.5 24H22.5C22.8978 24 23.2794 23.842 23.5607 23.5607C23.842 23.2794 24 22.8978 24 22.5V1.5C24 1.10218 23.842 0.720644 23.5607 0.43934C23.2794 0.158035 22.8978 0 22.5 0ZM3.4395 16.9395L8.379 12L3.4395 7.0605L5.5605 4.9395L12.621 12L5.5605 19.0605L3.4395 16.9395ZM19.5 19.5H12V16.5H19.5V19.5ZM19.5 13.5H15V10.5H19.5V13.5ZM19.5 7.5H12V4.5H19.5V7.5Z" fill="currentColor"/>
</g>
<defs>
<clipPath id="clip0_865_4278">
<rect width="24" height="24" fill="currentColor"/>
</clipPath>
</defs>
</svg>
