<svg width="24" height="24" viewBox="0 0 24 24"  xmlns="http://www.w3.org/2000/svg">
<g clip-path="url(#clip0_865_4272)">
<path fill-rule="evenodd" clip-rule="evenodd" d="M2.25 1.5C1.83579 1.5 1.5 1.83579 1.5 2.25V21.75C1.5 22.1642 1.83579 22.5 2.25 22.5H21.75C22.1642 22.5 22.5 22.1642 22.5 21.75V2.25C22.5 1.83579 22.1642 1.5 21.75 1.5H2.25ZM0 2.25C0 1.00736 1.00736 0 2.25 0H21.75C22.9926 0 24 1.00736 24 2.25V21.75C24 22.9926 22.9926 24 21.75 24H2.25C1.00736 24 0 22.9926 0 21.75V2.25ZM4.71968 6.21968C5.01257 5.92677 5.48743 5.92677 5.78032 6.21968L11.0303 11.4697C11.3232 11.7626 11.3232 12.2374 11.0303 12.5303L5.78032 17.7804C5.48743 18.0732 5.01257 18.0732 4.71968 17.7804C4.42677 17.4874 4.42677 17.0126 4.71968 16.7196L9.43933 12L4.71968 7.28032C4.42677 6.98743 4.42677 6.51257 4.71968 6.21968ZM11.25 6C10.8358 6 10.5 6.33579 10.5 6.75C10.5 7.16421 10.8358 7.5 11.25 7.5H18.75C19.1642 7.5 19.5 7.16421 19.5 6.75C19.5 6.33579 19.1642 6 18.75 6H11.25ZM11.25 16.5H18.75C19.1642 16.5 19.5 16.8358 19.5 17.25C19.5 17.6642 19.1642 18 18.75 18H11.25C10.8358 18 10.5 17.6642 10.5 17.25C10.5 16.8358 10.8358 16.5 11.25 16.5ZM14.25 11.25C13.8358 11.25 13.5 11.5858 13.5 12C13.5 12.4142 13.8358 12.75 14.25 12.75H18.75C19.1642 12.75 19.5 12.4142 19.5 12C19.5 11.5858 19.1642 11.25 18.75 11.25H14.25Z" fill="currentColor"/>
</g>
<defs>
<clipPath id="clip0_865_4272">
<rect width="24" height="24" fill="currentColor"/>
</clipPath>
</defs>
</svg>
