<svg width="24" height="24" viewBox="0 0 24 24"  xmlns="http://www.w3.org/2000/svg">
<path fill-rule="evenodd" clip-rule="evenodd" d="M5.78033 6.96967C6.07322 7.26256 6.07322 7.73744 5.78033 8.03033L1.81066 12L5.78033 15.9697C6.07322 16.2626 6.07322 16.7374 5.78033 17.0303C5.48744 17.3232 5.01256 17.3232 4.71967 17.0303L0.21967 12.5303C-0.0732233 12.2374 -0.0732233 11.7626 0.21967 11.4697L4.71967 6.96967C5.01256 6.67678 5.48744 6.67678 5.78033 6.96967ZM18.2197 6.96967C18.5126 6.67678 18.9874 6.67678 19.2803 6.96967L23.7803 11.4697C24.0732 11.7626 24.0732 12.2374 23.7803 12.5303L19.2803 17.0303C18.9874 17.3232 18.5126 17.3232 18.2197 17.0303C17.9268 16.7374 17.9268 16.2626 18.2197 15.9697L22.1893 12L18.2197 8.03033C17.9268 7.73744 17.9268 7.26256 18.2197 6.96967ZM14.4321 2.02315C14.8339 2.12618 15.0782 2.54382 14.9778 2.95596L10.4778 21.4172C10.3773 21.8293 9.97012 22.0799 9.56828 21.9769C9.16643 21.8738 8.92211 21.4562 9.02257 21.044L13.5226 2.58284C13.623 2.17069 14.0302 1.92011 14.4321 2.02315Z" fill="currentColor"/>
</svg>
