<svg width="24" height="24" viewBox="0 0 24 24"  xmlns="http://www.w3.org/2000/svg">
<g clip-path="url(#clip0_865_5787)">
<path d="M5.30355 17.1962C5.10829 17.3914 4.79171 17.3914 4.59645 17.1962L0.45 13.0497C-0.15 12.4497 -0.15 11.5497 0.45 10.9497L4.59645 6.80326C4.79171 6.608 5.10829 6.608 5.30355 6.80326L6.69645 8.19615C6.89171 8.39142 6.89171 8.708 6.69645 8.90326L3.6 11.9997L6.69645 15.0962C6.89171 15.2914 6.89171 15.608 6.69645 15.8033L5.30355 17.1962ZM19.4036 17.1962C19.2084 17.3914 18.8918 17.3914 18.6965 17.1962L17.3036 15.8033C17.1084 15.608 17.1084 15.2914 17.3036 15.0962L20.4001 11.9997L17.3036 8.90326C17.1084 8.708 17.1084 8.39142 17.3036 8.19615L18.6965 6.80326C18.8918 6.608 19.2084 6.608 19.4036 6.80326L23.5501 10.9497C24.1501 11.5497 24.1501 12.4497 23.5501 13.0497L19.4036 17.1962ZM8.4898 22.8436C8.63917 23 8.78854 23 8.93791 23C9.53539 23 10.1329 22.5307 10.4316 21.9049L16.4064 3.13176C16.7052 2.19311 16.2571 1.41089 15.5102 1.09801C14.614 0.785118 13.8671 1.25445 13.5684 2.03666L7.59358 20.8098C7.29483 21.7485 7.74295 22.5307 8.4898 22.8436Z" fill="currentColor"/>
</g>
<defs>
<clipPath id="clip0_865_5787">
<rect width="24" height="24" fill="currentColor"/>
</clipPath>
</defs>
</svg>
