<svg width="24" height="24" viewBox="0 0 24 24"  xmlns="http://www.w3.org/2000/svg">
<path d="M22.0833 7H1.91667C1.40975 7 1 7.41507 1 7.92857V10.7143C1 15.8344 5.11217 20 10.1667 20C13.9167 20 17.1443 17.7036 18.5624 14.4286H20.25C21.7662 14.4286 23 13.1787 23 11.6429V7.92857C23 7.41507 22.5903 7 22.0833 7ZM21.1667 11.6429C21.1667 12.1554 20.756 12.5714 20.25 12.5714H19.1482C19.2692 11.9716 19.3333 11.3504 19.3333 10.7143V8.85714H21.1667V11.6429ZM20 21H2C1.447 21 1 21.447 1 22C1 22.553 1.447 23 2 23H20C20.553 23 21 22.553 21 22C21 21.447 20.553 21 20 21ZM6 5V3C6 2.44772 5.55228 2 5 2C4.44772 2 4 2.44772 4 3V5C4 5.55228 4.44772 6 5 6C5.55228 6 6 5.55228 6 5ZM11 4V2C11 1.44772 10.5523 1 10 1C9.44772 1 9 1.44772 9 2V4C9 4.55228 9.44772 5 10 5C10.5523 5 11 4.55228 11 4ZM16 5V3C16 2.44772 15.5523 2 15 2C14.4477 2 14 2.44772 14 3V5C14 5.55228 14.4477 6 15 6C15.5523 6 16 5.55228 16 5Z" fill="currentColor"/>
</svg>
