<svg width="24" height="24" viewBox="0 0 24 24"  xmlns="http://www.w3.org/2000/svg">
<path d="M15 2C15.4142 2 15.75 2.33579 15.75 2.75V4.75C15.75 5.16421 15.4142 5.5 15 5.5C14.5858 5.5 14.25 5.16421 14.25 4.75V2.75C14.25 2.33579 14.5858 2 15 2ZM10.75 1.75C10.75 1.33579 10.4142 1 10 1C9.58579 1 9.25 1.33579 9.25 1.75V3.75C9.25 4.16421 9.58579 4.5 10 4.5C10.4142 4.5 10.75 4.16421 10.75 3.75V1.75ZM5.75 2.75C5.75 2.33579 5.41421 2 5 2C4.58579 2 4.25 2.33579 4.25 2.75V4.75C4.25 5.16421 4.58579 5.5 5 5.5C5.41421 5.5 5.75 5.16421 5.75 4.75V2.75ZM1.72973 21.5C1.32671 21.5 1 21.8358 1 22.25C1 22.6642 1.32671 23 1.72973 23H18.2703C18.6733 23 19 22.6642 19 22.25C19 21.8358 18.6733 21.5 18.2703 21.5H1.72973Z" fill="currentColor"/>
<path fill-rule="evenodd" clip-rule="evenodd" d="M20.4255 14.5H18.5644C17.198 18.0344 13.9499 20.5 10.1277 20.5C5.05903 20.5 1 16.1642 1 10.75V7.75C1 7.33579 1.31435 7 1.70213 7H22.2979C22.6856 7 23 7.33579 23 7.75V11.75C23 13.2642 21.8431 14.5 20.4255 14.5ZM19.2553 10.75L19.25 8.5H21.5V11.75C21.5 12.4358 21.0675 13 20.4255 13H19C19.1575 12.2785 19.2553 11.5253 19.2553 10.75ZM2.5 8.5V10.75C2.5 15.3358 5.83458 19 10.1277 19C14.4207 19 17.75 15.3358 17.75 10.75V8.5H2.5Z" fill="currentColor"/>
</svg>
