<svg width="24" height="24" viewBox="0 0 24 24" fill="none" xmlns="http://www.w3.org/2000/svg">
<path d="M5.07286 17.1849H3.87343C3.16552 17.1849 2.59156 16.6126 2.59156 15.9068V8.86209C2.59156 8.15625 3.16552 7.58397 3.87343 7.58397H5.35898C6.25512 7.58397 7.07432 7.07882 7.47517 6.27949L8.11679 5H3.92392C1.76583 5 0 6.76066 0 8.91243V15.8565C0 18.0082 1.76583 19.7689 3.92392 19.7689H7.42708V19.5322C7.42708 18.2356 6.37294 17.1849 5.07286 17.1849ZM20.1259 7.58397H8.14391L8.14253 7.58706H7.5727C7.90725 7.58706 8.20026 7.40995 8.36273 7.14488C8.36581 7.13976 8.3689 7.13463 8.37198 7.12917L8.42659 7.0206L9.43986 5H20.0658C22.2294 5 23.9993 6.76512 23.9993 8.92202V9.57649L21.4078 10.9193V8.86209C21.4078 8.15625 20.8338 7.58397 20.1259 7.58397ZM21.4081 13.8496V15.9071C21.4081 16.613 20.8341 17.1853 20.1262 17.1853H12.132C12.0805 17.1853 12.029 17.187 11.9778 17.1904V17.1853H11.0717C9.7716 17.1853 8.71746 18.2363 8.71746 19.5326V19.7692H20.0665C22.23 19.7692 24 18.0041 24 15.8472V15.1927L21.4081 13.8496Z" fill="black"/>
</svg>
