<svg width="24" height="24" viewBox="0 0 24 24"  xmlns="http://www.w3.org/2000/svg">
<g clip-path="url(#clip0_865_4743)">
<path fill-rule="evenodd" clip-rule="evenodd" d="M14.7041 0.118642C13.0935 -0.394969 11 0.786993 11 2.50001V6C11 6.55228 11.4477 7 12 7H13C13.5523 7 14 6.55228 14 6V3.00016L21 6.31704V20.9562H14V10.0002C14 9.44788 13.5523 9.00016 13 9.00016H6C5.44772 9.00016 5 9.44787 5 10.0002V20.9562H3V16C3 15.4477 2.55228 15 2 15H1C0.447715 15 0 15.4477 0 16V23C0 23.5523 0.447715 24 1 24H2C2.06621 24 2.13091 23.9936 2.19353 23.9813C2.29396 23.9937 2.39624 24.0002 2.5 24.0002H21.5C21.6038 24.0002 21.706 23.9937 21.8065 23.9813C21.8691 23.9936 21.9338 24 22 24H23C23.5523 24 24 23.5523 24 23V5.9447C24 4.83675 23.2913 3.85698 22.2496 3.52479L14.7041 0.118642ZM8 12.0002H11V14.0002H8V12.0002ZM11 16.0002H8V18.0002H11V16.0002Z" fill="currentColor"/>
<path d="M16 10C16 9.44771 16.4477 9 17 9H18C18.5523 9 19 9.44772 19 10V19C19 19.5522 18.5523 20 18 20H17C16.4477 20 16 19.5522 16 19V10Z" fill="currentColor"/>
</g>
<defs>
<clipPath id="clip0_865_4743">
<rect width="24" height="24" fill="currentColor"/>
</clipPath>
</defs>
</svg>
