<svg width="24" height="24" viewBox="0 0 24 24"  xmlns="http://www.w3.org/2000/svg">
<path fill-rule="evenodd" clip-rule="evenodd" d="M18.898 1.21967C18.6051 0.926777 18.1302 0.926777 17.8373 1.21967L7.19027 11.8667C7.08557 11.9714 7.0142 12.1048 6.98516 12.25L6.01458 17.1029C5.9654 17.3488 6.04236 17.603 6.21968 17.7803C6.397 17.9576 6.6512 18.0346 6.8971 17.9854L11.75 17.0148C11.8952 16.9858 12.0286 16.9144 12.1333 16.8097L22.7803 6.16268C23.0732 5.86979 23.0732 5.39492 22.7803 5.10202L18.898 1.21967ZM7.70608 16.2939L8.4115 12.7668L18.3677 2.81066L21.1894 5.63235L11.2332 15.5885L7.70608 16.2939Z" fill="currentColor"/>
<path d="M3.00021 3.74269C3.00021 3.29415 3.30026 2.99512 3.75032 2.99512H11.2517C11.7017 2.99512 12.0018 2.6961 12.0018 2.24756C12.0018 1.79902 11.7017 1.5 11.2517 1.5H3.75032C2.55015 1.5 1.5 2.54659 1.5 3.74269V20.2573C1.5 21.4534 2.55015 22.5 3.75032 22.5H20.2497C21.4499 22.5 22.5 21.4534 22.5 20.2573V13.7784C22.5 13.3299 22.2 13.0309 21.7499 13.0309C21.2998 13.0309 20.9998 13.3299 20.9998 13.7784V20.2573C20.9998 20.7059 20.6997 21.0049 20.2497 21.0049H3.75032C3.30026 21.0049 3.00021 20.7059 3.00021 20.2573V3.74269Z" fill="currentColor"/>
</svg>
