<svg width="24" height="24" viewBox="0 0 24 24"  xmlns="http://www.w3.org/2000/svg">
<path d="M8.25 12.25C8.25 11.8358 8.58579 11.5 9 11.5H11C11.4142 11.5 11.75 11.8358 11.75 12.25C11.75 12.6642 11.4142 13 11 13H9C8.58579 13 8.25 12.6642 8.25 12.25ZM9 14.5C8.58579 14.5 8.25 14.8358 8.25 15.25C8.25 15.6642 8.58579 16 9 16H11C11.4142 16 11.75 15.6642 11.75 15.25C11.75 14.8358 11.4142 14.5 11 14.5H9ZM8.25 18.25C8.25 17.8358 8.58579 17.5 9 17.5H11C11.4142 17.5 11.75 17.8358 11.75 18.25C11.75 18.6642 11.4142 19 11 19H9C8.58579 19 8.25 18.6642 8.25 18.25Z" fill="currentColor"/>
<path fill-rule="evenodd" clip-rule="evenodd" d="M14.5652 2.75129C14.5652 2.5735 14.7536 2.45258 14.9252 2.52015L22.2731 5.80564C22.3709 5.84415 22.4348 5.93545 22.4348 6.03678V21.2511C22.4348 21.3891 22.318 21.501 22.1739 21.501H15V8C15 7.44772 14.5523 7 14 7H6C5.44772 7 5 7.44772 5 8V11H1.55556C0.696446 11 0 11.6964 0 12.5556V21.4444C0 22.3036 0.696446 23 1.55556 23H14C14.0971 23 14.191 22.9862 14.2798 22.9603V23.0003H22.1739C23.1824 23.0003 24 22.2171 24 21.2511V6.03678C24 5.32747 23.5528 4.68837 22.8679 4.41881L15.5201 1.13331C13.7826 0.500055 13 0.500334 13 2.75129V4.73623C13 5.15026 13.3504 5.4859 13.7826 5.4859C14.2148 5.4859 14.5652 5.15026 14.5652 4.73623V2.75129ZM6.5 21.5V8.5H13.5V21.5H6.5ZM1.55556 21.6667H5V12.3333H1.55556C1.43283 12.3333 1.33333 12.4328 1.33333 12.5556V21.4444C1.33333 21.5672 1.43283 21.6667 1.55556 21.6667Z" fill="currentColor"/>
<path d="M19 7.25C19.4142 7.25 19.75 7.58579 19.75 8V18C19.75 18.4142 19.4142 18.75 19 18.75C18.5858 18.75 18.25 18.4142 18.25 18V8C18.25 7.58579 18.5858 7.25 19 7.25Z" fill="currentColor"/>
</svg>
