<svg width="24" height="24" viewBox="0 0 24 24"  xmlns="http://www.w3.org/2000/svg">
<path d="M9.75 1C9.33579 1 9 1.33579 9 1.75V6.25C9 6.66421 9.33579 7 9.75 7H14.25C14.6642 7 15 6.66421 15 6.25V1.75C15 1.33579 14.6642 1 14.25 1H9.75ZM8.89312 9.63587C9.10623 9.28069 8.99106 8.81999 8.63587 8.60688C8.28069 8.39377 7.81999 8.50894 7.60688 8.86413L3.32536 16H0.75C0.335786 16 0 16.3358 0 16.75V22.75C0 23.1642 0.335786 23.5 0.75 23.5H6.75C7.16421 23.5 7.5 23.1642 7.5 22.75V16.75C7.5 16.3358 7.16421 16 6.75 16H5.07464L8.89312 9.63587ZM16.3931 8.86413C16.18 8.50894 15.7193 8.39377 15.3641 8.60688C15.0089 8.81999 14.8938 9.28069 15.1069 9.63587L18.9254 16H17.25C16.8358 16 16.5 16.3358 16.5 16.75V22.75C16.5 23.1642 16.8358 23.5 17.25 23.5H23.25C23.6642 23.5 24 23.1642 24 22.75V16.75C24 16.3358 23.6642 16 23.25 16H20.6746L16.3931 8.86413Z" fill="currentColor"/>
</svg>
