<svg width="24" height="24" viewBox="0 0 24 24"  xmlns="http://www.w3.org/2000/svg">
<path fill-rule="evenodd" clip-rule="evenodd" d="M9 1.75C9 1.33579 9.33579 1 9.75 1H14.25C14.6642 1 15 1.33579 15 1.75V6.25C15 6.66421 14.6642 7 14.25 7H9.75C9.33579 7 9 6.66421 9 6.25V1.75ZM10.5 2.5V5.5H13.5V2.5H10.5ZM8.63587 8.60688C8.99106 8.81999 9.10623 9.28069 8.89312 9.63587L5.07464 16H6.75C7.16421 16 7.5 16.3358 7.5 16.75V22.75C7.5 23.1642 7.16421 23.5 6.75 23.5H0.75C0.335786 23.5 0 23.1642 0 22.75V16.75C0 16.3358 0.335786 16 0.75 16H3.32536L7.60688 8.86413C7.81999 8.50894 8.28069 8.39377 8.63587 8.60688ZM3.73625 17.5H1.5V22H6V17.5H3.76233C3.75365 17.5002 3.74495 17.5002 3.73625 17.5ZM15.3641 8.60688C15.7193 8.39377 16.18 8.50894 16.3931 8.86413L20.6746 16H23.25C23.6642 16 24 16.3358 24 16.75V22.75C24 23.1642 23.6642 23.5 23.25 23.5H17.25C16.8358 23.5 16.5 23.1642 16.5 22.75V16.75C16.5 16.3358 16.8358 16 17.25 16H18.9254L15.1069 9.63587C14.8938 9.28069 15.0089 8.81999 15.3641 8.60688ZM20.2377 17.5H18V22H22.5V17.5H20.2638C20.2551 17.5002 20.2464 17.5002 20.2377 17.5Z" fill="currentColor"/>
</svg>
