<svg width="24" height="24" viewBox="0 0 24 24"  xmlns="http://www.w3.org/2000/svg">
<path fill-rule="evenodd" clip-rule="evenodd" d="M18 1.5C17.4477 1.5 17 1.94772 17 2.5V11C17 11.5523 17.4477 12 18 12H21.5C22.0523 12 22.5 11.5523 22.5 11V2.5C22.5 1.94772 22.0523 1.5 21.5 1.5H18ZM18.5 10.5V3H21V10.5H18.5ZM1.5 13C1.5 12.4477 1.94772 12 2.5 12H6C6.55228 12 7 12.4477 7 13V21.5C7 22.0523 6.55228 22.5 6 22.5H2.5C1.94772 22.5 1.5 22.0523 1.5 21.5V13ZM3 13.5V21H5.5V13.5H3Z" fill="currentColor"/>
<path d="M20.5 16.875C20.5 18.3182 20.0457 19.7276 19.2022 20.7888C18.3551 21.8545 17.1645 22.5 15.875 22.5C14.5855 22.5 13.3949 21.8545 12.5478 20.7888C11.7043 19.7276 11.25 18.3182 11.25 16.875V7.125C11.25 5.98231 10.8878 4.91176 10.2779 4.14454C9.67155 3.38168 8.89095 3 8.125 3C7.35905 3 6.57845 3.38168 5.97208 4.14454C5.36224 4.91176 5 5.98231 5 7.125V9.75C5 10.1642 4.66421 10.5 4.25 10.5C3.83579 10.5 3.5 10.1642 3.5 9.75V7.125C3.5 5.68183 3.95428 4.27243 4.79784 3.21117C5.64488 2.14555 6.83553 1.5 8.125 1.5C9.41447 1.5 10.6051 2.14555 11.4522 3.21117C12.2957 4.27243 12.75 5.68183 12.75 7.125V16.875C12.75 18.0177 13.1122 19.0882 13.7221 19.8555C14.3285 20.6183 15.109 21 15.875 21C16.641 21 17.4215 20.6183 18.0279 19.8555C18.6378 19.0882 19 18.0177 19 16.875V14.25C19 13.8358 19.3358 13.5 19.75 13.5C20.1642 13.5 20.5 13.8358 20.5 14.25V16.875Z" fill="currentColor"/>
</svg>
