<svg width="24" height="24" viewBox="0 0 24 24"  xmlns="http://www.w3.org/2000/svg">
<path d="M18.5 1.5H21.5C22.0523 1.5 22.5 1.94772 22.5 2.5V11.5C22.5 12.0523 22.0523 12.5 21.5 12.5H18.5C17.9477 12.5 17.5 12.0523 17.5 11.5V2.5C17.5 1.94772 17.9477 1.5 18.5 1.5ZM5.5 11.5H2.5C1.94772 11.5 1.5 11.9477 1.5 12.5V21.5C1.5 22.0523 1.94772 22.5 2.5 22.5H5.5C6.05228 22.5 6.5 22.0523 6.5 21.5V12.5C6.5 11.9477 6.05228 11.5 5.5 11.5ZM21.5 16.5C21.5 18.038 20.9585 19.5434 19.9495 20.6785C18.9354 21.8194 17.5195 22.5 16 22.5C14.4805 22.5 13.0646 21.8194 12.0505 20.6785C11.0415 19.5434 10.5 18.038 10.5 16.5V7.5C10.5 6.65104 10.1986 5.86729 9.70731 5.31457C9.22112 4.7676 8.60221 4.5 8 4.5C7.39779 4.5 6.77888 4.7676 6.29269 5.31457C5.80138 5.86729 5.5 6.65105 5.5 7.5V9C5.5 9.27614 5.27614 9.5 5 9.5H3C2.72386 9.5 2.5 9.27614 2.5 9V7.5C2.5 5.96201 3.04148 4.45658 4.05046 3.32147C5.06456 2.18062 6.48047 1.5 8 1.5C9.51953 1.5 10.9354 2.18062 11.9495 3.32147C12.9585 4.45658 13.5 5.96201 13.5 7.5V16.5C13.5 17.349 13.8014 18.1327 14.2927 18.6854C14.7789 19.2324 15.3978 19.5 16 19.5C16.6022 19.5 17.2211 19.2324 17.7073 18.6854C18.1986 18.1327 18.5 17.349 18.5 16.5V15C18.5 14.7239 18.7239 14.5 19 14.5H21C21.2761 14.5 21.5 14.7239 21.5 15V16.5Z" fill="currentColor"/>
</svg>
