<svg width="24" height="24" viewBox="0 0 24 24"  xmlns="http://www.w3.org/2000/svg">
<path fill-rule="evenodd" clip-rule="evenodd" d="M1.76746 5.09302H13.3399C13.7102 2.77979 15.7255 1 18.1396 1C20.8146 1 23 3.18546 23 5.86047C23 8.53547 20.8146 10.7209 18.1396 10.7209C17.1683 10.7209 16.2951 10.415 15.5265 9.95527L10.7209 15.3615V21.4651H15.0698C15.4936 21.4651 15.8372 21.8087 15.8372 22.2326C15.8372 22.6564 15.4936 23 15.0698 23H4.83722C4.41338 23 4.06978 22.6564 4.06978 22.2326C4.06978 21.8087 4.41338 21.4651 4.83722 21.4651H9.18606V15.3616L1.19386 6.37033C0.993084 6.14445 0.943562 5.82177 1.06736 5.54608C1.19117 5.27039 1.46524 5.09302 1.76746 5.09302ZM18.1395 5.09302H14.9042C15.2535 3.63171 16.5761 2.53488 18.1396 2.53488C19.9669 2.53488 21.4651 4.03315 21.4651 5.86047C21.4651 7.68778 19.9669 9.18605 18.1396 9.18605C17.5975 9.18605 17.0759 9.04151 16.5705 8.78085L18.7131 6.37033C18.9139 6.14445 18.9634 5.82177 18.8396 5.54608C18.7158 5.27039 18.4418 5.09302 18.1395 5.09302ZM9.9535 13.9146L7.11467 10.7209H12.7923L9.9535 13.9146ZM16.4305 6.62793L14.1566 9.18607H5.75022L3.47632 6.62793H16.4305Z" fill="currentColor"/>
</svg>
