<svg width="24" height="24" viewBox="0 0 24 24"  xmlns="http://www.w3.org/2000/svg">
<g clip-path="url(#clip0_865_2948)">
<path fill-rule="evenodd" clip-rule="evenodd" d="M17.85 0.15L23.85 6.15C23.85 6.225 23.8875 6.3375 23.925 6.45C23.9625 6.5625 24 6.675 24 6.75V18.75C24 19.2 23.7 19.5 23.25 19.5H16.5V18H22.5V7.5H17.25C16.8 7.5 16.5 7.2 16.5 6.75V1.5H10.5V3H9V0.75C9 0.3 9.3 0 9.75 0H17.25C17.325 0 17.4375 0.0375 17.55 0.075C17.6625 0.1125 17.775 0.15 17.85 0.15ZM18 2.55V6H21.45L18 2.55ZM8.55 4.575C8.6625 4.6125 8.775 4.65 8.85 4.65L14.85 10.65C14.85 10.725 14.8875 10.8375 14.925 10.95C14.9625 11.0625 15 11.175 15 11.25V23.25C15 23.7 14.7 24 14.25 24H0.75C0.3 24 0 23.7 0 23.25V5.25C0 4.8 0.3 4.5 0.75 4.5H8.25C8.325 4.5 8.4375 4.5375 8.55 4.575ZM12.45 10.5L9 7.05V10.5H12.45ZM1.5 6V22.5H13.5V12H8.25C7.8 12 7.5 11.7 7.5 11.25V6H1.5Z" fill="currentColor"/>
</g>
<defs>
<clipPath id="clip0_865_2948">
<rect width="24" height="24" fill="currentColor"/>
</clipPath>
</defs>
</svg>
