<svg width="24" height="24" viewBox="0 0 24 24"  xmlns="http://www.w3.org/2000/svg">
<path fill-rule="evenodd" clip-rule="evenodd" d="M2.25 1.5C1.83579 1.5 1.5 1.83579 1.5 2.25V16.75C1.5 17.1642 1.83579 17.5 2.25 17.5H16.75C17.1642 17.5 17.5 17.1642 17.5 16.75V2.25C17.5 1.83579 17.1642 1.5 16.75 1.5H2.25ZM3 16V3H16V16H3ZM19.75 6C19.3358 6 19 6.33579 19 6.75C19 7.16421 19.3358 7.5 19.75 7.5H21V21H7.5V19.75C7.5 19.3358 7.16421 19 6.75 19C6.33579 19 6 19.3358 6 19.75V21.75C6 22.1642 6.33579 22.5 6.75 22.5H21.75C22.1642 22.5 22.5 22.1642 22.5 21.75V6.75C22.5 6.33579 22.1642 6 21.75 6H19.75Z" fill="currentColor"/>
</svg>
