<svg width="24" height="24" viewBox="0 0 24 24"  xmlns="http://www.w3.org/2000/svg">
<g clip-path="url(#clip0_3572_34)">
<path d="M17.1481 0.0012207H6.74812C4.64812 0.0012207 2.94812 1.70122 2.94812 3.80122V20.3012C2.94812 22.3012 4.64812 24.0012 6.74812 24.0012H17.2481C19.3481 24.0012 21.0481 22.3012 21.0481 20.2012V3.70122C20.9481 1.70122 19.2481 0.0012207 17.1481 0.0012207ZM19.4481 20.2012C19.4481 21.4012 18.4481 22.4012 17.2481 22.4012H6.74812C5.54812 22.4012 4.54812 21.4012 4.54812 20.2012V19.4012H19.5481V20.2012H19.4481ZM19.4481 18.0012H4.44812V3.80122C4.44812 2.60122 5.44812 1.60122 6.64812 1.60122H17.1481C18.3481 1.60122 19.3481 2.60122 19.3481 3.80122V18.0012H19.4481Z" fill="currentColor"/>
<path d="M14.8371 10.001C14.8371 10.9097 14.4585 11.7743 13.7969 12.4064C13.5605 12.632 13.1894 12.6317 12.9531 12.4064C12.6991 12.1641 12.6983 11.7565 12.952 11.5139C13.3782 11.1067 13.6118 10.5617 13.6118 10.001C13.6117 9.44044 13.3782 8.89545 12.952 8.48824C12.6983 8.24555 12.6991 7.83802 12.9531 7.59571C13.1895 7.3704 13.5606 7.37027 13.7969 7.59571L14.0319 7.8431C14.5477 8.44448 14.8371 9.2059 14.8371 10.001ZM16.9481 10.001C16.9481 11.4444 16.3478 12.8214 15.2902 13.8316C15.0834 14.0291 14.7724 14.0544 14.5395 13.9062L14.4453 13.8316C14.1913 13.5891 14.1914 13.1816 14.4453 12.9391C15.2674 12.1539 15.7228 11.0963 15.7228 10.001C15.7228 8.9058 15.2674 7.84825 14.4453 7.06303C14.1913 6.8205 14.1914 6.413 14.4453 6.17049C14.6817 5.94484 15.0538 5.94475 15.2902 6.17049C16.3478 7.18065 16.9481 8.55775 16.9481 10.001Z" fill="currentColor"/>
<path d="M9.05918 10.001C9.05918 10.9097 9.43774 11.7743 10.0994 12.4064C10.3357 12.632 10.7068 12.6317 10.9431 12.4064C11.1971 12.1641 11.198 11.7565 10.9443 11.5139C10.5181 11.1067 10.2845 10.5617 10.2845 10.001C10.2845 9.44044 10.5181 8.89545 10.9443 8.48824C11.1979 8.24555 11.1971 7.83802 10.9431 7.5957C10.7068 7.3704 10.3357 7.37027 10.0994 7.59571L9.86431 7.8431C9.34857 8.44448 9.05919 9.2059 9.05918 10.001ZM6.94812 10.001C6.94812 11.4444 7.54846 12.8214 8.60608 13.8316C8.81287 14.0291 9.12388 14.0544 9.35671 13.9062L9.45096 13.8316C9.70489 13.5891 9.70486 13.1816 9.45096 12.9391C8.6288 12.1539 8.17342 11.0963 8.17342 10.001C8.17342 8.9058 8.62881 7.84825 9.45096 7.06303C9.70492 6.8205 9.70485 6.413 9.45096 6.17049C9.21453 5.94484 8.84246 5.94475 8.60608 6.17049C7.54846 7.18065 6.94812 8.55775 6.94812 10.001Z" fill="currentColor"/>
</g>
<defs>
<clipPath id="clip0_3572_34">
<rect width="24" height="24" fill="currentColor"/>
</clipPath>
</defs>
</svg>
