<svg width="24" height="24" viewBox="0 0 24 24"  xmlns="http://www.w3.org/2000/svg">
<path d="M18 0H6C4.3455 0 3 1.3455 3 3V21C3 22.6545 4.3455 24 6 24H18C19.6545 24 21 22.6545 21 21V3C21 1.3455 19.6545 0 18 0ZM12 21C11.172 21 10.5 20.328 10.5 19.5C10.5 18.672 11.172 18 12 18C12.828 18 13.5 18.672 13.5 19.5C13.5 20.328 12.828 21 12 21ZM18 15H6V3H18V15Z" fill="currentColor"/>
<path d="M14.8889 8.99983C14.8889 9.90847 14.5104 10.773 13.8487 11.4052C13.6124 11.6307 13.2413 11.6305 13.005 11.4052C12.751 11.1628 12.7502 10.7553 13.0039 10.5126C13.43 10.1054 13.6636 9.56049 13.6636 8.99983C13.6636 8.43922 13.43 7.89423 13.0039 7.48702C12.7502 7.24433 12.751 6.8368 13.005 6.59448C13.2413 6.36918 13.6124 6.36905 13.8487 6.59448L14.0838 6.84188C14.5996 7.44326 14.8889 8.20467 14.8889 8.99983ZM17 8.99983C17 10.4431 16.3997 11.8202 15.342 12.8304C15.1353 13.0278 14.8242 13.0532 14.5914 12.905L14.4972 12.8304C14.2432 12.5879 14.2433 12.1804 14.4972 11.9378C15.3193 11.1527 15.7747 10.0951 15.7747 8.99983C15.7747 7.90458 15.3193 6.84703 14.4972 6.06181C14.2432 5.81928 14.2433 5.41178 14.4972 5.16927C14.7336 4.94362 15.1057 4.94353 15.342 5.16927C16.3997 6.17943 17 7.55653 17 8.99983Z" fill="currentColor"/>
<path d="M9.11106 8.99983C9.11106 9.90847 9.48962 10.773 10.1513 11.4052C10.3876 11.6307 10.7587 11.6305 10.995 11.4052C11.249 11.1628 11.2498 10.7553 10.9961 10.5126C10.57 10.1054 10.3364 9.56049 10.3364 8.99983C10.3364 8.43922 10.57 7.89423 10.9961 7.48702C11.2498 7.24433 11.249 6.8368 10.995 6.59448C10.7587 6.36918 10.3876 6.36905 10.1513 6.59448L9.91619 6.84188C9.40045 7.44326 9.11107 8.20467 9.11106 8.99983ZM7 8.99983C7 10.4431 7.60034 11.8202 8.65796 12.8304C8.86475 13.0278 9.17576 13.0532 9.40859 12.905L9.50284 12.8304C9.75677 12.5879 9.75674 12.1804 9.50284 11.9378C8.68068 11.1527 8.2253 10.0951 8.2253 8.99983C8.2253 7.90458 8.68069 6.84703 9.50284 6.06181C9.75679 5.81928 9.75673 5.41178 9.50284 5.16927C9.26641 4.94362 8.89434 4.94353 8.65796 5.16927C7.60034 6.17943 7 7.55653 7 8.99983Z" fill="currentColor"/>
</svg>
