<svg width="24" height="24" viewBox="0 0 24 24"  xmlns="http://www.w3.org/2000/svg">
<path d="M17.25 16.5H18.75C19.2 16.5 19.5 16.2 19.5 15.75C19.5 15.3 19.2 15 18.75 15H17.25C16.8 15 16.5 15.3 16.5 15.75C16.5 16.2 16.8 16.5 17.25 16.5ZM9.75 16.5H5.25C4.8 16.5 4.5 16.2 4.5 15.75C4.5 15.3 4.8 15 5.25 15H9.75C10.2 15 10.5 15.3 10.5 15.75C10.5 16.2 10.2 16.5 9.75 16.5Z" fill="currentColor"/>
<path fill-rule="evenodd" clip-rule="evenodd" d="M21.75 3H2.25C1.05 3 0 4.05 0 5.25V18.75C0 19.95 1.05 21 2.25 21H21.75C22.95 21 24 19.95 24 18.75V5.25C24 4.05 22.95 3 21.75 3ZM22.5 18.75C22.5 19.2 22.2 19.5 21.75 19.5H2.25C1.8 19.5 1.5 19.2 1.5 18.75V10.5H22.5V18.75ZM22.5 9H1.5V5.25C1.5 4.8 1.8 4.5 2.25 4.5H21.75C22.2 4.5 22.5 4.8 22.5 5.25V9Z" fill="currentColor"/>
</svg>
