<svg width="24" height="24" viewBox="0 0 24 24"  xmlns="http://www.w3.org/2000/svg">
<g clip-path="url(#clip0_865_5792)">
<path fill-rule="evenodd" clip-rule="evenodd" d="M7.5 0.75C7.5 0.335787 7.16421 0 6.75 0C6.33579 0 6 0.335787 6 0.75V4.5H0.75C0.335787 4.5 0 4.83579 0 5.25C0 5.66421 0.335787 6 0.75 6H16.5V15H7.5V9.75C7.5 9.33579 7.16421 9 6.75 9C6.33579 9 6 9.33579 6 9.75V15.75C6 16.1642 6.33579 16.5 6.75 16.5H23.25C23.6642 16.5 24 16.1642 24 15.75C24 15.3358 23.6642 15 23.25 15H18V5.25C18 4.83579 17.6642 4.5 17.25 4.5H7.5V0.75ZM18 20.25C18 19.8358 17.6642 19.5 17.25 19.5C16.8358 19.5 16.5 19.8358 16.5 20.25V23.25C16.5 23.6642 16.8358 24 17.25 24C17.6642 24 18 23.6642 18 23.25V20.25Z" fill="currentColor"/>
</g>
<defs>
<clipPath id="clip0_865_5792">
<rect width="24" height="24" fill="currentColor"/>
</clipPath>
</defs>
</svg>
