<svg width="24" height="24" viewBox="0 0 24 24"  xmlns="http://www.w3.org/2000/svg">
<path d="M7.20141 1C5.64045 1 4.37505 2.20386 4.37505 3.68889V9.17817L1.45191 11.1646C0.849363 11.574 0.849363 12.426 1.45191 12.8354L4.37505 14.8219V20.3111C4.37505 21.7962 5.64045 23 7.20141 23H8.22917C8.65489 23 9 22.6717 9 22.2667C9 21.8617 8.65489 21.5333 8.22917 21.5333H7.20141C6.49188 21.5333 5.9167 20.9862 5.9167 20.3111V14.5954C5.9167 14.2638 5.74838 13.9527 5.46479 13.76L2.87487 12L5.46479 10.24C5.74839 10.0473 5.9167 9.73616 5.9167 9.40461V3.68889C5.9167 3.01387 6.49188 2.46667 7.20141 2.46667H8.22917C8.65489 2.46667 9 2.13834 9 1.73333C9 1.32833 8.65489 1 8.22917 1H7.20141ZM16.7986 23C18.3596 23 19.625 21.7962 19.625 20.3111V14.8219L22.5481 12.8354C23.1506 12.426 23.1506 11.574 22.5481 11.1646L19.625 9.17817V3.68889C19.625 2.20386 18.3596 1 16.7986 1H15.7708C15.3451 1 15 1.32832 15 1.73333C15 2.13834 15.3451 2.46667 15.7708 2.46667H16.7986C17.5081 2.46667 18.0833 3.01387 18.0833 3.68889V9.4046C18.0833 9.73616 18.2516 10.0473 18.5352 10.24L21.1251 12L18.5352 13.76C18.2516 13.9527 18.0833 14.2638 18.0833 14.5954V20.3111C18.0833 20.9862 17.5081 21.5333 16.7986 21.5333H15.7708C15.3451 21.5333 15 21.8617 15 22.2667C15 22.6717 15.3451 23 15.7708 23H16.7986Z" fill="currentColor"/>
</svg>
