<svg width="24" height="24" viewBox="0 0 24 24" fill="none" xmlns="http://www.w3.org/2000/svg">
<path d="M0 1L2.06897 18.6897L12 23.7586L21.931 18.6897L24 1H0ZM20.6897 12.069C20.6897 12.2759 20.6897 12.3793 20.4828 12.4828L13.8621 15.6897L13.3448 15.8966L13.2414 15.2759V13.7241L13.4483 13.6207L18.1034 11.5517L13.7586 9.58621L11.8966 13.3103L10.9655 15.3793L10.7586 15.7931L10.3448 15.5862L3.51724 12.4828C3.31034 12.3793 3.2069 12.2759 3.2069 12.069V10.931C3.2069 10.7241 3.31034 10.6207 3.51724 10.5172L10.4483 7.31034L11.069 7V9.27586L10.7586 9.37931L6 11.4483L10.4483 13.4138L12.1034 10.2069L13.3448 7.62069L13.5517 7.2069L13.9655 7.41379L20.5862 10.5172C20.6897 10.6207 20.6897 10.7241 20.6897 10.931V12.069Z" fill="#0B3754"/>
</svg>
