<svg width="24" height="24" viewBox="0 0 24 24"  xmlns="http://www.w3.org/2000/svg">
<path d="M7.6777 1C5.69949 1 4.09584 2.49887 4.09584 4.34783V8.99763L1.74926 10.614C0.750247 11.3021 0.750247 12.6979 1.74926 13.386L4.09584 15.0023V19.6522C4.09584 21.5011 5.69949 23 7.6777 23H8.46492C9.31271 23 10 22.3576 10 21.5652C10 20.7728 9.31271 20.1304 8.46492 20.1304H7.6777C7.39509 20.1304 7.166 19.9163 7.166 19.6522V14.4224C7.166 13.8754 6.88789 13.3609 6.41675 13.0364L4.91212 12L6.41675 10.9636C6.88789 10.6391 7.166 10.1246 7.166 9.57758V4.34783C7.166 4.08369 7.39509 3.86957 7.6777 3.86957H8.46492C9.31271 3.86957 10 3.22719 10 2.43478C10 1.64237 9.31271 1 8.46492 1H7.6777ZM16.3223 23C18.3005 23 19.9041 21.5011 19.9041 19.6522V15.0023L22.2508 13.386C23.2497 12.6979 23.2498 11.3021 22.2508 10.614L19.9041 8.99763V4.34783C19.9041 2.49887 18.3005 1 16.3223 1H15.5351C14.6873 1 14 1.64237 14 2.43478C14 3.22719 14.6873 3.86957 15.5351 3.86957H16.3223C16.6049 3.86957 16.834 4.08369 16.834 4.34783V9.57758C16.834 10.1246 17.1121 10.6391 17.5832 10.9636L19.0879 12L17.5832 13.0364C17.1121 13.3609 16.834 13.8754 16.834 14.4224V19.6522C16.834 19.9163 16.6049 20.1304 16.3223 20.1304H15.5351C14.6873 20.1304 14 20.7728 14 21.5652C14 22.3576 14.6873 23 15.5351 23H16.3223Z" fill="currentColor"/>
</svg>
