<svg width="24" height="24" viewBox="0 0 24 24"  xmlns="http://www.w3.org/2000/svg">
<g clip-path="url(#clip0_865_7093)">
<path fill-rule="evenodd" clip-rule="evenodd" d="M9.33088 0.687312C9.52668 0.862356 9.61437 1.12848 9.56098 1.38563C9.41072 2.10935 9.332 2.85852 9.332 3.62801C9.332 9.72482 14.2752 14.668 20.372 14.668C21.1415 14.668 21.8906 14.5893 22.6144 14.439C22.8715 14.3856 23.1376 14.4733 23.3127 14.6691C23.4877 14.8649 23.5452 15.1392 23.4634 15.3888C21.9221 20.0944 17.5002 23.5 12.276 23.5C5.77249 23.5 0.5 18.2275 0.5 11.724C0.5 6.49976 3.90557 2.07793 8.61125 0.536579C8.86084 0.454825 9.13508 0.512267 9.33088 0.687312ZM7.92073 2.39004C4.40705 4.03163 1.972 7.59314 1.972 11.724C1.972 17.4145 6.58545 22.028 12.276 22.028C16.4069 22.028 19.9684 19.593 21.61 16.0793C21.2026 16.1195 20.7897 16.14 20.372 16.14C13.4622 16.14 7.86 10.5378 7.86 3.62801C7.86 3.2103 7.88052 2.7974 7.92073 2.39004Z" fill="currentColor"/>
</g>
<defs>
<clipPath id="clip0_865_7093">
<rect width="24" height="24" fill="currentColor"/>
</clipPath>
</defs>
</svg>
