<svg width="24" height="24" viewBox="0 0 24 24"  xmlns="http://www.w3.org/2000/svg">
<path d="M18 0H6C4.3455 0 3 1.3455 3 3V21C3 22.6545 4.3455 24 6 24H18C19.6545 24 21 22.6545 21 21V3C21 1.3455 19.6545 0 18 0ZM12 21C11.172 21 10.5 20.328 10.5 19.5C10.5 18.672 11.172 18 12 18C12.828 18 13.5 18.672 13.5 19.5C13.5 20.328 12.828 21 12 21ZM18 15H6V3H18V15Z" fill="currentColor"/>
<path d="M8.51066 12.3764V13.705H10.4017V12.3764C10.4017 12.2398 10.2807 12.1291 10.1315 12.1291H8.7807C8.63152 12.1291 8.51066 12.2398 8.51066 12.3764Z" fill="currentColor"/>
<path d="M11.9325 10.5533C11.7833 10.5533 11.6623 10.6778 11.6623 10.8314V13.705H13.5533V10.8314C13.5533 10.6778 13.4323 10.5533 13.2832 10.5533H11.9325Z" fill="currentColor"/>
<path d="M16.75 9.24518C16.75 9.09729 16.629 8.97749 16.4799 8.97749H15.1291C14.98 8.97749 14.859 9.09729 14.859 9.24518L14.814 13.705H16.705L16.75 9.24518Z" fill="currentColor"/>
<path d="M7.46744 9.50276H8.11966C8.23963 9.50248 8.3368 9.40858 8.33709 9.29274V7.40176H9.1242L10.233 9.39147C10.2702 9.46036 10.3441 9.50332 10.4244 9.50276H11.2354C11.3117 9.50257 11.3822 9.4638 11.4213 9.40058C11.4605 9.33736 11.4625 9.25898 11.4267 9.1939L10.3635 7.2862C10.5653 7.20624 10.7484 7.08835 10.9028 6.9395C11.2377 6.61735 11.4107 6.17006 11.3767 5.71459C11.2963 4.87561 10.5613 4.23772 9.68954 4.25018H7.46744C7.34746 4.25055 7.25038 4.34436 7.25 4.4603V9.29274C7.25038 9.40858 7.34746 9.50248 7.46744 9.50276ZM8.33709 5.09056H9.533C9.95306 5.09102 10.2935 5.42005 10.2939 5.82597C10.2919 6.23133 9.95239 6.55943 9.533 6.56129H8.33709V5.09056Z" fill="currentColor"/>
</svg>
