<svg width="24" height="24" viewBox="0 0 24 24"  xmlns="http://www.w3.org/2000/svg">
<g clip-path="url(#clip0_3572_44)">
<path d="M17.1481 0.0012207H6.74809C4.64809 0.0012207 2.94809 1.70122 2.94809 3.80122V20.3012C2.94809 22.3012 4.64809 24.0012 6.74809 24.0012H17.2481C19.3481 24.0012 21.0481 22.3012 21.0481 20.2012V3.70122C20.9481 1.70122 19.2481 0.0012207 17.1481 0.0012207ZM19.4481 20.2012C19.4481 21.4012 18.4481 22.4012 17.2481 22.4012H6.74809C5.54809 22.4012 4.54809 21.4012 4.54809 20.2012V19.4012H19.5481V20.2012H19.4481ZM19.4481 18.0012H4.44809V3.80122C4.44809 2.60122 5.44809 1.60122 6.64809 1.60122H17.1481C18.3481 1.60122 19.3481 2.60122 19.3481 3.80122V18.0012H19.4481Z" fill="currentColor"/>
<path d="M8.2751 13.596V15.0012H10.2656V13.596C10.2656 13.4516 10.1383 13.3346 9.98125 13.3346H8.55936C8.40232 13.3346 8.2751 13.4516 8.2751 13.596Z" fill="currentColor"/>
<path d="M11.877 11.6679C11.72 11.6679 11.5926 11.7996 11.5926 11.962V15.0012H13.5832V11.962C13.5832 11.7996 13.4558 11.6679 13.2988 11.6679H11.877Z" fill="currentColor"/>
<path d="M16.9481 10.2843C16.9481 10.1279 16.8208 10.0012 16.6637 10.0012H15.2419C15.0849 10.0012 14.9576 10.1279 14.9576 10.2843L14.9102 15.0012H16.9007L16.9481 10.2843Z" fill="currentColor"/>
<path d="M7.17697 10.5568H7.86352C7.98981 10.5565 8.09209 10.4572 8.0924 10.3346V8.33467H8.92093L10.0881 10.4391C10.1272 10.5119 10.205 10.5574 10.2896 10.5568H11.1432C11.2235 10.5566 11.2978 10.5156 11.339 10.4487C11.3802 10.3818 11.3823 10.2989 11.3446 10.2301L10.2255 8.21244C10.4378 8.12787 10.6307 8.00319 10.7931 7.84576C11.1456 7.50504 11.3277 7.03196 11.292 6.55024C11.2073 5.66289 10.4337 4.98823 9.51602 5.00141H7.17697C7.05068 5.0018 6.94849 5.10102 6.94809 5.22364V10.3346C6.94849 10.4572 7.05068 10.5565 7.17697 10.5568ZM8.0924 5.89023H9.35125C9.79342 5.89072 10.1517 6.23872 10.1522 6.66804C10.1501 7.09677 9.79271 7.44378 9.35125 7.44574H8.0924V5.89023Z" fill="currentColor"/>
</g>
<defs>
<clipPath id="clip0_3572_44">
<rect width="24" height="24" fill="currentColor"/>
</clipPath>
</defs>
</svg>
