<svg width="24" height="24" viewBox="0 0 24 24"  xmlns="http://www.w3.org/2000/svg">
<path fill-rule="evenodd" clip-rule="evenodd" d="M16.5 4.5H22.25C22.7 4.5 23 4.8 23 5.25V9.75C23 10.2 22.7 10.5 22.25 10.5H1.75C1.3 10.5 1 10.2 1 9.75V5.25C1 4.8 1.3 4.5 1.75 4.5H7.5V0.75C7.5 0.3 7.8 0 8.25 0H15.75C16.2 0 16.5 0.3 16.5 0.75V4.5ZM15 1.5H9V4.5H15V1.5ZM2.5 9H21.5V6H2.5V9Z" fill="currentColor"/>
<path d="M18.5 12.75C18.5 12.3 18.8 12 19.25 12C19.7 12 20 12.3 20 12.75V20.25C20 22.35 18.35 24 16.25 24H7.75C5.65 24 4 22.35 4 20.25V12.75C4 12.3 4.3 12 4.75 12C5.2 12 5.5 12.3 5.5 12.75V20.25C5.5 21.45 6.55 22.5 7.75 22.5H16.25C17.45 22.5 18.5 21.45 18.5 20.25V12.75Z" fill="currentColor"/>
</svg>
