<svg width="24" height="24" viewBox="0 0 24 24"  xmlns="http://www.w3.org/2000/svg">
<path fill-rule="evenodd" clip-rule="evenodd" d="M2 5.25C2 4.83579 2.33579 4.5 2.75 4.5H21.25C21.6642 4.5 22 4.83579 22 5.25C22 5.66421 21.6642 6 21.25 6H2.75C2.33579 6 2 5.66421 2 5.25ZM2 9.75C2 9.33579 2.33579 9 2.75 9H21.25C21.6642 9 22 9.33579 22 9.75C22 10.1642 21.6642 10.5 21.25 10.5H2.75C2.33579 10.5 2 10.1642 2 9.75ZM2 18.75C2 18.3358 2.33579 18 2.75 18H21.25C21.6642 18 22 18.3358 22 18.75C22 19.1642 21.6642 19.5 21.25 19.5H2.75C2.33579 19.5 2 19.1642 2 18.75ZM2 14.25C2 13.8358 2.33579 13.5 2.75 13.5H21.25C21.6642 13.5 22 13.8358 22 14.25C22 14.6642 21.6642 15 21.25 15H2.75C2.33579 15 2 14.6642 2 14.25Z" fill="currentColor"/>
</svg>
