<svg width="24" height="24" viewBox="0 0 24 24"  xmlns="http://www.w3.org/2000/svg">
<path d="M2.25 2.5C1.55964 2.5 1 3.05964 1 3.75C1 4.44036 1.55964 5 2.25 5H21.75C22.4404 5 23 4.44036 23 3.75C23 3.05964 22.4404 2.5 21.75 2.5H2.25ZM2.25 8C1.55964 8 1 8.55964 1 9.25C1 9.94036 1.55964 10.5 2.25 10.5H21.75C22.4404 10.5 23 9.94036 23 9.25C23 8.55964 22.4404 8 21.75 8H2.25ZM1 14.75C1 14.0596 1.55964 13.5 2.25 13.5H21.75C22.4404 13.5 23 14.0596 23 14.75C23 15.4404 22.4404 16 21.75 16H2.25C1.55964 16 1 15.4404 1 14.75ZM2.25 19C1.55964 19 1 19.5596 1 20.25C1 20.9404 1.55964 21.5 2.25 21.5H21.75C22.4404 21.5 23 20.9404 23 20.25C23 19.5596 22.4404 19 21.75 19H2.25Z" fill="currentColor"/>
</svg>
