<svg width="24" height="24" viewBox="0 0 24 24"  xmlns="http://www.w3.org/2000/svg">
<path d="M1 3C1 2.30964 1.55964 1.75 2.25 1.75H21.75C22.4404 1.75 23 2.30964 23 3C23 3.69036 22.4404 4.25 21.75 4.25H2.25C1.55964 4.25 1 3.69036 1 3ZM1 7.5C1 6.80964 1.55964 6.25 2.25 6.25H21.75C22.4404 6.25 23 6.80964 23 7.5C23 8.19036 22.4404 8.75 21.75 8.75H2.25C1.55964 8.75 1 8.19036 1 7.5ZM2.25 10.75C1.55964 10.75 1 11.3096 1 12C1 12.6904 1.55964 13.25 2.25 13.25H21.75C22.4404 13.25 23 12.6904 23 12C23 11.3096 22.4404 10.75 21.75 10.75H2.25ZM1 16.5C1 15.8096 1.55964 15.25 2.25 15.25H21.75C22.4404 15.25 23 15.8096 23 16.5C23 17.1904 22.4404 17.75 21.75 17.75H2.25C1.55964 17.75 1 17.1904 1 16.5ZM2.25 19.75C1.55964 19.75 1 20.3096 1 21C1 21.6904 1.55964 22.25 2.25 22.25H21.75C22.4404 22.25 23 21.6904 23 21C23 20.3096 22.4404 19.75 21.75 19.75H2.25Z" fill="currentColor"/>
</svg>
