<svg width="24" height="24" viewBox="0 0 24 24"  xmlns="http://www.w3.org/2000/svg">
<g clip-path="url(#clip0_865_5839)">
<path d="M3.3 8.4L8.4 3.3L5.55 0.45C4.95 -0.15 4.05 -0.15 3.45 0.45L0.45 3.45C-0.15 4.05 -0.15 4.95 0.45 5.55L3.3 8.4ZM20.6999 15.6006L15.5999 20.7006L18.4499 23.5506C18.7499 23.8506 19.0499 24.0006 19.4999 24.0006H23.9999V19.5006C23.9999 19.0506 23.8499 18.7506 23.5499 18.4506L20.6999 15.6006ZM17.55 0.45L23.55 6.45C24.15 7.05 24.15 7.95 23.55 8.55L8.55 23.55C7.95 24.15 7.05 24.15 6.45 23.55L0.45 17.55C-0.15 16.95 -0.15 16.05 0.45 15.45L2.4 13.5L4.95 16.05L7.05 13.95L4.5 11.4L6.9 9L9.45 11.55L11.55 9.45L9 6.9L11.4 4.5L13.95 7.05L16.05 4.95L13.5 2.4L15.45 0.45C16.05 -0.15 16.95 -0.15 17.55 0.45Z" fill="currentColor"/>
</g>
<defs>
<clipPath id="clip0_865_5839">
<rect width="24" height="24" fill="currentColor"/>
</clipPath>
</defs>
</svg>
