<svg width="24" height="24" viewBox="0 0 24 24"  xmlns="http://www.w3.org/2000/svg">
<g clip-path="url(#clip0_865_5833)">
<path fill-rule="evenodd" clip-rule="evenodd" d="M18.6416 14.2416C18.9638 13.9195 19.4862 13.9195 19.8083 14.2416L22.6583 17.0916C22.7735 17.2068 22.852 17.3535 22.8839 17.5132L23.9839 23.0132C24.038 23.2837 23.9534 23.5633 23.7583 23.7583C23.5633 23.9534 23.2837 24.0381 23.0132 23.984L17.5132 22.884C17.3535 22.852 17.2068 22.7735 17.0916 22.6583L14.2416 19.8084C13.9194 19.4862 13.9194 18.9638 14.2416 18.6416C14.5638 18.3194 15.0862 18.3194 15.4083 18.6416L18.0817 21.315L22.1233 22.1233L21.315 18.0817L18.6416 15.4084C18.3194 15.0862 18.3194 14.5638 18.6416 14.2416ZM4.64164 0.241637C4.96382 -0.0805456 5.48618 -0.0805456 5.80836 0.241637L9.75836 4.19164C10.0805 4.51382 10.0805 5.03618 9.75836 5.35836C9.43618 5.68055 8.91382 5.68055 8.59164 5.35836L5.225 1.99173L1.99173 5.225L5.35836 8.59164C5.68055 8.91382 5.68055 9.43618 5.35836 9.75836C5.03618 10.0805 4.51382 10.0805 4.19164 9.75836L0.241637 5.80836C-0.0805456 5.48618 -0.0805456 4.96382 0.241637 4.64164L4.64164 0.241637ZM0.245239 18.1736C-0.0817143 17.8466 -0.0817143 17.3165 0.245239 16.9896L16.9894 0.245407C17.3164 -0.0815463 17.8465 -0.0815466 18.1734 0.245407L23.7548 5.8268C24.0818 6.15375 24.0818 6.68385 23.7548 7.0108L7.01063 23.755C6.68368 24.0819 6.15358 24.0819 5.82663 23.755L0.245239 18.1736ZM2.02124 17.5816L6.41863 21.979L21.9788 6.4188L17.5814 2.02141L15.4172 4.18563L17.0581 5.82658C17.3851 6.15354 17.3851 6.68364 17.0581 7.01059C16.7312 7.33755 16.2011 7.33755 15.8741 7.01059L14.2332 5.36965L12.0683 7.53453L13.7092 9.17548C14.0362 9.50243 14.0362 10.0325 13.7092 10.3595C13.3823 10.6864 12.8522 10.6864 12.5252 10.3595L10.8843 8.71854L8.7194 10.8834L10.3603 12.5244C10.6873 12.8513 10.6873 13.3814 10.3603 13.7084C10.0334 14.0353 9.50329 14.0353 9.17633 13.7084L7.53538 12.0674L5.3705 14.2323L7.01145 15.8733C7.33841 16.2002 7.33841 16.7303 7.01145 17.0573C6.68449 17.3842 6.15439 17.3842 5.82744 17.0573L4.18649 15.4163L2.02124 17.5816Z" fill="currentColor"/>
</g>
<defs>
<clipPath id="clip0_865_5833">
<rect width="24" height="24" fill="currentColor"/>
</clipPath>
</defs>
</svg>
