<svg width="24" height="24" viewBox="0 0 24 24"  xmlns="http://www.w3.org/2000/svg">
<g clip-path="url(#clip0_865_2615)">
<path d="M21.75 9H18V2.25C18 1.65 17.7 1.05 17.4 0.6C16.95 0.3 16.35 0 15.75 0H2.25C1.65 0 1.05 0.3 0.6 0.6C0.15 0.9 0 1.65 0 2.25V20.25C0 20.85 0.3 21.45 0.6 21.9C1.05 22.2 1.65 22.5 2.25 22.5H8.25C8.7 22.5 9 22.2 9 21.75C9 21.3 8.7 21 8.25 21H2.25C2.1 21 1.8 20.85 1.65 20.85C1.65 20.7 1.5 20.4 1.5 20.25V2.25C1.5 2.1 1.65 1.8 1.65 1.65C1.8 1.65 2.1 1.5 2.25 1.5H15.75C15.9 1.5 16.2 1.65 16.35 1.65C16.35 1.8 16.5 2.1 16.5 2.25V9H14.25C13.05 9 12 10.05 12 11.25V21.75C12 22.95 13.05 24 14.25 24H21.75C22.95 24 24 22.95 24 21.75V11.25C24 10.05 22.95 9 21.75 9ZM22.5 21.75C22.5 22.2 22.2 22.5 21.75 22.5H14.25C13.8 22.5 13.5 22.2 13.5 21.75V11.25C13.5 10.8 13.8 10.5 14.25 10.5H21.75C22.2 10.5 22.5 10.8 22.5 11.25V21.75Z" fill="currentColor"/>
</g>
<defs>
<clipPath id="clip0_865_2615">
<rect width="24" height="24" fill="currentColor"/>
</clipPath>
</defs>
</svg>
