<svg width="24" height="24" viewBox="0 0 24 24"  xmlns="http://www.w3.org/2000/svg">
<g clip-path="url(#clip0_865_2622)">
<path d="M3 22.5H9V16.5H3V3H16.5V7.5H19.5V3C19.5 2.20435 19.1839 1.44129 18.6213 0.87868C18.0587 0.316071 17.2956 0 16.5 0H3C2.20435 0 1.44129 0.316071 0.87868 0.87868C0.316071 1.44129 0 2.20435 0 3V19.5C0 20.2956 0.316071 21.0587 0.87868 21.6213C1.44129 22.1839 2.20435 22.5 3 22.5Z" fill="currentColor"/>
<path fill-rule="evenodd" clip-rule="evenodd" d="M13.5 10.5H22.5C22.8978 10.5 23.2794 10.658 23.5607 10.9393C23.842 11.2206 24 11.6022 24 12V22.5C24 22.8978 23.842 23.2794 23.5607 23.5607C23.2794 23.842 22.8978 24 22.5 24H13.5C13.1022 24 12.7206 23.842 12.4393 23.5607C12.158 23.2794 12 22.8978 12 22.5V12C12 11.6022 12.158 11.2206 12.4393 10.9393C12.7206 10.658 13.1022 10.5 13.5 10.5ZM15 21H21V13.5H15V21Z" fill="currentColor"/>
</g>
<defs>
<clipPath id="clip0_865_2622">
<rect width="24" height="24" fill="currentColor"/>
</clipPath>
</defs>
</svg>
