<svg width="24" height="24" viewBox="0 0 24 24"  xmlns="http://www.w3.org/2000/svg">
<g clip-path="url(#clip0_865_1616)">
<path fill-rule="evenodd" clip-rule="evenodd" d="M23.7657 1.36569C24.0781 1.05327 24.0781 0.546734 23.7657 0.234315C23.4533 -0.078105 22.9467 -0.078105 22.6343 0.234315L0.234315 22.6343C-0.078105 22.9467 -0.078105 23.4533 0.234315 23.7657C0.546734 24.0781 1.05327 24.0781 1.36569 23.7657L7.52181 17.6096C10.8463 20.8892 15.3429 23.3604 18.2405 23.3604H18.8805C21.1205 23.0404 22.5605 21.2804 23.0405 19.5204C23.3605 18.2404 23.0405 17.1204 22.2405 16.4804C19.8405 14.5604 18.4005 13.7604 16.8005 13.7604H16.0005C15.0405 13.9204 14.4005 14.4004 13.9205 14.8804C13.8605 14.8404 13.7905 14.7954 13.7118 14.7448C13.2797 14.467 12.584 14.0198 11.8314 13.2999L23.7657 1.36569ZM10.7869 14.3444L8.7211 16.4103C11.8731 19.5539 15.9459 21.7604 18.4005 21.7604H18.8805C21.2805 21.2804 22.2405 18.4004 21.4405 17.7604C19.2005 16.0004 18.0805 15.3604 16.9605 15.3604H16.4805C15.2005 15.5204 14.7205 16.8004 14.7205 16.8004C14.7205 16.8004 12.9023 16.4108 10.7869 14.3444Z" fill="currentColor"/>
<path d="M8.96053 9.60042C9.03455 9.74846 9.12569 9.92218 9.23792 10.1176L8.11666 11.2389C7.18623 9.83461 7.04053 8.96042 7.04053 8.96042C8.00053 8.32042 8.48053 7.68042 8.48053 6.56042C8.48053 5.44042 6.72053 2.88042 6.24053 2.24042C6.08053 2.08042 5.76053 1.76042 5.28053 1.76042C5.12053 1.76042 5.12053 1.76042 4.96053 1.92042C4.9252 1.93219 4.87773 1.9457 4.82036 1.96203C4.09829 2.16756 1.80764 2.81954 2.40053 6.08042C2.86162 8.61642 4.1532 11.0694 5.97611 13.3794L4.83836 14.5172C2.63913 11.6681 1.29319 8.98687 0.80053 6.40042C0.16053 3.36042 1.60053 1.12042 4.64053 0.320417C4.80053 0.160417 5.12053 0.160417 5.28053 0.160417C6.40053 0.160417 7.20053 0.800417 7.52053 1.28042C8.64053 2.88042 10.0805 5.12042 10.0805 6.56042C10.2405 8.00042 9.60053 8.96042 8.96053 9.60042Z" fill="currentColor"/>
</g>
<defs>
<clipPath id="clip0_865_1616">
<rect width="24" height="24" fill="currentColor"/>
</clipPath>
</defs>
</svg>
