<svg width="24" height="24" viewBox="0 0 24 24"  xmlns="http://www.w3.org/2000/svg">
<g clip-path="url(#clip0_865_1621)">
<path d="M21.8894 0L0 21.8894L2.11065 24L7.90051 18.2101C8.52509 18.7574 9.21573 19.3092 9.97112 19.8657C11.2049 20.7748 12.4736 21.5721 13.7773 22.2565C15.0938 22.9476 16.3789 23.4454 17.6312 23.7387C18.9147 24.0393 20.103 24.0217 21.1177 23.5555L21.1293 23.55C22.2131 23.0327 23.0135 22.2652 23.4044 21.2182L23.8636 19.9882L23.8756 19.9403C23.9812 19.518 23.9601 19.0835 23.7835 18.6713C23.5918 18.2241 23.2272 17.9029 22.8434 17.6675C22.5044 17.4284 21.6688 16.8887 20.3682 16.0657C18.9999 15.1998 17.6563 14.6795 16.5073 14.9986L16.4858 15.0052C15.6754 15.2528 14.9222 15.6436 14.527 16.3151C14.4754 16.3244 14.3514 16.3318 14.123 16.2821C13.6638 16.1777 13.0321 15.8485 12.2147 15.1806C11.9582 14.9711 11.7245 14.7769 11.513 14.5976L24 2.11065L21.8894 0ZM7.72277 9.90064C7.72752 9.92515 7.73297 9.95022 7.73915 9.97586L3.94527 13.7697C3.11433 12.6177 2.38015 11.4355 1.74355 10.223C1.05238 8.90648 0.554632 7.62138 0.261275 6.369C-0.0393839 5.08544 -0.0216843 3.89705 0.444578 2.88226L0.449932 2.87061C0.967279 1.78667 1.73488 0.986413 2.7818 0.595569L4.01184 0.136362L4.05969 0.124399C4.48189 0.0188527 4.91622 0.0398809 5.32831 0.21649C5.78251 0.411143 6.10683 0.784236 6.34321 1.17476C6.5387 1.4789 7.063 2.29682 7.91555 3.62759C8.37287 4.34145 8.71183 5.01729 8.90112 5.64824C9.08893 6.27426 9.14473 6.90896 8.96646 7.50287C8.73994 8.31346 8.3628 9.07402 7.68457 9.47328C7.67523 9.52512 7.66792 9.64991 7.71824 9.8799L7.72277 9.90064Z" fill="currentColor"/>
</g>
<defs>
<clipPath id="clip0_865_1621">
<rect width="24" height="24" fill="currentColor"/>
</clipPath>
</defs>
</svg>
