<svg width="24" height="24" viewBox="0 0 24 24"  xmlns="http://www.w3.org/2000/svg">
<g clip-path="url(#clip0_865_536)">
<path fill-rule="evenodd" clip-rule="evenodd" d="M6.9158 0H2C0.895431 0 0 0.89543 0 2V5.84184C0.610941 6.17057 2.1651 6.9243 4.1196 7.4212C4.66912 7.5609 5.23815 7.67727 5.8174 7.75928C5.49007 4.49809 6.25817 1.71315 6.9158 0ZM0 9.16754V15.7357C0.875579 15.2987 2.01119 14.7972 3.29797 14.3905C4.5425 13.997 5.98434 13.6744 7.50405 13.6047C7.40318 13.2713 7.28068 12.9427 7.13432 12.6207C6.86239 12.0225 6.63697 11.4298 6.4524 10.8453C5.35547 10.7605 4.31521 10.5664 3.38043 10.3287C2.06079 9.99322 0.896919 9.55741 0 9.16754ZM0 19.1497V22C0 23.1046 0.89543 24 2 24H5.84186C6.17059 23.3891 6.92433 21.8349 7.42123 19.8804C7.68724 18.834 7.86865 17.7169 7.88939 16.5932C6.63982 16.6198 5.38182 16.878 4.20225 17.2509C2.22373 17.8764 0.645782 18.7672 0 19.1497ZM9.16756 24H15.7356C15.2987 23.1244 14.7973 21.9889 14.3905 20.7021C14.1421 19.9166 13.922 19.0524 13.7759 18.1397C12.9917 17.9158 12.1906 17.6258 11.3794 17.257C11.2133 17.1815 11.0454 17.1132 10.8758 17.0516C10.8177 18.3309 10.6019 19.5449 10.3287 20.6196C9.99324 21.9392 9.55743 23.1031 9.16756 24ZM19.1497 24H22C23.1046 24 24 23.1046 24 22V17.8999C22.4022 18.4249 19.8972 18.9798 16.9511 18.7243C17.0388 19.0876 17.1398 19.4462 17.251 19.7978C17.8764 21.7763 18.7671 23.3542 19.1497 24ZM24 14.7008V10.18C23.0988 9.74961 21.033 8.87226 18.404 8.754C18.2196 9.99621 17.8595 11.2954 17.2571 12.6207C16.8172 13.5884 16.6191 14.6205 16.5938 15.6658C20.0952 16.1263 22.9399 15.1549 24 14.7008ZM24 6.91576V2C24 0.895431 23.1046 0 22 0H17.1476C17.7225 1.34472 18.4 3.36248 18.5362 5.75599C20.7983 5.85862 22.7052 6.41874 24 6.91576ZM13.8267 0C14.3197 0.965315 15.3799 3.14848 15.5408 5.90382C14.2104 6.09926 12.8105 6.48368 11.3793 7.13429C10.5673 7.50338 9.71295 7.72078 8.84607 7.82198C8.36935 4.15935 9.63417 1.14294 10.18 0H13.8267ZM9.59862 10.7483C9.68063 10.9578 9.76942 11.1681 9.86539 11.3792C10.2378 12.1985 10.4934 13.0337 10.6563 13.8668C11.3146 14.0159 11.9724 14.2312 12.6208 14.526C12.9586 14.6795 13.2944 14.8164 13.6275 14.9381C13.7197 13.7561 13.9927 12.5525 14.526 11.3792C14.895 10.5676 15.1499 9.76754 15.3145 8.98958C14.4412 9.16671 13.5382 9.44832 12.6208 9.86536C11.626 10.3175 10.6079 10.5974 9.59862 10.7483Z" fill="currentColor"/>
</g>
<defs>
<clipPath id="clip0_865_536">
<rect width="24" height="24" fill="currentColor"/>
</clipPath>
</defs>
</svg>
