<svg width="24" height="24" viewBox="0 0 24 24"  xmlns="http://www.w3.org/2000/svg">
<g clip-path="url(#clip0_865_531)">
<path fill-rule="evenodd" clip-rule="evenodd" d="M0 5C0 2.23858 2.23858 0 5 0H19C21.7614 0 24 2.23858 24 5V19C24 21.7614 21.7614 24 19 24H5C2.23858 24 0 21.7614 0 19V5ZM16.9904 1.5H19C20.933 1.5 22.5 3.067 22.5 5V7.4009C21.8369 7.08432 20.8646 6.6961 19.6162 6.49411C19.1293 6.41532 18.6024 6.36475 18.0359 6.35538C18.0481 5.63857 17.9939 4.98122 17.8973 4.38392C17.6953 3.13547 17.307 2.16314 16.9904 1.5ZM15.3055 1.5H9.08596C9.07246 1.52568 9.05844 1.55223 9.04397 1.57965C8.73412 2.1666 8.21255 3.15463 7.97487 4.62351C7.80195 5.69219 7.77986 7.02976 8.1394 8.63985C9.25084 8.61633 10.447 8.38203 11.6898 7.81709C13.4999 6.99424 15.1159 6.57914 16.534 6.42561C16.5516 5.75759 16.5029 5.15704 16.4166 4.62351C16.1789 3.15463 15.6574 2.16668 15.3475 1.57973C15.333 1.55231 15.319 1.52568 15.3055 1.5ZM7.40099 1.5H5C3.067 1.5 1.5 3.067 1.5 5V6.42752C1.54635 6.45682 1.5979 6.48987 1.65449 6.52615C2.45149 7.03713 4.24825 8.18905 6.58677 8.53905C6.27892 6.93039 6.30643 5.54392 6.49413 4.38392C6.69614 3.13547 7.08439 2.16314 7.40099 1.5ZM1.5 8.20409V16.1873C2.81874 15.3929 5.35977 14.1127 8.45899 14.2626C8.3277 13.6292 8.1199 12.9765 7.81711 12.3104C7.46522 11.5363 7.18789 10.7977 6.97371 10.0948C4.55464 9.86954 2.60118 8.86745 1.5 8.20409ZM1.5 17.9639V19C1.5 20.933 3.067 22.5 5 22.5H6.42763C6.45691 22.4537 6.48993 22.4022 6.52617 22.3457C7.15089 21.3712 8.73369 18.9024 8.63767 15.7762C5.31643 15.5175 2.67151 17.2132 1.65449 17.8652C1.59796 17.9015 1.5463 17.9346 1.5 17.9639ZM8.2042 22.5H16.1872C15.5723 21.4791 14.6663 19.7259 14.3579 17.5484C13.5214 17.3204 12.6319 17.0026 11.6898 16.5743C11.1642 16.3354 10.6469 16.1556 10.1409 16.0259C10.1453 18.9044 8.9568 21.2507 8.2042 22.5ZM17.9638 22.5H19C20.933 22.5 22.5 20.933 22.5 19V16.9905C21.8369 17.3071 20.8646 17.6953 19.6162 17.8973C18.5718 18.0663 17.3438 18.1054 15.9352 17.8868C16.3574 19.9937 17.3893 21.6033 17.8653 22.3457C17.9013 22.4019 17.9346 22.4539 17.9638 22.5ZM22.5 15.3055V9.08586C22.4746 9.0725 22.4483 9.05864 22.4212 9.04433C21.8343 8.73448 20.8455 8.21253 19.3766 7.97485C18.9361 7.90358 18.45 7.85793 17.9178 7.85407C17.7342 9.1769 17.3231 10.6632 16.5743 12.3104C15.9284 13.7314 15.7147 15.0914 15.7541 16.3335C17.1897 16.6069 18.3963 16.5752 19.3766 16.4165C20.8455 16.1789 21.8335 15.6573 22.4204 15.3475L22.4216 15.3469C22.4486 15.3326 22.4747 15.3188 22.5 15.3055ZM8.55888 10.1235C8.7292 10.6237 8.93538 11.1457 9.18265 11.6897C9.61476 12.6402 9.8799 13.5679 10.0187 14.4587C10.7619 14.6108 11.5285 14.8533 12.3105 15.2088C12.9916 15.5184 13.6384 15.7636 14.2509 15.9546C14.262 14.6263 14.5284 13.1863 15.2088 11.6897C15.8393 10.3025 16.2027 9.05803 16.3854 7.95478C15.1997 8.11591 13.842 8.48644 12.3105 9.18263C11.0046 9.77625 9.74191 10.0548 8.55888 10.1235Z" fill="currentColor"/>
</g>
<defs>
<clipPath id="clip0_865_531">
<rect width="24" height="24" fill="currentColor"/>
</clipPath>
</defs>
</svg>
