<svg width="24" height="24" viewBox="0 0 24 24"  xmlns="http://www.w3.org/2000/svg">
<g clip-path="url(#clip0_865_5363)">
<path d="M1.5 1.5V6C1.5 6.828 2.172 7.5 3 7.5H21C21.828 7.5 22.5 6.828 22.5 6V1.5C22.5 0.672 21.828 0 21 0H3C2.172 0 1.5 0.672 1.5 1.5ZM1.5 18V22.5C1.5 23.328 2.172 24 3 24H21C21.828 24 22.5 23.328 22.5 22.5V18C22.5 17.172 21.828 16.5 21 16.5H3C2.172 16.5 1.5 17.172 1.5 18ZM1.5 13.5H22.5C23.328 13.5 24 12.828 24 12C24 11.172 23.328 10.5 22.5 10.5H1.5C0.672 10.5 0 11.172 0 12C0 12.828 0.672 13.5 1.5 13.5Z" fill="currentColor"/>
</g>
<defs>
<clipPath id="clip0_865_5363">
<rect width="24" height="24" fill="currentColor"/>
</clipPath>
</defs>
</svg>
