<svg width="24" height="24" viewBox="0 0 24 24"  xmlns="http://www.w3.org/2000/svg">
<path fill-rule="evenodd" clip-rule="evenodd" d="M1.5 2.25C1.5 1.83579 1.83579 1.5 2.25 1.5H21.75C22.1642 1.5 22.5 1.83579 22.5 2.25V8.25C22.5 8.66421 22.1642 9 21.75 9H2.25C1.83579 9 1.5 8.66421 1.5 8.25V2.25ZM3 3V7.5H21V3H3ZM0 12.75C0 12.3358 0.335787 12 0.75 12H23.25C23.6642 12 24 12.3358 24 12.75C24 13.1642 23.6642 13.5 23.25 13.5H0.75C0.335787 13.5 0 13.1642 0 12.75ZM2.25 16.5C1.83579 16.5 1.5 16.8358 1.5 17.25V23.25C1.5 23.6642 1.83579 24 2.25 24H21.75C22.1642 24 22.5 23.6642 22.5 23.25V17.25C22.5 16.8358 22.1642 16.5 21.75 16.5H2.25ZM3 22.5V18H21V22.5H3Z" fill="currentColor"/>
</svg>
