<svg width="24" height="24" viewBox="0 0 24 24"  xmlns="http://www.w3.org/2000/svg">
<path fill-rule="evenodd" clip-rule="evenodd" d="M12.75 1.75C12.75 1.33579 12.4142 1 12 1C11.5858 1 11.25 1.33579 11.25 1.75V3.04751C10.1903 3.14921 9.09639 3.42266 8.1786 3.9485C6.9289 4.66452 6.0002 5.86217 6.0002 7.63232C6.0002 8.48481 6.20348 9.21492 6.584 9.83367C6.96127 10.4471 7.48756 10.9104 8.07484 11.2731C8.99426 11.841 10.1391 12.2037 11.25 12.5086V19.4761C9.62869 19.392 8.02616 19.0869 6.48996 18.5686C6.09748 18.4362 5.67197 18.647 5.53956 19.0395C5.40714 19.432 5.61797 19.8575 6.01045 19.9899C7.70147 20.5604 9.46589 20.8926 11.25 20.9779V22.25C11.25 22.6642 11.5858 23 12 23C12.4142 23 12.75 22.6642 12.75 22.25V20.9878C14.1259 20.93 15.461 20.6645 16.5063 20.0346C17.7324 19.2957 18.5002 18.0877 18.5002 16.3675C18.5002 15.515 18.2969 14.7849 17.9164 14.1662C17.5391 13.5527 17.0128 13.0894 16.4256 12.7267C15.3672 12.073 14.0101 11.6913 12.75 11.3565V4.51835C14.0275 4.5945 15.2811 4.89546 16.4491 5.40747C16.8284 5.57378 17.2708 5.40107 17.4371 5.02171C17.6034 4.64234 17.4307 4.19999 17.0513 4.03369C15.6929 3.43817 14.2343 3.09374 12.75 3.01601V1.75ZM11.25 4.55556C10.3977 4.6519 9.57661 4.87627 8.9243 5.25001C8.05651 5.74722 7.5002 6.49073 7.5002 7.63232C7.5002 8.23569 7.64068 8.68848 7.86172 9.04789C8.08601 9.4126 8.4191 9.72273 8.86307 9.99694C9.51176 10.3976 10.3293 10.6845 11.25 10.9498V4.55556ZM12.75 12.9101V19.4863C13.9668 19.4287 14.9979 19.1923 15.7321 18.7498C16.51 18.281 17.0002 17.5591 17.0002 16.3675C17.0002 15.7642 16.8597 15.3114 16.6387 14.952C16.4144 14.5872 16.0813 14.2771 15.6373 14.0029C14.8733 13.531 13.875 13.217 12.75 12.9101Z" fill="currentColor"/>
</svg>
