<svg width="24" height="24" viewBox="0 0 24 24"  xmlns="http://www.w3.org/2000/svg">
<path d="M13.5 10.265V5.013C14.3725 5.13164 15.1666 5.37465 15.9737 5.735L16.3693 5.93542C16.8694 6.18875 17.4799 5.98163 17.7227 5.47635L18.1485 4.58981C18.3841 4.0993 18.1842 3.51043 17.6988 3.26465L17.2629 3.044C16.0544 2.47896 14.8214 2.12251 13.5 1.989V0.5C13.5 0.223858 13.2761 0 13 0H12C11.7239 0 11.5 0.223858 11.5 0.5V1.983C8.05599 2.289 5.87342 4.283 5.87342 7.247C5.87342 10.973 8.96933 12.097 11.5 12.824V18.09C10.0938 18.0127 8.69921 17.7371 7.36612 17.271L6.94561 17.1152C6.42164 16.9211 5.84026 17.194 5.65486 17.7211L5.32613 18.6558C5.14511 19.1704 5.41001 19.7352 5.92148 19.9251L6.3739 20.093C8.02451 20.6809 9.74934 21.0201 11.4946 21.1L11.4991 23.5009C11.4996 23.7767 11.7233 24 11.9991 24H13C13.2761 24 13.5 23.7761 13.5 23.5V21.087C18.4903 20.656 19 17.311 19 15.823C19 12.129 16.019 10.993 13.5 10.265ZM8.79455 7.247C8.79455 5.647 10.3578 5.147 11.5 4.998V9.69C9.64995 9.092 8.79455 8.523 8.79455 7.247ZM13.5 18.072V13.4C15.3082 13.991 16.0789 14.561 16.0789 15.822C16.0789 16.382 16.129 17.769 13.5 18.072Z" fill="currentColor"/>
</svg>
