<svg width="24" height="24" viewBox="0 0 24 24" fill="none" xmlns="http://www.w3.org/2000/svg">
<path d="M15.3684 14.5389C15.4776 14.3204 15.5869 14.1019 15.6961 13.8833C16.1332 12.5722 16.5702 11.1518 17.0073 9.84067C17.2258 9.29437 17.3351 8.85732 17.6628 8.31101C18.2091 7.65545 18.8647 7.2184 19.7388 7.10914C20.0666 7.10914 20.3944 6.99988 20.7222 6.99988C21.7055 6.99988 22.6889 6.99988 23.7815 6.99988C23.7815 6.99988 23.8907 6.99988 24 6.99988C24 7.10914 24 7.10914 23.8907 7.10914C23.563 7.76471 23.1259 8.42028 22.7981 9.07584C22.1426 10.2777 21.487 11.3703 20.7222 12.5722C20.2851 13.337 19.8481 13.9926 19.3018 14.6482C18.8647 15.0852 18.4277 15.6315 17.8814 15.9593C17.5536 16.1778 17.1165 16.2871 16.6795 16.2871C15.0406 16.2871 13.5109 16.2871 11.872 16.2871C11.4349 16.2871 10.9979 16.0686 10.6701 15.7408C10.2331 15.3037 9.90529 14.7574 9.68677 14.1019C9.24972 13.0093 9.0312 11.8074 8.70341 10.6055C8.59415 10.0592 8.37563 9.51289 8.26637 8.96658V8.85732L8.04785 9.07584C7.50154 9.73141 6.95523 10.387 6.40893 11.1518C6.29966 11.3703 6.1904 11.5889 6.1904 11.8074C5.97188 12.6815 5.6441 13.5556 5.42557 14.4296C5.09779 15.1945 4.66074 15.85 3.89592 16.2871C3.45887 16.5056 2.91256 16.6149 2.47552 16.6149C1.71069 16.6149 0.945859 16.6149 0.18103 16.6149C-0.0374926 16.6149 -0.0374925 16.6149 0.0717688 16.3964C0.18103 15.1945 0.618076 13.9926 1.16438 12.9C1.71069 11.6981 2.36626 10.6055 3.13109 9.51289C3.67739 8.85732 4.2237 8.20175 4.98853 7.65545C5.31631 7.43692 5.75336 7.2184 6.1904 7.2184C6.29966 7.2184 6.29966 7.2184 6.40893 7.2184C8.04785 7.2184 9.68677 7.2184 11.3257 7.2184C12.1998 7.2184 12.8553 7.54618 13.2924 8.31101C13.6202 8.74806 13.8387 9.18511 13.948 9.73141C14.2757 10.7148 14.4943 11.6981 14.822 12.7907C14.9313 13.337 15.1498 13.9926 15.2591 14.5389C15.2591 14.5389 15.2591 14.5389 15.3684 14.5389Z" fill="#1384C8"/>
</svg>
