<svg width="24" height="24" viewBox="0 0 24 24"  xmlns="http://www.w3.org/2000/svg">
<path fill-rule="evenodd" clip-rule="evenodd" d="M11.9184 3.05939C12.1077 3.11429 12.2842 3.20595 12.4381 3.32912C12.592 3.4522 12.7201 3.60439 12.8151 3.77701C12.9102 3.94963 12.9703 4.13928 12.992 4.33513C13.0138 4.53099 12.9967 4.72921 12.9418 4.91846C12.8869 5.10772 12.7952 5.2843 12.6721 5.43812L7.42206 12.0006L12.6721 18.5631C12.9207 18.8738 13.0357 19.2706 12.9919 19.6661C12.948 20.0616 12.7488 20.4235 12.4381 20.6721C12.1274 20.9208 11.7306 21.0358 11.3351 20.9919C10.9396 20.948 10.5777 20.7488 10.3291 20.4381L4.32906 12.9381C4.11606 12.6721 4 12.3414 4 12.0006C4 11.6598 4.11606 11.3292 4.32906 11.0631L10.3291 3.56312C10.4521 3.40923 10.6043 3.28109 10.777 3.18604C10.9496 3.09099 11.1392 3.03088 11.3351 3.00915C11.5309 2.98742 11.7292 3.00449 11.9184 3.05939ZM18.9184 3.05939C19.1077 3.11429 19.2842 3.20595 19.4381 3.32912C19.592 3.4522 19.7201 3.60439 19.8151 3.77701C19.9102 3.94963 19.9703 4.13928 19.992 4.33513C20.0138 4.53099 19.9967 4.72921 19.9418 4.91846C19.8869 5.10772 19.7952 5.2843 19.6721 5.43812L14.4221 12.0006L19.6721 18.5631C19.9207 18.8738 20.0357 19.2706 19.9919 19.6661C19.948 20.0616 19.7488 20.4235 19.4381 20.6721C19.1274 20.9208 18.7306 21.0358 18.3351 20.9919C17.9396 20.948 17.5777 20.7488 17.3291 20.4381L11.3291 12.9381C11.1161 12.6721 11 12.3414 11 12.0006C11 11.6598 11.1161 11.3292 11.3291 11.0631L17.3291 3.56312C17.4521 3.40923 17.6043 3.28109 17.777 3.18604C17.9496 3.09099 18.1392 3.03088 18.3351 3.00915C18.5309 2.98742 18.7292 3.00449 18.9184 3.05939Z" fill="currentColor"/>
</svg>
