<svg width="24" height="24" viewBox="0 0 24 24"  xmlns="http://www.w3.org/2000/svg">
<path fill-rule="evenodd" clip-rule="evenodd" d="M11.874 19.8341C12.1038 20.1787 12.0107 20.6444 11.666 20.8741C11.3214 21.1039 10.8557 21.0108 10.626 20.6661L5.12596 12.4161C4.95801 12.1642 4.95801 11.836 5.12596 11.5841L10.626 3.33405C10.8557 2.98941 11.3214 2.89628 11.666 3.12604C12.0107 3.35581 12.1038 3.82146 11.874 4.1661L6.65139 12.0001L11.874 19.8341ZM17.874 19.8341C18.1038 20.1787 18.0107 20.6444 17.666 20.8741C17.3214 21.1039 16.8557 21.0108 16.626 20.6661L11.126 12.4161C10.958 12.1642 10.958 11.836 11.126 11.5841L16.626 3.33405C16.8557 2.98941 17.3214 2.89628 17.666 3.12604C18.0107 3.35581 18.1038 3.82146 17.874 4.1661L12.6514 12.0001L17.874 19.8341Z" fill="currentColor"/>
</svg>
