<svg width="24" height="24" viewBox="0 0 24 24"  xmlns="http://www.w3.org/2000/svg">
<path fill-rule="evenodd" clip-rule="evenodd" d="M11.126 19.8341C10.8962 20.1787 10.9893 20.6444 11.334 20.8741C11.6786 21.1039 12.1443 21.0108 12.374 20.6661L17.874 12.4161C18.042 12.1642 18.042 11.836 17.874 11.5841L12.374 3.33405C12.1443 2.98941 11.6786 2.89628 11.334 3.12604C10.9893 3.35581 10.8962 3.82146 11.126 4.1661L16.3486 12.0001L11.126 19.8341ZM5.12598 19.8341C4.89622 20.1787 4.98935 20.6444 5.33399 20.8741C5.67864 21.1039 6.14429 21.0108 6.37406 20.6661L11.874 12.4161C12.042 12.1642 12.042 11.836 11.874 11.5841L6.37406 3.33405C6.14429 2.98941 5.67864 2.89628 5.33399 3.12604C4.98935 3.35581 4.89622 3.82146 5.12598 4.1661L10.3486 12.0001L5.12598 19.8341Z" fill="currentColor"/>
</svg>
