<svg width="24" height="24" viewBox="0 0 24 24"  xmlns="http://www.w3.org/2000/svg">
<path fill-rule="evenodd" clip-rule="evenodd" d="M12.0828 3.05939C11.8936 3.11429 11.717 3.20595 11.5632 3.32912C11.4093 3.4522 11.2811 3.60439 11.1861 3.77701C11.091 3.94963 11.0309 4.13928 11.0092 4.33513C10.9875 4.53099 11.0045 4.72921 11.0594 4.91846C11.1143 5.10772 11.206 5.2843 11.3292 5.43812L16.5792 12.0006L11.3292 18.5631C11.0805 18.8738 10.9655 19.2706 11.0094 19.6661C11.0533 20.0616 11.2525 20.4235 11.5632 20.6721C11.8739 20.9208 12.2706 21.0358 12.6661 20.9919C13.0616 20.948 13.4235 20.7488 13.6722 20.4381L19.6722 12.9381C19.8852 12.6721 20.0012 12.3414 20.0012 12.0006C20.0012 11.6598 19.8852 11.3292 19.6722 11.0631L13.6722 3.56312C13.5491 3.40923 13.3969 3.28109 13.2243 3.18604C13.0517 3.09099 12.862 3.03088 12.6661 3.00915C12.4703 2.98742 12.2721 3.00449 12.0828 3.05939ZM5.08283 3.05939C4.89358 3.11429 4.717 3.20595 4.56318 3.32912C4.40929 3.4522 4.28115 3.60439 4.1861 3.77701C4.09105 3.94963 4.03094 4.13928 4.00921 4.33513C3.98748 4.53099 4.00455 4.72921 4.05945 4.91846C4.11436 5.10772 4.20601 5.2843 4.32918 5.43812L9.57918 12.0006L4.32918 18.5631C4.08054 18.8738 3.96551 19.2706 4.00939 19.6661C4.05327 20.0616 4.25248 20.4235 4.56318 20.6721C4.87388 20.9208 5.27063 21.0358 5.66614 20.9919C6.06166 20.948 6.42354 20.7488 6.67218 20.4381L12.6722 12.9381C12.8852 12.6721 13.0012 12.3414 13.0012 12.0006C13.0012 11.6598 12.8852 11.3292 12.6722 11.0631L6.67218 3.56312C6.5491 3.40923 6.3969 3.28109 6.22429 3.18604C6.05167 3.09099 5.86202 3.03088 5.66616 3.00915C5.47031 2.98742 5.27209 3.00449 5.08283 3.05939Z" fill="currentColor"/>
</svg>
