<svg width="24" height="24" viewBox="0 0 24 24"  xmlns="http://www.w3.org/2000/svg">
<path fill-rule="evenodd" clip-rule="evenodd" d="M9.75002 0.999756C9.33581 0.999756 9.00002 1.33555 9.00002 1.74976V10.5H6.75002C6.45573 10.5 6.18864 10.6721 6.06704 10.9401C5.94543 11.2081 5.9918 11.5224 6.18558 11.7439L11.4356 17.7439C11.578 17.9067 11.7837 18 12 18C12.2163 18 12.422 17.9067 12.5645 17.7439L17.8145 11.7439C18.0083 11.5224 18.0546 11.2081 17.933 10.9401C17.8115 10.6721 17.5443 10.5 17.25 10.5H15V1.74976C15 1.33555 14.6642 0.999756 14.25 0.999756H9.75002ZM10.5 11.25V2.49976H13.5V11.25C13.5 11.6642 13.8358 12 14.25 12H15.5972L12 16.111L8.40284 12H9.75002C10.1642 12 10.5 11.6642 10.5 11.25Z" fill="currentColor"/>
<path d="M1.5 11.25C1.5 10.8362 1.83621 10.5 2.25 10.5H4.25C4.66421 10.5 5 10.1642 5 9.74998C5 9.33577 4.66421 8.99998 4.25 8.99998H2.25C1.00779 8.99998 0 10.0078 0 11.25V21.75C0 22.9921 1.00779 24 2.25 24H21.75C22.9921 24 24 22.9921 24 21.75V11.25C24 10.0078 22.9921 8.99998 21.75 8.99998H19.75C19.3358 8.99998 19 9.33577 19 9.74998C19 10.1642 19.3358 10.5 19.75 10.5H21.75C22.1639 10.5 22.5 10.8362 22.5 11.25V21.75C22.5 22.1638 22.1639 22.5 21.75 22.5H2.25C1.83621 22.5 1.5 22.1638 1.5 21.75V11.25Z" fill="currentColor"/>
</svg>
