<svg width="24" height="24" viewBox="0 0 24 24"  xmlns="http://www.w3.org/2000/svg">
<g clip-path="url(#clip0_865_7124)">
<path fill-rule="evenodd" clip-rule="evenodd" d="M8.5 8.5V15.5H15.5V8.5H8.5ZM8 7C7.44772 7 7 7.44772 7 8V16C7 16.5523 7.44772 17 8 17H16C16.5523 17 17 16.5523 17 16V8C17 7.44772 16.5523 7 16 7H8ZM0 7.75C0 7.33579 0.335786 7 0.75 7H3.75C4.16421 7 4.5 7.33579 4.5 7.75C4.5 8.16421 4.16421 8.5 3.75 8.5H1.5V10.75C1.5 11.1642 1.16421 11.5 0.75 11.5C0.335786 11.5 0 11.1642 0 10.75V7.75ZM0 23.25C0 23.6642 0.335786 24 0.75 24H3.75C4.16421 24 4.5 23.6642 4.5 23.25C4.5 22.8358 4.16421 22.5 3.75 22.5H1.5V20.25C1.5 19.8358 1.16421 19.5 0.75 19.5C0.335786 19.5 0 19.8358 0 20.25V23.25ZM17 23.25C17 23.6642 16.6642 24 16.25 24H13.25C12.8358 24 12.5 23.6642 12.5 23.25C12.5 22.8358 12.8358 22.5 13.25 22.5H15.5V20.25C15.5 19.8358 15.8358 19.5 16.25 19.5C16.6642 19.5 17 19.8358 17 20.25V23.25ZM6 23.25C6 22.8358 6.33579 22.5 6.75 22.5H10.25C10.6643 22.5 11 22.8358 11 23.25C11 23.6642 10.6643 24 10.25 24H6.75C6.33579 24 6 23.6642 6 23.25ZM0.75 18C0.335786 18 0 17.6642 0 17.25V13.75C0 13.3358 0.335786 13 0.75 13C1.16421 13 1.5 13.3358 1.5 13.75V17.25C1.5 17.6642 1.16421 18 0.75 18ZM7 0.75C7 0.335786 7.33579 0 7.75 0H10.75C11.1642 0 11.5 0.335786 11.5 0.75C11.5 1.16421 11.1642 1.5 10.75 1.5H8.5V3.75C8.5 4.16421 8.16421 4.5 7.75 4.5C7.33579 4.5 7 4.16421 7 3.75V0.75ZM24 0.75C24 0.335786 23.6642 0 23.25 0H20.25C19.8358 0 19.5 0.335786 19.5 0.75C19.5 1.16421 19.8358 1.5 20.25 1.5H22.5V3.75C22.5 4.16421 22.8358 4.5 23.25 4.5C23.6642 4.5 24 4.16421 24 3.75V0.75ZM24 16.25C24 16.6642 23.6642 17 23.25 17H20.25C19.8358 17 19.5 16.6642 19.5 16.25C19.5 15.8358 19.8358 15.5 20.25 15.5H22.5V13.25C22.5 12.8358 22.8358 12.5 23.25 12.5C23.6642 12.5 24 12.8358 24 13.25V16.25ZM13 0.75C13 0.335786 13.3357 0 13.75 0H17.25C17.6642 0 18 0.335786 18 0.75C18 1.16421 17.6642 1.5 17.25 1.5H13.75C13.3357 1.5 13 1.16421 13 0.75ZM23.25 11C22.8358 11 22.5 10.6642 22.5 10.25V6.75C22.5 6.33579 22.8358 6 23.25 6C23.6642 6 24 6.33579 24 6.75V10.25C24 10.6642 23.6642 11 23.25 11Z" fill="currentColor"/>
</g>
<defs>
<clipPath id="clip0_865_7124">
<rect width="24" height="24" fill="currentColor"/>
</clipPath>
</defs>
</svg>
