<svg width="24" height="24" viewBox="0 0 24 24"  xmlns="http://www.w3.org/2000/svg">
<g clip-path="url(#clip0_865_548)">
<path d="M1.45592 10.0261C2.17778 10.0261 2.79054 9.51932 3.03652 8.84066C4.01233 6.14843 6.14849 4.01227 8.84071 3.03646C9.51938 2.79048 10.0262 2.17773 10.0262 1.45586C10.0262 0.50313 9.16525 -0.226454 8.25816 0.0648936C4.3772 1.31142 1.31148 4.37714 0.0649518 8.2581C-0.226395 9.16519 0.503188 10.0261 1.45592 10.0261ZM6.4362 11.0457C7.1624 11.0457 7.77012 10.531 8.12424 9.89699C8.53904 9.15435 9.15441 8.53898 9.89705 8.12418C10.5311 7.77006 11.0458 7.16234 11.0458 6.43614C11.0458 5.47859 10.1858 4.73354 9.29754 5.09126C7.38645 5.86091 5.86096 7.38639 5.09131 9.29748C4.7336 10.1857 5.47865 11.0457 6.4362 11.0457ZM22.5441 10.0261C21.8223 10.0261 21.2095 9.51932 20.9635 8.84066C19.9877 6.14843 17.8516 4.01227 15.1593 3.03646C14.4807 2.79048 13.9739 2.17773 13.9739 1.45586C13.9739 0.50313 14.8348 -0.226454 15.7419 0.0648936C19.6229 1.31142 22.6886 4.37714 23.9351 8.2581C24.2265 9.16519 23.4969 10.0261 22.5441 10.0261ZM17.5639 11.0457C16.8377 11.0457 16.2299 10.531 15.8758 9.89699C15.461 9.15435 14.8456 8.53898 14.103 8.12418C13.469 7.77006 12.9543 7.16234 12.9543 6.43614C12.9543 5.47859 13.8143 4.73354 14.7025 5.09126C16.6136 5.86091 18.1391 7.38639 18.9087 9.29748C19.2665 10.1857 18.5214 11.0457 17.5639 11.0457ZM22.5442 13.9739C21.8223 13.9739 21.2096 14.4807 20.9636 15.1593C19.9878 17.8516 17.8516 19.9877 15.1594 20.9635C14.4807 21.2095 13.9739 21.8223 13.9739 22.5441C13.9739 23.4969 14.8349 24.2265 15.742 23.9351C19.6229 22.6886 22.6886 19.6229 23.9352 15.7419C24.2265 14.8348 23.4969 13.9739 22.5442 13.9739ZM17.5639 12.9543C16.8377 12.9543 16.23 13.469 15.8759 14.103C15.4611 14.8457 14.8457 15.461 14.1031 15.8758C13.4691 16.2299 12.9543 16.8377 12.9543 17.5639C12.9543 18.5214 13.8144 19.2665 14.7026 18.9087C16.6137 18.1391 18.1392 16.6136 18.9088 14.7025C19.2665 13.8143 18.5215 12.9543 17.5639 12.9543ZM1.45586 13.9739C2.17773 13.9739 2.79048 14.4807 3.03646 15.1593C4.01227 17.8516 6.14843 19.9877 8.84066 20.9635C9.51932 21.2095 10.0261 21.8223 10.0261 22.5441C10.0261 23.4969 9.16519 24.2265 8.2581 23.9351C4.37714 22.6886 1.31142 19.6229 0.0648936 15.7419C-0.226454 14.8348 0.50313 13.9739 1.45586 13.9739ZM6.43614 12.9543C7.16234 12.9543 7.77006 13.469 8.12418 14.103C8.53898 14.8456 9.15435 15.461 9.89699 15.8758C10.531 16.2299 11.0457 16.8377 11.0457 17.5639C11.0457 18.5214 10.1857 19.2665 9.29748 18.9087C7.38639 18.1391 5.86091 16.6136 5.09126 14.7025C4.73354 13.8143 5.47859 12.9543 6.43614 12.9543Z" fill="currentColor"/>
</g>
<defs>
<clipPath id="clip0_865_548">
<rect width="24" height="24" fill="currentColor"/>
</clipPath>
</defs>
</svg>
