<svg width="24" height="24" viewBox="0 0 24 24"  xmlns="http://www.w3.org/2000/svg">
<g clip-path="url(#clip0_3464_5)">
<path d="M15.6833 9.41797C13.4884 10.2392 11.8314 12.1945 11.4939 14.6016C10.6316 15.3941 10.064 16.5096 10.0046 17.7783L9.99976 18V20.7383L9.04468 21.6934C8.67119 22.0669 8.19425 22.3203 7.67554 22.4199L2.05542 23.9678C0.855754 24.1979 -0.198209 23.144 0.0319824 21.9443L1.57983 16.3242C1.67939 15.8055 1.93293 15.3286 2.3064 14.9551L11.7634 5.49805L15.6833 9.41797ZM17.9998 12C19.9722 12 21.571 13.5719 21.571 15.5107V16.3799C22.3786 16.4935 22.9998 17.1747 22.9998 18V21.3613L22.991 21.5293C22.9112 22.3001 22.2879 22.9128 21.5037 22.9912L21.3328 23H14.6667L14.4958 22.9912C13.6555 22.9072 12.9999 22.2094 12.9998 21.3613V18C12.9998 17.1747 13.6209 16.4935 14.4285 16.3799V15.5107C14.4285 13.572 16.0273 12 17.9998 12ZM17.9998 13.4043C16.8163 13.4043 15.8572 14.3475 15.8572 15.5107V16.3613H20.1423V15.5107C20.1423 14.3474 19.1833 13.4043 17.9998 13.4043ZM16.7556 0.505859C17.4305 -0.168746 18.5251 -0.168925 19.2 0.505859L23.4939 4.80078C24.1684 5.47558 24.1684 6.56933 23.4939 7.24414L21.0125 9.72559L20.9812 9.75781L20.8845 9.66211L14.2419 3.01953L16.7556 0.505859Z" fill="currentColor"/>
</g>
<defs>
<clipPath id="clip0_3464_5">
<rect width="24" height="24" fill="currentColor"/>
</clipPath>
</defs>
</svg>
