<svg width="24" height="24" viewBox="0 0 24 24"  xmlns="http://www.w3.org/2000/svg">
<path d="M12 11.5C14.7614 11.5 17 9.26142 17 6.5C17 3.73858 14.7614 1.5 12 1.5C9.23858 1.5 7 3.73858 7 6.5C7 9.26142 9.23858 11.5 12 11.5ZM16.9458 14.2227C14.6651 14.8933 13 17.0022 13 19.5C13 20.6068 13.3269 21.6372 13.8895 22.5H2.43911C1.84507 22.5 1.3844 21.9632 1.52569 21.3747C2.67972 16.5672 6.93149 13 12 13C13.7827 13 15.4644 13.4413 16.9458 14.2227ZM20.1465 15.1464C20.3417 14.9512 20.6583 14.9512 20.8536 15.1464L22.8536 17.1464C23.0488 17.3417 23.0488 17.6583 22.8536 17.8535L18.1869 22.5202C18.1171 22.59 18.0282 22.6376 17.9314 22.6569L15.5981 22.9903C15.4341 23.0231 15.2647 22.9718 15.1465 22.8535C15.0282 22.7353 14.9769 22.5659 15.0097 22.4019L15.3431 20.0686C15.3624 19.9718 15.41 19.8829 15.4798 19.8131L20.1465 15.1464Z" fill="currentColor"/>
</svg>
