<svg width="24" height="24" viewBox="0 0 24 24"  xmlns="http://www.w3.org/2000/svg">
<path fill-rule="evenodd" clip-rule="evenodd" d="M11.5 9.5C13.433 9.5 15 7.933 15 6C15 4.067 13.433 2.5 11.5 2.5C9.567 2.5 8 4.067 8 6C8 7.933 9.567 9.5 11.5 9.5ZM11.5 11C14.2614 11 16.5 8.76142 16.5 6C16.5 3.23858 14.2614 1 11.5 1C8.73858 1 6.5 3.23858 6.5 6C6.5 8.76142 8.73858 11 11.5 11ZM18.9331 12.6831C19.1771 12.439 19.5729 12.439 19.8169 12.6831L22.3169 15.1831C22.561 15.4271 22.561 15.8229 22.3169 16.0669L16.4836 21.9003C16.3964 21.9875 16.2852 22.047 16.1642 22.0712L13.2476 22.4879C13.0427 22.5288 12.8308 22.4647 12.6831 22.3169C12.5353 22.1692 12.4712 21.9573 12.5121 21.7524L12.9288 18.8358C12.953 18.7148 13.0125 18.6036 13.0997 18.5164L18.9331 12.6831ZM20.9911 15.6249L19.375 14.0088L14.1174 19.2664L13.75 21.25L15.7335 20.8825L20.9911 15.6249ZM13.4785 12.82C12.6734 12.6111 11.8289 12.5 10.9585 12.5C5.77259 12.5 1.50833 16.0041 1.00455 21.0014C0.94914 21.5509 1.40775 22 1.96656 22H10.3258C10.7401 22 11.0846 21.6642 11.0846 21.25C11.0846 20.8358 10.7401 20.5 10.3258 20.5H2.58729C3.29603 16.521 6.77433 14 10.9585 14C11.6529 14 12.3278 14.0832 12.9738 14.2402C13.2601 14.3097 13.5659 14.2366 13.7732 14.0294C14.1719 13.6308 14.0271 12.9623 13.4785 12.82Z" fill="currentColor"/>
</svg>
