<svg width="24" height="24" viewBox="0 0 24 24"  xmlns="http://www.w3.org/2000/svg">
<g clip-path="url(#clip0_865_5844)">
<path d="M16.4692 0.571182C17.2308 -0.190397 18.4649 -0.190391 19.2265 0.571182L23.4288 4.77349C24.1904 5.53509 24.1904 6.77019 23.4288 7.53179L9.29276 21.6678C8.90326 22.0572 8.409 22.3227 7.87105 22.437L2.34938 23.958L2.31898 23.9641C0.965056 24.2239 -0.223906 23.0349 0.0359383 21.681L0.0420183 21.6506L1.56405 16.1239C1.67893 15.5878 1.94486 15.0955 2.33317 14.7072L16.4692 0.571182ZM3.43365 15.8077C3.25119 15.9902 3.12768 16.2231 3.07899 16.4765L3.07291 16.5069L1.56405 21.985C1.52025 22.2487 1.74574 22.4756 2.0089 22.4359L7.49308 20.9271L7.52348 20.922C7.77699 20.8734 8.00974 20.7489 8.19228 20.5663L18.3388 10.4198L13.5802 5.66117L3.43365 15.8077ZM18.126 1.67167C17.9723 1.51794 17.7234 1.51793 17.5697 1.67167L14.6807 4.55968L19.4393 9.31831L22.3283 6.4303C22.4821 6.27654 22.4821 6.02773 22.3283 5.87397L18.126 1.67167Z" fill="currentColor"/>
</g>
<defs>
<clipPath id="clip0_865_5844">
<rect width="24" height="24" fill="currentColor"/>
</clipPath>
</defs>
</svg>
