<svg width="24" height="24" viewBox="0 0 24 24"  xmlns="http://www.w3.org/2000/svg">
<g clip-path="url(#clip0_3464_4)">
<path d="M16.4688 0.571289C17.2304 -0.19029 18.465 -0.190284 19.2266 0.571289L23.4287 4.77344C24.1903 5.53504 24.1903 6.77063 23.4287 7.53223L21.3262 9.63379C20.8272 9.36739 20.2895 9.16391 19.7236 9.03418L22.3281 6.43066C22.4819 6.2769 22.4819 6.02778 22.3281 5.87402L18.126 1.67188C17.9723 1.51814 17.723 1.51813 17.5693 1.67188L14.6807 4.55957L19.0361 8.91504C18.7819 8.88493 18.523 8.86914 18.2607 8.86914C17.8032 8.86915 17.3567 8.91714 16.9258 9.00684L13.5801 5.66113L3.43359 15.8076C3.25113 15.9901 3.12779 16.2232 3.0791 16.4766L3.07324 16.5068L1.56445 21.9854C1.52086 22.2489 1.74575 22.4752 2.00879 22.4355L7.49316 20.9268L7.52344 20.9219C7.77695 20.8733 8.00985 20.749 8.19238 20.5664L10.1738 18.585V20.7871L9.29297 21.668C8.9035 22.0573 8.40899 22.3222 7.87109 22.4365L2.34961 23.958L2.31934 23.9639C0.965412 24.2237 -0.223713 23.0346 0.0361328 21.6807L0.0419922 21.6504L1.56445 16.124C1.67933 15.5879 1.9447 15.0953 2.33301 14.707L16.4688 0.571289ZM18.2607 11.4785C20.4218 11.4785 22.1738 13.2305 22.1738 15.3916V15.9336C23.0586 16.0603 23.7392 16.8195 23.7393 17.7393V21.9131C23.7393 22.9217 22.9216 23.7392 21.9131 23.7393H14.6084C13.6 23.7391 12.7822 22.9216 12.7822 21.9131V17.7393C12.7823 16.8195 13.4629 16.0604 14.3477 15.9336V15.3916C14.3477 13.2306 16.0997 11.4786 18.2607 11.4785ZM14.6084 17.4785C14.4645 17.4787 14.3477 17.5954 14.3477 17.7393V21.9131C14.3477 22.0571 14.4644 22.1737 14.6084 22.1738H21.9131C22.0571 22.1738 22.1738 22.0572 22.1738 21.9131V17.7393C22.1738 17.5953 22.0571 17.4786 21.9131 17.4785H14.6084ZM18.2607 13.0439C16.9641 13.044 15.9131 14.095 15.9131 15.3916V15.9131H20.6084V15.3916C20.6084 14.0949 19.5573 13.0439 18.2607 13.0439Z" fill="currentColor"/>
</g>
<defs>
<clipPath id="clip0_3464_4">
<rect width="24" height="24" fill="currentColor"/>
</clipPath>
</defs>
</svg>
