<svg width="24" height="24" viewBox="0 0 24 24"  xmlns="http://www.w3.org/2000/svg">
<path fill-rule="evenodd" clip-rule="evenodd" d="M15.6844 11.2197L14.025 11.7921L15.7366 12.1746C17.2481 12.5124 18.3023 13.2586 18.9836 14.2187C19.6693 15.185 20 16.4008 20 17.7053C20 19.6714 19.277 21.2203 17.9542 22.2895C16.6174 23.37 14.6177 24 12.0085 24C9.36618 24 7.36271 23.3575 6.0301 22.2732C4.71074 21.1998 4 19.6547 4 17.7225C4 16.4088 4.33105 15.1887 5.01675 14.2205C5.698 13.2586 6.75206 12.5124 8.26349 12.1746L9.97505 11.7921L8.31557 11.2197C5.73425 10.3293 4.57664 8.2749 4.57664 5.95002C4.57664 4.14348 5.26701 2.67685 6.51151 1.65165C7.76671 0.617661 9.62744 0 12.0085 0C14.3807 0 16.2374 0.617476 17.4907 1.64955C18.7335 2.67296 19.4234 4.1355 19.4234 5.93278C19.4234 8.27574 18.2651 10.3296 15.6844 11.2197ZM12.0085 1.24792C10.1945 1.24792 8.70181 1.67216 7.65312 2.52963C6.58928 3.39949 6.04199 4.66675 6.04199 6.20856C6.04199 7.73077 6.57489 8.99398 7.63278 9.8649C8.67578 10.7236 10.1694 11.152 12.0085 11.152C13.8396 11.152 15.329 10.7234 16.3698 9.86455C17.4253 8.99367 17.9581 7.7307 17.9581 6.20856C17.9581 4.66683 17.4108 3.3998 16.3495 2.52998C15.303 1.67239 13.8146 1.24792 12.0085 1.24792ZM12.0085 12.0552C9.95451 12.0552 8.3098 12.5069 7.16855 13.4146C6.00921 14.3367 5.43142 15.6801 5.43142 17.3088C5.43142 18.9926 6.04512 20.379 7.21477 21.3329C8.37008 22.2751 10.014 22.7521 12.0085 22.7521C13.995 22.7521 15.6345 22.2749 16.7873 21.3351C17.9543 20.3839 18.5686 19.002 18.5686 17.3261C18.5686 15.6897 17.9915 14.3421 16.8345 13.4175C15.6953 12.5071 14.0544 12.0552 12.0085 12.0552Z" fill="currentColor"/>
</svg>
