<svg width="24" height="24" viewBox="0 0 24 24"  xmlns="http://www.w3.org/2000/svg">
<path d="M12.0078 0C16.7128 0 19.5015 2.61337 19.5015 6.33494C19.5015 8.76637 18.333 10.8174 16.2298 11.7436C18.8159 12.5045 20 14.8201 20 17.3839C20 21.4032 17.1178 24 12.0078 24C6.91334 24 4 21.4197 4 17.3508C4 14.8201 5.19961 12.5045 7.78579 11.7436C5.68257 10.8174 4.49854 8.76637 4.49854 6.33494C4.49854 2.61337 7.30283 0 12.0078 0ZM12.0078 3.09304C9.23467 3.09304 7.70789 4.43281 7.70789 6.76499C7.70789 8.98139 9.17234 10.3708 12.0078 10.3708C14.8433 10.3708 16.3077 8.98139 16.3077 6.74845C16.3077 4.43281 14.7809 3.09304 12.0078 3.09304ZM12.0078 12.9345C8.8296 12.9345 7.19376 14.357 7.19376 16.838C7.19376 19.3687 8.92308 20.907 12.0078 20.907C15.0925 20.907 16.8218 19.3687 16.8218 16.838C16.8218 14.357 15.1859 12.9345 12.0078 12.9345Z" fill="currentColor"/>
</svg>
