<svg width="24" height="24" viewBox="0 0 24 24"  xmlns="http://www.w3.org/2000/svg">
<g clip-path="url(#clip0_3469_550)">
<path d="M0 8.75C0 8.33579 0.335787 8 0.75 8H2.25C2.66421 8 3 8.33579 3 8.75C3 9.16421 2.66421 9.5 2.25 9.5H0.75C0.335786 9.5 0 9.16421 0 8.75Z" fill="currentColor"/>
<path d="M21 8.75C21 8.33579 21.3358 8 21.75 8H23.25C23.6642 8 24 8.33579 24 8.75C24 9.16421 23.6642 9.5 23.25 9.5H21.75C21.3358 9.5 21 9.16421 21 8.75Z" fill="currentColor"/>
<path d="M3.51484 2.53033C3.80773 2.23744 4.2826 2.23744 4.5755 2.53033L5.63616 3.59099C5.92905 3.88388 5.92905 4.35876 5.63616 4.65165C5.34326 4.94454 4.86839 4.94454 4.5755 4.65165L3.51484 3.59099C3.22194 3.2981 3.22194 2.82322 3.51484 2.53033Z" fill="currentColor"/>
<path d="M12 0C12.4142 9.05293e-09 12.75 0.335787 12.75 0.75V2.25C12.75 2.66421 12.4142 3 12 3C11.5858 3 11.25 2.66421 11.25 2.25V0.75C11.25 0.335786 11.5858 -9.05293e-09 12 0Z" fill="currentColor"/>
<path d="M20.4852 2.53033C20.1923 2.23744 19.7174 2.23744 19.4245 2.53033L18.3638 3.59099C18.071 3.88388 18.071 4.35876 18.3638 4.65165C18.6567 4.94454 19.1316 4.94454 19.4245 4.65165L20.4852 3.59099C20.7781 3.2981 20.7781 2.82322 20.4852 2.53033Z" fill="currentColor"/>
<path d="M21 19C22.1046 19 23 19.8954 23 21V22C23 23.1046 22.1046 24 21 24H3C1.89543 24 1 23.1046 1 22V21C1 19.8954 1.89543 19 3 19H21Z" fill="currentColor"/>
<path fill-rule="evenodd" clip-rule="evenodd" d="M12 5C16.4183 5 20 8.80558 20 13.5V18H4V13.5C4 8.80558 7.58172 5 12 5ZM11.1514 6.68359C10.7074 6.72225 10.2673 6.81067 9.84082 6.94727C9.09069 7.1876 8.39507 7.573 7.79395 8.08203C7.19267 8.59125 6.69755 9.21449 6.33691 9.91504C6.13204 10.3131 5.97256 10.7317 5.86133 11.1631C5.72108 11.7072 6.14609 12.2026 6.70605 12.249C7.26595 12.2953 7.74563 11.8706 7.93262 11.3408C7.99235 11.1717 8.06304 11.0059 8.14551 10.8457C8.38382 10.3828 8.71111 9.97124 9.1084 9.63477C9.50576 9.29824 9.96601 9.04361 10.4619 8.88477C10.6336 8.82977 10.8085 8.78692 10.9854 8.75586C11.5388 8.65866 12.0366 8.25528 12.083 7.69531C12.1294 7.13552 11.7109 6.63513 11.1514 6.68359Z" fill="currentColor"/>
</g>
<defs>
<clipPath id="clip0_3469_550">
<rect width="24" height="24" fill="currentColor"/>
</clipPath>
</defs>
</svg>
