<svg width="24" height="24" viewBox="0 0 24 24"  xmlns="http://www.w3.org/2000/svg">
<g clip-path="url(#clip0_3469_551)">
<path d="M0 8.75C0 8.33579 0.335786 8 0.75 8H2.25C2.66421 8 3 8.33579 3 8.75C3 9.16421 2.66421 9.5 2.25 9.5H0.75C0.335786 9.5 0 9.16421 0 8.75Z" fill="currentColor"/>
<path d="M21 8.75C21 8.33579 21.3358 8 21.75 8H23.25C23.6642 8 24 8.33579 24 8.75C24 9.16421 23.6642 9.5 23.25 9.5H21.75C21.3358 9.5 21 9.16421 21 8.75Z" fill="currentColor"/>
<path d="M3.51484 2.53033C3.80773 2.23744 4.2826 2.23744 4.5755 2.53033L5.63616 3.59099C5.92905 3.88388 5.92905 4.35876 5.63616 4.65165C5.34326 4.94454 4.86839 4.94454 4.5755 4.65165L3.51484 3.59099C3.22194 3.2981 3.22194 2.82322 3.51484 2.53033Z" fill="currentColor"/>
<path d="M12 0C12.4142 9.05292e-09 12.75 0.335786 12.75 0.75V2.25C12.75 2.66421 12.4142 3 12 3C11.5858 3 11.25 2.66421 11.25 2.25V0.75C11.25 0.335786 11.5858 -9.05292e-09 12 0Z" fill="currentColor"/>
<path d="M20.4852 2.53033C20.1923 2.23744 19.7174 2.23744 19.4245 2.53033L18.3638 3.59099C18.071 3.88388 18.071 4.35876 18.3638 4.65165C18.6567 4.94454 19.1316 4.94454 19.4245 4.65165L20.4852 3.59099C20.7781 3.2981 20.7781 2.82322 20.4852 2.53033Z" fill="currentColor"/>
<path d="M11.9141 8.5127C12.4677 8.41805 12.9266 8.88168 12.9268 9.44336C12.9268 10.0052 12.4634 10.4482 11.9199 10.5908C11.7464 10.6364 11.5757 10.6937 11.4092 10.7627C10.9281 10.962 10.4903 11.2539 10.1221 11.6221C9.75387 11.9903 9.46196 12.4281 9.2627 12.9092C9.19374 13.0757 9.13636 13.2464 9.09082 13.4199C8.94823 13.9634 8.50525 14.4258 7.94336 14.4258C7.38171 14.4256 6.91808 13.9677 7.0127 13.4141C7.08791 12.9748 7.21145 12.5436 7.38281 12.1299C7.68434 11.402 8.12649 10.7407 8.68359 10.1836C9.24069 9.6265 9.90201 9.18434 10.6299 8.88281C11.0436 8.71145 11.4748 8.58791 11.9141 8.5127Z" fill="currentColor"/>
<path fill-rule="evenodd" clip-rule="evenodd" d="M12 5C16.6944 5 20.5 8.80558 20.5 13.5V19H21C22.1046 19 23 19.8954 23 21V22C23 23.1046 22.1046 24 21 24H3C1.89543 24 1 23.1046 1 22V21C1 19.8954 1.89543 19 3 19H3.5V13.5C3.5 8.80558 7.30558 5 12 5ZM3 20.5C2.72386 20.5 2.5 20.7239 2.5 21V22C2.5 22.2417 2.67145 22.4437 2.89941 22.4902L3 22.5H21L21.1006 22.4902C21.2961 22.4503 21.4503 22.2961 21.4902 22.1006L21.5 22V21C21.5 20.7239 21.2761 20.5 21 20.5H3ZM12 6.5C8.13401 6.5 5 9.63401 5 13.5V19H19V13.5C19 9.63401 15.866 6.5 12 6.5Z" fill="currentColor"/>
</g>
<defs>
<clipPath id="clip0_3469_551">
<rect width="24" height="24" fill="currentColor"/>
</clipPath>
</defs>
</svg>
