<svg width="24" height="24" viewBox="0 0 24 24"  xmlns="http://www.w3.org/2000/svg">
<g clip-path="url(#clip0_865_2845)">
<path fill-rule="evenodd" clip-rule="evenodd" d="M1.5 12C1.5 6.20101 6.20101 1.5 12 1.5C17.799 1.5 22.5 6.20101 22.5 12C22.5 17.799 17.799 22.5 12 22.5C6.20101 22.5 1.5 17.799 1.5 12ZM12 0C5.37258 0 0 5.37258 0 12C0 18.6275 5.37258 24 12 24C18.6275 24 24 18.6275 24 12C24 5.37258 18.6275 0 12 0ZM9 9C9 9.82842 8.32842 10.5 7.5 10.5C6.67158 10.5 6 9.82842 6 9C6 8.17158 6.67158 7.5 7.5 7.5C8.32842 7.5 9 8.17158 9 9ZM16.5 10.5C17.3284 10.5 18 9.82842 18 9C18 8.17158 17.3284 7.5 16.5 7.5C15.6715 7.5 15 8.17158 15 9C15 9.82842 15.6715 10.5 16.5 10.5ZM8.325 13.5C7.96748 13.5 7.65965 13.7524 7.58955 14.103C7.5306 14.3978 7.50062 14.6978 7.5 14.9985V15C7.5 16.1934 7.97411 17.338 8.81802 18.1819C9.66193 19.0259 10.8065 19.5 12 19.5C13.1935 19.5 14.3381 19.0259 15.1819 18.1819C16.0259 17.338 16.5 16.1934 16.5 15V14.9985C16.4994 14.6978 16.4694 14.3978 16.4104 14.103C16.3404 13.7524 16.0326 13.5 15.675 13.5H8.325ZM9 15C9.00019 15.7955 9.31625 16.559 9.87868 17.1213C10.4413 17.684 11.2044 18 12 18C12.7956 18 13.5587 17.684 14.1213 17.1213C14.6837 16.559 14.9998 15.7962 15 15.0007L9 15Z" fill="currentColor"/>
</g>
<defs>
<clipPath id="clip0_865_2845">
<rect width="24" height="24" fill="currentColor"/>
</clipPath>
</defs>
</svg>
