<svg width="24" height="24" viewBox="0 0 24 24"  xmlns="http://www.w3.org/2000/svg">
<g clip-path="url(#clip0_865_1636)">
<path d="M12.1512 8.51244C17.1423 8.51244 19.8647 9.87363 21.0746 10.6299C22.1333 11.3861 22.7383 12.7473 22.5871 13.6547C22.4358 14.5622 22.1333 15.1672 21.6796 15.4697C21.6796 15.4697 21.5284 15.4697 21.3771 15.4697C20.4697 15.4697 18.5035 14.8647 17.7473 14.5622C16.6886 14.1085 16.6886 13.3522 16.5373 12.8985C16.5373 12.4448 16.6886 12.1423 16.2348 11.8398C15.4786 11.2348 14.2687 11.0836 12.1512 11.0836C10.0338 11.0836 8.82388 11.2348 8.06766 11.8398C7.46268 12.2935 7.76517 12.4448 7.76517 12.8985C7.61393 13.3522 7.61393 14.1085 6.70646 14.7134C5.95025 15.1672 3.83283 15.6209 3.07661 15.6209C2.92537 15.6209 2.77412 15.6209 2.77412 15.6209C2.16915 15.3184 1.86666 14.7134 1.71542 13.806C1.56417 12.8985 2.16915 11.3861 3.22786 10.7811C4.43781 9.87363 7.1602 8.51244 12.1512 8.51244ZM12.1512 7C7.00895 7 3.98407 8.36119 2.32039 9.4199C0.807953 10.4786 -0.250754 12.4448 0.0517343 13.9572C0.354222 15.7721 1.11044 16.5284 1.71542 16.8309C2.0179 16.9821 2.32039 17.1333 2.77412 17.1333C3.98407 17.1333 6.25273 16.5284 7.1602 15.9234C8.97512 15.1672 9.12637 13.6547 9.27761 13.201C9.27761 13.0498 9.27761 13.0498 9.27761 12.8985C9.73134 12.7473 10.6388 12.596 12.1512 12.596C13.6637 12.596 14.5711 12.7473 15.0249 12.8985V13.0498C15.0249 13.5035 15.3274 15.1672 16.8398 15.9234C17.7473 16.3771 20.0159 17.1333 21.2259 17.1333C21.6796 17.1333 21.9821 16.9821 22.2846 16.8309C22.8896 16.5284 23.6458 15.7721 23.9483 13.9572C24.2508 12.2935 23.192 10.3274 21.6796 9.4199C20.3184 8.36119 17.1423 7 12.1512 7Z" fill="currentColor"/>
</g>
<defs>
<clipPath id="clip0_865_1636">
<rect width="24" height="24" fill="currentColor"/>
</clipPath>
</defs>
</svg>
