<svg width="24" height="24" viewBox="0 0 24 24"  xmlns="http://www.w3.org/2000/svg">
<path d="M12.0049 7.00037H12.0193C13.0151 7.00037 14.1143 7.09496 15.3154 7.2821C16.5303 7.47045 17.7013 7.74571 18.8283 8.10728C19.9676 8.47206 20.9819 8.93344 21.8624 9.49756C22.7679 10.0774 23.4386 10.7915 23.7524 11.6683L23.7559 11.6785C24.0785 12.6202 24.0958 13.5446 23.7208 14.3948L23.2832 15.3826L23.2611 15.4205C23.0777 15.7343 22.8104 15.9901 22.4557 16.1365C22.2513 16.2212 22.0417 16.2512 21.8468 16.2512C21.6562 16.2512 21.4646 16.2223 21.2788 16.1758L20.9069 16.0921L20.8958 16.0897C20.4986 16.0004 19.8676 15.8586 19.0081 15.6649C17.7356 15.3786 16.6432 14.8881 16.1719 13.9817C15.8432 13.3773 15.6239 12.7104 15.7759 12.0742C15.7489 12.0407 15.6878 11.9782 15.5615 11.8946L15.5464 11.8844C15.2678 11.6906 14.7601 11.5148 13.9234 11.4341C13.0459 11.3507 12.4233 11.3115 12.0337 11.3115H12.0203C11.6111 11.3115 10.9763 11.3545 10.0979 11.4461C9.26772 11.5347 8.74232 11.7088 8.44122 11.9044C8.31376 11.9891 8.25276 12.0522 8.22621 12.0856C8.37618 12.716 8.16707 13.3866 7.84927 14.0023L7.84018 14.0194C7.35709 14.9012 6.27314 15.3911 5.00343 15.688C3.81265 15.9655 3.03382 16.1397 2.69864 16.1994C2.51973 16.2438 2.33294 16.2724 2.14555 16.2724C1.94915 16.2724 1.7421 16.2416 1.53963 16.1576C1.18709 16.0121 0.917998 15.7582 0.733777 15.4399L0.712253 15.4027L0.277185 14.4157C-0.0988476 13.5643 -0.0758258 12.6412 0.246892 11.7013L0.250481 11.691C0.565316 10.8137 1.23646 10.0988 2.14406 9.51792C3.02398 8.95303 4.03799 8.48953 5.17892 8.12157C6.30624 7.75768 7.47807 7.48029 8.69274 7.28873C9.90011 7.09831 11.0057 7.00148 12.0049 7.00037Z" fill="currentColor"/>
</svg>
