<svg width="24" height="24" viewBox="0 0 24 24"  xmlns="http://www.w3.org/2000/svg">
<g clip-path="url(#clip0_865_199)">
<path d="M12.75 6C12.3358 6 12 5.66421 12 5.25C12 4.83579 12.3358 4.5 12.75 4.5H18.75C18.8517 4.5 18.9487 4.52024 19.0371 4.55691C19.1255 4.59351 19.2084 4.64776 19.2803 4.71967C19.3522 4.79158 19.4065 4.87445 19.4431 4.96291C19.4751 5.04009 19.4946 5.12376 19.499 5.21141C19.4997 5.22419 19.5 5.23706 19.5 5.25V11.25C19.5 11.6642 19.1642 12 18.75 12C18.3358 12 18 11.6642 18 11.25V7.06066L13.2803 11.7803C12.9874 12.0732 12.5126 12.0732 12.2197 11.7803C11.9268 11.4874 11.9268 11.0126 12.2197 10.7197L16.9393 6H12.75Z" fill="currentColor"/>
<path fill-rule="evenodd" clip-rule="evenodd" d="M0 2.25C0 1.00736 1.00736 0 2.25 0H21.75C22.9926 0 24 1.00736 24 2.25V21.75C24 22.9926 22.9926 24 21.75 24H2.25C1.00736 24 0 22.9926 0 21.75V2.25ZM1.5 2.25C1.5 1.83579 1.83579 1.5 2.25 1.5H21.75C22.1642 1.5 22.5 1.83579 22.5 2.25V21.75C22.5 22.1642 22.1642 22.5 21.75 22.5H10.5V14.25C10.5 13.8358 10.1642 13.5 9.75 13.5H1.5V2.25ZM9 22.5H2.25C1.83579 22.5 1.5 22.1642 1.5 21.75V15H9V22.5Z" fill="currentColor"/>
</g>
<defs>
<clipPath id="clip0_865_199">
<rect width="24" height="24" fill="currentColor"/>
</clipPath>
</defs>
</svg>
