<svg width="24" height="24" viewBox="0 0 24 24"  xmlns="http://www.w3.org/2000/svg">
<g clip-path="url(#clip0_865_206)">
<path d="M10.5 6H18V13.5L15.3105 10.8105L11.5605 14.5605L9.43945 12.4395L13.1895 8.6895L10.5 6Z" fill="currentColor"/>
<path fill-rule="evenodd" clip-rule="evenodd" d="M1.5 0H22.5C23.328 0 24 0.672 24 1.5V22.5C24 23.328 23.328 24 22.5 24H1.5C0.672 24 0 23.328 0 22.5V1.5C0 0.672 0.672 0 1.5 0ZM9 21H21V3H3V15H7.5C8.328 15 9 15.672 9 16.5V21Z" fill="currentColor"/>
</g>
<defs>
<clipPath id="clip0_865_206">
<rect width="24" height="24" fill="currentColor"/>
</clipPath>
</defs>
</svg>
