<svg width="24" height="24" viewBox="0 0 24 24"  xmlns="http://www.w3.org/2000/svg">
<g clip-path="url(#clip0_865_5862)">
<path d="M12.6191 19.5H6.13351L1.31276 14.7056C0.895746 14.279 0.895746 13.5896 1.31276 13.163L13.8691 0.319905C14.2861 -0.106635 14.9602 -0.106635 15.3772 0.319905L22.6872 7.79691C23.1043 8.22345 23.1043 8.9129 22.6872 9.33944L12.6191 19.5ZM2.50003 21H21.0087C21.8372 21 22.5087 21.6716 22.5087 22.5C22.5087 23.3285 21.8372 24.0001 21.0087 24.0001H2.50003C1.67159 24.0001 1 23.3285 1 22.5C1 21.6716 1.67159 21 2.50003 21Z" fill="currentColor"/>
</g>
<defs>
<clipPath id="clip0_865_5862">
<rect width="24" height="24" fill="currentColor"/>
</clipPath>
</defs>
</svg>
