<svg width="24" height="24" viewBox="0 0 24 24"  xmlns="http://www.w3.org/2000/svg">
<g clip-path="url(#clip0_865_5856)">
<path fill-rule="evenodd" clip-rule="evenodd" d="M0.874562 13.1205L7.10812 6.8869L7.11982 6.87494L7.13177 6.86325L13.1205 0.874562C14.2865 -0.291521 16.1769 -0.291521 17.3429 0.874562L23.1254 6.65707C24.2915 7.82315 24.2915 9.71346 23.1254 10.8795L11.505 22.5H22.2504C22.6644 22.5 23 22.8358 23 23.25C23 23.6642 22.6644 24 22.2504 24H1.74956C1.33559 24 1 23.6642 1 23.25C1 22.8358 1.33559 22.5 1.74956 22.5H6.03163L0.874562 17.3429C-0.291521 16.1769 -0.291521 14.2865 0.874562 13.1205ZM16.2823 1.93522C15.702 1.35493 14.7614 1.35493 14.1811 1.93522L8.71094 7.4054L16.5946 15.2891L22.0648 9.81888C22.6451 9.23859 22.6451 8.29802 22.0648 7.71773L16.2823 1.93522ZM8.15295 22.5H9.38366L15.5339 16.3497L7.65028 8.46606L1.93522 14.1811C1.35493 14.7614 1.35493 15.702 1.93522 16.2823L8.15295 22.5Z" fill="currentColor"/>
</g>
<defs>
<clipPath id="clip0_865_5856">
<rect width="24" height="24" fill="currentColor"/>
</clipPath>
</defs>
</svg>
