<svg width="24" height="24" viewBox="0 0 24 24"  xmlns="http://www.w3.org/2000/svg">
<path d="M12 15C12.9 15 13.5 15.6 13.5 16.5C13.5 17.4 12.9 18 12 18C11.1 18 10.5 17.4 10.5 16.5C10.5 15.6 11.1 15 12 15ZM13.5 13C13.5 13.2761 13.2761 13.5 13 13.5H11C10.7239 13.5 10.5 13.2761 10.5 13V6.5C10.5 6.22386 10.7239 6 11 6H13C13.2761 6 13.5 6.22386 13.5 6.5V13Z" fill="currentColor"/>
<path fill-rule="evenodd" clip-rule="evenodd" d="M1 12C1 5.92487 5.92487 1 12 1C18.0751 1 23 5.92487 23 12C23 18.0751 18.0751 23 12 23C5.92487 23 1 18.0751 1 12ZM2.5 12C2.5 6.75329 6.75329 2.5 12 2.5C17.2467 2.5 21.5 6.75329 21.5 12C21.5 17.2467 17.2467 21.5 12 21.5C6.75329 21.5 2.5 17.2467 2.5 12Z" fill="currentColor"/>
</svg>
