<svg width="24" height="24" viewBox="0 0 24 24"  xmlns="http://www.w3.org/2000/svg">
<path fill-rule="evenodd" clip-rule="evenodd" d="M12 1C5.92487 1 1 5.92487 1 12C1 18.0751 5.92487 23 12 23C18.0751 23 23 18.0751 23 12C23 5.92487 18.0751 1 12 1ZM13.5 16.5C13.5 15.6 12.9 15 12 15C11.1 15 10.5 15.6 10.5 16.5C10.5 17.4 11.1 18 12 18C12.9 18 13.5 17.4 13.5 16.5ZM13 13.5C13.2761 13.5 13.5 13.2761 13.5 13V6.5C13.5 6.22386 13.2761 6 13 6H11C10.7239 6 10.5 6.22386 10.5 6.5V13C10.5 13.2761 10.7239 13.5 11 13.5H13Z" fill="currentColor"/>
</svg>
