<svg width="24" height="24" viewBox="0 0 24 24"  xmlns="http://www.w3.org/2000/svg">
<path fill-rule="evenodd" clip-rule="evenodd" d="M15.542 1L12 2.7563L8.458 1L6.572 4.5126L2.708 5.20588L3.26 9.13445L0.5 12L3.26 14.8655L2.708 18.7941L6.572 19.4874L8.458 23L12 21.2437L15.542 23L17.428 19.4874L21.292 18.7941L20.74 14.8655L23.5 12L20.74 9.13445L21.292 5.20588L17.428 4.5126L15.542 1ZM10.5 13C10.5 13.2761 10.7239 13.5 11 13.5H13C13.2761 13.5 13.5 13.2761 13.5 13L13.5001 6.5C13.5001 6.22386 13.2762 6 13.0001 6H11.0001C10.7239 6 10.5001 6.22386 10.5001 6.5L10.5 13ZM10.5 16.5C10.5 17.4 11.1 18 12 18C12.9 18 13.5 17.4 13.5 16.5C13.5 15.6 12.9 15 12 15C11.1 15 10.5 15.6 10.5 16.5Z" fill="currentColor"/>
</svg>
