<svg width="24" height="24" viewBox="0 0 24 24"  xmlns="http://www.w3.org/2000/svg">
<path d="M11 13.5C10.7239 13.5 10.5 13.2761 10.5 13L10.5001 6.5C10.5001 6.22386 10.7239 6 11.0001 6H13.0001C13.2762 6 13.5001 6.22386 13.5001 6.5L13.5 13C13.5 13.2761 13.2761 13.5 13 13.5H11ZM12 18C11.1 18 10.5 17.4 10.5 16.5C10.5 15.6 11.1 15 12 15C12.9 15 13.5 15.6 13.5 16.5C13.5 17.4 12.9 18 12 18Z" fill="currentColor"/>
<path fill-rule="evenodd" clip-rule="evenodd" d="M12 2.7563L15.542 1L17.428 4.5126L21.292 5.20588L20.74 9.13445L23.5 12L20.74 14.8655L21.292 18.7941L17.428 19.4874L15.542 23L12 21.2437L8.458 23L6.572 19.4874L2.708 18.7941L3.26 14.8655L0.5 12L3.26 9.13445L2.708 5.20588L6.572 4.5126L8.458 1L12 2.7563ZM12 4.36694L9.06496 2.9116L7.50772 5.81189L4.32514 6.38291L4.7816 9.63157L2.50041 12L4.7816 14.3684L4.32514 17.6171L7.50772 18.1881L9.06496 21.0884L12 19.6331L14.935 21.0884L16.4923 18.1881L19.6749 17.6171L19.2184 14.3684L21.4996 12L19.2184 9.63157L19.6749 6.38291L16.4923 5.81189L14.935 2.9116L12 4.36694Z" fill="currentColor"/>
</svg>
