<svg width="24" height="24" viewBox="0 0 24 24"  xmlns="http://www.w3.org/2000/svg">
<g clip-path="url(#clip0_865_223)">
<path d="M10.4906 16.8C10.4906 16.32 10.0403 16 9.7401 16C9.28978 16 8.98958 16.32 8.98958 16.8V21.6C8.98958 22.88 10.0403 24 11.2411 24H21.7484C22.9493 24 24 22.88 24 21.6V2.4C24 1.12 22.9493 0 21.7484 0H11.2411C9.8902 0 8.98958 1.12 8.98958 2.4V7.2C8.98958 7.68 9.28978 8 9.7401 8C10.0403 8 10.4906 7.68 10.4906 7.2V2.4C10.4906 1.92 10.7908 1.6 11.2411 1.6H21.7484C22.0486 1.6 22.499 1.92 22.499 2.4V21.6C22.499 22.08 22.0486 22.4 21.7484 22.4H11.2411C10.7908 22.4 10.4906 22.08 10.4906 21.6V16.8ZM4.63655 6.56031L0.133427 11.3603C0.133427 11.3603 -0.166784 12.0003 0.133427 12.4803L4.63655 17.2803C4.93676 17.6003 5.38707 17.6003 5.68728 17.2803C5.98749 16.9603 5.98749 16.4803 5.68728 16.1603L2.53509 12.8003H17.2453C17.5455 12.8003 17.9958 12.4803 17.9958 12.0003C17.9958 11.5203 17.5455 11.2003 17.2453 11.2003H2.53509L5.68728 7.68031C5.98749 7.36031 5.98749 6.88031 5.68728 6.56031C5.38707 6.24031 4.93676 6.24031 4.63655 6.56031Z" fill="currentColor"/>
</g>
<defs>
<clipPath id="clip0_865_223">
<rect width="24" height="24" fill="currentColor"/>
</clipPath>
</defs>
</svg>
