<svg width="24" height="24" viewBox="0 0 24 24"  xmlns="http://www.w3.org/2000/svg">
<path d="M16.4697 7.28033C16.1768 6.98744 16.1768 6.51257 16.4697 6.21968C16.7626 5.92677 17.2374 5.92677 17.5303 6.21968L22.7783 11.4676C22.785 11.4743 22.7916 11.4811 22.7981 11.4881C22.9233 11.6221 23 11.8021 23 12C23 12.1012 22.9799 12.1978 22.9436 12.2859C22.9072 12.3742 22.8534 12.4569 22.7819 12.5287L22.7803 12.5303L16.4697 7.28033ZM16.4697 7.28033L20.4393 11.25H1.75C1.33585 11.25 1 11.5858 1 12C1 12.4142 1.33585 12.75 1.75 12.75H20.4393L16.4697 16.7196C16.1768 17.0126 16.1768 17.4875 16.4697 17.7804C16.7626 18.0732 17.2374 18.0732 17.5303 17.7804L22.7803 12.5303L16.4697 7.28033ZM12.5 2.75C12.5 2.33579 12.1642 2 11.75 2H1.75C1.33585 2 1 2.33579 1 2.75C1 3.16421 1.33585 3.5 1.75 3.5H11.75C12.1642 3.5 12.5 3.16421 12.5 2.75ZM11.75 20.5C12.1642 20.5 12.5 20.8358 12.5 21.25C12.5 21.6642 12.1642 22 11.75 22H1.75C1.33585 22 1 21.6642 1 21.25C1 20.8358 1.33585 20.5 1.75 20.5H11.75Z" fill="currentColor"/>
</svg>
