<svg width="24" height="24" viewBox="0 0 24 24"  xmlns="http://www.w3.org/2000/svg">
<path d="M2.71429 11.8571C2.71429 11.3838 2.33053 11 1.85714 11C1.38376 11 1 11.3838 1 11.8571V22.1439C0.999728 22.3631 1.08341 22.5824 1.25105 22.75C1.42925 22.9282 1.6664 23.0115 1.89973 23H12.1429C12.6162 23 13 22.6162 13 22.1429C13 21.6695 12.6162 21.2857 12.1429 21.2857H3.92776L10.0347 15.18C10.3694 14.8453 10.3694 14.3047 10.0347 13.97C9.69993 13.6352 9.15721 13.6353 8.82248 13.97L2.71429 20.077V11.8571ZM21.2857 12.1429C21.2857 12.6163 21.6695 13 22.1429 13C22.6162 13 23 12.6163 23 12.1429V1.85609C23.0003 1.63691 22.9166 1.41765 22.7489 1.25001C22.5707 1.07181 22.3336 0.988483 22.1003 1.00001H11.8571C11.3838 1.00001 11 1.38377 11 1.85716C11 2.33055 11.3838 2.7143 11.8571 2.7143H20.0722L13.9653 8.82002C13.6306 9.15476 13.6306 9.6953 13.9653 10.03C14.3001 10.3648 14.8428 10.3648 15.1775 10.03L21.2857 3.92301V12.1429Z" fill="currentColor"/>
</svg>
