<svg width="24" height="24" viewBox="0 0 24 24"  xmlns="http://www.w3.org/2000/svg">
<path fill-rule="evenodd" clip-rule="evenodd" d="M9.75002 23C9.33581 23 9.00002 22.6642 9.00002 22.25V13.4998H6.75002C6.45573 13.4998 6.18864 13.3277 6.06704 13.0597C5.94543 12.7917 5.9918 12.4774 6.18558 12.2559L11.4356 6.25583C11.578 6.09308 11.7837 5.99978 12 5.99978C12.2163 5.99978 12.422 6.09308 12.5645 6.25583L17.8145 12.2559C18.0083 12.4774 18.0546 12.7917 17.933 13.0597C17.8115 13.3277 17.5443 13.4998 17.25 13.4998H15V22.25C15 22.6642 14.6642 23 14.25 23H9.75002ZM10.5 12.7498V21.5H13.5V12.7498C13.5 12.3356 13.8358 11.9998 14.25 11.9998H15.5972L12 7.88873L8.40284 11.9998H9.75002C10.1642 11.9998 10.5 12.3356 10.5 12.7498ZM0.8 7C1.24183 7 1.6 6.66421 1.6 6.25V1.75C1.6 1.61193 1.71939 1.5 1.86667 1.5H22.1333C22.2806 1.5 22.4 1.61193 22.4 1.75V6.25C22.4 6.66421 22.7582 7 23.2 7C23.6418 7 24 6.66421 24 6.25V1.75C24 0.783502 23.1643 0 22.1333 0H1.86667C0.835735 0 0 0.783502 0 1.75V6.25C0 6.66421 0.358172 7 0.8 7Z" fill="currentColor"/>
</svg>
