<svg width="24" height="24" viewBox="0 0 24 24"  xmlns="http://www.w3.org/2000/svg">
<path fill-rule="evenodd" clip-rule="evenodd" d="M23.9081 11.6404C24.0303 11.8642 24.0305 12.1353 23.9084 12.3591L23.25 12C23.9084 12.3591 23.9078 12.3603 23.9078 12.3603L23.9067 12.3623L23.8916 12.3894C23.8817 12.4073 23.8673 12.4328 23.8486 12.4654C23.8113 12.5306 23.7567 12.6242 23.6855 12.7422C23.543 12.9781 23.3334 13.3121 23.0611 13.7116C22.5174 14.509 21.7186 15.5745 20.6988 16.6429C18.6809 18.7568 15.6834 21 12 21C8.31657 21 5.31912 18.7568 3.30123 16.6429C2.2814 15.5745 1.48263 14.509 0.938923 13.7116C0.666591 13.3121 0.457016 12.9781 0.314529 12.7422C0.243258 12.6242 0.18869 12.5306 0.151367 12.4654C0.132703 12.4328 0.118345 12.4073 0.108359 12.3894L0.0966663 12.3684L0.0932936 12.3623L0.0915783 12.3591L0.746941 12.0017L0.173791 12.3142C0.0931725 12.3581 0.0915783 12.3591 0.0915783 12.3591C-0.0305261 12.1353 -0.0305261 11.8647 0.0915783 11.6409L0.75 12C0.0915783 11.6409 0.0922284 11.6397 0.0922284 11.6397L0.0932936 11.6377L0.0966663 11.6316L0.108359 11.6106C0.118345 11.5927 0.132703 11.5672 0.151367 11.5346C0.18869 11.4694 0.243258 11.3758 0.314529 11.2578C0.457016 11.0219 0.666591 10.6879 0.938923 10.2884C1.48263 9.49099 2.2814 8.42554 3.30123 7.35714C5.31912 5.24316 8.31657 3 12 3C15.6834 3 18.6809 5.24316 20.6988 7.35714C21.7186 8.42554 22.5174 9.49099 23.0611 10.2884C23.3334 10.6879 23.543 11.0219 23.6855 11.2578C23.7567 11.3758 23.8113 11.4694 23.8486 11.5346C23.8673 11.5672 23.8817 11.5927 23.8916 11.6106L23.9067 11.6377L23.9081 11.6404ZM23.25 12C23.9084 11.6409 23.9081 11.6404 23.9081 11.6404L23.25 12ZM12 7.5C9.51472 7.5 7.5 9.51472 7.5 12C7.5 14.4853 9.51472 16.5 12 16.5C14.4853 16.5 16.5 14.4853 16.5 12C16.5 9.51472 14.4853 7.5 12 7.5Z" fill="currentColor"/>
</svg>
