<svg width="24" height="24" viewBox="0 0 24 24"  xmlns="http://www.w3.org/2000/svg">
<path fill-rule="evenodd" clip-rule="evenodd" d="M22.7803 2.28033C23.0732 1.98744 23.0732 1.51256 22.7803 1.21967C22.4874 0.926777 22.0126 0.926777 21.7197 1.21967L1.21967 21.7197C0.926777 22.0126 0.926777 22.4874 1.21967 22.7803C1.51256 23.0732 1.98744 23.0732 2.28033 22.7803L6.05273 19.0079C7.73043 20.1523 9.73559 21 12 21C15.6834 21 18.6809 18.7568 20.6988 16.6429C21.7186 15.5745 22.5174 14.509 23.0611 13.7116C23.3334 13.3121 23.543 12.9781 23.6855 12.7422C23.7567 12.6242 23.8113 12.5306 23.8486 12.4654C23.8673 12.4328 23.8817 12.4073 23.8916 12.3894L23.9067 12.3623L23.9078 12.3603C23.9078 12.3603 23.9084 12.3591 23.25 12L23.9084 12.3591C24.0305 12.1353 24.0303 11.8642 23.9081 11.6404L23.9067 11.6377L23.8916 11.6106C23.8817 11.5927 23.8673 11.5672 23.8486 11.5346C23.8113 11.4694 23.7567 11.3758 23.6855 11.2578C23.543 11.0219 23.3334 10.6879 23.0611 10.2884C22.5174 9.49099 21.7186 8.42554 20.6988 7.35714C20.2345 6.87081 19.7185 6.37764 19.1541 5.90652L22.7803 2.28033ZM18.089 6.97171L15.6681 9.3926C16.1919 10.1282 16.5 11.0281 16.5 12C16.5 14.4853 14.4853 16.5 12 16.5C11.0281 16.5 10.1282 16.1919 9.3926 15.6681L7.1343 17.9264C8.57115 18.8594 10.2109 19.5 12 19.5C15.0666 19.5 17.6941 17.6182 19.6137 15.6071C20.5627 14.613 21.3108 13.616 21.8217 12.8666C22.0639 12.5114 22.2517 12.2134 22.3813 12C22.2517 11.7866 22.0639 11.4886 21.8217 11.1334C21.3108 10.384 20.5627 9.38696 19.6137 8.39286C19.1462 7.90304 18.6366 7.42088 18.089 6.97171ZM10.476 14.5846C10.9227 14.8486 11.4436 15 12 15C13.6569 15 15 13.6569 15 12C15 11.4436 14.8486 10.9227 14.5846 10.476L10.476 14.5846ZM23.9081 11.6404L23.25 12C23.9084 11.6409 23.9081 11.6404 23.9081 11.6404Z" fill="currentColor"/>
<path d="M12 3C13.3893 3 14.681 3.3191 15.8593 3.83002L14.7039 4.98548C13.8496 4.67896 12.9457 4.5 12 4.5C8.93343 4.5 6.30588 6.38184 4.38627 8.39286C3.43735 9.38696 2.68924 10.384 2.17826 11.1334C1.93609 11.4886 1.74829 11.7866 1.61867 12C1.74829 12.2134 1.93609 12.5114 2.17826 12.8666C2.66244 13.5767 3.35952 14.5091 4.23861 15.4507L3.17737 16.512C2.21658 15.4879 1.46042 14.4764 0.938923 13.7116C0.666591 13.3121 0.457016 12.9781 0.314529 12.7422C0.243258 12.6242 0.18869 12.5306 0.151367 12.4654C0.132703 12.4328 0.118345 12.4073 0.108359 12.3894L0.0966663 12.3684L0.0932936 12.3623L0.0915783 12.3591C-0.0305261 12.1353 -0.0305261 11.8647 0.0915783 11.6409L0.75 12C0.0915783 11.6409 0.0922284 11.6397 0.0922284 11.6397L0.0932936 11.6377L0.0966663 11.6316L0.108359 11.6106C0.118345 11.5927 0.132703 11.5672 0.151367 11.5346C0.18869 11.4694 0.243258 11.3758 0.314529 11.2578C0.457016 11.0219 0.666591 10.6879 0.938923 10.2884C1.48263 9.49099 2.2814 8.42554 3.30123 7.35714C5.31912 5.24316 8.31657 3 12 3ZM12 7.5C12.0622 7.5 12.124 7.50126 12.1856 7.50376L7.50376 12.1856C7.50126 12.124 7.5 12.0622 7.5 12C7.5 9.51472 9.51472 7.5 12 7.5Z" fill="currentColor"/>
</svg>
