<svg width="24" height="24" viewBox="0 0 24 24"  xmlns="http://www.w3.org/2000/svg">
<path fill-rule="evenodd" clip-rule="evenodd" d="M0.53006 1.21713C0.237152 1.51002 0.24109 1.98885 0.538855 2.28661L21.3794 23.1271C21.6771 23.4249 22.156 23.4288 22.4489 23.1359C22.7418 22.843 22.7378 22.3643 22.4401 22.0665L1.59948 1.22592C1.30172 0.928162 0.822967 0.924225 0.53006 1.21713Z" fill="currentColor"/>
<path d="M6.57907 6.20557C5.77377 6.79035 5.03805 7.45674 4.38571 8.14014C3.43679 9.13424 2.68868 10.132 2.1777 10.8814C1.93566 11.2364 1.7477 11.5342 1.61813 11.7476C1.7477 11.9609 1.93566 12.2588 2.1777 12.6138C2.68868 13.3632 3.43679 14.3609 4.38571 15.355C6.30532 17.3661 8.9334 19.2476 12 19.2476C14.085 19.2475 15.966 18.3761 17.5605 17.187L18.6298 18.2563C16.8234 19.6431 14.5812 20.7475 12 20.7476C8.31653 20.7476 5.31864 18.504 3.30075 16.3901C2.28109 15.3219 1.4821 14.2568 0.938441 13.4595C0.66613 13.06 0.456904 12.7256 0.314418 12.4897C0.243296 12.372 0.188649 12.2786 0.151332 12.2134C0.132772 12.181 0.118342 12.1551 0.108363 12.1372L0.0966442 12.1157L0.092738 12.1099L0.0917614 12.1069C-0.030343 11.8831 -0.030343 11.612 0.0917614 11.3882L0.749965 11.7476C0.092178 11.3888 0.0917614 11.3882 0.0917614 11.3882L0.092738 11.3853L0.0966442 11.3794L0.108363 11.3579C0.118342 11.34 0.132772 11.3142 0.151332 11.2817C0.188649 11.2166 0.243296 11.1231 0.314418 11.0054C0.456904 10.7695 0.66613 10.4351 0.938441 10.0356C1.4821 9.23831 2.28108 8.17325 3.30075 7.10498C3.94018 6.43509 4.67802 5.75169 5.50485 5.13135L6.57907 6.20557Z" fill="currentColor"/>
<path d="M12 2.74756C15.6833 2.74765 18.6803 4.99105 20.6982 7.10498C21.7178 8.17322 22.5168 9.23828 23.0605 10.0356C23.3328 10.4351 23.543 10.7695 23.6855 11.0054C23.7566 11.1232 23.8113 11.2166 23.8486 11.2817C23.8673 11.3143 23.8817 11.34 23.8916 11.3579L23.9062 11.3853L23.9082 11.3882C24.0302 11.6119 24.0302 11.8832 23.9082 12.1069L23.25 11.7476C23.861 12.0808 23.9041 12.1061 23.9072 12.1079L23.9062 12.1099L23.8916 12.1372C23.8817 12.1551 23.8673 12.1808 23.8486 12.2134C23.8113 12.2785 23.7566 12.3719 23.6855 12.4897C23.543 12.7256 23.3328 13.06 23.0605 13.4595C22.5168 14.2568 21.7178 15.3219 20.6982 16.3901C20.4126 16.6894 20.1062 16.9899 19.7822 17.2876L18.7197 16.2251C19.0315 15.9407 19.3312 15.6505 19.6132 15.355C20.5622 14.3609 21.3104 13.3632 21.8213 12.6138C22.0634 12.2587 22.2512 11.9609 22.3808 11.7476C22.2512 11.5342 22.0634 11.2364 21.8213 10.8814C21.3104 10.132 20.5622 9.13424 19.6132 8.14014C17.6937 6.12926 15.0663 4.24765 12 4.24756C10.5107 4.24756 9.12536 4.69248 7.87399 5.3794L6.77633 4.28174C8.29721 3.37784 10.0519 2.74756 12 2.74756Z" fill="currentColor"/>
<path d="M9.94137 9.56787C9.36242 10.1148 8.99996 10.8882 8.99996 11.7476C8.99996 13.4045 10.3431 14.7476 12 14.7476C12.8592 14.7475 13.6318 14.3841 14.1787 13.8052L15.2402 14.8667C14.4216 15.7169 13.2734 16.2475 12 16.2476C9.51468 16.2476 7.49996 14.2329 7.49996 11.7476C7.49996 10.4741 8.02862 9.324 8.87887 8.50537L9.94137 9.56787Z" fill="currentColor"/>
<path d="M12 7.24756C14.4852 7.24768 16.5 9.26235 16.5 11.7476C16.5 12.4097 16.3554 13.0379 16.0986 13.604L14.9189 12.4243C14.9692 12.2065 15 11.9806 15 11.7476C15 10.0907 13.6568 8.74768 12 8.74756C11.7665 8.74756 11.5394 8.77619 11.3213 8.82666L10.1425 7.64795C10.7088 7.39103 11.3377 7.24756 12 7.24756Z" fill="currentColor"/>
</svg>
