<svg width="24" height="24" viewBox="0 0 24 24"  xmlns="http://www.w3.org/2000/svg">
<path fill-rule="evenodd" clip-rule="evenodd" d="M0.529876 1.21713C0.236969 1.51002 0.240906 1.98885 0.538672 2.28661L21.3792 23.1271C21.6769 23.4249 22.1558 23.4288 22.4487 23.1359C22.7416 22.843 22.7376 22.3643 22.4399 22.0665L1.5993 1.22592C1.30153 0.928162 0.822784 0.924225 0.529876 1.21713Z" fill="currentColor"/>
<path d="M8.87869 8.50537C8.02844 9.324 7.49978 10.4741 7.49978 11.7476C7.49978 14.2329 9.5145 16.2476 11.9998 16.2476C13.2732 16.2475 14.4214 15.7169 15.24 14.8667L18.6297 18.2563C16.8232 19.6431 14.581 20.7475 11.9998 20.7476C8.31635 20.7476 5.31845 18.504 3.30056 16.3901C2.28091 15.3219 1.48192 14.2568 0.938258 13.4595C0.665947 13.06 0.456721 12.7256 0.314235 12.4897C0.243113 12.372 0.188466 12.2786 0.151149 12.2134C0.132589 12.181 0.118159 12.1551 0.10818 12.1372L0.0964611 12.1157L0.0925549 12.1099L0.0915783 12.1069C-0.0305261 11.8831 -0.0305261 11.612 0.0915783 11.3882L0.749781 11.7476C0.0919949 11.3888 0.0915783 11.3882 0.0915783 11.3882L0.0925549 11.3853L0.0964611 11.3794L0.10818 11.3579C0.118159 11.34 0.132589 11.3142 0.151149 11.2817C0.188466 11.2166 0.243113 11.1231 0.314235 11.0054C0.456721 10.7695 0.665947 10.4351 0.938258 10.0356C1.48192 9.23831 2.2809 8.17325 3.30056 7.10498C3.94 6.43509 4.67784 5.75169 5.50466 5.13135L8.87869 8.50537Z" fill="currentColor"/>
<path d="M11.9998 2.74756C15.6831 2.74765 18.6802 4.99105 20.698 7.10498C21.7177 8.17322 22.5166 9.23828 23.0603 10.0356C23.3326 10.4351 23.5428 10.7695 23.6853 11.0054C23.7564 11.1232 23.8111 11.2166 23.8484 11.2817C23.8671 11.3143 23.8815 11.34 23.8914 11.3579L23.906 11.3853L23.908 11.3882C24.03 11.6119 24.03 11.8832 23.908 12.1069L23.2498 11.7476C23.8608 12.0808 23.9039 12.1061 23.907 12.1079L23.906 12.1099L23.8914 12.1372C23.8815 12.1551 23.8671 12.1808 23.8484 12.2134C23.8111 12.2785 23.7564 12.3719 23.6853 12.4897C23.5428 12.7256 23.3326 13.06 23.0603 13.4595C22.5166 14.2568 21.7177 15.3219 20.698 16.3901C20.4124 16.6894 20.1061 16.9899 19.782 17.2876L16.0984 13.604C16.3552 13.0379 16.4998 12.4097 16.4998 11.7476C16.4998 9.26235 14.485 7.24768 11.9998 7.24756C11.3375 7.24756 10.7086 7.39103 10.1424 7.64795L6.77615 4.28174C8.29703 3.37784 10.0517 2.74756 11.9998 2.74756Z" fill="currentColor"/>
</svg>
