<svg width="24" height="24" viewBox="0 0 24 24"  xmlns="http://www.w3.org/2000/svg">
<g clip-path="url(#clip0_865_7155)">
<path fill-rule="evenodd" clip-rule="evenodd" d="M0.43934 21.4393C-0.146447 22.0251 -0.146447 22.9749 0.43934 23.5607C1.02513 24.1464 1.97487 24.1464 2.56066 23.5607L6.69843 19.4229C8.23682 20.3513 10.0192 21 12 21C15.6834 21 18.6809 18.7568 20.6988 16.6429C21.7186 15.5745 22.5174 14.509 23.0611 13.7116C23.3334 13.3121 23.543 12.9781 23.6855 12.7422C23.7567 12.6242 23.8113 12.5306 23.8486 12.4654C23.8673 12.4328 23.8817 12.4073 23.8916 12.3894L23.9067 12.3623L23.9078 12.3603C23.9078 12.3603 23.9084 12.3591 23.25 12L23.9084 12.3591C24.0305 12.1353 24.0305 11.8647 23.9084 11.6409L23.9067 11.6377L23.8916 11.6106C23.8817 11.5927 23.8673 11.5672 23.8486 11.5346C23.8113 11.4694 23.7567 11.3758 23.6855 11.2578C23.543 11.0219 23.3334 10.6879 23.0611 10.2884C22.5174 9.49099 21.7186 8.42554 20.6988 7.35714C20.3946 7.03854 20.0683 6.71701 19.7207 6.40066L23.5607 2.56066C24.1464 1.97487 24.1464 1.02513 23.5607 0.43934C22.9749 -0.146447 22.0251 -0.146447 21.4393 0.43934L0.43934 21.4393ZM16.0614 10.0599L10.0599 16.0614C10.6473 16.3426 11.3053 16.5 12 16.5C14.4853 16.5 16.5 14.4853 16.5 12C16.5 11.3053 16.3426 10.6473 16.0614 10.0599ZM23.9084 11.6409C23.9084 11.6409 23.9068 11.6419 23.8262 11.6858L23.2531 11.9983L23.9084 11.6409Z" fill="currentColor"/>
<path d="M12 3C12.5899 3 13.1623 3.05754 13.7158 3.16287L1.88053 14.9981C1.51176 14.5279 1.19668 14.0896 0.938923 13.7116C0.666592 13.3121 0.457016 12.9781 0.314529 12.7422C0.243258 12.6242 0.18869 12.5306 0.151367 12.4654C0.132704 12.4328 0.118345 12.4073 0.108358 12.3894L0.0966663 12.3684L0.0932941 12.3623L0.0918522 12.3596L0.75 12C0.0915775 11.6409 0.0922279 11.6397 0.0922279 11.6397L0.0932941 11.6377L0.0966663 11.6316L0.108358 11.6106C0.118345 11.5927 0.132704 11.5672 0.151367 11.5346C0.18869 11.4694 0.243258 11.3758 0.314529 11.2578C0.457016 11.0219 0.666592 10.6879 0.938923 10.2884C1.48263 9.49099 2.2814 8.42554 3.30123 7.35714C5.31912 5.24316 8.31657 3 12 3ZM0.75 12C0.0915775 12.3591 0.0918522 12.3596 0.0918522 12.3596C-0.0302505 12.1358 -0.0305252 11.8647 0.0915775 11.6409L0.75 12Z" fill="currentColor"/>
</g>
<defs>
<clipPath id="clip0_865_7155">
<rect width="24" height="24" fill="currentColor"/>
</clipPath>
</defs>
</svg>
