<svg width="24" height="24" viewBox="0 0 24 24"  xmlns="http://www.w3.org/2000/svg">
<g clip-path="url(#clip0_865_5132)">
<path d="M24 12.0731C24 5.4046 18.6281 0 12 0C5.37188 0 0 5.4046 0 12.0731C0 18.1002 4.3875 23.0945 10.125 24V15.563H7.07812V12.0731H10.125V9.41324C10.125 6.3879 11.9156 4.71605 14.6578 4.71605C15.9703 4.71605 17.3438 4.95186 17.3438 4.95186V7.92297H15.8297C14.3391 7.92297 13.875 8.85439 13.875 9.80939V12.0731H17.2031L16.6711 15.563H13.875V24C19.6125 23.0945 24 18.1002 24 12.0731Z" fill="currentColor"/>
</g>
<defs>
<clipPath id="clip0_865_5132">
<rect width="24" height="24" fill="currentColor"/>
</clipPath>
</defs>
</svg>
