<svg width="24" height="24" viewBox="0 0 24 24"  xmlns="http://www.w3.org/2000/svg">
<g clip-path="url(#clip0_865_5127)">
<path fill-rule="evenodd" clip-rule="evenodd" d="M24 12C24 18.6274 18.6274 24 12 24C5.37258 24 0 18.6274 0 12C0 5.37258 5.37258 0 12 0C18.6274 0 24 5.37258 24 12ZM10.125 22.3331V15.5627H7.07812V12.0729H10.125V9.41301C10.125 6.38766 11.9156 4.71582 14.6578 4.71582C15.9703 4.71582 17.3438 4.95162 17.3438 4.95162V7.92274H15.8297C14.3391 7.92274 13.875 8.85416 13.875 9.80916V12.0729H17.2031L16.6711 15.5627H13.875V22.3331C18.7794 21.449 22.5 17.159 22.5 12C22.5 6.20101 17.799 1.5 12 1.5C6.20101 1.5 1.5 6.20101 1.5 12C1.5 17.159 5.22064 21.449 10.125 22.3331Z" fill="currentColor"/>
</g>
<defs>
<clipPath id="clip0_865_5127">
<rect width="24" height="24" fill="currentColor"/>
</clipPath>
</defs>
</svg>
