<svg width="24" height="24" viewBox="0 0 24 24"  xmlns="http://www.w3.org/2000/svg">
<path d="M10.1997 7.5C10.6139 7.5 10.9497 7.83579 10.9497 8.25V9H11.6997C12.1139 9 12.4497 9.33579 12.4497 9.75C12.4497 10.1642 12.1139 10.5 11.6997 10.5H10.1997C9.78549 10.5 9.44971 10.1642 9.44971 9.75V8.25C9.44971 7.83579 9.78549 7.5 10.1997 7.5Z" fill="currentColor"/>
<path fill-rule="evenodd" clip-rule="evenodd" d="M10.5 4.94971C8.01472 4.94971 6 6.96443 6 9.44971C6 11.935 8.01472 13.9497 10.5 13.9497C12.9853 13.9497 15 11.935 15 9.44971C15 6.96443 12.9853 4.94971 10.5 4.94971ZM7.5 9.44971C7.5 7.79285 8.84315 6.44971 10.5 6.44971C12.1569 6.44971 13.5 7.79285 13.5 9.44971C13.5 11.1066 12.1569 12.4497 10.5 12.4497C8.84315 12.4497 7.5 11.1066 7.5 9.44971ZM24 3.75H21V15.3107L14.5607 21.75H3V3.75H0V2.25H24V3.75ZM4.5 3.75H19.5V14.25H13.5V20.25H4.5V3.75ZM15 19.1893L18.4393 15.75H15V19.1893Z" fill="currentColor"/>
</svg>
