<svg width="24" height="24" viewBox="0 0 24 24"  xmlns="http://www.w3.org/2000/svg">
<path fill-rule="evenodd" clip-rule="evenodd" d="M12.7969 5.48438H6.70312C6.28891 5.48438 5.95312 5.82016 5.95312 6.23438C5.95312 6.64859 6.28891 6.98438 6.70312 6.98438H6.90301C6.96159 7.81134 7.22834 8.62559 7.70895 9.23438C7.21558 9.85933 6.94757 10.7008 6.89878 11.5503H6.70312C6.28891 11.5503 5.95312 11.8861 5.95312 12.3003C5.95312 12.7145 6.28891 13.0503 6.70312 13.0503H12.7969C13.2111 13.0503 13.5469 12.7145 13.5469 12.3003C13.5469 11.8861 13.2111 11.5503 12.7969 11.5503H12.6012C12.5524 10.7008 12.2844 9.85933 11.7911 9.23438C12.2717 8.62559 12.5384 7.81134 12.597 6.98438H12.7969C13.2111 6.98438 13.5469 6.64859 13.5469 6.23438C13.5469 5.82016 13.2111 5.48438 12.7969 5.48438ZM11.0983 11.5503C11.0316 10.7106 10.6753 10.1066 10.2955 9.87378C10.0731 9.73742 9.9375 9.49527 9.9375 9.23438C9.9375 8.97348 10.0731 8.73133 10.2955 8.59497C10.6653 8.36828 11.0128 7.78974 11.0924 6.98438H8.40761C8.48717 7.78974 8.83473 8.36828 9.2045 8.59497C9.42692 8.73133 9.5625 8.97348 9.5625 9.23438C9.5625 9.49527 9.42692 9.73742 9.2045 9.87378C8.82472 10.1066 8.46837 10.7106 8.40174 11.5503H11.0983ZM24 3.75H21V15.3107L14.5607 21.75H3V3.75H0V2.25H24V3.75ZM4.5 3.75H19.5V14.25H13.5V20.25H4.5V3.75ZM15 19.1893L18.4393 15.75H15V19.1893Z" fill="currentColor"/>
</svg>
