<svg width="24" height="24" viewBox="0 0 24 24"  xmlns="http://www.w3.org/2000/svg">
<g clip-path="url(#clip0_865_2672)">
<path d="M4.5 0.75C4.5 0.335787 4.83579 0 5.25 0H18.75C19.1642 0 19.5 0.335787 19.5 0.75V5.25C19.5 5.66421 19.1642 6 18.75 6C18.3358 6 18 5.66421 18 5.25V1.5H6V5.25C6 5.66421 5.66421 6 5.25 6C4.83579 6 4.5 5.66421 4.5 5.25V0.75Z" fill="currentColor"/>
<path fill-rule="evenodd" clip-rule="evenodd" d="M0 8.25C0 7.83579 0.335787 7.5 0.75 7.5H23.25C23.6642 7.5 24 7.83579 24 8.25V18.75C24 19.1642 23.6642 19.5 23.25 19.5H19.5V23.25C19.5 23.6642 19.1642 24 18.75 24H5.25C4.83579 24 4.5 23.6642 4.5 23.25V19.5H0.75C0.335787 19.5 0 19.1642 0 18.75V8.25ZM6 22.5H18V15H6V22.5ZM19.5 18V14.25C19.5 13.8358 19.1642 13.5 18.75 13.5H5.25C4.83579 13.5 4.5 13.8358 4.5 14.25V18H1.5V9H22.5V18H19.5Z" fill="currentColor"/>
</g>
<defs>
<clipPath id="clip0_865_2672">
<rect width="24" height="24" fill="currentColor"/>
</clipPath>
</defs>
</svg>
