<svg width="24" height="24" viewBox="0 0 24 24"  xmlns="http://www.w3.org/2000/svg">
<g clip-path="url(#clip0_865_2714)">
<path d="M4.5 0H19.5V4.5H4.5V0Z" fill="currentColor"/>
<path fill-rule="evenodd" clip-rule="evenodd" d="M1.5 7.5H22.5C23.4 7.5 24 8.1 24 9V18C24 18.9 23.4 19.5 22.5 19.5H19.5V22.5C19.5 23.4 18.9 24 18 24H6C5.1 24 4.5 23.4 4.5 22.5V19.5H1.5C0.6 19.5 0 18.9 0 18V9C0 8.1 0.6 7.5 1.5 7.5ZM7.5 21H16.5V13.5H7.5V21Z" fill="currentColor"/>
</g>
<defs>
<clipPath id="clip0_865_2714">
<rect width="24" height="24" fill="currentColor"/>
</clipPath>
</defs>
</svg>
