<svg width="24" height="24" viewBox="0 0 24 24"  xmlns="http://www.w3.org/2000/svg">
<path fill-rule="evenodd" clip-rule="evenodd" d="M24 3.75H21V15.3107L20.7803 15.5303L20.7793 15.5314L20.7762 15.5345L20.7753 15.5353L20.7744 15.5363L20.7733 15.5373L20.771 15.5396L20.7698 15.5409L20.7684 15.5422L20.767 15.5437L20.7639 15.5468L20.7622 15.5484L20.7605 15.5502L20.7586 15.552L20.7567 15.5539L20.7548 15.5559L20.7527 15.558L20.7505 15.5601L20.746 15.5646L20.7437 15.567L20.7412 15.5694L20.7387 15.572L20.7307 15.58L20.7278 15.5828L20.7219 15.5887L20.7189 15.5918L20.7157 15.5949L20.7125 15.5981L20.7093 15.6014L20.6954 15.6153L20.6917 15.6189L20.688 15.6227L20.6842 15.6265L20.6803 15.6303L20.6764 15.6343L20.6683 15.6424L20.6641 15.6465L20.6599 15.6508L20.6556 15.6551L20.6512 15.6594L20.6468 15.6639L20.6377 15.673L20.633 15.6776L20.6283 15.6824L20.6235 15.6872L20.6186 15.692L20.6137 15.697L20.588 15.7227L20.5826 15.728L20.5772 15.7335L20.5717 15.7389L20.5662 15.7445L20.5549 15.7558L20.5491 15.7615L20.5433 15.7674L20.5315 15.7792L20.5254 15.7852L20.5194 15.7913L20.507 15.8037L20.5007 15.8099L20.4944 15.8163L20.4815 15.8292L20.4749 15.8357L20.4683 15.8423L20.4617 15.849L20.4344 15.8763L20.4274 15.8832L20.4204 15.8903L20.3916 15.9191L20.3842 15.9264L20.3542 15.9564L20.3466 15.9641L20.3311 15.9796L20.3232 15.9874L20.3154 15.9953L20.2994 16.0113L20.2913 16.0193L20.2832 16.0275L20.2417 16.069L20.2332 16.0774L20.2247 16.086L20.1988 16.1119L20.19 16.1206L20.1812 16.1295L20.1723 16.1383L20.1544 16.1562L20.1454 16.1653L20.1363 16.1743L20.1272 16.1835L20.118 16.1927L20.1087 16.2019L20.0994 16.2112L20.0901 16.2206L20.0807 16.23L20.0712 16.2394L20.0617 16.249L20.0521 16.2585L19.9737 16.3369L19.9637 16.347L19.9536 16.357L19.9435 16.3672L19.9333 16.3773L19.9231 16.3876L19.8395 16.4712L19.8288 16.4818L19.8181 16.4926L19.8073 16.5033L19.7965 16.5141L19.7857 16.525L19.7748 16.5359L19.7638 16.5468L19.7528 16.5578L19.7418 16.5689L19.6746 16.6361L19.6632 16.6474L19.6518 16.6588L19.6404 16.6703L19.5942 16.7165L19.5825 16.7281L19.5708 16.7398L19.5591 16.7516L19.5117 16.799L19.4997 16.8109L19.4877 16.8229L19.4757 16.835L19.4515 16.8592L19.4393 16.8713L19.4271 16.8835L19.4149 16.8958L19.4026 16.908L19.3903 16.9204L19.3656 16.9451L19.3531 16.9575L19.3407 16.97L19.3156 16.9951L19.303 17.0076L19.2904 17.0203L19.2777 17.0329L19.2267 17.0839L19.2139 17.0968L19.201 17.1096L19.1881 17.1226L19.1361 17.1746L19.123 17.1876L19.1099 17.2008L19.0967 17.2139L19.0703 17.2403L19.0571 17.2536L19.0438 17.2669L19.0304 17.2802L19.0171 17.2936L18.9903 17.3204L18.9768 17.3338L18.9498 17.3608L18.9363 17.3744L18.9091 17.4016L18.8954 17.4152L18.8818 17.4289L18.8681 17.4426L18.8543 17.4563L18.8406 17.4701L18.8268 17.4839L18.8129 17.4977L18.7991 17.5116L18.7154 17.5953L18.7013 17.6093L18.6731 17.6375L18.659 17.6517L18.6448 17.6658L18.6307 17.68L18.6165 17.6942L18.6022 17.7084L18.5879 17.7227L18.5737 17.737L18.5593 17.7513L18.545 17.7657L18.5306 17.78L18.5018 17.8088L18.4874 17.8233L18.4729 17.8377L18.4439 17.8667L18.4294 17.8813L18.4148 17.8958L18.4003 17.9104L18.3857 17.925L18.371 17.9396L18.3564 17.9543L18.3417 17.969L18.327 17.9836L18.3123 17.9984L18.2828 18.0279L18.268 18.0426L18.2532 18.0574L18.2384 18.0723L18.2087 18.102L18.1938 18.1168L18.1789 18.1317L18.164 18.1467L18.1491 18.1616L18.1341 18.1765L18.0891 18.2215L18.0741 18.2366L18.059 18.2516L18.044 18.2667L17.9987 18.312L17.9835 18.3271L17.9684 18.3423L17.9532 18.3574L17.9076 18.403L17.8924 18.4183L17.8771 18.4335L17.8619 18.4488L17.8007 18.51L17.7853 18.5253L17.77 18.5407L17.7546 18.556L17.7393 18.5714L17.6931 18.6176L17.6776 18.633L17.6622 18.6485L17.6467 18.6639L17.6313 18.6794L17.6158 18.6948L17.5693 18.7413L17.5538 18.7569L17.5383 18.7724L17.5227 18.7879L17.5072 18.8035L17.4916 18.819L17.4761 18.8346L17.4605 18.8502L17.4449 18.8657L17.3981 18.9125L17.3825 18.9282L17.3669 18.9438L17.3512 18.9594L17.3356 18.9751L17.3199 18.9907L17.3043 19.0064L17.2886 19.022L17.273 19.0377L17.2259 19.0848L17.2102 19.1004L17.1788 19.1318L17.1631 19.1476L17.1317 19.179L17.1159 19.1947L17.1002 19.2104L17.0845 19.2262L17.0688 19.2419L17.053 19.2576L17.0373 19.2734L17.0215 19.2891L17.0058 19.3049L16.99 19.3206L16.9743 19.3364L16.9585 19.3521L16.9428 19.3679L16.927 19.3836L16.9113 19.3994L16.8955 19.4152L16.8797 19.4309L16.864 19.4467L16.8482 19.4625L16.8324 19.4782L16.8167 19.494L16.8009 19.5097L16.7851 19.5255L16.7694 19.5413L16.7536 19.557L16.7379 19.5728L16.7221 19.5886L16.7063 19.6043L16.6906 19.6201L16.6748 19.6358L16.6591 19.6516L16.6433 19.6673L16.6276 19.6831L16.6118 19.6988L16.5961 19.7146L16.5804 19.7303L16.5646 19.746L16.5489 19.7618L16.5332 19.7775L16.5174 19.7932L16.5017 19.8089L16.486 19.8247L16.4075 19.9032L16.3918 19.9188L16.3761 19.9345L16.3605 19.9502L16.3448 19.9659L16.3291 19.9815L16.3135 19.9972L16.2978 20.0128L16.2822 20.0285L16.251 20.0597L16.2353 20.0753L16.2041 20.1065L16.1886 20.1221L16.1574 20.1533L16.1418 20.1688L16.1263 20.1844L16.1108 20.1999L16.0952 20.2154L16.0797 20.231L16.0332 20.2775L16.0177 20.2929L16.0023 20.3084L15.9714 20.3393L15.9559 20.3547L15.8943 20.4163L15.879 20.4317L15.8636 20.447L15.8483 20.4624L15.833 20.4777L15.8176 20.493L15.8024 20.5083L15.7718 20.5389L15.7565 20.5541L15.7413 20.5694L15.6957 20.615L15.6805 20.6301L15.6654 20.6453L15.6502 20.6604L15.6351 20.6756L15.6049 20.7058L15.5898 20.7208L15.5748 20.7359L15.5597 20.7509L15.5447 20.766L15.5297 20.781L15.5147 20.7959L15.4998 20.8109L15.4401 20.8706L15.4252 20.8854L15.4104 20.9003L15.3955 20.9151L15.3807 20.9299L15.366 20.9447L15.3512 20.9595L15.3364 20.9742L15.2923 21.0183L15.2777 21.033L15.2631 21.0476L15.2484 21.0622L15.2339 21.0768L15.2193 21.0914L15.2047 21.1059L15.1757 21.1349L15.1613 21.1494L15.0893 21.2214L15.0749 21.2357L15.0606 21.25L15.0464 21.2643L15.0321 21.2785L15.0179 21.2928L15.0037 21.307L14.9895 21.3211L14.9754 21.3353L14.9472 21.3635L14.9331 21.3775L14.9191 21.3916L14.8772 21.4335L14.8632 21.4474L14.8493 21.4613L14.8355 21.4752L14.8217 21.489L14.8078 21.5028L14.7941 21.5166L14.7803 21.5303L14.5607 21.75H3V3.75H0V2.25H24V3.75ZM19.5 14.25V3.75H4.5V20.25H13.5V14.25H19.5ZM15 19.1893V15.75H18.4393L18.4271 15.7623L18.415 15.7743L18.3908 15.7985L18.3787 15.8107L18.3665 15.8229L18.3542 15.8351L18.342 15.8474L18.3296 15.8597L18.3049 15.8844L18.2925 15.8969L18.28 15.9093L18.2549 15.9344L18.2424 15.947L18.2297 15.9596L18.2171 15.9723L18.1661 16.0233L18.1532 16.0361L18.1404 16.049L18.1274 16.0619L18.0754 16.1139L18.0624 16.127L18.0492 16.1401L18.0361 16.1533L18.0097 16.1797L17.9964 16.1929L17.9831 16.2062L17.9698 16.2196L17.9564 16.2329L17.9296 16.2597L17.9162 16.2732L17.8892 16.3002L17.8756 16.3137L17.8484 16.3409L17.8348 16.3546L17.8211 16.3682L17.8074 16.3819L17.7937 16.3957L17.7799 16.4094L17.7661 16.4232L17.7523 16.4371L17.7384 16.4509L17.6547 16.5346L17.6407 16.5487L17.5842 16.6052L17.57 16.6193L17.5558 16.6335L17.5416 16.6478L17.5273 16.6621L17.513 16.6763L17.4987 16.6907L17.4843 16.705L17.47 16.7194L17.4412 16.7482L17.4267 16.7626L17.4123 16.7771L17.3833 16.8061L17.3687 16.8206L17.3542 16.8352L17.3396 16.8497L17.325 16.8643L17.3104 16.879L17.2957 16.8936L17.281 16.9083L17.2664 16.923L17.2516 16.9377L17.2221 16.9672L17.2074 16.982L17.1926 16.9968L17.1777 17.0116L17.148 17.0413L17.1332 17.0562L17.1183 17.0711L17.1033 17.086L17.0884 17.1009L17.0735 17.1159L17.0285 17.1609L17.0134 17.1759L16.9984 17.191L16.9833 17.206L16.938 17.2513L16.9229 17.2665L16.9077 17.2816L16.8926 17.2968L16.847 17.3424L16.8317 17.3576L16.8165 17.3729L16.8012 17.3881L16.74 17.4493L16.7247 17.4647L16.7093 17.48L16.694 17.4954L16.6786 17.5107L16.6324 17.5569L16.617 17.5724L16.6015 17.5878L16.5861 17.6033L16.5706 17.6187L16.5552 17.6342L16.5087 17.6807L16.4931 17.6962L16.4776 17.7117L16.4621 17.7273L16.4465 17.7428L16.431 17.7584L16.4154 17.7739L16.3998 17.7895L16.3843 17.8051L16.3375 17.8519L16.3218 17.8675L16.3062 17.8831L16.2906 17.8988L16.2749 17.9144L16.2593 17.9301L16.2436 17.9457L16.228 17.9614L16.2123 17.977L16.1652 18.0241L16.1496 18.0398L16.1182 18.0712L16.1024 18.0869L16.071 18.1183L16.0553 18.1341L16.0396 18.1498L16.0238 18.1655L16.0081 18.1812L15.9924 18.197L15.9766 18.2127L15.9609 18.2285L15.9451 18.2442L15.9294 18.26L15.9136 18.2757L15.8979 18.2915L15.8821 18.3072L15.8664 18.323L15.8506 18.3387L15.8348 18.3545L15.8191 18.3703L15.8033 18.386L15.7875 18.4018L15.7718 18.4176L15.756 18.4333L15.7403 18.4491L15.7245 18.4649L15.7087 18.4806L15.693 18.4964L15.6772 18.5121L15.6614 18.5279L15.6457 18.5437L15.6299 18.5594L15.6142 18.5752L15.5984 18.5909L15.5827 18.6067L15.5669 18.6224L15.5512 18.6382L15.5354 18.6539L15.5197 18.6696L15.504 18.6854L15.4882 18.7011L15.4725 18.7168L15.4568 18.7326L15.4411 18.7483L15.4253 18.764L15.3311 18.8582L15.3155 18.8739L15.2998 18.8895L15.2841 18.9052L15.2685 18.9209L15.2528 18.9365L15.2372 18.9522L15.2215 18.9678L15.1903 18.999L15.1747 19.0147L15.1435 19.0459L15.1279 19.0614L15.0967 19.0926L15.0812 19.1082L15.0656 19.1237L15.0501 19.1392L15.0346 19.1548L15.019 19.1703L15 19.1893ZM16.5 9.75H7.5V8.25H16.5V9.75ZM7.5 12.75H12V11.25H7.5V12.75Z" fill="currentColor"/>
</svg>
