<svg width="24" height="24" viewBox="0 0 24 24"  xmlns="http://www.w3.org/2000/svg">
<path fill-rule="evenodd" clip-rule="evenodd" d="M6 9.44971C6 6.96443 8.01472 4.94971 10.5 4.94971C12.9853 4.94971 15 6.96443 15 9.44971C15 11.935 12.9853 13.9497 10.5 13.9497C8.01472 13.9497 6 11.935 6 9.44971ZM10.5 6.44971C8.84315 6.44971 7.5 7.79285 7.5 9.44971C7.5 9.91399 7.60547 10.3536 7.79375 10.746L12.1438 6.93972C11.6717 6.62991 11.1069 6.44971 10.5 6.44971ZM13.1537 8.04919L8.7599 11.8938C9.25065 12.2438 9.85128 12.4497 10.5 12.4497C12.1569 12.4497 13.5 11.1066 13.5 9.44971C13.5 8.94386 13.3748 8.46726 13.1537 8.04919ZM24 3.75H21V15.3107L14.5607 21.75H3V3.75H0V2.25H24V3.75ZM4.5 3.75H19.5V14.25H13.5V20.25H4.5V3.75ZM15 19.1893L18.4393 15.75H15V19.1893Z" fill="currentColor"/>
</svg>
