<svg width="24" height="24" viewBox="0 0 24 24"  xmlns="http://www.w3.org/2000/svg">
<g clip-path="url(#clip0_865_2654)">
<path d="M12 0C5.4 0 0 5.4 0 12C0 18.6 5.4 24 12 24C18.6 24 24 18.6 24 12C24 5.4 18.6 0 12 0ZM12 3C13.95 3 15.75 3.6 17.25 4.65L4.65 17.25C3.6 15.75 3 13.95 3 12C3 7.05 7.05 3 12 3ZM12 21C10.05 21 8.25 20.4 6.75 19.35L19.35 6.75C20.4 8.25 21 10.05 21 12C21 16.95 16.95 21 12 21Z" fill="currentColor"/>
</g>
<defs>
<clipPath id="clip0_865_2654">
<rect width="24" height="24" fill="currentColor"/>
</clipPath>
</defs>
</svg>
