<svg width="24" height="24" viewBox="0 0 24 24"  xmlns="http://www.w3.org/2000/svg">
<g clip-path="url(#clip0_865_4557)">
<path fill-rule="evenodd" clip-rule="evenodd" d="M7.75 24H7.45C7.15 23.85 7 23.55 7 23.25V18H2.25C1.05 18 0 16.95 0 15.75V2.25C0 1.05 1.05 0 2.25 0H21.75C22.95 0 24 1.05 24 2.25V15.75C24 16.95 22.95 18 21.75 18H15.1L8.35 23.85C8.05 24 7.9 24 7.75 24ZM2.25 1.5C1.8 1.5 1.5 1.8 1.5 2.25V15.75C1.5 16.2 1.8 16.5 2.25 16.5H7.75C8.2 16.5 8.5 16.8 8.5 17.25V21.6L14.2 16.65C14.35 16.5 14.5 16.5 14.8 16.5H21.75C22.2 16.5 22.5 16.2 22.5 15.75V2.25C22.5 1.8 22.2 1.5 21.75 1.5H2.25Z" fill="currentColor"/>
<path d="M11 5C11 4.44772 11.4477 4 12 4C12.5523 4 13 4.44772 13 5V10C13 10.5523 12.5523 11 12 11C11.4477 11 11 10.5523 11 10V5Z" fill="currentColor"/>
<path d="M13 14C13 13.4477 12.5523 13 12 13C11.4477 13 11 13.4477 11 14C11 14.5523 11.4477 15 12 15C12.5523 15 13 14.5523 13 14Z" fill="currentColor"/>
</g>
<defs>
<clipPath id="clip0_865_4557">
<rect width="24" height="24" fill="currentColor"/>
</clipPath>
</defs>
</svg>
