<svg width="24" height="24" viewBox="0 0 24 24"  xmlns="http://www.w3.org/2000/svg">
<path d="M21.5 0H2.5C2.23478 0 1.98043 0.105357 1.79289 0.292893C1.60536 0.48043 1.5 0.734784 1.5 1V23C1.5 23.2652 1.60536 23.5196 1.79289 23.7071C1.98043 23.8946 2.23478 24 2.5 24H21.5C21.7652 24 22.0196 23.8946 22.2071 23.7071C22.3946 23.5196 22.5 23.2652 22.5 23V1C22.5 0.734784 22.3946 0.48043 22.2071 0.292893C22.0196 0.105357 21.7652 0 21.5 0ZM10.5 17L6.5 18L7.5 14L15.5 6L18.5 9L10.5 17Z" fill="currentColor"/>
</svg>
