<svg width="24" height="24" viewBox="0 0 24 24"  xmlns="http://www.w3.org/2000/svg">
<path fill-rule="evenodd" clip-rule="evenodd" d="M2.25 0C1.83579 0 1.5 0.335786 1.5 0.75V10H3V1.5H13.5V8.25C13.5 8.66421 13.8358 9 14.25 9H21V22.5H3V21H1.5V23.25C1.5 23.6642 1.83579 24 2.25 24H21.75C22.1642 24 22.5 23.6642 22.5 23.25V8.25C22.5 8.05109 22.421 7.86032 22.2803 7.71967L14.7803 0.21967C14.6397 0.0790176 14.4489 0 14.25 0H2.25ZM19.9393 7.5L15 2.56066V7.5H19.9393Z" fill="currentColor"/>
<path d="M2.94775 16.0166H4.4375V16.1309C4.4375 16.856 4.02002 17.5767 3.08838 17.5767C2.02051 17.5767 1.63379 16.6362 1.63379 15.3398C1.63379 13.9644 2.05566 13.0415 3.16309 13.0415C3.89697 13.0415 4.31885 13.4414 4.41113 14.1665L5.51855 13.9731C5.30762 12.6943 4.50781 12 3.18066 12C1.32617 12 0.5 13.3535 0.5 15.3618C0.5 17.269 1.25146 18.5918 2.8335 18.5918C3.69922 18.5918 4.27051 18.1831 4.5166 17.5547V18.4468H5.55371V15.0278H2.94775V16.0166ZM10.2471 12.145H6.58203V13.1997H7.85645V17.3921H6.58203V18.4468H10.2471V17.3921H8.97266V13.1997H10.2471V12.145ZM15.7139 12.145H11.3633V18.4468H12.4795V15.876H15.4502V14.8213H12.4795V13.1997H15.7139V12.145Z" fill="currentColor"/>
</svg>
