<svg width="24" height="24" viewBox="0 0 24 24"  xmlns="http://www.w3.org/2000/svg">
<path d="M21.7774 6.11641L16.5556 0.203327V6.11641H21.7774Z" fill="currentColor"/>
<path fill-rule="evenodd" clip-rule="evenodd" d="M2.16948 0C1.79505 0 1.49152 0.303536 1.49152 0.677967V23.322C1.49152 23.6965 1.79505 24 2.16948 24H21.8305C22.2049 24 22.5085 23.6965 22.5085 23.322V9.76271C22.5085 9.38828 22.2049 9.08475 21.8305 9.08475H14.2373C13.8628 9.08475 13.5593 8.78121 13.5593 8.40678V0.677966C13.5593 0.303536 13.2558 0 12.8813 0H2.16948ZM8.89384 8.62433L16.2821 13.7853C16.6515 14.0803 16.6515 14.6701 16.2821 14.965L8.89384 20.126C8.37667 20.4947 7.71172 20.126 7.71172 19.5362V9.21416C7.71172 8.62433 8.37667 8.25568 8.89384 8.62433Z" fill="currentColor"/>
</svg>
