<svg width="24" height="24" viewBox="0 0 24 24"  xmlns="http://www.w3.org/2000/svg">
<path d="M8.75 12C9.16415 12 9.5 12.3358 9.5 12.75V15H11.75C12.1642 15 12.5 15.3358 12.5 15.75C12.5 16.1642 12.1642 16.5 11.75 16.5H9.5V18.75C9.5 19.1642 9.16415 19.5 8.75 19.5C8.33585 19.5 8 19.1642 8 18.75V16.5H5.75C5.33579 16.5 5 16.1642 5 15.75C5 15.3358 5.33579 15 5.75 15H8V12.75C8 12.3358 8.33585 12 8.75 12Z" fill="currentColor"/>
<path fill-rule="evenodd" clip-rule="evenodd" d="M22.35 7.65L14.85 0.15C14.775 0.15 14.6625 0.1125 14.55 0.075C14.4375 0.0375 14.325 0 14.25 0H2.25C1.8 0 1.5 0.3 1.5 0.75V23.25C1.5 23.7 1.8 24 2.25 24H21.75C22.2 24 22.5 23.7 22.5 23.25V8.25C22.5 8.175 22.4625 8.0625 22.425 7.95C22.3875 7.8375 22.35 7.725 22.35 7.65ZM15 2.55L19.95 7.5H15V2.55ZM21 22.5H3V1.5H13.5V8.25C13.5 8.7 13.8 9 14.25 9H21V22.5Z" fill="currentColor"/>
</svg>
