<svg width="24" height="24" viewBox="0 0 24 24"  xmlns="http://www.w3.org/2000/svg">
<path fill-rule="evenodd" clip-rule="evenodd" d="M16.7297 10.239L9.9482 6.58745C9.65678 6.43053 9.33098 6.34839 9 6.34839C7.89543 6.34839 7 7.24382 7 8.34839V15.6515C7 15.9825 7.08214 16.3083 7.23906 16.5997C7.76273 17.5723 8.97566 17.9361 9.9482 17.4125L16.7297 13.7609C17.0743 13.5753 17.3569 13.2928 17.5424 12.9482C18.0661 11.9756 17.7022 10.7627 16.7297 10.239ZM9.00001 8.04834C9.04966 8.04834 9.09853 8.06066 9.14224 8.0842L15.9237 11.7358C16.0696 11.8143 16.1242 11.9963 16.0456 12.1421C16.0178 12.1938 15.9754 12.2362 15.9237 12.264L9.14224 15.9156C8.99636 15.9942 8.81442 15.9396 8.73587 15.7937C8.71233 15.75 8.70001 15.7011 8.70001 15.6515V8.34834C8.70001 8.18265 8.83433 8.04834 9.00001 8.04834ZM3 1H21C22.6569 1 24 2.34315 24 4V20C24 21.6569 22.6569 23 21 23H3C1.34315 23 0 21.6569 0 20V4C0 2.34315 1.34315 1 3 1ZM3.00001 2.69995C2.28204 2.69995 1.70001 3.28198 1.70001 3.99995V20C1.70001 20.7179 2.28204 21.3 3.00001 21.3H21C21.718 21.3 22.3 20.7179 22.3 20V3.99995C22.3 3.28198 21.718 2.69995 21 2.69995H3.00001Z" fill="currentColor"/>
</svg>
