<svg width="24" height="24" viewBox="0 0 24 24"  xmlns="http://www.w3.org/2000/svg">
<path fill-rule="evenodd" clip-rule="evenodd" d="M2.25 0C2.05109 0 1.86032 0.0790176 1.71967 0.21967C1.57902 0.360322 1.5 0.551088 1.5 0.75V10H3V1.5H13.5V8.25C13.5 8.44891 13.579 8.63968 13.7197 8.78033C13.8603 8.92098 14.0511 9 14.25 9H21V22.5H3V21H1.5V23.25C1.5 23.4489 1.57902 23.6397 1.71967 23.7803C1.86032 23.921 2.05109 24 2.25 24H21.75C21.9489 24 22.1397 23.921 22.2803 23.7803C22.421 23.6397 22.5 23.4489 22.5 23.25V8.25C22.4998 8.05116 22.4207 7.86052 22.28 7.72L14.78 0.22C14.6395 0.0793075 14.4488 0.000175052 14.25 0L2.25 0ZM19.939 7.5L15 2.561V7.5H19.939Z" fill="currentColor"/>
<path d="M11.386 12.198H10.081L8.89 14.33L7.708 12.199H6.389L8.191 15.262L6.275 18.5H7.598L8.89 16.202L10.182 18.5H11.5L9.584 15.261L11.386 12.198ZM12 13.253V12.198H17.379V13.253H15.248V18.5H14.132V13.253H12ZM2.752 13.253H0.621002V12.198H6V13.253H3.869V18.5H2.752V13.253Z" fill="currentColor"/>
</svg>
