<svg width="24" height="24" viewBox="0 0 24 24"  xmlns="http://www.w3.org/2000/svg">
<path fill-rule="evenodd" clip-rule="evenodd" d="M2.25 0C1.83579 0 1.5 0.335786 1.5 0.75V10H3V1.5H13.5V8.25C13.5 8.66421 13.8358 9 14.25 9H21V22.5H3V21H1.5V23.25C1.5 23.6642 1.83579 24 2.25 24H21.75C22.1642 24 22.5 23.6642 22.5 23.25V8.25C22.5 8.05109 22.421 7.86032 22.2803 7.71967L14.7803 0.21967C14.6397 0.0790176 14.4489 0 14.25 0H2.25ZM19.9393 7.5L15 2.56066V7.5H19.9393ZM0.826172 12.1982V18.5H1.94238V16.3291H3.41895C4.7417 16.3291 5.49756 15.3931 5.49756 14.189C5.49756 13.0244 4.78125 12.1982 3.54199 12.1982H0.826172ZM1.94238 13.2529H3.35742C3.99463 13.2529 4.36377 13.6265 4.36377 14.2329C4.36377 14.8745 3.95068 15.2832 3.28711 15.2832H1.94238V13.2529ZM6.71484 12.1982V18.5H8.92529C10.6699 18.5 11.5444 17.2168 11.5444 15.3359C11.5444 13.4375 10.6523 12.1982 8.93408 12.1982H6.71484ZM7.83105 13.2529H8.79785C9.90088 13.2529 10.4106 13.9912 10.4106 15.3491C10.4106 16.7202 9.89648 17.4453 8.79785 17.4453H7.83105V13.2529Z" fill="currentColor"/>
<path d="M12.8936 12.1982H17.2441V13.2529H14.0098V14.8745H16.9805V15.9292H14.0098V18.5H12.8936V12.1982Z" fill="currentColor"/>
</svg>
