<svg width="24" height="24" viewBox="0 0 24 24"  xmlns="http://www.w3.org/2000/svg">
<path fill-rule="evenodd" clip-rule="evenodd" d="M11.8106 16.7353C11.9257 16.4759 11.9817 16.1942 11.9745 15.9105C11.9858 15.4533 11.8216 15.0091 11.5155 14.6693C11.044 14.2286 10.4804 13.8984 9.8655 13.7025L9.3885 13.5203V11.2358C10.0608 11.2918 10.7209 11.4483 11.3468 11.7L11.8057 10.5503C11.0376 10.2352 10.2191 10.0609 9.38925 10.0358V9H8.55525V10.0575C7.89169 10.0955 7.25454 10.3305 6.72525 10.7325C6.51013 10.9016 6.3372 11.1183 6.22007 11.3656C6.10294 11.6128 6.0448 11.8839 6.05025 12.1575C6.03533 12.6535 6.20474 13.1374 6.52575 13.5157C6.94332 13.9474 7.4593 14.2714 8.0295 14.46L8.5545 14.655V17.0025C8.11784 16.9904 7.684 16.9282 7.2615 16.8172C6.82677 16.714 6.40399 16.5657 6 16.3748V17.7C6.81059 18.0296 7.67961 18.1913 8.5545 18.1755V19.5H9.3885V18.1388C10.0888 18.101 10.76 17.8465 11.3092 17.4105C11.5243 17.2254 11.6956 16.9948 11.8106 16.7353ZM7.74975 12.7403C7.59946 12.579 7.51864 12.3651 7.52475 12.1447C7.52346 12.0351 7.54662 11.9264 7.59254 11.8268C7.63846 11.7272 7.706 11.639 7.79025 11.5688C8.01103 11.395 8.27707 11.2882 8.55675 11.2613V13.2113C8.25796 13.112 7.98313 12.9516 7.74975 12.7403ZM10.4317 15.6765C10.4756 15.78 10.4966 15.8918 10.4932 16.0042C10.4932 16.5233 10.125 16.8385 9.3885 16.95V14.949C9.69792 15.0464 9.98639 15.2008 10.239 15.4042C10.3221 15.48 10.3878 15.5729 10.4317 15.6765ZM14.85 0.15L22.35 7.65C22.35 7.725 22.3875 7.8375 22.425 7.95C22.4625 8.0625 22.5 8.175 22.5 8.25V23.25C22.5 23.7 22.2 24 21.75 24H2.25C1.8 24 1.5 23.7 1.5 23.25V0.75C1.5 0.3 1.8 0 2.25 0H14.25C14.325 0 14.4375 0.0375 14.55 0.075C14.6625 0.1125 14.775 0.15 14.85 0.15ZM19.95 7.5L15 2.55V7.5H19.95ZM3 22.5H21V9H14.25C13.8 9 13.5 8.7 13.5 8.25V1.5H3V22.5Z" fill="currentColor"/>
</svg>
