<svg width="24" height="24" viewBox="0 0 24 24"  xmlns="http://www.w3.org/2000/svg">
<path d="M7.84362 13.9301C7.81216 13.8629 7.79704 13.7904 7.79929 13.7175C7.79929 13.4124 8.0562 13.2257 8.57002 13.1576V14.4217C8.35658 14.3457 8.15797 14.2395 7.98168 14.1072C7.92216 14.0577 7.87508 13.9974 7.84362 13.9301ZM10.1486 16.771C10.1839 16.8372 10.202 16.9096 10.2016 16.983C10.2016 17.3235 9.93058 17.5352 9.38858 17.618V16.2778C9.60688 16.3606 9.81186 16.4694 9.99805 16.6013C10.0619 16.6469 10.1134 16.7049 10.1486 16.771Z" fill="currentColor"/>
<path fill-rule="evenodd" clip-rule="evenodd" d="M22.5 9H13.5V0H3C2.1 0 1.5 0.6 1.5 1.5V22.5C1.5 23.4 2.1 24 3 24H21C21.9 24 22.5 23.4 22.5 22.5V9ZM11.8334 17.6614C11.9524 17.4229 12.009 17.1631 11.9988 16.9018C12.0053 16.6127 11.9254 16.3273 11.7675 16.0755C11.5852 15.8117 11.3383 15.589 11.0457 15.4244C10.5198 15.1423 9.96439 14.9074 9.38747 14.7232V13.1356C10.0448 13.1868 10.6895 13.3283 11.2993 13.5553L11.8609 12.2962C11.0784 11.9923 10.2392 11.8244 9.38747 11.8013V11H8.56891V11.8234C7.88531 11.8535 7.22714 12.0662 6.67822 12.4344C6.46256 12.5863 6.28909 12.7813 6.17154 13.004C6.05399 13.2267 5.99557 13.471 6.00091 13.7175C5.98572 14.1654 6.16209 14.6014 6.4936 14.9356C6.97007 15.3476 7.54214 15.6593 8.16853 15.8481L8.56891 15.9873V17.6551C8.12704 17.6245 7.68965 17.5544 7.26322 17.4457C6.83266 17.3457 6.41369 17.2089 6.01203 17.0371V18.4574C6.8224 18.7623 7.69179 18.9196 8.57002 18.9202V20H9.38858V18.8982C10.0852 18.8726 10.7566 18.6559 11.3126 18.2771C11.5363 18.1105 11.7144 17.8998 11.8334 17.6614Z" fill="currentColor"/>
<path d="M16.5 0V6H22.5L16.5 0Z" fill="currentColor"/>
</svg>
