<svg width="24" height="24" viewBox="0 0 24 24"  xmlns="http://www.w3.org/2000/svg">
<path fill-rule="evenodd" clip-rule="evenodd" d="M22.5 9H13.5V0H3C2.1 0 1.5 0.6 1.5 1.5V22.5C1.5 23.4 2.1 24 3 24H21C21.9 24 22.5 23.4 22.5 22.5V9ZM16.5 0V6H22.5L16.5 0ZM17.5508 13C18.8828 13 19.75 13.6524 19.957 14.7532L18.4727 14.9933C18.4062 14.565 18.1055 14.2929 17.5156 14.2929C17.043 14.2929 16.7305 14.469 16.7305 14.7812C16.7305 15.1815 17.25 15.2655 17.875 15.3656L17.8887 15.3677C18.8279 15.5155 20.0039 15.7004 20.0039 17.0587C20.0039 18.2435 19.1055 19 17.75 19C16.4336 19 15.3828 18.2835 15.2031 17.1628L16.6758 16.9106C16.7695 17.3989 17.1172 17.7031 17.7461 17.7031C18.2383 17.7031 18.5156 17.519 18.5156 17.2268C18.5156 16.8252 17.9913 16.7357 17.3639 16.6285L17.3516 16.6264C16.4102 16.4663 15.2344 16.2502 15.2344 14.9053C15.2344 13.7165 16.1562 13 17.5508 13ZM9.56641 13.1281H7.77344L6.83984 14.7772L5.90625 13.1281H4.11328L5.86719 15.9179L4 18.8679H5.80859L6.83984 17.0667L7.875 18.8679H9.67578L7.8125 15.9179L9.56641 13.1281ZM10.5391 18.8679H14.6562V17.451H12.0234V13.1281H10.5391V18.8679Z" fill="currentColor"/>
</svg>
