<svg width="24" height="24" viewBox="0 0 24 24"  xmlns="http://www.w3.org/2000/svg">
<path fill-rule="evenodd" clip-rule="evenodd" d="M13.5 9H22.5V22.5C22.5 23.4 21.9 24 21 24H3C2.1 24 1.5 23.4 1.5 22.5V1.5C1.5 0.6 2.1 0 3 0H13.5V9ZM21 14.4813V13.0002H15.5004V14.4813H17.4795V19.0002H19.0736V14.4813H21ZM3.5 14.4813H5.47908V19.0002H7.07322V14.4813H9.0523V13.0002H3.5V14.4813ZM15.046 13.1281H13.253L12.3194 14.7772L11.3858 13.1281H9.59284L11.3467 15.9179L9.47956 18.8679H11.2882L12.3194 17.0667L13.3546 18.8679H15.1553L13.2921 15.9179L15.046 13.1281Z" fill="currentColor"/>
<path d="M16.5 6V0L22.5 6H16.5Z" fill="currentColor"/>
</svg>
