<svg width="24" height="24" viewBox="0 0 24 24"  xmlns="http://www.w3.org/2000/svg">
<path fill-rule="evenodd" clip-rule="evenodd" d="M22.5 9H13.5V0H3C2.1 0 1.5 0.6 1.5 1.5V22.5C1.5 23.4 2.1 24 3 24H21C21.9 24 22.5 23.4 22.5 22.5V9ZM16.5 0V6H22.5L16.5 0ZM7.82029 15.592V16.904H9.16754C9.08638 17.488 8.50203 17.66 7.97043 17.66C6.99246 17.66 6.55826 17.08 6.55826 16.04C6.55826 14.932 7.05333 14.376 7.95014 14.376C8.55478 14.376 8.93623 14.628 9.06203 15.072L10.6 14.804C10.32 13.688 9.36232 13 7.97855 13C6.18087 13 5 14.16 5 16.084C5 17.852 6.00232 19 7.55652 19C8.44116 19 8.97681 18.628 9.2487 18.112V18.868H10.6609V15.592H7.82029ZM11.8823 13.132V18.868H13.4243V13.132H11.8823ZM14.7229 13.132H19V14.548H16.2649V15.456H18.7849V16.872H16.2649V18.868H14.7229V13.132Z" fill="currentColor"/>
</svg>
