<svg width="24" height="24" viewBox="0 0 24 24"  xmlns="http://www.w3.org/2000/svg">
<path fill-rule="evenodd" clip-rule="evenodd" d="M2.25 0C1.83579 0 1.5 0.335786 1.5 0.75V10H3V1.5H13.5V8.25C13.5 8.66421 13.8358 9 14.25 9H21V22.5H3V21H1.5V23.25C1.5 23.6642 1.83579 24 2.25 24H21.75C22.1642 24 22.5 23.6642 22.5 23.25V8.25C22.5 8.05109 22.421 7.86032 22.2803 7.71967L14.7803 0.21967C14.6397 0.0790176 14.4489 0 14.25 0H2.25ZM19.9393 7.5L15 2.56066V7.5H19.9393Z" fill="currentColor"/>
<path d="M0.522949 13.2529H3.81885L0.474609 17.4585V18.5H5.2251V17.4453H1.89844L5.22949 13.2178V12.1982H0.522949V13.2529ZM9.66797 12.1982H6.00293V13.2529H7.27734V17.4453H6.00293V18.5H9.66797V17.4453H8.39355V13.2529H9.66797V12.1982Z" fill="currentColor"/>
<path fill-rule="evenodd" clip-rule="evenodd" d="M10.7842 18.5V12.1982H13.5C14.7393 12.1982 15.4556 13.0244 15.4556 14.189C15.4556 15.3931 14.6997 16.3291 13.377 16.3291H11.9004V18.5H10.7842ZM13.3154 13.2529H11.9004V15.2832H13.2451C13.9087 15.2832 14.3218 14.8745 14.3218 14.2329C14.3218 13.6265 13.9526 13.2529 13.3154 13.2529Z" fill="currentColor"/>
</svg>
