<svg width="24" height="24" viewBox="0 0 24 24"  xmlns="http://www.w3.org/2000/svg">
<path fill-rule="evenodd" clip-rule="evenodd" d="M22.5 9H13.5V0H3C2.1 0 1.5 0.6 1.5 1.5V22.5C1.5 23.4 2.1 24 3 24H21C21.9 24 22.5 23.4 22.5 22.5V9ZM16.5 0V6H22.5L16.5 0ZM8.92221 15.024C8.73107 13.78 7.75585 13 6.35154 13C4.61175 13 3.5 14.196 3.5 16.056C3.5 17.888 4.57274 19 6.29693 19C7.81436 19 8.78178 18.136 8.95342 16.836L7.48279 16.584C7.42818 17.268 7.02249 17.624 6.32813 17.624C5.46994 17.624 4.99793 17.08 4.99793 16.008C4.99793 14.936 5.48164 14.376 6.36324 14.376C7.01469 14.376 7.40087 14.696 7.44768 15.292L8.92221 15.024ZM14.3249 14.756C14.1182 13.656 13.2522 13.004 11.922 13.004C10.5294 13.004 9.60876 13.72 9.60876 14.908C9.60876 16.252 10.7829 16.468 11.723 16.628L11.7354 16.6301C12.3619 16.7372 12.8855 16.8266 12.8855 17.228C12.8855 17.52 12.6085 17.704 12.117 17.704C11.489 17.704 11.1418 17.4 11.0482 16.912L9.57756 17.164C9.757 18.284 10.8063 19 12.1209 19C13.4745 19 14.3717 18.244 14.3717 17.06C14.3717 15.7026 13.1973 15.5178 12.2594 15.3702L12.2458 15.368C11.6216 15.268 11.1028 15.184 11.1028 14.784C11.1028 14.472 11.4149 14.296 11.8869 14.296C12.4759 14.296 12.7763 14.568 12.8426 14.996L14.3249 14.756ZM17.6368 17.104L18.9162 13.132H20.5L18.5379 18.868H16.7318L14.7657 13.132H16.3495L17.6368 17.104Z" fill="currentColor"/>
</svg>
