<svg width="24" height="24" viewBox="0 0 24 24"  xmlns="http://www.w3.org/2000/svg">
<path fill-rule="evenodd" clip-rule="evenodd" d="M22.5 9H13.5V0H3C2.1 0 1.5 0.6 1.5 1.5V22.5C1.5 23.4 2.1 24 3 24H21C21.9 24 22.5 23.4 22.5 22.5V9ZM16.5 0V6H22.5L16.5 0ZM17.7574 16.904V15.592H20.5V18.868H19.1366V18.112C18.8741 18.628 18.3569 19 17.5028 19C16.0022 19 15.0345 17.852 15.0345 16.084C15.0345 14.16 16.1746 13 17.9102 13C19.2463 13 20.1709 13.688 20.4412 14.804L18.9563 15.072C18.8349 14.628 18.4666 14.376 17.8828 14.376C17.0169 14.376 16.5389 14.932 16.5389 16.04C16.5389 17.08 16.9582 17.66 17.9024 17.66C18.4156 17.66 18.9798 17.488 19.0582 16.904H17.7574ZM3.5 13.132V18.868H4.9849V17.224H6.26216C7.59426 17.224 8.27207 16.168 8.27207 15.116C8.27207 14.108 7.65303 13.132 6.36011 13.132H3.5ZM4.9849 14.548H6.11719C6.56384 14.548 6.77149 14.816 6.77149 15.172C6.77149 15.576 6.50899 15.832 6.06234 15.832H4.9849V14.548ZM12.6014 13.132V16.4L10.8579 13.132H9.13402V18.868H10.6228V15.648L12.3702 18.868H14.0902V13.132H12.6014Z" fill="currentColor"/>
</svg>
