<svg width="24" height="24" viewBox="0 0 24 24"  xmlns="http://www.w3.org/2000/svg">
<path d="M22.35 7.65L14.85 0.15C14.7 0.15 14.4 0 14.25 0H2.25C1.8 0 1.5 0.3 1.5 0.75V23.25C1.5 23.7 1.8 24 2.25 24H21.75C22.2 24 22.5 23.7 22.5 23.25V8.25C22.5 8.1 22.35 7.8 22.35 7.65ZM15 2.55L19.95 7.5H15V2.55ZM21 22.5H3V1.5H13.5V8.25C13.5 8.7 13.8 9 14.25 9H21V22.5Z" fill="currentColor"/>
<path fill-rule="evenodd" clip-rule="evenodd" d="M9.04634 18.4982L14.8865 14.5L9.08254 10.5266C9.0471 10.5051 9.02231 10.501 9.00687 10.5002C9.00456 10.5001 9.00226 10.5 9 10.5V18.4852C9.01372 18.4906 9.02738 18.4946 9.03993 18.4971C9.04219 18.4975 9.04432 18.4979 9.04634 18.4982ZM9.91006 9.27525L15.9351 13.4001C16.6883 13.9501 16.6883 15.05 15.9351 15.6L9.91006 19.7248C9.00629 20.4122 7.5 19.7247 7.5 18.6248V10.3752C7.5 9.27525 8.85566 8.58778 9.91006 9.27525Z" fill="currentColor"/>
</svg>
