<svg width="24" height="24" viewBox="0 0 24 24"  xmlns="http://www.w3.org/2000/svg">
<path fill-rule="evenodd" clip-rule="evenodd" d="M12.3961 4.58875C12.64 4.45823 12.9359 4.47254 13.166 4.62596L17.666 7.62596C18.0107 7.85573 18.1038 8.32138 17.874 8.66603C17.6443 9.01067 17.1786 9.1038 16.834 8.87404L13.5 6.65139V16.5C13.5 18.1569 12.1569 19.5 10.5 19.5C8.84315 19.5 7.5 18.1569 7.5 16.5C7.5 14.8431 8.84315 13.5 10.5 13.5C11.0464 13.5 11.5587 13.6461 12 13.9013V5.25C12 4.9734 12.1522 4.71926 12.3961 4.58875ZM10.5 15C11.3284 15 12 15.6716 12 16.5C12 17.3284 11.3284 18 10.5 18C9.67157 18 9 17.3284 9 16.5C9 15.6716 9.67157 15 10.5 15ZM2.25 2.25C2.25 1.42157 2.92157 0.75 3.75 0.75H20.25C21.0784 0.75 21.75 1.42157 21.75 2.25V21.75C21.75 22.5784 21.0784 23.25 20.25 23.25H3.75C2.92157 23.25 2.25 22.5784 2.25 21.75V2.25ZM3.75 2.25H20.25V21.75H3.75V2.25Z" fill="currentColor"/>
</svg>
