<svg width="24" height="24" viewBox="0 0 24 24"  xmlns="http://www.w3.org/2000/svg">
<path fill-rule="evenodd" clip-rule="evenodd" d="M2.25 0C1.83579 0 1.5 0.335786 1.5 0.75V10H3V1.5H13.5V8.25C13.5 8.66421 13.8358 9 14.25 9H21V22.5H3V21H1.5V23.25C1.5 23.6642 1.83579 24 2.25 24H21.75C22.1642 24 22.5 23.6642 22.5 23.25V8.25C22.5 8.05109 22.421 7.86032 22.2803 7.71967L14.7803 0.21967C14.6397 0.0790176 14.4489 0 14.25 0H2.25ZM19.9393 7.5L15 2.56066V7.5H19.9393ZM9.30762 12.0532C7.50146 12.0532 6.65332 13.332 6.65332 15.3491C6.65332 17.3662 7.50146 18.645 9.30762 18.645C11.1094 18.645 11.9575 17.3662 11.9575 15.3491C11.9575 13.332 11.1094 12.0532 9.30762 12.0532ZM9.30762 13.0947C10.3623 13.0947 10.8237 13.9736 10.8237 15.3491C10.8237 16.7246 10.3623 17.6035 9.30762 17.6035C8.24854 17.6035 7.78711 16.7246 7.78711 15.3491C7.78711 13.9736 8.24854 13.0947 9.30762 13.0947ZM0.826172 12.1982V18.5H3.03662C4.78125 18.5 5.65576 17.2168 5.65576 15.3359C5.65576 13.4375 4.76367 12.1982 3.04541 12.1982H0.826172ZM1.94238 13.2529H2.90918C4.01221 13.2529 4.52197 13.9912 4.52197 15.3491C4.52197 16.7202 4.00781 17.4453 2.90918 17.4453H1.94238V13.2529Z" fill="currentColor"/>
<path d="M15.6753 12.0532C17.0332 12.0532 17.8813 12.7695 18.0879 14.0791L16.9849 14.2856C16.8926 13.521 16.4531 13.0947 15.6621 13.0947C14.5195 13.0947 14.0449 13.9912 14.0449 15.3403C14.0449 16.6455 14.4888 17.6035 15.6401 17.6035C16.4619 17.6035 16.9102 17.1201 17.0244 16.2808L18.123 16.4785C17.9297 17.8276 17.0464 18.645 15.605 18.645C13.7988 18.645 12.9111 17.3662 12.9111 15.3887C12.9111 13.3892 13.812 12.0532 15.6753 12.0532Z" fill="currentColor"/>
</svg>
