<svg width="24" height="24" viewBox="0 0 24 24"  xmlns="http://www.w3.org/2000/svg">
<path fill-rule="evenodd" clip-rule="evenodd" d="M22.5 9H13.5V0H3C2.1 0 1.5 0.6 1.5 1.5V22.5C1.5 23.4 2.1 24 3 24H21C21.9 24 22.5 23.4 22.5 22.5V9ZM16.5 0V6H22.5L16.5 0ZM17.6138 16.904V15.592H20.5V18.868H19.0651V18.112C18.7889 18.628 18.2446 19 17.3457 19C15.7666 19 14.7481 17.852 14.7481 16.084C14.7481 14.16 15.948 13 17.7746 13C19.1806 13 20.1537 13.688 20.4382 14.804L18.8755 15.072C18.7476 14.628 18.3601 14.376 17.7457 14.376C16.8345 14.376 16.3314 14.932 16.3314 16.04C16.3314 17.08 16.7726 17.66 17.7663 17.66C18.3065 17.66 18.9002 17.488 18.9827 16.904H17.6138ZM6.30378 13.132V16.824C6.30378 17.204 6.30378 17.664 5.72241 17.664C5.28123 17.664 5.07094 17.4 5.05857 16.676L3.5 16.884C3.56597 18.388 4.46071 19 5.74303 19C7.19852 19 7.8706 18.208 7.8706 17.044V13.132H6.30378ZM9.1488 13.132V18.868H10.7115V17.224H12.0557C13.4576 17.224 14.1709 16.168 14.1709 15.116C14.1709 14.108 13.5194 13.132 12.1587 13.132H9.1488ZM10.7115 14.548H11.9031C12.3732 14.548 12.5917 14.816 12.5917 15.172C12.5917 15.576 12.3154 15.832 11.8454 15.832H10.7115V14.548Z" fill="currentColor"/>
</svg>
