<svg width="24" height="24" viewBox="0 0 24 24"  xmlns="http://www.w3.org/2000/svg">
<path fill-rule="evenodd" clip-rule="evenodd" d="M22.5 9H13.5V0H3C2.1 0 1.5 0.6 1.5 1.5V22.5C1.5 23.4 2.1 24 3 24H21C21.9 24 22.5 23.4 22.5 22.5V9ZM16.5 0V6H22.5L16.5 0ZM3.5 13V19H5.08577V17.2803H6.44979C7.87239 17.2803 8.59623 16.1757 8.59623 15.0753C8.59623 14.0209 7.93515 13 6.55439 13H3.5ZM5.08577 14.4812H6.29498C6.77197 14.4812 6.99372 14.7615 6.99372 15.1339C6.99372 15.5565 6.71339 15.8243 6.2364 15.8243H5.08577V14.4812ZM9.51674 13V19H11.1025V17.2803H12.4665C13.8891 17.2803 14.613 16.1757 14.613 15.0753C14.613 14.0209 13.9519 13 12.5711 13H9.51674ZM11.1025 14.4812H12.3117C12.7887 14.4812 13.0105 14.7615 13.0105 15.1339C13.0105 15.5565 12.7301 15.8243 12.2531 15.8243H11.1025V14.4812ZM16.9268 14.4812H14.9477V13H20.5V14.4812H18.5209V19H16.9268V14.4812Z" fill="currentColor"/>
</svg>
