<svg width="24" height="24" viewBox="0 0 24 24"  xmlns="http://www.w3.org/2000/svg">
<path fill-rule="evenodd" clip-rule="evenodd" d="M22.5 9H13.5V0H3C2.1 0 1.5 0.6 1.5 1.5V22.5C1.5 23.4 2.1 24 3 24H21C21.9 24 22.5 23.4 22.5 22.5V9ZM16.5 0V6H22.5L16.5 0ZM4 13V19H5.49213V17.2803H6.77559C8.11417 17.2803 8.79528 16.1757 8.79528 15.0753C8.79528 14.0209 8.17323 13 6.87402 13H4ZM5.49213 14.4812H6.62992C7.07874 14.4812 7.2874 14.7615 7.2874 15.1339C7.2874 15.5565 7.02362 15.8243 6.5748 15.8243H5.49213V14.4812ZM9.66142 13V19H12.2205C13.8189 19 14.8661 17.8201 14.8661 15.9874C14.8661 14.1841 13.8465 13 12.248 13H9.66142ZM11.1575 14.4812H12.0984C12.9291 14.4812 13.3543 14.9749 13.3543 16.0042C13.3543 17.0293 12.9331 17.5188 12.0984 17.5188H11.1575V14.4812ZM15.8504 13H20V14.4812H17.3465V15.431H19.7913V16.9121H17.3465V19H15.8504V13Z" fill="currentColor"/>
</svg>
