<svg width="24" height="24" viewBox="0 0 24 24"  xmlns="http://www.w3.org/2000/svg">
<path fill-rule="evenodd" clip-rule="evenodd" d="M1.5 0.75C1.5 0.335786 1.83579 0 2.25 0H14.25C14.4489 0 14.6397 0.0790176 14.7803 0.21967L22.2803 7.71967C22.421 7.86032 22.5 8.05109 22.5 8.25V23.25C22.5 23.6642 22.1642 24 21.75 24H2.25C1.83579 24 1.5 23.6642 1.5 23.25V21H3V22.5H21V9H14.25C13.8358 9 13.5 8.66421 13.5 8.25V1.5H3V10H1.5V0.75ZM15 2.56066L19.9393 7.5H15V2.56066Z" fill="currentColor"/>
<path d="M4.28128 12.25H5.4V16.6498C5.4 17.948 4.5984 18.75 3.24184 18.75C1.95135 18.75 1.04404 18.0189 1 16.4814L2.11872 16.3263C2.13193 17.2878 2.52833 17.7132 3.23744 17.7132C3.99059 17.7132 4.28128 17.2302 4.28128 16.5346V12.25Z" fill="currentColor"/>
<path fill-rule="evenodd" clip-rule="evenodd" d="M6.8999 12.25V18.75H8.02295V16.5108H9.50856C10.8394 16.5108 11.5999 15.5453 11.5999 14.3033C11.5999 13.1022 10.8792 12.25 9.63236 12.25H6.8999ZM8.02295 13.3379H9.44666C10.0878 13.3379 10.4592 13.7232 10.4592 14.3487C10.4592 15.0105 10.0436 15.432 9.37591 15.432H8.02295V13.3379Z" fill="currentColor"/>
<path d="M16.9957 16.2107H15.5218V15.2357H18.1001V18.607H17.074V17.7273C16.8305 18.347 16.2653 18.75 15.4088 18.75C13.8436 18.75 13.1001 17.4457 13.1001 15.565C13.1001 13.5847 13.9175 12.25 15.7523 12.25C17.0653 12.25 17.8566 12.9347 18.0653 14.1957L16.9697 14.3863C16.8784 13.6713 16.461 13.277 15.7349 13.277C14.6392 13.277 14.2218 14.187 14.2218 15.5433C14.2218 16.8217 14.6044 17.749 15.661 17.749C16.5827 17.749 16.9957 17.0383 16.9957 16.3233V16.2107Z" fill="currentColor"/>
</svg>
