<svg width="24" height="24" viewBox="0 0 24 24"  xmlns="http://www.w3.org/2000/svg">
<g clip-path="url(#clip0_865_3183)">
<path d="M0 0.75C0 0.335787 0.335787 0 0.75 0H20.25C20.6642 0 21 0.335787 21 0.75V8.25C21 8.66421 20.6642 9 20.25 9C19.8358 9 19.5 8.66421 19.5 8.25V1.5H1.5V22.5H9.75C10.1642 22.5 10.5 22.8358 10.5 23.25C10.5 23.6642 10.1642 24 9.75 24H0.75C0.335787 24 0 23.6642 0 23.25V0.75ZM4.5 5.25C4.5 4.83579 4.83579 4.5 5.25 4.5H15.75C16.1642 4.5 16.5 4.83579 16.5 5.25C16.5 5.66421 16.1642 6 15.75 6H5.25C4.83579 6 4.5 5.66421 4.5 5.25ZM5.25 9C4.83579 9 4.5 9.33579 4.5 9.75C4.5 10.1642 4.83579 10.5 5.25 10.5H11.25C11.6642 10.5 12 10.1642 12 9.75C12 9.33579 11.6642 9 11.25 9H5.25ZM4.5 14.25C4.5 13.8358 4.83579 13.5 5.25 13.5H8.25C8.66421 13.5 9 13.8358 9 14.25C9 14.6642 8.66421 15 8.25 15H5.25C4.83579 15 4.5 14.6642 4.5 14.25ZM5.25 18C4.83579 18 4.5 18.3358 4.5 18.75C4.5 19.1642 4.83579 19.5 5.25 19.5H8.25C8.66421 19.5 9 19.1642 9 18.75C9 18.3358 8.66421 18 8.25 18H5.25Z" fill="currentColor"/>
<path fill-rule="evenodd" clip-rule="evenodd" d="M10.9501 16.875C10.9501 13.7684 13.4685 11.25 16.575 11.25C19.6817 11.25 22.2 13.7684 22.2 16.875C22.2 18.2729 21.6901 19.5516 20.8462 20.5354L23.0304 22.7196C23.3232 23.0126 23.3232 23.4874 23.0304 23.7804C22.7374 24.0732 22.2626 24.0732 21.9696 23.7804L19.7251 21.5359C18.8264 22.1445 17.7422 22.5 16.575 22.5C13.4685 22.5 10.9501 19.9816 10.9501 16.875ZM16.575 12.75C14.2969 12.75 12.4501 14.5968 12.4501 16.875C12.4501 19.1532 14.2969 21 16.575 21C18.8532 21 20.7 19.1532 20.7 16.875C20.7 14.5968 18.8532 12.75 16.575 12.75Z" fill="currentColor"/>
</g>
<defs>
<clipPath id="clip0_865_3183">
<rect width="24" height="24" fill="currentColor"/>
</clipPath>
</defs>
</svg>
