<svg width="24" height="24" viewBox="0 0 24 24"  xmlns="http://www.w3.org/2000/svg">
<path fill-rule="evenodd" clip-rule="evenodd" d="M1.5 0.75C1.5 0.335786 1.83579 0 2.25 0H14.25C14.4489 0 14.6397 0.0790176 14.7803 0.21967L22.2803 7.71967C22.421 7.86032 22.5 8.05109 22.5 8.25V23.25C22.5 23.6642 22.1642 24 21.75 24H2.25C1.83579 24 1.5 23.6642 1.5 23.25V21H3V22.5H21V9H14.25C13.8358 9 13.5 8.66421 13.5 8.25V1.5H3V10H1.5V0.75ZM15 2.56066L19.9393 7.5H15V2.56066ZM0 18.75V12.25H2.73246C3.9793 12.25 4.7 13.1022 4.7 14.3033C4.7 15.5453 3.93951 16.5108 2.60865 16.5108H1.12305V18.75H0ZM2.54675 13.3379H1.12305V15.432H2.47601C3.14365 15.432 3.55927 15.0105 3.55927 14.3487C3.55927 13.7232 3.18786 13.3379 2.54675 13.3379Z" fill="currentColor"/>
<path d="M9.67772 12.25V16.7782L7.5352 12.25H6.2V18.75H7.32671V14.2354L9.46924 18.75H10.8V12.25H9.67772ZM14.7217 16.2107H16.1957V16.3233C16.1957 17.0383 15.7826 17.749 14.8609 17.749C13.8043 17.749 13.4217 16.8217 13.4217 15.5433C13.4217 14.187 13.8391 13.277 14.9348 13.277C15.6609 13.277 16.0783 13.6713 16.1696 14.3863L17.2652 14.1957C17.0565 12.9347 16.2652 12.25 14.9522 12.25C13.1174 12.25 12.3 13.5847 12.3 15.565C12.3 17.4457 13.0435 18.75 14.6087 18.75C15.4652 18.75 16.0304 18.347 16.2739 17.7273V18.607H17.3V15.2357H14.7217V16.2107Z" fill="currentColor"/>
</svg>
