<svg width="24" height="24" viewBox="0 0 24 24"  xmlns="http://www.w3.org/2000/svg">
<path d="M9.75 9H6.75C6.3 9 6 8.7 6 8.25C6 7.8 6.3 7.5 6.75 7.5H9.75C10.2 7.5 10.5 7.8 10.5 8.25C10.5 8.7 10.2 9 9.75 9ZM6.75 12H17.25C17.7 12 18 12.3 18 12.75C18 13.2 17.7 13.5 17.25 13.5H6.75C6.3 13.5 6 13.2 6 12.75C6 12.3 6.3 12 6.75 12ZM17.25 16.5H6.75C6.3 16.5 6 16.8 6 17.25C6 17.7 6.3 18 6.75 18H17.25C17.7 18 18 17.7 18 17.25C18 16.8 17.7 16.5 17.25 16.5Z" fill="currentColor"/>
<path fill-rule="evenodd" clip-rule="evenodd" d="M22.425 7.8C22.4625 7.8375 22.5 7.875 22.5 7.95V23.25C22.5 23.7 22.2 24 21.75 24H2.25C1.8 24 1.5 23.7 1.5 23.25V0.75C1.5 0.3 1.8 0 2.25 0H14.55C14.7 0 14.85 0.15 14.85 0.15L22.35 7.65C22.35 7.725 22.3875 7.7625 22.425 7.8ZM19.95 7.5L15 2.55V7.5H19.95ZM3 1.5V22.5H21V9H14.25C13.8 9 13.5 8.7 13.5 8.25V1.5H3Z" fill="currentColor"/>
</svg>
