<svg width="24" height="24" viewBox="0 0 24 24"  xmlns="http://www.w3.org/2000/svg">
<path d="M14.25 4.5C13.8358 4.5 13.5 4.83579 13.5 5.25C13.5 5.66421 13.8358 6 14.25 6H17.25C17.6642 6 18 5.66421 18 5.25C18 4.83579 17.6642 4.5 17.25 4.5H14.25ZM13.5 9.75C13.5 9.33579 13.8358 9 14.25 9H17.25C17.6642 9 18 9.33579 18 9.75C18 10.1642 17.6642 10.5 17.25 10.5H14.25C13.8358 10.5 13.5 10.1642 13.5 9.75ZM6.75 13.5C6.33579 13.5 6 13.8358 6 14.25C6 14.6642 6.33579 15 6.75 15H17.25C17.6642 15 18 14.6642 18 14.25C18 13.8358 17.6642 13.5 17.25 13.5H6.75ZM6 18.75C6 18.3358 6.33579 18 6.75 18H17.25C17.6642 18 18 18.3358 18 18.75C18 19.1642 17.6642 19.5 17.25 19.5H6.75C6.33579 19.5 6 19.1642 6 18.75Z" fill="currentColor"/>
<path fill-rule="evenodd" clip-rule="evenodd" d="M6.75 4.5C6.33579 4.5 6 4.83579 6 5.25V9.75C6 10.1642 6.33579 10.5 6.75 10.5H11.25C11.6642 10.5 12 10.1642 12 9.75V5.25C12 4.83579 11.6642 4.5 11.25 4.5H6.75ZM7.5 9V6H10.5V9H7.5ZM2.25 0C1.83579 0 1.5 0.335786 1.5 0.75V23.25C1.5 23.6642 1.83579 24 2.25 24H21.75C22.1642 24 22.5 23.6642 22.5 23.25V0.75C22.5 0.335786 22.1642 0 21.75 0H2.25ZM3 22.5V1.5H21V22.5H3Z" fill="currentColor"/>
</svg>
