<svg width="24" height="24" viewBox="0 0 24 24"  xmlns="http://www.w3.org/2000/svg">
<path d="M10.4393 10.3795L10.3796 10.4392C9.99202 10.8415 9.75286 11.3877 9.75017 11.9898V12.0103C9.75285 12.6105 9.99059 13.1553 10.3761 13.5572L10.4429 13.6241C10.8472 14.0118 11.3958 14.25 12.0002 14.25C12.6032 14.25 13.1508 14.0128 13.5548 13.6266L13.6268 13.5546C14.0092 13.1546 14.2455 12.6138 14.2501 12.0178V11.9823C14.2455 11.3846 14.0079 10.8425 13.6236 10.4421L13.5581 10.3766C13.1538 9.98853 12.6048 9.75003 12.0002 9.75003C11.394 9.75003 10.8439 9.9897 10.4393 10.3795Z" fill="currentColor"/>
<path fill-rule="evenodd" clip-rule="evenodd" d="M3 0H21C21.2652 0 21.5196 0.105357 21.7071 0.292893C21.8946 0.48043 22 0.734784 22 1V23C22 23.2652 21.8946 23.5196 21.7071 23.7071C21.5196 23.8946 21.2652 24 21 24H3C2.73478 24 2.48043 23.8946 2.29289 23.7071C2.10536 23.5196 2 23.2652 2 23V1C2 0.734784 2.10536 0.48043 2.29289 0.292893C2.48043 0.105357 2.73478 0 3 0ZM13.1251 7.64178V5.25H10.8751V7.64183C10.4623 7.74809 10.0724 7.91145 9.71432 8.123L8.02216 6.43086L6.43115 8.02184L8.12326 9.71392C7.91161 10.0721 7.74818 10.4621 7.64189 10.875H5.25012V13.125H7.64189C7.74817 13.5379 7.91159 13.9279 8.12321 14.286L6.43115 15.978L8.02216 17.569L9.71424 15.877C10.0723 16.0886 10.4623 16.2519 10.8751 16.3582V18.75H13.1251V16.3582C13.538 16.252 13.9279 16.0886 14.286 15.877L15.9781 17.569L17.5691 15.9781L15.8771 14.2861C16.0887 13.928 16.2522 13.538 16.3584 13.125H18.7502V10.875H16.3584C16.2521 10.462 16.0887 10.072 15.877 9.71385L17.5691 8.02184L15.9781 6.43086L14.2859 8.12296C13.9279 7.9114 13.5379 7.74803 13.1251 7.64178Z" fill="currentColor"/>
</svg>
