<svg width="24" height="24" viewBox="0 0 24 24"  xmlns="http://www.w3.org/2000/svg">
<path d="M1.5 0.75C1.5 0.335787 1.83579 0 2.25 0H21.75C22.1642 0 22.5 0.335787 22.5 0.75V6.61364H21V1.5H3V22.5H6.9V24H2.25C1.83579 24 1.5 23.6642 1.5 23.25V0.75ZM6 5.25C6 4.83579 6.33579 4.5 6.75 4.5H17.25C17.6642 4.5 18 4.83579 18 5.25C18 5.66421 17.6642 6 17.25 6H6.75C6.33579 6 6 5.66421 6 5.25ZM6 9.75C6 9.33579 6.33579 9 6.75 9H12.75C13.1642 9 13.5 9.33579 13.5 9.75C13.5 10.1642 13.1642 10.5 12.75 10.5H6.75C6.33579 10.5 6 10.1642 6 9.75ZM6.75 13.5C6.33579 13.5 6 13.8358 6 14.25C6 14.6642 6.33579 15 6.75 15H9C9.41421 15 9.75 14.6642 9.75 14.25C9.75 13.8358 9.41421 13.5 9 13.5H6.75Z" fill="currentColor"/>
<path fill-rule="evenodd" clip-rule="evenodd" d="M23.0607 12.9996L19.0001 8.93896L10.3228 17.6162L8.96924 23.0305L14.3835 21.6769L23.0607 12.9996ZM11.0308 20.9689L11.6772 18.383L19.0001 11.0603L20.9394 12.9996L13.6166 20.3224L11.0308 20.9689Z" fill="currentColor"/>
</svg>
