<svg width="24" height="24" viewBox="0 0 24 24"  xmlns="http://www.w3.org/2000/svg">
<path fill-rule="evenodd" clip-rule="evenodd" d="M3.00244 0H21.0024C21.2677 0 21.522 0.105357 21.7095 0.292893C21.8971 0.48043 22.0024 0.734784 22.0024 1V23C22.0024 23.2652 21.8971 23.5196 21.7095 23.7071C21.522 23.8946 21.2677 24 21.0024 24H3.00244C2.73722 24 2.48287 23.8946 2.29533 23.7071C2.1078 23.5196 2.00244 23.2652 2.00244 23V1C2.00244 0.734784 2.1078 0.48043 2.29533 0.292893C2.48287 0.105357 2.73722 0 3.00244 0ZM11.6965 13.3769V5.25L16.7278 7.76564L15.9003 9.41688L13.5435 8.23848V15.9793C13.5435 16.5273 13.381 17.063 13.0766 17.5186C12.7722 17.9742 12.3395 18.3293 11.8332 18.539C11.327 18.7487 10.7699 18.8035 10.2325 18.6966C9.69504 18.5897 9.20138 18.3259 8.81391 17.9384C8.42645 17.5509 8.16258 17.0573 8.05568 16.5198C7.94878 15.9824 8.00364 15.4254 8.21334 14.9191C8.42303 14.4129 8.77814 13.9802 9.23375 13.6757C9.68936 13.3713 10.225 13.2088 10.773 13.2088C11.0882 13.2113 11.4006 13.2681 11.6965 13.3769Z" fill="currentColor"/>
</svg>
