<svg width="24" height="24" viewBox="0 0 24 24"  xmlns="http://www.w3.org/2000/svg">
<path fill-rule="evenodd" clip-rule="evenodd" d="M2.25 0C1.83579 0 1.5 0.335786 1.5 0.75V10H3V1.5H13.5V8.25C13.5 8.66421 13.8358 9 14.25 9H21V22.5H3V21H1.5V23.25C1.5 23.6642 1.83579 24 2.25 24H21.75C22.1642 24 22.5 23.6642 22.5 23.25V8.25C22.5 8.05109 22.421 7.86032 22.2803 7.71967L14.7803 0.21967C14.6397 0.0790176 14.4489 0 14.25 0H2.25ZM19.9393 7.5L15 2.56066V7.5H19.9393Z" fill="currentColor"/>
<path d="M14.3174 12.0532C15.6709 12.0532 16.5234 12.7344 16.6729 13.9297L15.5654 14.1099C15.4907 13.4243 15.0601 13.0376 14.269 13.0376C13.623 13.0376 13.1616 13.3013 13.1616 13.8638C13.1616 14.5537 13.8604 14.6987 14.6338 14.8525L14.6559 14.8569C15.6481 15.0535 16.7695 15.2758 16.7695 16.6411C16.7695 17.854 15.8818 18.645 14.5239 18.645C13.1748 18.645 12.1025 17.8584 11.9707 16.606L13.0825 16.4258C13.1748 17.208 13.7241 17.6606 14.5327 17.6606C15.2095 17.6606 15.6445 17.3398 15.6445 16.7949C15.6445 16.1023 14.9361 15.9519 14.1518 15.7854L14.146 15.7842C13.1572 15.5776 12.0322 15.3403 12.0322 13.9736C12.0322 12.73 12.9683 12.0532 14.3174 12.0532ZM5.49756 12.1982H4.19238L3.00146 14.3296L1.81934 12.1982H0.500977L2.30273 15.2612L0.386719 18.5H1.70947L3.00146 16.2017L4.29346 18.5H5.61182L3.6958 15.2612L5.49756 12.1982ZM6.8291 18.5H11.1665V17.4453H7.94531V12.1982H6.8291V18.5Z" fill="currentColor"/>
</svg>
