<svg width="24" height="24" viewBox="0 0 24 24"  xmlns="http://www.w3.org/2000/svg">
<path fill-rule="evenodd" clip-rule="evenodd" d="M13.5 9H22.5V22.5C22.5 23.4 21.9 24 21 24H3C2.1 24 1.5 23.4 1.5 22.5V1.5C1.5 0.6 2.1 0 3 0H13.5V9ZM16.5 6V0L22.5 6H16.5ZM5.04182 14.4812H7.82676L5 17.5356V19H9.97192V17.5188H7.12425L9.93847 14.4226V13H5.04182V14.4812ZM10.9797 13V19H12.5687V13H10.9797ZM13.9068 19V13H16.9594C18.3393 13 19 14.0209 19 15.0753C19 16.1757 18.2766 17.2803 16.8548 17.2803H15.4916V19H13.9068ZM16.7001 14.4812H15.4916V15.8243H16.6416C17.1183 15.8243 17.3984 15.5565 17.3984 15.1339C17.3984 14.7615 17.1768 14.4812 16.7001 14.4812Z" fill="currentColor"/>
</svg>
