<svg width="24" height="24" viewBox="0 0 24 24"  xmlns="http://www.w3.org/2000/svg">
<path fill-rule="evenodd" clip-rule="evenodd" d="M2.25 0C1.83579 0 1.5 0.335786 1.5 0.75V10H3V1.5H13.5V8.25C13.5 8.66421 13.8358 9 14.25 9H21V22.5H3V21H1.5V23.25C1.5 23.6642 1.83579 24 2.25 24H21.75C22.1642 24 22.5 23.6642 22.5 23.25V8.25C22.5 8.05109 22.421 7.86032 22.2803 7.71967L14.7803 0.21967C14.6397 0.0790176 14.4489 0 14.25 0H2.25ZM19.9393 7.5L15 2.56066V7.5H19.9393Z" fill="currentColor"/>
<path d="M5.79419 16.4688C5.74438 17.1572 5.4895 17.6992 5.02954 18.0947C4.57251 18.4902 3.96899 18.688 3.21899 18.688C2.39868 18.688 1.75269 18.4126 1.28101 17.8618C0.812256 17.3081 0.577881 16.5493 0.577881 15.5854V15.1943C0.577881 14.5791 0.686279 14.0371 0.903076 13.5684C1.11987 13.0996 1.42896 12.7407 1.83032 12.4917C2.23462 12.2397 2.70337 12.1138 3.23657 12.1138C3.97485 12.1138 4.56958 12.3115 5.02075 12.707C5.47192 13.1025 5.73267 13.6577 5.80298 14.3726H4.48462C4.45239 13.9595 4.33667 13.6606 4.13745 13.4761C3.94116 13.2886 3.64087 13.1948 3.23657 13.1948C2.79712 13.1948 2.46753 13.353 2.2478 13.6694C2.03101 13.9829 1.91968 14.4707 1.91382 15.1328V15.6162C1.91382 16.3076 2.01782 16.813 2.22583 17.1323C2.43677 17.4517 2.76782 17.6113 3.21899 17.6113C3.62622 17.6113 3.92944 17.519 4.12866 17.3345C4.33081 17.147 4.44653 16.8584 4.47583 16.4688H5.79419ZM15.2242 17.0137L16.6744 12.2017H18.1421L15.9141 18.6001H14.5386L12.3194 12.2017H13.7828L15.2242 17.0137ZM10.1978 16.3501C10.3736 16.4819 10.4615 16.6724 10.4615 16.9214C10.4615 17.1499 10.3736 17.3286 10.1978 17.4575C10.0221 17.5835 9.77743 17.6465 9.46395 17.6465C8.6202 17.6465 8.19833 17.2935 8.19833 16.5874H6.87557C6.87557 17.0005 6.98104 17.3638 7.19198 17.6772C7.40585 17.9907 7.71493 18.2383 8.11923 18.4199C8.52352 18.5986 8.97177 18.688 9.46395 18.688C10.1729 18.688 10.7369 18.5312 11.1558 18.2178C11.5748 17.9014 11.7843 17.4663 11.7843 16.9126C11.7843 16.4146 11.6129 15.9985 11.2701 15.6646C10.9273 15.3306 10.3809 15.0508 9.63095 14.8252C9.22372 14.7021 8.91464 14.5703 8.7037 14.4297C8.49569 14.2891 8.39169 14.1147 8.39169 13.9067C8.39169 13.6841 8.48104 13.5054 8.65975 13.3706C8.83847 13.2329 9.08895 13.1641 9.41122 13.1641C9.7452 13.1641 10.0045 13.2461 10.1891 13.4102C10.3736 13.5713 10.4659 13.7983 10.4659 14.0913H11.7843C11.7843 13.7075 11.6847 13.3647 11.4854 13.063C11.2891 12.7612 11.0123 12.5283 10.6549 12.3643C10.2975 12.1973 9.89022 12.1138 9.43319 12.1138C8.97909 12.1138 8.56893 12.1899 8.20272 12.3423C7.83944 12.4946 7.55966 12.707 7.36337 12.9795C7.17001 13.249 7.07333 13.5566 7.07333 13.9023C7.07333 14.5674 7.43661 15.0962 8.16317 15.4888C8.42977 15.6323 8.79159 15.7788 9.24862 15.9282C9.70565 16.0747 10.0221 16.2153 10.1978 16.3501Z" fill="currentColor"/>
</svg>
