<svg width="24" height="24" viewBox="0 0 24 24"  xmlns="http://www.w3.org/2000/svg">
<g clip-path="url(#clip0_865_3090)">
<path fill-rule="evenodd" clip-rule="evenodd" d="M1.5 0H22.5C23.4 0 24 0.654545 24 1.63636V22.3636C24 23.3455 23.4 24 22.5 24H1.5C0.6 24 0 23.3455 0 22.3636V1.63636C0 0.654545 0.6 0 1.5 0ZM7.0542 11.8477V13.2891H8.51318C8.42529 13.9307 7.79248 14.1196 7.2168 14.1196C6.15771 14.1196 5.6875 13.4824 5.6875 12.3398C5.6875 11.1226 6.22363 10.5117 7.19482 10.5117C7.84961 10.5117 8.2627 10.7886 8.39893 11.2764L10.0645 10.9819C9.76123 9.75586 8.72412 9 7.22559 9C5.27881 9 4 10.2744 4 12.3882C4 14.3306 5.08545 15.5918 6.76855 15.5918C7.72656 15.5918 8.30664 15.1831 8.60107 14.6162V15.4468H10.1304V11.8477H7.0542ZM11.4531 9.14502V15.4468H13.123V9.14502H11.4531ZM14.5293 9.14502H19.1611V10.7007H16.1992V11.6982H18.9282V13.2539H16.1992V15.4468H14.5293V9.14502Z" fill="currentColor"/>
</g>
<defs>
<clipPath id="clip0_865_3090">
<rect width="24" height="24" fill="currentColor"/>
</clipPath>
</defs>
</svg>
