<svg width="24" height="24" viewBox="0 0 24 24"  xmlns="http://www.w3.org/2000/svg">
<path d="M14.0001 10.5C14.0001 11.8807 12.8808 13 11.5001 13C10.1194 13 9.00012 11.8807 9.00012 10.5C9.00012 9.11929 10.1194 8 11.5001 8C12.8808 8 14.0001 9.11929 14.0001 10.5Z" fill="currentColor"/>
<path fill-rule="evenodd" clip-rule="evenodd" d="M3 0H21C21.2652 0 21.5196 0.105357 21.7071 0.292893C21.8946 0.48043 22 0.734784 22 1V23C22 23.2652 21.8946 23.5196 21.7071 23.7071C21.5196 23.8946 21.2652 24 21 24H3C2.73478 24 2.48043 23.8946 2.29289 23.7071C2.10536 23.5196 2 23.2652 2 23V1C2 0.734784 2.10536 0.48043 2.29289 0.292893C2.48043 0.105357 2.73478 0 3 0ZM13.886 14.3L17 17.414L18.414 16L15.3 12.886C15.755 12.1732 15.9977 11.3456 16 10.5C16 9.60998 15.7361 8.73995 15.2416 7.99993C14.7471 7.25991 14.0443 6.68314 13.2221 6.34254C12.3998 6.00195 11.495 5.91283 10.6221 6.08647C9.74918 6.2601 8.94736 6.68868 8.31802 7.31802C7.68868 7.94736 7.2601 8.74918 7.08647 9.62209C6.91283 10.495 7.00195 11.3998 7.34254 12.2221C7.68314 13.0443 8.25991 13.7471 8.99993 14.2416C9.73996 14.7361 10.61 15 11.5 15C12.3456 14.9977 13.1732 14.755 13.886 14.3Z" fill="currentColor"/>
</svg>
