<svg width="24" height="24" viewBox="0 0 24 24"  xmlns="http://www.w3.org/2000/svg">
<path fill-rule="evenodd" clip-rule="evenodd" d="M6 0.75C6 0.335787 6.33579 0 6.75 0H23.25C23.6642 0 24 0.335787 24 0.75V20.25C24 20.6642 23.6642 21 23.25 21C22.8358 21 22.5 20.6642 22.5 20.25V1.5H6.75C6.33579 1.5 6 1.16421 6 0.75ZM3 5.25C3 4.83579 3.33579 4.5 3.75 4.5H18.75C19.1642 4.5 19.5 4.83579 19.5 5.25V23.25C19.5 23.6642 19.1642 24 18.75 24H3.75C3.33579 24 3 23.6642 3 23.25V5.25ZM4.5 6V22.5H18V6H4.5ZM8.25 9C7.83579 9 7.5 9.33579 7.5 9.75C7.5 10.1642 7.83579 10.5 8.25 10.5H14.25C14.6642 10.5 15 10.1642 15 9.75C15 9.33579 14.6642 9 14.25 9H8.25ZM7.5 14.25C7.5 13.8358 7.83579 13.5 8.25 13.5H14.25C14.6642 13.5 15 13.8358 15 14.25C15 14.6642 14.6642 15 14.25 15H8.25C7.83579 15 7.5 14.6642 7.5 14.25ZM8.25 18C7.83579 18 7.5 18.3358 7.5 18.75C7.5 19.1642 7.83579 19.5 8.25 19.5H14.25C14.6642 19.5 15 19.1642 15 18.75C15 18.3358 14.6642 18 14.25 18H8.25Z" fill="currentColor"/>
</svg>
