<svg width="24" height="24" viewBox="0 0 24 24"  xmlns="http://www.w3.org/2000/svg">
<g clip-path="url(#clip0_865_3006)">
<path d="M0.75 0C0.335787 0 0 0.335787 0 0.75V23.25C0 23.6642 0.335787 24 0.75 24H9.75C10.1642 24 10.5 23.6642 10.5 23.25C10.5 22.8358 10.1642 22.5 9.75 22.5H1.5V1.5H19.5V8.25C19.5 8.66421 19.8358 9 20.25 9C20.6642 9 21 8.66421 21 8.25V0.75C21 0.335787 20.6642 0 20.25 0H0.75ZM5.25 4.5C4.83579 4.5 4.5 4.83579 4.5 5.25C4.5 5.66421 4.83579 6 5.25 6H15.75C16.1642 6 16.5 5.66421 16.5 5.25C16.5 4.83579 16.1642 4.5 15.75 4.5H5.25ZM4.5 9.75C4.5 9.33579 4.83579 9 5.25 9H11.25C11.6642 9 12 9.33579 12 9.75C12 10.1642 11.6642 10.5 11.25 10.5H5.25C4.83579 10.5 4.5 10.1642 4.5 9.75ZM5.25 13.5C4.83579 13.5 4.5 13.8358 4.5 14.25C4.5 14.6642 4.83579 15 5.25 15H8.25C8.66421 15 9 14.6642 9 14.25C9 13.8358 8.66421 13.5 8.25 13.5H5.25ZM4.5 18.75C4.5 18.3358 4.83579 18 5.25 18H8.25C8.66421 18 9 18.3358 9 18.75C9 19.1642 8.66421 19.5 8.25 19.5H5.25C4.83579 19.5 4.5 19.1642 4.5 18.75ZM17.25 13.5C17.6642 13.5 18 13.8358 18 14.25V16.5H20.25C20.6642 16.5 21 16.8358 21 17.25C21 17.6642 20.6642 18 20.25 18H18V20.25C18 20.6642 17.6642 21 17.25 21C16.8358 21 16.5 20.6642 16.5 20.25V18H14.25C13.8358 18 13.5 17.6642 13.5 17.25C13.5 16.8358 13.8358 16.5 14.25 16.5H16.5V14.25C16.5 13.8358 16.8358 13.5 17.25 13.5Z" fill="currentColor"/>
<path fill-rule="evenodd" clip-rule="evenodd" d="M17.25 10.5C13.5221 10.5 10.5 13.5221 10.5 17.25C10.5 20.978 13.5221 24 17.25 24C20.978 24 24 20.978 24 17.25C24 13.5221 20.978 10.5 17.25 10.5ZM12 17.25C12 14.3505 14.3505 12 17.25 12C20.1495 12 22.5 14.3505 22.5 17.25C22.5 20.1495 20.1495 22.5 17.25 22.5C14.3505 22.5 12 20.1495 12 17.25Z" fill="currentColor"/>
</g>
<defs>
<clipPath id="clip0_865_3006">
<rect width="24" height="24" fill="currentColor"/>
</clipPath>
</defs>
</svg>
