<svg width="24" height="24" viewBox="0 0 24 24"  xmlns="http://www.w3.org/2000/svg">
<path fill-rule="evenodd" clip-rule="evenodd" d="M22.5 9H13.5V0H3C2.1 0 1.5 0.6 1.5 1.5V22.5C1.5 23.4 2.1 24 3 24H21C21.9 24 22.5 23.4 22.5 22.5V9ZM16.5 0V6H22.5L16.5 0ZM11.8716 13C10.1442 13 9.0548 14.14 9.0548 16C9.0548 17.86 10.1442 19 11.8716 19C13.5952 19 14.6884 17.86 14.6884 16C14.6884 14.14 13.5952 13 11.8716 13ZM11.8716 14.376C12.6653 14.376 13.1944 14.904 13.1944 16C13.1944 17.096 12.6653 17.624 11.8716 17.624C11.074 17.624 10.5488 17.096 10.5488 16C10.5488 14.904 11.074 14.376 11.8716 14.376ZM3.25 13.132V18.868H5.7789C7.35849 18.868 8.3934 17.74 8.3934 15.988C8.3934 14.264 7.38573 13.132 5.80614 13.132H3.25ZM4.72843 14.548H5.65829C6.47921 14.548 6.8994 15.02 6.8994 16.004C6.8994 16.984 6.4831 17.452 5.65829 17.452H4.72843V14.548ZM18.155 13C19.5556 13 20.5282 13.78 20.7189 15.024L19.2482 15.292C19.2015 14.696 18.8164 14.376 18.1666 14.376C17.2873 14.376 16.8049 14.936 16.8049 16.008C16.8049 17.08 17.2757 17.624 18.1316 17.624C18.8241 17.624 19.2288 17.268 19.2832 16.584L20.75 16.836C20.5788 18.136 19.6139 19 18.1005 19C16.3808 19 15.3109 17.888 15.3109 16.056C15.3109 14.196 16.4197 13 18.155 13Z" fill="currentColor"/>
</svg>
