<svg width="24" height="24" viewBox="0 0 24 24"  xmlns="http://www.w3.org/2000/svg">
<g clip-path="url(#clip0_865_3084)">
<path d="M6.57423 12.7653H8.14096V12.8867C8.14096 13.6567 7.70191 14.422 6.72213 14.422C5.59908 14.422 5.19237 13.4233 5.19237 12.0467C5.19237 10.586 5.63605 9.606 6.80069 9.606C7.5725 9.606 8.01618 10.0307 8.11323 10.8007L9.27787 10.5953C9.05604 9.23733 8.2149 8.5 6.81918 8.5C4.86886 8.5 4 9.93733 4 12.07C4 14.0953 4.79029 15.5 6.45407 15.5C7.36453 15.5 7.96534 15.066 8.22415 14.3987V15.346H9.31485V11.7153H6.57423V12.7653ZM14.2507 8.654H10.3963V9.774H11.7366V14.226H10.3963V15.346H14.2507V14.226H12.9105V9.774H14.2507V8.654ZM15.4246 8.654H20V9.774H16.5985V11.496H19.7227V12.616H16.5985V15.346H15.4246V8.654Z" fill="currentColor"/>
<path fill-rule="evenodd" clip-rule="evenodd" d="M21 0H3C1.34315 0 0 1.46525 0 3.27273V20.7273C0 22.5348 1.34315 24 3 24H21C22.6569 24 24 22.5348 24 20.7273V3.27273C24 1.46525 22.6569 0 21 0ZM1.70001 3.27267C1.70001 2.48943 2.28204 1.85449 3.00001 1.85449H21C21.718 1.85449 22.3 2.48943 22.3 3.27267V20.7272C22.3 21.5105 21.718 22.1454 21 22.1454H3.00001C2.28204 22.1454 1.70001 21.5105 1.70001 20.7272V3.27267Z" fill="currentColor"/>
</g>
<defs>
<clipPath id="clip0_865_3084">
<rect width="24" height="24" fill="currentColor"/>
</clipPath>
</defs>
</svg>
