<svg width="24" height="24" viewBox="0 0 24 24"  xmlns="http://www.w3.org/2000/svg">
<path fill-rule="evenodd" clip-rule="evenodd" d="M9.30095 11.5212L2.20287 6.27659C2.07528 6.18232 2 6.03309 2 5.87446V3.5C2 3.22386 2.22386 3 2.5 3H21.5C21.7761 3 22 3.22386 22 3.5V5.87446C22 6.03309 21.9247 6.18232 21.7971 6.27659L14.699 11.5212C14.5003 11.6511 14.381 11.8697 14.381 12.1039V18.9129C14.381 19.0901 14.2872 19.2541 14.1345 19.3439L10.3726 21.5568C10.0392 21.7528 9.61905 21.5125 9.61905 21.1258V12.1039C9.61905 11.8697 9.49971 11.6511 9.30095 11.5212Z" fill="currentColor"/>
<path d="M10.3691 20.6875L13.6309 18.7695V12.1035C13.631 11.6266 13.868 11.1877 14.2539 10.9189L14.2529 10.918L21.25 5.74805V3.75H2.75V5.74805L9.74707 10.918L9.74512 10.9189C10.1314 11.1876 10.369 11.6264 10.3691 12.1035V20.6875ZM22.75 5.87402C22.75 6.27054 22.562 6.64419 22.2432 6.87988L15.1445 12.124L15.1309 12.1338V18.9131C15.1308 19.356 14.8964 19.7657 14.5146 19.9902L10.7529 22.2031C9.91969 22.6933 8.86927 22.0926 8.86914 21.126V12.1338L8.85547 12.124L1.75684 6.87988C1.43797 6.6442 1.25 6.27055 1.25 5.87402V3.5C1.25 2.80964 1.80964 2.25 2.5 2.25H21.5C22.1904 2.25 22.75 2.80964 22.75 3.5V5.87402Z" fill="currentColor"/>
</svg>
