<svg width="24" height="24" viewBox="0 0 24 24"  xmlns="http://www.w3.org/2000/svg">
<path d="M10.1191 20.4375L13.3809 18.5195V11.8535C13.381 11.3766 13.618 10.9377 14.0039 10.6689L14.0029 10.668L21 5.49805V3.5H2.5V5.49805L9.49707 10.668L9.49512 10.6689C9.8814 10.9376 10.119 11.3764 10.1191 11.8535V20.4375ZM22.5 5.62402C22.5 6.02054 22.312 6.39419 21.9932 6.62988L14.8945 11.874L14.8809 11.8838V18.6631C14.8808 19.106 14.6464 19.5157 14.2646 19.7402L10.5029 21.9531C9.66969 22.4433 8.61927 21.8426 8.61914 20.876V11.8838L8.60547 11.874L1.50684 6.62988C1.18797 6.39419 1 6.02055 1 5.62402V3.25C1 2.55965 1.55964 2 2.25 2H21.25C21.9404 2 22.5 2.55964 22.5 3.25V5.62402Z" fill="currentColor"/>
</svg>
