<svg width="24" height="24" viewBox="0 0 24 24"  xmlns="http://www.w3.org/2000/svg">
<path d="M18.6245 0.90625V3.85938H8.83793L7.92095 10.3438C9.50197 9.01562 11.3518 8.65625 12.9012 8.65625C17.5019 8.65625 20 11.8125 20 15.7656C20 20.1406 16.9012 23.25 12.0949 23.25C8.04743 23.25 4.96443 21.0469 4 17.4531L7.06718 16.5312C7.74703 18.9062 9.59682 20.3281 12.1265 20.3281C14.9565 20.3281 16.7588 18.5469 16.7588 15.875C16.7588 13.4844 15.3044 11.5156 12.3952 11.5156C10.5613 11.5156 8.91699 12.25 7.85771 13.375L4.80632 12.3438L6.38735 0.90625H18.6245Z" fill="currentColor"/>
</svg>
