<svg width="24" height="24" viewBox="0 0 24 24"  xmlns="http://www.w3.org/2000/svg">
<path d="M11.9954 24C8.10581 24 5.15358 21.9972 4 18.5796L5.49257 18.1238C6.49656 20.9836 8.91484 22.6284 12.0473 22.6284C13.9516 22.6284 15.5497 22.0174 16.6739 20.9132C17.7988 19.8083 18.4109 18.2469 18.4109 16.4213C18.4109 14.7101 17.8747 13.1628 16.8284 12.0392C15.778 10.9113 14.2488 10.2489 12.3416 10.2489C10.1606 10.2489 8.0655 11.0757 6.65617 12.4081L4.86558 11.7557L6.44503 0H18.5805V1.40644H7.53978L6.17981 11.5705L7.04592 10.8671C8.75649 9.47788 10.6968 8.92951 12.6532 8.92951C15.042 8.92951 16.8674 9.73556 18.0968 11.0344C19.3296 12.3368 20 14.1738 20 16.2994C20 18.5963 19.2159 20.5126 17.8447 21.8548C16.4728 23.1976 14.478 24 11.9954 24Z" fill="currentColor"/>
</svg>
