<svg width="36" height="24" viewBox="0 0 36 24" fill="none" xmlns="http://www.w3.org/2000/svg">
<g clip-path="url(#clip0_865_3433)">
<path d="M36 8.00001H0V0.629697C0 0.27907 0.28125 0 0.61875 0H35.3742C35.7188 0 35.993 0.286226 35.993 0.629697L36 8.00001ZM35.3813 24H0.61875C0.274219 24 0 23.7138 0 23.3703V16H36V23.3703C36 23.721 35.7188 24 35.3813 24Z" fill="#82AFFF"/>
<path d="M0 8.00001H36V16H0V8.00001Z" fill="#FFE15A"/>
<path d="M0.232032 23.8496L14.4914 12.3291C14.6953 12.1645 14.6953 11.8425 14.4914 11.6707L0.232032 0.150127C0.0914063 0.264617 0 0.436495 0 0.629697V23.3703C0 23.5635 0.0914063 23.7351 0.232032 23.8496Z" fill="#464655"/>
</g>
<defs>
<clipPath id="clip0_865_3433">
<rect width="36" height="24" fill="white"/>
</clipPath>
</defs>
</svg>
