<svg width="36" height="24" viewBox="0 0 36 24" fill="none" xmlns="http://www.w3.org/2000/svg">
<g clip-path="url(#clip0_865_3751)">
<path d="M12.0046 23.9936H0.618869C0.274271 23.9936 0 23.7075 0 23.3641V0.630001C0 0.279475 0.281304 0.000485127 0.618869 0.000485127H11.9976V23.9936H12.0046Z" fill="#82AFFF"/>
<path d="M12.0042 0H24.0084V24H12.0042V0Z" fill="#F5F5F5"/>
<path d="M35.3881 23.9936H24.0023V0.000485127H35.381C35.7256 0.000485127 35.9999 0.286629 35.9999 0.630001V23.3641C36.007 23.7147 35.7256 23.9936 35.3881 23.9936Z" fill="#82AFFF"/>
<path d="M17.8489 8.85654L17.4903 9.03538L17.8209 9.17846L17.8489 8.85654Z" fill="#FFC855"/>
<path d="M18.0034 15.5453C16.0273 15.5453 14.4168 13.9072 14.4168 11.897C14.4168 10.6452 15.0357 9.50055 16.0695 8.82096L16.1609 8.96404C15.1764 9.60785 14.5856 10.7024 14.5856 11.8898C14.5856 13.807 16.1187 15.3665 18.0034 15.3665V15.5453ZM15.9498 15.7743C16.0835 15.8029 16.2944 15.7671 16.5124 15.6598C16.7305 15.5596 16.8922 15.4165 16.9555 15.2949C16.8219 15.2663 16.6109 15.3022 16.3929 15.4094C16.1818 15.5096 16.0131 15.6527 15.9498 15.7743ZM16.9627 15.2949C16.9909 15.159 16.9558 14.9444 16.8503 14.7227C16.7518 14.5009 16.6112 14.3364 16.4916 14.272C16.4635 14.4079 16.4986 14.6225 16.6041 14.8443C16.7025 15.066 16.8362 15.2305 16.9627 15.2949ZM15.2328 15.3307C15.3664 15.3808 15.5774 15.3737 15.8095 15.3022C16.0416 15.2305 16.2174 15.1161 16.3018 15.0017C16.1682 14.9516 15.9572 14.9587 15.7251 15.0302C15.5 15.1019 15.3171 15.2162 15.2328 15.3307ZM16.3017 15.0088C16.351 14.8729 16.3439 14.6583 16.2735 14.4222C16.2033 14.1862 16.0908 14.0073 15.9782 13.9215C15.9289 14.0574 15.936 14.272 16.0063 14.5081C16.0767 14.737 16.1892 14.923 16.3017 15.0088ZM14.5712 14.7227C14.6907 14.7942 14.9017 14.8299 15.1409 14.8014C15.3799 14.7728 15.5768 14.694 15.6823 14.6011C15.5628 14.5295 15.3518 14.4937 15.1127 14.5224C14.8736 14.551 14.6766 14.6225 14.5712 14.7227ZM15.6823 14.6011C15.7526 14.4794 15.7885 14.2648 15.7603 14.0216C15.7322 13.7784 15.6548 13.5781 15.5634 13.4708C15.493 13.5924 15.4579 13.807 15.4861 14.0503C15.5071 14.2934 15.5838 14.4937 15.6823 14.6011ZM14.0299 13.8785C14.1354 13.9716 14.3393 14.0431 14.5785 14.0574C14.8176 14.0717 15.0285 14.0287 15.1411 13.9572C15.0356 13.8642 14.8317 13.7927 14.5925 13.7784C14.3534 13.764 14.1425 13.807 14.0299 13.8785ZM15.1411 13.9572C15.2325 13.85 15.3029 13.6425 15.3169 13.3992C15.331 13.156 15.2888 12.9414 15.2185 12.8269C15.1271 12.9343 15.0567 13.1417 15.0427 13.385C15.0216 13.6281 15.0637 13.8428 15.1411 13.9572ZM13.7065 12.9557C13.7909 13.0702 13.9738 13.1847 14.2058 13.249C14.4379 13.3134 14.6489 13.3206 14.7825 13.2705C14.6981 13.156 14.5152 13.0416 14.2831 12.9772C14.0511 12.9128 13.8401 12.9057 13.7065 12.9557ZM14.7757 13.2705C14.8882 13.1847 15.0008 12.9987 15.064 12.7625C15.1274 12.5265 15.1344 12.3119 15.0852 12.176C14.9726 12.2618 14.8601 12.4479 14.7969 12.6839C14.7335 12.92 14.7265 13.1346 14.7757 13.2705ZM13.5728 11.8755C13.6291 12.0043 13.7768 12.1616 13.9807 12.2904C14.1847 12.4192 14.3886 12.4764 14.5293 12.4621C14.473 12.3334 14.3253 12.176 14.1214 12.0473C13.9174 11.9185 13.7135 11.8612 13.5728 11.8755ZM14.5293 12.4621C14.6559 12.4049 14.8103 12.2547 14.9369 12.0473C15.0634 11.8398 15.1197 11.6323 15.1056 11.4892C14.979 11.5465 14.8244 11.6967 14.6978 11.9042C14.5712 12.1116 14.5152 12.3191 14.5293 12.4621ZM13.6991 10.8526C13.7272 10.9956 13.8327 11.1745 14.0086 11.3461C14.1844 11.5107 14.3742 11.6108 14.5078 11.6323C14.4797 11.4892 14.3742 11.3104 14.1984 11.1387C14.0296 10.9742 13.8398 10.8669 13.6991 10.8526ZM14.5151 11.6323C14.6557 11.6037 14.8316 11.4964 15.0003 11.3176C15.1621 11.1387 15.2605 10.9456 15.2816 10.8096C15.141 10.8383 14.9652 10.9456 14.7964 11.1244C14.6275 11.2961 14.5292 11.4892 14.5151 11.6323ZM14.2059 9.75093C14.1778 9.88684 14.213 10.1015 14.3114 10.3232C14.4098 10.545 14.5505 10.7095 14.67 10.7811C14.6982 10.6452 14.6631 10.4305 14.5646 10.2087C14.4661 9.98699 14.3254 9.81531 14.2059 9.75093ZM14.67 10.7811C14.8037 10.8096 15.0147 10.7739 15.2327 10.6737C15.4507 10.5736 15.6125 10.4305 15.6828 10.3089C15.5492 10.2803 15.3382 10.3161 15.1202 10.4162C14.9022 10.5164 14.7334 10.6594 14.67 10.7811ZM14.8032 8.92825C14.74 9.05702 14.7188 9.27163 14.754 9.50769C14.7892 9.75092 14.8806 9.94407 14.979 10.0442C15.0424 9.91545 15.0634 9.70084 15.0283 9.46478C14.9931 9.2287 14.9087 9.0284 14.8032 8.92825ZM14.9795 10.0514C15.1061 10.1158 15.317 10.1372 15.5492 10.1015C15.7883 10.0657 15.9781 9.97267 16.0766 9.87252C15.95 9.80814 15.7391 9.78668 15.507 9.82244C15.2749 9.85822 15.078 9.95121 14.9795 10.0514ZM15.4012 8.36312C15.3167 8.47759 15.2676 8.68504 15.2676 8.92826C15.2676 9.17148 15.3308 9.37894 15.4152 9.49339C15.4996 9.37894 15.5488 9.17148 15.5488 8.92826C15.5418 8.68504 15.4785 8.47759 15.4012 8.36312ZM15.4085 9.49338C15.5211 9.57923 15.725 9.6293 15.9641 9.6293C16.2032 9.6293 16.4072 9.56492 16.5197 9.47908C16.4072 9.39323 16.2032 9.34315 15.9641 9.34315C15.725 9.35032 15.5211 9.41469 15.4085 9.49338ZM15.6966 9.20011C15.8371 9.21441 16.0412 9.15004 16.2451 9.02126C16.449 8.8925 16.5967 8.73512 16.646 8.59921C16.5053 8.5849 16.3014 8.64928 16.0974 8.77805C15.8934 8.90681 15.7458 9.06419 15.6966 9.20011ZM18.0034 15.5453L18.0033 15.3737C19.8881 15.3737 21.4212 13.8142 21.4212 11.897C21.4212 10.7096 20.8305 9.60786 19.8459 8.9712L19.9374 8.82812C20.9712 9.50056 21.59 10.6523 21.59 11.9042C21.59 13.9144 19.9797 15.5453 18.0034 15.5453ZM20.0569 15.7743C19.9233 15.8029 19.7123 15.7671 19.4943 15.6598C19.2763 15.5596 19.1145 15.4165 19.0512 15.2949C19.1848 15.2663 19.3958 15.3022 19.6138 15.4094C19.8248 15.5096 19.9935 15.6527 20.0569 15.7743ZM19.0443 15.2949C19.0162 15.159 19.0513 14.9444 19.1569 14.7227C19.2553 14.5009 19.3959 14.3364 19.5155 14.272C19.5437 14.4079 19.5084 14.6225 19.403 14.8443C19.3045 15.066 19.1709 15.2305 19.0443 15.2949ZM20.7744 15.3307C20.6407 15.3808 20.4298 15.3737 20.1977 15.3022C19.9656 15.2305 19.7898 15.1161 19.7054 15.0017C19.8391 14.9516 20.05 14.9587 20.2822 15.0302C20.5071 15.1019 20.69 15.2162 20.7744 15.3307ZM19.705 15.0088C19.6558 14.8729 19.6628 14.6583 19.7331 14.4222C19.8035 14.1862 19.916 14.0073 20.0285 13.9215C20.0777 14.0574 20.0707 14.272 20.0004 14.5081C19.9301 14.737 19.8175 14.923 19.705 15.0088ZM21.4354 14.7227C21.3159 14.7942 21.1048 14.8299 20.8657 14.8014C20.6267 14.7728 20.4297 14.694 20.3243 14.6011C20.4438 14.5295 20.6548 14.4937 20.8938 14.5224C21.133 14.551 21.3299 14.6225 21.4354 14.7227ZM20.3243 14.6011C20.2539 14.4794 20.2185 14.2648 20.2466 14.0216C20.2748 13.7784 20.3521 13.5781 20.4436 13.4708C20.5139 13.5924 20.549 13.807 20.5209 14.0503C20.4928 14.2934 20.4227 14.4937 20.3243 14.6011ZM21.9766 13.8785C21.8712 13.9716 21.6672 14.0431 21.4281 14.0574C21.189 14.0717 20.978 14.0287 20.8655 13.9572C20.971 13.8642 21.1749 13.7927 21.414 13.7784C21.6532 13.764 21.8641 13.807 21.9766 13.8785ZM20.8655 13.9572C20.7741 13.85 20.7041 13.6425 20.69 13.3992C20.6759 13.156 20.7181 12.9414 20.7885 12.8269C20.8799 12.9343 20.9502 13.1417 20.9643 13.385C20.9853 13.6281 20.9428 13.8428 20.8655 13.9572ZM22.3004 12.9557C22.216 13.0702 22.0331 13.1847 21.801 13.249C21.569 13.3134 21.358 13.3206 21.2244 13.2705C21.3088 13.156 21.4916 13.0416 21.7237 12.9772C21.9558 12.9128 22.1667 12.9057 22.3004 12.9557ZM21.2311 13.2705C21.1185 13.1847 21.006 12.9987 20.9427 12.7625C20.8795 12.5265 20.8724 12.3119 20.9216 12.176C21.0341 12.2618 21.1467 12.4479 21.2099 12.6839C21.2733 12.92 21.2802 13.1346 21.2311 13.2705ZM22.4341 11.8755C22.3778 12.0043 22.2301 12.1616 22.0262 12.2904C21.8223 12.4192 21.6183 12.4764 21.4777 12.4621C21.534 12.3334 21.6816 12.176 21.8855 12.0473C22.0895 11.9185 22.2934 11.8612 22.4341 11.8755ZM21.4777 12.4621C21.3511 12.4049 21.1962 12.2547 21.0696 12.0473C20.943 11.8398 20.8868 11.6323 20.9008 11.4892C21.0274 11.5465 21.1822 11.6967 21.3087 11.9042C21.4353 12.1116 21.4918 12.3191 21.4777 12.4621ZM22.3071 10.8526C22.2789 10.9956 22.1735 11.1745 21.9977 11.3461C21.8218 11.5179 21.6319 11.6108 21.4983 11.6323C21.5265 11.4892 21.6319 11.3104 21.8077 11.1387C21.9836 10.9671 22.1664 10.8669 22.3071 10.8526ZM21.4918 11.6323C21.3511 11.6037 21.1753 11.4964 21.0065 11.3176C20.8448 11.1387 20.7463 10.9456 20.7252 10.8096C20.8658 10.8383 21.0417 10.9456 21.2104 11.1244C21.3792 11.2961 21.4777 11.4892 21.4918 11.6323ZM21.801 9.75093C21.8292 9.88684 21.794 10.1015 21.6956 10.3232C21.5971 10.545 21.4564 10.7095 21.3369 10.7811C21.3088 10.6452 21.3439 10.4305 21.4424 10.2087C21.5408 9.98699 21.6815 9.81531 21.801 9.75093ZM21.3369 10.7811C21.2032 10.8096 20.9923 10.7739 20.7743 10.6737C20.5563 10.5736 20.3946 10.4305 20.3243 10.3089C20.4578 10.2803 20.6689 10.3161 20.8869 10.4162C21.1048 10.5164 21.2736 10.6594 21.3369 10.7811ZM21.2032 8.92825C21.2665 9.05702 21.2876 9.27163 21.2524 9.50769C21.2173 9.75092 21.1259 9.94407 21.0274 10.0442C20.9641 9.91545 20.943 9.70084 20.9781 9.46478C21.0134 9.2287 21.0978 9.0284 21.2032 8.92825ZM21.0277 10.0514C20.9011 10.1158 20.6902 10.1372 20.458 10.1015C20.219 10.0657 20.0291 9.97267 19.9307 9.87252C20.0573 9.80814 20.2682 9.78668 20.5002 9.82244C20.7324 9.85822 20.9293 9.95121 21.0277 10.0514ZM20.6056 8.36312C20.6899 8.47759 20.7392 8.68504 20.7392 8.92826C20.7392 9.17148 20.6759 9.37894 20.5915 9.49339C20.5071 9.37894 20.4578 9.17148 20.4578 8.92826C20.4649 8.68504 20.5282 8.47759 20.6056 8.36312ZM20.5987 9.49338C20.4862 9.57923 20.2823 9.6293 20.0432 9.6293C19.8041 9.6293 19.6001 9.56492 19.4876 9.47908C19.6001 9.39323 19.8041 9.34315 20.0432 9.34315C20.2823 9.34315 20.4862 9.41469 20.5987 9.49338ZM20.31 9.20011C20.1693 9.21441 19.9654 9.15004 19.7615 9.02126C19.5575 8.8925 19.4098 8.73512 19.3606 8.59921C19.5013 8.5849 19.7052 8.64928 19.9091 8.77805C20.113 8.90681 20.2608 9.06419 20.31 9.20011Z" fill="#73AF00"/>
<path d="M19.4103 10.0727L16.0346 13.5065C15.9503 13.5923 15.9503 13.7354 16.0346 13.8212L16.1893 13.9786L16.8012 13.3562L19.2555 10.5448L19.565 10.2301L19.4103 10.0727Z" fill="#B9B9B9"/>
<path d="M16.8638 12.97C16.8216 13.0129 16.8005 13.0701 16.8005 13.1274V13.3491L19.2548 10.5378L16.8638 12.97Z" fill="#966446"/>
<path d="M19.5644 10.2227L19.4103 10.0727L19.255 10.2227L19.5644 10.5375L21.2522 8.50592L19.5644 10.2227Z" fill="#A0A0A0"/>
<path d="M16.0415 14.7368L15.4226 15.3664L15.1132 14.7439L16.0345 13.8068L16.344 14.1216L16.2525 14.3934C16.2103 14.5222 16.1399 14.6438 16.0415 14.7368ZM20.1341 14.7368L20.753 15.3664L21.0624 14.7439L20.1412 13.8068L19.8317 14.1216L19.9232 14.3934C19.9654 14.5222 20.0357 14.6438 20.1341 14.7368Z" fill="#966446"/>
<path d="M16.7654 10.0727L20.1411 13.5065C20.2255 13.5923 20.2255 13.7354 20.1411 13.8212L19.9863 13.9786L19.3746 13.3562L16.9201 10.5448L16.6108 10.2301L16.7654 10.0727Z" fill="#B9B9B9"/>
<path d="M19.3114 12.97C19.3536 13.0129 19.3747 13.0701 19.3747 13.1274V13.3491L16.9203 10.5378L19.3114 12.97Z" fill="#966446"/>
<path d="M16.6181 10.2227L16.7654 10.0727L16.9205 10.2227L16.7658 10.3802L16.6181 10.5375L14.9302 8.50592L16.6181 10.2227Z" fill="#A0A0A0"/>
<path d="M16.3997 15.2449C16.3436 15.1948 16.3436 15.109 16.3928 15.0518L16.7162 14.6869C16.7655 14.6296 16.8499 14.6296 16.9062 14.6797C16.9624 14.7298 16.9624 14.8157 16.9132 14.8729L16.5897 15.2378C16.5404 15.2949 16.456 15.2949 16.3997 15.2449Z" fill="#FFE15A"/>
<path d="M16.7097 14.4934L16.6183 14.5363C16.541 14.5793 16.33 14.6937 16.2948 14.8654C16.2807 14.9441 16.3019 15.0227 16.3651 15.1015C16.3722 15.0871 16.3792 15.0728 16.3933 15.0586L16.4355 15.0156C16.4073 14.9727 16.3933 14.9369 16.4003 14.894C16.4214 14.7867 16.5621 14.6937 16.6465 14.6437L17.0403 15.0085L17.1387 14.9012L16.7097 14.4934Z" fill="#FFC855"/>
<path d="M16.8285 14.6083L16.9833 14.7513C17.5389 14.129 18.5094 13.0488 20.0566 11.6396C20.0566 11.6396 18.7766 12.4408 16.8285 14.6083ZM19.3469 14.78L19.1922 14.923C18.6366 14.3007 17.6661 13.2204 16.1189 11.8112C16.126 11.8112 17.3988 12.6124 19.3469 14.78Z" fill="#B9B9B9"/>
<path d="M19.7754 15.4165C19.8317 15.3665 19.8317 15.2806 19.7825 15.2234L19.459 14.8586C19.4098 14.8013 19.3254 14.8013 19.2691 14.8514C19.2128 14.9015 19.2128 14.9873 19.2621 15.0446L19.5856 15.4094C19.6349 15.4666 19.7193 15.4666 19.7754 15.4165Z" fill="#FFE15A"/>
<path d="M19.4728 14.6651L19.5642 14.708C19.6415 14.7509 19.8525 14.8654 19.8878 15.0371C19.9018 15.1158 19.8807 15.1944 19.8174 15.2731C19.8103 15.2588 19.8034 15.2445 19.7893 15.2301L19.7471 15.1873C19.7752 15.1443 19.7893 15.1086 19.7822 15.0657C19.7612 14.9583 19.6205 14.8654 19.5361 14.8153L19.1423 15.1801L19.0438 15.0728L19.4728 14.6651Z" fill="#FFC855"/>
<path d="M18.158 9.04257C18.172 9.01396 18.179 8.9782 18.179 8.94242C18.179 8.79936 18.0666 8.6849 17.9259 8.6849C17.7852 8.6849 17.6727 8.79936 17.6727 8.94242C17.6727 9.02827 17.7149 9.10696 17.7782 9.14989C17.6868 9.90816 18.4182 9.96539 18.6995 10.0727C19.1214 10.23 19.6559 10.5591 19.6208 11.4676C19.5856 12.3475 19.037 13.206 19.037 13.206L19.4942 12.5765C19.3254 13.2918 18.9386 14.2075 18.0103 15.2948C18.0103 15.2948 18.6432 14.6653 19.1706 13.857C18.7838 14.7869 18.3549 15.6454 18.3549 15.6454C18.3549 15.6454 19.1144 14.6367 19.7332 12.8983C20.4717 10.7738 18.8964 9.50756 18.158 9.04257Z" fill="#69B469"/>
<path d="M16.8081 12.1612H17.4905V12.5118H16.8081V12.1612Z" fill="#F4E08F"/>
<path d="M16.8077 12.8553C16.9981 12.8553 17.1523 12.6983 17.1523 12.5048C17.1523 12.3112 16.9981 12.1542 16.8077 12.1542C16.6174 12.1542 16.4631 12.3112 16.4631 12.5048C16.4631 12.6983 16.6174 12.8553 16.8077 12.8553ZM16.8077 10.5948C16.9981 10.5948 17.1523 10.4379 17.1523 10.2443C17.1523 10.0507 16.9981 9.89374 16.8077 9.89374C16.6174 9.89374 16.4631 10.0507 16.4631 10.2443C16.4631 10.4379 16.6174 10.5948 16.8077 10.5948Z" fill="#ECD077"/>
<path d="M18.8542 10.5948C19.0441 10.5948 19.1988 10.4375 19.1988 10.2443C19.1988 10.0511 19.0441 9.89374 18.8542 9.89374H16.8077C16.9981 9.89374 17.1523 10.0507 17.1523 10.2443C17.1523 10.4379 16.9981 10.5948 16.8077 10.5948C16.6174 10.5948 16.4631 10.4379 16.4631 10.2443C16.4631 10.8308 16.9413 11.5319 17.096 12.1542C17.096 12.1542 17.1453 12.3117 17.1453 12.5048C17.1453 12.6979 16.9906 12.8553 16.8007 12.8553H18.8542C19.0441 12.8553 19.1988 12.6979 19.1988 12.5048C19.1988 11.9182 18.7206 11.2171 18.5658 10.5948H18.8542Z" fill="#FCF0A8"/>
<path d="M17.1523 10.2443C17.1523 10.4379 16.9981 10.5948 16.8077 10.5948L18.8615 10.5949C19.0514 10.5949 19.2061 10.4376 19.2061 10.2444L17.1523 10.2443ZM17.1523 12.5048C17.1523 12.6983 16.9981 12.8553 16.8077 12.8553L18.8615 12.8554C19.0514 12.8554 19.2061 12.698 19.2061 12.5049L17.1523 12.5048Z" fill="#F4E08F"/>
</g>
<defs>
<clipPath id="clip0_865_3751">
<rect width="36" height="24" fill="white"/>
</clipPath>
</defs>
</svg>
