<svg width="36" height="24" viewBox="0 0 36 24" fill="none" xmlns="http://www.w3.org/2000/svg">
<g clip-path="url(#clip0_865_4058)">
<path d="M36 8.00008H0V0.629702C0 0.279073 0.28125 0 0.618751 0H35.3743C35.7188 0 35.993 0.286228 35.993 0.629702L36 8.00008Z" fill="#F5F5F5"/>
<path d="M0 8.00008H36V16.0001H0V8.00008ZM12.0938 4.9446C12.0938 4.9446 11.9672 8.99473 11.4118 10.1325C10.7227 11.5278 10.0266 11.9357 8.99301 12.315C7.95942 11.9357 7.26332 11.5278 6.57426 10.1325C6.01879 8.99473 5.89223 4.9446 5.89223 4.9446C7.86097 4.03583 10.118 4.03583 12.0938 4.9446Z" fill="#41479B"/>
<path d="M35.3813 24H0.618751C0.274219 24 0 23.7138 0 23.3703V16.0001H36V23.3703C36 23.7209 35.7188 24 35.3813 24Z" fill="#FF4B55"/>
<path d="M11.7349 4.78691C11.7349 4.9014 11.742 5.00874 11.742 5.13039C11.6927 6.39695 11.51 9.15905 11.1021 9.98911C10.5045 11.2056 9.95602 11.6064 8.9857 11.9784C8.01539 11.6064 7.46695 11.2056 6.87632 9.98911C6.4685 9.15189 6.28569 6.34686 6.23647 5.13039C6.23647 5.00874 6.23647 4.89425 6.24351 4.78691C6.12398 4.837 6.00445 4.88709 5.88492 4.93718C5.89195 5.18048 5.95523 6.79767 6.13101 8.21449C6.22944 9.00878 6.37007 9.73866 6.56695 10.1251C7.25601 11.5276 7.95211 11.9283 8.9857 12.3076C10.0193 11.9283 10.7154 11.5204 11.4044 10.1251C11.5943 9.73866 11.7349 9.00878 11.8404 8.21449C12.0232 6.79767 12.0794 5.18048 12.0865 4.93718C11.974 4.88709 11.8545 4.837 11.7349 4.78691Z" fill="#FF1722"/>
<path d="M7.95928 5.47383C8.11461 5.47383 8.24052 5.34568 8.24052 5.18761C8.24052 5.02952 8.11461 4.90137 7.95928 4.90137C7.80395 4.90137 7.67803 5.02952 7.67803 5.18761C7.67803 5.34568 7.80395 5.47383 7.95928 5.47383ZM9.99865 5.47383C10.154 5.47383 10.2798 5.34568 10.2798 5.18761C10.2798 5.02952 10.154 4.90137 9.99865 4.90137C9.84328 4.90137 9.71735 5.02952 9.71735 5.18761C9.71735 5.34568 9.84328 5.47383 9.99865 5.47383ZM8.97894 6.49031C9.13427 6.49031 9.26019 6.36216 9.26019 6.20408C9.26019 6.046 9.13427 5.91785 8.97894 5.91785C8.82361 5.91785 8.69769 6.046 8.69769 6.20408C8.69769 6.36216 8.82361 6.49031 8.97894 6.49031Z" fill="#FFE15A"/>
<path d="M10.9479 9.33818L10.0197 7.77108L9.67521 8.47233L8.98615 7.06982L8.29708 8.47233L7.95254 7.77108L7.03145 9.34533C7.06661 9.4813 7.10177 9.59578 7.13693 9.69596C7.13693 9.69596 7.20723 9.84623 7.29864 10.0323C7.30568 10.0394 7.30568 10.0466 7.31271 10.0538C7.43224 10.2828 7.58692 10.5547 7.72052 10.6835C8.10021 11.1485 8.49396 11.3704 8.98615 11.5636C9.47833 11.3704 9.87209 11.1485 10.2518 10.6835C10.308 10.6119 10.3924 10.5046 10.4768 10.3757C10.4908 10.3471 10.512 10.3185 10.533 10.2899C10.6596 10.0895 10.7862 9.86055 10.8424 9.68881C10.8775 9.58863 10.9197 9.47413 10.9479 9.33818Z" fill="#F5F5F5"/>
</g>
<defs>
<clipPath id="clip0_865_4058">
<rect width="36" height="24" fill="white"/>
</clipPath>
</defs>
</svg>
