<svg width="36" height="24" viewBox="0 0 36 24" fill="none" xmlns="http://www.w3.org/2000/svg">
<g clip-path="url(#clip0_865_3764)">
<path d="M35.3793 24H0.620717C0.277945 24 0 23.7171 0 23.3684V0.631607C0 0.28282 0.277945 0 0.620717 0H35.3793C35.7221 0 36 0.28282 36 0.631607V23.3684C35.9999 23.7172 35.722 24 35.3793 24Z" fill="#FF4B55"/>
<path fill-rule="evenodd" clip-rule="evenodd" d="M13.3529 11.8143C14.1227 12.6778 15.0014 12.9329 15.7838 12.9247C16.3226 12.919 16.8132 12.7882 17.1942 12.6455C13.3336 15.7043 9.57323 11.4502 10.8237 8.01213C10.85 7.94037 10.952 7.94502 10.9699 8.0195C11.0693 8.43511 11.3889 9.18398 12.3923 9.0293C13.4058 8.87297 14.0495 8.85029 14.7648 9.77666C15.0707 10.1729 15.158 10.5402 15.2404 10.8871C15.3518 11.3563 15.4544 11.7884 16.0776 12.2052C16.337 12.3788 16.7404 12.4033 17.0614 12.3888C16.1924 12.7055 14.7379 12.9352 13.5645 11.6239C13.5127 11.5661 13.4262 11.5584 13.3678 11.6088C13.3074 11.6608 13.2997 11.7548 13.3529 11.8143ZM12.8402 11.7543C12.8587 11.8168 12.9449 11.8193 12.9669 11.7579L13.1365 11.2836L13.6324 11.2935C13.6966 11.2947 13.7255 11.2121 13.6749 11.1719L13.2841 10.8612L13.4465 10.3844C13.4676 10.3226 13.3993 10.2692 13.346 10.3058L12.9349 10.5879L12.5394 10.2834C12.4883 10.2441 12.4172 10.2936 12.4349 10.3564L12.5715 10.8415L12.1647 11.1301C12.112 11.1675 12.1364 11.2515 12.2005 11.2538L12.6962 11.2714L12.8402 11.7543ZM21.1534 10.0453C20.0284 9.82424 19.1751 10.1563 18.5538 10.6404C18.1259 10.9737 17.8103 11.3778 17.5898 11.7243C18.8763 6.9207 24.3927 8.03016 25.4182 11.5445C25.4397 11.6179 25.3552 11.6764 25.2971 11.6277C24.9727 11.3558 24.2754 10.9516 23.5637 11.6877C22.8447 12.4313 22.3431 12.8421 21.2247 12.5374C20.7462 12.407 20.46 12.1664 20.1896 11.939C19.8238 11.6315 19.487 11.3484 18.7428 11.3951C18.433 11.4146 18.0956 11.641 17.8473 11.8486C18.3559 11.0648 19.3846 9.99352 21.0964 10.3267C21.1718 10.3414 21.2456 10.2949 21.2627 10.2188C21.2802 10.1404 21.2309 10.0606 21.1534 10.0453ZM21.5991 9.78033C21.5473 9.74168 21.477 9.79235 21.4957 9.85487L21.6395 10.3379L21.2369 10.6327C21.1847 10.6708 21.2103 10.7544 21.2745 10.7558L21.7703 10.7659L21.9214 11.2466C21.941 11.3088 22.027 11.3099 22.0482 11.2482L22.2109 10.7714L22.7067 10.7738C22.7709 10.7741 22.7986 10.6911 22.7474 10.6516L22.3521 10.3468L22.5076 9.86761C22.5277 9.80558 22.4587 9.75313 22.406 9.79048L21.9989 10.0788L21.5991 9.78033ZM16.5653 8.26176C16.0735 9.31477 16.1762 10.2384 16.4814 10.9716C16.6915 11.4766 16.9971 11.8886 17.2717 12.1926C13.0227 9.72372 15.4582 4.56649 19.0587 4.43506C19.1339 4.43234 19.1684 4.53014 19.1076 4.57522C18.7677 4.82692 18.2086 5.41266 18.731 6.29797C19.2587 7.19222 19.5242 7.78919 18.9545 8.81481C18.7108 9.25363 18.4102 9.47546 18.1262 9.68503C17.7422 9.96844 17.3886 10.2294 17.2469 10.9744C17.188 11.2846 17.3191 11.6734 17.4544 11.9701C16.8359 11.2729 16.0738 9.99159 16.819 8.3884C16.8516 8.31785 16.8259 8.23342 16.7578 8.19758C16.6876 8.16059 16.5993 8.18914 16.5653 8.26176ZM16.425 7.75623C16.3752 7.79751 16.4057 7.8795 16.47 7.87678L16.9653 7.85603L17.1451 8.3263C17.1683 8.38719 17.2544 8.3829 17.2717 8.32001L17.4053 7.83407L17.9005 7.80552C17.9645 7.8018 17.9872 7.71724 17.9337 7.68104L17.521 7.4015L17.6472 6.91356C17.6636 6.85032 17.5915 6.80231 17.5412 6.84287L17.1524 7.15603L16.7352 6.88301C16.6814 6.84767 16.6141 6.90261 16.6365 6.96386L16.809 7.43699L16.425 7.75623ZM20.6587 14.9598C20.5117 13.8036 19.9338 13.0835 19.287 12.6354C18.8417 12.3268 18.3657 12.1489 17.9726 12.0446C22.8585 11.7788 23.5559 17.4563 20.5991 19.5508C20.5374 19.5946 20.4563 19.5315 20.4834 19.46C20.6353 19.061 20.7934 18.2606 19.8831 17.8041C18.9635 17.3432 18.4225 16.9876 18.3557 15.8115C18.327 15.3083 18.4617 14.9562 18.5889 14.6235C18.7608 14.1737 18.9192 13.7593 18.6418 13.0551C18.5263 12.7618 18.2091 12.5071 17.9375 12.3324C18.8286 12.5776 20.1513 13.2348 20.378 14.9931C20.3881 15.0705 20.4546 15.1273 20.531 15.1198C20.6096 15.1122 20.669 15.0396 20.6587 14.9598ZM21.046 15.3074C21.0658 15.2453 20.9964 15.1932 20.944 15.2307L20.5385 15.5212L20.1371 15.2248C20.0851 15.1864 20.0151 15.2374 20.034 15.2998L20.1803 15.7821L19.7792 16.079C19.7273 16.1174 19.7533 16.201 19.8175 16.202L20.3133 16.2095L20.467 16.6893C20.4868 16.7514 20.573 16.7521 20.5937 16.6903L20.7539 16.2127L21.2499 16.2124C21.314 16.2123 21.3412 16.1292 21.2899 16.09L20.893 15.7873L21.046 15.3074ZM15.9104 16.0991C16.9482 15.6047 17.4463 14.8255 17.6692 14.0622C17.8226 13.5366 17.8442 13.021 17.8222 12.6087C19.5577 17.2638 14.4549 19.6672 11.5943 17.4385C11.5347 17.392 11.5692 17.2942 11.6443 17.2988C12.0639 17.3245 12.8614 17.2342 13.0117 16.213C13.1635 15.1813 13.3317 14.5488 14.4124 14.1261C14.8748 13.9452 15.2454 13.9686 15.5955 13.9906C16.069 14.0204 16.5051 14.0479 17.08 13.5647C17.3194 13.3635 17.4612 12.9785 17.5421 12.662C17.5838 13.6004 17.3709 15.0824 15.7938 15.8372C15.7245 15.8705 15.6916 15.9523 15.7218 16.024C15.7529 16.0979 15.8389 16.1331 15.9104 16.0991ZM15.7031 16.5801C15.7674 16.5803 15.795 16.4974 15.7438 16.4579L15.3486 16.1532L15.5038 15.6741C15.5239 15.612 15.4548 15.5596 15.4022 15.5969L14.9952 15.8854L14.5952 15.587C14.5435 15.5484 14.4732 15.599 14.4918 15.6615L14.6357 16.1445L14.2332 16.4393C14.181 16.4775 14.2067 16.5612 14.2709 16.5625L14.7668 16.5725L14.918 17.0531C14.9375 17.1153 15.0237 17.1164 15.0448 17.0547L15.2073 16.5779L15.7031 16.5801Z" fill="#F5F5F5"/>
</g>
<defs>
<clipPath id="clip0_865_3764">
<rect width="36" height="24" fill="white"/>
</clipPath>
</defs>
</svg>
