<svg width="36" height="24" viewBox="0 0 36 24" fill="none" xmlns="http://www.w3.org/2000/svg">
<g clip-path="url(#clip0_865_3983)">
<path d="M35.388 24H0.618869C0.274271 24 0 23.7138 0 23.3704V0.629697C0 0.27907 0.281304 0 0.618869 0H35.381C35.7256 0 35.9999 0.286226 35.9999 0.629697V23.3704C36.0069 23.721 35.7256 24 35.388 24Z" fill="#FF4B55"/>
<path d="M13.0384 0H0.618869C0.274271 0 0 0.286226 0 0.629697V23.3704C0 23.721 0.281304 24 0.618869 24H13.0384V0Z" fill="#73AF00"/>
<path d="M13.0383 17.6816C16.1222 17.6816 18.6222 15.1379 18.6222 12C18.6222 8.86215 16.1222 6.31842 13.0383 6.31842C9.95441 6.31842 7.45443 8.86215 7.45443 12C7.45443 15.1379 9.95441 17.6816 13.0383 17.6816Z" fill="#FFE15A"/>
<path fill-rule="evenodd" clip-rule="evenodd" d="M10.5632 8.84442H15.5282C15.8657 8.84442 16.147 9.12349 16.147 9.47411V12.6298C16.147 14.3686 14.7545 15.7854 13.0456 15.7854C11.3368 15.7854 9.94427 14.3757 9.94427 12.6298V9.47411C9.94427 9.13064 10.2185 8.84442 10.5632 8.84442ZM14.9021 12.6298V10.1038H11.1818V12.6298C11.1818 13.6744 12.0117 14.526 13.0384 14.526C14.0652 14.526 14.9021 13.6744 14.9021 12.6298Z" fill="#FF4B55"/>
<path d="M10.5558 9.78864C10.7267 9.78864 10.8652 9.64767 10.8652 9.47379C10.8652 9.2999 10.7267 9.15894 10.5558 9.15894C10.3849 9.15894 10.2463 9.2999 10.2463 9.47379C10.2463 9.64767 10.3849 9.78864 10.5558 9.78864ZM15.5209 9.78864C15.6918 9.78864 15.8304 9.64767 15.8304 9.47379C15.8304 9.2999 15.6918 9.15894 15.5209 9.15894C15.35 9.15894 15.2115 9.2999 15.2115 9.47379C15.2115 9.64767 15.35 9.78864 15.5209 9.78864ZM10.5558 12.3146C10.7267 12.3146 10.8652 12.1737 10.8652 11.9998C10.8652 11.8258 10.7267 11.6849 10.5558 11.6849C10.3849 11.6849 10.2463 11.8258 10.2463 11.9998C10.2463 12.1737 10.3849 12.3146 10.5558 12.3146ZM15.5209 12.3146C15.6918 12.3146 15.8304 12.1737 15.8304 11.9998C15.8304 11.8258 15.6918 11.6849 15.5209 11.6849C15.35 11.6849 15.2115 11.8258 15.2115 11.9998C15.2115 12.1737 15.35 12.3146 15.5209 12.3146ZM13.0383 9.78864C13.2092 9.78864 13.3477 9.64767 13.3477 9.47379C13.3477 9.2999 13.2092 9.15894 13.0383 9.15894C12.8674 9.15894 12.7288 9.2999 12.7288 9.47379C12.7288 9.64767 12.8674 9.78864 13.0383 9.78864ZM14.9021 14.6473C15.073 14.6473 15.2115 14.5063 15.2115 14.3324C15.2115 14.1586 15.073 14.0177 14.9021 14.0177C14.7312 14.0177 14.5926 14.1586 14.5926 14.3324C14.5926 14.5063 14.7312 14.6473 14.9021 14.6473ZM11.21 14.6473C11.3809 14.6473 11.5194 14.5063 11.5194 14.3324C11.5194 14.1586 11.3809 14.0177 11.21 14.0177C11.039 14.0177 10.9006 14.1586 10.9006 14.3324C10.9006 14.5063 11.039 14.6473 11.21 14.6473Z" fill="#FFE15A"/>
<path d="M14.9021 10.1038V12.6298C14.9021 13.6744 14.0652 14.526 13.0384 14.526C12.0117 14.526 11.1818 13.6744 11.1818 12.6298V10.1038H14.9021Z" fill="#F5F5F5"/>
<path d="M13.439 11.8424V12.3861C13.439 12.6079 13.2561 12.7941 13.0381 12.7941C12.8201 12.7941 12.6373 12.6079 12.6373 12.3861V11.8424H13.439ZM13.439 10.5472V11.091C13.439 11.3128 13.2561 11.4989 13.0381 11.4989C12.8201 11.4989 12.6373 11.3128 12.6373 11.091V10.5472H13.439ZM13.439 13.1447V13.6885C13.439 13.9104 13.2561 14.0964 13.0381 14.0964C12.8201 14.0964 12.6373 13.9104 12.6373 13.6885V13.1447H13.439ZM14.5223 11.8424V12.3861C14.5223 12.6079 14.3394 12.7941 14.1214 12.7941C13.9034 12.7941 13.7205 12.6079 13.7205 12.3861V11.8424H14.5223ZM12.3631 11.8424V12.3861C12.3631 12.6079 12.1802 12.7941 11.9622 12.7941C11.7442 12.7941 11.5613 12.6079 11.5613 12.3861V11.8424H12.3631Z" fill="#41479B"/>
</g>
<defs>
<clipPath id="clip0_865_3983">
<rect width="36" height="24" fill="white"/>
</clipPath>
</defs>
</svg>
