<svg width="36" height="24" viewBox="0 0 36 24" fill="none" xmlns="http://www.w3.org/2000/svg">
<g clip-path="url(#clip0_865_4088)">
<path d="M0.618754 24H35.3745C35.719 24 35.9932 23.7138 35.9932 23.3704V0.629697C35.9932 0.27907 35.7119 0 35.3745 0H0.618754C0.27422 0 0 0.286226 0 0.629697V23.3704C0 23.721 0.281252 24 0.618754 24Z" fill="#C8414B"/>
<path d="M0 5.05154H36V18.9474H0V5.05154Z" fill="#FFD250"/>
<path d="M12.1005 12.6295C11.756 12.6295 11.4818 12.3433 11.4818 11.9998V11.37C11.4818 11.0194 11.7631 10.7404 12.1005 10.7404C12.4451 10.7404 12.7193 11.0266 12.7193 11.37V11.9998C12.7263 12.3504 12.4451 12.6295 12.1005 12.6295Z" fill="#FFA0D2"/>
<path d="M10.554 13.2667V10.1111H8.07198C7.73448 10.1111 7.45323 10.3902 7.45323 10.7408V12.0002H4.96415V12.6299H7.45323V13.2667H8.07198V16.0932C8.24777 16.2363 8.4587 16.3436 8.69073 16.3866V13.2667H9.30949V16.3937C9.54152 16.3436 9.75246 16.2363 9.92825 16.1004V13.2667H10.547V14.8481C10.547 15.7211 11.2431 16.4296 12.1009 16.4296C12.9587 16.4296 13.6549 15.7211 13.6549 14.8481V13.2667H10.554ZM4.96415 14.5262L6.82744 13.8964V13.2667L4.96415 13.8964V14.5262ZM14.801 10.104H15.6237L15.7362 9.58872C15.7854 9.36689 15.6167 9.15938 15.3987 9.15938H15.026C14.801 9.15938 14.6393 9.36689 14.6886 9.58872L14.801 10.104ZM14.9347 10.7336L15.2089 12.0002L15.4832 10.7336H14.9347ZM13.0358 12.0002H16.1367V12.6299H13.0358V12.0002ZM8.69035 9.47423L8.0716 8.84454L8.43723 8.47244C8.99973 7.9 9.75911 7.578 10.5536 7.578C11.3482 7.578 12.1075 7.9 12.67 8.47244L13.0357 8.84454L12.417 9.47423H8.69035Z" fill="#C8414B"/>
<path d="M4.65486 16.422H7.13692V17.0516H4.65486V16.422ZM13.9639 16.422H16.446V17.0516H13.9639V16.422ZM10.554 14.2109C11.0665 14.2109 11.4821 13.7881 11.4821 13.2663C11.4821 12.7447 11.0665 12.3218 10.554 12.3218C10.0414 12.3218 9.62584 12.7447 9.62584 13.2663C9.62584 13.7881 10.0414 14.2109 10.554 14.2109Z" fill="#5064AA"/>
<path fill-rule="evenodd" clip-rule="evenodd" d="M11.1725 13.8964H13.0358L13.0287 14.8409C13.0287 15.3634 12.614 15.7855 12.1006 15.7855C11.5873 15.7855 11.1725 15.3634 11.1725 14.8409V13.8964ZM12.4174 14.8409V14.5261H11.7986V14.8409C11.7986 15.0127 11.9392 15.1558 12.1079 15.1558C12.2767 15.1558 12.4174 15.0127 12.4174 14.8409Z" fill="#FAB446"/>
<path d="M9.93491 11.3632V10.7335H8.07162V11.3632H8.381V12.0001H8.07162V12.6298H9.93491V12.0001H9.62554V11.3632H9.93491Z" fill="#FAB446"/>
</g>
<defs>
<clipPath id="clip0_865_4088">
<rect width="36" height="24" fill="white"/>
</clipPath>
</defs>
</svg>
