<svg width="36" height="24" viewBox="0 0 36 24" fill="none" xmlns="http://www.w3.org/2000/svg">
<g clip-path="url(#clip0_865_3840)">
<path d="M36 12.0001H0V0.629697C0 0.27907 0.28125 0 0.618751 0H35.3743C35.7188 0 35.993 0.286226 35.993 0.629697L36 12.0001Z" fill="#41479B"/>
<path d="M0 12.0001H36V23.3703C36 23.7209 35.7188 24 35.3813 24H0.618751C0.274219 24 0 23.7138 0 23.3703V12.0001Z" fill="#FF4B55"/>
<path d="M8.10101 4.75143C8.10101 4.74427 8.09389 4.74427 8.09389 4.74427C8.09389 4.74427 8.09389 4.74427 8.08677 4.75143C8.09389 4.75143 8.09389 4.75143 8.10101 4.75143ZM7.07397 4.92316C7.27977 4.92316 7.44662 4.75337 7.44662 4.54391C7.44662 4.33446 7.27977 4.16467 7.07397 4.16467C6.86815 4.16467 6.70131 4.33446 6.70131 4.54391C6.70131 4.75337 6.86815 4.92316 7.07397 4.92316ZM10.758 7.21297C10.758 7.14142 10.758 7.06986 10.758 6.99831C10.7651 6.99831 10.7792 6.99831 10.7862 6.99831C11.0393 6.47595 11.0183 5.80332 10.7229 5.31673C10.5542 5.03766 10.2237 4.7085 9.612 4.7085C9.00731 4.7085 7.21434 5.15215 7.1581 5.16646H6.98934C6.92606 5.15215 5.12606 4.72281 4.53544 4.72281C3.92372 4.72281 3.59325 5.05197 3.4245 5.33104C3.14324 5.78185 3.10809 6.41869 3.31902 6.92675C3.33309 6.95537 3.36825 7.12711 3.37527 7.18435C3.14324 7.1772 2.93231 7.22729 2.81277 7.26306C2.98153 7.55645 3.47372 8.49383 3.67763 9.467C4.0784 9.26664 5.44246 9.11637 7.06668 9.11637C8.69091 9.11637 10.055 9.26664 10.4557 9.467C10.6597 8.49383 11.1519 7.55645 11.3206 7.29168C11.2081 7.25591 10.9902 7.19867 10.758 7.21297ZM7.60072 3.14141H7.20696V2.66198H6.92572V3.14141H6.4968V3.42764H6.92572V3.95H7.20696V3.42764H7.60072V3.14141Z" fill="#FFE15A"/>
<path d="M3.43817 8.16451L4.07801 8.91586L3.86707 7.67078L3.43817 8.16451ZM4.76042 7.84966L5.40027 8.601L5.18933 7.35592L4.76042 7.84966ZM10.6874 8.16451L10.0546 8.91586L10.2656 7.67078L10.6874 8.16451ZM9.37296 7.84966L8.73311 8.601L8.94405 7.35592L9.37296 7.84966ZM6.61646 7.48473L7.06646 8.66541L7.53052 7.54912L6.61646 7.48473Z" fill="#41479B"/>
</g>
<defs>
<clipPath id="clip0_865_3840">
<rect width="36" height="24" fill="white"/>
</clipPath>
</defs>
</svg>
