<svg width="36" height="24" viewBox="0 0 36 24" fill="none" xmlns="http://www.w3.org/2000/svg">
<g clip-path="url(#clip0_865_3806)">
<path d="M0.618754 24H35.3814C35.719 24 36.0002 23.721 35.9932 23.3704V19.585H0V23.3704C0 23.7138 0.27422 24 0.618754 24ZM0 4.42221V0.629697C0 0.27907 0.281252 0 0.618754 0H35.3745C35.719 0 35.9932 0.286226 35.9932 0.629697V4.42221H0Z" fill="#41479B"/>
<path d="M0 4.42221L36 4.42242V19.5855L0 19.585V4.42221Z" fill="#F5F5F5"/>
<path fill-rule="evenodd" clip-rule="evenodd" d="M22.8379 9.15921L21.2278 12L22.8379 14.8408H19.6106L18.0004 17.6816L16.3902 14.8408H13.1629L14.7731 12L13.1629 9.15921H16.3902L18.0004 6.31842L19.6106 9.15921H22.8379ZM20.7003 11.0698L21.2559 10.0894H20.1448L20.7003 11.0698ZM20.1735 12.0001L19.0907 13.9106H16.918L15.8281 12.0001L16.9109 10.0894H19.0836L20.1735 12.0001ZM18.5555 9.15205L18.0001 8.17173L17.4376 9.15205H18.5555ZM14.745 10.0894H15.863L15.3075 11.0698L14.745 10.0894ZM15.3005 12.9302L14.745 13.9106H15.856L15.3005 12.9302ZM18.0004 15.8283L17.445 14.8479H18.5629L18.0004 15.8283ZM21.2562 13.9106L20.7007 12.9302L20.1383 13.9106H21.2562Z" fill="#41479B"/>
</g>
<defs>
<clipPath id="clip0_865_3806">
<rect width="36" height="24" fill="white"/>
</clipPath>
</defs>
</svg>
