<svg width="36" height="24" viewBox="0 0 36 24" fill="none" xmlns="http://www.w3.org/2000/svg">
<g clip-path="url(#clip0_865_3925)">
<path d="M35.388 24H0.618869C0.274271 24 0 23.7138 0 23.3704V0.629697C0 0.27907 0.281304 0 0.618869 0H35.381C35.7256 0 35.9999 0.286226 35.9999 0.629697V23.3704C36.0069 23.721 35.7256 24 35.388 24Z" fill="#41479B"/>
<path d="M17.3846 0H16.3086L10.556 3.83543V0H7.45455V3.83543L1.70189 0H0.618869C0.274271 0 0 0.286226 0 0.629697V1.1306L4.93688 4.42219H0V7.57783H4.93688L0 10.8694V11.3703C0 11.721 0.281304 12.0001 0.618869 12.0001H1.69486L7.44752 8.16459V12.0001H10.5489V8.16459L16.3016 12.0001H17.3776C17.7222 12.0001 17.9964 11.7137 17.9964 11.3703V10.8694L13.0596 7.57783H18.0034V4.42219H13.0666L18.0034 1.1306V0.629697C18.0034 0.27907 17.7222 0 17.3846 0Z" fill="#F5F5F5"/>
<path d="M18.0034 5.05188H9.93003V0H8.07342V5.05188H0V6.94813H8.07342V12.0001H9.93003V6.94813H18.0034V5.05188ZM6.82865 4.42218L0.295369 0.107324C0.119554 0.214659 0 0.407871 0 0.629697V0.665465L5.68937 4.42218H6.82865ZM11.695 4.42219L17.9118 0.314848C17.8064 0.128802 17.6167 0 17.3846 0H17.2508L10.5558 4.42219H11.695ZM6.29431 7.57783L0.0915627 11.678C0.197052 11.8712 0.393964 12.0001 0.62604 12.0001H0.745594L7.44063 7.57783H6.29431ZM17.9961 11.4204L12.1802 7.57783H11.0409L17.6445 11.9356C17.8414 11.8426 17.975 11.6494 17.9961 11.4204ZM27.8138 20.0215C27.7857 20.0215 27.7646 20.0143 27.7436 20.0001L27.0122 19.4633L26.2808 20.0001C26.2596 20.0143 26.2316 20.0215 26.2104 20.0215C26.1823 20.0215 26.1612 20.0143 26.1401 20.0001C26.0979 19.9714 26.0768 19.9141 26.0979 19.8569L26.3722 18.9839L25.6478 18.4401C25.6056 18.4043 25.5846 18.3542 25.6056 18.297C25.6197 18.2469 25.6689 18.2111 25.7252 18.2111L26.6254 18.2039L26.9137 17.331C26.9278 17.2809 26.977 17.2451 27.0332 17.2451C27.0895 17.2451 27.1317 17.2809 27.1529 17.331L27.4412 18.2039L28.3413 18.2111C28.3976 18.2111 28.4398 18.2469 28.4608 18.297C28.4749 18.3471 28.4608 18.4043 28.4186 18.4401L27.6943 18.9839L27.9686 19.8569C27.9826 19.907 27.9686 19.9642 27.9264 20.0001C27.8631 20.0143 27.835 20.0215 27.8138 20.0215ZM27.8142 9.83901C27.7861 9.83901 27.765 9.83185 27.7439 9.81754L27.0055 9.28087L26.2741 9.81754C26.253 9.83185 26.2249 9.83901 26.2038 9.83901C26.1756 9.83901 26.1546 9.83185 26.1335 9.81754C26.0913 9.78892 26.0702 9.73167 26.0913 9.67443L26.3656 8.80144L25.6412 8.25761C25.599 8.22184 25.5779 8.17175 25.5989 8.1145C25.613 8.06441 25.6623 8.02863 25.7186 8.02863L26.6187 8.02148L26.907 7.14849C26.9211 7.0984 26.9704 7.06262 27.0266 7.06262C27.0829 7.06262 27.125 7.0984 27.1462 7.14849L27.4345 8.02148L28.3347 8.02863C28.3909 8.02863 28.4331 8.06441 28.4542 8.1145C28.4683 8.16458 28.4542 8.22184 28.412 8.25761L27.6877 8.80144L27.962 9.67443C27.976 9.72452 27.962 9.78176 27.9198 9.81754C27.8635 9.83185 27.8354 9.83901 27.8142 9.83901ZM32.1603 12.9946C32.1321 12.9946 32.111 12.9875 32.0899 12.9732L31.3585 12.4365L30.6271 12.9732C30.6061 12.9875 30.5779 12.9946 30.5568 12.9946C30.5286 12.9946 30.5076 12.9875 30.4864 12.9732C30.4442 12.9445 30.4232 12.8873 30.4442 12.83L30.7185 11.9571L29.9942 11.4132C29.952 11.3774 29.9309 11.3274 29.952 11.2702C29.966 11.2201 30.0153 11.1843 30.0715 11.1843L30.9717 11.1771L31.26 10.3041C31.2741 10.254 31.3233 10.2183 31.3796 10.2183C31.4358 10.2183 31.478 10.254 31.4992 10.3041L31.7875 11.1771L32.6876 11.1843C32.7439 11.1843 32.7861 11.2201 32.8073 11.2702C32.8213 11.3202 32.8073 11.3774 32.7651 11.4132L32.0406 11.9571L32.3149 12.83C32.329 12.8801 32.3149 12.9374 32.2727 12.9732C32.2094 12.9875 32.1813 12.9946 32.1603 12.9946ZM23.4675 14.2612C23.4393 14.2612 23.4183 14.2541 23.3971 14.2398L22.6658 13.7031L21.9344 14.2398C21.9133 14.2541 21.8851 14.2612 21.8641 14.2612C21.836 14.2612 21.8149 14.2541 21.7938 14.2398C21.7516 14.2111 21.7305 14.1539 21.7516 14.0966L22.0258 13.2236L21.3015 12.6798C21.2593 12.644 21.2381 12.5939 21.2593 12.5367C21.2734 12.4866 21.3225 12.4509 21.3788 12.4509L22.279 12.4437L22.5674 11.5707C22.5814 11.5206 22.6306 11.4848 22.6869 11.4848C22.7432 11.4848 22.7854 11.5206 22.8064 11.5707L23.0947 12.4437L23.995 12.4509C24.0512 12.4509 24.0934 12.4866 24.1145 12.5367C24.1286 12.5868 24.1145 12.644 24.0723 12.6798L23.348 13.2236L23.6222 14.0966C23.6363 14.1467 23.6222 14.204 23.58 14.2398C23.5168 14.2541 23.4886 14.2612 23.4675 14.2612Z" fill="#FF4B55"/>
</g>
<defs>
<clipPath id="clip0_865_3925">
<rect width="36" height="24" fill="white"/>
</clipPath>
</defs>
</svg>
