<svg width="36" height="24" viewBox="0 0 36 24" fill="none" xmlns="http://www.w3.org/2000/svg">
<g clip-path="url(#clip0_865_3397)">
<path d="M36 8.00001H0V0.629697C0 0.27907 0.28125 0 0.618751 0H35.3743C35.7188 0 35.993 0.286226 35.993 0.629697L36 8.00001ZM35.3813 24H0.618751C0.274219 24 0 23.7138 0 23.3704V16H36V23.3704C36 23.721 35.7188 24 35.3813 24Z" fill="#82AFFF"/>
<path d="M0 8.00001H36V16H0V8.00001Z" fill="#F5F5F5"/>
<path d="M20.3697 12.7443C20.201 12.6727 20.0954 12.6727 20.0041 12.6727C19.9268 12.6727 19.8705 12.6727 19.7509 12.6226C19.6385 12.5725 19.5892 12.5296 19.54 12.4795C19.526 12.4652 19.5119 12.4509 19.4908 12.4365C19.5189 12.3436 19.533 12.2434 19.547 12.1432H21.108L21.1009 11.8427H19.547C19.54 11.7425 19.5189 11.6494 19.4908 11.5564C19.5682 11.5564 19.6665 11.5421 19.8002 11.4848C19.9689 11.4133 20.0463 11.3418 20.1095 11.2702C20.1658 11.213 20.208 11.17 20.3205 11.1271C20.433 11.077 20.4962 11.077 20.5737 11.077C20.665 11.077 20.7705 11.077 20.9392 11.0054L20.8197 10.7121C20.7072 10.7621 20.6439 10.7621 20.5666 10.7621C20.4752 10.7621 20.3697 10.7621 20.201 10.8337C20.0322 10.9052 19.9549 10.9768 19.8916 11.0484C19.8353 11.1056 19.7931 11.1485 19.6806 11.1915C19.5682 11.2416 19.5048 11.2416 19.4275 11.2416C19.4064 11.2416 19.3853 11.2416 19.3642 11.2416C19.315 11.1556 19.2658 11.0698 19.2025 10.9983L20.2993 9.88198L20.0814 9.66016L18.9845 10.7765C18.9072 10.7121 18.8298 10.6548 18.7385 10.6119C18.7947 10.5546 18.851 10.4759 18.9072 10.34C18.9776 10.1682 18.9776 10.0609 18.9776 9.96786C18.9776 9.88914 18.9776 9.83189 19.0267 9.71025C19.0759 9.59576 19.1181 9.55282 19.1674 9.49558C19.2306 9.43118 19.308 9.35247 19.3782 9.18073L19.09 9.05908C19.0408 9.17358 18.9986 9.21651 18.9494 9.27376C18.8861 9.33815 18.8088 9.41687 18.7385 9.5886C18.6681 9.76034 18.6681 9.86768 18.6681 9.96069C18.6681 10.0395 18.6681 10.0967 18.6189 10.2183C18.5697 10.3328 18.5275 10.3829 18.4783 10.433C18.4642 10.4473 18.4502 10.4616 18.429 10.483C18.3377 10.4544 18.2392 10.4402 18.1478 10.4258V8.84442H17.8384V10.4258C17.7401 10.433 17.6486 10.4544 17.5572 10.483C17.5572 10.4043 17.5431 10.3041 17.4869 10.1682C17.4166 9.99648 17.3462 9.91777 17.2759 9.85336C17.2197 9.79612 17.1775 9.75318 17.1353 9.63869C17.0861 9.5242 17.0861 9.4598 17.0861 9.38109C17.0861 9.28806 17.0861 9.18073 17.0158 9.00899L16.7275 9.13064C16.7768 9.24514 16.7768 9.30953 16.7768 9.38824C16.7768 9.48127 16.7768 9.5886 16.847 9.76034C16.9173 9.93207 16.9876 10.0108 17.058 10.0752C17.1142 10.1324 17.1564 10.1754 17.1986 10.2899C17.2478 10.4043 17.2478 10.4687 17.2478 10.5475C17.2478 10.5689 17.2478 10.5904 17.2478 10.619C17.1634 10.6691 17.0861 10.7192 17.0088 10.7836L15.9118 9.66732L15.6939 9.88914L16.7978 11.0126C16.7416 11.0841 16.6853 11.17 16.6361 11.2558C16.615 11.2558 16.6009 11.2558 16.5799 11.2558C16.5026 11.2558 16.4392 11.2558 16.3267 11.2057C16.2072 11.1556 16.165 11.1128 16.1087 11.0555C16.0455 10.9912 15.9681 10.9124 15.7923 10.8409C15.6236 10.7693 15.5181 10.7693 15.4267 10.7693C15.3493 10.7693 15.2861 10.7693 15.1736 10.7192L15.047 10.9983C15.2158 11.0698 15.3212 11.0698 15.4127 11.0698C15.49 11.0698 15.5533 11.0698 15.6657 11.1199C15.7853 11.17 15.8275 11.213 15.8837 11.2702C15.947 11.3346 16.0244 11.4133 16.2001 11.4848C16.3338 11.5421 16.4322 11.5564 16.5095 11.5564C16.4814 11.6494 16.4673 11.7425 16.4533 11.8427H14.8853V12.1574H16.4533C16.4604 12.2576 16.4814 12.3507 16.5095 12.4365C16.4955 12.4509 16.4744 12.4652 16.4604 12.4866C16.4041 12.5439 16.3619 12.5868 16.2423 12.6369C16.1228 12.687 16.0665 12.687 15.9892 12.687C15.8978 12.687 15.7923 12.687 15.6236 12.7585C15.4549 12.8301 15.3775 12.9088 15.3071 12.9732C15.2509 13.0305 15.2088 13.0734 15.0892 13.1235L15.2088 13.4169C15.3775 13.3454 15.4549 13.2666 15.5252 13.2022C15.5814 13.145 15.6236 13.102 15.7432 13.0519C15.8627 13.0018 15.9189 13.0018 15.9962 13.0018C16.0877 13.0018 16.1931 13.0018 16.3689 12.9231C16.5026 12.8659 16.5799 12.8086 16.6361 12.7514C16.6853 12.8373 16.7346 12.9231 16.7978 13.0018L15.701 14.1181L15.9189 14.3399L17.0158 13.2236C17.0932 13.2881 17.1705 13.3381 17.2549 13.3882C17.2549 13.4026 17.2549 13.424 17.2549 13.4383C17.2549 13.5171 17.2549 13.5815 17.2056 13.696C17.1564 13.8176 17.1142 13.8605 17.058 13.9178C16.9947 13.9822 16.9173 14.0608 16.847 14.2398C16.7768 14.4187 16.7768 14.5189 16.7768 14.6118C16.7768 14.6906 16.7768 14.755 16.7275 14.8695L17.0158 14.9911C17.0861 14.8194 17.0861 14.712 17.0861 14.619C17.0861 14.5403 17.0861 14.4759 17.1353 14.3614C17.1845 14.2398 17.2267 14.1969 17.283 14.1396C17.3462 14.0752 17.4236 13.9965 17.4939 13.8176C17.5501 13.6888 17.5572 13.5958 17.5642 13.5171C17.6557 13.5457 17.747 13.5599 17.8384 13.5743V15.1486H18.1478V13.5743C18.2463 13.5672 18.3447 13.5457 18.4431 13.5171C18.4502 13.5242 18.4642 13.5385 18.4712 13.5457C18.5275 13.6029 18.5697 13.6459 18.6189 13.7675C18.6681 13.8891 18.6681 13.9464 18.6681 14.0251C18.6681 14.1181 18.6681 14.2254 18.7385 14.3972C18.8088 14.5689 18.8861 14.6477 18.9494 14.7192C19.0057 14.7764 19.0478 14.8194 19.0971 14.941L19.3853 14.8194C19.315 14.6477 19.2377 14.5689 19.1744 14.4974C19.1181 14.4401 19.0759 14.3972 19.0267 14.2755C18.9776 14.1539 18.9776 14.0967 18.9776 14.018C18.9776 13.9249 18.9776 13.8176 18.9072 13.6459C18.858 13.5171 18.8017 13.4455 18.7525 13.3882C18.8369 13.3381 18.9142 13.2881 18.9916 13.2236L20.0814 14.3328L20.2993 14.1109L19.2096 13.0018C19.2728 12.9231 19.3221 12.8445 19.3713 12.7585C19.4275 12.8158 19.5048 12.873 19.6314 12.9231C19.8002 12.9947 19.9056 12.9947 19.997 12.9947C20.0744 12.9947 20.1307 12.9947 20.2502 13.0448C20.3627 13.0949 20.4049 13.1378 20.4611 13.1879C20.5244 13.2523 20.6017 13.331 20.7705 13.4026L20.8901 13.1091C20.7775 13.059 20.7353 13.0162 20.6791 12.9661C20.6157 12.8946 20.5384 12.8158 20.3697 12.7443Z" fill="#FFE15A"/>
</g>
<defs>
<clipPath id="clip0_865_3397">
<rect width="36" height="24" fill="white"/>
</clipPath>
</defs>
</svg>
