<svg width="36" height="24" viewBox="0 0 36 24" fill="none" xmlns="http://www.w3.org/2000/svg">
<g clip-path="url(#clip0_865_4174)">
<path d="M35.3813 24.0225H0.61875C0.274219 24.0225 0 23.7362 0 23.3927V0.652156C0 0.301531 0.28125 0.0224609 0.61875 0.0224609H35.3742C35.7187 0.0224609 35.993 0.308686 35.993 0.652156V23.3927C36 23.7433 35.7187 24.0225 35.3813 24.0225Z" fill="#41479B"/>
<path d="M36 0.652156C36 0.301531 35.7187 0.0224609 35.3813 0.0224609H32.6039L21.1008 7.68614V0.0224609H14.8922V7.68614L3.39609 0.0224609H0.61875C0.274219 0.0224609 0 0.308686 0 0.652156V2.28364L9.8648 8.85965H0V15.1781H9.8648L0 21.7612V23.3927C0 23.7433 0.28125 24.0225 0.61875 24.0225H3.39609L14.8922 16.3587V24.0225H21.1008V16.3587L32.5968 24.0225H35.3742C35.7187 24.0225 35.993 23.7362 35.993 23.3927V21.7612L26.1281 15.1852H36V8.86682H26.1352L36 2.28364V0.652156Z" fill="#F5F5F5"/>
<path d="M36 10.1262H19.8633V0.0224609H16.1367V10.1262H0V13.9187H16.1367V24.0225H19.8633V13.9187H36V10.1262ZM12.5798 15.1781L0.014955 23.4786C0.0571426 23.7863 0.302344 24.0225 0.61875 24.0225H1.47745L14.8649 15.1781H12.5798ZM24.3557 15.1781H22.0776L35.4439 24.0081C35.7533 23.9724 35.9994 23.7148 35.9994 23.3927V22.8704L24.3557 15.1781ZM0 1.34625L11.3765 8.85965H13.6546L0.358594 0.0797037C0.147656 0.179882 0 0.394553 0 0.652156V1.34625ZM23.3853 8.86682L35.9782 0.544821C35.929 0.251441 35.6837 0.0224609 35.3813 0.0224609H34.4946L21.1 8.86682H23.3853Z" fill="#FF4B55"/>
</g>
<defs>
<clipPath id="clip0_865_4174">
<rect width="36" height="24" fill="white"/>
</clipPath>
</defs>
</svg>
