<svg width="36" height="24" viewBox="0 0 36 24" fill="none" xmlns="http://www.w3.org/2000/svg">
<g clip-path="url(#clip0_865_3650)">
<path d="M0 7.99981H35.9998V16.0001H0V7.99981Z" fill="#F5F5F5"/>
<path d="M35.9998 7.99981H0V0.629697C0 0.27907 0.28125 0 0.618751 0H35.3743C35.7188 0 35.993 0.286226 35.993 0.629697L35.9998 7.99981ZM35.3813 24H0.618751C0.274219 24 0 23.7138 0 23.3704V16.0001H35.9998L36 23.3704C36 23.721 35.7188 24 35.3813 24ZM18.0209 13.6172C19.3918 13.6172 20.503 12.8291 20.503 11.857C20.503 10.8849 19.3918 10.0968 18.0209 10.0968C16.6502 10.0968 15.539 10.8849 15.539 11.857C15.539 12.8291 16.6502 13.6172 18.0209 13.6172Z" fill="#41479B"/>
<path d="M20.2361 12.9802L18.0634 9.6671C18.0353 9.62416 17.965 9.62416 17.9369 9.6671L15.7642 12.9802C15.7432 13.0016 15.7432 13.0303 15.7572 13.0589C15.7713 13.0875 15.7994 13.1018 15.8275 13.1018H20.1729C20.201 13.1018 20.2291 13.0875 20.2432 13.0589C20.2502 13.0374 20.2502 13.0016 20.2361 12.9802ZM17.2265 10.905C17.2055 10.905 17.1774 10.8979 17.1633 10.8763L16.1929 9.60269C16.1648 9.56691 16.1719 9.51682 16.207 9.49536C16.2422 9.46673 16.2914 9.47389 16.3125 9.50967L17.2828 10.7834C17.3109 10.8191 17.3039 10.8692 17.2687 10.8907C17.2547 10.8979 17.2406 10.905 17.2265 10.905ZM16.7553 11.685C16.7413 11.685 16.7272 11.6778 16.7131 11.6707L15.4686 10.8836C15.4334 10.8621 15.4194 10.812 15.4405 10.7763C15.4616 10.7404 15.5108 10.7262 15.5459 10.7476L16.7905 11.5347C16.8256 11.5562 16.8397 11.6063 16.8186 11.642C16.8116 11.6707 16.7834 11.685 16.7553 11.685ZM18.7735 10.8979C18.7594 10.8979 18.7383 10.8907 18.7242 10.8836C18.6891 10.8549 18.682 10.8048 18.7101 10.7762L19.6805 9.50251C19.7086 9.46673 19.7578 9.45958 19.7859 9.4882C19.8141 9.51682 19.8281 9.56691 19.8 9.59553L18.8297 10.8692C18.8226 10.8907 18.8016 10.8979 18.7735 10.8979ZM19.2447 11.685C19.2166 11.685 19.1954 11.6707 19.1813 11.6492C19.1603 11.6135 19.1673 11.5634 19.2095 11.5418L20.4541 10.7547C20.4892 10.7333 20.5384 10.7404 20.5595 10.7834C20.5806 10.8191 20.5736 10.8692 20.5314 10.8907L19.2869 11.6779C19.2728 11.6779 19.2587 11.685 19.2447 11.685Z" fill="#FFE15A"/>
<path d="M18.0002 11.4489C18.1711 11.4489 18.3095 11.3079 18.3095 11.134C18.3095 10.9601 18.1711 10.8191 18.0002 10.8191C17.8293 10.8191 17.6908 10.9601 17.6908 11.134C17.6908 11.3079 17.8293 11.4489 18.0002 11.4489Z" fill="#FF4B55"/>
<path d="M18 9.78172C17.9297 9.78172 17.8734 9.72447 17.8734 9.65292V9.06616C17.8734 8.9946 17.9297 8.93736 18 8.93736C18.0703 8.93736 18.1266 8.9946 18.1266 9.06616V9.64576C18.1266 9.72447 18.0703 9.78172 18 9.78172Z" fill="#41479B"/>
<path d="M17.9999 15.1841C16.2843 15.1841 14.8921 13.7673 14.8921 12.0213C14.8921 11.177 15.2156 10.3827 15.7991 9.78159C15.9398 9.63849 16.1577 9.63849 16.2984 9.78159C16.439 9.92471 16.439 10.1465 16.2984 10.2896C15.8413 10.7547 15.5952 11.3701 15.5952 12.0213C15.5952 13.3737 16.671 14.4686 17.9999 14.4686C19.3289 14.4686 20.4047 13.3737 20.4047 12.0213C20.4047 11.3344 20.1305 10.6975 19.6382 10.2324C19.4977 10.0965 19.4906 9.87462 19.6241 9.72435C19.7578 9.58124 19.9757 9.57408 20.1234 9.71005C20.7492 10.3039 21.1148 11.1483 21.1148 12.0213C21.1077 13.7673 19.7156 15.1841 17.9999 15.1841Z" fill="#50AF69"/>
</g>
<defs>
<clipPath id="clip0_865_3650">
<rect width="36" height="24" fill="white"/>
</clipPath>
</defs>
</svg>
