<svg width="36" height="24" viewBox="0 0 36 24" fill="none" xmlns="http://www.w3.org/2000/svg">
<g clip-path="url(#clip0_865_3484)">
<path d="M0 15.9999H36V23.3703C36 23.721 35.7188 24 35.3813 24H0.61875C0.274219 24 0 23.7138 0 23.3703V15.9999Z" fill="#73AF00"/>
<path d="M0 7.99957H35.9999L36 15.9999H0V7.99957Z" fill="#FFE15A"/>
<path d="M0.61875 0H35.3742C35.7188 0 35.993 0.286228 35.993 0.629703V8.00008L0 7.99957V0.629703C0 0.279072 0.28125 0 0.61875 0Z" fill="#FF4B55"/>
<path d="M17.1982 8.4224C17.1982 8.4224 17.1842 8.44387 17.149 8.47965C17.1208 8.51543 17.0857 8.56552 17.0435 8.64423C16.9662 8.78734 16.8818 9.00917 16.8748 9.27393C16.8748 9.40273 16.9029 9.56016 16.9451 9.68181C16.9943 9.81777 17.0716 9.95372 17.1701 10.0682C17.2685 10.1899 17.4022 10.2757 17.5427 10.3472C17.6131 10.383 17.6904 10.4045 17.7677 10.426C17.8029 10.4403 17.8451 10.4403 17.8873 10.4474C17.9084 10.4547 17.9294 10.4474 17.9435 10.4547H17.9857H17.9998C17.9927 10.4547 18.0139 10.4547 17.9857 10.4547C18.035 10.4547 18.0912 10.4547 18.1334 10.4474C18.1685 10.4403 18.1966 10.4403 18.2389 10.426C18.3162 10.4045 18.3935 10.383 18.4639 10.3472C18.6044 10.2828 18.7381 10.1899 18.8365 10.0682C18.9349 9.95372 19.0123 9.81777 19.0614 9.68181C19.1037 9.53869 19.1318 9.40989 19.1318 9.27393C19.1318 9.00917 19.0474 8.78734 18.9631 8.64423C18.9209 8.57267 18.8857 8.51543 18.8576 8.47965C18.8294 8.44387 18.8154 8.4224 18.8154 8.4224L18.8083 8.41524C18.7802 8.37946 18.7873 8.32937 18.8224 8.30076C18.8505 8.27929 18.8857 8.27929 18.9139 8.29359C18.9139 8.29359 18.9349 8.30791 18.9771 8.33653C19.0193 8.36515 19.0826 8.40809 19.1459 8.47965C19.2795 8.61561 19.4622 8.8589 19.5256 9.21669C19.5537 9.38842 19.5607 9.58878 19.5186 9.79629C19.4763 10.0038 19.392 10.2113 19.2513 10.3974C19.1178 10.5835 18.9349 10.7481 18.717 10.8554C18.6115 10.9126 18.492 10.9555 18.3724 10.9842C18.3162 10.9984 18.2459 11.0056 18.1755 11.0199C18.1123 11.0271 18.0701 11.0271 18.0209 11.0271H17.9084C17.8803 11.0271 17.8451 11.0271 17.817 11.0199C17.7536 11.0056 17.6974 11.0056 17.6342 10.9842C17.5146 10.9555 17.3951 10.9126 17.2896 10.8554C17.0716 10.7481 16.8888 10.5835 16.7553 10.3974C16.6146 10.2113 16.5303 10.0038 16.488 9.79629C16.4459 9.58162 16.4459 9.39558 16.481 9.21669C16.5443 8.86606 16.72 8.61561 16.8607 8.47965C16.931 8.40809 16.9943 8.36515 17.0365 8.32937C17.0787 8.30076 17.0997 8.28644 17.0997 8.28644C17.1349 8.26498 17.1842 8.27213 17.2123 8.31507C17.2193 8.358 17.2193 8.39378 17.1982 8.4224Z" fill="#73AF00"/>
<path d="M17.8454 14.7126V15.7144C17.8454 15.8146 17.7258 15.8646 17.6556 15.7931L17.5993 15.7359C17.5571 15.6929 17.529 15.6285 17.529 15.5641V14.7126H17.8454ZM18.1546 14.7126V15.7144C18.1546 15.8146 18.2742 15.8646 18.3445 15.7931L18.4007 15.7359C18.443 15.6929 18.4711 15.6285 18.4711 15.5641V14.7126H18.1546Z" fill="#FF4B55"/>
<path d="M17.3744 14.548V15.2708C17.3744 15.3137 17.3885 15.3566 17.4236 15.3852L17.529 15.4925V14.5409L17.3744 14.548ZM18.6257 14.548V15.2708C18.6257 15.3137 18.6116 15.3566 18.5765 15.3852L18.471 15.4925V14.5409L18.6257 14.548Z" fill="#FFE15A"/>
<path d="M20.9601 11.571V10.9055L20.4961 11.2489V10.426L19.8703 10.8912V11.714L20.3414 11.3635V13.1953C20.3414 13.9467 19.7438 14.5549 19.0054 14.5549C18.893 14.5549 18.7875 14.5406 18.682 14.512L19.3851 14.9842C19.6031 15.1203 19.8422 15.1918 20.0953 15.1918C20.8336 15.1918 21.4313 14.5835 21.4313 13.8322V11.2204L20.9601 11.571ZM17.3178 14.512C17.2124 14.5406 17.1069 14.5549 16.9944 14.5549C16.2561 14.5549 15.6585 13.9467 15.6585 13.1953V11.3635L16.1296 11.714V10.8912L15.5038 10.426V11.2489L15.0397 10.9055V11.571L14.5686 11.2204V13.8322C14.5686 14.5835 15.1662 15.1918 15.9046 15.1918C16.1577 15.1918 16.3967 15.1203 16.6147 14.9842L17.3178 14.512Z" fill="#FF4B55"/>
<path d="M15.9539 14.5333L15.75 14.3258C15.6234 14.197 15.6304 13.9894 15.757 13.8678L16.3968 13.231L16.8609 13.9894L16.3968 14.519C16.2843 14.6549 16.0804 14.6549 15.9539 14.5333ZM15.8555 14.5833C15.941 14.5833 16.0102 14.5129 16.0102 14.426C16.0102 14.3389 15.941 14.2685 15.8555 14.2685C15.7701 14.2685 15.7009 14.3389 15.7009 14.426C15.7009 14.5129 15.7701 14.5833 15.8555 14.5833ZM20.0743 14.5404L20.2571 14.3544C20.3696 14.2399 20.3626 14.0538 20.2501 13.9465L19.5751 13.2954L19.1462 13.9966L19.6735 14.5261C19.779 14.6477 19.9618 14.6477 20.0743 14.5404ZM20.1659 14.5833C20.2435 14.5833 20.3064 14.5225 20.3064 14.4474C20.3064 14.3723 20.2435 14.3114 20.1659 14.3114C20.0882 14.3114 20.0252 14.3723 20.0252 14.4474C20.0252 14.5225 20.0882 14.5833 20.1659 14.5833Z" fill="#FFBE5A"/>
<path d="M18 14.7906C17.0087 14.7906 16.2071 13.8675 16.2071 12.7298C16.2071 11.592 17.0087 10.6689 18 10.6689C18.9914 10.6689 19.793 11.592 19.793 12.7298C19.793 13.8675 18.9914 14.7906 18 14.7906Z" fill="#3CC8FF"/>
<path d="M18.4853 10.2112L20.3345 9.63158L19.3501 9.25948C19.1743 9.19508 18.9915 9.1593 18.8017 9.1593H18.6188C18.5345 9.1593 18.4642 9.23085 18.4642 9.31672V9.47415H18.2673C18.211 9.38113 18.1126 9.31672 18.0001 9.31672C17.8876 9.31672 17.7892 9.38113 17.7329 9.47415H17.529V9.31672C17.529 9.23085 17.4587 9.1593 17.3744 9.1593H17.1916C17.0017 9.1593 16.8189 9.19508 16.6431 9.25948L15.6588 9.63158L17.5079 10.2112C17.5994 10.2398 17.6415 10.3471 17.5994 10.4331L17.3674 10.8982H18.6118L18.3798 10.4331C18.3517 10.3471 18.3938 10.2398 18.4853 10.2112Z" fill="#825546"/>
</g>
<defs>
<clipPath id="clip0_865_3484">
<rect width="36" height="24" fill="white"/>
</clipPath>
</defs>
</svg>
