<svg width="36" height="24" viewBox="0 0 36 24" fill="none" xmlns="http://www.w3.org/2000/svg">
<g clip-path="url(#clip0_865_4048)">
<path d="M36 8.00008H0V0.629702C0 0.279073 0.28125 0 0.618751 0H35.3743C35.7188 0 35.993 0.286228 35.993 0.629702L36 8.00008Z" fill="#F5F5F5"/>
<path d="M35.3813 24H0.618751C0.274219 24 0 23.7138 0 23.3703V15.9999H36V23.3703C36 23.7209 35.7188 24 35.3813 24Z" fill="#FF4B55"/>
<path d="M0 8.00008H36V15.9999H0V8.00008Z" fill="#41479B"/>
<path d="M9.15484 17.9607C8.97203 17.8533 4.65484 15.2987 4.65484 11.3702V6.00345H13.9642V11.3702C13.9642 15.2987 9.64703 17.8533 9.46422 17.9607L9.30954 18.0465L9.15484 17.9607Z" fill="#FF4B55"/>
<path d="M11.7495 10.4185L9.80178 10.6189V9.73159L11.2643 9.92479V8.53659L9.80178 8.73695L9.99167 6.94802H8.62756L8.82444 8.73695L7.36194 8.53659V9.92479L8.82444 9.73159V10.6189L6.86975 10.4185V11.8067L8.82444 11.6064V13.8962H9.80178V11.6064L11.7495 11.8067V10.4185Z" fill="#F5F5F5"/>
<path d="M9.30939 12.9447C8.66954 12.9447 6.25781 14.5475 6.21563 15.3775C7.47422 16.9518 9.04923 17.8892 9.15469 17.9536L9.30939 18.0395L9.46407 17.9536C9.57657 17.8892 11.1446 16.9518 12.4031 15.3775C12.3539 14.5475 9.94922 12.9447 9.30939 12.9447Z" fill="#41479B"/>
<path fill-rule="evenodd" clip-rule="evenodd" d="M14.2737 5.68159V11.3632C14.2737 15.4706 9.80884 18.1182 9.619 18.2255L9.30962 18.4045L9.00025 18.2255C8.81041 18.1182 4.34556 15.4706 4.34556 11.3632V5.68159H14.2737ZM13.6549 11.3703V6.31845H4.96424V11.3703C4.96424 15.1629 9.30956 17.6889 9.30956 17.6889C9.30956 17.6889 13.6549 15.1629 13.6549 11.3703Z" fill="#F5F5F5"/>
</g>
<defs>
<clipPath id="clip0_865_4048">
<rect width="36" height="24" fill="white"/>
</clipPath>
</defs>
</svg>
