<svg width="36" height="24" viewBox="0 0 36 24" fill="none" xmlns="http://www.w3.org/2000/svg">
<g clip-path="url(#clip0_865_3456)">
<path d="M35.3813 23.9998H0.61875C0.274219 23.9998 0 23.7135 0 23.3701V17.6885H36V23.3701C36 23.7207 35.7188 23.9998 35.3813 23.9998Z" fill="#73AF00"/>
<path d="M35.3813 0H0.61875C0.274219 0 0 0.286226 0 0.629697V17.6816H36V0.629697C36 0.27907 35.7188 0 35.3813 0Z" fill="#FF4B55"/>
<path d="M4.96407 24L0.61875 23.9998C0.274219 23.9998 0 23.7135 0 23.3701V0.629697C0 0.27907 0.28125 0 0.61875 0H4.96407V24Z" fill="#F5F5F5"/>
<path fill-rule="evenodd" clip-rule="evenodd" d="M1.71559 17.8244H1.49761L0.618711 15.7206L1.27965 13.6168V13.3091L0.618711 13.9388V12.9943L1.06168 12.2072H1.27965V11.785H1.06168L0.618711 10.9978V10.0534L1.27965 10.6831L0.618711 8.28588L1.50465 6.18212H1.72262L2.37653 8.28588H2.5945L3.2484 6.18212L3.46637 6.17496L4.33825 8.27872L3.68434 10.6902L4.33825 10.0605V11.005L3.90231 11.7921H3.68434V12.2072H3.90231L4.33825 12.9943V13.9388L3.68434 13.3091V13.6168L4.33825 15.7206L4.12027 16.2358L3.46637 17.8244H3.2484L2.58746 15.7206H2.36949L1.71559 17.8244ZM1.71575 12.2072L1.93372 12.5793L2.26418 12.9943L2.36965 13.7242H2.59466L2.70715 12.9943L3.03763 12.5793L3.25559 12.2072H3.47356V11.7921H3.25559L3.03763 11.4272V11.2126L2.70715 11.005L2.59466 10.268H2.36965L2.26418 11.005L1.71575 11.785H1.49778V12.2072H1.71575Z" fill="#FF4B55"/>
<path d="M0.618698 1.05173H0.843699V1.68143H0.618698V1.05173ZM2.37647 1.05173H2.59444V1.68143H2.37647V1.05173ZM0.843711 4.93705C0.843711 4.9299 0.618711 5.55245 0.618711 5.55245V5.96747L0.843711 6.59717H1.17418L1.39215 5.96747V5.5596L1.17418 4.93705H0.843711ZM2.62965 4.93705C2.62965 4.9299 2.57341 5.09447 2.51715 5.2519L2.40466 4.93705H2.07418C2.07418 4.9299 1.84919 5.55244 1.84919 5.55244V5.96747L2.07418 6.59716H2.40466L2.51715 6.28231L2.62965 6.59716H2.96012L3.17809 5.96747V5.55959L2.96012 4.93705H2.62965ZM4.13427 4.93705H3.80381C3.80381 4.9299 3.5788 5.55245 3.5788 5.55245V5.96747L3.80381 6.59717H4.13427L4.35224 5.96747V5.5596L4.13427 4.93705ZM0.843711 17.3664C0.843711 17.3593 0.618711 17.9818 0.618711 17.9818V18.3968L0.843711 19.0265H1.17418L1.39215 18.3968V17.989L1.17418 17.3664H0.843711ZM2.62965 17.3664C2.62965 17.3593 2.57341 17.5238 2.51715 17.6813L2.40466 17.3664H2.07418C2.07418 17.3593 1.84919 17.9818 1.84919 17.9818V18.3968L2.07418 19.0265H2.40466L2.51715 18.7117L2.62965 19.0265H2.96012L3.17809 18.3968V17.989L2.96012 17.3664H2.62965ZM4.13427 17.3664H3.80381C3.80381 17.3593 3.5788 17.9818 3.5788 17.9818V18.3968L3.80381 19.0265H4.13427L4.35224 18.3968V17.989L4.13427 17.3664ZM4.12729 22.3254H4.34526V22.9551H4.12729V22.3254ZM4.12729 1.05173H4.34526V1.68143H4.12729V1.05173Z" fill="#FF4B55"/>
<path fill-rule="evenodd" clip-rule="evenodd" d="M3.33277 18.6544L2.5945 20.7582H2.37653L1.56793 18.6544L0.618711 21.023L1.60308 23.3843L2.36949 21.2734H2.58746L3.3609 23.3771L4.33825 21.023L3.33277 18.6544ZM1.51867 22.3396L0.991327 21.023L1.51867 19.7063L2.08117 21.0587L1.51867 22.3396ZM2.88293 21.0372L3.41028 22.3396L3.97278 21.0086L3.41028 19.7063L2.88293 21.0372ZM3.33277 0.715311L2.5945 2.81907H2.37653L1.56793 0.715311L0.618711 3.08383L1.60308 5.4452L2.36949 3.33428H2.58746L3.3609 5.43804L4.33825 3.08383L3.33277 0.715311ZM1.51867 4.40047L0.991327 3.08382L1.51867 1.76718L2.08117 3.1196L1.51867 4.40047ZM2.88293 3.09813L3.41028 4.40047L3.97278 3.06951L3.41028 1.76718L2.88293 3.09813Z" fill="#FF4B55"/>
<path d="M0.618698 22.3254H0.843699V22.9551H0.618698V22.3254ZM2.37647 22.3254H2.59444V22.9551H2.37647V22.3254Z" fill="#FF4B55"/>
</g>
<defs>
<clipPath id="clip0_865_3456">
<rect width="36" height="24" fill="white"/>
</clipPath>
</defs>
</svg>
