<svg width="36" height="24" viewBox="0 0 36 24" fill="none" xmlns="http://www.w3.org/2000/svg">
<g clip-path="url(#clip0_865_3951)">
<path d="M35.3811 24H0.618749C0.274218 24 0 23.7138 0 23.3704V0.629697C0 0.27907 0.28125 0 0.618749 0H35.3742C35.7187 0 35.9929 0.286226 35.9929 0.629697V23.3704C35.9999 23.721 35.7187 24 35.3811 24Z" fill="#F5F5F5"/>
<path d="M0.618749 24L17.3742 23.9999C17.7188 23.9999 17.993 23.7137 17.993 23.3702V11.9999H0.618749C0.28125 11.9999 0 12.2861 0 12.6296V23.3704C0 23.721 0.28125 24 0.618749 24ZM9.23936 3.30574L9.82998 5.10896L11.7003 5.12327C11.9394 5.12327 12.0448 5.43812 11.848 5.58839L10.3433 6.71898L10.9057 8.53652C10.9761 8.77265 10.7159 8.96586 10.519 8.82274L9.0003 7.71362L7.48155 8.82274C7.28468 8.96586 7.02452 8.77265 7.09483 8.53652L7.65733 6.71898L6.15266 5.58839C5.95578 5.44528 6.06125 5.13043 6.30031 5.12327L8.17062 5.10896L8.76124 3.30574C8.83858 3.0696 9.16202 3.0696 9.23936 3.30574Z" fill="#4173CD"/>
<path d="M18 12.0001H35.3813C35.7258 12.0001 36 11.7137 36 11.3703V0.629697C36 0.27907 35.7187 0 35.3813 0H18.6188C18.2743 0 18 0.286226 18 0.629697V12.0001ZM27.2394 15.306L27.83 17.1092L29.7003 17.1234C29.9394 17.1234 30.0448 17.4383 29.8479 17.5885L28.3433 18.7192L28.9058 20.5367C28.9761 20.7728 28.716 20.9661 28.5191 20.8229L27.0003 19.7138L25.4816 20.8229C25.2847 20.9661 25.0245 20.7728 25.0949 20.5367L25.6573 18.7192L24.1526 17.5885C23.9558 17.4455 24.0612 17.1306 24.3003 17.1234L26.1707 17.1092L26.7613 15.306C26.8386 15.0697 27.1621 15.0697 27.2394 15.306Z" fill="#FF4B55"/>
</g>
<defs>
<clipPath id="clip0_865_3951">
<rect width="36" height="24" fill="white"/>
</clipPath>
</defs>
</svg>
