<svg width="36" height="24" viewBox="0 0 36 24" fill="none" xmlns="http://www.w3.org/2000/svg">
<g clip-path="url(#clip0_865_3938)">
<path d="M35.3813 24H0.618751C0.274219 24 0 23.7138 0 23.3704V0.629697C0 0.27907 0.28125 0 0.618751 0H35.3743C35.7188 0 35.993 0.286226 35.993 0.629697V23.3704C36 23.721 35.7188 24 35.3813 24Z" fill="#FF4B55"/>
<path d="M36 8.84438H16.1368V0H9.92813V8.84438H0V15.1557H9.92813V24H16.1368V15.1557H36V8.84438Z" fill="#F5F5F5"/>
<path d="M36 10.1038H14.8993V0H11.1727V10.1038H0V13.8962H11.1727V24H14.8993V13.8962H36V10.1038Z" fill="#41479B"/>
</g>
<defs>
<clipPath id="clip0_865_3938">
<rect width="36" height="24" fill="white"/>
</clipPath>
</defs>
</svg>
