<svg width="36" height="24" viewBox="0 0 36 24" fill="none" xmlns="http://www.w3.org/2000/svg">
<g clip-path="url(#clip0_865_4012)">
<path d="M36 12.0002H0V0.629702C0 0.279073 0.28125 0 0.618751 0H35.3743C35.7188 0 35.993 0.286228 35.993 0.629702L36 12.0002Z" fill="#4173CD"/>
<path d="M0.618751 24H35.3743C35.7188 24 35.993 23.7138 35.993 23.3703V18.0035H0V23.3703C0 23.7209 0.28125 24 0.618751 24Z" fill="#73AF00"/>
<path d="M0 12.0002H36V18.0037L0 18.0035V12.0002ZM32.2175 6.42582L34.7557 5.99648L32.2175 5.56714L34.4042 4.17893L31.894 4.77285L33.3916 2.64046L31.2964 4.16462L31.8799 1.61004L30.5159 3.83546L30.094 1.25224L29.6722 3.83546L28.3221 1.62434L28.9058 4.17893L26.8104 2.65476L28.3081 4.78717L25.798 4.19324L27.9847 5.58145L25.4463 6.01079L27.9847 6.44014L25.8049 7.81403L28.3152 7.22011L26.8104 9.3525L28.9058 7.82834L28.3221 10.383L29.6862 8.1575L30.1081 10.7407L30.53 8.1575L31.894 10.383L31.3105 7.82834L33.3987 9.3525L31.9011 7.22011L34.4112 7.81403L32.2175 6.42582Z" fill="#FFE15A"/>
</g>
<defs>
<clipPath id="clip0_865_4012">
<rect width="36" height="24" fill="white"/>
</clipPath>
</defs>
</svg>
