<svg width="36" height="24" viewBox="0 0 36 24" fill="none" xmlns="http://www.w3.org/2000/svg">
<g clip-path="url(#clip0_865_3445)">
<path d="M0 0.5C0 0.367392 0.0526784 0.240215 0.146447 0.146447C0.240215 0.0526784 0.367392 0 0.5 0L35.5 0C35.6326 0 35.7598 0.0526784 35.8536 0.146447C35.9473 0.240215 36 0.367392 36 0.5V23.5C36 23.6326 35.9473 23.7598 35.8536 23.8536C35.7598 23.9473 35.6326 24 35.5 24H0.5C0.367392 24 0.240215 23.9473 0.146447 23.8536C0.0526784 23.7598 0 23.6326 0 23.5V0.5Z" fill="#006A4E"/>
<path d="M14 20C16.1217 20 18.1566 19.1571 19.6569 17.6569C21.1571 16.1566 22 14.1217 22 12C22 9.87827 21.1571 7.84344 19.6569 6.34315C18.1566 4.84285 16.1217 4 14 4C11.8783 4 9.84344 4.84285 8.34315 6.34315C6.84285 7.84344 6 9.87827 6 12C6 14.1217 6.84285 16.1566 8.34315 17.6569C9.84344 19.1571 11.8783 20 14 20Z" fill="#F42A41"/>
</g>
<defs>
<clipPath id="clip0_865_3445">
<rect width="36" height="24" fill="white"/>
</clipPath>
</defs>
</svg>
