<svg width="36" height="24" viewBox="0 0 36 24" fill="none" xmlns="http://www.w3.org/2000/svg">
<g clip-path="url(#clip0_865_3608)">
<path d="M35.388 24H0.618869C0.274271 24 0 23.7138 0 23.3703V0.629696C0 0.27907 0.281304 0 0.618869 0H35.381C35.7256 0 35.9999 0.286225 35.9999 0.629696V23.3703C36.0069 23.7209 35.7256 24 35.388 24Z" fill="#F5F5F5"/>
<path d="M9.42377 9.77458C9.42377 9.77458 10.113 10.8336 10.7178 10.5546C11.3226 10.2755 11.5969 9.33093 12.1805 9.08049C12.7643 8.83004 13.9317 9.7245 14.5083 9.44543C15.085 9.16636 14.9514 6.90517 14.9514 6.90517C14.9514 6.90517 17.8981 7.99283 20.4368 7.48478C22.9756 6.97673 28.9955 4.06439 28.9955 4.06439L28.9041 4.55097C28.9041 4.55097 23.5382 7.62074 23.3202 8.55812C23.1021 9.49552 24.8673 11.3274 24.8673 11.3274C24.8673 11.3274 22.0122 10.8766 21.4565 11.2558C20.9009 11.635 21.1893 12.4437 20.7463 12.8014C20.3032 13.152 18.8123 13.8747 18.1231 13.9177C17.4409 13.9607 16.4985 13.6601 15.9571 14.2826C15.4085 14.9052 15.9149 15.2844 15.9149 15.2844L15.0921 15.22C15.0921 15.22 15.1835 14.6476 14.6771 14.3471C14.1637 14.0465 13.5167 14.5259 12.9612 14.4616C12.4056 14.3972 10.6475 13.7244 10.0005 12.2147C9.36047 10.7049 9.42377 9.77458 9.42377 9.77458Z" fill="#D57800"/>
<path d="M18.0103 20.8658C18.0033 20.8658 17.9962 20.8658 17.9962 20.8658C16.2171 20.8586 14.3605 19.5921 12.4617 17.9105C11.0902 16.6869 10.2182 15.4776 10.176 15.4275C9.95803 15.127 10.0284 14.7048 10.3237 14.4901C10.6191 14.2683 11.0341 14.3398 11.245 14.6404C11.2802 14.6834 14.4941 18.7047 17.9962 18.712C18.0033 18.712 18.0033 18.712 18.0103 18.712C19.009 18.712 20.6195 18.7334 22.6659 16.9087C23.9318 15.7781 24.7476 14.6475 24.7546 14.6404C24.9726 14.3398 25.3806 14.2754 25.6759 14.4901C25.9713 14.7119 26.0345 15.127 25.8235 15.4275C25.683 15.6351 22.1807 20.8658 18.0103 20.8658Z" fill="#4E5B31"/>
</g>
<defs>
<clipPath id="clip0_865_3608">
<rect width="36" height="24" fill="white"/>
</clipPath>
</defs>
</svg>
