<svg width="36" height="24" viewBox="0 0 36 24" fill="none" xmlns="http://www.w3.org/2000/svg">
<g clip-path="url(#clip0_865_3820)">
<path d="M35.3811 0H0.618749C0.274218 0 0 0.28614 0 0.629508V23.3634C0 23.7139 0.28125 23.9928 0.618749 23.9928H35.3742C35.7187 23.9928 35.9929 23.7067 35.9929 23.3634V0.629508C35.9999 0.278986 35.7187 0 35.3811 0Z" fill="#73AF00"/>
<path d="M35.9999 0.629508C35.9999 0.278986 35.7187 0 35.3811 0H32.6038L17.9999 9.72875L3.39609 0H0.618749C0.274218 0 0 0.28614 0 0.629508V2.26051L14.6039 11.9965L0 21.7323V23.3634C0 23.7139 0.28125 23.9928 0.618749 23.9928H3.39609L17.9999 14.264L32.6038 24H35.3811C35.7257 24 35.9999 23.7139 35.9999 23.3705V21.7394L21.396 11.9965L35.9999 2.26051V0.629508Z" fill="#FFE15A"/>
<path d="M35.9999 2.26051L36 21.7325L21.396 11.9965L35.9999 2.26051ZM0 21.7323V2.26051L14.6039 11.9965L0 21.7323Z" fill="#464655"/>
</g>
<defs>
<clipPath id="clip0_865_3820">
<rect width="36" height="24" fill="white"/>
</clipPath>
</defs>
</svg>
