<svg width="36" height="24" viewBox="0 0 36 24" fill="none" xmlns="http://www.w3.org/2000/svg">
<g clip-path="url(#clip0_865_3944)">
<path d="M35.3813 24H9.30961V0H35.3813C35.7258 0 36 0.286226 36 0.629697V23.3704C36 23.721 35.7188 24 35.3813 24Z" fill="#73AF00"/>
<path d="M9.30961 24H0.618746C0.274217 24 0 23.7138 0 23.3704V0.629697C0 0.27907 0.281248 0 0.618746 0H9.30961V24ZM28.976 15.3059C26.1213 17.8963 21.7479 17.6315 19.2026 14.7191C16.6643 11.8139 16.9246 7.34884 19.7792 4.7585C19.7862 4.75135 19.7862 4.75135 19.7932 4.74418C19.8636 4.68694 19.7932 4.57246 19.7089 4.60823C16.8893 5.72451 14.8925 8.51521 14.8925 11.7782C14.8925 16.0287 18.2745 19.4776 22.444 19.4776C25.3268 19.4776 27.8299 17.8247 29.0956 15.3989C29.1447 15.3202 29.0463 15.2416 28.976 15.3059ZM25.2983 6.0322L26.2897 7.16279L27.6678 6.57604C27.8436 6.49733 28.0194 6.69768 27.921 6.86941L27.1686 8.1789L28.1459 9.33096C28.2725 9.48123 28.139 9.70305 27.949 9.66727L26.4936 9.34526L25.7202 10.6476C25.6218 10.8193 25.3686 10.7549 25.3476 10.5617L25.1999 9.05189L23.7444 8.70842C23.5546 8.66548 23.5335 8.40073 23.7093 8.32201L25.0734 7.71378L24.9468 6.20394C24.9327 5.98927 25.1717 5.88194 25.2983 6.0322Z" fill="#F5F5F5"/>
</g>
<defs>
<clipPath id="clip0_865_3944">
<rect width="36" height="24" fill="white"/>
</clipPath>
</defs>
</svg>
