<svg width="36" height="24" viewBox="0 0 36 24" fill="none" xmlns="http://www.w3.org/2000/svg">
<g clip-path="url(#clip0_865_3640)">
<path d="M36 8.00008H0V0.629702C0 0.279073 0.28125 0 0.618751 0H35.3743C35.7188 0 35.993 0.286228 35.993 0.629702L36 8.00008Z" fill="#FF4B55"/>
<path d="M35.3813 24H0.618751C0.274219 24 0 23.7138 0 23.3703V15.9999H36V23.3703C36 23.7209 35.7188 24 35.3813 24Z" fill="#464655"/>
<path d="M0 8.00008H36V15.9999H0V8.00008Z" fill="#F5F5F5"/>
<path fill-rule="evenodd" clip-rule="evenodd" d="M19.3923 10.3185C19.6806 10.2184 19.9829 10.4403 19.9829 10.755L19.997 14.1469L19.1954 13.3311L19.5752 14.4832H19.997V15.1558H16.0313V14.4832H16.4533L16.8329 13.3311L16.0313 14.1469V10.7622C16.0313 10.4474 16.3267 10.2256 16.622 10.3258L17.1985 10.5189L17.3954 9.51713H16.6853L17.2197 8.84449H17.733C18.2181 8.84449 18.6329 9.20228 18.7103 9.68886L18.8439 10.5046L19.3923 10.3185ZM17.1351 14.4832H17.6694V13.7032L17.5008 13.4885L17.1351 14.4832ZM18.3308 14.4832V13.7032L18.4994 13.4885L18.8651 14.4832H18.3308ZM17.0229 11.2488C16.9807 12.5655 18.0002 13.2667 18.0002 13.2667C18.0002 13.2667 19.0197 12.5655 18.9776 11.2488C18.9776 11.2488 18.3518 11.1414 18.0002 10.5762C17.6557 11.1414 17.0229 11.2488 17.0229 11.2488Z" fill="#F0C727"/>
</g>
<defs>
<clipPath id="clip0_865_3640">
<rect width="36" height="24" fill="white"/>
</clipPath>
</defs>
</svg>
