<svg width="24" height="24" viewBox="0 0 24 24"  xmlns="http://www.w3.org/2000/svg">
<path d="M6.75 0C6.45 0 6.15 0.3 6 0.6L3 12.6C3 12.75 3 13.05 3.15 13.2C3.3 13.35 3.45 13.5 3.75 13.5H10.35L9 23.1C9 23.4 9.15 23.85 9.45 23.85C9.75 24 10.2 23.85 10.35 23.55L20.85 7.05C21 6.75 21 6.6 20.85 6.3C20.85 6.15 20.55 6 20.25 6H13.65L15 0.9C15 0.75 15 0.45 14.85 0.3C14.7 0.15 14.55 0 14.25 0H6.75ZM4.65 12L7.35 1.5H13.35L12 6.6C12 6.75 12 7.05 12.15 7.2C12.3 7.35 12.45 7.5 12.75 7.5H18.9L10.95 19.95L12 12.9C12 12.75 12 12.45 11.85 12.3C11.7 12.15 11.4 12 11.25 12H4.65Z" fill="currentColor"/>
</svg>
