<svg width="24" height="24" viewBox="0 0 24 24"  xmlns="http://www.w3.org/2000/svg">
<g clip-path="url(#clip0_865_4758)">
<path d="M15 1.0501C15.15 0.750098 15 0.300098 14.7 0.150098C14.4 9.75728e-05 13.95 9.75728e-05 13.65 0.150098L0.15 13.6501C0 13.9501 0 14.2501 0 14.5501C0.15 14.8501 0.45 15.0001 0.75 15.0001H10.35L9 23.1001C9 23.4001 9.15 23.7001 9.45 23.8501C9.75 24.0001 10.05 24.0001 10.35 23.8501L23.85 10.3501C24 10.0501 24 9.7501 24 9.4501C23.85 9.1501 23.55 9.0001 23.25 9.0001H12.3L15 1.0501ZM11.85 13.8001C11.7 13.6501 11.4 13.5001 11.25 13.5001H2.55L12.45 3.6001L10.5 9.4501C10.5 9.7501 10.5 10.0501 10.65 10.2001C10.8 10.3501 10.95 10.5001 11.25 10.5001H21.45L10.95 21.0001L12 14.4001C12 14.1001 12 13.9501 11.85 13.8001Z" fill="currentColor"/>
</g>
<defs>
<clipPath id="clip0_865_4758">
<rect width="24" height="24" fill="currentColor"/>
</clipPath>
</defs>
</svg>
