<svg width="24" height="24" viewBox="0 0 24 24"  xmlns="http://www.w3.org/2000/svg">
<g clip-path="url(#clip0_865_4775)">
<path fill-rule="evenodd" clip-rule="evenodd" d="M6.0224 0.568098C6.10587 0.234223 6.40586 0 6.75001 0H14.25C14.481 0 14.699 0.106404 14.8412 0.288441C14.9833 0.470478 15.0336 0.707846 14.9776 0.931902L13.7106 6H20.25C20.5237 6 20.7757 6.14913 20.9075 6.38909C21.0392 6.62905 21.0297 6.92172 20.8828 7.15266L10.3828 23.6527C10.1931 23.9507 9.82113 24.076 9.4898 23.9534C9.15846 23.8308 8.95758 23.4937 9.00754 23.1439L10.3853 13.5H3.75001C3.51906 13.5 3.30098 13.3936 3.15885 13.2116C3.01672 13.0295 2.96639 12.7922 3.0224 12.5681L6.0224 0.568098Z" fill="currentColor"/>
</g>
<defs>
<clipPath id="clip0_865_4775">
<rect width="24" height="24" fill="currentColor"/>
</clipPath>
</defs>
</svg>
