<svg width="24" height="24" viewBox="0 0 24 24"  xmlns="http://www.w3.org/2000/svg">
<path d="M11.9999 22.9961C11.5858 22.9961 11.2502 22.6603 11.2502 22.2461V1.74609C11.2502 1.33188 11.5858 0.996094 11.9999 0.996094C12.414 0.996094 12.7496 1.33188 12.7496 1.74609V22.2461C12.7496 22.6603 12.414 22.9961 11.9999 22.9961Z" fill="currentColor"/>
<path fill-rule="evenodd" clip-rule="evenodd" d="M1.59367 17.6112C1.46132 17.3735 1.47038 17.0828 1.61353 16.8514L8.36358 6.35139C8.53994 6.0664 8.88392 5.93306 9.2062 6.02478C9.52847 6.11649 9.75079 6.41098 9.75079 6.74615V17.2462C9.75079 17.6604 9.41512 17.9962 9.00106 17.9962H2.25344C1.98146 17.9962 1.72602 17.8489 1.59367 17.6112ZM3.84924 16.4962H8.25132V9.38259L3.84924 16.4962ZM22.3866 16.8514C22.5297 17.0828 22.5388 17.3735 22.4064 17.6112C22.2741 17.8489 22.0186 17.9962 21.7467 17.9962H14.999C14.585 17.9962 14.2493 17.6604 14.2493 17.2462V6.74615C14.2493 6.41098 14.4716 6.11649 14.7939 6.02478C15.1162 5.93306 15.4602 6.0664 15.6365 6.35139L22.3866 16.8514ZM15.7488 16.4962H20.1509L15.7488 9.38259V16.4962Z" fill="currentColor"/>
</svg>
