<svg width="24" height="24" viewBox="0 0 24 24"  xmlns="http://www.w3.org/2000/svg">
<path fill-rule="evenodd" clip-rule="evenodd" d="M6.38502 1.58976C6.6227 1.45741 6.91344 1.46647 7.14477 1.60962L17.6448 8.35968C17.9298 8.53604 18.0631 8.88002 17.9714 9.20229C17.8797 9.52457 17.5852 9.74688 17.25 9.74688H6.75C6.33579 9.74688 6 9.41122 6 8.99715V2.24953C6 1.97756 6.14734 1.72212 6.38502 1.58976ZM7.5 3.84534V8.24741H14.6136L7.5 3.84534Z" fill="currentColor"/>
<path d="M1 11.9963C1 11.5822 1.33579 11.2466 1.75 11.2466H22.25C22.6642 11.2466 23 11.5822 23 11.9963C23 12.4104 22.6642 12.746 22.25 12.746H1.75C1.33579 12.746 1 12.4104 1 11.9963Z" fill="currentColor"/>
<path fill-rule="evenodd" clip-rule="evenodd" d="M7.14477 22.3824C6.91344 22.5255 6.6227 22.5346 6.38502 22.4022C6.14734 22.2699 6 22.0144 6 21.7425V14.9948C6 14.5808 6.33579 14.2451 6.75 14.2451H17.25C17.5852 14.2451 17.8797 14.4674 17.9714 14.7897C18.0631 15.112 17.9298 15.456 17.6448 15.6323L7.14477 22.3824ZM7.5 15.7446V20.1467L14.6136 15.7446H7.5Z" fill="currentColor"/>
</svg>
