<svg width="24" height="24" viewBox="0 0 24 24"  xmlns="http://www.w3.org/2000/svg">
<path fill-rule="evenodd" clip-rule="evenodd" d="M9.57489 10.0713C9.83474 10.1916 10 10.4446 10 10.7222V15.75H22.25C22.6642 15.75 23 16.1011 23 16.5C23 16.8989 22.6642 17.25 22.25 17.25H10V22.2778C10 22.5554 9.83474 22.8084 9.57489 22.9287C9.31504 23.049 9.00661 23.0152 8.78148 22.8417L1.28148 17.064C1.10357 16.9269 1 16.7194 1 16.5C1 16.2806 1.10357 16.0731 1.28148 15.936L8.78148 10.1583C9.00661 9.98484 9.31504 9.95102 9.57489 10.0713ZM8.5 12.2249L2.95059 16.5L8.5 20.7751V12.2249ZM15.2185 1.15827C14.9934 0.984836 14.685 0.951022 14.4251 1.07129C14.1653 1.19155 14 1.4446 14 1.72223V6.75H1.75C1.33579 6.75 1 7.10112 1 7.49999C1 7.89887 1.33579 8.25 1.75 8.25H14V13.2778C14 13.5554 14.1653 13.8084 14.4251 13.9287C14.685 14.049 14.9934 14.0152 15.2185 13.8417L22.7185 8.06396C22.8964 7.9269 23 7.7194 23 7.5C23 7.2806 22.8964 7.0731 22.7185 6.93604L15.2185 1.15827ZM15.5 11.7751L21.0494 7.5L15.5 3.2249V11.7751Z" fill="currentColor"/>
</svg>
