<svg width="24" height="24" viewBox="0 0 24 24"  xmlns="http://www.w3.org/2000/svg">
<g clip-path="url(#clip0_865_1975)">
<path d="M15 0.5C15 0.223858 14.7761 0 14.5 0H9.5C9.22386 0 9 0.223858 9 0.5V5.5C9 5.77614 9.22386 6 9.5 6H14.5C14.7761 6 15 5.77614 15 5.5V0.5ZM15 18.5C15 18.2239 14.7761 18 14.5 18H9.5C9.22386 18 9 18.2239 9 18.5V23.5C9 23.7761 9.22386 24 9.5 24H14.5C14.7761 24 15 23.7761 15 23.5V18.5ZM18.5 24C18.2239 24 18 23.7761 18 23.5V18.5C18 18.2239 18.2239 18 18.5 18H23.5C23.7761 18 24 18.2239 24 18.5V23.5C24 23.7761 23.7761 24 23.5 24H18.5ZM6 18.5C6 18.2239 5.77614 18 5.5 18H0.5C0.223858 18 0 18.2239 0 18.5V23.5C0 23.7761 0.223858 24 0.5 24H5.5C5.77614 24 6 23.7761 6 23.5V18.5ZM10.5 13.5H4.5V16C4.5 16.2761 4.27614 16.5 4 16.5H2C1.72386 16.5 1.5 16.2761 1.5 16V12C1.5 11.1 2.1 10.5 3 10.5H10.5V8C10.5 7.72386 10.7239 7.5 11 7.5H13C13.2761 7.5 13.5 7.72386 13.5 8V10.5H21C21.9 10.5 22.5 11.1 22.5 12V16C22.5 16.2761 22.2761 16.5 22 16.5H20C19.7239 16.5 19.5 16.2761 19.5 16V13.5H13.5V16C13.5 16.2761 13.2761 16.5 13 16.5H11C10.7239 16.5 10.5 16.2761 10.5 16V13.5Z" fill="currentColor"/>
</g>
<defs>
<clipPath id="clip0_865_1975">
<rect width="24" height="24" fill="currentColor"/>
</clipPath>
</defs>
</svg>
