<svg width="24" height="24" viewBox="0 0 24 24"  xmlns="http://www.w3.org/2000/svg">
<g clip-path="url(#clip0_865_1962)">
<path fill-rule="evenodd" clip-rule="evenodd" d="M12.75 9.75C12.75 9.33579 12.4142 9 12 9C11.5858 9 11.25 9.33579 11.25 9.75V13.5H3C2.58579 13.5 2.25 13.8358 2.25 14.25V17.25C2.25 17.6642 2.58579 18 3 18C3.41421 18 3.75 17.6642 3.75 17.25V15H11.25V17.25C11.25 17.6642 11.5858 18 12 18C12.4142 18 12.75 17.6642 12.75 17.25V15H20.25V17.25C20.25 17.6642 20.5858 18 21 18C21.4142 18 21.75 17.6642 21.75 17.25V14.25C21.75 13.8358 21.4142 13.5 21 13.5H12.75V9.75ZM23.25 21.75C23.25 22.9926 22.2426 24 21 24C19.7574 24 18.75 22.9926 18.75 21.75C18.75 20.5074 19.7574 19.5 21 19.5C22.2426 19.5 23.25 20.5074 23.25 21.75ZM12 24C13.2426 24 14.25 22.9926 14.25 21.75C14.25 20.5074 13.2426 19.5 12 19.5C10.7574 19.5 9.75 20.5074 9.75 21.75C9.75 22.9926 10.7574 24 12 24ZM5.25 21.75C5.25 22.9926 4.24265 24 3 24C1.75735 24 0.75 22.9926 0.75 21.75C0.75 20.5074 1.75735 19.5 3 19.5C4.24265 19.5 5.25 20.5074 5.25 21.75Z" fill="currentColor"/>
<path d="M12.9994 3.72729C12.9994 4.27958 12.5517 4.72729 11.9994 4.72729C11.4472 4.72729 10.9994 4.27958 10.9994 3.72729C10.9994 3.17501 11.4472 2.72729 11.9994 2.72729C12.5517 2.72729 12.9994 3.17501 12.9994 3.72729Z" fill="currentColor"/>
<path fill-rule="evenodd" clip-rule="evenodd" d="M10.4722 0C10.1404 0 9.83433 0.182462 9.67147 0.477377L8.11831 3.28988C7.96056 3.57552 7.96056 3.92448 8.11831 4.21012L9.67147 7.02262C9.83433 7.31754 10.1404 7.5 10.4722 7.5H13.5278C13.8596 7.5 14.1657 7.31754 14.3285 7.02262L15.8817 4.21012C16.0394 3.92447 16.0394 3.57552 15.8817 3.28988L14.3285 0.477376C14.1657 0.182461 13.8596 0 13.5278 0H10.4722ZM10.4361 1.88363C10.599 1.58871 10.905 1.40625 11.2369 1.40625H12.7631C13.095 1.40625 13.401 1.58871 13.5639 1.88363L14.3405 3.28988C14.4982 3.57552 14.4982 3.92448 14.3405 4.21012L13.5639 5.61637C13.401 5.91129 13.095 6.09375 12.7631 6.09375H11.2369C10.905 6.09375 10.599 5.91129 10.4361 5.61637L9.65953 4.21012C9.50179 3.92448 9.50179 3.57552 9.65953 3.28988L10.4361 1.88363Z" fill="currentColor"/>
</g>
<defs>
<clipPath id="clip0_865_1962">
<rect width="24" height="24" fill="currentColor"/>
</clipPath>
</defs>
</svg>
