<svg width="24" height="24" viewBox="0 0 24 24"  xmlns="http://www.w3.org/2000/svg">
<path d="M1.75 1C2.16421 1 2.5 1.33579 2.5 1.75V8.5H6.25C6.66421 8.5 7 8.83579 7 9.25C7 9.66421 6.66421 10 6.25 10H2.5V19.5H6.25C6.66421 19.5 7 19.8358 7 20.25C7 20.6642 6.66421 21 6.25 21H1.75C1.33579 21 1 20.6642 1 20.25V1.75C1 1.33579 1.33579 1 1.75 1Z" fill="currentColor"/>
<path fill-rule="evenodd" clip-rule="evenodd" d="M8.75 4.5C8.33579 4.5 8 4.83579 8 5.25V11.25C8 11.6642 8.33579 12 8.75 12H22.25C22.6642 12 23 11.6642 23 11.25V5.25C23 4.83579 22.6642 4.5 22.25 4.5H8.75ZM21.5 10.5H9.5V6H21.5V10.5ZM8.75 15.5C8.33579 15.5 8 15.8358 8 16.25V22.25C8 22.6642 8.33579 23 8.75 23H22.25C22.6642 23 23 22.6642 23 22.25V16.25C23 15.8358 22.6642 15.5 22.25 15.5H8.75ZM9.5 17H21.5V21.5H9.5V17Z" fill="currentColor"/>
</svg>
