<svg width="24" height="24" viewBox="0 0 24 24"  xmlns="http://www.w3.org/2000/svg">
<g clip-path="url(#clip0_865_1969)">
<path d="M15 18.5C15 18.2239 14.7761 18 14.5 18H9.5C9.22386 18 9 18.2239 9 18.5V23.5C9 23.7761 9.22386 24 9.5 24H14.5C14.7761 24 15 23.7761 15 23.5V18.5ZM18.5 24C18.2239 24 18 23.7761 18 23.5V18.5C18 18.2239 18.2239 18 18.5 18H23.5C23.7761 18 24 18.2239 24 18.5V23.5C24 23.7761 23.7761 24 23.5 24H18.5ZM6 18.5C6 18.2239 5.77614 18 5.5 18H0.5C0.223858 18 0 18.2239 0 18.5V23.5C0 23.7761 0.223858 24 0.5 24H5.5C5.77614 24 6 23.7761 6 23.5V18.5ZM10.5 14C10.5 13.7239 10.2761 13.5 10 13.5H5C4.72386 13.5 4.5 13.7239 4.5 14V16C4.5 16.2761 4.27614 16.5 4 16.5H2C1.72386 16.5 1.5 16.2761 1.5 16V12C1.5 11.1 2.1 10.5 3 10.5H10C10.2761 10.5 10.5 10.2761 10.5 10V9C10.5 8.72386 10.7239 8.5 11 8.5H13C13.2761 8.5 13.5 8.72386 13.5 9V10C13.5 10.2761 13.7239 10.5 14 10.5H21C21.9 10.5 22.5 11.1 22.5 12V16C22.5 16.2761 22.2761 16.5 22 16.5H20C19.7239 16.5 19.5 16.2761 19.5 16V14C19.5 13.7239 19.2761 13.5 19 13.5H14C13.7239 13.5 13.5 13.7239 13.5 14V16C13.5 16.2761 13.2761 16.5 13 16.5H11C10.7239 16.5 10.5 16.2761 10.5 16V14Z" fill="currentColor"/>
<path fill-rule="evenodd" clip-rule="evenodd" d="M15.7721 3.252L14.104 0.252C14.0179 0.096 13.8569 0 13.6822 0H10.3546C10.18 0 10.019 0.096 9.93237 0.252L8.26422 3.252C8.17859 3.4055 8.17859 3.5945 8.26422 3.748L9.93237 6.748C10.019 6.904 10.18 7 10.3546 7H13.6817C13.8564 7 14.0174 6.904 14.104 6.748L15.7721 3.748C15.8578 3.5945 15.8578 3.4055 15.7721 3.252ZM12.0182 4.77273C12.7211 4.77273 13.2909 4.20291 13.2909 3.5C13.2909 2.79709 12.7211 2.22727 12.0182 2.22727C11.3153 2.22727 10.7455 2.79709 10.7455 3.5C10.7455 4.20291 11.3153 4.77273 12.0182 4.77273Z" fill="currentColor"/>
</g>
<defs>
<clipPath id="clip0_865_1969">
<rect width="24" height="24" fill="currentColor"/>
</clipPath>
</defs>
</svg>
