<svg width="24" height="24" viewBox="0 0 24 24"  xmlns="http://www.w3.org/2000/svg">
<g clip-path="url(#clip0_865_1955)">
<path fill-rule="evenodd" clip-rule="evenodd" d="M8.25 0.75C8.25 0.335787 8.58579 0 9 0H15C15.4142 0 15.75 0.335787 15.75 0.75V6.75C15.75 7.16421 15.4142 7.5 15 7.5H9C8.58579 7.5 8.25 7.16421 8.25 6.75V0.75ZM9.75 1.5V6H14.25V1.5H9.75ZM12.75 9.75C12.75 9.33579 12.4142 9 12 9C11.5858 9 11.25 9.33579 11.25 9.75V13.5H3C2.58579 13.5 2.25 13.8358 2.25 14.25V17.25C2.25 17.6642 2.58579 18 3 18C3.41421 18 3.75 17.6642 3.75 17.25V15H11.25V17.25C11.25 17.6642 11.5858 18 12 18C12.4142 18 12.75 17.6642 12.75 17.25V15H20.25V17.25C20.25 17.6642 20.5858 18 21 18C21.4142 18 21.75 17.6642 21.75 17.25V14.25C21.75 13.8358 21.4142 13.5 21 13.5H12.75V9.75ZM23.25 21.75C23.25 22.9926 22.2426 24 21 24C19.7574 24 18.75 22.9926 18.75 21.75C18.75 20.5074 19.7574 19.5 21 19.5C22.2426 19.5 23.25 20.5074 23.25 21.75ZM12 24C13.2426 24 14.25 22.9926 14.25 21.75C14.25 20.5074 13.2426 19.5 12 19.5C10.7574 19.5 9.75 20.5074 9.75 21.75C9.75 22.9926 10.7574 24 12 24ZM5.25 21.75C5.25 22.9926 4.24265 24 3 24C1.75735 24 0.75 22.9926 0.75 21.75C0.75 20.5074 1.75735 19.5 3 19.5C4.24265 19.5 5.25 20.5074 5.25 21.75Z" fill="currentColor"/>
</g>
<defs>
<clipPath id="clip0_865_1955">
<rect width="24" height="24" fill="currentColor"/>
</clipPath>
</defs>
</svg>
