<svg width="24" height="24" viewBox="0 0 24 24"  xmlns="http://www.w3.org/2000/svg">
<path d="M8.5 18.5C8.5 18.2239 8.27614 18 8 18H4V9H8C8.27614 9 8.5 8.77614 8.5 8.5V6.5C8.5 6.22386 8.27614 6 8 6H4V2.5C4 1.672 3.328 1 2.5 1C1.672 1 1 1.672 1 2.5V19.5C1 20.3295 1.672 21 2.5 21H8C8.27614 21 8.5 20.7761 8.5 20.5V18.5ZM21.5 15H11.5C10.672 15 10 15.672 10 16.5V21.5C10 22.328 10.672 23 11.5 23H21.5C22.328 23 23 22.328 23 21.5V16.5C23 15.672 22.328 15 21.5 15ZM11.5 4H21.5C22.328 4 23 4.672 23 5.5V10.5C23 11.328 22.328 12 21.5 12H11.5C10.672 12 10 11.328 10 10.5V5.5C10 4.672 10.672 4 11.5 4Z" fill="currentColor"/>
</svg>
