<svg width="24" height="24" viewBox="0 0 24 24"  xmlns="http://www.w3.org/2000/svg">
<path fill-rule="evenodd" clip-rule="evenodd" d="M11.6456 18.0283V13.5659C11.6035 13.6007 11.5596 13.6339 11.5139 13.6654L2.75246 19.6937C1.54099 20.5272 0 19.5559 0 18.0283V5.97173C0 4.44403 1.541 3.47276 2.75247 4.30631L11.5139 10.3346C11.5596 10.3661 11.6035 10.3993 11.6456 10.434V5.97173C11.6456 4.44403 13.1866 3.47276 14.398 4.30631L23.1594 10.3346C24.2802 11.1057 24.2802 12.8943 23.1594 13.6654L14.398 19.6937C13.1866 20.5272 11.6456 19.5559 11.6456 18.0283ZM1.67026 5.97173C1.67026 5.90714 1.70005 5.86228 1.73901 5.83851C1.77722 5.8152 1.81906 5.81422 1.85966 5.84215L10.621 11.8704C10.7052 11.9283 10.7052 12.0717 10.621 12.1296L1.85965 18.1579C1.81907 18.1858 1.77721 18.1848 1.739 18.1615C1.70004 18.1377 1.67026 18.0929 1.67026 18.0283V5.97173ZM13.3158 5.97173C13.3158 5.90714 13.3456 5.86228 13.3846 5.83851C13.4228 5.8152 13.4646 5.81422 13.5052 5.84215L22.2666 11.8704C22.3508 11.9283 22.3508 12.0717 22.2666 12.1296L13.5052 18.1579C13.4646 18.1858 13.4228 18.1848 13.3846 18.1615C13.3456 18.1377 13.3158 18.0929 13.3158 18.0283V5.97173Z" fill="currentColor"/>
</svg>
