<svg width="24" height="24" viewBox="0 0 24 24"  xmlns="http://www.w3.org/2000/svg">
<g clip-path="url(#clip0_865_7171)">
<path fill-rule="evenodd" clip-rule="evenodd" d="M0 2C0 0.89543 0.89543 0 2 0H7.25391C7.66812 0 8.00391 0.335786 8.00391 0.75C8.00391 1.16421 7.66812 1.5 7.25391 1.5H2.5C1.94772 1.5 1.5 1.94772 1.5 2.5V7.25391C1.5 7.66812 1.16421 8.00391 0.75 8.00391C0.335786 8.00391 0 7.66812 0 7.25391V2ZM24.0039 2C24.0039 0.89543 23.1085 0 22.0039 0H16.75C16.3358 0 16 0.335786 16 0.75C16 1.16421 16.3358 1.5 16.75 1.5H21.5039C22.0562 1.5 22.5039 1.94772 22.5039 2.5V7.25391C22.5039 7.66812 22.8397 8.00391 23.2539 8.00391C23.6681 8.00391 24.0039 7.66812 24.0039 7.25391V2ZM0 22.0039C0 23.1085 0.89543 24.0039 2 24.0039H7.25391C7.66812 24.0039 8.00391 23.6681 8.00391 23.2539C8.00391 22.8397 7.66812 22.5039 7.25391 22.5039H2.5C1.94772 22.5039 1.5 22.0562 1.5 21.5039V16.75C1.5 16.3358 1.16421 16 0.75 16C0.335786 16 0 16.3358 0 16.75V22.0039ZM24.0039 22.0039C24.0039 23.1085 23.1085 24.0039 22.0039 24.0039H16.75C16.3358 24.0039 16 23.6681 16 23.2539C16 22.8397 16.3358 22.5039 16.75 22.5039H21.5039C22.0562 22.5039 22.5039 22.0562 22.5039 21.5039V16.75C22.5039 16.3358 22.8397 16 23.2539 16C23.6681 16 24.0039 16.3358 24.0039 16.75V22.0039Z" fill="currentColor"/>
</g>
<defs>
<clipPath id="clip0_865_7171">
<rect width="24" height="24" fill="currentColor"/>
</clipPath>
</defs>
</svg>
