<svg width="24" height="24" viewBox="0 0 24 24"  xmlns="http://www.w3.org/2000/svg">
<g clip-path="url(#clip0_865_3272)">
<path d="M22.5 0H1.5C0.6 0 0 0.6 0 1.5V22.5C0 23.4 0.6 24 1.5 24H22.5C23.4 24 24 23.4 24 22.5V1.5C24 0.6 23.4 0 22.5 0ZM9 6C9.9 6 10.5 6.6 10.5 7.5C10.5 8.4 9.9 9 9 9C8.1 9 7.5 8.4 7.5 7.5C7.5 6.6 8.1 6 9 6ZM4.5 18L7.5 12L10.5 15L15 9L19.5 18H4.5Z" fill="currentColor"/>
</g>
<defs>
<clipPath id="clip0_865_3272">
<rect width="24" height="24" fill="currentColor"/>
</clipPath>
</defs>
</svg>
