<svg width="24" height="24" viewBox="0 0 24 24"  xmlns="http://www.w3.org/2000/svg">
<g clip-path="url(#clip0_865_3267)">
<path fill-rule="evenodd" clip-rule="evenodd" d="M2.25 1.5C1.83579 1.5 1.5 1.83579 1.5 2.25V21.75C1.5 22.1642 1.83579 22.5 2.25 22.5H21.75C22.1642 22.5 22.5 22.1642 22.5 21.75V2.25C22.5 1.83579 22.1642 1.5 21.75 1.5H2.25ZM0 2.25C0 1.00736 1.00736 0 2.25 0H21.75C22.9926 0 24 1.00736 24 2.25V21.75C24 22.9926 22.9926 24 21.75 24H2.25C1.00736 24 0 22.9926 0 21.75V2.25ZM14.2708 7.50029C14.5141 7.50704 14.739 7.63145 14.874 7.83397L20.874 16.834C21.0275 17.0641 21.0418 17.36 20.9113 17.6039C20.7807 17.8478 20.5266 18 20.25 18H3.75C3.49007 18 3.24867 17.8654 3.11201 17.6443C2.97536 17.4232 2.96293 17.1471 3.07918 16.9146L6.07918 10.9146C6.187 10.699 6.39189 10.5483 6.62986 10.5097C6.86783 10.4711 7.10986 10.5492 7.28033 10.7197L9.66885 13.1082L13.65 7.8C13.796 7.60528 14.0275 7.49354 14.2708 7.50029ZM14.214 9.54804L10.35 14.7C10.2195 14.8739 10.02 14.9827 9.80317 14.9981C9.5863 15.0135 9.37341 14.9341 9.21967 14.7803L6.95546 12.5161L4.96353 16.5H18.8486L14.214 9.54804ZM10.5 6C10.5 6.82843 9.82843 7.5 9 7.5C8.17157 7.5 7.5 6.82843 7.5 6C7.5 5.17157 8.17157 4.5 9 4.5C9.82843 4.5 10.5 5.17157 10.5 6Z" fill="currentColor"/>
</g>
<defs>
<clipPath id="clip0_865_3267">
<rect width="24" height="24" fill="currentColor"/>
</clipPath>
</defs>
</svg>
