<svg width="24" height="24" viewBox="0 0 24 24"  xmlns="http://www.w3.org/2000/svg">
<g clip-path="url(#clip0_865_4786)">
<path d="M19.95 7.8L21.6 4.65L19.5 2.55L16.35 4.2C15.9 3.9 15.3 3.75 14.7 3.6L13.5 0H10.5L9.3 3.45C8.85 3.6 8.25 3.75 7.8 4.05L4.65 2.4L2.4 4.65L4.05 7.8C3.75 8.25 3.6 8.85 3.45 9.3L0 10.5V13.5L3.45 14.7C3.6 15.3 3.9 15.75 4.05 16.35L2.4 19.5L4.5 21.6L7.65 19.95C8.1 20.25 8.7 20.4 9.3 20.55L10.5 24H13.5L14.7 20.55C15.3 20.4 15.75 20.1 16.35 19.95L19.5 21.6L21.6 19.5L19.95 16.35C20.25 15.9 20.4 15.3 20.55 14.7L24 13.5V10.5L20.55 9.3C20.4 8.85 20.25 8.25 19.95 7.8ZM12 16.5C9.45 16.5 7.5 14.55 7.5 12C7.5 9.45 9.45 7.5 12 7.5C14.55 7.5 16.5 9.45 16.5 12C16.5 14.55 14.55 16.5 12 16.5Z" fill="currentColor"/>
</g>
<defs>
<clipPath id="clip0_865_4786">
<rect width="24" height="24" fill="currentColor"/>
</clipPath>
</defs>
</svg>
