<svg width="24" height="24" viewBox="0 0 24 24"  xmlns="http://www.w3.org/2000/svg">
<g clip-path="url(#clip0_865_4780)">
<path fill-rule="evenodd" clip-rule="evenodd" d="M10.5 0C10.1334 0 9.82052 0.265031 9.76022 0.626646L9.29367 3.42461C8.7921 3.58259 8.30967 3.78276 7.84994 4.02217L5.54173 2.37456C5.2434 2.16161 4.83486 2.19549 4.57568 2.45468L2.45468 4.57568C2.19549 4.83486 2.16161 5.2434 2.37456 5.54173L4.02217 7.84994C3.78276 8.30967 3.58259 8.7921 3.42461 9.29367L0.626646 9.76022C0.265031 9.82052 0 10.1334 0 10.5V13.5C0 13.8666 0.265031 14.1795 0.626646 14.2398L3.42461 14.7063C3.58259 15.2079 3.78276 15.6903 4.02217 16.15L2.37456 18.4583C2.16161 18.7566 2.19549 19.1652 2.45468 19.4244L4.57568 21.5454C4.83486 21.8044 5.2434 21.8384 5.54173 21.6255L7.84994 19.9779C8.30967 20.2173 8.7921 20.4174 9.29367 20.5753L9.76022 23.3733C9.82052 23.735 10.1334 24 10.5 24H13.5C13.8666 24 14.1795 23.735 14.2398 23.3733L14.7063 20.5753C15.2079 20.4174 15.6901 20.2173 16.1499 19.9779L18.4581 21.6269C18.7565 21.8398 19.1651 21.8061 19.4244 21.5469L21.5454 19.4259C21.8044 19.1667 21.8384 18.7582 21.6255 18.4599L19.9777 16.1502C20.2171 15.6904 20.4174 15.2079 20.5753 14.7063L23.3733 14.2398C23.735 14.1795 24 13.8666 24 13.5V10.5C24 10.1334 23.735 9.82052 23.3733 9.76022L20.5753 9.29367C20.4174 8.79216 20.2173 8.30979 19.9779 7.8501L21.6269 5.54196C21.84 5.24354 21.8061 4.83472 21.5466 4.57548L19.4241 2.45448C19.1649 2.19546 18.7565 2.16166 18.4583 2.37456L16.15 4.02217C15.6903 3.78276 15.2079 3.58259 14.7063 3.42461L14.2398 0.626646C14.1795 0.265031 13.8666 0 13.5 0H10.5ZM10.6953 4.13886L11.1353 1.5H12.8647L13.3047 4.13886C13.3536 4.43188 13.5708 4.66845 13.8586 4.7421C14.5573 4.92087 15.214 5.19485 15.8172 5.55291C16.0726 5.70465 16.3938 5.69113 16.6357 5.51844L18.813 3.9643L20.0367 5.18724L18.4817 7.36404C18.3089 7.60599 18.2954 7.92718 18.4472 8.18287C18.8052 8.78601 19.0791 9.44269 19.2579 10.1414C19.3316 10.4292 19.5681 10.6464 19.8612 10.6953L22.5 11.1353V12.8647L19.8612 13.3047C19.5681 13.3536 19.3316 13.5708 19.2579 13.8586C19.0791 14.5573 18.8052 15.214 18.4472 15.8172C18.2954 16.0726 18.3088 16.3937 18.4815 16.6356L20.0356 18.8142L18.813 20.0368L16.6359 18.4817C16.3939 18.3089 16.0728 18.2954 15.8172 18.4472C15.214 18.8052 14.5573 19.0791 13.8586 19.2579C13.5708 19.3316 13.3536 19.5681 13.3047 19.8612L12.8647 22.5H11.1353L10.6953 19.8612C10.6464 19.5681 10.4292 19.3316 10.1414 19.2579C9.44269 19.0791 8.78601 18.8052 8.18287 18.4472C7.92727 18.2954 7.6062 18.3088 7.36427 18.4815L5.18721 20.0355L3.96444 18.8128L5.51844 16.6357C5.69113 16.3938 5.70465 16.0726 5.55291 15.8172C5.19485 15.214 4.92087 14.5573 4.7421 13.8586C4.66845 13.5708 4.43188 13.3536 4.13886 13.3047L1.5 12.8647V11.1353L4.13886 10.6953C4.43188 10.6464 4.66845 10.4292 4.7421 10.1414C4.92087 9.44269 5.19485 8.78601 5.55291 8.18287C5.70465 7.92727 5.69113 7.6062 5.51844 7.36427L3.96444 5.18721L5.18721 3.96444L7.36427 5.51844C7.6062 5.69113 7.92727 5.70465 8.18287 5.55291C8.78601 5.19485 9.44269 4.92087 10.1414 4.7421C10.4292 4.66845 10.6464 4.43188 10.6953 4.13886ZM9 12C9 10.3431 10.3431 9 12 9C13.6569 9 15 10.3431 15 12C15 13.6569 13.6569 15 12 15C10.3431 15 9 13.6569 9 12ZM12 7.5C9.51472 7.5 7.5 9.51472 7.5 12C7.5 14.4853 9.51472 16.5 12 16.5C14.4853 16.5 16.5 14.4853 16.5 12C16.5 9.51472 14.4853 7.5 12 7.5Z" fill="currentColor"/>
</g>
<defs>
<clipPath id="clip0_865_4780">
<rect width="24" height="24" fill="currentColor"/>
</clipPath>
</defs>
</svg>
