<svg width="24" height="24" viewBox="0 0 24 24"  xmlns="http://www.w3.org/2000/svg">
<path fill-rule="evenodd" clip-rule="evenodd" d="M21.877 3.12305C21.877 2.85783 21.7717 2.60348 21.5841 2.41594C21.3966 2.2284 21.1422 2.12305 20.877 2.12305H14.877C14.6118 2.12305 14.3575 2.2284 14.1699 2.41594C13.9824 2.60348 13.877 2.85783 13.877 3.12305V4.12305C13.877 4.38826 13.9824 4.64262 14.1699 4.83015C14.3575 5.01769 14.6118 5.12305 14.877 5.12305H16.756L14.62 7.25905C13.339 6.38705 11.791 5.87705 10.124 5.87705C8.00229 5.87705 5.96746 6.7199 4.46717 8.22019C2.96688 9.72048 2.12402 11.7553 2.12402 13.877C2.12402 15.9988 2.96688 18.0336 4.46717 19.5339C5.96746 21.0342 8.00229 21.877 10.124 21.877C12.2458 21.877 14.2806 21.0342 15.7809 19.5339C17.2812 18.0336 18.124 15.9988 18.124 13.877C18.124 12.21 17.614 10.662 16.742 9.38105L18.877 7.24605V9.12505C18.877 9.39026 18.9824 9.64462 19.1699 9.83215C19.3575 10.0197 19.6118 10.125 19.877 10.125H20.877C21.1422 10.125 21.3966 10.0197 21.5841 9.83215C21.7717 9.64462 21.877 9.39026 21.877 9.12505V3.12305ZM10.124 8.87705C11.5 8.87705 12.746 9.43305 13.651 10.332L13.669 10.35C14.569 11.254 15.125 12.5 15.125 13.877C15.125 15.2031 14.5982 16.4749 13.6606 17.4126C12.7229 18.3503 11.4511 18.877 10.125 18.877C8.79894 18.877 7.52717 18.3503 6.58949 17.4126C5.65181 16.4749 5.12502 15.2031 5.12502 13.877C5.12502 12.551 5.65181 11.2792 6.58949 10.3415C7.52717 9.40383 8.79794 8.87705 10.124 8.87705Z" fill="currentColor"/>
</svg>
