<svg width="24" height="24" viewBox="0 0 24 24"  xmlns="http://www.w3.org/2000/svg">
<path fill-rule="evenodd" clip-rule="evenodd" d="M19.493 2.00684C19.493 1.74162 19.3876 1.48727 19.2001 1.29973C19.0126 1.11219 18.7582 1.00684 18.493 1.00684H13.743C13.5441 1.00684 13.3533 1.08585 13.2127 1.22651C13.072 1.36716 12.993 1.55792 12.993 1.75684C12.993 1.95575 13.072 2.14651 13.2127 2.28717C13.3533 2.42782 13.5441 2.50684 13.743 2.50684H16.932L13.758 5.68084C12.788 4.93584 11.574 4.49284 10.257 4.49284C8.73201 4.49284 7.26947 5.09864 6.19114 6.17697C5.1128 7.25531 4.507 8.71784 4.507 10.2428C4.507 13.1638 6.686 15.5768 9.507 15.9448V18.4398H7.757C7.55809 18.4398 7.36732 18.5189 7.22667 18.6595C7.08602 18.8002 7.007 18.9909 7.007 19.1898C7.007 19.3887 7.08602 19.5795 7.22667 19.7202C7.36732 19.8608 7.55809 19.9398 7.757 19.9398H9.507V22.2428C9.507 22.4417 9.58602 22.6325 9.72667 22.7732C9.86732 22.9138 10.0581 22.9928 10.257 22.9928C10.4559 22.9928 10.6467 22.9138 10.7873 22.7732C10.928 22.6325 11.007 22.4417 11.007 22.2428V19.9398H12.757C12.9559 19.9398 13.1467 19.8608 13.2873 19.7202C13.428 19.5795 13.507 19.3887 13.507 19.1898C13.507 18.9909 13.428 18.8002 13.2873 18.6595C13.1467 18.5189 12.9559 18.4398 12.757 18.4398H11.007V15.9448C13.828 15.5778 16.007 13.1648 16.007 10.2428C16.007 8.92584 15.564 7.71184 14.819 6.74184L17.993 3.56784V6.75684C17.993 6.95575 18.072 7.14651 18.2127 7.28717C18.3533 7.42782 18.5441 7.50684 18.743 7.50684C18.9419 7.50684 19.1327 7.42782 19.2733 7.28717C19.414 7.14651 19.493 6.95575 19.493 6.75684V2.00684ZM14.508 10.2418C14.508 11.369 14.0602 12.45 13.2632 13.247C12.4662 14.0441 11.3852 14.4918 10.258 14.4918C9.13083 14.4918 8.04983 14.0441 7.2528 13.247C6.45577 12.45 6.008 11.369 6.008 10.2418C6.008 9.11467 6.45577 8.03366 7.2528 7.23663C8.04983 6.4396 9.13083 5.99184 10.258 5.99184C11.43 5.99184 12.491 6.46584 13.26 7.23384L13.267 7.23984C14.034 8.00884 14.508 9.06984 14.508 10.2418Z" fill="currentColor"/>
</svg>
