<svg width="24" height="24" viewBox="0 0 24 24"  xmlns="http://www.w3.org/2000/svg">
<path fill-rule="evenodd" clip-rule="evenodd" d="M21.127 3.87305C21.127 3.60783 21.0217 3.35348 20.8341 3.16594C20.6466 2.9784 20.3922 2.87305 20.127 2.87305H15.377C15.1781 2.87305 14.9873 2.95206 14.8467 3.09272C14.706 3.23337 14.627 3.42413 14.627 3.62305C14.627 3.82196 14.706 4.01272 14.8467 4.15338C14.9873 4.29403 15.1781 4.37305 15.377 4.37305H18.566L14.693 8.24705C13.4022 7.19661 11.7882 6.62434 10.124 6.62705C9.17194 6.62705 8.22918 6.81457 7.34957 7.17892C6.46996 7.54327 5.67072 8.0773 4.9975 8.75052C4.32427 9.42375 3.79024 10.223 3.4259 11.1026C3.06155 11.9822 2.87402 12.925 2.87402 13.877C2.87402 14.8291 3.06155 15.7719 3.4259 16.6515C3.79024 17.5311 4.32427 18.3303 4.9975 19.0036C5.67072 19.6768 6.46996 20.2108 7.34957 20.5752C8.22918 20.9395 9.17194 21.127 10.124 21.127C12.0468 21.127 13.8909 20.3632 15.2505 19.0036C16.6102 17.6439 17.374 15.7999 17.374 13.877C17.3767 12.2129 16.8045 10.5988 15.754 9.30805L19.628 5.43405V8.62305C19.628 8.82196 19.707 9.01272 19.8477 9.15338C19.9883 9.29403 20.1791 9.37305 20.378 9.37305C20.5769 9.37305 20.7677 9.29403 20.9084 9.15338C21.049 9.01272 21.128 8.82196 21.128 8.62305L21.127 3.87305ZM10.124 8.12705C11.6428 8.12504 13.1002 8.72606 14.176 9.79805L14.203 9.82505C15.275 10.9009 15.876 12.3583 15.874 13.877C15.874 15.402 15.2682 16.8646 14.1899 17.9429C13.1116 19.0212 11.649 19.627 10.124 19.627C8.59903 19.627 7.13649 19.0212 6.05816 17.9429C4.97983 16.8646 4.37402 15.402 4.37402 13.877C4.37402 12.3521 4.97983 10.8895 6.05816 9.81118C7.13649 8.73285 8.59903 8.12705 10.124 8.12705Z" fill="currentColor"/>
</svg>
