<svg width="24" height="24" viewBox="0 0 24 24"  xmlns="http://www.w3.org/2000/svg">
<path fill-rule="evenodd" clip-rule="evenodd" d="M20.243 1.25684C20.243 0.991619 20.1376 0.737266 19.9501 0.549729C19.7626 0.362193 19.5082 0.256836 19.243 0.256836H13.243C12.9778 0.256836 12.7234 0.362193 12.5359 0.549729C12.3484 0.737266 12.243 0.991619 12.243 1.25684V2.25684C12.243 2.52205 12.3484 2.77641 12.5359 2.96394C12.7234 3.15148 12.9778 3.25684 13.243 3.25684H15.122L13.67 4.70884C12.6449 4.07501 11.4632 3.74009 10.258 3.74184C8.5341 3.74184 6.8808 4.42666 5.66181 5.64564C4.44282 6.86463 3.758 8.51793 3.758 10.2418C3.758 13.3158 5.891 15.8908 8.758 16.5678V17.6888H7.258C6.99279 17.6888 6.73843 17.7942 6.5509 17.9817C6.36336 18.1693 6.258 18.4236 6.258 18.6888V19.6888C6.258 19.9541 6.36336 20.2084 6.5509 20.3959C6.73843 20.5835 6.99279 20.6888 7.258 20.6888H8.758V22.7418C8.758 23.0071 8.86336 23.2614 9.0509 23.4489C9.23843 23.6365 9.49279 23.7418 9.758 23.7418H10.758C11.0232 23.7418 11.2776 23.6365 11.4651 23.4489C11.6526 23.2614 11.758 23.0071 11.758 22.7418V20.6888H13.258C13.5232 20.6888 13.7776 20.5835 13.9651 20.3959C14.1526 20.2084 14.258 19.9541 14.258 19.6888V18.6888C14.258 18.4236 14.1526 18.1693 13.9651 17.9817C13.7776 17.7942 13.5232 17.6888 13.258 17.6888H11.758V16.5678C14.625 15.8908 16.758 13.3158 16.758 10.2418C16.7597 9.03664 16.4248 7.85491 15.791 6.82984L17.243 5.37784V7.25684C17.243 7.52205 17.3484 7.77641 17.5359 7.96394C17.7234 8.15148 17.9778 8.25684 18.243 8.25684H19.243C19.5082 8.25684 19.7626 8.15148 19.9501 7.96394C20.1376 7.77641 20.243 7.52205 20.243 7.25684V1.25684ZM13.758 10.2418C13.758 11.1701 13.3893 12.0603 12.7329 12.7167C12.0765 13.3731 11.1863 13.7418 10.258 13.7418C9.32975 13.7418 8.43951 13.3731 7.78313 12.7167C7.12675 12.0603 6.758 11.1701 6.758 10.2418C6.758 9.31358 7.12675 8.42334 7.78313 7.76696C8.43951 7.11058 9.32975 6.74184 10.258 6.74184C10.7164 6.74139 11.1703 6.83124 11.594 7.00625C12.0176 7.18127 12.4026 7.43801 12.727 7.76184L12.738 7.77284C13.0618 8.09723 13.3186 8.48225 13.4936 8.90588C13.6686 9.32951 13.7584 9.78347 13.758 10.2418Z" fill="currentColor"/>
</svg>
