<svg width="24" height="24" viewBox="0 0 24 24"  xmlns="http://www.w3.org/2000/svg">
<path fill-rule="evenodd" clip-rule="evenodd" d="M20 8.5C20 12.406 17.201 15.658 13.5 16.36V17.447H16C16.2652 17.447 16.5196 17.5524 16.7071 17.7399C16.8946 17.9274 17 18.1818 17 18.447V19.447C17 19.7122 16.8946 19.9666 16.7071 20.1541C16.5196 20.3416 16.2652 20.447 16 20.447H13.5V22.5C13.5 22.7652 13.3946 23.0196 13.2071 23.2071C13.0196 23.3946 12.7652 23.5 12.5 23.5H11.5C11.2348 23.5 10.9804 23.3946 10.7929 23.2071C10.6054 23.0196 10.5 22.7652 10.5 22.5V20.447H8C7.73478 20.447 7.48043 20.3416 7.29289 20.1541C7.10536 19.9666 7 19.7122 7 19.447V18.447C7 18.1818 7.10536 17.9274 7.29289 17.7399C7.48043 17.5524 7.73478 17.447 8 17.447H10.5V16.36C6.799 15.658 4 12.406 4 8.5C4 6.37827 4.84285 4.34344 6.34315 2.84315C7.84344 1.34285 9.87827 0.5 12 0.5C14.1217 0.5 16.1566 1.34285 17.6569 2.84315C19.1571 4.34344 20 6.37827 20 8.5ZM12 13.5C13.3261 13.5 14.5979 12.9732 15.5355 12.0355C16.4732 11.0979 17 9.82608 17 8.5C17 7.17392 16.4732 5.90215 15.5355 4.96447C14.5979 4.02678 13.3261 3.5 12 3.5C10.6739 3.5 9.40215 4.02678 8.46447 4.96447C7.52678 5.90215 7 7.17392 7 8.5C7 9.82608 7.52678 11.0979 8.46447 12.0355C9.40215 12.9732 10.6739 13.5 12 13.5Z" fill="currentColor"/>
</svg>
