<svg width="24" height="24" viewBox="0 0 24 24"  xmlns="http://www.w3.org/2000/svg">
<path fill-rule="evenodd" clip-rule="evenodd" d="M19.25 8.5C19.25 12.251 16.402 15.336 12.75 15.712V18.197H15.5C15.6989 18.197 15.8897 18.276 16.0303 18.4167C16.171 18.5573 16.25 18.7481 16.25 18.947C16.25 19.1459 16.171 19.3367 16.0303 19.4773C15.8897 19.618 15.6989 19.697 15.5 19.697H12.75V22C12.75 22.1989 12.671 22.3897 12.5303 22.5303C12.3897 22.671 12.1989 22.75 12 22.75C11.8011 22.75 11.6103 22.671 11.4697 22.5303C11.329 22.3897 11.25 22.1989 11.25 22V19.697H8.5C8.30109 19.697 8.11032 19.618 7.96967 19.4773C7.82902 19.3367 7.75 19.1459 7.75 18.947C7.75 18.7481 7.82902 18.5573 7.96967 18.4167C8.11032 18.276 8.30109 18.197 8.5 18.197H11.25V15.712C7.598 15.337 4.75 12.251 4.75 8.5C4.75 7.54792 4.93753 6.60516 5.30187 5.72554C5.66622 4.84593 6.20025 4.0467 6.87348 3.37348C7.5467 2.70025 8.34593 2.16622 9.22554 1.80187C10.1052 1.43753 11.0479 1.25 12 1.25C12.9521 1.25 13.8948 1.43753 14.7745 1.80187C15.6541 2.16622 16.4533 2.70025 17.1265 3.37348C17.7997 4.0467 18.3338 4.84593 18.6981 5.72554C19.0625 6.60516 19.25 7.54792 19.25 8.5ZM12 14.25C13.525 14.25 14.9875 13.6442 16.0659 12.5659C17.1442 11.4875 17.75 10.025 17.75 8.5C17.75 6.97501 17.1442 5.51247 16.0659 4.43414C14.9875 3.3558 13.525 2.75 12 2.75C10.475 2.75 9.01247 3.3558 7.93414 4.43414C6.8558 5.51247 6.25 6.97501 6.25 8.5C6.25 10.025 6.8558 11.4875 7.93414 12.5659C9.01247 13.6442 10.475 14.25 12 14.25Z" fill="currentColor"/>
</svg>
