<svg width="24" height="24" viewBox="0 0 24 24"  xmlns="http://www.w3.org/2000/svg">
<path fill-rule="evenodd" clip-rule="evenodd" d="M6.99998 0.999512C8.65683 0.999512 9.99998 2.34266 9.99998 3.99951C9.99998 5.39703 9.04339 6.5675 7.74998 6.90088V13.2495H16C16.138 13.2495 16.25 13.1376 16.25 12.9995V9.90088C14.9566 9.5675 14 8.39703 14 6.99951C14 5.34266 15.3431 3.99951 17 3.99951C18.6568 3.99951 20 5.34266 20 6.99951C20 8.39703 19.0434 9.5675 17.75 9.90088V12.9995C17.75 13.966 16.9665 14.7495 16 14.7495H7.74998V17.0972C9.04351 17.4305 9.99998 18.6019 9.99998 19.9995C9.99998 21.6564 8.65683 22.9995 6.99998 22.9995C5.34312 22.9995 3.99998 21.6564 3.99998 19.9995C3.99998 18.6019 4.95644 17.4305 6.24998 17.0972V6.90088C4.95656 6.5675 3.99998 5.39703 3.99998 3.99951C3.99998 2.34266 5.34312 0.999512 6.99998 0.999512ZM6.99998 18.4995C6.17155 18.4995 5.49998 19.1711 5.49998 19.9995C5.49998 20.8279 6.17155 21.4995 6.99998 21.4995C7.8284 21.4995 8.49998 20.8279 8.49998 19.9995C8.49998 19.1711 7.8284 18.4995 6.99998 18.4995ZM17 5.49951C16.1715 5.49951 15.5 6.17108 15.5 6.99951C15.5 7.82794 16.1715 8.49951 17 8.49951C17.8284 8.49951 18.5 7.82794 18.5 6.99951C18.5 6.17108 17.8284 5.49951 17 5.49951ZM6.99998 2.49951C6.17155 2.49951 5.49998 3.17108 5.49998 3.99951C5.49998 4.82794 6.17155 5.49951 6.99998 5.49951C7.8284 5.49951 8.49998 4.82794 8.49998 3.99951C8.49998 3.17108 7.8284 2.49951 6.99998 2.49951Z" fill="currentColor"/>
</svg>
