<svg width="24" height="24" viewBox="0 0 24 24"  xmlns="http://www.w3.org/2000/svg">
<path d="M7 1C8.65685 1 10 2.34315 10 4C10 5.10972 9.39576 6.07577 8.5 6.59473V12.5H15.5V9.59473C14.6042 9.07577 14 8.10972 14 7C14 5.34315 15.3431 4 17 4C18.6569 4 20 5.34315 20 7C20 8.10972 19.3958 9.07577 18.5 9.59473V13C18.5 14.3807 17.3807 15.5 16 15.5H8.5V17.4043C9.396 17.9232 10 18.8901 10 20C10 21.6569 8.65685 23 7 23C5.34315 23 4 21.6569 4 20C4 18.8901 4.604 17.9232 5.5 17.4043V6.59473C4.60424 6.07577 4 5.10972 4 4C4 2.34315 5.34315 1 7 1Z" fill="currentColor"/>
</svg>
