<svg width="24" height="24" viewBox="0 0 24 24" fill="none" xmlns="http://www.w3.org/2000/svg">
<g clip-path="url(#clip0_865_917)">
<path d="M12 0C5.34545 0 0 5.44123 0 12.2972C0 17.7384 3.49091 22.309 8.18182 23.9414C8.72727 24.0502 9.05455 23.7238 9.05455 23.3973C9.05455 23.0708 9.05455 22.0914 9.05455 21.112C5.67273 21.7649 5.01818 19.5884 5.01818 19.5884C4.47273 18.1737 3.70909 17.7384 3.70909 17.7384C2.61818 16.9766 3.81818 16.9766 3.81818 16.9766C5.01818 17.0855 5.67273 18.2825 5.67273 18.2825C6.76364 20.1326 8.50909 19.5884 9.16364 19.262C9.27273 18.5002 9.6 17.9561 9.92727 17.6296C7.09091 17.4119 4.36364 16.3237 4.36364 11.6442C4.36364 10.3383 4.8 9.25009 5.56364 8.3795C5.45455 8.05302 5.01818 6.74713 5.67273 5.11476C5.67273 5.11476 6.65455 4.78828 8.94545 6.42065C9.92727 6.09418 10.9091 5.98535 12 5.98535C12.9818 5.98535 14.0727 6.09418 15.0545 6.42065C17.3455 4.78828 18.3273 5.11476 18.3273 5.11476C18.9818 6.85595 18.5455 8.05302 18.4364 8.3795C19.2 9.25009 19.6364 10.3383 19.6364 11.6442C19.6364 16.3237 16.8 17.4119 14.1818 17.7384C14.6182 18.1737 14.9455 18.8267 14.9455 20.0237C14.9455 21.6561 14.9455 22.962 14.9455 23.3973C14.9455 23.7238 15.1636 24.1591 15.8182 23.9414C20.6182 22.309 24 17.7384 24 12.2972C24 5.44123 18.6545 0 12 0Z" fill="#181616"/>
</g>
<defs>
<clipPath id="clip0_865_917">
<rect width="24" height="24" fill="white"/>
</clipPath>
</defs>
</svg>
