<svg width="24" height="24" viewBox="0 0 24 24"  xmlns="http://www.w3.org/2000/svg">
<path d="M12.2002 1C16.6441 1.00009 20.4994 3.4112 22.4141 6.94043C22.6809 7.43242 22.3029 8 21.7432 8C21.4413 7.99989 21.1682 7.82594 21.0225 7.56152C19.8276 5.39303 17.7845 3.71798 15.3154 2.94141C15.6282 3.38877 15.9093 3.89785 16.1572 4.45117C16.507 5.23175 16.8009 6.12275 17.0283 7.09473C17.1379 7.56332 16.7732 7.99987 16.292 8C15.9238 8 15.6092 7.73912 15.5244 7.38086C15.3174 6.50427 15.0539 5.71189 14.748 5.0293C14.3563 4.15491 13.9093 3.49413 13.4521 3.0625C12.9984 2.63408 12.576 2.46687 12.2002 2.4668C11.8243 2.4668 11.4021 2.63399 10.9482 3.0625C10.4911 3.4941 10.0442 4.15479 9.65234 5.0293C8.93979 6.61963 8.45919 8.80473 8.37891 11.2666V12.7334C8.45919 15.1953 8.93979 17.3803 9.65234 18.9707C10.0442 19.8452 10.4911 20.5059 10.9482 20.9375C11.1378 21.1164 11.3216 21.2501 11.499 21.3447C11.8564 21.5352 12.2002 21.8616 12.2002 22.2666C12.2002 22.6715 11.8709 23.0017 11.4668 22.9775C5.45731 22.6157 0.700195 17.8394 0.700195 12C0.700195 5.92486 5.84892 1 12.2002 1ZM22.7012 16.5C22.86 16.5001 23.0127 16.5636 23.125 16.6758C23.237 16.7882 23.2998 16.9409 23.2998 17.0996C23.2997 17.2581 23.2369 17.4102 23.125 17.5225L21.1514 19.4961L23.125 21.4697C23.234 21.5827 23.2943 21.7346 23.293 21.8916C23.2915 22.0486 23.2282 22.1986 23.1172 22.3096C23.0062 22.4206 22.8562 22.4839 22.6992 22.4854C22.5422 22.4868 22.3903 22.4264 22.2773 22.3174L20.3037 20.3438L18.3301 22.3174C18.2749 22.3745 18.2087 22.4199 18.1357 22.4512C18.0626 22.4826 17.9839 22.4993 17.9043 22.5C17.8249 22.5006 17.7464 22.4851 17.6729 22.4551C17.5992 22.4249 17.5319 22.3805 17.4756 22.3242C17.4195 22.268 17.3749 22.2014 17.3447 22.1279C17.3146 22.0543 17.2991 21.9751 17.2998 21.8955C17.3006 21.8159 17.3172 21.7372 17.3486 21.6641C17.38 21.591 17.4262 21.525 17.4834 21.4697L19.4561 19.4961L17.4834 17.5225C17.3743 17.4095 17.3131 17.2586 17.3145 17.1016C17.3158 16.9444 17.3791 16.7937 17.4902 16.6826C17.6013 16.5715 17.7521 16.5082 17.9092 16.5068C18.0662 16.5056 18.2171 16.5667 18.3301 16.6758L20.3037 18.6484L22.2773 16.6758C22.3898 16.5635 22.5423 16.5 22.7012 16.5ZM22.2881 9.55371C22.846 9.55371 23.2988 10.0065 23.2988 10.5645V12.0303C23.2986 12.3471 23.1496 12.6462 22.8965 12.8369L19.9668 15.0449C19.6458 15.2865 19.1893 15.222 18.9473 14.9014C18.7054 14.5804 18.7693 14.1241 19.0898 13.8818L21.8418 11.8076V11.0107H11.457V11.8076L15.4893 14.8467L15.4883 14.8477C15.788 15.0635 15.9678 15.4093 15.9678 15.7803V21.7568C15.9675 22.1588 15.6413 22.4854 15.2393 22.4854C14.8374 22.4851 14.512 22.1587 14.5117 21.7568V15.9326L10.4023 12.8369C10.1493 12.6462 10.0003 12.3471 10 12.0303V10.5645C10 10.0065 10.4528 9.55371 11.0107 9.55371H22.2881ZM2.2627 12.7334C2.57302 16.6348 5.33794 19.8804 9.08398 21.0586C8.77114 20.6112 8.49014 20.1023 8.24219 19.5488C7.43456 17.7463 6.92525 15.3568 6.84473 12.7334H2.2627ZM9.08398 2.94141C5.33795 4.11966 2.57302 7.36513 2.2627 11.2666H6.84473C6.92525 8.64319 7.43456 6.25371 8.24219 4.45117C8.49014 3.89778 8.77114 3.38882 9.08398 2.94141Z" fill="currentColor"/>
</svg>
