<svg width="24" height="24" viewBox="0 0 24 24"  xmlns="http://www.w3.org/2000/svg">
<path d="M12.2 1C16.6439 1 20.4991 3.41119 22.4138 6.94043C22.6806 7.43229 22.3034 7.99971 21.7439 8C21.4418 8 21.168 7.82608 21.0222 7.56152C19.8274 5.39313 17.7851 3.71803 15.3162 2.94141C15.6289 3.38875 15.9091 3.89788 16.157 4.45117C16.5067 5.23175 16.8007 6.12275 17.0281 7.09473C17.1377 7.56341 16.7731 8 16.2917 8C15.9236 7.99999 15.6089 7.73914 15.5242 7.38086C15.3171 6.50424 15.0536 5.7119 14.7478 5.0293C14.356 4.15483 13.9091 3.49412 13.4519 3.0625C12.998 2.63399 12.5758 2.4668 12.2 2.4668C11.8241 2.4668 11.4019 2.63399 10.948 3.0625C10.4908 3.49412 10.0439 4.15483 9.6521 5.0293C8.93955 6.61963 8.45895 8.80473 8.37866 11.2666V12.7334C8.45895 15.1953 8.93955 17.3803 9.6521 18.9707C10.0439 19.8452 10.4909 20.5058 10.948 20.9375C11.1375 21.1164 11.3214 21.2501 11.4988 21.3447C11.8562 21.5352 12.1999 21.8616 12.2 22.2666C12.2 22.6716 11.8708 23.0018 11.4666 22.9775C5.45707 22.6157 0.699951 17.8394 0.699951 12C0.699951 5.92486 5.84867 1 12.2 1ZM22.2595 9.53223C22.8295 9.53223 23.2917 9.99452 23.2917 10.5645V12.0303C23.2915 12.3539 23.1391 12.6597 22.8806 12.8545L18.781 15.9434V19.9053C18.7808 20.2674 18.5905 20.6036 18.28 20.79L16.0242 22.1436C15.3365 22.5559 14.461 22.0605 14.4607 21.2588V15.9434L10.3611 12.8545C10.1026 12.6597 9.9502 12.3539 9.94995 12.0303V10.5645C9.94995 9.99452 10.4122 9.53223 10.9822 9.53223H22.2595ZM2.26245 12.7334C2.57277 16.6349 5.3386 19.8804 9.08472 21.0586C8.77192 20.6113 8.49084 20.1021 8.24292 19.5488C7.43529 17.7463 6.92501 15.3568 6.84448 12.7334H2.26245ZM11.45 11.7959L15.4744 14.8291L15.4724 14.8301C15.7777 15.05 15.9607 15.4023 15.9607 15.7803V20.4316L17.281 19.6396V15.7803C17.281 15.4026 17.4634 15.05 17.7683 14.8301L17.7673 14.8291L21.7917 11.7959V11.0322H11.45V11.7959ZM9.08472 2.94141C5.33861 4.11963 2.57277 7.36507 2.26245 11.2666H6.84448C6.92501 8.64319 7.43529 6.25371 8.24292 4.45117C8.49085 3.89789 8.77192 3.38874 9.08472 2.94141Z" fill="currentColor"/>
</svg>
