<svg width="24" height="24" viewBox="0 0 24 24"  xmlns="http://www.w3.org/2000/svg">
<g clip-path="url(#clip0_865_4792)">
<path fill-rule="evenodd" clip-rule="evenodd" d="M12 0C5.37258 0 0 5.37258 0 12C0 18.6274 5.37258 24 12 24C18.6274 24 24 18.6274 24 12C24 5.37258 18.6274 0 12 0ZM9.3412 4.39554C8.59766 6.13047 8.0962 8.51429 8.01243 11.2H15.9876C15.9038 8.51429 15.4023 6.13047 14.6588 4.39554C14.2499 3.44143 13.7835 2.72041 13.3064 2.24955C12.8328 1.78208 12.3922 1.6 12 1.6C11.6078 1.6 11.1672 1.78208 10.6936 2.24955C10.2165 2.72041 9.75011 3.44143 9.3412 4.39554ZM8.74883 2.11828C8.42236 2.6064 8.12932 3.16152 7.87057 3.76527C7.02782 5.73169 6.49573 8.33807 6.41171 11.2H1.63031C1.95409 6.94375 4.83982 3.40362 8.74883 2.11828ZM15.2512 2.11828C15.5776 2.6064 15.8707 3.16152 16.1294 3.76527C16.9722 5.73169 17.5043 8.33807 17.5883 11.2H22.3697C22.0459 6.94375 19.1602 3.40363 15.2512 2.11828ZM22.3697 12.8H17.5883C17.5043 15.6619 16.9722 18.2683 16.1294 20.2347C15.8707 20.8385 15.5776 21.3936 15.2512 21.8817C19.1602 20.5964 22.0459 17.0562 22.3697 12.8ZM12 22.4C12.3922 22.4 12.8328 22.2179 13.3064 21.7505C13.7835 21.2796 14.2499 20.5586 14.6588 19.6045C15.4023 17.8695 15.9038 15.4857 15.9876 12.8H8.01243C8.0962 15.4857 8.59766 17.8695 9.3412 19.6045C9.75011 20.5586 10.2165 21.2796 10.6936 21.7505C11.1672 22.2179 11.6078 22.4 12 22.4ZM8.74883 21.8817C8.42235 21.3936 8.12932 20.8385 7.87057 20.2347C7.02782 18.2683 6.49573 15.6619 6.41171 12.8H1.63031C1.95409 17.0562 4.83981 20.5964 8.74883 21.8817Z" fill="currentColor"/>
</g>
<defs>
<clipPath id="clip0_865_4792">
<rect width="24" height="24" fill="currentColor"/>
</clipPath>
</defs>
</svg>
