<svg width="24" height="24" viewBox="0 0 24 24"  xmlns="http://www.w3.org/2000/svg">
<g clip-path="url(#clip0_865_4798)">
<path d="M12 0C5.4 0 0 5.4 0 12C0 18.6 5.4 24 12 24C18.6 24 24 18.6 24 12C24 5.4 18.6 0 12 0ZM20.85 10.5H18C17.85 8.25 17.4 6.15 16.8 4.35C18.9 5.7 20.4 7.95 20.85 10.5ZM12 21C11.1 21 9.3 18.15 9 13.5H15C14.7 18.15 12.9 21 12 21ZM9 10.5C9.3 5.85 10.95 3 12 3C13.05 3 14.7 5.85 15 10.5H9ZM7.35 4.35C6.6 6.15 6.15 8.25 6 10.5H3.15C3.6 7.95 5.1 5.7 7.35 4.35ZM3.15 13.5H6C6.15 15.75 6.6 17.85 7.2 19.65C5.1 18.3 3.6 16.05 3.15 13.5ZM16.65 19.65C17.4 17.85 17.7 15.75 17.85 13.5H20.7C20.4 16.05 18.9 18.3 16.65 19.65Z" fill="currentColor"/>
</g>
<defs>
<clipPath id="clip0_865_4798">
<rect width="24" height="24" fill="currentColor"/>
</clipPath>
</defs>
</svg>
