<svg width="24" height="24" viewBox="0 0 24 24"  xmlns="http://www.w3.org/2000/svg">
<g clip-path="url(#clip0_5005_86)">
<path d="M12.2002 0.625C16.781 0.625088 20.7636 3.11107 22.7441 6.76172C23.1623 7.53316 22.5527 8.37441 21.7441 8.375C21.2952 8.375 20.901 8.11714 20.6943 7.74219C19.7103 5.95636 18.1244 4.51687 16.1924 3.6709C16.2991 3.87373 16.4025 4.0825 16.499 4.29785L16.6318 4.60449C16.9345 5.33281 17.1905 6.14191 17.3936 7.00977C17.5608 7.72635 17.0012 8.37485 16.292 8.375C15.7415 8.37498 15.282 7.98585 15.1592 7.4668C14.9567 6.60982 14.7009 5.84033 14.4062 5.18262C14.0274 4.33712 13.6047 3.72247 13.1943 3.33496C12.7899 2.95321 12.4554 2.84187 12.2002 2.8418C11.945 2.8418 11.6106 2.95319 11.2061 3.33496C10.7957 3.72245 10.373 4.33708 9.99414 5.18262C9.3058 6.71898 8.83298 8.85461 8.75391 11.2793V12.7207L8.77344 13.1719C8.89308 15.4101 9.34878 17.3769 9.99414 18.8174C10.373 19.6629 10.7956 20.2775 11.2061 20.665C11.3755 20.8249 11.5329 20.9375 11.6758 21.0137C12.0647 21.2211 12.5751 21.6444 12.5752 22.2666C12.5752 22.8729 12.0783 23.3895 11.4443 23.3516C5.25261 22.9788 0.325195 18.0532 0.325195 12C0.325195 5.70222 5.6577 0.625 12.2002 0.625ZM22.2598 9.15723C23.0367 9.15736 23.667 9.7875 23.667 10.5645V12.0303C23.6666 12.4714 23.4589 12.8886 23.1064 13.1543L19.1562 16.1299V19.9053C19.156 20.3989 18.8966 20.8571 18.4736 21.1113L16.2178 22.4648C15.2804 23.0268 14.0864 22.352 14.0859 21.2588V16.1299L10.1357 13.1543C9.78318 12.8886 9.57554 12.4714 9.5752 12.0303V10.5645C9.5752 9.78742 10.2054 9.15723 10.9824 9.15723H22.2598ZM2.67871 13.1084C3.08459 16.3198 5.23404 19.0284 8.20898 20.3301C8.1019 20.127 7.99806 19.9179 7.90137 19.7022C7.10751 17.9304 6.6001 15.6275 6.48438 13.1084H2.67871ZM11.8252 11.6084L16.1836 14.8936L16.0859 14.9414C16.2456 15.1875 16.3359 15.4771 16.3359 15.7803V19.7686L16.9062 19.4268V15.7803L16.917 15.5947C16.9511 15.3127 17.0647 15.0495 17.2373 14.8291L17.1973 14.7891L21.417 11.6084V11.4072H11.8252V11.6084ZM8.20898 3.66895C5.23385 4.97062 3.08461 7.68007 2.67871 10.8916H6.48438C6.6001 8.37245 7.10751 6.06965 7.90137 4.29785C7.99818 4.08181 8.10175 3.8723 8.20898 3.66895Z" fill="currentColor"/>
</g>
<defs>
<clipPath id="clip0_5005_86">
<rect width="24" height="24" fill="currentColor"/>
</clipPath>
</defs>
</svg>
