<svg width="24" height="24" viewBox="0 0 24 24"  xmlns="http://www.w3.org/2000/svg">
<g clip-path="url(#clip0_5005_90)">
<path d="M12.2002 0.625C16.781 0.625091 20.7636 3.111 22.7441 6.76172C23.1628 7.53388 22.5518 8.375 21.7432 8.375C21.2941 8.37483 20.9007 8.11662 20.6943 7.74219C19.7102 5.95622 18.1238 4.51683 16.1914 3.6709C16.2984 3.87379 16.4025 4.0823 16.499 4.29785L16.6318 4.60449C16.9345 5.33283 17.1905 6.14187 17.3936 7.00977C17.5609 7.72643 17.0011 8.3748 16.292 8.375C15.7415 8.375 15.282 7.9858 15.1592 7.4668C14.9567 6.60982 14.7009 5.84033 14.4062 5.18262C14.0274 4.33712 13.6047 3.72248 13.1943 3.33496C12.8406 3.00107 12.5403 2.87428 12.2998 2.84766L12.2002 2.8418C11.945 2.8418 11.6106 2.95309 11.2061 3.33496C10.7956 3.72243 10.3731 4.33697 9.99414 5.18262C9.3058 6.71898 8.83298 8.85461 8.75391 11.2793V12.7207L8.77344 13.1719C8.89308 15.4101 9.34878 17.3769 9.99414 18.8174C10.373 19.663 10.7956 20.2775 11.2061 20.665C11.3756 20.825 11.5328 20.9375 11.6758 21.0137C12.0647 21.2211 12.5751 21.6443 12.5752 22.2666C12.5752 22.8351 12.1383 23.3248 11.5615 23.3525L11.4443 23.3516C5.25261 22.9788 0.325195 18.0532 0.325195 12C0.325195 5.70222 5.6577 0.625 12.2002 0.625ZM22.7012 16.125C22.9596 16.1251 23.2074 16.2283 23.3896 16.4102L23.3906 16.4111C23.5731 16.5942 23.6748 16.8422 23.6748 17.0996C23.6746 17.357 23.5727 17.6045 23.3906 17.7871L21.6826 19.4961L23.3906 21.2041L23.3945 21.209C23.5719 21.3929 23.6701 21.6397 23.668 21.8945C23.6655 22.1499 23.5625 22.3943 23.3828 22.5742C23.2028 22.7544 22.9586 22.8579 22.7031 22.8604C22.4482 22.8625 22.2003 22.7641 22.0166 22.5869L22.0117 22.583L20.3037 20.875L18.5957 22.583L18.5947 22.582C18.5055 22.6731 18.3996 22.745 18.2832 22.7949L18.2842 22.7959C18.1657 22.8468 18.0376 22.8737 17.9082 22.875C17.7779 22.876 17.6494 22.8501 17.5312 22.8018C17.4124 22.7531 17.3029 22.6816 17.2109 22.5898L17.21 22.5889C17.1197 22.4984 17.0473 22.3905 16.998 22.2705C16.9494 22.1515 16.9237 22.0215 16.9248 21.8916C16.9261 21.7622 16.953 21.6341 17.0039 21.5156C17.0556 21.3954 17.1311 21.2887 17.2227 21.2002L18.9258 19.4961L17.2139 17.7832C17.0378 17.6008 16.9373 17.3555 16.9395 17.0986C16.9417 16.843 17.0449 16.5976 17.2256 16.417C17.4061 16.2367 17.6509 16.134 17.9062 16.1318C18.1309 16.1301 18.3468 16.2064 18.5195 16.3438L18.5908 16.4062L18.5957 16.4102L20.3037 18.1182L22.0127 16.4102C22.195 16.2283 22.4425 16.125 22.7012 16.125ZM22.2881 9.17871C23.0531 9.17871 23.6738 9.7994 23.6738 10.5645V12.0303C23.6735 12.4646 23.4692 12.8751 23.1221 13.1367L20.1924 15.3447C19.7058 15.7108 19.015 15.6125 18.6484 15.127C18.2822 14.6407 18.3787 13.9489 18.8643 13.582L21.4668 11.6201V11.3857H11.832V11.6201L16.0596 14.8066L16.0186 14.8467C16.2239 15.1101 16.3428 15.4358 16.3428 15.7803V21.7568C16.3423 22.3655 15.8487 22.8604 15.2393 22.8604C14.6298 22.86 14.1371 22.3649 14.1367 21.7568V16.1191L10.1768 13.1367C9.82962 12.8751 9.62535 12.4646 9.625 12.0303V10.5645C9.625 9.7994 10.2457 9.17871 11.0107 9.17871H22.2881ZM2.67871 13.1084C3.08453 16.3198 5.23329 19.0283 8.20801 20.3301C8.10092 20.127 7.9971 19.918 7.90039 19.7021C7.1065 17.9303 6.60001 15.6274 6.48438 13.1084H2.67871ZM8.20801 3.66895C5.23311 4.97064 3.08455 7.68007 2.67871 10.8916H6.48438C6.60001 8.37255 7.1065 6.06973 7.90039 4.29785C7.99722 4.08175 8.10077 3.87231 8.20801 3.66895Z" fill="currentColor"/>
</g>
<defs>
<clipPath id="clip0_5005_90">
<rect width="24" height="24" fill="currentColor"/>
</clipPath>
</defs>
</svg>
