<svg width="24" height="24" viewBox="0 0 24 24" fill="none" xmlns="http://www.w3.org/2000/svg">
<g clip-path="url(#clip0_865_933)">
<path d="M8.28493 0.654886C1.86398 2.83784 -1.50974 9.71415 0.775686 15.9356C2.08164 19.6466 5.2377 22.5936 9.15556 23.5759C11.2233 24.1217 13.3999 24.1217 15.3588 23.6851C17.209 23.2485 18.9502 22.3753 20.365 21.1747C21.8886 19.8649 22.8681 18.1185 23.4122 16.1539C23.9564 14.0801 24.0652 11.8971 23.7387 9.8233H12.2028C12.2028 11.3514 12.2028 12.9886 12.2028 14.5166H18.8414C18.6237 16.0447 17.6443 17.3545 16.4471 18.2277C15.6853 18.7734 14.7059 19.1009 13.7264 19.3192C12.7469 19.5374 11.7675 19.5374 10.788 19.3192C9.80854 18.9917 8.9379 18.5551 8.06727 18.0094C6.76131 17.1362 5.78185 15.8264 5.2377 14.2984C4.69355 12.7703 4.69355 11.1331 5.2377 9.605C5.56419 8.51352 6.21716 7.53119 6.97897 6.76716C8.82907 4.91165 11.6586 4.14761 14.1617 4.91165C15.1412 5.23909 16.0118 5.67568 16.7736 6.43972C17.5354 5.67568 18.2972 5.0208 19.0591 4.25676C19.4944 3.82017 19.8209 3.49273 20.2562 3.05614C19.1679 1.96466 17.7531 1.20063 16.3383 0.654886C13.8352 -0.218295 10.8968 -0.218295 8.28493 0.654886Z" fill="white"/>
<path d="M8.28493 0.654886C11.0057 -0.218296 13.8352 -0.218397 16.556 0.763932C17.9707 1.30967 19.3855 2.07371 20.4738 3.16518C20.0385 3.60177 19.712 3.92922 19.2767 4.36581C18.5149 5.12984 17.7531 5.78473 16.9913 6.54876C16.2295 5.89388 15.3588 5.34814 14.3794 5.02069C11.7675 4.25666 9.04672 5.02069 7.19662 6.87621C6.32598 7.64024 5.67301 8.62257 5.34652 9.71405L1.31982 6.65791C2.73461 3.82007 5.2377 1.63721 8.28493 0.654886Z" fill="#E33629"/>
<path d="M0.231624 9.60496C0.449283 8.51349 0.775772 7.53116 1.31992 6.54883L5.34661 9.60496C4.80247 11.133 4.80247 12.7702 5.34661 14.2983C4.04066 15.2806 2.62587 16.3721 1.31992 17.3545C0.122794 14.9532 -0.312524 12.2245 0.231624 9.60496Z" fill="#F8BD00"/>
<path d="M12.2029 9.71411H23.7388C24.1741 11.7879 24.0653 13.9709 23.4123 16.0447C22.8682 17.9002 21.7799 19.6466 20.3651 21.0655C19.0591 20.0831 17.7532 19.1008 16.4472 18.1185C17.7532 17.2453 18.6238 15.9355 18.8415 14.4075H12.2029C12.2029 12.8794 12.2029 11.3513 12.2029 9.71411Z" fill="#587DBD"/>
<path d="M1.31992 17.3545C2.62587 16.3721 4.04066 15.2806 5.34661 14.2983C5.89076 15.8264 6.87013 17.0273 8.17609 18.0096C8.93789 18.5553 9.91736 18.9919 10.8968 19.2102C11.8763 19.4285 12.8558 19.4285 13.8352 19.2102C14.8147 19.1011 15.6853 18.6645 16.556 18.1188C17.8619 19.1011 19.1679 20.0834 20.4738 21.0657C19.059 22.3755 17.3178 23.2487 15.4677 23.5761C13.3999 24.0127 11.2233 24.0127 9.26438 23.467C7.63194 23.0304 6.10833 22.2664 4.80237 21.284C3.27876 20.3017 2.08173 18.9917 1.31992 17.3545Z" fill="#319F43"/>
</g>
<defs>
<clipPath id="clip0_865_933">
<rect width="24" height="24" fill="white"/>
</clipPath>
</defs>
</svg>
