<svg width="24" height="24" viewBox="0 0 24 24"  xmlns="http://www.w3.org/2000/svg">
<g clip-path="url(#clip0_865_6278)">
<path fill-rule="evenodd" clip-rule="evenodd" d="M15.75 3.75C15.75 5.85 14.1 7.5 12 7.5C9.9 7.5 8.25 5.85 8.25 3.75C8.25 1.65 9.9 0 12 0C14.1 0 15.75 1.65 15.75 3.75ZM14.25 3.75C14.25 2.55 13.2 1.5 12 1.5C10.8 1.5 9.75 2.55 9.75 3.75C9.75 4.95 10.8 6 12 6C13.2 6 14.25 4.95 14.25 3.75ZM22.5 6C22.5 7.65 21.15 9 19.5 9C17.85 9 16.5 7.65 16.5 6C16.5 4.35 17.85 3 19.5 3C21.15 3 22.5 4.35 22.5 6ZM21 6C21 5.1 20.4 4.5 19.5 4.5C18.6 4.5 18 5.1 18 6C18 6.9 18.6 7.5 19.5 7.5C20.4 7.5 21 6.9 21 6ZM18 12.75C18 11.7 17.55 10.8 16.95 10.05C16.2 9.45 15.3 9 14.25 9H9.75C8.7 9 7.8 9.45 7.05 10.05C6.45 10.8 6 11.7 6 12.75V17.25C6 17.7 6.3 18 6.75 18H7.5V23.25C7.5 23.7 7.8 24 8.25 24H15.75C16.2 24 16.5 23.7 16.5 23.25V18H17.25C17.7 18 18 17.7 18 17.25V12.75ZM16.5 16.5H15.75C15.3 16.5 15 16.8 15 17.25V22.5H9V17.25C9 16.8 8.7 16.5 8.25 16.5H7.5V12.75C7.5 12.15 7.8 11.55 8.1 11.1C8.4 10.65 9.15 10.5 9.75 10.5H14.25C14.85 10.5 15.45 10.8 15.9 11.1C16.2 11.55 16.5 12.15 16.5 12.75V16.5Z" fill="currentColor"/>
<path d="M21.75 10.5C22.35 10.5 22.95 10.8 23.4 11.1C23.7 11.55 24 12.15 24 12.75V17.25C24 17.7 23.7 18 23.25 18H22.5V21.75C22.5 22.2 22.2 22.5 21.75 22.5H18.75C18.3 22.5 18 22.2 18 21.75C18 21.3 18.3 21 18.75 21H21V17.25C21 16.8 21.3 16.5 21.75 16.5H22.5V12.75C22.5 12.675 22.4625 12.5625 22.425 12.45C22.3875 12.3375 22.35 12.225 22.35 12.15C22.275 12.15 22.1625 12.1125 22.05 12.075C21.9375 12.0375 21.825 12 21.75 12H20.25C19.8 12 19.5 11.7 19.5 11.25C19.5 10.8 19.8 10.5 20.25 10.5H21.75Z" fill="currentColor"/>
<path fill-rule="evenodd" clip-rule="evenodd" d="M4.5 9C6.15 9 7.5 7.65 7.5 6C7.5 4.35 6.15 3 4.5 3C2.85 3 1.5 4.35 1.5 6C1.5 7.65 2.85 9 4.5 9ZM4.5 4.5C5.4 4.5 6 5.1 6 6C6 6.9 5.4 7.5 4.5 7.5C3.6 7.5 3 6.9 3 6C3 5.1 3.6 4.5 4.5 4.5Z" fill="currentColor"/>
<path d="M3 21H5.25C5.7 21 6 21.3 6 21.75C6 22.2 5.7 22.5 5.25 22.5H2.25C1.8 22.5 1.5 22.2 1.5 21.75V18H0.75C0.3 18 0 17.7 0 17.25V12.75C0 12.15 0.15 11.4 0.6 11.1C1.05 10.8 1.65 10.5 2.25 10.5H3.75C4.2 10.5 4.5 10.8 4.5 11.25C4.5 11.7 4.2 12 3.75 12H2.25C2.175 12 2.0625 12.0375 1.95 12.075C1.8375 12.1125 1.725 12.15 1.65 12.15C1.65 12.225 1.6125 12.3375 1.575 12.45C1.5375 12.5625 1.5 12.675 1.5 12.75V16.5H2.25C2.7 16.5 3 16.8 3 17.25V21Z" fill="currentColor"/>
</g>
<defs>
<clipPath id="clip0_865_6278">
<rect width="24" height="24" fill="currentColor"/>
</clipPath>
</defs>
</svg>
