<svg width="24" height="24" viewBox="0 0 24 24"  xmlns="http://www.w3.org/2000/svg">
<path d="M20 5C20 6.65685 18.6569 8 17 8C15.3431 8 14 6.65685 14 5C14 3.34315 15.3431 2 17 2C18.6569 2 20 3.34315 20 5ZM22.0596 16C22.6184 16 23.0803 15.5489 22.9882 15.0042C22.5082 12.1644 20.0099 10 17 10C14.976 10 13.1833 10.9787 12.0801 12.4833C14.0635 13.1248 15.7756 14.369 17.0007 16H22.0596ZM13 8C13 10.2091 11.2091 12 9 12C6.79086 12 5 10.2091 5 8C5 5.79086 6.79086 4 9 4C11.2091 4 13 5.79086 13 8Z" fill="currentColor"/>
<path fill-rule="evenodd" clip-rule="evenodd" d="M16.9932 21.002C17.0618 21.55 16.6044 22 16.0483 22H1.95168C1.39558 22 0.938172 21.55 1.00685 21.002C1.50145 17.0547 4.89153 14 9 14C13.1085 14 16.4985 17.0547 16.9932 21.002Z" fill="currentColor"/>
</svg>
