<svg width="24" height="24" viewBox="0 0 24 24"  xmlns="http://www.w3.org/2000/svg">
<g clip-path="url(#clip0_865_6359)">
<path fill-rule="evenodd" clip-rule="evenodd" d="M20 1C19.2044 1 18.4413 1.31607 17.8787 1.87868C17.3161 2.44129 17 3.20435 17 4C17 4.79565 17.3161 5.55871 17.8787 6.12132C18.4413 6.68393 19.2044 7 20 7C20.7956 7 21.5587 6.68393 22.1213 6.12132C22.6839 5.55871 23 4.79565 23 4C23 3.20435 22.6839 2.44129 22.1213 1.87868C21.5587 1.31607 20.7956 1 20 1ZM18.7979 2.79792C19.1167 2.47911 19.5491 2.3 20 2.3C20.4509 2.3 20.8833 2.47911 21.2021 2.79792C21.5209 3.11673 21.7 3.54913 21.7 4C21.7 4.45087 21.5209 4.88327 21.2021 5.20208C20.8833 5.52089 20.4509 5.7 20 5.7C19.5491 5.7 19.1167 5.52089 18.7979 5.20208C18.4791 4.88327 18.3 4.45087 18.3 4C18.3 3.54913 18.4791 3.11673 18.7979 2.79792ZM5 15C6.657 15 8 16.343 8 18V23H0V18C0 16.343 1.343 15 3 15H5ZM1.3 18C1.3 17.061 2.06097 16.3 3 16.3H5C5.93903 16.3 6.7 17.061 6.7 18V21.7H1.3V18ZM9.87868 4.87868C10.4413 4.31607 11.2044 4 12 4C12.7956 4 13.5587 4.31607 14.1213 4.87868C14.6839 5.44129 15 6.20435 15 7C15 7.79565 14.6839 8.55871 14.1213 9.12132C13.5587 9.68393 12.7956 10 12 10C11.2044 10 10.4413 9.68393 9.87868 9.12132C9.31607 8.55871 9 7.79565 9 7C9 6.20435 9.31607 5.44129 9.87868 4.87868ZM12 5.3C11.5491 5.3 11.1167 5.47911 10.7979 5.79792C10.4791 6.11673 10.3 6.54913 10.3 7C10.3 7.45087 10.4791 7.88327 10.7979 8.20208C11.1167 8.52089 11.5491 8.7 12 8.7C12.4509 8.7 12.8833 8.52089 13.2021 8.20208C13.5209 7.88327 13.7 7.45087 13.7 7C13.7 6.54913 13.5209 6.11673 13.2021 5.79792C12.8833 5.47911 12.4509 5.3 12 5.3ZM4 7C3.20435 7 2.44129 7.31607 1.87868 7.87868C1.31607 8.44129 1 9.20435 1 10C1 10.7956 1.31607 11.5587 1.87868 12.1213C2.44129 12.6839 3.20435 13 4 13C4.79565 13 5.55871 12.6839 6.12132 12.1213C6.68393 11.5587 7 10.7956 7 10C7 9.20435 6.68393 8.44129 6.12132 7.87868C5.55871 7.31607 4.79565 7 4 7ZM2.79792 8.79792C3.11673 8.47911 3.54913 8.3 4 8.3C4.45087 8.3 4.88327 8.47911 5.20208 8.79792C5.52089 9.11673 5.7 9.54913 5.7 10C5.7 10.4509 5.52089 10.8833 5.20208 11.2021C4.88327 11.5209 4.45087 11.7 4 11.7C3.54913 11.7 3.11673 11.5209 2.79792 11.2021C2.47911 10.8833 2.3 10.4509 2.3 10C2.3 9.54913 2.47911 9.11673 2.79792 8.79792Z" fill="currentColor"/>
<path d="M8.01733 14.2853C8.42064 12.9427 9.6551 11.9492 11.1418 11.9492H12.8918C14.5056 11.9492 15.8466 13.1162 16.1171 14.6525L14.8668 16.7549V15.2242C14.8668 14.1333 13.9827 13.2492 12.8918 13.2492H11.1418C10.2555 13.2492 9.50831 13.8406 9.26237 14.6593L8.01733 14.2853ZM13.5619 18.9492H10.2668V20.2492H12.7889L13.5619 18.9492ZM23.9769 14V12.2242C23.9769 10.4154 22.5107 8.94922 20.7019 8.94922H18.9519C17.4652 8.94922 16.2307 9.94271 15.8274 11.2853L17.0724 11.6593C17.3184 10.8406 18.0656 10.2492 18.9519 10.2492H20.7019C21.7928 10.2492 22.6769 11.1333 22.6769 12.2242V14H23.9769ZM20.5 20C20.5 20.5523 20.0523 21 19.5 21C18.9477 21 18.5 20.5523 18.5 20C18.5 19.4477 18.9477 19 19.5 19C20.0523 19 20.5 19.4477 20.5 20Z" fill="currentColor"/>
<path fill-rule="evenodd" clip-rule="evenodd" d="M17.7812 16C17.4079 16 17.0636 16.1946 16.8804 16.5092L15.1331 19.5092C14.9556 19.8139 14.9556 20.1861 15.1331 20.4908L16.8804 23.4908C17.0636 23.8054 17.4079 24 17.7812 24H21.2188C21.5921 24 21.9364 23.8054 22.1196 23.4908L23.8669 20.4908C24.0444 20.1861 24.0444 19.8139 23.8669 19.5092L22.1196 16.5092C21.9364 16.1946 21.5921 16 21.2188 16H17.7812ZM17.7406 18.0092C17.9238 17.6946 18.2682 17.5 18.6415 17.5H20.3585C20.7318 17.5 21.0762 17.6946 21.2594 18.0092L22.133 19.5092C22.3105 19.8139 22.3105 20.1861 22.133 20.4908L21.2594 21.9908C21.0762 22.3054 20.7318 22.5 20.3585 22.5H18.6415C18.2682 22.5 17.9238 22.3054 17.7406 21.9908L16.867 20.4908C16.6895 20.1861 16.6895 19.8139 16.867 19.5092L17.7406 18.0092Z" fill="currentColor"/>
</g>
<defs>
<clipPath id="clip0_865_6359">
<rect width="24" height="24" fill="currentColor"/>
</clipPath>
</defs>
</svg>
