<svg width="24" height="24" viewBox="0 0 24 24"  xmlns="http://www.w3.org/2000/svg">
<path fill-rule="evenodd" clip-rule="evenodd" d="M2.39106 15.4463C3.57116 14.5719 5.61153 13.5 8.5 13.5C11.3888 13.5 13.4293 14.5722 14.6093 15.4466C15.5066 16.1107 16 17.1217 16 18.1704V21C16 21.2761 15.7761 21.5 15.5 21.5H1.5C1.22386 21.5 1 21.2761 1 21V18.1704C1 17.1216 1.49367 16.1104 2.39106 15.4463Z" fill="currentColor"/>
<path d="M12 8C12 10.2091 10.2091 12 8 12C5.79086 12 4 10.2091 4 8C4 5.79086 5.79086 4 8 4C10.2091 4 12 5.79086 12 8ZM17.5 11C15.409 11 13.9283 11.8667 13.0707 12.5756C12.9804 12.6502 12.8953 12.7299 12.8158 12.8141C14.0426 13.255 15.0174 13.8106 15.7385 14.3115C16.875 15.1002 17.5 16.3007 17.5 17.5461V18H22.5C22.7761 18 23 17.7761 23 17.5V14.912C23 14.0156 22.6219 13.1476 21.9297 12.5759C21.0722 11.867 19.5914 11 17.5 11ZM21 6C21 7.933 19.433 9.5 17.5 9.5C15.567 9.5 14 7.933 14 6C14 4.067 15.567 2.5 17.5 2.5C19.433 2.5 21 4.067 21 6Z" fill="currentColor"/>
</svg>
