<svg width="24" height="24" viewBox="0 0 24 24"  xmlns="http://www.w3.org/2000/svg">
<path d="M5.99995 0C5.36343 0 4.75298 0.252856 4.30289 0.702944C3.85281 1.15303 3.59995 1.76348 3.59995 2.4C3.59995 3.03652 3.85281 3.64697 4.30289 4.09706C4.75298 4.54714 5.36343 4.8 5.99995 4.8C6.63647 4.8 7.24692 4.54714 7.69701 4.09706C8.14709 3.64697 8.39995 3.03652 8.39995 2.4C8.39995 1.76348 8.14709 1.15303 7.69701 0.702944C7.24692 0.252856 6.63647 0 5.99995 0ZM12 0C11.3634 0 10.753 0.252856 10.3029 0.702944C9.85281 1.15303 9.59995 1.76348 9.59995 2.4C9.59995 3.03652 9.85281 3.64697 10.3029 4.09706C10.753 4.54714 11.3634 4.8 12 4.8C12.6365 4.8 13.2469 4.54714 13.697 4.09706C14.1471 3.64697 14.4 3.03652 14.4 2.4C14.4 1.76348 14.1471 1.15303 13.697 0.702944C13.2469 0.252856 12.6365 0 12 0ZM18 0C17.3634 0 16.753 0.252856 16.3029 0.702944C15.8528 1.15303 15.6 1.76348 15.6 2.4C15.6 3.03652 15.8528 3.64697 16.3029 4.09706C16.753 4.54714 17.3634 4.8 18 4.8C18.6365 4.8 19.2469 4.54714 19.697 4.09706C20.1471 3.64697 20.4 3.03652 20.4 2.4C20.4 1.76348 20.1471 1.15303 19.697 0.702944C19.2469 0.252856 18.6365 0 18 0ZM3.59995 6C2.27395 6 1.19995 7.074 1.19995 8.4V16.8H2.39995V24H4.79995V14.4H3.59995V8.4H4.92183C5.10423 7.5084 5.50002 6.7008 6.03042 6H3.59995ZM10.8 6C8.81155 6 7.19995 7.6116 7.19995 9.6V19.2H8.39995V24H10.8V19.2H13.2V24H15.6V19.2H16.8V9.6C16.8 7.6116 15.1884 6 13.2 6H10.8ZM17.9695 6C18.4999 6.7008 18.8969 7.5084 19.0781 8.4H20.4V14.4H19.2V24H21.6V16.8H22.8V8.4C22.8 7.074 21.726 6 20.4 6H17.9695Z" fill="currentColor"/>
</svg>
