<svg width="24" height="24" viewBox="0 0 24 24"  xmlns="http://www.w3.org/2000/svg">
<path d="M20 1C19.2044 1 18.4413 1.31607 17.8787 1.87868C17.3161 2.44129 17 3.20435 17 4C17 4.79565 17.3161 5.55871 17.8787 6.12132C18.4413 6.68393 19.2044 7 20 7C20.7956 7 21.5587 6.68393 22.1213 6.12132C22.6839 5.55871 23 4.79565 23 4C23 3.20435 22.6839 2.44129 22.1213 1.87868C21.5587 1.31607 20.7956 1 20 1ZM12 4C11.2044 4 10.4413 4.31607 9.87868 4.87868C9.31607 5.44129 9 6.20435 9 7C9 7.79565 9.31607 8.55871 9.87868 9.12132C10.4413 9.68393 11.2044 10 12 10C12.7956 10 13.5587 9.68393 14.1213 9.12132C14.6839 8.55871 15 7.79565 15 7C15 6.20435 14.6839 5.44129 14.1213 4.87868C13.5587 4.31607 12.7956 4 12 4ZM4 7C3.20435 7 2.44129 7.31607 1.87868 7.87868C1.31607 8.44129 1 9.20435 1 10C1 10.7956 1.31607 11.5587 1.87868 12.1213C2.44129 12.6839 3.20435 13 4 13C4.79565 13 5.55871 12.6839 6.12132 12.1213C6.68393 11.5587 7 10.7956 7 10C7 9.20435 6.68393 8.44129 6.12132 7.87868C5.55871 7.31607 4.79565 7 4 7ZM19 9C17.644 9 16.5116 9.90563 16.1406 11.1406C17.2656 12.0586 18 13.438 18 15V17H24V12C24 10.343 22.657 9 21 9H19ZM11 12C9.644 12 8.51163 12.9056 8.14062 14.1406C9.26562 15.0586 10 16.438 10 18V20H16V15C16 13.343 14.657 12 13 12H11ZM3 15C1.343 15 0 16.343 0 18V23H8V18C8 16.343 6.657 15 5 15H3Z" fill="currentColor"/>
</svg>
