<svg width="24" height="24" viewBox="0 0 24 24"  xmlns="http://www.w3.org/2000/svg">
<path d="M18.7501 22.5003H23.2501C23.7001 22.5003 24.0001 22.2003 23.8501 21.6003V16.8003C23.8501 16.3503 23.7001 15.9003 23.4001 15.4503C23.1001 15.1503 22.6501 14.8503 22.2001 14.7003L17.8501 13.6503L17.5501 12.0003C18.3001 11.5503 18.9001 11.1003 19.3501 10.3503C19.9501 9.45034 20.2501 8.55034 20.2501 7.50034V6.30034C20.2501 5.10034 19.8001 3.75034 19.0501 2.85034C18.1501 1.80034 17.1001 1.20034 15.9001 0.900342C15.0001 0.600342 14.1001 0.750342 13.2001 1.05034C12.7501 1.20034 12.6001 1.50034 12.7501 1.95034C12.9001 2.40034 13.2001 2.55034 13.6501 2.40034C14.2501 2.25034 15.0001 2.10034 15.6001 2.25034C16.5001 2.40034 17.2501 2.85034 17.8501 3.60034C18.4501 4.35034 18.7501 5.25034 18.7501 6.15034V7.50034C18.7501 8.25034 18.6001 9.00034 18.1501 9.60034C17.7001 10.2003 17.1001 10.6503 16.5001 10.9503C16.2001 11.1003 16.0501 11.4003 16.0501 11.7003L16.5001 14.4003C16.6501 14.7003 16.8001 15.0003 17.1001 15.0003L21.9001 16.2003C22.0501 16.2003 22.2001 16.3503 22.3501 16.5003C22.5001 16.6503 22.5001 16.8003 22.5001 16.9503V21.0003H18.7501C18.3001 21.0003 18.0001 21.3003 18.0001 21.7503C18.0001 22.2003 18.3001 22.5003 18.7501 22.5003Z" fill="currentColor"/>
<path fill-rule="evenodd" clip-rule="evenodd" d="M0.75 22.5001H15.75C16.2 22.5001 16.5 22.2001 16.5 21.6001V19.0501C16.5 18.6001 16.35 18.1501 16.05 17.7001C15.75 17.4001 15.3 17.1001 14.85 16.9501L11.1 15.9001L10.95 14.7001C11.55 14.7001 12 14.5501 12.45 14.4001C13.35 14.2501 14.1 13.8001 14.7 13.3501C15 13.0501 15.15 12.6001 14.85 12.3001C13.8 10.9501 13.35 9.3001 13.5 7.5001C13.5 6.1501 12.9 4.8001 11.85 3.7501C9.9 1.8001 6.45 1.8001 4.5 3.7501C3.6 4.6501 3 6.0001 3 7.5001C3.15 9.3001 2.7 10.9501 1.65 12.3001C1.35 12.6001 1.5 13.0501 1.8 13.6501C2.55 14.1001 3.3 14.5501 4.05 14.7001C4.5 14.8501 5.09999 14.8501 5.55 14.8501L5.4 16.0501L1.65 17.1001C1.2 17.2501 0.75 17.4001 0.45 17.8501C0.15 18.3001 0 18.7501 0 19.2001V21.7501C0 22.2001 0.3 22.5001 0.75 22.5001ZM15 21.0001H1.5V19.2001C1.5 18.9001 1.5 18.7501 1.35 18.7501C1.5 18.6001 1.65 18.4501 1.8 18.4501L6 17.2501C6.3 17.2501 6.6 16.9501 6.6 16.6501L7.05 13.9501C7.2 13.6501 7.05 13.5001 6.75 13.3501C6.6 13.2001 6.45 13.2001 6.15 13.2001C5.55 13.2001 4.95 13.2001 4.35 13.0501C4.2 12.9751 4.0125 12.9001 3.825 12.8251C3.6375 12.7501 3.45 12.6751 3.3 12.6001C4.2 10.9501 4.65 9.3001 4.5 7.5001C4.5 6.4501 4.95 5.5501 5.7 4.9501C7.05 3.6001 9.6 3.6001 10.95 4.9501C11.55 5.5501 12 6.6001 12 7.5001C11.85 9.3001 12.3 10.9501 13.05 12.6001C12.75 12.7501 12.45 12.9001 12 13.0501C11.4 13.2001 10.8 13.3501 10.2 13.2001C10.05 13.0501 9.75 13.2001 9.6 13.3501C9.45 13.5001 9.45 13.6501 9.45 13.9501L9.6 16.6501C9.75 16.9501 9.9 17.1001 10.2 17.2501L14.4 18.4501C14.55 18.4501 14.7 18.6001 14.85 18.7501C15 18.9001 15 19.0501 15 19.2001V21.0001Z" fill="currentColor"/>
</svg>
