<svg width="24" height="24" viewBox="0 0 24 24"  xmlns="http://www.w3.org/2000/svg">
<path fill-rule="evenodd" clip-rule="evenodd" d="M17 6.5C17.8284 6.5 18.5 5.82843 18.5 5C18.5 4.17157 17.8284 3.5 17 3.5C16.1716 3.5 15.5 4.17157 15.5 5C15.5 5.82843 16.1716 6.5 17 6.5ZM17 8C18.6569 8 20 6.65685 20 5C20 3.34315 18.6569 2 17 2C15.3431 2 14 3.34315 14 5C14 6.65685 15.3431 8 17 8Z" fill="currentColor"/>
<path d="M22.0549 16C22.6165 16 23.0807 15.5489 22.9882 15.0042C22.5058 12.1644 19.9949 10 16.97 10C15.3009 10 13.7884 10.6589 12.6868 11.7266C12.3309 12.0715 12.5156 12.6421 12.9704 12.841C13.2776 12.9754 13.6349 12.9008 13.884 12.677C14.6977 11.9459 15.7809 11.5 16.97 11.5C18.9626 11.5 20.6577 12.7522 21.286 14.5H17.307C16.7045 14.5 16.3928 15.2755 16.7701 15.743C16.8989 15.9026 17.0917 16 17.2974 16H22.0549Z" fill="currentColor"/>
<path fill-rule="evenodd" clip-rule="evenodd" d="M9 10.5C10.3807 10.5 11.5 9.38071 11.5 8C11.5 6.61929 10.3807 5.5 9 5.5C7.61929 5.5 6.5 6.61929 6.5 8C6.5 9.38071 7.61929 10.5 9 10.5ZM9 12C11.2091 12 13 10.2091 13 8C13 5.79086 11.2091 4 9 4C6.79086 4 5 5.79086 5 8C5 10.2091 6.79086 12 9 12ZM16.9932 21.002C17.0618 21.55 16.6044 22 16.0483 22H1.95168C1.39558 22 0.938172 21.55 1.00685 21.002C1.50145 17.0547 4.89153 14 9 14C13.1085 14 16.4985 17.0547 16.9932 21.002ZM2.63026 20.5H15.3697C14.6879 17.6333 12.0948 15.5 9 15.5C5.9052 15.5 3.3121 17.6333 2.63026 20.5Z" fill="currentColor"/>
</svg>
