<svg width="24" height="24" viewBox="0 0 24 24"  xmlns="http://www.w3.org/2000/svg">
<path d="M17.8787 1.87868C18.4413 1.31607 19.2044 1 20 1C20.7956 1 21.5587 1.31607 22.1213 1.87868C22.6839 2.44129 23 3.20435 23 4C23 4.79565 22.6839 5.55871 22.1213 6.12132C21.5587 6.68393 20.7956 7 20 7C19.2044 7 18.4413 6.68393 17.8787 6.12132C17.3161 5.55871 17 4.79565 17 4C17 3.20435 17.3161 2.44129 17.8787 1.87868ZM9.87868 4.87868C10.4413 4.31607 11.2044 4 12 4C12.7956 4 13.5587 4.31607 14.1213 4.87868C14.6839 5.44129 15 6.20435 15 7C15 7.79565 14.6839 8.55871 14.1213 9.12132C13.5587 9.68393 12.7956 10 12 10C11.2044 10 10.4413 9.68393 9.87868 9.12132C9.31607 8.55871 9 7.79565 9 7C9 6.20435 9.31607 5.44129 9.87868 4.87868ZM1.87868 7.87868C2.44129 7.31607 3.20435 7 4 7C4.79565 7 5.55871 7.31607 6.12132 7.87868C6.68393 8.44129 7 9.20435 7 10C7 10.7956 6.68393 11.5587 6.12132 12.1213C5.55871 12.6839 4.79565 13 4 13C3.20435 13 2.44129 12.6839 1.87868 12.1213C1.31607 11.5587 1 10.7956 1 10C1 9.20435 1.31607 8.44129 1.87868 7.87868ZM16.1406 11.1406C16.5116 9.90563 17.644 9 19 9H21C22.657 9 24 10.343 24 12V16H23.9167L23.0508 14.432C22.9042 14.1646 22.6301 14 22.3328 14H17.8973C17.6585 12.8542 17.0185 11.857 16.1406 11.1406ZM15.947 14.4358C15.6831 13.0486 14.4641 12 13 12H11C9.644 12 8.51163 12.9056 8.14062 14.1406C9.26562 15.0586 10 16.438 10 18V20H13C13 19.8532 13.0364 19.7064 13.1093 19.5749L15.947 14.4358ZM0 18C0 16.343 1.343 15 3 15H5C6.657 15 8 16.343 8 18V23H0V18Z" fill="currentColor"/>
<path fill-rule="evenodd" clip-rule="evenodd" d="M21.9583 16.288L23.9243 19.7166C24.0252 19.892 24.0252 20.108 23.9243 20.2834L21.9583 23.712C21.8562 23.8903 21.6664 24 21.4606 24H17.5394C17.3336 24 17.1438 23.8903 17.0417 23.712L15.0757 20.2834C14.9748 20.108 14.9748 19.892 15.0757 19.7166L17.0417 16.288C17.1438 16.1097 17.3336 16 17.5394 16H21.4612C21.667 16 21.8568 16.1097 21.9583 16.288ZM19.5 22C20.6046 22 21.5 21.1046 21.5 20C21.5 18.8954 20.6046 18 19.5 18C18.3954 18 17.5 18.8954 17.5 20C17.5 21.1046 18.3954 22 19.5 22Z" fill="currentColor"/>
</svg>
