<svg width="24" height="24" viewBox="0 0 24 24"  xmlns="http://www.w3.org/2000/svg">
<path fill-rule="evenodd" clip-rule="evenodd" d="M17 7C18.6569 7 20 5.65685 20 4C20 2.34315 18.6569 1 17 1C15.3431 1 14 2.34315 14 4C14 5.65685 15.3431 7 17 7ZM22.9882 13.5042C23.0803 14.0489 22.6184 14.5 22.0596 14.5H11.9404C11.3816 14.5 10.9197 14.0489 11.0118 13.5042C11.4918 10.6644 13.9901 8.5 17 8.5C20.0099 8.5 22.5082 10.6644 22.9882 13.5042ZM7 15.5C8.65685 15.5 10 14.1569 10 12.5C10 10.8431 8.65685 9.5 7 9.5C5.34315 9.5 4 10.8431 4 12.5C4 14.1569 5.34315 15.5 7 15.5ZM12.9882 22.0042C13.0803 22.5489 12.6184 23 12.0596 23H1.94043C1.38157 23 0.919683 22.5489 1.01176 22.0042C1.49176 19.1644 3.9901 17 7 17C10.0099 17 12.5082 19.1644 12.9882 22.0042Z" fill="currentColor"/>
</svg>
