<svg width="24" height="24" viewBox="0 0 24 24"  xmlns="http://www.w3.org/2000/svg">
<g clip-path="url(#clip0_865_6372)">
<path fill-rule="evenodd" clip-rule="evenodd" d="M8.25 12C11.1 12 13.5 9.6 13.5 6.75C13.5 3.9 11.1 1.5 8.25 1.5C5.4 1.5 3 3.9 3 6.75C3 9.6 5.4 12 8.25 12ZM8.25 3C10.35 3 12 4.65 12 6.75C12 8.85 10.35 10.5 8.25 10.5C6.15 10.5 4.5 8.85 4.5 6.75C4.5 4.65 6.15 3 8.25 3ZM18.75 10.5C20.85 10.5 22.5 8.85 22.5 6.75C22.5 4.65 20.85 3 18.75 3C16.65 3 15 4.65 15 6.75C15 8.85 16.65 10.5 18.75 10.5ZM18.75 4.5C19.95 4.5 21 5.55 21 6.75C21 7.95 19.95 9 18.75 9C17.55 9 16.5 7.95 16.5 6.75C16.5 5.55 17.55 4.5 18.75 4.5Z" fill="currentColor"/>
<path d="M8.25 13.5C6 13.5 3.9 14.4 2.4 15.9C0.9 17.4 0 19.5 0 21.75C0 21.825 0.0375002 21.9375 0.0750004 22.05C0.1125 22.1625 0.15 22.275 0.15 22.35C0.225 22.35 0.3375 22.3875 0.45 22.425C0.5625 22.4625 0.675 22.5 0.75 22.5H14.0542L13.1622 21H1.5C1.65 19.5 2.4 18 3.45 16.95C4.65 15.75 6.45 15 8.25 15C10.05 15 11.7 15.75 13.05 16.95C13.4629 17.3629 13.8295 17.8455 14.1314 18.3703L14.9796 16.9439C14.716 16.5713 14.4218 16.2218 14.1 15.9C12.6 14.4 10.5 13.5 8.25 13.5ZM23.2194 14.5154C23.1644 14.5053 23.108 14.5 23.0507 14.5H21.3867C20.6495 13.9252 19.7706 13.5 18.75 13.5C18 13.5 16.85 13.75 16.4 14.2C16.1 14.5 15.65 14.35 15.35 14.05C15.05 13.75 15.2 13.3 15.5 13C16.25 12.4 17.7 12 18.75 12C20.25 12 21.45 12.45 22.5 13.5C22.7693 13.8143 23.0118 14.1554 23.2194 14.5154ZM20.5 20C20.5 20.5523 20.0523 21 19.5 21C18.9477 21 18.5 20.5523 18.5 20C18.5 19.4477 18.9477 19 19.5 19C20.0523 19 20.5 19.4477 20.5 20Z" fill="currentColor"/>
<path fill-rule="evenodd" clip-rule="evenodd" d="M17.7812 16C17.4079 16 17.0636 16.1946 16.8804 16.5092L15.1331 19.5092C14.9556 19.8139 14.9556 20.1861 15.1331 20.4908L16.8804 23.4908C17.0636 23.8054 17.4079 24 17.7812 24H21.2188C21.5921 24 21.9364 23.8054 22.1196 23.4908L23.8669 20.4908C24.0444 20.1861 24.0444 19.8139 23.8669 19.5092L22.1196 16.5092C21.9364 16.1946 21.5921 16 21.2188 16H17.7812ZM17.7406 18.0092C17.9238 17.6946 18.2682 17.5 18.6415 17.5H20.3585C20.7318 17.5 21.0762 17.6946 21.2594 18.0092L22.133 19.5092C22.3105 19.8139 22.3105 20.1861 22.133 20.4908L21.2594 21.9908C21.0762 22.3054 20.7318 22.5 20.3585 22.5H18.6415C18.2682 22.5 17.9238 22.3054 17.7406 21.9908L16.867 20.4908C16.6895 20.1861 16.6895 19.8139 16.867 19.5092L17.7406 18.0092Z" fill="currentColor"/>
</g>
<defs>
<clipPath id="clip0_865_6372">
<rect width="24" height="24" fill="currentColor"/>
</clipPath>
</defs>
</svg>
