<svg width="24" height="24" viewBox="0 0 24 24"  xmlns="http://www.w3.org/2000/svg">
<path fill-rule="evenodd" clip-rule="evenodd" d="M8 18C8 16.343 6.657 15 5 15H3C1.343 15 0 16.343 0 18V23H8V18ZM3 16.3C2.06097 16.3 1.3 17.061 1.3 18V21.7H6.7V18C6.7 17.061 5.93903 16.3 5 16.3H3ZM17.8787 1.87868C18.4413 1.31607 19.2044 1 20 1C20.7956 1 21.5587 1.31607 22.1213 1.87868C22.6839 2.44129 23 3.20435 23 4C23 4.79565 22.6839 5.55871 22.1213 6.12132C21.5587 6.68393 20.7956 7 20 7C19.2044 7 18.4413 6.68393 17.8787 6.12132C17.3161 5.55871 17 4.79565 17 4C17 3.20435 17.3161 2.44129 17.8787 1.87868ZM20 2.3C19.5491 2.3 19.1167 2.47911 18.7979 2.79792C18.4791 3.11673 18.3 3.54913 18.3 4C18.3 4.45087 18.4791 4.88327 18.7979 5.20208C19.1167 5.52089 19.5491 5.7 20 5.7C20.4509 5.7 20.8833 5.52089 21.2021 5.20208C21.5209 4.88327 21.7 4.45087 21.7 4C21.7 3.54913 21.5209 3.11673 21.2021 2.79792C20.8833 2.47911 20.4509 2.3 20 2.3ZM9.87868 4.87868C10.4413 4.31607 11.2044 4 12 4C12.7956 4 13.5587 4.31607 14.1213 4.87868C14.6839 5.44129 15 6.20435 15 7C15 7.79565 14.6839 8.55871 14.1213 9.12132C13.5587 9.68393 12.7956 10 12 10C11.2044 10 10.4413 9.68393 9.87868 9.12132C9.31607 8.55871 9 7.79565 9 7C9 6.20435 9.31607 5.44129 9.87868 4.87868ZM12 5.3C11.5491 5.3 11.1167 5.47911 10.7979 5.79792C10.4791 6.11673 10.3 6.54913 10.3 7C10.3 7.45087 10.4791 7.88327 10.7979 8.20208C11.1167 8.52089 11.5491 8.7 12 8.7C12.4509 8.7 12.8833 8.52089 13.2021 8.20208C13.5209 7.88327 13.7 7.45087 13.7 7C13.7 6.54913 13.5209 6.11673 13.2021 5.79792C12.8833 5.47911 12.4509 5.3 12 5.3ZM1.87868 7.87868C2.44129 7.31607 3.20435 7 4 7C4.79565 7 5.55871 7.31607 6.12132 7.87868C6.68393 8.44129 7 9.20435 7 10C7 10.7956 6.68393 11.5587 6.12132 12.1213C5.55871 12.6839 4.79565 13 4 13C3.20435 13 2.44129 12.6839 1.87868 12.1213C1.31607 11.5587 1 10.7956 1 10C1 9.20435 1.31607 8.44129 1.87868 7.87868ZM4 8.3C3.54913 8.3 3.11673 8.47911 2.79792 8.79792C2.47911 9.11673 2.3 9.54913 2.3 10C2.3 10.4509 2.47911 10.8833 2.79792 11.2021C3.11673 11.5209 3.54913 11.7 4 11.7C4.45087 11.7 4.88327 11.5209 5.20208 11.2021C5.52089 10.8833 5.7 10.4509 5.7 10C5.7 9.54913 5.52089 9.11673 5.20208 8.79792C4.88327 8.47911 4.45087 8.3 4 8.3Z" fill="currentColor"/>
<path d="M8.01733 14.2853C8.42064 12.9427 9.6551 11.9492 11.1418 11.9492H12.8918C14.7007 11.9492 16.1668 13.4154 16.1668 15.2242V20.2492H10.2668V18.9492H14.8668V15.2242C14.8668 14.1333 13.9827 13.2492 12.8918 13.2492H11.1418C10.2555 13.2492 9.50831 13.8406 9.26237 14.6593L8.01733 14.2853ZM18.9519 8.94922C17.4652 8.94922 16.2307 9.94271 15.8274 11.2853L17.0724 11.6593C17.3184 10.8406 18.0656 10.2492 18.9519 10.2492H20.7019C21.7928 10.2492 22.6769 11.1333 22.6769 12.2242V15.9492H18.0769V17.2492H23.9769V12.2242C23.9769 10.4154 22.5107 8.94922 20.7019 8.94922H18.9519Z" fill="currentColor"/>
</svg>
