<svg width="24" height="24" viewBox="0 0 24 24"  xmlns="http://www.w3.org/2000/svg">
<path d="M17.4998 11C15.4088 11 13.9282 11.8667 13.0706 12.5756C12.7571 12.8345 12.9068 13.3012 13.2799 13.4626C13.3749 13.5038 13.4679 13.5456 13.5591 13.588C13.871 13.7332 14.2373 13.6939 14.5181 13.4952C15.2004 13.0121 16.1922 12.5 17.4998 12.5C19.1485 12.5 20.2955 13.3144 20.9529 13.8579C21.2514 14.1043 21.5 14.4907 21.5 14.912V16.5H17.7499C17.3357 16.5 16.9999 16.8358 16.9999 17.25C16.9999 17.6642 17.3357 18 17.7499 18H21.9998C22.5521 18 22.9998 17.5523 22.9998 17V14.912C22.9998 14.0156 22.6218 13.1476 21.9295 12.5759C21.072 11.867 19.5912 11 17.4998 11Z" fill="currentColor"/>
<path fill-rule="evenodd" clip-rule="evenodd" d="M2.39106 15.4463C3.57116 14.5719 5.61153 13.5 8.5 13.5C11.3888 13.5 13.4293 14.5722 14.6093 15.4466C15.5066 16.1107 16 17.1217 16 18.1704V20.5C16 21.0523 15.5523 21.5 15 21.5H2C1.44772 21.5 1 21.0523 1 20.5V18.1704C1 17.1216 1.49367 16.1104 2.39106 15.4463ZM8.5 14.9C6.0338 14.9 4.31229 15.8102 3.32334 16.543C2.80186 16.9289 2.5 17.5281 2.5 18.1704V20.1H14.5V18.1704C14.5 17.5281 14.1985 16.9292 13.6771 16.5433C12.6881 15.8105 10.9662 14.9 8.5 14.9ZM8 10.5C9.38071 10.5 10.5 9.38071 10.5 8C10.5 6.61929 9.38071 5.5 8 5.5C6.61929 5.5 5.5 6.61929 5.5 8C5.5 9.38071 6.61929 10.5 8 10.5ZM8 12C10.2091 12 12 10.2091 12 8C12 5.79086 10.2091 4 8 4C5.79086 4 4 5.79086 4 8C4 10.2091 5.79086 12 8 12ZM17.5 8C18.6046 8 19.5 7.10457 19.5 6C19.5 4.89543 18.6046 4 17.5 4C16.3954 4 15.5 4.89543 15.5 6C15.5 7.10457 16.3954 8 17.5 8ZM17.5 9.5C19.433 9.5 21 7.933 21 6C21 4.067 19.433 2.5 17.5 2.5C15.567 2.5 14 4.067 14 6C14 7.933 15.567 9.5 17.5 9.5Z" fill="currentColor"/>
</svg>
