<svg width="24" height="24" viewBox="0 0 24 24"  xmlns="http://www.w3.org/2000/svg">
<path d="M23 6.5C23 7.88071 21.8807 9 20.5 9C19.1193 9 18 7.88071 18 6.5C18 5.11929 19.1193 4 20.5 4C21.8807 4 23 5.11929 23 6.5ZM6 6.5C6 7.88071 4.88071 9 3.5 9C2.11929 9 1 7.88071 1 6.5C1 5.11929 2.11929 4 3.5 4C4.88071 4 6 5.11929 6 6.5ZM14.5 3.5C14.5 4.88071 13.3807 6 12 6C10.6193 6 9.5 4.88071 9.5 3.5C9.5 2.11929 10.6193 1 12 1C13.3807 1 14.5 2.11929 14.5 3.5ZM16 11.5C16 13.7091 14.2091 15.5 12 15.5C9.79086 15.5 8 13.7091 8 11.5C8 9.29086 9.79086 7.5 12 7.5C14.2091 7.5 16 9.29086 16 11.5Z" fill="currentColor"/>
<path fill-rule="evenodd" clip-rule="evenodd" d="M18.9044 22.0058C19.0098 22.548 18.5523 23 18 23H6C5.44772 23 4.99018 22.548 5.09565 22.0058C5.64826 19.1653 8.52913 17 12 17C15.4709 17 18.3517 19.1653 18.9044 22.0058Z" fill="currentColor"/>
</svg>
