<svg width="24" height="24" viewBox="0 0 24 24"  xmlns="http://www.w3.org/2000/svg">
<g clip-path="url(#clip0_865_6378)">
<path d="M22.65 9.76121L19.95 7.96507C20.55 7.36636 21 6.46829 21 5.42054V4.07344C21 2.2773 19.65 0.48116 17.85 0.181803C16.05 -0.117553 14.55 0.930194 13.8 2.2773C15.45 3.77408 16.5 5.86958 16.5 8.26443V9.76121C16.5 10.9601 16.2624 11.367 15.7871 12.1806C15.7284 12.2811 15.6659 12.3881 15.6 12.5032C15.6 12.5032 17.4 13.8503 17.4 14H22.5C23.4 14 24 13.4012 24 12.5032V12.3057C24 11.258 23.55 10.3599 22.65 9.76121ZM14.709 16.6779L13.1093 19.5748C12.9636 19.8379 12.9636 20.162 13.1093 20.4251L15.0824 23.9982C15.0552 23.9993 15.0277 23.9999 15 23.9999H1.5C0.6 23.9999 0 23.4012 0 22.5031V19.6592C0 18.7612 0.45 17.8631 1.2 17.2644L5.25 14.1211C3.9 13.0734 3 11.5766 3 9.78047V8.28368C3 5.29012 5.55 2.89527 8.55 3.04495C11.4 3.19462 13.5 5.73915 13.5 8.58304V9.78047C13.5 11.5766 12.6 13.0734 11.25 14.1211L14.709 16.6779Z" fill="currentColor"/>
<path fill-rule="evenodd" clip-rule="evenodd" d="M21.9583 16.288L23.9243 19.7165C24.0252 19.892 24.0252 20.108 23.9243 20.2834L21.9583 23.712C21.8562 23.8902 21.6664 24 21.4606 24H17.5394C17.3336 24 17.1438 23.8902 17.0417 23.712L15.0757 20.2834C14.9748 20.108 14.9748 19.892 15.0757 19.7165L17.0417 16.288C17.1438 16.1097 17.3336 16 17.5394 16H21.4612C21.667 16 21.8568 16.1097 21.9583 16.288ZM19.5 22C20.6046 22 21.5 21.1045 21.5 20C21.5 18.8954 20.6046 18 19.5 18C18.3954 18 17.5 18.8954 17.5 20C17.5 21.1045 18.3954 22 19.5 22Z" fill="currentColor"/>
</g>
<defs>
<clipPath id="clip0_865_6378">
<rect width="24" height="24" fill="currentColor"/>
</clipPath>
</defs>
</svg>
