<svg width="24" height="24" viewBox="0 0 24 24"  xmlns="http://www.w3.org/2000/svg">
<path fill-rule="evenodd" clip-rule="evenodd" d="M4.5 1.5C2.85 1.5 1.5 2.85 1.5 4.5C1.5 6.15 2.85 7.5 4.5 7.5C6.15 7.5 7.5 6.15 7.5 4.5C7.5 2.85 6.15 1.5 4.5 1.5ZM3 4.5C3 3.6 3.6 3 4.5 3C5.4 3 6 3.6 6 4.5C6 5.4 5.4 6 4.5 6C3.6 6 3 5.4 3 4.5Z" fill="currentColor"/>
<path d="M2.85 10.65C3.15 10.5 3.45 10.5 3.75 10.5C4.8 10.5 5.4 10.95 6.3 11.85C6.45 12 6.75001 12.3 7.05 12.45C7.8 13.35 8.7 14.4 10.05 15.45C10.35 15.75 10.8 15.6 11.1 15.3C11.4 15 11.25 14.55 10.95 14.25C9.6 13.35 8.85 12.45 8.1 11.55C7.90627 11.4531 7.7751 11.2937 7.62569 11.1122C7.54373 11.0125 7.45627 10.9063 7.35 10.8C6.45 9.75 5.4 9 3.75 9C3.3 9 2.7 9.15 2.25 9.3C1.9343 9.40523 1.69242 9.5843 1.42079 9.78539C1.30524 9.87094 1.18429 9.96047 1.05 10.05C0.960468 10.1843 0.870937 10.3052 0.785392 10.4208C0.584297 10.6924 0.405234 10.9343 0.3 11.25C0.15 11.7 0 12.3 0 12.75V21.75C0 22.2 0.3 22.5 0.75 22.5H6.75C7.2 22.5 7.5 22.2 7.5 21.75V15.75C7.5 15.3 7.2 15 6.75 15C6.3 15 6 15.3 6 15.75V21H1.5V12.75C1.5 12.45 1.5 12.15 1.65 11.85C1.725 11.7 1.8 11.5875 1.875 11.475C1.95 11.3625 2.025 11.25 2.1 11.1C2.25 11.025 2.3625 10.95 2.475 10.875C2.5875 10.8 2.7 10.725 2.85 10.65ZM16.8 10.95C17.55 9.75 18.6 9 20.25 9C20.7 9 21.3 9.15 21.75 9.3C22.2 9.45 22.65 9.75 22.95 10.05C23.25 10.35 23.55 10.8 23.7 11.25C23.85 11.7 24 12.15 24 12.75V21.75C24 22.2 23.7 22.5 23.25 22.5H17.25C16.8 22.5 16.5 22.2 16.5 21.75V15.75C16.5 15.3 16.8 15 17.25 15C17.7 15 18 15.3 18 15.75V21H22.5V12.75C22.5 12.45 22.5 12.15 22.35 11.85C22.275 11.7 22.2 11.5875 22.125 11.475C22.05 11.3625 21.975 11.25 21.9 11.1C21.75 10.95 21.45 10.8 21.15 10.65C20.85 10.5 20.55 10.5 20.25 10.5C19.2 10.5 18.6 10.95 17.7 11.85C17.55 12 17.25 12.3 17.1 12.6C16.35 13.5 15.45 14.55 14.1 15.6C13.8 15.9 13.35 15.75 13.05 15.45C12.75 15.15 12.9 14.7 13.2 14.4C14.4 13.35 15.2999 12.4501 16.0499 11.7001C16.1562 11.5938 16.2437 11.4874 16.3257 11.3878C16.4751 11.2063 16.6063 11.0469 16.8 10.95Z" fill="currentColor"/>
<path fill-rule="evenodd" clip-rule="evenodd" d="M19.5 1.5C17.85 1.5 16.5 2.85 16.5 4.5C16.5 6.15 17.85 7.5 19.5 7.5C21.15 7.5 22.5 6.15 22.5 4.5C22.5 2.85 21.15 1.5 19.5 1.5ZM18 4.5C18 3.6 18.6 3 19.5 3C20.4 3 21 3.6 21 4.5C21 5.4 20.4 6 19.5 6C18.6 6 18 5.4 18 4.5Z" fill="currentColor"/>
</svg>
