<svg width="24" height="24" viewBox="0 0 24 24"  xmlns="http://www.w3.org/2000/svg">
<path d="M4.125 7.5C5.57475 7.5 6.75 6.32475 6.75 4.875C6.75 3.42525 5.57475 2.25 4.125 2.25C2.67525 2.25 1.5 3.42525 1.5 4.875C1.5 6.32475 2.67525 7.5 4.125 7.5ZM19.875 7.5C21.3247 7.5 22.5 6.32475 22.5 4.875C22.5 3.42525 21.3247 2.25 19.875 2.25C18.4253 2.25 17.25 3.42525 17.25 4.875C17.25 6.32475 18.4253 7.5 19.875 7.5ZM20.25 9C19.2115 9.09672 18.2069 9.41972 17.3066 9.9463C16.4063 10.4729 15.6323 11.1903 15.039 12.048C14.6396 12.5208 14.1983 12.9566 13.7205 13.35C13.9918 13.6671 14.1794 14.0471 14.2661 14.4553C14.3529 14.8635 14.336 15.287 14.217 15.687C15.0922 15.2048 15.8671 14.5597 16.5 13.7865V21C16.5 21.3978 16.658 21.7794 16.9393 22.0607C17.2206 22.342 17.6022 22.5 18 22.5H22.5C22.8978 22.5 23.2794 22.342 23.5607 22.0607C23.842 21.7794 24 21.3978 24 21V12.75C24 11.7554 23.6049 10.8016 22.9016 10.0983C22.1984 9.39509 21.2446 9 20.25 9ZM11.7 13.875C10.6605 13.875 9.984 13.1805 8.9655 12.048C8.37169 11.1897 7.59698 10.472 6.6959 9.94539C5.79481 9.41879 4.78925 9.09608 3.75 9C2.75544 9 1.80161 9.39509 1.09835 10.0983C0.395088 10.8016 0 11.7554 0 12.75V21C0 21.3978 0.158035 21.7794 0.43934 22.0607C0.720644 22.342 1.10218 22.5 1.5 22.5H6C6.39782 22.5 6.77936 22.342 7.06066 22.0607C7.34196 21.7794 7.5 21.3978 7.5 21V13.7865C7.9813 14.4649 8.60829 15.027 9.33503 15.4316C10.0618 15.8363 10.8698 16.0732 11.7 16.125C11.9984 16.125 12.2845 16.0065 12.4955 15.7955C12.7065 15.5845 12.825 15.2984 12.825 15C12.825 14.7016 12.7065 14.4155 12.4955 14.2045C12.2845 13.9935 11.9984 13.875 11.7 13.875Z" fill="currentColor"/>
</svg>
