<svg width="24" height="24" viewBox="0 0 24 24"  xmlns="http://www.w3.org/2000/svg">
<g clip-path="url(#clip0_865_6325)">
<path fill-rule="evenodd" clip-rule="evenodd" d="M9.10376 2.80851C9.10376 1.25697 10.3607 0 11.9123 0C13.4638 0 14.7208 1.25697 14.7208 2.80851C14.7208 4.36005 13.4638 5.61702 11.9123 5.61702C10.3607 5.61702 9.10376 4.36005 9.10376 2.80851ZM11.9123 1.53191C11.2068 1.53191 10.6357 2.10303 10.6357 2.80851C10.6357 3.51399 11.2068 4.08511 11.9123 4.08511C12.6178 4.08511 13.1889 3.51399 13.1889 2.80851C13.1889 2.10303 12.6178 1.53191 11.9123 1.53191ZM4.85087 0.510742C3.29933 0.510742 2.04236 1.76772 2.04236 3.31925C2.04236 4.87079 3.29933 6.12776 4.85087 6.12776C6.40241 6.12776 7.65938 4.87079 7.65938 3.31925C7.65938 1.76772 6.40241 0.510742 4.85087 0.510742ZM3.57427 3.31925C3.57427 2.61377 4.14538 2.04266 4.85087 2.04266C5.55635 2.04266 6.12746 2.61377 6.12746 3.31925C6.12746 4.02474 5.55635 4.59585 4.85087 4.59585C4.14538 4.59585 3.57427 4.02474 3.57427 3.31925ZM19.1487 0.510742C17.5972 0.510742 16.3402 1.76772 16.3402 3.31925C16.3402 4.87079 17.5972 6.12776 19.1487 6.12776C20.7003 6.12776 21.9572 4.87079 21.9572 3.31925C21.9572 1.76772 20.7003 0.510742 19.1487 0.510742ZM17.8721 3.31925C17.8721 2.61377 18.4432 2.04266 19.1487 2.04266C19.8542 2.04266 20.4253 2.61377 20.4253 3.31925C20.4253 4.02474 19.8542 4.59585 19.1487 4.59585C18.4432 4.59585 17.8721 4.02474 17.8721 3.31925Z" fill="currentColor"/>
<path d="M3.59004 7.14941C2.17287 7.14941 0.979659 8.20434 0.80285 9.60899L0.149182 14.8424C0.0294157 15.7957 0.682428 16.6503 1.58976 16.8207L2.04443 22.2769C2.07752 22.6738 2.40938 22.9792 2.80775 22.9792H6.89285C7.31588 22.9792 7.65881 22.6363 7.65881 22.2132C7.65881 21.7902 7.31588 21.4473 6.89285 21.4473H3.51253L3.06042 16.022C3.02734 15.625 2.69547 15.3196 2.29711 15.3196H1.9223C1.76904 15.3196 1.65026 15.1835 1.66924 15.0326L2.32281 9.79997C2.40352 9.16019 2.9464 8.68133 3.59004 8.68133H5.87208C6.29511 8.68133 6.63804 8.3384 6.63804 7.91537C6.63804 7.49234 6.29511 7.14941 5.87208 7.14941H3.59004ZM20.4092 7.14898C21.8258 7.14898 23.0209 8.20341 23.1965 9.60928L23.8501 14.8418C23.9696 15.7958 23.3176 16.6503 22.4095 16.8204L21.9548 22.2764C21.9217 22.6734 21.5899 22.9788 21.1915 22.9788H17.1064C16.6834 22.9788 16.3405 22.6358 16.3405 22.2128C16.3405 21.7898 16.6834 21.4468 17.1064 21.4468H20.4867L20.9388 16.0215C20.9719 15.6245 21.3038 15.3192 21.7022 15.3192H22.077C22.2311 15.3192 22.3492 15.1849 22.3301 15.0327L21.6764 9.79914C21.5966 9.16043 21.0536 8.68089 20.4092 8.68089H18.1274C18.1274 8.68089 17.4125 8.70129 17.4125 7.91488C17.4125 7.12848 18.1274 7.14898 18.1274 7.14898H20.4092Z" fill="currentColor"/>
<path fill-rule="evenodd" clip-rule="evenodd" d="M10.6956 6.91406C10.0902 6.91406 9.43335 7.01743 8.88646 7.36549C8.30578 7.73505 7.93327 8.32739 7.8405 9.11134L7.1652 13.65C7.16446 13.655 7.16378 13.6599 7.16314 13.6649C7.16268 13.6685 7.16224 13.672 7.16183 13.6756C7.08223 14.3707 7.37054 15.0194 7.87135 15.4147L7.1632 19.0006C7.1188 19.2254 7.17739 19.4583 7.32289 19.6353C7.46838 19.8123 7.68549 19.9149 7.91465 19.9149H9.46312L10.2304 23.3988C10.3078 23.75 10.6189 24 10.9785 24H13.021C13.3806 24 13.6917 23.75 13.7691 23.3988L14.5364 19.9149H16.0849C16.314 19.9149 16.5311 19.8123 16.6766 19.6353C16.8221 19.4583 16.8807 19.2254 16.8363 19.0006L16.1282 15.4147C16.629 15.0194 16.9173 14.3707 16.8377 13.6756C16.8367 13.6671 16.8356 13.6585 16.8343 13.65L16.159 9.11133C16.0662 8.32739 15.6937 7.73505 15.113 7.36549C14.5662 7.01743 13.9093 6.91406 13.3039 6.91406H10.6956ZM9.36097 9.29851C9.40275 8.93129 9.5445 8.76254 9.70896 8.65787C9.91066 8.5295 10.2357 8.44598 10.6956 8.44598H13.3039C13.7638 8.44598 14.0888 8.5295 14.2905 8.65787C14.455 8.76254 14.5968 8.93129 14.6385 9.29851C14.6395 9.30725 14.6407 9.31596 14.642 9.32466L15.3167 13.8599C15.3381 14.0855 15.1998 14.2324 15.0723 14.2658C14.6809 14.3686 14.437 14.7581 14.5154 15.1551L15.1528 18.383H13.9208C13.5612 18.383 13.2501 18.6331 13.1727 18.9842L12.4054 22.4681H11.5941L10.8268 18.9842C10.7494 18.6331 10.4383 18.383 10.0787 18.383H8.84666L9.48413 15.1551C9.56253 14.7581 9.31859 14.3686 8.92718 14.2658C8.79968 14.2324 8.66137 14.0855 8.68276 13.8599L9.35754 9.32466C9.35883 9.31596 9.35998 9.30725 9.36097 9.29851Z" fill="currentColor"/>
</g>
<defs>
<clipPath id="clip0_865_6325">
<rect width="24" height="24" fill="currentColor"/>
</clipPath>
</defs>
</svg>
