<svg width="24" height="24" viewBox="0 0 24 24"  xmlns="http://www.w3.org/2000/svg">
<path d="M22.296 15.324L18.4605 14.3655C18.3225 14.3309 18.1973 14.2579 18.0993 14.1548C18.0013 14.0518 17.9346 13.923 17.907 13.7835L17.6205 12.339C18.4043 11.9808 19.0688 11.405 19.5349 10.6801C20.0011 9.95526 20.2493 9.11179 20.25 8.24998V6.18898C20.2682 4.99565 19.8245 3.84146 19.0116 2.96763C18.1987 2.0938 17.0795 1.56795 15.888 1.49998C15.1075 1.4771 14.3344 1.65771 13.6449 2.02407C12.9553 2.39042 12.3729 2.9299 11.955 3.58948C12.9437 4.72841 13.4918 6.18379 13.5 7.69198C13.4108 8.98095 13.7163 10.2665 14.376 11.3775C14.5368 11.6351 14.6438 11.9226 14.6906 12.2227C14.7373 12.5227 14.7228 12.8292 14.648 13.1235C14.5731 13.4178 14.4395 13.6939 14.2551 13.9352C14.0707 14.1765 13.8393 14.378 13.575 14.5275L13.7805 14.5875C14.5633 14.8137 15.2515 15.2879 15.7419 15.9386C16.2323 16.5894 16.4983 17.3817 16.5 18.1965V21.75C16.4975 22.0061 16.4508 22.2598 16.362 22.5H23.25C23.4489 22.5 23.6397 22.421 23.7803 22.2803C23.921 22.1397 24 21.9489 24 21.75V17.5065C23.9999 17.0048 23.8322 16.5175 23.5235 16.1221C23.2147 15.7266 22.7827 15.4457 22.296 15.324ZM13.368 16.0335L10.1325 15.1095C10.0146 15.0759 9.9067 15.0139 9.81831 14.9289C9.72992 14.8439 9.66372 14.7385 9.6255 14.622L9.3705 13.839C10.5519 13.917 11.7348 13.7113 12.8205 13.239C12.9129 13.1912 12.9943 13.1246 13.0595 13.0436C13.1248 12.9626 13.1725 12.8689 13.1995 12.7684C13.2266 12.668 13.2325 12.563 13.2168 12.4601C13.2012 12.3573 13.1643 12.2588 13.1085 12.171C12.2995 10.8241 11.9133 9.26536 12 7.69653C12.0174 6.50942 11.579 5.36082 10.7751 4.48716C9.97119 3.61351 8.86295 3.08128 7.6785 3.00003C7.0727 2.97598 6.46829 3.07459 5.90156 3.28994C5.33482 3.5053 4.81744 3.83295 4.38049 4.25324C3.94354 4.67352 3.59601 5.17777 3.35879 5.7357C3.12156 6.29364 2.99952 6.89375 3 7.50003C3.11513 9.13351 2.73005 10.7633 1.896 12.1725C1.84053 12.2604 1.80392 12.3588 1.7885 12.4615C1.77307 12.5643 1.77915 12.6691 1.80637 12.7694C1.83359 12.8697 1.88135 12.9632 1.94661 13.044C2.01187 13.1249 2.09322 13.1913 2.1855 13.239C3.2712 13.7113 4.45411 13.917 5.6355 13.839L5.3805 14.622C5.34228 14.7385 5.27608 14.8439 5.18769 14.9289C5.0993 15.0139 4.99142 15.0759 4.8735 15.1095L1.638 16.0335C1.1668 16.1667 0.751903 16.45 0.456288 16.8404C0.160672 17.2307 0.000472062 17.7069 0 18.1965V21.75C0 21.9489 0.0790176 22.1397 0.21967 22.2804C0.360322 22.421 0.551088 22.5 0.75 22.5H14.25C14.4489 22.5 14.6397 22.421 14.7803 22.2804C14.921 22.1397 15 21.9489 15 21.75V18.1965C14.9999 17.7076 14.8406 17.2321 14.5461 16.8418C14.2516 16.4515 13.8381 16.1678 13.368 16.0335Z" fill="currentColor"/>
</svg>
