<svg width="24" height="24" viewBox="0 0 24 24"  xmlns="http://www.w3.org/2000/svg">
<g clip-path="url(#clip0_865_6768)">
<path fill-rule="evenodd" clip-rule="evenodd" d="M16.3193 1.54325C16.1814 1.27393 15.9988 1.02616 15.7769 0.81084C15.2393 0.289198 14.5149 0 13.764 0C13.0132 0 12.2888 0.289198 11.7512 0.81084C11.5292 1.02619 11.3466 1.274 11.2087 1.54337C10.7256 1.20594 10.145 1.02295 9.54775 1.02295C8.79693 1.02295 8.07247 1.31215 7.53487 1.83379C7.16893 2.18886 6.90999 2.63218 6.78166 3.11489L0.775411 13.3307C0.303283 13.7887 0.0241338 14.4081 0.00149186 15.0651C-0.021159 15.7223 0.214914 16.3595 0.655574 16.848L4.04741 20.6096C5.00974 21.6766 6.19472 22.5303 7.52193 23.1145C8.84906 23.6986 10.2886 24.0004 11.7443 24.0002H13.7638C16.4715 24.0002 19.0726 22.9568 20.9938 21.0925C22.9159 19.2276 24 16.6932 24 14.0457V5.35249C24 4.7393 23.7487 4.15596 23.3092 3.72947C22.8704 3.30373 22.28 3.0684 21.669 3.0684C21.3607 3.0684 21.0577 3.12828 20.7768 3.24228C20.6623 2.71032 20.3909 2.21988 19.993 1.83379C19.4554 1.31215 18.7309 1.02295 17.9801 1.02295C17.3829 1.02295 16.8024 1.2059 16.3193 1.54325ZM13.764 1.5C13.3967 1.5 13.0488 1.64181 12.7957 1.88736C12.5434 2.13217 12.406 2.4593 12.406 2.79545V10.9773C12.406 11.3915 12.0702 11.7273 11.656 11.7273C11.2418 11.7273 10.906 11.3915 10.906 10.9773V4.85929L10.9058 4.84113V3.8184C10.9058 3.48225 10.7684 3.15512 10.5161 2.91031C10.263 2.66476 9.9151 2.52295 9.54775 2.52295C9.18041 2.52295 8.83249 2.66476 8.57943 2.91031C8.32713 3.15512 8.18972 3.48225 8.18972 3.8184V13.5578C8.18953 13.8515 8.11515 14.14 7.97449 14.397C7.83391 14.6538 7.63196 14.8709 7.38824 15.031C7.14463 15.191 6.86602 15.2897 6.57685 15.3199C6.28771 15.3502 5.99491 15.3114 5.72357 15.2062L3.04296 14.166C2.83669 14.0859 2.60944 14.066 2.39056 14.1097C2.17177 14.1533 1.97394 14.2577 1.82049 14.4068C1.62184 14.5993 1.50966 14.854 1.5006 15.1167C1.49155 15.3794 1.58542 15.6394 1.76947 15.8434L5.16135 19.6051C5.98001 20.5128 6.99064 21.2417 8.12624 21.7416C9.26192 22.2415 10.4956 22.5004 11.7442 22.5002H13.7638C16.088 22.5002 18.3126 21.6042 19.9493 20.016C21.5853 18.4286 22.5 16.2805 22.5 14.0457V5.35249C22.5 5.15196 22.4181 4.9549 22.2646 4.80599C22.1104 4.65633 21.8965 4.5684 21.669 4.5684C21.4414 4.5684 21.2275 4.65633 21.0733 4.80599C20.9242 4.95062 20.8427 5.14069 20.8381 5.33524V10.9775C20.8381 11.3917 20.5024 11.7275 20.0881 11.7275C19.6739 11.7275 19.3381 11.3917 19.3381 10.9775V5.88145C19.338 5.8756 19.3379 5.86974 19.3379 5.86386V5.35249C19.3379 5.34245 19.338 5.3324 19.3381 5.32237V3.8184C19.3381 3.48225 19.2007 3.15512 18.9484 2.91031C18.6954 2.66476 18.3475 2.52295 17.9801 2.52295C17.6128 2.52295 17.2648 2.66476 17.0118 2.91031C16.7608 3.15383 16.6235 3.4788 16.6221 3.81309V10.9773C16.6221 11.3915 16.2863 11.7273 15.8721 11.7273C15.4579 11.7273 15.1221 11.3915 15.1221 10.9773V3.8184C15.1221 3.81576 15.1221 3.81312 15.1221 3.81048V2.79545C15.1221 2.4593 14.9847 2.13217 14.7324 1.88736C14.4793 1.64181 14.1314 1.5 13.764 1.5ZM6.78166 3.11489C6.72119 3.34235 6.68972 3.57857 6.68972 3.8184V13.5573C6.68969 13.5978 6.67951 13.6387 6.65868 13.6768C6.63778 13.715 6.6062 13.7501 6.56479 13.7773C6.52327 13.8045 6.47383 13.8225 6.42067 13.8281C6.36758 13.8336 6.31432 13.8264 6.26598 13.8077L3.58575 12.7677C3.11259 12.584 2.59527 12.5393 2.09733 12.6386C1.59928 12.7379 1.13919 12.9775 0.775411 13.3307L6.78166 3.11489Z" fill="currentColor"/>
</g>
<defs>
<clipPath id="clip0_865_6768">
<rect width="24" height="24" fill="currentColor"/>
</clipPath>
</defs>
</svg>
