<svg width="24" height="24" viewBox="0 0 24 24"  xmlns="http://www.w3.org/2000/svg">
<g clip-path="url(#clip0_865_6775)">
<path d="M22.7976 18.7269C23.5794 17.3 24 15.6948 24 14.0457V5.35249C24 4.7393 23.7487 4.15596 23.3092 3.72947C22.8704 3.30373 22.28 3.0684 21.669 3.0684C21.3607 3.0684 21.0577 3.12828 20.7768 3.24228C20.6623 2.71032 20.3909 2.21988 19.993 1.83379C19.4554 1.31215 18.7309 1.02295 17.9801 1.02295C17.3829 1.02295 16.8024 1.2059 16.3193 1.54325C16.1814 1.27393 15.9988 1.02616 15.7769 0.81084C15.2393 0.289198 14.5149 0 13.764 0C13.0132 0 12.2888 0.289198 11.7512 0.81084C11.5292 1.02619 11.3466 1.274 11.2087 1.54337C10.7256 1.20594 10.145 1.02295 9.54775 1.02295C8.79693 1.02295 8.07247 1.31215 7.53487 1.83379C7.24722 2.1129 7.02568 2.44654 6.88173 2.81098L8.18972 4.11897V3.8184C8.18972 3.48225 8.32713 3.15512 8.57943 2.91031C8.83249 2.66476 9.18041 2.52295 9.54775 2.52295C9.9151 2.52295 10.263 2.66476 10.5161 2.91031C10.7684 3.15512 10.9058 3.48225 10.9058 3.8184V4.84113L10.906 4.85929V6.83526L12.406 8.33526V2.79545C12.406 2.4593 12.5434 2.13217 12.7957 1.88736C13.0488 1.64181 13.3967 1.5 13.764 1.5C14.1314 1.5 14.4793 1.64181 14.7324 1.88736C14.9847 2.13217 15.1221 2.4593 15.1221 2.79545V10.9773C15.1221 11.0036 15.1234 11.0297 15.1261 11.0553L15.794 11.7233C15.8197 11.7259 15.8457 11.7273 15.8721 11.7273C16.2863 11.7273 16.6221 11.3915 16.6221 10.9773V3.81309C16.6235 3.4788 16.7608 3.15383 17.0118 2.91031C17.2648 2.66476 17.6128 2.52295 17.9801 2.52295C18.3475 2.52295 18.6954 2.66476 18.9484 2.91031C19.2007 3.15512 19.3381 3.48225 19.3381 3.8184V5.32237L19.3379 5.35249V5.86386L19.3381 5.88145V10.9775C19.3381 11.3917 19.6739 11.7275 20.0881 11.7275C20.5024 11.7275 20.8381 11.3917 20.8381 10.9775V5.33524C20.8427 5.14069 20.9242 4.95062 21.0733 4.80599C21.2275 4.65633 21.4414 4.5684 21.669 4.5684C21.8965 4.5684 22.1104 4.65633 22.2646 4.80599C22.4181 4.9549 22.5 5.15196 22.5 5.35249V14.0457C22.5 15.2889 22.2169 16.5053 21.684 17.6133L22.7976 18.7269Z" fill="currentColor"/>
<path fill-rule="evenodd" clip-rule="evenodd" d="M0.221759 0.221759C0.517439 -0.0739197 0.996829 -0.0739197 1.29251 0.221759L23.7782 22.7075C24.0739 23.0032 24.0739 23.4826 23.7782 23.7782C23.4826 24.0739 23.0032 24.0739 22.7075 23.7782L20.484 21.5547C18.6248 23.1284 16.2388 24.0002 13.7638 24.0002H11.7443C10.2886 24.0004 8.84906 23.6986 7.52193 23.1145C6.19472 22.5303 5.00974 21.6766 4.04741 20.6096L0.655574 16.848C0.214914 16.3595 -0.0211589 15.7223 0.00149196 15.0651C0.0241339 14.4081 0.303283 13.7887 0.775411 13.3307C1.13919 12.9775 1.59928 12.7379 2.09733 12.6386C2.59527 12.5393 3.11259 12.584 3.58575 12.7677L6.26598 13.8077C6.31432 13.8264 6.36758 13.8336 6.42067 13.8281C6.47383 13.8225 6.52327 13.8045 6.56479 13.7773C6.6062 13.7501 6.63778 13.715 6.65868 13.6768C6.67951 13.6387 6.68969 13.5978 6.68972 13.5573V7.76047L0.221759 1.29251C-0.0739197 0.996829 -0.0739197 0.517439 0.221759 0.221759ZM8.18972 9.26047L19.419 20.4897C17.8478 21.7812 15.8458 22.5002 13.7638 22.5002H11.7442C10.4956 22.5004 9.26192 22.2415 8.12624 21.7416C6.99064 21.2417 5.98001 20.5128 5.16135 19.6051L1.76947 15.8434C1.58542 15.6394 1.49155 15.3794 1.5006 15.1167C1.50966 14.854 1.62184 14.5993 1.82049 14.4068C1.97394 14.2577 2.17177 14.1533 2.39056 14.1097C2.60944 14.066 2.83669 14.0859 3.04296 14.166L5.72357 15.2062C5.99491 15.3114 6.28771 15.3502 6.57685 15.3199C6.86602 15.2897 7.14463 15.191 7.38824 15.031C7.63196 14.8709 7.83391 14.6538 7.97449 14.397C8.11515 14.14 8.18953 13.8515 8.18972 13.5578V9.26047Z" fill="currentColor"/>
</g>
<defs>
<clipPath id="clip0_865_6775">
<rect width="24" height="24" fill="currentColor"/>
</clipPath>
</defs>
</svg>
