<svg width="24" height="24" viewBox="0 0 24 24"  xmlns="http://www.w3.org/2000/svg">
<g clip-path="url(#clip0_3469_450)">
<path d="M3 3V10.5C3 10.8978 2.84196 11.2794 2.56066 11.5607C2.27936 11.842 1.89782 12 1.5 12C1.10218 12 0.720644 11.842 0.43934 11.5607C0.158035 11.2794 0 10.8978 0 10.5V1.5C0 1.10218 0.158035 0.720644 0.43934 0.43934C0.720644 0.158035 1.10218 0 1.5 0H7.5C7.89782 0 8.27936 0.158035 8.56066 0.43934C8.84196 0.720644 9 1.10218 9 1.5C9 1.89782 8.84196 2.27936 8.56066 2.56066C8.27936 2.84196 7.89782 3 7.5 3H3Z" fill="currentColor"/>
<path d="M23.5607 0.439366C23.842 0.720671 24.0001 1.1022 24.0001 1.50003V15.009C23.9735 15.675 23.8045 16.3276 23.5043 16.9228C23.2042 17.5179 22.7799 18.0418 22.2601 18.459L17.6401 22.404C16.5527 23.3416 15.1638 23.8555 13.7281 23.8515C13.0232 23.8467 12.3246 23.7183 11.6641 23.472C11.0872 23.867 10.3905 24.0481 9.69429 23.984C8.99811 23.9199 8.34616 23.6147 7.85108 23.121L2.47208 17.742C1.90955 17.1793 1.59361 16.4162 1.59375 15.6205C1.59382 15.2265 1.67149 14.8364 1.82232 14.4725C1.97315 14.1085 2.1942 13.7778 2.47283 13.4993C2.75146 13.2207 3.08222 12.9998 3.44624 12.8491C3.81025 12.6984 4.20038 12.6209 4.59436 12.6209C4.98833 12.621 5.37844 12.6987 5.7424 12.8495C6.10636 13.0004 6.43704 13.2214 6.71558 13.5L12.0931 18.8775C12.5894 19.3767 12.8924 20.0358 12.9481 20.7375C13.4192 20.8678 13.9152 20.8803 14.3923 20.7738C14.8694 20.6674 15.313 20.4452 15.6841 20.127L15.8911 19.95L13.7236 17.787C13.5827 17.6462 13.5036 17.4552 13.5036 17.256C13.5036 17.0569 13.5827 16.8659 13.7236 16.725C13.8644 16.5842 14.0554 16.5051 14.2546 16.5051C14.4537 16.5051 14.6447 16.5842 14.7856 16.725L17.0356 18.975L18.3181 17.8785L15.9691 15.531C15.8993 15.4613 15.844 15.3785 15.8063 15.2874C15.7686 15.1963 15.7491 15.0986 15.7491 15C15.7491 14.9014 15.7686 14.8038 15.8063 14.7127C15.844 14.6215 15.8993 14.5388 15.9691 14.469C16.0388 14.3993 16.1216 14.344 16.2127 14.3062C16.3038 14.2685 16.4015 14.2491 16.5001 14.2491C16.5987 14.2491 16.6963 14.2685 16.7875 14.3062C16.8786 14.344 16.9613 14.3993 17.0311 14.469L19.4626 16.902L20.3116 16.1775C20.5003 16.0163 20.6537 15.8177 20.762 15.5943C20.8704 15.3709 20.9313 15.1275 20.941 14.8794C20.9507 14.6313 20.909 14.3839 20.8185 14.1527C20.728 13.9215 20.5906 13.7116 20.4151 13.536L14.1256 7.24653L10.0951 10.3815C9.34446 10.966 8.40608 11.256 7.45656 11.1969C6.50705 11.1378 5.61189 10.7336 4.93958 10.0605C4.65837 9.77923 4.5004 9.39777 4.5004 9.00003C4.5004 8.60228 4.65837 8.22082 4.93958 7.93953L10.9021 1.97703C11.5274 1.34823 12.2712 0.849724 13.0905 0.510369C13.9098 0.171014 14.7883 -0.00244825 15.6751 2.61029e-05H22.5001C22.8979 2.61029e-05 23.2794 0.158061 23.5607 0.439366Z" fill="currentColor"/>
</g>
<defs>
<clipPath id="clip0_3469_450">
<rect width="24" height="24" fill="currentColor"/>
</clipPath>
</defs>
</svg>
