<svg width="24" height="24" viewBox="0 0 24 24"  xmlns="http://www.w3.org/2000/svg">
<path d="M0 2.85C0 2.4 0.3 1.5 0.75 1.5H9.15C9.6 1.5 9.9 1.95 9.75 2.4C9.75 2.85 9.3 3.15 8.85 3H8.4L1.7986 2.88212L1.5 9.75C1.5 10.2 1.2 10.5 0.75 10.5C0.3 10.5 0 10.2 0 9.75V2.85ZM14.4 5.40029C14.7 5.10029 15.15 5.10029 15.45 5.40029L22.5 12.4503C22.95 12.9003 23.25 13.6503 23.25 14.2503C23.25 14.8503 22.95 15.6003 22.5 16.0503C22.05 16.5003 21.3 16.8003 20.7 16.8003H20.6941C20.698 16.8511 20.7 16.9012 20.7 16.9503C20.7 17.7003 20.4 18.3003 19.95 18.7503C19.5 19.2003 18.75 19.5003 18.15 19.5003C17.9249 19.5003 17.7134 19.4733 17.5153 19.4233C17.4243 19.9372 17.1602 20.4897 16.8 20.8499L15.75 19.7999C15.9 19.6499 16.05 19.3499 16.05 19.0499C16.05 18.7499 15.9 18.4499 15.75 18.2999C15.646 18.1959 15.5781 18.074 15.5462 17.9464L14.1 16.5003C13.8 16.2003 13.8 15.7503 14.1 15.4503C14.4 15.1503 14.85 15.1503 15.15 15.4503L17.4 17.7003C17.55 17.8503 17.85 18.0003 18.15 18.0003C18.45 18.0003 18.75 17.8503 18.9 17.7003C19.05 17.5503 19.2 17.2503 19.2 16.9503C19.2 16.6503 19.05 16.3503 18.9 16.2003L16.65 13.9503C16.5 13.8003 16.5 13.2003 16.65 12.9003C16.95 12.6003 17.4 12.6003 17.7 12.9003L19.5961 14.7964C19.7238 14.8282 19.8459 14.8962 19.95 15.0003C20.1 15.1503 20.4 15.3003 20.7 15.3003C21 15.3003 21.3 15.1503 21.45 15.0003C21.6 14.8503 21.75 14.5503 21.75 14.2503C21.75 13.9503 21.6 13.6503 21.45 13.5003L14.8789 7.069L10.35 10.5C9.90001 10.8 9.45001 10.95 9.00001 10.95C8.55001 10.95 8.10001 10.95 7.65001 10.65C7.35001 10.5 7.05001 10.35 6.90001 10.05C6.60001 9.6 6.45001 9.3 6.45001 9C6.45001 8.55 6.45001 8.25 6.60001 7.8C6.60001 7.5 6.90001 7.05 7.05001 6.9L11.7 2.85C12.75 1.95 13.95 1.5 15.15 1.5H23.25C23.7 1.5 24 1.8 24 2.25V9.75C24 10.2 23.7 10.5 23.25 10.5C22.8 10.5 22.5 10.2 22.5 9.75V3H15.15C14.25 3 13.35 3.3 12.75 3.9L8.25001 7.95C8.10001 7.95 7.95001 8.1 7.95001 8.25V8.7C7.95001 8.775 7.98751 8.85 8.02501 8.925C8.06251 9 8.10001 9.075 8.10001 9.15L8.40001 9.45C8.55001 9.6 8.70001 9.6 8.85001 9.6C8.92501 9.6 9.00001 9.5625 9.07501 9.525C9.15001 9.4875 9.22501 9.45 9.30001 9.45L14.3298 5.60366C14.3476 5.52754 14.371 5.45831 14.4 5.40029Z" fill="currentColor"/>
<path fill-rule="evenodd" clip-rule="evenodd" d="M6.93513 13.3128C6.90772 12.6755 6.64602 12.0457 6.15004 11.5497C5.10004 10.4997 3.45004 10.4997 2.40004 11.5497L1.95004 11.9997C0.900037 13.0497 0.900037 14.6997 1.95004 15.7497C2.44592 16.2456 3.07564 16.5073 3.71277 16.5348C3.70214 17.2231 3.96454 17.9146 4.49996 18.45C4.95051 18.9756 5.58902 19.2381 6.26494 19.2375C6.29247 19.8746 6.55416 20.5042 7.05001 21.0001C7.61573 21.5658 8.35563 21.8267 9.08201 21.7829C9.12317 22.3204 9.34584 22.8455 9.75001 23.2497C10.65 24.1497 12.15 24.1497 13.05 23.2497L13.5 22.7997C14.4 21.8997 14.4 20.3997 13.5 19.4997C13.0969 19.0966 12.5735 18.8741 12.0375 18.832C12.0393 18.1547 11.7768 17.4769 11.25 16.9501C10.7911 16.4912 10.2177 16.2329 9.62976 16.1751C9.68681 15.435 9.42688 14.6769 8.84996 14.1C8.31464 13.5647 7.62335 13.3023 6.93513 13.3128ZM3.00004 13.0497C2.55004 13.4997 2.55004 14.2497 3.00004 14.6997C3.38744 15.0871 3.9972 15.141 4.35075 14.8614C4.39777 14.8063 4.44738 14.7526 4.4996 14.7004L4.95004 14.2497C5.40004 13.7997 5.40004 13.0497 4.95004 12.7497C4.50004 12.2997 3.75004 12.2997 3.45004 12.7497L3.00004 13.0497ZM10.7881 21.0119C10.7921 21.008 10.7961 21.004 10.8 21.0001L11.25 20.7001C11.3515 20.5986 11.4432 20.4914 11.5251 20.3798C11.834 20.2689 12.2258 20.3255 12.45 20.5497C12.75 20.8497 12.75 21.4497 12.45 21.7497L12 22.1997C11.55 22.4997 11.1 22.4997 10.8 22.1997C10.504 21.9037 10.5001 21.3157 10.7881 21.0119ZM6.90054 17.4118C6.94764 17.3566 6.99735 17.3028 7.04967 17.2504L7.64996 16.65C8.09996 16.2 8.09996 15.45 7.64996 15.15C7.32793 14.828 6.85227 14.7364 6.49783 14.8753C6.39867 15.0247 6.28274 15.167 6.15004 15.2997L5.70004 15.7497C5.58299 15.8668 5.45849 15.9708 5.32819 16.0617C5.11929 16.4915 5.19321 17.0122 5.54996 17.25C5.93732 17.6374 6.54697 17.6913 6.90054 17.4118ZM8.10001 19.9501C7.73115 19.7042 7.66464 19.1559 7.9005 18.7184C8.0203 18.6382 8.13712 18.5487 8.24996 18.45L8.84996 17.85C8.90064 17.7993 8.94888 17.7472 8.99467 17.6939C9.33533 17.6045 9.75649 17.7066 10.05 18.0001C10.5 18.3001 10.5 19.0501 10.05 19.5001L9.60001 19.9501C9.30001 20.4001 8.55001 20.4001 8.10001 19.9501Z" fill="currentColor"/>
</svg>
