<svg width="24" height="24" viewBox="0 0 24 24"  xmlns="http://www.w3.org/2000/svg">
<g clip-path="url(#clip0_865_6781)">
<path d="M2.61446 0.448571C2.01637 -0.149524 1.04667 -0.149524 0.448571 0.448571C-0.149524 1.04667 -0.149524 2.01637 0.448571 2.61446L7.88669 10.0526V13.5076C7.88659 13.6935 7.83973 13.8763 7.75054 14.0386C7.66135 14.2009 7.5328 14.3374 7.37709 14.4351C7.22137 14.5328 7.04366 14.5885 6.8608 14.5969C6.67795 14.6052 6.49603 14.566 6.33229 14.4829L2.62301 12.5978C2.22851 12.3973 1.77587 12.3486 1.34875 12.4607C0.921633 12.5728 0.548911 12.8381 0.29947 13.2076C0.0716815 13.5707 -0.0308253 14.0004 0.00806506 14.4291C0.0469553 14.8578 0.225037 15.2613 0.514314 15.576L5.00456 20.7033C5.91127 21.7396 7.02381 22.5691 8.26895 23.1373C9.51409 23.7056 10.8636 23.9996 12.2287 24H14.332C16.373 24 18.3475 23.3446 19.9826 22.1485L21.3855 23.5514C21.9836 24.1495 22.9533 24.1495 23.5514 23.5514C24.1495 22.9533 24.1495 21.9836 23.5514 21.3855L2.61446 0.448571ZM15.4062 1.63636V9.24034L12.1836 6.01768V1.63636C12.1836 1.20237 12.3533 0.786158 12.6555 0.47928C12.9577 0.172402 13.3676 2.5332e-07 13.7949 2.5332e-07C14.2223 2.5332e-07 14.6321 0.172402 14.9343 0.47928C15.2365 0.786158 15.4062 1.20237 15.4062 1.63636ZM23.4911 17.3252L16.4805 10.3146V2.72727C16.4805 2.29328 16.6502 1.87707 16.9524 1.57019C17.2546 1.26331 17.6644 1.09091 18.0918 1.09091C18.5191 1.09091 18.929 1.26331 19.2312 1.57019C19.5334 1.87707 19.7031 2.29328 19.7031 2.72727V10.9091H20.7773V4.90909C20.7773 4.4751 20.9471 4.05888 21.2493 3.75201C21.5515 3.44513 21.9613 3.27273 22.3887 3.27273C22.816 3.27273 23.2259 3.44513 23.5281 3.75201C23.8302 4.05888 24 4.4751 24 4.90909V14.1818C24 15.261 23.8251 16.3218 23.4911 17.3252ZM8.09266 1.92677L11.1094 4.94346V2.72727C11.1094 2.29328 10.9396 1.87707 10.6374 1.57019C10.3352 1.26331 9.92537 1.09091 9.49802 1.09091C9.07067 1.09091 8.66082 1.26331 8.35864 1.57019C8.25339 1.67707 8.1642 1.79722 8.09266 1.92677Z" fill="currentColor"/>
</g>
<defs>
<clipPath id="clip0_865_6781">
<rect width="24" height="24" fill="currentColor"/>
</clipPath>
</defs>
</svg>
