<svg width="24" height="24" viewBox="0 0 24 24"  xmlns="http://www.w3.org/2000/svg">
<g clip-path="url(#clip0_865_6787)">
<path d="M22.3887 3.27273C21.9613 3.27273 21.5515 3.44513 21.2493 3.75201C20.9471 4.05888 20.7773 4.4751 20.7773 4.90909V10.9091H19.7031V2.72727C19.7031 2.29328 19.5334 1.87707 19.2312 1.57019C18.929 1.26331 18.5191 1.09091 18.0918 1.09091C17.6644 1.09091 17.2546 1.26331 16.9524 1.57019C16.6502 1.87707 16.4805 2.29328 16.4805 2.72727V10.9091H15.4062V1.63636C15.4062 1.20237 15.2365 0.786158 14.9343 0.47928C14.6321 0.172402 14.2223 0 13.7949 0C13.3676 0 12.9577 0.172402 12.6555 0.47928C12.3533 0.786158 12.1836 1.20237 12.1836 1.63636V10.9091H11.1094V2.72727C11.1094 2.29328 10.9396 1.87707 10.6374 1.57019C10.3352 1.26331 9.92537 1.09091 9.49802 1.09091C9.07067 1.09091 8.66082 1.26331 8.35864 1.57019C8.05645 1.87707 7.88669 2.29328 7.88669 2.72727V13.5076C7.88659 13.6935 7.83973 13.8763 7.75054 14.0386C7.66135 14.2009 7.5328 14.3374 7.37709 14.4351C7.22137 14.5328 7.04366 14.5885 6.8608 14.5969C6.67795 14.6052 6.49603 14.566 6.33229 14.4829L2.62301 12.5978C2.22851 12.3973 1.77587 12.3486 1.34875 12.4607C0.921633 12.5728 0.548911 12.8381 0.29947 13.2076C0.0716812 13.5707 -0.0308255 14.0004 0.0080648 14.4291C0.0469551 14.8578 0.225037 15.2613 0.514314 15.576L5.00456 20.7033C5.91127 21.7396 7.02381 22.5691 8.26895 23.1373C9.51409 23.7056 10.8636 23.9996 12.2287 24H14.332C16.8961 24 19.3552 22.9656 21.1683 21.1243C22.9814 19.2831 24 16.7858 24 14.1818V4.90909C24 4.4751 23.8302 4.05888 23.5281 3.75201C23.2259 3.44513 22.816 3.27273 22.3887 3.27273Z" fill="currentColor"/>
</g>
<defs>
<clipPath id="clip0_865_6787">
<rect width="24" height="24" fill="currentColor"/>
</clipPath>
</defs>
</svg>
