<svg width="24" height="24" viewBox="0 0 24 24"  xmlns="http://www.w3.org/2000/svg">
<g clip-path="url(#clip0_865_2862)">
<path d="M12 0C5.4 0 0 5.4 0 12C0 18.6 5.4 24 12 24C18.6 24 24 18.6 24 12C24 5.4 18.6 0 12 0ZM15 7.5C15.9 7.5 16.5 8.1 16.5 9C16.5 9.9 15.9 10.5 15 10.5C14.1 10.5 13.5 9.9 13.5 9C13.5 8.1 14.1 7.5 15 7.5ZM9 7.5C9.9 7.5 10.5 8.1 10.5 9C10.5 9.9 9.9 10.5 9 10.5C8.1 10.5 7.5 9.9 7.5 9C7.5 8.1 8.1 7.5 9 7.5ZM19.2 13.8C18.45 17.25 15.45 19.5 12 19.5C8.55 19.5 5.55 17.25 4.8 13.95C4.5 13.05 4.95 12.3 5.85 12C6.6 11.85 7.5 12.3 7.65 13.2C8.1 15.15 9.9 16.5 12 16.5C14.1 16.5 15.9 15.15 16.35 13.2C16.5 12.3 17.4 11.85 18.15 12C19.05 12.3 19.5 13.05 19.2 13.8Z" fill="currentColor"/>
</g>
<defs>
<clipPath id="clip0_865_2862">
<rect width="24" height="24" fill="currentColor"/>
</clipPath>
</defs>
</svg>
