<svg width="24" height="24" viewBox="0 0 24 24"  xmlns="http://www.w3.org/2000/svg">
<g clip-path="url(#clip0_865_2856)">
<path fill-rule="evenodd" clip-rule="evenodd" d="M1.5 12C1.5 6.20101 6.20101 1.5 12 1.5C17.799 1.5 22.5 6.20101 22.5 12C22.5 17.799 17.799 22.5 12 22.5C6.20101 22.5 1.5 17.799 1.5 12ZM12 0C5.37258 0 0 5.37258 0 12C0 18.6275 5.37258 24 12 24C18.6275 24 24 18.6275 24 12C24 5.37258 18.6275 0 12 0ZM6.14906 13.3337C6.05723 12.9298 5.65534 12.6768 5.25144 12.7687C4.84754 12.8605 4.59456 13.2624 4.68639 13.6663C5.06334 15.3242 5.99235 16.8046 7.32114 17.8652C8.64992 18.9258 10.2996 19.5035 11.9997 19.5035C13.6999 19.5035 15.3495 18.9258 16.6784 17.8652C18.007 16.8046 18.9361 15.3242 19.3131 13.6663C19.4049 13.2624 19.1518 12.8605 18.7481 12.7687C18.3441 12.6768 17.9422 12.9298 17.8505 13.3337C17.5488 14.66 16.8055 15.8443 15.7427 16.6929C14.6796 17.5413 13.3598 18.0035 11.9997 18.0035C10.6396 18.0035 9.31987 17.5413 8.25686 16.6929C7.19384 15.8443 6.45061 14.66 6.14906 13.3337ZM7.5 7.5C7.10217 7.5 6.72064 7.65804 6.43933 7.93933C6.15804 8.22064 6 8.60217 6 9C6 9.41421 5.66421 9.75 5.25 9.75C4.83579 9.75 4.5 9.41421 4.5 9C4.5 8.20436 4.81606 7.44129 5.37868 6.87868C5.94129 6.31607 6.70435 6 7.5 6C8.29564 6 9.05871 6.31607 9.62132 6.87868C10.1839 7.44129 10.5 8.20436 10.5 9C10.5 9.41421 10.1642 9.75 9.75 9.75C9.33579 9.75 9 9.41421 9 9C9 8.60217 8.84196 8.22064 8.56067 7.93933C8.27936 7.65804 7.89783 7.5 7.5 7.5ZM15.4394 7.93933C15.7206 7.65804 16.1022 7.5 16.5 7.5C16.8978 7.5 17.2794 7.65804 17.5606 7.93933C17.8419 8.22064 18 8.60217 18 9C18 9.41421 18.3358 9.75 18.75 9.75C19.1642 9.75 19.5 9.41421 19.5 9C19.5 8.20436 19.184 7.44129 18.6213 6.87868C18.0586 6.31607 17.2956 6 16.5 6C15.7044 6 14.9413 6.31607 14.3787 6.87868C13.8161 7.44129 13.5 8.20436 13.5 9C13.5 9.41421 13.8358 9.75 14.25 9.75C14.6642 9.75 15 9.41421 15 9C15 8.60217 15.1581 8.22064 15.4394 7.93933Z" fill="currentColor"/>
</g>
<defs>
<clipPath id="clip0_865_2856">
<rect width="24" height="24" fill="currentColor"/>
</clipPath>
</defs>
</svg>
