<svg width="24" height="24" viewBox="0 0 24 24"  xmlns="http://www.w3.org/2000/svg">
<g clip-path="url(#clip0_865_1682)">
<path fill-rule="evenodd" clip-rule="evenodd" d="M9.17686 0.262722C9.86028 0.360353 10.3352 0.993518 10.2375 1.67694L9.65566 5.75H16.1303L16.7626 1.32338C16.8603 0.639965 17.4934 0.165091 18.1769 0.262722C18.8603 0.360353 19.3352 0.993518 19.2375 1.67694L18.6557 5.75H22.7C23.3904 5.75 23.95 6.30964 23.95 7C23.95 7.69036 23.3904 8.25 22.7 8.25H18.2985L17.2271 15.75H21.7C22.3904 15.75 22.95 16.3096 22.95 17C22.95 17.6904 22.3904 18.25 21.7 18.25H16.8699L16.2375 22.6769C16.1399 23.3604 15.5067 23.8352 14.8233 23.7376C14.1399 23.64 13.665 23.0068 13.7626 22.3234L14.3446 18.25H7.86994L7.23752 22.6769C7.13989 23.3604 6.50672 23.8352 5.82331 23.7376C5.13989 23.64 4.66502 23.0068 4.76265 22.3234L5.34456 18.25H1.30005C0.609693 18.25 0.0500488 17.6904 0.0500488 17C0.0500488 16.3096 0.609693 15.75 1.30005 15.75H5.7017L6.77313 8.25H2.30005C1.60969 8.25 1.05005 7.69036 1.05005 7C1.05005 6.30964 1.60969 5.75 2.30005 5.75H7.13027L7.76265 1.32338C7.86028 0.639965 8.49344 0.165091 9.17686 0.262722ZM14.7017 15.75L15.7731 8.25H9.29851L8.22708 15.75H14.7017Z" fill="currentColor"/>
</g>
<defs>
<clipPath id="clip0_865_1682">
<rect width="24" height="24" fill="currentColor"/>
</clipPath>
</defs>
</svg>
