<svg width="24" height="24" viewBox="0 0 24 24"  xmlns="http://www.w3.org/2000/svg">
<g clip-path="url(#clip0_865_2719)">
<path d="M4.57538 4.57538C6.54452 2.60625 9.21522 1.5 12 1.5C14.7848 1.5 17.4555 2.60625 19.4246 4.57538C21.3938 6.54452 22.5 9.21522 22.5 12V18.75C22.5 19.7445 22.1049 20.6984 21.4017 21.4017C20.6984 22.1049 19.7445 22.5 18.75 22.5H16.5V15H20.25C20.6642 15 21 14.6642 21 14.25C21 13.8358 20.6642 13.5 20.25 13.5H15.75C15.3358 13.5 15 13.8358 15 14.25V23.25C15 23.6642 15.3358 24 15.75 24H18.75C20.1425 24 21.4778 23.447 22.4624 22.4624C23.447 21.4778 24 20.1425 24 18.75V12C24 8.8174 22.7357 5.76516 20.4854 3.51472C18.2349 1.26428 15.1826 0 12 0C8.8174 0 5.76516 1.26428 3.51472 3.51472C1.26428 5.76516 0 8.8174 0 12V18.75C0 20.1425 0.553124 21.4778 1.5377 22.4624C2.52225 23.447 3.85761 24 5.25 24H8.25C8.66421 24 9 23.6642 9 23.25V14.25C9 13.8358 8.66421 13.5 8.25 13.5H3.75C3.33579 13.5 3 13.8358 3 14.25C3 14.6642 3.33579 15 3.75 15H7.5V22.5H5.25C4.25544 22.5 3.3016 22.1049 2.59834 21.4017C1.89508 20.6984 1.5 19.7445 1.5 18.75V12C1.5 9.21522 2.60625 6.54452 4.57538 4.57538Z" fill="currentColor"/>
</g>
<defs>
<clipPath id="clip0_865_2719">
<rect width="24" height="24" fill="currentColor"/>
</clipPath>
</defs>
</svg>
