<svg width="24" height="24" viewBox="0 0 24 24"  xmlns="http://www.w3.org/2000/svg">
<g clip-path="url(#clip0_865_6400)">
<path d="M6.55692 17.758H3.77846C2.24368 17.7579 1.0002 16.4911 1 14.9277V11.2048C1.00022 5.02755 5.93547 0.000225688 11.9995 0C18.0638 0 22.9998 5.02741 23 11.2048V14.9277C22.9998 16.491 21.7563 17.7579 20.2215 17.758H17.4431V12.1352C17.4433 10.9827 18.1181 9.99757 19.0841 9.55674C18.352 6.25462 15.468 3.7996 11.9995 3.7996C8.53117 3.79979 5.64694 6.25466 4.91493 9.55674C5.88129 9.99742 6.55674 10.9824 6.55692 12.1352V17.758Z" fill="currentColor"/>
<path d="M19.1561 19.2002V18.2402H21.0761V19.2002C21.0761 21.3096 19.3455 23.0402 17.2361 23.0402H14.0974C13.929 23.3319 13.6868 23.5741 13.3952 23.7426C13.1037 23.9111 12.7729 23.9999 12.4361 24.0002C11.9269 24.0002 11.4385 23.7979 11.0785 23.4378C10.7184 23.0778 10.5161 22.5894 10.5161 22.0802C10.5161 21.571 10.7184 21.0826 11.0785 20.7226C11.4385 20.3625 11.9269 20.1602 12.4361 20.1602C12.7726 20.1608 13.1029 20.2498 13.3942 20.4183C13.6854 20.5868 13.9273 20.8288 14.0955 21.1202H17.2361C18.3081 21.1202 19.1561 20.2722 19.1561 19.2002Z" fill="currentColor"/>
</g>
<defs>
<clipPath id="clip0_865_6400">
<rect width="24" height="24" fill="currentColor"/>
</clipPath>
</defs>
</svg>
