<svg width="24" height="24" viewBox="0 0 24 24"  xmlns="http://www.w3.org/2000/svg">
<path d="M11.9599 0C6.13903 0 1.3999 4.73913 1.3999 10.56V14.4C1.3999 15.4608 2.2591 16.32 3.3199 16.32H5.2399V11.52C5.2399 10.4785 4.41023 9.63612 3.37615 9.60563C3.84958 5.27469 7.49976 1.92 11.9599 1.92C16.42 1.92 20.0702 5.27469 20.5437 9.60563C19.5096 9.63612 18.6799 10.4785 18.6799 11.52V16.32H20.5999C21.6607 16.32 22.5199 15.4608 22.5199 14.4V10.56C22.5199 4.73913 17.7808 0 11.9599 0ZM18.6799 18.24V19.2C18.6799 20.272 17.8319 21.12 16.7599 21.12H13.6193C13.4511 20.8286 13.2092 20.5866 12.918 20.4181C12.6267 20.2496 12.2964 20.1606 11.9599 20.16C11.4507 20.16 10.9623 20.3623 10.6023 20.7224C10.2422 21.0824 10.0399 21.5708 10.0399 22.08C10.0399 22.5892 10.2422 23.0776 10.6023 23.4376C10.9623 23.7977 11.4507 24 11.9599 24C12.2967 23.9997 12.6275 23.9109 12.919 23.7424C13.2106 23.5739 13.4528 23.3317 13.6212 23.04H16.7599C18.8693 23.04 20.5999 21.3094 20.5999 19.2V18.24H18.6799Z" fill="currentColor"/>
</svg>
