<svg width="24" height="24" viewBox="0 0 24 24"  xmlns="http://www.w3.org/2000/svg">
<path d="M17 19.9997C16.71 19.9997 16.44 19.9397 16.24 19.8497C15.53 19.4797 15.03 18.9697 14.53 17.4697C14.02 15.9097 13.06 15.1797 12.14 14.4697C11.35 13.8597 10.53 13.2297 9.82 11.9397C9.29 10.9797 9 9.92973 9 8.99973C9 6.19973 11.2 3.99973 14 3.99973C16.8 3.99973 19 6.19973 19 8.99973H21C21 5.06973 17.93 1.99973 14 1.99973C10.07 1.99973 7 5.06973 7 8.99973C7 10.2597 7.38 11.6497 8.07 12.8997C8.98 14.5497 10.05 15.3797 10.92 16.0497C11.73 16.6697 12.31 17.1197 12.63 18.0997C13.23 19.9197 14 20.9397 15.36 21.6497C15.87 21.8797 16.43 21.9997 17 21.9997C19.21 21.9997 21 20.2097 21 17.9997H19C19 19.0997 18.1 19.9997 17 19.9997ZM7.64 2.63973L6.22 1.21973C4.23 3.20973 3 5.95973 3 8.99973C3 12.0397 4.23 14.7897 6.22 16.7797L7.63 15.3697C6.01 13.7397 5 11.4897 5 8.99973C5 6.50973 6.01 4.25973 7.64 2.63973ZM11.5 8.99973C11.5 10.3797 12.62 11.4997 14 11.4997C15.38 11.4997 16.5 10.3797 16.5 8.99973C16.5 7.61973 15.38 6.49973 14 6.49973C12.62 6.49973 11.5 7.61973 11.5 8.99973Z" fill="currentColor"/>
</svg>
