<svg width="24" height="24" viewBox="0 0 24 24"  xmlns="http://www.w3.org/2000/svg">
<path fill-rule="evenodd" clip-rule="evenodd" d="M2.01911 3.48222C4.71126 0.83926 9.07635 0.83926 11.7685 3.48222C11.8481 3.56036 11.9252 3.64001 12 3.72103C12.0747 3.64011 12.1518 3.56047 12.2315 3.48222C14.9237 0.83926 19.2887 0.83926 21.9809 3.48222C24.673 6.12519 24.673 10.4105 21.9809 13.0535L12.6129 22.2504C12.2738 22.5832 11.7241 22.5832 11.3851 22.2503L2.01911 13.0535C-0.672976 10.4106 -0.673017 6.12517 2.01911 3.48222ZM10.6852 4.54573C8.59134 2.49012 5.19627 2.49012 3.10241 4.54573C1.00855 6.60133 1.00855 9.93438 3.10241 11.99L11.999 20.726L20.8976 11.99C22.9915 9.93438 22.9915 6.60133 20.8976 4.54573C18.8037 2.49012 15.4087 2.49012 13.3148 4.54573C13.0902 4.76624 12.8909 5.00184 12.7144 5.24957C12.3676 5.73642 11.6325 5.73637 11.2857 5.24965C11.109 5.00169 10.909 4.7654 10.6852 4.54573Z" fill="currentColor"/>
</svg>
