<svg width="24" height="24" viewBox="0 0 24 24"  xmlns="http://www.w3.org/2000/svg">
<path d="M19 19.9998C18.71 19.9998 18.44 19.9398 18.24 19.8498C17.53 19.4798 17.03 18.9698 16.53 17.4698C16.02 15.9098 15.06 15.1798 14.14 14.4698C13.35 13.8598 12.53 13.2298 11.82 11.9398C11.29 10.9798 11 9.92976 11 8.99976C11 6.19976 13.2 3.99976 16 3.99976C18.8 3.99976 21 6.19976 21 8.99976H23C23 5.06976 19.93 1.99976 16 1.99976C12.07 1.99976 9 5.06976 9 8.99976C9 10.2598 9.38 11.6498 10.07 12.8998C10.98 14.5498 12.05 15.3798 12.92 16.0498C13.73 16.6698 14.31 17.1198 14.63 18.0998C15.23 19.9198 16 20.9398 17.36 21.6498C17.87 21.8798 18.43 21.9998 19 21.9998C21.21 21.9998 23 20.2098 23 17.9998H21C21 19.0998 20.1 19.9998 19 19.9998ZM13.5 8.99976C13.5 10.3798 14.62 11.4998 16 11.4998C17.38 11.4998 18.5 10.3798 18.5 8.99976C18.5 7.61976 17.38 6.49976 16 6.49976C14.62 6.49976 13.5 7.61976 13.5 8.99976ZM9.14 3.42L7.72 2C5.73 3.99 4.5 5.74 4.5 8.78C4.5 11.82 5.73 13.57 7.72 15.56L9.13 14.15C7.51 12.52 6.5 11.27 6.5 8.78C6.5 6.29 7.51 5.04 9.14 3.42ZM5.64 2.42L4.22 1C2.23 2.99 1 5.74 1 8.78C1 11.82 2.23 14.57 4.22 16.56L5.63 15.15C4.01 13.52 3 11.27 3 8.78C3 6.29 4.01 4.04 5.64 2.42Z" fill="currentColor"/>
</svg>
