<svg width="24" height="24" viewBox="0 0 24 24"  xmlns="http://www.w3.org/2000/svg">
<path fill-rule="evenodd" clip-rule="evenodd" d="M2.25 9.00027C2.25 5.7537 3.56453 2.81508 5.68967 0.689941L6.75033 1.7506C4.89547 3.60546 3.75 6.16684 3.75 9.00027C3.75 11.8337 4.89547 14.3951 6.75033 16.2499L5.68967 17.3106C3.56453 15.1855 2.25 12.2468 2.25 9.00027ZM6.25 9.00027C6.25 4.65606 9.65579 1.25027 14 1.25027C18.3442 1.25027 21.75 4.65606 21.75 9.00027H20.25C20.25 5.48448 17.5158 2.75027 14 2.75027C10.4842 2.75027 7.75 5.48448 7.75 9.00027C7.75 10.1181 8.08998 11.3845 8.72661 12.5378C9.55842 14.046 10.5241 14.7988 11.3769 15.4555L11.4027 15.4752C12.1983 16.0841 12.9476 16.6575 13.3426 17.8665C13.8964 19.5457 14.5581 20.38 15.6876 20.9752C16.0943 21.1553 16.5421 21.2503 17 21.2503C18.7958 21.2503 20.25 19.7961 20.25 18.0003H21.75C21.75 20.6245 19.6242 22.7503 17 22.7503C16.3251 22.7503 15.6599 22.6082 15.0517 22.334L15.032 22.3251L15.0129 22.3151C13.4346 21.4911 12.5607 20.2856 11.9177 18.3351L11.917 18.3331C11.6765 17.5963 11.2783 17.2691 10.4641 16.6458L10.4624 16.6445C9.57532 15.9613 8.40122 15.0538 7.41326 13.2625C6.66996 11.9158 6.25 10.4023 6.25 9.00027ZM10.75 9.00027C10.75 7.20606 12.2058 5.75027 14 5.75027C15.7942 5.75027 17.25 7.20606 17.25 9.00027C17.25 10.7945 15.7942 12.2503 14 12.2503C12.2058 12.2503 10.75 10.7945 10.75 9.00027ZM14 7.25027C13.0342 7.25027 12.25 8.03449 12.25 9.00027C12.25 9.96606 13.0342 10.7503 14 10.7503C14.9658 10.7503 15.75 9.96606 15.75 9.00027C15.75 8.03449 14.9658 7.25027 14 7.25027Z" fill="currentColor"/>
</svg>
