<svg width="24" height="24" viewBox="0 0 24 24"  xmlns="http://www.w3.org/2000/svg">
<path fill-rule="evenodd" clip-rule="evenodd" d="M7.5 9.00024C7.5 4.65603 10.9058 1.25024 15.25 1.25024C19.5942 1.25024 23 4.65603 23 9.00024H21.5C21.5 5.48446 18.7658 2.75024 15.25 2.75024C11.7342 2.75024 9 5.48446 9 9.00024C9 10.1181 9.33998 11.3845 9.97661 12.5378C10.8084 14.046 11.7741 14.7987 12.6269 15.4555L12.6527 15.4752C13.4483 16.0841 14.1976 16.6575 14.5926 17.8665C15.1464 19.5456 15.8081 20.3799 16.9376 20.9752C17.3443 21.1553 17.7922 21.2502 18.25 21.2502C20.0458 21.2502 21.5 19.796 21.5 18.0002H23C23 20.6245 20.8742 22.7502 18.25 22.7502C17.5751 22.7502 16.9099 22.6082 16.3017 22.3339L16.282 22.3251L16.2629 22.3151C14.6846 21.4911 13.8107 20.2855 13.1677 18.3351L13.167 18.333C12.9265 17.5963 12.5283 17.269 11.7141 16.6458L11.7124 16.6445C10.8253 15.9613 9.65122 15.0538 8.66326 13.2624C7.91996 11.9158 7.5 10.4023 7.5 9.00024ZM12 9.00024C12 7.20603 13.4558 5.75024 15.25 5.75024C17.0442 5.75024 18.5 7.20603 18.5 9.00024C18.5 10.7945 17.0442 12.2502 15.25 12.2502C13.4558 12.2502 12 10.7945 12 9.00024ZM15.25 7.25024C14.2842 7.25024 13.5 8.03446 13.5 9.00024C13.5 9.96603 14.2842 10.7502 15.25 10.7502C16.2158 10.7502 17 9.96603 17 9.00024C17 8.03446 16.2158 7.25024 15.25 7.25024Z" fill="currentColor"/>
<path d="M4 9.31036C4 6.06378 4.8142 4.06453 6.93934 1.93939L8 3.00005C6.14514 4.85491 5.5 6.47693 5.5 9.31036C5.5 12.1438 6.64514 14.1451 8.5 16L7.43934 17.0607C5.3142 14.9355 4 12.5569 4 9.31036ZM1 9.31033C1 6.06376 2.31453 3.12514 4.43967 1L5.50033 2.06066C3.64547 3.91552 2.5 6.4769 2.5 9.31033C2.5 12.1438 3.64547 14.7051 5.50033 16.56L4.43967 17.6207C2.31453 15.4955 1 12.5569 1 9.31033Z" fill="currentColor"/>
</svg>
