<svg width="24" height="24" viewBox="0 0 24 24"  xmlns="http://www.w3.org/2000/svg">
<path fill-rule="evenodd" clip-rule="evenodd" d="M12 23C18.0751 23 23 18.0751 23 12C23 5.92487 18.0751 1 12 1C5.92487 1 1 5.92487 1 12C1 18.0751 5.92487 23 12 23ZM13.377 12.7857C13.377 12.5429 13.377 12.4214 14.0327 12.0571C14.1008 12.0067 14.1762 11.9535 14.2562 11.897C14.9468 11.4095 15.9999 10.6662 15.9999 9.14286C15.9999 7.07857 14.295 5.5 12.0655 5.5C10.6229 5.5 9.31139 6.22857 8.65565 7.32143L8.26813 7.96727C8.12184 8.21108 8.20803 8.52763 8.45772 8.66363L9.80827 9.39919C10.0437 9.52739 10.3383 9.44718 10.4762 9.21735L10.8852 8.53571C11.1475 8.17143 11.5409 7.92857 12.0655 7.92857C12.8524 7.92857 13.377 8.41429 13.377 9.14286C13.377 9.50714 13.2458 9.62857 12.5901 9.99286C11.8032 10.4786 10.754 11.2071 10.754 12.7857V13.5C10.754 13.7761 10.9779 14 11.254 14H12.877C13.1531 14 13.377 13.7761 13.377 13.5V12.7857ZM10.4999 17C10.4999 17.9 11.0999 18.5 11.9999 18.5C12.8999 18.5 13.4999 17.9 13.4999 17C13.4999 16.1 12.8999 15.5 11.9999 15.5C11.0999 15.5 10.4999 16.1 10.4999 17Z" fill="currentColor"/>
</svg>
