<svg width="24" height="24" viewBox="0 0 24 24"  xmlns="http://www.w3.org/2000/svg">
<path d="M14.0328 12.0571C13.377 12.4214 13.377 12.5429 13.377 12.7857V13.5C13.377 13.7761 13.1532 14 12.8771 14H11.2541C10.978 14 10.7541 13.7761 10.7541 13.5V12.7857C10.7541 11.2071 11.8033 10.4786 12.5902 9.99286C13.2459 9.62857 13.377 9.50714 13.377 9.14286C13.377 8.41429 12.8525 7.92857 12.0656 7.92857C11.541 7.92857 11.1475 8.17143 10.8852 8.53571L10.4762 9.21735C10.3383 9.44718 10.0437 9.52739 9.80836 9.39919L8.45781 8.66363C8.20812 8.52763 8.12193 8.21108 8.26822 7.96727L8.65574 7.32143C9.31148 6.22857 10.623 5.5 12.0656 5.5C14.2951 5.5 16 7.07857 16 9.14286C16 10.6662 14.9469 11.4095 14.2562 11.897C14.1763 11.9535 14.1008 12.0067 14.0328 12.0571ZM12 18.5C11.1 18.5 10.5 17.9 10.5 17C10.5 16.1 11.1 15.5 12 15.5C12.9 15.5 13.5 16.1 13.5 17C13.5 17.9 12.9 18.5 12 18.5Z" fill="currentColor"/>
<path fill-rule="evenodd" clip-rule="evenodd" d="M23 12C23 18.0751 18.0751 23 12 23C5.92487 23 1 18.0751 1 12C1 5.92487 5.92487 1 12 1C18.0751 1 23 5.92487 23 12ZM21.5 12C21.5 17.2467 17.2467 21.5 12 21.5C6.75329 21.5 2.5 17.2467 2.5 12C2.5 6.75329 6.75329 2.5 12 2.5C17.2467 2.5 21.5 6.75329 21.5 12Z" fill="currentColor"/>
</svg>
