<svg width="24" height="24" viewBox="0 0 24 24"  xmlns="http://www.w3.org/2000/svg">
<g clip-path="url(#clip0_865_5898)">
<path fill-rule="evenodd" clip-rule="evenodd" d="M3.09811 15.2253C2.70024 14.8422 2.66094 14.2375 3.01034 13.8746L15.6631 0.731614C16.0125 0.368682 16.6183 0.384977 17.0162 0.768012L23.4999 7.00992C23.8978 7.39296 23.9371 7.99768 23.5877 8.36062L10.9349 21.5036C10.5855 21.8665 9.9797 21.8502 9.58183 21.4672L3.09811 15.2253ZM14.1139 7.46521L16.7565 4.73314L19.7177 7.42512L16.989 10.2462C16.605 10.6431 15.972 10.6537 15.575 10.2697L14.1374 8.87922C13.7405 8.49525 13.7299 7.86218 14.1139 7.46521ZM21.606 9.7879L21.8073 9.57983C21.7876 9.63256 21.7528 9.68061 21.7032 9.71688L21.606 9.7879Z" fill="currentColor"/>
<path d="M3.43896 18.4372C3.81784 18.0319 4.45428 18.0125 4.85713 18.3941L6.46264 19.9146C6.87056 20.3009 6.88026 20.9474 6.48412 21.3457L4.85824 22.9808C4.67717 23.1629 4.43299 23.2684 4.17628 23.2754L1.17069 23.357C0.283275 23.3811 -0.193203 22.323 0.413004 21.6745L3.43896 18.4372Z" fill="currentColor"/>
</g>
<defs>
<clipPath id="clip0_865_5898">
<rect width="24" height="24" fill="currentColor"/>
</clipPath>
</defs>
</svg>
