<svg width="24" height="24" viewBox="0 0 24 24"  xmlns="http://www.w3.org/2000/svg">
<g clip-path="url(#clip0_865_5891)">
<path fill-rule="evenodd" clip-rule="evenodd" d="M3.36695 15.667C3.25204 15.7863 3.25565 15.9763 3.37501 16.0912L8.70606 21.2234C8.82543 21.3383 9.01534 21.3347 9.13025 21.2153L21.8915 7.95975C22.0064 7.84039 22.0028 7.65047 21.8834 7.53556L20.3043 6.0153L15.6232 10.8777C15.2402 11.2756 14.6071 11.2876 14.2092 10.9046L13.4888 10.211C13.091 9.82799 13.0789 9.19494 13.462 8.79707L18.143 3.93466L16.5524 2.40333C16.433 2.28841 16.2431 2.29202 16.1282 2.41139L3.36695 15.667ZM1.73149 15.203C1.34846 15.6009 1.36049 16.2339 1.75836 16.617L3.54611 18.338C3.50858 18.368 3.47274 18.4011 3.43896 18.4373L0.413004 21.6745C-0.193203 22.323 0.283275 23.3811 1.17069 23.357L4.17628 23.2754C4.43299 23.2684 4.67717 23.1629 4.85824 22.9808L6.48412 21.3457C6.51496 21.3147 6.54334 21.2822 6.56926 21.2484L8.24207 22.8589C8.63995 23.2419 9.273 23.2299 9.65603 22.832L23.5269 8.42374C23.91 8.02587 23.8979 7.39281 23.5001 7.00978L17.0164 0.767869C16.6185 0.384835 15.9854 0.396864 15.6024 0.794737L1.73149 15.203ZM3.9849 20.0498C4.09856 19.9282 4.28949 19.9224 4.41035 20.0369L4.83603 20.44C4.9584 20.5559 4.96131 20.7498 4.84247 20.8694L4.02025 21.6962C3.96592 21.7509 3.89267 21.7825 3.81566 21.7846L2.80372 21.8121C2.62624 21.8169 2.53094 21.6053 2.65218 21.4756L3.9849 20.0498Z" fill="currentColor"/>
</g>
<defs>
<clipPath id="clip0_865_5891">
<rect width="24" height="24" fill="currentColor"/>
</clipPath>
</defs>
</svg>
