<svg width="24" height="24" viewBox="0 0 24 24"  xmlns="http://www.w3.org/2000/svg">
<path d="M13.3496 2C18.7496 2 23.0996 6.35 23.0996 11.75C23.0996 17.15 18.7496 21.5 13.3496 21.5C10.9498 21.4999 8.84971 20.5999 7.0498 19.25L8.09961 18.0498C9.44952 19.2497 11.3997 19.9999 13.3496 20C17.8496 20 21.5996 16.25 21.5996 11.75C21.5996 7.25 17.8496 3.5 13.3496 3.5C8.84978 3.50022 5.09961 7.25013 5.09961 11.75V15.0498L4.34961 15.7998L0 11.5996L1.2002 10.4004L3.59961 12.9502V11.75C3.59961 6.35013 7.94979 2.00021 13.3496 2ZM13.2754 4.75684C17.2119 4.75718 20.4031 7.83601 20.4033 11.6338C20.4033 15.4317 17.212 18.5114 13.2754 18.5117C9.33847 18.5117 6.14648 15.4319 6.14648 11.6338C6.14667 7.8358 9.33858 4.75684 13.2754 4.75684ZM11.9004 12.9502L16.8506 15.3506L17.4502 14.1504L13.4004 12.0498V6.5H11.9004V12.9502Z" fill="currentColor"/>
</svg>
