<svg width="24" height="24" viewBox="0 0 24 24"  xmlns="http://www.w3.org/2000/svg">
<path d="M3.7499 12C3.7499 6.6 8.0999 2.25 13.4999 2.25C18.8999 2.25 23.2499 6.6 23.2499 12C23.2499 17.4 18.8999 21.75 13.4999 21.75C11.0999 21.75 8.9999 20.85 7.1999 19.5L8.2499 18.3C9.5999 19.5 11.5499 20.25 13.4999 20.25C17.9999 20.25 21.7499 16.5 21.7499 12C21.7499 7.5 17.9999 3.75 13.4999 3.75C8.9999 3.75 5.2499 7.5 5.2499 12V13.2L7.6499 10.65L8.8499 11.7L4.4999 16.05L0.149902 11.85L1.3499 10.65L3.7499 13.2V12ZM12 13.2V6.75H13.5V12.3L17.55 14.4L16.95 15.6L12 13.2Z" fill="currentColor"/>
</svg>
