<svg width="24" height="24" viewBox="0 0 24 24"  xmlns="http://www.w3.org/2000/svg">
<g clip-path="url(#clip0_865_4402)">
<path d="M16.5001 23.9998H19.5001C20.4001 23.9998 21.0001 23.3998 21.0001 22.4998V11.9998H22.5001C22.9501 11.9998 23.4001 11.8498 23.7001 11.5498C24.3001 10.9498 24.1501 10.0498 23.5501 9.4498L13.0501 0.449805C12.4501 -0.000195384 11.7001 -0.000195384 11.1001 0.449805L0.600075 9.4498C7.48038e-05 10.0498 -0.149925 10.9498 0.450075 11.5498C0.600075 11.8498 1.05007 11.9998 1.50007 11.9998C1.80007 11.9998 3.00007 11.9998 3.00007 11.9998V22.4998C3.00007 23.3998 3.60007 23.9998 4.50007 23.9998H7.50008C8.40007 23.9998 9.00008 23.3998 9.00008 22.4998V17.9998H15.0001V22.4998C15.0001 23.3998 15.6001 23.9998 16.5001 23.9998Z" fill="currentColor"/>
</g>
<defs>
<clipPath id="clip0_865_4402">
<rect width="24" height="24" fill="currentColor"/>
</clipPath>
</defs>
</svg>
