<svg width="24" height="24" viewBox="0 0 24 24"  xmlns="http://www.w3.org/2000/svg">
<g clip-path="url(#clip0_865_4396)">
<path d="M12.4495 0.112676C12.1498 -0.0375587 11.8502 -0.0375587 11.5505 0.112676L6.00675 4.61972V2.21596C6.00675 1.76526 5.70709 1.46479 5.2576 1.46479C4.80811 1.46479 4.50844 1.76526 4.50844 2.21596V5.8216L0.313172 9.12676C0.0135105 9.42723 -0.136321 9.87793 0.163341 10.1784C0.463004 10.4789 0.912497 10.6291 1.21216 10.3286L5.70709 6.723L12 1.61502L22.7878 10.3286C23.0875 10.6291 23.537 10.4789 23.8367 10.1784C24.1363 9.87793 23.9865 9.42723 23.6868 9.12676L12.4495 0.112676ZM4.50844 11.23C4.50844 10.7793 4.20878 10.4789 3.75929 10.4789C3.30979 10.4789 3.01013 10.7793 3.01013 11.23V23.2488C3.01013 23.6995 3.30979 24 3.75929 24H9.75253C10.202 24 10.5017 23.6995 10.5017 23.2488V17.9906H13.4983V23.2488C13.4983 23.6995 13.798 24 14.2475 24H20.2407C20.6902 24 20.9899 23.6995 20.9899 23.2488V11.23C20.9899 10.7793 20.6902 10.4789 20.2407 10.4789C19.7912 10.4789 19.4916 10.7793 19.4916 11.23V22.4977H14.9966V17.2394C14.9966 16.7887 14.697 16.4883 14.2475 16.4883H9.75253C9.30304 16.4883 9.00338 16.7887 9.00338 17.2394V22.4977H4.50844V11.23ZM9.00338 8.22535C9.00338 7.77465 9.30304 7.47418 9.75253 7.47418H14.2475C14.697 7.47418 14.9966 7.77465 14.9966 8.22535V12.7324C14.9966 13.1831 14.697 13.4836 14.2475 13.4836H9.75253C9.30304 13.4836 9.00338 13.1831 9.00338 12.7324V8.22535ZM13.4983 8.97653H10.5017V11.9812H13.4983V8.97653Z" fill="currentColor"/>
</g>
<defs>
<clipPath id="clip0_865_4396">
<rect width="24" height="24" fill="currentColor"/>
</clipPath>
</defs>
</svg>
