<svg width="24" height="24" viewBox="0 0 24 24"  xmlns="http://www.w3.org/2000/svg">
<path d="M15.5001 11.5C15.5001 13.433 13.9331 15 12.0001 15C10.0671 15 8.5001 13.433 8.5001 11.5C8.5001 9.567 10.0671 8 12.0001 8C13.9331 8 15.5001 9.567 15.5001 11.5Z" fill="currentColor"/>
<path fill-rule="evenodd" clip-rule="evenodd" d="M18.9045 21.5058C19.0099 22.048 18.5524 22.5 18.0001 22.5H6.0001C5.44782 22.5 4.99028 22.048 5.09575 21.5058C5.64836 18.6653 8.52923 16.5 12.0001 16.5C15.471 16.5 18.3518 18.6653 18.9045 21.5058ZM12.0001 4.51401L20.0196 10.7389C20.5799 11.1738 21.3762 11.1239 21.8778 10.6223C22.4746 10.0255 22.4155 9.04117 21.7515 8.52005L13.4067 1.97064C12.5702 1.34312 11.43 1.34312 10.5935 1.97064L2.24869 8.52005C1.58471 9.04117 1.5256 10.0255 2.12244 10.6223C2.62396 11.1239 3.42031 11.1738 3.98059 10.7389L12.0001 4.51401Z" fill="currentColor"/>
</svg>
