<svg width="24" height="24" viewBox="0 0 24 24"  xmlns="http://www.w3.org/2000/svg">
<path fill-rule="evenodd" clip-rule="evenodd" d="M12 13.5C13.1046 13.5 14 12.6046 14 11.5C14 10.3954 13.1046 9.5 12 9.5C10.8954 9.5 10 10.3954 10 11.5C10 12.6046 10.8954 13.5 12 13.5ZM12 15C13.933 15 15.5 13.433 15.5 11.5C15.5 9.567 13.933 8 12 8C10.067 8 8.5 9.567 8.5 11.5C8.5 13.433 10.067 15 12 15ZM18.9846 21.5058C19.0913 22.048 18.6284 22.5 18.0697 22.5H5.93027C5.37157 22.5 4.90871 22.048 5.0154 21.5058C5.57444 18.6653 8.48879 16.5 12 16.5C15.5112 16.5 18.4256 18.6653 18.9846 21.5058ZM6.99119 21H17.0088C16.2797 19.2522 14.3124 18 12 18C9.68755 18 7.72028 19.2522 6.99119 21ZM12.1515 3.28381C12.0602 3.21652 11.9398 3.21652 11.8485 3.28381L2.25945 10.3485C1.89258 10.6188 1.39169 10.5177 1.14068 10.1226C0.88967 9.72761 0.983587 9.18826 1.35045 8.91797L10.9395 1.85327C11.5788 1.38224 12.4212 1.38224 13.0605 1.85327L22.6495 8.91797C23.0164 9.18826 23.1103 9.72761 22.8593 10.1226C22.6083 10.5177 22.1074 10.6188 21.7406 10.3485L12.1515 3.28381Z" fill="currentColor"/>
</svg>
