<svg width="24" height="24" viewBox="0 0 24 24"  xmlns="http://www.w3.org/2000/svg">
<g clip-path="url(#clip0_865_4407)">
<path fill-rule="evenodd" clip-rule="evenodd" d="M14.8085 9.19149V5.10638H9.19149V9.19149H5.10638V14.8085H9.19149V18.8936H14.8085V14.8085H18.8936V9.19149H14.8085ZM10.7234 10.7234V6.6383H13.2766V10.7234H17.3617V13.2766H13.2766V17.3617H10.7234V13.2766H6.6383V10.7234H10.7234ZM12 0C5.37258 0 0 5.37258 0 12C0 18.6274 5.37258 24 12 24C18.6274 24 24 18.6274 24 12C24 5.37258 18.6274 0 12 0ZM1.53191 12C1.53191 6.21864 6.21864 1.53191 12 1.53191C17.7814 1.53191 22.4681 6.21864 22.4681 12C22.4681 17.7814 17.7814 22.4681 12 22.4681C6.21864 22.4681 1.53191 17.7814 1.53191 12Z" fill="currentColor"/>
</g>
<defs>
<clipPath id="clip0_865_4407">
<rect width="24" height="24" fill="currentColor"/>
</clipPath>
</defs>
</svg>
