<svg width="24" height="24" viewBox="0 0 24 24"  xmlns="http://www.w3.org/2000/svg">
<g clip-path="url(#clip0_865_4418)">
<path fill-rule="evenodd" clip-rule="evenodd" d="M2.25 3C2.25 2.58579 2.58579 2.25 3 2.25H21C21.4142 2.25 21.75 2.58579 21.75 3V21C21.75 21.4142 21.4142 21.75 21 21.75H3C2.58579 21.75 2.25 21.4142 2.25 21V3ZM3 0.75C1.75735 0.75 0.75 1.75735 0.75 3V21C0.75 22.2426 1.75735 23.25 3 23.25H21C22.2426 23.25 23.25 22.2426 23.25 21V3C23.25 1.75735 22.2426 0.75 21 0.75H3ZM8.25 6C8.25 5.58579 7.91421 5.25 7.5 5.25C7.08579 5.25 6.75 5.58579 6.75 6V18C6.75 18.4142 7.08579 18.75 7.5 18.75C7.91421 18.75 8.25 18.4142 8.25 18V12.75H15.75V18C15.75 18.4142 16.0858 18.75 16.5 18.75C16.9142 18.75 17.25 18.4142 17.25 18V6C17.25 5.58579 16.9142 5.25 16.5 5.25C16.0858 5.25 15.75 5.58579 15.75 6V11.25H8.25V6Z" fill="currentColor"/>
</g>
<defs>
<clipPath id="clip0_865_4418">
<rect width="24" height="24" fill="currentColor"/>
</clipPath>
</defs>
</svg>
