<svg width="24" height="24" viewBox="0 0 24 24"  xmlns="http://www.w3.org/2000/svg">
<path fill-rule="evenodd" clip-rule="evenodd" d="M10.9393 1.93933C11.2206 1.65804 11.6022 1.5 12 1.5C12.3978 1.5 12.7794 1.65804 13.0607 1.93933C13.342 2.22064 13.5 2.60217 13.5 3V7.5H10.5V3C10.5 2.60217 10.658 2.22064 10.9393 1.93933ZM12 0C11.2044 0 10.4413 0.316071 9.87868 0.878679C9.31606 1.44129 9 2.20436 9 3V8.25C9 8.66421 9.33579 9 9.75 9H14.25C14.6642 9 15 8.66421 15 8.25V3C15 2.20436 14.6839 1.44129 14.1213 0.878679C13.5587 0.316071 12.7956 0 12 0ZM2.25 4.5C1.65327 4.5 1.08097 4.73706 0.65901 5.15901C0.237053 5.58096 0 6.15327 0 6.75V20.25C0 20.8467 0.237053 21.4191 0.65901 21.8411C1.08097 22.263 1.65325 22.5 2.25 22.5H21.75C22.3467 22.5 22.9191 22.263 23.3411 21.8411C23.763 21.4191 24 20.8467 24 20.25V6.75C24 6.15327 23.763 5.58096 23.3411 5.15901C22.9191 4.73706 22.3467 4.5 21.75 4.5H17.25C16.8358 4.5 16.5 4.83579 16.5 5.25C16.5 5.66421 16.8358 6 17.25 6H21.75C21.9489 6 22.1397 6.07902 22.2804 6.21968C22.4209 6.36031 22.5 6.55108 22.5 6.75V20.25C22.5 20.4489 22.4209 20.6397 22.2804 20.7804C22.1397 20.9209 21.9489 21 21.75 21H2.25C2.05108 21 1.86033 20.9209 1.71968 20.7804C1.57902 20.6397 1.5 20.4489 1.5 20.25V6.75C1.5 6.55108 1.57902 6.36031 1.71968 6.21968C1.86032 6.07902 2.05108 6 2.25 6H6.75C7.16421 6 7.5 5.66421 7.5 5.25C7.5 4.83579 7.16421 4.5 6.75 4.5H2.25ZM13.5 12.75C13.5 12.3358 13.8358 12 14.25 12H18.75C19.1642 12 19.5 12.3358 19.5 12.75C19.5 13.1642 19.1642 13.5 18.75 13.5H14.25C13.8358 13.5 13.5 13.1642 13.5 12.75ZM13.5 17.25C13.5 16.8358 13.8358 16.5 14.25 16.5H18.75C19.1642 16.5 19.5 16.8358 19.5 17.25C19.5 17.6642 19.1642 18 18.75 18H14.25C13.8358 18 13.5 17.6642 13.5 17.25ZM4.5 12.75C4.5 12.3358 4.83579 12 5.25 12H9.75C10.1642 12 10.5 12.3358 10.5 12.75V17.25C10.5 17.6642 10.1642 18 9.75 18H5.25C4.83579 18 4.5 17.6642 4.5 17.25V12.75ZM6 13.5V16.5H9V13.5H6Z" fill="currentColor"/>
</svg>
