<svg width="24" height="24" viewBox="0 0 24 24"  xmlns="http://www.w3.org/2000/svg">
<g clip-path="url(#clip0_865_3278)">
<path d="M12 6.75C12 7.99264 10.9926 9 9.75 9C8.50736 9 7.5 7.99264 7.5 6.75C7.5 5.50736 8.50736 4.5 9.75 4.5C10.9926 4.5 12 5.50736 12 6.75Z" fill="currentColor"/>
<path fill-rule="evenodd" clip-rule="evenodd" d="M0 21.75C0 22.9922 1.00779 24 2.25 24H21.75C22.9922 24 24 22.9922 24 21.75V2.25C24 1.00779 22.9922 0 21.75 0H2.25C1.00779 0 0 1.00779 0 2.25V21.75ZM2.25 1.5C1.83621 1.5 1.5 1.83621 1.5 2.25V16.9393L6.21967 12.2197C6.51256 11.9268 6.98744 11.9268 7.28033 12.2197L11.1878 16.1272L16.6643 9.28148C16.7976 9.1149 16.9955 9.01295 17.2085 9.00115C17.4215 8.98935 17.6295 9.06882 17.7803 9.21967L22.5 13.9393V2.25C22.5 1.83621 22.1638 1.5 21.75 1.5H2.25ZM22.5 21.75V16.0607L17.3122 10.8729L11.8357 17.7185C11.7024 17.8851 11.5045 17.9871 11.2915 17.9989C11.0785 18.0107 10.8705 17.9312 10.7197 17.7803L6.75 13.8107L1.5 19.0607V21.75C1.5 22.1638 1.83621 22.5 2.25 22.5H21.75C22.1638 22.5 22.5 22.1638 22.5 21.75Z" fill="currentColor"/>
</g>
<defs>
<clipPath id="clip0_865_3278">
<rect width="24" height="24" fill="currentColor"/>
</clipPath>
</defs>
</svg>
