<svg width="24" height="24" viewBox="0 0 24 24"  xmlns="http://www.w3.org/2000/svg">
<g clip-path="url(#clip0_865_3284)">
<path fill-rule="evenodd" clip-rule="evenodd" d="M21 21V15.6213L17.3744 11.9957L11.3744 19.4957L6.75 14.8713L3 18.6213V21H21ZM24.3107 16.8107C24.2156 16.9057 24.1111 16.9853 24 17.0495V22.4C24 23.2832 23.2832 24 22.4 24H1.6C0.7168 24 2.38419e-07 23.2832 2.38419e-07 22.4V20.0495C-0.111058 19.9853 -0.215647 19.9057 -0.31066 19.8107C-0.896447 19.2249 -0.896447 18.2751 -0.31066 17.6893L2.38419e-07 17.3787V1.6C2.38419e-07 0.7168 0.7168 0 1.6 0H22.4C23.2832 0 24 0.7168 24 1.6V14.3787L24.3107 14.6893C24.8964 15.2751 24.8964 16.2249 24.3107 16.8107ZM3 3V14.3787L6.75 10.6287L11.1256 15.0043L17.1256 7.5043L21 11.3787V3H3ZM12 6.75C12 7.99264 10.9926 9 9.75 9C8.50736 9 7.5 7.99264 7.5 6.75C7.5 5.50736 8.50736 4.5 9.75 4.5C10.9926 4.5 12 5.50736 12 6.75Z" fill="currentColor"/>
</g>
<defs>
<clipPath id="clip0_865_3284">
<rect width="24" height="24" fill="currentColor"/>
</clipPath>
</defs>
</svg>
