<svg width="24" height="24" viewBox="0 0 24 24"  xmlns="http://www.w3.org/2000/svg">
<path fill-rule="evenodd" clip-rule="evenodd" d="M9.75002 0.999756C9.33581 0.999756 9.00002 1.33555 9.00002 1.74976V10.5H6.75002C6.45573 10.5 6.18864 10.6721 6.06704 10.9401C5.94543 11.2081 5.9918 11.5224 6.18558 11.7439L11.4356 17.7439C11.578 17.9067 11.7837 18 12 18C12.2163 18 12.422 17.9067 12.5645 17.7439L17.8145 11.7439C18.0083 11.5224 18.0546 11.2081 17.933 10.9401C17.8115 10.6721 17.5443 10.5 17.25 10.5H15V1.74976C15 1.33555 14.6642 0.999756 14.25 0.999756H9.75002ZM10.5 11.25V2.49976H13.5V11.25C13.5 11.6642 13.8358 12 14.25 12H15.5972L12 16.111L8.40284 12H9.75002C10.1642 12 10.5 11.6642 10.5 11.25ZM0.8 17C1.24183 17 1.6 17.3358 1.6 17.75V22.25C1.6 22.388 1.71939 22.5 1.86667 22.5H22.1333C22.2806 22.5 22.4 22.388 22.4 22.25V17.75C22.4 17.3358 22.7582 17 23.2 17C23.6418 17 24 17.3358 24 17.75V22.25C24 23.2165 23.1643 24 22.1333 24H1.86667C0.835735 24 0 23.2165 0 22.25V17.75C0 17.3358 0.358172 17 0.8 17Z" fill="currentColor"/>
</svg>
