<svg width="24" height="24" viewBox="0 0 24 24"  xmlns="http://www.w3.org/2000/svg">
<path fill-rule="evenodd" clip-rule="evenodd" d="M3 0.75C3 0.335787 3.33579 0 3.75 0H20.25C20.6642 0 21 0.335787 21 0.75C21 1.16421 20.6642 1.5 20.25 1.5H3.75C3.33579 1.5 3 1.16421 3 0.75ZM6.75 9C7.16421 9 7.5 9.33579 7.5 9.75V12H16.5V9.75C16.5 9.33579 16.8358 9 17.25 9C17.6642 9 18 9.33579 18 9.75V12.75C18 13.1642 17.6642 13.5 17.25 13.5H6.75C6.33579 13.5 6 13.1642 6 12.75V9.75C6 9.33579 6.33579 9 6.75 9ZM0.75 4.5C0.335787 4.5 0 4.83579 0 5.25V21.75C0 22.1642 0.335787 22.5 0.75 22.5H23.25C23.6642 22.5 24 22.1642 24 21.75V5.25C24 4.83579 23.6642 4.5 23.25 4.5H0.75ZM1.5 21V6H22.5V21H1.5Z" fill="currentColor"/>
</svg>
