<svg width="24" height="24" viewBox="0 0 24 24"  xmlns="http://www.w3.org/2000/svg">
<g clip-path="url(#clip0_865_4591)">
<path d="M21.75 0H2.25C1.05 0 0 1.05 0 2.25V21.75C0 22.95 1.05 24 2.25 24H21.75C22.95 24 24 22.95 24 21.75V2.25C24 1.05 22.95 0 21.75 0ZM22.5 21.75C22.5 22.2 22.2 22.5 21.75 22.5H2.25C1.8 22.5 1.5 22.2 1.5 21.75V15H7.5V18.75C7.5 19.2 7.8 19.5 8.25 19.5H15.75C16.2 19.5 16.5 19.2 16.5 18.75V15H22.5V21.75ZM22.5 13.5H15.75C15.3 13.5 15 13.8 15 14.25V18H9V14.25C9 13.8 8.7 13.5 8.25 13.5H1.5V2.25C1.5 1.8 1.8 1.5 2.25 1.5H21.75C22.2 1.5 22.5 1.8 22.5 2.25V13.5Z" fill="currentColor"/>
</g>
<defs>
<clipPath id="clip0_865_4591">
<rect width="24" height="24" fill="currentColor"/>
</clipPath>
</defs>
</svg>
