<svg width="24" height="24" viewBox="0 0 24 24"  xmlns="http://www.w3.org/2000/svg">
<g clip-path="url(#clip0_865_1698)">
<path fill-rule="evenodd" clip-rule="evenodd" d="M4.15572 0H4.82238C5.82238 0 6.65572 0.5 7.15572 1.16667C8.32238 2.83333 9.82238 5 9.82238 6.5C9.98905 8 9.32238 9 8.65572 9.66667C8.98905 10.5 9.65572 11.5 10.9891 12.8333C12.0099 14 13.0307 14.6563 13.6049 15.0254C13.687 15.0781 13.7599 15.125 13.8224 15.1667C14.3224 14.6667 14.9891 14.1667 15.9891 14H16.8224C18.4891 14 19.9891 14.8333 22.4891 16.8333C23.3224 17.5 23.6557 18.6667 23.3224 20C22.8224 21.8333 21.3224 23.6667 18.9891 24H18.3224C15.1557 24 10.1557 21.1667 6.65572 17.5C2.98905 13.5 0.822384 9.83333 0.155717 6.33333C-0.51095 3.16667 0.989051 0.833333 4.15572 0ZM5.82238 2.16667C5.65572 2 5.32238 1.66667 4.82238 1.66667H4.48905C4.45891 1.67671 4.41968 1.68858 4.37276 1.70277C3.64129 1.92401 1.03929 2.71099 1.82238 6C2.48905 9.66667 4.98905 13.1667 7.98905 16.3333C11.3224 19.8333 15.8224 22.3333 18.4891 22.3333H18.9891C21.4891 21.8333 22.4891 18.8333 21.6557 18.1667C19.3224 16.3333 18.1557 15.6667 16.989 15.6667H16.4891C15.1557 15.8333 14.6557 17.1667 14.6557 17.1667C14.6557 17.1667 12.3224 16.6667 9.82238 14C6.98905 11.1667 6.65572 9.16667 6.65572 9.16667C7.65572 8.5 8.15572 7.83333 8.15572 6.66667C8.15572 5.5 6.32238 2.83333 5.82238 2.16667Z" fill="currentColor"/>
<path d="M22.822 2.33377L15.9892 9.16667H20.4888V10.8333H12.9888V3.33333H14.6555V7.83366L21.4887 1.00043L22.822 2.33377Z" fill="currentColor"/>
</g>
<defs>
<clipPath id="clip0_865_1698">
<rect width="24" height="24" fill="currentColor"/>
</clipPath>
</defs>
</svg>
