<svg width="24" height="24" viewBox="0 0 24 24"  xmlns="http://www.w3.org/2000/svg">
<g clip-path="url(#clip0_865_4568)">
<path fill-rule="evenodd" clip-rule="evenodd" d="M2.25 1.5C1.83621 1.5 1.5 1.83621 1.5 2.25V18H22.5V2.25C22.5 1.83621 22.1639 1.5 21.75 1.5H18.75C18.3358 1.5 18 1.16421 18 0.75C18 0.335787 18.3358 0 18.75 0H21.75C22.9921 0 24 1.00779 24 2.25V21.75C24 22.9921 22.9921 24 21.75 24H2.25C1.00779 24 0 22.9921 0 21.75V2.25C0 1.00779 1.00779 0 2.25 0H5.25C5.66421 0 6 0.335787 6 0.75C6 1.16421 5.66421 1.5 5.25 1.5H2.25ZM1.5 19.5V21.75C1.5 22.1639 1.83621 22.5 2.25 22.5H21.75C22.1639 22.5 22.5 22.1639 22.5 21.75V19.5H1.5ZM9.00002 0.75C9.00002 0.335787 9.33581 0 9.75002 0H14.25C14.6642 0 15 0.335787 15 0.75V7.5H17.25C17.5443 7.5 17.8115 7.67211 17.933 7.94008C18.0546 8.20807 18.0083 8.52242 17.8145 8.74387L12.5645 14.7439C12.422 14.9066 12.2163 15 12 15C11.7837 15 11.578 14.9066 11.4356 14.7439L6.18558 8.74387C5.9918 8.52242 5.94543 8.20807 6.06704 7.94008C6.18864 7.67211 6.45573 7.5 6.75002 7.5H9.00002V0.75ZM10.5 1.5V8.25C10.5 8.66421 10.1642 9 9.75002 9H8.40284L12 13.111L15.5972 9H14.25C13.8358 9 13.5 8.66421 13.5 8.25V1.5H10.5Z" fill="currentColor"/>
</g>
<defs>
<clipPath id="clip0_865_4568">
<rect width="24" height="24" fill="currentColor"/>
</clipPath>
</defs>
</svg>
