<svg width="24" height="24" viewBox="0 0 24 24"  xmlns="http://www.w3.org/2000/svg">
<path d="M22.9431 6.46291C22.9065 6.37445 22.8522 6.29158 22.7803 6.21967C22.6339 6.07322 22.4419 6 22.25 6H15.25C14.8358 6 14.5 6.33579 14.5 6.75C14.5 7.16421 14.8358 7.5 15.25 7.5H20.4393L13.75 15.1893L8.28033 10.7197C7.98744 10.4268 7.51256 10.4268 7.21967 10.7197L1.21967 16.7197C0.926777 17.0126 0.926777 17.4874 1.21967 17.7803C1.51256 18.0732 1.98744 18.0732 2.28033 17.7803L7.75 12.3107L13.2197 16.7803C13.5126 17.0732 13.9874 17.0732 14.2803 16.7803L21.5 8.56066V13.75C21.5 14.1642 21.8358 14.5 22.25 14.5C22.6642 14.5 23 14.1642 23 13.75V6.75C23 6.64831 22.9798 6.55134 22.9431 6.46291Z" fill="currentColor"/>
</svg>
