<svg width="24" height="24" viewBox="0 0 24 24"  xmlns="http://www.w3.org/2000/svg">
<path d="M18.75 18C16.0395 18 13.89 16.4265 12 14.7675C10.11 16.4265 7.9605 18 5.25 18C2.355 18 0 15.645 0 12.75C0 9.855 2.355 7.5 5.25 7.5C7.9605 7.5 10.11 9.0735 12 10.7325C13.89 9.0735 16.0395 7.5 18.75 7.5C21.645 7.5 24 9.855 24 12.75C24 15.645 21.645 18 18.75 18ZM14.2515 12.75C15.711 14.007 17.1555 15 18.75 15C19.9905 15 21 13.9905 21 12.75C21 11.5095 19.9905 10.5 18.75 10.5C17.1555 10.5 15.711 11.493 14.2515 12.75ZM5.25 10.5C4.0095 10.5 3 11.5095 3 12.75C3 13.9905 4.0095 15 5.25 15C6.8445 15 8.289 14.007 9.7485 12.75C8.289 11.493 6.8445 10.5 5.25 10.5Z" fill="currentColor"/>
</svg>
