<svg width="24" height="24" viewBox="0 0 24 24"  xmlns="http://www.w3.org/2000/svg">
<path fill-rule="evenodd" clip-rule="evenodd" d="M1.54154 8.40932C2.52337 7.47162 3.84837 6.9502 5.22353 6.9502C7.20532 6.9502 8.85071 8.01312 10.2849 9.28532L10.813 9.75374L9.87611 10.8099L9.34805 10.3414C7.99032 9.13706 6.67665 8.36196 5.22353 8.36196C4.20238 8.36196 3.22922 8.74968 2.5166 9.43027C1.80509 10.1098 1.41176 11.0243 1.41176 11.9707C1.41176 12.917 1.80509 13.8316 2.5166 14.5111C3.22922 15.1917 4.20238 15.5794 5.22353 15.5794C6.33695 15.5794 7.36897 15.1264 8.40676 14.3673C9.45352 13.6015 10.4454 12.571 11.4907 11.4819L11.515 11.4566C12.533 10.3959 13.6039 9.2802 14.7597 8.43468C15.9337 7.57588 17.2546 6.9502 18.7765 6.9502C20.1516 6.9502 21.4766 7.47162 22.4585 8.40932C23.4414 9.34808 24 10.6284 24 11.9707C24 13.3129 23.4414 14.5933 22.4585 15.532C21.4766 16.4697 20.1516 16.9912 18.7765 16.9912C16.7925 16.9912 15.1471 15.9284 13.7147 14.6557L13.187 14.1868L14.1247 13.1315L14.6524 13.6003C16.0073 14.8042 17.321 15.5794 18.7765 15.5794C19.7976 15.5794 20.7708 15.1917 21.4834 14.5111C22.1949 13.8316 22.5882 12.917 22.5882 11.9707C22.5882 11.0243 22.1949 10.1098 21.4834 9.43027C20.7708 8.74968 19.7976 8.36196 18.7765 8.36196C17.6631 8.36196 16.631 8.81493 15.5932 9.57411C14.5465 10.3398 13.5546 11.3704 12.5093 12.4595L12.485 12.4848C11.467 13.5454 10.3961 14.6612 9.2403 15.5067C8.06633 16.3655 6.74541 16.9912 5.22353 16.9912C3.84837 16.9912 2.52337 16.4697 1.54154 15.532C0.558605 14.5933 0 13.3129 0 11.9707C0 10.6284 0.558606 9.34808 1.54154 8.40932Z" fill="currentColor"/>
</svg>
