<svg width="24" height="24" viewBox="0 0 24 24"  xmlns="http://www.w3.org/2000/svg">
<path fill-rule="evenodd" clip-rule="evenodd" d="M12 23C18.0751 23 23 18.0751 23 12C23 5.92487 18.0751 1 12 1C5.92487 1 1 5.92487 1 12C1 18.0751 5.92487 23 12 23ZM10.5 7.5C10.5 8.4 11.1 9 12 9C12.9 9 13.5 8.4 13.5 7.5C13.5 6.6 12.9 6 12 6C11.1 6 10.5 6.6 10.5 7.5ZM11 10.5C10.7239 10.5 10.5 10.7239 10.5 11V17.5C10.5 17.7761 10.7239 18 11 18H13C13.2761 18 13.5 17.7761 13.5 17.5V11C13.5 10.7239 13.2761 10.5 13 10.5H11Z" fill="currentColor"/>
</svg>
