<svg width="24" height="24" viewBox="0 0 24 24"  xmlns="http://www.w3.org/2000/svg">
<path d="M12 9C11.1 9 10.5 8.4 10.5 7.5C10.5 6.6 11.1 6 12 6C12.9 6 13.5 6.6 13.5 7.5C13.5 8.4 12.9 9 12 9ZM10.5 11C10.5 10.7239 10.7239 10.5 11 10.5H13C13.2761 10.5 13.5 10.7239 13.5 11V17.5C13.5 17.7761 13.2761 18 13 18H11C10.7239 18 10.5 17.7761 10.5 17.5V11Z" fill="currentColor"/>
<path fill-rule="evenodd" clip-rule="evenodd" d="M23 12C23 18.0751 18.0751 23 12 23C5.92487 23 1 18.0751 1 12C1 5.92487 5.92487 1 12 1C18.0751 1 23 5.92487 23 12ZM21.5 12C21.5 17.2467 17.2467 21.5 12 21.5C6.75329 21.5 2.5 17.2467 2.5 12C2.5 6.75329 6.75329 2.5 12 2.5C17.2467 2.5 21.5 6.75329 21.5 12Z" fill="currentColor"/>
</svg>
