<svg width="24" height="24" viewBox="0 0 24 24" fill="none" xmlns="http://www.w3.org/2000/svg">
<path d="M12.0037 1.0021C7.41121 1.0021 6.06757 1.00681 5.80671 1.02829C5.05426 1.05842 4.31621 1.24408 3.63908 1.57357C3.16559 1.80372 2.73742 2.11725 2.37507 2.49914C1.67408 3.23113 1.22723 4.16923 1.10058 5.17476C1.02619 5.68967 1.00471 5.79443 1 8.42238C1 9.29871 1 10.4516 1 11.9979C1 16.5875 1.00524 17.93 1.02724 18.1904C1.05839 18.9268 1.23649 19.6495 1.55107 20.316C1.84477 20.9177 2.26535 21.4486 2.78387 21.8723C3.30239 22.2959 3.90653 22.6022 4.55474 22.7701C5.07847 22.8948 5.61372 22.9651 6.15191 22.9796C6.42431 22.9916 9.20115 23 11.9796 23C14.758 23 17.5364 22.9969 17.802 22.9832C18.3599 22.9727 18.915 22.8999 19.4568 22.7664C20.1063 22.5998 20.7116 22.2934 21.2304 21.8687C21.7492 21.4439 22.169 20.911 22.4605 20.3071C22.7702 19.6537 22.9465 18.9452 22.979 18.2229C22.9937 18.0332 23 15.0109 23 11.9927C23 8.97448 22.9932 5.95733 22.9785 5.76771C22.9468 5.03736 22.7668 4.32109 22.4495 3.66252C22.2172 3.17813 21.8975 2.74076 21.5065 2.37238C20.7725 1.67346 19.8338 1.22794 18.8282 1.1011C18.3143 1.02671 18.2122 1.00471 15.5804 1L12.0037 1.0021Z" fill="url(#paint0_radial_865_981)"/>
<path d="M12.0037 1.0021C7.41121 1.0021 6.06757 1.00681 5.80671 1.02829C5.05426 1.05842 4.31621 1.24408 3.63908 1.57357C3.16559 1.80372 2.73742 2.11725 2.37507 2.49914C1.67408 3.23113 1.22723 4.16923 1.10058 5.17476C1.02619 5.68967 1.00471 5.79443 1 8.42238C1 9.29871 1 10.4516 1 11.9979C1 16.5875 1.00524 17.93 1.02724 18.1904C1.05839 18.9268 1.23649 19.6495 1.55107 20.316C1.84477 20.9177 2.26535 21.4486 2.78387 21.8723C3.30239 22.2959 3.90653 22.6022 4.55474 22.7701C5.07847 22.8948 5.61372 22.9651 6.15191 22.9796C6.42431 22.9916 9.20115 23 11.9796 23C14.758 23 17.5364 22.9969 17.802 22.9832C18.3599 22.9727 18.915 22.8999 19.4568 22.7664C20.1063 22.5998 20.7116 22.2934 21.2304 21.8687C21.7492 21.4439 22.169 20.911 22.4605 20.3071C22.7702 19.6537 22.9465 18.9452 22.979 18.2229C22.9937 18.0332 23 15.0109 23 11.9927C23 8.97448 22.9932 5.95733 22.9785 5.76771C22.9468 5.03736 22.7668 4.32109 22.4495 3.66252C22.2172 3.17813 21.8975 2.74076 21.5065 2.37238C20.7725 1.67346 19.8338 1.22794 18.8282 1.1011C18.3143 1.02671 18.2122 1.00471 15.5804 1L12.0037 1.0021Z" fill="url(#paint1_radial_865_981)"/>
<path d="M12.0015 4C9.82855 4 9.55609 4.00928 8.70257 4.04797C8.03891 4.06124 7.38232 4.18699 6.76076 4.41984C6.22908 4.62521 5.74622 4.93937 5.34313 5.34217C4.94005 5.74498 4.62563 6.22754 4.42005 6.75891C4.18664 7.38041 4.06083 8.0371 4.04799 8.70082C4.0098 9.55392 4 9.82676 4 12.0018C4 14.1768 4.0098 14.4461 4.04851 15.2992C4.06186 15.9626 4.18748 16.619 4.42005 17.2406C4.62542 17.7717 4.93947 18.2541 5.34208 18.657C5.74469 19.0599 6.22701 19.3743 6.75818 19.5802C7.38002 19.8126 8.03674 19.9382 8.70051 19.9515C9.55402 19.9902 9.82649 20 11.999 20C14.1715 20 14.4439 19.9902 15.2974 19.9515C15.9614 19.9381 16.6182 19.8125 17.2403 19.5802C17.7716 19.3741 18.2541 19.0596 18.657 18.6567C19.0598 18.2538 19.3742 17.7713 19.58 17.2401C19.8116 16.6181 19.9374 15.9617 19.952 15.2982C19.9902 14.4451 20 14.1732 20 12.0008C20 9.82831 19.9902 9.55546 19.952 8.70236C19.9374 8.03899 19.8117 7.38276 19.58 6.76097C19.3745 6.22955 19.0602 5.74693 18.6572 5.34403C18.2542 4.94114 17.7714 4.62687 17.2398 4.42139C16.6176 4.18871 15.9605 4.06297 15.2964 4.04951C14.4429 4.01083 14.1709 4.00155 11.9974 4.00155L12.0015 4ZM11.2838 5.44418H12.0015C14.1379 5.44418 14.3913 5.4514 15.2345 5.49009C15.7418 5.49616 16.2443 5.58933 16.7201 5.76551C17.0651 5.89871 17.3784 6.10257 17.6398 6.36399C17.9013 6.62541 18.1051 6.9386 18.2383 7.28345C18.4145 7.759 18.5078 8.26128 18.5138 8.76838C18.552 9.61168 18.5608 9.86493 18.5608 11.9997C18.5608 14.1346 18.552 14.3878 18.5138 15.2311C18.5078 15.7382 18.4145 16.2405 18.2383 16.716C18.105 17.0608 17.9011 17.3738 17.6397 17.6351C17.3782 17.8965 17.065 18.1003 16.7201 18.2335C16.2444 18.4099 15.7418 18.5031 15.2345 18.5089C14.3913 18.547 14.1379 18.5553 12.0015 18.5553C9.86519 18.5553 9.61182 18.547 8.76863 18.5089C8.26125 18.5026 7.75872 18.4093 7.28298 18.2329C6.93796 18.0999 6.62461 17.8961 6.36307 17.6348C6.10152 17.3734 5.89757 17.0603 5.7643 16.7155C5.58752 16.2401 5.4943 15.7377 5.48874 15.2306C5.45004 14.3873 5.4423 14.134 5.4423 11.9977C5.4423 9.86132 5.45004 9.60962 5.48874 8.76632C5.49462 8.2592 5.58783 7.75688 5.7643 7.28139C5.8973 6.93631 6.10116 6.62291 6.36273 6.36138C6.62429 6.09985 6.93778 5.89599 7.28298 5.76293C7.75856 5.586 8.26119 5.49264 8.76863 5.48699C9.50655 5.45347 9.79294 5.44367 11.2838 5.44212V5.44418ZM16.2722 6.77232C16.0822 6.77232 15.8966 6.82862 15.7386 6.93412C15.5807 7.03961 15.4576 7.18955 15.3849 7.36498C15.3123 7.5404 15.2933 7.73342 15.3304 7.91963C15.3675 8.10584 15.459 8.27687 15.5933 8.41109C15.7277 8.54531 15.8988 8.63669 16.0852 8.67367C16.2715 8.71064 16.4646 8.69156 16.6401 8.61883C16.8155 8.5461 16.9655 8.423 17.0709 8.26508C17.1764 8.10716 17.2326 7.92153 17.2325 7.73167C17.2325 7.60564 17.2077 7.48085 17.1594 7.36442C17.1112 7.24799 17.0404 7.14221 16.9512 7.05312C16.862 6.96403 16.7562 6.89338 16.6397 6.84519C16.5232 6.79701 16.3983 6.77225 16.2722 6.77232ZM12.0015 7.89104C11.1886 7.89043 10.3937 8.13083 9.71745 8.58184C9.0412 9.03285 8.51397 9.67419 8.20246 10.4247C7.89095 11.1753 7.80916 12.0013 7.96742 12.7984C8.12569 13.5954 8.5169 14.3276 9.09157 14.9024C9.66625 15.4771 10.3986 15.8686 11.1959 16.0273C11.9932 16.186 12.8197 16.1047 13.5708 15.7938C14.3219 15.483 14.9639 14.9564 15.4155 14.2808C15.8672 13.6051 16.1082 12.8108 16.1081 11.9982C16.108 10.9094 15.6754 9.8652 14.9053 9.09506C14.1353 8.32492 13.0909 7.89186 12.0015 7.89104ZM12.0015 9.33522C12.5293 9.33533 13.0452 9.4919 13.484 9.78513C13.9227 10.0784 14.2646 10.4951 14.4663 10.9825C14.6681 11.47 14.7206 12.0063 14.6173 12.5237C14.514 13.041 14.2595 13.5161 13.886 13.8888C13.5125 14.2616 13.0368 14.5152 12.5191 14.6176C12.0014 14.7201 11.4649 14.6667 10.9775 14.4643C10.4901 14.2619 10.0737 13.9196 9.78099 13.4806C9.48829 13.0416 9.33245 12.5257 9.33316 11.9982C9.33323 11.648 9.40231 11.3013 9.53645 10.9779C9.67059 10.6544 9.86717 10.3605 10.115 10.113C10.3627 9.86544 10.6569 9.66913 10.9806 9.53524C11.3043 9.40135 11.6512 9.33251 12.0015 9.33265V9.33522Z" fill="white"/>
<defs>
<radialGradient id="paint0_radial_865_981" cx="0" cy="0" r="1" gradientUnits="userSpaceOnUse" gradientTransform="translate(6.893 24.736) rotate(-90) scale(21.8088 20.2811)">
<stop stop-color="#FFDD55"/>
<stop offset="0.1" stop-color="#FFDD55"/>
<stop offset="0.5" stop-color="#FF543E"/>
<stop offset="1" stop-color="#C837AB"/>
</radialGradient>
<radialGradient id="paint1_radial_865_981" cx="0" cy="0" r="1" gradientUnits="userSpaceOnUse" gradientTransform="translate(-2.72 2.491) rotate(78.677) scale(9.7469 40.1778)">
<stop stop-color="#3771C8"/>
<stop offset="0.128" stop-color="#3771C8"/>
<stop offset="1" stop-color="#6600FF" stop-opacity="0"/>
</radialGradient>
</defs>
</svg>
