<svg width="24" height="24" viewBox="0 0 24 24"  xmlns="http://www.w3.org/2000/svg">
<g clip-path="url(#clip0_865_4608)">
<path fill-rule="evenodd" clip-rule="evenodd" d="M22.5 0H1.5C0.672 0 0 0.672 0 1.5V16.5C0 17.328 0.672 18 1.5 18H7V24L16 18H22.5C23.328 18 24 17.328 24 16.5V1.5C24 0.672 23.328 0 22.5 0ZM4 5C4 4.44772 4.44772 4 5 4C5.55228 4 6 4.44772 6 5C6 5.55228 5.55228 6 5 6C4.44772 6 4 5.55228 4 5ZM8 5C8 4.44772 8.44772 4 9 4H19C19.5523 4 20 4.44772 20 5C20 5.55228 19.5523 6 19 6H9C8.44771 6 8 5.55228 8 5ZM8 9C8 8.44772 8.44772 8 9 8H19C19.5523 8 20 8.44772 20 9C20 9.55228 19.5523 10 19 10H9C8.44771 10 8 9.55228 8 9ZM9 12C8.44772 12 8 12.4477 8 13C8 13.5523 8.44771 14 9 14H19C19.5523 14 20 13.5523 20 13C20 12.4477 19.5523 12 19 12H9ZM5 8C4.44772 8 4 8.44772 4 9C4 9.55228 4.44772 10 5 10C5.55228 10 6 9.55228 6 9C6 8.44772 5.55228 8 5 8ZM4 13C4 12.4477 4.44772 12 5 12C5.55228 12 6 12.4477 6 13C6 13.5523 5.55228 14 5 14C4.44772 14 4 13.5523 4 13Z" fill="currentColor"/>
</g>
<defs>
<clipPath id="clip0_865_4608">
<rect width="24" height="24" fill="currentColor"/>
</clipPath>
</defs>
</svg>
