<svg width="24" height="24" viewBox="0 0 24 24"  xmlns="http://www.w3.org/2000/svg">
<g clip-path="url(#clip0_865_4603)">
<path fill-rule="evenodd" clip-rule="evenodd" d="M7.75 24H7.45C7.15 23.85 7 23.55 7 23.25V18H2.25C1.05 18 0 16.95 0 15.75V2.25C0 1.05 1.05 0 2.25 0H21.75C22.95 0 24 1.05 24 2.25V15.75C24 16.95 22.95 18 21.75 18H15.1L8.35 23.85C8.05 24 7.9 24 7.75 24ZM2.25 1.5C1.8 1.5 1.5 1.8 1.5 2.25V15.75C1.5 16.2 1.8 16.5 2.25 16.5H7.75C8.2 16.5 8.5 16.8 8.5 17.25V21.6L14.2 16.65C14.35 16.5 14.5 16.5 14.8 16.5H21.75C22.2 16.5 22.5 16.2 22.5 15.75V2.25C22.5 1.8 22.2 1.5 21.75 1.5H2.25ZM8 5C8 4.58579 8.3134 4.25 8.7 4.25H19.3C19.6865 4.25 20 4.58579 20 5C20 5.41421 19.6865 5.75 19.3 5.75H8.7C8.3134 5.75 8 5.41421 8 5ZM8.7 8.25C8.3134 8.25 8 8.58579 8 9C8 9.41421 8.3134 9.75 8.7 9.75H19.3C19.6865 9.75 20 9.41421 20 9C20 8.58579 19.6865 8.25 19.3 8.25H8.7ZM8.7 12.25C8.3134 12.25 8 12.5858 8 13C8 13.4142 8.3134 13.75 8.7 13.75H19.3C19.6865 13.75 20 13.4142 20 13C20 12.5858 19.6865 12.25 19.3 12.25H8.7ZM5 4C4.44772 4 4 4.44772 4 5C4 5.55228 4.44772 6 5 6C5.55228 6 6 5.55228 6 5C6 4.44772 5.55228 4 5 4ZM5 8C4.44772 8 4 8.44772 4 9C4 9.55228 4.44772 10 5 10C5.55228 10 6 9.55228 6 9C6 8.44772 5.55228 8 5 8ZM4 13C4 12.4477 4.44772 12 5 12C5.55228 12 6 12.4477 6 13C6 13.5523 5.55228 14 5 14C4.44772 14 4 13.5523 4 13Z" fill="currentColor"/>
</g>
<defs>
<clipPath id="clip0_865_4603">
<rect width="24" height="24" fill="currentColor"/>
</clipPath>
</defs>
</svg>
