<svg width="24" height="24" viewBox="0 0 24 24" fill="none" xmlns="http://www.w3.org/2000/svg">
<g clip-path="url(#clip0_865_992)">
<path d="M6.54545 0C2.93702 0 0 2.93702 0 6.54545V17.4545C0 21.063 2.93702 24 6.54545 24H17.4545C21.063 24 24 21.063 24 17.4545V6.54545C24 2.93702 21.063 0 17.4545 0H6.54545ZM6.54545 1.09091H17.4545C20.4734 1.09091 22.9091 3.52662 22.9091 6.54545V17.4545C22.9091 20.4734 20.4734 22.9091 17.4545 22.9091H6.54545C3.52662 22.9091 1.09091 20.4734 1.09091 17.4545V6.54545C1.09091 3.52662 3.52662 1.09091 6.54545 1.09091ZM4.69922 8.21804C4.31576 8.21804 4.03338 8.4914 4.03338 8.85085C4.03338 9.2054 4.31576 9.47834 4.69922 9.47834C5.08267 9.47834 5.36612 9.2054 5.36612 8.85085C5.36612 8.4914 5.08267 8.21804 4.69922 8.21804ZM10.3839 8.52912C8.39897 8.52912 7.1527 9.91923 7.1527 12.1534C7.1527 14.3827 8.37497 15.782 10.3839 15.782C12.3879 15.782 13.6055 14.3778 13.6055 12.1534C13.6055 9.92414 12.3781 8.52966 10.3839 8.52912ZM17.4364 8.52912C15.9266 8.52912 14.919 9.34878 14.919 10.581C14.919 11.5971 15.4895 12.202 16.7408 12.4943L17.6325 12.7106C18.5483 12.926 18.9513 13.2421 18.9513 13.7695C18.9513 14.3832 18.3185 14.8285 17.4556 14.8285C16.531 14.8285 15.8885 14.4118 15.7969 13.7557H14.7315C14.8084 14.9928 15.8387 15.783 17.3725 15.783C19.0122 15.783 20.038 14.9543 20.038 13.631C20.038 12.5909 19.4534 12.0152 18.0341 11.6847L17.2724 11.4972C16.3713 11.2861 16.0067 11.0032 16.0067 10.5096C16.0067 9.88613 16.5728 9.4794 17.4215 9.4794C18.2272 9.4794 18.7823 9.87621 18.8832 10.5139H19.9283C19.8661 9.34876 18.841 8.52912 17.4364 8.52912ZM10.3839 9.53054C11.6979 9.53054 12.5082 10.5476 12.5082 12.1534C12.5082 13.7494 11.6973 14.7805 10.3839 14.7805C9.05624 14.7805 8.25107 13.75 8.25107 12.1534C8.25107 10.5476 9.0797 9.53109 10.3839 9.53054ZM4.18679 10.3945V15.6147H5.21271V10.3945H4.18679Z" fill="black"/>
</g>
<defs>
<clipPath id="clip0_865_992">
<rect width="24" height="24" fill="white"/>
</clipPath>
</defs>
</svg>
