<svg width="24" height="24" viewBox="0 0 24 24"  xmlns="http://www.w3.org/2000/svg">
<path d="M10 0.5C10 0.223858 10.2239 0 10.5 0H18.5C18.7761 0 19 0.223858 19 0.5V2.07912C19 2.32235 18.825 2.5303 18.5853 2.57179L16.4213 2.94638C16.232 2.97916 16.0782 3.11755 16.0257 3.30241L11.1506 20.462C11.0691 20.7489 11.2553 21.0429 11.5494 21.0919L13.5821 21.4304C13.8233 21.4706 14 21.6792 14 21.9236V23.5C14 23.7761 13.7761 24 13.5 24H5.5C5.22386 24 5 23.7761 5 23.5V21.9209C5 21.6776 5.17504 21.4697 5.41471 21.4282L7.57844 21.0536C7.76779 21.0208 7.9216 20.8824 7.97412 20.6976L12.8492 3.53797C12.9307 3.25109 12.7445 2.95711 12.4503 2.90812L10.4179 2.5696C10.1767 2.52944 10 2.32083 10 2.07639V0.5Z" fill="currentColor"/>
</svg>
