<svg width="24" height="24" viewBox="0 0 24 24" fill="none" xmlns="http://www.w3.org/2000/svg">
<g clip-path="url(#clip0_865_1018)">
<path d="M0 0H24V24H0V0Z" fill="#F0DB4F"/>
<path d="M22.0362 18.3274C21.8181 17.2365 21.1635 16.3638 18.9817 15.491C18.2181 15.1638 17.4544 14.9456 17.2362 14.4001C17.1271 14.0729 17.1271 13.8547 17.2362 13.7456C17.3453 13.091 18.109 12.8729 18.7635 13.091C19.1999 13.2001 19.5271 13.5274 19.7453 13.9638C20.7271 13.3092 20.7271 13.3092 21.4908 12.8729C21.2726 12.4365 21.0544 12.3274 20.9453 12.1092C20.2908 11.4547 19.5271 11.0183 18.109 11.1274L17.4544 11.2365C16.7999 11.4547 16.1453 11.7819 15.709 12.2183C14.6181 13.5274 14.9453 15.7092 16.2544 16.691C17.5635 17.6729 19.6362 18.0001 19.8544 18.8729C20.0726 20.0729 18.9817 20.4001 17.8908 20.291C17.1271 20.0729 16.5817 19.7456 16.1453 18.9819C15.2726 19.5274 15.2726 19.5274 14.2908 20.0729C14.509 20.5092 14.7271 20.7274 15.0544 21.1638C16.7999 22.9092 21.1635 22.8001 21.9271 20.1819C22.0362 19.8547 22.2544 19.2001 22.0362 18.3274ZM13.0908 11.0183H10.7999V16.8001C10.7999 18.0001 10.909 19.2001 10.6908 19.5274C10.3635 20.1819 9.49078 20.0729 9.16351 19.9638C8.72715 19.7456 8.61806 19.5274 8.29079 19.091C8.18169 18.9819 8.18169 18.8729 8.18169 18.8729L6.32715 19.9638C6.65442 20.7274 7.09078 21.2729 7.63624 21.6001C8.50897 22.1456 9.59988 22.2547 10.7999 22.0365C11.5635 21.8183 12.2181 21.3819 12.6544 20.6183C13.1999 19.6365 13.0908 18.5456 13.0908 17.2365C13.0908 15.1638 13.0908 13.091 13.0908 11.0183Z" fill="#323330"/>
</g>
<defs>
<clipPath id="clip0_865_1018">
<rect width="24" height="24" fill="white"/>
</clipPath>
</defs>
</svg>
