<svg width="24" height="24" viewBox="0 0 24 24" fill="none" xmlns="http://www.w3.org/2000/svg">
<path d="M11.4031 21.7556C11.8532 20.4052 12.2533 19.1549 12.7034 17.8045C14.6039 17.6545 16.8545 17.9546 18.455 16.0541C19.6553 14.6537 19.9554 12.9532 19.9054 11.2028C19.8554 7.15166 18.1049 5.60124 12.5534 4.701V1C16.0043 1.05001 19.2552 1.35009 21.6058 4.30089C24.4066 7.85185 24.8067 13.5034 22.5061 17.3544C21.1557 19.605 19.2552 21.1054 16.5045 21.3555C14.754 21.5555 13.0535 21.6556 11.4031 21.7556Z" fill="#42BAEB"/>
<path d="M0 19.3053C1.00027 18.355 2.00054 17.4548 3.00081 16.5045C3.60097 17.0046 4.05109 17.5048 4.65126 17.8549C6.05163 18.7551 7.10192 18.205 7.15193 16.5545C7.20194 11.8032 7.20194 7.05195 7.20194 2.30067V1.10034H11.153C11.203 1.20037 11.253 1.35041 11.253 1.45044C11.253 6.70185 11.253 11.9033 11.153 17.1547C11.103 19.6553 9.95269 21.3058 7.95215 21.8559C5.50148 22.5561 3.30089 22.006 1.35036 20.4056C0.950257 20.0555 0.500135 19.7554 0 19.3053Z" fill="#FAA91F"/>
</svg>
