<svg width="24" height="24" viewBox="0 0 24 24"  xmlns="http://www.w3.org/2000/svg">
<g clip-path="url(#clip0_865_4813)">
<path fill-rule="evenodd" clip-rule="evenodd" d="M18.75 0C18.5511 0 18.3603 0.0790176 18.2196 0.219671L9.2133 9.22605C8.67721 9.09156 8.10557 9 7.5 9C3.35829 9 0 12.3583 0 16.5C0 20.6416 3.35829 24 7.5 24C11.6417 24 15 20.6416 15 16.5C15 15.8945 14.9084 15.3228 14.774 14.7867L17.7804 11.7803C17.9209 11.6397 18 11.4489 18 11.25V7.5H21.75C21.9489 7.5 22.1397 7.42098 22.2804 7.28032L23.7804 5.78032C23.9209 5.63969 24 5.44892 24 5.25V0.75C24 0.335787 23.6642 0 23.25 0H18.75ZM9.96532 10.5953L19.0606 1.5H22.5V4.93933L21.4394 6H17.25C16.8358 6 16.5 6.33579 16.5 6.75V10.9393L13.4047 14.0347C13.2097 14.2296 13.1374 14.5159 13.2165 14.78C13.3882 15.354 13.5 15.9201 13.5 16.5C13.5 19.8134 10.8133 22.5 7.5 22.5C4.18671 22.5 1.5 19.8134 1.5 16.5C1.5 13.1867 4.18671 10.5 7.5 10.5C8.07992 10.5 8.64607 10.6118 9.21997 10.7835C9.48413 10.8626 9.77036 10.7903 9.96532 10.5953ZM6 16.5C6 15.6715 6.67158 15 7.5 15C8.32842 15 9 15.6715 9 16.5C9 17.3284 8.32842 18 7.5 18C6.67158 18 6 17.3284 6 16.5ZM7.5 13.5C5.84314 13.5 4.5 14.8431 4.5 16.5C4.5 18.1569 5.84314 19.5 7.5 19.5C9.15685 19.5 10.5 18.1569 10.5 16.5C10.5 14.8431 9.15685 13.5 7.5 13.5Z" fill="currentColor"/>
</g>
<defs>
<clipPath id="clip0_865_4813">
<rect width="24" height="24" fill="currentColor"/>
</clipPath>
</defs>
</svg>
