<svg width="24" height="24" viewBox="0 0 24 24"  xmlns="http://www.w3.org/2000/svg">
<path d="M12.0005 19C10.9005 19 10.0005 19.9 10.0005 21.0001C10.0005 22.1 10.9005 23 12.0005 23C13.1005 23 14.0005 22.1 14.0005 21.0001C14.0005 19.9 13.1005 19 12.0005 19ZM6.00048 1C4.90049 1 4.00049 1.90001 4.00049 3C4.00049 4.1 4.90049 5 6.00048 5C7.10048 5 8.00048 4.1 8.00048 3C8.00048 1.90001 7.10048 1 6.00048 1ZM6.00048 7.00001C4.90049 7.00001 4.00049 7.90001 4.00049 9C4.00049 10.1 4.90049 11 6.00048 11C7.10048 11 8.00048 10.1 8.00048 9C8.00048 7.90001 7.10048 7.00001 6.00048 7.00001ZM6.00048 13C4.90049 13 4.00049 13.9 4.00049 15C4.00049 16.1 4.90049 17 6.00048 17C7.10048 17 8.00048 16.1 8.00048 15C8.00048 13.9 7.10048 13 6.00048 13ZM18.0005 5C19.1005 5 20.0005 4.1 20.0005 3C20.0005 1.90001 19.1005 1 18.0005 1C16.9004 1 16.0004 1.90001 16.0004 3C16.0004 4.1 16.9004 5 18.0005 5ZM12.0005 13C10.9005 13 10.0005 13.9 10.0005 15C10.0005 16.1 10.9005 17 12.0005 17C13.1005 17 14.0005 16.1 14.0005 15C14.0005 13.9 13.1005 13 12.0005 13ZM18.0005 13C16.9004 13 16.0004 13.9 16.0004 15C16.0004 16.1 16.9004 17 18.0005 17C19.1005 17 20.0005 16.1 20.0005 15C20.0005 13.9 19.1005 13 18.0005 13ZM18.0005 7.00001C16.9004 7.00001 16.0004 7.90001 16.0004 9C16.0004 10.1 16.9004 11 18.0005 11C19.1005 11 20.0005 10.1 20.0005 9C20.0005 7.90001 19.1005 7.00001 18.0005 7.00001ZM12.0005 7.00001C10.9005 7.00001 10.0005 7.90001 10.0005 9C10.0005 10.1 10.9005 11 12.0005 11C13.1005 11 14.0005 10.1 14.0005 9C14.0005 7.90001 13.1005 7.00001 12.0005 7.00001ZM12.0005 1C10.9005 1 10.0005 1.90001 10.0005 3C10.0005 4.1 10.9005 5 12.0005 5C13.1005 5 14.0005 4.1 14.0005 3C14.0005 1.90001 13.1005 1 12.0005 1Z" fill="currentColor"/>
</svg>
