<svg width="24" height="24" viewBox="0 0 24 24"  xmlns="http://www.w3.org/2000/svg">
<g clip-path="url(#clip0_865_1718)">
<path fill-rule="evenodd" clip-rule="evenodd" d="M0 0.75C0 0.335787 0.335787 0 0.75 0H5.25C5.66421 0 6 0.335787 6 0.75V5.25C6 5.66421 5.66421 6 5.25 6H0.75C0.335787 6 0 5.66421 0 5.25V0.75ZM1.5 1.5V4.5H4.5V1.5H1.5ZM9 0.75C9 0.335787 9.33579 0 9.75 0H14.25C14.6642 0 15 0.335787 15 0.75V5.25C15 5.66421 14.6642 6 14.25 6H9.75C9.33579 6 9 5.66421 9 5.25V0.75ZM10.5 1.5V4.5H13.5V1.5H10.5ZM18.75 0C18.3358 0 18 0.335787 18 0.75V5.25C18 5.66421 18.3358 6 18.75 6H23.25C23.6642 6 24 5.66421 24 5.25V0.75C24 0.335787 23.6642 0 23.25 0H18.75ZM19.5 4.5V1.5H22.5V4.5H19.5ZM0 9.75C0 9.33579 0.335787 9 0.75 9H5.25C5.66421 9 6 9.33579 6 9.75V14.25C6 14.6642 5.66421 15 5.25 15H0.75C0.335787 15 0 14.6642 0 14.25V9.75ZM1.5 10.5V13.5H4.5V10.5H1.5ZM9.75 9C9.33579 9 9 9.33579 9 9.75V14.25C9 14.6642 9.33579 15 9.75 15H14.25C14.6642 15 15 14.6642 15 14.25V9.75C15 9.33579 14.6642 9 14.25 9H9.75ZM10.5 13.5V10.5H13.5V13.5H10.5ZM18 9.75C18 9.33579 18.3358 9 18.75 9H23.25C23.6642 9 24 9.33579 24 9.75V14.25C24 14.6642 23.6642 15 23.25 15H18.75C18.3358 15 18 14.6642 18 14.25V9.75ZM19.5 10.5V13.5H22.5V10.5H19.5ZM0.75 18C0.335787 18 0 18.3358 0 18.75V23.25C0 23.6642 0.335787 24 0.75 24H5.25C5.66421 24 6 23.6642 6 23.25V18.75C6 18.3358 5.66421 18 5.25 18H0.75ZM1.5 22.5V19.5H4.5V22.5H1.5ZM9 18.75C9 18.3358 9.33579 18 9.75 18H14.25C14.6642 18 15 18.3358 15 18.75V23.25C15 23.6642 14.6642 24 14.25 24H9.75C9.33579 24 9 23.6642 9 23.25V18.75ZM10.5 19.5V22.5H13.5V19.5H10.5ZM18.75 18C18.3358 18 18 18.3358 18 18.75V23.25C18 23.6642 18.3358 24 18.75 24H23.25C23.6642 24 24 23.6642 24 23.25V18.75C24 18.3358 23.6642 18 23.25 18H18.75ZM19.5 22.5V19.5H22.5V22.5H19.5Z" fill="currentColor"/>
</g>
<defs>
<clipPath id="clip0_865_1718">
<rect width="24" height="24" fill="currentColor"/>
</clipPath>
</defs>
</svg>
