<svg width="24" height="24" viewBox="0 0 24 24"  xmlns="http://www.w3.org/2000/svg">
<path fill-rule="evenodd" clip-rule="evenodd" d="M5.25 0.25C3.86929 0.25 2.75 1.36929 2.75 2.75C2.75 4.13071 3.86929 5.25 5.25 5.25C6.63071 5.25 7.75 4.13071 7.75 2.75C7.75 1.36929 6.63071 0.25 5.25 0.25ZM4.25 2.75C4.25 2.19772 4.69772 1.75 5.25 1.75C5.80228 1.75 6.25 2.19772 6.25 2.75C6.25 3.30228 5.80228 3.75 5.25 3.75C4.69772 3.75 4.25 3.30228 4.25 2.75ZM5.25 6.25C3.86929 6.25 2.75 7.36929 2.75 8.75C2.75 10.1307 3.86929 11.25 5.25 11.25C6.63071 11.25 7.75 10.1307 7.75 8.75C7.75 7.36929 6.63071 6.25 5.25 6.25ZM4.25 8.75C4.25 8.19772 4.69772 7.75 5.25 7.75C5.80228 7.75 6.25 8.19772 6.25 8.75C6.25 9.30228 5.80228 9.75 5.25 9.75C4.69772 9.75 4.25 9.30228 4.25 8.75ZM2.75 14.75C2.75 13.3693 3.86929 12.25 5.25 12.25C6.63071 12.25 7.75 13.3693 7.75 14.75C7.75 16.1307 6.63071 17.25 5.25 17.25C3.86929 17.25 2.75 16.1307 2.75 14.75ZM5.25 13.75C4.69772 13.75 4.25 14.1977 4.25 14.75C4.25 15.3023 4.69772 15.75 5.25 15.75C5.80228 15.75 6.25 15.3023 6.25 14.75C6.25 14.1977 5.80228 13.75 5.25 13.75ZM11.75 0.25C10.3693 0.25 9.25 1.36929 9.25 2.75C9.25 4.13071 10.3693 5.25 11.75 5.25C13.1307 5.25 14.25 4.13071 14.25 2.75C14.25 1.36929 13.1307 0.25 11.75 0.25ZM10.75 2.75C10.75 2.19772 11.1977 1.75 11.75 1.75C12.3023 1.75 12.75 2.19772 12.75 2.75C12.75 3.30228 12.3023 3.75 11.75 3.75C11.1977 3.75 10.75 3.30228 10.75 2.75ZM9.25 8.75C9.25 7.36929 10.3693 6.25 11.75 6.25C13.1307 6.25 14.25 7.36929 14.25 8.75C14.25 10.1307 13.1307 11.25 11.75 11.25C10.3693 11.25 9.25 10.1307 9.25 8.75ZM11.75 7.75C11.1977 7.75 10.75 8.19772 10.75 8.75C10.75 9.30228 11.1977 9.75 11.75 9.75C12.3023 9.75 12.75 9.30228 12.75 8.75C12.75 8.19772 12.3023 7.75 11.75 7.75ZM11.75 12.25C10.3693 12.25 9.25 13.3693 9.25 14.75C9.25 16.1307 10.3693 17.25 11.75 17.25C13.1307 17.25 14.25 16.1307 14.25 14.75C14.25 13.3693 13.1307 12.25 11.75 12.25ZM10.75 14.75C10.75 14.1977 11.1977 13.75 11.75 13.75C12.3023 13.75 12.75 14.1977 12.75 14.75C12.75 15.3023 12.3023 15.75 11.75 15.75C11.1977 15.75 10.75 15.3023 10.75 14.75ZM9.25 20.75C9.25 19.3693 10.3693 18.25 11.75 18.25C13.1307 18.25 14.25 19.3693 14.25 20.75C14.25 22.1307 13.1307 23.25 11.75 23.25C10.3693 23.25 9.25 22.1307 9.25 20.75ZM11.75 19.75C11.1977 19.75 10.75 20.1977 10.75 20.75C10.75 21.3023 11.1977 21.75 11.75 21.75C12.3023 21.75 12.75 21.3023 12.75 20.75C12.75 20.1977 12.3023 19.75 11.75 19.75ZM18.25 0.25C16.8693 0.25 15.75 1.36929 15.75 2.75C15.75 4.13071 16.8693 5.25 18.25 5.25C19.6307 5.25 20.75 4.13071 20.75 2.75C20.75 1.36929 19.6307 0.25 18.25 0.25ZM17.25 2.75C17.25 2.19772 17.6977 1.75 18.25 1.75C18.8023 1.75 19.25 2.19772 19.25 2.75C19.25 3.30228 18.8023 3.75 18.25 3.75C17.6977 3.75 17.25 3.30228 17.25 2.75ZM15.75 8.75C15.75 7.36929 16.8693 6.25 18.25 6.25C19.6307 6.25 20.75 7.36929 20.75 8.75C20.75 10.1307 19.6307 11.25 18.25 11.25C16.8693 11.25 15.75 10.1307 15.75 8.75ZM18.25 7.75C17.6977 7.75 17.25 8.19772 17.25 8.75C17.25 9.30228 17.6977 9.75 18.25 9.75C18.8023 9.75 19.25 9.30228 19.25 8.75C19.25 8.19772 18.8023 7.75 18.25 7.75ZM18.25 12.25C16.8693 12.25 15.75 13.3693 15.75 14.75C15.75 16.1307 16.8693 17.25 18.25 17.25C19.6307 17.25 20.75 16.1307 20.75 14.75C20.75 13.3693 19.6307 12.25 18.25 12.25ZM17.25 14.75C17.25 14.1977 17.6977 13.75 18.25 13.75C18.8023 13.75 19.25 14.1977 19.25 14.75C19.25 15.3023 18.8023 15.75 18.25 15.75C17.6977 15.75 17.25 15.3023 17.25 14.75Z" fill="currentColor"/>
</svg>
