<svg width="24" height="24" viewBox="0 0 24 24"  xmlns="http://www.w3.org/2000/svg">
<g clip-path="url(#clip0_865_4829)">
<path fill-rule="evenodd" clip-rule="evenodd" d="M0 1.24188V21.0999C0 21.7449 0.592 22.2229 1.223 22.1259C6.338 21.3479 9.979 23.0279 11.373 23.8339C11.756 24.0549 12.244 24.0549 12.627 23.8339C14.021 23.0279 17.661 21.3479 22.777 22.1259C23.409 22.2219 24.001 21.7439 24.001 21.0999V1.24188C24.001 0.767884 23.673 0.353884 23.21 0.271884C16.333 -0.943116 12 2.30788 12 2.30788C12 2.30788 7.667 -0.943116 0.791 0.271884C0.328 0.353884 0 0.766883 0 1.24188ZM17.725 6.71488C17.112 6.83688 16.485 7.05188 15.612 7.44588C14.856 7.78688 13.969 7.44488 13.63 6.68088C13.4671 6.31478 13.4553 5.89915 13.5973 5.52441C13.7392 5.14967 14.0234 4.84615 14.388 4.67988C15.379 4.23288 16.233 3.92388 17.144 3.74288C18.055 3.56188 18.955 3.51988 20.027 3.53888C20.855 3.55388 21.515 4.24388 21.5 5.08088C21.485 5.91788 20.802 6.58288 19.973 6.56788C19.007 6.54988 18.341 6.59288 17.725 6.71488ZM8.388 7.44588C7.515 7.05188 6.888 6.83688 6.275 6.71488C5.662 6.59288 4.994 6.54988 4.027 6.56788C3.199 6.58288 2.515 5.91688 2.5 5.08088C2.485 4.24488 3.145 3.55388 3.973 3.53888C5.044 3.51988 5.947 3.56188 6.856 3.74288C7.765 3.92388 8.621 4.23288 9.612 4.67988C9.9766 4.84615 10.2608 5.14967 10.4027 5.52441C10.5447 5.89915 10.5329 6.31478 10.37 6.68088C10.032 7.44488 9.145 7.78688 8.389 7.44588H8.388ZM17.725 12.7729C17.112 12.8949 16.485 13.1099 15.612 13.5039C14.856 13.8449 13.969 13.5029 13.63 12.7389C13.4671 12.3728 13.4553 11.9571 13.5973 11.5824C13.7392 11.2077 14.0234 10.9042 14.388 10.7379C15.379 10.2909 16.233 9.98288 17.144 9.80088C18.055 9.61888 18.955 9.57788 20.027 9.59688C20.855 9.61188 21.515 10.3019 21.5 11.1389C21.485 11.9759 20.802 12.6409 19.973 12.6259C19.007 12.6079 18.341 12.6499 17.725 12.7729ZM8.388 13.5039C7.515 13.1099 6.888 12.8949 6.275 12.7729C5.662 12.6509 4.994 12.6079 4.027 12.6259C3.199 12.6409 2.515 11.9749 2.5 11.1389C2.485 10.3029 3.145 9.61188 3.973 9.59688C5.044 9.57788 5.947 9.61988 6.856 9.80088C7.765 9.98188 8.621 10.2909 9.612 10.7379C9.9766 10.9042 10.2608 11.2077 10.4027 11.5824C10.5447 11.9571 10.5329 12.3728 10.37 12.7389C10.032 13.5029 9.145 13.8449 8.389 13.5039H8.388ZM17.725 18.8309C17.112 18.9529 16.485 19.1679 15.612 19.5619C14.856 19.9029 13.969 19.5609 13.63 18.7969C13.4671 18.4308 13.4553 18.0151 13.5973 17.6404C13.7392 17.2657 14.0234 16.9622 14.388 16.7959C15.379 16.3489 16.233 16.0399 17.144 15.8589C18.055 15.6779 18.955 15.6359 20.027 15.6549C20.855 15.6699 21.515 16.3599 21.5 17.1959C21.485 18.0319 20.802 18.6979 19.973 18.6829C19.007 18.6649 18.341 18.7079 17.725 18.8309ZM8.388 19.5619C7.515 19.1679 6.888 18.9529 6.275 18.8309C5.662 18.7089 4.994 18.6659 4.027 18.6839C3.199 18.6989 2.515 18.0329 2.5 17.1969C2.485 16.3609 3.145 15.6699 3.973 15.6559C5.044 15.6359 5.947 15.6789 6.856 15.8599C7.765 16.0409 8.621 16.3499 9.612 16.7969C9.9766 16.9632 10.2608 17.2667 10.4027 17.6414C10.5447 18.0161 10.5329 18.4318 10.37 18.7979C10.032 19.5619 9.145 19.9039 8.389 19.5629L8.388 19.5619Z" fill="currentColor"/>
</g>
<defs>
<clipPath id="clip0_865_4829">
<rect width="24" height="24" fill="currentColor"/>
</clipPath>
</defs>
</svg>
