<svg width="24" height="24" viewBox="0 0 24 24"  xmlns="http://www.w3.org/2000/svg">
<path fill-rule="evenodd" clip-rule="evenodd" d="M7.68951 1.67158C6.32441 1.34431 4.95831 1.32467 3.30239 1.62715C2.6074 1.75415 2.1322 2.39709 2.1322 3.11133V18.8363C2.13224 19.7819 2.92672 20.4707 3.78007 20.3646C5.20509 20.1876 6.34022 20.217 7.47256 20.5209C8.61084 20.8264 9.78743 21.4203 11.2801 22.4336C11.6163 22.6617 12.0501 22.6671 12.3916 22.4435C12.6577 22.2693 12.9138 22.107 13.1618 21.9562C13.6026 21.6884 13.8061 21.1155 13.4423 20.7498C13.1291 20.4348 12.7334 20.2105 12.2914 20.1151C11.0583 19.8489 10.4414 19.0407 9.90021 18.0237C9.35905 17.0067 9.46004 13.7551 11.7238 13.2664L11.8328 13.2405C12.9508 12.9529 13.8166 12.0089 14.0484 10.8113L14.0807 10.6605C14.617 8.39371 17.3504 8.30805 18.4225 8.76402C19.4946 9.21999 20.2811 10.1085 20.5331 11.4107C20.535 11.4209 20.5371 11.4311 20.5392 11.4412C20.7003 12.2238 21.5459 11.8965 21.5459 11.0975V3.12757C21.5459 2.3994 21.0537 1.75302 20.3493 1.63572C18.6977 1.36079 17.3369 1.34773 15.9754 1.65083C14.6481 1.94633 13.3573 2.53446 11.8296 3.40993C10.3081 2.58997 9.01386 1.98909 7.68951 1.67158ZM6.52552 15.4044C6.08325 15.3715 5.61296 15.3702 5.22209 15.4022C4.49977 15.4615 3.9594 16.128 4.01539 16.8909C4.07146 17.6538 4.70261 18.2242 5.42495 18.1651C5.66897 18.1451 6.00846 18.1439 6.34081 18.1687C6.69655 18.1952 6.93013 18.2435 7.0143 18.2738C7.69997 18.5211 8.44567 18.1346 8.67989 17.4105C8.91403 16.6863 8.5481 15.8988 7.86247 15.6514C7.45064 15.5029 6.94418 15.4356 6.52552 15.4044ZM9.24598 10.2115C7.80737 9.76254 6.96874 9.79682 5.95699 9.83818C5.74682 9.84677 5.52907 9.85567 5.29704 9.8606C4.57274 9.87609 3.99727 10.5088 4.01176 11.2737C4.02634 12.0388 4.6256 12.6465 5.34999 12.6312C5.65026 12.6248 5.90571 12.6151 6.13167 12.6065C7.06483 12.5711 7.49517 12.5548 8.50223 12.8691C9.19711 13.086 9.92703 12.6668 10.1324 11.9329C10.3377 11.1991 9.9408 10.4284 9.24598 10.2115ZM5.96495 4.29967C5.75204 4.30861 5.53179 4.31786 5.29704 4.32285C4.57273 4.33834 3.99727 4.97102 4.01176 5.73599C4.02634 6.50106 4.6256 7.10877 5.34999 7.09342C5.65778 7.08687 5.91842 7.07672 6.14824 7.06777C7.07245 7.03177 7.49938 7.01514 8.49882 7.33022C9.19312 7.54911 9.92405 7.13209 10.1313 6.3988C10.3385 5.66556 9.94366 4.89378 9.2494 4.67489C7.81302 4.22206 6.97074 4.25743 5.96495 4.29967ZM18.7924 4.32285L18.632 4.31939C17.2638 4.28971 16.3809 4.27056 14.7206 4.64783C14.0124 4.80883 13.5617 5.54588 13.714 6.29393C13.8664 7.04205 14.5643 7.51798 15.2726 7.35706C16.6329 7.04797 17.2669 7.06165 18.5926 7.09026L18.7396 7.09342C19.464 7.10877 20.0631 6.50106 20.0777 5.73599C20.0922 4.97097 19.5168 4.33826 18.7924 4.32285Z" fill="currentColor"/>
<path d="M16.9083 11.4107C16.9782 11.1556 17.048 11.1556 17.1179 11.4107C17.6951 13.5185 19.8472 15.7914 21.8429 16.401C22.0845 16.4748 22.0845 16.5485 21.8429 16.6223C19.8472 17.232 17.6951 19.5049 17.1179 21.6126C17.048 21.8678 16.9782 21.8678 16.9083 21.6126C16.3311 19.5049 14.179 17.232 12.1833 16.6223C11.9417 16.5485 11.9417 16.4748 12.1833 16.401C14.179 15.7914 16.3311 13.5185 16.9083 11.4107Z" fill="currentColor"/>
</svg>
