<svg width="24" height="24" viewBox="0 0 24 24"  xmlns="http://www.w3.org/2000/svg">
<path fill-rule="evenodd" clip-rule="evenodd" d="M21.1465 11.4147C21.6033 11.4145 21.9739 11.0363 21.9739 10.5698V3.55079C21.9739 2.71848 21.3751 1.98882 20.541 1.88075C18.9697 1.67718 17.6295 1.65725 16.2402 1.93466C14.9085 2.20064 13.5764 2.7309 11.9879 3.56729C10.3997 2.73107 9.0683 2.20061 7.7367 1.93466C6.34724 1.65715 5.00649 1.67712 3.43485 1.88075C2.60092 1.98897 2.00305 2.71859 2.00305 3.55079V18.8584C2.00305 19.886 2.88307 20.6563 3.85609 20.5515C5.05224 20.4227 6.01856 20.3904 6.95347 20.5339C7.87916 20.6761 8.81309 20.9964 9.92372 21.622C10.3239 21.8473 10.8267 21.6983 11.0474 21.2897C11.2678 20.8812 11.123 20.3676 10.7231 20.1422C9.46747 19.4351 8.34714 19.039 7.19911 18.8628C6.06049 18.688 4.93305 18.7358 3.68264 18.8705C3.67695 18.8711 3.67319 18.8701 3.67079 18.8694C3.66765 18.8683 3.66066 18.8631 3.65786 18.8606V3.55409C5.11335 3.36645 6.26163 3.3615 7.41889 3.59259C8.58612 3.82571 9.81166 4.30936 11.4072 5.16251C11.7702 5.35661 12.2067 5.35661 12.5697 5.16251C14.1649 4.30955 15.3899 3.82573 16.557 3.59259C17.7144 3.36142 18.8633 3.36639 20.3191 3.55409V10.5698C20.3191 11.0364 20.6895 11.4147 21.1465 11.4147ZM9.65115 7.25391C8.07161 6.62901 6.89743 6.37312 5.31159 6.40569C4.85472 6.41508 4.49115 6.80167 4.50035 7.26821C4.50978 7.73454 4.88827 8.10492 5.34499 8.09553C6.67457 8.06824 7.63311 8.26861 9.05323 8.83043C9.28383 8.92167 9.5216 9.02274 9.76751 9.13408C10.1851 9.32291 10.6737 9.13028 10.8589 8.70392C11.0441 8.27733 10.8554 7.77859 10.4376 7.58946C10.1698 7.4682 9.90844 7.3557 9.65115 7.25391ZM5.31159 10.232C6.89745 10.1995 8.07158 10.4553 9.65115 11.0803C9.90833 11.182 10.1699 11.2935 10.4376 11.4147C10.8553 11.6038 11.0439 12.1026 10.8589 12.5292C10.6737 12.9557 10.1852 13.1483 9.76751 12.9593C9.52155 12.848 9.28387 12.7469 9.05323 12.6557C7.63312 12.0939 6.67456 11.8935 5.34499 11.9208C4.88812 11.9302 4.50955 11.56 4.50035 11.0935C4.49115 10.6269 4.85472 10.2414 5.31159 10.232ZM9.65115 14.9055C8.07159 14.2806 6.89745 14.0247 5.31159 14.0573C4.85486 14.0667 4.49138 14.4523 4.50035 14.9187C4.50954 15.3852 4.88812 15.7565 5.34499 15.7471C6.67458 15.7198 7.63311 15.9202 9.05323 16.482C9.47928 16.6505 9.95906 16.4341 10.1241 15.9991C10.2891 15.564 10.0772 15.0741 9.65115 14.9055ZM18.6653 6.40569C19.1221 6.41519 19.4847 6.80064 19.4755 7.26711C19.4663 7.73361 19.0888 8.10377 18.6319 8.09443C17.1052 8.06305 16.2087 8.3278 14.4303 9.13298C14.0125 9.32211 13.5231 9.12941 13.3378 8.70282C13.1529 8.27637 13.3416 7.77749 13.7591 7.58836C15.653 6.73089 16.8022 6.3674 18.6653 6.40569Z" fill="currentColor"/>
<path d="M16.8499 11.564C16.9203 11.315 16.9906 11.315 17.061 11.564C17.6425 13.6204 19.8103 15.8379 21.8205 16.4327C22.0639 16.5047 22.0639 16.5766 21.8205 16.6486C19.8103 17.2434 17.6425 19.461 17.061 21.5173C16.9906 21.7663 16.9203 21.7663 16.8499 21.5173C16.2685 19.461 14.1007 17.2434 12.0904 16.6486C11.847 16.5766 11.847 16.5047 12.0904 16.4327C14.1007 15.8379 16.2685 13.6204 16.8499 11.564Z" fill="currentColor"/>
</svg>
