<svg width="24" height="24" viewBox="0 0 24 24"  xmlns="http://www.w3.org/2000/svg">
<g clip-path="url(#clip0_865_4824)">
<path fill-rule="evenodd" clip-rule="evenodd" d="M12 2.25294C10.026 1.13194 8.367 0.46194 6.639 0.17194C4.8 -0.13706 2.946 -0.00606018 0.637 0.38194C0.269 0.44294 0 0.75594 0 1.12194V21.2469C0 21.4659 0.097 21.6729 0.266 21.8159C0.435 21.9589 0.659 22.0219 0.88 21.9899C3.242 21.6419 4.963 21.5829 6.557 21.8649C8.151 22.1469 9.668 22.7779 11.613 23.8969C11.7311 23.9647 11.8649 24.0003 12.001 24.0003C12.1371 24.0003 12.2709 23.9647 12.389 23.8969C14.333 22.7779 15.855 22.1459 17.445 21.8649C19.035 21.5839 20.76 21.6419 23.122 21.9899C23.343 22.0219 23.567 21.9589 23.735 21.8159C23.903 21.6729 24.001 21.4649 24.001 21.2469V1.12194C24.001 0.75594 23.732 0.44394 23.364 0.38194C21.055 -0.00606018 19.2 -0.13706 17.362 0.17194C15.634 0.46194 13.975 1.13194 12.001 2.25294H12ZM1.532 1.75994V20.3829C3.559 20.1299 5.224 20.1019 6.829 20.3859C8.546 20.6899 10.142 21.3419 12 22.3809C13.858 21.3429 15.454 20.6899 17.171 20.3859C18.776 20.1019 20.441 20.1309 22.468 20.3829V1.75994C20.544 1.46894 19.054 1.41094 17.62 1.65194C16.034 1.91794 14.455 2.56194 12.393 3.76894C12.2737 3.83852 12.1381 3.87518 12 3.87518C11.8619 3.87518 11.7263 3.83852 11.607 3.76894C9.545 2.56194 7.966 1.91794 6.38 1.65194C4.946 1.41094 3.456 1.46994 1.532 1.75994ZM4.11 5.36394C6.165 5.31094 7.934 5.66194 9.956 6.56494C10.341 6.73694 10.511 7.18294 10.335 7.55994C10.159 7.93694 9.705 8.10394 9.32 7.93194C7.503 7.11894 5.964 6.81894 4.15 6.86494C3.9489 6.87197 3.75323 6.79896 3.60589 6.66192C3.45854 6.52489 3.37156 6.33502 3.364 6.13394C3.353 5.71894 3.687 5.37394 4.11 5.36394ZM20.041 6.86494C18.227 6.81894 16.689 7.11894 14.871 7.93194C14.486 8.10394 14.032 7.93794 13.856 7.55994C13.68 7.18194 13.85 6.73694 14.235 6.56494C16.256 5.66094 18.025 5.31094 20.08 5.36394C20.503 5.37494 20.837 5.71994 20.826 6.13394C20.8184 6.33502 20.7315 6.52489 20.5841 6.66192C20.4368 6.79896 20.2421 6.87197 20.041 6.86494ZM4.11 10.1029C6.165 10.0499 7.934 10.4009 9.956 11.3039C10.341 11.4759 10.511 11.9209 10.335 12.2989C10.159 12.6769 9.705 12.8429 9.32 12.6709C7.503 11.8589 5.964 11.5579 4.15 11.6049C3.9489 11.612 3.75323 11.539 3.60589 11.4019C3.45854 11.2649 3.37156 11.075 3.364 10.8739C3.353 10.4589 3.687 10.1139 4.11 10.1039V10.1029ZM20.041 11.6049C18.227 11.5589 16.689 11.8589 14.871 12.6709C14.486 12.8429 14.032 12.6769 13.856 12.2989C13.68 11.9209 13.85 11.4759 14.235 11.3039C16.256 10.3999 18.025 10.0499 20.08 10.1029C20.503 10.1139 20.837 10.4589 20.826 10.8729C20.8184 11.074 20.7315 11.2639 20.5841 11.4009C20.4368 11.538 20.2411 11.611 20.04 11.6039L20.041 11.6049ZM4.11 14.6089C6.165 14.5559 7.934 14.9069 9.956 15.8099C10.341 15.9819 10.511 16.4279 10.335 16.8049C10.159 17.1819 9.705 17.3489 9.32 17.1769C7.503 16.3639 5.964 16.0639 4.15 16.1099C3.9489 16.117 3.75323 16.044 3.60589 15.9069C3.45854 15.7699 3.37156 15.58 3.364 15.3789C3.353 14.9639 3.687 14.6199 4.11 14.6089ZM20.041 16.1099C18.227 16.0639 16.689 16.3639 14.871 17.1769C14.486 17.3489 14.032 17.1829 13.856 16.8049C13.68 16.4269 13.85 15.9819 14.235 15.8099C16.256 14.9059 18.025 14.5559 20.08 14.6089C20.503 14.6199 20.837 14.9649 20.826 15.3789C20.8184 15.58 20.7315 15.7699 20.5841 15.9069C20.4368 16.044 20.2421 16.117 20.041 16.1099Z" fill="currentColor"/>
</g>
<defs>
<clipPath id="clip0_865_4824">
<rect width="24" height="24" fill="currentColor"/>
</clipPath>
</defs>
</svg>
