<svg width="24" height="24" viewBox="0 0 24 24"  xmlns="http://www.w3.org/2000/svg">
<path d="M19.5 13.5H22.5V6C22.4976 5.20508 22.1808 4.4434 21.6187 3.8813C21.0566 3.31921 20.2949 3.00237 19.5 3H4.5C3.70508 3.00237 2.9434 3.31921 2.3813 3.8813C1.81921 4.4434 1.50237 5.20508 1.5 6V13.5H4.5V6H19.5V13.5ZM3 21H21C21.7949 20.9976 22.5566 20.6808 23.1187 20.1187C23.6808 19.5566 23.9976 18.7949 24 18V16.5H0V18C0.00237409 18.7949 0.319207 19.5566 0.881302 20.1187C1.4434 20.6808 2.20508 20.9976 3 21Z" fill="currentColor"/>
</svg>
