<svg width="24" height="24" viewBox="0 0 24 24"  xmlns="http://www.w3.org/2000/svg">
<path fill-rule="evenodd" clip-rule="evenodd" d="M3.21968 4.71968C3.36032 4.57902 3.55108 4.5 3.75 4.5H20.25C20.4489 4.5 20.6397 4.57902 20.7804 4.71968C20.9209 4.86032 21 5.05108 21 5.25V14.25C21 14.6642 21.3358 15 21.75 15C22.1642 15 22.5 14.6642 22.5 14.25V5.25C22.5 4.65325 22.263 4.08096 21.8411 3.65901C21.4191 3.23706 20.8467 3 20.25 3H3.75C3.15327 3 2.58096 3.23706 2.15901 3.65901C1.73706 4.08096 1.5 4.65327 1.5 5.25V14.25C1.5 14.6642 1.83579 15 2.25 15C2.66421 15 3 14.6642 3 14.25V5.25C3 5.05108 3.07902 4.86032 3.21968 4.71968ZM0.75 16.5C0.551088 16.5 0.360323 16.5791 0.219671 16.7196C0.0790176 16.8603 0 17.0511 0 17.25C0 18.2445 0.395088 19.1984 1.09835 19.9017C1.8016 20.6049 2.75544 21 3.75 21H20.25C21.2445 21 22.1984 20.6049 22.9017 19.9017C23.6049 19.1984 24 18.2445 24 17.25C24 16.8358 23.6642 16.5 23.25 16.5H0.75ZM2.15901 18.8411C1.91946 18.6015 1.73951 18.3135 1.62868 18H22.3713C22.2605 18.3135 22.0806 18.6015 21.8411 18.8411C21.4191 19.263 20.8467 19.5 20.25 19.5H3.75C3.15327 19.5 2.58096 19.263 2.15901 18.8411Z" fill="currentColor"/>
</svg>
