<svg width="24" height="24" viewBox="0 0 24 24"  xmlns="http://www.w3.org/2000/svg">
<g clip-path="url(#clip0_865_4309)">
<path d="M0 1.49997C0 0.671559 0.671559 0 1.49997 0H12.4997C13.3282 0 13.9997 0.671559 13.9997 1.49997V22.4995C13.9997 23.328 13.3282 23.9995 12.4997 23.9995H1.49997C0.671559 23.9995 0 23.328 0 22.4995V1.49997ZM16.9997 0.99998C16.9997 0.447706 17.4474 0 17.9996 0H22.9995C23.5518 0 23.9995 0.447706 23.9995 0.99998V5.99988C23.9995 6.55215 23.5518 6.99986 22.9995 6.99986H17.9996C17.4474 6.99986 16.9997 6.55215 16.9997 5.99988V0.99998ZM16.9997 9.49981C16.9997 8.94753 17.4474 8.49983 17.9996 8.49983H22.9995C23.5518 8.49983 23.9995 8.94753 23.9995 9.49981V14.4997C23.9995 15.052 23.5518 15.4997 22.9995 15.4997H17.9996C17.4474 15.4997 16.9997 15.052 16.9997 14.4997V9.49981ZM16.9997 17.9996C16.9997 17.4474 17.4474 16.9997 17.9996 16.9997H22.9995C23.5518 16.9997 23.9995 17.4474 23.9995 17.9996V22.9995C23.9995 23.5518 23.5518 23.9995 22.9995 23.9995H17.9996C17.4474 23.9995 16.9997 23.5518 16.9997 22.9995V17.9996Z" fill="currentColor"/>
</g>
<defs>
<clipPath id="clip0_865_4309">
<rect width="24" height="24" fill="currentColor"/>
</clipPath>
</defs>
</svg>
