<svg width="24" height="24" viewBox="0 0 24 24"  xmlns="http://www.w3.org/2000/svg">
<g clip-path="url(#clip0_865_4304)">
<path fill-rule="evenodd" clip-rule="evenodd" d="M11.9998 1.49997H1.99996C1.72382 1.49997 1.49997 1.72382 1.49997 1.99996V21.9996C1.49997 22.2757 1.72382 22.4995 1.99996 22.4995H11.9998C12.2759 22.4995 12.4997 22.2757 12.4997 21.9996V1.99996C12.4997 1.72382 12.2759 1.49997 11.9998 1.49997ZM1.99996 0C0.895412 0 0 0.895412 0 1.99996V21.9996C0 23.1041 0.895412 23.9995 1.99996 23.9995H11.9998C13.1043 23.9995 13.9997 23.1041 13.9997 21.9996V1.99996C13.9997 0.895412 13.1043 0 11.9998 0H1.99996ZM22.4995 1.49997H18.4996V5.49989H22.4995V1.49997ZM18.4996 0C17.6712 0 16.9997 0.671559 16.9997 1.49997V5.49989C16.9997 6.3283 17.6712 6.99986 18.4996 6.99986H22.4995C23.328 6.99986 23.9995 6.3283 23.9995 5.49989V1.49997C23.9995 0.671559 23.328 0 22.4995 0H18.4996ZM22.4995 9.9998H18.4996V13.9997H22.4995V9.9998ZM18.4996 8.49983C17.6712 8.49983 16.9997 9.17139 16.9997 9.9998V13.9997C16.9997 14.8281 17.6712 15.4997 18.4996 15.4997H22.4995C23.328 15.4997 23.9995 14.8281 23.9995 13.9997V9.9998C23.9995 9.17139 23.328 8.49983 22.4995 8.49983H18.4996ZM22.4995 18.4996H18.4996V22.4995H22.4995V18.4996ZM18.4996 16.9997C17.6712 16.9997 16.9997 17.6712 16.9997 18.4996V22.4995C16.9997 23.328 17.6712 23.9995 18.4996 23.9995H22.4995C23.328 23.9995 23.9995 23.328 23.9995 22.4995V18.4996C23.9995 17.6712 23.328 16.9997 22.4995 16.9997H18.4996Z" fill="currentColor"/>
</g>
<defs>
<clipPath id="clip0_865_4304">
<rect width="24" height="24" fill="currentColor"/>
</clipPath>
</defs>
</svg>
