<svg width="24" height="24" viewBox="0 0 24 24"  xmlns="http://www.w3.org/2000/svg">
<g clip-path="url(#clip0_865_4293)">
<path fill-rule="evenodd" clip-rule="evenodd" d="M0 2C0 0.89543 0.895431 0 2 0H22C23.1046 0 24 0.895431 24 2V22C24 23.1046 23.1046 24 22 24H2C0.89543 24 0 23.1046 0 22V2ZM2 1.5H22C22.2761 1.5 22.5 1.72386 22.5 2V22C22.5 22.2761 22.2761 22.5 22 22.5H2C1.72386 22.5 1.5 22.2761 1.5 22V2C1.5 1.72386 1.72386 1.5 2 1.5ZM4.5 6.5C4.5 5.39543 5.39543 4.5 6.5 4.5H17.5C18.6046 4.5 19.5 5.39543 19.5 6.5V17.5C19.5 18.6046 18.6046 19.5 17.5 19.5H6.5C5.39543 19.5 4.5 18.6046 4.5 17.5V6.5ZM6.5 6H17.5C17.7761 6 18 6.22386 18 6.5V17.5C18 17.7761 17.7761 18 17.5 18H6.5C6.22386 18 6 17.7761 6 17.5V6.5C6 6.22386 6.22386 6 6.5 6Z" fill="currentColor"/>
</g>
<defs>
<clipPath id="clip0_865_4293">
<rect width="24" height="24" fill="currentColor"/>
</clipPath>
</defs>
</svg>
