<svg width="24" height="24" viewBox="0 0 24 24"  xmlns="http://www.w3.org/2000/svg">
<g clip-path="url(#clip0_865_278)">
<path fill-rule="evenodd" clip-rule="evenodd" d="M0.75 0C0.648308 0 0.551343 0.020239 0.462913 0.0569087C0.374454 0.0935086 0.291578 0.147762 0.21967 0.21967C0.0732233 0.366117 0 0.558188 0 0.75013V17.25C0 17.4778 0.103567 17.6933 0.281479 17.8357L7.78148 23.8357C8.00661 24.0158 8.31504 24.0509 8.57489 23.926C8.83474 23.8011 9 23.5383 9 23.25V8.25C9 8.05109 8.92098 7.86032 8.78033 7.71967L2.56066 1.5H12V6.75C12 7.16421 12.3358 7.5 12.75 7.5C13.1642 7.5 13.5 7.16421 13.5 6.75V0.75C13.5 0.335786 13.1642 0 12.75 0H0.75ZM1.5 16.8895V2.56066L7.5 8.56066V21.6895L1.5 16.8895Z" fill="currentColor"/>
<path d="M19.2803 7.71967C18.9874 7.42678 18.5126 7.42678 18.2197 7.71967C17.9268 8.01256 17.9268 8.48744 18.2197 8.78033L21.4393 12H12.75C12.3358 12 12 12.3358 12 12.75C12 13.1642 12.3358 13.5 12.75 13.5H21.4393L18.2197 16.7197C17.9268 17.0126 17.9268 17.4874 18.2197 17.7803C18.5126 18.0732 18.9874 18.0732 19.2803 17.7803L23.7803 13.2803C23.9268 13.1339 24 12.9419 24 12.75C24 12.6483 23.9798 12.5513 23.9431 12.4629C23.9065 12.3745 23.8522 12.2916 23.7803 12.2197L19.2803 7.71967Z" fill="currentColor"/>
</g>
<defs>
<clipPath id="clip0_865_278">
<rect width="24" height="24" fill="currentColor"/>
</clipPath>
</defs>
</svg>
