<svg width="24" height="24" viewBox="0 0 24 24"  xmlns="http://www.w3.org/2000/svg">
<path fill-rule="evenodd" clip-rule="evenodd" d="M12 1C12.405 1 12.7334 1.32832 12.7334 1.73333V3.2C12.7334 3.60501 12.405 3.93333 12 3.93333C11.595 3.93333 11.2667 3.60501 11.2667 3.2V1.73333C11.2667 1.32832 11.595 1 12 1ZM19.7784 4.22118C20.0648 4.50757 20.0648 4.97189 19.7784 5.25827L18.7415 6.29521C18.4551 6.58159 17.9908 6.58159 17.7044 6.29521C17.418 6.00882 17.418 5.5445 17.7044 5.25812L18.7413 4.22118C19.0277 3.9348 19.492 3.9348 19.7784 4.22118ZM20.0666 12C20.0666 11.595 20.3949 11.2667 20.7999 11.2667H22.2666C22.6716 11.2667 22.9999 11.595 22.9999 12C22.9999 12.405 22.6716 12.7334 22.2666 12.7334H20.7999C20.3949 12.7334 20.0666 12.405 20.0666 12ZM17.7044 17.7049C17.9908 17.4185 18.4551 17.4185 18.7415 17.7049L19.7784 18.7418C20.0648 19.0282 20.0648 19.4925 19.7784 19.7789C19.492 20.0653 19.0277 20.0653 18.7413 19.7789L17.7044 18.742C17.418 18.4556 17.418 17.9913 17.7044 17.7049ZM12 20.0668C12.405 20.0668 12.7334 20.3951 12.7334 20.8001V22.2668C12.7334 22.6718 12.405 23.0001 12 23.0001C11.595 23.0001 11.2667 22.6718 11.2667 22.2668V20.8001C11.2667 20.3951 11.595 20.0668 12 20.0668ZM6.29568 17.7049C6.58206 17.9913 6.58206 18.4556 6.29568 18.742L5.25875 19.7789C4.97236 20.0653 4.50804 20.0653 4.22166 19.7789C3.93527 19.4925 3.93527 19.0282 4.22166 18.7418L5.25859 17.7049C5.54497 17.4185 6.0093 17.4185 6.29568 17.7049ZM1 12C1 11.595 1.32832 11.2667 1.73333 11.2667H3.2C3.60501 11.2667 3.93333 11.595 3.93333 12C3.93333 12.405 3.60501 12.7334 3.2 12.7334H1.73333C1.32832 12.7334 1 12.405 1 12ZM4.22166 4.22118C4.50804 3.9348 4.97236 3.9348 5.25875 4.22118L6.29568 5.25812C6.58206 5.5445 6.58206 6.00882 6.29568 6.29521C6.0093 6.58159 5.54497 6.58159 5.25859 6.29521L4.22166 5.25827C3.93527 4.97189 3.93527 4.50757 4.22166 4.22118ZM12.0001 8.47017C10.0506 8.47017 8.47018 10.0506 8.47018 12.0001C8.47018 13.9496 10.0506 15.5299 12.0001 15.5299C13.9496 15.5299 15.53 13.9496 15.53 12.0001C15.53 10.0506 13.9496 8.47017 12.0001 8.47017ZM7.00007 12.0001C7.00007 9.23863 9.23864 7.00006 12.0001 7.00006C14.7615 7.00006 17.0001 9.23863 17.0001 12.0001C17.0001 14.7615 14.7615 17.0001 12.0001 17.0001C9.23864 17.0001 7.00007 14.7615 7.00007 12.0001Z" fill="currentColor"/>
</svg>
