<svg width="24" height="24" viewBox="0 0 24 24"  xmlns="http://www.w3.org/2000/svg">
<path d="M8.85 5.85C9.6 4.95 10.8 4.5 12 4.5C12.45 4.5 12.75 4.8 12.75 5.25C12.75 5.7 12.45 6 12 6C11.25 6 10.5 6.3 9.9 6.9C9.3 7.5 9 8.25 9 9C9 9.45 8.7 9.75 8.25 9.75C7.8 9.75 7.5 9.45 7.5 9C7.5 7.8 7.95 6.6 8.85 5.85Z" fill="currentColor"/>
<path fill-rule="evenodd" clip-rule="evenodd" d="M16.5 1.2C17.85 1.95 19.05 3.15 19.8 4.5C20.55 5.85 21 7.35 21 9C21 10.65 20.55 12.3 19.65 13.65C18.9 15 17.85 16.05 16.5 16.8V23.25C16.5 23.7 16.2 24 15.75 24H8.25C7.8 24 7.5 23.7 7.5 23.25V16.8C6.15 16.05 5.1 15 4.35 13.8C3.6 12.45 3 10.95 3 9.3C3 7.8 3.3 6.15 4.05 4.8C4.8 3.3 6 2.1 7.35 1.35C8.7 0.45 10.2 0 11.85 0C13.35 0 15 0.3 16.5 1.2ZM9 21V22.5H15V21H9ZM18.45 12.9C19.05 11.7 19.5 10.35 19.5 9C19.5 7.65 19.2 6.3 18.45 5.1C17.7 4.05 16.8 3 15.6 2.4C14.55 1.8 13.2 1.5 11.85 1.5C10.5 1.5 9.15 1.95 8.1 2.55C6.9 3.3 6 4.2 5.4 5.4C4.8 6.6 4.5 7.95 4.5 9.3C4.5 10.65 5.1 11.85 5.7 13.05C6.3 14.25 7.35 15.15 8.55 15.75C8.85 15.75 9 16.05 9 16.35V19.5H15V16.2C15 16.05 15.15 15.75 15.45 15.6C16.65 15 17.85 14.1 18.45 12.9Z" fill="currentColor"/>
</svg>
