<svg width="24" height="24" viewBox="0 0 24 24"  xmlns="http://www.w3.org/2000/svg">
<g clip-path="url(#clip0_865_7200)">
<path d="M12.5 0H11.5C10.9477 0 10.5 0.447715 10.5 1V2C10.5 2.55228 10.9477 3 11.5 3H12.5C13.0523 3 13.5 2.55228 13.5 2V1C13.5 0.447715 13.0523 0 12.5 0ZM20.7344 3.86988L20.0275 3.16248C19.637 2.77179 19.0038 2.77157 18.6132 3.16198L17.9058 3.86888C17.5151 4.25929 17.5148 4.89249 17.9053 5.28318L18.6122 5.99058C19.0026 6.38126 19.6358 6.38149 20.0265 5.99108L20.7339 5.28418C21.1245 4.89377 21.1248 4.26056 20.7344 3.86988ZM23 10.5H22C21.4477 10.5 21 10.9477 21 11.5V12.5C21 13.0523 21.4477 13.5 22 13.5H23C23.5523 13.5 24 13.0523 24 12.5V11.5C24 10.9477 23.5523 10.5 23 10.5ZM18.0101 20.2359L18.7175 20.9428C19.1082 21.3332 19.7414 21.3329 20.1318 20.9423L20.8387 20.2349C21.2291 19.8442 21.2289 19.211 20.8382 18.8206L20.1308 18.1137C19.7401 17.7232 19.1069 17.7235 18.7165 18.1142L18.0096 18.8216C17.6192 19.2122 17.6194 19.8454 18.0101 20.2359ZM12.5 21H11.5C10.9477 21 10.5 21.4477 10.5 22V23C10.5 23.5523 10.9477 24 11.5 24H12.5C13.0523 24 13.5 23.5523 13.5 23V22C13.5 21.4477 13.0523 21 12.5 21ZM3.05617 20.1301L3.76307 20.8375C4.15348 21.2282 4.78668 21.2284 5.17737 20.838L5.88477 20.1311C6.27546 19.7407 6.27568 19.1075 5.88527 18.7168L5.17837 18.0094C4.78796 17.6187 4.15476 17.6185 3.76407 18.0089L3.05667 18.7158C2.66598 19.1062 2.66576 19.7394 3.05617 20.1301ZM2 10.5H1C0.447715 10.5 0 10.9477 0 11.5V12.5C0 13.0523 0.447715 13.5 1 13.5H2C2.55228 13.5 3 13.0523 3 12.5V11.5C3 10.9477 2.55228 10.5 2 10.5ZM5.98951 3.97361L5.28211 3.26671C4.89142 2.8763 4.25822 2.87653 3.86781 3.26721L3.16091 3.97461C2.7705 4.3653 2.77072 4.9985 3.16141 5.38891L3.86881 6.09581C4.25949 6.48622 4.8927 6.486 5.28311 6.09531L5.99001 5.38791C6.38042 4.99723 6.38019 4.36402 5.98951 3.97361ZM12 6C8.7 6 6 8.7 6 12C6 15.3 8.7 18 12 18C15.3 18 18 15.3 18 12C18 8.7 15.3 6 12 6Z" fill="currentColor"/>
</g>
<defs>
<clipPath id="clip0_865_7200">
<rect width="24" height="24" fill="currentColor"/>
</clipPath>
</defs>
</svg>
