<svg width="24" height="24" viewBox="0 0 24 24"  xmlns="http://www.w3.org/2000/svg">
<path d="M22.7699 2.3413C23.0767 2.03446 23.0767 1.53697 22.7699 1.23013C22.463 0.92329 21.9655 0.92329 21.6587 1.23013L13.8016 9.08727C13.4947 9.39411 13.4947 9.8916 13.8016 10.1984C14.1084 10.5053 14.6059 10.5053 14.9127 10.1984L22.7699 2.3413ZM15.6492 4.09147C16.0538 4.24591 16.5073 4.04378 16.6627 3.63932C16.8054 3.26825 16.6472 2.85544 16.3083 2.66908C16.2347 2.62168 15.7782 2.48619 15.5592 2.42437C15.1723 2.32546 14.6301 2.21676 14.011 2.18038C12.7876 2.1085 11.1457 2.31559 9.87376 3.58753L3.58804 9.87325C2.3161 11.1452 2.10901 12.7871 2.18089 14.0104C2.21727 14.6296 2.32597 15.1718 2.42488 15.5586C2.47458 15.753 2.52243 15.9106 2.55877 16.022C2.5791 16.0844 2.6002 16.1467 2.62346 16.208L2.62452 16.2108C2.78022 16.6158 3.23479 16.8179 3.63983 16.6622C3.99797 16.5246 4.19733 16.1528 4.13106 15.7886C4.12241 15.7411 4.10924 15.6937 4.09131 15.6469C4.03524 15.4902 3.98856 15.3306 3.94734 15.1694C3.86628 14.8523 3.77864 14.4123 3.74961 13.9183C3.69068 12.9152 3.87644 11.8072 4.69921 10.9844L10.9849 4.6987C11.8077 3.87593 12.9158 3.69016 13.9188 3.7491C14.4128 3.77813 14.8528 3.86577 15.1699 3.94683C15.3275 3.98713 15.4523 4.02517 15.5353 4.05224C15.5768 4.06575 15.6076 4.07647 15.6267 4.08328L15.6463 4.09041L15.6479 4.09099L15.6492 4.09147ZM21.8198 9.98967C21.7834 9.37054 21.6747 8.82835 21.5758 8.44146C21.5376 8.2637 21.44 7.87447 21.3551 7.73966C21.1826 7.36805 20.9048 7.18095 20.3608 7.33788C19.9743 7.49524 19.7524 7.80922 19.9098 8.35428C19.9098 8.35428 20.0123 8.67018 20.0533 8.83071C20.1344 9.14777 20.222 9.58782 20.2511 10.0819C20.31 11.0849 20.1242 12.1929 19.3015 13.0157L13.0158 19.3014C12.193 20.1242 11.0849 20.3099 10.0819 20.251C9.58788 20.222 9.14783 20.1343 8.83076 20.0533C8.67315 20.013 8.54837 19.9749 8.46537 19.9479C8.42393 19.9344 8.39309 19.9236 8.37399 19.9168L8.35434 19.9097L8.35276 19.9091L8.35152 19.9086C7.94692 19.7542 7.49342 19.9563 7.33794 20.3608C7.09378 20.996 8.00222 21.4634 8.44152 21.5757C8.82841 21.6747 9.3706 21.7833 9.98973 21.8197C11.213 21.8916 12.855 21.6845 14.1269 20.4126L20.4126 14.1269C21.6846 12.8549 21.8917 11.213 21.8198 9.98967ZM10.1984 13.8016C10.5053 14.1084 10.5053 14.6059 10.1984 14.9127L2.3413 22.7699C2.03446 23.0767 1.53697 23.0767 1.23013 22.7699C0.92329 22.463 0.92329 21.9655 1.23013 21.6587L9.08727 13.8016C9.39411 13.4947 9.8916 13.4947 10.1984 13.8016Z" fill="currentColor"/>
</svg>
