<svg width="24" height="24" viewBox="0 0 24 24"  xmlns="http://www.w3.org/2000/svg">
<g clip-path="url(#clip0_865_5177)">
<path d="M14.1667 10.2472C14.4134 10.4121 14.7033 10.5001 14.9999 10.5001C15.3977 10.5 15.7792 10.3419 16.0604 10.0606L23.5604 2.56062C23.8337 2.27772 23.9849 1.89882 23.9814 1.50552C23.978 1.11223 23.8203 0.736007 23.5422 0.457895C23.264 0.179782 22.8878 0.022029 22.4945 0.0186114C22.1012 0.0151938 21.7223 0.166385 21.4394 0.439622L13.9394 7.93962C13.7297 8.1494 13.5869 8.41665 13.529 8.70757C13.4712 8.9985 13.5009 9.30005 13.6144 9.5741C13.7279 9.84815 13.9201 10.0824 14.1667 10.2472ZM3.73201 13.9035L1.44901 16.188L0.871512 14.841C0.784513 14.619 -0.719987 10.596 1.93951 7.93948L7.98451 1.89448C10.65 -0.766525 14.6655 0.736475 14.835 0.802475L16.2345 1.40248L13.9515 3.68698L13.707 3.58198C13.707 3.58198 13.7051 3.58136 13.7012 3.58008C13.5725 3.53701 11.3334 2.78756 10.107 4.01398L4.06201 10.059C2.78551 11.3355 3.64051 13.6875 3.64951 13.7115L3.73201 13.9035ZM0.666737 23.7472C0.913352 23.9121 1.2033 24.0001 1.49992 24.0001C1.89772 24 2.27919 23.8419 2.56042 23.5606L10.0604 16.0606C10.3337 15.7777 10.4849 15.3988 10.4814 15.0055C10.478 14.6122 10.3203 14.236 10.0422 13.9579C9.76404 13.6798 9.38782 13.522 8.99453 13.5186C8.60123 13.5152 8.22233 13.6664 7.93942 13.9396L0.439425 21.4396C0.22971 21.6494 0.0869007 21.9166 0.0290494 22.2076C-0.028802 22.4985 0.000902496 22.8001 0.114408 23.0741C0.227913 23.3482 0.420122 23.5824 0.666737 23.7472ZM7.81201 22.5516L10.0965 20.2687L10.2885 20.3512C10.3125 20.3601 12.6645 21.2151 13.941 19.9386L19.986 13.8936C21.2124 12.6672 20.463 10.4282 20.4199 10.2995C20.4186 10.2956 20.418 10.2936 20.418 10.2936L20.313 10.0491L22.5975 7.76465L23.1975 9.16415C23.2635 9.33365 24.7665 13.3551 22.1055 16.0146L16.0605 22.0597C13.404 24.7191 9.38101 23.2146 9.16051 23.1276L7.81201 22.5516Z" fill="currentColor"/>
</g>
<defs>
<clipPath id="clip0_865_5177">
<rect width="24" height="24" fill="currentColor"/>
</clipPath>
</defs>
</svg>
