<svg width="24" height="24" viewBox="0 0 24 24"  xmlns="http://www.w3.org/2000/svg">
<path d="M22.7699 1.23013C23.0767 1.53697 23.0767 2.03446 22.7699 2.3413L14.9127 10.1984C14.6059 10.5053 14.1084 10.5053 13.8016 10.1984C13.4947 9.8916 13.4947 9.39411 13.8016 9.08727L21.6587 1.23013C21.9655 0.92329 22.463 0.92329 22.7699 1.23013ZM16.6627 3.63932C16.5073 4.04378 16.0538 4.24591 15.6492 4.09147L15.6479 4.09099L15.6463 4.09041L15.6267 4.08328C15.6076 4.07647 15.5768 4.06575 15.5353 4.05224C15.4523 4.02517 15.3275 3.98713 15.1699 3.94683C14.8528 3.86577 14.4128 3.77813 13.9188 3.7491C12.9158 3.69016 11.8077 3.87593 10.9849 4.6987L4.69921 10.9844C3.87644 11.8072 3.69068 12.9152 3.74961 13.9183C3.77864 14.4123 3.86628 14.8523 3.94734 15.1694C3.98856 15.3306 4.03524 15.4902 4.09131 15.6469C4.10924 15.6937 4.12241 15.7411 4.13106 15.7886C4.19733 16.1528 3.99797 16.5246 3.63983 16.6622C3.23479 16.8179 2.78022 16.6158 2.62452 16.2108L2.62346 16.208C2.6002 16.1467 2.5791 16.0844 2.55877 16.022C2.52243 15.9106 2.47458 15.753 2.42488 15.5586C2.32597 15.1718 2.21727 14.6296 2.18089 14.0104C2.10901 12.7871 2.3161 11.1452 3.58804 9.87325L9.87376 3.58753C11.1457 2.31559 12.7876 2.1085 14.011 2.18038C14.6301 2.21676 15.1723 2.32546 15.5592 2.42437C15.7782 2.48619 16.2347 2.62168 16.3083 2.66908C16.6472 2.85544 16.8054 3.26825 16.6627 3.63932ZM21.8198 9.98967C21.7834 9.37054 21.6747 8.82835 21.5758 8.44146C21.5376 8.2637 21.44 7.87447 21.3551 7.73966C21.1826 7.36805 20.9048 7.18095 20.3608 7.33788C19.9743 7.49524 19.7524 7.80922 19.9098 8.35428C19.9098 8.35428 20.0123 8.67018 20.0533 8.83071C20.1344 9.14777 20.222 9.58782 20.2511 10.0819C20.31 11.0849 20.1242 12.1929 19.3015 13.0157L13.0158 19.3014C12.193 20.1242 11.0849 20.3099 10.0819 20.251C9.58788 20.222 9.14783 20.1343 8.83076 20.0533C8.67315 20.013 8.54837 19.9749 8.46537 19.9479C8.42393 19.9344 8.39309 19.9236 8.37399 19.9168L8.35434 19.9097L8.35276 19.9091L8.35152 19.9086C7.94692 19.7542 7.49342 19.9563 7.33794 20.3608C7.09378 20.996 8.00222 21.4634 8.44152 21.5757C8.82841 21.6747 9.3706 21.7833 9.98973 21.8197C11.213 21.8916 12.855 21.6845 14.1269 20.4126L20.4126 14.1269C21.6846 12.8549 21.8917 11.213 21.8198 9.98967ZM10.1984 14.9127C10.5053 14.6059 10.5053 14.1084 10.1984 13.8016C9.8916 13.4947 9.39411 13.4947 9.08727 13.8016L1.23013 21.6587C0.92329 21.9655 0.92329 22.463 1.23013 22.7699C1.53697 23.0767 2.03446 23.0767 2.3413 22.7699L10.1984 14.9127ZM20.5 17C20.9142 17 21.25 17.3134 21.25 17.7V19.75H23.3C23.6866 19.75 24 20.0858 24 20.5C24 20.9142 23.6866 21.25 23.3 21.25H21.25V23.3C21.25 23.6866 20.9142 24 20.5 24C20.0858 24 19.75 23.6866 19.75 23.3V21.25H17.7C17.3134 21.25 17 20.9142 17 20.5C17 20.0858 17.3134 19.75 17.7 19.75H19.75V17.7C19.75 17.3134 20.0858 17 20.5 17Z" fill="currentColor"/>
</svg>
