<svg width="24" height="24" viewBox="0 0 24 24"  xmlns="http://www.w3.org/2000/svg">
<path d="M1 4H23C23.2652 4 23.5196 3.89464 23.7071 3.70711C23.8946 3.51957 24 3.26522 24 3C24 2.73478 23.8946 2.48043 23.7071 2.29289C23.5196 2.10536 23.2652 2 23 2H1C0.734784 2 0.48043 2.10536 0.292893 2.29289C0.105357 2.48043 0 2.73478 0 3C0 3.26522 0.105357 3.51957 0.292893 3.70711C0.48043 3.89464 0.734784 4 1 4ZM23 10H1C0.734784 10 0.48043 9.89464 0.292893 9.70711C0.105357 9.51957 0 9.26522 0 9C0 8.73478 0.105357 8.48043 0.292893 8.29289C0.48043 8.10536 0.734784 8 1 8H23C23.2652 8 23.5196 8.10536 23.7071 8.29289C23.8946 8.48043 24 8.73478 24 9C24 9.26522 23.8946 9.51957 23.7071 9.70711C23.5196 9.89464 23.2652 10 23 10ZM23.375 13H14.625C14.25 13 14 13.225 14 13.5625V14.6875C14 14.8562 14.0625 15.025 14.25 15.1375L17.75 17.7812V21.4375C17.75 21.6625 17.875 21.8875 18.125 21.9438C18.1875 22 18.3125 22 18.375 22C18.5625 22 18.6875 21.9438 18.8125 21.8312L20.0625 20.7062C20.1875 20.5938 20.25 20.4813 20.25 20.3125V17.7812L23.75 15.1375C23.9375 15.025 24 14.8562 24 14.6875V13.5625C24 13.225 23.75 13 23.375 13ZM10.8 16H1.2C0.88174 16 0.576516 15.8946 0.351472 15.7071C0.126428 15.5196 0 15.2652 0 15C0 14.7348 0.126428 14.4804 0.351472 14.2929C0.576516 14.1054 0.88174 14 1.2 14H10.8C11.1183 14 11.4235 14.1054 11.6485 14.2929C11.8736 14.4804 12 14.7348 12 15C12 15.2652 11.8736 15.5196 11.6485 15.7071C11.4235 15.8946 11.1183 16 10.8 16ZM1.2 22H10.8C11.1183 22 11.4235 21.8946 11.6485 21.7071C11.8736 21.5196 12 21.2652 12 21C12 20.7348 11.8736 20.4804 11.6485 20.2929C11.4235 20.1054 11.1183 20 10.8 20H1.2C0.88174 20 0.576516 20.1054 0.351472 20.2929C0.126428 20.4804 0 20.7348 0 21C0 21.2652 0.126428 21.5196 0.351472 21.7071C0.576516 21.8946 0.88174 22 1.2 22Z" fill="currentColor"/>
</svg>
