<svg width="24" height="24" viewBox="0 0 24 24"  xmlns="http://www.w3.org/2000/svg">
<path d="M6 19.5H1.5C0.672 19.5 0 18.828 0 18C0 17.172 0.672 16.5 1.5 16.5H6V19.5ZM22.5 4.5H1.5C0.672 4.5 0 3.828 0 3C0 2.172 0.672 1.5 1.5 1.5H22.5C23.328 1.5 24 2.172 24 3C24 3.828 23.328 4.5 22.5 4.5ZM6 12H1.5C0.672 12 0 11.328 0 10.5C0 9.672 0.672 9 1.5 9H6V12ZM23.0625 9H9.9375C9.375 9 9 9.35 9 9.875V11.625C9 11.8875 9.09375 12.15 9.375 12.325L14.625 16.4375V22.125C14.625 22.475 14.8125 22.825 15.1875 22.9125C15.2812 23 15.4688 23 15.5625 23C15.8438 23 16.0312 22.9125 16.2188 22.7375L18.0938 20.9875C18.2812 20.8125 18.375 20.6375 18.375 20.375V16.4375L23.625 12.325C23.9062 12.15 24 11.8875 24 11.625V9.875C24 9.35 23.625 9 23.0625 9Z" fill="currentColor"/>
</svg>
