<svg width="24" height="24" viewBox="0 0 24 24"  xmlns="http://www.w3.org/2000/svg">
<path d="M0 3C0 2.55 0.3 2.25 0.75 2.25H23.25C23.7 2.25 24 2.55 24 3V6C24 6.45 23.7 6.75 23.25 6.75H0.75C0.3 6.75 0 6.45 0 6V3ZM1.5 3.75V5.25H22.5V3.75H1.5ZM0 10.5C0 10.05 0.3 9.75 0.75 9.75H23.25C23.7 9.75 24 10.05 24 10.5V13.5C24 13.95 23.7 14.25 23.25 14.25H0.75C0.3 14.25 0 13.95 0 13.5V10.5ZM1.5 11.25V12.75H22.5V11.25H1.5ZM0.75 17.25C0.3 17.25 0 17.55 0 18V21C0 21.45 0.3 21.75 0.75 21.75H23.25C23.7 21.75 24 21.45 24 21V18C24 17.55 23.7 17.25 23.25 17.25H0.75ZM1.5 20.25V18.75H22.5V20.25H1.5Z" fill="currentColor"/>
</svg>
