<svg width="24" height="24" viewBox="0 0 24 24"  xmlns="http://www.w3.org/2000/svg">
<g clip-path="url(#clip0_865_5415)">
<path d="M24 1.25C24 0.973858 23.7761 0.75 23.5 0.75H0.5C0.223857 0.75 0 0.973858 0 1.25V4.75C0 5.02614 0.223858 5.25 0.5 5.25H23.5C23.7761 5.25 24 5.02614 24 4.75V1.25ZM24 10.25C24 9.97386 23.7761 9.75 23.5 9.75H0.5C0.223857 9.75 0 9.97386 0 10.25V13.75C0 14.0261 0.223858 14.25 0.5 14.25H23.5C23.7761 14.25 24 14.0261 24 13.75V10.25ZM0 19.25C0 18.9739 0.223858 18.75 0.5 18.75H23.5C23.7761 18.75 24 18.9739 24 19.25V22.75C24 23.0261 23.7761 23.25 23.5 23.25H0.5C0.223857 23.25 0 23.0261 0 22.75V19.25Z" fill="currentColor"/>
</g>
<defs>
<clipPath id="clip0_865_5415">
<rect width="24" height="24" fill="currentColor"/>
</clipPath>
</defs>
</svg>
