<svg width="24" height="24" viewBox="0 0 24 24"  xmlns="http://www.w3.org/2000/svg">
<g clip-path="url(#clip0_865_5409)">
<path d="M0.552235 5.17672V5.99988H4.20867V5.17674L3.35445 5.10386C3.19796 5.09369 3.18779 5.06261 3.18779 4.89595V0H0.687832L0.573144 0.854218L1.47932 1.04179C1.58384 1.07285 1.61492 1.13557 1.61492 1.26042V4.89593C1.61492 5.05187 1.59402 5.09367 1.44826 5.10384L0.552235 5.17672ZM7.49985 1.99996C7.49985 1.72382 7.7237 1.49997 7.99984 1.49997H23.4995C23.7757 1.49997 23.9995 1.72382 23.9995 1.99996V3.99992C23.9995 4.27606 23.7757 4.49991 23.4995 4.49991H7.99984C7.7237 4.49991 7.49985 4.27606 7.49985 3.99992V1.99996ZM7.49985 10.9998C7.49985 10.7236 7.7237 10.4998 7.99984 10.4998H23.4995C23.7757 10.4998 23.9995 10.7236 23.9995 10.9998V12.9997C23.9995 13.2759 23.7757 13.4997 23.4995 13.4997H7.99984C7.7237 13.4997 7.49985 13.2759 7.49985 12.9997V10.9998ZM23.9995 19.9996C23.9995 19.7235 23.7757 19.4996 23.4995 19.4996H7.99984C7.7237 19.4996 7.49985 19.7235 7.49985 19.9996V21.9996C7.49985 22.2757 7.7237 22.4995 7.99984 22.4995H23.4995C23.7757 22.4995 23.9995 22.2757 23.9995 21.9996V19.9996ZM0.0710236 14.9997V14.0554L1.43156 12.7257L1.52127 12.6387C2.4823 11.7066 2.8934 11.3078 2.8934 10.7463C2.8934 10.3703 2.7106 10.0966 2.17266 10.0966C1.6138 10.0966 1.38035 10.2794 1.38035 11.0001L0 10.8779C0.0099148 9.26411 1.2383 8.99982 2.30425 8.99982C3.87787 8.99982 4.43618 9.6699 4.43618 10.6241C4.43618 11.576 3.78046 12.2044 3.04201 12.9121L3.03544 12.9184L1.88801 14.0152H3.38069C3.482 14.0152 3.52274 13.9949 3.54312 13.893L3.68517 13.0913H4.76104V14.9997H0.0710236ZM4.83551 22.0617C4.83551 21.1627 4.36626 20.6534 3.51663 20.5233L3.5166 20.4832C4.14625 20.2936 4.66588 19.7642 4.66588 18.9249C4.66588 17.8558 4.07635 17.2663 2.53802 17.2663C1.489 17.2663 0.300174 17.5361 0.300174 19.1145L1.6689 19.2348C1.6689 18.5255 1.92844 18.3456 2.46758 18.3456C3.02731 18.3456 3.19692 18.655 3.19692 19.0349C3.19692 19.6743 2.80733 20.0237 2.08829 20.1137L1.59846 20.1739V21.1725C1.89865 21.1226 2.0883 21.1026 2.33809 21.1026C2.95743 21.1026 3.33727 21.3524 3.33727 21.962C3.33727 22.6615 2.85773 22.8609 2.298 22.8609C1.59846 22.8609 1.17907 22.5716 0.799229 22.202L0 23.0809C0.509885 23.6406 1.40882 23.9999 2.41776 23.9999C3.84663 23.9999 4.8355 23.3805 4.83551 22.0617Z" fill="currentColor"/>
</g>
<defs>
<clipPath id="clip0_865_5409">
<rect width="24" height="24" fill="currentColor"/>
</clipPath>
</defs>
</svg>
