<svg width="24" height="24" viewBox="0 0 24 24"  xmlns="http://www.w3.org/2000/svg">
<path fill-rule="evenodd" clip-rule="evenodd" d="M9 16.5C9 14.85 10.35 13.5 12 13.5C13.65 13.5 15 14.85 15 16.5C15 18.15 13.65 19.5 12 19.5C10.35 19.5 9 18.15 9 16.5ZM10.5 16.5C10.5 17.4 11.1 18 12 18C12.9 18 13.5 17.4 13.5 16.5C13.5 15.6 12.9 15 12 15C11.1 15 10.5 15.6 10.5 16.5ZM18 9H20.25C21.45 9 22.5 10.05 22.5 11.25V21.75C22.5 22.95 21.45 24 20.25 24H3.75C2.55 24 1.5 22.95 1.5 21.75V11.25C1.5 10.05 2.55 9 3.75 9H6V6C6 2.7 8.7 0 12 0C15.3 0 18 2.7 18 6V9ZM12 1.5C9.45 1.5 7.5 3.45 7.5 6V9H16.5V6C16.5 3.45 14.55 1.5 12 1.5ZM20.25 22.5C20.7 22.5 21 22.2 21 21.75V11.25C21 10.8 20.7 10.5 20.25 10.5H3.75C3.3 10.5 3 10.8 3 11.25V21.75C3 22.2 3.3 22.5 3.75 22.5H20.25Z" fill="currentColor"/>
</svg>
