<svg width="24" height="24" viewBox="0 0 24 24"  xmlns="http://www.w3.org/2000/svg">
<g clip-path="url(#clip0_865_4616)">
<path d="M3.75 0C3.33579 0 3 0.335786 3 0.75V7.5C3 7.91421 3.33579 8.25 3.75 8.25C4.16421 8.25 4.5 7.91421 4.5 7.5V1.5H19.5V7.5C19.5 7.91421 19.8358 8.25 20.25 8.25C20.6642 8.25 21 7.91421 21 7.5V0.75C21 0.335786 20.6642 0 20.25 0H3.75Z" fill="currentColor"/>
<path fill-rule="evenodd" clip-rule="evenodd" d="M1.10294 9.08824C0.870488 8.96426 0.590032 8.97134 0.364128 9.10688C0.138224 9.24242 0 9.48655 0 9.75V21.75C0 22.9922 1.00779 24 2.25 24H21.75C22.9922 24 24 22.9922 24 21.75V9.75C24 9.48655 23.8618 9.24242 23.6359 9.10688C23.41 8.97134 23.1295 8.96426 22.8971 9.08824L12 14.9L1.10294 9.08824ZM1.5 21.75V11L11.6471 16.4118C11.8676 16.5294 12.1324 16.5294 12.3529 16.4118L22.5 11V21.75C22.5 22.1638 22.1638 22.5 21.75 22.5H2.25C1.83621 22.5 1.5 22.1638 1.5 21.75Z" fill="currentColor"/>
<path d="M7.5 5.25C7.5 4.83579 7.83579 4.5 8.25 4.5H15.75C16.1642 4.5 16.5 4.83579 16.5 5.25C16.5 5.66421 16.1642 6 15.75 6H8.25C7.83579 6 7.5 5.66421 7.5 5.25ZM8.25 9C7.83579 9 7.5 9.33579 7.5 9.75C7.5 10.1642 7.83579 10.5 8.25 10.5H15.75C16.1642 10.5 16.5 10.1642 16.5 9.75C16.5 9.33579 16.1642 9 15.75 9H8.25Z" fill="currentColor"/>
</g>
<defs>
<clipPath id="clip0_865_4616">
<rect width="24" height="24" fill="currentColor"/>
</clipPath>
</defs>
</svg>
