<svg width="24" height="24" viewBox="0 0 24 24"  xmlns="http://www.w3.org/2000/svg">
<path d="M22.7852 1.22459C22.8547 1.29535 22.9073 1.37646 22.9431 1.46291C22.9798 1.55134 23 1.64831 23 1.75V9.75C23 10.1642 22.6642 10.5 22.25 10.5C21.8358 10.5 21.5 10.1642 21.5 9.75V3.56066L15.2803 9.78033C14.9874 10.0732 14.5126 10.0732 14.2197 9.78033C13.9268 9.48744 13.9268 9.01256 14.2197 8.71967L20.4393 2.5H14.25C13.8358 2.5 13.5 2.16421 13.5 1.75C13.5 1.33579 13.8358 1 14.25 1H22.2499C22.4546 1 22.6401 1.08194 22.7754 1.2148L22.7852 1.22459ZM1.46291 1.05691C1.37511 1.09324 1.2928 1.14696 1.22126 1.21808L1.21808 1.22126C1.08329 1.35686 1 1.5437 1 1.75V9.75C1 10.1642 1.33579 10.5 1.75 10.5C2.16421 10.5 2.5 10.1642 2.5 9.75V3.56066L8.71967 9.78033C9.01256 10.0732 9.48744 10.0732 9.78033 9.78033C10.0732 9.48744 10.0732 9.01256 9.78033 8.71967L3.56066 2.5H9.75C10.1642 2.5 10.5 2.16421 10.5 1.75C10.5 1.33579 10.1642 1 9.75 1H1.75013C1.64844 1 1.55134 1.02024 1.46291 1.05691ZM22.7852 22.7754C22.8547 22.7047 22.9073 22.6235 22.9431 22.5371C22.9798 22.4487 23 22.3517 23 22.25V14.25C23 13.8358 22.6642 13.5 22.25 13.5C21.8358 13.5 21.5 13.8358 21.5 14.25V20.4393L15.2803 14.2197C14.9874 13.9268 14.5126 13.9268 14.2197 14.2197C13.9268 14.5126 13.9268 14.9874 14.2197 15.2803L20.4393 21.5H14.25C13.8358 21.5 13.5 21.8358 13.5 22.25C13.5 22.6642 13.8358 23 14.25 23H22.2499C22.4546 23 22.6401 22.9181 22.7754 22.7852L22.7852 22.7754ZM1.46291 22.9431C1.37511 22.9068 1.2928 22.853 1.22126 22.7819L1.21808 22.7787C1.08329 22.6431 1 22.4563 1 22.25V14.25C1 13.8358 1.33579 13.5 1.75 13.5C2.16421 13.5 2.5 13.8358 2.5 14.25V20.4393L8.71967 14.2197C9.01256 13.9268 9.48744 13.9268 9.78033 14.2197C10.0732 14.5126 10.0732 14.9874 9.78033 15.2803L3.56066 21.5H9.75C10.1642 21.5 10.5 21.8358 10.5 22.25C10.5 22.6642 10.1642 23 9.75 23H1.75013C1.64844 23 1.55134 22.9798 1.46291 22.9431Z" fill="currentColor"/>
</svg>
