<svg width="24" height="24" viewBox="0 0 24 24"  xmlns="http://www.w3.org/2000/svg">
<g clip-path="url(#clip0_865_295)">
<path d="M4.2 6.3L0 10.5V0H10.5L6.3 4.2L10.05 7.95L7.95 10.05L4.2 6.3ZM17.7 4.2L13.5 0H24V10.5L19.8 6.3L16.05 10.05L13.95 7.95L17.7 4.2ZM10.05 16.05L7.95 13.95L4.2 17.7L0 13.5V24H10.5L6.3 19.8L10.05 16.05ZM13.95 16.05L16.05 13.95L19.8 17.7L24 13.5V24H13.5L17.7 19.8L13.95 16.05Z" fill="currentColor"/>
</g>
<defs>
<clipPath id="clip0_865_295">
<rect width="24" height="24" fill="currentColor"/>
</clipPath>
</defs>
</svg>
