<svg width="24" height="24" viewBox="0 0 24 24"  xmlns="http://www.w3.org/2000/svg">
<path d="M10.6604 2.1059C12.2796 0.48666 14.9049 0.486688 16.5241 2.1059C17.3519 2.93365 17.7556 4.02402 17.7371 5.10873C18.8223 5.0898 19.9136 5.49446 20.7417 6.32261H20.7427L20.7854 6.36628L20.9328 6.52097C22.4033 8.14869 22.3541 10.6614 20.7854 12.23L13.2783 19.7362L14.7242 21.1821C15.1789 21.637 15.179 22.3743 14.7242 22.8291C14.2694 23.2837 13.532 23.2837 13.0772 22.8291L11.5112 21.2631C10.6683 20.4201 10.6683 19.0532 11.5112 18.2102L19.1384 10.583L19.2631 10.4447C19.845 9.7311 19.8035 8.67851 19.1384 8.01329L19.0947 7.96961L18.9564 7.84495C18.2427 7.26291 17.1903 7.30438 16.525 7.96961L10.2436 14.251C10.2409 14.2537 10.2373 14.2556 10.2345 14.2583L10.1554 14.3384C9.7005 14.7929 8.96313 14.7931 8.50837 14.3384C8.0538 13.8836 8.0539 13.1462 8.50837 12.6913L14.8771 6.32261C15.5867 5.61303 15.5867 4.46247 14.8771 3.75291C14.1676 3.04349 13.017 3.04335 12.3074 3.75291L3.874 12.1863C3.41912 12.6408 2.68173 12.641 2.22699 12.1863C1.77236 11.7316 1.77252 10.9942 2.22699 10.5393L10.6604 2.1059ZM12.7688 4.21334C13.2234 3.75868 13.9609 3.75905 14.4158 4.21334C14.8706 4.6682 14.8706 5.40549 14.4158 5.86035L8.17897 12.0981C7.46962 12.8075 7.46978 13.9581 8.17897 14.6678C8.88855 15.377 10.0392 15.3771 10.7487 14.6678L16.9855 8.43005C17.4402 7.97532 18.1785 7.97559 18.6334 8.43005C19.0879 8.88483 19.0879 9.62225 18.6334 10.0771L12.3957 16.3148C10.7765 17.9338 8.15125 17.9337 6.53196 16.3148C4.91312 14.6954 4.91287 12.0702 6.53196 10.451L12.7688 4.21334Z" fill="currentColor"/>
</svg>
