<svg width="24" height="24" viewBox="0 0 24 24"  xmlns="http://www.w3.org/2000/svg">
<path d="M10.9444 1.96909C12.4516 0.462017 14.8952 0.461913 16.4022 1.96909C17.3116 2.87861 17.6706 4.12884 17.4823 5.30865C18.6016 5.12955 19.7844 5.44449 20.6797 6.25327L20.8238 6.39067L20.8706 6.43647H20.8696C22.3767 7.94367 22.3768 10.3871 20.8696 11.8943L12.8718 19.892C12.7512 20.0129 12.7511 20.2093 12.8718 20.33L14.514 21.9721C14.7999 22.2583 14.8 22.7222 14.514 23.0083C14.2278 23.2943 13.7639 23.2943 13.4777 23.0083L11.8356 21.3662C11.1425 20.6731 11.1426 19.549 11.8356 18.8558L19.8334 10.858C20.7098 9.98171 20.7642 8.59515 19.9975 7.65493L19.8334 7.47268L19.7876 7.42593V7.42688C18.853 6.49229 17.3381 6.49187 16.4032 7.42593L9.72407 14.1051C9.43801 14.3911 8.97405 14.3909 8.68785 14.1051C8.40174 13.8189 8.4017 13.355 8.68785 13.0688L15.366 6.39067C16.3007 5.45594 16.3005 3.94012 15.366 3.0053C14.4313 2.07053 12.9155 2.07056 11.9807 3.0053L3.13749 11.8485C2.85144 12.1345 2.38747 12.1343 2.10127 11.8485C1.81511 11.5623 1.81513 11.0984 2.10127 10.8122L10.9444 1.96909ZM13.1543 4.17892C13.4402 3.89295 13.9043 3.89335 14.1905 4.17892C14.4767 4.4651 14.4767 4.92897 14.1905 5.21514L7.65067 11.7559C6.7161 12.6906 6.71627 14.2064 7.65067 15.1413C8.5855 16.0757 10.1013 16.0758 11.036 15.1413L17.5759 8.6005C17.8619 8.31447 18.3268 8.31475 18.613 8.6005C18.8989 8.88659 18.8988 9.35059 18.613 9.63672L12.0723 16.1775C10.5651 17.6844 8.12163 17.6843 6.61446 16.1775C5.10775 14.6703 5.10752 12.2268 6.61446 10.7197L13.1543 4.17892Z" fill="currentColor"/>
</svg>
