<svg width="25" height="24" viewBox="0 0 25 24"  xmlns="http://www.w3.org/2000/svg">
<g clip-path="url(#clip0_865_6797)">
<path fill-rule="evenodd" clip-rule="evenodd" d="M0.21967 0.46967C0.512563 0.176777 0.987437 0.176777 1.28033 0.46967L1.81221 1.00155C1.94265 1 2.08878 1 2.25001 1H22.25C23.3546 1 24.25 1.89543 24.25 3V18C24.25 19.1046 23.3546 20 22.25 20H20.8107L23.2803 22.4697C23.5732 22.7626 23.5732 23.2374 23.2803 23.5303C22.9874 23.8232 22.5126 23.8232 22.2197 23.5303L0.21967 1.53033C-0.0732233 1.23744 -0.0732233 0.762563 0.21967 0.46967ZM8.25 7.43934L3.31066 2.5H22.25C22.5262 2.5 22.75 2.72386 22.75 3V18C22.75 18.2761 22.5262 18.5 22.25 18.5H19.3107L13.8117 13.001L16.8953 11.1201C17.1159 10.9865 17.25 10.7522 17.25 10.5002C17.25 10.2481 17.1159 10.0139 16.8953 9.88028L9.40472 5.31131C9.17206 5.17047 8.87882 5.16301 8.63885 5.29184C8.39889 5.42066 8.25 5.66548 8.25 5.93123V7.43934ZM9.75943 8.94877L12.7383 11.9276L15.0713 10.5002L9.75943 7.2502V8.94877ZM1.75 18C1.75 18.2761 1.97386 18.5 2.25 18.5H14.25L15.75 20H2.25C1.14543 20 0.25 19.1046 0.25 18V4.5L1.75 6V18ZM7 21.5C6.55 21.5 6.25 21.8 6.25 22.25C6.25 22.7 6.55 23 7 23H17.5C17.8603 23 18.1245 22.8077 18.2154 22.5L17.25 21.5H7ZM9.40472 15.6891C9.17206 15.8299 8.87882 15.8374 8.63885 15.7086C8.39889 15.5797 8.25 15.3349 8.25 15.0692V12.5001L10.6979 14.9343L9.40472 15.6891Z" fill="currentColor"/>
</g>
<defs>
<clipPath id="clip0_865_6797">
<rect width="25" height="24" fill="currentColor"/>
</clipPath>
</defs>
</svg>
