<svg width="24" height="24" viewBox="0 0 24 24"  xmlns="http://www.w3.org/2000/svg">
<path fill-rule="evenodd" clip-rule="evenodd" d="M1 1H23C23.552 1 24 1.447 24 2V18C24 18.553 23.552 19 23 19H1C0.448 19 0 18.553 0 18V2C0 1.447 0.448 1 1 1ZM8.34565 5.28319C8.55895 5.16652 8.81961 5.17327 9.02641 5.30083L16.6847 9.43876C16.8808 9.55975 17 9.77192 17 10.0002C17 10.2285 16.8808 10.4406 16.6847 10.5616L9.02641 14.6996C8.81961 14.8271 8.55895 14.8339 8.34565 14.7172C8.13235 14.6005 8 14.3788 8 14.1381V5.86226C8 5.62159 8.13235 5.39986 8.34565 5.28319ZM6 21H18C18.9 21 19.5 21.6 19.5 22.5C19.5 23.4 18.9 24 18 24H6C5.1 24 4.5 23.4 4.5 22.5C4.5 21.6 5.1 21 6 21Z" fill="currentColor"/>
</svg>
