<svg width="24" height="24" viewBox="0 0 24 24"  xmlns="http://www.w3.org/2000/svg">
<g clip-path="url(#clip0_865_6803)">
<path fill-rule="evenodd" clip-rule="evenodd" d="M0 18C0 18.553 0.448 19 1 19H12.5L0 6.5V18ZM6 21C5.1 21 4.5 21.6 4.5 22.5C4.5 23.4 5.1 24 6 24H17.5L14.5 21H6ZM2.57336 0.452196C1.99468 -0.140605 1.045 -0.152047 0.452196 0.426639C-0.140605 1.00533 -0.152047 1.955 0.426639 2.54781L20.9266 23.5478C21.5053 24.1406 22.455 24.152 23.0478 23.5734C23.6406 22.9947 23.652 22.045 23.0734 21.4522L20.6796 19H23.0001C23.5521 19 24.0001 18.553 24.0001 18V2C24.0001 1.447 23.5521 1 23.0001 1H3.10812L2.57336 0.452196ZM13.8126 11.9656L8.00009 6.01128V5.86227C8.00009 5.62159 8.13243 5.39986 8.34573 5.28319C8.55904 5.16652 8.8197 5.17327 9.0265 5.30083L16.6848 9.43876C16.8809 9.55975 17.0001 9.77192 17.0001 10.0002C17.0001 10.2285 16.8809 10.4406 16.6848 10.5616L13.8126 11.9656Z" fill="currentColor"/>
</g>
<defs>
<clipPath id="clip0_865_6803">
<rect width="24" height="24" fill="currentColor"/>
</clipPath>
</defs>
</svg>
