<svg width="24" height="24" viewBox="0 0 24 24"  xmlns="http://www.w3.org/2000/svg">
<path fill-rule="evenodd" clip-rule="evenodd" d="M2 2.5H22C22.2761 2.5 22.5 2.72386 22.5 3V18C22.5 18.2761 22.2761 18.5 22 18.5H2C1.72386 18.5 1.5 18.2761 1.5 18V3C1.5 2.72386 1.72386 2.5 2 2.5ZM0 3C0 1.89543 0.895431 1 2 1H22C23.1046 1 24 1.89543 24 3V18C24 19.1046 23.1046 20 22 20H2C0.89543 20 0 19.1046 0 18V3ZM6.75 21.5H17.25C17.7 21.5 18 21.8 18 22.25C18 22.7 17.7 23 17.25 23H6.75C6.3 23 6 22.7 6 22.25C6 21.8 6.3 21.5 6.75 21.5ZM9.15472 5.31131C8.92206 5.17047 8.62882 5.16301 8.38885 5.29184C8.14889 5.42066 8 5.66548 8 5.93123V15.0692C8 15.3349 8.14889 15.5797 8.38885 15.7086C8.62882 15.8374 8.92206 15.8299 9.15472 15.6891L16.6453 11.1201C16.8659 10.9865 17 10.7522 17 10.5002C17 10.2481 16.8659 10.0139 16.6453 9.88028L9.15472 5.31131ZM9.50943 13.7502V7.2502L14.8213 10.5002L9.50943 13.7502Z" fill="currentColor"/>
</svg>
