<svg width="24" height="24" viewBox="0 0 24 24"  xmlns="http://www.w3.org/2000/svg">
<g clip-path="url(#clip0_865_4853)">
<path d="M20.0019 9.00018C20.0005 8.26562 19.7289 7.55726 19.239 7.01022C18.749 6.46318 18.0749 6.11574 17.3452 6.03418C17.1138 7.00572 16.999 8.00143 17.0034 9.00018C16.999 9.99893 17.1138 10.9946 17.3452 11.9662C18.0749 11.8846 18.749 11.5372 19.239 10.9901C19.7289 10.4431 20.0005 9.73474 20.0019 9.00018Z" fill="currentColor"/>
<path fill-rule="evenodd" clip-rule="evenodd" d="M17.9491 0.185C18.287 0.0633639 18.6434 0.000785222 19.0026 0C21.8521 0 24 3.869 24 9C24 14.131 21.8521 18 19.0026 18C18.6447 17.9988 18.2898 17.9362 17.9531 17.815L2.71088 12.953C1.87708 12.7022 1.15441 12.173 0.663334 11.4537C0.172262 10.7343 -0.0575344 9.86831 0.0122542 9C-0.0565199 8.12646 0.177115 7.25584 0.673949 6.53425C1.17078 5.81265 1.90058 5.28399 2.74086 5.037L17.9491 0.185ZM16.0041 9C16.0041 13.006 17.5873 16 19.0026 16C20.4178 16 22.001 13.006 22.001 9C22.001 4.994 20.4178 2 19.0026 2C17.5873 2 16.0041 4.994 16.0041 9Z" fill="currentColor"/>
<path d="M11.6731 17.9114L5.8881 16.0664L8.51876 22.5414C8.63302 22.8251 8.80201 23.0836 9.01609 23.3019C9.23017 23.5203 9.48515 23.6944 9.76646 23.8141C10.0478 23.9339 10.3499 23.9971 10.6556 24.0001C10.9613 24.003 11.2646 23.9457 11.5482 23.8314C11.8318 23.7171 12.0901 23.548 12.3083 23.3338C12.5266 23.1196 12.7006 22.8645 12.8203 22.5831C12.94 22.3016 13.0032 21.9993 13.0061 21.6935C13.0091 21.3876 12.9518 21.0841 12.8376 20.8004L11.6731 17.9114Z" fill="currentColor"/>
</g>
<defs>
<clipPath id="clip0_865_4853">
<rect width="24" height="24" fill="currentColor"/>
</clipPath>
</defs>
</svg>
