<svg width="24" height="24" viewBox="0 0 24 24"  xmlns="http://www.w3.org/2000/svg">
<g clip-path="url(#clip0_865_4845)">
<path d="M19.3864 6.90529C19.8869 7.46407 20.1643 8.18763 20.1657 8.93795C20.1643 9.68828 19.8869 10.4118 19.3864 10.9706C18.8859 11.5294 18.1973 11.8843 17.452 11.9676C17.2155 10.9752 17.0983 9.95814 17.1028 8.93795C17.0983 7.91777 17.2155 6.9007 17.452 5.9083C18.1973 5.99162 18.8859 6.34651 19.3864 6.90529Z" fill="currentColor"/>
<path fill-rule="evenodd" clip-rule="evenodd" d="M2.58315 5.14123L18.1424 0.178058C18.458 0.0629113 18.7924 0 19.1446 0C20.7186 0 21.9375 1.25669 22.7172 2.81691C23.5199 4.42296 23.9942 6.58808 23.9942 8.93777C23.9942 11.2875 23.5199 13.4526 22.7172 15.0586C21.9375 16.6188 20.7186 17.8755 19.1446 17.8755C18.7901 17.8755 18.4537 17.8118 18.1362 17.6952L11.7778 15.667L13.581 20.145C13.8581 20.8356 13.8503 21.609 13.5587 22.2936C13.2671 22.9783 12.7158 23.5192 12.0259 23.7975C11.3355 24.0748 10.5623 24.0671 9.87801 23.7754C9.19404 23.4837 8.65361 22.9326 8.37527 22.2429L8.37482 22.2418L4.79865 13.4407L2.5832 12.734C1.77055 12.4902 1.06828 11.9703 0.597572 11.2639C0.105998 10.5262 -0.0133193 9.52802 0.00115226 8.93768C-0.0134174 8.34688 0.106028 7.34901 0.597572 6.61134C1.06827 5.90495 1.77052 5.38508 2.58315 5.14123ZM16.9418 3.50213C16.2663 4.85365 15.8265 6.77437 15.8265 8.93777C15.8265 11.1012 16.2663 13.0219 16.9418 14.3734C17.6401 15.7708 18.4632 16.3433 19.1446 16.3433C19.8261 16.3433 20.6491 15.7708 21.3475 14.3734C22.0229 13.0219 22.4628 11.1012 22.4628 8.93777C22.4628 6.77437 22.0229 4.85365 21.3475 3.50213C20.6491 2.10479 19.8261 1.53219 19.1446 1.53219C18.4632 1.53219 17.6401 2.10479 16.9418 3.50213ZM15.572 2.81691C15.6146 2.7317 15.6585 2.64739 15.7037 2.56415L3.03462 6.6054L3.0275 6.60752C2.55445 6.74835 2.14559 7.05039 1.87182 7.46125C1.62415 7.83293 1.51889 8.47931 1.53252 8.91358L1.53327 8.93757L1.53252 8.96155C1.51896 9.39574 1.62418 10.0424 1.87182 10.414C2.14559 10.8249 2.55445 11.1269 3.0275 11.2677L3.03462 11.2698L15.7035 15.311C15.6584 15.2279 15.6145 15.1437 15.572 15.0586C14.7694 13.4526 14.295 11.2875 14.295 8.93777C14.295 6.58808 14.7694 4.42296 15.572 2.81691ZM9.88343 15.0627L6.698 14.0466L9.79514 21.6688C9.92159 21.9825 10.1673 22.2332 10.4784 22.3658C10.7892 22.4983 11.1398 22.5021 11.4534 22.3764C11.7669 22.2499 12.0173 22.0041 12.1498 21.693C12.2824 21.3819 12.2861 21.0309 12.1603 20.7171L9.88343 15.0627Z" fill="currentColor"/>
</g>
<defs>
<clipPath id="clip0_865_4845">
<rect width="24" height="24" fill="currentColor"/>
</clipPath>
</defs>
</svg>
