<svg width="24" height="24" viewBox="0 0 24 24"  xmlns="http://www.w3.org/2000/svg">
<path fill-rule="evenodd" clip-rule="evenodd" d="M1 3.75C1 3.33579 1.32832 3 1.73333 3H22.2667C22.6717 3 23 3.33579 23 3.75C23 4.16421 22.6717 4.5 22.2667 4.5H1.73333C1.32832 4.5 1 4.16421 1 3.75ZM1 20.25C1 19.8358 1.32832 19.5 1.73333 19.5H22.2667C22.6717 19.5 23 19.8358 23 20.25C23 20.6642 22.6717 21 22.2667 21H1.73333C1.32832 21 1 20.6642 1 20.25ZM1 12C1 11.5858 1.32832 11.25 1.73333 11.25H22.2667C22.6717 11.25 23 11.5858 23 12C23 12.4142 22.6717 12.75 22.2667 12.75H1.73333C1.32832 12.75 1 12.4142 1 12Z" fill="currentColor"/>
</svg>
