<svg width="24" height="24" viewBox="0 0 24 24"  xmlns="http://www.w3.org/2000/svg">
<path fill-rule="evenodd" clip-rule="evenodd" d="M0 3.5C0 2.67157 0.671573 2 1.5 2H22.5C23.3284 2 24 2.67157 24 3.5C24 4.32843 23.3284 5 22.5 5H1.5C0.671573 5 0 4.32843 0 3.5ZM0 20.5C0 19.6716 0.671573 19 1.5 19H22.5C23.3284 19 24 19.6716 24 20.5C24 21.3284 23.3284 22 22.5 22H1.5C0.671573 22 0 21.3284 0 20.5ZM0 12C0 11.1716 0.671573 10.5 1.5 10.5H22.5C23.3284 10.5 24 11.1716 24 12C24 12.8284 23.3284 13.5 22.5 13.5H1.5C0.671573 13.5 0 12.8284 0 12Z" fill="currentColor"/>
</svg>
