<svg width="24" height="24" viewBox="0 0 24 24"  xmlns="http://www.w3.org/2000/svg">
<path d="M12.5303 1.21967C12.2374 0.926777 11.7626 0.926777 11.4697 1.21967L5.46967 7.21967C5.17678 7.51256 5.17678 7.98744 5.46967 8.28033C5.76256 8.57322 6.23744 8.57322 6.53033 8.28033L11.25 3.56066V14.4392L3.96967 21.7195C3.67678 22.0124 3.67678 22.4873 3.96967 22.7802C4.26256 23.0731 4.73744 23.0731 5.03033 22.7802L12.5303 15.2802C12.671 15.1395 12.75 14.9488 12.75 14.7499V3.56066L17.4697 8.28033C17.7626 8.57322 18.2374 8.57322 18.5303 8.28033C18.8232 7.98744 18.8232 7.51256 18.5303 7.21967L12.5303 1.21967ZM15.5303 17.2195C15.2374 16.9266 14.7626 16.9266 14.4697 17.2195C14.1768 17.5124 14.1768 17.9873 14.4697 18.2802L18.9697 22.7802C19.2626 23.0731 19.7374 23.0731 20.0303 22.7802C20.3232 22.4873 20.3232 22.0124 20.0303 21.7195L15.5303 17.2195Z" fill="currentColor"/>
</svg>
