<svg width="24" height="24" viewBox="0 0 24 24"  xmlns="http://www.w3.org/2000/svg">
<g clip-path="url(#clip0_865_4650)">
<path d="M1.532 2.901C1.532 2.172 2.103 1.582 2.809 1.582H21.192C21.897 1.582 22.469 2.172 22.469 2.901V14.505C22.469 15.234 21.898 15.824 21.192 15.824H13.992C13.954 15.901 13.912 15.977 13.865 16.05L13.864 16.052L12.99 17.407H21.193C22.744 17.407 24.001 16.109 24.001 14.506V2.901C24 1.298 22.743 0 21.192 0H2.809C1.257 0 0 1.298 0 2.901V14.505C0 15.931 0.996 17.117 2.309 17.36C2.283 17.1 2.304 16.834 2.372 16.576L2.576 15.802C1.982 15.689 1.532 15.152 1.532 14.505V2.901ZM3.849 16.993L3.838 17.046C3.81739 17.169 3.83629 17.2954 3.892 17.407C3.9066 17.4361 3.92366 17.4638 3.943 17.49C3.9937 17.5592 4.05991 17.6156 4.13631 17.6547C4.21271 17.6938 4.29719 17.7144 4.383 17.715H7.04L6.052 23.327C6.005 23.593 6.145 23.857 6.389 23.959C6.457 23.988 6.527 24.001 6.596 24.001C6.68795 24.0006 6.77832 23.9771 6.85886 23.9327C6.93939 23.8884 7.00752 23.8245 7.057 23.747L12.589 15.176C12.6444 15.089 12.676 14.9891 12.6808 14.8861C12.6855 14.7831 12.6632 14.6807 12.616 14.589C12.5703 14.4986 12.5006 14.4226 12.4145 14.3693C12.3284 14.316 12.2293 14.2875 12.128 14.287H9.542L10.447 11.016C10.495 10.843 10.461 10.658 10.357 10.515C10.3441 10.4972 10.33 10.4801 10.315 10.464C10.211 10.352 10.067 10.288 9.915 10.288H6.043L5.997 10.29C5.88264 10.3014 5.77456 10.3478 5.68744 10.4227C5.60032 10.4977 5.53837 10.5976 5.51 10.709L3.85 16.995L3.849 16.993ZM11.99 11.077C12.043 10.542 11.901 10 11.581 9.561L11.53 9.494H19.149C19.572 9.494 19.915 9.848 19.915 10.285C19.915 10.722 19.572 11.076 19.149 11.076L11.99 11.077Z" fill="currentColor"/>
<path d="M3.83 4.747C3.407 4.747 3.064 5.101 3.064 5.538C3.064 5.975 3.407 6.329 3.83 6.329H19.149C19.572 6.329 19.915 5.975 19.915 5.538C19.915 5.101 19.572 4.747 19.149 4.747H3.83Z" fill="currentColor"/>
</g>
<defs>
<clipPath id="clip0_865_4650">
<rect width="24" height="24" fill="currentColor"/>
</clipPath>
</defs>
</svg>
