<svg width="24" height="24" viewBox="0 0 24 24"  xmlns="http://www.w3.org/2000/svg">
<path d="M23.0999 12.6003C23.3999 12.4503 23.5499 12.1503 23.5499 12.0003C23.5499 11.7003 23.3999 11.4003 23.0999 11.4003L2.54988 1.20032C2.24988 1.05032 1.94988 1.20032 1.64988 1.35032C1.49988 1.50032 1.34988 1.95032 1.49988 2.25032L4.04988 9.15032C4.19988 9.60032 4.64988 9.75031 4.94988 9.60032C5.39988 9.45032 5.54988 9.00032 5.39988 8.55031L3.44988 3.45032L21.1499 12.0003L3.44988 20.5503L6.29988 12.7503H12.1499C12.5999 12.7503 12.8999 12.4503 12.8999 12.0003C12.8999 11.5503 12.5999 11.2503 12.1499 11.2503H5.84988C5.54988 11.2503 5.24988 11.4003 5.09988 11.7003L1.49988 21.7503C1.34988 22.0503 1.49988 22.3503 1.64988 22.5003C1.94988 22.6503 2.24988 22.8003 2.54988 22.6503L23.0999 12.6003Z" fill="currentColor"/>
</svg>
