<svg width="24" height="24" viewBox="0 0 24 24"  xmlns="http://www.w3.org/2000/svg">
<path d="M7.16 22.759C7.09097 22.8629 6.98811 22.9397 6.86889 22.9763C6.74968 23.0129 6.62145 23.0072 6.506 22.96C6.39031 22.9136 6.29424 22.8286 6.23409 22.7194C6.17394 22.6102 6.15342 22.4836 6.176 22.361L7.143 17.041H4.542C4.373 17.041 4.214 16.962 4.111 16.828C4.06568 16.7687 4.03314 16.7007 4.01541 16.6283C3.99768 16.5558 3.99516 16.4805 4.008 16.407L4.019 16.357L5.644 10.399C5.67506 10.2842 5.74316 10.1828 5.83773 10.1107C5.9323 10.0385 6.04805 9.99962 6.167 10H9.959C10.043 9.99984 10.1259 10.0193 10.201 10.0568C10.2762 10.0943 10.3416 10.1488 10.392 10.216L10.416 10.25C10.4574 10.3147 10.4846 10.3875 10.4956 10.4636C10.5066 10.5396 10.5013 10.6172 10.48 10.691L9.594 13.792H12.126C12.2114 13.7919 12.2957 13.812 12.3718 13.8508C12.448 13.8895 12.5138 13.9458 12.564 14.015C12.578 14.035 12.592 14.056 12.603 14.078C12.697 14.255 12.687 14.468 12.576 14.634L7.16 22.759Z" fill="currentColor"/>
<path fill-rule="evenodd" clip-rule="evenodd" d="M21 16.75H12.968L13.824 15.466L13.825 15.464C14.241 14.838 14.279 14.034 13.926 13.371L13.925 13.369C13.7507 13.0431 13.4912 12.7707 13.1742 12.5809C12.8572 12.391 12.4945 12.2908 12.125 12.291H11.582L11.737 11.749H19C19.1989 11.749 19.3897 11.67 19.5303 11.5293C19.671 11.3887 19.75 11.1979 19.75 10.999C19.75 10.8001 19.671 10.6093 19.5303 10.4687C19.3897 10.328 19.1989 10.249 19 10.249H11.979C11.909 9.76308 11.666 9.31871 11.2948 8.99744C10.9236 8.67617 10.4489 8.49955 9.958 8.5H6.167C5.71919 8.49957 5.28368 8.64651 4.92766 8.91813C4.57164 9.18976 4.31488 9.57098 4.197 10.003L2.572 15.963C2.5062 16.2048 2.48552 16.4567 2.511 16.706C1.87677 16.5914 1.30294 16.2577 0.889695 15.7631C0.476448 15.2685 0.250041 14.6445 0.25 14V3C0.25 2.27065 0.539731 1.57118 1.05546 1.05546C1.57118 0.539731 2.27065 0.25 3 0.25H21C21.7293 0.25 22.4288 0.539731 22.9445 1.05546C23.4603 1.57118 23.75 2.27065 23.75 3V14C23.75 14.7293 23.4603 15.4288 22.9445 15.9445C22.4288 16.4603 21.7293 16.75 21 16.75ZM3.25 5.5C3.25 5.30109 3.32902 5.11032 3.46967 4.96967C3.61032 4.82902 3.80109 4.75 4 4.75H19C19.0985 4.75 19.196 4.7694 19.287 4.80709C19.378 4.84478 19.4607 4.90003 19.5303 4.96967C19.6 5.03931 19.6552 5.12199 19.6929 5.21299C19.7306 5.30398 19.75 5.40151 19.75 5.5C19.75 5.59849 19.7306 5.69602 19.6929 5.78701C19.6552 5.87801 19.6 5.96069 19.5303 6.03033C19.4607 6.09997 19.378 6.15522 19.287 6.19291C19.196 6.2306 19.0985 6.25 19 6.25H4C3.80109 6.25 3.61032 6.17098 3.46967 6.03033C3.32902 5.88968 3.25 5.69891 3.25 5.5Z" fill="currentColor"/>
</svg>
