<svg width="24" height="24" viewBox="0 0 24 24"  xmlns="http://www.w3.org/2000/svg">
<g clip-path="url(#clip0_865_575)">
<path fill-rule="evenodd" clip-rule="evenodd" d="M0.233128 0.498531C-0.0813606 0.809498 -0.0771325 1.31787 0.242572 1.63399L22.6186 23.7601C22.9383 24.0763 23.4524 24.0805 23.7669 23.7695C24.0814 23.4585 24.0771 22.9502 23.7574 22.6341L1.38135 0.507869C1.06164 0.191742 0.547617 0.187562 0.233128 0.498531Z" fill="currentColor"/>
<path d="M3.82005 9.58216C4.33645 9.58223 4.75533 9.98497 4.75533 10.4811C4.75537 11.464 4.95622 12.4376 5.34774 13.3458C5.73936 14.254 6.31436 15.0788 7.03794 15.774C7.76158 16.4691 8.62045 17.0214 9.56591 17.3976C10.5113 17.7737 11.5246 17.9668 12.5479 17.9668C13.5711 17.9668 14.5845 17.7737 15.5299 17.3976C16.2007 17.1307 16.8258 16.7724 17.392 16.3401L18.7027 17.6361C17.9628 18.2231 17.1357 18.7035 16.246 19.0575C15.3627 19.409 14.4313 19.6304 13.4832 19.719V21.5604H17.5357C18.052 21.5606 18.4709 21.9633 18.4709 22.4593C18.4707 22.9551 18.0518 23.357 17.5357 23.3572H7.56011C7.04398 23.357 6.6251 22.9551 6.62483 22.4593C6.62483 21.9633 7.04381 21.5606 7.56011 21.5604H11.6126V19.719C10.6645 19.6304 9.73307 19.409 8.84978 19.0575C7.67741 18.591 6.61201 17.9071 5.71472 17.0451C4.81743 16.1831 4.1054 15.1594 3.61979 14.0332C3.13428 12.9071 2.88482 11.6999 2.88478 10.4811C2.88478 9.98492 3.30359 9.58216 3.82005 9.58216Z" fill="currentColor"/>
<path d="M21.2757 9.58216C21.7922 9.58216 22.211 9.98492 22.211 10.4811C22.211 11.6999 21.9615 12.9071 21.476 14.0332C21.0823 14.9462 20.5368 15.7893 19.8676 16.536L18.559 15.2421C19.0498 14.6707 19.4519 14.0325 19.748 13.3458C20.1396 12.4376 20.3404 11.464 20.3405 10.4811C20.3405 9.98497 20.7593 9.58223 21.2757 9.58216Z" fill="currentColor"/>
<path d="M8.49538 7.54276V11.1654C8.49581 12.8129 10.1689 14.3732 12.5479 14.3732C13.4223 14.3732 14.2001 14.1608 14.8357 13.8123L16.1653 15.127C15.1459 15.7875 13.878 16.17 12.5479 16.17C9.41633 16.17 6.62524 14.0546 6.62483 11.1654V5.6931L8.49538 7.54276Z" fill="currentColor"/>
<path d="M12.5479 0C15.6796 1.29717e-07 18.4707 2.11634 18.4709 5.0057V11.1654C18.4708 12.2735 18.0582 13.2667 17.3753 14.0715L16.052 12.7631C16.4037 12.2794 16.6003 11.7279 16.6004 11.1654V5.0057C16.6002 3.35809 14.927 1.79678 12.5479 1.79678C10.1688 1.79678 8.49562 3.35809 8.49538 5.0057V5.29082L6.83978 3.6537C7.54944 1.47964 9.92921 0 12.5479 0Z" fill="currentColor"/>
</g>
<defs>
<clipPath id="clip0_865_575">
<rect width="24" height="24" fill="currentColor"/>
</clipPath>
</defs>
</svg>
