<svg width="24" height="24" viewBox="0 0 24 24"  xmlns="http://www.w3.org/2000/svg">
<path d="M15.6667 9.52985L10.8189 14.3765C11.1993 14.4854 11.595 14.5412 11.9945 14.5385H12C14.1528 14.5385 15.6665 13.0682 15.6667 11.5163V9.52985ZM3.25636 10.8718C3.25636 10.4045 3.6352 10.0256 4.10252 10.0256C4.56984 10.0256 4.94868 10.4045 4.94868 10.8718C4.94868 11.9268 5.18072 12.9268 5.59431 13.8234C5.78973 14.2477 5.60425 14.7504 5.18005 14.9461C4.75574 15.1417 4.25306 14.9561 4.05735 14.5319C3.54355 13.418 3.25636 12.177 3.25636 10.8718ZM6.64099 11.5163V5.71555C6.64121 2.9931 9.16616 1 12 1C13.7046 1 15.2519 1.70136 16.2462 2.83444C16.5544 3.18571 16.5193 3.72054 16.168 4.02875C15.8167 4.33687 15.283 4.30176 14.9748 3.95052C14.3219 3.20643 13.2489 2.69231 12 2.69231C9.84743 2.69231 8.33354 4.1624 8.33331 5.71555V11.5163C8.33314 11.9835 7.95436 12.3625 7.48715 12.3625C7.01994 12.3625 6.64117 11.9835 6.64099 11.5163ZM17.359 11.5163C17.3588 14.2364 14.8363 16.2276 12.0044 16.2297L12.0055 16.2308L12.0022 16.2297L12 16.2308V16.2297C11.1365 16.2347 10.2866 16.0476 9.5078 15.6876L8.31348 16.8819C9.17474 17.4103 10.1424 17.7512 11.1527 17.8735C12.477 18.0338 13.8194 17.8144 15.0244 17.2422C16.2293 16.67 17.2478 15.7684 17.9606 14.6409C18.6733 13.5132 19.0515 12.2058 19.0513 10.8718C19.0513 10.4045 19.4302 10.0257 19.8975 10.0256C20.3647 10.0256 20.7436 10.4045 20.7436 10.8718C20.7439 12.526 20.2745 14.1461 19.3907 15.5444C18.5068 16.9427 17.2447 18.0619 15.7504 18.7714C14.8319 19.2076 13.8487 19.4771 12.8462 19.5746V21.3077H16.5128C16.9802 21.3077 17.359 21.6865 17.359 22.1538C17.359 22.6212 16.9802 23 16.5128 23H7.48715C7.01983 23 6.64099 22.6212 6.64099 22.1538C6.64099 21.6865 7.01983 21.3077 7.48715 21.3077H11.1538V19.5735C11.0856 19.5669 11.0171 19.5619 10.9489 19.5537C9.56168 19.3857 8.23942 18.8867 7.08941 18.106L2.44436 22.7521C2.11391 23.0825 1.57828 23.0825 1.24783 22.7521C0.917389 22.4217 0.917389 21.886 1.24783 21.5556L21.5556 1.2479C21.8861 0.917453 22.4217 0.917453 22.7522 1.2479C23.0826 1.57834 23.0826 2.11397 22.7522 2.44441L17.359 7.83754V11.5163Z" fill="currentColor"/>
</svg>
