<svg width="24" height="24" viewBox="0 0 24 24"  xmlns="http://www.w3.org/2000/svg">
<path d="M20.1881 10.0254C20.6497 10.0255 21.0239 10.4043 21.0241 10.8713C21.0241 12.0195 20.8007 13.1569 20.3664 14.2177C19.9322 15.2785 19.2958 16.2432 18.4934 17.0551C17.6911 17.8669 16.7384 18.5106 15.6902 18.95C14.9003 19.281 14.0671 19.4901 13.2192 19.5735V21.3082H16.8432C17.3049 21.3083 17.6792 21.6869 17.6792 22.1541C17.6792 22.6213 17.3049 22.9999 16.8432 23H7.92302C7.46119 23 7.08701 22.6214 7.08696 22.1541C7.08696 21.6868 7.46117 21.3082 7.92302 21.3082L11.5464 21.3075L11.547 19.5735C10.6991 19.4901 9.86592 19.281 9.07599 18.95C8.09608 18.5393 7.20139 17.948 6.43323 17.2098L7.59947 15.9951C8.21583 16.5844 8.93202 17.0578 9.71646 17.3866C10.5617 17.7408 11.4676 17.9231 12.3824 17.9231C13.2975 17.9231 14.2043 17.7409 15.0497 17.3866C15.8952 17.0322 16.6629 16.5118 17.3099 15.857C17.957 15.2023 18.4714 14.4254 18.8216 13.5699C19.1717 12.7146 19.3513 11.7978 19.3514 10.872C19.3514 10.4047 19.7262 10.0254 20.1881 10.0254Z" fill="currentColor"/>
<path d="M4.57812 10.0254C5.03968 10.0255 5.41391 10.4043 5.41418 10.8713C5.41418 11.7972 5.59444 12.7145 5.94459 13.5699C6.11813 13.9939 6.33215 14.3983 6.5824 14.7784L5.39628 16.0138C4.99678 15.4578 4.6603 14.8564 4.3991 14.2184C3.96487 13.1576 3.74142 12.0202 3.7414 10.872C3.7414 10.4047 4.11627 10.0254 4.57812 10.0254Z" fill="currentColor"/>
<path d="M17.6786 5.71433V11.5163C17.6784 14.2377 15.1835 16.2305 12.3831 16.2306C10.9755 16.2306 9.64562 15.7263 8.67023 14.8799L17.6733 5.50303C17.6766 5.57297 17.6786 5.64338 17.6786 5.71433Z" fill="currentColor"/>
<path d="M12.3831 1C14.4411 1.00007 16.3333 2.07688 17.1926 3.72764L7.65781 13.6583C7.29519 13.025 7.08635 12.3012 7.08629 11.5163V5.71433C7.08652 2.99285 9.58261 1 12.3831 1Z" fill="currentColor"/>
<path d="M20.6811 2.3705C20.9828 2.05627 21.472 2.05627 21.7737 2.3705C22.0754 2.68474 22.0754 3.19421 21.7737 3.50845L3.31886 22.7296C3.01715 23.0438 2.52799 23.0438 2.22628 22.7296C1.92457 22.4154 1.92457 21.9059 2.22628 21.5917L20.6811 2.3705Z" fill="currentColor"/>
</svg>
