<svg width="24" height="24" viewBox="0 0 24 24"  xmlns="http://www.w3.org/2000/svg">
<path d="M4 10.8718C4 10.4045 4.36828 10.0256 4.82258 10.0256C5.27688 10.0256 5.64516 10.4045 5.64516 10.8718C5.64516 11.7977 5.82234 12.7146 6.16677 13.57C6.51126 14.4255 7.01688 15.2025 7.65341 15.8573C8.28995 16.512 9.04529 17.0322 9.87695 17.3865C10.7086 17.7408 11.5999 17.9231 12.5 17.9231C13.4001 17.9231 14.2914 17.7408 15.123 17.3865C15.9547 17.0322 16.7101 16.512 17.3466 15.8573C17.9831 15.2025 18.4887 14.4255 18.8332 13.57C19.1777 12.7146 19.3548 11.7977 19.3548 10.8718C19.3548 10.4045 19.7231 10.0256 20.1774 10.0256C20.6317 10.0256 21 10.4045 21 10.8718C21 12.02 20.7802 13.157 20.3531 14.2178C19.9259 15.2787 19.3001 16.243 18.5108 17.0549C17.7215 17.8668 16.7841 18.5105 15.7528 18.9499C14.9758 19.281 14.1567 19.4901 13.3226 19.5735V21.3077H16.8871C17.3414 21.3077 17.7097 21.6865 17.7097 22.1538C17.7097 22.6212 17.3414 23 16.8871 23H8.1129C7.6586 23 7.29032 22.6212 7.29032 22.1538C7.29032 21.6865 7.6586 21.3077 8.1129 21.3077H11.6774V19.5735C10.8433 19.4901 10.0242 19.281 9.24716 18.9499C8.2159 18.5105 7.27846 17.8668 6.48916 17.0549C5.69987 16.243 5.07409 15.2787 4.64693 14.2178C4.21976 13.157 4 12.02 4 10.8718ZM17.7097 11.5163C17.7095 14.2378 15.2547 16.2308 12.5 16.2308C9.74528 16.2308 7.29052 14.2378 7.29032 11.5163V5.71444C7.29052 2.99297 9.74528 1 12.5 1C15.2547 1 17.7095 2.99297 17.7097 5.71444V11.5163Z" fill="currentColor"/>
</svg>
