<svg width="24" height="24" viewBox="0 0 24 24"  xmlns="http://www.w3.org/2000/svg">
<path d="M3 10.8718C3 10.4045 3.38995 10.0256 3.87097 10.0256C4.35199 10.0256 4.74194 10.4045 4.74194 10.8718C4.74194 11.7977 4.92954 12.7146 5.29423 13.57C5.65898 14.4255 6.19435 15.2025 6.86832 15.8573C7.5423 16.512 8.34207 17.0322 9.22266 17.3865C10.1032 17.7408 11.0469 17.9231 12 17.9231C12.9531 17.9231 13.8968 17.7408 14.7773 17.3865C15.6579 17.0322 16.4577 16.512 17.1317 15.8573C17.8057 15.2025 18.341 14.4255 18.7058 13.57C19.0705 12.7146 19.2581 11.7977 19.2581 10.8718C19.2581 10.4045 19.648 10.0256 20.129 10.0256C20.6101 10.0256 21 10.4045 21 10.8718C21 12.02 20.7673 13.157 20.315 14.2178C19.8627 15.2787 19.2001 16.243 18.3644 17.0549C17.5287 17.8668 16.5361 18.5105 15.4442 18.9499C14.6215 19.281 13.7541 19.4901 12.871 19.5735V21.3077H16.6452C17.1262 21.3077 17.5161 21.6865 17.5161 22.1538C17.5161 22.6212 17.1262 23 16.6452 23H7.35484C6.87382 23 6.48387 22.6212 6.48387 22.1538C6.48387 21.6865 6.87382 21.3077 7.35484 21.3077H11.129V19.5735C10.2459 19.4901 9.37854 19.281 8.55582 18.9499C7.46389 18.5105 6.47131 17.8668 5.63558 17.0549C4.79986 16.243 4.13727 15.2787 3.68498 14.2178C3.23269 13.157 3 12.02 3 10.8718ZM15.7742 5.71444C15.774 4.16256 14.2159 2.69231 12 2.69231C9.78413 2.69231 8.22602 4.16256 8.22581 5.71444V11.5163C8.22602 13.0682 9.78413 14.5385 12 14.5385C14.2159 14.5385 15.774 13.0682 15.7742 11.5163V5.71444ZM17.5161 11.5163C17.5159 14.2378 14.9168 16.2308 12 16.2308C9.08324 16.2308 6.48408 14.2378 6.48387 11.5163V5.71444C6.48408 2.99297 9.08324 1 12 1C14.9168 1 17.5159 2.99297 17.5161 5.71444V11.5163Z" fill="currentColor"/>
</svg>
