<svg width="24" height="24" viewBox="0 0 24 24"  xmlns="http://www.w3.org/2000/svg">
<g clip-path="url(#clip0_865_1120)">
<path d="M20.753 8.21902C22.224 8.21902 23.417 7.03402 23.417 5.57202C23.417 4.11002 22.224 2.92502 20.753 2.92502C19.282 2.92502 18.089 4.11002 18.089 5.57202C18.089 7.03402 19.282 8.21902 20.753 8.21902ZM19.85 17.297V10.108C19.85 9.48602 19.335 8.97502 18.71 8.97502H23.037C23.663 8.97502 24.179 9.48702 24.179 10.109V15.734C24.178 17.81 22.458 19.517 20.369 19.517C20.1059 19.517 19.8435 19.4898 19.586 19.436L19.464 19.406C19.7202 18.7321 19.8513 18.017 19.851 17.296L19.85 17.297ZM6.93098 19.049L7.11298 19.562C7.22008 19.8236 7.34747 20.0763 7.49398 20.318C8.03152 21.239 8.80109 22.0029 9.72595 22.5337C10.6508 23.0644 11.6986 23.3435 12.765 23.343C16.104 23.343 18.851 20.614 18.851 17.297V10.108C18.851 9.48602 18.336 8.97502 17.711 8.97502H13V18.041C13 18.594 12.542 19.049 11.985 19.049H6.93098ZM9.24598 4.95002H11.985C12.542 4.95002 13 5.40502 13 5.95802V7.95902C13.896 7.9017 14.7368 7.50603 15.3521 6.85211C15.9674 6.1982 16.3113 5.3349 16.314 4.43702C16.314 2.48802 14.724 0.90802 12.762 0.90802C10.8 0.90802 9.20998 2.48802 9.20998 4.43702C9.20998 4.61102 9.22198 4.78202 9.24598 4.95002Z" fill="currentColor"/>
<path fill-rule="evenodd" clip-rule="evenodd" d="M10.985 5.95002H0.835984C0.278984 5.95002 -0.179016 6.40502 -0.179016 6.95802V17.041C-0.179016 17.594 0.278984 18.049 0.835984 18.049H10.985C11.542 18.049 12 17.594 12 17.041V6.95802C12 6.40502 11.542 5.95002 10.985 5.95002ZM6.66498 9.71202H8.93998V8.22202H2.88198V9.71202H5.16998V15.777H6.66498V9.71202Z" fill="currentColor"/>
</g>
<defs>
<clipPath id="clip0_865_1120">
<rect width="24" height="24" fill="currentColor"/>
</clipPath>
</defs>
</svg>
