<svg width="24" height="24" viewBox="0 0 24 24"  xmlns="http://www.w3.org/2000/svg">
<g clip-path="url(#clip0_865_606)">
<path fill-rule="evenodd" clip-rule="evenodd" d="M12 16C8.41037 16 5.5 13.1344 5.5 9.6V6.4C5.5 2.8656 8.41037 0 12 0C15.5896 0 18.5 2.8656 18.5 6.4V9.6C18.5 13.1344 15.5896 16 12 16ZM12 13C10.0232 13 8.5 11.4339 8.5 9.6V6.4C8.5 4.56613 10.0232 3 12 3C13.9768 3 15.5 4.56613 15.5 6.4V9.6C15.5 11.4339 13.9768 13 12 13Z" fill="currentColor"/>
<path d="M3 10.3333C3 9.59695 2.32843 9 1.5 9C0.671573 9 0 9.59695 0 10.3333C0 15.7728 4.58052 20.2613 10.5 20.9175V24H13.5V20.9175C19.4195 20.2613 24 15.7728 24 10.3333C24 9.59695 23.3284 9 22.5 9C21.6716 9 21 9.59695 21 10.3333C21 14.7516 16.9706 18.3333 12 18.3333C7.02943 18.3333 3 14.7516 3 10.3333Z" fill="currentColor"/>
</g>
<defs>
<clipPath id="clip0_865_606">
<rect width="24" height="24" fill="currentColor"/>
</clipPath>
</defs>
</svg>
