<svg width="24" height="24" viewBox="0 0 24 24"  xmlns="http://www.w3.org/2000/svg">
<path fill-rule="evenodd" clip-rule="evenodd" d="M12 0C8.13422 0 5 3.02229 5 6.75V9.75C5 13.4777 8.13422 16.5 12 16.5C15.8658 16.5 19 13.4777 19 9.75V6.75C19 3.02229 15.8658 0 12 0ZM6.55556 6.75C6.55556 3.85071 8.99333 1.5 12 1.5C15.0067 1.5 17.4444 3.85071 17.4444 6.75V7.5H14.75C14.3358 7.5 14 7.83579 14 8.25C14 8.66421 14.3358 9 14.75 9H17.4444V9.75C17.4444 12.6493 15.0067 15 12 15C8.99333 15 6.55556 12.6493 6.55556 9.75V9H9.25C9.66421 9 10 8.66421 10 8.25C10 7.83579 9.66421 7.5 9.25 7.5H6.55556V6.75Z" fill="currentColor"/>
<path d="M2.5 9.75C2.5 9.33579 2.16421 9 1.75 9C1.33579 9 1 9.33579 1 9.75C1 15.6897 5.51011 20.5797 11.25 20.9743V23.25C11.25 23.6642 11.5858 24 12 24C12.4142 24 12.75 23.6642 12.75 23.25V20.9743C18.4899 20.5797 23 15.6897 23 9.75C23 9.33579 22.6642 9 22.25 9C21.8358 9 21.5 9.33579 21.5 9.75C21.5 15.1519 17.2298 19.5 12 19.5C6.77022 19.5 2.5 15.1519 2.5 9.75Z" fill="currentColor"/>
</svg>
