<svg width="24" height="24" viewBox="0 0 24 24"  xmlns="http://www.w3.org/2000/svg">
<g clip-path="url(#clip0_865_5089)">
<path fill-rule="evenodd" clip-rule="evenodd" d="M0.25 4C0.25 1.92893 1.92893 0.25 4 0.25C6.07107 0.25 7.75 1.92893 7.75 4C7.75 4.95533 7.39277 5.82723 6.80459 6.48939L8.39496 8.60988C8.88152 8.37911 9.42568 8.25 10 8.25C11.8142 8.25 13.3275 9.53832 13.675 11.25H16.325C16.6725 9.53832 18.1858 8.25 20 8.25C22.0711 8.25 23.75 9.92893 23.75 12C23.75 14.0711 22.0711 15.75 20 15.75C18.1858 15.75 16.6725 14.4617 16.325 12.75H13.675C13.3275 14.4617 11.8142 15.75 10 15.75C9.42577 15.75 8.88169 15.6209 8.39517 15.3902L6.80475 17.5108C7.39283 18.1729 7.75 19.0448 7.75 20C7.75 22.0711 6.07107 23.75 4 23.75C1.92893 23.75 0.25 22.0711 0.25 20C0.25 17.9289 1.92893 16.25 4 16.25C4.57443 16.25 5.11869 16.3792 5.60533 16.61L7.19562 14.4896C6.60732 13.8274 6.25 12.9554 6.25 12C6.25 11.0446 6.60726 10.1727 7.19546 9.51055L5.60512 7.39009C5.11853 7.62088 4.57434 7.75 4 7.75C1.92893 7.75 0.25 6.07107 0.25 4ZM4 1.75C2.75736 1.75 1.75 2.75736 1.75 4C1.75 5.24264 2.75736 6.25 4 6.25C5.24264 6.25 6.25 5.24264 6.25 4C6.25 2.75736 5.24264 1.75 4 1.75ZM1.75 20C1.75 18.7574 2.75736 17.75 4 17.75C5.24264 17.75 6.25 18.7574 6.25 20C6.25 21.2426 5.24264 22.25 4 22.25C2.75736 22.25 1.75 21.2426 1.75 20ZM20 9.75C18.7574 9.75 17.75 10.7574 17.75 12C17.75 13.2426 18.7574 14.25 20 14.25C21.2426 14.25 22.25 13.2426 22.25 12C22.25 10.7574 21.2426 9.75 20 9.75ZM7.75 12C7.75 10.7574 8.75736 9.75 10 9.75C11.2426 9.75 12.25 10.7574 12.25 12C12.25 13.2426 11.2426 14.25 10 14.25C8.75736 14.25 7.75 13.2426 7.75 12Z" fill="currentColor"/>
</g>
<defs>
<clipPath id="clip0_865_5089">
<rect width="24" height="24" fill="currentColor"/>
</clipPath>
</defs>
</svg>
