<svg width="24" height="24" viewBox="0 0 24 24"  xmlns="http://www.w3.org/2000/svg">
<path d="M4 6.5C5.38071 6.5 6.5 5.38071 6.5 4C6.5 2.61929 5.38071 1.5 4 1.5C2.61929 1.5 1.5 2.61929 1.5 4C1.5 5.38071 2.61929 6.5 4 6.5Z" fill="currentColor"/>
<path d="M10 15C11.6569 15 13 13.6569 13 12C13 10.3431 11.6569 9 10 9C8.34315 9 7 10.3431 7 12C7 13.6569 8.34315 15 10 15Z" fill="currentColor"/>
<path d="M20 14.5C21.3807 14.5 22.5 13.3807 22.5 12C22.5 10.6193 21.3807 9.5 20 9.5C18.6193 9.5 17.5 10.6193 17.5 12C17.5 13.3807 18.6193 14.5 20 14.5Z" fill="currentColor"/>
<path d="M4 22.5C5.38071 22.5 6.5 21.3807 6.5 20C6.5 18.6193 5.38071 17.5 4 17.5C2.61929 17.5 1.5 18.6193 1.5 20C1.5 21.3807 2.61929 22.5 4 22.5Z" fill="currentColor"/>
<path fill-rule="evenodd" clip-rule="evenodd" d="M5.99056 4.00266L11.2146 10.6891L8.85059 12.5361L3.62653 5.84964L5.99056 4.00266ZM10.3129 13.7256L5.44598 20.6763L2.98853 18.9556L7.85548 12.0048L10.3129 13.7256ZM10.5147 10.5H19V13.5H10.5147V10.5Z" fill="currentColor"/>
</svg>
