<svg width="24" height="24" viewBox="0 0 24 24"  xmlns="http://www.w3.org/2000/svg">
<g clip-path="url(#clip0_865_5104)">
<path fill-rule="evenodd" clip-rule="evenodd" d="M12.75 8.93778C14.8783 8.58072 16.5 6.72975 16.5 4.5C16.5 2.01472 14.4853 0 12 0C9.51472 0 7.5 2.01472 7.5 4.5C7.5 6.72975 9.12172 8.58072 11.25 8.93778V13.1394L7.49663 16.1428C6.7009 15.4321 5.65091 15 4.5 15C2.01472 15 0 17.0147 0 19.5C0 21.9853 2.01472 24 4.5 24C6.98528 24 9 21.9853 9 19.5C9 18.7065 8.79464 17.961 8.43416 17.3137L11.9998 14.4605L15.5661 17.3133C15.2055 17.9607 15 18.7063 15 19.5C15 21.9853 17.0147 24 19.5 24C21.9853 24 24 21.9853 24 19.5C24 17.0147 21.9853 15 19.5 15C18.3493 15 17.2994 15.4319 16.5038 16.1425L12.75 13.1397V8.93778ZM9 4.5C9 2.84315 10.3431 1.5 12 1.5C13.6569 1.5 15 2.84315 15 4.5C15 6.15685 13.6569 7.5 12 7.5C10.3431 7.5 9 6.15685 9 4.5ZM17.1267 17.6647C17.1378 17.6526 17.1485 17.64 17.1589 17.627C17.1692 17.6142 17.1789 17.6012 17.1882 17.588C17.7384 16.9234 18.5698 16.5 19.5 16.5C21.1569 16.5 22.5 17.8431 22.5 19.5C22.5 21.1569 21.1569 22.5 19.5 22.5C17.8431 22.5 16.5 21.1569 16.5 19.5C16.5 18.8087 16.7338 18.172 17.1267 17.6647ZM4.5 16.5C5.43442 16.5 6.26907 16.9272 6.81927 17.597C6.82661 17.6071 6.83424 17.6172 6.84217 17.6271C6.85018 17.6371 6.85839 17.6469 6.8668 17.6563C7.26359 18.165 7.5 18.8049 7.5 19.5C7.5 21.1569 6.15685 22.5 4.5 22.5C2.84315 22.5 1.5 21.1569 1.5 19.5C1.5 17.8431 2.84315 16.5 4.5 16.5Z" fill="currentColor"/>
</g>
<defs>
<clipPath id="clip0_865_5104">
<rect width="24" height="24" fill="currentColor"/>
</clipPath>
</defs>
</svg>
