<svg width="24" height="24" viewBox="0 0 24 24"  xmlns="http://www.w3.org/2000/svg">
<g clip-path="url(#clip0_865_5110)">
<path d="M19.5 15C18.6 15 17.85 15.3 17.1 15.75L13.5 12.75V8.7C15.3 8.1 16.5 6.45 16.5 4.5C16.5 1.95 14.55 0 12 0C9.45 0 7.5 1.95 7.5 4.5C7.5 6.45 8.7 8.1 10.5 8.7V12.75L6.9 15.6C6.15 15.3 5.4 15 4.5 15C1.95 15 0 16.95 0 19.5C0 22.05 1.95 24 4.5 24C7.05 24 9 22.05 9 19.5C9 19.05 8.85 18.45 8.7 18L12 15.45L15.3 18C15.15 18.45 15 18.9 15 19.5C15 22.05 16.95 24 19.5 24C22.05 24 24 22.05 24 19.5C24 16.95 22.05 15 19.5 15ZM4.5 21C3.6 21 3 20.4 3 19.5C3 18.6 3.6 18 4.5 18C5.4 18 6 18.6 6 19.5C6 20.4 5.4 21 4.5 21ZM12 6C11.1 6 10.5 5.4 10.5 4.5C10.5 3.6 11.1 3 12 3C12.9 3 13.5 3.6 13.5 4.5C13.5 5.4 12.9 6 12 6ZM19.5 21C18.6 21 18 20.4 18 19.5C18 18.6 18.6 18 19.5 18C20.4 18 21 18.6 21 19.5C21 20.4 20.4 21 19.5 21Z" fill="currentColor"/>
</g>
<defs>
<clipPath id="clip0_865_5110">
<rect width="24" height="24" fill="currentColor"/>
</clipPath>
</defs>
</svg>
