<svg width="24" height="24" viewBox="0 0 24 24"  xmlns="http://www.w3.org/2000/svg">
<path d="M14.4001 2.8C14.4001 2.35817 14.0419 2 13.6001 2C13.1583 2 12.8001 2.35817 12.8001 2.8V10.4C12.8001 10.4936 12.8162 10.5835 12.8458 10.667C12.8843 10.7761 12.9472 10.8785 13.0344 10.9658C13.1938 11.1252 13.4037 11.2032 13.6126 11.2H21.2001C21.6419 11.2 22.0001 10.8418 22.0001 10.4C22.0001 9.95817 21.6419 9.6 21.2001 9.6H15.5316L22.1658 2.96578C22.4782 2.65336 22.4782 2.14683 22.1658 1.83441C21.8534 1.52199 21.3468 1.52199 21.0344 1.83441L14.4001 8.46873V2.8ZM1.83441 21.0341L8.46873 14.3998H2.80012C2.35829 14.3998 2.00012 14.0416 2.00012 13.5998C2.00012 13.158 2.35829 12.7998 2.80012 12.7998H10.4001C10.5132 12.7998 10.6208 12.8233 10.7183 12.8656C10.7937 12.8982 10.8651 12.9431 10.9296 13.0001C10.9557 13.0231 10.9802 13.0478 11.0031 13.074C11.0548 13.1332 11.0964 13.1982 11.1277 13.2668C11.1742 13.3682 11.2001 13.481 11.2001 13.5998V21.1998C11.2001 21.6416 10.842 21.9998 10.4001 21.9998C9.95829 21.9998 9.60012 21.6416 9.60012 21.1998V15.5311L2.96578 22.1655C2.65336 22.4779 2.14683 22.4779 1.83441 22.1655C1.52199 21.8531 1.52199 21.3465 1.83441 21.0341Z" fill="currentColor"/>
</svg>
