<svg width="24" height="24" viewBox="0 0 24 24"  xmlns="http://www.w3.org/2000/svg">
<path d="M15 1.75C15 1.33579 14.6642 1 14.25 1C13.8358 1 13.5 1.33579 13.5 1.75V9.75C13.5 9.95462 13.5819 10.1401 13.7148 10.2754L13.7246 10.2852C13.7953 10.3547 13.8765 10.4073 13.9629 10.4431C14.0513 10.4798 14.1483 10.5 14.25 10.5H22.25C22.6642 10.5 23 10.1642 23 9.75C23 9.33579 22.6642 9 22.25 9H16.0607L22.2803 2.78033C22.5732 2.48744 22.5732 2.01256 22.2803 1.71967C21.9874 1.42678 21.5126 1.42678 21.2197 1.71967L15 7.93934V1.75ZM1.75 13.5C1.33579 13.5 1 13.8358 1 14.25C1 14.6642 1.33579 15 1.75 15H7.93934L1.71967 21.2197C1.42678 21.5126 1.42678 21.9874 1.71967 22.2803C2.01256 22.5732 2.48744 22.5732 2.78033 22.2803L9 16.0607V22.25C9 22.6642 9.33579 23 9.75 23C10.1642 23 10.5 22.6642 10.5 22.25V14.25C10.5 14.1483 10.4798 14.0513 10.4431 13.9629C10.4073 13.8765 10.3547 13.7953 10.2852 13.7246L10.2754 13.7148C10.1401 13.5819 9.95462 13.5 9.75 13.5H1.75ZM13.9629 13.5569C14.0513 13.5202 14.1483 13.5 14.25 13.5H22.25C22.6642 13.5 23 13.8358 23 14.25C23 14.6642 22.6642 15 22.25 15H16.0607L22.2803 21.2197C22.5732 21.5126 22.5732 21.9874 22.2803 22.2803C21.9874 22.5732 21.5126 22.5732 21.2197 22.2803L15 16.0607V22.25C15 22.6642 14.6642 23 14.25 23C13.8358 23 13.5 22.6642 13.5 22.25V14.25C13.5 14.0454 13.5819 13.8599 13.7148 13.7246L13.7246 13.7148C13.7953 13.6453 13.8765 13.5927 13.9629 13.5569ZM9.75 1C10.1642 1 10.5 1.33579 10.5 1.75V9.75C10.5 9.95376 10.4187 10.1385 10.2869 10.2737C10.2825 10.2781 10.2781 10.2825 10.2737 10.2869C10.2034 10.3555 10.1228 10.4076 10.0371 10.4431C9.94866 10.4798 9.85169 10.5 9.75 10.5H1.75C1.33579 10.5 1 10.1642 1 9.75C1 9.33579 1.33579 9 1.75 9H7.93934L1.71967 2.78033C1.42678 2.48744 1.42678 2.01256 1.71967 1.71967C2.01256 1.42678 2.48744 1.42678 2.78033 1.71967L9 7.93934V1.75C9 1.33579 9.33579 1 9.75 1Z" fill="currentColor"/>
</svg>
