<svg width="24" height="24" viewBox="0 0 24 24"  xmlns="http://www.w3.org/2000/svg">
<path d="M11.216 1.00037H1.95957V9.47232H4.78355V5.5073L12.054 11.3236L20.7892 3.46195L18.9 1.3629L11.9464 7.62114L7.20044 3.82435H11.216V1.00037ZM12.0049 13.2764H12.0193C13.0151 13.2764 14.1143 13.371 15.3154 13.5581C16.5303 13.7465 17.7013 14.0217 18.8283 14.3833C19.9676 14.7481 20.9819 15.2095 21.8624 15.7736C22.7679 16.3534 23.4386 17.0676 23.7524 17.9444L23.7559 17.9545C24.0785 18.8962 24.0958 19.8207 23.7208 20.6708L23.2832 21.6586L23.2611 21.6965C23.0777 22.0104 22.8104 22.2661 22.4557 22.4125C22.2513 22.4972 22.0417 22.5272 21.8468 22.5272C21.6562 22.5272 21.4646 22.4983 21.2788 22.4518L20.9001 22.3667C20.5032 22.2774 19.8707 22.1353 19.0081 21.941C17.7356 21.6546 16.6432 21.1641 16.1719 20.2577C15.8432 19.6534 15.6239 18.9864 15.7759 18.3502C15.7489 18.3167 15.6878 18.2543 15.5615 18.1707L15.5464 18.1604C15.2678 17.9666 14.7601 17.7908 13.9234 17.7101C13.0459 17.6268 12.4233 17.5875 12.0337 17.5875H12.0203C11.6111 17.5875 10.9763 17.6305 10.0979 17.7221C9.26772 17.8107 8.74232 17.9848 8.44122 18.1804C8.31376 18.2652 8.25276 18.3283 8.22621 18.3617C8.37618 18.9921 8.16707 19.6626 7.84927 20.2783L7.84018 20.2954C7.35709 21.1772 6.27314 21.6671 5.00343 21.964C3.81265 22.2415 3.03382 22.4158 2.69864 22.4755C2.51973 22.5198 2.33294 22.5484 2.14555 22.5484C1.94915 22.5484 1.7421 22.5176 1.53963 22.4337C1.18709 22.2881 0.917998 22.0343 0.733777 21.7159L0.712253 21.6788L0.277185 20.6918C-0.0988476 19.8403 -0.0758258 18.9172 0.246892 17.9773L0.250481 17.9671C0.565316 17.0897 1.23646 16.3749 2.14406 15.7939C3.02398 15.2291 4.03799 14.7656 5.17892 14.3976C6.30624 14.0337 7.47807 13.7563 8.69274 13.5648C9.90011 13.3743 11.0057 13.2775 12.0049 13.2764Z" fill="currentColor"/>
</svg>
