<svg width="24" height="24" viewBox="0 0 24 24"  xmlns="http://www.w3.org/2000/svg">
<path d="M3 1.5H10.5V3H5.70055L11.9712 8.01653L18.998 1.69238L20.0015 2.80732L12.0283 9.98317L4.5 3.9605V8.25H3V1.5Z" fill="currentColor"/>
<path fill-rule="evenodd" clip-rule="evenodd" d="M12.1512 12C7.00894 12 3.98407 13.3612 2.32039 14.4199C0.807954 15.4787 -0.250754 17.4448 0.0517343 18.9571C0.354222 20.7722 1.11044 21.5283 1.71542 21.8308C2.01771 21.982 2.32069 22.1334 2.77413 22.1334C3.98407 22.1334 6.25273 21.5283 7.16019 20.9234C8.97511 20.1672 9.12636 18.6547 9.12636 18.201V17.8984C9.73134 17.7472 10.6388 17.5961 12.1512 17.5961C13.6637 17.5961 14.5711 17.7472 15.0249 17.8984V18.0498C15.0249 18.5035 15.3273 20.1672 16.8397 20.9234C17.7472 21.3771 20.0159 22.1334 21.2259 22.1334C21.6792 22.1334 21.9815 21.9823 22.2837 21.8313C22.8887 21.5287 23.6458 20.7722 23.9482 18.9571C24.2508 17.2935 23.1921 15.3273 21.6796 14.4199C20.1672 13.3612 17.1423 12 12.1512 12ZM12.1512 13.5124C17.1423 13.5124 19.8647 14.8736 21.0747 15.6299C22.1334 16.386 22.7383 17.7472 22.587 18.6547C22.4358 19.5623 22.1334 20.1672 21.6796 20.4696H21.3771C20.4696 20.4696 18.5035 19.8647 17.7472 19.5623C16.8398 19.1085 16.6885 18.201 16.6885 17.7472C16.6885 17.6511 16.6953 17.5617 16.7017 17.4777C16.7255 17.1653 16.7436 16.927 16.386 16.6885C15.4787 16.2348 14.2687 16.0836 12.1512 16.0836C10.0338 16.0836 8.82388 16.2348 8.06766 16.8397C7.66434 17.1422 7.66434 17.3103 7.66434 17.5232C7.66434 17.6296 7.66434 17.7472 7.61392 17.8984C7.61392 18.3522 7.46268 19.1085 6.55522 19.7134C5.799 20.1672 3.83283 20.621 2.92537 20.621H2.62288C2.16915 20.3184 1.71542 19.7134 1.56417 18.806C1.41293 17.8985 2.0179 16.386 3.0766 15.7811C4.43781 14.8736 7.16019 13.5124 12.1512 13.5124Z" fill="currentColor"/>
</svg>
