<svg width="24" height="24" viewBox="0 0 24 24"  xmlns="http://www.w3.org/2000/svg">
<path d="M20.2283 3.13043C21.4805 3.13043 22.4196 4.17391 22.4196 5.32174V21.8087C22.4196 23.0609 21.3761 24 20.2283 24H11.9848C10.7327 24 9.79353 22.9565 9.79353 21.8087V20.9739H3.74135C2.48918 20.9739 1.55005 19.9304 1.55005 18.7826V2.1913C1.55005 0.93913 2.59353 0 3.74135 0H11.9848C13.237 0 14.1761 1.04348 14.1761 2.1913V3.02609L20.2283 3.13043ZM20.2283 22.6435C20.75 22.6435 21.0631 22.2261 21.0631 21.8087V18.887H11.0457V21.8087C11.0457 22.3304 11.4631 22.6435 11.8805 22.6435H20.2283ZM3.74135 19.6174H9.79353V15.7565H2.90657V18.6783C2.90657 19.2 3.32396 19.6174 3.74135 19.6174ZM9.79353 14.4V5.32174C9.79353 5.21739 9.79353 5.11304 9.79353 5.0087H2.90657V14.5043L9.79353 14.4ZM3.74135 1.35652C3.21961 1.35652 2.90657 1.77391 2.90657 2.1913V3.65217H10.6283C10.9414 3.23478 11.4631 3.13043 11.9848 3.13043H12.8196V2.1913C12.8196 1.66957 12.4022 1.35652 11.9848 1.35652H3.74135ZM11.15 17.5304H21.1674V8.03478H11.15V17.5304ZM21.0631 5.32174C21.0631 4.8 20.6457 4.48696 20.2283 4.48696H11.9848C11.4631 4.48696 11.15 4.90435 11.15 5.32174V6.67826H21.1674C21.0631 6.67826 21.0631 5.32174 21.0631 5.32174ZM16.0544 19.6174C16.6805 19.6174 17.2022 20.2435 17.2022 20.8696C17.2022 21.4957 16.6805 22.0174 16.0544 22.0174C15.4283 22.0174 14.9066 21.3913 14.9066 20.7652C15.0109 20.1391 15.5327 19.6174 16.0544 19.6174ZM7.91527 16.487C8.54135 16.487 9.06309 17.0087 9.06309 17.6348C9.06309 18.2609 8.54135 18.7826 7.91527 18.7826C7.28918 18.7826 6.76744 18.2609 6.76744 17.6348C6.66309 17.0087 7.18483 16.487 7.91527 16.487Z" fill="currentColor"/>
</svg>
