<svg width="24" height="24" viewBox="0 0 24 24"  xmlns="http://www.w3.org/2000/svg">
<g clip-path="url(#clip0_865_2758)">
<path fill-rule="evenodd" clip-rule="evenodd" d="M2.4 0H12C13.3236 0 14.4 1.06519 14.4 2.375V5H21.6C22.9236 5 24 6.06519 24 7.375V21.625C24 22.9348 22.9236 24 21.6 24H12C10.6764 24 9.6 22.9348 9.6 21.625V19H2.4C1.0764 19 0 17.9348 0 16.625V2.375C0 1.06519 1.0764 0 2.4 0ZM9.6 11.875V7.375C9.6 6.06519 10.6764 5 12 5V2.375H2.4V11.875H9.6ZM7.2 16.625C6.5376 16.625 6 16.093 6 15.4375C6 14.782 6.5376 14.25 7.2 14.25C7.8624 14.25 8.4 14.782 8.4 15.4375C8.4 16.093 7.8624 16.625 7.2 16.625ZM15.6 20.4375C15.6 21.093 16.1376 21.625 16.8 21.625C17.4624 21.625 18 21.093 18 20.4375C18 19.782 17.4624 19.25 16.8 19.25C16.1376 19.25 15.6 19.782 15.6 20.4375ZM12 16.875H21.6V7.375H12V16.875Z" fill="currentColor"/>
</g>
<defs>
<clipPath id="clip0_865_2758">
<rect width="24" height="24" fill="currentColor"/>
</clipPath>
</defs>
</svg>
