<svg width="24" height="24" viewBox="0 0 24 24"  xmlns="http://www.w3.org/2000/svg">
<path d="M12.4863 6.2059C12.2087 6.4812 12.2078 6.92844 12.4843 7.20484L14.8322 9.55173H7.45946C7.06764 9.55173 6.75 9.86798 6.75 10.2581C6.75 10.6482 7.06764 10.9644 7.45946 10.9644H14.8326L12.4843 13.3118C12.2078 13.5882 12.2087 14.0355 12.4863 14.3108C12.7639 14.5861 13.2131 14.5852 13.4896 14.3088L17.0431 10.7568C17.1032 10.6967 17.1502 10.6286 17.1841 10.5558C17.2264 10.4654 17.25 10.3645 17.25 10.2581C17.25 10.0565 17.1652 9.87469 17.0292 9.746L13.4896 6.20788C13.2131 5.93148 12.7639 5.9306 12.4863 6.2059Z" fill="currentColor"/>
<path fill-rule="evenodd" clip-rule="evenodd" d="M3 20.25V3.75C3 1.67893 4.67893 0 6.75 0H17.25C19.3211 0 21 1.67893 21 3.75V20.25C21 22.3211 19.3211 24 17.25 24H6.75C4.67893 24 3 22.3211 3 20.25ZM4.5 3.75C4.5 2.50736 5.50736 1.5 6.75 1.5H17.25C18.4926 1.5 19.5 2.50736 19.5 3.75V18H4.5V3.75ZM19.5 19.5V20.25C19.5 21.4926 18.4926 22.5 17.25 22.5H6.75C5.50736 22.5 4.5 21.4926 4.5 20.25V19.5H19.5Z" fill="currentColor"/>
</svg>
