<svg width="24" height="24" viewBox="0 0 24 24"  xmlns="http://www.w3.org/2000/svg">
<path d="M6.75 18C6.33579 18 6 18.3358 6 18.75C6 19.1642 6.33579 19.5 6.75 19.5H17.25C17.6642 19.5 18 19.1642 18 18.75C18 18.3358 17.6642 18 17.25 18H6.75Z" fill="currentColor"/>
<path fill-rule="evenodd" clip-rule="evenodd" d="M5.25 0C4.00736 0 3 1.00736 3 2.25V21.75C3 22.9926 4.00736 24 5.25 24H18.75C19.9926 24 21 22.9926 21 21.75V2.25C21 1.00736 19.9926 0 18.75 0H5.25ZM4.5 2.25C4.5 1.83579 4.83579 1.5 5.25 1.5H18.75C19.1642 1.5 19.5 1.83579 19.5 2.25V21.75C19.5 22.1642 19.1642 22.5 18.75 22.5H5.25C4.83579 22.5 4.5 22.1642 4.5 21.75V2.25Z" fill="currentColor"/>
</svg>
