<svg width="24" height="24" viewBox="0 0 24 24"  xmlns="http://www.w3.org/2000/svg">
<g clip-path="url(#clip0_865_4314)">
<path d="M21.75 0H2.25C1.05 0 0 1.05 0 2.25V21.75C0 22.95 1.05 24 2.25 24H21.75C22.95 24 24 22.95 24 21.75V2.25C24 1.05 22.95 0 21.75 0ZM7.5 22.5H2.25C1.8 22.5 1.5 22.2 1.5 21.75V9H7.5V22.5ZM22.5 21.75C22.5 22.2 22.2 22.5 21.75 22.5H9V9H22.5V21.75ZM22.5 7.5H1.5V2.25C1.5 1.8 1.8 1.5 2.25 1.5H21.75C22.2 1.5 22.5 1.8 22.5 2.25V7.5Z" fill="currentColor"/>
</g>
<defs>
<clipPath id="clip0_865_4314">
<rect width="24" height="24" fill="currentColor"/>
</clipPath>
</defs>
</svg>
