<svg width="24" height="24" viewBox="0 0 24 24"  xmlns="http://www.w3.org/2000/svg">
<path d="M4 2C3.44772 2 3 2.44772 3 3V21.0001C3 21.5523 3.44772 22.0001 4 22.0001H5C5.55228 22.0001 6 21.5524 6 21.0001V7.87123L11.2885 13.2258C11.68 13.6222 12.32 13.6222 12.7115 13.2258L18 7.87123V21.0001C18 21.5523 18.4477 22.0001 19 22.0001H20C20.5523 22.0001 21 21.5523 21 21.0001V3C21 2.44772 20.5523 2 20 2H18.4706C18.1725 2 17.89 2.13296 17.7 2.36264L12 9.25391L6.29995 2.36264C6.10998 2.13296 5.82745 2 5.52939 2H4Z" fill="currentColor"/>
</svg>
