<svg width="24" height="24" viewBox="0 0 24 24"  xmlns="http://www.w3.org/2000/svg">
<path d="M4.25 2C3.69772 2 3.25 2.44772 3.25 3V21.25C3.25 21.6642 3.58579 22 4 22C4.41421 22 4.75 21.6642 4.75 21.25V3.97264L11.216 12.1388C11.6164 12.6444 12.3836 12.6444 12.784 12.1388L19.25 3.97264V21.25C19.25 21.6642 19.5858 22 20 22C20.4142 22 20.75 21.6642 20.75 21.25V3C20.75 2.44772 20.3023 2 19.75 2H19.4814C19.1752 2 18.8859 2.1403 18.6962 2.38074L12 10.8711L5.30375 2.38074C5.11413 2.1403 4.82479 2 4.51857 2H4.25Z" fill="currentColor"/>
</svg>
