<svg width="24" height="24" viewBox="0 0 24 24"  xmlns="http://www.w3.org/2000/svg">
<path fill-rule="evenodd" clip-rule="evenodd" d="M12 4.5C12.8284 4.5 13.5 3.82843 13.5 3C13.5 2.17157 12.8284 1.5 12 1.5C11.1716 1.5 10.5 2.17157 10.5 3C10.5 3.82843 11.1716 4.5 12 4.5ZM12 6C13.6569 6 15 4.65685 15 3C15 1.34315 13.6569 0 12 0C10.3431 0 9 1.34315 9 3C9 4.65685 10.3431 6 12 6ZM12 13.5C12.8284 13.5 13.5 12.8284 13.5 12C13.5 11.1716 12.8284 10.5 12 10.5C11.1716 10.5 10.5 11.1716 10.5 12C10.5 12.8284 11.1716 13.5 12 13.5ZM12 15C13.6569 15 15 13.6569 15 12C15 10.3431 13.6569 9 12 9C10.3431 9 9 10.3431 9 12C9 13.6569 10.3431 15 12 15ZM12 22.5C12.8284 22.5 13.5 21.8284 13.5 21C13.5 20.1716 12.8284 19.5 12 19.5C11.1716 19.5 10.5 20.1716 10.5 21C10.5 21.8284 11.1716 22.5 12 22.5ZM12 24C13.6569 24 15 22.6569 15 21C15 19.3431 13.6569 18 12 18C10.3431 18 9 19.3431 9 21C9 22.6569 10.3431 24 12 24Z" fill="currentColor"/>
</svg>
