<svg width="24" height="24" viewBox="0 0 24 24"  xmlns="http://www.w3.org/2000/svg">
<path d="M18.9999 4.89986V16.1999C18.7999 17.0999 17.8999 17.9999 16.6999 18.4999C14.9999 19.0999 13.2999 18.6999 12.8999 17.5999C12.4999 16.4999 13.4999 14.9999 15.1999 14.3999C16.0999 14.0999 16.9999 13.9999 17.6999 14.1999V6.89986L9.29993 9.29986V19.4999C9.09993 20.3999 8.19993 21.2999 6.99993 21.7999C5.29993 22.3999 3.59993 21.9999 3.19993 20.8999C2.79993 19.7999 3.79993 18.2999 5.49993 17.6999C6.29993 17.3999 7.09993 17.2999 7.79993 17.4999V5.69986C7.79993 5.29986 8.09993 4.89986 8.49993 4.69986L17.6999 1.99986C18.1999 1.79986 18.7999 2.19986 18.8999 2.69986C18.8999 2.79986 18.8999 2.89986 18.8999 2.99986L18.9999 4.89986Z" fill="currentColor"/>
</svg>
