<svg width="24" height="24" viewBox="0 0 24 24"  xmlns="http://www.w3.org/2000/svg">
<path fill-rule="evenodd" clip-rule="evenodd" d="M19.7499 2.34392C19.7499 1.17166 18.6199 0.330879 17.4971 0.667725L9.49706 3.06772C8.75684 3.28979 8.24992 3.97111 8.24992 4.74392V16.9184C8.08243 16.841 7.90789 16.7774 7.73003 16.7275C6.88125 16.4893 5.8762 16.5282 4.89987 16.855C3.92355 17.1819 3.09767 17.7559 2.56342 18.4572C2.03212 19.1546 1.74468 20.0511 2.04091 20.936C2.33715 21.8209 3.10645 22.3637 3.95054 22.6006C4.79932 22.8388 5.80437 22.8 6.78069 22.4731C7.75701 22.1463 8.5829 21.5722 9.11715 20.8709C9.54254 20.3125 9.8116 19.6265 9.74992 18.921V9.55791L18.2499 7.00791V13.7182C18.0824 13.6408 17.9079 13.5773 17.73 13.5273C16.8813 13.2891 15.8762 13.328 14.8999 13.6548C13.9236 13.9817 13.0977 14.5557 12.5634 15.257C12.0321 15.9544 11.7447 16.851 12.0409 17.7358C12.3371 18.6207 13.1064 19.1635 13.9505 19.4004C14.7993 19.6387 15.8044 19.5998 16.7807 19.2729C17.757 18.9461 18.5829 18.372 19.1172 17.6707C19.5425 17.1124 19.8116 16.4263 19.7499 15.7208V2.34392ZM17.9281 2.10446C18.0885 2.05634 18.2499 2.17646 18.2499 2.34392V5.44187L9.74992 7.99187V4.74392C9.74992 4.63352 9.82234 4.53619 9.92808 4.50446L17.9281 2.10446ZM18.2499 15.8101V16H18.2541C18.2358 16.222 18.1378 16.481 17.924 16.7617C17.5947 17.1939 17.0337 17.6064 16.3045 17.8505C15.5753 18.0946 14.879 18.1031 14.3559 17.9562C13.8281 17.8081 13.555 17.5334 13.4633 17.2596C13.3717 16.9859 13.4244 16.6021 13.7566 16.166C14.0859 15.7338 14.6468 15.3213 15.3761 15.0772C16.1053 14.8331 16.8015 14.8247 17.3246 14.9715C17.8524 15.1197 18.1256 15.3944 18.2172 15.6681C18.2321 15.7126 18.2432 15.76 18.2499 15.8101ZM3.7566 19.3662C3.42439 19.8023 3.37168 20.1861 3.46332 20.4598C3.55497 20.7336 3.82813 21.0083 4.35592 21.1564C4.87903 21.3032 5.57528 21.2948 6.3045 21.0507C7.03373 20.8066 7.59471 20.3941 7.92397 19.9619C8.25618 19.5258 8.30889 19.1421 8.21725 18.8683C8.1256 18.5945 7.85244 18.3199 7.32465 18.1717C6.80154 18.0249 6.10529 18.0333 5.37607 18.2774C4.64684 18.5215 4.08586 18.934 3.7566 19.3662Z" fill="currentColor"/>
</svg>
