<svg width="24" height="24" viewBox="0 0 24 24" fill="none" xmlns="http://www.w3.org/2000/svg">
<path fill-rule="evenodd" clip-rule="evenodd" d="M14.8778 13.7059C14.8778 9.47059 14.8778 5.23529 14.8778 1C9.88235 1 4.88688 1 0 1C0 1.1086 0 4.58371 0 6.32127C3.04072 6.32127 6.08145 6.32127 9.12217 6.32127C14.8778 13.7059 9.12217 6.32127 14.8778 13.7059ZM14.7691 18.3756C12.8144 15.9865 10.9682 13.4887 9.12207 11.0996C9.12207 15.3349 9.12207 19.4616 9.12207 23.6969C14.1175 23.6969 19.0044 23.6969 23.9999 23.6969C23.9999 21.8507 23.9999 20.1132 23.9999 18.267C20.8506 18.3756 17.8099 18.3756 14.7691 18.3756Z" fill="#00467F"/>
<path fill-rule="evenodd" clip-rule="evenodd" d="M15.8552 2.08594C15.8552 3.4977 15.8552 4.90947 15.8552 6.32123C15.8552 6.32123 17.4842 6.32123 18.2444 6.32123C18.2444 10.0135 18.2444 13.8144 18.2444 17.5068C19.7647 17.5068 21.3937 17.5068 22.914 17.5068C22.914 12.4027 22.914 7.19001 22.914 2.08594C20.5249 2.08594 18.1358 2.08594 15.8552 2.08594ZM5.75562 7.29858C4.23526 7.29858 2.6063 7.29858 1.08594 7.29858C1.08594 12.4027 1.08594 17.6153 1.08594 22.7194C3.36648 22.7194 5.75562 22.7194 8.03616 22.7194C8.03616 21.3076 8.03616 19.7873 8.03616 18.3755C7.27598 18.3755 6.5158 18.3755 5.75562 18.3755C5.75562 14.6832 5.75562 10.9909 5.75562 7.29858Z" fill="#B9C7D4"/>
</svg>
