<svg width="24" height="24" viewBox="0 0 24 24"  xmlns="http://www.w3.org/2000/svg">
<path fill-rule="evenodd" clip-rule="evenodd" d="M18.3501 4.86624C18.3501 4.38783 17.9695 4 17.5001 4C17.0307 4 16.6501 4.38783 16.6501 4.86624V10.6296C16.5556 10.5227 16.4477 10.4255 16.3263 10.3407L7.69724 4.30509C6.51034 3.47492 5 4.442 5 5.96442V18.0356C5 19.558 6.51034 20.5251 7.69724 19.6949L16.3263 13.6593C16.4477 13.5745 16.5556 13.4772 16.6501 13.3704V19.1338C16.6501 19.6122 17.0307 20 17.5001 20C17.9695 20 18.3501 19.6122 18.3501 19.1338V4.86624ZM6.8275 5.82655C6.75307 5.77449 6.62729 5.82223 6.62729 5.96442V18.0356C6.62729 18.1777 6.75305 18.2255 6.82753 18.1735L15.4566 12.1379C15.5449 12.0761 15.5449 11.9239 15.4566 11.8621L6.8275 5.82655Z" fill="currentColor"/>
</svg>
