<svg width="24" height="24" viewBox="0 0 24 24"  xmlns="http://www.w3.org/2000/svg">
<path fill-rule="evenodd" clip-rule="evenodd" d="M15.9835 20.334C13.6199 22.5488 10.2481 23.826 6.13567 23.9998L6.04713 22.6815C9.82935 22.5118 12.8246 21.3995 14.9303 19.4566C17.1354 17.4221 17.8453 14.4095 17.9695 10.9051C17.0832 13.6263 13.5771 14.9902 10.409 14.9902C8.03488 14.9902 6.19344 14.2003 4.94538 12.9185C3.6949 11.6342 2.99997 9.81483 2.99997 7.68457C2.99997 5.29133 3.88252 3.38204 5.31691 2.06768C6.75609 0.748928 8.78354 0 11.1151 0C13.5921 0 15.7591 0.836556 17.3102 2.51639C18.864 4.19923 19.1407 6.83497 19.1407 10.4226C19.1407 14.7435 18.4316 18.0401 15.9835 20.334ZM11.0462 1.26411C9.20803 1.26411 7.55673 1.82448 6.35924 2.91547C5.15577 4.01191 4.45352 5.60588 4.45352 7.58123C4.45352 9.42413 5.06566 10.9973 6.20206 12.1099C7.33763 13.2216 8.95156 13.8295 10.874 13.8295C12.7269 13.8295 14.4801 13.2667 15.7794 12.1939C17.088 11.1137 17.9144 9.53225 17.9144 7.56401C17.9144 3.79749 14.9377 1.26411 11.0462 1.26411Z" fill="currentColor"/>
</svg>
