<svg width="24" height="24" viewBox="0 0 24 24"  xmlns="http://www.w3.org/2000/svg">
<path d="M5.9111 24L5.71261 20.8408C12.858 20.7085 16.5465 17.5327 17.357 12.4714C16.2653 14.3074 13.6023 15.5314 10.6416 15.5314C5.69607 15.5314 3 12.1737 3 7.98897C3 2.97726 6.87043 0 11.5017 0C16.3646 0 20.6154 3.22536 20.6154 10.4866C20.6154 18.9387 14.8594 23.8511 5.9111 24ZM11.4686 3.09304C8.67333 3.09304 6.39077 4.68091 6.39077 7.84011C6.39077 10.685 8.25982 12.6037 11.3198 12.6037C14.1978 12.6037 16.8277 10.9331 16.8277 7.88973C16.8277 5.06134 14.5782 3.09304 11.4686 3.09304Z" fill="currentColor"/>
</svg>
