<svg width="24" height="24" viewBox="0 0 24 24"  xmlns="http://www.w3.org/2000/svg">
<path fill-rule="evenodd" clip-rule="evenodd" d="M8.25 0C7.83579 0 7.5 0.335786 7.5 0.75V16.1458C6.70387 15.4333 5.65253 15 4.5 15C2.01472 15 0 17.0147 0 19.5C0 21.9853 2.01472 24 4.5 24C6.98528 24 9 21.9853 9 19.5V7.5H21V13.1458C20.2039 12.4333 19.1525 12 18 12C15.5147 12 13.5 14.0147 13.5 16.5C13.5 18.9853 15.5147 21 18 21C20.4853 21 22.5 18.9853 22.5 16.5V0.75C22.5 0.335786 22.1642 0 21.75 0H8.25ZM21 16.5C21 14.8431 19.6569 13.5 18 13.5C16.3431 13.5 15 14.8431 15 16.5C15 18.1569 16.3431 19.5 18 19.5C19.6569 19.5 21 18.1569 21 16.5ZM4.5 16.5C6.15685 16.5 7.5 17.8431 7.5 19.5C7.5 21.1569 6.15685 22.5 4.5 22.5C2.84315 22.5 1.5 21.1569 1.5 19.5C1.5 17.8431 2.84315 16.5 4.5 16.5ZM21 6V1.5H9V6H21Z" fill="currentColor"/>
</svg>
