<svg width="24" height="24" viewBox="0 0 24 24"  xmlns="http://www.w3.org/2000/svg">
<path fill-rule="evenodd" clip-rule="evenodd" d="M7.5 0.75C7.5 0.335786 7.83579 0 8.25 0H15.75C16.1642 0 16.5 0.335786 16.5 0.75V3.75C16.5 4.16421 16.1642 4.5 15.75 4.5H8.25C7.83579 4.5 7.5 4.16421 7.5 3.75V0.75ZM9 3H15V1.5H9V3Z" fill="currentColor"/>
<path d="M3.75 3C3.55109 3 3.36032 3.07902 3.21967 3.21967C3.07902 3.36032 3 3.55109 3 3.75V21.75C3 21.9489 3.07902 22.1397 3.21967 22.2803C3.36032 22.421 3.55109 22.5 3.75 22.5H20.25C20.4489 22.5 20.6397 22.421 20.7803 22.2803C20.921 22.1397 21 21.9489 21 21.75V3.75C21 3.55109 20.921 3.36032 20.7803 3.21967C20.6397 3.07902 20.4489 3 20.25 3H18.75C18.3358 3 18 2.66421 18 2.25C18 1.83579 18.3358 1.5 18.75 1.5H20.25C20.8467 1.5 21.419 1.73705 21.841 2.15901C22.2629 2.58097 22.5 3.15326 22.5 3.75V21.75C22.5 22.3467 22.2629 22.919 21.841 23.341C21.419 23.7629 20.8467 24 20.25 24H3.75C3.15326 24 2.58097 23.7629 2.15901 23.341C1.73705 22.919 1.5 22.3467 1.5 21.75V3.75C1.5 3.15326 1.73705 2.58097 2.15901 2.15901C2.58097 1.73705 3.15326 1.5 3.75 1.5H5.25C5.66421 1.5 6 1.83579 6 2.25C6 2.66421 5.66421 3 5.25 3H3.75ZM6.75 9C6.33579 9 6 9.33579 6 9.75C6 10.1642 6.33579 10.5 6.75 10.5H17.25C17.6642 10.5 18 10.1642 18 9.75C18 9.33579 17.6642 9 17.25 9H6.75ZM6 14.25C6 13.8358 6.33579 13.5 6.75 13.5H17.25C17.6642 13.5 18 13.8358 18 14.25C18 14.6642 17.6642 15 17.25 15H6.75C6.33579 15 6 14.6642 6 14.25ZM6.75 18C6.33579 18 6 18.3358 6 18.75C6 19.1642 6.33579 19.5 6.75 19.5H17.25C17.6642 19.5 18 19.1642 18 18.75C18 18.3358 17.6642 18 17.25 18H6.75Z" fill="currentColor"/>
</svg>
