<svg width="24" height="24" viewBox="0 0 24 24"  xmlns="http://www.w3.org/2000/svg">
<g clip-path="url(#clip0_865_62)">
<path fill-rule="evenodd" clip-rule="evenodd" d="M1.29251 0.221759C0.996829 -0.0739197 0.517439 -0.0739197 0.221759 0.221759C-0.0739197 0.517439 -0.0739197 0.996829 0.221759 1.29251L22.7075 23.7782C23.0032 24.0739 23.4826 24.0739 23.7782 23.7782C24.0739 23.4826 24.0739 23.0032 23.7782 22.7075L18.6332 17.5625H22.3125C22.7267 17.5625 23.0625 17.2267 23.0625 16.8125C23.0625 16.3983 22.7267 16.0625 22.3125 16.0625H21.625C21.0471 16.0625 20.3416 15.8199 19.7839 15.4053C19.2187 14.9853 18.9375 14.495 18.9375 14.0625V7.875C18.9375 4.04391 15.8311 0.9375 12 0.9375C9.29729 0.9375 6.95523 2.48352 5.81008 4.73933L1.29251 0.221759ZM6.94323 5.87248L17.1332 16.0625H18.2807C17.7919 15.5286 17.4375 14.8484 17.4375 14.0625V7.875C17.4375 4.87234 15.0027 2.4375 12 2.4375C9.70447 2.4375 7.7408 3.86057 6.94323 5.87248Z" fill="currentColor"/>
<path d="M13.4918 17.5625L11.9918 16.0625H5.9355C6.33075 15.4957 6.5625 14.8062 6.5625 14.0625V10.6332L5.0625 9.13325V14.0625C5.0625 15.1677 4.16766 16.0625 3.0625 16.0625H1.6875C1.27329 16.0625 0.9375 16.3983 0.9375 16.8125C0.9375 17.2267 1.27329 17.5625 1.6875 17.5625H13.4918ZM9.25 18.8125C9.66421 18.8125 10 19.1483 10 19.5625C10 20.6677 10.8948 21.5625 12 21.5625C13.1052 21.5625 14 20.6677 14 19.5625C14 19.151 14.3314 18.8169 14.7418 18.8125L15.5 19.5707C15.4955 21.5005 13.9308 23.0625 12 23.0625C10.0664 23.0625 8.5 21.4961 8.5 19.5625C8.5 19.1483 8.83579 18.8125 9.25 18.8125Z" fill="currentColor"/>
</g>
<defs>
<clipPath id="clip0_865_62">
<rect width="24" height="24" fill="currentColor"/>
</clipPath>
</defs>
</svg>
