<svg width="24" height="24" viewBox="0 0 24 24"  xmlns="http://www.w3.org/2000/svg">
<path d="M20.9375 16.125H21.625C22.45 16.125 23 16.675 23 17.5C23 18.325 22.45 18.875 21.625 18.875H2.375C1.55 18.875 1 18.325 1 17.5C1 16.675 1.55 16.125 2.375 16.125H3.0625C4.025 15.1625 5.125 13.7875 5.125 12V7.875C5.125 4.025 8.15 1 12 1C15.85 1 18.875 4.025 18.875 7.875V12C18.875 13.7875 19.975 15.1625 20.9375 16.125ZM12 23C10.4875 23 9.25 21.7625 9.25 20.25H14.75C14.75 21.7625 13.5125 23 12 23Z" fill="currentColor"/>
</svg>
