<svg width="24" height="24" viewBox="0 0 24 24"  xmlns="http://www.w3.org/2000/svg">
<g clip-path="url(#clip0_865_74)">
<path fill-rule="evenodd" clip-rule="evenodd" d="M5.0625 7.875C5.0625 4.04391 8.16891 0.9375 12 0.9375C15.8311 0.9375 18.9375 4.04391 18.9375 7.875V14.0625C18.9375 14.495 19.2187 14.9853 19.7839 15.4053C20.3416 15.8199 21.0471 16.0625 21.625 16.0625H22.3125C22.7267 16.0625 23.0625 16.3983 23.0625 16.8125C23.0625 17.2267 22.7267 17.5625 22.3125 17.5625H1.6875C1.27329 17.5625 0.9375 17.2267 0.9375 16.8125C0.9375 16.3983 1.27329 16.0625 1.6875 16.0625H3.0625C4.16766 16.0625 5.0625 15.1677 5.0625 14.0625V7.875ZM17.4375 14.0625C17.4375 14.8484 17.7919 15.5286 18.2807 16.0625H5.9355C6.33075 15.4957 6.5625 14.8062 6.5625 14.0625V7.875C6.5625 4.87234 8.99734 2.4375 12 2.4375C15.0027 2.4375 17.4375 4.87234 17.4375 7.875V14.0625Z" fill="currentColor"/>
<path d="M10 19.5625C10 19.1483 9.66421 18.8125 9.25 18.8125C8.83579 18.8125 8.5 19.1483 8.5 19.5625C8.5 21.4961 10.0664 23.0625 12 23.0625C13.9336 23.0625 15.5 21.4961 15.5 19.5625C15.5 19.1483 15.1642 18.8125 14.75 18.8125C14.3358 18.8125 14 19.1483 14 19.5625C14 20.6677 13.1052 21.5625 12 21.5625C10.8948 21.5625 10 20.6677 10 19.5625Z" fill="currentColor"/>
</g>
<defs>
<clipPath id="clip0_865_74">
<rect width="24" height="24" fill="currentColor"/>
</clipPath>
</defs>
</svg>
