<svg width="24" height="24" viewBox="0 0 24 24"  xmlns="http://www.w3.org/2000/svg">
<path fill-rule="evenodd" clip-rule="evenodd" d="M12.071 1L12.4968 1.41509C15.1935 3.90566 18.7419 5.56604 22.4323 5.98113L23 6.1195V6.67296H22.2903C23 6.67296 23 6.67296 23 6.67296C23 6.67296 23 6.67296 23 6.81132C23 6.94969 23 7.08805 23 7.22641C23 7.50314 23 8.0566 22.8581 8.61006C22.7161 9.85535 22.2903 11.3774 21.7226 13.1761C20.4452 16.6352 17.6065 20.7862 12.2129 22.8616L12.071 23L11.7871 22.8616C6.39355 20.7862 3.69677 16.6352 2.27741 13.1761C1.56774 11.3774 1.28387 9.85535 1.14194 8.61006C1 8.0566 1 7.50314 1 7.22641C1 7.08805 1 6.94969 1 6.81132V6.67296C1 6.67296 1 6.67296 1.70967 6.67296H1V5.98113L1.56774 5.84277C5.25806 5.42767 8.80645 3.7673 11.5032 1.27673L12.071 1ZM2.41935 7.22641C2.41935 7.50314 2.41935 7.91824 2.56129 8.33333C2.70322 9.44025 2.98709 10.9623 3.69677 12.6226C4.97419 15.805 7.3871 19.4025 12.071 21.478C16.8968 19.5409 19.3097 15.9434 20.4452 12.6226C21.0129 10.9623 21.4387 9.44025 21.5806 8.33333C21.5806 7.91824 21.7226 7.50314 21.7226 7.22641C18.1742 6.67296 14.7677 5.15094 12.071 2.79874C9.3742 5.15094 5.96774 6.67296 2.41935 7.22641Z" fill="currentColor"/>
<path d="M15.0352 9.49014H16.8023L16.6081 10.833H14.8472L14.465 13.2928H16.2196L16.019 14.6545H14.2582L13.9386 16.6813H12.5474L12.8607 14.6545H10.5108L10.1975 16.6813H8.82512L9.13845 14.6545H7.33997L7.53423 13.2928H9.34524L9.72123 10.833H7.91649L8.12328 9.49014H9.93429L10.2476 7.45702H11.6388L11.3129 9.49014H13.6566L13.9762 7.45702H15.3673L15.0352 9.49014ZM13.4623 10.833H11.1124L10.7239 13.2928H13.0738L13.4623 10.833Z" fill="currentColor"/>
</svg>
