<svg width="24" height="24" viewBox="0 0 24 24"  xmlns="http://www.w3.org/2000/svg">
<path d="M12.0009 0.999756C15.0203 3.84895 18.8777 5.64905 23.0009 6.13354C23.0009 6.13354 23.0009 18.5998 12.0009 22.9998C4.25103 19.8999 1.96162 12.7961 1.28503 8.8689L1.26648 8.76343C1.00068 7.17572 1.00085 6.13354 1.00085 6.13354C5.12403 5.64905 8.98134 3.84895 12.0009 0.999756ZM10.2723 7.41675L9.96472 9.40991H8.1864L7.98328 10.7273H9.75574L9.3866 13.1394H7.60828L7.41785 14.4744H9.18347L8.87585 16.4617H10.2235L10.5311 14.4744H12.8387L12.5311 16.4617H13.8973L14.2108 14.4744H15.9393L16.1366 13.1394H14.4139L14.7889 10.7273H16.5184L16.7089 9.40991H14.9735L15.2997 7.41675H13.9335L13.62 9.40991H11.3182L11.6385 7.41675H10.2723ZM13.4296 10.7273L13.0477 13.1394H10.7401L11.1219 10.7273H13.4296Z" fill="currentColor"/>
</svg>
