<svg width="25" height="25" viewBox="0 0 25 25" fill="none" xmlns="http://www.w3.org/2000/svg">
<g clip-path="url(#clip0_865_1159)">
<path fill-rule="evenodd" clip-rule="evenodd" d="M0.000316188 12.5669C0.0526645 19.3264 5.74881 24.9996 12.4658 24.9996H12.5672C15.8859 24.9659 19.0564 23.6201 21.3859 21.2562C23.7155 18.8923 25.0148 15.7025 24.9999 12.3837C24.9852 10.7522 24.6478 9.13987 24.0071 7.63947C23.3664 6.13907 22.4351 4.7803 21.2668 3.64149C20.1178 2.4861 18.7514 1.56951 17.2465 0.944539C15.7417 0.319564 14.128 -0.00144649 12.4985 4.8997e-06C10.839 0.00853753 9.19772 0.3467 7.67002 0.994852C6.14231 1.643 4.7586 2.58823 3.59926 3.77563C2.4475 4.92994 1.53631 6.30139 0.918522 7.81048C0.300734 9.31957 -0.0113652 10.9363 0.000316188 12.5669ZM7.93002 1.6C9.37737 0.985004 10.9325 0.663572 12.505 0.654359C14.0481 0.651853 15.5764 0.955662 17.0013 1.54818C18.4261 2.14069 19.7192 3.01012 20.8055 4.10608C21.9126 5.18462 22.7954 6.47157 23.403 7.89278C24.0105 9.31399 24.3309 10.8414 24.3456 12.3869C24.3578 15.5339 23.1236 18.5577 20.9128 20.7973C18.702 23.0369 15.6944 24.3102 12.5476 24.3387H12.4625C6.10217 24.3387 0.703747 18.9665 0.65467 12.5603C0.645388 11.0157 0.94282 9.48465 1.52972 8.05587C2.11662 6.62709 2.98132 5.32903 4.07367 4.23695C5.17186 3.11132 6.48267 2.215 7.93002 1.6ZM2.80426 8.85347V16.1561L4.58083 16.1691V15.5148H3.63856V9.50782H4.58083V8.85347H2.80426ZM8.83402 12.4327C8.83402 13.7643 8.0259 14.5234 6.92985 14.5234C5.83381 14.5234 5.1042 13.6695 5.1042 12.5014C5.1042 11.2811 5.8698 10.4206 6.98874 10.4206C8.10769 10.4206 8.83402 11.3171 8.83402 12.4327ZM5.8698 12.4916C5.8698 13.2997 6.2755 13.941 6.97239 13.941C7.66927 13.941 8.06843 13.2867 8.06843 12.4622C8.06843 11.7129 7.69872 11.0062 6.97239 11.0062C6.24605 11.0062 5.86326 11.69 5.86326 12.508L5.8698 12.4916ZM10.5028 10.4696C10.1497 10.4683 9.79719 10.4979 9.44927 10.5579L9.45581 14.4415C9.75104 14.4779 10.0483 14.4953 10.3457 14.4939C11.0688 14.4939 11.5367 14.3728 11.818 14.1242C11.9397 14.0258 12.0375 13.9011 12.1038 13.7594C12.1701 13.6176 12.2033 13.4627 12.2008 13.3062C12.2009 13.0753 12.1212 12.8514 11.9751 12.6725C11.829 12.4936 11.6256 12.3707 11.3992 12.3247C11.585 12.2683 11.7482 12.1548 11.8656 12.0003C11.9831 11.8458 12.0489 11.6583 12.0536 11.4642C12.0573 11.3149 12.0211 11.1673 11.9486 11.0367C11.8761 10.9062 11.77 10.7973 11.6414 10.7215C11.2981 10.5191 10.8994 10.4309 10.5028 10.4696ZM10.5388 12.1251H10.1691L10.1658 11.0389C10.3018 11.0146 10.44 11.0047 10.578 11.0095C11.0394 11.0095 11.3207 11.2156 11.3207 11.5526C11.3207 11.8896 11.0393 12.1251 10.5388 12.1251ZM10.5519 13.9671C10.424 13.9694 10.2962 13.9639 10.1691 13.9508V12.6584H10.529C11.0295 12.6584 11.4287 12.8351 11.4287 13.3128C11.4287 13.7905 11.0164 13.9671 10.5519 13.9671ZM13.6304 10.5056H14.3535V13.087C14.3535 14.1831 13.8234 14.5495 13.0448 14.5495C12.8365 14.5478 12.6299 14.5124 12.4329 14.4448L12.5213 13.8624C12.6665 13.9078 12.8174 13.932 12.9695 13.9344C13.3818 13.9344 13.6239 13.7447 13.6239 13.0576L13.6304 10.5056ZM16.4115 13.1558V12.6552H14.9065V13.1558H16.4115ZM19.9255 14.3565C19.6002 14.4862 19.2514 14.5464 18.9014 14.5332C17.6418 14.5332 16.8762 13.7447 16.8762 12.5374C16.8613 12.2561 16.9061 11.9749 17.0077 11.7121C17.1093 11.4494 17.2654 11.2112 17.4656 11.0131C17.6659 10.815 17.9058 10.6615 18.1696 10.5628C18.4335 10.464 18.7152 10.4223 18.9963 10.4402C19.3325 10.4263 19.6676 10.4866 19.9778 10.6169L19.8175 11.1927C19.5714 11.088 19.3063 11.0356 19.0388 11.0389C18.2307 11.0389 17.6483 11.5461 17.6483 12.5014C17.6483 13.3717 18.162 13.9345 19.0323 13.9345C19.3023 13.9384 19.5704 13.8883 19.8208 13.7872L19.9255 14.3565ZM22.1959 16.156V8.83373H20.4193V9.48809H21.3616V15.5016H20.4193V16.156H22.1959Z" fill="#F1592A"/>
</g>
<defs>
<clipPath id="clip0_865_1159">
<rect width="25" height="25" fill="white"/>
</clipPath>
</defs>
</svg>
