<svg width="24" height="24" viewBox="0 0 24 24"  xmlns="http://www.w3.org/2000/svg">
<path d="M2.43972 0.000117034C2.18688 0.00408964 1.94594 0.108729 1.76978 0.291071C1.59362 0.473413 1.49663 0.718558 1.50009 0.972705V22.0811C1.50009 23.1413 2.3544 24 3.40917 24H7.22734C8.28211 24 9.13642 23.1413 9.13642 22.0811V4.81059C9.13642 3.75037 8.28211 2.89165 7.22734 2.89165H3.40917V0.972705C3.41092 0.844338 3.38703 0.716924 3.3389 0.598007C3.29078 0.47909 3.2194 0.371088 3.12901 0.280398C3.03861 0.189708 2.93102 0.118173 2.81262 0.070029C2.69423 0.0218854 2.56742 -0.00188789 2.43972 0.000117034ZM11.0455 3.85112V6.72953H19.6364V8.64847H11.0455V10.5674H12V12.4864H11.0455V14.4053H12V16.3242H11.0455V18.2432H12V20.1621H11.0455V23.0405H20.5909C21.6457 23.0405 22.5 22.1818 22.5 21.1216V5.77006C22.5 4.70984 21.6457 3.85112 20.5909 3.85112H11.0455ZM13.9091 10.5674H15.8182V12.4864H13.9091V10.5674ZM17.7273 10.5674H19.6364V12.4864H17.7273V10.5674ZM13.9091 14.4053H15.8182V16.3242H13.9091V14.4053ZM17.7273 14.4053H19.6364V16.3242H17.7273V14.4053ZM13.9091 18.2432H15.8182V20.1621H13.9091V18.2432ZM17.7273 18.2432H19.6364V20.1621H17.7273V18.2432Z" fill="currentColor"/>
</svg>
