<svg width="24" height="24" viewBox="0 0 24 24"  xmlns="http://www.w3.org/2000/svg">
<g clip-path="url(#clip0_865_2787)">
<path fill-rule="evenodd" clip-rule="evenodd" d="M5.69138 0.706055C4.56197 0.706055 3.57373 1.69429 3.57373 2.8237V18.3531C3.57373 19.4825 4.56197 20.4708 5.69138 20.4708H7.10314C8.23255 20.4708 9.22079 19.4825 9.22079 18.3531V2.8237C9.22079 1.69429 8.23255 0.706055 7.10314 0.706055H5.69138ZM4.9855 2.8237C4.9855 2.40017 5.26785 2.11782 5.69138 2.11782H7.10314C7.52667 2.11782 7.80902 2.40017 7.80902 2.8237V18.3531C7.80902 18.7766 7.52667 19.059 7.10314 19.059H5.69138C5.26785 19.059 4.9855 18.7766 4.9855 18.3531V2.8237Z" fill="currentColor"/>
<path d="M2.86765 3.5293C1.73824 3.5293 0.75 4.51753 0.75 5.64694V21.1764C0.75 22.3058 1.73824 23.294 2.86765 23.294H21.2206C22.35 23.294 23.3382 22.3058 23.3382 21.1764V5.64694C23.3382 4.51753 22.35 3.5293 21.2206 3.5293H10.6324V4.94106H21.2206C21.6441 4.94106 21.9265 5.22341 21.9265 5.64694V21.1764C21.9265 21.5999 21.6441 21.8822 21.2206 21.8822H2.86765C2.44412 21.8822 2.16176 21.5999 2.16176 21.1764V5.64694C2.16176 5.22341 2.44412 4.94106 2.86765 4.94106H3.57353V3.5293H2.86765ZM10.9146 12.7061H13.4557V14.1178H10.9146V12.7061ZM13.4557 15.6704H10.9146V17.0822H13.4557V15.6704ZM10.9146 18.6353H13.4557V20.047H10.9146V18.6353ZM16.9855 12.7061H14.4443V14.1178H16.9855V12.7061ZM14.4443 15.6704H16.9855V17.0822H14.4443V15.6704ZM16.9855 18.6353H14.4443V20.047H16.9855V18.6353ZM17.9736 12.7061H20.5148V14.1178H17.9736V12.7061ZM20.5148 15.6704H17.9736V17.0822H20.5148V15.6704ZM17.9736 18.6353H20.5148V20.047H17.9736V18.6353Z" fill="currentColor"/>
<path fill-rule="evenodd" clip-rule="evenodd" d="M12.3263 6.35303H19.1028C19.9498 6.35303 20.5145 6.91773 20.5145 7.76479V9.88244C20.5145 10.7295 19.9498 11.2942 19.1028 11.2942H12.3263C11.4793 11.2942 10.9146 10.7295 10.9146 9.88244V7.76479C10.9146 6.91773 11.4793 6.35303 12.3263 6.35303ZM12.3263 9.88244H19.1028V7.76479H12.3263V9.88244Z" fill="currentColor"/>
</g>
<defs>
<clipPath id="clip0_865_2787">
<rect width="24" height="24" fill="currentColor"/>
</clipPath>
</defs>
</svg>
