<svg width="24" height="24" viewBox="0 0 24 24"  xmlns="http://www.w3.org/2000/svg">
<path d="M1 1.5C1 1.22386 1.22386 1 1.5 1H8.8838C9.05097 1 9.20709 1.08355 9.29982 1.22265L11.003 3.77735C11.0957 3.91645 11.2518 4 11.419 4H20.5C20.7761 4 21 4.22386 21 4.5V5C21 5.27614 20.7761 5.5 20.5 5.5H10.6162C10.449 5.5 10.2929 5.41645 10.2002 5.27735L8.49705 2.72265C8.40431 2.58355 8.2482 2.5 8.08102 2.5H2.6C2.54477 2.5 2.5 2.54477 2.5 2.6V17.5C2.5 17.7761 2.27614 18 2 18H1.5C1.22386 18 1 17.7761 1 17.5V1.5Z" fill="currentColor"/>
<path fill-rule="evenodd" clip-rule="evenodd" d="M5.25671 8.38757C5.30907 8.16071 5.51108 8 5.74391 8H22.2571C22.5786 8 22.8165 8.29912 22.7442 8.61243L19.6289 22.1124C19.5765 22.3393 19.3745 22.5 19.1417 22.5H2.62852C2.30698 22.5 2.06903 22.2009 2.14133 21.8876L5.25671 8.38757ZM4.02691 20.3876C3.9546 20.7009 4.19256 21 4.5141 21H17.9484C18.1812 21 18.3832 20.8393 18.4356 20.6124L20.8587 10.1124C20.931 9.79912 20.693 9.5 20.3715 9.5H6.93718C6.70435 9.5 6.50234 9.6607 6.44998 9.88757L4.02691 20.3876Z" fill="currentColor"/>
</svg>
