<svg width="24" height="24" viewBox="0 0 24 24"  xmlns="http://www.w3.org/2000/svg">
<path d="M22.805 8.406C22.712 8.28004 22.5907 8.17765 22.4509 8.10714C22.311 8.03662 22.1566 7.99992 22 8H6C5.7861 7.99996 5.57781 8.06851 5.40575 8.19558C5.23368 8.32266 5.10689 8.50155 5.044 8.70601L3 15.349V3.00001H8.465L10.165 5.555C10.2566 5.69234 10.3808 5.80486 10.5265 5.88251C10.6722 5.96017 10.8349 6.00052 11 6H18.8C18.9105 6 19 6.08955 19 6.2V6.5C19 6.77615 19.2239 7 19.5 7H20.5C20.7761 7 21 6.77615 21 6.5V5C21 4.73479 20.8946 4.48043 20.7071 4.2929C20.5196 4.10536 20.2652 4.00001 20 4.00001H11.535L9.835 1.445C9.74337 1.30767 9.61916 1.19515 9.47346 1.1175C9.32776 1.03985 9.1651 0.99949 9 1H2C1.73478 1 1.48043 1.10536 1.29289 1.2929C1.10536 1.48043 1 1.73479 1 2.00001V22H1.025C1.01614 22.2112 1.07577 22.4195 1.195 22.594C1.28802 22.72 1.40933 22.8224 1.54915 22.8929C1.68897 22.9634 1.8434 23.0001 2 23H18C18.2139 23 18.4222 22.9315 18.5943 22.8044C18.7663 22.6774 18.8931 22.4985 18.956 22.294L22.956 9.294C23.002 9.14449 23.0124 8.98627 22.9861 8.83204C22.9599 8.67781 22.8979 8.53189 22.805 8.406Z" fill="currentColor"/>
</svg>
