<svg width="24" height="24" viewBox="0 0 24 24"  xmlns="http://www.w3.org/2000/svg">
<path d="M14.75 1C14.3358 1 14 1.33579 14 1.75C14 2.16421 14.3358 2.5 14.75 2.5H20.4393L9.71967 13.2197C9.42678 13.5126 9.42678 13.9874 9.71967 14.2803C10.0126 14.5732 10.4874 14.5732 10.7803 14.2803L21.5 3.56066V9.25C21.5 9.66421 21.8358 10 22.25 10C22.6642 10 23 9.66421 23 9.25V1.75C23 1.33579 22.6642 1 22.25 1H14.75ZM2.5 6.75C2.5 6.33621 2.83621 6 3.25 6H10.75C11.1642 6 11.5 5.66421 11.5 5.25C11.5 4.83579 11.1642 4.5 10.75 4.5H3.25C2.00779 4.5 1 5.50779 1 6.75V20.75C1 21.9922 2.00779 23 3.25 23H17.25C18.4922 23 19.5 21.9922 19.5 20.75V13.25C19.5 12.8358 19.1642 12.5 18.75 12.5C18.3358 12.5 18 12.8358 18 13.25V20.75C18 21.1638 17.6638 21.5 17.25 21.5H3.25C2.83621 21.5 2.5 21.1638 2.5 20.75V6.75Z" fill="currentColor"/>
</svg>
