<svg width="24" height="24" viewBox="0 0 24 24"  xmlns="http://www.w3.org/2000/svg">
<g clip-path="url(#clip0_865_1776)">
<path d="M18.564 3.12093H13.6624V0.000366211H23.8909V10.2289H20.7703V5.32769L13.8989 12.1991L11.6924 9.99252L18.564 3.12093ZM3.92184 0.458588C4.33839 0.35351 4.76729 0.374478 5.17382 0.550276C5.6214 0.74383 5.93952 1.11393 6.17063 1.49921C6.36214 1.79986 6.87582 2.60844 7.71109 3.92406C8.5675 5.27296 9.08013 6.60681 8.74017 7.74935C8.51887 8.54848 8.15023 9.30052 7.48439 9.69654C7.47484 9.74839 7.46727 9.8732 7.51715 10.1033L7.52156 10.1236C7.60534 10.5604 7.91263 11.1754 8.57683 11.9836C9.27504 12.8331 9.78992 13.4207 10.1311 13.765C10.4913 14.1284 11.0825 14.6522 11.9226 15.3448C12.7234 16.005 13.3407 16.3291 13.7878 16.4317C14.0041 16.4792 14.1229 16.4734 14.1734 16.465C14.561 15.802 15.2997 15.415 16.0953 15.1697L16.1166 15.1631C16.6999 14.9996 17.322 15.0626 17.9356 15.2515C18.5509 15.4408 19.2112 15.7731 19.91 16.2193C21.1839 17.0327 22.0027 17.5663 22.3352 17.8029C22.7125 18.0364 23.0695 18.3544 23.2569 18.7955C23.4294 19.2016 23.4499 19.6292 23.3468 20.0451L23.3352 20.092L22.8854 21.3077C22.503 22.3413 21.7191 23.101 20.6547 23.6135L20.6432 23.6191C19.6457 24.0815 18.4778 24.0987 17.2183 23.801C15.99 23.5107 14.7301 23.0182 13.4397 22.3346C12.1619 21.6577 10.9186 20.8693 9.70961 19.9705C8.50761 19.0768 7.4729 18.1956 6.61104 17.326C5.74921 16.4564 4.87604 15.4124 3.99054 14.1998C3.09991 12.9802 2.31887 11.7261 1.64836 10.4374C0.97132 9.13614 0.483877 7.86617 0.196635 6.6288C-0.0976537 5.36106 -0.0801846 4.1883 0.375832 3.18683L0.381049 3.17538C0.887265 2.10515 1.63942 1.31246 2.66847 0.924816L3.87424 0.470597L3.92184 0.458588Z" fill="currentColor"/>
</g>
<defs>
<clipPath id="clip0_865_1776">
<rect width="24" height="24" fill="currentColor"/>
</clipPath>
</defs>
</svg>
