<svg width="24" height="24" viewBox="0 0 24 24"  xmlns="http://www.w3.org/2000/svg">
<g clip-path="url(#clip0_865_2303)">
<path fill-rule="evenodd" clip-rule="evenodd" d="M12.5214 0.22317C12.1719 0.0733964 11.7764 0.0733964 11.4269 0.22317L1.70188 4.39103C1.58684 4.44033 1.48091 4.50401 1.38582 4.57943C1.28243 4.66132 1.18985 4.75865 1.11198 4.86988C0.973632 5.06703 0.886681 5.29977 0.865129 5.54687C0.86168 5.58623 0.85994 5.62555 0.859867 5.66473L0.859863 5.66798V18.1716C0.859863 18.7273 1.19106 19.2296 1.70188 19.4485L11.4012 23.6054C11.5569 23.676 11.728 23.7187 11.908 23.7271C11.9462 23.7289 11.9845 23.7292 12.0228 23.7278C12.2105 23.7214 12.3888 23.6777 12.5505 23.6039L22.2464 19.4485C22.7572 19.2296 23.0884 18.7273 23.0884 18.1716V5.71164C23.0948 5.51486 23.0591 5.31361 22.9765 5.1207C22.8272 4.77232 22.5523 4.51631 22.2274 4.38286L12.5214 0.22317ZM18.1725 5.66805L11.9741 3.01162L5.77618 5.6679L11.9745 8.32432L18.1725 5.66805ZM3.63843 7.77472V17.2555L10.585 20.2325V10.7518L3.63843 7.77472ZM13.3635 20.2325L20.3099 17.2555V7.77502L18.2911 8.64022C18.3218 8.75501 18.3381 8.87566 18.3381 9.00013V12.0001C18.3381 12.7674 17.7161 13.3894 16.9489 13.3894C16.1816 13.3894 15.5596 12.7674 15.5596 12.0001V9.81086L13.3635 10.752V20.2325Z" fill="currentColor"/>
</g>
<defs>
<clipPath id="clip0_865_2303">
<rect width="24" height="24" fill="currentColor"/>
</clipPath>
</defs>
</svg>
