<svg width="24" height="24" viewBox="0 0 24 24"  xmlns="http://www.w3.org/2000/svg">
<g clip-path="url(#clip0_865_2297)">
<path fill-rule="evenodd" clip-rule="evenodd" d="M12.2954 0.0606412C12.1068 -0.0202137 11.8932 -0.0202137 11.7046 0.0606412L1.20456 4.56064C1.10977 4.60127 1.02643 4.65997 0.957877 4.7317C0.946238 4.74388 0.935024 4.75644 0.924253 4.76935C0.82407 4.88939 0.762158 5.03981 0.751611 5.20075C0.750569 5.21656 0.750037 5.23234 0.750002 5.24809L0.75 5.25V18.75C0.75 19.05 0.928798 19.3212 1.20456 19.4394L11.6893 23.9328C11.7786 23.9735 11.8773 23.9972 11.9811 23.9998C11.9874 23.9999 11.9937 24 12 24C12.0115 24 12.023 23.9997 12.0344 23.9992C12.1326 23.9948 12.2259 23.9715 12.3107 23.9328L22.7954 19.4394C23.0712 19.3212 23.25 19.05 23.25 18.75V5.27366C23.2534 5.16742 23.2342 5.05878 23.1896 4.95463C23.11 4.76891 22.9643 4.63181 22.7917 4.55904L12.2954 0.0606412ZM20.5962 5.25008L12 1.56598L3.40396 5.24999L12.0002 8.93409L20.5962 5.25008ZM2.25 6.38739V18.2555L11.25 22.1126V10.2445L2.25 6.38739ZM12.75 22.1126L21.75 18.2555V6.38756L17.9612 8.01132C17.9864 8.08629 18 8.16656 18 8.25V12.75C18 13.1642 17.6642 13.5 17.25 13.5C16.8358 13.5 16.5 13.1642 16.5 12.75V8.63756L12.75 10.2447V22.1126Z" fill="currentColor"/>
</g>
<defs>
<clipPath id="clip0_865_2297">
<rect width="24" height="24" fill="currentColor"/>
</clipPath>
</defs>
</svg>
