<svg width="24" height="24" viewBox="0 0 24 24"  xmlns="http://www.w3.org/2000/svg">
<path fill-rule="evenodd" clip-rule="evenodd" d="M0 2.25C0 1.83579 0.335787 1.5 0.75 1.5H23.25C23.6642 1.5 24 1.83579 24 2.25V6.75C24 7.16421 23.6642 7.5 23.25 7.5H0.75C0.335787 7.5 0 7.16421 0 6.75V2.25ZM1.5 3V6H22.5V3H1.5ZM3.75 9C4.16421 9 4.5 9.33579 4.5 9.75V21H19.5V9.75C19.5 9.33579 19.8358 9 20.25 9C20.6642 9 21 9.33579 21 9.75V21.75C21 22.1642 20.6642 22.5 20.25 22.5H3.75C3.33579 22.5 3 22.1642 3 21.75V9.75C3 9.33579 3.33579 9 3.75 9ZM8.25 10.5C7.83579 10.5 7.5 10.8358 7.5 11.25V15.75C7.5 16.1642 7.83579 16.5 8.25 16.5H15.75C16.1642 16.5 16.5 16.1642 16.5 15.75V11.25C16.5 10.8358 16.1642 10.5 15.75 10.5H8.25ZM9 15V12H15V15H9Z" fill="currentColor"/>
</svg>
