<svg width="24" height="24" viewBox="0 0 24 24"  xmlns="http://www.w3.org/2000/svg">
<g clip-path="url(#clip0_865_5970)">
<path d="M20.85 5.69952C15.45 3.14952 10.95 8.39952 8.85 5.69952C8.1 4.64952 9.9 2.69952 8.85 1.34952C8.1 0.449514 6.3 0.599514 5.25 1.34952C2.1 3.59952 0 7.19951 0 11.2495C0 17.8495 5.4 23.2495 12 23.2495C17.55 23.2495 22.2 19.4995 23.55 14.3995C24.15 12.7495 24.75 7.64952 20.85 5.69952ZM4.5 11.9995C3.6 11.9995 3 11.3995 3 10.4995C3 9.59951 3.6 8.99952 4.5 8.99952C5.4 8.99952 6 9.59951 6 10.4995C6 11.3995 5.4 11.9995 4.5 11.9995ZM7.5 17.9995C6.6 17.9995 6 17.3995 6 16.4995C6 15.5995 6.6 14.9995 7.5 14.9995C8.4 14.9995 9 15.5995 9 16.4995C9 17.3995 8.4 17.9995 7.5 17.9995ZM13.5 20.9995C12.6 20.9995 12 20.3995 12 19.4995C12 18.5995 12.6 17.9995 13.5 17.9995C14.4 17.9995 15 18.5995 15 19.4995C15 20.3995 14.4 20.9995 13.5 20.9995ZM18 14.9995C16.35 14.9995 15 13.6495 15 11.9995C15 10.3495 16.35 8.99952 18 8.99952C19.65 8.99952 21 10.3495 21 11.9995C21 13.6495 19.65 14.9995 18 14.9995Z" fill="currentColor"/>
</g>
<defs>
<clipPath id="clip0_865_5970">
<rect width="24" height="24" fill="currentColor"/>
</clipPath>
</defs>
</svg>
