<svg width="24" height="24" viewBox="0 0 24 24"  xmlns="http://www.w3.org/2000/svg">
<g clip-path="url(#clip0_865_5964)">
<path fill-rule="evenodd" clip-rule="evenodd" d="M7.46272 2.50165C6.95478 2.52131 6.39734 2.70338 6.00346 2.97019L5.99918 2.97309C3.21742 4.82954 1.5 7.88332 1.5 11.3045C1.5 16.937 6.17929 21.4999 12.0609 21.4999C16.8703 21.4999 20.9886 18.3377 22.2357 14.0959C22.4263 13.3043 22.633 11.8828 22.3886 10.4751C22.1466 9.08107 21.4799 7.76587 19.9646 7.0067C17.7239 5.99413 15.6576 6.5041 13.7296 7.08481C13.6178 7.11851 13.5052 7.15285 13.3921 7.18734C12.5703 7.43801 11.7251 7.69582 10.9679 7.76215C10.0487 7.84267 9.12756 7.65458 8.40779 6.81878L8.40287 6.81306L8.39806 6.80725C8.01043 6.33836 7.97355 5.79953 8.02973 5.36042C8.07665 4.99371 8.2019 4.60785 8.30261 4.29759C8.31521 4.25878 8.32743 4.22115 8.33906 4.18489C8.45698 3.81719 8.5341 3.53926 8.54501 3.30068C8.5545 3.09302 8.512 2.95965 8.40779 2.83864L8.38142 2.80802L8.35849 2.77473C8.26367 2.6371 7.99673 2.48098 7.46272 2.50165ZM9.57007 1.89016C9.04428 1.16015 8.1448 0.974126 7.4047 1.00278C6.62822 1.03283 5.79853 1.29795 5.16443 1.72679C1.98347 3.85061 0 7.36336 0 11.3045C0 17.8115 5.39769 22.9999 12.0609 22.9999C17.5279 22.9999 22.2482 19.4041 23.6804 14.4999L23.6852 14.4835L23.6893 14.4668C23.9089 13.5636 24.1603 11.9104 23.8665 10.2185C23.5693 8.5067 22.6965 6.69074 20.6212 5.65792L20.6093 5.652L20.5972 5.64651C17.8042 4.37788 15.2472 5.06116 13.297 5.64855C13.1807 5.68359 13.0674 5.71796 12.9571 5.75145C12.1043 6.01035 11.4259 6.21629 10.837 6.26787C10.2339 6.3207 9.8579 6.19981 9.55052 5.84701C9.52666 5.81672 9.49159 5.75409 9.5176 5.55079C9.54556 5.33227 9.62434 5.08753 9.73365 4.74794C9.7446 4.71393 9.75586 4.67896 9.7674 4.64297C9.88083 4.28926 10.0222 3.83337 10.0434 3.3692C10.0656 2.88461 9.95902 2.35863 9.57007 1.89016ZM16 10.25C14.7574 10.25 13.75 11.2574 13.75 12.5C13.75 13.7426 14.7574 14.75 16 14.75C17.2426 14.75 18.25 13.7426 18.25 12.5C18.25 11.2574 17.2426 10.25 16 10.25ZM12.25 12.5C12.25 10.4289 13.9289 8.75 16 8.75C18.0711 8.75 19.75 10.4289 19.75 12.5C19.75 14.5711 18.0711 16.25 16 16.25C13.9289 16.25 12.25 14.5711 12.25 12.5ZM4.25 11.4995C4.25 10.533 5.0335 9.74951 6 9.74951C6.9665 9.74951 7.75 10.533 7.75 11.4995C7.75 12.466 6.9665 13.2495 6 13.2495C5.0335 13.2495 4.25 12.466 4.25 11.4995ZM6.75 16.4995C6.75 15.533 7.5335 14.7495 8.5 14.7495C9.4665 14.7495 10.25 15.533 10.25 16.4995C10.25 17.466 9.4665 18.2495 8.5 18.2495C7.5335 18.2495 6.75 17.466 6.75 16.4995Z" fill="currentColor"/>
</g>
<defs>
<clipPath id="clip0_865_5964">
<rect width="24" height="24" fill="currentColor"/>
</clipPath>
</defs>
</svg>
