<svg width="24" height="24" viewBox="0 0 24 24"  xmlns="http://www.w3.org/2000/svg">
<g clip-path="url(#clip0_865_1782)">
<path d="M16.8446 3.67892H18.4382C19.1206 3.67892 19.5465 4.09733 19.5465 4.77663C19.5465 5.49531 19.0748 5.9531 18.3604 5.9531H16.8446V3.67892Z" fill="currentColor"/>
<path fill-rule="evenodd" clip-rule="evenodd" d="M23.8262 5.97285C23.8262 9.27157 21.152 11.9457 17.8533 11.9457C14.5546 11.9457 11.8805 9.27157 11.8805 5.97285C11.8805 2.67414 14.5546 0 17.8533 0C21.152 0 23.8262 2.67414 23.8262 5.97285ZM15.6814 2.49753V9.55635H16.8446V7.12465H18.484C19.9174 7.12465 20.7234 6.02202 20.7234 4.72248C20.7234 3.49186 19.9907 2.49753 18.626 2.49753H15.6814ZM4.0617 0.542986H4.71328C5.69066 0.542986 6.50514 1.03167 6.99382 1.68326C8.1341 3.31222 9.60016 5.42986 9.60016 6.89593C9.76306 8.36199 9.11147 9.33937 8.45989 9.99095C8.78568 10.8054 9.43726 11.7828 10.7404 13.086C11.7382 14.2262 12.7359 14.8676 13.2971 15.2284C13.3773 15.28 13.4486 15.3258 13.5097 15.3665C13.9984 14.8778 14.6499 14.3891 15.6273 14.2262H16.4418C18.0707 14.2262 19.5368 15.0407 21.9803 16.9955C22.7947 17.6471 23.1205 18.7873 22.7947 20.0905C22.306 21.8824 20.84 23.6742 18.5594 24H17.9079C14.8128 24 9.92595 21.2308 6.50514 17.6471C2.92143 13.7376 0.803778 10.1538 0.152194 6.73303C-0.49939 3.63801 0.966674 1.35747 4.0617 0.542986ZM5.69066 2.66063C5.52776 2.49774 5.20197 2.17195 4.71328 2.17195H4.38749C4.35803 2.18177 4.31969 2.19336 4.27383 2.20723C3.5589 2.42346 1.01577 3.19264 1.78115 6.40724C2.43274 9.99095 4.87618 13.4118 7.8083 16.5068C11.0662 19.9276 15.4644 22.371 18.0707 22.371H18.5594C21.0029 21.8824 21.9803 18.9502 21.1658 18.2986C18.8852 16.5068 17.745 15.8552 16.6047 15.8552H16.116C14.8128 16.0181 14.3241 17.3213 14.3241 17.3213C14.3241 17.3213 12.0436 16.8326 9.60016 14.2262C6.83093 11.457 6.50514 9.50226 6.50514 9.50226C7.48251 8.85068 7.9712 8.19909 7.9712 7.05882C7.9712 5.91855 6.17934 3.31222 5.69066 2.66063Z" fill="currentColor"/>
</g>
<defs>
<clipPath id="clip0_865_1782">
<rect width="24" height="24" fill="currentColor"/>
</clipPath>
</defs>
</svg>
