<svg width="24" height="24" viewBox="0 0 24 24"  xmlns="http://www.w3.org/2000/svg">
<g clip-path="url(#clip0_865_1789)">
<path d="M16.4022 4.00312H18.1365C18.8791 4.00312 19.3426 4.45845 19.3426 5.19771C19.3426 5.97982 18.8293 6.47801 18.0518 6.47801H16.4022V4.00312Z" fill="currentColor"/>
<path fill-rule="evenodd" clip-rule="evenodd" d="M24 6.5C24 10.0899 21.0899 13 17.5 13C13.9101 13 11 10.0899 11 6.5C11 2.91015 13.9101 0 17.5 0C21.0899 0 24 2.91015 24 6.5ZM15.1364 2.71746V10.3993H16.4022V7.75296H18.1864C19.7463 7.75296 20.6234 6.55301 20.6234 5.13878C20.6234 3.79955 19.826 2.71746 18.3409 2.71746H15.1364Z" fill="currentColor"/>
<path d="M5.1368 0.717803C4.73318 0.543262 4.30735 0.522445 3.89378 0.62677L3.84652 0.638693L2.64938 1.08966C1.62769 1.47454 0.880917 2.26156 0.378323 3.32412L0.373143 3.3355C-0.0796109 4.3298 -0.0969549 5.49417 0.195228 6.75283C0.480415 7.98136 0.96437 9.24224 1.63657 10.5342C2.30227 11.8136 3.07773 13.0588 3.96199 14.2697C4.84115 15.4736 5.70807 16.5101 6.56374 17.3735C7.41944 18.2369 8.44674 19.1118 9.64014 19.9991C10.8405 20.8915 12.0749 21.6742 13.3435 22.3463C14.6247 23.025 15.8756 23.5139 17.0951 23.8021C18.3456 24.0977 19.5051 24.0807 20.4955 23.6215L20.5069 23.616C21.5637 23.1071 22.342 22.3529 22.7217 21.3267L23.1682 20.1197L23.1798 20.0731C23.2821 19.6602 23.2618 19.2357 23.0905 18.8325C22.9045 18.3946 22.55 18.0788 22.1754 17.847C21.8453 17.6121 21.0323 17.0823 19.7676 16.2747C19.0738 15.8317 18.4182 15.5018 17.8072 15.3138C17.1981 15.1263 16.5805 15.0637 16.0013 15.2261L15.9801 15.2326C15.1902 15.4761 14.4568 15.8604 14.072 16.5187C14.0218 16.527 13.9039 16.5328 13.6891 16.4856C13.2453 16.3837 12.6323 16.062 11.8373 15.4065C11.0033 14.7189 10.4162 14.1988 10.0586 13.838C9.71988 13.4962 9.20868 12.9128 8.51547 12.0693C7.85602 11.2669 7.55093 10.6563 7.46774 10.2227L7.46337 10.2025C7.41384 9.97403 7.42135 9.8501 7.43084 9.79862C8.09192 9.40544 8.45792 8.65878 8.67764 7.86537C9.01516 6.731 8.5062 5.4067 7.65592 4.06745C6.82662 2.76124 6.31662 1.95845 6.12648 1.65995C5.89702 1.27742 5.58118 0.909972 5.1368 0.717803Z" fill="currentColor"/>
</g>
<defs>
<clipPath id="clip0_865_1789">
<rect width="24" height="24" fill="currentColor"/>
</clipPath>
</defs>
</svg>
