<svg width="24" height="24" viewBox="0 0 24 24"  xmlns="http://www.w3.org/2000/svg">
<path fill-rule="evenodd" clip-rule="evenodd" d="M21.5333 1H2.46667C1.65665 1 1 1.65665 1 2.46667V21.5333C1 22.3433 1.65665 23 2.46667 23H21.5333C22.3434 23 23 22.3433 23 21.5333V2.46667C23 1.65665 22.3434 1 21.5333 1ZM11.25 14C9.85761 14 8.52225 14.5531 7.53769 15.5377C6.55312 16.5223 6 17.8576 6 19.25C6 19.6642 6.33579 20 6.75 20H17.25C17.6642 20 18 19.6642 18 19.25C18 17.8576 17.4469 16.5223 16.4623 15.5377C15.4777 14.5531 14.1424 14 12.75 14H11.25ZM12 5C10.067 5 8.5 6.567 8.5 8.5C8.5 10.433 10.067 12 12 12C13.933 12 15.5 10.433 15.5 8.5C15.5 6.567 13.933 5 12 5Z" fill="currentColor"/>
</svg>
