<svg width="24" height="24" viewBox="0 0 24 24"  xmlns="http://www.w3.org/2000/svg">
<g clip-path="url(#clip0_865_6830)">
<path fill-rule="evenodd" clip-rule="evenodd" d="M1.30719 0.235941C1.00048 -0.0707731 0.512031 -0.0796061 0.216212 0.216212C-0.0796061 0.512031 -0.0707731 1.00048 0.235941 1.30719L22.6928 23.7641C22.9995 24.0708 23.488 24.0796 23.7838 23.7838C24.0796 23.488 24.0708 22.9995 23.7641 22.6928L22.8178 21.7466C22.9349 21.484 23 21.1931 23 20.887V3.11299C23 1.94602 22.054 1 20.887 1H3.11299C2.80691 1 2.51602 1.06508 2.25342 1.18217L1.30719 0.235941ZM3.56278 2.49153L8.62845 7.5572C9.04006 6.08215 10.3937 5 12 5C13.933 5 15.5 6.567 15.5 8.5C15.5 10.1063 14.4179 11.4599 12.9428 11.8716L14.3076 13.2364C15.1134 13.4868 15.8547 13.9301 16.4623 14.5377C17.0699 15.1453 17.5132 15.8866 17.7636 16.6924L21.5085 20.4372V3.11299C21.5085 2.76977 21.2302 2.49153 20.887 2.49153H3.56278ZM11.6406 10.5694C11.7574 10.5895 11.8775 10.6 12 10.6C13.1598 10.6 14.1 9.6598 14.1 8.5C14.1 7.3402 13.1598 6.4 12 6.4C10.8402 6.4 9.9 7.3402 9.9 8.5C9.9 8.62253 9.91049 8.7426 9.93063 8.85938L11.6406 10.5694Z" fill="currentColor"/>
<path d="M17.4372 21.5085L18.9287 23H3.11299C1.94602 23 1 22.054 1 20.887V5.07125L2.49153 6.56278V20.887C2.49153 21.2302 2.76977 21.5085 3.11299 21.5085H17.4372ZM9.30309 13.3743C8.64805 13.6359 8.0461 14.0293 7.53769 14.5377C6.55312 15.5223 6 16.8576 6 18.25C6 18.6642 6.33579 19 6.75 19H14.9287L13.4287 17.5H7.57575C7.72173 16.7849 8.07456 16.1221 8.59835 15.5984C9.12305 15.0737 9.78723 14.7205 10.5037 14.575L9.30309 13.3743Z" fill="currentColor"/>
</g>
<defs>
<clipPath id="clip0_865_6830">
<rect width="24" height="24" fill="currentColor"/>
</clipPath>
</defs>
</svg>
