<svg width="24" height="24" viewBox="0 0 24 24"  xmlns="http://www.w3.org/2000/svg">
<path fill-rule="evenodd" clip-rule="evenodd" d="M11.25 13C9.85761 13 8.52225 13.5531 7.53769 14.5377C6.55312 15.5223 6 16.8576 6 18.25C6 18.6642 6.33579 19 6.75 19H17.25C17.6642 19 18 18.6642 18 18.25C18 16.8576 17.4469 15.5223 16.4623 14.5377C15.4777 13.5531 14.1424 13 12.75 13H11.25ZM8.59835 15.5984C9.30161 14.8951 10.2554 14.5 11.25 14.5H12.75C13.7446 14.5 14.6984 14.8951 15.4017 15.5984C15.9254 16.1221 16.2783 16.7849 16.4243 17.5H7.57575C7.72173 16.7849 8.07456 16.1221 8.59835 15.5984ZM12 5C10.067 5 8.5 6.567 8.5 8.5C8.5 10.433 10.067 12 12 12C13.933 12 15.5 10.433 15.5 8.5C15.5 6.567 13.933 5 12 5ZM9.9 8.5C9.9 7.3402 10.8402 6.4 12 6.4C13.1598 6.4 14.1 7.3402 14.1 8.5C14.1 9.6598 13.1598 10.6 12 10.6C10.8402 10.6 9.9 9.6598 9.9 8.5ZM1 3.11299C1 1.94602 1.94602 1 3.11299 1H20.887C22.054 1 23 1.94602 23 3.11299V20.887C23 22.054 22.054 23 20.887 23H3.11299C1.94602 23 1 22.054 1 20.887V3.11299ZM3.11299 2.49153C2.76977 2.49153 2.49153 2.76977 2.49153 3.11299V20.887C2.49153 21.2302 2.76977 21.5085 3.11299 21.5085H20.887C21.2302 21.5085 21.5085 21.2302 21.5085 20.887V3.11299C21.5085 2.76977 21.2302 2.49153 20.887 2.49153H3.11299Z" fill="currentColor"/>
</svg>
