<svg width="24" height="24" viewBox="0 0 24 24"  xmlns="http://www.w3.org/2000/svg">
<g clip-path="url(#clip0_865_6837)">
<path fill-rule="evenodd" clip-rule="evenodd" d="M2.61446 0.448571C2.01637 -0.149524 1.04667 -0.149524 0.448571 0.448571C-0.149524 1.04667 -0.149524 2.01637 0.448571 2.61446L21.3855 23.5514C21.9836 24.1495 22.9533 24.1495 23.5514 23.5514C24.1495 22.9533 24.1495 21.9836 23.5514 21.3855L23 20.8341V2.46667C23 1.65665 22.3434 1 21.5333 1H3.16589L2.61446 0.448571ZM13.7167 11.5508L8.94921 6.78332C9.54949 5.71882 10.6908 5 12 5C13.933 5 15.5 6.567 15.5 8.5C15.5 9.8092 14.7812 10.9505 13.7167 11.5508Z" fill="currentColor"/>
<path d="M1 21.5333V7.16589L8.56978 14.7357C8.19677 14.9571 7.84962 15.2258 7.53769 15.5377C6.55312 16.5223 6 17.8576 6 19.25C6 19.6642 6.33579 20 6.75 20H13.8341L16.8341 23H2.46667C1.65665 23 1 22.3433 1 21.5333Z" fill="currentColor"/>
</g>
<defs>
<clipPath id="clip0_865_6837">
<rect width="24" height="24" fill="currentColor"/>
</clipPath>
</defs>
</svg>
