<svg width="24" height="24" viewBox="0 0 24 24"  xmlns="http://www.w3.org/2000/svg">
<g clip-path="url(#clip0_865_5005)">
<path d="M18.2196 0.219671C18.3603 0.0790176 18.5511 0 18.75 0H23.25C23.6642 0 24 0.335787 24 0.75V5.25C24 5.44892 23.9209 5.63969 23.7804 5.78032L22.2804 7.28032C22.1397 7.42098 21.9489 7.5 21.75 7.5H18V11.25C18 11.4489 17.9209 11.6397 17.7804 11.7803L16.537 13.0237C16.3601 13.008 16.181 13 16 13C15.3537 13 14.7314 13.1022 14.1481 13.2912L16.5 10.9393V6.75C16.5 6.33579 16.8358 6 17.25 6H21.4394L22.5 4.93933V1.5H19.0606L9.96532 10.5953C9.77036 10.7903 9.48413 10.8626 9.21997 10.7835C8.64607 10.6118 8.07992 10.5 7.5 10.5C4.18671 10.5 1.5 13.1867 1.5 16.5C1.5 19.8134 4.18671 22.5 7.5 22.5C8.6374 22.5 9.70096 22.1834 10.6073 21.6335C10.8292 22.0869 11.1065 22.5082 11.4305 22.8886C10.2875 23.5934 8.94119 24 7.5 24C3.35829 24 0 20.6416 0 16.5C0 12.3583 3.35829 9 7.5 9C8.10557 9 8.67721 9.09156 9.2133 9.22605L18.2196 0.219671Z" fill="currentColor"/>
<path fill-rule="evenodd" clip-rule="evenodd" d="M10.5 16.5C10.5 16.5342 10.4994 16.5683 10.4983 16.6022C10.4808 17.1255 10.3292 17.6149 10.0769 18.0371C9.55308 18.9133 8.59506 19.5 7.5 19.5C5.84314 19.5 4.5 18.1569 4.5 16.5C4.5 14.8431 5.84314 13.5 7.5 13.5C9.15685 13.5 10.5 14.8431 10.5 16.5ZM7.5 15C6.67158 15 6 15.6715 6 16.5C6 17.3284 6.67158 18 7.5 18C8.32842 18 9 17.3284 9 16.5C9 15.6715 8.32842 15 7.5 15Z" fill="currentColor"/>
<path d="M16 16.2145C16.6648 16.2145 17.3031 16.4502 17.8072 16.8663L16.4979 18.1599L20 18.4602L19.6961 15L18.6078 16.0752C17.8906 15.4524 16.9642 15.1003 16 15.1003C14.0643 15.1003 12.4274 16.4674 12.1077 18.3505L13.2202 18.5349C13.448 17.1906 14.6174 16.2145 16 16.2145ZM14.1928 21.1337C14.6969 21.5499 15.3352 21.7855 16 21.7855C17.3826 21.7855 18.552 20.8095 18.7798 19.4652L19.8923 19.6496C19.5726 21.5326 17.9357 22.8997 16 22.8997C15.0358 22.8997 14.1094 22.5476 13.3922 21.9248L12.3039 23L12 19.5398L15.5021 19.8401L14.1928 21.1337Z" fill="currentColor"/>
</g>
<defs>
<clipPath id="clip0_865_5005">
<rect width="24" height="24" fill="currentColor"/>
</clipPath>
</defs>
</svg>
