<svg width="24" height="24" viewBox="0 0 24 24"  xmlns="http://www.w3.org/2000/svg">
<g clip-path="url(#clip0_865_5012)">
<path fill-rule="evenodd" clip-rule="evenodd" d="M19.05 0L9.75 9.45C9 9.15 8.25 9 7.5 9C3.3 9 0 12.3 0 16.5C0 20.7 3.3 24 7.5 24C9.76216 24 11.7632 23.0427 13.1282 21.503C12.4182 20.5173 12 19.3075 12 18C12 15.2903 13.7962 13.0002 16.2629 12.2553L16.5 12V9H19.5V6H22.5L24 4.5V0H19.05ZM6.75 18C5.55 18 4.5 16.95 4.5 15.75C4.5 14.55 5.55 13.5 6.75 13.5C7.95 13.5 9 14.55 9 15.75C9 16.95 7.95 18 6.75 18Z" fill="currentColor"/>
<path d="M21.8985 13.4482L22.275 17.7345L17.9368 17.3625L19.4239 15.8933C19.0054 15.6172 18.511 15.4643 17.9999 15.4643C16.7367 15.4643 15.6736 16.3549 15.4666 17.5764L15.425 17.822L13.8191 17.5558L13.8611 17.3084C14.2016 15.3028 15.9447 13.8501 17.9999 13.8501C18.9462 13.8501 19.858 14.169 20.5922 14.7389L21.8985 13.4482ZM20.5749 18.1776L22.1807 18.4438L22.1387 18.6912C21.7982 20.6968 20.0552 22.1495 17.9999 22.1495C17.0536 22.1495 16.1419 21.8306 15.4076 21.2607L14.1013 22.5513L13.7249 18.2651L18.063 18.6371L16.576 20.1063C16.9944 20.3824 17.4889 20.5353 17.9999 20.5353C19.2632 20.5353 20.3263 19.6447 20.5333 18.4232L20.5749 18.1776Z" fill="currentColor"/>
</g>
<defs>
<clipPath id="clip0_865_5012">
<rect width="24" height="24" fill="currentColor"/>
</clipPath>
</defs>
</svg>
