<svg width="24" height="24" viewBox="0 0 24 24"  xmlns="http://www.w3.org/2000/svg">
<g clip-path="url(#clip0_865_6855)">
<path d="M6 7.8C6 7.08203 6.58203 6.5 7.3 6.5H9.7C10.418 6.5 11 7.08203 11 7.8V16.2C11 16.918 10.418 17.5 9.7 17.5H7.3C6.58203 17.5 6 16.918 6 16.2V7.8ZM14.3 6.5C13.582 6.5 13 7.08203 13 7.8V16.2C13 16.918 13.582 17.5 14.3 17.5H16.7C17.418 17.5 18 16.918 18 16.2V7.8C18 7.08203 17.418 6.5 16.7 6.5H14.3Z" fill="currentColor"/>
<path fill-rule="evenodd" clip-rule="evenodd" d="M0 12C0 5.37258 5.37258 0 12 0C18.6274 0 24 5.37258 24 12C24 18.6274 18.6274 24 12 24C5.37258 24 0 18.6274 0 12ZM12 1.95918C6.45461 1.95918 1.95918 6.45461 1.95918 12C1.95918 17.5454 6.45461 22.0408 12 22.0408C17.5454 22.0408 22.0408 17.5454 22.0408 12C22.0408 6.45461 17.5454 1.95918 12 1.95918Z" fill="currentColor"/>
</g>
<defs>
<clipPath id="clip0_865_6855">
<rect width="24" height="24" fill="currentColor"/>
</clipPath>
</defs>
</svg>
