<svg width="24" height="24" viewBox="0 0 24 24"  xmlns="http://www.w3.org/2000/svg">
<g clip-path="url(#clip0_865_1794)">
<path fill-rule="evenodd" clip-rule="evenodd" d="M4.18674 0H4.85839C5.86585 0 6.70541 0.5 7.20914 1.16667C8.38451 2.83333 9.89571 5 9.89571 6.5C10.0636 8 9.39198 9 8.72034 9.66667C9.05616 10.5 9.7278 11.5 11.0711 12.8333C12.0995 14 13.128 14.6563 13.7065 15.0254C13.7891 15.0781 13.8626 15.125 13.9256 15.1667C14.4293 14.6667 15.101 14.1667 16.1084 14H16.948C18.6271 14 20.1383 14.8333 22.6569 16.8333C23.4965 17.5 23.8323 18.6667 23.4965 20C22.9928 21.8333 21.4816 23.6667 19.1308 24H18.4592C15.2689 24 10.2315 21.1667 6.7054 17.5C3.01136 13.5 0.828523 9.83333 0.15688 6.33333C-0.514764 3.16667 0.996433 0.833333 4.18674 0ZM5.86585 2.16667C5.69794 2 5.36212 1.66667 4.85839 1.66667H4.52256C4.4922 1.67671 4.45268 1.68858 4.4054 1.70277C3.66847 1.92401 1.04704 2.71099 1.83599 6C2.50763 9.66667 5.0263 13.1667 8.04869 16.3333C11.4069 19.8333 15.9405 22.3333 18.6271 22.3333H19.1308C21.6495 21.8333 22.6569 18.8333 21.8174 18.1667C19.4666 16.3333 18.2913 15.6667 17.1159 15.6667H16.6122C15.2689 15.8333 14.7651 17.1667 14.7651 17.1667C14.7651 17.1667 12.4144 16.6667 9.89571 14C7.04123 11.1667 6.7054 9.16667 6.7054 9.16667C7.71287 8.5 8.2166 7.83333 8.2166 6.66667C8.2166 5.5 6.36958 2.83333 5.86585 2.16667ZM16.612 0H12.918C12.4143 0 12.0784 0.333333 12.0784 0.666667V9.16667C12.0784 9.5 12.4143 9.83333 12.7501 9.83333H16.4441C16.7799 9.83333 17.1158 9.5 17.1158 9.16667V0.666667C17.2837 0.333333 16.9479 0 16.612 0ZM15.6046 8.16667H13.7575V1.66667H15.6046V8.16667ZM23.3284 0H19.6343C19.2985 0 18.9627 0.333333 18.9627 0.666667V9.16667C18.9627 9.5 19.2985 9.83333 19.6343 9.83333H23.3284C23.6642 9.83333 24 9.5 24 9.16667V0.666667C24 0.333333 23.6642 0 23.3284 0ZM22.3209 8.16667H20.6418V1.66667H22.3209V8.16667Z" fill="currentColor"/>
</g>
<defs>
<clipPath id="clip0_865_1794">
<rect width="24" height="24" fill="currentColor"/>
</clipPath>
</defs>
</svg>
