<svg width="24" height="24" viewBox="0 0 24 24"  xmlns="http://www.w3.org/2000/svg">
<path fill-rule="evenodd" clip-rule="evenodd" d="M7.42857 1H2.57143C1.62857 1 1 1.62857 1 2.57143V21.4286C1 22.3714 1.62857 23 2.57143 23H7.42857C8.37143 23 9 22.3714 9 21.4286V2.57143C9 1.62857 8.37143 1 7.42857 1ZM2.57143 2.57143H7.42857V21.4286H2.57143V2.57143ZM21.4286 1H16.5714C15.6286 1 15 1.62857 15 2.57143V21.4286C15 22.3714 15.6286 23 16.5714 23H21.4286C22.3714 23 23 22.3714 23 21.4286V2.57143C23 1.62857 22.3714 1 21.4286 1ZM16.5714 2.57143H21.4286V21.4286H16.5714V2.57143Z" fill="currentColor"/>
</svg>
