<svg width="24" height="24" viewBox="0 0 24 24"  xmlns="http://www.w3.org/2000/svg">
<path fill-rule="evenodd" clip-rule="evenodd" d="M9.27351 1.10896C10.6707 0.513632 12.286 1.16371 12.8813 2.56096C14.0718 5.35498 12.8755 8.59253 10.1544 9.94121L6.49377 11.7555C6.37007 11.8168 6.31948 11.9668 6.3808 12.0905L6.53514 12.4019C6.59668 12.5261 6.74752 12.5765 6.87137 12.5143L14.2855 8.78912C16.97 7.44032 20.2404 8.3892 21.7861 10.9653L21.8313 11.0407C23.4625 13.7592 22.5405 17.2874 19.7878 18.8604L19.2902 19.1447C19.8862 19.9889 19.9792 21.1354 19.4343 22.0929C18.6831 23.4129 17.004 23.874 15.684 23.1228C12.4882 21.3041 12.4842 16.6992 15.6768 14.8749L17.059 14.085C17.1346 14.0419 17.1599 13.945 17.1151 13.8704L17.0699 13.7951C17.005 13.6868 16.8676 13.6469 16.7548 13.7036L9.34063 17.4288C6.49208 18.86 3.02286 17.7006 1.60719 14.8443L1.45285 14.5329C0.0426311 11.6876 1.20602 8.23779 4.05136 6.82757L7.71198 5.01327C7.82128 4.9591 7.86933 4.82905 7.82151 4.71682C7.22619 3.31958 7.87627 1.70428 9.27351 1.10896Z" fill="currentColor"/>
</svg>
