<svg width="24" height="24" viewBox="0 0 24 24"  xmlns="http://www.w3.org/2000/svg">
<path fill-rule="evenodd" clip-rule="evenodd" d="M8.32854 6.11913C8.02372 5.67294 7.4149 5.55835 6.96872 5.86317L4.63327 7.4587C3.78963 8.03506 2.63849 7.81838 2.06213 6.97473C1.48577 6.13109 1.70244 4.97995 2.54609 4.40359L4.88154 2.80806C7.01501 1.35052 9.92611 1.89848 11.3837 4.03195C12.8412 6.16542 12.2933 9.07652 10.1598 10.5341L6.79827 12.8305C6.27384 13.1888 6.13915 13.9044 6.49743 14.4288L6.70274 14.7293C7.06102 15.2538 7.77659 15.3885 8.30102 15.0302L14.5819 10.7393C16.7153 9.28175 19.6264 9.8297 21.084 11.9631C22.5415 14.0966 21.9936 17.0077 19.8601 18.4653L18.1085 19.6619C17.9848 19.7464 17.953 19.9153 18.0375 20.039C18.1221 20.1627 18.2909 20.1945 18.4146 20.11L18.9985 19.7111C19.8421 19.1347 20.9933 19.3514 21.5696 20.195C22.146 21.0387 21.9293 22.1898 21.0857 22.7662L20.5018 23.1651C18.6908 24.4023 16.2197 23.9372 14.9824 22.1262C13.7452 20.3152 14.2103 17.8441 16.0213 16.6068L17.7729 15.4102C18.2191 15.1053 18.3337 14.4965 18.0289 14.0503C17.724 13.6041 17.1152 13.4895 16.669 13.7944L10.3882 18.0853C8.17648 19.5963 5.15863 19.0282 3.64763 16.8165L3.44232 16.516C1.93132 14.3043 2.49937 11.2864 4.71108 9.77546L8.07258 7.47895C8.51877 7.17413 8.63337 6.56531 8.32854 6.11913Z" fill="currentColor"/>
</svg>
