<svg width="24" height="24" viewBox="0 0 24 24"  xmlns="http://www.w3.org/2000/svg">
<path fill-rule="evenodd" clip-rule="evenodd" d="M9.43012 1.47675C10.6241 0.968014 12.0045 1.52354 12.5132 2.71755C13.6206 5.31654 12.5078 8.32808 9.97657 9.58262L6.31595 11.397C5.99431 11.5564 5.86279 11.9464 6.02221 12.268L6.17655 12.5794C6.33658 12.9023 6.72875 13.0334 7.05076 12.8716L14.465 9.14635C16.9624 7.89151 20.005 8.77429 21.443 11.171L21.4882 11.2463C23.004 13.7726 22.1472 17.0513 19.5892 18.513L18.672 19.0371C19.4308 19.7645 19.6301 20.9397 19.0865 21.895C18.4445 23.0229 17.0097 23.417 15.8817 22.775C12.9552 21.1095 12.9515 16.8927 15.8751 15.2221L17.2574 14.4322C17.5276 14.2778 17.6181 13.9314 17.458 13.6645L17.4128 13.5892C17.2402 13.3014 16.8749 13.1954 16.5751 13.3461L9.16086 17.0713C6.51047 18.4029 3.28259 17.3242 1.9654 14.6666L1.81106 14.3552C0.498942 11.7078 1.5814 8.49789 4.2288 7.18577L7.88942 5.37147C8.18868 5.22315 8.32024 4.86711 8.18932 4.55984C7.68058 3.36583 8.23611 1.98548 9.43012 1.47675Z" fill="currentColor"/>
</svg>
