<svg width="24" height="24" viewBox="0 0 24 24"  xmlns="http://www.w3.org/2000/svg">
<path fill-rule="evenodd" clip-rule="evenodd" d="M8.74135 4.83654C8.28075 4.16234 7.36082 3.98919 6.68662 4.44978L4.35117 6.04531C3.73554 6.4659 2.89552 6.30778 2.47493 5.69215C2.05434 5.07651 2.21246 4.23649 2.82809 3.81591L5.16354 2.22038C7.069 0.918612 9.66898 1.408 10.9707 3.31346C12.2725 5.21893 11.7831 7.8189 9.87767 9.12067L6.51617 11.4172C5.76373 11.9313 5.57048 12.958 6.08453 13.7104L6.28984 14.0109C6.80389 14.7634 7.83058 14.9566 8.58302 14.4426L14.8639 10.1516C16.7693 8.84985 19.3693 9.33923 20.6711 11.2447C21.9728 13.1502 21.4834 15.7502 19.578 17.0519L17.8264 18.2486C17.4747 18.4889 17.3843 18.9688 17.6246 19.3206C17.8649 19.6723 18.3449 19.7627 18.6966 19.5224L19.2805 19.1235C19.8961 18.7029 20.7361 18.861 21.1567 19.4766C21.5773 20.0923 21.4192 20.9323 20.8035 21.3529L20.2197 21.7518C18.6367 22.8332 16.4767 22.4267 15.3952 20.8437C14.3137 19.2607 14.7203 17.1007 16.3033 16.0192L18.0549 14.8225C18.7291 14.3619 18.9023 13.442 18.4417 12.7678M18.4417 12.7678C17.9811 12.0936 17.0611 11.9205 16.3869 12.3811L10.1061 16.672C8.1224 18.0272 5.41566 17.5177 4.06044 15.534L3.85513 15.2335C2.4999 13.2498 3.00939 10.543 4.99309 9.18777L8.35459 6.89127C9.02879 6.43067 9.20195 5.51074 8.74135 4.83654" fill="currentColor"/>
</svg>
