<svg width="24" height="24" viewBox="0 0 24 24"  xmlns="http://www.w3.org/2000/svg">
<path fill-rule="evenodd" clip-rule="evenodd" d="M9.62624 1.93661C10.5662 1.53612 11.6529 1.97344 12.0533 2.9134C13.0568 5.26859 12.0484 7.99764 9.75467 9.13449L6.09405 10.9488C5.52498 11.2308 5.2923 11.9208 5.57435 12.4899L5.72869 12.8013C6.01182 13.3725 6.70566 13.6044 7.27538 13.3182L14.6895 9.59299C16.9532 8.45562 19.711 9.25576 21.0144 11.4281L21.0596 11.5034C22.4311 13.7894 21.6558 16.7561 19.3412 18.0787L17.959 18.8685C17.9214 18.89 17.9091 18.9083 17.9026 18.92C17.8932 18.9368 17.8847 18.9632 17.8847 18.9966C17.8848 19.03 17.8933 19.0564 17.9027 19.0732C17.9093 19.0849 17.9216 19.1032 17.9592 19.1246C18.8472 19.6299 19.1574 20.7595 18.652 21.6475C18.1467 22.5355 17.0171 22.8457 16.1291 22.3403C13.5392 20.8664 13.5359 17.1345 16.1233 15.656L17.5055 14.8662C18.0192 14.5727 18.1912 13.9143 17.8868 13.4071L17.8417 13.3317C17.5344 12.8197 16.8843 12.631 16.3507 12.8991L8.93652 16.6243C6.53382 17.8315 3.60761 16.8536 2.41353 14.4444L2.25919 14.133C1.0697 11.733 2.05099 8.82312 4.45097 7.63363L8.11159 5.81933C8.64829 5.55333 8.88423 4.91478 8.64944 4.36371C8.24894 3.42375 8.68627 2.3371 9.62624 1.93661Z" fill="currentColor"/>
</svg>
