<svg width="24" height="24" viewBox="0 0 24 24"  xmlns="http://www.w3.org/2000/svg">
<path fill-rule="evenodd" clip-rule="evenodd" d="M9.15439 5.55493C8.53802 4.65272 7.30697 4.421 6.40476 5.03737L4.06932 6.6329C3.6817 6.89771 3.1528 6.79816 2.88798 6.41054C2.62317 6.02292 2.72272 5.49402 3.11034 5.2292L5.44579 3.63368C7.12324 2.48768 9.4121 2.9185 10.5581 4.59596C11.7041 6.27341 11.2733 8.56227 9.59581 9.70826L6.23431 12.0048C5.25386 12.6746 5.00205 14.0124 5.67187 14.9929L5.87718 15.2934C6.54701 16.2738 7.88482 16.5257 8.86527 15.8558L15.1461 11.5649C16.8235 10.4189 19.1124 10.8497 20.2584 12.5272C21.4044 14.2047 20.9735 16.4935 19.2961 17.6395L17.5445 18.8362C16.9647 19.2322 16.8158 20.0233 17.2119 20.6031C17.608 21.1828 18.3991 21.3317 18.9788 20.9356L19.5627 20.5367C19.9503 20.2719 20.4792 20.3715 20.744 20.7591C21.0088 21.1467 20.9093 21.6756 20.5216 21.9404L19.9378 22.3393C18.5828 23.265 16.7339 22.917 15.8082 21.562C14.8825 20.207 15.2305 18.3582 16.5855 17.4325L18.3371 16.2358C19.2393 15.6194 19.471 14.3884 18.8547 13.4862C18.2383 12.584 17.0072 12.3523 16.105 12.9686L9.82425 17.2595C8.06855 18.459 5.67294 18.0081 4.47349 16.2524L4.26817 15.9518C3.06872 14.1962 3.51964 11.8005 5.27534 10.6011L8.63684 8.30457C9.53905 7.6882 9.77077 6.45714 9.15439 5.55493Z" fill="currentColor"/>
</svg>
