<svg width="24" height="24" viewBox="0 0 24 24"  xmlns="http://www.w3.org/2000/svg">
<g clip-path="url(#clip0_865_1809)">
<path d="M5.26033 0.158037C4.84701 -0.0207006 4.41094 -0.0420186 3.98742 0.0648158L3.93902 0.0770257L2.71309 0.53884C1.66684 0.932969 0.902101 1.73892 0.387421 2.82703L0.382116 2.83868C-0.0815253 3.8569 -0.0992865 5.04927 0.199923 6.3382C0.491968 7.59627 0.987562 8.88747 1.67593 10.2105C2.35764 11.5207 3.15175 12.7958 4.05727 14.0358C4.95758 15.2687 5.84534 16.3301 6.72159 17.2143C7.59786 18.0984 8.64987 18.9944 9.87197 19.903C11.1012 20.8169 12.3653 21.6184 13.6644 22.3067C14.9764 23.0016 16.2574 23.5024 17.5062 23.7975C18.7868 24.1002 19.9742 24.0828 20.9884 23.6126L21.0001 23.607C22.0822 23.0858 22.8793 22.3134 23.2681 21.2625L23.7254 20.0265L23.7372 19.9788C23.842 19.556 23.8212 19.1213 23.6458 18.7084C23.4553 18.2599 23.0923 17.9366 22.7087 17.6992C22.3706 17.4586 21.5381 16.9161 20.243 16.089C19.5325 15.6354 18.8611 15.2976 18.2355 15.1051C17.6117 14.9131 16.9792 14.849 16.3861 15.0152L16.3644 15.0219C15.5555 15.2713 14.8044 15.6648 14.4104 16.3389C14.359 16.3474 14.2383 16.3533 14.0183 16.3051C13.5638 16.2007 12.9361 15.8712 12.1219 15.2C11.2679 14.4958 10.6667 13.9633 10.3005 13.5938C9.95363 13.2437 9.43014 12.6463 8.72025 11.7825C8.04494 10.9608 7.73252 10.3356 7.64733 9.89147L7.64285 9.87082C7.59213 9.63686 7.59983 9.50995 7.60954 9.45724C8.28652 9.0546 8.66132 8.28998 8.88632 7.4775C9.23197 6.31584 8.71076 4.9597 7.84003 3.58823C6.99079 2.25062 6.46853 1.42852 6.27381 1.12284C6.03884 0.731113 5.7154 0.354828 5.26033 0.158037ZM22.704 1.2646V0.306408L13.8908 0.304028V1.2646C13.8908 2.90305 14.7928 4.33173 16.1294 5.08523C14.7928 5.83873 13.8908 7.26741 13.8908 8.90585V9.71568L22.704 9.7133V8.90585C22.704 7.26741 21.802 5.83873 20.4655 5.08523C21.802 4.33173 22.704 2.90305 22.704 1.2646Z" fill="currentColor"/>
</g>
<defs>
<clipPath id="clip0_865_1809">
<rect width="24" height="24" fill="currentColor"/>
</clipPath>
</defs>
</svg>
