<svg width="24" height="24" viewBox="0 0 24 24"  xmlns="http://www.w3.org/2000/svg">
<g clip-path="url(#clip0_865_1804)">
<path fill-rule="evenodd" clip-rule="evenodd" d="M4.15572 0H4.82238C5.82238 0 6.65572 0.5 7.15572 1.16667C8.32238 2.83333 9.82238 5 9.82238 6.5C9.98905 8 9.32238 9 8.65572 9.66667C8.98905 10.5 9.65572 11.5 10.9891 12.8333C12.0099 14 13.0307 14.6563 13.6049 15.0254C13.687 15.0781 13.7599 15.125 13.8224 15.1667C14.3224 14.6667 14.9891 14.1667 15.9891 14H16.8224C18.4891 14 19.9891 14.8333 22.4891 16.8333C23.3224 17.5 23.6557 18.6667 23.3224 20C22.8224 21.8333 21.3224 23.6667 18.9891 24H18.3224C15.1557 24 10.1557 21.1667 6.65572 17.5C2.98905 13.5 0.822384 9.83333 0.155717 6.33333C-0.51095 3.16667 0.989051 0.833333 4.15572 0ZM5.82238 2.16667C5.65572 2 5.32238 1.66667 4.82238 1.66667H4.48905C4.45891 1.67671 4.41968 1.68858 4.37276 1.70277C3.64129 1.92401 1.03929 2.71099 1.82238 6C2.48905 9.66667 4.98905 13.1667 7.98905 16.3333C11.3224 19.8333 15.8224 22.3333 18.4891 22.3333H18.9891C21.4891 21.8333 22.4891 18.8333 21.6557 18.1667C19.3224 16.3333 18.1557 15.6667 16.989 15.6667H16.4891C15.1557 15.8333 14.6557 17.1667 14.6557 17.1667C14.6557 17.1667 12.3224 16.6667 9.82238 14C6.98905 11.1667 6.65572 9.16667 6.65572 9.16667C7.65572 8.5 8.15572 7.83333 8.15572 6.66667C8.15572 5.5 6.32238 2.83333 5.82238 2.16667ZM21.1555 9.66667L21.3222 10.5C21.8222 10.5 22.1555 10.8333 22.1555 11.3333C22.1555 11.8333 21.8222 12.1667 21.3222 12.1667H12.9888C12.4888 12.1667 12.1555 11.8333 12.1555 11.3333C12.1555 10.8333 12.4888 10.5 12.9888 10.5V9.66667C12.9888 8.16667 13.8222 6.83333 15.1555 6C13.8222 5.33333 12.9888 4 12.9888 2.5V1.66667C12.4888 1.66667 12.1555 1.33333 12.1555 0.833333C12.1555 0.333333 12.4888 0 12.9888 0H21.3222C21.8222 0 22.1555 0.333333 22.1555 0.833333C22.1555 1.33333 21.8222 1.66667 21.3222 1.66667H21.1555V2.66667C21.1555 4.16667 20.1555 5.5 18.9888 6.16667C20.3222 6.83333 21.1555 8.16667 21.1555 9.66667ZM19.4888 1.66667H14.6555V2.66667C14.6555 4 15.6555 5 17.1555 4.83333C18.4888 4.83333 19.4888 3.83333 19.4888 2.5V1.66667ZM14.6555 10.5H19.3222V9.66667C19.3222 8.33333 18.3222 7.33333 16.9888 7.33333C15.6555 7.33333 14.6555 8.33333 14.6555 9.66667V10.5Z" fill="currentColor"/>
</g>
<defs>
<clipPath id="clip0_865_1804">
<rect width="24" height="24" fill="currentColor"/>
</clipPath>
</defs>
</svg>
