<svg width="24" height="24" viewBox="0 0 24 24"  xmlns="http://www.w3.org/2000/svg">
<g clip-path="url(#clip0_865_6017)">
<path d="M23.85 12.1501L11.85 0.150098C11.55 9.75728e-05 10.95 9.75728e-05 10.65 0.150098C10.5 0.450098 10.5 1.0501 10.65 1.3501L12.75 3.4501L3.6 6.0001C3.3 6.1501 3 6.3001 3 6.6001L0 23.1001C0 23.1001 0 23.1001 0 23.2501C0 23.4001 0 23.7001 0.15 23.8501C0.45 24.0001 0.6 24.0001 0.9 24.0001L17.4 21.0001C17.7 21.0001 17.85 20.7001 18 20.4001L20.7 11.1001L22.8 13.2001C23.1 13.5001 23.55 13.5001 23.85 13.2001C24 13.0501 24 12.4501 23.85 12.1501ZM16.65 19.6501L3 22.0501L9 16.0501C9.45 16.3501 9.9 16.5001 10.5 16.5001C12.15 16.5001 13.5 15.1501 13.5 13.5001C13.5 11.8501 12.15 10.5001 10.5 10.5001C8.85 10.5001 7.5 11.8501 7.5 13.5001C7.5 14.1001 7.65 14.5501 7.95 15.0001L1.95 21.0001L4.5 7.3501L14.1 4.6501L19.5 10.0501L16.65 19.6501ZM9 13.5001C9 12.6001 9.6 12.0001 10.5 12.0001C11.4 12.0001 12 12.6001 12 13.5001C12 14.4001 11.4 15.0001 10.5 15.0001C10.05 15.0001 9.75 14.8501 9.45 14.5501C9.15 14.2501 9 13.9501 9 13.5001Z" fill="currentColor"/>
</g>
<defs>
<clipPath id="clip0_865_6017">
<rect width="24" height="24" fill="currentColor"/>
</clipPath>
</defs>
</svg>
