<svg width="24" height="24" viewBox="0 0 24 24"  xmlns="http://www.w3.org/2000/svg">
<g clip-path="url(#clip0_865_6023)">
<path d="M23.5501 7.95059L16.0501 0.450586C15.7501 0.000585884 15.1501 -0.149414 14.5501 0.000585917L4.05015 3.00059C3.60015 3.15059 3.15015 3.75059 3.00015 4.20059L0.150146 21.7506L9.15015 12.7506C8.85015 11.7006 9.15015 10.6506 9.90015 9.90059C11.1001 8.70059 12.9001 8.70059 14.1001 9.90059C15.3001 11.1006 15.3001 12.9006 14.1001 14.1006C13.3501 14.8506 12.1501 15.1506 11.2501 14.8506L2.25015 23.8506L19.8001 21.0006C20.4001 20.8506 20.8501 20.5506 21.0001 19.9506L24.0001 9.45059C24.1501 8.85059 24.0001 8.25059 23.5501 7.95059Z" fill="currentColor"/>
</g>
<defs>
<clipPath id="clip0_865_6023">
<rect width="24" height="24" fill="currentColor"/>
</clipPath>
</defs>
</svg>
