<svg width="24" height="24" viewBox="0 0 24 24"  xmlns="http://www.w3.org/2000/svg">
<g clip-path="url(#clip0_865_1816)">
<path fill-rule="evenodd" clip-rule="evenodd" d="M4.01626 0.805369H4.66056C5.627 0.805369 6.43237 1.28859 6.91559 1.93289C8.04311 3.54362 9.49277 5.63758 9.49277 7.08725C9.65385 8.53691 9.00955 9.50336 8.36526 10.1477C8.68741 10.953 9.3317 11.9195 10.6203 13.2081C11.6069 14.3356 12.5934 14.9698 13.1484 15.3266C13.2277 15.3775 13.2981 15.4228 13.3585 15.4631C13.8418 14.9799 14.4861 14.4966 15.4525 14.3356H16.2579C17.8686 14.3356 19.3183 15.1409 21.7344 17.0738C22.5398 17.7181 22.8619 18.8456 22.5398 20.1342C22.0565 21.906 20.6069 23.6779 18.3518 24H17.7075C14.6471 24 9.81492 21.2617 6.43237 17.7181C2.88875 13.8524 0.794787 10.3087 0.150492 6.92618C-0.493804 3.86577 0.955861 1.61074 4.01626 0.805369ZM5.627 2.89933C5.46593 2.73826 5.14378 2.41611 4.66056 2.41611H4.33841C4.30928 2.42582 4.27137 2.43728 4.22602 2.451C3.5191 2.66481 1.00441 3.42538 1.76123 6.60403C2.40553 10.1477 4.82163 13.5302 7.72096 16.5906C10.9424 19.9732 15.2914 22.3893 17.8686 22.3893H18.3518C20.7679 21.906 21.7344 19.0067 20.929 18.3624C18.674 16.5906 17.5465 15.9463 16.4189 15.9463H15.9357C14.6471 16.1074 14.1639 17.396 14.1639 17.396C14.1639 17.396 11.9089 16.9128 9.49277 14.3356C6.75452 11.5973 6.43237 9.66443 6.43237 9.66443C7.39881 9.02013 7.88204 8.37584 7.88204 7.24832C7.88204 6.12081 6.11022 3.54362 5.627 2.89933Z" fill="currentColor"/>
<path d="M19.5 5.5C19.5 6.32843 18.8284 7 18 7C17.1716 7 16.5 6.32843 16.5 5.5C16.5 4.67157 17.1716 4 18 4C18.8284 4 19.5 4.67157 19.5 5.5Z" fill="currentColor"/>
<path fill-rule="evenodd" clip-rule="evenodd" d="M15.7083 0C15.2106 0 14.7515 0.267611 14.5072 0.700153L12.1775 4.82515C11.9408 5.2441 11.9408 5.7559 12.1775 6.17485L14.5072 10.2998C14.7515 10.7324 15.2106 11 15.7083 11H20.2917C20.7894 11 21.2485 10.7324 21.4928 10.2998L23.8225 6.17485C24.0592 5.7559 24.0592 5.2441 23.8225 4.82515L21.4928 0.700151C21.2485 0.26761 20.7894 0 20.2917 0H15.7083ZM15.6542 2.76265C15.8985 2.33011 16.3576 2.0625 16.8553 2.0625H19.1447C19.6424 2.0625 20.1015 2.33011 20.3458 2.76265L21.5107 4.82515C21.7473 5.2441 21.7473 5.7559 21.5107 6.17485L20.3458 8.23735C20.1015 8.66989 19.6424 8.9375 19.1447 8.9375H16.8553C16.3576 8.9375 15.8985 8.66989 15.6542 8.23735L14.4893 6.17485C14.2527 5.7559 14.2527 5.2441 14.4893 4.82515L15.6542 2.76265Z" fill="currentColor"/>
</g>
<defs>
<clipPath id="clip0_865_1816">
<rect width="24" height="24" fill="currentColor"/>
</clipPath>
</defs>
</svg>
