<svg width="24" height="24" viewBox="0 0 24 24"  xmlns="http://www.w3.org/2000/svg">
<path fill-rule="evenodd" clip-rule="evenodd" d="M21.7168 3.42857L21.561 4.36364C21.561 4.51948 21.4051 4.83117 21.2493 4.98701C21.0934 5.14286 20.9376 5.14286 20.6259 5.14286H19.8467L19.3792 7.48052H20.6259C20.7818 7.48052 21.0934 7.48052 21.0934 7.63636V8.25974L20.9376 8.88312H19.0675L18.4441 12.3117H17.1973C17.1973 12.3117 17.0415 12.3117 17.0415 12.1558C16.8857 12 16.8857 12 16.8857 11.8442V11.5325L17.3532 8.88312H15.6389L15.1714 11.5325C15.1714 11.8442 15.0155 12 14.8597 12.1558C14.7038 12.3117 14.3921 12.3117 14.2363 12.3117H13.3012L13.9246 8.72727H12.8337C12.6779 8.72727 12.522 8.72727 12.3662 8.57143V7.94805L12.522 7.32468H14.0805L14.548 4.98701H12.6779L12.8337 4.05195C12.9116 3.97403 12.9506 3.8961 12.9896 3.81818C13.0285 3.74026 13.0675 3.66234 13.1454 3.58442C13.3012 3.42857 13.4571 3.42857 13.7688 3.42857H14.7038L15.3272 0.779221C15.3272 0.467532 15.4831 0.311688 15.6389 0.155844C15.7947 0 16.1064 0 16.2623 0H17.1973L16.574 3.42857H18.2883L18.9116 0H19.8467C20.0025 0 20.3142 0 20.3142 0.155844C20.4701 0.311688 20.4701 0.467532 20.4701 0.623377L20.0025 3.42857H21.7168ZM17.9766 4.98701H16.2623L15.7947 7.32468H17.509L17.9766 4.98701ZM4.88587 1.55844H5.50924C6.44431 1.55844 7.22353 2.02597 7.69106 2.64935C8.78197 4.20779 10.1846 6.23377 10.1846 7.63636C10.3404 9.03896 9.71704 9.97403 9.09366 10.5974C9.40535 11.3766 10.0287 12.3117 11.2755 13.5584C12.23 14.6494 13.1846 15.263 13.7215 15.6082C13.7982 15.6575 13.8664 15.7013 13.9248 15.7403C14.3924 15.2727 15.0157 14.8052 15.9508 14.6494H16.73C18.2885 14.6494 19.6911 15.4286 22.0287 17.2987C22.8079 17.9221 23.1196 19.013 22.8079 20.2597C22.3404 21.974 20.9378 23.6883 18.756 24H18.1326C15.1716 24 10.4963 21.3507 7.22353 17.9221C3.79496 14.1818 1.76898 10.7532 1.14561 7.48052C0.522226 4.51948 1.92483 2.33766 4.88587 1.55844ZM6.44431 3.58442C6.28846 3.42857 5.97678 3.11688 5.50924 3.11688H5.19755C5.16937 3.12628 5.13269 3.13737 5.08881 3.15064C4.40484 3.35751 1.9718 4.09339 2.70405 7.16883C3.32742 10.5974 5.66509 13.8701 8.47028 16.8312C11.5872 20.1039 15.795 22.4416 18.2885 22.4416H18.756C21.0937 21.974 22.0287 19.1688 21.2495 18.5455C19.0677 16.8312 17.9768 16.2078 16.8859 16.2078H16.4183C15.1716 16.3636 14.704 17.6104 14.704 17.6104C14.704 17.6104 12.5222 17.1429 10.1846 14.6494C7.53522 12 7.22353 10.1299 7.22353 10.1299C8.15859 9.50649 8.62613 8.88312 8.62613 7.79221C8.62613 6.7013 6.91184 4.20779 6.44431 3.58442Z" fill="currentColor"/>
</svg>
