<svg width="24" height="24" viewBox="0 0 24 24"  xmlns="http://www.w3.org/2000/svg">
<g clip-path="url(#clip0_865_1980)">
<path d="M14.2501 0C14.1001 0 13.8001 0.149998 13.6501 0.149998C13.6501 0.299997 13.5001 0.599994 13.5001 0.749992V9.7499C13.5001 10.1999 13.8001 10.4999 14.2501 10.4999H23.25C23.4 10.4999 23.7 10.3499 23.85 10.3499C23.85 10.1999 24 9.8999 24 9.7499C24 7.19993 22.95 4.64995 21.15 2.84997C19.35 1.04999 16.8001 0 14.2501 0ZM15.0001 8.99991V1.49998C16.9501 1.64998 18.75 2.54997 20.1 3.89996C21.45 5.24995 22.35 7.04993 22.5 8.99991H15.0001ZM9.75013 4.49995C7.80015 4.49995 6.00017 5.09995 4.35019 6.14994C2.70021 7.19993 1.50022 8.69991 0.750225 10.4999C0.000233293 12.2999 -0.149766 14.2499 0.150231 16.1998C0.600227 17.9998 1.50022 19.7998 2.8502 21.1498C4.20019 22.4998 6.00017 23.3998 7.80015 23.8498C9.75013 24.1498 11.7001 23.9998 13.5001 23.2498C15.3001 22.4998 16.8001 21.2998 17.85 19.6498C18.9 17.9998 19.5 16.1998 19.5 14.2499C19.5 14.0999 19.35 13.7999 19.35 13.6499C19.2 13.6499 18.9 13.4999 18.75 13.4999H10.5001V5.24995C10.5001 4.79995 10.2001 4.49995 9.75013 4.49995ZM5.10018 7.34993C6.30017 6.59993 7.65015 6.14994 9.00014 5.99994V14.2499C9.00014 14.6999 9.30014 14.9998 9.75013 14.9998H18C17.8501 16.3498 17.4001 17.6998 16.6501 18.8998C15.7501 20.2498 14.4001 21.2998 12.9001 21.8998C11.4001 22.4998 9.75013 22.6498 8.10015 22.3498C6.45017 22.0498 5.10018 21.2998 3.90019 20.0998C2.70021 18.8998 1.95021 17.5498 1.65022 15.8998C1.35022 14.2499 1.50022 12.5999 2.10021 11.0999C2.70021 9.5999 3.7502 8.24992 5.10018 7.34993Z" fill="currentColor"/>
</g>
<defs>
<clipPath id="clip0_865_1980">
<rect width="24" height="24" fill="currentColor"/>
</clipPath>
</defs>
</svg>
