<svg width="24" height="24" viewBox="0 0 24 24"  xmlns="http://www.w3.org/2000/svg">
<g clip-path="url(#clip0_865_4860)">
<path fill-rule="evenodd" clip-rule="evenodd" d="M13.7197 0.21967C14.0126 -0.0732233 14.4874 -0.0732233 14.7803 0.21967L17.2205 2.65981C17.2375 2.6753 17.2539 2.69166 17.2695 2.70886L23.7803 9.21967C24.0732 9.51256 24.0732 9.98744 23.7803 10.2803C23.4874 10.5732 23.0126 10.5732 22.7197 10.2803L20.9575 8.51816L14.2111 20.6504L16.2803 22.7197C16.5732 23.0126 16.5732 23.4874 16.2803 23.7803C15.9874 24.0732 15.5126 24.0732 15.2197 23.7803L12.7686 21.3293C12.7557 21.3173 12.7433 21.3048 12.7314 21.2921L0.21967 8.78033C-0.0732233 8.48744 -0.0732233 8.01256 0.21967 7.71967C0.512563 7.42678 0.987437 7.42678 1.28033 7.71967L3.34944 9.78878L15.4817 3.04235L13.7197 1.28033C13.4268 0.987437 13.4268 0.512563 13.7197 0.21967ZM16.5847 4.14533L19.8545 7.41518L13.1081 19.5474L4.45242 10.8918L16.5847 4.14533Z" fill="currentColor"/>
<path d="M6.53033 18.5303C6.82322 18.2374 6.82322 17.7626 6.53033 17.4697C6.23744 17.1768 5.76256 17.1768 5.46967 17.4697L0.21967 22.7197C-0.0732233 23.0126 -0.0732233 23.4874 0.21967 23.7803C0.512563 24.0732 0.987437 24.0732 1.28033 23.7803L6.53033 18.5303Z" fill="currentColor"/>
</g>
<defs>
<clipPath id="clip0_865_4860">
<rect width="24" height="24" fill="currentColor"/>
</clipPath>
</defs>
</svg>
