<svg width="24" height="24" viewBox="0 0 24 24"  xmlns="http://www.w3.org/2000/svg">
<g clip-path="url(#clip0_865_4866)">
<path fill-rule="evenodd" clip-rule="evenodd" d="M17.9671 13.8959L20.9575 8.51816L22.7197 10.2803C23.0126 10.5732 23.4874 10.5732 23.7803 10.2803C24.0732 9.98744 24.0732 9.51256 23.7803 9.21967L17.2695 2.70886C17.2539 2.69166 17.2375 2.6753 17.2205 2.65981L14.7803 0.21967C14.4874 -0.0732233 14.0126 -0.0732233 13.7197 0.21967C13.4268 0.512563 13.4268 0.987437 13.7197 1.28033L15.4817 3.04235L10.1039 6.03277L11.2069 7.13575L16.5847 4.14533L19.8545 7.41518L16.8641 12.7929L17.9671 13.8959ZM7.90223 8.97341L15.0264 16.0976L13.1081 19.5474L4.45242 10.8918L7.90223 8.97341ZM6.79925 7.87043L3.34944 9.78878L1.28033 7.71967C0.987437 7.42678 0.512563 7.42678 0.21967 7.71967C-0.0732233 8.01256 -0.0732233 8.48744 0.21967 8.78033L12.7314 21.2921C12.7433 21.3048 12.7557 21.3173 12.7686 21.3293L15.2197 23.7803C15.5126 24.0732 15.9874 24.0732 16.2803 23.7803C16.5732 23.4874 16.5732 23.0126 16.2803 22.7197L14.2111 20.6504L16.1294 17.2006L22.695 23.7662C23.0001 24.0713 23.4872 24.0788 23.783 23.783C24.0788 23.4872 24.0713 23.0001 23.7662 22.695L1.30495 0.233775C0.999912 -0.0712666 0.512836 -0.07876 0.217038 0.217038C-0.0787601 0.512836 -0.0712666 0.999912 0.233775 1.30495L6.79925 7.87043ZM6.53033 17.4697C6.82322 17.7626 6.82322 18.2374 6.53033 18.5303L1.28033 23.7803C0.987437 24.0732 0.512563 24.0732 0.21967 23.7803C-0.0732233 23.4874 -0.0732233 23.0126 0.21967 22.7197L5.46967 17.4697C5.76256 17.1768 6.23744 17.1768 6.53033 17.4697Z" fill="currentColor"/>
</g>
<defs>
<clipPath id="clip0_865_4866">
<rect width="24" height="24" fill="currentColor"/>
</clipPath>
</defs>
</svg>
