<svg width="24" height="24" viewBox="0 0 24 24"  xmlns="http://www.w3.org/2000/svg">
<path fill-rule="evenodd" clip-rule="evenodd" d="M11.4391 23.8047C11.7569 24.0646 12.2427 24.0649 12.5606 23.805L12.5615 23.8041L12.5633 23.8027L12.5694 23.7976L12.5913 23.7796L12.6725 23.7115C12.7428 23.6523 12.8446 23.5657 12.9733 23.4535C13.2308 23.2293 13.5965 22.9032 14.0345 22.491C14.0908 22.4381 14.1483 22.3837 14.2069 22.3279C13.7559 21.4855 13.5002 20.5228 13.5002 19.5005C13.5002 16.1868 16.1865 13.5005 19.5002 13.5005C19.965 13.5005 20.4174 13.5533 20.8518 13.6533C21.5491 12.1422 22 10.5623 22 9C22 6.61305 20.9465 4.32387 19.071 2.63604C17.1957 0.948211 14.6522 0 12 0C9.34783 0 6.8043 0.948211 4.92893 2.63604C3.05357 4.32387 2 6.61305 2 9C2 12.6379 4.44477 16.3714 6.75275 19.1095C7.9226 20.4973 9.09053 21.6678 9.9655 22.491C10.4035 22.9032 10.7692 23.2293 11.0267 23.4535C11.1554 23.5657 11.2572 23.6523 11.3275 23.7115L11.4087 23.7796L11.4306 23.7976L11.4367 23.8027L11.4391 23.8047ZM12 14C14.2091 14 16 12.2091 16 10C16 7.79086 14.2091 6 12 6C9.79086 6 8 7.79086 8 10C8 12.2091 9.79086 14 12 14Z" fill="currentColor"/>
<path d="M16.7003 22.6295C16.9344 22.8761 17.2418 23 17.5492 23C17.8566 23 18.164 22.8761 18.3982 22.6295L22.8569 17.9335C23.0477 17.7326 23.0477 17.4091 22.8569 17.2082L21.8549 16.1529C21.6614 15.949 21.3454 15.949 21.1518 16.1529L17.5492 19.9471L16.3482 18.6822C16.1546 18.4783 15.8386 18.4783 15.6451 18.6822L14.6431 19.7375C14.4523 19.9384 14.4523 20.2619 14.6431 20.4628L16.7003 22.6295Z" fill="currentColor"/>
</svg>
