<svg width="24" height="24" viewBox="0 0 24 24"  xmlns="http://www.w3.org/2000/svg">
<g clip-path="url(#clip0_865_4435)">
<path fill-rule="evenodd" clip-rule="evenodd" d="M23.7815 22.7264C24.0728 23.0178 24.0728 23.4901 23.7815 23.7815C23.4901 24.0728 23.0178 24.0728 22.7264 23.7815L17.6132 18.6682C17.4911 18.818 17.369 18.9652 17.2472 19.1095C16.0774 20.4973 14.9095 21.6678 14.0345 22.491C13.5965 22.9032 13.2308 23.2293 12.9733 23.4535C12.8446 23.5657 12.7428 23.6523 12.6725 23.7115L12.5913 23.7796L12.5694 23.7976L12.5633 23.8027L12.5609 23.8047C12.2431 24.0646 11.7573 24.0649 11.4394 23.805L11.4385 23.8041L11.4367 23.8027L11.4306 23.7976L11.4087 23.7796L11.3275 23.7115C11.2572 23.6523 11.1554 23.5657 11.0267 23.4535C10.7692 23.2293 10.4035 22.9032 9.9655 22.491C9.09053 21.6678 7.92267 20.4973 6.75284 19.1095C4.44483 16.3714 2 12.6379 2 9C2 7.38141 2.48442 5.80778 3.38107 4.43613L0.218511 1.27357C-0.072837 0.982221 -0.072837 0.509857 0.218511 0.21851C0.509856 -0.0728361 0.982223 -0.0728372 1.27357 0.21851L23.7815 22.7264ZM4.56236 5.61742L7.54608 8.60114C7.4069 9.04144 7.33333 9.51164 7.33333 10C7.33333 12.4853 9.23858 14.5 12 14.5C12.4542 14.5 12.8852 14.4455 13.2883 14.3434L16.4731 17.5282C16.2902 17.7574 16.1053 17.9825 15.9194 18.2029C14.7976 19.5339 13.6739 20.6604 12.8301 21.4542C12.506 21.7591 12.2239 22.0144 12 22.2126C11.7761 22.0144 11.494 21.7591 11.1699 21.4542C10.3261 20.6604 9.2024 19.5339 8.0805 18.2029C5.80517 15.5035 3.66667 12.1121 3.66667 9C3.66667 7.81384 3.97889 6.65665 4.56236 5.61742ZM11.9445 12.9996C10.1562 12.9732 9.02576 11.6701 9.00044 10.0555L11.9445 12.9996ZM12.5609 23.8047C12.5609 23.8047 12.5606 23.805 12 23.25L12.5609 23.8047Z" fill="currentColor"/>
<path d="M12 9.32425e-10C10.0402 9.32425e-10 8.13964 0.517784 6.52424 1.46918L7.65512 2.60006C8.95276 1.88651 10.4543 1.5 12 1.5C14.2101 1.5 16.3298 2.29017 17.8926 3.6967C19.4554 5.10322 20.3333 7.01088 20.3333 9C20.3333 10.5925 19.7734 12.2581 18.9217 13.8666L20.1213 15.0663C21.2181 13.1451 22 11.0573 22 9C22 6.61305 20.9464 4.32387 19.0711 2.63604C17.1957 0.948211 14.6522 9.32425e-10 12 9.32425e-10ZM12 5.5C11.5458 5.5 11.1148 5.55449 10.7117 5.65662L12.0555 7.00041C13.8438 7.02681 14.9742 8.32989 14.9996 9.94451L16.4539 11.3989C16.5931 10.9586 16.6667 10.4884 16.6667 10C16.6667 7.51473 14.7614 5.5 12 5.5Z" fill="currentColor"/>
</g>
<defs>
<clipPath id="clip0_865_4435">
<rect width="24" height="24" fill="currentColor"/>
</clipPath>
</defs>
</svg>
