<svg width="24" height="24" viewBox="0 0 24 24"  xmlns="http://www.w3.org/2000/svg">
<path fill-rule="evenodd" clip-rule="evenodd" d="M6.10745 3.6967C7.67025 2.29017 9.78987 1.5 12 1.5C14.2101 1.5 16.3298 2.29017 17.8925 3.6967C19.4553 5.10322 20.3333 7.01088 20.3333 9C20.3333 10.1526 20.04 11.3435 19.555 12.5234C20.1224 12.5713 20.6689 12.6922 21.1853 12.8765C21.6895 11.6051 22 10.2965 22 9C22 6.61305 20.9465 4.32387 19.071 2.63604C17.1957 0.948211 14.6522 0 12 0C9.34783 0 6.8043 0.948211 4.92893 2.63604C3.05357 4.32387 2 6.61305 2 9C2 12.6379 4.44477 16.3714 6.75275 19.1095C7.9226 20.4973 9.09053 21.6678 9.9655 22.491C10.4035 22.9032 10.7692 23.2293 11.0267 23.4535C11.1554 23.5657 11.2572 23.6523 11.3275 23.7115L11.4087 23.7796L11.4306 23.7976L11.4367 23.8027L11.4391 23.8047C11.7569 24.0646 12.2427 24.0649 12.5606 23.805L12.5615 23.8041L12.5633 23.8027L12.5694 23.7976L12.5913 23.7796L12.6725 23.7115C12.7428 23.6523 12.8446 23.5657 12.9733 23.4535C13.1657 23.286 13.4184 23.0617 13.7166 22.787C13.4003 22.3466 13.1378 21.865 12.9385 21.3518L12.8301 21.4542C12.506 21.7591 12.2239 22.0144 12 22.2126C11.7761 22.0144 11.494 21.7591 11.1699 21.4542C10.3261 20.6604 9.2024 19.5339 8.08058 18.2029C5.80523 15.5035 3.66667 12.1121 3.66667 9C3.66667 7.01088 4.54463 5.10322 6.10745 3.6967ZM12 23.25L11.4391 23.8047C11.4391 23.8047 11.4394 23.805 12 23.25ZM12 5.5C9.23858 5.5 7.5 7.51473 7.5 10C7.5 12.4853 9.23858 14.5 12 14.5C14.7614 14.5 16.5 12.4853 16.5 10C16.5 7.51473 14.7614 5.5 12 5.5ZM9 10C9 8.34315 10.159 7 12 7C13.841 7 15 8.34315 15 10C15 11.6569 13.841 13 12 13C10.159 13 9 11.6569 9 10Z" fill="currentColor"/>
<path d="M22.2011 15C22.413 15 22.6162 15.0842 22.7661 15.2339C22.9158 15.3838 23 15.587 23 15.7989C23 16.0107 22.9158 16.2139 22.7661 16.3638L20.1348 18.995L22.7661 21.6262C22.9116 21.7769 22.9921 21.9788 22.9903 22.1883C22.9885 22.3978 22.9045 22.5982 22.7563 22.7463C22.6082 22.8945 22.4078 22.9785 22.1983 22.9803C21.9888 22.9822 21.7869 22.9016 21.6362 22.7561L19.005 20.1248L16.3738 22.7561C16.3001 22.8324 16.2119 22.8933 16.1144 22.9351C16.0169 22.977 15.9121 22.999 15.806 23C15.6999 23.0009 15.5947 22.9807 15.4965 22.9405C15.3983 22.9003 15.3091 22.841 15.234 22.766C15.159 22.6909 15.0997 22.6017 15.0595 22.5035C15.0193 22.4053 14.9991 22.3001 15 22.194C15.001 22.0879 15.023 21.9831 15.0649 21.8856C15.1067 21.7881 15.1676 21.6999 15.2439 21.6262L17.8752 18.995L15.2439 16.3638C15.0984 16.2131 15.0178 16.0112 15.0197 15.8017C15.0215 15.5922 15.1055 15.3918 15.2537 15.2437C15.4018 15.0955 15.6022 15.0115 15.8117 15.0097C16.0212 15.0079 16.2231 15.0884 16.3738 15.2339L19.005 17.8652L21.6362 15.2339C21.7861 15.0842 21.9893 15 22.2011 15Z" fill="currentColor"/>
</svg>
