<svg width="24" height="24" viewBox="0 0 24 24"  xmlns="http://www.w3.org/2000/svg">
<g clip-path="url(#clip0_865_4872)">
<path d="M2.61446 0.448571C2.01637 -0.149524 1.04667 -0.149524 0.448571 0.448571C-0.149524 1.04667 -0.149524 2.01637 0.448571 2.61446L5.85304 8.01893L4.05 9L2.55 7.5C1.95 6.9 1.05 6.9 0.45 7.5C-0.15 8.1 -0.15 9 0.45 9.6L6.3 15.45L0.931758 20.9441C0.360011 21.5292 0.365433 22.4654 0.94392 23.0439C1.52718 23.6272 2.47282 23.6272 3.05608 23.0439L8.55 17.55L14.55 23.55C15.3 24.3 16.35 23.85 16.65 23.55C17.25 22.95 17.25 22.05 16.65 21.45L15.15 19.95L16.0871 18.253L21.3855 23.5514C21.9836 24.1495 22.9533 24.1495 23.5514 23.5514C24.1495 22.9533 24.1495 21.9836 23.5514 21.3855L2.61446 0.448571ZM20.7 9.9L19.0513 12.8854L11.2489 5.08297L14.25 3.45L13.35 2.55C12.75 1.95 12.75 1.05 13.35 0.45C13.95 -0.15 14.85 -0.15 15.45 0.45L23.55 8.55C24.15 9.15 24.15 10.2 23.7 10.8C23.4 11.1 22.5 11.7 21.6 10.8L20.7 9.9Z" fill="currentColor"/>
</g>
<defs>
<clipPath id="clip0_865_4872">
<rect width="24" height="24" fill="currentColor"/>
</clipPath>
</defs>
</svg>
