<svg width="24" height="24" viewBox="0 0 24 24"  xmlns="http://www.w3.org/2000/svg">
<path fill-rule="evenodd" clip-rule="evenodd" d="M6.10745 3.6967C7.67025 2.29017 9.78987 1.5 12 1.5C14.2101 1.5 16.3298 2.29017 17.8925 3.6967C19.4553 5.10322 20.3333 7.01088 20.3333 9C20.3333 10.1526 20.04 11.3435 19.555 12.5234C20.1224 12.5713 20.6689 12.6922 21.1853 12.8765C21.6895 11.6051 22 10.2965 22 9C22 6.61305 20.9465 4.32387 19.071 2.63604C17.1957 0.948211 14.6522 0 12 0C9.34783 0 6.8043 0.948211 4.92893 2.63604C3.05357 4.32387 2 6.61305 2 9C2 12.6379 4.44477 16.3714 6.75275 19.1095C7.9226 20.4973 9.09053 21.6678 9.9655 22.491C10.4035 22.9032 10.7692 23.2293 11.0267 23.4535C11.1554 23.5657 11.2572 23.6523 11.3275 23.7115L11.4087 23.7796L11.4306 23.7976L11.4367 23.8027L11.4391 23.8047C11.7569 24.0646 12.2427 24.0649 12.5606 23.805L12.5615 23.8041L12.5633 23.8027L12.5694 23.7976L12.5913 23.7796L12.6725 23.7115C12.7428 23.6523 12.8446 23.5657 12.9733 23.4535C13.1657 23.286 13.4184 23.0617 13.7166 22.787C13.4003 22.3466 13.1378 21.865 12.9385 21.3518L12.8301 21.4542C12.506 21.7591 12.2239 22.0144 12 22.2126C11.7761 22.0144 11.494 21.7591 11.1699 21.4542C10.3261 20.6604 9.2024 19.5339 8.08058 18.2029C5.80523 15.5035 3.66667 12.1121 3.66667 9C3.66667 7.01088 4.54463 5.10322 6.10745 3.6967ZM12 23.25L11.4391 23.8047C11.4391 23.8047 11.4394 23.805 12 23.25ZM12 5.5C9.23858 5.5 7.5 7.51473 7.5 10C7.5 12.4853 9.23858 14.5 12 14.5C14.7614 14.5 16.5 12.4853 16.5 10C16.5 7.51473 14.7614 5.5 12 5.5ZM9 10C9 8.34315 10.159 7 12 7C13.841 7 15 8.34315 15 10C15 11.6569 13.841 13 12 13C10.159 13 9 11.6569 9 10Z" fill="currentColor"/>
<path d="M16.4629 22.7864C16.6037 22.9228 16.7946 22.9995 16.9937 22.9995H17.0403C17.1467 22.993 17.2505 22.9646 17.3448 22.9162C17.439 22.8678 17.5215 22.8005 17.5868 22.7188L22.8419 16.1737C22.9642 16.0213 23.0189 15.8281 22.9942 15.6366C22.9694 15.4452 22.8671 15.2711 22.7098 15.1526C22.5525 15.0342 22.3531 14.9812 22.1554 15.0052C21.9578 15.0292 21.778 15.1283 21.6558 15.2806L17 21.1763L15.2723 19.5764C15.1307 19.4439 14.9411 19.3706 14.7442 19.3723C14.5474 19.374 14.3591 19.4504 14.2199 19.5853C14.0807 19.7201 14.0017 19.9025 14 20.0932C13.9983 20.2839 14.074 20.4676 14.2107 20.6047L16.4629 22.7864Z" fill="currentColor"/>
</svg>
