<svg width="24" height="24" viewBox="0 0 24 24"  xmlns="http://www.w3.org/2000/svg">
<g clip-path="url(#clip0_865_4442)">
<path fill-rule="evenodd" clip-rule="evenodd" d="M23.5645 21.4619C24.1452 22.0425 24.1452 22.9839 23.5645 23.5645C22.9839 24.1452 22.0425 24.1452 21.4619 23.5645L17.137 19.2397C16.0043 20.5705 14.882 21.6937 14.0345 22.491C13.5965 22.9032 13.2308 23.2293 12.9733 23.4535C12.8446 23.5657 12.7428 23.6523 12.6725 23.7115L12.5913 23.7796L12.5694 23.7976L12.5633 23.8027L12.5609 23.8047C12.2431 24.0646 11.7573 24.0649 11.4394 23.805L11.4385 23.8041L11.4367 23.8027L11.4306 23.7976L11.4087 23.7796L11.3275 23.7115C11.2572 23.6523 11.1554 23.5657 11.0267 23.4535C10.7692 23.2293 10.4035 22.9032 9.9655 22.491C9.09053 21.6678 7.92267 20.4973 6.75283 19.1095C4.44483 16.3714 2 12.6379 2 9C2 7.63446 2.34479 6.30092 2.99103 5.09367L0.435471 2.53811C-0.145158 1.95748 -0.145156 1.0161 0.435471 0.435472C1.0161 -0.145157 1.95748 -0.145158 2.53811 0.435472L23.5645 21.4619ZM8.00132 10.104L11.896 13.9987C9.76949 13.9444 8.05558 12.2305 8.00132 10.104Z" fill="currentColor"/>
<path d="M15.9987 9.89603C15.9444 7.76949 14.2305 6.05558 12.104 6.00132L7.20484 1.1022C8.6624 0.385418 10.3091 2.60771e-08 12 2.60771e-08C14.6522 2.60771e-08 17.1957 0.948211 19.0711 2.63604C20.9464 4.32387 22 6.61305 22 9C22 10.8176 21.3897 12.6591 20.4911 14.3884L15.9987 9.89603Z" fill="currentColor"/>
</g>
<defs>
<clipPath id="clip0_865_4442">
<rect width="24" height="24" fill="currentColor"/>
</clipPath>
</defs>
</svg>
