<svg width="24" height="24" viewBox="0 0 24 24"  xmlns="http://www.w3.org/2000/svg">
<g clip-path="url(#clip0_865_6907)">
<path fill-rule="evenodd" clip-rule="evenodd" d="M5.27274 0C4.16819 0 3.27278 0.895412 3.27278 1.99996V2.99994H20.727V1.99996C20.727 0.895412 19.8316 0 18.727 0H5.27274ZM0.99998 5.99988C0.99998 4.89533 1.89539 3.99992 2.99994 3.99992H20.9996C22.1041 3.99992 22.9995 4.89533 22.9995 5.99988V6.99986H0.99998V5.99988ZM0 9.99983C0 8.89526 0.976813 7.99984 2.18177 7.99984H21.8177C23.0227 7.99984 23.9995 8.89526 23.9995 9.99983V21.9998C23.9995 23.1044 23.0227 23.9998 21.8177 23.9998H2.18177C0.976813 23.9998 0 23.1044 0 21.9998V9.99983ZM16.124 15.5424L9.74716 11.5425C9.30078 11.2568 8.72687 11.5425 8.72687 11.9996V19.9994C8.72687 20.4565 9.30078 20.7423 9.74716 20.4565L16.124 16.4567C16.4428 16.2281 16.4428 15.771 16.124 15.5424Z" fill="currentColor"/>
</g>
<defs>
<clipPath id="clip0_865_6907">
<rect width="24" height="24" fill="currentColor"/>
</clipPath>
</defs>
</svg>
