<svg width="24" height="24" viewBox="0 0 24 24"  xmlns="http://www.w3.org/2000/svg">
<g clip-path="url(#clip0_865_6891)">
<path fill-rule="evenodd" clip-rule="evenodd" d="M11.0419 0.639962C11.0419 0.26187 10.717 -0.0443092 10.3327 0.00528546C8.0537 0.29935 5.97558 1.23536 4.28494 2.62615C3.99198 2.86715 3.98537 3.30206 4.24698 3.56413L4.5886 3.90633C4.83273 4.15089 5.21926 4.15798 5.48142 3.9461C6.88341 2.81298 8.59097 2.04454 10.4607 1.78422C10.7862 1.73891 11.0419 1.46474 11.0419 1.12794V0.639962ZM13.4212 0.00529538C13.0369 -0.0442978 12.7119 0.261837 12.7119 0.639962V1.12794C12.7119 1.46478 12.9678 1.73893 13.2932 1.78424C18.2519 2.47468 22.0696 6.73916 22.0696 11.8969C22.0696 17.0547 18.2519 21.3192 13.2932 22.0096C12.9678 22.0549 12.7119 22.3291 12.7119 22.6659V23.1539C12.7119 23.532 13.0369 23.8382 13.4212 23.7886C19.303 23.0296 23.8471 17.9948 23.8471 11.8969C23.8471 5.79909 19.303 0.764288 13.4212 0.00529538ZM3.1312 4.81264C2.85839 4.53936 2.40053 4.55962 2.16878 4.88082C1.03014 6.45896 0.265493 8.32596 0.00524587 10.3512C-0.0441324 10.7354 0.261971 11.0602 0.640011 11.0602H1.12544C1.46233 11.0602 1.73656 10.8044 1.78171 10.4788C2.00994 8.8332 2.62969 7.31308 3.54381 6.01576C3.72816 5.75412 3.70915 5.39159 3.47757 5.15961L3.1312 4.81264ZM9.61157 5.97867C9.35122 5.79698 9.01263 5.77659 8.73274 5.92604C8.45315 6.07533 8.27934 6.36873 8.27934 6.6871V17.1068C8.27934 17.4251 8.45315 17.7185 8.73274 17.8678C9.01263 18.0173 9.35122 17.9969 9.61157 17.8152L17.077 12.6054C17.3076 12.4444 17.4445 12.1793 17.4445 11.8969C17.4445 11.6146 17.3076 11.3494 17.077 11.1885L9.61157 5.97867ZM15.0971 11.8969L9.9791 15.4686V8.32525L15.0971 11.8969ZM0.64001 12.7336C0.261979 12.7336 -0.0441354 13.0584 0.00524327 13.4427C0.298555 15.7252 1.23258 17.8067 2.6206 19.5003C2.86164 19.7944 3.29781 19.801 3.56004 19.5383L3.90151 19.1963C4.14504 18.9523 4.15213 18.567 3.94115 18.3051C2.80924 16.9003 2.04161 15.189 1.78171 13.3151C1.73655 12.9895 1.46232 12.7336 1.12544 12.7336H0.64001ZM6.00756 20.2457C5.74554 20.0605 5.38191 20.0796 5.14973 20.3121L4.80307 20.6594C4.53087 20.9321 4.55108 21.3886 4.87113 21.6204C6.44661 22.7614 8.3106 23.5277 10.3326 23.7886C10.717 23.8382 11.0419 23.532 11.0419 23.1539V22.6659C11.0419 22.3291 10.7862 22.055 10.4607 22.0096C8.81888 21.7811 7.30216 21.1607 6.00756 20.2457Z" fill="currentColor"/>
</g>
<defs>
<clipPath id="clip0_865_6891">
<rect width="24" height="24" fill="currentColor"/>
</clipPath>
</defs>
</svg>
