<svg width="24" height="24" viewBox="0 0 24 24"  xmlns="http://www.w3.org/2000/svg">
<g clip-path="url(#clip0_865_6896)">
<path d="M10.9777 0C8.4109 0.212119 6.07277 1.23207 4.21729 2.80546L6.3521 4.94394C7.64908 3.90466 9.23886 3.21675 10.9777 3.02421V0ZM0 10.9967C0.211756 8.42544 1.22997 6.0833 2.80068 4.22461L4.93549 6.36308C3.89798 7.6623 3.21124 9.25482 3.01902 10.9967H0ZM0 13.0034C0.232362 15.8248 1.43576 18.3704 3.27466 20.3041L5.40045 18.1746C4.10396 16.7891 3.23866 14.9937 3.01902 13.0034H0ZM10.9776 24.0001C8.66163 23.8087 6.53178 22.9596 4.77466 21.6397L6.92875 19.4819C8.10891 20.2829 9.48863 20.811 10.9776 20.9759V24.0001ZM12.9812 20.9758C17.4889 20.4766 20.995 16.6485 20.995 12C20.995 7.35154 17.4889 3.52336 12.9812 3.02421V0C19.1513 0.509896 24.0001 5.68773 24.0001 12C24.0001 18.3123 19.1513 23.4901 12.9812 24V20.9758ZM9.35475 6.10358C9.58868 5.97867 9.87154 5.99564 10.0893 6.14763L17.6813 11.4458C17.8744 11.5805 17.9898 11.8032 17.9898 12.0411C17.9898 12.279 17.8744 12.5017 17.6813 12.6365L10.0893 17.9346C9.87154 18.0866 9.58868 18.1036 9.35475 17.9786C9.12083 17.8537 8.97437 17.6075 8.97437 17.3392V6.74298C8.97437 6.47468 9.12083 6.22848 9.35475 6.10358Z" fill="currentColor"/>
</g>
<defs>
<clipPath id="clip0_865_6896">
<rect width="24" height="24" fill="currentColor"/>
</clipPath>
</defs>
</svg>
