<svg width="24" height="24" viewBox="0 0 24 24"  xmlns="http://www.w3.org/2000/svg">
<g clip-path="url(#clip0_865_6870)">
<path fill-rule="evenodd" clip-rule="evenodd" d="M10.5 7.2L16.65 10.8C17.7 11.4 17.7 12.6 16.65 13.05L10.5 16.65C9.6 17.25 8.55 16.65 8.55 15.45V8.4C8.55 7.2 9.45 6.6 10.5 7.2ZM15.75 12L10.05 8.7V15.3L15.75 12ZM0 12C0.0105452 8.82065 1.27821 5.77452 3.52637 3.52637C5.77452 1.27821 8.82065 0.0105452 12 0C15.1794 0.0105452 18.2255 1.27821 20.4736 3.52637C22.7218 5.77452 23.9895 8.82065 24 12C23.9895 15.1794 22.7218 18.2255 20.4736 20.4736C18.2255 22.7218 15.1794 23.9895 12 24C8.82065 23.9895 5.77452 22.7218 3.52637 20.4736C1.27821 18.2255 0.0105452 15.1794 0 12ZM1.5 12C1.5 17.85 6.15 22.5 12 22.5C17.85 22.5 22.5 17.85 22.5 12C22.5 6.15 17.85 1.5 12 1.5C6.15 1.5 1.5 6.15 1.5 12Z" fill="currentColor"/>
</g>
<defs>
<clipPath id="clip0_865_6870">
<rect width="24" height="24" fill="currentColor"/>
</clipPath>
</defs>
</svg>
