<svg width="24" height="24" viewBox="0 0 24 24"  xmlns="http://www.w3.org/2000/svg">
<g clip-path="url(#clip0_865_6902)">
<path d="M5.01805 0C4.05408 0 3.27264 0.781451 3.27264 1.74541H20.7269C20.7269 0.781451 19.9454 0 18.9814 0H5.01805ZM1.0908 5.01781C1.0908 4.05384 1.87225 3.27239 2.83621 3.27239H21.1631C22.1271 3.27239 22.9085 4.05384 22.9085 5.01781H1.0908Z" fill="currentColor"/>
<path fill-rule="evenodd" clip-rule="evenodd" d="M16.6484 14.1803L11.1637 10.3492C10.2343 9.69086 8.99982 10.3613 8.99982 11.4543V19.0904C8.99982 20.1835 10.2343 20.854 11.1636 20.1957L16.6484 16.3644L16.6688 16.3481C17.3523 15.8025 17.3523 14.7424 16.6688 14.1967L16.6484 14.1803ZM15.3543 15.2724L10.6362 18.5681V11.9766L15.3543 15.2724ZM0 8.72754C0 7.52259 0.976813 6.54577 2.18178 6.54577H21.8178C23.0227 6.54577 23.9995 7.52259 23.9995 8.72754V21.8182C23.9995 23.0232 23.0227 24 21.8178 24H2.18178C0.976813 24 0 23.0232 0 21.8182V8.72754ZM2.18178 8.1821H21.8178C22.119 8.1821 22.3631 8.42631 22.3631 8.72754V21.8182C22.3631 22.1194 22.119 22.3636 21.8178 22.3636H2.18178C1.88053 22.3636 1.63633 22.1194 1.63633 21.8182V8.72754C1.63633 8.42631 1.88053 8.1821 2.18178 8.1821Z" fill="currentColor"/>
</g>
<defs>
<clipPath id="clip0_865_6902">
<rect width="24" height="24" fill="currentColor"/>
</clipPath>
</defs>
</svg>
