<svg width="24" height="24" viewBox="0 0 24 24"  xmlns="http://www.w3.org/2000/svg">
<g clip-path="url(#clip0_865_4883)">
<path fill-rule="evenodd" clip-rule="evenodd" d="M23.7327 0.26794C23.9991 0.534141 23.9992 0.965844 23.733 1.23218L21.1497 3.81677C21.9758 4.85968 22.4317 6.15638 22.4317 7.50009C22.4317 9.07045 21.809 10.5766 20.7004 11.6885L19.2436 13.22C19.117 13.3532 18.9419 13.4296 18.7581 13.4319C18.5744 13.4342 18.3974 13.3622 18.2675 13.2322L10.805 5.76971C10.5387 5.50344 10.5387 5.07174 10.805 4.80547L12.305 3.30547C13.4175 2.19299 14.9263 1.568 16.4996 1.568C17.8445 1.568 19.1423 2.02471 20.1857 2.85224L22.7685 0.268178C23.0347 0.00184616 23.4664 0.0017395 23.7327 0.26794ZM19.7173 4.25707C18.8618 3.40823 17.7053 2.93164 16.4996 2.93164C15.288 2.93164 14.126 3.41296 13.2692 4.26971L12.2513 5.28759L18.7374 11.7737L19.7181 10.7427L19.73 10.7305C20.5867 9.87372 21.0681 8.71172 21.0681 7.50009C21.0681 6.29555 20.5924 5.14005 19.745 4.28477C19.7404 4.28039 19.7358 4.27594 19.7312 4.27142C19.7265 4.26669 19.7219 4.2619 19.7173 4.25707ZM10.231 11.7321C10.4971 11.4658 10.497 11.0341 10.2306 10.7679C9.96428 10.5017 9.53258 10.5019 9.2664 10.7682L7.50015 12.5356L5.73256 10.7681C5.60261 10.6381 5.42569 10.5661 5.24192 10.5684C5.05815 10.5707 4.88309 10.6471 4.75643 10.7803L3.29962 12.3118C2.19102 13.4237 1.56836 14.9298 1.56836 16.5002C1.56836 17.8441 2.0244 19.141 2.85078 20.184L0.26794 22.7681C0.00173953 23.0344 0.00184613 23.4662 0.268178 23.7324C0.534511 23.9986 0.966214 23.9984 1.23241 23.7321L3.81483 21.1484C4.85813 21.9757 6.15575 22.4323 7.50044 22.4323C9.07373 22.4323 10.5826 21.8073 11.6951 20.6948L13.1951 19.1948C13.4613 18.9285 13.4613 18.4968 13.1951 18.2306L11.4645 16.5L13.2323 14.7323C13.4986 14.466 13.4986 14.0343 13.2323 13.7681C12.966 13.5018 12.5343 13.5018 12.2681 13.7681L10.5003 15.5358L8.46439 13.4999L10.231 11.7321ZM7.00673 13.9707L7.01822 13.9825L7.02964 13.9936L10.0067 16.9707L10.0181 16.9823L10.0296 16.9936L11.7487 18.7127L10.7308 19.7306C9.87408 20.5873 8.71207 21.0686 7.50044 21.0686C6.29952 21.0686 5.14735 20.5958 4.29285 19.7532C4.28536 19.7449 4.27764 19.7368 4.26968 19.7289C4.26188 19.7211 4.25394 19.7135 4.24586 19.7062C3.40426 18.8518 2.932 17.7004 2.932 16.5002C2.932 15.2885 3.41331 14.1265 4.27006 13.2698L4.28196 13.2576L5.26265 12.2266L7.00673 13.9707Z" fill="currentColor"/>
</g>
<defs>
<clipPath id="clip0_865_4883">
<rect width="24" height="24" fill="currentColor"/>
</clipPath>
</defs>
</svg>
