<svg width="24" height="24" viewBox="0 0 24 24"  xmlns="http://www.w3.org/2000/svg">
<g clip-path="url(#clip0_865_4889)">
<path d="M20.7929 11.4451L18.9734 13.3501L10.6934 5.06864L12.5549 3.20114C13.4628 2.29837 14.6435 1.72074 15.9135 1.55799C17.1834 1.39525 18.4716 1.65649 19.5779 2.30114L21.4394 0.439636C21.5756 0.287706 21.7413 0.165162 21.9265 0.079501C22.1117 -0.0061597 22.3124 -0.0531357 22.5164 -0.0585532C22.7204 -0.0639707 22.9233 -0.0277157 23.1128 0.0479937C23.3023 0.123703 23.4743 0.237275 23.6184 0.381761C23.7625 0.526247 23.8756 0.69861 23.9507 0.888304C24.0259 1.078 24.0616 1.28103 24.0556 1.48499C24.0496 1.68895 24.0021 1.88954 23.9159 2.07449C23.8297 2.25944 23.7067 2.42486 23.5544 2.56064L21.6929 4.42214C22.3375 5.52838 22.5987 6.81656 22.436 8.08654C22.2733 9.35652 21.6956 10.5372 20.7929 11.4451ZM12.7049 12.7051L14.2949 14.2951L11.4824 17.1076L13.3064 18.9376L11.4449 20.7991C10.5369 21.7018 9.35626 22.2795 8.08628 22.4422C6.8163 22.605 5.52812 22.3437 4.42188 21.6991L2.56038 23.5606C2.42201 23.7038 2.25649 23.8181 2.07348 23.8967C1.89048 23.9753 1.69365 24.0167 1.49448 24.0185C1.29531 24.0202 1.09779 23.9822 0.913447 23.9068C0.729102 23.8314 0.561624 23.72 0.420785 23.5792C0.279946 23.4383 0.168566 23.2709 0.0931451 23.0865C0.0177238 22.9022 -0.0202288 22.7046 -0.0184981 22.5055C-0.0167673 22.3063 0.024612 22.1095 0.103226 21.9265C0.181839 21.7435 0.296112 21.5779 0.439378 21.4396L2.30688 19.5781C1.66223 18.4718 1.40099 17.1837 1.56374 15.9137C1.72648 14.6437 2.30411 13.463 3.20688 12.5551L5.02638 10.6501L6.89988 12.5176L9.70488 9.70508L11.2949 11.2951L8.48988 14.1076L9.89988 15.5176L12.7049 12.7051Z" fill="currentColor"/>
</g>
<defs>
<clipPath id="clip0_865_4889">
<rect width="24" height="24" fill="currentColor"/>
</clipPath>
</defs>
</svg>
