<svg width="24" height="24" viewBox="0 0 24 24"  xmlns="http://www.w3.org/2000/svg">
<g clip-path="url(#clip0_865_5428)">
<path d="M8 11.5C8 11.7761 7.77614 12 7.5 12H4.5C4.22386 12 4 11.7761 4 11.5V8H0.5C0.223858 8 0 7.77614 0 7.5V4.5C0 4.22386 0.223858 4 0.5 4H4V0.5C4 0.223858 4.22386 0 4.5 0H7.5C7.77614 0 8 0.223858 8 0.5V11.5ZM10 4.5C10 4.22386 10.2239 4 10.5 4H23.5C23.7761 4 24 4.22386 24 4.5V7.5C24 7.77614 23.7761 8 23.5 8H10.5C10.2239 8 10 7.77614 10 7.5V4.5ZM20 12.5C20 12.2239 19.7761 12 19.5 12H16.5C16.2239 12 16 12.2239 16 12.5V23.5C16 23.7761 16.2239 24 16.5 24H19.5C19.7761 24 20 23.7761 20 23.5V20H23.5C23.7761 20 24 19.7761 24 19.5V16.5C24 16.2239 23.7761 16 23.5 16H20V12.5ZM0 16.5C0 16.2239 0.223858 16 0.5 16H13.5C13.7761 16 14 16.2239 14 16.5V19.5C14 19.7761 13.7761 20 13.5 20H0.5C0.223857 20 0 19.7761 0 19.5V16.5Z" fill="currentColor"/>
</g>
<defs>
<clipPath id="clip0_865_5428">
<rect width="24" height="24" fill="currentColor"/>
</clipPath>
</defs>
</svg>
