<svg width="24" height="24" viewBox="0 0 24 24"  xmlns="http://www.w3.org/2000/svg">
<g clip-path="url(#clip0_865_6435)">
<path d="M4.5 6C6.15685 6 7.5 4.65685 7.5 3C7.5 1.34315 6.15685 0 4.5 0C2.84315 0 1.5 1.34315 1.5 3C1.5 4.65685 2.84315 6 4.5 6ZM13.5 10.5C13.8978 10.5 14.2794 10.342 14.5607 10.0607C14.842 9.77936 15 9.39783 15 9C15 8.60217 14.842 8.22064 14.5607 7.93934C14.2794 7.65804 13.8978 7.5 13.5 7.5H3C2.20435 7.5 1.44129 7.81607 0.87868 8.37868C0.316071 8.94129 0 9.70435 0 10.5V22.5C0 22.8978 0.158035 23.2794 0.43934 23.5607C0.720644 23.842 1.10218 24 1.5 24C1.89782 24 2.27936 23.842 2.56066 23.5607C2.84196 23.2794 3 22.8978 3 22.5V16.5H4.5V22.5C4.5 22.8978 4.65804 23.2794 4.93934 23.5607C5.22064 23.842 5.60218 24 6 24C6.39782 24 6.77936 23.842 7.06066 23.5607C7.34196 23.2794 7.5 22.8978 7.5 22.5V10.5H13.5ZM22.5 1.5H10.5V4.5H21V15H10.5V18H15.573L18.1575 23.1705C18.3353 23.5266 18.6473 23.7974 19.0248 23.9234C19.4023 24.0494 19.8144 24.0203 20.1705 23.8425C20.5266 23.6647 20.7974 23.3527 20.9234 22.9752C21.0494 22.5977 21.0203 22.1856 20.8425 21.8295L18.927 18H22.5C22.8978 18 23.2794 17.842 23.5607 17.5607C23.842 17.2794 24 16.8978 24 16.5V3C24 2.60218 23.842 2.22064 23.5607 1.93934C23.2794 1.65804 22.8978 1.5 22.5 1.5Z" fill="currentColor"/>
</g>
<defs>
<clipPath id="clip0_865_6435">
<rect width="24" height="24" fill="currentColor"/>
</clipPath>
</defs>
</svg>
