<svg width="24" height="24" viewBox="0 0 24 24"  xmlns="http://www.w3.org/2000/svg">
<g clip-path="url(#clip0_865_6429)">
<path fill-rule="evenodd" clip-rule="evenodd" d="M4.5 0C2.85 0 1.5 1.34672 1.5 2.9927C1.5 4.63869 2.85 5.98541 4.5 5.98541C6.15 5.98541 7.5 4.63869 7.5 2.9927C7.5 1.34672 6.15 0 4.5 0ZM3 2.9927C3 2.09489 3.6 1.49635 4.5 1.49635C5.4 1.49635 6 2.09489 6 2.9927C6 3.89052 5.4 4.48906 4.5 4.48906C3.6 4.48906 3 3.89052 3 2.9927Z" fill="currentColor"/>
<path d="M14.25 8.97811H7.5V23.1935C7.5 23.6424 7.2 23.9416 6.75 23.9416C6.3 23.9416 6 23.6424 6 23.1935V8.97811H2.25C2.175 8.97811 2.0625 9.01552 1.95 9.05293C1.8375 9.09034 1.725 9.12775 1.65 9.12775C1.65 9.20257 1.6125 9.31479 1.575 9.42702C1.5375 9.53924 1.5 9.65147 1.5 9.72629V23.1935C1.5 23.6424 1.2 23.9416 0.75 23.9416C0.3 23.9416 0 23.6424 0 23.1935V9.72629C0 9.12775 0.3 8.52921 0.6 8.0803C1.05 7.78103 1.65 7.48176 2.25 7.48176H14.25C14.7 7.48176 15 7.78103 15 8.22994C15 8.67884 14.7 8.97811 14.25 8.97811ZM11.25 2.9927C10.8 2.9927 10.5 3.29197 10.5 3.74088C10.5 4.18979 10.8 4.48906 11.25 4.48906H22.5V16.4599H11.25C10.8 16.4599 10.5 16.7591 10.5 17.208C10.5 17.657 10.8 17.9562 11.25 17.9562H15.3001L18.15 23.642C18.45 23.9413 18.9 24.0909 19.2 23.9413C19.5 23.642 19.65 23.1931 19.5 22.8939L17.0251 17.9562H23.25C23.7 17.9562 24 17.657 24 17.208V3.74088C24 3.29197 23.7 2.9927 23.25 2.9927H15V0.748176C15 0.29927 14.7 0 14.25 0C13.8 0 13.5 0.29927 13.5 0.748176V2.9927H11.25Z" fill="currentColor"/>
</g>
<defs>
<clipPath id="clip0_865_6429">
<rect width="24" height="24" fill="currentColor"/>
</clipPath>
</defs>
</svg>
