<svg width="24" height="24" viewBox="0 0 24 24"  xmlns="http://www.w3.org/2000/svg">
<g clip-path="url(#clip0_865_2805)">
<path d="M6 0H18V4.5H6V0Z" fill="currentColor"/>
<path fill-rule="evenodd" clip-rule="evenodd" d="M6 7.5H18C21.3 7.5 24 10.2 24 13.5V18C24 18.9 23.4 19.5 22.5 19.5H19.5V22.5C19.5 23.4 18.9 24 18 24H6C5.1 24 4.5 23.4 4.5 22.5V19.5H1.5C0.6 19.5 0 18.9 0 18V13.5C0 10.2 2.7 7.5 6 7.5ZM7.5 21H16.5V15H7.5V21Z" fill="currentColor"/>
</g>
<defs>
<clipPath id="clip0_865_2805">
<rect width="24" height="24" fill="currentColor"/>
</clipPath>
</defs>
</svg>
