<svg width="24" height="24" viewBox="0 0 24 24"  xmlns="http://www.w3.org/2000/svg">
<g clip-path="url(#clip0_865_2798)">
<path d="M6 5.25C6 5.7 5.7 6 5.25 6C4.8 6 4.5 5.7 4.5 5.25V0.75C4.5 0.3 4.8 0 5.25 0H18.75C19.2 0 19.5 0.3 19.5 0.75V5.25C19.5 5.7 19.2 6 18.75 6C18.3 6 18 5.7 18 5.25V1.5H6V5.25Z" fill="currentColor"/>
<path fill-rule="evenodd" clip-rule="evenodd" d="M18.75 7.5C20.25 7.5 21.45 7.95 22.5 9C23.4 10.05 24 11.4 24 12.75V18.75C24 19.2 23.7 19.5 23.25 19.5H19.5V23.25C19.5 23.7 19.2 24 18.75 24H5.25C4.8 24 4.5 23.7 4.5 23.25V19.5H0.75C0.3 19.5 0 19.2 0 18.75V12.75C0 11.4 0.45 9.9 1.5 9C2.55 8.1 3.9 7.5 5.25 7.5H18.75ZM18 22.5V15H6V22.5H18ZM19.5 18H22.5V12.75C22.5 11.7 22.05 10.8 21.45 10.05C20.7 9.45 19.8 9 18.75 9H5.25C4.2 9 3.3 9.45 2.55 10.05C1.95 10.8 1.5 11.7 1.5 12.75V18H4.5V14.25C4.5 13.8 4.8 13.5 5.25 13.5H18.75C19.2 13.5 19.5 13.8 19.5 14.25V18Z" fill="currentColor"/>
</g>
<defs>
<clipPath id="clip0_865_2798">
<rect width="24" height="24" fill="currentColor"/>
</clipPath>
</defs>
</svg>
