<svg width="24" height="24" viewBox="0 0 24 24"  xmlns="http://www.w3.org/2000/svg">
<g clip-path="url(#clip0_865_4894)">
<path fill-rule="evenodd" clip-rule="evenodd" d="M9.75 0.75C7.26429 0.75 5.25 2.76429 5.25 5.25H1.5C1.08579 5.25 0.75 5.58579 0.75 6V10.575C0.75 10.9316 1.0011 11.2389 1.35056 11.31C2.71992 11.5884 3.75 12.799 3.75 14.25C3.75 15.701 2.71992 16.9116 1.35056 17.19C1.0011 17.2611 0.75 17.5684 0.75 17.925V22.5C0.75 22.9142 1.08579 23.25 1.5 23.25H6.075C6.43161 23.25 6.7389 22.9989 6.80995 22.6494C7.08839 21.2801 8.29902 20.25 9.75 20.25C11.201 20.25 12.4116 21.2801 12.69 22.6494C12.7611 22.9989 13.0684 23.25 13.425 23.25H18C18.4142 23.25 18.75 22.9142 18.75 22.5V18.75C21.2356 18.75 23.25 16.7357 23.25 14.25C23.25 11.7643 21.2356 9.75 18.75 9.75V6C18.75 5.58579 18.4142 5.25 18 5.25H14.25C14.25 2.76429 12.2357 0.75 9.75 0.75ZM6.75 5.25C6.75 3.59271 8.09271 2.25 9.75 2.25C11.4073 2.25 12.75 3.59271 12.75 5.25C12.75 5.45368 12.7286 5.65542 12.6892 5.85466C12.6457 6.07479 12.7031 6.30282 12.8456 6.47618C12.988 6.64953 13.2006 6.75 13.425 6.75H17.25V10.575C17.25 10.7994 17.3505 11.012 17.5238 11.1544C17.6971 11.2969 17.9251 11.3543 18.1453 11.3108C18.3445 11.2714 18.5463 11.25 18.75 11.25C20.4074 11.25 21.75 12.5927 21.75 14.25C21.75 15.9073 20.4074 17.25 18.75 17.25C18.5434 17.25 18.3431 17.2295 18.1497 17.1902C17.9291 17.1452 17.6999 17.2017 17.5255 17.3442C17.3511 17.4866 17.25 17.6999 17.25 17.925V21.75H13.9936C13.3756 20.0026 11.7108 18.75 9.75 18.75C7.78916 18.75 6.12439 20.0026 5.50641 21.75H2.25V18.4936C3.99733 17.8757 5.25 16.2108 5.25 14.25C5.25 12.2892 3.99733 10.6244 2.25 10.0064V6.75H6.075C6.29939 6.75 6.51198 6.64953 6.65443 6.47618C6.7969 6.30282 6.85427 6.07479 6.81078 5.85466C6.77142 5.65542 6.75 5.45368 6.75 5.25Z" fill="currentColor"/>
</g>
<defs>
<clipPath id="clip0_865_4894">
<rect width="24" height="24" fill="currentColor"/>
</clipPath>
</defs>
</svg>
