<svg width="24" height="24" viewBox="0 0 24 24"  xmlns="http://www.w3.org/2000/svg">
<g clip-path="url(#clip0_865_4900)">
<path d="M20.5714 10.2857V3.42857H13.7143C13.7143 1.54286 12.1714 0 10.2857 0C8.4 0 6.85714 1.54286 6.85714 3.42857H0V10.2857C1.88571 10.2857 3.42857 11.8286 3.42857 13.7143C3.42857 15.6 1.88571 17.1429 0 17.1429V24H6.85714C6.85714 22.1143 8.4 20.5714 10.2857 20.5714C12.1714 20.5714 13.7143 22.1143 13.7143 24H20.5714V17.1429C22.4571 17.1429 24 15.6 24 13.7143C24 11.8286 22.4571 10.2857 20.5714 10.2857Z" fill="currentColor"/>
</g>
<defs>
<clipPath id="clip0_865_4900">
<rect width="24" height="24" fill="currentColor"/>
</clipPath>
</defs>
</svg>
