<svg width="24" height="24" viewBox="0 0 24 24"  xmlns="http://www.w3.org/2000/svg">
<path fill-rule="evenodd" clip-rule="evenodd" d="M6.10337 4.32246C6.42142 4.06917 6.47596 3.60341 6.22521 3.28215C5.97445 2.96089 5.51334 2.90579 5.1953 3.15908C2.6418 5.19268 1 8.34716 1 11.8889C1 18.0253 5.92486 23 12 23C18.0751 23 23 18.0253 23 11.8889C23 8.34716 21.3582 5.19268 18.8047 3.15908C18.4866 2.90579 18.0255 2.96089 17.7749 3.28215C17.5241 3.60341 17.5786 4.06917 17.8966 4.32246C20.1127 6.08736 21.5333 8.82029 21.5333 11.8889C21.5333 17.2073 17.2652 21.5185 12 21.5185C6.73487 21.5185 2.46667 17.2073 2.46667 11.8889C2.46667 8.82029 3.88726 6.08736 6.10337 4.32246Z" fill="currentColor"/>
<path d="M12 1C12.4142 1 12.75 1.33579 12.75 1.75V12.25C12.75 12.6642 12.4142 13 12 13C11.5858 13 11.25 12.6642 11.25 12.25V1.75C11.25 1.33579 11.5858 1 12 1Z" fill="currentColor"/>
</svg>
