<svg width="24" height="24" viewBox="0 0 24 24"  xmlns="http://www.w3.org/2000/svg">
<path d="M5.76255 21.1813C7.59756 22.3657 9.77291 22.9999 12.0008 23C14.2285 22.9996 16.4037 22.3652 18.2384 21.1807C20.0732 19.9961 21.4811 18.3173 22.276 16.3663C23.0708 14.4152 23.2151 12.2839 22.6897 10.2543C22.1644 8.22474 20.9941 6.3925 19.3338 5L17.2389 7.1953C18.4252 8.18988 19.2614 9.49872 19.6369 10.9486C20.0124 12.3985 19.9094 13.9211 19.3416 15.3149C18.7738 16.7088 17.7679 17.9081 16.4571 18.7542C15.1463 19.6004 13.5923 20.0534 12.0008 20.0534C10.4093 20.0534 8.85532 19.6004 7.54449 18.7542C6.23367 17.9081 5.2278 16.7088 4.65999 15.3149C4.09217 13.9211 3.98919 12.3985 4.36466 10.9486C4.74013 9.49872 5.57636 8.18988 6.76268 7.1953L4.66618 5C3.00578 6.39258 1.8355 8.22495 1.31019 10.2547C0.784879 12.2844 0.929294 14.4158 1.72433 16.3669C2.51936 18.3181 3.92754 19.9969 5.76255 21.1813ZM10.5 1H13.5V11.5H10.5V1Z" fill="currentColor"/>
</svg>
