<svg width="24" height="24" viewBox="0 0 24 24"  xmlns="http://www.w3.org/2000/svg">
<g clip-path="url(#clip0_865_4911)">
<path d="M14.9998 2.00049H22.9998C23.552 2.00049 23.9998 2.44776 23.9998 3.00049V13.0005C23.9998 18.0444 22.1096 21.3833 18.3821 22.9248C17.8718 23.1348 17.2874 22.8931 17.0754 22.3828C16.8645 21.8721 17.1072 21.2876 17.6174 21.0762C20.3259 19.9565 21.7561 17.6372 21.9709 14.0005H14.9998C14.4475 14.0005 13.9998 13.5527 13.9998 13.0005V3.00049C13.9998 2.44776 14.4475 2.00049 14.9998 2.00049ZM0.999756 2.00049H8.99976C9.55201 2.00049 9.99976 2.44776 9.99976 3.00049V13.0005C9.99976 18.0444 8.10962 21.3833 4.38208 22.9248C3.87329 23.1348 3.28735 22.8931 3.07544 22.3828C2.8645 21.8721 3.10718 21.2876 3.61743 21.0762C6.32593 19.9565 7.75611 17.6372 7.97095 14.0005H0.999757C0.447507 14.0005 -0.000243218 13.5527 -0.000243266 13.0005L-0.000244141 3.00049C-0.000244189 2.44776 0.447506 2.00049 0.999756 2.00049Z" fill="currentColor"/>
</g>
<defs>
<clipPath id="clip0_865_4911">
<rect width="24" height="24" fill="currentColor"/>
</clipPath>
</defs>
</svg>
