<svg width="24" height="24" viewBox="0 0 24 24"  xmlns="http://www.w3.org/2000/svg">
<path fill-rule="evenodd" clip-rule="evenodd" d="M15.7495 3.75049V12.2505H22.2495V3.75049H15.7495ZM22.2335 13.7505C22.1498 15.6626 21.7417 17.1959 21.0653 18.3933C20.3089 19.732 19.1926 20.6956 17.7129 21.3074C17.3302 21.4657 17.1482 21.9043 17.3064 22.2871C17.4647 22.6698 17.9033 22.8518 18.2861 22.6936C20.0565 21.9616 21.4401 20.7793 22.3713 19.1311C23.296 17.4942 23.7495 15.4432 23.7495 13.0005V3.00049C23.7495 2.80158 23.6705 2.61081 23.5298 2.47016C23.3892 2.32951 23.1984 2.25049 22.9995 2.25049H14.9995C14.8006 2.25049 14.6098 2.32951 14.4692 2.47016C14.3285 2.61081 14.2495 2.80158 14.2495 3.00049V13.0005C14.2495 13.1994 14.3285 13.3902 14.4692 13.5308C14.6098 13.6715 14.8006 13.7505 14.9995 13.7505H22.2335ZM0.249512 3.00049C0.249512 2.80158 0.328529 2.61081 0.469182 2.47016C0.609834 2.32951 0.800599 2.25049 0.999512 2.25049H8.99951C9.41372 2.25049 9.74951 2.58628 9.74951 3.00049V13.0005C9.74951 15.4432 9.29602 17.4942 8.37126 19.1311C7.44009 20.7793 6.05647 21.9616 4.28608 22.6936C3.9033 22.8519 3.46469 22.6698 3.30642 22.2871C3.14815 21.9043 3.33016 21.4657 3.71295 21.3074C5.19256 20.6956 6.30894 19.732 7.06527 18.3933C7.74175 17.1959 8.14981 15.6626 8.23346 13.7505H0.999512C0.8006 13.7505 0.609835 13.6715 0.469183 13.5308C0.32853 13.3902 0.249513 13.1994 0.249513 13.0005L0.249512 3.00049ZM8.24951 12.2505V3.75049H1.74951V12.2505H8.24951Z" fill="currentColor"/>
</svg>
