<svg width="24" height="24" viewBox="0 0 24 24"  xmlns="http://www.w3.org/2000/svg">
<g clip-path="url(#clip0_865_2107)">
<path fill-rule="evenodd" clip-rule="evenodd" d="M21.8 12C21.8 17.4124 17.4124 21.8 12 21.8C6.58761 21.8 2.2 17.4124 2.2 12C2.2 6.58761 6.58761 2.2 12 2.2C17.4124 2.2 21.8 6.58761 21.8 12ZM24 12C24 18.6274 18.6274 24 12 24C5.37258 24 0 18.6274 0 12C0 5.37258 5.37258 0 12 0C18.6274 0 24 5.37258 24 12ZM12 18C15.3137 18 18 15.3137 18 12C18 8.68629 15.3137 6 12 6C8.68629 6 6 8.68629 6 12C6 15.3137 8.68629 18 12 18Z" fill="currentColor"/>
</g>
<defs>
<clipPath id="clip0_865_2107">
<rect width="24" height="24" fill="currentColor"/>
</clipPath>
</defs>
</svg>
