<svg width="24" height="24" viewBox="0 0 24 24"  xmlns="http://www.w3.org/2000/svg">
<g clip-path="url(#clip0_865_2112)">
<path fill-rule="evenodd" clip-rule="evenodd" d="M12 24C18.6274 24 24 18.6274 24 12C24 5.37258 18.6274 0 12 0C5.37258 0 0 5.37258 0 12C0 18.6274 5.37258 24 12 24ZM18 12C18 15.3137 15.3137 18 12 18C8.68629 18 6 15.3137 6 12C6 8.68629 8.68629 6 12 6C15.3137 6 18 8.68629 18 12ZM21 12C21 16.9706 16.9706 21 12 21C7.02944 21 3 16.9706 3 12C3 7.02944 7.02944 3 12 3C16.9706 3 21 7.02944 21 12Z" fill="currentColor"/>
</g>
<defs>
<clipPath id="clip0_865_2112">
<rect width="24" height="24" fill="currentColor"/>
</clipPath>
</defs>
</svg>
