<svg width="24" height="24" viewBox="0 0 24 24" fill="none" xmlns="http://www.w3.org/2000/svg">
<path d="M14.2 12C14.2 13.2151 13.215 14.2 12 14.2C10.785 14.2 9.79999 13.2151 9.79999 12C9.79999 10.785 10.785 9.80005 12 9.80005C13.215 9.80005 14.2 10.785 14.2 12Z" fill="#61DAFB"/>
<path fill-rule="evenodd" clip-rule="evenodd" d="M19.65 8.05C19.875 8.125 20.1 8.2 20.3 8.3C22.7 9.2 24 10.5 24 12C24 13.5 22.7 14.8 20.3 15.7C19.9 15.9 19.5 16.1 19 16.2C19.05 16.45 19.1 16.675 19.15 16.9C19.2 17.125 19.25 17.35 19.3 17.6C19.7 20.1 19.2 22 18 22.7C17.7 22.9 17.3 23 16.8 23C15.4 23 13.7 22 12 20.3C10.3 22 8.6 23 7.2 23C6.8 23 6.4 22.9 6 22.7C4.7 22 4.3 20.2 4.7 17.6C4.75 17.35 4.8 17.125 4.85 16.9C4.9 16.675 4.95 16.45 5 16.2C4.8 16.1 4.575 16.025 4.35 15.95C4.125 15.875 3.9 15.8 3.7 15.7C1.3 14.8 0 13.5 0 12C0 10.5 1.3 9.2 3.7 8.3C3.9 8.2 4.125 8.125 4.35 8.05C4.575 7.975 4.8 7.9 5 7.8C4.95 7.6 4.9 7.375 4.85 7.15C4.8 6.925 4.75 6.7 4.7 6.5C4.3 3.9 4.8 2 6 1.3C6.4 1.1 6.8 1 7.2 1C8.6 1 10.3 2 12 3.7C13.8 2 15.5 1 16.8 1C17.2 1 17.6 1.1 18 1.3C19.3 2 19.7 3.8 19.3 6.4C19.25 6.65 19.2 6.875 19.15 7.1C19.1 7.325 19.05 7.55 19 7.8C19.2 7.9 19.425 7.975 19.65 8.05ZM17.5 2.3C17.3 2.2 17 2.1 16.8 2.1C15.6 2.1 14.2 3.1 12.7 4.5C13.1443 5.00773 13.5482 5.55574 13.9631 6.11846C14.2019 6.44239 14.4443 6.7712 14.7 7.1C15.8 7.2 16.9 7.4 17.9 7.6C18 7.1 18.1 6.7 18.2 6.3C18.6 4.2 18.3 2.8 17.5 2.3ZM8.05 15.1C7.925 14.9 7.8 14.7 7.7 14.5C7.5 14.1 7.3 13.7 7 13.3C6.77279 13.8302 6.60294 14.3603 6.44701 14.847C6.39706 15.0029 6.34853 15.1544 6.3 15.3C6.99999 15.5 7.69999 15.6 8.39998 15.7C8.29998 15.5 8.175 15.3 8.05 15.1ZM8.4 8.3C7.7 8.4 7 8.5 6.4 8.7C6.6 9.3 6.8 10 7 10.7C7.3 10.3 7.5 9.9 7.7 9.5C7.78038 9.36603 7.85359 9.24641 7.92154 9.13539C8.10718 8.83205 8.25359 8.59282 8.4 8.3ZM8.01405 11.393C7.90345 11.6035 7.79655 11.8069 7.7 12C7.79655 12.1931 7.8931 12.3965 7.99298 12.607C8.20345 13.0506 8.42873 13.5253 8.7 14C9 14.6 9.4 15.2 9.9 15.9C10.5 16 11.3 16 12 16C12.7 16 13.4 16 14.1 15.9C14.6 15.3 15 14.6 15.3 14C15.5035 13.5253 15.7529 13.0506 15.986 12.607C16.0965 12.3965 16.2035 12.1931 16.3 12C16 11.3 15.7 10.6 15.3 10C15.1 9.7 14.9 9.375 14.7 9.05C14.5 8.725 14.3 8.4 14.1 8.1C13.5 8 12.7 8 12 8C11.3 8 10.6 8 9.9 8.1C9.71733 8.41968 9.51379 8.7185 9.31798 9.006C9.08503 9.34802 8.86299 9.67401 8.7 10C8.49655 10.4747 8.2471 10.9494 8.01405 11.393ZM17 13.3C16.7 13.7 16.5 14.1 16.3 14.5C16.2196 14.634 16.1464 14.7536 16.0785 14.8646C15.8928 15.1679 15.7464 15.4072 15.6 15.7C16.4 15.6 17 15.5 17.7 15.3C17.6515 15.1544 17.6029 15.0029 17.553 14.847C17.3971 14.3603 17.2272 13.8301 17 13.3ZM15.6 8.3L16.3 9.5C16.5 9.9 16.7 10.3 17 10.7C17.2272 10.1699 17.3971 9.6397 17.553 9.15299C17.6029 8.99706 17.6515 8.84559 17.7 8.7C17 8.5 16.3 8.4 15.6 8.3ZM13.3 7C12.9 6.4 12.5 5.9 12 5.4C11.8606 5.57424 11.7091 5.74847 11.5539 5.92694C11.2637 6.26061 10.9606 6.60908 10.7 7H13.3ZM7.2 2.1C7 2.1 6.7 2.2 6.5 2.3C5.8 2.8 5.5 4.2 5.8 6.3C5.9 6.7 6 7.1 6.1 7.6C7.1 7.4 8.1 7.2 9.2 7.1C9.27876 6.98748 9.35626 6.87623 9.43277 6.76639C10.0363 5.9 10.5788 5.12124 11.2 4.5C9.8 3.1 8.4 2.1 7.2 2.1ZM1.1 12C1.1 13.1 2.7 14.3 5.3 15.1C5.6 14.1 6 13.1 6.5 12.1C6 11 5.6 10 5.3 9C4.9 9.1 4.5 9.2 4.1 9.4C2.2 10.1 1.1 11.1 1.1 12ZM6.5 21.7C6.7 21.8 7 21.9 7.2 21.9C8.4 21.9 9.8 20.9 11.3 19.5C10.8557 18.9923 10.4518 18.4443 10.0369 17.8815C9.79813 17.5576 9.55574 17.2288 9.3 16.9C8.2 16.8 7.1 16.6 6.1 16.4C6 16.9 5.9 17.3 5.8 17.7C5.4 19.8 5.7 21.2 6.5 21.7ZM10.7 17C11.1 17.6 11.5 18.1 12 18.6C12.1394 18.4258 12.2909 18.2515 12.4461 18.0731C12.7363 17.7394 13.0394 17.3909 13.3 17H10.7ZM16.8 21.9C17.1 21.9 17.3 21.8 17.5 21.7C18.2 21.2 18.5 19.8 18.3 17.7C18.2 17.3 18.1 16.9 18 16.4C17 16.6 15.9 16.8 14.8 16.9C14.7212 17.0125 14.6437 17.1238 14.5672 17.2336C13.9637 18.1 13.4212 18.8788 12.8 19.5C14.2 20.9 15.6 21.9 16.8 21.9ZM17.5 11.9C18 13 18.4 14 18.7 15C19.1 14.9 19.5 14.8 19.9 14.6C21.8 13.9 22.9 12.9 22.9 11.9C22.9 10.8 21.3 9.6 18.7 8.8C18.4 9.8 18 10.9 17.5 11.9Z" fill="#61DAFB"/>
</svg>
