<svg width="24" height="24" viewBox="0 0 24 24"  xmlns="http://www.w3.org/2000/svg">
<g clip-path="url(#clip0_5080_79)">
<path d="M19 13C20.9724 13 22.5713 14.5719 22.5713 16.5107V17.3799C23.3789 17.4935 24 18.1747 24 19V22.3613L23.9912 22.5293C23.9115 23.3002 23.2882 23.9128 22.5039 23.9912L22.333 24H15.667L15.4961 23.9912C14.6557 23.9072 14 23.2095 14 22.3613V19C14 18.1747 14.6211 17.4935 15.4287 17.3799V16.5107C15.4287 14.5719 17.0275 13 19 13ZM12 0C18.2906 0 23.4508 4.84046 23.959 11C24.0044 11.5504 23.5523 12 23 12C22.4477 12 22.0057 11.5506 21.9512 11.001C21.4499 5.94716 17.1857 2 12 2C6.47715 2 2 6.47715 2 12C2 17.1857 5.94716 21.4499 11.001 21.9512C11.5506 22.0057 12 22.4477 12 23C12 23.5523 11.5504 24.0044 11 23.959C4.84046 23.4508 0 18.2906 0 12C0 5.37258 5.37258 0 12 0ZM19 14.4043C17.8165 14.4043 16.8574 15.3474 16.8574 16.5107V17.3613H21.1426V16.5107C21.1426 15.3474 20.1835 14.4043 19 14.4043ZM12 7C14.4733 7 16.5262 8.80259 16.9277 11.1572C17.0119 11.6521 16.6192 12.0641 16.1465 12.2334C14.6437 12.7711 13.5713 14.1788 13.5713 15.8301V16.0234C13.5713 16.4547 13.2957 16.8474 12.8711 16.9229C12.5882 16.9731 12.2973 17 12 17C9.23858 17 7 14.7614 7 12C7 9.23858 9.23858 7 12 7Z" fill="currentColor"/>
</g>
<defs>
<clipPath id="clip0_5080_79">
<rect width="24" height="24" fill="currentColor"/>
</clipPath>
</defs>
</svg>
