<svg width="24" height="24" viewBox="0 0 24 24"  xmlns="http://www.w3.org/2000/svg">
<path d="M18.5 12C20.6697 12 22.4287 13.7149 22.4287 15.8301V16.3603C23.3169 16.4844 24 17.2277 24 18.1279V22.2129C23.9999 23.1998 23.1794 23.9998 22.167 24H14.833C13.8207 23.9998 13.0001 23.1998 13 22.2129V18.1279C13 17.2277 13.683 16.4844 14.5713 16.3603V15.8301C14.5713 13.7149 16.3303 12 18.5 12ZM12 0C17.8243 0 22.6793 4.14941 23.7705 9.65331C23.859 10.0998 23.505 10.5 23.0498 10.5C22.6733 10.4999 22.3569 10.222 22.2802 9.8535C21.2894 5.08415 17.0632 1.5 12 1.5C6.201 1.5 1.5 6.201 1.5 12C1.5 17.2266 5.31875 21.5614 10.3183 22.3662C10.7026 22.428 11 22.7504 11 23.1396C11 23.5808 10.6217 23.9294 10.1855 23.8633C4.41912 22.9886 0 18.0106 0 12C0 5.37257 5.37257 0 12 0ZM14.833 17.872C14.6885 17.8722 14.5713 17.9871 14.5713 18.1279V22.2129C14.5714 22.3537 14.6885 22.4676 14.833 22.4677H22.167C22.3114 22.4676 22.4286 22.3537 22.4287 22.2129V18.1279C22.4287 17.9871 22.3115 17.8722 22.167 17.872H14.833ZM12 5.99999C14.4393 5.99999 16.5385 7.45579 17.4765 9.54589C17.6865 10.0136 17.3115 10.5 16.7988 10.5C16.4663 10.5 16.1761 10.2867 16.0273 9.98925C15.289 8.51325 13.7627 7.49999 12 7.49999C9.51471 7.49999 7.49999 9.51471 7.49999 12C7.49999 13.9256 8.70948 15.5685 10.4101 16.2109C10.7474 16.3383 11 16.6444 11 17.0049C11 17.4821 10.5684 17.8479 10.1152 17.6982C7.72486 16.9079 5.99999 14.6553 5.99999 12C5.99999 8.68628 8.68628 5.99999 12 5.99999ZM18.5 13.5322C17.1982 13.5322 16.1426 14.561 16.1426 15.8301V16.3408H20.8574V15.8301C20.8574 14.5609 19.8017 13.5322 18.5 13.5322Z" fill="currentColor"/>
</svg>
