<svg width="24" height="24" viewBox="0 0 24 24"  xmlns="http://www.w3.org/2000/svg">
<path d="M11.1538 0C5.57212 0 1 4.57212 1 10.1538C1 12.1514 1.77524 13.8245 2.47115 15.3173C3.16707 16.8101 3.76923 18.119 3.76923 19.4712V24H5.61538V19.4712C5.61538 17.5925 4.83293 16.0204 4.14423 14.5385C3.45553 13.0565 2.84615 11.6647 2.84615 10.1538C2.84615 5.89543 6.09495 2.3726 10.2308 1.90385V8.45192C8.64423 8.86298 7.46154 10.2909 7.46154 12C7.46154 14.03 9.1238 15.6923 11.1538 15.6923C11.875 15.6923 12.5457 15.4796 13.1154 15.1154L14.8462 16.2981C14.9147 16.9976 15.5132 17.5385 16.2308 17.5385C16.9952 17.5385 17.6154 16.9183 17.6154 16.1538C17.6154 15.3894 16.9952 14.7692 16.2308 14.7692C16.1334 14.7692 16.0325 14.78 15.9423 14.7981L14.3846 13.7308C14.6659 13.2115 14.8462 12.631 14.8462 12C14.8462 10.2909 13.6635 8.86298 12.0769 8.45192V1.875C14.9976 2.11298 16.6743 3.46875 17.7019 4.81731C18.8377 6.30288 19.1154 7.75962 19.1154 7.75962L19.1442 7.875L19.2019 7.99038L21.6538 12.9231C21.7224 13.0817 21.7151 13.2043 21.7115 13.2404H21.6538C21.1599 13.4063 20.1538 13.7019 20.1538 13.7019L19.4615 13.875V16.6154C19.4615 17.232 19.1154 17.9423 18.5673 18.4904C18.0192 19.0385 17.3089 19.3846 16.6923 19.3846H14.8462V24H16.6923V21.2308C17.9219 21.2308 19.0577 20.6538 19.8942 19.8173C20.7308 18.9808 21.3077 17.845 21.3077 16.6154V15.2596C21.6214 15.1695 21.8305 15.1406 22.1731 15.0288C22.2019 15.0216 22.2308 15.0072 22.2596 15V14.9712C22.8546 14.7837 23.3522 14.2897 23.5 13.7596C23.6587 13.1971 23.5577 12.6779 23.3558 12.2019V12.1731L23.3269 12.1442L20.875 7.21154L20.8462 7.15385C20.774 6.82933 20.4062 5.34375 19.1442 3.69231C17.7416 1.85337 15.2103 0 11.1538 0ZM11.1538 10.1538C12.1851 10.1538 13 10.9688 13 12C13 13.0313 12.1851 13.8462 11.1538 13.8462C10.1226 13.8462 9.30769 13.0313 9.30769 12C9.30769 10.9688 10.1226 10.1538 11.1538 10.1538Z" fill="currentColor"/>
</svg>
