<svg width="24" height="24" viewBox="0 0 24 24"  xmlns="http://www.w3.org/2000/svg">
<g clip-path="url(#clip0_865_6457)">
<path d="M12 0V7.47115C13.5685 7.83894 14.7692 9.32452 14.7692 11.0769C14.7692 12.1839 14.3005 13.107 13.4712 13.8462L16.7885 16.6154H16.9904C17.7296 16.6154 18.375 17.2608 18.375 18C18.375 18.7392 17.8161 19.3846 17.0769 19.3846C16.3378 19.3846 15.6923 18.8257 15.6923 18.0865L11.7116 14.7692H11.0769C9.04689 14.7692 7.38463 13.107 7.38463 11.0769C7.38463 9.32452 8.58536 7.93269 10.1539 7.47115V0.0865385C4.98319 0.548077 0.923096 4.89303 0.923096 10.1538C0.923096 12.5553 1.76685 14.6899 3.05771 16.4423C3.98079 17.643 4.6154 19.1178 4.6154 20.5962V21.0577C4.6154 21.5192 4.90386 21.887 5.3654 21.9808L14.5962 24C15.1515 24.1839 15.6923 23.7224 15.6923 23.0769V21.6923L17.25 21.7788C19.3738 21.9627 21.2308 20.3005 21.2308 18.0865V15.2308L23.1635 14.2212C23.625 14.0373 23.8161 13.4712 23.5385 13.0096L21.1442 8.94231C20.589 4.23317 16.7993 0.461538 12 0ZM11.0769 9.23077C10.0565 9.23077 9.23079 10.0565 9.23079 11.0769C9.23079 12.0974 10.0565 12.9231 11.0769 12.9231C12.0974 12.9231 12.9231 12.0974 12.9231 11.0769C12.9231 10.0565 12.0974 9.23077 11.0769 9.23077Z" fill="currentColor"/>
</g>
<defs>
<clipPath id="clip0_865_6457">
<rect width="24" height="24" fill="currentColor"/>
</clipPath>
</defs>
</svg>
