<svg width="24" height="24" viewBox="0 0 24 24"  xmlns="http://www.w3.org/2000/svg">
<path d="M17 6.5C17 9.26142 14.7614 11.5 12 11.5C9.23858 11.5 7 9.26142 7 6.5C7 3.73858 9.23858 1.5 12 1.5C14.7614 1.5 17 3.73858 17 6.5ZM13 18.5C13 16.4416 14.1308 14.6473 15.805 13.7044C14.6218 13.2491 13.3394 13 12 13C6.93149 13 2.67972 16.5672 1.52569 21.3747C1.3844 21.9632 1.84507 22.5 2.43911 22.5H14.7251C13.6629 21.4972 13 20.076 13 18.5ZM18.5 20.5C19.6046 20.5 20.5 19.6046 20.5 18.5C20.5 17.3954 19.6046 16.5 18.5 16.5C17.3954 16.5 16.5 17.3954 16.5 18.5C16.5 19.6046 17.3954 20.5 18.5 20.5Z" fill="currentColor"/>
<path fill-rule="evenodd" clip-rule="evenodd" d="M23 18.5C23 20.9853 20.9853 23 18.5 23C16.0147 23 14 20.9853 14 18.5C14 16.0147 16.0147 14 18.5 14C20.9853 14 23 16.0147 23 18.5ZM21.5 18.5C21.5 20.1569 20.1569 21.5 18.5 21.5C16.8431 21.5 15.5 20.1569 15.5 18.5C15.5 16.8431 16.8431 15.5 18.5 15.5C20.1569 15.5 21.5 16.8431 21.5 18.5Z" fill="currentColor"/>
</svg>
