<svg width="24" height="24" viewBox="0 0 24 24"  xmlns="http://www.w3.org/2000/svg">
<path fill-rule="evenodd" clip-rule="evenodd" d="M17 6.5C17 9.26142 14.7614 11.5 12 11.5C9.23858 11.5 7 9.26142 7 6.5C7 3.73858 9.23858 1.5 12 1.5C14.7614 1.5 17 3.73858 17 6.5ZM15.5 6.5C15.5 8.433 13.933 10 12 10C10.067 10 8.5 8.433 8.5 6.5C8.5 4.567 10.067 3 12 3C13.933 3 15.5 4.567 15.5 6.5Z" fill="currentColor"/>
<path d="M11.4585 13C12.3289 13 13.1734 13.1111 13.9785 13.32C14.5271 13.4623 14.6719 14.1308 14.2732 14.5294C14.0659 14.7366 13.7601 14.8097 13.4738 14.7402C12.8278 14.5832 12.1529 14.5 11.4585 14.5C7.27433 14.5 3.79603 17.021 3.08729 21H11.8258C12.2401 21 12.5846 21.3358 12.5846 21.75C12.5846 22.1642 12.2401 22.5 11.8258 22.5H2.46656C1.90775 22.5 1.44914 22.0509 1.50455 21.5014C2.00833 16.5041 6.27259 13 11.4585 13ZM20.5 18.5C20.5 19.6046 19.6046 20.5 18.5 20.5C17.3954 20.5 16.5 19.6046 16.5 18.5C16.5 17.3954 17.3954 16.5 18.5 16.5C19.6046 16.5 20.5 17.3954 20.5 18.5Z" fill="currentColor"/>
<path fill-rule="evenodd" clip-rule="evenodd" d="M18.5 23C20.9853 23 23 20.9853 23 18.5C23 16.0147 20.9853 14 18.5 14C16.0147 14 14 16.0147 14 18.5C14 20.9853 16.0147 23 18.5 23ZM18.5 21.5C20.1569 21.5 21.5 20.1569 21.5 18.5C21.5 16.8431 20.1569 15.5 18.5 15.5C16.8431 15.5 15.5 16.8431 15.5 18.5C15.5 20.1569 16.8431 21.5 18.5 21.5Z" fill="currentColor"/>
</svg>
