<svg width="24" height="24" viewBox="0 0 24 24"  xmlns="http://www.w3.org/2000/svg">
<path d="M20.2207 7.8824C20.1476 7.47468 20.4189 7.08493 20.8266 7.01188C21.2344 6.93883 21.6241 7.21014 21.6971 7.61786L22.9884 14.8246C23.0159 14.9784 22.9945 15.1295 22.9353 15.2621C22.916 15.3055 22.8924 15.3473 22.8645 15.3871C22.7685 15.5241 22.6271 15.6292 22.4573 15.6778C22.4329 15.6848 22.408 15.6906 22.3825 15.6951L15.1757 16.9874C14.768 17.0605 14.3782 16.7893 14.3051 16.3815C14.232 15.9738 14.5032 15.584 14.911 15.5109L20.6071 14.4896C18.1788 12.5398 15.1438 11.4615 12 11.4615C8.35528 11.4615 4.85671 12.9108 2.28033 15.4872C1.98744 15.7801 1.51256 15.7801 1.21967 15.4872C0.926776 15.1943 0.926776 14.7194 1.21967 14.4265C4.07737 11.5688 7.95748 9.96149 12 9.96149C15.3129 9.96149 18.5168 11.041 21.1382 13.0035L20.2207 7.8824Z" fill="currentColor"/>
</svg>
