<svg width="24" height="24" viewBox="0 0 24 24"  xmlns="http://www.w3.org/2000/svg">
<g clip-path="url(#clip0_865_370)">
<path d="M17.4215 5.45345C15.9092 4.20497 13.9943 3.498 12 3.498C7.85222 3.498 4.34388 6.42617 3.66049 10.4591L0.322998 9.90588C1.28212 4.25678 6.19278 0.155332 12 0.155332C14.8926 0.155332 17.6718 1.21161 19.8235 3.08016L23.0883 -0.145508L24 10.2351L13.4936 9.33428L17.4215 5.45345ZM6.57855 18.2556C8.09083 19.5041 10.0057 20.2111 12.0001 20.2111C16.1478 20.2111 19.6562 17.2829 20.3396 13.25L23.677 13.8032C22.7179 19.4523 17.8073 23.5538 12.0001 23.5538C9.10747 23.5538 6.3282 22.4975 4.17651 20.6289L0.911762 23.8546L0 13.474L10.5064 14.3748L6.57855 18.2556Z" fill="currentColor"/>
</g>
<defs>
<clipPath id="clip0_865_370">
<rect width="24" height="24" fill="currentColor"/>
</clipPath>
</defs>
</svg>
