<svg width="24" height="24" viewBox="0 0 24 24"  xmlns="http://www.w3.org/2000/svg">
<path d="M21 0.75C21 0.335786 20.6642 0 20.25 0C19.8358 0 19.5 0.335786 19.5 0.75V4.64957C18.4325 3.56004 17.134 2.70976 15.6896 2.16766C13.5632 1.36952 11.2352 1.28245 9.05502 1.9195C6.87486 2.55655 4.96004 3.88337 3.59786 5.7009C2.23567 7.51844 1.49958 9.72867 1.5 12C1.50008 12.4142 1.83593 12.7499 2.25014 12.7499C2.66435 12.7498 3.00008 12.4139 3 11.9997C2.99964 10.0529 3.63058 8.15838 4.79816 6.6005C5.96575 5.04261 7.60702 3.90534 9.47574 3.35929C11.3445 2.81325 13.3398 2.88788 15.1625 3.572C16.5304 4.08541 17.7457 4.92131 18.71 6H14.25C13.8358 6 13.5 6.33579 13.5 6.75C13.5 7.16421 13.8358 7.5 14.25 7.5H20.25C20.6642 7.5 21 7.16421 21 6.75V0.75ZM21.7499 11.25C22.1641 11.2499 22.4999 11.5856 22.5 11.9999C22.5004 14.2712 21.7643 16.4814 20.4021 18.299C19.04 20.1165 17.1251 21.4433 14.945 22.0804C12.7648 22.7174 10.4368 22.6303 8.31035 21.8322C6.86602 21.2901 5.56754 20.4398 4.5 19.3503V23.25C4.5 23.6642 4.16421 24 3.75 24C3.33579 24 3 23.6642 3 23.25V17.25C3 16.8358 3.33579 16.5 3.75 16.5H3.77042C3.77834 16.4999 3.78624 16.4999 3.79414 16.5H9.75C10.1642 16.5 10.5 16.8358 10.5 17.25C10.5 17.6642 10.1642 18 9.75 18H5.29015C6.25438 19.0786 7.46961 19.9145 8.83744 20.4279C10.6601 21.112 12.6555 21.1866 14.5243 20.6406C16.393 20.0945 18.0342 18.9573 19.2018 17.3994C20.3694 15.8415 21.0004 13.947 21 12.0001C20.9999 11.5859 21.3356 11.2501 21.7499 11.25Z" fill="currentColor"/>
</svg>
