<svg width="24" height="24" viewBox="0 0 24 24"  xmlns="http://www.w3.org/2000/svg">
<g clip-path="url(#clip0_865_2322)">
<path d="M11.9995 0.5C14.274 0.500072 16.4973 1.17457 18.3884 2.43822C20.2795 3.70186 21.7534 5.49788 22.6238 7.59919C23.4942 9.70049 23.7219 12.0127 23.2782 14.2434C22.8671 16.3103 21.8967 18.2212 20.4772 19.7701L22.4106 21.7035L16.9106 22.4892L17.6963 16.9893L19.7693 19.0622C21.0494 17.6538 21.9249 15.9212 22.2974 14.0484C22.7026 12.0116 22.4946 9.90045 21.6999 7.98187C20.9052 6.06329 19.5595 4.42343 17.8328 3.26968C16.1062 2.11592 14.0762 1.50007 11.9995 1.5V0.5ZM6.30308 7.01066L7.08878 1.51074L1.58887 2.29644L3.52228 4.22986C2.10258 5.77876 1.13208 7.68978 0.720954 9.75676C0.277255 11.9875 0.504992 14.2997 1.37537 16.401C2.24575 18.5023 3.71968 20.2983 5.61077 21.562C7.50187 22.8256 9.72521 23.5001 11.9996 23.5002L11.9997 22.5002C9.92302 22.5001 7.89301 21.8843 6.16636 20.7305C4.4397 19.5768 3.09394 17.9369 2.29925 16.0183C1.50456 14.0997 1.29662 11.9886 1.70174 9.95184C2.07428 8.07888 2.94985 6.34617 4.23012 4.9377L6.30308 7.01066Z" fill="currentColor"/>
<path fill-rule="evenodd" clip-rule="evenodd" d="M15.9826 14.214C15.9921 14.5923 15.9175 14.9679 15.7641 15.3138C15.6107 15.6597 15.3824 15.9672 15.0956 16.214C14.3633 16.7954 13.4683 17.1347 12.5346 17.185V19H11.4226V17.234C10.2561 17.2551 9.09739 17.0394 8.0166 16.6V14.833C8.55526 15.0876 9.11897 15.2853 9.6986 15.423C10.2619 15.571 10.8404 15.6539 11.4226 15.67V12.54L10.7226 12.28C9.96234 12.0285 9.27436 11.5965 8.7176 11.021C8.28959 10.5165 8.06371 9.8713 8.0836 9.21C8.07634 8.84525 8.15385 8.4838 8.31002 8.1541C8.4662 7.82439 8.69678 7.53544 8.9836 7.31C9.68932 6.77399 10.5389 6.46064 11.4236 6.41V5H12.5356V6.381C13.6421 6.4145 14.7335 6.64687 15.7576 7.067L15.1456 8.6C14.3111 8.26435 13.431 8.0557 12.5346 7.981V11.027L13.1706 11.27C13.9905 11.5312 14.742 11.9715 15.3706 12.559C15.7787 13.0121 15.9977 13.6044 15.9826 14.214ZM10.0496 9.193C10.0414 9.48679 10.1492 9.772 10.3496 9.987C10.6608 10.2688 11.0272 10.4826 11.4256 10.615V8.015C11.0527 8.05098 10.698 8.19328 10.4036 8.425C10.2913 8.5187 10.2012 8.63623 10.14 8.76908C10.0788 8.90192 10.0479 9.04673 10.0496 9.193ZM14.0076 14.339C14.0121 14.1891 13.9841 14.04 13.9256 13.9019C13.867 13.7639 13.7794 13.6401 13.6686 13.539C13.3318 13.2677 12.9472 13.0618 12.5346 12.932V15.6C13.5166 15.4513 14.0076 15.031 14.0076 14.339Z" fill="currentColor"/>
</g>
<defs>
<clipPath id="clip0_865_2322">
<rect width="24" height="24" fill="currentColor"/>
</clipPath>
</defs>
</svg>
