<svg width="24" height="24" viewBox="0 0 24 24"  xmlns="http://www.w3.org/2000/svg">
<g clip-path="url(#clip0_865_2329)">
<path d="M21.4286 12.0001C21.4286 6.79277 17.2073 2.57144 12 2.57144V0C18.6274 0 24.0001 5.37261 24.0001 12.0001C24.0001 15.5092 22.4927 18.6666 20.0941 20.8594L21.6428 22.4081L15.75 23.25L16.5918 17.3572L18.2735 19.0388C20.2113 17.3106 21.4286 14.7976 21.4286 12.0001ZM2.3571 1.60329L3.89993 3.14611C1.5048 5.33869 0 8.49372 0 11.9999C0 18.6274 5.37261 24 12.0001 24V21.4285C6.79277 21.4285 2.57144 17.2072 2.57144 11.9999C2.57144 9.20531 3.78614 6.69472 5.72041 4.9666L7.40807 6.65425L8.2499 0.761461L2.3571 1.60329Z" fill="currentColor"/>
<path fill-rule="evenodd" clip-rule="evenodd" d="M15.7641 15.3138C15.9175 14.9679 15.9921 14.5923 15.9826 14.214C15.9977 13.6044 15.7787 13.0121 15.3706 12.559C14.742 11.9715 13.9905 11.5312 13.1706 11.27L12.5346 11.027V7.981C13.431 8.0557 14.3111 8.26435 15.1456 8.6L15.7576 7.067C14.7335 6.64687 13.6421 6.4145 12.5356 6.381V5H11.4236V6.41C10.5389 6.46064 9.68932 6.77399 8.9836 7.31C8.69678 7.53544 8.4662 7.82439 8.31003 8.1541C8.15385 8.4838 8.07634 8.84525 8.0836 9.21C8.06371 9.8713 8.28959 10.5165 8.7176 11.021C9.27436 11.5965 9.96234 12.0285 10.7226 12.28L11.4226 12.54V15.67C10.8404 15.6539 10.2619 15.571 9.6986 15.423C9.11897 15.2853 8.55526 15.0876 8.0166 14.833V16.6C9.09739 17.0394 10.2561 17.2551 11.4226 17.234V19H12.5346V17.185C13.4683 17.1347 14.3633 16.7954 15.0956 16.214C15.3824 15.9672 15.6107 15.6597 15.7641 15.3138ZM10.3496 9.987C10.1492 9.772 10.0415 9.48679 10.0496 9.193C10.0479 9.04673 10.0788 8.90192 10.14 8.76908C10.2012 8.63623 10.2913 8.5187 10.4036 8.425C10.698 8.19328 11.0527 8.05097 11.4256 8.015V10.615C11.0272 10.4826 10.6608 10.2688 10.3496 9.987ZM13.9256 13.9019C13.9841 14.04 14.0121 14.1891 14.0076 14.339C14.0076 15.031 13.5166 15.4513 12.5346 15.6V12.932C12.9472 13.0618 13.3318 13.2677 13.6686 13.539C13.7794 13.6401 13.867 13.7639 13.9256 13.9019Z" fill="currentColor"/>
</g>
<defs>
<clipPath id="clip0_865_2329">
<rect width="24" height="24" fill="currentColor"/>
</clipPath>
</defs>
</svg>
