<svg width="24" height="24" viewBox="0 0 24 24"  xmlns="http://www.w3.org/2000/svg">
<g clip-path="url(#clip0_865_1839)">
<path fill-rule="evenodd" clip-rule="evenodd" d="M4.72982 1H4.07595C0.970066 1.79861 -0.501142 4.03472 0.152728 7.06944C0.806598 10.4236 2.93168 13.9375 6.52796 17.7708C9.96078 21.2847 14.8648 24 17.9707 24H18.6246C20.9131 23.6806 22.3843 21.9236 22.8747 20.1667C23.2017 18.8889 22.8747 17.7708 22.0574 17.1319C19.6054 15.2153 18.1342 14.4167 16.4995 14.4167H15.6821C14.7013 14.5764 14.0475 15.0556 13.5571 15.5347C13.4958 15.4948 13.4243 15.4499 13.3438 15.3994C12.7806 15.0456 11.7794 14.4167 10.7781 13.2986C9.47038 12.0208 8.81651 11.0625 8.48957 10.2639C9.14344 9.625 9.79731 8.66667 9.63385 7.22917C9.63385 5.79167 8.16264 3.71528 7.01837 2.11806C6.52796 1.47917 5.71062 1 4.72982 1ZM4.72982 2.59722C5.22022 2.59722 5.54716 2.91667 5.71062 3.07639C6.20103 3.71528 7.99917 6.27083 7.99917 7.38889C7.99917 8.50694 7.50877 9.14583 6.52796 9.78472C6.52796 9.78472 6.8549 11.7014 9.63385 14.4167C12.0859 16.9722 14.3744 17.4514 14.3744 17.4514C14.3744 17.4514 14.8648 16.1736 16.1725 16.0139H16.6629C17.8072 16.0139 18.9515 16.6528 21.24 18.4097C22.0574 19.0486 21.0766 21.9236 18.6246 22.4028H18.1342C15.5187 22.4028 11.1051 20.0069 7.8357 16.6528C4.89329 13.6181 2.44127 10.2639 1.7874 6.75C1.01934 3.59803 3.57139 2.84384 4.28883 2.63182C4.33485 2.61822 4.37332 2.60685 4.40288 2.59722H4.72982Z" fill="currentColor"/>
<path d="M20.4795 2.28894C19.7976 1.78168 18.9786 1.5338 18.1549 1.57606C17.3309 1.61832 16.5369 1.94916 15.9034 2.52631C15.2689 3.10436 14.8331 3.89611 14.6772 4.77725C14.6016 5.20485 14.1854 5.49159 13.7476 5.4177C13.3099 5.34381 13.0164 4.93728 13.092 4.50968C13.3055 3.30272 13.9058 2.19745 14.8062 1.37714C15.7076 0.555923 16.8572 0.0690365 18.0705 0.00679765C19.2841 -0.0554523 20.4766 0.311516 21.4542 1.03876C21.803 1.29822 22.1169 1.59784 22.3912 1.92963V0.838143C22.3912 0.404207 22.7514 0.0524319 23.1956 0.0524319C23.6398 0.0524319 24 0.404207 24 0.838143V4.26419C24 4.4894 23.901 4.70377 23.7283 4.85291C23.5555 5.00205 23.3256 5.07162 23.0968 5.04396L19.6042 4.6217C19.1634 4.56839 18.8502 4.17607 18.9048 3.74542C18.9593 3.31477 19.361 3.00887 19.8018 3.06217L21.3892 3.25409C21.1423 2.88017 20.8347 2.55312 20.4795 2.28894ZM22.9301 5.5823C23.3679 5.65619 23.6614 6.06272 23.5858 6.49032C23.3723 7.69728 22.772 8.80255 21.8716 9.62286C20.9702 10.4441 19.8206 10.931 18.6073 10.9932C17.3937 11.0555 16.2012 10.6885 15.2236 9.96124C15.0045 9.79824 14.7991 9.6194 14.6087 9.42669V10.2109C14.6087 10.6448 14.2486 10.9966 13.8044 10.9966C13.3601 10.9966 13 10.6448 13 10.2109V6.78482C13 6.55962 13.0989 6.34524 13.2717 6.1961C13.4444 6.04696 13.6744 5.9774 13.9032 6.00506L17.3957 6.42732C17.8366 6.48062 18.1497 6.87294 18.0952 7.30359C18.0406 7.73424 17.639 8.04014 17.1981 7.98684L15.2958 7.75685C15.5415 8.12621 15.8466 8.44946 16.1983 8.71106C16.8802 9.21832 17.6992 9.4662 18.5229 9.42394C19.3469 9.38168 20.1409 9.05084 20.7744 8.47369C21.4089 7.89564 21.8447 7.10389 22.0006 6.22275C22.0762 5.79515 22.4924 5.50841 22.9301 5.5823Z" fill="currentColor"/>
</g>
<defs>
<clipPath id="clip0_865_1839">
<rect width="24" height="24" fill="currentColor"/>
</clipPath>
</defs>
</svg>
