<svg width="24" height="24" viewBox="0 0 24 24"  xmlns="http://www.w3.org/2000/svg">
<g clip-path="url(#clip0_865_375)">
<path d="M21.75 0.75C21.75 0.335786 21.4142 0 21 0C20.5858 0 20.25 0.335786 20.25 0.75V5.66549C18.2625 3.14795 15.3694 1.5 12 1.5C5.78679 1.5 0.75 6.53679 0.75 12.75C0.75 18.9632 5.78679 24 12 24C18.2132 24 23.25 18.9632 23.25 12.75C23.25 12.3358 22.9142 12 22.5 12C22.0858 12 21.75 12.3358 21.75 12.75C21.75 18.1348 17.3848 22.5 12 22.5C6.61521 22.5 2.25 18.1348 2.25 12.75C2.25 7.36521 6.61521 3 12 3C15.2078 3 17.9757 4.76995 19.7166 7.5H13.5C13.0858 7.5 12.75 7.83579 12.75 8.25C12.75 8.66421 13.0858 9 13.5 9H20.9848C21.0469 9.00131 21.1097 8.99489 21.1717 8.98026C21.3678 8.93434 21.5343 8.81142 21.6376 8.64513C21.6934 8.5552 21.7308 8.45258 21.7443 8.34259C21.7488 8.30662 21.7508 8.27022 21.75 8.23368V0.75Z" fill="currentColor"/>
</g>
<defs>
<clipPath id="clip0_865_375">
<rect width="24" height="24" fill="currentColor"/>
</clipPath>
</defs>
</svg>
