<svg width="24" height="24" viewBox="0 0 24 24"  xmlns="http://www.w3.org/2000/svg">
<g clip-path="url(#clip0_865_381)">
<path fill-rule="evenodd" clip-rule="evenodd" d="M18.032 3.08209L20.9997 -0.236145L22.2175 8.90262L13 8.70838L15.956 5.40322C14.8059 4.8446 13.6141 4.5 12.25 4.5C7.75 4.5 4 8.25 4 12.75C4 17.25 7.75 21 12.25 21C16.75 21 20.5 17.25 20.5 12.75H23.5C23.5 18.9 18.4 24 12.25 24C6.1 24 1 18.9 1 12.75C1 6.6 6.1 1.5 12.25 1.5C14.3883 1.5 16.3156 2.02736 18.032 3.08209Z" fill="currentColor"/>
</g>
<defs>
<clipPath id="clip0_865_381">
<rect width="24" height="24" fill="currentColor"/>
</clipPath>
</defs>
</svg>
