<svg width="24" height="24" viewBox="0 0 24 24"  xmlns="http://www.w3.org/2000/svg">
<g clip-path="url(#clip0_865_2604)">
<path d="M5 12C5 11.5858 5.33579 11.25 5.75 11.25H18.25C18.6642 11.25 19 11.5858 19 12C19 12.4142 18.6642 12.75 18.25 12.75H5.75C5.33579 12.75 5 12.4142 5 12Z" fill="currentColor"/>
<path fill-rule="evenodd" clip-rule="evenodd" d="M12 22.5C17.799 22.5 22.5 17.799 22.5 12C22.5 6.20101 17.799 1.5 12 1.5C6.20101 1.5 1.5 6.20101 1.5 12C1.5 17.799 6.20101 22.5 12 22.5ZM12 24C18.6274 24 24 18.6274 24 12C24 5.37258 18.6274 0 12 0C5.37258 0 0 5.37258 0 12C0 18.6274 5.37258 24 12 24Z" fill="currentColor"/>
</g>
<defs>
<clipPath id="clip0_865_2604">
<rect width="24" height="24" fill="currentColor"/>
</clipPath>
</defs>
</svg>
