<svg width="24" height="24" viewBox="0 0 24 24"  xmlns="http://www.w3.org/2000/svg">
<path fill-rule="evenodd" clip-rule="evenodd" d="M12 10C13.933 10 15.5 8.433 15.5 6.5C15.5 4.567 13.933 3 12 3C10.067 3 8.5 4.567 8.5 6.5C8.5 8.433 10.067 10 12 10ZM12 11.5C14.7614 11.5 17 9.26142 17 6.5C17 3.73858 14.7614 1.5 12 1.5C9.23858 1.5 7 3.73858 7 6.5C7 9.26142 9.23858 11.5 12 11.5Z" fill="currentColor"/>
<path d="M22.7661 15.2339C22.6162 15.0842 22.413 15 22.2011 15C21.9893 15 21.7861 15.0842 21.6362 15.2339L19.005 17.8652L16.3738 15.2339C16.2231 15.0884 16.0212 15.0079 15.8117 15.0097C15.6022 15.0115 15.4018 15.0955 15.2537 15.2437C15.1055 15.3918 15.0215 15.5922 15.0197 15.8017C15.0178 16.0112 15.0984 16.2131 15.2439 16.3638L17.8752 18.995L15.2439 21.6262C15.1676 21.6999 15.1067 21.7881 15.0649 21.8856C15.023 21.9831 15.001 22.0879 15 22.194C14.9991 22.3001 15.0193 22.4053 15.0595 22.5035C15.0997 22.6017 15.159 22.6909 15.234 22.766C15.3091 22.841 15.3983 22.9003 15.4965 22.9405C15.5947 22.9807 15.6999 23.0009 15.806 23C15.9121 22.999 16.0169 22.977 16.1144 22.9351C16.2119 22.8933 16.3001 22.8324 16.3738 22.7561L19.005 20.1248L21.6362 22.7561C21.7869 22.9016 21.9888 22.9822 22.1983 22.9803C22.4078 22.9785 22.6082 22.8945 22.7563 22.7463C22.9045 22.5982 22.9885 22.3978 22.9903 22.1883C22.9921 21.9788 22.9116 21.7769 22.7661 21.6262L20.1348 18.995L22.7661 16.3638C22.9158 16.2139 23 16.0107 23 15.7989C23 15.587 22.9158 15.3838 22.7661 15.2339ZM11.4585 13C12.3289 13 13.1734 13.1111 13.9785 13.32C14.5271 13.4623 14.6719 14.1308 14.2732 14.5294C14.0659 14.7366 13.7601 14.8097 13.4738 14.7402C12.8278 14.5832 12.1529 14.5 11.4585 14.5C7.27433 14.5 3.79603 17.021 3.08729 21H11.8258C12.2401 21 12.5846 21.3358 12.5846 21.75C12.5846 22.1642 12.2401 22.5 11.8258 22.5H2.46656C1.90775 22.5 1.44914 22.0509 1.50455 21.5014C2.00833 16.5041 6.27259 13 11.4585 13Z" fill="currentColor"/>
</svg>
