<svg width="24" height="24" viewBox="0 0 24 24"  xmlns="http://www.w3.org/2000/svg">
<path d="M12 11.5C14.7614 11.5 17 9.26142 17 6.5C17 3.73858 14.7614 1.5 12 1.5C9.23858 1.5 7 3.73858 7 6.5C7 9.26142 9.23858 11.5 12 11.5ZM15.805 13.7044C14.1308 14.6473 13 16.4416 13 18.5C13 20.076 13.6629 21.4972 14.7251 22.5H2.43911C1.84507 22.5 1.3844 21.9632 1.52569 21.3747C2.67972 16.5672 6.93149 13 12 13C13.3394 13 14.6218 13.2491 15.805 13.7044ZM21.9724 15.6448C21.7794 15.4517 21.4664 15.4517 21.2733 15.6448L19.25 17.6681L17.2267 15.6448C17.0336 15.4517 16.7206 15.4517 16.5276 15.6448L15.6448 16.5276C15.4517 16.7206 15.4517 17.0336 15.6448 17.2267L17.6681 19.25L15.6448 21.2733C15.4517 21.4664 15.4517 21.7794 15.6448 21.9724L16.5276 22.8552C16.7206 23.0483 17.0336 23.0483 17.2267 22.8552L19.25 20.8319L21.2733 22.8552C21.4664 23.0483 21.7794 23.0483 21.9724 22.8552L22.8552 21.9724C23.0483 21.7794 23.0483 21.4664 22.8552 21.2733L20.8319 19.25L22.8552 17.2267C23.0483 17.0336 23.0483 16.7206 22.8552 16.5276L21.9724 15.6448Z" fill="currentColor"/>
</svg>
