<svg width="24" height="24" viewBox="0 0 24 24"  xmlns="http://www.w3.org/2000/svg">
<path fill-rule="evenodd" clip-rule="evenodd" d="M9 3C9 2.17158 8.32842 1.5 7.5 1.5C6.67158 1.5 6 2.17158 6 3C6 3.82842 6.67158 4.5 7.5 4.5C8.32842 4.5 9 3.82842 9 3ZM7.5 0C9.15686 0 10.5 1.34315 10.5 3C10.5 4.65686 9.15686 6 7.5 6C5.84314 6 4.5 4.65686 4.5 3C4.5 1.34314 5.84314 0 7.5 0ZM7.5 10.5C8.32842 10.5 9 11.1716 9 12C9 12.8284 8.32842 13.5 7.5 13.5C6.67158 13.5 6 12.8284 6 12C6 11.1716 6.67158 10.5 7.5 10.5ZM10.5 12C10.5 10.3431 9.15686 9 7.5 9C5.84314 9 4.5 10.3431 4.5 12C4.5 13.6569 5.84314 15 7.5 15C9.15686 15 10.5 13.6569 10.5 12ZM7.5 19.5C8.32842 19.5 9 20.1716 9 21C9 21.8284 8.32842 22.5 7.5 22.5C6.67158 22.5 6 21.8284 6 21C6 20.1716 6.67158 19.5 7.5 19.5ZM10.5 21C10.5 19.3431 9.15686 18 7.5 18C5.84314 18 4.5 19.3431 4.5 21C4.5 22.6569 5.84314 24 7.5 24C9.15686 24 10.5 22.6569 10.5 21ZM15.75 10.5C16.5785 10.5 17.25 11.1716 17.25 12C17.25 12.8284 16.5785 13.5 15.75 13.5C14.9216 13.5 14.25 12.8284 14.25 12C14.25 11.1716 14.9216 10.5 15.75 10.5ZM18.75 12C18.75 10.3431 17.4069 9 15.75 9C14.0931 9 12.75 10.3431 12.75 12C12.75 13.6569 14.0931 15 15.75 15C17.4069 15 18.75 13.6569 18.75 12ZM17.25 21C17.25 20.1716 16.5785 19.5 15.75 19.5C14.9216 19.5 14.25 20.1716 14.25 21C14.25 21.8284 14.9216 22.5 15.75 22.5C16.5785 22.5 17.25 21.8284 17.25 21ZM15.75 18C17.4069 18 18.75 19.3431 18.75 21C18.75 22.6569 17.4069 24 15.75 24C14.0931 24 12.75 22.6569 12.75 21C12.75 19.3431 14.0931 18 15.75 18ZM15.75 1.5C16.5785 1.5 17.25 2.17158 17.25 3C17.25 3.82842 16.5785 4.5 15.75 4.5C14.9216 4.5 14.25 3.82842 14.25 3C14.25 2.17158 14.9216 1.5 15.75 1.5ZM18.75 3C18.75 1.34315 17.4069 0 15.75 0C14.0931 0 12.75 1.34314 12.75 3C12.75 4.65686 14.0931 6 15.75 6C17.4069 6 18.75 4.65686 18.75 3Z" fill="currentColor"/>
</svg>
