<svg width="24" height="24" viewBox="0 0 24 24"  xmlns="http://www.w3.org/2000/svg">
<path fill-rule="evenodd" clip-rule="evenodd" d="M3 14.625C2.17158 14.625 1.5 15.2966 1.5 16.125C1.5 16.9534 2.17158 17.625 3 17.625C3.82842 17.625 4.5 16.9534 4.5 16.125C4.5 15.2966 3.82842 14.625 3 14.625ZM0 16.125C0 14.4681 1.34315 13.125 3 13.125C4.65686 13.125 6 14.4681 6 16.125C6 17.7819 4.65686 19.125 3 19.125C1.34314 19.125 0 17.7819 0 16.125ZM10.5 16.125C10.5 15.2966 11.1716 14.625 12 14.625C12.8284 14.625 13.5 15.2966 13.5 16.125C13.5 16.9534 12.8284 17.625 12 17.625C11.1716 17.625 10.5 16.9534 10.5 16.125ZM12 13.125C10.3431 13.125 9 14.4681 9 16.125C9 17.7819 10.3431 19.125 12 19.125C13.6569 19.125 15 17.7819 15 16.125C15 14.4681 13.6569 13.125 12 13.125ZM19.5 16.125C19.5 15.2966 20.1716 14.625 21 14.625C21.8284 14.625 22.5 15.2966 22.5 16.125C22.5 16.9534 21.8284 17.625 21 17.625C20.1716 17.625 19.5 16.9534 19.5 16.125ZM21 13.125C19.3431 13.125 18 14.4681 18 16.125C18 17.7819 19.3431 19.125 21 19.125C22.6569 19.125 24 17.7819 24 16.125C24 14.4681 22.6569 13.125 21 13.125ZM10.5 7.875C10.5 7.04655 11.1716 6.375 12 6.375C12.8284 6.375 13.5 7.04655 13.5 7.875C13.5 8.70342 12.8284 9.375 12 9.375C11.1716 9.375 10.5 8.70342 10.5 7.875ZM12 4.875C10.3431 4.875 9 6.2181 9 7.875C9 9.53185 10.3431 10.875 12 10.875C13.6569 10.875 15 9.53185 15 7.875C15 6.2181 13.6569 4.875 12 4.875ZM21 6.375C20.1716 6.375 19.5 7.04655 19.5 7.875C19.5 8.70342 20.1716 9.375 21 9.375C21.8284 9.375 22.5 8.70342 22.5 7.875C22.5 7.04655 21.8284 6.375 21 6.375ZM18 7.875C18 6.2181 19.3431 4.875 21 4.875C22.6569 4.875 24 6.2181 24 7.875C24 9.53185 22.6569 10.875 21 10.875C19.3431 10.875 18 9.53185 18 7.875ZM1.5 7.875C1.5 7.04655 2.17158 6.375 3 6.375C3.82842 6.375 4.5 7.04655 4.5 7.875C4.5 8.70342 3.82842 9.375 3 9.375C2.17158 9.375 1.5 8.70342 1.5 7.875ZM3 4.875C1.34315 4.875 0 6.2181 0 7.875C0 9.53185 1.34314 10.875 3 10.875C4.65686 10.875 6 9.53185 6 7.875C6 6.2181 4.65686 4.875 3 4.875Z" fill="currentColor"/>
</svg>
