<svg width="24" height="24" viewBox="0 0 24 24"  xmlns="http://www.w3.org/2000/svg">
<path d="M7.5 6C5.84315 6 4.5 4.65685 4.5 3C4.5 1.34315 5.84315 0 7.5 0C9.15685 0 10.5 1.34315 10.5 3C10.5 4.65685 9.15685 6 7.5 6ZM7.5 15C5.84315 15 4.5 13.6569 4.5 12C4.5 10.3431 5.84315 9 7.5 9C9.15685 9 10.5 10.3431 10.5 12C10.5 13.6569 9.15685 15 7.5 15ZM4.5 21C4.5 22.6569 5.84315 24 7.5 24C9.15685 24 10.5 22.6569 10.5 21C10.5 19.3431 9.15685 18 7.5 18C5.84315 18 4.5 19.3431 4.5 21ZM16.5 15C14.8431 15 13.5 13.6569 13.5 12C13.5 10.3431 14.8431 9 16.5 9C18.1569 9 19.5 10.3431 19.5 12C19.5 13.6569 18.1569 15 16.5 15ZM13.5 3C13.5 4.65685 14.8431 6 16.5 6C18.1569 6 19.5 4.65685 19.5 3C19.5 1.34315 18.1569 0 16.5 0C14.8431 0 13.5 1.34315 13.5 3ZM16.5 24C14.8431 24 13.5 22.6569 13.5 21C13.5 19.3431 14.8431 18 16.5 18C18.1569 18 19.5 19.3431 19.5 21C19.5 22.6569 18.1569 24 16.5 24Z" fill="currentColor"/>
</svg>
