<svg width="24" height="24" viewBox="0 0 24 24"  xmlns="http://www.w3.org/2000/svg">
<path d="M9.53776 3.3685C9.75725 3.47326 9.89788 3.70101 9.89788 3.9517V4.16567L8.66065 5.34741L1.56918 11.6549L8.66065 17.9623L9.89788 19.1441V19.358C9.89788 19.6087 9.75725 19.8365 9.53776 19.9412C9.31828 20.046 9.06011 20.0086 8.87667 19.8455L0.216028 12.1423C0.078913 12.0203 0 11.8423 0 11.6549C0 11.4675 0.078913 11.2895 0.216028 11.1675L8.87667 3.46431C9.06011 3.30116 9.31828 3.26375 9.53776 3.3685Z" fill="currentColor"/>
<path fill-rule="evenodd" clip-rule="evenodd" d="M13.742 3.05874C13.9615 3.16349 14.1021 3.39124 14.1021 3.64194V5.91532V8.18871C16.3301 8.26812 18.6942 8.7979 20.5648 10.2965C22.6398 11.959 24 14.7255 24 19.0483C24 19.3353 23.8164 19.5874 23.5503 19.6658C23.2843 19.7442 23.0004 19.6298 22.8551 19.3856C20.7066 15.776 17.4781 14.6791 14.1021 14.565V19.0483C14.1021 19.299 13.9615 19.5267 13.742 19.6315C13.5225 19.7363 13.2643 19.6989 13.0809 19.5357L4.42026 11.8325C4.28315 11.7106 4.20423 11.5325 4.20423 11.3451C4.20423 11.1577 4.28315 10.9797 4.42026 10.8577L13.0809 3.15455C13.2643 2.9914 13.5225 2.95399 13.742 3.05874ZM12.8649 17.6525L5.77341 11.3451L12.8649 5.03764V8.81975C12.8649 9.17429 13.1419 9.46168 13.4835 9.46168C15.7596 9.46168 18.074 9.92292 19.8087 11.3127C21.1914 12.4205 22.2749 14.1749 22.6346 16.9454C20.1028 14.0505 16.7289 13.2709 13.4835 13.2709C13.1419 13.2709 12.8649 13.5583 12.8649 13.9128V17.6525Z" fill="currentColor"/>
</svg>
