<svg width="24" height="24" viewBox="0 0 24 24"  xmlns="http://www.w3.org/2000/svg">
<path d="M9.89788 3.9517C9.89788 3.70101 9.75725 3.47326 9.53776 3.3685C9.31828 3.26375 9.06011 3.30116 8.87667 3.46431L0.216028 11.1675C0.078913 11.2895 0 11.4675 0 11.6549C0 11.8423 0.078913 12.0203 0.216028 12.1423L8.87667 19.8455C9.06011 20.0086 9.31828 20.046 9.53776 19.9412C9.75725 19.8365 9.89788 19.6087 9.89788 19.358V19.1441L8.66065 17.9623L1.56918 11.6549L8.66065 5.34741L9.89788 4.16567V3.9517Z" fill="currentColor"/>
<path d="M14.1021 3.64194C14.1021 3.39124 13.9615 3.16349 13.742 3.05874C13.5225 2.95399 13.2643 2.9914 13.0809 3.15455L4.42026 10.8577C4.28315 10.9797 4.20423 11.1577 4.20423 11.3451C4.20423 11.5325 4.28315 11.7106 4.42026 11.8325L13.0809 19.5357C13.2643 19.6989 13.5225 19.7363 13.742 19.6315C13.9615 19.5267 14.1021 19.299 14.1021 19.0483V14.565C17.4781 14.6791 20.7066 15.776 22.8551 19.3856C23.0004 19.6298 23.2843 19.7442 23.5503 19.6658C23.8164 19.5874 24 19.3353 24 19.0483C24 14.7255 22.6398 11.959 20.5648 10.2965C18.6942 8.7979 16.3301 8.26812 14.1021 8.18871V5.91532V3.64194Z" fill="currentColor"/>
</svg>
