<svg width="24" height="24" viewBox="0 0 24 24"  xmlns="http://www.w3.org/2000/svg">
<path fill-rule="evenodd" clip-rule="evenodd" d="M11.5634 1.56863C11.8295 1.69102 12 1.95711 12 2.25001V7.56223C14.7012 7.65501 17.5674 8.27398 19.8352 10.0249C22.3509 11.9672 24 15.1995 24 20.25C24 20.5853 23.7774 20.8799 23.4548 20.9715C23.1323 21.0631 22.7881 20.9294 22.6119 20.6441C20.0072 16.4268 16.093 15.1453 12 15.012V20.25C12 20.5429 11.8295 20.809 11.5634 20.9314C11.2973 21.0538 10.9843 21.0101 10.7619 20.8195L0.261907 11.8195C0.095672 11.677 0 11.469 0 11.25C0 11.0311 0.095672 10.8231 0.261907 10.6806L10.7619 1.68057C10.9843 1.48995 11.2973 1.44624 11.5634 1.56863ZM1.90244 11.25L10.5 18.6193V14.25C10.5 13.8358 10.8358 13.5 11.25 13.5C15.1846 13.5 19.2751 14.4109 22.3446 17.7931C21.9085 14.5562 20.5949 12.5065 18.9185 11.2122C16.8154 9.5884 14.0095 9.04951 11.25 9.04951C10.8358 9.04951 10.5 8.71373 10.5 8.29951V3.88068L1.90244 11.25Z" fill="currentColor"/>
</svg>
