<svg width="24" height="24" viewBox="0 0 24 24"  xmlns="http://www.w3.org/2000/svg">
<g clip-path="url(#clip0_865_1991)">
<path fill-rule="evenodd" clip-rule="evenodd" d="M1.5 2.25C1.5 1.83579 1.83579 1.5 2.25 1.5H21.75C22.1642 1.5 22.5 1.83579 22.5 2.25V21.75C22.5 22.1642 22.1642 22.5 21.75 22.5H2.25C1.83579 22.5 1.5 22.1642 1.5 21.75V2.25ZM2.25 0C1.00736 0 0 1.00736 0 2.25V21.75C0 22.9926 1.00736 24 2.25 24H21.75C22.9926 24 24 22.9926 24 21.75V2.25C24 1.00736 22.9926 0 21.75 0H2.25ZM8.78032 9.21968C8.48744 8.92677 8.01256 8.92677 7.71968 9.21968L3.21968 13.7197C2.92677 14.0126 2.92677 14.4874 3.21968 14.7803C3.51257 15.0732 3.98743 15.0732 4.28032 14.7803L8.25 10.8107L13.7197 16.2804C14.0126 16.5732 14.4874 16.5732 14.7803 16.2804L20.7804 10.2803C21.0732 9.98744 21.0732 9.51256 20.7804 9.21968C20.4874 8.92677 20.0126 8.92677 19.7196 9.21968L14.25 14.6893L8.78032 9.21968Z" fill="currentColor"/>
</g>
<defs>
<clipPath id="clip0_865_1991">
<rect width="24" height="24" fill="currentColor"/>
</clipPath>
</defs>
</svg>
