<svg width="24" height="24" viewBox="0 0 24 24"  xmlns="http://www.w3.org/2000/svg">
<g clip-path="url(#clip0_865_402)">
<path fill-rule="evenodd" clip-rule="evenodd" d="M5.46801 3.08209L2.50028 -0.236145L1.2825 8.90262L10.5 8.70838L7.54396 5.40322C8.69406 4.8446 9.88588 4.5 11.25 4.5C15.75 4.5 19.5 8.25 19.5 12.75C19.5 17.25 15.75 21 11.25 21C6.75 21 3 17.25 3 12.75H0C0 18.9 5.1 24 11.25 24C17.4 24 22.5 18.9 22.5 12.75C22.5 6.6 17.4 1.5 11.25 1.5C9.11172 1.5 7.18439 2.02736 5.46801 3.08209Z" fill="currentColor"/>
</g>
<defs>
<clipPath id="clip0_865_402">
<rect width="24" height="24" fill="currentColor"/>
</clipPath>
</defs>
</svg>
