<svg width="24" height="24" viewBox="0 0 24 24"  xmlns="http://www.w3.org/2000/svg">
<g clip-path="url(#clip0_865_396)">
<path d="M2.25 0.75C2.25 0.335786 2.58579 0 3 0C3.41421 0 3.75 0.335786 3.75 0.75V5.66549C5.73748 3.14795 8.63058 1.5 12 1.5C18.2132 1.5 23.25 6.53679 23.25 12.75C23.25 18.9632 18.2132 24 12 24C5.78679 24 0.75 18.9632 0.75 12.75C0.75 12.3358 1.08579 12 1.5 12C1.91421 12 2.25 12.3358 2.25 12.75C2.25 18.1348 6.61522 22.5 12 22.5C17.3848 22.5 21.75 18.1348 21.75 12.75C21.75 7.36521 17.3848 3 12 3C8.79218 3 6.02434 4.76995 4.28344 7.5H10.5C10.9142 7.5 11.25 7.83579 11.25 8.25C11.25 8.66421 10.9142 9 10.5 9H3.01517C2.95307 9.00131 2.89031 8.99489 2.82834 8.98026C2.63219 8.93434 2.46568 8.81142 2.3624 8.64513C2.30655 8.5552 2.2692 8.45258 2.25566 8.34259C2.25115 8.30662 2.24923 8.27022 2.25 8.23368V0.75Z" fill="currentColor"/>
</g>
<defs>
<clipPath id="clip0_865_396">
<rect width="24" height="24" fill="currentColor"/>
</clipPath>
</defs>
</svg>
