<svg width="24" height="24" viewBox="0 0 24 24"  xmlns="http://www.w3.org/2000/svg">
<g clip-path="url(#clip0_865_5207)">
<path d="M13.4999 11.9999C14.3283 11.9999 14.9998 11.3283 14.9998 10.4999C14.9998 9.67147 14.3283 8.99991 13.4999 8.99991C12.6714 8.99991 11.9999 9.67147 11.9999 10.4999C11.9999 11.3283 12.6714 11.9999 13.4999 11.9999Z" fill="currentColor"/>
<path fill-rule="evenodd" clip-rule="evenodd" d="M23.8499 0.149998C23.9999 0.299997 23.9999 0.599994 23.9999 0.749992C23.6999 5.09995 22.5 8.54991 21 11.3999C22.2 14.6999 21.45 18.4498 18.9 20.9998C18.3 21.5998 17.7 22.0498 17.1 22.3498C16.8 22.4998 16.5 22.4998 16.2 22.1998L13.0501 19.0498C12.9001 19.1998 12.7501 19.3498 12.6001 19.3498L11.1001 20.0998C11.0251 20.0998 10.9501 20.1373 10.8751 20.1748C10.8001 20.2123 10.7251 20.2498 10.6501 20.2498H10.5001C10.3501 20.3998 9.90009 20.2498 9.75009 20.0998L3.90015 14.2499C3.75015 14.0999 3.60015 13.7999 3.75015 13.4999V13.3499C3.82515 13.2749 3.86265 13.1999 3.90015 13.1249C3.93765 13.0499 3.97515 12.9749 4.05015 12.8999C4.09226 12.8156 4.13438 12.7078 4.18314 12.5829C4.30803 12.2629 4.47649 11.8314 4.80014 11.3999L5.10014 11.0999L1.95017 7.94992C1.65017 7.79992 1.65017 7.34993 1.80017 7.04993C2.10017 6.44993 2.55016 5.84994 3.15016 5.24995C5.70013 2.69997 9.45009 2.09998 12.7501 3.29997C15.45 1.49998 18.9 0.149998 23.25 0C23.3999 0 23.6999 0 23.8499 0.149998ZM21 7.49992C21.75 5.69994 22.35 3.74996 22.5 1.49998C20.25 1.79998 18.15 2.24998 16.5 2.99997L21 7.49992ZM3.75575 6.95367C3.659 7.09658 3.5657 7.23438 3.45015 7.34993L5.85013 9.7499C5.99177 9.57285 6.14177 9.37908 6.30012 9.17452C6.81258 8.51253 7.41257 7.73746 8.10011 7.04993C9.0001 6.14994 9.90009 5.24995 11.2501 4.34996C8.8501 3.74996 6.15013 4.49995 4.35014 6.29994C4.07347 6.48438 3.9102 6.72554 3.75575 6.95367ZM17.7 19.7998C19.5 17.8498 20.25 15.2998 19.65 13.0499C18.75 14.2499 17.85 15.1498 16.95 16.0498C16.05 16.9498 15.15 17.6998 14.25 18.2998L16.65 20.6998C17.1 20.3998 17.4 20.0998 17.7 19.7998ZM12.6001 17.3998C13.65 16.7998 14.7 15.8998 15.9 14.8498C17.55 13.3499 19.05 11.3999 20.25 8.99991L15 3.74996C12.6001 4.94995 10.6501 6.59993 9.15009 8.09992C7.65011 9.5999 6.60012 11.0999 6.00013 12.2999C5.85013 12.5249 5.73763 12.7499 5.62513 12.9749C5.51263 13.1999 5.40013 13.4249 5.25013 13.6499L10.3501 18.7498C10.4743 18.6877 10.6243 18.5998 10.8001 18.4969C11.0486 18.3513 11.3486 18.1756 11.7001 17.9998C11.8501 17.9248 12.0001 17.8123 12.1501 17.6998C12.3001 17.5873 12.4501 17.4748 12.6001 17.3998Z" fill="currentColor"/>
<path d="M1.64998 18.1498C0.449995 19.3498 0 23.9998 0 23.9998C0 23.9998 4.64995 23.5498 5.84994 22.3498C7.04993 21.1498 7.04993 19.3498 5.84994 18.1498C4.64995 16.9498 2.84997 16.9498 1.64998 18.1498Z" fill="currentColor"/>
</g>
<defs>
<clipPath id="clip0_865_5207">
<rect width="24" height="24" fill="currentColor"/>
</clipPath>
</defs>
</svg>
