<svg width="24" height="24" viewBox="0 0 24 24"  xmlns="http://www.w3.org/2000/svg">
<g clip-path="url(#clip0_865_5200)">
<path fill-rule="evenodd" clip-rule="evenodd" d="M24.0002 0.000976562C19.5065 0.300561 15.7617 1.64869 12.9156 3.59598C10.6261 2.50574 8.01917 2.52643 5.7879 3.65805L2.57302 0.443167C1.99272 -0.137129 1.05188 -0.13713 0.47158 0.443166C-0.082759 0.997505 -0.107556 1.88086 0.397192 2.46463L21.5333 23.6007C22.1171 24.1055 23.0004 24.0807 23.5548 23.5263C24.1351 22.946 24.1351 22.0052 23.5548 21.4249L20.4237 18.2939C21.4864 16.0284 21.5302 13.361 20.555 11.0856C22.3525 8.08974 23.7006 4.49474 24.0002 0.000976562ZM17.0084 8.98849C17.0084 10.0915 16.1142 10.9857 15.0111 10.9857C13.9081 10.9857 13.0139 10.0915 13.0139 8.98849C13.0139 7.88546 13.9081 6.99127 15.0111 6.99127C16.1142 6.99127 17.0084 7.88546 17.0084 8.98849Z" fill="currentColor"/>
<path d="M12.5468 18.7969C11.2131 19.6068 10.3691 19.9233 10.3691 19.9233L4.22767 13.7818C4.22767 13.7818 4.64279 12.9516 5.38663 11.6367L12.5468 18.7969ZM5.12621 18.8748C3.92788 17.6764 2.13037 17.6764 0.932038 18.8748C-0.266296 19.9233 0.0332869 23.9677 0.0332869 23.9677C0.0332869 23.9677 3.92788 24.2673 5.12621 23.0689C6.32455 21.8706 6.32455 20.0731 5.12621 18.8748Z" fill="currentColor"/>
</g>
<defs>
<clipPath id="clip0_865_5200">
<rect width="24" height="24" fill="currentColor"/>
</clipPath>
</defs>
</svg>
