<svg width="24" height="24" viewBox="0 0 24 24"  xmlns="http://www.w3.org/2000/svg">
<g clip-path="url(#clip0_865_5214)">
<path fill-rule="evenodd" clip-rule="evenodd" d="M24.0002 0C19.5065 0.299584 15.7617 1.64771 12.9156 3.59501C9.76998 2.09709 6.02518 2.69625 3.47871 5.39251C3.02934 5.84189 2.57996 6.44105 2.13059 7.04022L5.87539 10.785C4.82684 12.5825 4.22767 13.7809 4.22767 13.7809L10.3691 19.9223C10.3691 19.9223 11.5675 19.473 13.365 18.2746L17.1098 22.0194C17.709 21.7198 18.3081 21.2705 18.7575 20.6713C21.304 18.1248 21.9031 14.2302 20.555 11.0846C22.3525 8.08877 23.7006 4.49376 24.0002 0ZM17.0101 8.98752C17.0101 10.0906 16.1159 10.9847 15.0128 10.9847C13.9098 10.9847 13.0156 10.0906 13.0156 8.98752C13.0156 7.88448 13.9098 6.99029 15.0128 6.99029C16.1159 6.99029 17.0101 7.88448 17.0101 8.98752Z" fill="currentColor"/>
<path d="M5.12621 18.8738C3.92788 17.6755 2.13037 17.6755 0.932039 18.8738C-0.266297 19.9223 0.0332871 23.9667 0.0332871 23.9667C0.0332871 23.9667 3.92788 24.2663 5.12621 23.068C6.32455 21.8696 6.32455 20.0721 5.12621 18.8738Z" fill="currentColor"/>
</g>
<defs>
<clipPath id="clip0_865_5214">
<rect width="24" height="24" fill="currentColor"/>
</clipPath>
</defs>
</svg>
