<svg width="24" height="24" viewBox="0 0 24 24" fill="none" xmlns="http://www.w3.org/2000/svg">
<g clip-path="url(#clip0_865_1228)">
<path d="M24 24H19.3714C19.3714 13.3714 10.6286 4.62857 0 4.62857V0C13.2 0 24 10.8 24 24ZM3.42857 24C5.32211 24 6.85714 22.465 6.85714 20.5714C6.85714 18.6778 5.32211 17.1429 3.42857 17.1429C1.53503 17.1429 0 18.6778 0 20.5714C0 22.465 1.53503 24 3.42857 24ZM11.4857 23.9998H15.9429C15.9429 15.2569 8.74286 8.05691 0 8.05691V12.5141C6.34286 12.5141 11.4857 17.6569 11.4857 23.9998Z" fill="#131415"/>
</g>
<defs>
<clipPath id="clip0_865_1228">
<rect width="24" height="24" fill="white"/>
</clipPath>
</defs>
</svg>
