<svg width="24" height="24" viewBox="0 0 24 24"  xmlns="http://www.w3.org/2000/svg">
<g clip-path="url(#clip0_865_5220)">
<path fill-rule="evenodd" clip-rule="evenodd" d="M1 0.25H0.25V5.75129H1C10.5254 5.75129 18.2487 13.4746 18.2487 23V23.75H23.75V23C23.75 10.4405 13.5595 0.25 1 0.25ZM1.75 4.26602V1.76301C12.8851 2.14977 21.8502 11.1149 22.237 22.25H19.734C19.35 12.4926 11.5074 4.64997 1.75 4.26602ZM1 8.25257H0.25V13.7539H1C6.09993 13.7539 10.2461 17.9001 10.2461 23V23.75H15.7474V23C15.7474 14.8519 9.14815 8.25257 1 8.25257ZM1.75 12.2797V9.77342C8.47216 10.1481 13.8519 15.5278 14.2266 22.25H11.7203C11.3515 16.9184 7.08159 12.6485 1.75 12.2797ZM3.5 17.25C1.70507 17.25 0.25 18.7051 0.25 20.5C0.25 22.2949 1.70507 23.75 3.5 23.75C5.29493 23.75 6.75 22.2949 6.75 20.5C6.75 18.7051 5.29493 17.25 3.5 17.25ZM1.75 20.5C1.75 19.5335 2.5335 18.75 3.5 18.75C4.4665 18.75 5.25 19.5335 5.25 20.5C5.25 21.4665 4.4665 22.25 3.5 22.25C2.5335 22.25 1.75 21.4665 1.75 20.5Z" fill="currentColor"/>
</g>
<defs>
<clipPath id="clip0_865_5220">
<rect width="24" height="24" fill="currentColor"/>
</clipPath>
</defs>
</svg>
