<svg width="24" height="24" viewBox="0 0 24 24"  xmlns="http://www.w3.org/2000/svg">
<path fill-rule="evenodd" clip-rule="evenodd" d="M17.8985 5.1072C17.3235 5.1072 16.7535 5.1952 16.2005 5.3672C15.3235 4.3902 14.0755 3.8192 12.7755 3.8192C11.6515 3.8192 10.5865 4.2292 9.75149 4.9652C8.87649 3.8602 7.55449 3.2002 6.13549 3.2002C3.57049 3.2002 1.48249 5.3392 1.48249 7.9682C1.48249 8.5432 1.58649 9.1172 1.78649 9.6562C0.658488 10.5552 0.000488281 11.9192 0.000488281 13.4062C0.000488281 16.0352 2.08749 18.1742 4.65349 18.1742C4.73149 18.1742 4.80849 18.1712 4.88549 18.1662C5.67249 19.7452 7.28049 20.7762 9.02949 20.7762C10.5545 20.7762 11.9685 20.0112 12.8355 18.7492C14.5455 19.1802 16.3725 18.5352 17.4855 17.1732C17.6225 17.1842 17.7595 17.1912 17.8985 17.1912C21.1465 17.1912 23.7905 14.4812 23.7905 11.1502C23.7905 7.8182 21.1465 5.1072 17.8985 5.1072ZM13.29 8.91349L9.83096 12.4735L8.19196 10.7885C7.94196 10.5315 7.52896 10.5245 7.27296 10.7755C7.01596 11.0255 7.01096 11.4375 7.26096 11.6945L9.83096 14.3385L14.222 9.81949C14.473 9.56149 14.466 9.15049 14.209 8.90049C13.953 8.65049 13.54 8.65649 13.29 8.91349Z" fill="currentColor"/>
</svg>
