<svg width="24" height="24" viewBox="0 0 24 24"  xmlns="http://www.w3.org/2000/svg">
<path d="M9.91696 12.3551L13.4064 8.76374C13.6586 8.50448 14.0753 8.49842 14.3335 8.75062C14.5928 9.00283 14.5998 9.41745 14.3466 9.67772L9.91696 14.2366L7.32433 11.5693C7.07213 11.31 7.07717 10.8944 7.33643 10.6422C7.59469 10.389 8.01132 10.396 8.26353 10.6553L9.91696 12.3551Z" fill="currentColor"/>
<path fill-rule="evenodd" clip-rule="evenodd" d="M6.18952 3C7.45088 3 8.63627 3.51695 9.50412 4.40247C9.62117 4.52191 9.73245 4.64806 9.83736 4.78054C9.96199 4.67069 10.0917 4.56804 10.2259 4.47286C10.9989 3.92473 11.9219 3.62445 12.888 3.62445C14.1994 3.62445 15.4584 4.20048 16.3432 5.18608C16.901 5.01257 17.476 4.92379 18.0561 4.92379C21.3327 4.92379 24 7.65867 24 11.0201C24 14.3804 21.3327 17.1143 18.0561 17.1143C17.9159 17.1143 17.7777 17.1072 17.6395 17.0961C16.5167 18.4701 14.6736 19.1208 12.9485 18.686C12.0739 19.9591 10.6474 20.7308 9.109 20.7308C7.3446 20.7308 5.72244 19.6907 4.92851 18.0978C4.85083 18.1029 4.77315 18.1059 4.69447 18.1059C2.10587 18.1059 0.000488281 15.9481 0.000488281 13.2959C0.000488281 11.7958 0.664283 10.4198 1.80222 9.51285C1.60046 8.96911 1.49554 8.39005 1.49554 7.80999C1.49554 5.15784 3.60193 3 6.18952 3ZM15.2171 6.1969L15.8656 6.91934L16.7926 6.63102C17.2078 6.50186 17.6314 6.437 18.0561 6.437C20.4612 6.437 22.4868 8.45819 22.4868 11.0201C22.4868 13.5804 20.4617 15.601 18.0561 15.601C17.9664 15.601 17.87 15.5965 17.7606 15.5877L16.9698 15.5242L16.4677 16.1386C15.6997 17.0785 14.449 17.5036 13.3184 17.2187L12.2975 16.9613L11.7013 17.8291C11.1002 18.7041 10.1337 19.2176 9.109 19.2176C7.94227 19.2176 6.83157 18.5238 6.28282 17.4228L5.83415 16.5226L4.83046 16.5878C4.77873 16.5912 4.73436 16.5927 4.69447 16.5927C2.97629 16.5927 1.5137 15.1475 1.5137 13.2959C1.5137 12.2495 1.97312 11.3117 2.74534 10.6963L3.602 10.0135L3.22091 8.98644C3.08109 8.60962 3.00875 8.20873 3.00875 7.80999C3.00875 5.95865 4.47214 4.51321 6.18952 4.51321C7.14538 4.51321 8.04699 4.9571 8.65105 5.71993L9.6413 6.97049L10.838 5.91572C11.4078 5.41345 12.1276 5.13766 12.888 5.13766C13.7564 5.13766 14.6103 5.52097 15.2171 6.1969Z" fill="currentColor"/>
</svg>
