<svg width="24" height="24" viewBox="0 0 24 24"  xmlns="http://www.w3.org/2000/svg">
<path fill-rule="evenodd" clip-rule="evenodd" d="M1.5 0.75C1.5 0.335787 1.83579 0 2.25 0H21.75C22.1642 0 22.5 0.335787 22.5 0.75C22.5 1.16421 22.1642 1.5 21.75 1.5H19.5V2.25C19.5 6.1945 18.3108 9.93393 16.1658 12C18.3108 14.0661 19.5 17.8055 19.5 21.75V22.5H21.75C22.1642 22.5 22.5 22.8358 22.5 23.25C22.5 23.6642 22.1642 24 21.75 24H2.25C1.83579 24 1.5 23.6642 1.5 23.25C1.5 22.8358 1.83579 22.5 2.25 22.5H4.5V21.75C4.5 17.8055 5.6892 14.0661 7.83414 12C5.6892 9.93393 4.5 6.1945 4.5 2.25V1.5H2.25C1.83579 1.5 1.5 1.16421 1.5 0.75ZM6 22.5H18V21.75C18 17.5916 16.5949 14.0694 14.5624 12.6091C14.3663 12.4682 14.25 12.2415 14.25 12C14.25 11.7585 14.3663 11.5318 14.5624 11.3909C16.5949 9.9306 18 6.4084 18 2.25V1.5H6V2.25C6 6.4084 7.40502 9.9306 9.43761 11.3909C9.63372 11.5318 9.75 11.7585 9.75 12C9.75 12.2415 9.63372 12.4682 9.43761 12.6091C7.40502 14.0694 6 17.5916 6 21.75V22.5Z" fill="currentColor"/>
</svg>
