<svg width="24" height="24" viewBox="0 0 24 24"  xmlns="http://www.w3.org/2000/svg">
<g clip-path="url(#clip0_865_5612)">
<path d="M22.5 3C23.4 3 24 2.4 24 1.5C24 0.6 23.4 0 22.5 0H1.5C0.6 0 0 0.6 0 1.5C0 2.4 0.6 3 1.5 3H3C3.15 6.6 4.2 9.75 6 12C4.2 14.1 3 17.4 3 21H1.5C0.6 21 0 21.6 0 22.5C0 23.4 0.6 24 1.5 24H22.5C23.4 24 24 23.4 24 22.5C24 21.6 23.4 21 22.5 21H21C20.85 17.25 19.8 14.1 18 12C19.95 9.75 21 6.6 21 3H22.5ZM14.85 10.95L13.5 12.15L15 13.2C16.8 14.55 18 17.55 18.15 21H6C6.15 17.55 7.35 14.55 9.15 13.2L10.65 12.15L9.15 10.95C7.2 9.15 6.15 6.3 6 3H18C17.85 6.3 16.8 9.15 14.85 10.95Z" fill="currentColor"/>
</g>
<defs>
<clipPath id="clip0_865_5612">
<rect width="24" height="24" fill="currentColor"/>
</clipPath>
</defs>
</svg>
