<svg width="24" height="24" viewBox="0 0 24 24"  xmlns="http://www.w3.org/2000/svg">
<g clip-path="url(#clip0_865_6028)">
<path fill-rule="evenodd" clip-rule="evenodd" d="M0 0.75C0 0.335786 0.335786 0 0.75 0H17.25C17.4489 0 17.6397 0.0790176 17.7803 0.21967L23.7803 6.21967C23.921 6.36032 24 6.55109 24 6.75V23.25C24 23.6642 23.6642 24 23.25 24H0.75C0.335786 24 0 23.6642 0 23.25V0.75ZM1.5 1.5V22.5H22.5V7.06066L16.9393 1.5H1.5ZM5.25 3C5.66421 3 6 3.33579 6 3.75V7.5H13.5V3.75C13.5 3.33579 13.8358 3 14.25 3C14.6642 3 15 3.33579 15 3.75V8.25C15 8.66421 14.6642 9 14.25 9H5.25C4.83579 9 4.5 8.66421 4.5 8.25V3.75C4.5 3.33579 4.83579 3 5.25 3ZM4.5 14.25C4.5 13.8358 4.83579 13.5 5.25 13.5H18.75C19.1642 13.5 19.5 13.8358 19.5 14.25V20.25C19.5 20.6642 19.1642 21 18.75 21C18.3358 21 18 20.6642 18 20.25V15H6V20.25C6 20.6642 5.66421 21 5.25 21C4.83579 21 4.5 20.6642 4.5 20.25V14.25Z" fill="currentColor"/>
</g>
<defs>
<clipPath id="clip0_865_6028">
<rect width="24" height="24" fill="currentColor"/>
</clipPath>
</defs>
</svg>
