<svg width="24" height="24" viewBox="0 0 24 24"  xmlns="http://www.w3.org/2000/svg">
<path d="M16.4 1H7.6C6.3867 1 5.4 1.97855 5.4 3.18182V20.8182C5.4 22.0215 6.3867 23 7.6 23H16.4C17.6133 23 18.6 22.0215 18.6 20.8182V3.18182C18.6 1.97855 17.6133 1 16.4 1ZM12 19.8182C11.3928 19.8182 10.9 19.3294 10.9 18.7273C10.9 18.1251 11.3928 17.6364 12 17.6364C12.6072 17.6364 13.1 18.1251 13.1 18.7273C13.1 19.3294 12.6072 19.8182 12 19.8182ZM16.4 14.2H7.6V3.18182H16.4V14.2Z" fill="currentColor"/>
<path d="M19.4717 6.34153C19.6536 6.12855 19.9416 6.12855 20.116 6.34153C20.2827 6.5545 20.836 7.33232 20.7981 8.48052C20.7678 9.48057 20.3055 10.1473 20.116 10.3788C20.025 10.4899 19.9113 10.5454 19.79 10.5454C19.6687 10.5454 19.555 10.4899 19.4717 10.388C19.2897 10.175 19.2897 9.82318 19.4717 9.60094C19.5929 9.45279 19.8734 9.04536 19.8886 8.43422C19.9113 7.73048 19.5702 7.24898 19.4641 7.11934C19.2897 6.89711 19.2897 6.54524 19.4641 6.33227L19.4717 6.34153Z" fill="currentColor"/>
<path d="M21.9093 8.45365C21.9366 6.99747 21.1829 6.00687 20.9469 5.7295C20.738 5.49176 20.7562 5.11533 20.9741 4.88749C21.192 4.65965 21.5371 4.67947 21.7459 4.91721C22.1363 5.37288 23.0353 6.63094 22.9989 8.47346C22.9626 10.207 22.1091 11.3858 21.7459 11.8118C21.6369 11.9406 21.4917 12 21.3464 12C21.2102 12 21.0831 11.9505 20.9741 11.8415C20.7562 11.6137 20.7471 11.2372 20.9469 10.9995C21.2283 10.6726 21.8821 9.77114 21.9093 8.44374V8.45365Z" fill="currentColor"/>
<path d="M4.52833 6.34153C4.34642 6.12855 4.05838 6.12855 3.88404 6.34153C3.71729 6.5545 3.16396 7.33232 3.20186 8.48052C3.23218 9.48057 3.69455 10.1473 3.88404 10.3788C3.975 10.4899 4.0887 10.5454 4.20998 10.5454C4.33126 10.5454 4.44496 10.4899 4.52833 10.388C4.71025 10.175 4.71025 9.82318 4.52833 9.60094C4.40706 9.45279 4.1266 9.04536 4.11144 8.43422C4.0887 7.73048 4.4298 7.24898 4.53591 7.11934C4.71025 6.89711 4.71025 6.54524 4.53591 6.33227L4.52833 6.34153Z" fill="currentColor"/>
<path d="M2.09066 8.45365C2.06342 6.99747 2.81706 6.00687 3.05313 5.7295C3.26197 5.49176 3.24381 5.11533 3.02589 4.88749C2.80798 4.65965 2.46294 4.67947 2.2541 4.91721C1.86366 5.37288 0.964749 6.63094 1.00107 8.47346C1.03739 10.207 1.8909 11.3858 2.2541 11.8118C2.36306 11.9406 2.50834 12 2.65362 12C2.78982 12 2.91694 11.9505 3.02589 11.8415C3.24381 11.6137 3.25289 11.2372 3.05313 10.9995C2.77166 10.6726 2.1179 9.77114 2.09066 8.44374V8.45365Z" fill="currentColor"/>
<path d="M11.0405 5.53778C11.0187 5.24765 11.2482 5.00019 11.5391 5.00019H12.4609C12.7518 5.00019 12.9813 5.24765 12.9595 5.53778L12.7015 8.95883C12.6819 9.21965 12.4645 9.42124 12.2029 9.42124H11.7971C11.5355 9.42124 11.3181 9.21965 11.2985 8.95883L11.0405 5.53778Z" fill="currentColor"/>
<path d="M13 11.0002C13 11.5525 12.5523 12.0002 12 12.0002C11.4477 12.0002 11 11.5525 11 11.0002C11 10.4479 11.4477 10.0002 12 10.0002C12.5523 10.0002 13 10.4479 13 11.0002Z" fill="currentColor"/>
</svg>
