<svg width="24" height="24" viewBox="0 0 24 24"  xmlns="http://www.w3.org/2000/svg">
<path fill-rule="evenodd" clip-rule="evenodd" d="M23 1H1C0.448 1 0 1.447 0 2V18C0 18.553 0.448 19 1 19H23C23.552 19 24 18.553 24 18V2C24 1.447 23.552 1 23 1ZM13 14.5C13 14.7761 12.7761 15 12.5 15H11.5C11.2239 15 11 14.7761 11 14.5V10.5C11 10.2239 10.7761 10 10.5 10H7.87016C7.66572 10 7.5 9.83428 7.5 9.62984C7.5 9.54579 7.52861 9.46424 7.58111 9.39861L11.3379 4.70265C11.4403 4.57456 11.5955 4.5 11.7595 4.5C11.9126 4.5 12.0585 4.56497 12.1609 4.67875L16.4072 9.39694C16.467 9.46329 16.5 9.54939 16.5 9.63866C16.5 9.83822 16.3382 10 16.1387 10H13.5C13.2239 10 13 10.2239 13 10.5V14.5ZM6 21H18C18.9 21 19.5 21.6 19.5 22.5C19.5 23.4 18.9 24 18 24H6C5.1 24 4.5 23.4 4.5 22.5C4.5 21.6 5.1 21 6 21Z" fill="currentColor"/>
</svg>
