<svg width="24" height="24" viewBox="0 0 24 24"  xmlns="http://www.w3.org/2000/svg">
<g clip-path="url(#clip0_865_6934)">
<path fill-rule="evenodd" clip-rule="evenodd" d="M2.57336 0.452196C1.99468 -0.140605 1.045 -0.152047 0.452196 0.426639C-0.140605 1.00533 -0.152047 1.955 0.426639 2.54781L20.9266 23.5478C21.5053 24.1406 22.455 24.152 23.0478 23.5734C23.6406 22.9947 23.652 22.045 23.0734 21.4522L20.6796 19H23C23.552 19 24 18.553 24 18V2C24 1.447 23.552 1 23 1H3.10812L2.57336 0.452196ZM9.25916 7.30106L13 11.1331V10.5C13 10.2239 13.2239 10 13.5 10H16.1387C16.3382 10 16.5 9.83822 16.5 9.63866C16.5 9.54939 16.467 9.46329 16.4072 9.39694L12.1609 4.67875C12.0585 4.56497 11.9126 4.5 11.7595 4.5C11.5955 4.5 11.4404 4.57456 11.3379 4.70265L9.25916 7.30106ZM0 18C0 18.553 0.448001 19 1 19H12.5L0 6.5V18ZM6 21C5.1 21 4.5 21.6 4.5 22.5C4.5 23.4 5.1 24 6 24H17.5L14.5 21H6Z" fill="currentColor"/>
</g>
<defs>
<clipPath id="clip0_865_6934">
<rect width="24" height="24" fill="currentColor"/>
</clipPath>
</defs>
</svg>
