<svg width="25" height="24" viewBox="0 0 25 24"  xmlns="http://www.w3.org/2000/svg">
<g clip-path="url(#clip0_865_6928)">
<path fill-rule="evenodd" clip-rule="evenodd" d="M1.28033 0.46967C0.987437 0.176777 0.512563 0.176777 0.21967 0.46967C-0.0732233 0.762563 -0.0732233 1.23744 0.21967 1.53033L22.2197 23.5303C22.5126 23.8232 22.9874 23.8232 23.2803 23.5303C23.5732 23.2374 23.5732 22.7626 23.2803 22.4697L20.8107 20H22.25C23.3546 20 24.25 19.1046 24.25 18V3C24.25 1.89543 23.3546 1 22.25 1H2.25001C2.08878 1 1.94265 1 1.81221 1.00155L1.28033 0.46967ZM3.31066 2.5L8.82182 8.01115C8.82582 8.00765 8.82988 8.00418 8.83399 8.00075L11.6372 5.66476C11.6738 5.63426 11.7121 5.60694 11.7517 5.58279C11.871 5.44054 12.05 5.3501 12.2501 5.3501C12.4559 5.3501 12.6393 5.44571 12.7584 5.59493C12.7975 5.62003 12.8351 5.64826 12.8709 5.67962L16.6781 9.01092C16.9483 9.24732 16.9757 9.65796 16.7393 9.92813C16.5029 10.1983 16.0923 10.2257 15.8221 9.98927L12.9001 7.43255V12.0895L19.3107 18.5H22.25C22.5262 18.5 22.75 18.2761 22.75 18V3C22.75 2.72386 22.5262 2.5 22.25 2.5H3.31066ZM11.6001 10.7895V7.38787L9.74471 8.93405L11.6001 10.7895ZM1.75 18C1.75 18.2761 1.97386 18.5 2.25 18.5H14.25L15.75 20H2.25C1.14543 20 0.25 19.1046 0.25 18V4.5L1.75 6V18ZM7 21.5C6.55 21.5 6.25 21.8 6.25 22.25C6.25 22.7 6.55 23 7 23H17.5C17.8603 23 18.1245 22.8077 18.2154 22.5L17.25 21.5H7Z" fill="currentColor"/>
</g>
<defs>
<clipPath id="clip0_865_6928">
<rect width="25" height="24" fill="currentColor"/>
</clipPath>
</defs>
</svg>
