<svg width="24" height="24" viewBox="0 0 24 24"  xmlns="http://www.w3.org/2000/svg">
<path fill-rule="evenodd" clip-rule="evenodd" d="M22 2.5H2C1.72386 2.5 1.5 2.72386 1.5 3V18C1.5 18.2761 1.72386 18.5 2 18.5H22C22.2761 18.5 22.5 18.2761 22.5 18V3C22.5 2.72386 22.2761 2.5 22 2.5ZM2 1C0.895431 1 0 1.89543 0 3V18C0 19.1046 0.89543 20 2 20H22C23.1046 20 24 19.1046 24 18V3C24 1.89543 23.1046 1 22 1H2ZM6.75 21.5C6.3 21.5 6 21.8 6 22.25C6 22.7 6.3 23 6.75 23H17.25C17.7 23 18 22.7 18 22.25C18 21.8 17.7 21.5 17.25 21.5H6.75ZM12.65 7.43245L15.572 9.98917C15.8421 10.2256 16.2528 10.1982 16.4892 9.92803C16.7256 9.65786 16.6982 9.24722 16.428 9.01083L12.6256 5.68368C12.5888 5.65152 12.5502 5.62265 12.5101 5.59709C12.391 5.44658 12.2068 5.35 12 5.35C11.7932 5.35 11.609 5.44658 11.4899 5.59709C11.4498 5.62265 11.4112 5.65152 11.3744 5.68368L7.57197 9.01083C7.30181 9.24722 7.27443 9.65786 7.51083 9.92803C7.74722 10.1982 8.15786 10.2256 8.42803 9.98917L11.35 7.43245V15C11.35 15.359 11.641 15.65 12 15.65C12.359 15.65 12.65 15.359 12.65 15V7.43245Z" fill="currentColor"/>
</svg>
