<svg width="24" height="24" viewBox="0 0 24 24"  xmlns="http://www.w3.org/2000/svg">
<path fill-rule="evenodd" clip-rule="evenodd" d="M9.68162 3.85625C9.87999 3.83013 10.0782 3.78335 10.2457 3.67392C10.5808 3.455 10.8577 3.15547 11.0497 2.80215C11.2218 2.4853 10.966 2.13845 10.6054 2.13845C5.79414 2.13845 1.90009 6.05549 1.90009 10.8794C1.90013 15.7033 5.79417 19.6202 10.6054 19.6202C12.732 19.6201 14.6808 18.8536 16.1918 17.5829L20.4842 21.8944C20.8071 22.2188 21.3317 22.2199 21.6561 21.897C21.9804 21.5741 21.9816 21.0495 21.6587 20.7251L17.354 16.4006C18.5767 14.8955 19.3106 12.9727 19.3106 10.8794C19.3106 10.6197 19.2993 10.3626 19.2772 10.1086C19.2762 10.0978 19.2661 10.0903 19.2555 10.0925C17.9372 10.3619 17.6963 11.9866 17.2472 13.255C16.8987 14.2392 16.3398 15.1228 15.6245 15.852C14.345 17.1563 12.5693 17.9627 10.6054 17.9627C6.7166 17.9627 3.5576 14.795 3.55755 10.8794C3.55755 7.27907 6.22838 4.31086 9.68162 3.85625Z" fill="currentColor"/>
<path d="M14.9987 1.51126C15.0693 1.26708 15.1398 1.26708 15.2105 1.51126C15.7939 3.52825 17.9689 5.70332 19.9859 6.28671C20.2301 6.35733 20.2301 6.42787 19.9859 6.49849C17.9689 7.08188 15.7939 9.25695 15.2105 11.2739C15.1398 11.5181 15.0693 11.5181 14.9987 11.2739C14.4153 9.25695 12.2402 7.08188 10.2232 6.49849C9.97905 6.42787 9.97905 6.35733 10.2232 6.28671C12.2402 5.70332 14.4153 3.52825 14.9987 1.51126Z" fill="currentColor"/>
</svg>
