<svg width="24" height="24" viewBox="0 0 24 24"  xmlns="http://www.w3.org/2000/svg">
<path d="M16.0726 12.7744C16.0252 12.9057 15.9731 13.0348 15.9165 13.1613C15.6417 13.7754 15.2602 14.3308 14.7955 14.8045C13.7792 15.8406 12.3724 16.4784 10.8159 16.4784C7.73539 16.4784 5.22572 13.9678 5.22572 10.8556C5.22572 9.07508 6.04716 7.49149 7.32698 6.46228C8.37959 5.61579 9.78084 5.09817 10.323 3.86097C10.5716 3.2936 10.7096 2.66674 10.7096 2.00765C9.40452 2.02311 8.16839 2.32292 7.05936 2.84795C6.99767 2.87715 6.93637 2.90705 6.87547 2.93764C6.16836 3.29285 5.51563 3.74065 4.93294 4.26511C4.87314 4.31894 4.81408 4.37357 4.75577 4.429C4.68585 4.49546 4.61701 4.56305 4.54929 4.63175C4.50026 4.68149 4.45182 4.73182 4.40397 4.78271C4.35328 4.83662 4.30326 4.89117 4.25392 4.94634C4.22965 4.97348 4.20555 5.00076 4.18161 5.0282C4.14546 5.06964 4.10969 5.11142 4.0743 5.15354C3.8832 5.38096 3.70333 5.61818 3.53553 5.86432C2.56636 7.28593 1.99988 9.00525 1.99988 10.8556C1.99988 15.7357 5.9401 19.7042 10.8159 19.7042C12.6316 19.7042 14.3198 19.1522 15.7215 18.2087L19.2441 21.7473C19.8726 22.3785 20.8938 22.3808 21.5251 21.7523C22.1564 21.1239 22.1586 20.1027 21.5301 19.4714L18.0248 15.9501C19.0368 14.5096 19.632 12.751 19.632 10.8556C19.632 10.6082 19.6218 10.3632 19.602 10.1209C18.0281 10.3521 16.7121 11.3762 16.0726 12.7744Z" fill="currentColor"/>
<path d="M14.9078 1.77294C14.9765 1.53532 15.0451 1.53532 15.1139 1.77294C15.6816 3.73573 17.7982 5.85233 19.761 6.42004C19.9986 6.48877 19.9986 6.55741 19.761 6.62614C17.7982 7.19385 15.6816 9.31046 15.1139 11.2732C15.0451 11.5109 14.9765 11.5109 14.9078 11.2732C14.3401 9.31046 12.2235 7.19385 10.2607 6.62614C10.0231 6.55741 10.0231 6.48877 10.2607 6.42004C12.2235 5.85233 14.3401 3.73573 14.9078 1.77294Z" fill="currentColor"/>
</svg>
