<svg width="24" height="24" viewBox="0 0 24 24"  xmlns="http://www.w3.org/2000/svg">
<g clip-path="url(#clip0_865_5453)">
<path fill-rule="evenodd" clip-rule="evenodd" d="M16.8425 18.1441C15.0855 19.6785 12.7977 20.6072 10.2922 20.6072C4.73576 20.6072 0.25 16.0397 0.25 10.4286C0.25 4.81746 4.73576 0.25 10.2922 0.25C15.8486 0.25 20.3343 4.81746 20.3343 10.4286C20.3343 12.9669 19.4164 15.2917 17.8965 17.0767L23.2155 22.4737C23.5063 22.7687 23.5028 23.2436 23.2078 23.5344C22.9128 23.8251 22.4379 23.8216 22.1471 23.5266L16.8425 18.1441ZM1.75 10.4286C1.75 5.6252 5.58473 1.75 10.2922 1.75C14.9996 1.75 18.8343 5.6252 18.8343 10.4286C18.8343 12.8131 17.8894 14.9688 16.3618 16.5353C16.3527 16.5434 16.3437 16.5519 16.3349 16.5605C16.3208 16.5744 16.3074 16.5887 16.2946 16.6034C14.7503 18.1525 12.6287 19.1072 10.2922 19.1072C5.58473 19.1072 1.75 15.232 1.75 10.4286Z" fill="currentColor"/>
</g>
<defs>
<clipPath id="clip0_865_5453">
<rect width="24" height="24" fill="currentColor"/>
</clipPath>
</defs>
</svg>
