<svg width="24" height="24" viewBox="0 0 24 24"  xmlns="http://www.w3.org/2000/svg">
<g clip-path="url(#clip0_865_5459)">
<path d="M23.5605 19.9395L19.5 15.879C20.445 14.304 21 12.4665 21 10.5C21 4.71 16.2885 0 10.5 0C4.7115 0 0 4.71 0 10.5C0 16.29 4.7115 21 10.5 21C12.468 21 14.304 20.4465 15.879 19.5L19.9395 23.5605C20.232 23.853 20.616 24 21 24C21.384 24 21.768 23.853 22.0605 23.5605L23.5605 22.0605C24.147 21.474 24.147 20.526 23.5605 19.9395ZM10.5 18C6.3585 18 3 14.6415 3 10.5C3 6.3585 6.3585 3 10.5 3C14.6415 3 18 6.3585 18 10.5C18 14.6415 14.6415 18 10.5 18Z" fill="currentColor"/>
</g>
<defs>
<clipPath id="clip0_865_5459">
<rect width="24" height="24" fill="currentColor"/>
</clipPath>
</defs>
</svg>
