<svg width="24" height="24" viewBox="0 0 24 24"  xmlns="http://www.w3.org/2000/svg">
<g clip-path="url(#clip0_865_7260)">
<path d="M0 2C0 0.89543 0.895431 0 2 0H7C8.10457 0 9 0.895431 9 2V7C9 8.10457 8.10457 9 7 9H2C0.89543 9 0 8.10457 0 7V2ZM5 11V17C5 18.1046 5.89543 19 7 19H13V16C13 14.3431 14.3431 13 16 13H19V7C19 5.89543 18.1046 5 17 5H11V8C11 9.65685 9.65685 11 8 11H5ZM17 15C15.8954 15 15 15.8954 15 17V22C15 23.1046 15.8954 24 17 24H22C23.1046 24 24 23.1046 24 22V17C24 15.8954 23.1046 15 22 15H17Z" fill="currentColor"/>
</g>
<defs>
<clipPath id="clip0_865_7260">
<rect width="24" height="24" fill="currentColor"/>
</clipPath>
</defs>
</svg>
