<svg width="24" height="24" viewBox="0 0 24 24"  xmlns="http://www.w3.org/2000/svg">
<g clip-path="url(#clip0_865_7255)">
<path fill-rule="evenodd" clip-rule="evenodd" d="M9 11C10.1046 11 11 10.1046 11 9V2C11 0.895431 10.1046 0 9 0H2C0.895431 0 0 0.895431 0 2V9C0 10.1046 0.895431 11 2 11H9ZM13 22C13 23.1046 13.8954 24 15 24H22C23.1046 24 24 23.1046 24 22V15C24 13.8954 23.1046 13 22 13H15C13.8954 13 13 13.8954 13 15V22ZM6.5 17C6.5 17.2761 6.72386 17.5 7 17.5H11.5V19H7C5.89543 19 5 18.1046 5 17V12.5H6.5V17ZM17 5C18.1046 5 19 5.89543 19 7V11.5H17.5V7C17.5 6.72386 17.2761 6.5 17 6.5H12.5V5H17ZM2 1.5C1.72386 1.5 1.5 1.72386 1.5 2V9C1.5 9.27614 1.72386 9.5 2 9.5H9C9.27614 9.5 9.5 9.27614 9.5 9V2C9.5 1.72386 9.27614 1.5 9 1.5H2ZM15 14.5C14.7239 14.5 14.5 14.7239 14.5 15V22C14.5 22.2761 14.7239 22.5 15 22.5H22C22.2761 22.5 22.5 22.2761 22.5 22V15C22.5 14.7239 22.2761 14.5 22 14.5H15Z" fill="currentColor"/>
</g>
<defs>
<clipPath id="clip0_865_7255">
<rect width="24" height="24" fill="currentColor"/>
</clipPath>
</defs>
</svg>
