<svg width="24" height="24" viewBox="0 0 24 24"  xmlns="http://www.w3.org/2000/svg">
<path d="M18 9C20.481 9 22.5 6.981 22.5 4.5C22.5 2.019 20.481 0 18 0C15.519 0 13.5 2.019 13.5 4.5C13.5 4.8345 13.5435 5.1585 13.6125 5.4735L8.7825 8.4915C8.0145 7.881 7.056 7.5 6 7.5C3.519 7.5 1.5 9.519 1.5 12C1.5 14.481 3.519 16.5 6 16.5C7.056 16.5 8.0145 16.119 8.7825 15.5085L13.6125 18.5265C13.5435 18.8415 13.5 19.1655 13.5 19.5C13.5 21.981 15.519 24 18 24C20.481 24 22.5 21.981 22.5 19.5C22.5 17.019 20.481 15 18 15C16.944 15 15.9855 15.381 15.2175 15.9915L10.3875 12.9735C10.4565 12.6585 10.5 12.3345 10.5 12C10.5 11.6655 10.4565 11.3415 10.3875 11.0265L15.2175 8.0085C15.9855 8.619 16.944 9 18 9Z" fill="currentColor"/>
</svg>
