<svg width="24" height="24" viewBox="0 0 24 24"  xmlns="http://www.w3.org/2000/svg">
<path d="M17.5 15C16.15 15 14.95 15.6 14.2 16.5L9.7 13.65C9.85 13.2 10 12.6 10 12C10 11.4 9.85 10.8 9.7 10.35L14.2 7.5C14.95 8.4 16.3 9 17.5 9C20.05 9 22 7.05 22 4.5C22 1.95 20.05 0 17.5 0C14.95 0 13 1.95 13 4.5C13 5.1 13.15 5.7 13.3 6.15L8.8 9C8.05 8.1 6.85 7.5 5.5 7.5C2.95 7.5 1 9.45 1 12C1 14.55 2.95 16.5 5.5 16.5C6.85 16.5 8.05 15.9 8.8 15L13.3 17.85C13.15 18.3 13 18.9 13 19.5C13 22.05 14.95 24 17.5 24C20.05 24 22 22.05 22 19.5C22 16.95 20.05 15 17.5 15ZM17.5 1.5C19.15 1.5 20.5 2.85 20.5 4.5C20.5 6.15 19.15 7.5 17.5 7.5C16.45 7.5 15.55 6.9 14.95 6.15C14.65 5.55 14.5 5.1 14.5 4.5C14.5 2.85 15.85 1.5 17.5 1.5ZM8.05 13.5C7.45 14.4 6.55 15 5.5 15C3.85 15 2.5 13.65 2.5 12C2.5 10.35 3.85 9 5.5 9C6.55 9 7.45 9.6 8.05 10.35C8.35 10.95 8.5 11.4 8.5 12C8.5 12.6 8.35 13.05 8.05 13.5ZM17.5 22.5C15.85 22.5 14.5 21.15 14.5 19.5C14.5 18.9 14.65 18.45 14.95 18C15.55 17.25 16.45 16.65 17.5 16.65C19.15 16.65 20.5 18 20.5 19.65C20.5 21.3 19.15 22.5 17.5 22.5Z" fill="currentColor"/>
</svg>
