<svg width="24" height="24" viewBox="0 0 24 24"  xmlns="http://www.w3.org/2000/svg">
<g clip-path="url(#clip0_865_414)">
<path d="M13.5 16.5V6H18L12 0L6 6H10.5V16.5H13.5ZM1.49982 24H22.4998C22.9303 24 23.3398 23.8155 23.6233 23.493C23.9083 23.1705 24.0418 22.7415 23.9878 22.314L22.4878 10.314C22.3948 9.5625 21.7558 9 20.9998 9H16.4998V12H19.6753L20.8003 21H3.19932L4.32432 12H7.49982V9H2.99982C2.24382 9 1.60482 9.5625 1.51032 10.314L0.0103201 22.314C-0.0421799 22.7415 0.0898201 23.1705 0.37482 23.493C0.65982 23.8155 1.06932 24 1.49982 24Z" fill="currentColor"/>
</g>
<defs>
<clipPath id="clip0_865_414">
<rect width="24" height="24" fill="currentColor"/>
</clipPath>
</defs>
</svg>
