<svg width="24" height="24" viewBox="0 0 24 24"  xmlns="http://www.w3.org/2000/svg">
<path d="M3.4 8C2.92 8 2.6 8.3 2.6 8.6L1 22.1C1 22.4 1 22.55 1.16 22.7C1.32 22.85 1.64 23 1.8 23H22.2C22.52 23 22.68 22.85 22.84 22.7C23 22.55 23 22.25 23 22.1L21.4 8.6C21.4 8.3 21.08 8 20.6 8H16.8C16.32 8 16 8.3 16 8.75C16 9.2 16.32 9.5 16.64 9.5H19.8L21.24 21.5H2.6L4.04 9.5H7.2C7.68 9.5 8 9.2 8 8.75C8 8.3 7.68 8 7.2 8H3.4Z" fill="currentColor"/>
<path fill-rule="evenodd" clip-rule="evenodd" d="M11.5315 1.16435C11.8054 0.945217 12.1946 0.945217 12.4685 1.16435L17.4685 5.16435C17.792 5.42311 17.8444 5.89507 17.5857 6.21852C17.3269 6.54197 16.855 6.59441 16.5315 6.33565L12.75 3.31047V15.75C12.75 16.1642 12.4142 16.5 12 16.5C11.5858 16.5 11.25 16.1642 11.25 15.75V3.31047L7.46855 6.33565C7.1451 6.59441 6.67313 6.54197 6.41438 6.21852C6.15562 5.89507 6.20806 5.42311 6.53151 5.16435L11.5315 1.16435Z" fill="currentColor"/>
</svg>
