<svg width="24" height="24" viewBox="0 0 24 24"  xmlns="http://www.w3.org/2000/svg">
<g clip-path="url(#clip0_865_4916)">
<path fill-rule="evenodd" clip-rule="evenodd" d="M11.9998 0L12.4498 0.45C15.2998 3.15 19.0498 4.95 22.9498 5.4L23.5498 5.55V6.15H22.7998C23.5498 6.15 23.5498 6.15 23.5498 6.15C23.5498 6.15 23.5498 6.15 23.5498 6.3C23.5498 6.45 23.5498 6.6 23.5498 6.75C23.5498 7.05 23.5498 7.65 23.3998 8.25C23.2498 9.6 22.7998 11.25 22.1998 13.2C20.8498 16.95 17.8498 21.45 12.1498 23.7L11.9998 23.85L11.6998 23.7C5.99981 21.45 3.1498 16.95 1.6498 13.2C0.899805 11.25 0.599805 9.6 0.449805 8.25C0.299805 7.65 0.299805 7.05 0.299805 6.75C0.299805 6.6 0.299805 6.45 0.299805 6.3V6.15C0.299805 6.15 0.299805 6.15 1.0498 6.15H0.299805V5.4L0.899805 5.25C4.7998 4.8 8.5498 3 11.3998 0.3L11.9998 0ZM1.7998 6.75C1.7998 7.05 1.7998 7.5 1.9498 7.95C2.0998 9.15 2.3998 10.8 3.1498 12.6C4.4998 16.05 7.04981 19.95 11.9998 22.2C17.0998 20.1 19.6498 16.2 20.8498 12.6C21.4498 10.8 21.8998 9.15 22.0498 7.95C22.0498 7.5 22.1998 7.05 22.1998 6.75C18.4498 6.15 14.8498 4.5 11.9998 1.95C9.14981 4.5 5.5498 6.15 1.7998 6.75Z" fill="currentColor"/>
</g>
<defs>
<clipPath id="clip0_865_4916">
<rect width="24" height="24" fill="currentColor"/>
</clipPath>
</defs>
</svg>
