<svg width="24" height="24" viewBox="0 0 24 24"  xmlns="http://www.w3.org/2000/svg">
<path d="M19.9499 1.3501L20.5499 1.8001C22.4999 3.6001 23.6999 6.3001 23.8499 9.0001C23.8499 11.7001 22.6499 14.4001 20.5499 16.2001L19.9499 16.6501L18.8999 15.6001L19.4999 15.1501C21.1499 13.6501 22.1999 11.4001 22.1999 9.0001C22.1999 6.6001 21.2999 4.3501 19.4999 2.8501L18.8999 2.4001L19.9499 1.3501Z" fill="currentColor"/>
<path fill-rule="evenodd" clip-rule="evenodd" d="M12.7498 9.0002C12.7498 11.7002 10.4998 13.8002 7.94981 13.8002C5.39981 13.8002 3.2998 11.5502 3.2998 9.0002C3.2998 6.4502 5.2498 4.2002 7.94981 4.2002C10.6498 4.2002 12.7498 6.3002 12.7498 9.0002ZM11.2498 9.0002C11.2498 7.2002 9.74981 5.7002 7.94981 5.7002C6.14981 5.7002 4.7998 7.2002 4.7998 9.0002C4.7998 10.8002 6.14981 12.3002 7.94981 12.3002C9.74981 12.3002 11.2498 10.8002 11.2498 9.0002ZM8.09995 15.2998C10.05 15.2998 12 15.5998 13.5 16.1998C14.85 16.7998 15.75 18.1498 15.9 19.6498V22.6498H0.449951V19.6498C0.449951 18.1498 1.34995 16.7998 2.69995 16.1998C4.19995 15.5998 5.99995 15.2998 8.09995 15.2998ZM1.79995 19.7998V21.2998H14.1V19.7998C14.1 18.8998 13.65 17.9998 12.75 17.6998C11.4 17.0998 9.74995 16.7998 7.94995 16.7998C6.14995 16.7998 4.49995 17.0998 3.14995 17.6998C2.39995 17.9998 1.79995 18.8998 1.79995 19.7998Z" fill="currentColor"/>
<path d="M17.0999 5.25L15.8999 6.3L16.4999 6.9C16.9499 7.5 17.2499 8.25 17.2499 9C17.2499 9.75 16.9499 10.5 16.4999 11.1L16.0499 11.7L17.2499 12.75L17.6999 12.15C18.4499 11.25 18.8999 10.2 18.8999 9C18.8999 7.8 18.4499 6.75 17.6999 5.85L17.0999 5.25Z" fill="currentColor"/>
</svg>
