<svg width="24" height="24" viewBox="0 0 24 24"  xmlns="http://www.w3.org/2000/svg">
<g clip-path="url(#clip0_865_420)">
<path d="M18.2197 0.21967C18.5126 -0.0732233 18.9874 -0.0732233 19.2803 0.21967L23.7803 4.71967C23.8522 4.79158 23.9065 4.87445 23.9431 4.96291C23.9798 5.05134 24 5.14831 24 5.25C24 5.44194 23.9268 5.63388 23.7803 5.78033L19.2803 10.2803C18.9874 10.5732 18.5126 10.5732 18.2197 10.2803C17.9268 9.98744 17.9268 9.51256 18.2197 9.21967L21.4393 6H16.0868L4.31056 19.2483C4.16823 19.4084 3.96423 19.5 3.75 19.5H0.75C0.335786 19.5 0 19.1642 0 18.75C0 18.3358 0.335786 18 0.75 18H3.4132L15.1894 4.75173C15.3318 4.59161 15.5358 4.5 15.75 4.5H21.4393L18.2197 1.28033C17.9268 0.987437 17.9268 0.512563 18.2197 0.21967ZM12.9786 14.5018C12.7034 14.1922 12.2293 14.1642 11.9197 14.4394C11.6101 14.7146 11.5822 15.1886 11.8574 15.4982L15.1904 19.2482C15.3327 19.4084 15.5367 19.5 15.751 19.5H21.4393L18.2197 22.7197C17.9268 23.0126 17.9268 23.4874 18.2197 23.7803C18.5126 24.0732 18.9874 24.0732 19.2803 23.7803L23.7581 19.3026C23.9074 19.1655 24.001 18.9687 24.001 18.75C24.001 18.5313 23.9074 18.3345 23.7581 18.1974L19.2803 13.7197C18.9874 13.4268 18.5126 13.4268 18.2197 13.7197C17.9268 14.0126 17.9268 14.4874 18.2197 14.7803L21.4393 18H16.0878L12.9786 14.5018ZM0 5.25C0 4.83579 0.335786 4.5 0.75 4.5H3.75C3.96424 4.5 4.16826 4.59162 4.31058 4.75175L7.64358 8.50175C7.91876 8.81136 7.89085 9.28541 7.58125 9.56058C7.27164 9.83575 6.79759 9.80785 6.52242 9.49825L3.41318 6H0.75C0.335786 6 0 5.66421 0 5.25Z" fill="currentColor"/>
</g>
<defs>
<clipPath id="clip0_865_420">
<rect width="24" height="24" fill="currentColor"/>
</clipPath>
</defs>
</svg>
