<svg width="24" height="24" viewBox="0 0 24 24"  xmlns="http://www.w3.org/2000/svg">
<g clip-path="url(#clip0_865_426)">
<path d="M18 10.5V7.5H15.681L5.181 19.5H0.5C0.223858 19.5 0 19.2761 0 19V17C0 16.7239 0.223858 16.5 0.5 16.5H3.819L14.319 4.5H18V1.5L24 6L18 10.5ZM5.763 9.723L7.7565 7.4445L5.181 4.5H0.5C0.223858 4.5 0 4.72386 0 5V7C0 7.27614 0.223858 7.5 0.5 7.5H3.819L5.763 9.723ZM18.0006 16.5H15.6816L13.7376 14.2785L11.7441 16.557L14.3196 19.5H18.0006V22.5L24.0006 18L18.0006 13.5V16.5Z" fill="currentColor"/>
</g>
<defs>
<clipPath id="clip0_865_426">
<rect width="24" height="24" fill="currentColor"/>
</clipPath>
</defs>
</svg>
