<svg width="24" height="24" viewBox="0 0 24 24"  xmlns="http://www.w3.org/2000/svg">
<path d="M18.0423 0L18.2451 3.1592C10.9268 3.29152 7.15776 6.46726 6.34648 11.5451C7.44508 9.69263 10.1831 8.46864 13.2085 8.46864C18.2451 8.46864 21 11.8263 21 16.0276C21 21.0393 17.0451 24 12.2958 24C7.36057 24 3 20.7912 3 13.5134C3 5.06134 8.8817 0.148863 18.0423 0ZM12.3634 20.907C15.2028 20.907 17.5521 19.3356 17.5521 16.1764C17.5521 13.315 15.6423 11.3963 12.5155 11.3963C9.55776 11.3963 6.88733 13.0669 6.88733 16.1268C6.88733 18.9387 9.18593 20.907 12.3634 20.907Z" fill="currentColor"/>
</svg>
