<svg width="24" height="24" viewBox="0 0 24 24"  xmlns="http://www.w3.org/2000/svg">
<path fill-rule="evenodd" clip-rule="evenodd" d="M7.67308 3.66565C9.90922 1.46122 13.1008 0.182819 17.0065 0L17.0841 1.2141C13.4855 1.39354 10.628 2.51276 8.61399 4.4662C6.49396 6.52244 5.37046 9.44296 5.25136 12.9754C5.24206 13.2512 5.37988 14.5281 5.68599 13.5402C6.52302 10.8388 9.95422 9.04978 12.9712 9.04978C15.2282 9.04978 16.9739 9.83882 18.1555 11.1145C19.3397 12.393 20 14.2064 20 16.3346C20 18.7245 19.162 20.6273 17.799 21.9366C16.4308 23.2508 14.498 24 12.2634 24C9.91616 24 7.86851 23.1684 6.40395 21.4966C4.93619 19.8211 4 17.2394 4 13.6352C4 9.3063 5.34766 5.9581 7.67308 3.66565ZM12.3621 22.8407C14.1297 22.8407 15.7178 22.2741 16.8699 21.1663C18.0282 20.0526 18.6996 18.4357 18.6996 16.4384C18.6996 14.5755 18.1152 12.9798 17.0216 11.8496C15.9285 10.72 14.3755 10.1053 12.5267 10.1053C10.7455 10.1053 9.05747 10.6739 7.80457 11.7612C6.54205 12.8568 5.74486 14.4613 5.74486 16.4557C5.74486 20.2759 8.61896 22.8407 12.3621 22.8407Z" fill="currentColor"/>
</svg>
