<svg width="24" height="24" viewBox="0 0 24 24" fill="none" xmlns="http://www.w3.org/2000/svg">
<g clip-path="url(#clip0_865_1267)">
<path d="M5.01818 15.1636C5.01818 16.5818 3.92727 17.6727 2.50909 17.6727C1.09091 17.6727 0 16.5818 0 15.1636C0 13.7454 1.09091 12.6545 2.50909 12.6545H5.01818V15.1636ZM6.32715 15.1636C6.32715 13.7454 7.41806 12.6545 8.83624 12.6545C10.2544 12.6545 11.3453 13.7454 11.3453 15.1636V21.4909C11.3453 22.9091 10.2544 24 8.83624 24C7.41806 24 6.32715 22.9091 6.32715 21.4909V15.1636Z" fill="#E01E5A"/>
<path d="M8.83624 5.01818C7.41806 5.01818 6.32715 3.92727 6.32715 2.50909C6.32715 1.09091 7.41806 0 8.83624 0C10.2544 0 11.3453 1.09091 11.3453 2.50909V5.01818H8.83624ZM8.83635 6.32739C10.2545 6.32739 11.3454 7.4183 11.3454 8.83648C11.3454 10.2547 10.2545 11.3456 8.83635 11.3456H2.50909C1.09091 11.3456 0 10.2547 0 8.83648C0 7.4183 1.09091 6.32739 2.50909 6.32739H8.83635Z" fill="#36C5F0"/>
<path d="M18.9819 8.83648C18.9819 7.4183 20.0728 6.32739 21.491 6.32739C22.9092 6.32739 24.0001 7.4183 24.0001 8.83648C24.0001 10.2547 22.9092 11.3456 21.491 11.3456H18.9819V8.83648ZM17.6727 8.83635C17.6727 10.2545 16.5818 11.3454 15.1636 11.3454C13.7454 11.3454 12.6545 10.2545 12.6545 8.83635V2.50909C12.6545 1.09091 13.7454 0 15.1636 0C16.5818 0 17.6727 1.09091 17.6727 2.50909V8.83635Z" fill="#2EB67D"/>
<path d="M15.1636 18.9817C16.5818 18.9817 17.6727 20.0726 17.6727 21.4908C17.6727 22.909 16.5818 23.9999 15.1636 23.9999C13.7454 23.9999 12.6545 22.909 12.6545 21.4908V18.9817H15.1636ZM15.1636 17.6727C13.7454 17.6727 12.6545 16.5818 12.6545 15.1636C12.6545 13.7454 13.7454 12.6545 15.1636 12.6545H21.4909C22.9091 12.6545 24 13.7454 24 15.1636C24 16.5818 22.9091 17.6727 21.4909 17.6727H15.1636Z" fill="#ECB22E"/>
</g>
<defs>
<clipPath id="clip0_865_1267">
<rect width="24" height="24" fill="white"/>
</clipPath>
</defs>
</svg>
