<svg width="24" height="24" viewBox="0 0 24 24"  xmlns="http://www.w3.org/2000/svg">
<path d="M13.3113 1C13.6141 1 13.7756 1.34742 13.5615 1.56152C12.7807 2.34237 11.9617 2.82487 11.3838 2.99219C11.2325 3.03595 10.9035 3.13703 10.5527 3.33984C10.3777 3.44105 10.0534 3.64825 9.74414 4.00586C9.41776 4.38337 9 5.06419 9 6C9.00009 6.93565 9.4178 7.6157 9.74414 7.99316C10.0534 8.3509 10.3777 8.55796 10.5527 8.65918C10.9036 8.86205 11.2325 8.96307 11.3838 9.00684C11.9614 9.174 12.7796 9.65739 13.5605 10.4385C14.3417 11.2198 14.825 12.0391 14.9922 12.6172L15.0371 12.7617C15.0936 12.9348 15.188 13.1865 15.3408 13.4502C15.4424 13.6255 15.6506 13.9488 16.0088 14.2578C16.3869 14.584 17.0664 15.0001 18 15C18.9336 14.9998 19.6133 14.5839 19.9912 14.2578C20.349 13.949 20.5566 13.6255 20.6582 13.4502C20.8616 13.0992 20.9629 12.769 21.0068 12.6172C21.174 12.0392 21.6573 11.2198 22.4385 10.4385C22.6529 10.224 23 10.3848 23 10.6881V16.125C23 16.884 22.384 17.5 21.625 17.5H15.667L7.41699 23V17.5H2.375C1.616 17.5 1 16.884 1 16.125V2.375C1 1.616 1.616 1 2.375 1H13.3113Z" fill="currentColor"/>
<path d="M17.925 1.48658C17.989 1.2656 18.0528 1.2656 18.1167 1.48658C18.6447 3.31195 20.6131 5.28038 22.4385 5.80834C22.6595 5.87226 22.6595 5.93609 22.4385 6.00001C20.6131 6.52798 18.6447 8.4964 18.1167 10.3218C18.0528 10.5428 17.989 10.5428 17.925 10.3218C17.3971 8.4964 15.4287 6.52798 13.6033 6.00001C13.3823 5.93609 13.3823 5.87226 13.6033 5.80834C15.4287 5.28038 17.3971 3.31195 17.925 1.48658Z" fill="currentColor"/>
</svg>
