<svg width="24" height="24" viewBox="0 0 24 24"  xmlns="http://www.w3.org/2000/svg">
<path d="M13.3107 0.999942C13.6128 0.999942 13.7742 1.34686 13.5605 1.56049C12.9765 2.14458 12.1471 2.37494 11.3211 2.37494H3.0625C2.65 2.37494 2.375 2.64994 2.375 3.06244V15.4374C2.375 15.8499 2.65 16.1249 3.0625 16.1249H8.10449C8.51681 16.1251 8.79199 16.4001 8.79199 16.8124V20.7997L14.0166 16.2626C14.1541 16.1252 14.2916 16.1249 14.5664 16.1249H20.9375C21.35 16.1249 21.625 15.8499 21.625 15.4374V12.6755C21.625 11.8504 21.8551 11.0219 22.4385 10.4384C22.6529 10.224 23 10.3848 23 10.688V15.4374C23 16.5374 22.0375 17.4999 20.9375 17.4999H14.8418L8.6543 22.8622C8.37951 22.9996 8.24188 22.9999 8.10449 22.9999H7.8291C7.55414 22.8624 7.41699 22.5874 7.41699 22.3124V17.4999H3.0625C1.9625 17.4999 1 16.5374 1 15.4374V3.06244C1 1.96244 1.9625 0.999942 3.0625 0.999942H13.3107Z" fill="currentColor"/>
<path d="M18.3083 1.09543C18.3723 0.874441 18.4361 0.874441 18.5 1.09543C19.028 2.9208 20.9964 4.88922 22.8218 5.41719C23.0427 5.4811 23.0427 5.54494 22.8218 5.60885C20.9964 6.13682 19.028 8.10525 18.5 9.93061C18.4361 10.1516 18.3723 10.1516 18.3083 9.93061C17.7804 8.10524 15.8119 6.13682 13.9866 5.60885C13.7656 5.54494 13.7656 5.4811 13.9866 5.41719C15.8119 4.88922 17.7804 2.9208 18.3083 1.09543Z" fill="currentColor"/>
</svg>
