<svg width="24" height="24" viewBox="0 0 24 24"  xmlns="http://www.w3.org/2000/svg">
<g clip-path="url(#clip0_865_2882)">
<path d="M9 9C9 9.82843 8.32843 10.5 7.5 10.5C6.67157 10.5 6 9.82843 6 9C6 8.17157 6.67157 7.5 7.5 7.5C8.32843 7.5 9 8.17157 9 9ZM16.5 10.5C17.3284 10.5 18 9.82843 18 9C18 8.17157 17.3284 7.5 16.5 7.5C15.6716 7.5 15 8.17157 15 9C15 9.82843 15.6716 10.5 16.5 10.5ZM8.14297 14.3135C7.92962 13.9585 7.46884 13.8436 7.1138 14.057C6.75876 14.2703 6.6439 14.7311 6.85726 15.0861C7.39058 15.9736 8.1445 16.708 9.0457 17.2179C9.94689 17.7277 10.9647 17.9957 12.0001 17.9957C13.0355 17.9957 14.0533 17.7277 14.9545 17.2179C15.8557 16.708 16.6096 15.9736 17.143 15.0861C17.3563 14.7311 17.2415 14.2703 16.8864 14.057C16.5314 13.8436 16.0706 13.9585 15.8573 14.3135C15.4573 14.9791 14.8918 15.5299 14.2159 15.9123C13.54 16.2947 12.7767 16.4957 12.0001 16.4957C11.2235 16.4957 10.4602 16.2947 9.7843 15.9123C9.1084 15.5299 8.54296 14.9791 8.14297 14.3135Z" fill="currentColor"/>
<path fill-rule="evenodd" clip-rule="evenodd" d="M12 0C5.37258 0 0 5.37258 0 12C0 18.6274 5.37258 24 12 24C18.6274 24 24 18.6274 24 12C24 5.37258 18.6274 0 12 0ZM1.5 12C1.5 6.20101 6.20101 1.5 12 1.5C17.799 1.5 22.5 6.20101 22.5 12C22.5 17.799 17.799 22.5 12 22.5C6.20101 22.5 1.5 17.799 1.5 12Z" fill="currentColor"/>
</g>
<defs>
<clipPath id="clip0_865_2882">
<rect width="24" height="24" fill="currentColor"/>
</clipPath>
</defs>
</svg>
