<svg width="24" height="24" viewBox="0 0 24 24"  xmlns="http://www.w3.org/2000/svg">
<g clip-path="url(#clip0_865_2888)">
<path d="M12 0C5.4 0 0 5.4 0 12C0 18.6 5.4 24 12 24C18.6 24 24 18.6 24 12C24 5.4 18.6 0 12 0ZM15 7.5C15.9 7.5 16.5 8.1 16.5 9C16.5 9.9 15.9 10.5 15 10.5C14.1 10.5 13.5 9.9 13.5 9C13.5 8.1 14.1 7.5 15 7.5ZM9 7.5C9.9 7.5 10.5 8.1 10.5 9C10.5 9.9 9.9 10.5 9 10.5C8.1 10.5 7.5 9.9 7.5 9C7.5 8.1 8.1 7.5 9 7.5ZM17.7 15.45C16.8 17.85 14.55 19.5 12 19.5C9.45 19.5 7.2 17.85 6.3 15.45C6 14.7 6.45 13.8 7.2 13.65C7.95 13.35 8.85 13.8 9.15 14.55C9.6 15.75 10.8 16.5 12 16.5C13.2 16.5 14.4 15.75 14.85 14.55C15.15 13.8 16.05 13.35 16.8 13.65C17.55 13.8 18 14.7 17.7 15.45Z" fill="currentColor"/>
</g>
<defs>
<clipPath id="clip0_865_2888">
<rect width="24" height="24" fill="currentColor"/>
</clipPath>
</defs>
</svg>
