<svg width="24" height="24" viewBox="0 0 24 24"  xmlns="http://www.w3.org/2000/svg">
<path fill-rule="evenodd" clip-rule="evenodd" d="M10.7197 1.71968C10.8603 1.57902 11.0511 1.5 11.25 1.5H21.75C21.9489 1.5 22.1397 1.57902 22.2804 1.71968C22.4209 1.86033 22.5 2.05108 22.5 2.25V8.25C22.5 8.44891 22.4209 8.63967 22.2804 8.78032C22.1397 8.92098 21.9489 9 21.75 9H14.25C14.1019 9 13.9572 9.04383 13.834 9.12596L10.5 11.3486V2.25C10.5 2.05108 10.579 1.86033 10.7197 1.71968ZM11.25 0C10.6533 0 10.081 0.237053 9.65901 0.65901C9.23706 1.08097 9 1.65325 9 2.25V12.75C9 13.0266 9.15224 13.2807 9.3961 13.4113C9.63997 13.5418 9.93588 13.5275 10.166 13.374L14.4771 10.5H21.75C22.3467 10.5 22.9191 10.2629 23.3411 9.84099C23.763 9.41904 24 8.84674 24 8.25V2.25C24 1.65325 23.763 1.08097 23.3411 0.65901C22.9191 0.237053 22.3467 0 21.75 0H11.25ZM3.21968 3.21968C3.36032 3.07902 3.55108 3 3.75 3H6.75C7.16421 3 7.5 2.66421 7.5 2.25C7.5 1.83579 7.16421 1.5 6.75 1.5H3.75C3.15327 1.5 2.58096 1.73706 2.15901 2.15901C1.73706 2.58096 1.5 3.15327 1.5 3.75V21.75C1.5 22.3467 1.73706 22.9191 2.15901 23.3411C2.58096 23.763 3.15325 24 3.75 24H15.75C16.3467 24 16.9191 23.763 17.3411 23.3411C17.763 22.9191 18 22.3467 18 21.75V12.75C18 12.3358 17.6642 12 17.25 12C16.8358 12 16.5 12.3358 16.5 12.75V21.75C16.5 21.9489 16.4209 22.1397 16.2804 22.2804C16.1397 22.4209 15.9489 22.5 15.75 22.5H3.75C3.55108 22.5 3.36032 22.4209 3.21968 22.2804C3.07902 22.1397 3 21.9489 3 21.75V3.75C3 3.55108 3.07902 3.36032 3.21968 3.21968Z" fill="currentColor"/>
</svg>
