<svg width="24" height="24" viewBox="0 0 24 24"  xmlns="http://www.w3.org/2000/svg">
<g clip-path="url(#clip0_865_2471)">
<path d="M14.9613 0.75C14.9613 1.2 15.2605 1.5 15.7094 1.5H21.3946L15.1109 7.8C14.9613 7.95 14.8117 8.25 14.9613 8.55C15.1109 8.85 15.4101 9 15.7094 9H23.19C23.6388 9 23.938 8.7 23.938 8.25C23.938 7.8 23.6388 7.5 23.19 7.5H17.5047L23.7884 1.2C23.938 1.05 24.0876 0.75 23.938 0.45C23.7884 0.15 23.4892 0 23.19 0H15.7094C15.2605 0 14.9613 0.3 14.9613 0.75Z" fill="currentColor"/>
<path fill-rule="evenodd" clip-rule="evenodd" d="M9.27594 1.49973C9.27594 1.19973 9.12633 0.89973 8.97672 0.74973C8.8271 0.59973 8.52788 0.44973 8.22866 0.59973C3.44107 2.09973 0 6.74973 0 11.9997C0 18.5997 5.38603 23.9997 11.969 23.9997C17.2054 23.9997 21.8433 20.5497 23.3395 15.7497C23.4891 15.4497 23.3395 15.1497 23.1898 14.9997C23.0402 14.6997 22.741 14.6997 22.4418 14.6997C21.6937 14.8497 20.9457 14.9997 20.1976 14.9997C14.0635 14.9997 8.97672 9.89973 8.97672 3.74973C8.97672 2.99973 9.12633 2.24973 9.27594 1.49973ZM1.49612 11.9997C1.49612 7.79973 4.03952 4.19973 7.4806 2.54973V3.74973C7.4806 10.7997 13.1658 16.4997 20.1976 16.4997H21.3945C19.7488 19.9497 16.1581 22.4997 11.969 22.4997C6.13409 22.4997 1.49612 17.8497 1.49612 11.9997Z" fill="currentColor"/>
</g>
<defs>
<clipPath id="clip0_865_2471">
<rect width="24" height="24" fill="currentColor"/>
</clipPath>
</defs>
</svg>
