<svg width="24" height="24" viewBox="0 0 24 24"  xmlns="http://www.w3.org/2000/svg">
<g clip-path="url(#clip0_865_2477)">
<path d="M13.5 1.5C13.5 2.32843 14.1716 3 15 3H18.8787L13.9394 7.93934C13.5104 8.36834 13.3821 9.01351 13.6142 9.57403C13.8464 10.1345 14.3934 10.5 15 10.5H22.5C23.3285 10.5 24 9.82843 24 9C24 8.17157 23.3285 7.5 22.5 7.5H18.6214L23.5607 2.56066C23.9897 2.13166 24.118 1.48649 23.8859 0.925975C23.6537 0.365463 23.1067 0 22.5 0H15C14.1716 0 13.5 0.671573 13.5 1.5ZM0 13.35C0 8.4 3.3 4.2 7.8 3C5.7 10.95 13.05 18.3 21 16.2C19.65 20.7 15.6 24 10.65 24C4.8 24 0 19.2 0 13.35Z" fill="currentColor"/>
</g>
<defs>
<clipPath id="clip0_865_2477">
<rect width="24" height="24" fill="currentColor"/>
</clipPath>
</defs>
</svg>
