<svg width="24" height="24" viewBox="0 0 24 24"  xmlns="http://www.w3.org/2000/svg">
<path d="M6.40905 1C5.71587 1 5.05108 1.27536 4.56093 1.76552C4.07078 2.25567 3.79541 2.92046 3.79541 3.61364V7.25442C3.79541 7.66863 4.1312 8.00442 4.54541 8.00442C4.95963 8.00442 5.29541 7.66863 5.29541 7.25442V3.61364C5.29541 3.31828 5.41274 3.03502 5.62159 2.82618C5.83044 2.61733 6.1137 2.5 6.40905 2.5H17.5908C17.8862 2.5 18.1695 2.61733 18.3783 2.82618C18.5872 3.03502 18.7045 3.31828 18.7045 3.61364V7.25442C18.7045 7.66863 19.0403 8.00442 19.4545 8.00442C19.8687 8.00442 20.2045 7.66863 20.2045 7.25442V3.61364C20.2045 2.92046 19.9291 2.25567 19.439 1.76552C18.9488 1.27536 18.284 1 17.5908 1H6.40905Z" fill="currentColor"/>
<path fill-rule="evenodd" clip-rule="evenodd" d="M4.07955 9.5C3.2628 9.5 2.4795 9.82445 1.90198 10.402C1.32445 10.9795 1 11.7628 1 12.5795V20.4844C1 20.8986 1.33579 21.2344 1.75 21.2344H3.79541V22.4843C3.79541 22.8985 4.1312 23.2343 4.54541 23.2343C4.95962 23.2343 5.29541 22.8985 5.29541 22.4843V21.2344H18.7046V22.4843C18.7046 22.8985 19.0404 23.2343 19.4546 23.2343C19.8688 23.2343 20.2046 22.8985 20.2046 22.4843V21.2344H22.25C22.6642 21.2344 23 20.8986 23 20.4844V12.5795C23 11.7628 22.6755 10.9795 22.098 10.402C21.5205 9.82445 20.7372 9.5 19.9205 9.5C19.1037 9.5 18.3204 9.82445 17.7429 10.402C17.1654 10.9795 16.8409 11.7628 16.8409 12.5795V15.0753H7.15909V12.5795C7.15909 12.1751 7.07944 11.7747 6.92467 11.4011C6.76991 11.0274 6.54307 10.6879 6.25711 10.402C5.97115 10.116 5.63166 9.88918 5.25804 9.73442C4.88441 9.57965 4.48396 9.5 4.07955 9.5ZM21.5 12.5795V19.7344H2.5V12.5795C2.5 12.1606 2.66642 11.7589 2.96264 11.4626C3.25886 11.1664 3.66062 11 4.07955 11C4.28697 11 4.49237 11.0409 4.68401 11.1202C4.87565 11.1996 5.04978 11.316 5.19645 11.4626C5.34313 11.6093 5.45948 11.7834 5.53886 11.9751C5.61824 12.1667 5.65909 12.3721 5.65909 12.5795V15.8253C5.65909 16.2395 5.99488 16.5753 6.40909 16.5753H17.5909C18.0051 16.5753 18.3409 16.2395 18.3409 15.8253V12.5795C18.3409 12.1606 18.5073 11.7589 18.8035 11.4626C19.0998 11.1664 19.5015 11 19.9205 11C20.3394 11 20.7411 11.1664 21.0374 11.4626C21.3336 11.7589 21.5 12.1606 21.5 12.5795Z" fill="currentColor"/>
</svg>
