<svg width="24" height="24" viewBox="0 0 24 24"  xmlns="http://www.w3.org/2000/svg">
<g clip-path="url(#clip0_865_4934)">
<path d="M7 13V12.5C6.99673 11.3964 6.58705 10.3327 5.8492 9.51201C5.11134 8.69133 4.09703 8.17121 3 8.051V3C3 2.20435 3.31607 1.44129 3.87868 0.87868C4.44129 0.31607 5.20435 0 6 0H18C18.7956 0 19.5587 0.31607 20.1213 0.87868C20.6839 1.44129 21 2.20435 21 3V8.051C19.903 8.17121 18.8887 8.69133 18.1508 9.51201C17.413 10.3327 17.0033 11.3964 17 12.5V13H7ZM19.7322 10.7322C20.2011 10.2634 20.837 10 21.5 10C21.8283 10 22.1534 10.0647 22.4567 10.1903C22.76 10.3159 23.0356 10.5001 23.2678 10.7322C23.4999 10.9644 23.6841 11.24 23.8097 11.5433C23.9353 11.8466 24 12.1717 24 12.5V21C24 21.2652 23.8946 21.5196 23.7071 21.7071C23.5196 21.8946 23.2652 22 23 22H21V23C21 23.2652 20.8946 23.5196 20.7071 23.7071C20.5196 23.8946 20.2652 24 20 24C19.7348 24 19.4804 23.8946 19.2929 23.7071C19.1054 23.5196 19 23.2652 19 23V22H5V23C5 23.2652 4.89464 23.5196 4.70711 23.7071C4.51957 23.8946 4.26522 24 4 24C3.73478 24 3.48043 23.8946 3.29289 23.7071C3.10536 23.5196 3 23.2652 3 23V22H1C0.734784 22 0.48043 21.8946 0.292893 21.7071C0.105357 21.5196 0 21.2652 0 21V12.5C0 11.837 0.263392 11.2011 0.732233 10.7322C1.20107 10.2634 1.83696 10 2.5 10C3.16304 10 3.79893 10.2634 4.26777 10.7322C4.73661 11.2011 5 11.837 5 12.5V15H19V12.5C19 11.837 19.2634 11.2011 19.7322 10.7322Z" fill="currentColor"/>
</g>
<defs>
<clipPath id="clip0_865_4934">
<rect width="24" height="24" fill="currentColor"/>
</clipPath>
</defs>
</svg>
