<svg width="24" height="24" viewBox="0 0 24 24"  xmlns="http://www.w3.org/2000/svg">
<path d="M12.6251 2.21889L17.6251 6.21889C17.8322 6.38465 17.965 6.6259 17.9942 6.88958C18.0235 7.15325 17.9468 7.41775 17.7811 7.62489C17.6153 7.83202 17.374 7.96482 17.1104 7.99408C16.8467 8.02333 16.5822 7.94665 16.3751 7.78089L12.0001 4.28089L7.62505 7.78089C7.41792 7.94665 7.15342 8.02333 6.88974 7.99408C6.62607 7.96482 6.38481 7.83202 6.21905 7.62489C6.05329 7.41775 5.9766 7.15325 6.00586 6.88958C6.03512 6.6259 6.16792 6.38465 6.37505 6.21889L11.3751 2.21889C11.5524 2.07688 11.7728 1.99951 12.0001 1.99951C12.2273 1.99951 12.4477 2.07688 12.6251 2.21889Z" fill="currentColor"/>
</svg>
