<svg width="24" height="24" viewBox="0 0 24 24"  xmlns="http://www.w3.org/2000/svg">
<path d="M6.77947 15.0122C7.04055 14.9832 7.30478 15.006 7.55707 15.0791C7.80936 15.1523 8.04477 15.2744 8.24987 15.4385L12 18.4387L15.7502 15.4385C16.1644 15.1071 16.6934 14.9537 17.2206 15.0122C17.4817 15.0412 17.7345 15.1213 17.9647 15.248C18.1948 15.3746 18.3977 15.5454 18.5618 15.7505C18.8933 16.1647 19.0466 16.6936 18.9881 17.2209C18.9296 17.7482 18.6641 18.2306 18.2499 18.5621L13.2501 22.5619C12.8954 22.8458 12.4543 23.0007 12 23.0007C11.5456 23.0007 11.1048 22.8459 10.75 22.5619L5.75035 18.5622C5.54526 18.398 5.37438 18.195 5.2477 17.9649C5.12103 17.7348 5.04092 17.482 5.01196 17.2209C4.98299 16.9598 5.00573 16.6956 5.07888 16.4433C5.15202 16.191 5.27415 15.9556 5.43828 15.7505C5.60241 15.5454 5.80532 15.3746 6.03545 15.248C6.26556 15.1213 6.51839 15.0412 6.77947 15.0122Z" fill="currentColor"/>
</svg>
