<svg width="24" height="24" viewBox="0 0 24 24"  xmlns="http://www.w3.org/2000/svg">
<path d="M12.6251 2.21889L17.6251 6.21889C17.8322 6.38465 17.965 6.6259 17.9942 6.88958C18.0235 7.15325 17.9468 7.41775 17.7811 7.62489C17.6153 7.83202 17.374 7.96482 17.1104 7.99408C16.8467 8.02333 16.5822 7.94665 16.3751 7.78089L12.0001 4.28089L7.62506 7.78089C7.41792 7.94665 7.15342 8.02333 6.88975 7.99408C6.62607 7.96482 6.38482 7.83202 6.21906 7.62489C6.0533 7.41775 5.97661 7.15325 6.00586 6.88958C6.03512 6.6259 6.16792 6.38465 6.37506 6.21889L11.3751 2.21889C11.5524 2.07688 11.7729 1.99951 12.0001 1.99951C12.2273 1.99951 12.4477 2.07688 12.6251 2.21889ZM12.0001 19.7188L16.3751 16.2188C16.5822 16.053 16.8467 15.9764 17.1104 16.0056C17.2409 16.0201 17.3673 16.0602 17.4824 16.1235C17.5975 16.1869 17.699 16.2722 17.7811 16.3748C17.9468 16.5819 18.0235 16.8464 17.9942 17.1101C17.965 17.3738 17.8322 17.615 17.6251 17.7808L12.6251 21.7808C12.4477 21.9228 12.2273 22.0002 12.0001 22.0002C11.7728 22.0002 11.5524 21.9228 11.3751 21.7808L6.37505 17.7808C6.27249 17.6987 6.1871 17.5973 6.12375 17.4822C6.06041 17.3671 6.02035 17.2407 6.00586 17.1101C5.99137 16.9796 6.00275 16.8474 6.03933 16.7213C6.0759 16.5951 6.13698 16.4774 6.21905 16.3748C6.30113 16.2722 6.4026 16.1869 6.51768 16.1235C6.63276 16.0602 6.75918 16.0201 6.88974 16.0056C7.0203 15.9911 7.15244 16.0025 7.2786 16.0391C7.40477 16.0757 7.52249 16.1367 7.62505 16.2188L12.0001 19.7188Z" fill="currentColor"/>
<path fill-rule="evenodd" clip-rule="evenodd" d="M18.2499 5.43812C18.6641 5.76959 18.9296 6.25203 18.9881 6.7793C19.0467 7.30658 18.8933 7.8355 18.5618 8.2497C18.2304 8.66391 17.7479 8.92948 17.2206 8.98798C16.6934 9.04648 16.1646 8.89316 15.7504 8.56176L12.0001 5.56151L8.24987 8.56166C7.83568 8.89306 7.30669 9.04648 6.77947 8.98798C6.2522 8.92948 5.76976 8.66391 5.43828 8.2497C5.10681 7.8355 4.95346 7.30658 5.01196 6.7793C5.07047 6.25203 5.33603 5.76959 5.75024 5.43812L10.7501 1.43826C11.1047 1.15441 11.5458 0.999512 12.0001 0.999512C12.4543 0.999512 12.8951 1.15417 13.2498 1.43802L18.2499 5.43812ZM12.6251 2.21889C12.4477 2.07688 12.2273 1.99951 12.0001 1.99951C11.7729 1.99951 11.5524 2.07688 11.3751 2.21889L6.37506 6.21889C6.16792 6.38465 6.03512 6.6259 6.00586 6.88958C5.97661 7.15325 6.0533 7.41775 6.21906 7.62489C6.38482 7.83202 6.62607 7.96482 6.88975 7.99408C7.15342 8.02333 7.41792 7.94665 7.62506 7.78089L12.0001 4.28089L16.3751 7.78089C16.5822 7.94665 16.8467 8.02333 17.1104 7.99408C17.374 7.96482 17.6153 7.83202 17.7811 7.62489C17.9468 7.41775 18.0235 7.15325 17.9942 6.88958C17.965 6.6259 17.8322 6.38465 17.6251 6.21889L12.6251 2.21889ZM7.2786 16.0391C7.40477 16.0757 7.52249 16.1367 7.62505 16.2188L12.0001 19.7188L16.3751 16.2188C16.5822 16.053 16.8467 15.9764 17.1104 16.0056C17.2409 16.0201 17.3673 16.0602 17.4824 16.1235C17.5975 16.1869 17.699 16.2722 17.7811 16.3748C17.9468 16.5819 18.0235 16.8464 17.9942 17.1101C17.965 17.3738 17.8322 17.615 17.6251 17.7808L12.6251 21.7808C12.4477 21.9228 12.2273 22.0002 12.0001 22.0002C11.7728 22.0002 11.5524 21.9228 11.3751 21.7808L6.37505 17.7808C6.27249 17.6987 6.1871 17.5973 6.12375 17.4822C6.06041 17.3671 6.02035 17.2407 6.00586 17.1101C5.99137 16.9796 6.00275 16.8474 6.03933 16.7213C6.0759 16.5951 6.13698 16.4774 6.21905 16.3748C6.30113 16.2722 6.4026 16.1869 6.51768 16.1235C6.63276 16.0602 6.75918 16.0201 6.88974 16.0056C7.0203 15.9911 7.15244 16.0025 7.2786 16.0391ZM6.77947 15.0117C7.04055 14.9827 7.30478 15.0055 7.55707 15.0786C7.80936 15.1518 8.04477 15.2739 8.24987 15.438L12.0001 18.4382L15.7502 15.438C16.1644 15.1066 16.6934 14.9532 17.2206 15.0117C17.4817 15.0407 17.7345 15.1208 17.9647 15.2475C18.1948 15.3741 18.3977 15.5449 18.5618 15.75C18.8933 16.1642 19.0466 16.6931 18.9881 17.2204C18.9296 17.7477 18.6641 18.2301 18.2499 18.5616L13.2501 22.5614C12.8954 22.8453 12.4543 23.0002 12.0001 23.0002C11.5456 23.0002 11.1048 22.8454 10.7501 22.5614L5.75036 18.5617C5.54526 18.3975 5.37438 18.1945 5.24771 17.9644C5.12103 17.7343 5.04093 17.4815 5.01196 17.2204C4.98299 16.9593 5.00573 16.6951 5.07888 16.4428C5.15203 16.1905 5.27415 15.9551 5.43828 15.75C5.60241 15.5449 5.80533 15.3741 6.03545 15.2475C6.26557 15.1208 6.51839 15.0407 6.77947 15.0117Z" fill="currentColor"/>
</svg>
