<svg width="24" height="24" viewBox="0 0 24 24"  xmlns="http://www.w3.org/2000/svg">
<path fill-rule="evenodd" clip-rule="evenodd" d="M18.2499 5.4386C18.6641 5.77008 18.9296 6.25252 18.9881 6.77979C19.0467 7.30707 18.8933 7.83598 18.5618 8.25019C18.2304 8.6644 17.7479 8.92997 17.2206 8.98847C16.6934 9.04697 16.1646 8.89365 15.7504 8.56224L12.0001 5.562L8.24987 8.56215C7.83568 8.89355 7.30669 9.04697 6.77947 8.98847C6.2522 8.92997 5.76976 8.6644 5.43828 8.25019C5.10681 7.83598 4.95346 7.30707 5.01196 6.77979C5.07047 6.25251 5.33603 5.77008 5.75024 5.4386L10.7501 1.43875C11.1047 1.1549 11.5458 1 12.0001 1C12.4543 1 12.8951 1.15466 13.2498 1.43851L18.2499 5.4386Z" fill="currentColor"/>
</svg>
