<svg width="24" height="24" viewBox="0 0 24 24"  xmlns="http://www.w3.org/2000/svg">
<g clip-path="url(#clip0_865_4939)">
<path d="M10.5 4.5L13.923 3.816C14.0197 3.79662 14.1085 3.74905 14.1783 3.6793C14.2481 3.60955 14.2956 3.52072 14.315 3.424L15 0L15.685 3.423C15.7044 3.51972 15.7519 3.60855 15.8217 3.6783C15.8915 3.74805 15.9803 3.79562 16.077 3.815L19.5 4.5L16.077 5.184C15.9803 5.20338 15.8915 5.25095 15.8217 5.3207C15.7519 5.39045 15.7044 5.47928 15.685 5.576L15 9L14.315 5.577C14.2956 5.48028 14.2481 5.39145 14.1783 5.3217C14.1085 5.25195 14.0197 5.20438 13.923 5.185L10.5 4.5ZM10.5 17.25L15.798 16.191C15.8947 16.1716 15.9835 16.1241 16.0533 16.0543C16.1231 15.9845 16.1706 15.8957 16.19 15.799L17.25 10.5L18.31 15.798C18.3294 15.8947 18.3769 15.9835 18.4467 16.0533C18.5165 16.1231 18.6053 16.1706 18.702 16.19L24 17.25L18.702 18.309C18.6053 18.3284 18.5165 18.3759 18.4467 18.4457C18.3769 18.5155 18.3294 18.6043 18.31 18.701L17.25 24L16.19 18.702C16.1706 18.6053 16.1231 18.5165 16.0533 18.4467C15.9835 18.3769 15.8947 18.3294 15.798 18.31L10.5 17.25ZM4.673 9.565L0 10.5L4.673 11.435C4.76972 11.4544 4.85855 11.5019 4.9283 11.5717C4.99805 11.6415 5.04562 11.7303 5.065 11.827L6 16.5L6.934 11.827C6.95338 11.7303 7.00095 11.6415 7.0707 11.5717C7.14045 11.5019 7.22928 11.4544 7.326 11.435L12 10.5L7.327 9.565C7.23028 9.54562 7.14145 9.49805 7.0717 9.4283C7.00195 9.35855 6.95438 9.26972 6.935 9.173L6 4.5L5.066 9.173C5.04662 9.26972 4.99905 9.35855 4.9293 9.4283C4.85955 9.49805 4.76972 9.54562 4.673 9.565Z" fill="currentColor"/>
</g>
<defs>
<clipPath id="clip0_865_4939">
<rect width="24" height="24" fill="currentColor"/>
</clipPath>
</defs>
</svg>
