<svg width="24" height="24" viewBox="0 0 24 24"  xmlns="http://www.w3.org/2000/svg">
<g clip-path="url(#clip0_865_4944)">
<path d="M12.307 3.596L10.5 4.5L12.308 5.404C13.0822 5.79107 13.7099 6.41881 14.097 7.193L15 9L15.904 7.193C16.2911 6.41881 16.9188 5.79107 17.693 5.404L19.5 4.5L17.692 3.596C16.9178 3.20893 16.2901 2.58119 15.903 1.807L15 0L14.096 1.807C13.7089 2.58119 13.0812 3.20893 12.307 3.596ZM0 10.5L2.807 9.097C3.58119 8.70993 4.20893 8.08219 4.596 7.308L6 4.5L7.404 7.308C7.79107 8.08219 8.41881 8.70993 9.193 9.097L12 10.5L9.193 11.904C8.41881 12.2911 7.79107 12.9188 7.404 13.693L6 16.5L4.596 13.692C4.20893 12.9178 3.58119 12.2901 2.807 11.903L0 10.5ZM10.5 17.25L13.807 15.597C14.5812 15.2099 15.2089 14.5822 15.596 13.808L17.25 10.5L18.904 13.808C19.2911 14.5822 19.9188 15.2099 20.693 15.597L24 17.25L20.693 18.903C19.9188 19.2901 19.2911 19.9178 18.904 20.692L17.25 24L15.596 20.692C15.2089 19.9178 14.5812 19.2901 13.807 18.903L10.5 17.25Z" fill="currentColor"/>
</g>
<defs>
<clipPath id="clip0_865_4944">
<rect width="24" height="24" fill="currentColor"/>
</clipPath>
</defs>
</svg>
