<svg width="24" height="24" viewBox="0 0 24 24"  xmlns="http://www.w3.org/2000/svg">
<path fill-rule="evenodd" clip-rule="evenodd" d="M1.25 2C1.25 1.58579 1.58579 1.25 2 1.25H6C6.41421 1.25 6.75 1.58579 6.75 2V3.25H17.25V2C17.25 1.58579 17.5858 1.25 18 1.25H22C22.4142 1.25 22.75 1.58579 22.75 2V6C22.75 6.41421 22.4142 6.75 22 6.75H20.75V17.25H22C22.4142 17.25 22.75 17.5858 22.75 18V22C22.75 22.4142 22.4142 22.75 22 22.75H18C17.5858 22.75 17.25 22.4142 17.25 22V20.75H6.75V22C6.75 22.4142 6.41421 22.75 6 22.75H2C1.58579 22.75 1.25 22.4142 1.25 22V18C1.25 17.5858 1.58579 17.25 2 17.25H3.25V6.75H2C1.58579 6.75 1.25 6.41421 1.25 6V2ZM18.75 21.25H21.25V18.75H18.75V21.25ZM19.25 17.25H18C17.5858 17.25 17.25 17.5858 17.25 18V19.25H6.75V18C6.75 17.5858 6.41421 17.25 6 17.25H4.75V6.75H6C6.41421 6.75 6.75 6.41421 6.75 6V4.75H17.25V6C17.25 6.41421 17.5858 6.75 18 6.75H19.25V17.25ZM5.25 18.75V21.25H2.75V18.75H5.25ZM21.25 5.25V2.75H18.75V5.25H21.25ZM5.25 2.75V5.25H2.75V2.75H5.25Z" fill="currentColor"/>
</svg>
