<svg width="24" height="24" viewBox="0 0 24 24"  xmlns="http://www.w3.org/2000/svg">
<g clip-path="url(#clip0_865_6046)">
<path fill-rule="evenodd" clip-rule="evenodd" d="M2 0.5C1.60218 0.5 1.22064 0.658035 0.93934 0.93934C0.658035 1.22064 0.5 1.60218 0.5 2V6C0.5 6.39782 0.658035 6.77936 0.93934 7.06066C1.22064 7.34196 1.60217 7.5 2 7.5H2.5V16.5H2C1.60218 16.5 1.22065 16.658 0.93934 16.9393C0.658035 17.2206 0.5 17.6022 0.5 18V22C0.5 22.3978 0.658035 22.7794 0.93934 23.0607C1.22065 23.342 1.60218 23.5 2 23.5H6C6.39782 23.5 6.77936 23.342 7.06066 23.0607C7.34196 22.7794 7.5 22.3978 7.5 22V21.5H16.5V22C16.5 22.3978 16.658 22.7794 16.9393 23.0607C17.2206 23.342 17.6022 23.5 18 23.5H22C22.3978 23.5 22.7794 23.342 23.0607 23.0607C23.342 22.7794 23.5 22.3978 23.5 22V18C23.5 17.6022 23.342 17.2206 23.0607 16.9393C22.7794 16.658 22.3978 16.5 22 16.5H21.5V7.5H22C22.3978 7.5 22.7794 7.34196 23.0607 7.06066C23.342 6.77936 23.5 6.39782 23.5 6V2C23.5 1.60218 23.342 1.22065 23.0607 0.93934C22.7794 0.658035 22.3978 0.5 22 0.5H18C17.6022 0.5 17.2206 0.658035 16.9393 0.93934C16.658 1.22065 16.5 1.60218 16.5 2V2.5H7.5V2C7.5 1.60217 7.34196 1.22064 7.06066 0.93934C6.77936 0.658035 6.39782 0.5 6 0.5H2ZM7.5 6V5.5H16.5V6C16.5 6.39782 16.658 6.77936 16.9393 7.06066C17.2206 7.34196 17.6022 7.5 18 7.5H18.5V16.5H18C17.6022 16.5 17.2206 16.658 16.9393 16.9393C16.658 17.2206 16.5 17.6022 16.5 18V18.5H7.5V18C7.5 17.6022 7.34196 17.2206 7.06066 16.9393C6.77936 16.658 6.39782 16.5 6 16.5H5.5V7.5H6C6.39782 7.5 6.77936 7.34196 7.06066 7.06066C7.34196 6.77936 7.5 6.39782 7.5 6Z" fill="currentColor"/>
</g>
<defs>
<clipPath id="clip0_865_6046">
<rect width="24" height="24" fill="currentColor"/>
</clipPath>
</defs>
</svg>
