<svg width="24" height="24" viewBox="0 0 24 24" fill="none" xmlns="http://www.w3.org/2000/svg">
<g clip-path="url(#clip0_865_1280)">
<path d="M19.1271 21.8661V15.4365H21.2611V24.0001H2V15.4365H4.13396V21.8661H19.1271Z" fill="#BCBBBB"/>
<path d="M6.48953 14.8269L16.9653 17.0163L17.4088 14.91L6.93295 12.7206L6.48953 14.8269ZM7.87522 9.8384L17.5751 14.3557L18.4619 12.4158L8.76206 7.87072L7.87522 9.8384ZM10.5635 5.07163L18.7945 11.9169L20.1524 10.2818L11.9214 3.43651L10.5635 5.07163ZM15.8845 0L14.1663 1.27483L20.5404 9.86611L22.2587 8.59128L15.8845 0ZM6.26782 19.7045H16.9653V17.5706H6.26782V19.7045Z" fill="#F48023"/>
</g>
<defs>
<clipPath id="clip0_865_1280">
<rect width="24" height="24" fill="white"/>
</clipPath>
</defs>
</svg>
