<svg width="24" height="24" viewBox="0 0 24 24"  xmlns="http://www.w3.org/2000/svg">
<path fill-rule="evenodd" clip-rule="evenodd" d="M12.3859 1.60688C12.1484 1.46437 11.8516 1.46437 11.6141 1.60688L0.364128 8.35688C0.138224 8.49243 0 8.73656 0 9C0 9.26345 0.138224 9.50757 0.364128 9.64313L11.6141 16.3931C11.8516 16.5357 12.1484 16.5357 12.3859 16.3931L23.6358 9.64313C23.8619 9.50757 24 9.26345 24 9C24 8.73656 23.8619 8.49243 23.6358 8.35688L12.3859 1.60688ZM12 14.8754L2.20775 9L12 3.12465L21.7923 9L12 14.8754ZM3.38588 14.2931C3.74106 14.08 3.85623 13.6193 3.64313 13.2641C3.43001 12.9089 2.96931 12.7937 2.61413 13.0068L0.364128 14.3568C0.138224 14.4924 0 14.7365 0 15C0 15.2634 0.138224 15.5076 0.364128 15.6431L11.6141 22.3931C11.8516 22.5356 12.1484 22.5356 12.3859 22.3931L23.6358 15.6431C23.8619 15.5076 24 15.2634 24 15C24 14.7365 23.8619 14.4924 23.6358 14.3568L21.3858 13.0068C21.0308 12.7937 20.57 12.9089 20.3569 13.2641C20.1438 13.6193 20.259 14.08 20.6142 14.2931L21.7923 15L12 20.8754L2.20775 15L3.38588 14.2931Z" fill="currentColor"/>
</svg>
