<svg width="25" height="24" viewBox="0 0 25 24"  xmlns="http://www.w3.org/2000/svg">
<path fill-rule="evenodd" clip-rule="evenodd" d="M0.452951 10.6819L5.13645 15.2663L4.03118 21.7402C3.98393 22.0171 4.01477 22.3017 4.12023 22.5619C4.22569 22.8221 4.40156 23.0475 4.62795 23.2125C4.85434 23.3776 5.12222 23.4759 5.4013 23.4961C5.68039 23.5163 5.95955 23.4578 6.20722 23.327L12.0005 20.2693L17.7907 23.324C18.0384 23.4548 18.3176 23.5133 18.5966 23.4931C18.8757 23.4728 19.1436 23.3746 19.37 23.2095C19.5964 23.0444 19.7723 22.8191 19.8777 22.5589C19.9832 22.2987 20.014 22.014 19.9668 21.7372L18.8615 15.2633L23.548 10.6819C23.7481 10.4858 23.8895 10.2374 23.9564 9.96483C24.0233 9.69226 24.013 9.40635 23.9266 9.13937C23.8402 8.87239 23.6811 8.63498 23.4674 8.45395C23.2537 8.27292 22.9939 8.15548 22.7172 8.11489L22.7142 8.11338L16.2401 7.16789L13.3502 1.27966C13.2129 1.04248 13.0159 0.845646 12.7791 0.708827C12.5422 0.572008 12.2737 0.5 12.0005 0.5C11.7272 0.5 11.4587 0.572008 11.2219 0.708827C10.985 0.845646 10.7881 1.04248 10.6508 1.27966L7.76088 7.1694L1.28677 8.11338C1.00953 8.1533 0.748972 8.27036 0.534596 8.4513C0.320221 8.63224 0.1606 8.86984 0.0738145 9.13717C-0.0129712 9.4045 -0.023454 9.69089 0.0435537 9.9639C0.110561 10.2369 0.252382 10.4856 0.452951 10.6819ZM11.7886 1.91349L8.62458 8.36197L1.47129 9.40499C1.43432 9.41031 1.39958 9.42591 1.371 9.45004C1.34242 9.47416 1.32113 9.50584 1.30956 9.54149C1.29799 9.57713 1.29659 9.61532 1.30553 9.65172C1.31446 9.68812 1.33337 9.72128 1.36011 9.74745L6.53288 14.8108L5.31224 21.9605C5.30595 21.9974 5.31006 22.0354 5.32411 22.0701C5.33817 22.1048 5.36162 22.1348 5.3918 22.1569C5.42199 22.1789 5.45771 22.192 5.49492 22.1947C5.53213 22.1974 5.56935 22.1896 5.60237 22.1721L12.0003 18.7952L18.3953 22.169C18.4284 22.1864 18.4658 22.1943 18.503 22.1916C18.5402 22.189 18.576 22.1759 18.6061 22.1538C18.6363 22.1318 18.6598 22.1018 18.6738 22.0671C18.6879 22.0324 18.692 21.9945 18.6857 21.9576L17.465 14.8073L22.64 9.74825C22.6665 9.72215 22.6856 9.68887 22.6945 9.65265C22.7034 9.61631 22.702 9.57819 22.6905 9.54259C22.679 9.50699 22.6578 9.47534 22.6293 9.4512C22.6008 9.42706 22.5661 9.4114 22.5292 9.40599L22.3227 9.37568L22.32 9.37437L15.3764 8.36031L12.2124 1.91352C12.1907 1.88351 12.163 1.85835 12.1309 1.83979C12.0912 1.81687 12.0462 1.80482 12.0005 1.80482C11.9547 1.80482 11.9097 1.81688 11.8701 1.83979C11.838 1.85834 11.8102 1.88349 11.7886 1.91349Z" fill="currentColor"/>
</svg>
