<svg width="24" height="24" viewBox="0 0 24 24"  xmlns="http://www.w3.org/2000/svg">
<g clip-path="url(#clip0_865_2342)">
<path fill-rule="evenodd" clip-rule="evenodd" d="M15.696 0.5L12 2.32666L8.304 0.5L6.336 4.15331L2.304 4.87436L2.88 8.96031L0 11.9406L2.88 14.921L2.304 19.0069L6.336 19.728L8.304 23.3813L12 21.5546L15.696 23.3813L17.664 19.728L21.696 19.0069L21.12 14.921L24 11.9406L21.12 8.96031L21.696 4.87436L17.664 4.15331L15.696 0.5ZM12.1758 11.3004C13.6139 11.557 15.2542 11.8496 15.2542 13.7889C15.2542 15.3736 14.1611 16.4667 12.4471 16.6219V17.9673H11.2505V16.5766C9.67877 16.3179 8.50159 15.2701 8.32049 13.7889L9.89222 13.5173C10.028 14.6233 10.8624 15.2571 12.0331 15.2571C13.0357 15.2571 13.6695 14.7915 13.6695 14.0153C13.6695 13.042 12.6546 12.8459 11.521 12.6269L11.4786 12.6188C10.0436 12.3422 8.41751 12.0287 8.41751 10.0892C8.41751 8.47219 9.56235 7.52139 11.2505 7.37909V6.04668H12.4471V7.41143C13.9994 7.63782 14.9179 8.60802 15.1119 9.97924L13.5531 10.2444C13.4367 9.32597 12.8352 8.73738 11.6321 8.73738C10.6554 8.73738 10.0086 9.13193 10.0086 9.92103C10.0086 10.8977 11.0112 11.0917 12.1302 11.2922L12.1758 11.3004Z" fill="currentColor"/>
</g>
<defs>
<clipPath id="clip0_865_2342">
<rect width="24" height="24" fill="currentColor"/>
</clipPath>
</defs>
</svg>
