<svg width="24" height="24" viewBox="0 0 24 24"  xmlns="http://www.w3.org/2000/svg">
<g clip-path="url(#clip0_865_2336)">
<path d="M12.1759 11.3003C13.614 11.5569 15.2543 11.8496 15.2543 13.7889C15.2543 15.3735 14.1612 16.4666 12.4472 16.6219V17.9672H11.2506V16.5766C9.67884 16.3179 8.50166 15.27 8.32056 13.7889L9.89229 13.5172C10.0281 14.6232 10.8625 15.2571 12.0332 15.2571C13.0357 15.2571 13.6696 14.7914 13.6696 14.0152C13.6696 13.0419 12.6547 12.8459 11.521 12.6269L11.4786 12.6187C10.0437 12.3421 8.41758 12.0287 8.41758 10.0891C8.41758 8.47214 9.56242 7.52134 11.2506 7.37904V6.04663H12.4472V7.41138C13.9995 7.63776 14.9179 8.60797 15.112 9.97919L13.5532 10.2444C13.4368 9.32592 12.8352 8.73733 11.6322 8.73733C10.6555 8.73733 10.0087 9.13188 10.0087 9.92098C10.0087 10.8976 11.0113 11.0917 12.1302 11.2922L12.1759 11.3003Z" fill="currentColor"/>
<path fill-rule="evenodd" clip-rule="evenodd" d="M17.664 4.15331L15.696 0.5L12 2.32666L8.304 0.5L6.336 4.15331L2.304 4.87436L2.88 8.96031L0 11.9406L2.88 14.921L2.304 19.0069L6.336 19.728L8.304 23.3813L12 21.5546L15.696 23.3813L17.664 19.728L21.696 19.0069L21.12 14.921L24 11.9406L21.12 8.96031L21.696 4.87436L17.664 4.15331ZM8.93774 2.48641L12 3.99985L15.0623 2.48641L16.6869 5.50238L20.0089 6.09645L19.5325 9.47605L21.9141 11.9406L19.5325 14.4052L20.0089 17.7848L16.6869 18.3789L15.0623 21.3949L12 19.8814L8.93774 21.3949L7.31307 18.3789L3.99111 17.7848L4.46754 14.4052L2.08592 11.9406L4.46754 9.47605L3.99111 6.09645L7.31307 5.50238L8.93774 2.48641Z" fill="currentColor"/>
</g>
<defs>
<clipPath id="clip0_865_2336">
<rect width="24" height="24" fill="currentColor"/>
</clipPath>
</defs>
</svg>
