<svg width="25" height="24" viewBox="0 0 25 24"  xmlns="http://www.w3.org/2000/svg">
<path d="M22.7142 8.11338L16.2401 7.16789L13.3502 1.27966C13.2129 1.04248 13.0159 0.845646 12.7791 0.708827C12.5422 0.572008 12.2737 0.5 12.0005 0.5C11.7272 0.5 11.4587 0.572008 11.2219 0.708827C10.985 0.845646 10.7881 1.04248 10.6508 1.27966L7.76088 7.1694L1.28677 8.11338C1.00953 8.1533 0.748972 8.27036 0.534596 8.4513C0.320221 8.63224 0.1606 8.86984 0.0738145 9.13717C-0.0129712 9.4045 -0.023454 9.69089 0.0435537 9.9639C0.110561 10.2369 0.252382 10.4856 0.452951 10.6819L5.13645 15.2663L4.03118 21.7402C3.98393 22.0171 4.01478 22.3017 4.12023 22.5619C4.22569 22.8221 4.40156 23.0475 4.62795 23.2125C4.85434 23.3776 5.12222 23.4759 5.40131 23.4961C5.68039 23.5163 5.95955 23.4578 6.20722 23.327L12.0005 20.2693L17.7907 23.324C18.0384 23.4548 18.3176 23.5133 18.5966 23.4931C18.8757 23.4728 19.1436 23.3746 19.37 23.2095C19.5964 23.0444 19.7723 22.8191 19.8777 22.5589C19.9832 22.2987 20.014 22.014 19.9668 21.7372L18.8615 15.2633L23.548 10.6819C23.7481 10.4858 23.8895 10.2374 23.9564 9.96483C24.0233 9.69226 24.013 9.40635 23.9266 9.13937C23.8402 8.87239 23.6812 8.63498 23.4674 8.45395C23.2537 8.27292 22.9939 8.15548 22.7172 8.11489L22.7142 8.11338Z" fill="currentColor"/>
</svg>
