<svg width="24" height="24" viewBox="0 0 24 24"  xmlns="http://www.w3.org/2000/svg">
<g clip-path="url(#clip0_865_4949)">
<path fill-rule="evenodd" clip-rule="evenodd" d="M7.63625 23.9965C3.14929 22.1032 0 17.6628 0 12.4868C0 5.59053 5.59053 0 12.4868 0C17.6631 0 22.1038 3.14971 23.9969 7.63713L23.9987 7.6379L23.9976 7.63897C23.9985 7.64093 23.9993 7.64289 24.0001 7.64485L7.64286 23.9993L7.63882 23.9976L7.63734 23.9991L7.63625 23.9965ZM1.56085 12.4868C1.56085 6.45256 6.45256 1.56085 12.4868 1.56085C16.5063 1.56085 20.0216 3.73163 21.9196 6.96909C21.0276 6.76682 20.0994 6.66003 19.1463 6.66003C12.25 6.66003 6.65952 12.2506 6.65952 19.1468C6.65952 20.0996 6.76624 21.0275 6.96837 21.9191C3.7313 20.0211 1.56085 16.506 1.56085 12.4868ZM8.22037 19.1468C8.22037 13.1126 13.1121 8.22088 19.1463 8.22088C19.7943 8.22088 20.4284 8.27712 21.0443 8.38489L8.38436 21.0447C8.27661 20.4289 8.22037 19.7948 8.22037 19.1468Z" fill="currentColor"/>
</g>
<defs>
<clipPath id="clip0_865_4949">
<rect width="24" height="24" fill="currentColor"/>
</clipPath>
</defs>
</svg>
