<svg width="24" height="24" viewBox="0 0 24 24"  xmlns="http://www.w3.org/2000/svg">
<g clip-path="url(#clip0_865_4954)">
<path fill-rule="evenodd" clip-rule="evenodd" d="M7.63625 23.9965C3.1493 22.1032 0 17.6628 0 12.4868C0 5.59053 5.59053 0 12.4868 0C17.6631 0 22.1038 3.14971 23.9969 7.63713L23.9987 7.6379L23.9976 7.63897C23.9985 7.64093 23.9993 7.64289 24.0001 7.64485L7.64286 23.9993L7.63882 23.9976L7.63734 23.9991L7.63625 23.9965ZM3.1217 12.4868C3.1217 7.31459 7.31459 3.1217 12.4868 3.1217C15.462 3.1217 18.1173 4.50952 19.8345 6.67868C19.6067 6.6663 19.3772 6.66003 19.1463 6.66003C12.25 6.66003 6.65952 12.2506 6.65952 19.1468C6.65952 19.3774 6.66578 19.6066 6.67812 19.8341C4.50928 18.1169 3.1217 15.4618 3.1217 12.4868Z" fill="currentColor"/>
</g>
<defs>
<clipPath id="clip0_865_4954">
<rect width="24" height="24" fill="currentColor"/>
</clipPath>
</defs>
</svg>
