<svg width="24" height="24" viewBox="0 0 24 24"  xmlns="http://www.w3.org/2000/svg">
<path d="M8.25 0C7.83579 0 7.5 0.335786 7.5 0.75C7.5 1.16421 7.83579 1.5 8.25 1.5H12V2.25C12 2.66421 12.3358 3 12.75 3C13.1642 3 13.5 2.66421 13.5 2.25V1.5H17.25C17.6642 1.5 18 1.16421 18 0.75C18 0.335786 17.6642 0 17.25 0H8.25ZM12.75 9C13.1642 9 13.5 9.33579 13.5 9.75V14.25C13.5 14.6642 13.1642 15 12.75 15C12.3358 15 12 14.6642 12 14.25V9.75C12 9.33579 12.3358 9 12.75 9Z" fill="currentColor"/>
<path fill-rule="evenodd" clip-rule="evenodd" d="M12.75 4.5C7.36522 4.5 3 8.86522 3 14.25C3 19.6348 7.36522 24 12.75 24C18.1348 24 22.5 19.6348 22.5 14.25C22.5 8.86522 18.1348 4.5 12.75 4.5ZM4.5 14.25C4.5 9.69365 8.19365 6 12.75 6C17.3063 6 21 9.69365 21 14.25C21 18.8064 17.3063 22.5 12.75 22.5C8.19365 22.5 4.5 18.8064 4.5 14.25Z" fill="currentColor"/>
</svg>
