<svg width="24" height="24" viewBox="0 0 24 24"  xmlns="http://www.w3.org/2000/svg">
<g clip-path="url(#clip0_865_6944)">
<path fill-rule="evenodd" clip-rule="evenodd" d="M8 17C7.44772 17 7 16.5523 7 16V8C7 7.44772 7.44772 7 8 7H16C16.5523 7 17 7.44772 17 8V16C17 16.5523 16.5523 17 16 17H8ZM8.5 9C8.5 8.72386 8.72386 8.5 9 8.5H15C15.2761 8.5 15.5 8.72386 15.5 9V15C15.5 15.2761 15.2761 15.5 15 15.5H9C8.72386 15.5 8.5 15.2761 8.5 15V9ZM24 12C24 18.6274 18.6274 24 12 24C5.37258 24 0 18.6274 0 12C0 5.37258 5.37258 0 12 0C18.6274 0 24 5.37258 24 12ZM22.5 12C22.5 17.799 17.799 22.5 12 22.5C6.20101 22.5 1.5 17.799 1.5 12C1.5 6.20101 6.20101 1.5 12 1.5C17.799 1.5 22.5 6.20101 22.5 12Z" fill="currentColor"/>
</g>
<defs>
<clipPath id="clip0_865_6944">
<rect width="24" height="24" fill="currentColor"/>
</clipPath>
</defs>
</svg>
