<svg width="24" height="24" viewBox="0 0 24 24"  xmlns="http://www.w3.org/2000/svg">
<g clip-path="url(#clip0_865_2347)">
<path fill-rule="evenodd" clip-rule="evenodd" d="M21.0001 4.35L23.8501 9.45C24.0001 9.6 24.0001 9.9 23.8501 10.2C23.7001 10.35 23.5501 10.5 23.2501 10.5H0.750098C0.450098 10.5 0.300098 10.35 0.150098 10.2C9.75728e-05 9.9 9.75728e-05 9.6 0.150098 9.45L3.0001 4.35V0.75C3.0001 0.3 3.3001 0 3.7501 0H20.2501C20.7001 0 21.0001 0.3 21.0001 0.75V4.35ZM4.5001 4.8L2.1001 9H21.9001L19.6501 4.8C19.5001 4.8 19.5001 4.65 19.5001 4.5V1.5H4.5001V4.8ZM19.5 12.75C19.5 12.3 19.8 12 20.25 12C20.7 12 21 12.3 21 12.75V23.25C21 23.7 20.7 24 20.25 24H3.75C3.3 24 3 23.7 3 23.25V12.75C3 12.3 3.3 12 3.75 12C4.2 12 4.5 12.3 4.5 12.75V22.5H9V17.25C9 16.8 9.3 16.5 9.75 16.5H14.25C14.7 16.5 15 16.8 15 17.25V22.5H19.5V12.75ZM10.5 22.5H13.5V18H10.5V22.5Z" fill="currentColor"/>
</g>
<defs>
<clipPath id="clip0_865_2347">
<rect width="24" height="24" fill="currentColor"/>
</clipPath>
</defs>
</svg>
