<svg width="24" height="24" viewBox="0 0 24 24"  xmlns="http://www.w3.org/2000/svg">
<path fill-rule="evenodd" clip-rule="evenodd" d="M11.25 2.25C11.25 1.83579 10.9142 1.5 10.5 1.5C10.0858 1.5 9.75 1.83579 9.75 2.25V20.25C9.75 20.6642 10.0858 21 10.5 21C10.9142 21 11.25 20.6642 11.25 20.25V2.25ZM14.25 3.75C14.25 3.33579 13.9142 3 13.5 3C13.0858 3 12.75 3.33579 12.75 3.75V21.75C12.75 22.1642 13.0858 22.5 13.5 22.5C13.9142 22.5 14.25 22.1642 14.25 21.75V3.75ZM7.5 6C7.91421 6 8.25 6.33579 8.25 6.75V17.25C8.25 17.6642 7.91421 18 7.5 18C7.08579 18 6.75 17.6642 6.75 17.25V6.75C6.75 6.33579 7.08579 6 7.5 6ZM5.20496 9.75C5.20496 9.33579 4.86917 9 4.45496 9C4.04074 9 3.70496 9.33579 3.70496 9.75V15.75C3.70496 16.1642 4.04074 16.5 4.45496 16.5C4.86917 16.5 5.20496 16.1642 5.20496 15.75V9.75ZM1.5 10.5C1.91421 10.5 2.25 10.8358 2.25 11.25V14.25C2.25 14.6642 1.91421 15 1.5 15C1.08579 15 0.75 14.6642 0.75 14.25V11.25C0.75 10.8358 1.08579 10.5 1.5 10.5ZM17.25 6.75C17.25 6.33579 16.9142 6 16.5 6C16.0858 6 15.75 6.33579 15.75 6.75V17.25C15.75 17.6642 16.0858 18 16.5 18C16.9142 18 17.25 17.6642 17.25 17.25V6.75ZM19.5 9C19.9142 9 20.25 9.33579 20.25 9.75V15.75C20.25 16.1642 19.9142 16.5 19.5 16.5C19.0858 16.5 18.75 16.1642 18.75 15.75V9.75C18.75 9.33579 19.0858 9 19.5 9ZM23.25 11.25C23.25 10.8358 22.9142 10.5 22.5 10.5C22.0858 10.5 21.75 10.8358 21.75 11.25V14.25C21.75 14.6642 22.0858 15 22.5 15C22.9142 15 23.25 14.6642 23.25 14.25V11.25Z" fill="currentColor"/>
</svg>
