<svg width="24" height="24" viewBox="0 0 24 24"  xmlns="http://www.w3.org/2000/svg">
<path d="M12 24C11.6022 24 11.2206 23.842 10.9393 23.5607C10.658 23.2794 10.5 22.8978 10.5 22.5V1.5C10.5 1.10218 10.658 0.720644 10.9393 0.43934C11.2206 0.158035 11.6022 0 12 0C12.3978 0 12.7794 0.158035 13.0607 0.43934C13.342 0.720644 13.5 1.10218 13.5 1.5V22.5C13.5 22.8978 13.342 23.2794 13.0607 23.5607C12.7794 23.842 12.3978 24 12 24ZM7.5 19.5C7.10218 19.5 6.72064 19.342 6.43934 19.0607C6.15804 18.7794 6 18.3978 6 18V6C6 5.60218 6.15804 5.22064 6.43934 4.93934C6.72064 4.65804 7.10218 4.5 7.5 4.5C7.89782 4.5 8.27936 4.65804 8.56066 4.93934C8.84196 5.22064 9 5.60218 9 6V18C9 18.3978 8.84196 18.7794 8.56066 19.0607C8.27936 19.342 7.89782 19.5 7.5 19.5ZM1.93934 14.5607C2.22064 14.842 2.60218 15 3 15C3.39782 15 3.77936 14.842 4.06066 14.5607C4.34196 14.2794 4.5 13.8978 4.5 13.5V10.5C4.5 10.1022 4.34196 9.72064 4.06066 9.43934C3.77936 9.15804 3.39782 9 3 9C2.60218 9 2.22064 9.15804 1.93934 9.43934C1.65804 9.72064 1.5 10.1022 1.5 10.5V13.5C1.5 13.8978 1.65804 14.2794 1.93934 14.5607ZM16.5 19.5C16.1022 19.5 15.7206 19.342 15.4393 19.0607C15.158 18.7794 15 18.3978 15 18V6C15 5.60218 15.158 5.22064 15.4393 4.93934C15.7206 4.65804 16.1022 4.5 16.5 4.5C16.8978 4.5 17.2794 4.65804 17.5607 4.93934C17.842 5.22064 18 5.60218 18 6V18C18 18.3978 17.842 18.7794 17.5607 19.0607C17.2794 19.342 16.8978 19.5 16.5 19.5ZM19.9393 14.5607C20.2206 14.842 20.6022 15 21 15C21.3978 15 21.7794 14.842 22.0607 14.5607C22.342 14.2794 22.5 13.8978 22.5 13.5V10.5C22.5 10.1022 22.342 9.72064 22.0607 9.43934C21.7794 9.15804 21.3978 9 21 9C20.6022 9 20.2206 9.15804 19.9393 9.43934C19.658 9.72064 19.5 10.1022 19.5 10.5V13.5C19.5 13.8978 19.658 14.2794 19.9393 14.5607Z" fill="currentColor"/>
</svg>
