<svg width="24" height="24" viewBox="0 0 24 24"  xmlns="http://www.w3.org/2000/svg">
<path d="M3 1.75C3 1.33579 3.33579 1 3.75 1H20.25C20.6642 1 21 1.33579 21 1.75V4.75C21 5.16421 20.6642 5.5 20.25 5.5C19.8358 5.5 19.5 5.16421 19.5 4.75V2.5H12.75V11H22.25C22.6642 11 23 11.3358 23 11.75C23 12.1642 22.6642 12.5 22.25 12.5H1.75C1.33579 12.5 1 12.1642 1 11.75C1 11.3358 1.33579 11 1.75 11H11.25V2.5H4.5V4.75C4.5 5.16421 4.16421 5.5 3.75 5.5C3.33579 5.5 3 5.16421 3 4.75V1.75ZM7.75 21.5C7.33579 21.5 7 21.8358 7 22.25C7 22.6642 7.33579 23 7.75 23H16.2461C16.6603 23 16.9961 22.6642 16.9961 22.25C16.9961 21.8358 16.6603 21.5 16.2461 21.5H12.75V14.75C12.75 14.3358 12.4142 14 12 14C11.5858 14 11.25 14.3358 11.25 14.75V21.5H7.75Z" fill="currentColor"/>
</svg>
