<svg width="24" height="24" viewBox="0 0 24 24"  xmlns="http://www.w3.org/2000/svg">
<g clip-path="url(#clip0_865_6057)">
<path d="M14 3H17.5585C18.4194 3 19.1836 3.55084 19.4559 4.36755L19.886 5.65811C19.9541 5.86228 20.1452 6 20.3604 6H21.5C21.7761 6 22 5.77614 22 5.5V0.5C22 0.223858 21.7761 0 21.5 0H2.5C2.22386 0 2 0.223858 2 0.5V5.5C2 5.77614 2.22386 6 2.5 6H3.63962C3.85483 6 4.0459 5.86228 4.11396 5.65811L4.54413 4.36755C4.81641 3.55084 5.58063 3 6.44153 3H10V10H1.5C0.671573 10 0 10.6716 0 11.5C0 12.3284 0.671573 13 1.5 13H22.5C23.3284 13 24 12.3284 24 11.5C24 10.6716 23.3284 10 22.5 10H14V3ZM14 19.4384V15H10V19.4384C10 20.3561 9.37543 21.1561 8.48505 21.3787L6.37873 21.9053C6.15615 21.961 6 22.161 6 22.3904V23.5C6 23.7761 6.22386 24 6.5 24H17.5C17.7761 24 18 23.7761 18 23.5V22.3904C18 22.161 17.8439 21.961 17.6213 21.9053L15.5149 21.3787C14.6246 21.1561 14 20.3561 14 19.4384Z" fill="currentColor"/>
</g>
<defs>
<clipPath id="clip0_865_6057">
<rect width="24" height="24" fill="currentColor"/>
</clipPath>
</defs>
</svg>
