<svg width="24" height="24" viewBox="0 0 24 24"  xmlns="http://www.w3.org/2000/svg">
<path fill-rule="evenodd" clip-rule="evenodd" d="M18.22 2.21984C18.2896 2.15014 18.3724 2.09486 18.4634 2.05714C18.5544 2.01942 18.652 2 18.7505 2C18.849 2 18.9466 2.01942 19.0376 2.05714C19.1287 2.09486 19.2113 2.15014 19.281 2.21984L23.281 6.21984C23.3507 6.28949 23.406 6.37219 23.4437 6.46322C23.4814 6.55424 23.5008 6.65181 23.5008 6.75034C23.5008 6.84887 23.4814 6.94644 23.4437 7.03746C23.406 7.12849 23.3507 7.21119 23.281 7.28084L19.281 11.2808C19.1403 11.4215 18.9495 11.5006 18.7505 11.5006C18.5515 11.5006 18.3607 11.4215 18.22 11.2808C18.0793 11.1401 18.0003 10.9493 18.0003 10.7503C18.0003 10.5514 18.0793 10.3605 18.22 10.2198L20.94 7.49984H7.5V12.7498C7.5 13.6118 7.84241 14.4384 8.4519 15.0479C9.0614 15.6574 9.88805 15.9998 10.75 15.9998H16.939L14.219 13.2798C14.0783 13.1391 13.9993 12.9483 13.9993 12.7493C13.9993 12.5504 14.0783 12.3595 14.219 12.2188C14.3597 12.0781 14.5505 11.9991 14.7495 11.9991C14.9485 11.9991 15.1393 12.0781 15.28 12.2188L19.28 16.2188C19.3497 16.2885 19.405 16.3712 19.4427 16.4622C19.4804 16.5532 19.4998 16.6508 19.4998 16.7493C19.4998 16.8479 19.4804 16.9454 19.4427 17.0365C19.405 17.1275 19.3497 17.2102 19.28 17.2798L15.28 21.2798C15.2103 21.3495 15.1276 21.4048 15.0366 21.4425C14.9456 21.4802 14.848 21.4996 14.7495 21.4996C14.651 21.4996 14.5534 21.4802 14.4624 21.4425C14.3714 21.4048 14.2887 21.3495 14.219 21.2798C14.1493 21.2102 14.0941 21.1275 14.0564 21.0364C14.0187 20.9454 13.9993 20.8479 13.9993 20.7493C13.9993 20.6508 14.0187 20.5533 14.0564 20.4622C14.0941 20.3712 14.1493 20.2885 14.219 20.2188L16.939 17.4988H10.75C9.49039 17.4988 8.28237 16.9985 7.3916 16.108C6.50083 15.2174 6.00027 14.0094 6 12.7498V7.49984H1.75C1.55109 7.49984 1.36032 7.42082 1.21967 7.28017C1.07902 7.13952 1 6.94875 1 6.74984C1 6.55093 1.07902 6.36016 1.21967 6.21951C1.36032 6.07886 1.55109 5.99984 1.75 5.99984H20.939L18.219 3.27984C18.1493 3.21019 18.094 3.12749 18.0563 3.03646C18.0186 2.94544 17.9992 2.84787 17.9992 2.74934C17.9992 2.65081 18.0186 2.55324 18.0563 2.46222C18.094 2.37119 18.1493 2.28849 18.219 2.21884L18.22 2.21984Z" fill="currentColor"/>
</svg>
