<svg width="24" height="24" viewBox="0 0 24 24"  xmlns="http://www.w3.org/2000/svg">
<path d="M4.5 11.75C4.5 11.3358 4.83579 11 5.25 11H12.75C13.1642 11 13.5 11.3358 13.5 11.75C13.5 12.1642 13.1642 12.5 12.75 12.5H5.25C4.83579 12.5 4.5 12.1642 4.5 11.75ZM17.25 11C16.8358 11 16.5 11.3358 16.5 11.75C16.5 12.1642 16.8358 12.5 17.25 12.5H18.75C19.1642 12.5 19.5 12.1642 19.5 11.75C19.5 11.3358 19.1642 11 18.75 11H17.25Z" fill="currentColor"/>
<path fill-rule="evenodd" clip-rule="evenodd" d="M6 18H1.5C0.671573 18 0 17.3284 0 16.5V3.5C0 2.67157 0.671573 2 1.5 2H22.5C23.3284 2 24 2.67157 24 3.5V16.5C24 17.3284 23.3284 18 22.5 18H14.8914L7.15523 23.8607C6.93463 24.021 6.64182 24.0448 6.3978 23.9223C6.15378 23.7998 6 23.5517 6 23.2807V18ZM1.5 3.5H22.5V16.5H14.8333C14.617 16.5 14.4064 16.5702 14.2333 16.7L12.5 18L7.5 21.8611V17C7.5 16.7239 7.27614 16.5 7 16.5H1.5V3.5Z" fill="currentColor"/>
</svg>
