<svg width="24" height="24" viewBox="0 0 24 24"  xmlns="http://www.w3.org/2000/svg">
<path d="M23 2H1C0.734784 2 0.48043 2.10536 0.292893 2.29289C0.105357 2.48043 0 2.73478 0 3V17C0 17.2652 0.105357 17.5196 0.292893 17.7071C0.48043 17.8946 0.734784 18 1 18H6V23C6 23.412 6.47038 23.6472 6.8 23.4L14 18H23C23.2652 18 23.5196 17.8946 23.7071 17.7071C23.8946 17.5196 24 17.2652 24 17V3C24 2.73478 23.8946 2.48043 23.7071 2.29289C23.5196 2.10536 23.2652 2 23 2ZM14 12.5C14 12.7761 13.7761 13 13.5 13H3.5C3.22386 13 3 12.7761 3 12.5V11.5C3 11.2239 3.22386 11 3.5 11H13.5C13.7761 11 14 11.2239 14 11.5V12.5ZM21 12.5C21 12.7761 20.7761 13 20.5 13H17.5C17.2239 13 17 12.7761 17 12.5V11.5C17 11.2239 17.2239 11 17.5 11H20.5C20.7761 11 21 11.2239 21 11.5V12.5Z" fill="currentColor"/>
</svg>
