<svg width="24" height="24" viewBox="0 0 24 24"  xmlns="http://www.w3.org/2000/svg">
<g clip-path="url(#clip0_865_2899)">
<path d="M12 0C5.4 0 0 5.4 0 12C0 18.6 5.4 24 12 24C18.6 24 24 18.6 24 12C24 5.4 18.6 0 12 0ZM7.5 9C7.5 8.1 8.1 7.5 9 7.5C9.9 7.5 10.5 8.1 10.5 9C10.5 9.9 9.9 10.5 9 10.5C8.1 10.5 7.5 9.9 7.5 9ZM12 18C10.35 18 9 16.65 9 15C9 13.35 10.35 12 12 12C13.65 12 15 13.35 15 15C15 16.65 13.65 18 12 18ZM15 10.5C14.1 10.5 13.5 9.9 13.5 9C13.5 8.1 14.1 7.5 15 7.5C15.9 7.5 16.5 8.1 16.5 9C16.5 9.9 15.9 10.5 15 10.5Z" fill="currentColor"/>
</g>
<defs>
<clipPath id="clip0_865_2899">
<rect width="24" height="24" fill="currentColor"/>
</clipPath>
</defs>
</svg>
