<svg width="24" height="24" viewBox="0 0 24 24"  xmlns="http://www.w3.org/2000/svg">
<g clip-path="url(#clip0_865_2893)">
<path fill-rule="evenodd" clip-rule="evenodd" d="M1.5 12C1.5 6.20101 6.20101 1.5 12 1.5C17.799 1.5 22.5 6.20101 22.5 12C22.5 17.799 17.799 22.5 12 22.5C6.20101 22.5 1.5 17.799 1.5 12ZM12 0C5.37258 0 0 5.37258 0 12C0 18.6275 5.37258 24 12 24C18.6275 24 24 18.6275 24 12C24 5.37258 18.6275 0 12 0ZM9 9C9 9.82842 8.32842 10.5 7.5 10.5C6.67158 10.5 6 9.82842 6 9C6 8.17158 6.67158 7.5 7.5 7.5C8.32842 7.5 9 8.17158 9 9ZM16.5 10.5C17.3284 10.5 18 9.82842 18 9C18 8.17158 17.3284 7.5 16.5 7.5C15.6715 7.5 15 8.17158 15 9C15 9.82842 15.6715 10.5 16.5 10.5ZM9 16.5C9 14.8431 10.3431 13.5 12 13.5C13.6569 13.5 15 14.8431 15 16.5C15 18.1569 13.6569 19.5 12 19.5C10.3431 19.5 9 18.1569 9 16.5ZM12 12C9.51472 12 7.5 14.0147 7.5 16.5C7.5 18.9853 9.51472 21 12 21C14.4853 21 16.5 18.9853 16.5 16.5C16.5 14.0147 14.4853 12 12 12Z" fill="currentColor"/>
</g>
<defs>
<clipPath id="clip0_865_2893">
<rect width="24" height="24" fill="currentColor"/>
</clipPath>
</defs>
</svg>
