<svg width="24" height="24" viewBox="0 0 24 24" fill="none" xmlns="http://www.w3.org/2000/svg">
<g clip-path="url(#clip0_865_1315)">
<path d="M12 0C5.34545 0 0 5.34545 0 12C0 18.6545 5.34545 24 12 24C18.6545 24 24 18.6545 24 12C24 5.34545 18.6545 0 12 0ZM18.4364 6.98182C17.8909 6.98182 17.4545 6.65455 17.4545 6.21818C17.4545 6 17.4545 5.89091 17.6727 5.67273C17.7818 5.45455 17.7818 5.45455 17.7818 5.34545C17.7818 5.01818 17.3455 5.01818 17.1273 5.01818C15.2727 5.12727 14.8364 7.52727 14.5091 9.49091L14.2909 10.5818C15.2727 10.6909 16.0364 10.5818 16.4727 10.2545C17.0182 9.92727 16.3636 9.49091 16.3636 9.05455C16.4727 8.61818 16.8 8.4 17.1273 8.4C17.5636 8.4 17.8909 8.83636 17.8909 9.27273C17.8909 10.0364 16.9091 11.1273 14.8364 11.0182C14.6182 11.0182 14.4 11.0182 14.1818 11.0182L13.7455 13.0909C13.4182 14.7273 12.9818 16.9091 11.3455 18.7636C9.92727 20.4 8.50909 20.7273 7.85455 20.7273C6.65455 20.7273 5.89091 20.0727 5.89091 19.3091C5.89091 18.5455 6.54545 18 7.09091 18C7.74545 18 8.18182 18.4364 8.18182 18.9818C8.18182 19.4182 7.96364 19.5273 7.85455 19.6364C7.74545 19.6364 7.63636 19.7455 7.63636 19.9636C7.63636 20.0727 7.74545 20.1818 7.96364 20.1818C8.50909 20.1818 8.83636 19.9636 9.05455 19.7455C10.2545 18.7636 10.6909 17.1273 11.2364 14.0727L11.3455 13.3091C11.5636 12.3273 11.7818 11.2364 12.1091 10.0364C11.2364 9.49091 10.8 8.72727 9.70909 8.4C8.94545 8.18182 8.50909 8.4 8.18182 8.72727C7.74545 9.16364 7.96364 9.81818 8.29091 10.2545L8.83636 10.9091C9.6 11.7818 10.0364 12.4364 9.81818 13.3091C9.6 14.7273 7.85455 15.8182 5.78182 15.1636C4.03636 14.6182 3.70909 13.4182 3.92727 12.7636C4.14545 12.1091 4.58182 12 5.01818 12.2182C5.56364 12.3273 5.67273 12.9818 5.56364 13.4182C5.56364 13.5273 5.56364 13.5273 5.45455 13.6364C5.56364 13.8545 5.45455 13.9636 5.45455 14.1818C5.34545 14.5091 5.89091 14.8364 6.21818 14.9455C6.98182 15.1636 7.74545 14.7273 7.96364 14.1818C8.07273 13.5273 7.63636 13.0909 7.52727 12.9818L6.76364 12.2182C6.43636 11.8909 5.67273 10.8 6 9.6C6.21818 9.05455 6.54545 8.61818 6.98182 8.29091C7.85455 7.63636 8.83636 7.52727 9.70909 7.74546C10.9091 8.07273 11.4545 8.94545 12.2182 9.49091C12.6545 8.29091 13.2 7.09091 14.0727 6C14.8364 5.01818 15.9273 4.36364 17.1273 4.36364C18.3273 4.36364 19.3091 4.90909 19.3091 5.78182C19.4182 6.21818 19.2 6.87273 18.4364 6.98182Z" fill="#1A171B"/>
</g>
<defs>
<clipPath id="clip0_865_1315">
<rect width="24" height="24" fill="white"/>
</clipPath>
</defs>
</svg>
