<svg width="24" height="24" viewBox="0 0 24 24"  xmlns="http://www.w3.org/2000/svg">
<path d="M23.5 2.7999C23.7761 2.7999 24 2.57604 24 2.2999V1.8999C24 1.62376 23.7761 1.3999 23.5 1.3999H0.5C0.223857 1.3999 0 1.62376 0 1.8999V2.2999C0 2.57605 0.223858 2.7999 0.5 2.7999H7.4V7.8999H0.500001C0.223858 7.8999 0 8.12376 0 8.3999V8.8999C0 9.17604 0.223858 9.3999 0.5 9.3999H7.4V14.4999H0.500001C0.223858 14.4999 0 14.7238 0 14.9999V15.4999C0 15.776 0.223858 15.9999 0.5 15.9999H7.4V21.0999H0.500001C0.223858 21.0999 0 21.3238 0 21.5999V21.9999C0 22.276 0.223858 22.4999 0.5 22.4999H23.5C23.7761 22.4999 24 22.276 24 21.9999V21.5999C24 21.3238 23.7761 21.0999 23.5 21.0999H16.5V15.8999H23.5C23.7761 15.8999 24 15.676 24 15.3999V14.9999C24 14.7238 23.7761 14.4999 23.5 14.4999H16.5V9.3999H23.5C23.7761 9.3999 24 9.17604 24 8.8999V8.3999C24 8.12376 23.7761 7.8999 23.5 7.8999H16.5V2.7999H23.5ZM15.2 21.0999H8.8V15.9999H15.1V21.0999H15.2ZM15.2 14.5999H8.8V9.4999H15.1V14.5999H15.2ZM15.2 7.8999H8.8V2.7999H15.1V7.8999H15.2Z" fill="currentColor"/>
</svg>
