<svg width="24" height="24" viewBox="0 0 24 24"  xmlns="http://www.w3.org/2000/svg">
<g clip-path="url(#clip0_865_4362)">
<path d="M22.9 4.9C23.6 4.9 24 4.5 24 3.8V1.6C24 0.9 23.6 0.5 22.9 0.5H1.1C0.4 0.5 0 0.9 0 1.6V3.8C0 4.5 0.4 4.9 1.1 4.9H7.4V9H0.500001C0.223858 9 0 9.22386 0 9.5V9.8C0 10.0761 0.223858 10.3 0.5 10.3H7.4V15.5H0.500001C0.223858 15.5 0 15.7239 0 16V16.5C0 16.7761 0.223858 17 0.5 17H7.4V22.1H0.500001C0.223858 22.1 0 22.3239 0 22.6V23C0 23.2761 0.223858 23.5 0.5 23.5H23.5C23.7761 23.5 24 23.2761 24 23V22.6C24 22.3239 23.7761 22.1 23.5 22.1H16.5V17H23.5C23.7761 17 24 16.7761 24 16.5V16.1C24 15.8239 23.7761 15.6 23.5 15.6H16.5V10.5H23.5C23.7761 10.5 24 10.2761 24 10V9.5C24 9.22386 23.7761 9 23.5 9H16.5V4.9H22.9ZM8.8 4.9H15V9H8.8V4.9ZM15.2 22.1H8.8V17H15.1V22.1H15.2ZM15.2 15.4H8.8V10.3H15.1V15.4H15.2Z" fill="currentColor"/>
</g>
<defs>
<clipPath id="clip0_865_4362">
<rect width="24" height="24" fill="currentColor"/>
</clipPath>
</defs>
</svg>
