<svg width="24" height="24" viewBox="0 0 24 24"  xmlns="http://www.w3.org/2000/svg">
<g clip-path="url(#clip0_865_4356)">
<path fill-rule="evenodd" clip-rule="evenodd" d="M1 12C0.447716 12 0 11.5523 0 11V1C0 0.447715 0.447715 0 1 0H23C23.5523 0 24 0.447715 24 1V11C24 11.5523 23.5523 12 23 12H1ZM2 8.5C2 8.77614 2.22386 9 2.5 9H9.5C9.77614 9 10 8.77614 10 8.5V3.5C10 3.22386 9.77614 3 9.5 3H2.5C2.22386 3 2 3.22386 2 3.5V8.5ZM14 8.5C14 8.77614 14.2239 9 14.5 9H21.5C21.7761 9 22 8.77614 22 8.5V3.5C22 3.22386 21.7761 3 21.5 3H14.5C14.2239 3 14 3.22386 14 3.5V8.5Z" fill="currentColor"/>
<path d="M11 14.5C11 14.2239 10.7761 14 10.5 14H0.5C0.223858 14 0 14.2239 0 14.5V17.5C0 17.7761 0.223858 18 0.5 18H10.5C10.7761 18 11 17.7761 11 17.5V14.5ZM24 14.5C24 14.2239 23.7761 14 23.5 14H13.5C13.2239 14 13 14.2239 13 14.5V17.5C13 17.7761 13.2239 18 13.5 18H23.5C23.7761 18 24 17.7761 24 17.5V14.5ZM0 20.5C0 20.2239 0.223858 20 0.5 20H10.5C10.7761 20 11 20.2239 11 20.5V23.5C11 23.7761 10.7761 24 10.5 24H0.5C0.223858 24 0 23.7761 0 23.5V20.5ZM24 20.5C24 20.2239 23.7761 20 23.5 20H13.5C13.2239 20 13 20.2239 13 20.5V23.5C13 23.7761 13.2239 24 13.5 24H23.5C23.7761 24 24 23.7761 24 23.5V20.5Z" fill="currentColor"/>
</g>
<defs>
<clipPath id="clip0_865_4356">
<rect width="24" height="24" fill="currentColor"/>
</clipPath>
</defs>
</svg>
