<svg width="24" height="24" viewBox="0 0 24 24"  xmlns="http://www.w3.org/2000/svg">
<g clip-path="url(#clip0_865_5503)">
<path d="M1.5 24.0004H10.5C11.328 24.0004 12 23.3299 12 22.5004C12 21.6709 11.328 21.0004 10.5 21.0004H3V9.62138L9 3.62138L13.9395 8.56087C14.526 9.14737 15.474 9.14737 16.0605 8.56087C16.647 7.97437 16.647 7.02638 16.0605 6.43988L10.0605 0.439875C9.474 -0.146625 8.526 -0.146625 7.9395 0.439875L0.4395 7.93988C0.1575 8.22038 0 8.60137 0 9.00037V22.5004C0 23.3299 0.672 24.0004 1.5 24.0004ZM19.5 16.5H24V19.5H19.5V24H16.5V19.5H12V16.5H16.5V12H19.5V16.5Z" fill="currentColor"/>
</g>
<defs>
<clipPath id="clip0_865_5503">
<rect width="24" height="24" fill="currentColor"/>
</clipPath>
</defs>
</svg>
