<svg width="24" height="24" viewBox="0 0 24 24"  xmlns="http://www.w3.org/2000/svg">
<g clip-path="url(#clip0_865_5510)">
<path d="M0.75 0C0.335787 0 0 0.335787 0 0.75V10.5C0 10.6989 0.0790176 10.8897 0.219671 11.0303L4.4335 15.2442L5.49417 14.1835L1.5 10.1893V1.5H10.1893L14.1835 5.49417L15.2442 4.4335L11.0303 0.219671C10.8897 0.0790176 10.6989 0 10.5 0H0.75Z" fill="currentColor"/>
<path fill-rule="evenodd" clip-rule="evenodd" d="M19.3133 3.63565L19.3224 3.64476L1.64476 21.3224L1.63565 21.3133L0.974699 21.9743C0.682882 22.2661 0.682882 22.7392 0.974699 23.031C1.26652 23.3229 1.73964 23.3229 2.03146 23.031L7.1259 17.9366L12.9697 23.7804C13.2626 24.0732 13.7374 24.0732 14.0303 23.7804L23.7804 14.0303C24.0732 13.7374 24.0732 13.2626 23.7804 12.9697L17.9366 7.1259L23.0311 2.03143C23.3229 1.73962 23.3229 1.26649 23.0311 0.97467C22.7393 0.682854 22.2661 0.682853 21.9743 0.97467L19.3133 3.63565ZM13.5 22.1894L8.18658 16.8759L16.8759 8.18658L22.1894 13.5L13.5 22.1894Z" fill="currentColor"/>
<path d="M7.5 6C7.5 6.82842 6.82842 7.5 6 7.5C5.17158 7.5 4.5 6.82842 4.5 6C4.5 5.17158 5.17158 4.5 6 4.5C6.82842 4.5 7.5 5.17158 7.5 6Z" fill="currentColor"/>
</g>
<defs>
<clipPath id="clip0_865_5510">
<rect width="24" height="24" fill="currentColor"/>
</clipPath>
</defs>
</svg>
