<svg width="24" height="24" viewBox="0 0 24 24"  xmlns="http://www.w3.org/2000/svg">
<g clip-path="url(#clip0_865_5535)">
<path d="M1.5 24.0004H10.5C11.328 24.0004 12 23.3299 12 22.5004C12 21.6709 11.328 21.0004 10.5 21.0004H3V9.62138L9 3.62138L13.9395 8.56087C14.526 9.14737 15.474 9.14737 16.0605 8.56087C16.647 7.97437 16.647 7.02638 16.0605 6.43988L10.0605 0.439875C9.474 -0.146625 8.526 -0.146625 7.9395 0.439875L0.4395 7.93988C0.1575 8.22038 0 8.60137 0 9.00037V22.5004C0 23.3299 0.672 24.0004 1.5 24.0004Z" fill="currentColor"/>
<path fill-rule="evenodd" clip-rule="evenodd" d="M10.75 16C10.75 13.1005 13.1005 10.75 16 10.75C18.8995 10.75 21.25 13.1005 21.25 16C21.25 16.9967 20.9723 17.9285 20.4899 18.7223L23.8839 22.1162L22.1161 23.884L18.7222 20.49C17.9284 20.9723 16.9966 21.25 16 21.25C13.1005 21.25 10.75 18.8995 10.75 16ZM16 13.25C14.4812 13.25 13.25 14.4812 13.25 16C13.25 17.5188 14.4812 18.75 16 18.75C17.5188 18.75 18.75 17.5188 18.75 16C18.75 14.4812 17.5188 13.25 16 13.25Z" fill="currentColor"/>
</g>
<defs>
<clipPath id="clip0_865_5535">
<rect width="24" height="24" fill="currentColor"/>
</clipPath>
</defs>
</svg>
