<svg width="24" height="24" viewBox="0 0 24 24"  xmlns="http://www.w3.org/2000/svg">
<g clip-path="url(#clip0_865_5522)">
<path fill-rule="evenodd" clip-rule="evenodd" d="M0.75 0C0.335787 0 0 0.335787 0 0.75V10.5C0 10.6989 0.0790176 10.8897 0.219671 11.0303L12.9697 23.7804C13.2626 24.0732 13.7374 24.0732 14.0303 23.7804L23.7804 14.0303C24.0732 13.7374 24.0732 13.2626 23.7804 12.9697L11.0303 0.219671C10.8897 0.0790176 10.6989 0 10.5 0H0.75ZM1.5 10.1893V1.5H10.1893L22.1894 13.5L13.5 22.1894L1.5 10.1893ZM7.5 6C7.5 6.82842 6.82842 7.5 6 7.5C5.17158 7.5 4.5 6.82842 4.5 6C4.5 5.17158 5.17158 4.5 6 4.5C6.82842 4.5 7.5 5.17158 7.5 6Z" fill="currentColor"/>
</g>
<defs>
<clipPath id="clip0_865_5522">
<rect width="24" height="24" fill="currentColor"/>
</clipPath>
</defs>
</svg>
