<svg width="24" height="24" viewBox="0 0 24 24"  xmlns="http://www.w3.org/2000/svg">
<g clip-path="url(#clip0_865_5541)">
<path d="M23.55 12.45L11.55 0.45C11.25 0.15 10.95 0 10.5 0H1.5C0.6 0 0 0.6 0 1.5V10.5C0 10.95 0.15 11.25 0.45 11.55L12.45 23.55C12.75 23.85 13.05 24 13.5 24C13.95 24 14.25 23.85 14.55 23.55L23.55 14.55C24.15 13.95 24.15 13.05 23.55 12.45ZM6 7.5C5.1 7.5 4.5 6.9 4.5 6C4.5 5.1 5.1 4.5 6 4.5C6.9 4.5 7.5 5.1 7.5 6C7.5 6.9 6.9 7.5 6 7.5Z" fill="currentColor"/>
</g>
<defs>
<clipPath id="clip0_865_5541">
<rect width="24" height="24" fill="currentColor"/>
</clipPath>
</defs>
</svg>
