<svg width="24" height="24" viewBox="0 0 24 24"  xmlns="http://www.w3.org/2000/svg">
<g clip-path="url(#clip0_865_5497)">
<path d="M9.5045 0.195045C9.21844 -0.065015 8.78156 -0.065015 8.49549 0.195045L0.245495 7.69504C0.0891396 7.83719 0 8.03869 0 8.25V21.75C0 22.9922 1.00779 24 2.25 24H9.75C10.1642 24 10.5 23.6642 10.5 23.25C10.5 22.8358 10.1642 22.5 9.75 22.5H2.25C1.83621 22.5 1.5 22.1638 1.5 21.75V8.58178L9 1.7636L16.7455 8.80496C17.052 9.08358 17.5263 9.061 17.805 8.7545C18.0836 8.44801 18.061 7.97368 17.7545 7.69504L9.5045 0.195045ZM18 14.25C18 13.8358 17.6642 13.5 17.25 13.5C16.8358 13.5 16.5 13.8358 16.5 14.25V16.5H14.25C13.8358 16.5 13.5 16.8358 13.5 17.25C13.5 17.6642 13.8358 18 14.25 18H16.5V20.25C16.5 20.6642 16.8358 21 17.25 21C17.6642 21 18 20.6642 18 20.25V18H20.25C20.6642 18 21 17.6642 21 17.25C21 16.8358 20.6642 16.5 20.25 16.5H18V14.25Z" fill="currentColor"/>
<path fill-rule="evenodd" clip-rule="evenodd" d="M17.25 10.5C13.5221 10.5 10.5 13.5221 10.5 17.25C10.5 20.9779 13.5221 24 17.25 24C20.9779 24 24 20.9779 24 17.25C24 13.5221 20.9779 10.5 17.25 10.5ZM12 17.25C12 14.3505 14.3505 12 17.25 12C20.1495 12 22.5 14.3505 22.5 17.25C22.5 20.1495 20.1495 22.5 17.25 22.5C14.3505 22.5 12 20.1495 12 17.25Z" fill="currentColor"/>
</g>
<defs>
<clipPath id="clip0_865_5497">
<rect width="24" height="24" fill="currentColor"/>
</clipPath>
</defs>
</svg>
