<svg width="24" height="24" viewBox="0 0 24 24"  xmlns="http://www.w3.org/2000/svg">
<path d="M10.4955 0.195045C10.7816 -0.065015 11.2184 -0.065015 11.5045 0.195045L19.7545 7.69504C20.061 7.97368 20.0836 8.44801 19.805 8.7545C19.5263 9.061 19.052 9.08358 18.7455 8.80496L11 1.7636L3.5 8.58178V21.75C3.5 22.1638 3.83621 22.5 4.25 22.5H11.75C12.1642 22.5 12.5 22.8358 12.5 23.25C12.5 23.6642 12.1642 24 11.75 24H4.25C3.00779 24 2 22.9922 2 21.75V8.25C2 8.03869 2.08914 7.83719 2.2455 7.69504L10.4955 0.195045Z" fill="currentColor"/>
<path fill-rule="evenodd" clip-rule="evenodd" d="M20.991 18.5768C21.4712 17.8345 21.75 16.9498 21.75 16C21.75 13.3766 19.6234 11.25 17 11.25C14.3766 11.25 12.25 13.3766 12.25 16C12.25 18.6234 14.3766 20.75 17 20.75C17.9498 20.75 18.8345 20.4712 19.5768 19.991L22.2929 22.7071C22.6834 23.0976 23.3166 23.0976 23.7071 22.7071C24.0976 22.3166 24.0976 21.6834 23.7071 21.2929L20.991 18.5768ZM19.2215 18.3723C18.6403 18.9167 17.8591 19.25 17 19.25C15.2051 19.25 13.75 17.7949 13.75 16C13.75 14.2051 15.2051 12.75 17 12.75C18.7949 12.75 20.25 14.2051 20.25 16C20.25 16.8591 19.9167 17.6403 19.3723 18.2215C19.3449 18.2436 19.3184 18.2674 19.2929 18.2929C19.2674 18.3184 19.2436 18.3449 19.2215 18.3723Z" fill="currentColor"/>
</svg>
