<svg width="24" height="24" viewBox="0 0 24 24"  xmlns="http://www.w3.org/2000/svg">
<g clip-path="url(#clip0_865_5517)">
<path fill-rule="evenodd" clip-rule="evenodd" d="M23.0723 3.02078C23.0629 3.02971 23.0536 3.03879 23.0444 3.04801L3.04804 23.0444C3.03881 23.0536 3.02972 23.0629 3.02078 23.0723L2.53923 23.5539C1.96101 24.1321 1.02355 24.1321 0.445335 23.5539C-0.132878 22.9757 -0.132877 22.0382 0.445335 21.46L5.40267 16.5027L0.45 11.55C0.15 11.25 0 10.95 0 10.5V1.5C0 0.6 0.6 0 1.5 0H10.5C10.95 0 11.25 0.15 11.55 0.45L16.5027 5.40267L21.46 0.445383C22.0382 -0.13283 22.9756 -0.132829 23.5538 0.445384C24.1321 1.0236 24.1321 1.96106 23.5538 2.53928L23.0723 3.02078ZM6 7.5C5.1 7.5 4.5 6.9 4.5 6C4.5 5.1 5.1 4.5 6 4.5C6.9 4.5 7.5 5.1 7.5 6C7.5 6.9 6.9 7.5 6 7.5Z" fill="currentColor"/>
<path d="M20.6922 9.59223L9.59223 20.6922L12.45 23.55C12.75 23.85 13.05 24 13.5 24C13.95 24 14.25 23.85 14.55 23.55L23.55 14.55C24.15 13.95 24.15 13.05 23.55 12.45L20.6922 9.59223Z" fill="currentColor"/>
</g>
<defs>
<clipPath id="clip0_865_5517">
<rect width="24" height="24" fill="currentColor"/>
</clipPath>
</defs>
</svg>
