<svg width="24" height="24" viewBox="0 0 24 24"  xmlns="http://www.w3.org/2000/svg">
<g clip-path="url(#clip0_865_1869)">
<path fill-rule="evenodd" clip-rule="evenodd" d="M12.1512 0C7.00895 0 3.98407 1.36119 2.32039 2.4199C0.807953 3.47861 -0.250754 5.44478 0.0517343 6.95722C0.354222 8.77215 1.11044 9.52836 1.71542 9.83085C2.0179 9.9821 2.32039 10.1333 2.77412 10.1333C3.98407 10.1333 6.25273 9.52836 7.1602 8.92339C8.74342 8.26371 9.06063 7.02858 9.21622 6.42277C9.23899 6.33411 9.2583 6.25893 9.27761 6.201V5.89851C9.73134 5.74727 10.6388 5.59602 12.1512 5.59602C13.6637 5.59602 14.5711 5.74727 15.0249 5.89851V6.04976C15.0249 6.50349 15.3274 8.16717 16.8398 8.92339C17.7473 9.37712 20.0159 10.1333 21.2259 10.1333C21.6796 10.1333 21.9821 9.9821 22.2846 9.83085C22.8896 9.52836 23.6458 8.77215 23.9483 6.95722C24.2508 5.29354 23.192 3.32736 21.6796 2.4199C20.3184 1.36119 17.1423 0 12.1512 0ZM1.53133 6.71062L1.52735 6.68676L1.52261 6.66304C1.45844 6.34222 1.52276 5.82332 1.84084 5.20162C2.14583 4.6055 2.61936 4.0487 3.15509 3.66676C4.591 2.75947 7.33288 1.5 12.1512 1.5C16.9012 1.5 19.7255 2.80033 20.7587 3.60393L20.8302 3.65954L20.9079 3.70614C21.3994 4.00109 21.8576 4.49879 22.1592 5.08819C22.4628 5.68165 22.5515 6.25401 22.4725 6.68889L22.4705 6.69974L22.4687 6.71062C22.2265 8.16376 21.6975 8.44737 21.6138 8.48921C21.4506 8.57077 21.3913 8.59789 21.3376 8.61579C21.3042 8.62692 21.2753 8.63334 21.2259 8.63334C20.8487 8.63334 20.1527 8.4988 19.3444 8.25999C18.562 8.02882 17.8583 7.75558 17.5106 7.58175C17.1318 7.39235 16.8859 7.0847 16.7244 6.73881C16.6435 6.56541 16.5909 6.39562 16.5593 6.25528C16.5335 6.14019 16.5265 6.0677 16.5249 6.04976V4.81737L15.4992 4.47549C14.8231 4.2501 13.7302 4.09602 12.1512 4.09602C10.5723 4.09602 9.47942 4.2501 8.80327 4.47549L7.77761 4.81737V5.99419L7.7648 6.04407C7.74198 6.13291 7.72255 6.2084 7.69888 6.28904C7.65279 6.4461 7.59765 6.59654 7.52056 6.74043C7.38254 6.99808 7.13908 7.30719 6.58327 7.53877L6.44909 7.59468L6.32815 7.67531C6.08119 7.83995 5.47795 8.09207 4.68592 8.30808C3.91292 8.5189 3.1889 8.63334 2.77412 8.63334C2.72473 8.63334 2.69581 8.62692 2.66239 8.61579C2.6087 8.59789 2.54935 8.57077 2.38624 8.48921C2.30255 8.44737 1.77351 8.16376 1.53133 6.71062ZM12 19.5C10.35 19.5 9 18.15 9 16.5C9 14.85 10.35 13.5 12 13.5C13.65 13.5 15 14.85 15 16.5C15 18.15 13.65 19.5 12 19.5ZM10.5 16.5C10.5 17.3216 11.1784 18 12 18C12.8216 18 13.5 17.3216 13.5 16.5C13.5 15.6784 12.8216 15 12 15C11.1784 15 10.5 15.6784 10.5 16.5ZM4.68198 11.818C5.52589 10.9741 6.67049 10.5 7.86396 10.5H16.136C17.3295 10.5 18.4741 10.9741 19.318 11.818L22.682 15.182C23.5259 16.0259 24 17.1705 24 18.364V21C24 21.9 23.4 22.5 22.5 22.5H1.5C0.6 22.5 1.4194e-07 21.9 1.4194e-07 21V18.364C1.4194e-07 17.1705 0.474105 16.0259 1.31802 15.182L4.68198 11.818ZM5.74264 12.8787L2.37868 16.2426C1.81607 16.8053 1.5 17.5683 1.5 18.364V21H22.5V18.364C22.5 17.5683 22.1839 16.8053 21.6213 16.2426L18.2574 12.8787C17.6947 12.3161 16.9317 12 16.136 12H7.86396C7.06831 12 6.30525 12.3161 5.74264 12.8787Z" fill="currentColor"/>
</g>
<defs>
<clipPath id="clip0_865_1869">
<rect width="24" height="24" fill="currentColor"/>
</clipPath>
</defs>
</svg>
