<svg width="24" height="24" viewBox="0 0 24 24"  xmlns="http://www.w3.org/2000/svg">
<g clip-path="url(#clip0_865_1876)">
<path d="M9.07269 6.92763C9.12801 7.49319 8.96085 8.08885 8.61467 8.74296C8.12042 9.62218 7.11431 10.1548 5.63894 10.4802C4.48801 10.7341 3.76776 10.8858 3.44109 10.9419C2.9667 11.0512 2.51873 11.0438 2.10088 10.8751C1.68525 10.7073 1.34899 10.4127 1.11528 10.025L1.05296 9.90727L0.650379 9.03183C0.245805 8.15206 0.23725 7.17849 0.595871 6.15398C0.918796 5.27283 1.5934 4.53667 2.57249 3.93192C3.43373 3.39996 4.42755 2.96255 5.55246 2.61674C6.64344 2.28137 7.77779 2.02718 8.95507 1.85398C10.1296 1.68117 11.1998 1.59627 12.1675 1.60062C13.1352 1.60497 14.2062 1.6995 15.3824 1.88287C16.5613 2.06666 17.6979 2.33106 18.792 2.67626C19.92 3.0322 20.9178 3.47856 21.7839 4.01829C22.7685 4.63187 23.4497 5.37412 23.7806 6.2582C24.1484 7.28599 24.1486 8.25952 23.7519 9.13569L23.3572 10.0075L23.296 10.1247C23.0657 10.5103 22.7321 10.8019 22.3179 10.966C21.8878 11.1364 21.4239 11.1343 20.9664 11.0175C20.7052 10.9595 19.9805 10.7979 18.7911 10.5323C17.2957 10.1984 16.2763 9.64618 15.8016 8.75831C15.4419 8.12531 15.2597 7.52738 15.3108 6.95329C15.077 6.80401 14.6304 6.67792 13.9801 6.61433C13.1652 6.53464 12.5687 6.49436 12.2065 6.49273C11.8243 6.49101 11.2231 6.5284 10.417 6.60597C9.77911 6.66734 9.32606 6.7859 9.07269 6.92763Z" fill="currentColor"/>
<path fill-rule="evenodd" clip-rule="evenodd" d="M5.12132 12.8787C5.68393 12.3161 6.44699 12 7.24264 12H16.7574C17.553 12 18.3161 12.3161 18.8787 12.8787L23.1213 17.1213C23.6839 17.6839 24 18.447 24 19.2427V22.5C24 23.4 23.4 24 22.5 24H1.5C0.6 24 0 23.4 0 22.5V19.2427C0 18.447 0.316071 17.6839 0.87868 17.1213L5.12132 12.8787ZM9 18C9 19.65 10.35 21 12 21C13.65 21 15 19.65 15 18C15 16.35 13.65 15 12 15C10.35 15 9 16.35 9 18Z" fill="currentColor"/>
</g>
<defs>
<clipPath id="clip0_865_1876">
<rect width="24" height="24" fill="currentColor"/>
</clipPath>
</defs>
</svg>
