<svg width="24" height="24" viewBox="0 0 24 24"  xmlns="http://www.w3.org/2000/svg">
<path fill-rule="evenodd" clip-rule="evenodd" d="M1 1.75C1 1.33579 1.33579 1 1.75 1H22.25C22.6642 1 23 1.33579 23 1.75V7.88636C23 8.30058 22.6642 8.63636 22.25 8.63636H21.2273C20.9765 8.63636 20.7423 8.51104 20.6032 8.30239L18.7804 5.56818H14.7955V18.7804L17.5297 20.6032C17.7383 20.7423 17.8636 20.9765 17.8636 21.2273V22.25C17.8636 22.6642 17.5278 23 17.1136 23H6.88636C6.47215 23 6.13636 22.6642 6.13636 22.25V21.2273C6.13636 20.9765 6.26169 20.7423 6.47034 20.6032L9.20455 18.7804V5.56818H5.21957L3.39676 8.30239C3.25767 8.51104 3.02349 8.63636 2.77273 8.63636H1.75C1.33579 8.63636 1 8.30058 1 7.88636V1.75ZM2.5 2.5V6.94337L4.19414 4.40216C4.33324 4.19351 4.56742 4.06818 4.81818 4.06818H9.95455C10.3688 4.06818 10.7045 4.40397 10.7045 4.81818V19.1818C10.7045 19.4326 10.5792 19.6668 10.3706 19.8059L7.82935 21.5H16.1706L13.6294 19.8059C13.4208 19.6668 13.2955 19.4326 13.2955 19.1818V4.81818C13.2955 4.40397 13.6312 4.06818 14.0455 4.06818H19.1818C19.4326 4.06818 19.6668 4.19351 19.8059 4.40216L21.5 6.94337V2.5H2.5Z" fill="currentColor"/>
</svg>
