<svg width="24" height="24" viewBox="0 0 24 24"  xmlns="http://www.w3.org/2000/svg">
<path d="M22.5605 1.43934C23.1463 2.02513 23.1463 2.97487 22.5605 3.56066L3.56066 22.5605C2.97487 23.1463 2.02513 23.1463 1.43934 22.5605C0.853553 21.9747 0.853553 21.0249 1.43934 20.4392L20.4392 1.43934C21.0249 0.853553 21.9747 0.853553 22.5605 1.43934ZM14.0106 1.43934C14.5963 2.02513 14.5963 2.97487 14.0106 3.56066L3.56066 14.0106C2.97487 14.5963 2.02513 14.5963 1.43934 14.0106C0.853553 13.4248 0.853553 12.475 1.43934 11.8892L11.8892 1.43934C12.475 0.853553 13.4248 0.853553 14.0106 1.43934ZM5.46064 3.56066C6.04643 2.97487 6.04643 2.02513 5.46064 1.43934C4.87486 0.853553 3.92511 0.853553 3.33932 1.43934L1.43934 3.33932C0.853553 3.92511 0.853553 4.87486 1.43934 5.46064C2.02513 6.04643 2.97487 6.04643 3.56066 5.46064L5.46064 3.56066ZM22.5604 9.98915C23.1462 10.5749 23.1462 11.5247 22.5604 12.1105L12.1105 22.5604C11.5247 23.1462 10.5749 23.1462 9.98915 22.5604C9.40336 21.9746 9.40336 21.0248 9.98915 20.4391L20.4391 9.98915C21.0248 9.40336 21.9746 9.40336 22.5604 9.98915ZM22.5605 20.6603C23.1463 20.0745 23.1463 19.1248 22.5605 18.539C21.9747 17.9532 21.0249 17.9532 20.4392 18.539L18.5392 20.439C17.9534 21.0247 17.9534 21.9745 18.5392 22.5603C19.125 23.1461 20.0747 23.1461 20.6605 22.5603L22.5605 20.6603Z" fill="currentColor"/>
</svg>
