<svg width="24" height="24" viewBox="0 0 24 24"  xmlns="http://www.w3.org/2000/svg">
<path d="M23.2483 2H7.74949C7.33552 2 6.99954 2.33597 6.99954 2.74994V6.25006C6.99954 6.66424 7.3353 7 7.74949 7H8.84815C9.09864 7 9.33337 6.87476 9.47211 6.66627L10.5 5H14V20H13C12.4477 20 12 20.4477 12 21C12 21.5523 12.4477 22 13 22H18C18.5523 22 19 21.5523 19 21C19 20.4477 18.5523 20 18 20H17V5H20.5L21.5256 6.66627C21.6644 6.87476 21.8991 7 22.1496 7H23.2483C23.6624 7 23.9982 6.66424 23.9982 6.25006V2.74994C23.9982 2.33597 23.6622 2 23.2483 2Z" fill="currentColor"/>
<path d="M0.437467 10C0.195985 10 0 10.196 0 10.4375V12.9998C0 13.414 0.335762 13.7497 0.749944 13.7497H1.14085C1.28697 13.7497 1.42389 13.6767 1.50483 13.555L2 13H3V20C2.44772 20 2 20.4477 2 21C2 21.5523 2.44772 22 3 22H6C6.55228 22 7 21.5523 7 21C7 20.4477 6.55228 20 6 20V13H7L7.49517 13.555C7.57611 13.6767 7.71303 13.7497 7.85915 13.7497H8.25006C8.66424 13.7497 9 13.414 9 12.9998V10.4375C9 10.196 8.80401 10 8.56253 10H0.437467Z" fill="currentColor"/>
</svg>
