<svg width="24" height="24" viewBox="0 0 24 24"  xmlns="http://www.w3.org/2000/svg">
<path d="M7.75 2C7.33579 2 7 2.33579 7 2.75V6.64189C7 7.05611 7.33579 7.39189 7.75 7.39189C8.16421 7.39189 8.35509 7.15886 8.5 6.64189C8.75 5.75 9.25 3.5 9.25 3.5H14.5V20.5H12.4375C12.0233 20.5 11.6875 20.8358 11.6875 21.25C11.6875 21.6642 12.0233 22 12.4375 22H18.0625C18.4767 22 18.8125 21.6642 18.8125 21.25C18.8125 20.8358 18.4767 20.5 18.0625 20.5H16V3.5H21.25C21.25 3.5 21.75 5.75 22 6.64189C22.143 7.15203 22.3358 7.39189 22.75 7.39189C23.1642 7.39189 23.5 7.05611 23.5 6.64189V2.75C23.5 2.33579 23.1642 2 22.75 2H7.75ZM1.25 10C0.835786 10 0.5 10.3358 0.5 10.75V12.9122C0.5 13.3264 0.835786 13.6622 1.25 13.6622C1.58102 13.6622 1.83593 13.2001 1.94577 13.0009C1.97337 12.9509 1.99182 12.9175 2 12.9122C2.04075 12.8857 2.75 11.5 2.75 11.5H5V20.5H4.0625C3.64829 20.5 3.3125 20.8358 3.3125 21.25C3.3125 21.6642 3.64829 22 4.0625 22H7.4375C7.85171 22 8.1875 21.6642 8.1875 21.25C8.1875 20.8358 7.85171 20.5 7.4375 20.5H6.5V11.5H8.75C8.75 11.5 9.45201 12.7851 9.5 12.9122C9.54799 13.0393 9.83579 13.6622 10.25 13.6622C10.6642 13.6622 11 13.3264 11 12.9122V10.75C11 10.3358 10.6642 10 10.25 10H1.25Z" fill="currentColor"/>
</svg>
