<svg width="24" height="24" viewBox="0 0 24 24"  xmlns="http://www.w3.org/2000/svg">
<path d="M22.7803 1.21967C23.0732 1.51256 23.0732 1.98744 22.7803 2.28033L2.28033 22.7803C1.98744 23.0732 1.51256 23.0732 1.21967 22.7803C0.926777 22.4874 0.926777 22.0126 1.21967 21.7197L21.7197 1.21967C22.0126 0.926777 22.4874 0.926777 22.7803 1.21967ZM13.5553 1.21967C13.8482 1.51256 13.8482 1.98744 13.5553 2.28033L2.28033 13.5553C1.98744 13.8482 1.51256 13.8482 1.21967 13.5553C0.926777 13.2624 0.926777 12.7876 1.21967 12.4947L12.4947 1.21967C12.7876 0.926777 13.2624 0.926777 13.5553 1.21967ZM4.33033 2.28033C4.62322 1.98744 4.62322 1.51256 4.33033 1.21967C4.03744 0.926777 3.56256 0.926777 3.26967 1.21967L1.21967 3.26967C0.926777 3.56256 0.926777 4.03744 1.21967 4.33033C1.51256 4.62322 1.98744 4.62322 2.28033 4.33033L4.33033 2.28033ZM22.7804 10.4448C23.0733 10.7377 23.0733 11.2125 22.7804 11.5054L11.5054 22.7804C11.2125 23.0733 10.7377 23.0733 10.4448 22.7804C10.1519 22.4875 10.1519 22.0127 10.4448 21.7198L21.7198 10.4448C22.0127 10.1519 22.4875 10.1519 22.7804 10.4448ZM22.7802 20.7305C23.0731 20.4376 23.0731 19.9628 22.7802 19.6699C22.4873 19.377 22.0125 19.377 21.7196 19.6699L19.6696 21.7199C19.3767 22.0128 19.3767 22.4876 19.6696 22.7805C19.9625 23.0734 20.4373 23.0734 20.7302 22.7805L22.7802 20.7305Z" fill="currentColor"/>
</svg>
