<svg width="24" height="24" viewBox="0 0 24 24"  xmlns="http://www.w3.org/2000/svg">
<g clip-path="url(#clip0_865_6079)">
<path d="M23 0H1C0.448 0 0 0.448 0 1V6.5C0 6.77614 0.223858 7 0.5 7H2C2.334 7 2.647 6.833 2.832 6.555L4.535 4H10V19.382L6.553 21.106C6.214 21.275 6 21.621 6 22V23.5C6 23.7761 6.22386 24 6.5 24H17.5C17.7761 24 18 23.7761 18 23.5V22C18 21.621 17.786 21.275 17.447 21.105L14 19.382V4H19.465L21.168 6.555C21.353 6.833 21.666 7 22 7H23.5C23.7761 7 24 6.77614 24 6.5V1C24 0.448 23.552 0 23 0Z" fill="currentColor"/>
</g>
<defs>
<clipPath id="clip0_865_6079">
<rect width="24" height="24" fill="currentColor"/>
</clipPath>
</defs>
</svg>
