<svg width="24" height="24" viewBox="0 0 24 24"  xmlns="http://www.w3.org/2000/svg">
<g clip-path="url(#clip0_865_6091)">
<path fill-rule="evenodd" clip-rule="evenodd" d="M9.58735 1.43693C9.80056 0.87506 10.366 0.5 11 0.5H13C13.6339 0.5 14.1994 0.875061 14.4126 1.43693L17.2614 8.94446C17.2672 8.95889 17.2727 8.97343 17.278 8.98807L19.0574 13.6773C19.8592 13.7057 20.5 14.3265 20.5 15.0881C20.5 15.8677 19.8284 16.4998 19 16.4998H18.0247C18.0082 16.5001 17.9917 16.5001 17.9753 16.4998H17C16.1716 16.4998 15.5 15.8677 15.5 15.0881C15.5 14.6672 15.6956 14.2894 16.006 14.0308L14.8 10.8528H9.1999L7.99397 14.0307C8.30434 14.2894 8.5 14.6672 8.5 15.0881C8.5 15.8677 7.82843 16.4998 7 16.4998H6.02463C6.00819 16.5001 5.99173 16.5001 5.97526 16.4998H5C4.17157 16.4998 3.5 15.8677 3.5 15.0881C3.5 14.3265 4.14072 13.7058 4.94249 13.6773L6.72199 8.9879C6.72722 8.97336 6.7327 8.95894 6.73841 8.94462L9.58735 1.43693ZM12 3.47391L10.2713 8.02932H13.7286L12 3.47391ZM1 18C0.447715 18 0 18.4477 0 19V23C0 23.5523 0.447716 24 1 24H23C23.5523 24 24 23.5523 24 23V19C24 18.4477 23.5523 18 23 18H1Z" fill="currentColor"/>
</g>
<defs>
<clipPath id="clip0_865_6091">
<rect width="24" height="24" fill="currentColor"/>
</clipPath>
</defs>
</svg>
