<svg width="24" height="24" viewBox="0 0 24 24"  xmlns="http://www.w3.org/2000/svg">
<g clip-path="url(#clip0_865_6085)">
<path fill-rule="evenodd" clip-rule="evenodd" d="M10.2937 0.747748C10.4003 0.449253 10.683 0.25 11 0.25H13C13.3169 0.25 13.5997 0.449253 13.7063 0.747748L16.5576 8.7314C16.5617 8.74219 16.5656 8.75311 16.5693 8.76413L18.5285 14.25H20C20.4142 14.25 20.75 14.5858 20.75 15C20.75 15.4142 20.4142 15.75 20 15.75H18.0174C18.0058 15.7503 17.9941 15.7503 17.9825 15.75H16C15.5858 15.75 15.25 15.4142 15.25 15C15.25 14.5858 15.5858 14.25 16 14.25H16.9357L15.3286 9.75H8.67136L7.06421 14.25H8C8.41421 14.25 8.75 14.5858 8.75 15C8.75 15.4142 8.41421 15.75 8 15.75H6.01737C6.00578 15.7503 5.99415 15.7503 5.9825 15.75H4C3.58579 15.75 3.25 15.4142 3.25 15C3.25 14.5858 3.58579 14.25 4 14.25H5.47142L7.43071 8.764C7.43433 8.75306 7.4382 8.74224 7.4423 8.73153L10.2937 0.747748ZM12.4714 1.75L14.7928 8.25H9.20707L11.5285 1.75H12.4714ZM1 18.25C0.585786 18.25 0.25 18.5858 0.25 19V23C0.25 23.4142 0.585786 23.75 1 23.75H23C23.4142 23.75 23.75 23.4142 23.75 23V19C23.75 18.5858 23.4142 18.25 23 18.25H1ZM1.75 22.25V19.75H22.25V22.25H1.75Z" fill="currentColor"/>
</g>
<defs>
<clipPath id="clip0_865_6085">
<rect width="24" height="24" fill="currentColor"/>
</clipPath>
</defs>
</svg>
