<svg width="24" height="24" viewBox="0 0 24 24"  xmlns="http://www.w3.org/2000/svg">
<path d="M3.389 0H20.1513V3.12168L12.1238 10.0699C12.5305 10.0196 12.9548 10.0028 13.3438 10.0028C17.5698 10.0028 21 12.3189 21 16.5986C21 20.8448 17.5875 24 12.2122 24C7.56189 24 4.09627 21.6 3 17.7231L6.50099 16.6993C7.10217 19.1664 9.15325 20.8615 12.2476 20.8615C15.3065 20.8615 17.3753 19.2168 17.3753 16.6322C17.3753 14.1986 15.5718 12.8727 12.5658 12.8727C11.2397 12.8727 9.82515 13.1245 8.95874 13.3762L7.13753 10.6573L15.5187 3.17203H3.389V0Z" fill="currentColor"/>
</svg>
