<svg width="24" height="24" viewBox="0 0 24 24"  xmlns="http://www.w3.org/2000/svg">
<path d="M12.1195 24C8.1295 24 5.14114 21.948 4 18.5076L5.5768 18.0211C6.47678 20.8085 8.90249 22.5706 12.1537 22.5706C13.9629 22.5706 15.5167 22.0252 16.6241 21.0322C17.7361 20.0351 18.3674 18.6131 18.3674 16.9308C18.3674 15.3502 17.8087 14.0405 16.7677 13.1318C15.7343 12.2297 14.2685 11.7598 12.5134 11.7598C11.3141 11.7598 10.0626 11.9778 9.11038 12.2585L8.17298 10.776L17.5925 1.46419H4.17046V0H19.2637V1.71878L9.78007 10.9336L11.0922 10.7064C11.7767 10.588 12.4383 10.5214 13.0785 10.5214C15.1152 10.5214 16.845 11.1312 18.0597 12.2171C19.2685 13.2977 20 14.8783 20 16.8961C20 18.9565 19.2302 20.7229 17.8765 21.9772C16.5207 23.2335 14.552 24 12.1195 24Z" fill="currentColor"/>
</svg>
