<svg width="25" height="24" viewBox="0 0 25 24"  xmlns="http://www.w3.org/2000/svg">
<g clip-path="url(#clip0_865_5251)">
<path fill-rule="evenodd" clip-rule="evenodd" d="M0.75 0H5.25C5.7 0 6 0.3 6 0.75V12.75C6 13.2 5.7 13.5 5.25 13.5H0.75C0.3 13.5 0 13.2 0 12.75V0.75C0 0.3 0.3 0 0.75 0ZM1.5 12H4.5V1.5H1.5V12Z" fill="currentColor"/>
<path d="M22.3503 2.85L24.0003 10.35C24.1503 10.8 24.1503 11.55 24.0003 12C23.9821 12.0546 23.9639 12.1114 23.9452 12.1699C23.8095 12.5934 23.6458 13.1046 23.2503 13.5C22.9503 13.8 22.5003 14.25 22.0503 14.55C21.4503 15 20.7003 15 20.2503 15H15.0003V20.25C15.0003 21.3 14.7003 22.2 13.9503 22.95C13.2003 23.55 12.1503 24 11.2503 24C10.9503 24 10.6503 23.85 10.5003 23.55L7.50035 14.55C7.35035 14.1 7.65035 13.65 7.95035 13.5C8.40035 13.35 8.85035 13.65 9.00035 13.95L11.7003 22.35C12.1503 22.2 12.4503 22.05 12.7503 21.75C13.2003 21.45 13.5003 20.85 13.5003 20.25V14.25C13.5003 13.8 13.8003 13.5 14.2503 13.5H20.2503C20.7003 13.5 21.0003 13.5 21.1503 13.35C21.4503 13.2 21.7503 12.9 22.0503 12.6C22.1503 12.5 22.2503 12.2667 22.3503 12.0333C22.4003 11.9167 22.4503 11.8 22.5003 11.7C22.6503 11.4 22.6503 11.1 22.5003 10.8L20.8503 3.15C20.7003 2.7 20.5503 2.25 20.1003 1.95C19.9692 1.90627 19.838 1.8498 19.7031 1.79173C19.3752 1.65059 19.0254 1.5 18.6003 1.5H8.25035C7.80035 1.5 7.50035 1.2 7.50035 0.75C7.50035 0.3 7.80035 0 8.25035 0H18.6003C19.5003 0 20.2503 0.3 20.8503 0.75C21.7503 1.35 22.2003 1.95 22.3503 2.85Z" fill="currentColor"/>
</g>
<defs>
<clipPath id="clip0_865_5251">
<rect width="25" height="24" fill="currentColor"/>
</clipPath>
</defs>
</svg>
