<svg width="24" height="24" viewBox="0 0 24 24"  xmlns="http://www.w3.org/2000/svg">
<g clip-path="url(#clip0_865_5263)">
<path d="M8.6881 23.2721H18.6788C19.5476 23.2721 20.2715 22.9812 20.9955 22.3994C21.7194 21.963 22.1538 21.2358 22.2986 20.3631L23.8913 13.0905C24.0361 12.5087 24.0361 12.0724 23.8913 11.4906C23.7465 10.9088 23.457 10.4724 23.1674 10.0361C22.733 9.59973 22.2986 9.30883 21.8642 9.01793C21.7649 8.99297 21.6698 8.96802 21.5775 8.9438C21.1318 8.82685 20.7513 8.72703 20.2715 8.72703H15.2038V3.63626C15.2038 2.61811 14.9142 1.59995 14.1902 1.01815C13.4663 0.436351 12.5975 0 11.584 0C11.2944 0 11.0048 0.14545 10.86 0.436351L7.96413 9.16338C7.81934 9.59973 8.10893 10.0361 8.39851 10.1815C8.83289 10.327 9.26727 10.0361 9.41206 9.74518L12.0183 1.4545C12.4527 1.59995 12.8871 1.74541 13.1767 2.03631C13.4663 2.47266 13.7558 3.05446 13.7558 3.63626V9.45428C13.7558 9.89063 14.0454 10.1815 14.4798 10.327H20.2715C20.5611 10.327 20.8507 10.327 21.1403 10.4724C21.4299 10.6179 21.7194 10.7633 21.8642 11.0542C21.9125 11.1512 21.9769 11.2482 22.0412 11.3451C22.1699 11.5391 22.2986 11.733 22.2986 11.9269V12.9451L20.7059 20.2176C20.7059 20.654 20.4163 21.0903 19.9819 21.3812C19.6923 21.6721 19.1132 21.8176 18.6788 21.8176H8.6881C8.25372 21.8176 7.96413 22.1085 7.96413 22.5448C7.96413 22.9812 8.25372 23.2721 8.6881 23.2721Z" fill="currentColor"/>
<path fill-rule="evenodd" clip-rule="evenodd" d="M0.723964 10.909C0.289586 10.909 0 11.1999 0 11.6362V23.2723C0 23.7086 0.289586 23.9995 0.723964 23.9995H5.06775C5.50212 23.9995 5.79171 23.7086 5.79171 23.2723V11.6362C5.79171 11.1999 5.50212 10.909 5.06775 10.909H0.723964ZM1.44793 22.545V12.3635H4.34378V22.545H1.44793Z" fill="currentColor"/>
</g>
<defs>
<clipPath id="clip0_865_5263">
<rect width="24" height="24" fill="currentColor"/>
</clipPath>
</defs>
</svg>
