<svg width="24" height="24" viewBox="0 0 24 24"  xmlns="http://www.w3.org/2000/svg">
<path d="M0 4.49997C0 3.67156 0.671559 3 1.49997 3H4.49991C5.32832 3 5.99988 3.67156 5.99988 4.49997C5.99988 5.32838 5.32832 5.99994 4.49991 5.99994H1.49997C0.671559 5.99994 0 5.32838 0 4.49997ZM1.99996 9.49987C1.99996 8.67145 2.67152 7.9999 3.49993 7.9999H12.4997C13.3281 7.9999 13.9997 8.67145 13.9997 9.49987C13.9997 10.3283 13.3281 10.9999 12.4997 10.9999H3.49993C2.67152 10.9999 1.99996 10.3283 1.99996 9.49987ZM6.99986 14.4998C6.99986 13.6714 7.67141 12.9998 8.49983 12.9998H19.4996C20.328 12.9998 20.9996 13.6714 20.9996 14.4998C20.9996 15.3282 20.328 15.9998 19.4996 15.9998H8.49983C7.67141 15.9998 6.99986 15.3282 6.99986 14.4998ZM16.9997 19.4997C16.9997 18.6713 17.6712 17.9997 18.4996 17.9997H21.4996C22.3279 17.9997 22.9995 18.6713 22.9995 19.4997C22.9995 20.3281 22.3279 20.9997 21.4996 20.9997H18.4996C17.6712 20.9997 16.9997 20.3281 16.9997 19.4997Z" fill="currentColor"/>
</svg>
