<svg width="24" height="24" viewBox="0 0 24 24"  xmlns="http://www.w3.org/2000/svg">
<path d="M0 4.75C0 4.33579 0.335786 4 0.75 4H3.75C4.16421 4 4.5 4.33579 4.5 4.75C4.5 5.16421 4.16421 5.5 3.75 5.5H0.75C0.335786 5.5 0 5.16421 0 4.75ZM3 9.75C3 9.33579 3.33579 9 3.75 9H12.75C13.1642 9 13.5 9.33579 13.5 9.75C13.5 10.1642 13.1642 10.5 12.75 10.5H3.75C3.33579 10.5 3 10.1642 3 9.75ZM8 14.75C8 14.3358 8.33579 14 8.75 14H19.75C20.1642 14 20.5 14.3358 20.5 14.75C20.5 15.1642 20.1642 15.5 19.75 15.5H8.75C8.33579 15.5 8 15.1642 8 14.75ZM19 19.75C19 19.3358 19.3358 19 19.75 19H22.75C23.1642 19 23.5 19.3358 23.5 19.75C23.5 20.1642 23.1642 20.5 22.75 20.5H19.75C19.3358 20.5 19 20.1642 19 19.75Z" fill="currentColor"/>
</svg>
