<svg width="24" height="24" viewBox="0 0 24 24"  xmlns="http://www.w3.org/2000/svg">
<g clip-path="url(#clip0_865_437)">
<path fill-rule="evenodd" clip-rule="evenodd" d="M19 4.00001V1L24 5.48749C24 5.49128 24 5.49544 24 5.5L19 10V7.00001H3V12H0V5.25001C0 4.50001 0.5 4.00001 1.1875 4.00001H19ZM24.0067 5.49346L24 5.48749C24.0006 5.40664 24.0067 5.49346 24.0067 5.49346ZM5.06519 23L0.0651465 18.5125C0.0651721 18.5087 0.0651855 18.5046 0.0651855 18.5L5.06519 14V17H21.0652V12H24.0652V18.75C24.0652 19.5 23.5652 20 22.8777 20H5.06519V23ZM0.0585022 18.5065L0.0651465 18.5125C0.0646002 18.5934 0.0585022 18.5065 0.0585022 18.5065Z" fill="currentColor"/>
</g>
<defs>
<clipPath id="clip0_865_437">
<rect width="24" height="24" fill="currentColor"/>
</clipPath>
</defs>
</svg>
