<svg width="24" height="24" viewBox="0 0 24 24"  xmlns="http://www.w3.org/2000/svg">
<g clip-path="url(#clip0_865_4959)">
<path fill-rule="evenodd" clip-rule="evenodd" d="M2.25 0C1.00779 0 0 1.00779 0 2.25V17.25C0 18.4921 1.00779 19.5 2.25 19.5H7.89872L11.4238 23.7302C11.5663 23.9011 11.7774 24 12 24C12.2226 24 12.4337 23.9011 12.5762 23.7302L16.1013 19.5H21.75C22.9921 19.5 24 18.4921 24 17.25V2.25C24 1.00779 22.9921 0 21.75 0H2.25ZM1.5 2.25C1.5 1.83621 1.83621 1.5 2.25 1.5H21.75C22.1639 1.5 22.5 1.83621 22.5 2.25V17.25C22.5 17.6639 22.1639 18 21.75 18H15.75C15.5274 18 15.3163 18.0989 15.1739 18.2698L12 22.0785L8.82617 18.2698C8.68367 18.0989 8.47258 18 8.25 18H2.25C1.83621 18 1.5 17.6639 1.5 17.25V2.25Z" fill="currentColor"/>
</g>
<defs>
<clipPath id="clip0_865_4959">
<rect width="24" height="24" fill="currentColor"/>
</clipPath>
</defs>
</svg>
