<svg width="24" height="24" viewBox="0 0 24 24"  xmlns="http://www.w3.org/2000/svg">
<g clip-path="url(#clip0_865_1897)">
<path d="M16.2161 1.76777L19.0821 4.63379H14.1323L11.4 7.36602V11.8838H13.9V8.40156L15.1678 7.13379H19.0823L16.2161 10L17.9839 11.7678L23.8678 5.88388L17.9839 0L16.2161 1.76777ZM5.1368 0.717803C4.73318 0.543262 4.30735 0.522445 3.89378 0.62677L3.84652 0.638693L2.64938 1.08966C1.62769 1.47454 0.880917 2.26156 0.378323 3.32412L0.373143 3.3355C-0.0796109 4.3298 -0.0969549 5.49417 0.195228 6.75283C0.480415 7.98136 0.96437 9.24224 1.63657 10.5342C2.30227 11.8136 3.07773 13.0588 3.96199 14.2697C4.84115 15.4736 5.70807 16.5101 6.56374 17.3735C7.41944 18.2369 8.44674 19.1118 9.64014 19.9991C10.8405 20.8915 12.0749 21.6742 13.3435 22.3463C14.6247 23.025 15.8756 23.5139 17.0951 23.8021C18.3456 24.0977 19.5051 24.0807 20.4955 23.6215L20.5069 23.616C21.5637 23.1071 22.342 22.3529 22.7217 21.3267L23.1682 20.1197L23.1798 20.0731C23.2821 19.6602 23.2618 19.2357 23.0905 18.8325C22.9045 18.3946 22.55 18.0788 22.1754 17.847C21.8453 17.6121 21.0323 17.0823 19.7676 16.2747C19.0738 15.8317 18.4182 15.5018 17.8072 15.3138C17.1981 15.1263 16.5805 15.0637 16.0013 15.2261L15.9801 15.2326C15.1902 15.4761 14.4568 15.8604 14.072 16.5187C14.0218 16.527 13.9039 16.5328 13.6891 16.4856C13.2453 16.3837 12.6323 16.062 11.8373 15.4065C11.0033 14.7189 10.4162 14.1988 10.0586 13.838C9.71988 13.4962 9.20868 12.9128 8.51547 12.0693C7.85602 11.2669 7.55093 10.6563 7.46774 10.2227L7.46337 10.2025C7.41384 9.97403 7.42135 9.8501 7.43084 9.79862C8.09192 9.40544 8.45792 8.65878 8.67764 7.86537C9.01516 6.731 8.5062 5.4067 7.65592 4.06745C6.82662 2.76124 6.31662 1.95845 6.12648 1.65995C5.89702 1.27742 5.58118 0.909972 5.1368 0.717803Z" fill="currentColor"/>
</g>
<defs>
<clipPath id="clip0_865_1897">
<rect width="24" height="24" fill="currentColor"/>
</clipPath>
</defs>
</svg>
