<svg width="24" height="24" viewBox="0 0 24 24"  xmlns="http://www.w3.org/2000/svg">
<path fill-rule="evenodd" clip-rule="evenodd" d="M12.4366 1.56863C12.1705 1.69102 12 1.95711 12 2.25001V7.56223C9.29882 7.65501 6.4326 8.27398 4.16484 10.0249C1.64911 11.9672 0 15.1995 0 20.25C0 20.5853 0.222583 20.8799 0.545156 20.9715C0.867728 21.0631 1.2119 20.9294 1.3881 20.6441C3.99284 16.4268 7.907 15.1453 12 15.012V20.25C12 20.5429 12.1705 20.809 12.4366 20.9314C12.7027 21.0538 13.0157 21.0101 13.2381 20.8195L23.7381 11.8195C23.9043 11.677 24 11.469 24 11.25C24 11.0311 23.9043 10.8231 23.7381 10.6806L13.2381 1.68057C13.0157 1.48995 12.7027 1.44624 12.4366 1.56863ZM22.0976 11.25L13.5 18.6193V14.25C13.5 13.8358 13.1642 13.5 12.75 13.5C8.81542 13.5 4.7249 14.4109 1.65539 17.7931C2.09148 14.5562 3.4051 12.5065 5.08153 11.2122C7.18464 9.5884 9.99046 9.04951 12.75 9.04951C13.1642 9.04951 13.5 8.71373 13.5 8.29951V3.88068L22.0976 11.25Z" fill="currentColor"/>
</svg>
