<svg width="24" height="24" viewBox="0 0 24 24"  xmlns="http://www.w3.org/2000/svg">
<g clip-path="url(#clip0_865_1892)">
<path d="M18.1814 0.241285C18.5031 -0.0804283 19.0247 -0.0804283 19.3465 0.241285L23.5831 4.47796C23.8899 4.7847 23.9042 5.27316 23.626 5.59681C23.6102 5.61524 23.5936 5.63296 23.5762 5.64992L19.3465 9.87967C19.0247 10.2014 18.5031 10.2014 18.1814 9.87967C17.8597 9.55796 17.8597 9.03636 18.1814 8.71464L21.0115 5.88458H15.9393C15.4087 5.88458 14.8998 6.09537 14.5246 6.47056C14.1494 6.84576 13.9386 7.35463 13.9386 7.88524V10.7097C13.9386 11.1647 13.5698 11.5335 13.1148 11.5335C12.6598 11.5335 12.291 11.1647 12.291 10.7097V7.88524C12.291 6.91766 12.6754 5.98971 13.3596 5.30553C14.0437 4.62135 14.9717 4.23699 15.9393 4.23699H21.0121L18.1814 1.40631C17.8597 1.0846 17.8597 0.562998 18.1814 0.241285Z" fill="currentColor"/>
<path fill-rule="evenodd" clip-rule="evenodd" d="M4.10817 0.2746H4.76721C5.75577 0.2746 6.57957 0.768879 7.07384 1.42792C8.22716 3.07552 9.71 5.21739 9.71 6.70023C9.87476 8.18307 9.21572 9.17163 8.55668 9.83066C8.8862 10.6545 9.54524 11.643 10.8633 12.9611C11.8725 14.1144 12.8816 14.7632 13.4493 15.1281C13.5304 15.1802 13.6024 15.2265 13.6642 15.2677C14.1585 14.7735 14.8176 14.2792 15.8061 14.1144H16.6299C18.2775 14.1144 19.7603 14.9382 22.2317 16.9153C23.0555 17.5744 23.3851 18.7277 23.0555 20.0458C22.5613 21.8581 21.0784 23.6705 18.7718 24H18.1127C14.9823 24 10.0395 21.1991 6.57957 17.5744C2.95485 13.6201 0.812974 9.99542 0.153935 6.53547C-0.505104 3.40503 0.977735 1.0984 4.10817 0.2746ZM5.75577 2.41648C5.59101 2.25172 5.26149 1.9222 4.76721 1.9222H4.43769C4.40789 1.93213 4.36912 1.94386 4.32273 1.95789C3.59962 2.17659 1.02739 2.95457 1.80153 6.20595C2.46057 9.83066 4.93197 13.2906 7.89764 16.4211C11.1928 19.881 15.6414 22.3524 18.2775 22.3524H18.7718C21.2432 21.8581 22.2317 18.8924 21.4079 18.2334C19.1013 16.4211 17.948 15.762 16.7947 15.762H16.3004C14.9823 15.9268 14.488 17.2449 14.488 17.2449C14.488 17.2449 12.1814 16.7506 9.71 14.1144C6.90908 11.3135 6.57957 9.33638 6.57957 9.33638C7.56812 8.67735 8.0624 8.01831 8.0624 6.86499C8.0624 5.71167 6.25005 3.07552 5.75577 2.41648Z" fill="currentColor"/>
</g>
<defs>
<clipPath id="clip0_865_1892">
<rect width="24" height="24" fill="currentColor"/>
</clipPath>
</defs>
</svg>
