<svg width="24" height="24" viewBox="0 0 24 24"  xmlns="http://www.w3.org/2000/svg">
<path fill-rule="evenodd" clip-rule="evenodd" d="M10 2.25C9.58579 2.25 9.25 2.58579 9.25 3V7C9.25 7.25011 9.37243 7.47163 9.56062 7.60789L3.77536 17.25H1C0.585786 17.25 0.25 17.5858 0.25 18V22C0.25 22.4142 0.585786 22.75 1 22.75H5C5.41421 22.75 5.75 22.4142 5.75 22V20.75H18.25V22C18.25 22.4142 18.5858 22.75 19 22.75H23C23.4142 22.75 23.75 22.4142 23.75 22V18C23.75 17.5858 23.4142 17.25 23 17.25H20.2247L14.4394 7.60789C14.6276 7.47162 14.75 7.25011 14.75 7V3C14.75 2.58579 14.4142 2.25 14 2.25H10ZM5.75 19.25H18.25V18C18.25 17.7499 18.3724 17.5284 18.5606 17.3921L12.7754 7.75H11.2246L5.43938 17.3921C5.62757 17.5284 5.75 17.7499 5.75 18V19.25ZM4.21185 18.75H4.25V21.25H1.75V18.75H4.18674C4.19511 18.7501 4.20349 18.7501 4.21185 18.75ZM19.75 18.75H19.7882C19.7965 18.7501 19.8049 18.7501 19.8133 18.75H22.25V21.25H19.75V18.75ZM13.2128 6.25H13.25V3.75H10.75V6.25H10.7872C10.7962 6.24984 10.8052 6.24984 10.8142 6.25H13.1858C13.1948 6.24984 13.2038 6.24984 13.2128 6.25Z" fill="currentColor"/>
</svg>
