<svg width="24" height="24" viewBox="0 0 24 24"  xmlns="http://www.w3.org/2000/svg">
<path fill-rule="evenodd" clip-rule="evenodd" d="M10.1667 2.5C9.79094 2.5 9.43061 2.64926 9.16493 2.91493C8.89926 3.18061 8.75 3.54094 8.75 3.91667L8.74997 7.58333L8.75003 7.58878C8.75228 7.79561 8.80042 7.99763 8.88908 8.18102L4.04717 16.25H1.91667C1.54094 16.25 1.18061 16.3993 0.914932 16.6649C0.649255 16.9306 0.5 17.2909 0.5 17.6667V21.3333C0.5 21.7091 0.649255 22.0694 0.914932 22.3351C1.18061 22.6007 1.54094 22.75 1.91667 22.75H5.58333C5.95906 22.75 6.31939 22.6007 6.58507 22.3351C6.85074 22.0694 7 21.7091 7 21.3333V20.9167H17V21.3333C17 21.7091 17.1493 22.0694 17.4149 22.3351C17.6806 22.6007 18.0409 22.75 18.4167 22.75H22.0833C22.4591 22.75 22.8194 22.6007 23.0851 22.3351C23.3507 22.0694 23.5 21.7091 23.5 21.3333V17.6667C23.5 17.2909 23.3507 16.9306 23.0851 16.6649C22.8194 16.3993 22.4591 16.25 22.0833 16.25H19.9528L15.1107 8.18161C15.1993 7.99813 15.2476 7.79608 15.25 7.58922V3.91667C15.25 3.54094 15.1007 3.18061 14.8351 2.91493C14.5694 2.64926 14.2091 2.5 13.8333 2.5H10.1667ZM6.86136 17.0697L11.702 9H12.2981L17.1393 17.0684C17.0507 17.2518 17.0024 17.4539 17 17.6608V18.0833H7L7.00004 17.6667L6.99996 17.6607C6.99748 17.4543 6.94952 17.2528 6.86136 17.0697Z" fill="currentColor"/>
</svg>
