<svg width="24" height="24" viewBox="0 0 24 24"  xmlns="http://www.w3.org/2000/svg">
<g clip-path="url(#clip0_865_3340)">
<path fill-rule="evenodd" clip-rule="evenodd" d="M0 2.5C0 1.11929 1.11929 0 2.5 0H21.5C22.8807 0 24 1.11929 24 2.5V21.5C24 22.8807 22.8807 24 21.5 24H17.142C16.3136 24 15.642 23.3284 15.642 22.5C15.642 21.6716 16.3136 21 17.142 21H20.5C20.7761 21 21 20.7761 21 20.5V3.5C21 3.22386 20.7761 3 20.5 3H3.5C3.22386 3 3 3.22386 3 3.5V20.5C3 20.7761 3.22386 21 3.5 21H6.85795C7.68638 21 8.35795 21.6716 8.35795 22.5C8.35795 23.3284 7.68638 24 6.85795 24H2.5C1.11929 24 0 22.8807 0 21.5V2.5ZM5 5.5C5 5.22386 5.22386 5 5.5 5H18.5C18.7761 5 19 5.22386 19 5.5V9.5C19 9.77614 18.7761 10 18.5 10H5.5C5.22386 10 5 9.77614 5 9.5V5.5ZM10.5 23.5C10.5 23.7761 10.7239 24 11 24H13C13.2761 24 13.5 23.7761 13.5 23.5V18H18L12 11.5L6 18H10.5V23.5Z" fill="currentColor"/>
</g>
<defs>
<clipPath id="clip0_865_3340">
<rect width="24" height="24" fill="currentColor"/>
</clipPath>
</defs>
</svg>
