<svg width="24" height="24" viewBox="0 0 24 24"  xmlns="http://www.w3.org/2000/svg">
<g clip-path="url(#clip0_865_3335)">
<path fill-rule="evenodd" clip-rule="evenodd" d="M0.25 3C0.25 1.48122 1.48122 0.25 3 0.25H21C22.5188 0.25 23.75 1.48122 23.75 3V21C23.75 22.5188 22.5188 23.75 21 23.75H15.2917C14.8775 23.75 14.5417 23.4142 14.5417 23C14.5417 22.5858 14.8775 22.25 15.2917 22.25H21C21.6904 22.25 22.25 21.6904 22.25 21V8H1.75V21C1.75 21.6904 2.30965 22.25 3 22.25H8.70833C9.12255 22.25 9.45833 22.5858 9.45833 23C9.45833 23.4142 9.12255 23.75 8.70833 23.75H3C1.48122 23.75 0.25 22.5188 0.25 21V3ZM22.25 3V6.5H1.75V3C1.75 2.30964 2.30964 1.75 3 1.75H21C21.6904 1.75 22.25 2.30964 22.25 3ZM12.5303 10.2197C12.2374 9.92678 11.7626 9.92678 11.4697 10.2197L5.96968 15.7197C5.67677 16.0126 5.67677 16.4874 5.96968 16.7803C6.26257 17.0732 6.73744 17.0732 7.03033 16.7803L11.25 12.5607V23.25C11.25 23.6642 11.5858 24 12 24C12.4142 24 12.75 23.6642 12.75 23.25V12.5607L16.9696 16.7803C17.2626 17.0732 17.7375 17.0732 18.0304 16.7803C18.3232 16.4874 18.3232 16.0126 18.0304 15.7197L12.5303 10.2197Z" fill="currentColor"/>
</g>
<defs>
<clipPath id="clip0_865_3335">
<rect width="24" height="24" fill="currentColor"/>
</clipPath>
</defs>
</svg>
