<svg width="24" height="24" viewBox="0 0 24 24"  xmlns="http://www.w3.org/2000/svg">
<path d="M21 24H3V22.8293C3 19.685 5.57916 16.7247 9.31262 14.2662L12.523 12.1589C14.2184 11.0383 16.7795 9.3993 16.7795 6.74007C16.7795 4.5993 15.1382 3.12753 12.3968 3.12753C9.18637 3.12753 7.11222 5.18467 7.11222 8.54634L3.4509 8.26202C3.50501 3.52892 6.82364 0 12.6673 0C17.8977 0 20.477 2.82648 20.477 6.63972C20.477 10.7206 17.519 12.7108 14.525 14.6676L11.0441 16.9422C9.43887 17.9958 7.88777 19.4007 7.29258 20.839H21V24Z" fill="currentColor"/>
</svg>
