<svg width="24" height="24" viewBox="0 0 24 24"  xmlns="http://www.w3.org/2000/svg">
<path d="M5.88443 22.5422H20.0012V24H4V23.5655C4 20.6794 6.28993 17.7574 9.86983 15.193L13.0549 12.908C13.9853 12.2447 15.1589 11.4048 16.096 10.3257C17.0392 9.23964 17.7642 7.88749 17.7642 6.19997C17.7642 4.79933 17.2664 3.59179 16.3232 2.73784C15.3839 1.88744 14.0428 1.42317 12.4161 1.42317C10.5583 1.42317 8.98174 2.02646 7.85674 3.17735C6.81563 4.24243 6.19564 5.74105 6.06765 7.56919L4.44945 7.43147C4.57963 5.29712 5.33045 3.49062 6.61716 2.19816C7.97914 0.830088 9.97926 0 12.5892 0C14.8918 0 16.5888 0.656065 17.7076 1.72306C18.825 2.78865 19.4125 4.30841 19.4125 6.13072C19.4125 10.0646 16.6652 12.0798 13.9408 14.0358L10.4779 16.5118C8.23826 18.1215 6.47396 20.0662 6.00577 22.0326L5.88443 22.5422Z" fill="currentColor"/>
</svg>
