<svg width="24" height="24" viewBox="0 0 24 24"  xmlns="http://www.w3.org/2000/svg">
<path fill-rule="evenodd" clip-rule="evenodd" d="M12.75 0C6.53679 0 1.5 5.03679 1.5 11.25C1.5 11.6642 1.83579 12 2.25 12H23.25C23.6642 12 24 11.6642 24 11.25C24 5.03679 18.9632 0 12.75 0ZM12.75 1.5C17.8824 1.5 22.0886 5.46566 22.4716 10.5H3.02842C3.41138 5.46566 7.61757 1.5 12.75 1.5Z" fill="currentColor"/>
<path d="M13.5 14.25C13.5 13.8358 13.1642 13.5 12.75 13.5C12.3358 13.5 12 13.8358 12 14.25V20.25C12 22.3217 13.6783 24 15.75 24C17.8217 24 19.5 22.3217 19.5 20.25V18.75C19.5 18.3358 19.1642 18 18.75 18C18.3358 18 18 18.3358 18 18.75V20.25C18 21.4933 16.9933 22.5 15.75 22.5C14.5067 22.5 13.5 21.4933 13.5 20.25V14.25Z" fill="currentColor"/>
</svg>
