<svg width="24" height="24" viewBox="0 0 24 24"  xmlns="http://www.w3.org/2000/svg">
<path d="M2 1.75C2 1.33579 2.33579 1 2.75 1H7.25C7.66421 1 8 1.33579 8 1.75C8 2.16421 7.66421 2.5 7.25 2.5H5.75V12.25C5.75 15.7018 8.54821 18.5 12 18.5C15.4518 18.5 18.25 15.7018 18.25 12.25V2.5H16.75C16.3358 2.5 16 2.16421 16 1.75C16 1.33579 16.3358 1 16.75 1H21.25C21.6642 1 22 1.33579 22 1.75C22 2.16421 21.6642 2.5 21.25 2.5H19.75V12.25C19.75 16.5302 16.2802 20 12 20C7.71979 20 4.25 16.5302 4.25 12.25V2.5H2.75C2.33579 2.5 2 2.16421 2 1.75ZM1.74609 21.5C1.33188 21.5 0.996094 21.8358 0.996094 22.25C0.996094 22.6642 1.33188 23 1.74609 23H22.2499C22.6641 23 22.9999 22.6642 22.9999 22.25C22.9999 21.8358 22.6641 21.5 22.2499 21.5H1.74609Z" fill="currentColor"/>
</svg>
