<svg width="24" height="24" viewBox="0 0 24 24"  xmlns="http://www.w3.org/2000/svg">
<path fill-rule="evenodd" clip-rule="evenodd" d="M3.77959 7.8824C3.85264 7.47468 3.58133 7.08493 3.17361 7.01188C2.76589 6.93883 2.37615 7.21014 2.3031 7.61786L1.01188 14.8246C0.984344 14.9784 1.00575 15.1295 1.06495 15.2621C1.08425 15.3055 1.10786 15.3473 1.13578 15.3871C1.2317 15.5241 1.37315 15.6292 1.54297 15.6778C1.56733 15.6848 1.59228 15.6906 1.61776 15.6951L8.82454 16.9874C9.23226 17.0605 9.62204 16.7893 9.69514 16.3815C9.76825 15.9738 9.497 15.584 9.08929 15.5109L3.39316 14.4896C5.82145 12.5398 8.85648 11.4615 12.0002 11.4615C15.645 11.4615 19.1435 12.9108 21.7199 15.4872C22.0128 15.7801 22.4877 15.7801 22.7806 15.4872C23.0735 15.1943 23.0735 14.7194 22.7806 14.4265C19.9229 11.5688 16.0428 9.96149 12.0002 9.96149C8.68732 9.96149 5.48348 11.041 2.86205 13.0035L3.77959 7.8824Z" fill="currentColor"/>
</svg>
