<svg width="24" height="24" viewBox="0 0 24 24"  xmlns="http://www.w3.org/2000/svg">
<g clip-path="url(#clip0_865_5280)">
<path fill-rule="evenodd" clip-rule="evenodd" d="M0.224747 0.977759C-0.0784355 1.27577 -0.0743594 1.76296 0.233851 2.06591L21.8054 23.2701C22.1136 23.5731 22.6092 23.5771 22.9124 23.2791C23.2156 22.9811 23.2115 22.494 22.9033 22.191L1.33168 0.986708C1.02347 0.683753 0.527929 0.679747 0.224747 0.977759Z" fill="currentColor"/>
<path d="M19.6142 18.9582L19.9993 21.168C20.0461 21.4373 20.0159 21.7147 19.9114 21.9678C19.8068 22.2211 19.6316 22.4401 19.407 22.6008C19.1824 22.7614 18.9166 22.8572 18.6398 22.877C18.3634 22.8965 18.0867 22.8401 17.8412 22.713L12.0978 19.7402L6.35026 22.716C6.1047 22.8432 5.82736 22.8996 5.55071 22.88C5.27409 22.8602 5.00892 22.7643 4.78451 22.6038C4.55994 22.4432 4.38472 22.2241 4.28011 21.9708C4.17559 21.7177 4.14531 21.4404 4.19217 21.171L5.28891 14.8705L0.642178 10.4092C0.443433 10.2183 0.30332 9.97617 0.23684 9.71072C0.170389 9.44509 0.180127 9.16602 0.266154 8.9059C0.352241 8.64573 0.511405 8.41429 0.724054 8.2382C0.936649 8.06224 1.19515 7.94815 1.47004 7.90932L7.49653 7.04687L19.6142 18.9582Z" fill="currentColor"/>
<path d="M12.0978 0.5C12.3686 0.500087 12.6352 0.570618 12.87 0.703689C13.1047 0.836831 13.3 1.02846 13.4361 1.25911L16.3028 6.98924L22.7245 7.90932L22.7275 7.9113C23.002 7.9508 23.2595 8.06504 23.4715 8.24118C23.6835 8.41735 23.8417 8.64809 23.9274 8.90789C24.0131 9.16772 24.023 9.44645 23.9567 9.71172C23.8903 9.97682 23.7497 10.2185 23.5513 10.4092L18.9026 14.8675L19.1614 16.355L8.4659 5.84162L10.7584 1.25911C10.8945 1.02846 11.0897 0.836831 11.3245 0.703689C11.5594 0.570535 11.8267 0.5 12.0978 0.5Z" fill="currentColor"/>
</g>
<defs>
<clipPath id="clip0_865_5280">
<rect width="24" height="24" fill="currentColor"/>
</clipPath>
</defs>
</svg>
