<svg width="24" height="24" viewBox="0 0 24 24"  xmlns="http://www.w3.org/2000/svg">
<g clip-path="url(#clip0_865_5275)">
<path fill-rule="evenodd" clip-rule="evenodd" d="M0.545628 0.72341C0.244242 1.02478 0.248294 1.51747 0.554678 1.82385L21.9984 23.2675C22.3047 23.5739 22.7974 23.578 23.0988 23.2766C23.4002 22.9752 23.3961 22.4826 23.0898 22.1762L1.646 0.732459C1.33962 0.426083 0.847013 0.422032 0.545628 0.72341Z" fill="currentColor"/>
<path d="M8.69073 7.77746L8.50484 8.14121L1.45095 9.12091C1.4145 9.12591 1.37966 9.14045 1.35148 9.16312C1.32353 9.18567 1.30258 9.21528 1.29119 9.24853C1.27983 9.28186 1.27848 9.31797 1.28717 9.35202C1.29597 9.38622 1.31506 9.41787 1.34143 9.44246L6.44193 14.1993L5.23814 20.9166C5.23204 20.9511 5.2364 20.9866 5.2502 21.0191C5.26403 21.0516 5.28687 21.0797 5.31652 21.1005C5.34621 21.1211 5.38143 21.134 5.41801 21.1366C5.4547 21.1392 5.49196 21.131 5.52452 21.1145L11.8328 17.9423L18.1391 21.1125C18.1717 21.1288 18.209 21.1361 18.2456 21.1336C18.2822 21.1311 18.3175 21.1181 18.3471 21.0974C18.3767 21.0768 18.3997 21.0485 18.4134 21.0161C18.4273 20.9835 18.4317 20.9481 18.4255 20.9136L17.6819 16.7686L19.2665 18.3533L19.6886 20.7066C19.7351 20.9665 19.7051 21.2339 19.6011 21.4783C19.4972 21.7227 19.323 21.9341 19.0997 22.0892C18.8765 22.2443 18.6122 22.3374 18.3371 22.3565C18.0622 22.3754 17.7873 22.3195 17.5433 22.1967L11.8328 19.3269L6.12038 22.1997C5.87621 22.3226 5.6007 22.3775 5.32556 22.3585C5.05063 22.3395 4.78697 22.2471 4.56391 22.0922C4.34067 21.9372 4.16649 21.7257 4.0625 21.4813C3.95856 21.2369 3.92857 20.9696 3.97508 20.7096L5.06531 14.6274L0.446126 10.3207C0.24839 10.1363 0.109257 9.90188 0.0431907 9.64543C-0.0228133 9.38902 -0.0132186 9.11977 0.0723307 8.8687C0.157924 8.61764 0.316187 8.39455 0.527517 8.22461C0.73885 8.05476 0.995831 7.94457 1.26908 7.90708L7.65274 7.02082L7.7482 6.83493L8.69073 7.77746Z" fill="currentColor"/>
<path d="M11.8328 0.754726C12.1022 0.754726 12.3679 0.82213 12.6015 0.950667C12.8349 1.0792 13.0289 1.2645 13.1642 1.48724L16.0139 7.01882L22.3976 7.90708L22.4006 7.90909C22.6734 7.94722 22.9294 8.05756 23.1401 8.22762C23.3507 8.39761 23.5081 8.62005 23.5933 8.87071C23.6785 9.12149 23.6884 9.39041 23.6225 9.64644C23.5565 9.90251 23.4168 10.1364 23.2195 10.3207L18.5983 14.6243L18.7892 15.6935L17.2579 14.1621L22.3242 9.44346C22.3503 9.41894 22.3697 9.38706 22.3785 9.35303C22.3872 9.31899 22.3858 9.28287 22.3745 9.24953C22.3631 9.21627 22.3421 9.18671 22.3142 9.16412C22.2862 9.14152 22.2519 9.12705 22.2157 9.12192L22.0117 9.09278L22.0087 9.09177L15.1618 8.1392L12.0418 2.08311C12.0204 2.05491 11.9931 2.03121 11.9614 2.01377C11.9223 1.99231 11.8778 1.98061 11.8328 1.98061C11.7879 1.9807 11.7441 1.99241 11.7052 2.01377C11.6736 2.0312 11.6461 2.05492 11.6248 2.08311L9.4333 6.33754L8.48976 5.39401L10.5024 1.48724C10.6378 1.26449 10.8316 1.0792 11.0651 0.950667C11.2985 0.822208 11.5635 0.754808 11.8328 0.754726Z" fill="currentColor"/>
</g>
<defs>
<clipPath id="clip0_865_5275">
<rect width="24" height="24" fill="currentColor"/>
</clipPath>
</defs>
</svg>
