<svg width="25" height="24" viewBox="0 0 25 24"  xmlns="http://www.w3.org/2000/svg">
<path d="M14.9546 4.54862L13.3502 1.27966C13.2129 1.04248 13.016 0.845646 12.7791 0.708827C12.5422 0.572008 12.2738 0.5 12.0005 0.5C11.7272 0.5 11.4588 0.572008 11.2219 0.708827C10.985 0.845646 10.7881 1.04248 10.6508 1.27966L7.76088 7.1694L1.28677 8.11338C1.00953 8.1533 0.748972 8.27036 0.534596 8.4513C0.320221 8.63224 0.1606 8.86984 0.0738145 9.13717C-0.0129713 9.4045 -0.023454 9.69089 0.0435537 9.9639C0.110562 10.2369 0.252382 10.4856 0.452951 10.6819L4.68186 14.8213L5.60279 13.9004L1.36011 9.74745C1.33337 9.72128 1.31446 9.68812 1.30552 9.65172C1.29659 9.61532 1.29799 9.57713 1.30956 9.54149C1.32113 9.50584 1.34241 9.47416 1.371 9.45004C1.39958 9.42591 1.43432 9.41031 1.47129 9.40499L8.62458 8.36197L11.7886 1.91349C11.8102 1.88349 11.838 1.85834 11.8701 1.83979C11.9098 1.81688 11.9547 1.80482 12.0005 1.80482C12.0463 1.80482 12.0912 1.81687 12.1309 1.83979C12.163 1.85835 12.1908 1.88351 12.2124 1.91352L13.9827 5.52054L14.9546 4.54862Z" fill="currentColor"/>
<path fill-rule="evenodd" clip-rule="evenodd" d="M0.472844 22.4697C0.179951 22.7626 0.179951 23.2374 0.472844 23.5303C0.765737 23.8232 1.24061 23.8232 1.5335 23.5303L4.17667 20.8872L4.03106 21.7401C3.9838 22.017 4.01465 22.3016 4.12011 22.5618C4.22557 22.822 4.40144 23.0473 4.62782 23.2124C4.85421 23.3775 5.12209 23.4758 5.40118 23.496C5.68027 23.5162 5.95942 23.4577 6.20709 23.3269L12.0004 20.2691L17.7906 23.3239C18.0383 23.4546 18.3175 23.5132 18.5966 23.493C18.8756 23.4727 19.1435 23.3745 19.3699 23.2094C19.5963 23.0443 19.7722 22.819 19.8776 22.5588C19.9831 22.2986 20.0139 22.0139 19.9667 21.7371L18.8614 15.2632L23.5479 10.6818C23.748 10.4857 23.8895 10.2373 23.9563 9.96472C24.0233 9.69216 24.0129 9.40624 23.9265 9.13927C23.8401 8.87229 23.6811 8.63488 23.4673 8.45385C23.2536 8.27282 22.9938 8.15538 22.7171 8.11478L22.7141 8.11328L17.685 7.37883L21.5335 3.53033C21.8264 3.23744 21.8264 2.76256 21.5335 2.46967C21.2406 2.17678 20.7658 2.17678 20.4729 2.46967L0.472844 22.4697ZM16.5345 8.52935L5.76683 19.297L5.31211 21.9604C5.30583 21.9973 5.30993 22.0353 5.32399 22.07C5.33805 22.1047 5.36149 22.1347 5.39168 22.1568C5.42187 22.1788 5.45758 22.1919 5.49479 22.1946C5.532 22.1973 5.56922 22.1894 5.60225 22.172L12.0002 18.7951L18.3953 22.1689C18.4283 22.1863 18.4657 22.1942 18.5029 22.1915C18.5401 22.1888 18.5759 22.1758 18.6061 22.1537C18.6362 22.1317 18.6597 22.1017 18.6737 22.067C18.6878 22.0323 18.6919 21.9944 18.6856 21.9575L17.4649 14.8071L22.6399 9.74815C22.6664 9.72204 22.6855 9.68876 22.6944 9.65255C22.7033 9.6162 22.7019 9.57808 22.6904 9.54249C22.6789 9.50689 22.6577 9.47523 22.6292 9.4511C22.6007 9.42696 22.566 9.4113 22.5291 9.40589L22.3226 9.37558L22.3199 9.37427L16.5345 8.52935Z" fill="currentColor"/>
</svg>
