<svg width="24" height="24" viewBox="0 0 24 24"  xmlns="http://www.w3.org/2000/svg">
<g clip-path="url(#clip0_865_2910)">
<path d="M12 0C5.4 0 0 5.4 0 12C0 18.6 5.4 24 12 24C18.6 24 24 18.6 24 12C24 5.4 18.6 0 12 0ZM15 7.5C15.9 7.5 16.5 8.1 16.5 9C16.5 9.9 15.9 10.5 15 10.5C14.1 10.5 13.5 9.9 13.5 9C13.5 8.1 14.1 7.5 15 7.5ZM9 7.5C9.9 7.5 10.5 8.1 10.5 9C10.5 9.9 9.9 10.5 9 10.5C8.1 10.5 7.5 9.9 7.5 9C7.5 8.1 8.1 7.5 9 7.5ZM16.8 19.35C16.65 19.35 16.5 19.5 16.35 19.5C15.75 19.5 15.15 19.05 15 18.45C14.4 17.25 13.2 16.5 12 16.5C10.8 16.5 9.6 17.25 9.15 18.45C8.85 19.2 7.95 19.65 7.2 19.35C6.45 19.05 6 18.15 6.3 17.4C7.2 15.15 9.45 13.5 12 13.5C14.55 13.5 16.8 15.15 17.7 17.55C18 18.3 17.55 19.2 16.8 19.35Z" fill="currentColor"/>
</g>
<defs>
<clipPath id="clip0_865_2910">
<rect width="24" height="24" fill="currentColor"/>
</clipPath>
</defs>
</svg>
