<svg width="24" height="24" viewBox="0 0 24 24"  xmlns="http://www.w3.org/2000/svg">
<g clip-path="url(#clip0_865_2904)">
<path fill-rule="evenodd" clip-rule="evenodd" d="M1.5 12C1.5 6.20101 6.20101 1.5 12 1.5C17.799 1.5 22.5 6.20101 22.5 12C22.5 17.799 17.799 22.5 12 22.5C6.20101 22.5 1.5 17.799 1.5 12ZM12 0C5.37258 0 0 5.37258 0 12C0 18.6275 5.37258 24 12 24C18.6275 24 24 18.6275 24 12C24 5.37258 18.6275 0 12 0ZM9 9C9 9.82842 8.32842 10.5 7.5 10.5C6.67158 10.5 6 9.82842 6 9C6 8.17158 6.67158 7.5 7.5 7.5C8.32842 7.5 9 8.17158 9 9ZM16.5 10.5C17.3284 10.5 18 9.82842 18 9C18 8.17158 17.3284 7.5 16.5 7.5C15.6715 7.5 15 8.17158 15 9C15 9.82842 15.6715 10.5 16.5 10.5ZM9.78419 15.5875C10.4601 15.2052 11.2234 15.0042 12 15.0042C12.7766 15.0042 13.5399 15.2052 14.2158 15.5875C14.8917 15.9699 15.4572 16.5207 15.8571 17.1864C16.0705 17.5414 16.5312 17.6562 16.8862 17.4429C17.2413 17.2296 17.3562 16.7688 17.1429 16.4137C16.6095 15.5262 15.8556 14.7918 14.9544 14.282C14.0532 13.7722 13.0354 13.5042 12 13.5042C10.9646 13.5042 9.94678 13.7722 9.04558 14.282C8.14438 14.7918 7.39047 15.5262 6.85715 16.4137C6.64379 16.7688 6.75865 17.2296 7.11369 17.4429C7.46872 17.6562 7.92951 17.5414 8.14285 17.1864C8.54284 16.5207 9.10828 15.9699 9.78419 15.5875Z" fill="currentColor"/>
</g>
<defs>
<clipPath id="clip0_865_2904">
<rect width="24" height="24" fill="currentColor"/>
</clipPath>
</defs>
</svg>
