<svg width="24" height="24" viewBox="0 0 24 24"  xmlns="http://www.w3.org/2000/svg">
<g clip-path="url(#clip0_4167_99)">
<path d="M15 21.8387C15.0001 22.8224 15.6286 23.4783 16.5713 23.4784H21.4288C21.8856 23.4783 22.2676 23.3231 22.5411 23.0524C22.5167 23.0326 22.4923 23.0116 22.4698 22.9882L15 15.1936V21.8387ZM1.40419 1.00566C1.14742 1.29073 0.999918 1.68716 0.999887 2.16124V21.8387C0.999935 22.8224 1.62848 23.4783 2.57119 23.4784H7.42866C8.37137 23.4783 8.99992 22.8224 8.99996 21.8387V8.9327L1.40419 1.00566ZM16.5713 0.521617C15.6286 0.521682 15.0001 1.17751 15 2.16124V9.84983L23.0001 18.1977V2.16124C23 1.17751 22.3715 0.521682 21.4288 0.521617H16.5713Z" fill="currentColor"/>
<path d="M3.06046 0.458446C2.47467 -0.152815 1.52514 -0.152815 0.939344 0.458446C0.353554 1.06971 0.353554 2.06052 0.939344 2.67178L20.9395 23.5416C21.5253 24.1528 22.4749 24.1528 23.0607 23.5416C23.6464 22.9303 23.6464 21.9395 23.0607 21.3282L3.06046 0.458446Z" fill="currentColor"/>
</g>
<defs>
<clipPath id="clip0_4167_99">
<rect width="24" height="24" fill="currentColor"/>
</clipPath>
</defs>
</svg>
