<svg width="24" height="24" viewBox="0 0 24 24"  xmlns="http://www.w3.org/2000/svg">
<g clip-path="url(#clip0_4167_100)">
<path d="M9 21.4287C8.99995 22.3714 8.37146 22.9999 7.42871 23H2.57129C2.40933 23 2.25705 22.9798 2.11523 22.9443L3.63184 21.4287H7.42871V17.6318L9 16.0605V21.4287ZM22.9443 2.11523C22.9798 2.25705 23 2.40933 23 2.57129V21.4287C23 22.3714 22.3714 23 21.4287 23H16.5713C15.6286 23 15 22.3714 15 21.4287V10.0605L16.5713 8.48926V21.4287H21.4287V3.63184L22.9443 2.11523ZM7.42871 1C8.37145 1.00006 8.99994 1.62855 9 2.57129V10.9395L7.42871 12.5107V2.57129H2.57129V17.3682L1 18.9395V2.57129C1.00006 1.62855 1.62855 1.00006 2.57129 1H7.42871Z" fill="currentColor"/>
<path d="M22.4697 0.46967C22.7626 0.176777 23.2374 0.176777 23.5303 0.46967C23.8232 0.762563 23.8232 1.23732 23.5303 1.53022L1.53028 23.5302C1.23738 23.8231 0.762624 23.8231 0.469731 23.5302C0.176838 23.2373 0.176838 22.7626 0.469731 22.4697L22.4697 0.46967Z" fill="currentColor"/>
</g>
<defs>
<clipPath id="clip0_4167_100">
<rect width="24" height="24" fill="currentColor"/>
</clipPath>
</defs>
</svg>
