<svg width="24" height="24" viewBox="0 0 24 24"  xmlns="http://www.w3.org/2000/svg">
<g clip-path="url(#clip0_4167_99)">
<path d="M9.00002 21.4287C8.99997 22.3714 8.37147 22.9999 7.42873 23H2.5713C2.11446 23 1.7325 22.8512 1.459 22.5918C1.48346 22.5728 1.50781 22.5527 1.53029 22.5303L9.00002 15.0605V21.4287ZM22.5957 1.46387C22.8525 1.73706 23 2.11697 23 2.57129V21.4287C23 22.3714 22.3714 23 21.4287 23H16.5713C15.6286 23 15.0001 22.3714 15 21.4287V9.06055L22.5957 1.46387ZM7.42873 1C8.37146 1.00006 8.99995 1.62855 9.00002 2.57129V9.93945L1.00002 17.9395V2.57129C1.00008 1.62855 1.62857 1.00006 2.5713 1H7.42873Z" fill="currentColor"/>
<path d="M20.9395 0.939462C21.5252 0.353675 22.4748 0.353675 23.0606 0.939462C23.6463 1.52525 23.6463 2.47477 23.0606 3.06056L3.06056 23.0606C2.47477 23.6463 1.52525 23.6463 0.939462 23.0606C0.353675 22.4748 0.353675 21.5252 0.939462 20.9395L20.9395 0.939462Z" fill="currentColor"/>
</g>
<defs>
<clipPath id="clip0_4167_99">
<rect width="24" height="24" fill="currentColor"/>
</clipPath>
</defs>
</svg>
