<svg width="24" height="24" viewBox="0 0 24 24"  xmlns="http://www.w3.org/2000/svg">
<g clip-path="url(#clip0_4167_100)">
<path d="M15.0637 21.6294C15.0638 22.5922 15.7056 23.2341 16.6685 23.2342H21.6293C21.7947 23.2341 21.9502 23.2136 22.095 23.1773L20.5461 21.6294H16.6685V17.7517L15.0637 16.147V21.6294ZM0.822632 1.90493C0.786364 2.04976 0.765795 2.20529 0.765783 2.37069V21.6294C0.765835 22.5922 1.40775 23.2341 2.37051 23.2342H7.33131C8.29407 23.2341 8.93599 22.5922 8.93604 21.6294V10.0193L7.33131 8.4146V21.6294H2.37051V3.45381L0.822632 1.90493ZM16.6685 0.765961C15.7057 0.766025 15.0638 1.40789 15.0637 2.37069V10.9169L16.6685 12.5217V2.37069H21.6293V17.4825L23.234 19.0872V2.37069C23.2339 1.40789 22.592 0.766025 21.6293 0.765961H16.6685Z" fill="currentColor"/>
<path d="M1.30734 0.224345C1.00821 -0.0747815 0.52335 -0.0747815 0.224222 0.224345C-0.0749035 0.523471 -0.0749035 1.00834 0.224222 1.30746L22.6924 23.7757C22.9915 24.0748 23.4764 24.0748 23.7755 23.7757C24.0747 23.4765 24.0747 22.9917 23.7755 22.6925L1.30734 0.224345Z" fill="currentColor"/>
</g>
<defs>
<clipPath id="clip0_4167_100">
<rect width="24" height="24" fill="currentColor"/>
</clipPath>
</defs>
</svg>
