<svg width="24" height="24" viewBox="0 0 24 24"  xmlns="http://www.w3.org/2000/svg">
<path d="M19.75 8.99998H21.75C22.95 8.99998 24 10.05 24 11.25V21.75C24 22.95 22.95 24 21.75 24H2.25C1.05 24 0 22.95 0 21.75V11.25C0 10.05 1.05 8.99998 2.25 8.99998H4.25C4.7 8.99998 5 9.29998 5 9.74998C5 10.2 4.7 10.5 4.25 10.5H2.25C1.8 10.5 1.5 10.8 1.5 11.25V21.75C1.5 22.2 1.8 22.5 2.25 22.5H21.75C22.2 22.5 22.5 22.2 22.5 21.75V11.25C22.5 10.8 22.2 10.5 21.75 10.5H19.75C19.3 10.5 19 10.2 19 9.74998C19 9.29998 19.3 8.99998 19.75 8.99998Z" fill="currentColor"/>
<path fill-rule="evenodd" clip-rule="evenodd" d="M9.75002 18.0002C9.33581 18.0002 9.00002 17.6645 9.00002 17.2502V8.5H6.75002C6.45573 8.5 6.18864 8.32789 6.06704 8.05992C5.94543 7.79193 5.9918 7.47759 6.18558 7.25613L11.4356 1.25605C11.578 1.0933 11.7837 1 12 1C12.2163 1 12.422 1.0933 12.5645 1.25605L17.8145 7.25613C18.0083 7.47759 18.0546 7.79193 17.933 8.05992C17.8115 8.32789 17.5443 8.5 17.25 8.5H15V17.2502C15 17.6645 14.6642 18.0002 14.25 18.0002H9.75002ZM10.5 7.75V16.5002H13.5V7.75C13.5 7.33579 13.8358 7 14.25 7H15.5972L12 2.88895L8.40284 7H9.75002C10.1642 7 10.5 7.33579 10.5 7.75Z" fill="currentColor"/>
</svg>
