<svg width="24" height="24" viewBox="0 0 24 24"  xmlns="http://www.w3.org/2000/svg">
<path fill-rule="evenodd" clip-rule="evenodd" d="M17 6.5C17 7.82608 16.4732 9.09785 15.5355 10.0355C14.5979 10.9732 13.3261 11.5 12 11.5C10.6739 11.5 9.40215 10.9732 8.46447 10.0355C7.52679 9.09785 7.00001 7.82608 7.00001 6.5C7.00001 5.17392 7.52679 3.90215 8.46447 2.96447C9.40215 2.02678 10.6739 1.5 12 1.5C13.3261 1.5 14.5979 2.02678 15.5355 2.96447C16.4732 3.90215 17 5.17392 17 6.5ZM15.5 6.5C15.5 6.95963 15.4095 7.41475 15.2336 7.83939C15.0577 8.26403 14.7999 8.64987 14.4749 8.97487C14.1499 9.29988 13.764 9.55769 13.3394 9.73358C12.9148 9.90947 12.4596 10 12 10C11.5404 10 11.0853 9.90947 10.6606 9.73358C10.236 9.55769 9.85014 9.29988 9.52513 8.97487C9.20013 8.64987 8.94232 8.26403 8.76643 7.83939C8.59054 7.41475 8.50001 6.95963 8.50001 6.5C8.50001 6.04037 8.59054 5.58525 8.76643 5.16061C8.94232 4.73597 9.20013 4.35013 9.52513 4.02513C9.85014 3.70012 10.236 3.44231 10.6606 3.26642C11.0853 3.09053 11.5404 3 12 3C12.4596 3 12.9148 3.09053 13.3394 3.26642C13.764 3.44231 14.1499 3.70012 14.4749 4.02513C14.7999 4.35013 15.0577 4.73597 15.2336 5.16061C15.4095 5.58525 15.5 6.04037 15.5 6.5Z" fill="currentColor"/>
<path d="M13.979 13.32C13.156 13.1069 12.3092 12.9993 11.459 13C6.27301 13 2.00901 16.504 1.50501 21.501C1.45001 22.05 1.90801 22.5 2.46701 22.5H11.826C12.0257 22.4998 12.2172 22.4209 12.3593 22.2806C12.5013 22.1403 12.5824 21.9497 12.585 21.75C12.585 21.336 12.241 21 11.826 21H3.08701C3.79601 17.021 7.27401 14.5 11.458 14.5C12.152 14.5 12.827 14.583 13.473 14.74C13.759 14.809 14.065 14.736 14.272 14.529C14.671 14.13 14.526 13.462 13.977 13.32H13.979ZM18.5 20.5C19.0304 20.5 19.5391 20.2893 19.9142 19.9142C20.2893 19.5391 20.5 19.0304 20.5 18.5C20.5 17.9696 20.2893 17.4609 19.9142 17.0858C19.5391 16.7107 19.0304 16.5 18.5 16.5C17.9696 16.5 17.4609 16.7107 17.0858 17.0858C16.7107 17.4609 16.5 17.9696 16.5 18.5C16.5 19.0304 16.7107 19.5391 17.0858 19.9142C17.4609 20.2893 17.9696 20.5 18.5 20.5Z" fill="currentColor"/>
<path fill-rule="evenodd" clip-rule="evenodd" d="M23 18.5C23 19.6935 22.5259 20.8381 21.682 21.682C20.8381 22.5259 19.6935 23 18.5 23C17.3065 23 16.1619 22.5259 15.318 21.682C14.4741 20.8381 14 19.6935 14 18.5C14 17.3065 14.4741 16.1619 15.318 15.318C16.1619 14.4741 17.3065 14 18.5 14C19.6935 14 20.8381 14.4741 21.682 15.318C22.5259 16.1619 23 17.3065 23 18.5ZM21.5 18.5C21.5 19.2956 21.1839 20.0587 20.6213 20.6213C20.0587 21.1839 19.2957 21.5 18.5 21.5C17.7044 21.5 16.9413 21.1839 16.3787 20.6213C15.8161 20.0587 15.5 19.2956 15.5 18.5C15.5 17.7044 15.8161 16.9413 16.3787 16.3787C16.9413 15.8161 17.7044 15.5 18.5 15.5C19.2957 15.5 20.0587 15.8161 20.6213 16.3787C21.1839 16.9413 21.5 17.7044 21.5 18.5Z" fill="currentColor"/>
</svg>
