<svg width="24" height="24" viewBox="0 0 24 24"  xmlns="http://www.w3.org/2000/svg">
<path d="M6.28593 12.5991C3.80022 13.4721 2 15.3449 2 17.8902V21.5001C2 22.0523 2.44772 22.5001 3 22.5001H21C21.5523 22.5001 22 22.0523 22 21.5001V17.8902C22 15.3449 20.1998 13.4721 17.7141 12.5991C16.2621 14.0808 14.2384 15.0001 12 15.0001C9.76161 15.0001 7.73794 14.0808 6.28593 12.5991ZM17.5 7C17.5 10.0376 15.0376 12.5 12 12.5C8.96243 12.5 6.5 10.0376 6.5 7C6.5 3.96243 8.96243 1.5 12 1.5C15.0376 1.5 17.5 3.96243 17.5 7Z" fill="currentColor"/>
</svg>
