<svg width="24" height="24" viewBox="0 0 24 24"  xmlns="http://www.w3.org/2000/svg">
<path d="M12 11.5C14.7614 11.5 17 9.26142 17 6.5C17 3.73858 14.7614 1.5 12 1.5C9.23858 1.5 7 3.73858 7 6.5C7 9.26142 9.23858 11.5 12 11.5ZM16.0214 13.7904C14.2162 14.8247 13 16.7703 13 19C13 20.3062 13.4174 21.5149 14.126 22.5H2.43911C1.84507 22.5 1.3844 21.9632 1.52569 21.3747C2.67972 16.5672 6.93149 13 12 13C13.4215 13 14.7787 13.2806 16.0214 13.7904Z" fill="currentColor"/>
<path fill-rule="evenodd" clip-rule="evenodd" d="M20.9583 15.288L22.9243 18.7166C23.0252 18.892 23.0252 19.108 22.9243 19.2834L20.9583 22.712C20.8562 22.8903 20.6664 23 20.4606 23H16.5394C16.3336 23 16.1438 22.8903 16.0417 22.712L14.0757 19.2834C13.9748 19.108 13.9748 18.892 14.0757 18.7166L16.0417 15.288C16.1438 15.1097 16.3336 15 16.5394 15H20.4612C20.667 15 20.8568 15.1097 20.9583 15.288ZM18.5 21C19.6046 21 20.5 20.1046 20.5 19C20.5 17.8954 19.6046 17 18.5 17C17.3954 17 16.5 17.8954 16.5 19C16.5 20.1046 17.3954 21 18.5 21Z" fill="currentColor"/>
</svg>
