<svg width="24" height="24" viewBox="0 0 24 24"  xmlns="http://www.w3.org/2000/svg">
<path fill-rule="evenodd" clip-rule="evenodd" d="M21.5429 22.5C22.0977 22.5 22.5533 22.0508 22.495 21.5016C21.9639 16.5041 17.4678 13 12 13C6.53218 13 2.03611 16.5041 1.50505 21.5016C1.44668 22.0508 1.90231 22.5 2.45709 22.5H21.5429ZM12 14.5C7.58844 14.5 3.92109 17.021 3.17384 21H20.8262C20.0789 17.021 16.4116 14.5 12 14.5ZM12 10C13.933 10 15.5 8.433 15.5 6.5C15.5 4.567 13.933 3 12 3C10.067 3 8.5 4.567 8.5 6.5C8.5 8.433 10.067 10 12 10ZM12 11.5C14.7614 11.5 17 9.26142 17 6.5C17 3.73858 14.7614 1.5 12 1.5C9.23858 1.5 7 3.73858 7 6.5C7 9.26142 9.23858 11.5 12 11.5Z" fill="currentColor"/>
</svg>
