<svg width="24" height="24" viewBox="0 0 24 24"  xmlns="http://www.w3.org/2000/svg">
<path fill-rule="evenodd" clip-rule="evenodd" d="M16.8603 6.11628C16.8603 7.4732 16.3213 8.77455 15.3618 9.73403C14.4023 10.6935 13.1009 11.2326 11.7439 11.2326C10.387 11.2326 9.08559 10.6935 8.12608 9.73403C7.16657 8.77455 6.62752 7.4732 6.62752 6.11628C6.62752 4.75936 7.16657 3.45801 8.12608 2.49852C9.08559 1.53903 10.387 1 11.7439 1C13.1009 1 14.4023 1.53903 15.3618 2.49852C16.3213 3.45801 16.8603 4.75936 16.8603 6.11628ZM15.3254 6.11628C15.3254 6.58659 15.2328 7.05231 15.0528 7.48682C14.8728 7.92133 14.609 8.31614 14.2764 8.64871C13.9438 8.98127 13.549 9.24508 13.1145 9.42506C12.68 9.60504 12.2142 9.69767 11.7439 9.69767C11.2736 9.69767 10.8079 9.60504 10.3733 9.42506C9.93882 9.24508 9.544 8.98127 9.21143 8.64871C8.87886 8.31614 8.61505 7.92133 8.43506 7.48682C8.25508 7.05231 8.16244 6.58659 8.16244 6.11628C8.16244 5.64596 8.25508 5.18025 8.43506 4.74574C8.61505 4.31122 8.87886 3.91641 9.21143 3.58385C9.544 3.25129 9.93882 2.98748 10.3733 2.8075C10.8079 2.62752 11.2736 2.53488 11.7439 2.53488C12.2142 2.53488 12.68 2.62752 13.1145 2.8075C13.549 2.98748 13.9438 3.25129 14.2764 3.58385C14.609 3.91641 14.8728 4.31122 15.0528 4.74574C15.2328 5.18025 15.3254 5.64596 15.3254 6.11628Z" fill="currentColor"/>
<path d="M13.769 13.0949C12.9268 12.8768 12.0603 12.7668 11.1903 12.7674C5.88359 12.7674 1.52033 16.3529 1.00459 21.4661C0.948312 22.0279 1.41697 22.4884 1.98899 22.4884H11.5659C11.7702 22.4881 11.9662 22.4075 12.1115 22.2639C12.2569 22.1203 12.3399 21.9252 12.3425 21.7209C12.3425 21.2973 11.9905 20.9535 11.5659 20.9535H2.62342C3.34893 16.882 6.9079 14.3023 11.1893 14.3023C11.8995 14.3023 12.5902 14.3873 13.2512 14.5479C13.5439 14.6185 13.857 14.5438 14.0688 14.332C14.4771 13.9237 14.3287 13.2402 13.7669 13.0949H13.769Z" fill="currentColor"/>
<path d="M15.3324 21.1793C15.3658 21.3423 15.5103 21.4649 15.6831 21.4651H21.1073L21.1793 21.4581C21.3191 21.4295 21.4294 21.3191 21.4581 21.1793L21.4651 21.1074V17.7298C21.4649 17.557 21.3423 17.4125 21.1793 17.3791L21.1073 17.3721V15.8372C22.1525 15.8374 22.9998 16.6847 23 17.7298V21.1074C22.9998 22.1525 22.1525 22.9998 21.1073 23H15.6831C14.6379 22.9998 13.7907 22.1525 13.7905 21.1074V17.7298C13.7907 16.6847 14.6379 15.8374 15.6831 15.8372V17.3721C15.4857 17.3723 15.3256 17.5324 15.3254 17.7298V21.1074L15.3324 21.1793ZM21.1073 15.8372V17.3721H15.6831V15.8372H21.1073Z" fill="currentColor"/>
<path d="M18.9069 18.7535C18.9069 18.5557 19.0672 18.3953 19.265 18.3953H20.0837C20.2815 18.3953 20.4418 18.5557 20.4418 18.7535V19.5721C20.4418 19.7699 20.2815 19.9302 20.0837 19.9302H19.265C19.0672 19.9302 18.9069 19.7699 18.9069 19.5721V18.7535Z" fill="currentColor"/>
<path d="M15.3254 15.1721C15.3254 14.9743 15.4857 14.814 15.6835 14.814H16.5022C16.7 14.814 16.8603 14.9743 16.8603 15.1721V16.5023C16.8603 16.7001 16.7 16.8605 16.5022 16.8605H15.6835C15.4857 16.8605 15.3254 16.7001 15.3254 16.5023V15.1721Z" fill="currentColor"/>
<path d="M19.9302 15.1721C19.9302 14.9743 20.0905 14.814 20.2883 14.814H21.1069C21.3047 14.814 21.4651 14.9743 21.4651 15.1721V16.5023C21.4651 16.7001 21.3047 16.8605 21.1069 16.8605H20.2883C20.0905 16.8605 19.9302 16.7001 19.9302 16.5023V15.1721Z" fill="currentColor"/>
</svg>
