<svg width="24" height="24" viewBox="0 0 24 24"  xmlns="http://www.w3.org/2000/svg">
<path d="M16.6903 6.23809C16.6903 7.62732 16.1402 8.95965 15.1611 9.94199C14.1819 10.9243 12.8539 11.4762 11.4691 11.4762C10.0844 11.4762 8.75636 10.9243 7.7772 9.94199C6.79804 8.95965 6.24795 7.62732 6.24795 6.23809C6.24795 4.84887 6.79804 3.51654 7.7772 2.5342C8.75636 1.55187 10.0844 1 11.4691 1C12.8539 1 14.1819 1.55187 15.1611 2.5342C16.1402 3.51654 16.6903 4.84887 16.6903 6.23809ZM11.9913 18.8095C11.9913 16.6169 13.1096 14.6871 14.8065 13.562C13.7269 13.2202 12.6013 13.0467 11.4691 13.0476C6.17589 13.0476 2.23181 16.7845 1.02675 21.8214C0.879516 22.4374 1.35987 23 1.98014 23H13.5869C12.5948 21.8885 11.9913 20.4197 11.9913 18.8095Z" fill="currentColor"/>
<path d="M15.5 21C15.5 21.2417 15.6714 21.4437 15.8994 21.4902L16 21.5H21L21.1006 21.4902C21.3286 21.4437 21.5 21.2417 21.5 21V18C21.5 17.7239 21.2761 17.5 21 17.5V16C22.1046 16 23 16.8954 23 18V21C23 22.1046 22.1046 23 21 23H16C14.8954 23 14 22.1046 14 21V18C14 16.8954 14.8954 16 16 16V17.5C15.7239 17.5 15.5 17.7239 15.5 18V21ZM21 16V17.5H16V16H21Z" fill="currentColor"/>
<path d="M14.5 18C14.5 17.7239 14.7239 17.5 15 17.5H22C22.2761 17.5 22.5 17.7239 22.5 18V18.5C22.5 18.7761 22.2761 19 22 19H15C14.7239 19 14.5 18.7761 14.5 18.5V18Z" fill="currentColor"/>
<path d="M15.5 15.5C15.5 15.2239 15.7239 15 16 15H16.5C16.7761 15 17 15.2239 17 15.5V16.5C17 16.7761 16.7761 17 16.5 17H16C15.7239 17 15.5 16.7761 15.5 16.5V15.5Z" fill="currentColor"/>
<path d="M20 15.5C20 15.2239 20.2239 15 20.5 15H21C21.2761 15 21.5 15.2239 21.5 15.5V16.5C21.5 16.7761 21.2761 17 21 17H20.5C20.2239 17 20 16.7761 20 16.5V15.5Z" fill="currentColor"/>
</svg>
