<svg width="24" height="24" viewBox="0 0 24 24"  xmlns="http://www.w3.org/2000/svg">
<path fill-rule="evenodd" clip-rule="evenodd" d="M10.5 11.5C10.5 13.1942 11.266 14.7095 12.4706 15.7184C11.2495 16.2395 10.167 17.0228 9.2939 17.9975C4.71311 17.8871 1 14.1061 1 9.5C1 4.825 4.825 1 9.5 1C12.99 1 16.0063 3.13165 17.3112 6.15726C16.891 6.05449 16.4519 6 16 6C12.9624 6 10.5 8.46243 10.5 11.5ZM9.51111 10.5001H4.98889C4.71888 10.5001 4.5 10.2812 4.5 10.0112V9.00012C4.5 8.73011 4.71888 8.50012 4.98889 8.50012H8V5C8 4.72999 8.21888 4.5 8.48889 4.5H9.51111C9.78112 4.5 10 4.72999 10 5V10.0112C10 10.2812 9.78112 10.5001 9.51111 10.5001Z" fill="currentColor"/>
<path d="M16 15.5C18.2067 15.5 20 13.7091 20 11.5C20 9.29086 18.2067 7.5 16 7.5C13.7933 7.5 11.9967 9.29086 11.9967 11.5C11.9967 13.7091 13.7933 15.5 16 15.5ZM22.0814 22.9942C22.6331 22.9942 23.0901 22.5421 22.9848 22C22.4328 19.1594 19.4595 17 15.9924 17C12.5253 17 9.56722 19.1653 9.01521 22.0058C8.90986 22.548 9.3669 23 9.91858 23L22.0814 22.9942Z" fill="currentColor"/>
</svg>
