<svg width="24" height="24" viewBox="0 0 24 24"  xmlns="http://www.w3.org/2000/svg">
<path fill-rule="evenodd" clip-rule="evenodd" d="M16.5565 15.4513C18.2995 13.9887 20.8985 14.216 22.3611 15.9591C23.5469 17.3722 23.6214 19.3477 22.6785 20.8243L23.5945 21.9161C24.0332 22.439 23.965 23.2186 23.4422 23.6573C22.9193 24.0961 22.1398 24.0278 21.701 23.505L20.785 22.4132C19.1671 23.0854 17.2344 22.6691 16.0486 21.256C14.586 19.5129 14.8134 16.9139 16.5565 15.4513ZM20.4676 17.548C19.8826 16.8507 18.8425 16.7598 18.1453 17.3448C17.4481 17.9299 17.3572 18.9699 17.9422 19.6671C18.5273 20.3642 19.5673 20.4552 20.2645 19.8702C20.9616 19.2852 21.0526 18.2451 20.4676 17.548Z" fill="currentColor"/>
<path d="M11.9998 13C13.4212 13 14.7787 13.2803 16.0213 13.79C14.2161 14.8243 12.9998 16.7703 12.9998 19C12.9998 20.3062 13.4172 21.5149 14.1258 22.5H2.43927C1.84536 22.5 1.38421 21.9633 1.5252 21.375C2.67922 16.5676 6.93139 13.0001 11.9998 13Z" fill="currentColor"/>
<path d="M11.9998 1.5C14.7612 1.5 16.9998 3.73858 16.9998 6.5C16.9998 9.26142 14.7612 11.5 11.9998 11.5C9.23849 11.4999 6.99982 9.26136 6.99982 6.5C6.99982 3.73864 9.23849 1.5001 11.9998 1.5Z" fill="currentColor"/>
</svg>
