<svg width="24" height="24" viewBox="0 0 24 24"  xmlns="http://www.w3.org/2000/svg">
<path d="M9 4C9 5.65685 7.65685 7 6 7C4.34315 7 3 5.65685 3 4C3 2.34315 4.34315 1 6 1C7.65685 1 9 2.34315 9 4Z" fill="currentColor"/>
<path fill-rule="evenodd" clip-rule="evenodd" d="M10.0671 13C10.6287 13 11.0945 12.5478 10.9835 12.0064C10.515 9.72096 8.46185 8 6 8C3.53815 8 1.48501 9.72096 1.01647 12.0064C0.905487 12.5478 1.37132 13 1.93287 13H10.0671Z" fill="currentColor"/>
<path d="M21 14C21 15.6569 19.6569 17 18 17C16.3431 17 15 15.6569 15 14C15 12.3431 16.3431 11 18 11C19.6569 11 21 12.3431 21 14Z" fill="currentColor"/>
<path fill-rule="evenodd" clip-rule="evenodd" d="M22.0671 23C22.6287 23 23.0945 22.5478 22.9835 22.0064C22.515 19.721 20.4618 18 18 18C15.5382 18 13.485 19.721 13.0165 22.0064C12.9055 22.5478 13.3713 23 13.9329 23H22.0671Z" fill="currentColor"/>
<path d="M12.5 2.97443C12.5 3.51004 12.9118 3.95231 13.43 4.04764C16.2401 4.56457 18.5378 6.57928 19.495 9.24955C19.6507 9.6841 20.0417 10 20.4965 10H20.5497C21.1798 10 21.6538 9.41038 21.4535 8.80276C20.2868 5.26385 17.2526 2.59618 13.5416 2.01076C12.9786 1.92196 12.5 2.395 12.5 2.97443ZM3.52237 15C3.92318 15 4.27879 15.2574 4.46007 15.6314C5.49067 17.7575 7.3773 19.3527 9.64549 19.9205C10.1281 20.0413 10.5 20.4723 10.5 20.9915V21.0175C10.5 21.6262 9.99602 22.1062 9.42699 21.9796C6.39332 21.3045 3.87684 19.1665 2.58416 16.3049C2.30031 15.6765 2.77205 15 3.43635 15H3.52237Z" fill="currentColor"/>
</svg>
