<svg width="24" height="24" viewBox="0 0 24 24"  xmlns="http://www.w3.org/2000/svg">
<path d="M17 6.5C17 7.82608 16.4732 9.09785 15.5355 10.0355C14.5978 10.9732 13.3261 11.5 12 11.5C10.6739 11.5 9.40213 10.9732 8.46445 10.0355C7.52677 9.09785 6.99999 7.82608 6.99999 6.5C6.99999 5.17392 7.52677 3.90215 8.46445 2.96447C9.40213 2.02678 10.6739 1.5 12 1.5C13.3261 1.5 14.5978 2.02678 15.5355 2.96447C16.4732 3.90215 17 5.17392 17 6.5ZM12.5 18.5C12.5 16.407 13.571 14.565 15.196 13.491C14.1621 13.1647 13.0842 12.9991 12 13C6.93099 13 2.67999 16.567 1.52599 21.375C1.38499 21.963 1.84499 22.5 2.43899 22.5H14.028C13.078 21.439 12.5 20.037 12.5 18.5ZM20.5 18.5C20.5 19.0304 20.2893 19.5391 19.9142 19.9142C19.5391 20.2893 19.0304 20.5 18.5 20.5C17.9696 20.5 17.4608 20.2893 17.0858 19.9142C16.7107 19.5391 16.5 19.0304 16.5 18.5C16.5 17.9696 16.7107 17.4609 17.0858 17.0858C17.4608 16.7107 17.9696 16.5 18.5 16.5C19.0304 16.5 19.5391 16.7107 19.9142 17.0858C20.2893 17.4609 20.5 17.9696 20.5 18.5Z" fill="currentColor"/>
<path fill-rule="evenodd" clip-rule="evenodd" d="M18.5 23C19.6935 23 20.8381 22.5259 21.682 21.682C22.5259 20.8381 23 19.6935 23 18.5C23 17.3065 22.5259 16.1619 21.682 15.318C20.8381 14.4741 19.6935 14 18.5 14C17.3065 14 16.1619 14.4741 15.318 15.318C14.4741 16.1619 14 17.3065 14 18.5C14 19.6935 14.4741 20.8381 15.318 21.682C16.1619 22.5259 17.3065 23 18.5 23ZM18.5 21.5C19.2956 21.5 20.0587 21.1839 20.6213 20.6213C21.1839 20.0587 21.5 19.2956 21.5 18.5C21.5 17.7044 21.1839 16.9413 20.6213 16.3787C20.0587 15.8161 19.2956 15.5 18.5 15.5C17.7043 15.5 16.9413 15.8161 16.3787 16.3787C15.8161 16.9413 15.5 17.7044 15.5 18.5C15.5 19.2956 15.8161 20.0587 16.3787 20.6213C16.9413 21.1839 17.7043 21.5 18.5 21.5Z" fill="currentColor"/>
</svg>
