<svg width="24" height="24" viewBox="0 0 24 24"  xmlns="http://www.w3.org/2000/svg">
<path fill-rule="evenodd" clip-rule="evenodd" d="M6 5.5C6.82843 5.5 7.5 4.82843 7.5 4C7.5 3.17157 6.82843 2.5 6 2.5C5.17157 2.5 4.5 3.17157 4.5 4C4.5 4.82843 5.17157 5.5 6 5.5ZM6 7C7.65685 7 9 5.65685 9 4C9 2.34315 7.65685 1 6 1C4.34315 1 3 2.34315 3 4C3 5.65685 4.34315 7 6 7ZM10.0671 13.5C10.6287 13.5 11.0945 13.0478 10.9835 12.5064C10.515 10.221 8.46185 8.5 6 8.5C3.53815 8.5 1.48501 10.221 1.01647 12.5064C0.905487 13.0478 1.37132 13.5 1.93287 13.5H10.0671ZM6 10C4.58037 10 3.35489 10.8175 2.78373 12H9.21627C8.64511 10.8175 7.41963 10 6 10ZM18 15C18.8284 15 19.5 14.3284 19.5 13.5C19.5 12.6716 18.8284 12 18 12C17.1716 12 16.5 12.6716 16.5 13.5C16.5 14.3284 17.1716 15 18 15ZM18 16.5C19.6569 16.5 21 15.1569 21 13.5C21 11.8431 19.6569 10.5 18 10.5C16.3431 10.5 15 11.8431 15 13.5C15 15.1569 16.3431 16.5 18 16.5ZM22.0671 23C22.6287 23 23.0945 22.5478 22.9835 22.0064C22.515 19.721 20.4618 18 18 18C15.5382 18 13.485 19.721 13.0165 22.0064C12.9055 22.5478 13.3713 23 13.9329 23H22.0671ZM18 19.5C16.5804 19.5 15.3549 20.3175 14.7837 21.5H21.2163C20.6451 20.3175 19.4196 19.5 18 19.5Z" fill="currentColor"/>
<path d="M12.7499 2.02659C17.0152 2.3302 20.5533 5.2031 21.7602 9.07341C21.9072 9.54494 21.5367 9.99994 21.0428 9.99994C20.6841 9.99994 20.3754 9.75361 20.2644 9.41259C19.2203 6.20702 16.288 3.82792 12.7492 3.53121C12.3364 3.4966 12 3.16417 12 2.74997C12 2.33577 12.3367 1.99718 12.7499 2.02659ZM3.12004 15C3.45299 15 3.74875 15.2052 3.8913 15.5061C5.06846 17.991 7.45102 19.8428 10.3259 20.3799C10.7074 20.4512 11 20.7739 11 21.162C11 21.6114 10.6123 21.9656 10.1694 21.8891C6.6873 21.2882 3.80019 19.0516 2.41021 16.0416C2.17877 15.5404 2.568 15 3.12004 15Z" fill="currentColor"/>
</svg>
