<svg width="24" height="24" viewBox="0 0 24 24"  xmlns="http://www.w3.org/2000/svg">
<path fill-rule="evenodd" clip-rule="evenodd" d="M11.2667 10.7778C13.9667 10.7778 16.1556 8.58894 16.1556 5.88889C16.1556 3.18883 13.9667 1 11.2667 1C8.56661 1 6.37778 3.18883 6.37778 5.88889C6.37778 8.58894 8.56661 10.7778 11.2667 10.7778ZM11.2667 9.31111C13.1567 9.31111 14.6889 7.77893 14.6889 5.88889C14.6889 3.99884 13.1567 2.46667 11.2667 2.46667C9.37662 2.46667 7.84445 3.99884 7.84445 5.88889C7.84445 7.77893 9.37662 9.31111 11.2667 9.31111Z" fill="currentColor"/>
<path d="M13.2012 12.5573C12.414 12.3531 11.5883 12.2444 10.7372 12.2444C5.66653 12.2444 1.49703 15.6707 1.00445 20.5569C0.950267 21.0942 1.39869 21.5333 1.94508 21.5333H11.0963C11.5014 21.5333 11.8383 21.205 11.8383 20.8C11.8383 20.395 11.5014 20.0667 11.0963 20.0667H2.55201C3.245 16.1761 6.64601 13.7111 10.7372 13.7111C11.4162 13.7111 12.0761 13.7925 12.7077 13.946C12.9876 14.0139 13.2867 13.9425 13.4893 13.7399C13.8792 13.3501 13.7376 12.6965 13.2012 12.5573Z" fill="currentColor"/>
<path d="M21.5333 18.1111C21.5333 16.2211 20.0012 14.6889 18.1111 14.6889C16.2211 14.6889 14.6889 16.2211 14.6889 18.1111C14.6889 20.0012 16.2211 21.5333 18.1111 21.5333C20.0012 21.5333 21.5333 20.0012 21.5333 18.1111ZM23 18.1111C23 20.8112 20.8112 23 18.1111 23C15.411 23 13.2222 20.8112 13.2222 18.1111C13.2222 15.4111 15.411 13.2222 18.1111 13.2222C20.8112 13.2222 23 15.4111 23 18.1111Z" fill="currentColor"/>
<path d="M17.3778 16.1556C17.3778 15.7505 17.7061 15.4222 18.1111 15.4222C18.5161 15.4222 18.8444 15.7505 18.8444 16.1556V17.8072L20.0964 19.0591C20.3828 19.3455 20.3828 19.81 20.0964 20.0964C19.81 20.3828 19.3455 20.3828 19.0591 20.0964L17.5925 18.6297C17.455 18.4922 17.3778 18.3056 17.3778 18.1111V16.1556Z" fill="currentColor"/>
</svg>
