<svg width="24" height="24" viewBox="0 0 24 24"  xmlns="http://www.w3.org/2000/svg">
<path fill-rule="evenodd" clip-rule="evenodd" d="M12 10C13.933 10 15.5 8.433 15.5 6.5C15.5 4.567 13.933 3 12 3C10.067 3 8.5 4.567 8.5 6.5C8.5 8.433 10.067 10 12 10ZM12 11.5C14.7614 11.5 17 9.26142 17 6.5C17 3.73858 14.7614 1.5 12 1.5C9.23858 1.5 7 3.73858 7 6.5C7 9.26142 9.23858 11.5 12 11.5Z" fill="currentColor"/>
<path d="M18.6125 20.1111C19.1717 20.1111 19.625 19.6634 19.625 19.1111C19.625 18.5588 19.1717 18.1111 18.6125 18.1111C18.0533 18.1111 17.6 18.5588 17.6 19.1111C17.6 19.6634 18.0533 20.1111 18.6125 20.1111Z" fill="currentColor"/>
<path fill-rule="evenodd" clip-rule="evenodd" d="M15.8804 15.5092C16.0636 15.1946 16.4079 15 16.7812 15H20.2188C20.5921 15 20.9364 15.1946 21.1196 15.5092L22.8669 18.5092C23.0444 18.8139 23.0444 19.1861 22.8669 19.4908L21.1196 22.4908C20.9364 22.8054 20.5921 23 20.2188 23H16.7812C16.4079 23 16.0636 22.8054 15.8804 22.4908L14.1331 19.4908C13.9556 19.1861 13.9556 18.8139 14.1331 18.5092L15.8804 15.5092ZM17.6415 16.5C17.2682 16.5 16.9238 16.6946 16.7406 17.0092L15.867 18.5092C15.6895 18.8139 15.6895 19.1861 15.867 19.4908L16.7406 20.9908C16.9238 21.3054 17.2682 21.5 17.6415 21.5H19.3585C19.7318 21.5 20.0762 21.3054 20.2594 20.9908L21.133 19.4908C21.3105 19.1861 21.3105 18.8139 21.133 18.5092L20.2594 17.0092C20.0762 16.6946 19.7318 16.5 19.3585 16.5H17.6415Z" fill="currentColor"/>
<path d="M11.4585 13C12.3289 13 13.1734 13.1111 13.9785 13.32C14.5271 13.4623 14.6719 14.1308 14.2732 14.5294C14.0659 14.7366 13.7601 14.8097 13.4738 14.7402C12.8278 14.5832 12.1529 14.5 11.4585 14.5C7.27433 14.5 3.79603 17.021 3.08729 21H11.8258C12.2401 21 12.5846 21.3358 12.5846 21.75C12.5846 22.1642 12.2401 22.5 11.8258 22.5H2.46656C1.90775 22.5 1.44914 22.0509 1.50455 21.5014C2.00833 16.5041 6.27259 13 11.4585 13Z" fill="currentColor"/>
</svg>
