<svg width="24" height="24" viewBox="0 0 24 24"  xmlns="http://www.w3.org/2000/svg">
<path fill-rule="evenodd" clip-rule="evenodd" d="M12 11.5C14.7614 11.5 17 9.26142 17 6.5C17 3.73858 14.7614 1.5 12 1.5C9.23858 1.5 7 3.73858 7 6.5C7 9.26142 9.23858 11.5 12 11.5ZM12 10C13.933 10 15.5 8.433 15.5 6.5C15.5 4.567 13.933 3 12 3C10.067 3 8.5 4.567 8.5 6.5C8.5 8.433 10.067 10 12 10Z" fill="currentColor"/>
<path d="M22.8975 15.024C22.8672 15.0114 22.8338 15.008 22.8016 15.0143C22.7694 15.0205 22.7397 15.0362 22.7164 15.0593L21.7037 16.0627C20.9699 15.3777 20.0033 14.9978 19.0001 15C18.2227 14.9999 17.4622 15.2269 16.8118 15.6532C16.1613 16.0795 15.6493 16.6866 15.3383 17.4C15.2678 17.562 15.2643 17.7454 15.3288 17.9099C15.3932 18.0744 15.5202 18.2066 15.6819 18.2773C15.7657 18.3146 15.8565 18.3337 15.9482 18.3333C16.0778 18.3334 16.2046 18.2956 16.313 18.2245C16.4215 18.1535 16.5068 18.0523 16.5587 17.9333C16.766 17.4577 17.1074 17.0529 17.5411 16.7687C17.9747 16.4845 18.4818 16.3332 19.0001 16.3333C19.647 16.3321 20.2717 16.5694 20.755 17L19.6265 18.1207C19.6044 18.1428 19.5889 18.1708 19.5819 18.2013C19.5748 18.2318 19.5764 18.2637 19.5866 18.2933C19.5968 18.3232 19.6154 18.3494 19.64 18.369C19.6647 18.3886 19.6944 18.4008 19.7257 18.404L22.8149 18.7467H22.8336C22.8555 18.7469 22.8772 18.7427 22.8975 18.7344C22.9177 18.726 22.9361 18.7138 22.9516 18.6983C22.9671 18.6827 22.9794 18.6643 22.9877 18.644C22.996 18.6237 23.0002 18.6019 23 18.58V15.178C22.9999 15.1451 22.9902 15.1129 22.9719 15.0855C22.9537 15.0581 22.9278 15.0367 22.8975 15.024ZM15.1025 22.9758C15.1235 22.9849 15.1462 22.9893 15.1691 22.9884C15.2129 22.9884 15.255 22.9712 15.2863 22.9404L16.2989 21.9404C17.0326 22.6235 17.9981 23.0022 18.9999 22.9998C19.7773 22.9999 20.5378 22.7729 21.1882 22.3466C21.8386 21.9203 22.3507 21.3132 22.6617 20.5998C22.7312 20.4379 22.7339 20.2551 22.6692 20.0912C22.6045 19.9273 22.4777 19.7958 22.3164 19.7253C22.1551 19.6548 21.9725 19.6511 21.8086 19.7151C21.6446 19.779 21.5125 19.9053 21.4413 20.0664C21.234 20.5421 20.8926 20.9468 20.4589 21.231C20.0253 21.5152 19.5182 21.6665 18.9999 21.6664C18.353 21.6677 17.7283 21.4304 17.245 20.9998L18.3768 19.8818C18.3989 19.8596 18.4144 19.8317 18.4215 19.8012C18.4285 19.7706 18.4269 19.7387 18.4167 19.7091C18.4065 19.6793 18.3879 19.653 18.3633 19.6334C18.3386 19.6138 18.3089 19.6017 18.2776 19.5984L15.1851 19.2531C15.1382 19.2491 15.0915 19.2637 15.0553 19.2938C15.0379 19.3095 15.0239 19.3287 15.0144 19.3502C15.0049 19.3717 15 19.3949 15 19.4184V22.8218C15.0001 22.8547 15.0098 22.8869 15.0281 22.9142C15.0463 22.9416 15.0722 22.963 15.1025 22.9758ZM13.9785 13.32C13.1734 13.1111 12.3289 13 11.4585 13C6.27259 13 2.00833 16.5041 1.50455 21.5014C1.44914 22.0509 1.90775 22.5 2.46656 22.5H11.8258C12.2401 22.5 12.5846 22.1642 12.5846 21.75C12.5846 21.3358 12.2401 21 11.8258 21H3.08729C3.79603 17.021 7.27433 14.5 11.4585 14.5C12.1529 14.5 12.8278 14.5832 13.4738 14.7402C13.7601 14.8097 14.0659 14.7366 14.2732 14.5294C14.6719 14.1308 14.5271 13.4623 13.9785 13.32Z" fill="currentColor"/>
</svg>
