<svg width="24" height="24" viewBox="0 0 24 24"  xmlns="http://www.w3.org/2000/svg">
<path fill-rule="evenodd" clip-rule="evenodd" d="M16.1556 14.8527C17.8982 13.3907 20.4962 13.618 21.9583 15.3606C23.2761 16.9313 23.2211 19.197 21.9212 20.6994L23.1468 22.1594C23.366 22.4206 23.3317 22.8101 23.0706 23.0295C22.8093 23.2488 22.4189 23.2147 22.1996 22.9533L20.9818 21.5022C19.2681 22.5737 16.9841 22.2479 15.6478 20.6555C14.1856 18.9129 14.413 16.315 16.1556 14.8527ZM21.0111 16.1545C19.9875 14.9349 18.1693 14.7756 16.9496 15.799C15.7297 16.8226 15.5705 18.6417 16.5941 19.8615C17.6177 21.0812 19.4368 21.2405 20.6566 20.217C21.8764 19.1934 22.0346 17.3743 21.0111 16.1545Z" fill="currentColor"/>
<path d="M11.4583 13C12.3287 13 13.1737 13.1114 13.9788 13.3203C14.5271 13.4628 14.6714 14.1308 14.2728 14.5293C14.0655 14.7363 13.7601 14.8096 13.474 14.7402C12.828 14.5832 12.1527 14.5 11.4583 14.5C7.27424 14.5001 3.79598 17.021 3.08725 21H11.8255C12.2398 21 12.5843 21.3358 12.5843 21.75C12.5843 22.1642 12.2398 22.5 11.8255 22.5H2.46615C1.90752 22.4998 1.44884 22.0503 1.50424 21.501C2.0082 16.5039 6.27263 13.0001 11.4583 13Z" fill="currentColor"/>
<path fill-rule="evenodd" clip-rule="evenodd" d="M12.0003 1.5C14.7616 1.50018 17.0003 3.73869 17.0003 6.5C17.0003 9.26131 14.7616 11.4998 12.0003 11.5C9.23889 11.5 7.00031 9.26142 7.00031 6.5C7.00031 3.73858 9.23889 1.5 12.0003 1.5ZM12.0003 3C10.0673 3 8.50031 4.567 8.50031 6.5C8.50031 8.433 10.0673 10 12.0003 10C13.9332 9.99982 15.5003 8.43289 15.5003 6.5C15.5003 4.56711 13.9332 3.00018 12.0003 3Z" fill="currentColor"/>
</svg>
