<svg width="24" height="24" viewBox="0 0 24 24"  xmlns="http://www.w3.org/2000/svg">
<path d="M11.2668 12.3708C12.6566 12.3708 13.984 12.6479 15.199 13.1519C13.4339 14.1746 12.2446 16.0987 12.2446 18.3034C12.2446 19.5949 12.6527 20.79 13.3456 21.764H1.91876C1.33805 21.764 0.887144 21.2334 1.025 20.6517C2.15338 15.8983 6.31105 12.3709 11.2668 12.3708Z" fill="currentColor"/>
<path d="M11.2667 1C13.9667 1 16.1555 3.21343 16.1555 5.94382C16.1555 8.67421 13.9667 10.8876 11.2667 10.8876C8.5667 10.8875 6.37778 8.67415 6.37778 5.94382C6.37778 3.21349 8.5667 1.0001 11.2667 1Z" fill="currentColor"/>
<path fill-rule="evenodd" clip-rule="evenodd" d="M18.3556 13.6067C20.9206 13.6067 23 15.7095 23 18.3034C23 20.8972 20.9206 23 18.3556 23C15.7905 23 13.7111 20.8972 13.7111 18.3034C13.7111 15.7095 15.7905 13.6067 18.3556 13.6067ZM18.1111 15.3371C17.7061 15.3371 17.3778 15.6691 17.3778 16.0787V18.5506C17.3778 18.7472 17.4551 18.9358 17.5926 19.0749L19.0593 20.558C19.3457 20.8476 19.8099 20.8476 20.0963 20.558C20.3827 20.2684 20.3827 19.799 20.0963 19.5094L18.8444 18.2435V16.0787C18.8444 15.6691 18.5161 15.3371 18.1111 15.3371Z" fill="currentColor"/>
</svg>
