<svg width="24" height="24" viewBox="0 0 24 24"  xmlns="http://www.w3.org/2000/svg">
<g clip-path="url(#clip0_865_6577)">
<path fill-rule="evenodd" clip-rule="evenodd" d="M1.29251 0.221759C0.996829 -0.0739197 0.517439 -0.0739197 0.221759 0.221759C-0.0739197 0.517439 -0.0739197 0.996829 0.221759 1.29251L22.7075 23.7782C23.0032 24.0739 23.4826 24.0739 23.7782 23.7782C24.0739 23.4826 24.0739 23.0032 23.7782 22.7075L22.3102 21.2395C22.446 21.0383 22.5638 20.8243 22.6617 20.5998C22.7312 20.4379 22.7339 20.2551 22.6692 20.0912C22.6045 19.9273 22.4777 19.7958 22.3164 19.7253C22.1551 19.6548 21.9725 19.6511 21.8086 19.7151C21.6446 19.779 21.5125 19.9053 21.4413 20.0664C21.4109 20.1361 21.3776 20.2044 21.3416 20.2709L17.7278 16.657C18.1172 16.4451 18.5545 16.3332 19.0001 16.3333C19.647 16.3321 20.2717 16.5694 20.755 17L19.6265 18.1207C19.6044 18.1428 19.5889 18.1708 19.5819 18.2013C19.5748 18.2318 19.5764 18.2637 19.5866 18.2933C19.5968 18.3232 19.6154 18.3494 19.64 18.369C19.6647 18.3886 19.6944 18.4008 19.7257 18.404L22.8149 18.7467H22.8336C22.8555 18.7469 22.8772 18.7427 22.8975 18.7344C22.9177 18.726 22.9361 18.7138 22.9516 18.6983C22.9671 18.6827 22.9794 18.6643 22.9877 18.644C22.996 18.6237 23.0002 18.6019 23 18.58V15.178C22.9999 15.1451 22.9902 15.1129 22.9719 15.0855C22.9537 15.0581 22.9278 15.0367 22.8975 15.024C22.8672 15.0114 22.8338 15.008 22.8016 15.0143C22.7694 15.0205 22.7397 15.0362 22.7164 15.0593L21.7037 16.0627C20.9699 15.3777 20.0033 14.9978 19.0001 15C18.2227 14.9999 17.4622 15.2269 16.8118 15.6532C16.7941 15.6648 16.7765 15.6765 16.7591 15.6883L12.5417 11.471C15.0484 11.2009 17 9.07838 17 6.5C17 3.73858 14.7614 1.5 12 1.5C9.42162 1.5 7.29907 3.45164 7.02901 5.95826L1.29251 0.221759ZM12 10C13.933 10 15.5 8.433 15.5 6.5C15.5 4.567 13.933 3 12 3C10.067 3 8.5 4.567 8.5 6.5C8.5 8.433 10.067 10 12 10Z" fill="currentColor"/>
<path d="M1.50455 21.5014C1.9609 16.9745 5.50303 13.673 10.0207 13.0915L11.4293 14.5C7.25816 14.5117 3.79438 17.0302 3.08729 21H11.8258C12.2401 21 12.5846 21.3358 12.5846 21.75C12.5846 22.1642 12.2401 22.5 11.8258 22.5H2.46656C1.90775 22.5 1.44914 22.0509 1.50455 21.5014ZM17.245 20.9998L17.5891 20.6598L16.3077 19.3785L15.1851 19.2531C15.1382 19.2491 15.0915 19.2637 15.0553 19.2938C15.0379 19.3095 15.0239 19.3287 15.0144 19.3502C15.0049 19.3717 15 19.3949 15 19.4184V22.8218C15.0001 22.8547 15.0098 22.8869 15.0281 22.9142C15.0463 22.9416 15.0722 22.963 15.1025 22.9758C15.1235 22.9849 15.1462 22.9893 15.1691 22.9884C15.2129 22.9884 15.255 22.9712 15.2863 22.9404L16.2989 21.9404C17.0326 22.6235 17.9981 23.0022 18.9999 22.9998C19.2836 22.9998 19.5651 22.9696 19.8397 22.9105L18.5594 21.6301C18.0736 21.5485 17.6173 21.3315 17.245 20.9998Z" fill="currentColor"/>
</g>
<defs>
<clipPath id="clip0_865_6577">
<rect width="24" height="24" fill="currentColor"/>
</clipPath>
</defs>
</svg>
