<svg width="24" height="24" viewBox="0 0 24 24"  xmlns="http://www.w3.org/2000/svg">
<path d="M6.92739 13.8822C7.30615 13.7584 7.51084 13.3567 7.38459 12.9851C7.25834 12.6135 6.84895 12.4127 6.4702 12.5366C3.88968 13.3805 2 15.2823 2 17.8902V21.5C2 22.0523 2.44772 22.5 3 22.5H21C21.5523 22.5 22 22.0523 22 21.5V17.8902C22 15.2823 20.1103 13.3805 17.5298 12.5366C17.151 12.4127 16.7417 12.6135 16.6154 12.9851C16.4892 13.3567 16.6939 13.7584 17.0726 13.8822C19.2632 14.5986 20.5542 16.0773 20.5542 17.8902V21.0816H3.44578V17.8902C3.44578 16.0773 4.73683 14.5986 6.92739 13.8822Z" fill="currentColor"/>
<path fill-rule="evenodd" clip-rule="evenodd" d="M12 11C14.2091 11 16 9.20914 16 7C16 4.79086 14.2091 3 12 3C9.79086 3 8 4.79086 8 7C8 9.20914 9.79086 11 12 11ZM12 12.5C15.0376 12.5 17.5 10.0376 17.5 7C17.5 3.96243 15.0376 1.5 12 1.5C8.96243 1.5 6.5 3.96243 6.5 7C6.5 10.0376 8.96243 12.5 12 12.5Z" fill="currentColor"/>
</svg>
