<svg width="24" height="24" viewBox="0 0 24 24"  xmlns="http://www.w3.org/2000/svg">
<path fill-rule="evenodd" clip-rule="evenodd" d="M12 10C13.933 10 15.5 8.433 15.5 6.5C15.5 4.567 13.933 3 12 3C10.067 3 8.5 4.567 8.5 6.5C8.5 8.433 10.067 10 12 10ZM12 11.5C14.7614 11.5 17 9.26142 17 6.5C17 3.73858 14.7614 1.5 12 1.5C9.23858 1.5 7 3.73858 7 6.5C7 9.26142 9.23858 11.5 12 11.5Z" fill="currentColor"/>
<path d="M11.4585 13C12.3289 13 13.1734 13.1111 13.9785 13.32C14.5271 13.4623 14.6719 14.1308 14.2732 14.5294C14.0659 14.7366 13.7601 14.8097 13.4738 14.7402C12.8278 14.5832 12.1529 14.5 11.4585 14.5C7.27433 14.5 3.79603 17.021 3.08729 21H11.8258C12.2401 21 12.5846 21.3358 12.5846 21.75C12.5846 22.1642 12.2401 22.5 11.8258 22.5H2.46656C1.90775 22.5 1.44914 22.0509 1.50455 21.5014C2.00833 16.5041 6.27259 13 11.4585 13Z" fill="currentColor"/>
<path fill-rule="evenodd" clip-rule="evenodd" d="M22.3333 17.4615V17.7385C22.7333 17.8769 23 18.2923 23 18.8462V21.6154C23 22.4462 22.4667 23 21.6667 23H16.3333C15.5333 23 15 22.4462 15 21.6154V18.8462C15 18.2923 15.2667 17.8769 15.6667 17.7385V17.4615C15.6667 15.5231 17.1333 14 19 14C20.8667 14 22.3333 15.5231 22.3333 17.4615ZM21 17.5C21 16.3923 20.0667 15.5 19 15.5C17.9333 15.5 17 16.3923 17 17.5H21ZM16.5 19V21.5H21.5V19H16.5Z" fill="currentColor"/>
</svg>
