<svg width="24" height="24" viewBox="0 0 24 24"  xmlns="http://www.w3.org/2000/svg">
<path d="M12 11.5C14.7614 11.5 17 9.26142 17 6.5C17 3.73858 14.7614 1.5 12 1.5C9.23858 1.5 7 3.73858 7 6.5C7 9.26142 9.23858 11.5 12 11.5ZM16.0214 13.7904C14.2162 14.8247 13 16.7703 13 19C13 20.3062 13.4174 21.5149 14.126 22.5H2.43911C1.84507 22.5 1.3844 21.9632 1.52569 21.3747C2.67972 16.5672 6.93149 13 12 13C13.4215 13 14.7787 13.2806 16.0214 13.7904Z" fill="currentColor"/>
<path fill-rule="evenodd" clip-rule="evenodd" d="M22 17C22.5523 17 23 17.4477 23 18V22C23 22.5523 22.5523 23 22 23H16C15.4477 23 15 22.5523 15 22V18C15 17.4477 15.4477 17 16 17C16 15.3431 17.3431 14 19 14C20.6569 14 22 15.3431 22 17ZM17.5 17H20.5C20.5 16.1716 19.8284 15.5 19 15.5C18.1716 15.5 17.5 16.1716 17.5 17Z" fill="currentColor"/>
</svg>
