<svg width="24" height="24" viewBox="0 0 24 24"  xmlns="http://www.w3.org/2000/svg">
<g clip-path="url(#clip0_865_4476)">
<path fill-rule="evenodd" clip-rule="evenodd" d="M0 0.75C0 0.335787 0.335787 0 0.75 0H15C15.3154 0 15.597 0.197301 15.7049 0.493692L18.5741 8.384L23.4561 9.77886C23.778 9.87086 24 10.1651 24 10.5V20.25C24 20.6642 23.6642 21 23.25 21H17.25C16.8358 21 16.5 20.6642 16.5 20.25C16.5 19.8358 16.8358 19.5 17.25 19.5H22.5V11.0657L17.7939 9.72114C17.5627 9.6551 17.3773 9.48223 17.2952 9.2563L14.4747 1.5H1.5V19.5H3.75C4.16421 19.5 4.5 19.8358 4.5 20.25C4.5 20.6642 4.16421 21 3.75 21H0.75C0.335787 21 0 20.6642 0 20.25V0.75ZM10.5 16.5C8.84315 16.5 7.5 17.8431 7.5 19.5C7.5 21.1569 8.84315 22.5 10.5 22.5C12.1569 22.5 13.5 21.1569 13.5 19.5C13.5 17.8431 12.1569 16.5 10.5 16.5ZM6 19.5C6 17.0147 8.01472 15 10.5 15C12.9853 15 15 17.0147 15 19.5C15 21.9853 12.9853 24 10.5 24C8.01472 24 6 21.9853 6 19.5ZM9 3.75C9 3.33579 8.66421 3 8.25 3C7.83579 3 7.5 3.33579 7.5 3.75V9.75C7.5 10.1642 7.83579 10.5 8.25 10.5H14.25C14.6642 10.5 15 10.1642 15 9.75C15 9.33579 14.6642 9 14.25 9H9V3.75Z" fill="currentColor"/>
</g>
<defs>
<clipPath id="clip0_865_4476">
<rect width="24" height="24" fill="currentColor"/>
</clipPath>
</defs>
</svg>
