<svg width="24" height="24" viewBox="0 0 24 24"  xmlns="http://www.w3.org/2000/svg">
<g clip-path="url(#clip0_865_4483)">
<path d="M7.5 4.5H10.5V7.5H13.5V10.5H9C8.1 10.5 7.5 9.9 7.5 9V4.5Z" fill="currentColor"/>
<path fill-rule="evenodd" clip-rule="evenodd" d="M19.05 7.8L22.95 9.15C23.55 9.3 24 9.9 24 10.5V19.5C24 20.4 23.4 21 22.5 21H16.5C16.425 21 16.35 20.9625 16.275 20.925C16.2 20.8875 16.125 20.85 16.05 20.85C15.15 22.8 13.35 24 11.25 24C9.15 24 7.35 22.8 6.45 21H1.5C0.6 21 0 20.4 0 19.5V1.5C0 0.6 0.6 0 1.5 0H15C15.6 0 16.2 0.3 16.35 0.9L19.05 7.8ZM16.5 18H21V11.55L17.4 10.5C16.95 10.35 16.65 10.05 16.5 9.6L13.95 3H3V18H6.15C6.45 15.45 8.55 13.5 11.25 13.5C13.95 13.5 16.2 15.45 16.5 18Z" fill="currentColor"/>
</g>
<defs>
<clipPath id="clip0_865_4483">
<rect width="24" height="24" fill="currentColor"/>
</clipPath>
</defs>
</svg>
