<svg width="24" height="24" viewBox="0 0 24 24" fill="none" xmlns="http://www.w3.org/2000/svg">
<path fill-rule="evenodd" clip-rule="evenodd" d="M3.40943 2.46629C5.85057 0.236571 9.85743 0 12.4289 0C15.0003 0 19.0066 0.236571 21.4477 2.46571C23.1734 4.184 23.8569 6.59429 23.8569 9.71371C23.8569 9.77681 23.8569 9.8416 23.857 9.90801C23.8572 10.1141 23.8574 10.3358 23.8557 10.5709C23.8574 10.806 23.8572 11.0281 23.857 11.2341C23.8569 11.3004 23.8569 11.3651 23.8569 11.428C23.8569 14.5474 23.1729 16.9583 21.4477 18.676C19.006 20.9057 14.9997 21.1429 12.4283 21.1429C11.8511 21.1429 11.1974 21.1269 10.5094 21.0829C9.354 22.3777 8.29172 23.5617 8.19972 23.6434C7.95514 23.8606 7.71114 23.9989 7.42886 24H7.42371C7.314 24 6.71457 23.9834 6.71457 23.0714V20.4509C5.49743 20.0829 4.33857 19.5246 3.40943 18.676C1.68371 16.9577 1.00029 14.5474 1.00029 11.428C1.00029 11.3651 1.00022 11.3004 1.00015 11.2341C0.999932 11.0281 0.9997 10.8061 1.00143 10.5714C0.9997 10.3363 0.999932 10.1142 1.00015 9.90821C1.00022 9.84187 1.00029 9.7772 1.00029 9.71429C1.00029 6.59486 1.68371 4.18457 3.40943 2.46629ZM22.1431 11.428V11.2291C22.1431 11.0287 22.1431 10.8123 22.1414 10.5834C22.1428 10.38 22.1427 10.2001 22.1426 10.0332C22.1426 9.99249 22.1426 9.95251 22.1426 9.91314V9.71429C22.1426 6.91086 21.546 5.00057 20.2649 3.70743C18.0471 1.71371 13.8214 1.71371 12.4289 1.71371C11.0363 1.71371 6.81 1.71371 4.59229 3.70743C3.31171 5.00057 2.71457 6.91086 2.71457 9.71429V9.91314C2.714 10.1143 2.714 10.3303 2.71571 10.5589C2.71434 10.7623 2.71444 10.9422 2.71453 11.1091C2.71455 11.1498 2.71457 11.1898 2.71457 11.2291V11.428C2.71457 14.2314 3.31171 16.1417 4.59229 17.4354C5.46714 18.2211 6.65514 18.6943 7.85743 18.9829V22.3331C7.85743 22.3331 10.2786 19.6251 10.5043 19.3714C11.3163 19.428 12.0043 19.4286 12.4283 19.4286C13.8214 19.4286 18.0471 19.4286 20.2654 17.4349C21.546 16.1417 22.1431 14.2314 22.1431 11.428ZM17.8294 14.2023C17.2468 13.7115 16.952 13.5349 16.23 13.1024L16.0249 12.9794C15.6597 12.7606 15.1031 12.5714 14.8111 12.5714C14.6117 12.5714 14.3729 12.724 14.2266 12.8703C14.1268 12.97 14.0449 13.0764 13.9661 13.1789C13.7485 13.4616 13.554 13.7143 13.0717 13.7143C12.4289 13.7143 11.306 13.06 10.5003 12.2143C9.65457 11.4086 9.00029 10.2857 9.00029 9.64286C9.00029 9.15636 9.25271 8.95799 9.53591 8.73545C9.63525 8.65739 9.73837 8.57635 9.83571 8.47886C9.982 8.33314 10.1431 8.09429 10.1431 7.89486C10.1431 7.60286 9.954 7.05486 9.73514 6.68971L9.60969 6.48029C9.17912 5.76087 9.00269 5.46609 8.51229 4.88514C8.33114 4.67029 8.12486 4.572 7.90886 4.57143C7.54371 4.57086 7.06429 4.752 6.73971 4.99371C6.25171 5.35771 5.74143 5.85314 5.60486 6.47029C5.58657 6.55429 5.57571 6.63886 5.57229 6.72343C5.546 7.36629 5.79857 8.01886 6.07114 8.57143C6.71286 9.87371 7.562 11.1343 8.486 12.26C8.78143 12.62 9.10314 12.9549 9.43629 13.2783C9.75972 13.6109 10.0946 13.9326 10.4546 14.2286C11.5803 15.1526 12.8409 16.0017 14.1431 16.6434C14.6906 16.9131 15.3351 17.1611 15.9717 17.1429C16.0626 17.14 16.1534 17.1297 16.2443 17.1097C16.8614 16.9737 17.3569 16.4629 17.7209 15.9749C17.9626 15.6503 18.1437 15.1714 18.1431 14.8057C18.1426 14.5897 18.0443 14.3834 17.8294 14.2023ZM18.1431 11.4286C17.8277 11.4286 17.5717 11.1726 17.5717 10.8571V10.2857C17.5717 7.45029 15.2643 5.14286 12.4289 5.14286C12.1134 5.14286 11.8574 4.88686 11.8574 4.57143C11.8574 4.256 12.1134 4 12.4289 4C15.8946 4 18.7146 6.82 18.7146 10.2857V10.8571C18.7146 11.1726 18.4586 11.4286 18.1431 11.4286ZM14.6334 10.2857C14.3797 10.2857 14.1477 10.1154 14.0809 9.85829C13.9243 9.25772 13.4557 8.78857 12.8574 8.63429C12.5517 8.55486 12.3683 8.24343 12.4471 7.93772C12.526 7.63257 12.8369 7.44914 13.1437 7.52743C14.1426 7.78629 14.9254 8.56857 15.1866 9.56971C15.266 9.87543 15.0831 10.1869 14.778 10.2669C14.7294 10.2794 14.6809 10.2857 14.6334 10.2857ZM16.4289 10.8572C16.1134 10.8572 15.8574 10.6012 15.8574 10.2858C15.8574 8.46407 14.4323 6.96121 12.6129 6.86521C12.2974 6.84864 12.0557 6.5795 12.0723 6.26464C12.0889 5.94921 12.3626 5.70693 12.6729 5.72407C15.0997 5.85207 17.0003 7.85607 17.0003 10.2858C17.0003 10.6012 16.7443 10.8572 16.4289 10.8572Z" fill="#7E57C2"/>
</svg>
