<svg width="24" height="24" viewBox="0 0 24 24"  xmlns="http://www.w3.org/2000/svg">
<g clip-path="url(#clip0_865_7058)">
<path d="M17.6146 22.2346C21.4062 20.2774 24 16.4136 24 11.9647C24 11.5511 23.6667 11.2182 23.2292 11.2182C22.7917 11.2182 22.4479 11.5612 22.4479 11.9748C22.4479 15.6873 20.3646 18.9357 17.2708 20.691L17.3021 20.8121C17.4688 21.2661 17.5625 21.7503 17.6146 22.2346ZM6.94792 17.3014C6.95833 17.372 6.96875 17.4426 6.95833 17.5132C6.88542 17.9269 6.48958 18.2093 6.07292 18.1488L3.4375 17.7453C4.29167 18.976 5.42708 19.9748 6.72917 20.7112C6.72396 20.7264 6.72135 20.7415 6.71875 20.7566C6.71615 20.7718 6.71354 20.7869 6.70833 20.802C6.53125 21.2762 6.4375 21.7705 6.38542 22.2648C4.8125 21.4678 3.44792 20.3178 2.38542 18.9054L2.09375 21.024C2.04167 21.4073 1.70833 21.6797 1.32292 21.6797C1.30729 21.6797 1.28906 21.6772 1.27083 21.6747C1.2526 21.6721 1.23437 21.6696 1.21875 21.6696C0.791667 21.6192 0.489583 21.2358 0.552083 20.8222L1.13542 16.6456C1.15625 16.4439 1.27083 16.2623 1.4375 16.1412C1.60417 16.0202 1.8125 15.9697 2.02083 16L6.3125 16.6557C6.625 16.7062 6.85417 16.9281 6.9375 17.2005C6.9375 17.2156 6.9401 17.2333 6.94271 17.2509C6.94531 17.2686 6.94792 17.2863 6.94792 17.3014ZM8.63542 2.39092C4.52083 3.75284 1.55208 7.52585 1.55208 11.9647C1.55208 12.3783 1.21875 12.7213 0.78125 12.7213C0.34375 12.7213 0 12.3783 0 11.9647C0 6.68852 3.65625 2.22951 8.63542 0.81715V2.39092ZM22.1042 7.93947C22.0625 7.93947 22.0208 7.93947 21.9792 7.92938L17.6979 7.27364C17.2708 7.21311 16.9896 6.82976 17.0521 6.41614C17.1146 6.00252 17.5 5.73014 17.9375 5.79067L20.5729 6.1942C19.3125 4.3884 17.4792 3.08701 15.3646 2.40101V0.796973C17.8958 1.49306 20.0833 2.96595 21.625 5.02396L21.9167 2.90542C21.9688 2.4918 22.3542 2.19924 22.7917 2.25977C23.2187 2.31021 23.5208 2.69357 23.4583 3.10719L22.875 7.28373C22.8542 7.4855 22.7396 7.66709 22.5729 7.78815C22.4375 7.88903 22.2708 7.93947 22.1042 7.93947Z" fill="currentColor"/>
<path fill-rule="evenodd" clip-rule="evenodd" d="M15.3647 18.8146C15.3751 18.0479 15.448 17.3115 15.5626 16.5952C15.7917 15.0618 15.9063 13.488 15.8959 11.9344C15.8959 9.68787 15.107 7.45111 14.5259 5.80323L14.5001 5.73014C14.1667 4.95334 13.9272 4.10593 13.7917 3.23834L13.8022 3.12736V0.393443C13.8022 0.181589 13.6251 0 13.3959 0H10.6147C10.3855 0 10.2084 0.171501 10.2084 0.393443V3.23834C10.0626 4.09584 9.823 4.94325 9.47925 5.75031L9.46497 5.79054C8.89293 7.40203 8.09383 9.65318 8.09383 11.9142C8.08342 13.4779 8.198 15.0517 8.43758 16.5952C8.55217 17.3115 8.62508 18.0479 8.6355 18.7844C8.62508 19.662 8.46883 20.4994 8.18758 21.3064C8.18237 21.3165 8.17977 21.3266 8.17717 21.3367C8.17456 21.3468 8.17196 21.3569 8.16675 21.367C8.02092 21.7705 7.93758 22.1841 7.91675 22.5977C7.91675 22.7087 7.92717 22.8096 7.948 22.9105C8.073 23.5057 8.60425 23.9697 9.2605 24H14.7709C15.4167 23.9697 15.948 23.4956 16.0626 22.8802C16.0834 22.7894 16.0938 22.6885 16.0834 22.5876C16.0626 22.174 15.9792 21.7503 15.8334 21.3569C15.8334 21.3468 15.8334 21.3266 15.823 21.3165C15.5313 20.4994 15.3855 19.662 15.3647 18.8146ZM14.3334 21.6259V21.5964C14.0364 20.6922 13.8878 19.7724 13.8651 18.8515L13.8644 18.8229L13.8648 18.7943C13.8763 17.9477 13.9566 17.1408 14.0802 16.3661C14.2974 14.91 14.4058 13.4162 14.3959 11.9445V11.9344C14.3959 9.97181 13.6968 7.96317 13.1014 6.27412C12.7265 5.38908 12.4606 4.43678 12.3097 3.46966L12.2808 3.28461L12.3022 3.05712V1.5H11.7084V3.36498L11.6872 3.48983C11.5259 4.4379 11.2612 5.38399 10.8779 6.29414C10.2933 7.94099 9.59383 9.95256 9.59383 11.9142L9.5938 11.9242C9.58392 13.4075 9.69257 14.8998 9.91932 16.3618C10.043 17.1362 10.1238 17.9443 10.1353 18.7631L10.1356 18.7827L10.1354 18.8022C10.123 19.847 9.93698 20.8415 9.60747 21.7902L9.60045 21.8125C9.59177 21.8394 9.58082 21.871 9.56701 21.9062C9.49767 22.1046 9.45226 22.3033 9.42931 22.5H14.5721C14.5482 22.2852 14.4989 22.0723 14.4269 21.8782L14.3334 21.6259ZM14.3334 21.3749V21.3569C14.3334 21.3547 14.3333 21.3556 14.3333 21.3591C14.3333 21.3623 14.3333 21.3677 14.3334 21.3749Z" fill="currentColor"/>
</g>
<defs>
<clipPath id="clip0_865_7058">
<rect width="24" height="24" fill="currentColor"/>
</clipPath>
</defs>
</svg>
