<svg width="24" height="24" viewBox="0 0 24 24"  xmlns="http://www.w3.org/2000/svg">
<g clip-path="url(#clip0_865_7052)">
<path d="M16.0416 1H2C0.895431 1 0 1.89543 0 3V17.5C0 18.6046 0.89543 19.5 2 19.5H22C23.1046 19.5 24 18.6046 24 17.5V6.95841L21 9.9584V16.5H3V4H13.0416L16.0416 1ZM18 21C18.9 21 19.5 21.6 19.5 22.5C19.5 23.4 18.9 24 18 24H6C5.1 24 4.5 23.4 4.5 22.5C4.5 21.6 5.1 21 6 21H18Z" fill="currentColor"/>
<path fill-rule="evenodd" clip-rule="evenodd" d="M19.3797 0.192211C19.636 -0.0640703 20.0515 -0.0640703 20.3078 0.192211L23.8078 3.69221C24.0641 3.94849 24.0641 4.364 23.8078 4.62029L15.9328 12.4953C15.8412 12.5869 15.7245 12.6493 15.5975 12.6747L10.785 13.9872C10.5698 14.0303 10.3474 13.9629 10.1922 13.8078C10.0371 13.6526 9.96972 13.4302 10.0128 13.215L11.3253 8.40254C11.3507 8.2755 11.4131 8.15882 11.5047 8.06721L19.3797 0.192211Z" fill="currentColor"/>
</g>
<defs>
<clipPath id="clip0_865_7052">
<rect width="24" height="24" fill="currentColor"/>
</clipPath>
</defs>
</svg>
