<svg width="24" height="24" viewBox="0 0 24 24"  xmlns="http://www.w3.org/2000/svg">
<path d="M16.1383 4.42222C15.8021 4.03793 15.305 3.79427 14.7497 3.79427L2.83333 3.79357C1.8209 3.79357 1.00011 4.60273 1 5.60023V18.2447C1.00004 18.6773 1.15487 19.0739 1.41224 19.3849L16.1383 4.42222Z" fill="currentColor"/>
<path d="M23 7.17044C22.9999 6.85104 22.6719 6.63295 22.3709 6.75158L16.583 9.03183V6.12574L2.87822 20.0507H14.7497C15.7622 20.0507 16.583 19.2417 16.583 18.244V14.8131L22.3709 17.0934C22.6719 17.212 22.9999 16.9939 23 16.6745V7.17044Z" fill="currentColor"/>
<path d="M22.4692 2.30088C22.7621 2.00328 22.7621 1.52079 22.4692 1.22319C22.1763 0.925602 21.7015 0.925602 21.4086 1.22319L1.25641 21.6991C0.963526 21.9967 0.963526 22.4792 1.25641 22.7768C1.5493 23.0744 2.02417 23.0744 2.31705 22.7768L22.4692 2.30088Z" fill="currentColor"/>
</svg>
