<svg width="24" height="24" viewBox="0 0 24 24"  xmlns="http://www.w3.org/2000/svg">
<g clip-path="url(#clip0_865_7021)">
<path fill-rule="evenodd" clip-rule="evenodd" d="M0.229699 0.233123C-0.0801637 0.547601 -0.0759977 1.06171 0.239003 1.38141L22.2858 23.7574C22.6008 24.0771 23.1074 24.0814 23.4172 23.7669C23.7271 23.4524 23.7229 22.9384 23.4079 22.6187L1.36102 0.242566C1.04602 -0.077131 0.539561 -0.0813584 0.229699 0.233123Z" fill="currentColor"/>
<path d="M17.2116 16.3301V18.6379C17.2115 19.7579 16.3435 20.6657 15.2725 20.6657H2.66568C1.59478 20.6655 0.726693 19.7577 0.726572 18.6379V4.44099C0.726692 3.32115 1.59478 2.41335 2.66568 2.41316H3.49938L17.2116 16.3301Z" fill="currentColor"/>
<path d="M15.2725 2.41316C16.3435 2.41316 17.2115 3.32103 17.2116 4.44099V8.29428L23.3347 5.73381C23.6531 5.60059 24 5.84589 24 6.20459V16.8743C24 17.2329 23.6531 17.4783 23.3347 17.3451L18.4378 15.2973L5.74325 2.41316H15.2725Z" fill="currentColor"/>
</g>
<defs>
<clipPath id="clip0_865_7021">
<rect width="24" height="24" fill="currentColor"/>
</clipPath>
</defs>
</svg>
