<svg width="24" height="24" viewBox="0 0 24 24"  xmlns="http://www.w3.org/2000/svg">
<path d="M14.25 6.75C15.9069 6.75 17.25 5.40685 17.25 3.75C17.25 2.09315 15.9069 0.75 14.25 0.75C12.5931 0.75 11.25 2.09315 11.25 3.75C11.25 5.40685 12.5931 6.75 14.25 6.75Z" fill="currentColor"/>
<path fill-rule="evenodd" clip-rule="evenodd" d="M2.25 3H9V4.5H2.25C1.83621 4.5 1.5 4.83621 1.5 5.25V18.75C1.5 19.1638 1.83621 19.5 2.25 19.5H14.25C14.6638 19.5 15 19.1638 15 18.75V14.267C14.9997 14.2555 14.9997 14.244 15 14.2325V9.76747C14.9997 9.75596 14.9997 9.74446 15 9.73299V9.225L16.5 8.625V8.64223L22.9715 6.05364C23.2025 5.96122 23.4644 5.98943 23.6705 6.12895C23.8766 6.26847 24 6.50113 24 6.75V17.25C24 17.4989 23.8766 17.7315 23.6705 17.8711C23.4644 18.0106 23.2025 18.0388 22.9715 17.9464L16.5 15.3578V18.75C16.5 19.9922 15.4922 21 14.25 21H2.25C1.00779 21 0 19.9922 0 18.75V5.25C0 4.00779 1.00779 3 2.25 3ZM16.5 13.7422L22.5 16.1422V7.85777L16.5 10.2578V13.7422Z" fill="currentColor"/>
</svg>
