<svg width="24" height="24" viewBox="0 0 24 24"  xmlns="http://www.w3.org/2000/svg">
<path fill-rule="evenodd" clip-rule="evenodd" d="M16.5833 15.3333V18.6111C16.5833 19.6543 15.7626 20.5 14.75 20.5H2.83333C1.82081 20.5 1 19.6543 1 18.6111V5.38889C1 4.34568 1.82081 3.5 2.83333 3.5H14.75C15.7626 3.5 16.5833 4.34568 16.5833 5.38889V8.6667L21.7783 6.77764C22.3747 6.56076 23 7.01662 23 7.66824V16.3318C23 16.9835 22.3747 17.4393 21.7783 17.2224L16.5833 15.3333ZM2.83333 4.91667H14.75C15.0031 4.91667 15.2083 5.12809 15.2083 5.38889V18.6111C15.2083 18.8719 15.0031 19.0833 14.75 19.0833H2.83333C2.58021 19.0833 2.375 18.8719 2.375 18.6111V5.38889C2.375 5.12809 2.58021 4.91667 2.83333 4.91667ZM16.5833 13.8311L21.625 15.6643V8.33568L16.5833 10.169V13.8311Z" fill="currentColor"/>
</svg>
