<svg width="24" height="24" viewBox="0 0 24 24"  xmlns="http://www.w3.org/2000/svg">
<path d="M16.1388 4.42229C15.8026 4.03796 15.3055 3.79439 14.7501 3.79435H2.8327C1.8204 3.79457 1.00007 4.6029 1 5.60031V18.2448C1.00006 18.6774 1.15482 19.074 1.41225 19.3849L2.39904 18.3823C2.38477 18.3387 2.37487 18.2924 2.37487 18.2441V5.60101C2.37487 5.35161 2.58026 5.14917 2.83339 5.14917L14.7501 5.14847C14.9344 5.14852 15.0931 5.25626 15.1658 5.41087L16.1388 4.42229Z" fill="currentColor"/>
<path fill-rule="evenodd" clip-rule="evenodd" d="M23 7.78022C23 7.15709 22.3741 6.72107 21.7777 6.92846L16.5835 8.73442V6.12581L15.2086 7.52273V18.2448C15.2085 18.494 15.003 18.6966 14.7501 18.6966L4.21171 18.6959L2.87828 20.0508H14.7501C15.7626 20.0507 16.5835 19.2417 16.5835 18.2441L16.5828 15.11L21.7777 16.9167C22.3741 17.1241 23 16.6881 23 16.0649V7.78022ZM21.6251 15.4271L16.5835 13.6738V10.1713L21.6251 8.41799V15.4271Z" fill="currentColor"/>
<path d="M22.4697 2.30088C22.7626 2.00328 22.7626 1.52079 22.4697 1.22319C22.1768 0.925602 21.7019 0.925602 21.409 1.22319L1.25623 21.6991C0.963336 21.9967 0.963337 22.4792 1.25623 22.7768C1.54913 23.0744 2.02401 23.0744 2.31691 22.7768L22.4697 2.30088Z" fill="currentColor"/>
</svg>
