<svg width="24" height="24" viewBox="0 0 24 24"  xmlns="http://www.w3.org/2000/svg">
<g clip-path="url(#clip0_865_7064)">
<path d="M8.92651 4.0727V0.915163C4.79072 2.05917 1.59218 5.45559 0.72998 9.70149L3.66998 10.2985C4.25013 7.44153 6.26382 5.10573 8.92651 4.0727ZM15.0841 4.19902C15.387 4.31853 15.6902 4.4518 15.9885 4.59761C16.6776 4.93446 17.2921 5.31533 17.7725 5.70097C18.1381 5.99451 18.3832 6.25651 18.5332 6.46678L17 8L23 9L22 3L20.6676 4.33244C20.3612 3.97534 20.0112 3.65108 19.6505 3.36153C18.9631 2.80967 18.1512 2.31554 17.306 1.90239C16.6064 1.56042 15.85 1.25761 15.0841 1.02169V4.19902ZM17.0626 18.8286C18.7142 17.6022 19.9057 15.7911 20.3301 13.7017L23.2701 14.2988C22.613 17.5337 20.5993 20.2761 17.8479 21.9044C17.7903 21.6455 17.7167 21.39 17.6268 21.1425C17.6268 21.1274 17.6268 21.0971 17.6115 21.082C17.3525 20.3408 17.1718 19.5885 17.0626 18.8286ZM6.99827 16.0017L5.52057 17.4794C5.88878 17.8726 6.38035 18.2828 6.95856 18.6724C6.85288 19.492 6.66324 20.2888 6.39776 21.0668C6.39011 21.082 6.38629 21.0971 6.38246 21.1122C6.37864 21.1274 6.37481 21.1425 6.36716 21.1576C6.3005 21.346 6.24272 21.5359 6.19384 21.7268C5.14821 21.1277 4.16285 20.3992 3.39859 19.6014L2 21L1 15L6.99812 15.9997L6.99827 16.0017ZM15.2923 18.8146C15.3127 19.662 15.4555 20.4994 15.741 21.3165C15.7512 21.3266 15.7512 21.3468 15.7512 21.3569C15.894 21.7503 15.9756 22.174 15.996 22.5876C16.0062 22.6885 15.996 22.7894 15.9756 22.8802C15.8634 23.4956 15.3433 23.9697 14.7109 24H9.31567C8.67313 23.9697 8.15299 23.5057 8.0306 22.9105C8.0102 22.8096 8 22.7087 8 22.5977C8.0204 22.1841 8.10199 21.7705 8.24478 21.367C8.25498 21.3468 8.25497 21.3266 8.26517 21.3064C8.54055 20.4994 8.69353 19.662 8.70373 18.7844C8.69353 18.0479 8.62214 17.3115 8.50995 16.5952C8.27537 15.0517 8.16318 13.4779 8.17338 11.9142C8.17338 9.65318 8.95579 7.40202 9.51587 5.79054L9.52985 5.75031C9.86641 4.94325 10.101 4.09584 10.2438 3.23834V0.393443C10.2438 0.171501 10.4172 0 10.6415 0H13.3647C13.589 0 13.7624 0.181589 13.7624 0.393443V3.12736L13.7522 3.23834C13.8848 4.10593 14.1194 4.95334 14.4458 5.73014C15.0169 7.38461 15.8124 9.65448 15.8124 11.9344C15.8226 13.488 15.7104 15.0618 15.486 16.5952C15.3739 17.3115 15.3025 18.0479 15.2923 18.8146Z" fill="currentColor"/>
</g>
<defs>
<clipPath id="clip0_865_7064">
<rect width="24" height="24" fill="currentColor"/>
</clipPath>
</defs>
</svg>
