<svg width="24" height="24" viewBox="0 0 24 24"  xmlns="http://www.w3.org/2000/svg">
<g clip-path="url(#clip0_865_7015)">
<path fill-rule="evenodd" clip-rule="evenodd" d="M0.229699 0.233123C-0.0801637 0.547601 -0.0759977 1.06171 0.239003 1.38141L22.2858 23.7574C22.6008 24.0771 23.1074 24.0814 23.4172 23.7669C23.7271 23.4524 23.7229 22.9384 23.4079 22.6187L1.36102 0.242566C1.04602 -0.077131 0.539561 -0.0813584 0.229699 0.233123Z" fill="currentColor"/>
<path d="M4.99839 3.93455H2.66568C2.39813 3.93475 2.18128 4.1612 2.18116 4.44099V18.6379C2.18128 18.9176 2.39813 19.1441 2.66568 19.1443H15.2725C15.5401 19.1443 15.7569 18.9177 15.757 18.6379V14.8538L17.2116 16.3301V18.6379C17.2115 19.7579 16.3435 20.6657 15.2725 20.6657H2.66568C1.59478 20.6655 0.726693 19.7577 0.726572 18.6379V4.44099C0.726692 3.32115 1.59478 2.41335 2.66568 2.41316H3.49938L4.99839 3.93455Z" fill="currentColor"/>
<path fill-rule="evenodd" clip-rule="evenodd" d="M15.2725 2.41316C16.3435 2.41316 17.2115 3.32103 17.2116 4.44099V7.96085L22.7076 5.93198C23.3384 5.69929 23.9998 6.1888 24 6.88822V16.1906C23.9998 16.8901 23.3384 17.3797 22.7076 17.1469L18.8604 15.7262L15.757 12.5764V4.44099C15.7569 4.16108 15.5401 3.93455 15.2725 3.93455H7.24226L5.74325 2.41316H15.2725ZM17.2116 9.57347V13.5054L22.5454 15.4735V7.6054L17.2116 9.57347Z" fill="currentColor"/>
</g>
<defs>
<clipPath id="clip0_865_7015">
<rect width="24" height="24" fill="currentColor"/>
</clipPath>
</defs>
</svg>
