<svg width="24" height="24" viewBox="0 0 24 24"  xmlns="http://www.w3.org/2000/svg">
<path d="M17.25 21.5H6.75C6.3 21.5 6 21.8 6 22.25C6 22.7 6.3 23 6.75 23H17.25C17.7 23 18 22.7 18 22.25C18 21.8 17.7 21.5 17.25 21.5Z" fill="currentColor"/>
<path fill-rule="evenodd" clip-rule="evenodd" d="M22 2.5H2C1.72386 2.5 1.5 2.72386 1.5 3V18C1.5 18.2761 1.72386 18.5 2 18.5H22C22.2761 18.5 22.5 18.2761 22.5 18V3C22.5 2.72386 22.2761 2.5 22 2.5ZM2 1C0.895431 1 0 1.89543 0 3V18C0 19.1046 0.89543 20 2 20H22C23.1046 20 24 19.1046 24 18V3C24 1.89543 23.1046 1 22 1H2ZM12 4C10.3431 4 9 5.34315 9 7C9 8.65685 10.3431 10 12 10C13.6569 10 15 8.65685 15 7C15 5.34315 13.6569 4 12 4ZM10.5 7C10.5 6.17157 11.1716 5.5 12 5.5C12.8284 5.5 13.5 6.17157 13.5 7C13.5 7.82843 12.8284 8.5 12 8.5C11.1716 8.5 10.5 7.82843 10.5 7ZM7.53769 13.0377C8.52225 12.0531 9.85761 11.5 11.25 11.5H12.75C14.1424 11.5 15.4777 12.0531 16.4623 13.0377C17.4469 14.0223 18 15.3576 18 16.75C18 17.1642 17.6642 17.5 17.25 17.5H6.75C6.33579 17.5 6 17.1642 6 16.75C6 15.3576 6.55312 14.0223 7.53769 13.0377ZM11.25 13C10.2554 13 9.30161 13.3951 8.59835 14.0983C8.07456 14.6221 7.72173 15.2849 7.57575 16H16.4242C16.2783 15.2849 15.9254 14.6221 15.4017 14.0983C14.6984 13.3951 13.7446 13 12.75 13H11.25Z" fill="currentColor"/>
</svg>
