<svg width="24" height="24" viewBox="0 0 24 24"  xmlns="http://www.w3.org/2000/svg">
<path fill-rule="evenodd" clip-rule="evenodd" d="M12 7.5C10.3431 7.5 9 8.84315 9 10.5C9 12.1569 10.3431 13.5 12 13.5C13.6569 13.5 15 12.1569 15 10.5C15 8.84315 13.6569 7.5 12 7.5ZM10.5 10.5C10.5 9.67157 11.1716 9 12 9C12.8284 9 13.5 9.67157 13.5 10.5C13.5 11.3284 12.8284 12 12 12C11.1716 12 10.5 11.3284 10.5 10.5ZM6.99087 6.17974C8.30358 5.13924 10.0066 4.25 12 4.25C13.9934 4.25 15.6964 5.13924 17.0091 6.17974C18.3234 7.22147 19.3001 8.45627 19.8593 9.25399L19.8613 9.25681C20.1143 9.62126 20.25 10.0553 20.25 10.5C20.25 10.9447 20.1143 11.3787 19.8613 11.7432L19.8593 11.746C19.3001 12.5437 18.3234 13.7785 17.0091 14.8203C15.6964 15.8608 13.9934 16.75 12 16.75C10.0066 16.75 8.30358 15.8608 6.99087 14.8203C5.6766 13.7785 4.6999 12.5437 4.14066 11.746L4.13869 11.7432C3.88569 11.3787 3.75 10.9447 3.75 10.5C3.75 10.0553 3.88569 9.62126 4.13869 9.25682L4.14066 9.25399C4.6999 8.45627 5.6766 7.22147 6.99087 6.17974ZM5.35784 10.1177C5.28033 10.2299 5.23876 10.3633 5.23876 10.5C5.23876 10.6367 5.28033 10.7701 5.35784 10.8823C5.87211 11.6156 6.75299 12.7232 7.91136 13.6413C9.07217 14.5614 10.4581 15.25 12 15.25C13.5419 15.25 14.9278 14.5614 16.0886 13.6413C17.247 12.7232 18.1279 11.6156 18.6422 10.8822C18.7197 10.7701 18.7612 10.6367 18.7612 10.5C18.7612 10.3633 18.7197 10.2299 18.6422 10.1178C18.1279 9.3844 17.247 8.27683 16.0886 7.35865C14.9278 6.43857 13.5419 5.75 12 5.75C10.4581 5.75 9.07217 6.43857 7.91136 7.35865C6.753 8.27681 5.87211 9.38436 5.35784 10.1177ZM2 1C0.895431 1 0 1.89543 0 3V18C0 19.1046 0.89543 20 2 20H22C23.1046 20 24 19.1046 24 18V3C24 1.89543 23.1046 1 22 1H2ZM22 2.5H2C1.72386 2.5 1.5 2.72386 1.5 3V18C1.5 18.2761 1.72386 18.5 2 18.5H22C22.2761 18.5 22.5 18.2761 22.5 18V3C22.5 2.72386 22.2761 2.5 22 2.5Z" fill="currentColor"/>
<path d="M6.75 21.5C6.3 21.5 6 21.8 6 22.25C6 22.7 6.3 23 6.75 23H17.25C17.7 23 18 22.7 18 22.25C18 21.8 17.7 21.5 17.25 21.5H6.75Z" fill="currentColor"/>
</svg>
