<svg width="24" height="24" viewBox="0 0 24 24"  xmlns="http://www.w3.org/2000/svg">
<path d="M12 13.5816C11.3409 13.5816 10.6965 13.3862 10.1485 13.02C9.60042 12.6538 9.17325 12.1333 8.92101 11.5243C8.66876 10.9153 8.60276 10.2452 8.73136 9.59873C8.85995 8.95224 9.17736 8.35841 9.64345 7.89232C10.1095 7.42623 10.7034 7.10882 11.3499 6.98022C11.9964 6.85163 12.6665 6.91763 13.2754 7.16987C13.8844 7.42212 14.4049 7.84928 14.7711 8.39735C15.1373 8.94541 15.3328 9.58976 15.3328 10.2489C15.3328 11.1328 14.9817 11.9805 14.3566 12.6055C13.7316 13.2305 12.8839 13.5816 12 13.5816Z" fill="currentColor"/>
<path fill-rule="evenodd" clip-rule="evenodd" d="M1.5 1H22.5C23.4 1 24 1.6 24 2.5V18C24 18.9 23.4 19.5 22.5 19.5H1.5C0.6 19.5 0 18.9 0 18V2.5C0 1.6 0.6 1 1.5 1ZM19.628 9.07513C18.6022 7.62406 15.8047 4.25 12 4.25C8.1954 4.25 5.40124 7.62405 4.37143 9.07579C4.12972 9.41923 4 9.82895 4 10.2489C4 10.6689 4.12972 11.0786 4.37143 11.422C5.40124 12.8738 8.1954 16.2478 12 16.2478C15.8047 16.2478 18.6022 12.8738 19.6287 11.422C19.8704 11.0785 20.0001 10.6686 20 10.2485C19.9999 9.82837 19.87 9.41856 19.628 9.07513Z" fill="currentColor"/>
<path d="M18 21H6C5.1 21 4.5 21.6 4.5 22.5C4.5 23.4 5.1 24 6 24H18C18.9 24 19.5 23.4 19.5 22.5C19.5 21.6 18.9 21 18 21Z" fill="currentColor"/>
</svg>
