<svg width="24" height="24" viewBox="0 0 24 24"  xmlns="http://www.w3.org/2000/svg">
<path fill-rule="evenodd" clip-rule="evenodd" d="M0 2.84615C0 1.82615 0.826154 1 1.84615 1H22.1538C23.1738 1 24 1.82615 24 2.84615V17.6154C24 18.6354 23.1738 19.4615 22.1538 19.4615H1.84615C0.826154 19.4615 0 18.6354 0 17.6154V2.84615ZM9.44444 6.55556C9.44444 5.14416 10.5886 4 12 4C13.4114 4 14.5556 5.14416 14.5556 6.55556C14.5556 7.96695 13.4114 9.11111 12 9.11111C10.5886 9.11111 9.44444 7.96695 9.44444 6.55556ZM8.19891 12.3099C9.03761 11.4712 10.1751 11 11.3612 11H12.639C13.8251 11 14.9627 11.4712 15.8014 12.3099C16.6401 13.1486 17.1112 14.2861 17.1112 15.4722C17.1112 15.8251 16.8252 16.1111 16.4724 16.1111H7.52791C7.35847 16.1111 7.19597 16.0438 7.07615 15.924C6.95634 15.8042 6.88902 15.6417 6.88902 15.4722C6.88902 14.2861 7.3602 13.1486 8.19891 12.3099Z" fill="currentColor"/>
<path d="M19.5 22.5C19.5 21.6 18.9 21 18 21H6C5.1 21 4.5 21.6 4.5 22.5C4.5 23.4 5.1 24 6 24H18C18.9 24 19.5 23.4 19.5 22.5Z" fill="currentColor"/>
</svg>
