<svg width="24" height="24" viewBox="0 0 24 24"  xmlns="http://www.w3.org/2000/svg">
<path d="M14.409 1H1.84615C0.826154 1 0 1.85025 0 2.9V18.1C0 19.1498 0.826154 20 1.84615 20H22.1538C23.1738 20 24 19.1498 24 18.1V7.59099L22.7 8.89099V18.1C22.7 18.4673 22.4209 18.7 22.1538 18.7H1.84615C1.5791 18.7 1.3 18.4673 1.3 18.1V2.9C1.3 2.53274 1.5791 2.3 1.84615 2.3H13.109L14.409 1ZM6.75 21.5C6.3 21.5 6 21.8 6 22.25C6 22.7 6.3 23 6.75 23H17.25C17.7 23 18 22.7 18 22.25C18 21.8 17.7 21.5 17.25 21.5H6.75Z" fill="currentColor"/>
<path fill-rule="evenodd" clip-rule="evenodd" d="M18.7197 0.21967C19.0126 -0.0732233 19.4874 -0.0732233 19.7803 0.21967L23.7803 4.21967C24.0732 4.51256 24.0732 4.98744 23.7803 5.28033L14.7803 14.2803C14.6756 14.385 14.5423 14.4564 14.3971 14.4854L8.8971 15.9854C8.6512 16.0346 8.397 15.9576 8.21968 15.7803C8.04236 15.603 7.9654 15.3488 8.01458 15.1029L9.51458 9.60291C9.54362 9.45772 9.61498 9.32437 9.71968 9.21967L18.7197 0.21967ZM22.1893 4.74989L19.25 1.81055L10.9409 10.1196L9.70605 14.2938L13.8802 13.059L22.1893 4.74989Z" fill="currentColor"/>
</svg>
