<svg width="23" height="24" viewBox="0 0 23 24"  xmlns="http://www.w3.org/2000/svg">
<g clip-path="url(#clip0_865_2817)">
<path d="M9 11.25C9 12.4926 7.99264 13.5 6.75 13.5C5.50736 13.5 4.5 12.4926 4.5 11.25C4.5 10.0074 5.50736 9 6.75 9C7.99264 9 9 10.0074 9 11.25ZM18 11.25C18 12.4926 16.9926 13.5 15.75 13.5C14.5074 13.5 13.5 12.4926 13.5 11.25C13.5 10.0074 14.5074 9 15.75 9C16.9926 9 18 10.0074 18 11.25Z" fill="currentColor"/>
<path fill-rule="evenodd" clip-rule="evenodd" d="M1.5 0C0.671573 0 0 0.671573 0 1.5V22.5C0 23.3284 0.671573 24 1.5 24H21C21.8284 24 22.5 23.3284 22.5 22.5V1.5C22.5 0.671573 21.8284 0 21 0H1.5ZM10.5 11.25C10.5 12.0942 10.221 12.8733 9.75027 13.5H12.7497C12.279 12.8733 12 12.0942 12 11.25C12 9.17893 13.6789 7.5 15.75 7.5C17.8211 7.5 19.5 9.17893 19.5 11.25C19.5 13.3211 17.8211 15 15.75 15H6.75C4.67893 15 3 13.3211 3 11.25C3 9.17893 4.67893 7.5 6.75 7.5C8.82107 7.5 10.5 9.17893 10.5 11.25Z" fill="currentColor"/>
</g>
<defs>
<clipPath id="clip0_865_2817">
<rect width="23" height="24" fill="currentColor"/>
</clipPath>
</defs>
</svg>
