<svg width="24" height="24" viewBox="0 0 24 24"  xmlns="http://www.w3.org/2000/svg">
<g clip-path="url(#clip0_865_2811)">
<path d="M3.75 22.5H1.5V1.5H19.5V12C19.5 12.45 19.8 12.75 20.25 12.75C20.7 12.75 21 12.45 21 12V0.75C21 0.3 20.7 0 20.25 0H0.75C0.3 0 0 0.3 0 0.75V23.25C0 23.7 0.3 24 0.75 24H3.75C4.2 24 4.5 23.7 4.5 23.25C4.5 22.8 4.2 22.5 3.75 22.5ZM16.5 5.25C16.5 4.8 16.2 4.5 15.75 4.5H5.25C4.8 4.5 4.5 4.8 4.5 5.25C4.5 5.7 4.8 6 5.25 6H15.75C16.2 6 16.5 5.7 16.5 5.25ZM4.5 9.75C4.5 9.3 4.8 9 5.25 9H13.5C13.95 9 14.25 9.3 14.25 9.75C14.25 10.2 13.95 10.5 13.5 10.5H5.25C4.8 10.5 4.5 10.2 4.5 9.75ZM8.25 14.25C8.25 13.8 7.95 13.5 7.5 13.5H5.25C4.8 13.5 4.5 13.8 4.5 14.25C4.5 14.7 4.8 15 5.25 15H7.5C7.95 15 8.25 14.7 8.25 14.25Z" fill="currentColor"/>
<path fill-rule="evenodd" clip-rule="evenodd" d="M16.5 20.25C16.5 18.15 18.15 16.5 20.25 16.5C22.35 16.5 24 18.15 24 20.25C24 22.35 22.35 24 20.25 24H11.25C9.15 24 7.5 22.35 7.5 20.25C7.5 18.15 9.15 16.5 11.25 16.5C13.35 16.5 15 18.15 15 20.25C15 21.15 14.7 21.9 14.25 22.5H17.25C16.8 21.9 16.5 21.15 16.5 20.25ZM9 20.25C9 21.45 10.05 22.5 11.25 22.5C12.45 22.5 13.5 21.45 13.5 20.25C13.5 19.05 12.45 18 11.25 18C10.05 18 9 19.05 9 20.25ZM18 20.25C18 21.45 19.05 22.5 20.25 22.5C21.45 22.5 22.5 21.45 22.5 20.25C22.5 19.05 21.45 18 20.25 18C19.05 18 18 19.05 18 20.25Z" fill="currentColor"/>
</g>
<defs>
<clipPath id="clip0_865_2811">
<rect width="24" height="24" fill="currentColor"/>
</clipPath>
</defs>
</svg>
