<svg width="24" height="24" viewBox="0 0 24 24"  xmlns="http://www.w3.org/2000/svg">
<path d="M18.3528 6.77637C15.3881 6.77637 12.9881 9.17637 12.9881 12.1411C12.9881 13.694 13.694 15.1058 14.6822 16.094H9.17634C10.1646 15.1058 10.8705 13.694 10.8705 12.1411C10.8705 9.17637 8.47046 6.77637 5.50576 6.77637C2.54105 6.77637 0.282227 9.03519 0.282227 11.9999C0.282227 14.9646 2.68223 17.3646 5.64693 17.3646H18.3528C21.3175 17.3646 23.7175 14.9646 23.7175 11.9999C23.7175 9.03519 21.3175 6.77637 18.3528 6.77637ZM5.64693 15.9528C3.52929 15.9528 1.69399 14.2587 1.69399 11.9999C1.69399 9.74107 3.52929 8.32931 5.64693 8.32931C7.76458 8.32931 9.59987 10.0234 9.59987 12.1411C9.59987 14.2587 7.76458 15.9528 5.64693 15.9528ZM18.3528 15.9528C16.2352 15.9528 14.3999 14.2587 14.3999 11.9999C14.3999 9.74107 16.094 8.04695 18.3528 8.04695C20.6116 8.04695 22.3058 9.74107 22.3058 11.9999C22.3058 14.2587 20.4705 15.9528 18.3528 15.9528Z" fill="currentColor"/>
</svg>
