<svg width="24" height="24" viewBox="0 0 24 24"  xmlns="http://www.w3.org/2000/svg">
<path d="M20.6039 1.08875C20.8478 1.21926 21 1.4734 21 1.75V6.25C21 6.66422 20.6642 7 20.25 7C19.8358 7 19.5 6.66422 19.5 6.25V3.15139L11.666 8.37404C11.5428 8.45617 11.3981 8.5 11.25 8.5H1.5V15.5H11.25C11.3981 15.5 11.5428 15.5438 11.666 15.626L19.5 20.8486V17.75C19.5 17.3358 19.8358 17 20.25 17C20.6642 17 21 17.3358 21 17.75V22.25C21 22.5266 20.8478 22.7807 20.6039 22.9113C20.36 23.0418 20.0641 23.0275 19.834 22.874L11 17H0.75C0.335786 17 0 16.6642 0 16.25V7.75C0 7.33579 0.335786 7 0.75 7H11L19.834 1.12596C20.0641 0.972535 20.36 0.958231 20.6039 1.08875ZM20.25 15.5C19.8358 15.5 19.5 15.1642 19.5 14.75V12.75H17.5C17.0858 12.75 16.75 12.4142 16.75 12C16.75 11.5858 17.0858 11.25 17.5 11.25H19.5V9.25C19.5 8.83579 19.8358 8.5 20.25 8.5C20.6642 8.5 21 8.83579 21 9.25V11.25H23C23.4142 11.25 23.75 11.5858 23.75 12C23.75 12.4142 23.4142 12.75 23 12.75H21V14.75C21 15.1642 20.6642 15.5 20.25 15.5Z" fill="currentColor"/>
</svg>
