<svg width="24" height="24" viewBox="0 0 24 24"  xmlns="http://www.w3.org/2000/svg">
<path d="M21.3598 6.21234C21.0442 5.92502 20.5376 5.9299 20.2285 6.22324C19.9193 6.51659 19.9246 6.98732 20.2402 7.27465C21.5743 8.48906 22.4 10.1809 22.4 12.052C22.4 13.8764 21.6161 15.528 20.341 16.7358C20.0315 17.0289 20.0363 17.4996 20.3517 17.7872C20.6671 18.0748 21.1736 18.0703 21.483 17.7772C23.0399 16.3025 24 14.2812 24 12.052C24 9.76556 22.9889 7.69532 21.3598 6.21234Z" fill="currentColor"/>
<path fill-rule="evenodd" clip-rule="evenodd" d="M18 1.75C18 1.4734 17.8478 1.21926 17.6039 1.08875C17.36 0.958231 17.0641 0.972535 16.834 1.12596L8.02292 7H0.75C0.335786 7 0 7.33579 0 7.75V16.25C0 16.6642 0.335786 17 0.75 17H8.02292L16.834 22.874C17.0641 23.0275 17.36 23.0418 17.6039 22.9113C17.8478 22.7807 18 22.5266 18 22.25V1.75ZM8.66603 8.37404L16.5 3.15139V20.8486L8.66603 15.626C8.54282 15.5438 8.39807 15.5 8.25 15.5H1.5V8.5H8.25C8.39807 8.5 8.54282 8.45617 8.66603 8.37404Z" fill="currentColor"/>
</svg>
