<svg width="24" height="24" viewBox="0 0 24 24"  xmlns="http://www.w3.org/2000/svg">
<path d="M20.6039 1.08875C20.8478 1.21926 21 1.4734 21 1.75V6.25C21 6.66422 20.6642 7 20.25 7C19.8358 7 19.5 6.66422 19.5 6.25V3.15139L11.666 8.37404C11.5428 8.45617 11.3981 8.5 11.25 8.5H1.5V15.5H11.25C11.3981 15.5 11.5428 15.5438 11.666 15.626L19.5 20.8486V17.75C19.5 17.3358 19.8358 17 20.25 17C20.6642 17 21 17.3358 21 17.75V22.25C21 22.5266 20.8478 22.7807 20.6039 22.9113C20.36 23.0418 20.0641 23.0275 19.834 22.874L11 17H0.75C0.335786 17 0 16.6642 0 16.25V7.75C0 7.33579 0.335786 7 0.75 7H11L19.834 1.12596C20.0641 0.972535 20.36 0.958231 20.6039 1.08875ZM22.7758 14.5258C22.4769 14.8247 21.9922 14.8247 21.6933 14.5258L20.25 13.0825L18.8067 14.5258C18.5078 14.8247 18.0231 14.8247 17.7242 14.5258C17.4253 14.2269 17.4253 13.7422 17.7242 13.4433L19.1675 12L17.7242 10.5567C17.4253 10.2578 17.4253 9.77311 17.7242 9.47419C18.0231 9.17527 18.5078 9.17527 18.8067 9.47419L20.25 10.9175L21.6933 9.47419C21.9922 9.17527 22.4769 9.17527 22.7758 9.47419C23.0747 9.77311 23.0747 10.2578 22.7758 10.5567L21.3325 12L22.7758 13.4433C23.0747 13.7422 23.0747 14.2269 22.7758 14.5258Z" fill="currentColor"/>
</svg>
