<svg width="24" height="24" viewBox="0 0 24 24"  xmlns="http://www.w3.org/2000/svg">
<g clip-path="url(#clip0_865_668)">
<path d="M14.6 0.29676C15.65 -0.455256 17 0.29676 17 1.49998V14.8341L23.5514 21.3855C24.1495 21.9836 24.1495 22.9533 23.5514 23.5514C22.9533 24.1495 21.9836 24.1495 21.3855 23.5514L0.448571 2.61445C-0.149524 2.01635 -0.149524 1.04665 0.448571 0.448556C1.04667 -0.149539 2.01637 -0.149539 2.61446 0.448556L7.30227 5.13636L14.6 0.29676ZM0.3414 6.50728L16.9076 23.0735C16.5859 23.9181 15.4861 24.2674 14.6 23.7597L6 17.9957L1.5 18C0.6 18 2.38419e-07 17.447 2.38419e-07 16.5446V7.52041C2.38419e-07 7.11167 0.123092 6.76464 0.3414 6.50728Z" fill="currentColor"/>
</g>
<defs>
<clipPath id="clip0_865_668">
<rect width="24" height="24" fill="currentColor"/>
</clipPath>
</defs>
</svg>
