<svg width="24" height="24" viewBox="0 0 24 24"  xmlns="http://www.w3.org/2000/svg">
<path fill-rule="evenodd" clip-rule="evenodd" d="M21 1.75C21 1.4734 20.8478 1.21926 20.6039 1.08875C20.36 0.958231 20.0641 0.972535 19.834 1.12596L11 7H0.75C0.335786 7 0 7.33579 0 7.75V16.25C0 16.6642 0.335786 17 0.75 17H11L19.834 22.874C20.0641 23.0275 20.36 23.0418 20.6039 22.9113C20.8478 22.7807 21 22.5266 21 22.25V17.75C21 17.3358 20.6642 17 20.25 17C19.8358 17 19.5 17.3358 19.5 17.75V20.8486L11.666 15.626C11.5428 15.5438 11.3981 15.5 11.25 15.5H1.5V8.5H11.25C11.3981 8.5 11.5428 8.45617 11.666 8.37404L19.5 3.15139V6.25C19.5 6.66422 19.8358 7 20.25 7C20.6642 7 21 6.66422 21 6.25V1.75Z" fill="currentColor"/>
<path d="M17.25 11.25C16.8358 11.25 16.5 11.5858 16.5 12C16.5 12.4142 16.8358 12.75 17.25 12.75H23.25C23.6642 12.75 24 12.4142 24 12C24 11.5858 23.6642 11.25 23.25 11.25H17.25Z" fill="currentColor"/>
</svg>
