<svg width="24" height="24" viewBox="0 0 24 24"  xmlns="http://www.w3.org/2000/svg">
<g clip-path="url(#clip0_865_679)">
<path d="M19.5 4.50029C15.3 4.50029 12 7.80029 12 12.0003C12 16.2003 15.3 19.5003 19.5 19.5003V22.5003C19.5 23.7003 18.15 24.3003 17.1 23.7003L8.55 18.0003H1.5C0.6 18.0003 0 17.4003 0 16.5003V7.50029C0 6.60029 0.6 6.00029 1.5 6.00029H8.55L17.1 0.300286C18.15 -0.449714 19.5 0.300286 19.5 1.50029V4.50029ZM19.4999 9.87868L21.6213 7.75736L23.7426 9.87868L21.6213 12L23.7426 14.1213L21.6213 16.2426L19.4999 14.1213L17.3786 16.2426L15.2573 14.1213L17.3786 12L15.2573 9.87868L17.3786 7.75736L19.4999 9.87868Z" fill="currentColor"/>
</g>
<defs>
<clipPath id="clip0_865_679">
<rect width="24" height="24" fill="currentColor"/>
</clipPath>
</defs>
</svg>
