<svg width="24" height="24" viewBox="0 0 24 24"  xmlns="http://www.w3.org/2000/svg">
<g clip-path="url(#clip0_865_662)">
<path fill-rule="evenodd" clip-rule="evenodd" d="M1.29251 0.221759C0.996829 -0.0739197 0.517439 -0.0739197 0.221759 0.221759C-0.0739197 0.517439 -0.0739197 0.996829 0.221759 1.29251L22.7075 23.7782C23.0032 24.0739 23.4826 24.0739 23.7782 23.7782C24.0739 23.4826 24.0739 23.0032 23.7782 22.7075L18 16.9293V1.75C18 1.4734 17.8478 1.21926 17.6039 1.08875C17.36 0.958231 17.0641 0.972535 16.834 1.12596L8.05162 6.98087L1.29251 0.221759ZM9.13328 8.06253L16.5 15.4293V3.15139L9.13328 8.06253Z" fill="currentColor"/>
<path d="M0.75 7H2.92925L4.42925 8.5H1.5V15.5H8.25C8.39807 15.5 8.54282 15.5438 8.66603 15.626L10 16.5153V16.53H10.0221L18 21.8481V22.25C18 22.5266 17.8478 22.7807 17.6039 22.9113C17.36 23.0418 17.0641 23.0275 16.834 22.874L8.02292 17H0.75C0.335786 17 5.58794e-09 16.6642 5.58794e-09 16.25V7.75C5.58794e-09 7.33579 0.335786 7 0.75 7Z" fill="currentColor"/>
</g>
<defs>
<clipPath id="clip0_865_662">
<rect width="24" height="24" fill="currentColor"/>
</clipPath>
</defs>
</svg>
