<svg width="24" height="24" viewBox="0 0 24 24"  xmlns="http://www.w3.org/2000/svg">
<path fill-rule="evenodd" clip-rule="evenodd" d="M1 1.24951C0.746649 1.24951 0.510421 1.37742 0.371945 1.58958C0.233468 1.80174 0.211464 2.06947 0.313441 2.3014L6.87162 17.2164C7.18635 17.9323 8.20403 17.9254 8.50926 17.2059L10.6903 12.0702C10.7721 11.8777 10.7697 11.6598 10.6839 11.4691L6.28116 1.69157C6.16001 1.42252 5.89236 1.24951 5.59729 1.24951H1ZM7.67848 15.3248L2.14908 2.74951H5.11248L9.18143 11.7858L7.67848 15.3248ZM18.7501 1.24951H22.9999C23.2509 1.24951 23.4852 1.37502 23.6243 1.58391C23.7633 1.7928 23.7887 2.0574 23.6919 2.28891L23.4086 2.96531C23.2279 3.39671 22.9689 4.01465 22.6555 4.76087C22.0289 6.25325 21.1853 8.25897 20.317 10.312C18.5915 14.392 16.7402 18.7283 16.3304 19.5168C15.9582 20.233 15.4233 21.024 14.7206 21.6447C14.0133 22.2695 13.1017 22.7495 12.0064 22.7495H8.0243C7.56739 22.7495 7.24994 22.3724 7.24994 21.9741C7.24994 21.6173 7.50264 21.2734 7.90013 21.2088C8.41535 21.1242 8.77142 20.9617 9.11403 20.6626C9.48391 20.3397 9.86648 19.833 10.3772 18.9931C10.5679 18.6796 11.127 17.47 11.8893 15.7444C12.6378 14.0502 13.5531 11.9264 14.4416 9.8462C15.3298 7.76644 16.1903 5.73227 16.8288 4.21789C17.0078 3.79317 17.2363 3.28467 17.4349 2.84274C17.5903 2.49694 17.7275 2.19168 17.8082 1.99951C18.0003 1.6174 18.2109 1.24951 18.7501 1.24951ZM18.7643 3.46598L18.7639 3.46696C18.596 3.87539 18.3989 4.3548 18.211 4.80062C17.572 6.31628 16.7105 8.35274 15.8211 10.4353C14.9318 12.5175 14.0137 14.6478 13.2615 16.3505C12.5232 18.0218 11.9145 19.3521 11.6589 19.7725C11.3071 20.3511 10.9761 20.8431 10.6308 21.2495H12.0065C12.6363 21.2495 13.2092 20.9785 13.7276 20.5206C14.2505 20.0586 14.6823 19.4353 14.9995 18.8251C15.3733 18.1057 17.1895 13.8564 18.9355 9.72769C19.8031 7.67629 20.6463 5.67185 21.2726 4.18018C21.5061 3.62389 21.7095 3.13895 21.8727 2.74951H19.0604C18.9847 2.92978 18.8816 3.18052 18.7643 3.46598Z" fill="currentColor"/>
</svg>
