<svg width="24" height="24" viewBox="0 0 24 24"  xmlns="http://www.w3.org/2000/svg">
<g clip-path="url(#clip0_4167_231)">
<g clip-path="url(#clip1_4167_231)">
<path fill-rule="evenodd" clip-rule="evenodd" d="M11.7702 1.39722C11.9236 0.867491 12.0769 0.86737 12.2302 1.39722C13.4973 5.7781 18.2214 10.5031 22.6023 11.7703C23.1324 11.9236 23.1325 12.0769 22.6023 12.2302C18.2214 13.4973 13.4973 18.2214 12.2302 22.6023C12.0768 23.1325 11.9236 23.1324 11.7702 22.6023C10.5031 18.2214 5.77808 13.4973 1.39719 12.2302C0.867344 12.0769 0.867464 11.9236 1.39719 11.7703C5.77808 10.5031 10.5031 5.7781 11.7702 1.39722ZM12.1257 6.21656C12.0421 5.92758 11.9584 5.92771 11.8747 6.21656C11.1836 8.60613 8.6061 11.1836 6.21653 11.8748C5.92765 11.9584 5.92753 12.0421 6.21653 12.1257C8.6061 12.8169 11.1836 15.3934 11.8747 17.783C11.9584 18.0721 12.042 18.0722 12.1257 17.783C12.8169 15.3934 15.3934 12.8169 17.7829 12.1257C18.0722 12.0421 18.0721 11.9584 17.7829 11.8748C15.3934 11.1836 12.8169 8.60613 12.1257 6.21656Z" fill="currentColor"/>
</g>
</g>
<defs>
<clipPath id="clip0_4167_231">
<rect width="24" height="24" fill="currentColor"/>
</clipPath>
<clipPath id="clip1_4167_231">
<rect width="24" height="24" fill="currentColor"/>
</clipPath>
</defs>
</svg>
