<svg width="24" height="24" viewBox="0 0 24 24"  xmlns="http://www.w3.org/2000/svg">
<path fill-rule="evenodd" clip-rule="evenodd" d="M10.3833 18.2663L7.04028 23.3716C6.81412 23.7169 6.34882 23.81 6.00723 23.5781C5.67354 23.3517 5.58311 22.8994 5.80404 22.5621L9.16049 17.4363L10.3833 18.2663Z" fill="currentColor"/>
<path d="M10.2389 8.00001L10.2408 8H13.0383C13.419 8 13.7932 8.10036 14.1245 8.29132C14.4557 8.48226 14.7328 8.75727 14.9286 9.08958L16.5952 11.9167L19.3452 13.3171C19.7083 13.502 19.8556 13.9443 19.6759 14.31C19.4926 14.6833 19.0392 14.8343 18.6686 14.6456L15.9378 13.2551C15.6879 13.1278 15.4786 12.9304 15.3349 12.6864L14.5081 11.2838V15.4812H13.0385V9.49626H10.834V14.4024C10.8339 14.6268 10.8835 14.8484 10.979 15.0507C11.0745 15.253 11.2134 15.4308 11.3856 15.571L14.0492 17.7405C14.2873 17.9344 14.4605 18.1991 14.5444 18.4976L15.7526 22.8033C15.8617 23.1919 15.6372 23.5959 15.2496 23.7086C14.8568 23.8229 14.4462 23.5948 14.3357 23.2009L13.1315 18.9092L10.4675 16.7394C10.1232 16.4591 9.84532 16.1034 9.65435 15.6988C9.46339 15.2943 9.36426 14.8512 9.36429 14.4024V9.85487L6.99026 10.8215L5.63722 14.2635C5.48707 14.6454 5.05375 14.831 4.6737 14.6761C4.30024 14.524 4.11856 14.0998 4.2661 13.7245L5.62575 10.2657C5.69967 10.0777 5.81036 9.90675 5.95105 9.76352C6.09177 9.62026 6.25959 9.50758 6.44435 9.43233L9.69188 8.10997C9.86557 8.03785 10.0513 8.00051 10.2389 8.00001Z" fill="currentColor"/>
<path fill-rule="evenodd" clip-rule="evenodd" d="M11.9999 2.5C11.1715 2.5 10.4999 3.17157 10.4999 4C10.4999 4.82843 11.1715 5.5 11.9999 5.5C12.8283 5.5 13.4999 4.82843 13.4999 4C13.4999 3.17157 12.8283 2.5 11.9999 2.5ZM8.99992 4C8.99992 2.34315 10.3431 1 11.9999 1C13.6568 1 14.9999 2.34315 14.9999 4C14.9999 5.65685 13.6568 7 11.9999 7C10.3431 7 8.99992 5.65685 8.99992 4Z" fill="currentColor"/>
</svg>
