<svg width="24" height="24" viewBox="0 0 24 24"  xmlns="http://www.w3.org/2000/svg">
<path d="M12.0001 6C13.657 6 15.0001 4.65685 15.0001 3C15.0001 1.34315 13.657 0 12.0001 0C10.3433 0 9.00012 1.34315 9.00012 3C9.00012 4.65685 10.3433 6 12.0001 6ZM15.1144 12.4783L13.9872 11.4163V14.9847C13.9855 15.3964 13.8558 15.7991 13.6133 16.1454L16.2139 17.6966C16.4539 17.8399 16.6293 18.058 16.7079 18.3107L17.9651 22.9564C18.0376 23.2244 17.8779 23.5001 17.6094 23.5706L16.6086 23.8333C16.356 23.8996 16.0948 23.7603 16.0093 23.5135L14.55 19.3052L10.5623 16.9265C10.1676 16.7475 9.83511 16.471 9.60232 16.1279C9.36952 15.7849 9.24563 15.389 9.2446 14.9847V10.138L7.76728 10.7311L6.01628 13.878C5.89258 14.1003 5.62165 14.1943 5.38684 14.0963L4.47119 13.7143C4.21259 13.6064 4.09312 13.3071 4.20636 13.0508L5.79593 9.45279C5.91716 9.20883 6.1318 9.0143 6.39903 8.9062L10.752 7.15682C11.1878 6.99673 11.6659 6.96054 12.1244 7.05296C12.5828 7.14537 13.0005 7.36211 13.3233 7.6751L16.6905 10.8472L19.5552 12.4852C19.7991 12.6247 19.8802 12.9377 19.7348 13.1781L19.2703 13.9458C19.1392 14.1625 18.8668 14.247 18.6361 14.1425L15.3871 12.6706C15.2868 12.6185 15.1951 12.5538 15.1144 12.4783ZM9.11455 17C9.31785 17.1715 9.53749 17.3222 9.77028 17.45L11.0001 18.2542L7.98417 23.5704C7.84909 23.8085 7.54767 23.8937 7.30793 23.7616L6.42599 23.2755C6.18887 23.1448 6.09886 22.8491 6.22293 22.6085L9.11455 17Z" fill="currentColor"/>
</svg>
