<svg width="24" height="24" viewBox="0 0 24 24"  xmlns="http://www.w3.org/2000/svg">
<g clip-path="url(#clip0_865_2358)">
<path fill-rule="evenodd" clip-rule="evenodd" d="M2.15901 2.15901C2.58096 1.73706 3.15327 1.5 3.75 1.5H16.5V3.75C16.5 4.16421 16.8358 4.5 17.25 4.5C17.6642 4.5 18 4.16421 18 3.75V0.75C18 0.335787 17.6642 0 17.25 0H3.75C2.75544 0 1.8016 0.395088 1.09835 1.09835C0.395088 1.8016 0 2.75544 0 3.75V20.25C0 21.2445 0.395088 22.1984 1.09835 22.9017C1.8016 23.6049 2.75544 24 3.75 24H23.25C23.6642 24 24 23.6642 24 23.25V6.75C24 6.33579 23.6642 6 23.25 6H3.75C3.15327 6 2.58096 5.76294 2.15901 5.34099C1.73706 4.91904 1.5 4.34673 1.5 3.75C1.5 3.15327 1.73706 2.58096 2.15901 2.15901ZM1.5 20.25V6.75002C2.1453 7.234 2.93394 7.5 3.75 7.5H22.5V22.5H3.75C3.15327 22.5 2.58096 22.263 2.15901 21.8411C1.73706 21.4191 1.5 20.8467 1.5 20.25ZM15 15C15 14.1716 15.6715 13.5 16.5 13.5C17.3284 13.5 18 14.1716 18 15C18 15.8285 17.3284 16.5 16.5 16.5C15.6715 16.5 15 15.8285 15 15ZM16.5 12C14.8431 12 13.5 13.3431 13.5 15C13.5 16.6569 14.8431 18 16.5 18C18.1569 18 19.5 16.6569 19.5 15C19.5 13.3431 18.1569 12 16.5 12Z" fill="currentColor"/>
</g>
<defs>
<clipPath id="clip0_865_2358">
<rect width="24" height="24" fill="currentColor"/>
</clipPath>
</defs>
</svg>
