<svg width="24" height="24" viewBox="0 0 24 24"  xmlns="http://www.w3.org/2000/svg">
<g clip-path="url(#clip0_865_6129)">
<path d="M5.84961 5.8501C5.54961 6.0001 4.94961 6.0001 4.64961 5.8501C4.49961 5.5501 4.49961 4.9501 4.64961 4.6501L6.44961 3.0001L4.64961 1.3501C4.49961 1.0501 4.49961 0.450098 4.64961 0.150098C4.94961 9.75728e-05 5.54961 9.75728e-05 5.84961 0.150098L7.49961 1.9501L9.14961 0.150098C9.44961 9.75728e-05 10.0496 9.75728e-05 10.3496 0.150098C10.4996 0.450098 10.4996 1.0501 10.1996 1.3501L8.54961 3.0001L10.3496 4.6501C10.4996 4.9501 10.4996 5.5501 10.3496 5.8501C10.0496 6.0001 9.44961 6.0001 9.14961 5.7001L7.49961 4.0501L5.84961 5.8501Z" fill="currentColor"/>
<path fill-rule="evenodd" clip-rule="evenodd" d="M14.2497 6C14.3997 6 14.6997 6 14.8497 6.15L17.8497 9.3C18.1497 9.6 18.1497 10.05 17.8497 10.35L14.8497 13.35C14.8497 13.5 14.6997 13.5 14.6997 13.5L4.34971 23.85C4.27471 23.85 4.16221 23.8875 4.04971 23.925C3.93721 23.9625 3.82471 24 3.74971 24C3.59971 24 3.29971 23.85 3.29971 23.7L0.299707 20.7C-0.000292957 20.4 -0.000292957 19.95 0.299707 19.65L13.7997 6.15C13.9497 6 14.0997 6 14.2497 6ZM1.79971 20.25L3.74971 22.2L13.1997 12.75L11.2497 10.8L1.79971 20.25ZM12.2997 9.75L14.2497 11.7L16.1997 9.75L14.2497 7.8L12.2997 9.75Z" fill="currentColor"/>
<path d="M22.0497 3.0002L23.6997 1.3502C23.9997 1.0502 23.9997 0.600195 23.6997 0.300195C23.3997 0.000195235 22.9497 0.000195235 22.6497 0.300195L20.9997 1.9502L19.3497 0.300195C19.0497 0.000195235 18.5997 0.000195235 18.2997 0.300195C17.9997 0.600195 17.9997 1.0502 18.2997 1.3502L19.9497 3.0002L18.2997 4.6502C17.9997 4.9502 17.9997 5.4002 18.2997 5.7002C18.5997 6.0002 19.0497 6.0002 19.3497 5.7002L20.9997 4.0502L22.6497 5.7002C22.9497 6.0002 23.3997 6.0002 23.6997 5.7002C23.9997 5.4002 23.9997 4.9502 23.6997 4.6502L22.0497 3.0002ZM22.7997 15.1498C23.0997 14.8498 23.5497 14.8498 23.8497 15.1498C23.9997 15.4498 23.9997 16.0498 23.6997 16.3498L22.0497 17.9998L23.6997 19.6498C23.9997 19.9498 23.9997 20.3998 23.6997 20.6998C23.3997 20.9998 22.9497 20.9998 22.6497 20.6998L20.9997 19.0498L19.3497 20.6998C19.0497 20.9998 18.5997 20.9998 18.2997 20.6998C17.9997 20.3998 17.9997 19.9498 18.2997 19.6498L19.9497 17.9998L18.2997 16.3498C17.9997 16.0498 17.9997 15.5998 18.2997 15.2998C18.5997 14.9998 19.0497 14.9998 19.3497 15.2998L20.9997 16.9498L22.7997 15.1498Z" fill="currentColor"/>
</g>
<defs>
<clipPath id="clip0_865_6129">
<rect width="24" height="24" fill="currentColor"/>
</clipPath>
</defs>
</svg>
