<svg width="24" height="24" viewBox="0 0 24 24"  xmlns="http://www.w3.org/2000/svg">
<g clip-path="url(#clip0_865_6135)">
<path d="M2.99988 0L4.49988 3L2.99988 6L5.99988 4.5L8.99988 6L7.49988 3L8.99988 0L5.99988 1.5L2.99988 0ZM17.9999 6L20.9999 4.5L23.9999 6L22.4999 3L23.9999 0L20.9999 1.5L17.9999 0L19.4999 3L17.9999 6ZM17.9999 21L19.4999 18L17.9999 15L20.9999 16.5L23.9999 15L22.4999 18L23.9999 21L20.9999 19.5L17.9999 21ZM13.4087 7.40849L9.4386 11.3785L12.6206 14.5605L16.5906 10.5905L13.4087 7.40849ZM0.000976562 20.8179L8.38019 12.4387L11.5622 15.6206L3.18296 23.9999L0.000976562 20.8179Z" fill="currentColor"/>
</g>
<defs>
<clipPath id="clip0_865_6135">
<rect width="24" height="24" fill="currentColor"/>
</clipPath>
</defs>
</svg>
