<svg width="24" height="24" viewBox="0 0 24 24"  xmlns="http://www.w3.org/2000/svg">
<path d="M10.4502 18.3675C10.4502 19.2293 11.1496 19.9287 12.0114 19.9287C12.8733 19.9287 13.5727 19.2293 13.5727 18.3675C13.5727 17.5057 12.8733 16.8062 12.0114 16.8062C11.1496 16.8062 10.4502 17.5057 10.4502 18.3675ZM10.4502 14.745C10.4502 15.0211 10.6741 15.245 10.9502 15.245H13.0727C13.3488 15.245 13.5727 15.0211 13.5727 14.745V9.5C13.5727 9.22386 13.3488 9 13.0727 9H10.9502C10.6741 9 10.4502 9.22386 10.4502 9.5V14.745Z" fill="currentColor"/>
<path fill-rule="evenodd" clip-rule="evenodd" d="M12 1C12.5518 1 13.0591 1.30299 13.3207 1.78885L23.8207 21.2888C24.0709 21.7537 24.0585 22.3159 23.7877 22.7692C23.517 23.2225 23.028 23.5 22.5 23.5H1.5C0.972041 23.5 0.482957 23.2225 0.212226 22.7692C-0.0585043 22.3159 -0.0710118 21.7537 0.179294 21.2888L10.6793 1.78885C10.9409 1.30299 11.4482 1 12 1ZM12 2.5L1.5 22H22.5L12 2.5Z" fill="currentColor"/>
</svg>
