<svg width="24" height="24" viewBox="0 0 24 24"  xmlns="http://www.w3.org/2000/svg">
<g clip-path="url(#clip0_865_90)">
<path d="M23.8055 20.7941L13.443 1.36628C12.8278 0.211241 11.1722 0.211241 10.5554 1.36628L0.194435 20.7941C-0.386353 21.8837 0.403847 23.2007 1.63905 23.2007H22.3626C23.5961 23.2007 24.3863 21.8837 23.8055 20.7941ZM12 19.9286C11.0969 19.9286 10.364 19.1957 10.364 18.2926C10.364 17.3895 11.0969 16.6566 12 16.6566C12.9031 16.6566 13.636 17.3895 13.636 18.2926C13.636 19.1957 12.9031 19.9286 12 19.9286ZM13.636 14.5205C13.636 14.7967 13.4122 15.0205 13.136 15.0205H10.864C10.5878 15.0205 10.364 14.7967 10.364 14.5205V8.97644C10.364 8.7003 10.5878 8.47644 10.864 8.47644H13.136C13.4122 8.47644 13.636 8.7003 13.636 8.97644V14.5205Z" fill="currentColor"/>
</g>
<defs>
<clipPath id="clip0_865_90">
<rect width="24" height="24" fill="currentColor"/>
</clipPath>
</defs>
</svg>
