<svg width="24" height="24" viewBox="0 0 24 24"  xmlns="http://www.w3.org/2000/svg">
<path d="M17.069 2.25908C17.2086 1.87542 17.6328 1.6776 18.0165 1.81724C20.324 2.65709 21.5137 5.20849 20.6738 7.51595C20.5342 7.89961 20.11 8.09743 19.7263 7.95779C19.3427 7.81815 19.1449 7.39393 19.2845 7.01027C19.8451 5.47013 19.051 3.76716 17.5108 3.20659C17.1272 3.06695 16.9293 2.64274 17.069 2.25908Z" fill="currentColor"/>
<path fill-rule="evenodd" clip-rule="evenodd" d="M8.43616 7.18452C8.45704 7.02459 8.49543 6.86621 8.55146 6.71226C8.75302 6.15848 9.16631 5.70746 9.70041 5.4584C10.2345 5.20934 10.8457 5.18266 11.3995 5.38422C11.5528 5.44002 11.6982 5.51204 11.8337 5.59836C12.0542 5.29014 12.352 5.04062 12.7016 4.87762C13.2357 4.62856 13.8469 4.60188 14.4007 4.80343C14.9544 5.00499 15.4055 5.41828 15.6545 5.95238L18.6381 12.3506L18.6387 12.3514L18.6397 12.3518L18.6416 12.3512L20.0314 10.8713C20.3066 10.5782 20.6619 10.3723 21.053 10.2791C21.4442 10.186 21.8542 10.2098 22.232 10.3475C22.7216 10.5256 23.1252 10.8832 23.3611 11.3478C23.597 11.8125 23.6474 12.3497 23.502 12.8502L22.4922 16.3298C22.1976 17.3444 21.6895 18.2843 21.002 19.0864C20.3145 19.8886 19.4634 20.5346 18.5058 20.9809L17.2185 21.5812C15.437 22.412 13.3984 22.501 11.5513 21.8286C9.70409 21.1563 8.19966 19.7778 7.36892 17.9963L4.70568 12.2849C4.49818 11.8399 4.47594 11.3307 4.64388 10.8693C4.81181 10.408 5.15615 10.0322 5.60115 9.82467C5.74876 9.75583 5.90344 9.70738 6.06109 9.6795C6.01702 9.33186 6.05537 8.97542 6.17744 8.64001C6.379 8.08623 6.79229 7.6352 7.32639 7.38614C7.67588 7.22318 8.05835 7.15542 8.43616 7.18452ZM10.3253 6.79839C10.504 6.71505 10.7085 6.70612 10.8938 6.77356C11.0791 6.84101 11.23 6.9793 11.3133 7.15801L11.6187 7.8128L11.6268 7.83052L11.9402 8.50245L11.945 8.5127L13.8199 12.5334C13.9925 12.9034 14.4323 13.0635 14.8023 12.8909C15.1724 12.7184 15.3325 12.2785 15.1599 11.9085L12.9621 7.19541C12.8832 7.01915 12.8759 6.81892 12.942 6.63716C13.0095 6.45186 13.1477 6.30094 13.3265 6.2176C13.5052 6.13427 13.7097 6.12534 13.895 6.19278C14.0803 6.26022 14.2312 6.39852 14.3145 6.57723L17.2983 12.9759C17.4006 13.195 17.5553 13.3862 17.7483 13.5318C17.9414 13.6774 18.1672 13.7736 18.406 13.8118C18.6448 13.85 18.8893 13.8291 19.1182 13.751C19.3471 13.6729 19.5533 13.54 19.7189 13.3637L21.1092 11.8834C21.1863 11.8013 21.2859 11.7435 21.3954 11.7174C21.505 11.6914 21.6198 11.698 21.7256 11.7366C21.8629 11.7865 21.9766 11.8869 22.0427 12.017C22.1088 12.1472 22.1229 12.2977 22.0822 12.4379L21.0723 15.9175C20.8365 16.7297 20.4298 17.4821 19.8794 18.1243C19.329 18.7665 18.6477 19.2835 17.8812 19.6409L16.5937 20.2412C15.1675 20.9062 13.5356 20.9775 12.0569 20.4393C10.5783 19.9011 9.37393 18.7976 8.7089 17.3714L6.04567 11.6601C6.00388 11.5705 5.99941 11.4679 6.03322 11.375C6.06704 11.2821 6.13638 11.2064 6.226 11.1646C6.31561 11.1228 6.41815 11.1184 6.51107 11.1522C6.59692 11.1834 6.66805 11.245 6.71133 11.3249L8.44488 15.0425C8.61742 15.4125 9.05727 15.5726 9.42729 15.4C9.79732 15.2275 9.95741 14.7877 9.78486 14.4176L8.23098 11.0853C8.22691 11.0755 8.22261 11.0658 8.21809 11.0561L8.06143 10.7201C8.05436 10.705 8.04709 10.6899 8.03963 10.675L7.59161 9.7142C7.50828 9.53548 7.49935 9.33098 7.56679 9.14568C7.63423 8.96038 7.77252 8.80947 7.95124 8.72613C8.12995 8.64279 8.33445 8.63386 8.51975 8.70131C8.70505 8.76875 8.85597 8.90704 8.93931 9.08576L9.25263 9.75768C9.25743 9.76797 9.26244 9.77812 9.26764 9.78808L11.1322 13.7867C11.3048 14.1567 11.7446 14.3168 12.1147 14.1442C12.4847 13.9717 12.6448 13.5318 12.4722 13.1618L9.96563 7.78645C9.8823 7.60774 9.87337 7.40324 9.94081 7.21794C10.0083 7.03264 10.1466 6.88172 10.3253 6.79839Z" fill="currentColor"/>
<path d="M4.45771 19.3387C4.31807 19.7223 3.89385 19.9201 3.51019 19.7805C1.20273 18.9407 0.0129955 16.3893 0.852843 14.0818C0.992483 13.6981 1.4167 13.5003 1.80036 13.64C2.18401 13.7796 2.38183 14.2038 2.24219 14.5875C1.68162 16.1276 2.47573 17.8306 4.01587 18.3912C4.39953 18.5308 4.59735 18.955 4.45771 19.3387ZM15.846 4.08622C15.9857 3.70256 16.4099 3.50475 16.7936 3.64439C18.2653 4.18005 19.0241 5.80736 18.4884 7.27908C18.3488 7.66273 17.9246 7.86055 17.5409 7.72091C17.1573 7.58127 16.9595 7.15705 17.0991 6.7734C17.3555 6.06899 16.9923 5.29012 16.2879 5.03374C15.9042 4.8941 15.7064 4.46988 15.846 4.08622ZM5.6804 17.5115C5.54076 17.8951 5.11654 18.093 4.73288 17.9533C3.26116 17.4176 2.50234 15.7903 3.038 14.3186C3.17764 13.935 3.60186 13.7371 3.98552 13.8768C4.36917 14.0164 4.56699 14.4406 4.42735 14.8243C4.17097 15.5287 4.53416 16.3076 5.23856 16.564C5.62222 16.7036 5.82004 17.1278 5.6804 17.5115Z" fill="currentColor"/>
</svg>
