<svg width="24" height="24" viewBox="0 0 24 24"  xmlns="http://www.w3.org/2000/svg">
<path fill-rule="evenodd" clip-rule="evenodd" d="M7.04129 7.087C7.04129 4.28168 9.37872 2 12.2526 2C15.1264 2 17.4639 4.28168 17.4639 7.087C17.4639 7.6094 17.3868 8.10798 17.2363 8.58206C17.2222 8.62667 17.1904 8.66396 17.1481 8.68573C17.1058 8.70749 17.0563 8.71194 17.0106 8.6981L16.05 8.40708C15.955 8.37831 15.9018 8.27995 15.9311 8.18719C16.0416 7.83672 16.097 7.47426 16.097 7.087C16.097 5.00965 14.3807 3.33425 12.2526 3.33425C10.1245 3.33425 8.40814 5.00965 8.40814 7.087C8.40814 8.46898 9.16687 9.6732 10.2976 10.326L10.7394 10.5718C10.7817 10.5954 10.8125 10.6346 10.8247 10.6806C10.8369 10.7267 10.8295 10.7755 10.8042 10.8162L7.87 15.5229C7.95796 15.6172 8.04305 15.7227 8.11443 15.8421C8.71956 16.8604 8.35428 18.1812 7.3116 18.7672C6.26829 19.3576 4.91638 19.0004 4.31207 17.9835C3.71172 16.9657 4.07222 15.6451 5.11905 15.0549C5.6155 14.774 6.17846 14.7191 6.69405 14.8342L9.04129 11.0597C7.83421 10.1318 7.04129 8.706 7.04129 7.087ZM6.92442 16.5075C6.74942 16.2133 6.42668 16.0659 6.1099 16.1054L6.10444 16.1061C6.01596 16.1144 5.91961 16.1548 5.79979 16.221C5.3997 16.4464 5.27371 16.9236 5.50593 17.3136C5.7373 17.7055 6.22328 17.832 6.62642 17.6053C7.02626 17.3803 7.15387 16.9027 6.92442 16.5075ZM10.0599 7.087C10.0599 5.91058 11.0474 4.94659 12.2526 4.94659C13.4577 4.94659 14.4453 5.91058 14.4453 7.087C14.4453 7.64991 14.207 8.15302 13.8422 8.53226L15.9186 12.2078C16.4943 11.9829 17.1156 11.822 17.7887 11.822C20.6628 11.822 23 14.1079 23 16.913C23 19.7183 20.6626 22 17.7887 22C16.3857 22 15.1074 21.4512 14.1727 20.5681C14.1013 20.5007 14.0992 20.3897 14.168 20.3197L14.8595 19.6164C14.8926 19.5828 14.9381 19.5633 14.9859 19.5623C15.0337 19.5614 15.08 19.579 15.1145 19.6113C15.8073 20.2606 16.7487 20.6657 17.7887 20.6657C19.9168 20.6657 21.6332 18.9904 21.6332 16.913C21.6332 14.8317 19.9169 13.1602 17.7887 13.1602C17.1126 13.1602 16.4924 13.3298 15.9424 13.6273L15.938 13.6296L15.4825 13.86C15.395 13.9042 15.2874 13.8717 15.2407 13.7871L15.0056 13.3603L15.0047 13.3586L12.6487 9.19148C12.5186 9.2155 12.3854 9.22742 12.2526 9.22742C11.0474 9.22742 10.0599 8.26342 10.0599 7.087ZM12.2526 6.28083C11.789 6.28083 11.4267 6.63451 11.4267 7.087C11.4267 7.53949 11.789 7.89317 12.2526 7.89317C12.7161 7.89317 13.0784 7.53949 13.0784 7.087C13.0784 6.63451 12.7161 6.28083 12.2526 6.28083ZM4.94198 11.9687C5.03824 11.9452 5.13583 12.0021 5.16037 12.0959L5.41295 13.0619C5.42482 13.1074 5.41765 13.1555 5.39303 13.1958C5.3684 13.236 5.32836 13.265 5.28176 13.2763C3.61217 13.6818 2.36685 15.1492 2.36685 16.913C2.36685 18.9902 4.08306 20.6657 6.21543 20.6657C8.34354 20.6657 10.0599 18.9904 10.0599 16.913V16.4199C10.0599 16.3227 10.1406 16.2438 10.2402 16.2438H15.72C16.0063 15.3919 16.8208 14.7726 17.7887 14.7726C18.9936 14.7726 19.9814 15.7323 19.9814 16.913C19.9814 18.0894 18.9939 19.0534 17.7887 19.0534C16.8203 19.0534 16.0062 18.43 15.72 17.5781H11.3111C10.9671 20.0535 8.84954 22 6.21543 22C3.34175 22 1 19.7185 1 16.913C1 14.5352 2.67242 12.5215 4.94198 11.9687ZM17.7887 16.1068C17.3252 16.1068 16.9628 16.4605 16.9628 16.913C16.9628 17.3655 17.3252 17.7192 17.7887 17.7192C18.2523 17.7192 18.6146 17.3655 18.6146 16.913C18.6146 16.4605 18.2523 16.1068 17.7887 16.1068Z" fill="currentColor"/>
</svg>
