<svg width="24" height="24" viewBox="0 0 24 24"  xmlns="http://www.w3.org/2000/svg">
<path d="M11.5909 1.01417C9.70991 1.14761 7.90235 2.20127 6.89304 3.9589C5.47543 6.4205 6.05808 9.50786 8.10421 11.3207L6.1223 14.744C5.31486 14.7486 4.53495 15.1673 4.1037 15.9218C3.45683 17.0491 3.82385 18.4709 4.94784 19.1242C6.07184 19.773 7.49404 19.4049 8.14091 18.2776C8.57215 17.523 8.54463 16.6258 8.14091 15.9218L11.2606 10.5477L10.2329 9.95877C8.54922 8.98333 7.97575 6.8254 8.94835 5.13679C9.92095 3.44817 12.0726 2.87303 13.7563 3.84847C15.44 4.82391 16.0135 6.98184 15.0409 8.67046L17.0962 9.84835C18.7156 7.03706 17.7339 3.41136 14.9308 1.78716C13.8802 1.17981 12.7195 0.935958 11.5909 1.01417ZM11.701 4.54784C11.3982 4.58465 11.1 4.68128 10.8201 4.84232C9.69615 5.49108 9.32913 6.95424 9.976 8.08151C10.4073 8.8361 11.1872 9.2548 11.9946 9.2594L15.0776 14.6335L16.1052 14.0446C17.7889 13.0691 19.9406 13.6443 20.9132 15.3329C21.8858 17.0215 21.3123 19.1794 19.6286 20.1549C17.9449 21.1303 15.7933 20.5552 14.8207 18.8666L12.7653 20.0445C14.3848 22.8557 18 23.8404 20.8031 22.2162C23.6062 20.592 24.5879 16.9663 22.9685 14.155C21.5509 11.6934 18.5872 10.6351 15.9951 11.5048L14.0132 8.08151C14.4169 7.37754 14.4445 6.48032 14.0132 5.72573C13.5269 4.87912 12.6094 4.43282 11.701 4.54784ZM6.1223 11.2103C2.88336 11.2103 0.25 13.8513 0.25 17.0997C0.25 20.3481 2.88336 22.9892 6.1223 22.9892C8.95753 22.9892 11.3386 20.9601 11.8845 18.2776H15.8483C16.2566 18.977 16.9998 19.4555 17.8669 19.4555C19.1652 19.4555 20.2158 18.4019 20.2158 17.0997C20.2158 15.7976 19.1652 14.744 17.8669 14.744C16.9998 14.744 16.2566 15.2225 15.8483 15.9218H9.64569V17.0997C9.64569 19.046 8.06292 20.6334 6.1223 20.6334C4.18169 20.6334 2.59892 19.046 2.59892 17.0997C2.59892 15.1535 4.18169 13.5661 6.1223 13.5661V11.2103Z" fill="currentColor"/>
</svg>
