<svg width="24" height="24" viewBox="0 0 24 24"  xmlns="http://www.w3.org/2000/svg">
<path d="M0 22H2C3.654 22 5 20.654 5 19V18C5 17.627 4.793 17.285 4.463 17.113L2.237 15.953L4.432 14.901C4.779 14.735 5 14.385 5 14V12.781L6.529 12.399C7.238 12.222 7.777 11.696 7.972 10.993C8.166 10.289 7.975 9.561 7.458 9.044L5 6.586V1H3V7C3 7.266 3.105 7.52 3.293 7.707L6.044 10.459L3.758 11.03C3.312 11.141 3 11.541 3 12V13.37L1.373 14.148C0.684 14.479 0.25 15.156 0.236 15.919C0.223 16.682 0.635 17.374 1.312 17.727L3 18.606V19C3 19.552 2.552 20 2 20H0V22Z" fill="currentColor"/>
<path fill-rule="evenodd" clip-rule="evenodd" d="M13 3H21C22.654 3 24 4.346 24 6V14C24 15.654 22.654 17 21 17H6L10 11.667V6C10 4.346 11.346 3 13 3ZM14 13H20V11H14V13ZM14 9H20V7H14V9Z" fill="currentColor"/>
</svg>
