<svg width="24" height="24" viewBox="0 0 24 24"  xmlns="http://www.w3.org/2000/svg">
<path d="M4.75 2C4.75 1.58579 4.41421 1.25 4 1.25C3.58579 1.25 3.25 1.58579 3.25 2V7.31868L6.24333 10.2051C6.32459 10.3164 6.33359 10.4296 6.31329 10.505C6.30257 10.5448 6.28369 10.5763 6.259 10.6007C6.23546 10.6239 6.19381 10.6534 6.11809 10.6724L3.25 11.4206V13.5171L1.45804 14.3316L1.4279 14.3488C0.224035 15.0367 0.223962 16.7634 1.42782 17.4513L3.25 18.4452V19C3.25 19.6858 2.68579 20.25 2 20.25H1C0.585786 20.25 0.25 20.5858 0.25 21C0.25 21.4142 0.585786 21.75 1 21.75H2C3.51421 21.75 4.75 20.5142 4.75 19V17.5548L2.16758 16.1462C1.98307 16.0367 1.97764 15.7822 2.15129 15.6642L4.75 14.4829V12.5794L6.48604 12.1266C7.15076 11.9589 7.60459 11.4786 7.76171 10.895C7.91489 10.326 7.77692 9.70077 7.37617 9.21986L7.35001 9.18848L4.75 6.68132V2ZM14.25 7.25H19.75V8.75H14.25V7.25ZM17.75 11.25H14.25V12.75H17.75V11.25Z" fill="currentColor"/>
<path fill-rule="evenodd" clip-rule="evenodd" d="M13.0002 3.25049C11.486 3.25049 10.2502 4.48627 10.2502 6.00049V11.7505L6.50024 16.7505H21.0002C22.5145 16.7505 23.7502 15.5147 23.7502 14.0005V6.00049C23.7502 4.48627 22.5145 3.25049 21.0002 3.25049H13.0002ZM11.7502 6.00049C11.7502 5.3147 12.3145 4.75049 13.0002 4.75049H21.0002C21.686 4.75049 22.2502 5.3147 22.2502 6.00049V14.0005C22.2502 14.6863 21.686 15.2505 21.0002 15.2505H9.50024L11.7502 12.2505V6.00049Z" fill="currentColor"/>
</svg>
