<svg width="24" height="24" viewBox="0 0 24 24"  xmlns="http://www.w3.org/2000/svg">
<path d="M0 7.8C3.3 4.65 7.5 3 12 3C16.5 3 20.7 4.65 24 7.8L21.9 10.05C19.2 7.35 15.75 6 12 6C8.25 6 4.8 7.35 2.1 9.9L0 7.8ZM17.2501 15C15.9001 13.5 13.9501 12.75 12.0001 12.75C10.0501 12.75 8.10015 13.5 6.75015 15L4.65015 12.9C6.60015 10.8 9.15015 9.75 12.0001 9.75C14.8501 9.75 17.4001 10.8 19.3501 12.9L17.2501 15ZM12 21C13.2426 21 14.25 19.9926 14.25 18.75C14.25 17.5074 13.2426 16.5 12 16.5C10.7574 16.5 9.75 17.5074 9.75 18.75C9.75 19.9926 10.7574 21 12 21Z" fill="currentColor"/>
</svg>
