<svg width="24" height="24" viewBox="0 0 24 24"  xmlns="http://www.w3.org/2000/svg">
<path fill-rule="evenodd" clip-rule="evenodd" d="M2.45359 8.45505C4.98522 5.9242 8.41838 4.50244 11.9981 4.50244C15.5778 4.50244 19.011 5.9242 21.5425 8.45505C21.8355 8.74791 22.3104 8.74783 22.6032 8.4549C22.8962 8.16196 22.896 7.68708 22.6031 7.39423C19.7901 4.58217 15.9756 3.00244 11.9981 3.00244C8.02062 3.00244 4.206 4.58217 1.39309 7.39423C1.10015 7.68708 1.10008 8.16196 1.39293 8.4549C1.68577 8.74783 2.16064 8.74791 2.45359 8.45505ZM11.9982 10.5026C10.0102 10.5026 8.10345 11.292 6.69711 12.6972C6.4041 12.9899 5.92921 12.9897 5.63645 12.6967C5.34368 12.4037 5.34387 11.9288 5.63688 11.6361C7.3245 9.94983 9.61257 9.00262 11.9982 9.00262C14.3839 9.00262 16.6721 9.94983 18.3596 11.6361C18.6527 11.9288 18.6528 12.4037 18.36 12.6967C18.0672 12.9897 17.5924 12.9899 17.2994 12.6972C15.8931 11.292 13.9863 10.5026 11.9982 10.5026ZM12 16.5001C11.1716 16.5001 10.5 17.1716 10.5 18.0001C10.5 18.8285 11.1716 19.5001 12 19.5001C12.8284 19.5001 13.5 18.8285 13.5 18.0001C13.5 17.1716 12.8284 16.5001 12 16.5001ZM9 18.0001C9 16.3432 10.3431 15.0001 12 15.0001C13.6569 15.0001 15 16.3432 15 18.0001C15 19.657 13.6569 21.0001 12 21.0001C10.3431 21.0001 9 19.657 9 18.0001Z" fill="currentColor"/>
</svg>
