<svg width="24" height="24" viewBox="0 0 24 24" fill="none" xmlns="http://www.w3.org/2000/svg">
<g clip-path="url(#clip0_865_1412)">
<path d="M12 24.0016C18.6545 24.0016 24 18.6562 24 12.0016C24 5.45615 18.6545 0.110699 12.3273 0.00160851C5.56364 -0.107482 0 5.34706 0 11.8925C0 18.6562 5.34545 24.0016 12 24.0016ZM12 0.547063C18.3273 0.547063 23.4545 5.67434 23.4545 12.1107C23.4545 18.2198 18.2182 23.3471 12 23.3471C5.67273 23.3471 0.545455 18.2198 0.545455 11.8925C0.545455 5.67434 5.78182 0.547063 12 0.547063ZM7.2 6.65615C7.30909 6.98343 6.98182 7.09252 6.65455 7.09252C6.32727 7.09252 6 7.09252 5.67273 7.20161C6.87273 10.9107 8.18182 14.5107 9.38182 18.3289C9.49091 18.2198 9.49091 18.1107 9.49091 18.1107C10.1455 16.038 10.9091 13.9652 11.5636 11.8925C11.6727 11.6743 11.5636 11.4562 11.5636 11.238C11.2364 10.2562 10.8 9.16525 10.4727 8.18343C10.2545 7.41979 9.92727 6.98343 9.16364 7.09252C9.05455 7.09252 8.83636 6.76524 8.72727 6.65615C8.83636 6.54706 9.05455 6.32888 9.27273 6.32888C11.0182 6.32888 12.6545 6.32888 14.4 6.32888C14.6182 6.32888 14.8364 6.54706 14.9455 6.65615C14.7273 6.76524 14.6182 7.09252 14.4 7.09252C14.0727 7.20161 13.7455 7.20161 13.3091 7.20161C14.5091 10.9107 15.8182 14.5107 17.0182 18.3289C17.5636 16.4743 18.1091 14.7289 18.6545 12.9834C19.0909 11.4562 18.8727 10.038 18 8.61979C17.7818 8.18343 17.4545 7.85615 17.3455 7.41979C17.2364 6.87434 17.0182 6.32888 17.1273 5.78343C17.2364 4.9107 17.8909 4.47434 18.8727 4.36524C13.9636 -0.107482 6.32727 1.52888 3.49091 6.43797C4.58182 6.43797 5.67273 6.32888 6.65455 6.32888C6.87273 6.32888 7.2 6.43797 7.2 6.65615ZM9.16364 21.6016C9.16364 21.7107 9.16364 21.7107 9.16364 21.8198C11.2364 22.3652 13.3091 22.3652 15.4909 21.6016L12.2182 12.7652C11.1273 15.8198 10.1455 18.7652 9.16364 21.6016ZM7.52727 21.2743L2.61818 7.85615C0.436364 12.1107 2.07273 18.6562 7.52727 21.2743ZM22.2545 12.6562C22.3636 10.5834 21.7091 7.85615 21.0545 7.41979C20.9455 8.18343 21.0545 8.94706 20.8364 9.7107C20.2909 11.4562 19.7455 13.2016 19.0909 14.9471C18.4364 16.8016 17.7818 18.7652 17.1273 20.6198C20.2909 18.8743 22.0364 16.2562 22.2545 12.6562Z" fill="#3179A1"/>
</g>
<defs>
<clipPath id="clip0_865_1412">
<rect width="24" height="24" fill="white"/>
</clipPath>
</defs>
</svg>
