<svg width="24" height="24" viewBox="0 0 24 24"  xmlns="http://www.w3.org/2000/svg">
<g clip-path="url(#clip0_865_6150)">
<path d="M17.25 0C13.5 0 10.5 3 10.5 6.75C10.5 7.5 10.65 8.1 10.8 8.85L0.3 16.65C0.15 16.8 0 16.95 0 17.25C0 17.4 0 17.7 0.15 17.85L6.15 23.85C6.3 24 6.6 24 6.75 24C6.9 24 7.2 23.85 7.35 23.7L15.15 13.2C15.9 13.35 16.5 13.5 17.25 13.5C21 13.5 24 10.5 24 6.75C24 5.7 23.7 4.8 23.4 4.05C23.25 3.9 23.1 3.6 22.8 3.6C22.5 3.6 22.35 3.6 22.2 3.75L19.5 6.45L17.55 4.5L20.25 1.8C20.4 1.65 20.55 1.35 20.4 1.2C20.4 0.9 20.25 0.75 19.95 0.6C19.2 0.3 18.3 0 17.25 0ZM12 6.75C12 3.9 14.4 1.5 17.25 1.5C17.55 1.5 18 1.5 18.3 1.65L15.9 4.05C15.75 4.2 15.75 4.35 15.75 4.65C15.75 4.95 15.9 5.1 15.9 5.25L18.9 8.25C19.2 8.55 19.65 8.55 19.95 8.25L22.35 5.85C22.5 6 22.5 6.45 22.5 6.75C22.5 9.6 20.1 12 17.25 12C16.5 12 15.9 11.85 15.15 11.55C14.85 11.4 14.4 11.55 14.25 11.85L6.6 22.05L1.8 17.25L12 9.6C12.3 9.45 12.45 9 12.3 8.7C12.15 8.1 12 7.5 12 6.75Z" fill="currentColor"/>
</g>
<defs>
<clipPath id="clip0_865_6150">
<rect width="24" height="24" fill="currentColor"/>
</clipPath>
</defs>
</svg>
