<svg width="24" height="24" viewBox="0 0 24 24"  xmlns="http://www.w3.org/2000/svg">
<g clip-path="url(#clip0_865_6140)">
<path d="M12 0C5.37 0 0 5.37 0 12C0 13.8 0.41 15.51 1.12 17.04L1.84 18.38L1.85 18.37L8.48 13.44C8.48 13.44 6.85 9.43 9.38 7.13C10.86 5.78 12.29 5.5 13.23 5.5C13.89 5.5 14.31 5.64 14.31 5.64L11.44 8.51L15.49 12.54L18.4 9.67C18.4 9.67 19.07 12.15 17.06 14.39C15.92 15.65 14.46 15.99 13.21 15.99C11.72 15.99 10.52 15.51 10.52 15.51L5.58 22.1L6.91 22.85C8.45 23.58 10.18 24 12 24C18.63 24 24 18.63 24 12C24 5.37 18.63 0 12 0ZM12 22.5C10.51 22.5 9.1 22.19 7.82 21.63L11.09 17.26C11.65 17.39 12.39 17.51 13.2 17.51C15.21 17.51 16.93 16.78 18.17 15.41C20.7 12.6 19.88 9.42 19.85 9.29C19.71 8.78 19.31 8.37 18.79 8.23C18.66 8.2 18.53 8.18 18.4 8.18C18.01 8.18 17.63 8.33 17.35 8.61L15.5 10.44L13.57 8.52L15.38 6.71C15.75 6.34 15.9 5.81 15.78 5.31C15.66 4.8 15.29 4.4 14.8 4.23C14.69 4.19 14.11 4.01 13.24 4.01C12.03 4.01 10.21 4.36 8.38 6.03C6.05 8.16 6.36 11.23 6.75 12.88L2.36 16.14C1.8 14.86 1.5 13.47 1.5 12C1.5 6.21 6.21 1.5 12 1.5C17.79 1.5 22.5 6.21 22.5 12C22.5 17.79 17.79 22.5 12 22.5Z" fill="currentColor"/>
</g>
<defs>
<clipPath id="clip0_865_6140">
<rect width="24" height="24" fill="currentColor"/>
</clipPath>
</defs>
</svg>
