<svg width="24" height="24" viewBox="0 0 24 24"  xmlns="http://www.w3.org/2000/svg">
<g clip-path="url(#clip0_865_6145)">
<path d="M12 24C18.6274 24 24 18.6274 24 12C24 5.37258 18.6274 0 12 0C5.37258 0 0 5.37258 0 12C0 13.9231 0.452377 15.7406 1.25652 17.3517L8.019 12.3437C8.0008 12.2529 7.98259 12.1648 7.96477 12.0785C7.86046 11.5735 7.76943 11.1327 7.76943 10.6012C7.76943 7.4894 10.2651 5 13.3847 5C14.1334 5 14.8821 5.12447 15.506 5.49788L12.5112 8.48516L15.506 11.4724L18.6256 8.48516C18.8752 9.10751 19 9.85433 19 10.6012C19 13.7129 16.5043 16.2023 13.3847 16.2023C12.7608 16.2023 12.1369 16.0778 11.513 15.9534L6.51094 22.6738C8.15588 23.5215 10.0221 24 12 24Z" fill="currentColor"/>
</g>
<defs>
<clipPath id="clip0_865_6145">
<rect width="24" height="24" fill="currentColor"/>
</clipPath>
</defs>
</svg>
