<svg width="24" height="24" viewBox="0 0 24 24"  xmlns="http://www.w3.org/2000/svg">
<g clip-path="url(#clip0_865_6156)">
<path d="M19.8 7.8L16.2 4.2L19.8 0.6C19.05 0.15 18.15 0 17.25 0C13.5 0 10.5 3 10.5 6.75C10.5 7.5 10.65 8.1 10.8 8.85L0.900028 16.2C-0.299972 17.1 -0.299972 18.75 0.600028 19.8L4.05003 23.4C5.10003 24.45 6.75003 24.3 7.65003 23.1L15 13.2C15.75 13.35 16.5 13.5 17.25 13.5C21 13.5 24 10.5 24 6.75C24 5.85 23.85 4.95 23.55 4.2L19.8 7.8Z" fill="currentColor"/>
</g>
<defs>
<clipPath id="clip0_865_6156">
<rect width="24" height="24" fill="currentColor"/>
</clipPath>
</defs>
</svg>
