<svg width="24" height="24" viewBox="0 0 24 24"  xmlns="http://www.w3.org/2000/svg">
<path fill-rule="evenodd" clip-rule="evenodd" d="M12.2018 0.100098C14.8803 0.100098 16.8687 1.06867 18.2057 2.92616C19.5604 4.80835 20.2864 7.65885 20.2864 11.4891V12.5111C20.2864 16.3413 19.5604 19.1918 18.2057 21.074C16.8687 22.9315 14.8803 23.9001 12.2018 23.9001C9.51425 23.9001 7.5217 22.9312 6.18279 21.0738C4.82609 19.1917 4.1001 16.3414 4.1001 12.5111V11.4891C4.1001 7.65882 4.82609 4.80849 6.18279 2.92641C7.5217 1.06904 9.51425 0.100098 12.2018 0.100098ZM12.2018 1.4167C10.0041 1.4167 8.32021 2.27356 7.21147 4.01553C6.12569 5.72144 5.6211 8.22995 5.6211 11.4891V12.5111C5.6211 15.7702 6.12569 18.2788 7.21147 19.9847C8.32021 21.7266 10.0041 22.5835 12.2018 22.5835C14.3916 22.5835 16.0711 21.726 17.1774 19.9843C18.2608 18.2786 18.7654 15.7703 18.7654 12.5111V11.4891C18.7654 8.22989 18.2608 5.72162 17.1774 4.01589C16.0711 2.27415 14.3916 1.4167 12.2018 1.4167Z" fill="currentColor"/>
</svg>
