<svg width="24" height="24" viewBox="0 0 24 24"  xmlns="http://www.w3.org/2000/svg">
<g clip-path="url(#clip0_865_7291)">
<path d="M24 2.62268e-07V6L18 0L24 2.62268e-07ZM0 2.62268e-07H6L0 6V2.62268e-07ZM0 24L7.86805e-07 18L6 24H0ZM24 24H18L24 18V24Z" fill="currentColor"/>
<path fill-rule="evenodd" clip-rule="evenodd" d="M10.4429 7C7.98915 7 6 8.98915 6 11.4429C6 13.8966 7.98915 15.8858 10.4429 15.8858C11.653 15.8858 12.75 15.402 13.5513 14.6173C13.5618 14.6062 13.5725 14.5952 13.5833 14.5843C13.5944 14.5733 13.6055 14.5625 13.6167 14.5519C14.4018 13.7506 14.8858 12.6532 14.8858 11.4429C14.8858 8.98915 12.8966 7 10.4429 7ZM16.6589 15.538C17.4344 14.3633 17.8858 12.9558 17.8858 11.4429C17.8858 7.33229 14.5535 4 10.4429 4C6.33229 4 3 7.33229 3 11.4429C3 15.5535 6.33229 18.8858 10.4429 18.8858C11.9556 18.8858 13.3629 18.4345 14.5375 17.6592L16.4394 19.5608C17.0252 20.1465 17.975 20.1464 18.5607 19.5605C19.1464 18.9747 19.1463 18.0249 18.5605 17.4392L16.6589 15.538Z" fill="currentColor"/>
</g>
<defs>
<clipPath id="clip0_865_7291">
<rect width="24" height="24" fill="currentColor"/>
</clipPath>
</defs>
</svg>
