<svg width="24" height="24" viewBox="0 0 24 24"  xmlns="http://www.w3.org/2000/svg">
<g clip-path="url(#clip0_865_7285)">
<path fill-rule="evenodd" clip-rule="evenodd" d="M24 0V6L18 0H24ZM20.4142 1L23 3.58579V1H20.4142ZM0 0H6L0 6V0ZM1 3.58579L3.58579 1H1V3.58579ZM0 24V18L6 24H0ZM3.58579 23L1 20.4142V23H3.58579ZM24 24H18L24 18V24ZM23 20.4142L20.4142 23H23V20.4142ZM10.3807 5.54837C7.15958 5.54837 4.54837 8.15958 4.54837 11.3807C4.54837 14.6018 7.15958 17.213 10.3807 17.213C11.9777 17.213 13.4249 16.571 14.4782 15.5311C14.4864 15.5221 14.4949 15.5132 14.5036 15.5044C14.5124 15.4956 14.5214 15.4871 14.5305 15.4788C15.5708 14.4255 16.213 12.9781 16.213 11.3807C16.213 8.15958 13.6018 5.54837 10.3807 5.54837ZM16.1181 16.0239C17.1457 14.7557 17.7613 13.1401 17.7613 11.3807C17.7613 7.30444 14.4569 4 10.3807 4C6.30444 4 3 7.30444 3 11.3807C3 15.4569 6.30444 18.7613 10.3807 18.7613C12.1398 18.7613 13.7551 18.1459 15.0232 17.1187L17.6784 19.7733C17.9808 20.0756 18.471 20.0756 18.7733 19.7732C19.0756 19.4708 19.0756 18.9806 18.7732 18.6783L16.1181 16.0239Z" fill="currentColor"/>
</g>
<defs>
<clipPath id="clip0_865_7285">
<rect width="24" height="24" fill="currentColor"/>
</clipPath>
</defs>
</svg>
