<svg width="24" height="24" viewBox="0 0 24 24"  xmlns="http://www.w3.org/2000/svg">
<g clip-path="url(#clip0_865_7270)">
<path fill-rule="evenodd" clip-rule="evenodd" d="M11.2499 3.74997C7.10778 3.74997 3.74995 7.1078 3.74995 11.2499C3.74995 15.392 7.10778 18.7498 11.2499 18.7498C13.3008 18.7498 15.1595 17.9266 16.5135 16.5925C16.526 16.579 16.5389 16.5657 16.552 16.5525C16.5652 16.5393 16.5786 16.5264 16.5922 16.5138C17.9264 15.1598 18.7498 13.301 18.7498 11.2499C18.7498 7.1078 15.392 3.74997 11.2499 3.74997ZM19.6593 17.5382C20.9721 15.7854 21.7498 13.6084 21.7498 11.2499C21.7498 5.45096 17.0488 0.75 11.2499 0.75C5.45094 0.75 0.749985 5.45096 0.749985 11.2499C0.749985 17.0488 5.45094 21.7498 11.2499 21.7498C13.6083 21.7498 15.7851 20.9722 17.5379 19.6595L21.4393 23.5605C22.0251 24.1462 22.9748 24.1462 23.5606 23.5604C24.1463 22.9746 24.1463 22.0248 23.5605 21.4391L19.6593 17.5382ZM11.2499 5.74995C11.8022 5.74995 12.2499 6.19766 12.2499 6.74994V10.2499H15.7498C16.3021 10.2499 16.7498 10.6976 16.7498 11.2499C16.7498 11.8022 16.3021 12.2499 15.7498 12.2499H12.2499V15.7498C12.2499 16.3021 11.8022 16.7498 11.2499 16.7498C10.6976 16.7498 10.2499 16.3021 10.2499 15.7498V12.2499H6.74992C6.19764 12.2499 5.74993 11.8022 5.74993 11.2499C5.74993 10.6976 6.19764 10.2499 6.74992 10.2499H10.2499V6.74994C10.2499 6.19766 10.6976 5.74995 11.2499 5.74995Z" fill="currentColor"/>
</g>
<defs>
<clipPath id="clip0_865_7270">
<rect width="24" height="24" fill="currentColor"/>
</clipPath>
</defs>
</svg>
