<?xml version="1.0" encoding="UTF-8"?>
<svg fill="none" viewBox="0 0 562 107" xmlns="http://www.w3.org/2000/svg">
    <path d="m238.18 102.51c-1.991 0-3.639-0.309-4.944-0.927-1.236-0.618-2.266-1.51-3.09-2.6779l-45.325-64.072c-0.549-0.8928-0.824-1.6825-0.824-2.3693 0-0.7554 0.24-1.4421 0.721-2.0602 0.481-0.6867 1.099-1.2704 1.854-1.7511 0.824-0.5494 1.683-0.9615 2.576-1.2362 0.961-0.2747 1.888-0.412 2.781-0.412s1.785 0.1717 2.678 0.515c0.961 0.3434 1.717 0.8928 2.266 1.6482l41.616 59.849 41.204-59.849c0.893-1.4421 2.404-2.1632 4.533-2.1632 0.893 0 1.785 0.1373 2.678 0.412s1.717 0.6868 2.472 1.2362c0.756 0.4807 1.374 1.0644 1.855 1.7511 0.48 0.6181 0.721 1.3392 0.721 2.1632 0 0.8241-0.275 1.5795-0.824 2.2663l-44.81 64.072c-0.824 1.1679-1.888 2.0599-3.193 2.6779s-2.953 0.927-4.945 0.927z" fill="#fff"/>
    <path d="m314.85 97.665c0 1.9916-0.584 3.2961-1.751 3.9141s-2.884 0.927-5.15 0.927c-2.198 0-3.881-0.309-5.048-0.927s-1.751-1.9225-1.751-3.9141v-65.823c0-1.9916 0.584-3.2963 1.751-3.9144s2.85-0.9271 5.048-0.9271c2.266 0 3.983 0.309 5.15 0.9271s1.751 1.9228 1.751 3.9144v65.823z" fill="#fff"/>
    <path d="m378.16 102.51c-1.991 0-3.639-0.309-4.944-0.927-1.236-0.618-2.266-1.51-3.09-2.6779l-45.325-64.072c-0.549-0.8928-0.824-1.6825-0.824-2.3693 0-0.7554 0.24-1.4421 0.721-2.0602 0.481-0.6867 1.099-1.2704 1.854-1.7511 0.824-0.5494 1.683-0.9615 2.576-1.2362 0.961-0.2747 1.888-0.412 2.781-0.412s1.785 0.1717 2.678 0.515c0.962 0.3434 1.717 0.8928 2.266 1.6482l41.616 59.849 41.204-59.849c0.893-1.4421 2.404-2.1632 4.533-2.1632 0.893 0 1.785 0.1373 2.678 0.412s1.717 0.6868 2.472 1.2362c0.756 0.4807 1.374 1.0644 1.855 1.7511 0.48 0.6181 0.721 1.3392 0.721 2.1632 0 0.8241-0.275 1.5795-0.824 2.2663l-44.81 64.072c-0.824 1.1679-1.888 2.0599-3.193 2.6779s-2.953 0.927-4.945 0.927z" fill="#fff"/>
    <path d="m454.82 97.665c0 1.9916-0.583 3.2961-1.751 3.9141-1.167 0.618-2.884 0.927-5.15 0.927-2.198 0-3.88-0.309-5.048-0.927-1.167-0.618-1.751-1.9225-1.751-3.9141v-65.823c0-1.9916 0.584-3.2963 1.751-3.9144 1.168-0.6181 2.85-0.9271 5.048-0.9271 2.266 0 3.983 0.309 5.15 0.9271 1.168 0.6181 1.751 1.9228 1.751 3.9144v65.823z" fill="#fff"/>
    <path d="m561.19 82.934c0 12.773-10.164 19.16-30.491 19.16h-58.407c-3.159 0-4.739-1.613-4.739-4.8411v-65.102c0-3.159 1.58-4.7385 4.739-4.7385h58.407c20.327 0 30.491 6.3867 30.491 19.16v36.363zm-79.936 8.0348h49.033c6.043 0 10.438-0.7898 13.185-2.3692 2.816-1.5795 4.223-3.4681 4.223-5.6656v-36.363c0-2.2662-1.407-4.1547-4.223-5.6655-2.747-1.5795-7.142-2.3693-13.185-2.3693h-49.033v52.432z" fill="#fff"/>
    <path d="m119.06 105.99h-69.93c-7.666 0-16.189-6.217-19.032-13.883l-29.172-77.941c-2.8428-7.666 1.065-13.883 8.7339-13.883h69.927c7.666 0 16.189 6.2167 19.032 13.883l29.172 77.941c2.846 7.666-1.062 13.883-8.731 13.883z" fill="url(#f)"/>
    <path d="m151.76 20.914h-71.746c-7.1643 0-15.13 5.8089-17.788 12.973l-21.936 59.13c-2.658 7.1642 0.9946 12.973 8.1618 12.973h71.746c7.164 0 15.13-5.809 17.788-12.973l21.935-59.13c2.658-7.1643-0.997-12.973-8.161-12.973z" fill="url(#e)"/>
    <path d="m48.675 105.99h70.477c0.434-9e-3 0.855-0.038 1.263-0.086 0.024 3e-3 0.05 4e-3 0.076 4e-3 4.107 0 8.429-2.2 10.415-3.814 2.888-2.3471 4.601-4.023 6.454-7.4812-3.32 5.8052-6.757 5.5122-9.242-1.3202-0.108-0.2984-0.228-0.5467-0.358-0.7486-0.049-0.1443-0.1-0.2891-0.154-0.4345l-25.832-69.636c-0.196-0.5276-0.418-1.0483-0.666-1.5606h-21.091c-7.1643 0-15.13 5.8088-17.788 12.973l-21.936 59.13c-0.1045 0.2816-0.1992 0.561-0.2843 0.8381-2.5059 6.2236-5.502 6.3006-8.7982 0.5963 1.9128 3.5333 3.6811 5.2456 6.6633 7.6433 2.0503 1.649 6.5118 3.897 10.752 3.897 0.0166 0 0.033-1e-3 0.049-1e-3z" clip-rule="evenodd" fill="url(#d)" fill-rule="evenodd"/>
    <g opacity=".4" style="mix-blend-mode:hard-light">
        <path d="m49.131 105.99h69.93c0.411 0 0.812-0.018 1.201-0.053 0.052 0.013 0.109 0.019 0.169 0.019 4.107 0 8.429-2.2 10.415-3.814 2.889-2.3467 4.601-4.0226 6.454-7.4808-3.154 5.5168-6.415 5.5258-8.864-0.3495-0.152-0.718-0.365-1.4544-0.644-2.2047l-29.172-77.941c-2.8428-7.666-11.366-13.883-19.032-13.883h-69.927c-7.6689 0-11.577 6.2167-8.7339 13.883l29.172 77.941c2.8428 7.666 11.366 13.883 19.032 13.883z" clip-rule="evenodd" fill="url(#c)" fill-rule="evenodd"/>
    </g>
    <g opacity=".15" style="mix-blend-mode:hard-light">
        <path d="m80.107 21.002h71.746c7.165 0 10.82 5.8089 8.162 12.973l-21.936 59.13c-2.658 7.1648-10.623 12.973-17.787 12.973h-71.518c-0.0188 2e-3 -0.038 2e-3 -0.0576 2e-3 -0.0752 0-0.1505 0-0.2258-2e-3 -0.9706-4e-3 -1.8762-0.115-2.71-0.321-3.2335-0.681-6.2388-2.305-7.8163-3.573-2.9822-2.3982-4.7505-4.1106-6.6633-7.6438 3.2961 5.7048 6.2921 5.6278 8.798-0.596 0.0852-0.2774 0.18-0.5571 0.2846-0.839l21.936-59.13c2.658-7.1643 10.623-12.973 17.788-12.973z" clip-rule="evenodd" fill="url(#b)" fill-rule="evenodd"/>
    </g>
    <path d="m151.92 21.002h-71.746c-7.1643 0-15.13 5.8089-17.788 12.973l-21.936 59.13c-2.658 7.1648 0.9946 12.973 8.1618 12.973h71.746c7.165 0 15.13-5.808 17.788-12.973l21.936-59.13c2.658-7.1643-0.998-12.973-8.162-12.973z" fill="url(#a)" fill-opacity=".2"/>
    <defs>
        <linearGradient id="f" x1="83.316" x2="-9.6268e-7" y1=".2876" y2="-18.355" gradientUnits="userSpaceOnUse">
            <stop stop-color="#A662FF" offset="0"/>
            <stop stop-color="#57EDFD" offset="1"/>
        </linearGradient>
        <linearGradient id="e" x1="107.48" x2="165.25" y1="91.43" y2="23.073" gradientUnits="userSpaceOnUse">
            <stop stop-color="#FC27F6" offset="0"/>
            <stop stop-color="#FFA694" offset="1"/>
        </linearGradient>
        <linearGradient id="d" x1="65.134" x2="137.17" y1="21.002" y2="21.002" gradientUnits="userSpaceOnUse">
            <stop stop-color="#7600FF" offset="0"/>
            <stop stop-color="#FB2FFB" offset="1"/>
        </linearGradient>
        <linearGradient id="c" x1="95.515" x2="78.713" y1="2.359" y2="9.2637" gradientUnits="userSpaceOnUse">
            <stop stop-color="#fff" offset="0"/>
            <stop stop-color="#fff" stop-opacity="0" offset="1"/>
        </linearGradient>
        <linearGradient id="b" x1="66.745" x2="76.348" y1="26.525" y2="30.049" gradientUnits="userSpaceOnUse">
            <stop stop-color="#fff" offset="0"/>
            <stop stop-color="#fff" stop-opacity="0" offset="1"/>
        </linearGradient>
        <linearGradient id="a" x1="150.75" x2="138.78" y1="65.191" y2="61.049" gradientUnits="userSpaceOnUse">
            <stop stop-color="#fff" offset="0"/>
            <stop stop-color="#fff" stop-opacity="0" offset="1"/>
        </linearGradient>
    </defs>
</svg>
