<svg xmlns="http://www.w3.org/2000/svg" viewBox="0 0 24 24"><path fill="currentColor" fill-rule="evenodd" d="M24 3C24 2.17157 23.3284 1.5 22.5 1.5H1.5C.671574 1.5 0 2.17157 0 3 0 3.82843.671574 4.5 1.5 4.5H22.5C23.3284 4.5 24 3.82843 24 3zM19.5 9C19.5 8.17157 18.8284 7.5 18 7.5H6C5.17157 7.5 4.5 8.17157 4.5 9 4.5 9.82843 5.17157 10.5 6 10.5H18C18.8284 10.5 19.5 9.82843 19.5 9zM24 15C24 14.1716 23.3284 13.5 22.5 13.5H1.5C.671574 13.5 0 14.1716 0 15 0 15.8284.671574 16.5 1.5 16.5H22.5C23.3284 16.5 24 15.8284 24 15zM19.5 21C19.5 20.1716 18.8284 19.5 18 19.5H6C5.17157 19.5 4.5 20.1716 4.5 21 4.5 21.8284 5.17157 22.5 6 22.5H18C18.8284 22.5 19.5 21.8284 19.5 21z" clip-rule="evenodd"/></svg>