<svg xmlns="http://www.w3.org/2000/svg" viewBox="0 0 24 24"><g fill="currentColor" clip-path="url(#clip0_22190_151202)"><path d="M4.93938 19.0607C5.22062 19.342 5.60209 19.5001 5.99988 19.5002H6.14988C6.37091 19.4772 6.58408 19.4054 6.77397 19.29 6.96386 19.1745 7.12573 19.0183 7.24788 18.8327L16.2479 5.33269C16.4687 5.0017 16.5489 4.59656 16.471 4.20639 16.3931 3.81622 16.1634 3.47299 15.8324 3.25219 15.5014 3.0314 15.0962 2.95114 14.7061 3.02906 14.3159 3.10698 13.9727 3.3367 13.7519 3.66769L5.76738 15.6467 2.56038 12.4397C2.42201 12.2964 2.25649 12.1822 2.07348 12.1035 1.89048 12.0249 1.69365 11.9835 1.49448 11.9818 1.29531 11.9801 1.09779 12.018.913447 12.0935.729102 12.1689.561624 12.2803.420785 12.4211.279946 12.5619.168566 12.7294.0931451 12.9138.0177238 13.0981-.0202288 13.2956-.0184981 13.4948-.0167673 13.694.024612 13.8908.103226 14.0738.181839 14.2568.296112 14.4223.439378 14.5607L4.93938 19.0607zM22.7915 3.02862C22.9847 3.06691 23.1685 3.14291 23.3324 3.25226 23.4965 3.36145 23.6374 3.50189 23.7471 3.66556 23.8568 3.82922 23.9333 4.01291 23.972 4.20611 24.0107 4.39932 24.011 4.59826 23.9728 4.79158 23.9346 4.98489 23.8587 5.16879 23.7494 5.33276L14.7494 18.8328C14.6263 19.0172 14.4639 19.1721 14.2738 19.2862 14.0836 19.4003 13.8706 19.4709 13.6499 19.4928 13.5974 19.5003 13.5494 19.5003 13.4999 19.5003 13.1028 19.5014 12.7214 19.3449 12.4394 19.0653L10.3154 16.9413 12.0119 14.3913 13.2674 15.6468 21.2519 3.66776C21.3612 3.50385 21.5018 3.36308 21.6655 3.25349 21.8292 3.1439 22.0129 3.06763 22.2061 3.02905 22.3993 2.99046 22.5982 2.99032 22.7915 3.02862z"/></g></svg>