<svg xmlns="http://www.w3.org/2000/svg" viewBox="0 0 24 24"><path fill="currentColor" d="M20.1499 1.45C19.5499.85 18.6499.85 18.0499 1.45L7.99994 11.5 7.12914 16.2894C7.06665 16.6331 7.36685 16.9333 7.71051 16.8708L12.4999 16 22.5499 5.95C23.1499 5.35 23.1499 4.45 22.5499 3.85L20.1499 1.45zM21 14C20.1 14 19.5 14.6 19.5 15.5V19.5H4.5V4.5H9.5C10.4 4.5 11 3.9 11 3 11 2.1 10.4 1.5 9.5 1.5H3C2.1 1.5 1.5 2.1 1.5 3V21C1.5 21.9 2.1 22.5 3 22.5H21C21.9 22.5 22.5 21.9 22.5 21V15.5C22.5 14.6 21.9 14 21 14z"/></svg>