<svg xmlns="http://www.w3.org/2000/svg" fill="none" viewBox="0 0 37 24"><path fill="#FF4B55" d="M35.4699 23.9786H0.620301C0.274906 23.9786 0 23.6929 0 23.3501V0.650056C0 0.300056 0.281955 0.0214844 0.620301 0.0214844H35.4629C35.8083 0.0214844 36.0832 0.307199 36.0832 0.650056V23.3501C36.0902 23.7001 35.8083 23.9786 35.4699 23.9786Z"/><path fill="#73AF00" d="M13.0686 0.0214844H0.620301C0.274906 0.0214844 0 0.307199 0 0.650056V23.3501C0 23.7001 0.281955 23.9786 0.620301 23.9786H13.0686V0.0214844Z"/><path fill="#FFE15A" d="M13.0685 17.6715C16.1595 17.6715 18.6653 15.1323 18.6653 12C18.6653 8.8678 16.1595 6.32861 13.0685 6.32861C9.97745 6.32861 7.47168 8.8678 7.47168 12C7.47168 15.1323 9.97745 17.6715 13.0685 17.6715Z"/><path fill="#FF4B55" fill-rule="evenodd" d="M10.5876 8.8501H15.5641C15.9024 8.8501 16.1844 9.12867 16.1844 9.47867V12.6287C16.1844 14.3644 14.7887 15.7787 13.0758 15.7787C11.363 15.7787 9.96729 14.3715 9.96729 12.6287V9.47867C9.96729 9.13581 10.2422 8.8501 10.5876 8.8501ZM14.9366 12.6287V10.1072H11.2077V12.6287C11.2077 13.6715 12.0395 14.5215 13.0686 14.5215C14.0978 14.5215 14.9366 13.6715 14.9366 12.6287Z" clip-rule="evenodd"/><path fill="#FFE15A" d="M10.5802 9.79263C10.7515 9.79263 10.8903 9.65192 10.8903 9.47835 10.8903 9.30477 10.7515 9.16406 10.5802 9.16406 10.4089 9.16406 10.27 9.30477 10.27 9.47835 10.27 9.65192 10.4089 9.79263 10.5802 9.79263zM15.5568 9.79263C15.7281 9.79263 15.867 9.65192 15.867 9.47835 15.867 9.30477 15.7281 9.16406 15.5568 9.16406 15.3855 9.16406 15.2467 9.30477 15.2467 9.47835 15.2467 9.65192 15.3855 9.79263 15.5568 9.79263zM10.5802 12.3141C10.7515 12.3141 10.8903 12.1734 10.8903 11.9998 10.8903 11.8262 10.7515 11.6855 10.5802 11.6855 10.4089 11.6855 10.27 11.8262 10.27 11.9998 10.27 12.1734 10.4089 12.3141 10.5802 12.3141zM15.5568 12.3141C15.7281 12.3141 15.867 12.1734 15.867 11.9998 15.867 11.8262 15.7281 11.6855 15.5568 11.6855 15.3855 11.6855 15.2467 11.8262 15.2467 11.9998 15.2467 12.1734 15.3855 12.3141 15.5568 12.3141zM13.0685 9.79263C13.2398 9.79263 13.3786 9.65192 13.3786 9.47835 13.3786 9.30477 13.2398 9.16406 13.0685 9.16406 12.8972 9.16406 12.7583 9.30477 12.7583 9.47835 12.7583 9.65192 12.8972 9.79263 13.0685 9.79263zM14.9366 14.6426C15.1079 14.6426 15.2467 14.5019 15.2467 14.3283 15.2467 14.1548 15.1079 14.0141 14.9366 14.0141 14.7653 14.0141 14.6264 14.1548 14.6264 14.3283 14.6264 14.5019 14.7653 14.6426 14.9366 14.6426zM11.2359 14.6426C11.4072 14.6426 11.5461 14.5019 11.5461 14.3283 11.5461 14.1548 11.4072 14.0141 11.2359 14.0141 11.0646 14.0141 10.9258 14.1548 10.9258 14.3283 10.9258 14.5019 11.0646 14.6426 11.2359 14.6426z"/><path fill="#F5F5F5" d="M14.9366 10.1069V12.6284C14.9366 13.6712 14.0978 14.5212 13.0687 14.5212C12.0395 14.5212 11.2078 13.6712 11.2078 12.6284V10.1069H14.9366Z"/><path fill="#41479B" d="M13.4701 11.8427V12.3855C13.4701 12.6069 13.2868 12.7927 13.0683 12.7927 12.8498 12.7927 12.6665 12.6069 12.6665 12.3855V11.8427H13.4701zM13.4701 10.5498V11.0927C13.4701 11.3141 13.2868 11.4998 13.0683 11.4998 12.8498 11.4998 12.6665 11.3141 12.6665 11.0927V10.5498H13.4701zM13.4701 13.1427V13.6855C13.4701 13.907 13.2868 14.0927 13.0683 14.0927 12.8498 14.0927 12.6665 13.907 12.6665 13.6855V13.1427H13.4701zM14.5559 11.8427V12.3855C14.5559 12.6069 14.3726 12.7927 14.1541 12.7927 13.9356 12.7927 13.7523 12.6069 13.7523 12.3855V11.8427H14.5559zM12.3917 11.8427V12.3855C12.3917 12.6069 12.2084 12.7927 11.9899 12.7927 11.7714 12.7927 11.5881 12.6069 11.5881 12.3855V11.8427H12.3917z"/></svg>