<svg xmlns="http://www.w3.org/2000/svg" fill="none" viewBox="0 0 37 24"><path fill="#73AF00" d="M35.4699 23.9786H0.620301C0.274906 23.9786 0 23.6929 0 23.3501V0.650056C0 0.300056 0.281955 0.0214844 0.620301 0.0214844H35.4629C35.8083 0.0214844 36.0832 0.307199 36.0832 0.650056V23.3501C36.0902 23.7001 35.8083 23.9786 35.4699 23.9786Z"/><path fill="#fff" d="M12.9134 8.60717C12.575 8.60717 12.279 8.70717 12.0816 8.85717 12.0182 7.43574 11.8701 5.81432 11.8701 5.79289 11.856 5.65717 11.7362 5.55717 11.6023 5.57146 11.5459 5.5786 11.4895 5.60717 11.4542 5.64289L10.5872 6.07146C10.5449 6.0786 10.5097 6.10003 10.4745 6.1286 10.3969 6.19289 10.3687 6.30003 10.404 6.39289L10.7987 7.59289C10.8269 7.68574 10.8057 7.7786 10.7423 7.85003L10.7 7.89289C10.6366 7.95717 10.5379 7.97146 10.4604 7.93574 10.2982 7.85717 10.122 7.84289 9.95284 7.88574 9.91759 7.08574 9.83301 6.29289 9.64974 5.74289 9.60744 5.61432 9.46646 5.54289 9.33959 5.58574 9.21271 5.6286 7.53507 6.55003 7.40115 6.5786 7.26722 6.60717 7.18263 6.73574 7.21083 6.87146L7.47163 8.16431C7.47163 8.16431 7.23197 10.8143 7.21083 11.2215 7.18968 11.2857 7.04165 11.8929 7.21788 12.3643 7.33066 12.6715 7.49983 12.7429 7.62671 12.7572L8.34569 12.9429C8.86026 13.0072 9.28319 13.0143 9.73432 12.9929 10.0586 12.9929 10.3828 12.8929 10.693 12.7 11.5106 12.1857 12.1027 11.0715 12.1027 10.0429 12.1098 9.95003 12.1168 9.85003 12.1168 9.74289 12.3142 9.88574 12.6032 9.97146 12.9204 9.97146 13.5125 9.97146 13.9989 9.66431 13.9989 9.28574 13.9989 8.90717 13.5055 8.60717 12.9134 8.60717zM12.5889 7.56433C12.6453 7.56433 12.6946 7.55004 12.7369 7.51433L13.9705 6.52861C13.9846 6.51433 13.9987 6.50004 14.0128 6.47861 14.189 6.37147 14.3088 6.17147 14.3088 5.95004 14.3088 5.60718 14.0339 5.32861 13.6956 5.32861 13.3572 5.32861 13.0823 5.60718 13.0823 5.95004 13.0823 6.1429 13.1669 6.31433 13.3079 6.42861L12.4338 7.12147C12.3281 7.20718 12.3069 7.36433 12.3915 7.47147 12.4479 7.53576 12.5184 7.56433 12.5889 7.56433zM27.0533 11.7572C27.0886 11.7572 28.0543 11.5429 28.0543 11.5429 28.0543 11.5429 28.1177 11.5358 28.153 11.5215 28.2798 11.4643 28.3362 11.3215 28.2798 11.1929 28.0543 10.6643 27.6384 9.95719 27.1591 9.23576 27.0604 8.32148 26.9406 7.42862 26.8419 6.78576 26.8912 6.79291 26.6515 5.75005 26.6515 5.75005 26.5881 5.65005 24.2549 5.55719 24.1774 5.64291 24.1069 5.73576 24.1069 5.86434 24.1774 5.95719 24.1915 5.97148 24.7977 6.74291 25.5167 7.72862 25.6436 9.37148 25.7281 11.0786 25.6083 11.4358 25.5872 11.5001 25.5519 11.5786 25.5167 11.5786 25.3687 11.6001 25.0162 11.2643 24.84 10.9072 24.7343 10.7001 24.5933 10.6786 24.5087 10.6786 24.2479 10.6929 24.1421 10.9858 23.9518 11.5215 23.8179 11.9072 23.6346 11.6429 23.6346 11.5072 23.6346 11.1358 23.1271 5.71434 23.1271 5.71434 23.0848 5.59291 22.965 5.52148 22.8452 5.55005 22.8452 5.55005 21.9006 5.57862 21.8724 5.58576 21.7526 5.61434 21.668 5.72862 21.6821 5.85005 21.8513 7.56434 22.1685 10.9072 22.1685 11.2929 22.1685 11.6358 21.5623 12.3143 20.5895 12.8072 20.4697 12.8715 20.4203 13.0143 20.4767 13.1429 20.519 13.2286 20.6036 13.2786 20.6952 13.2786 20.7305 13.2786 20.7728 13.2715 20.808 13.2501 21.6046 12.85 22.4575 12.1643 22.6266 11.5215H22.6548C22.6548 11.5286 22.6548 11.5286 22.6548 11.5358 22.7253 12.0429 22.9086 12.9143 23.3315 13.0572 23.3668 13.0715 23.684 13.0429 23.8109 12.9143 24.0787 12.6429 24.262 12.1286 24.4171 11.6715 24.4523 11.5715 24.4946 11.4501 24.5369 11.3429 24.7624 11.6786 25.1572 12.0929 25.5519 12.0572 25.6929 12.0501 25.9467 11.9715 26.0735 11.5715 26.2075 11.1715 26.8137 10.8572 26.8137 11.4643 26.8137 11.6501 26.9194 11.7572 27.0533 11.7572zM28.9213 10.45C28.7451 9.13575 28.16 5.70003 28.16 5.70003 28.0895 5.60718 27.9697 5.5786 27.864 5.62146 27.7582 5.66432 27.7018 5.7786 27.723 5.89289 27.73 5.92146 28.1671 8.47146 28.4349 10.5143 28.5406 11.2929 28.3856 11.9929 28.0331 12.3786 27.8076 12.6286 27.4974 12.7429 27.1309 12.7215 26.9969 12.7143 26.8771 12.8143 26.8701 12.9572 26.863 13.1 26.9617 13.2143 27.1027 13.2215 27.145 13.2215 27.1873 13.2286 27.2225 13.2286 27.6877 13.2286 28.0895 13.0572 28.3926 12.7286 28.8508 12.2215 29.0411 11.3929 28.9213 10.45zM25.3546 17.5429H10.1502C10.6436 18.0429 11.6234 18.2858 12.3564 18.2858 12.8851 18.2858 19.4688 18.2858 23.1483 18.2858V18.7858C23.1483 18.9215 23.2611 19.0358 23.395 19.0358H25.3546C25.7634 19.0358 26.0877 18.7 26.0877 18.2929 26.0877 17.8786 25.7634 17.5429 25.3546 17.5429zM14.8521 8.12147C15.1411 8.12147 15.3878 7.90719 15.4935 7.60004 15.6416 8.08576 15.9799 8.42862 16.3746 8.42862 16.6848 8.42862 16.9667 8.21433 17.1359 7.88576 17.3051 8.11433 17.5377 8.25005 17.7915 8.25005 18.0029 8.25005 18.7149 7.9429 18.7713 7.93576L19.8074 7.82862C19.8779 7.9429 19.9555 8.05719 20.026 8.17147 20.1317 9.22862 20.2163 10.5786 20.2163 12.0572 20.2163 12.1929 20.3291 12.3072 20.463 12.3072 20.5758 12.2858 21.9573 10.8358 21.908 10.7072 21.5979 9.87147 21.041 8.87147 20.4912 7.98576 20.3573 6.65004 20.2092 5.80004 20.2022 5.77862 20.181 5.6429 20.0471 5.55004 19.9202 5.57862 19.8004 5.60004 18.5175 5.56433 18.1087 5.61433 18.01 5.56433 17.9042 5.5429 17.7985 5.5429 17.4884 5.5429 17.2064 5.75719 17.0372 6.08576 16.8681 5.85719 16.6354 5.72147 16.3817 5.72147 15.9165 5.72147 15.5288 6.1929 15.4442 6.82147 15.3173 6.5929 15.1058 6.43576 14.8591 6.43576 14.4785 6.43576 14.1613 6.81433 14.1613 7.27862 14.1542 7.7429 14.4714 8.12147 14.8521 8.12147zM19.948 10.15C19.8846 10.1072 19.807 10.0643 19.7295 10.0643 19.7295 10.0643 19.1515 10.1572 19.2713 9.85718 19.3136 9.75004 19.3559 9.5429 19.1797 9.30004 19.0175 9.07861 18.7779 8.93575 18.5594 9.02861 16.4659 9.90718 14.5697 9.2429 14.5486 9.25004 14.4428 9.2929 14.3159 9.40718 14.3159 9.6929 14.3159 9.82147 14.3723 9.95004 14.4287 10.0929 14.5415 10.3572 14.4499 10.5072 14.3723 10.6643 13.9212 11.5143 12.2224 12.3429 11.7643 12.55 11.6444 12.6072 11.588 12.7572 11.6444 12.8786 11.6867 12.9715 11.7713 13.0215 11.87 13.0215 11.9052 13.0215 11.9405 13.0143 11.9687 13 12.1097 12.9358 12.7581 12.6286 13.4348 12.2072 13.5617 12.6358 13.8225 13.0215 14.323 13.0215 14.9081 13.0215 15.5777 12.5358 15.9654 11.8072 16.0147 11.8929 16.0641 11.9715 16.1275 12.0429 16.7478 12.7643 17.9532 12.7715 18.0025 12.7715 18.1364 12.7715 18.2422 12.6643 18.2492 12.5286 18.2563 12.3929 18.1505 12.2786 18.0237 12.2715 18.0237 12.2715 17.8263 12.25 17.7206 12.1215 17.6571 12.0429 17.6289 11.9358 17.643 11.7929 17.6712 11.4858 18.644 11.2572 19.5039 11.2429 19.6097 11.2429 19.6942 11.1786 19.7295 11.0786L19.9762 10.3786C20.0044 10.3 19.9903 10.2215 19.948 10.15z"/></svg>