<svg xmlns="http://www.w3.org/2000/svg" fill="none" viewBox="0 0 37 24"><path fill="#41479B" d="M35.4699 23.9786H0.620301C0.274906 23.9786 0 23.6929 0 23.3501V0.650056C0 0.300056 0.281955 0.0214844 0.620301 0.0214844H35.4629C35.8083 0.0214844 36.0832 0.307199 36.0832 0.650056V23.3501C36.0902 23.7001 35.8083 23.9786 35.4699 23.9786Z"/><path fill="#F5F5F5" d="M17.4248 0.0214844H16.3463L10.5804 3.85006V0.0214844H7.4718V3.85006L1.70583 0.0214844H0.620301C0.274906 0.0214844 0 0.307199 0 0.650056V1.15006L4.94831 4.43577H0V7.58577H4.94831L0 10.8715V11.3715C0 11.7215 0.281955 12.0001 0.620301 12.0001H1.69878L7.46476 8.17148V12.0001H10.5733V8.17148L16.3393 12.0001H17.4178C17.7632 12.0001 18.0381 11.7143 18.0381 11.3715V10.8715L13.0898 7.58577H18.0451V4.43577H13.0968L18.0451 1.15006V0.650056C18.0451 0.300056 17.7632 0.0214844 17.4248 0.0214844Z"/><path fill="#FF4B55" d="M18.0451 5.06434H9.95301V.0214844H8.09211V5.06434H0V6.9572H8.09211V12.0001H9.95301V6.9572H18.0451V5.06434zM6.84446 4.43576L.296053.128617C.119831.23576 0 .428617 0 .650046V.68576L5.70254 4.43576H6.84446zM11.7221 4.43577L17.9533.33577C17.8476.150056 17.6573.0214844 17.4246.0214844H17.2907L10.5802 4.43577H11.7221zM6.30888 7.58577L.0917746 11.6786C.197508 11.8715.394876 12.0001.627489 12.0001H.74732L7.45785 7.58577H6.30888zM18.0381 11.4215L12.2087 7.58577H11.0668L17.6857 11.9358C17.8831 11.8429 18.017 11.6501 18.0381 11.4215zM30.437 12.0788H23.6701V9.54306C23.6701 8.75021 23.6137 8.91449 24.2904 8.91449H29.8167C30.5004 8.91449 30.437 8.85021 30.437 9.54306V12.0788z"/><path fill="#FFE15A" d="M27.1169 7.82137C27.911 7.82137 28.5548 7.07305 28.5548 6.14995 28.5548 5.22684 27.911 4.47852 27.1169 4.47852 26.3227 4.47852 25.6789 5.22684 25.6789 6.14995 25.6789 7.07305 26.3227 7.82137 27.1169 7.82137zM32.5236 17.1857L31.9244 16.3214C31.9174 16.3214 31.7835 16.4142 31.579 16.4857 31.7976 16.15 31.9879 15.7928 32.1359 15.4142L31.1702 15.0285C30.994 15.4714 30.7543 15.8785 30.4583 16.2428 30.2116 16.0071 30.0283 15.6714 29.8944 15.3571L29.2318 16.3571C29.3727 16.5928 29.5349 16.8 29.704 16.9714 28.9639 17.5357 28.0405 17.8785 27.0466 17.8785 26.0527 17.8785 25.1364 17.5428 24.4033 16.9857 24.5654 16.8285 24.7064 16.6428 24.8333 16.4214 24.8826 16.3428 24.2623 15.2357 24.2623 15.2357 24.1284 15.5785 23.924 15.9785 23.642 16.25 23.346 15.8857 23.1063 15.4785 22.9301 15.0285L21.9644 15.4142C22.1124 15.7928 22.2957 16.15 22.5142 16.4785 22.3168 16.4071 22.1829 16.3214 22.1829 16.3214L21.5837 17.1857C21.6119 17.2071 22.1829 17.6142 22.9301 17.6142 23.0922 17.6142 23.2614 17.5928 23.4305 17.5428 24.3962 18.4071 25.658 18.9357 27.0466 18.9357 28.4352 18.9357 29.697 18.4071 30.6627 17.5428 30.8389 17.5928 31.0081 17.6142 31.1702 17.6142 31.9244 17.6142 32.4954 17.2071 32.5236 17.1857z"/><path fill="#F5F5F5" fill-rule="evenodd" d="M28.8159 8.72125H30.1764C30.4301 8.72125 30.6346 8.92839 30.6346 9.18553V12.5212C30.6275 12.7427 30.6064 13.0855 30.5359 13.5141C30.4724 13.8784 30.3878 14.2355 30.2821 14.5712C30.1129 15.0927 29.9015 15.5641 29.6336 15.9784C29.4362 16.2855 29.2107 16.5641 28.964 16.7998C28.4424 17.2927 27.815 17.6427 27.1031 17.8212L27.0537 17.8355L27.0044 17.8212C26.2854 17.6427 25.658 17.2998 25.1435 16.7998C24.8897 16.557 24.6712 16.2855 24.4738 15.9784C24.206 15.5641 23.9875 15.0927 23.8253 14.5712C23.7196 14.2355 23.635 13.8784 23.5716 13.5141C23.5011 13.0855 23.4799 12.7355 23.4729 12.5212V9.18553C23.4729 8.92839 23.6773 8.72125 23.9311 8.72125H25.4325C25.3831 8.55696 25.7285 7.82125 25.8977 7.82125L28.6256 7.49268L28.6961 8.49982C28.7384 8.54268 28.7736 8.59268 28.7948 8.65696L28.8159 8.72125ZM30.4371 9.17125C30.4371 9.02839 30.3172 8.90696 30.1763 8.90696H25.6368L25.4958 8.91411V8.90696H23.931C23.79 8.90696 23.6701 9.02839 23.6701 9.17125V11.5498C23.9521 11.5498 24.0931 11.6784 24.2341 11.807C24.375 11.9355 24.516 12.0641 24.798 12.0641C25.0799 12.0641 25.2209 11.9355 25.3619 11.807C25.5029 11.6784 25.6438 11.5498 25.9258 11.5498C26.2077 11.5498 26.3487 11.6784 26.4897 11.807C26.6307 11.9355 26.7717 12.0641 27.0536 12.0641C27.3356 12.0641 27.4765 11.9355 27.6175 11.807C27.7585 11.6784 27.8995 11.5498 28.1814 11.5498C28.4633 11.5498 28.6043 11.6801 28.7443 11.8095C28.8845 11.939 29.0237 12.0677 29.3022 12.0641C29.5842 12.0641 29.7251 11.9355 29.8661 11.807C30.0071 11.6784 30.1481 11.5498 30.43 11.5498V12.507C30.1481 12.507 30.0071 12.6355 29.8661 12.7641C29.7251 12.8927 29.5842 13.0213 29.3022 13.0213C29.0202 13.0213 28.8793 12.8927 28.7383 12.7641C28.5973 12.6355 28.4563 12.507 28.1744 12.507C27.8924 12.507 27.7514 12.6355 27.6105 12.7641C27.4695 12.8927 27.3285 13.0213 27.0466 13.0213C26.7646 13.0213 26.6236 12.8927 26.4826 12.7641C26.3417 12.6355 26.2007 12.507 25.9187 12.507C25.6368 12.507 25.4958 12.6355 25.3548 12.7641C25.2138 12.8927 25.0729 13.0213 24.7909 13.0213C24.5125 13.0213 24.3715 12.8927 24.2305 12.7641C24.0896 12.6355 23.9486 12.507 23.6701 12.507C23.6772 12.7355 23.7054 13.0713 23.7688 13.4641C23.8252 13.7784 23.9028 14.1284 24.0155 14.4927C24.1636 14.9427 24.3609 15.4141 24.6429 15.8498C24.8262 16.1284 25.0376 16.3927 25.2843 16.6355C25.7355 17.0713 26.3135 17.4284 27.0536 17.6141C27.7937 17.4284 28.3717 17.0784 28.8229 16.6427C29.0766 16.3998 29.2881 16.1355 29.4643 15.857C29.7463 15.4213 29.9507 14.9498 30.0917 14.4998C30.2115 14.1355 30.289 13.7855 30.3384 13.4713C30.4018 13.0713 30.43 12.7355 30.4371 12.507V9.17125Z" clip-rule="evenodd"/><path fill="#73AF00" d="M25.4676 14.4641C26.0398 14.4641 26.5038 13.994 26.5038 13.4141 26.5038 12.8342 26.0398 12.3641 25.4676 12.3641 24.8953 12.3641 24.4314 12.8342 24.4314 13.4141 24.4314 13.994 24.8953 14.4641 25.4676 14.4641zM28.6183 14.4641C29.1906 14.4641 29.6545 13.994 29.6545 13.4141 29.6545 12.8342 29.1906 12.3641 28.6183 12.3641 28.0461 12.3641 27.5821 12.8342 27.5821 13.4141 27.5821 13.994 28.0461 14.4641 28.6183 14.4641zM27.0537 16.6498C27.6259 16.6498 28.0899 16.1797 28.0899 15.5998 28.0899 15.0199 27.6259 14.5498 27.0537 14.5498 26.4814 14.5498 26.0175 15.0199 26.0175 15.5998 26.0175 16.1797 26.4814 16.6498 27.0537 16.6498zM29.0553 7.25695C29.0553 6.72838 28.2024 6.2998 27.1592 6.2998 26.4684 6.2998 25.8622 6.48552 25.5309 6.76409 25.5098 6.53552 25.3124 6.3498 25.0798 6.3498 24.8331 6.3498 24.6286 6.55695 24.6286 6.80695 24.6286 7.05695 24.8331 7.26409 25.0798 7.26409 25.1432 7.26409 25.2067 7.2498 25.263 7.22838 25.263 7.23552 25.263 7.24266 25.263 7.25695 25.263 7.49266 25.4322 7.70695 25.7142 7.87123 25.6437 7.94266 25.6014 8.04266 25.6014 8.16409 25.6014 8.37837 25.7494 8.5498 25.9256 8.5498 26.1019 8.5498 26.2499 8.37837 26.2499 8.16409 26.2499 8.13552 26.2499 8.11409 26.2428 8.09266 26.5177 8.17123 26.8279 8.21409 27.1662 8.21409 27.4411 8.21409 27.709 8.18552 27.9416 8.12837 27.9416 8.14266 27.9416 8.15695 27.9416 8.16409 27.9416 8.37837 28.0896 8.5498 28.2659 8.5498 28.4421 8.5498 28.5901 8.37837 28.5901 8.16409 28.5901 8.07123 28.5619 7.99266 28.5196 7.92837 28.8439 7.75695 29.0553 7.52123 29.0553 7.25695z"/></svg>