<svg xmlns="http://www.w3.org/2000/svg" fill="none" viewBox="0 0 37 24"><path fill="#F5F5F5" d="M35.4699 23.9786H0.620301C0.274906 23.9786 0 23.6929 0 23.3501V0.650056C0 0.300056 0.281955 0.0214844 0.620301 0.0214844H35.4629C35.8083 0.0214844 36.0832 0.307199 36.0832 0.650056V23.3501C36.0902 23.7001 35.8083 23.9786 35.4699 23.9786Z"/><path fill="#FF4B55" d="M36.0902 10.1072H19.9131V.0214844H16.1772V10.1072H0V13.8929H16.1772V23.9786H19.9131V13.8929H36.0902V10.1072zM10.5804 4.20005C9.96718 4.26434 9.36097 4.32862 8.75477 4.38577 8.81821 3.77148 8.88165 3.16434 8.93804 2.53577 8.37413 2.60719 7.80317 2.60719 7.23926 2.53577 7.3027 3.15719 7.36614 3.77148 7.42253 4.38577 6.81633 4.32148 6.21718 4.25719 5.59688 4.20005 5.66737 4.77148 5.66737 5.35005 5.59688 5.92148 6.21013 5.85719 6.81633 5.79291 7.42253 5.73577 7.35909 6.35005 7.29565 6.95719 7.23926 7.58577 7.80317 7.51434 8.37413 7.51434 8.93804 7.58577 8.8746 6.96434 8.81116 6.35005 8.75477 5.73577 9.36097 5.80005 9.96013 5.86434 10.5804 5.92148 10.5029 5.35005 10.5029 4.77862 10.5804 4.20005zM30.4937 4.20005C29.8804 4.26434 29.2742 4.32862 28.668 4.38577 28.7315 3.77148 28.7949 3.16434 28.8513 2.53577 28.2874 2.60719 27.7164 2.60719 27.1525 2.53577 27.2159 3.15719 27.2794 3.77148 27.3358 4.38577 26.7296 4.32148 26.1304 4.25719 25.5101 4.20005 25.5806 4.77148 25.5806 5.35005 25.5101 5.92148 26.1234 5.85719 26.7296 5.79291 27.3358 5.73577 27.2723 6.35005 27.2089 6.95719 27.1525 7.58577 27.7164 7.51434 28.2874 7.51434 28.8513 7.58577 28.7878 6.96434 28.7244 6.35005 28.668 5.73577 29.2742 5.80005 29.8734 5.86434 30.4937 5.92148 30.4161 5.35005 30.4161 4.77862 30.4937 4.20005zM10.5804 18.0715C9.96718 18.1358 9.36097 18.2001 8.75477 18.2572 8.81821 17.6429 8.88165 17.0358 8.93804 16.4072 8.37413 16.4786 7.80317 16.4786 7.23926 16.4072 7.3027 17.0286 7.36614 17.6429 7.42253 18.2572 6.81633 18.1929 6.21718 18.1286 5.59688 18.0715 5.66737 18.6429 5.66737 19.2215 5.59688 19.7929 6.21013 19.7286 6.81633 19.6643 7.42253 19.6072 7.35909 20.2215 7.29565 20.8286 7.23926 21.4572 7.80317 21.3858 8.37413 21.3858 8.93804 21.4572 8.8746 20.8358 8.81116 20.2215 8.75477 19.6072 9.36097 19.6715 9.96013 19.7358 10.5804 19.7929 10.5029 19.2286 10.5029 18.6501 10.5804 18.0715zM30.4937 18.0715C29.8804 18.1358 29.2742 18.2001 28.668 18.2572 28.7315 17.6429 28.7949 17.0358 28.8513 16.4072 28.2874 16.4786 27.7164 16.4786 27.1525 16.4072 27.2159 17.0286 27.2794 17.6429 27.3358 18.2572 26.7296 18.1929 26.1304 18.1286 25.5101 18.0715 25.5806 18.6429 25.5806 19.2215 25.5101 19.7929 26.1234 19.7286 26.7296 19.6643 27.3358 19.6072 27.2723 20.2215 27.2089 20.8286 27.1525 21.4572 27.7164 21.3858 28.2874 21.3858 28.8513 21.4572 28.7878 20.8358 28.7244 20.2215 28.668 19.6072 29.2742 19.6715 29.8734 19.7358 30.4937 19.7929 30.4161 19.2286 30.4161 18.6501 30.4937 18.0715z"/></svg>