<svg xmlns="http://www.w3.org/2000/svg" fill="none" viewBox="0 0 37 24"><path fill="#73AF00" d="M0 12H36.09V17.993000000000002H0z"/><path fill="#F5F5F5" d="M0 6.007H36.09V12H0z"/><path fill="#41479B" d="M36.0902 6.0072H0V0.650056C0 0.300056 0.281955 0.0214844 0.620301 0.0214844H35.4629C35.8083 0.0214844 36.0832 0.307199 36.0832 0.650056L36.0902 6.0072Z"/><path fill="#FFE15A" d="M35.4699 23.9784H.620301C.274906 23.9784 0 23.6927 0 23.3498V17.9927H36.0902V23.3498C36.0902 23.6998 35.8083 23.9784 35.4699 23.9784zM5.39237.828376L5.91399 2.40695 7.55637 2.42123C7.68325 2.42123 7.73964 2.58552 7.63391 2.66409L6.31577 3.6498 6.80919 5.23552C6.84444 5.35695 6.71051 5.45695 6.60478 5.38552L5.27254 4.42123 3.9403 5.38552C3.83457 5.45695 3.70064 5.35695 3.73589 5.23552L4.22931 3.6498 2.91117 2.66409C2.80544 2.58552 2.86183 2.42123 2.98871 2.42123L4.63109 2.40695 5.15271.828376C5.1809.706948 5.35008.706948 5.39237.828376z"/><path fill="#FF4B55" d="M15.092 0.021H21.006V23.985H15.092z"/></svg>