<svg xmlns="http://www.w3.org/2000/svg" fill="none" viewBox="0 0 37 24"><path fill="#4173CD" d="M36.0902 8.0072H0V.650056C0 .300056.281955.0214844.620301.0214844H35.4629C35.8083.0214844 36.0832.307199 36.0832.650056L36.0902 8.0072zM35.4699 23.9786H.620301C.274906 23.9786 0 23.6929 0 23.3501V15.9929H36.0902V23.3501C36.0902 23.7001 35.8083 23.9786 35.4699 23.9786z"/><path fill="#F5F5F5" d="M0 8.007H36.09V15.992999999999999H0z"/><path fill="#4173CD" d="M18.1365 10.9713L18.3621 11.6499 19.067 11.657C19.1586 11.657 19.1939 11.7785 19.1234 11.8285L18.5595 12.2499 18.7709 12.9285C18.7991 13.0142 18.7004 13.0928 18.6229 13.0356L18.0519 12.6213 17.481 13.0356C17.4034 13.0928 17.3048 13.0142 17.333 12.9285L17.5444 12.2499 16.9805 11.8285C16.91 11.7713 16.9453 11.657 17.0369 11.657L17.7418 11.6499 17.9674 10.9713C17.9815 10.8856 18.1083 10.8856 18.1365 10.9713zM11.7788 12.7856L12.0044 13.4642 12.7092 13.4713C12.8009 13.4713 12.8361 13.5928 12.7656 13.6428L12.2017 14.0642 12.4132 14.7428C12.4414 14.8285 12.3427 14.9071 12.2652 14.8499L11.6942 14.4356 11.1232 14.8499C11.0457 14.9071 10.947 14.8285 10.9752 14.7428L11.1867 14.0642 10.6228 13.6428C10.5523 13.5856 10.5875 13.4713 10.6792 13.4713L11.3841 13.4642 11.6096 12.7856C11.6308 12.6999 11.7506 12.6999 11.7788 12.7856zM11.7788 9.15705L12.0044 9.83562 12.7092 9.84276C12.8009 9.84276 12.8361 9.96419 12.7656 10.0142L12.2017 10.4356 12.4132 11.1142C12.4414 11.1999 12.3427 11.2785 12.2652 11.2213L11.6942 10.807 11.1232 11.2213C11.0457 11.2785 10.947 11.1999 10.9752 11.1142L11.1867 10.4356 10.6228 10.0142C10.5523 9.95705 10.5875 9.84276 10.6792 9.84276L11.3841 9.83562 11.6096 9.15705C11.6308 9.06419 11.7506 9.06419 11.7788 9.15705zM24.4876 12.7856L24.7132 13.4642 25.418 13.4713C25.5097 13.4713 25.5449 13.5928 25.4744 13.6428L24.9105 14.0642 25.122 14.7428C25.1502 14.8285 25.0515 14.9071 24.974 14.8499L24.403 14.4356 23.832 14.8499C23.7545 14.9071 23.6558 14.8285 23.684 14.7428L23.8955 14.0642 23.3316 13.6428C23.2611 13.5856 23.2963 13.4713 23.388 13.4713L24.0929 13.4642 24.3184 12.7856C24.3396 12.6999 24.4594 12.6999 24.4876 12.7856zM24.4876 9.15705L24.7132 9.83562 25.418 9.84276C25.5097 9.84276 25.5449 9.96419 25.4744 10.0142L24.9105 10.4356 25.122 11.1142C25.1502 11.1999 25.0515 11.2785 24.974 11.2213L24.403 10.807 23.832 11.2213C23.7545 11.2785 23.6558 11.1999 23.684 11.1142L23.8955 10.4356 23.3316 10.0142C23.2611 9.95705 23.2963 9.84276 23.388 9.84276L24.0929 9.83562 24.3184 9.15705C24.3396 9.06419 24.4594 9.06419 24.4876 9.15705z"/></svg>