<svg xmlns="http://www.w3.org/2000/svg" viewBox="0 0 24 24"><path fill="currentColor" d="M20 5C20 6.65685 18.6569 8 17 8 15.3431 8 14 6.65685 14 5 14 3.34315 15.3431 2 17 2 18.6569 2 20 3.34315 20 5zM22.0596 16C22.6184 16 23.0803 15.5489 22.9882 15.0042 22.5082 12.1644 20.0099 10 17 10 14.976 10 13.1833 10.9787 12.0801 12.4833 14.0635 13.1248 15.7756 14.369 17.0007 16H22.0596zM13 8C13 10.2091 11.2091 12 9 12 6.79086 12 5 10.2091 5 8 5 5.79086 6.79086 4 9 4 11.2091 4 13 5.79086 13 8z"/><path fill="currentColor" fill-rule="evenodd" d="M16.9932 21.002C17.0618 21.55 16.6044 22 16.0483 22H1.95168C1.39558 22 0.938174 21.55 1.00685 21.002C1.50145 17.0547 4.89153 14 9 14C13.1085 14 16.4985 17.0547 16.9932 21.002Z" clip-rule="evenodd"/></svg>