<svg xmlns="http://www.w3.org/2000/svg" viewBox="0 0 24 24"><path fill="currentColor" d="M17.8536 3.85355C17.6583 3.65829 17.6583 3.34171 17.8536 3.14645L19.379 1.621C20.207.793 21.551.793 22.379 1.621 23.203 2.445 23.21 3.79 22.379 4.621L20.8536 6.14645C20.6583 6.34171 20.3417 6.34171 20.1464 6.14645L17.8536 3.85355zM15.5 21.25C15.5 22.0784 14.8284 22.75 14 22.75 13.1716 22.75 12.5 22.0784 12.5 21.25 12.5 20.4216 13.1716 19.75 14 19.75 14.8284 19.75 15.5 20.4216 15.5 21.25zM23 21.25C23 21.8023 22.5523 22.25 22 22.25 21.4477 22.25 21 21.8023 21 21.25 21 20.6977 21.4477 20.25 22 20.25 22.5523 20.25 23 20.6977 23 21.25zM19.5 21.25C19.5 21.9404 18.9404 22.5 18.25 22.5 17.5596 22.5 17 21.9404 17 21.25 17 20.5596 17.5596 20 18.25 20 18.9404 20 19.5 20.5596 19.5 21.25zM23 16.75C23 17.3023 22.5523 17.75 22 17.75 21.4477 17.75 21 17.3023 21 16.75 21 16.1977 21.4477 15.75 22 15.75 22.5523 15.75 23 16.1977 23 16.75zM19.5 16.75C19.5 17.4404 18.9404 18 18.25 18 17.5596 18 17 17.4404 17 16.75 17 16.0596 17.5596 15.5 18.25 15.5 18.9404 15.5 19.5 16.0596 19.5 16.75zM23 12.25C23 12.8023 22.5523 13.25 22 13.25 21.4477 13.25 21 12.8023 21 12.25 21 11.6977 21.4477 11.25 22 11.25 22.5523 11.25 23 11.6977 23 12.25zM19.5 12.25C19.5 12.9404 18.9404 13.5 18.25 13.5 17.5596 13.5 17 12.9404 17 12.25 17 11.5596 17.5596 11 18.25 11 18.9404 11 19.5 11.5596 19.5 12.25zM14.602 4.21967C14.8949 3.92678 15.3698 3.92678 15.6627 4.21967L19.7803 8.33732C20.0732 8.63021 20.0732 9.10508 19.7803 9.39798L13.9266 15.2518C13.9509 15.2506 13.9754 15.25 14 15.25 14.8284 15.25 15.5 15.9216 15.5 16.75 15.5 17.5784 14.8284 18.25 14 18.25 13.1716 18.25 12.5 17.5784 12.5 16.75 12.5 16.7254 12.5006 16.7009 12.5018 16.6766L9.63568 19.5426C10.4166 19.7183 11 20.416 11 21.25 11 22.2165 10.2165 23 9.25 23 8.41602 23 7.71829 22.4166 7.54264 21.6357L7.4274 21.7509C7.3227 21.8556 7.18935 21.927 7.04416 21.956L1.8971 22.9854C1.6512 23.0346 1.397 22.9576 1.21968 22.7803 1.04236 22.603.965398 22.3488 1.01458 22.1029L2.04399 16.9559C2.07303 16.8107 2.14439 16.6773 2.24909 16.5726L14.602 4.21967z"/></svg>