<svg xmlns="http://www.w3.org/2000/svg" viewBox="0 0 24 24"><g fill="currentColor" clip-path="url(#clip0_970_5484)"><path fill-rule="evenodd" d="M5.25 0C4.83579 0 4.5.335786 4.5.75V4.5H.75C.335786 4.5 0 4.83579 0 5.25 0 5.66421.335786 6 .75 6H4.5V9.75C4.5 10.1642 4.83579 10.5 5.25 10.5H9.75C10.1642 10.5 10.5 10.1642 10.5 9.75V.75C10.5.335786 10.1642 0 9.75 0H5.25zM6 9H9V1.5H6V9zM19.5 14.25V18H23.25C23.6642 18 24 18.3358 24 18.75 24 19.1642 23.6642 19.5 23.25 19.5H19.5V23.25C19.5 23.6642 19.1642 24 18.75 24H14.25C13.8358 24 13.5 23.6642 13.5 23.25V14.25C13.5 13.8358 13.8358 13.5 14.25 13.5H18.75C19.1642 13.5 19.5 13.8358 19.5 14.25zM18 15V22.5H15V15H18z" clip-rule="evenodd"/><path d="M13.5 5.25C13.5 4.83579 13.8358 4.5 14.25 4.5H23.25C23.6642 4.5 24 4.83579 24 5.25 24 5.66421 23.6642 6 23.25 6H14.25C13.8358 6 13.5 5.66421 13.5 5.25zM.75 18C.335786 18 0 18.3358 0 18.75 0 19.1642.335786 19.5.75 19.5H9.75C10.1642 19.5 10.5 19.1642 10.5 18.75 10.5 18.3358 10.1642 18 9.75 18H.75z"/></g></svg>