<svg xmlns="http://www.w3.org/2000/svg" viewBox="0 0 25 24"><path fill="currentColor" d="M.670279 23.448C.0844936 22.8622.0844917 21.9125.670279 21.3267L20.3137 1.68328C20.8995 1.09749 21.8492 1.09749 22.435 1.68328 23.0208 2.26907 23.0208 3.21881 22.435 3.8046L18.7099 7.52967 22.7132 8.11338C22.9905 8.1533 23.251 8.27036 23.4654 8.4513 23.6798 8.63224 23.8394 8.86984 23.9262 9.13717 24.013 9.4045 24.0235 9.69089 23.9564 9.9639 23.8894 10.2369 23.7476 10.4856 23.547 10.6819L18.8636 15.2663 19.9688 21.7402C20.0161 22.0171 19.9852 22.3017 19.8798 22.5619 19.7743 22.8221 19.5984 23.0475 19.3721 23.2125 19.1457 23.3776 18.8778 23.4759 18.5987 23.4961 18.3196 23.5163 18.0405 23.4578 17.7928 23.327L11.9995 20.2693 6.20926 23.324C5.9616 23.4548 5.68244 23.5133 5.40335 23.4931 5.12427 23.4728 4.85638 23.3746 4.63 23.2095 4.40361 23.0444 4.22774 22.8191 4.12228 22.5589 4.07687 22.4468 4.0453 22.3303 4.02784 22.2118L2.7916 23.448C2.20581 24.0338 1.25607 24.0338.670279 23.448zM.451998 10.6819L3.79974 13.9545 14.378 3.37629 13.3492 1.27966C13.2119 1.04248 13.015.845646 12.7781.708827 12.5413.572008 12.2728.5 11.9995.5 11.7263.5 11.4578.572008 11.2209.708827 10.9841.845646 10.7871 1.04248 10.6498 1.27966L7.75993 7.16789 1.28582 8.11338 1.28282 8.11489C1.00614 8.15548.746269 8.27292.532558 8.45396.31885 8.63498.159809 8.87239.0734005 9.13937-.01301 9.40635-.0233479 9.69226.0435524 9.96483.110451 10.2374.251926 10.4858.451998 10.6819z"/></svg>