<svg xmlns="http://www.w3.org/2000/svg" viewBox="0 0 24 24"><path fill="currentColor" d="M10 2.5C5.85786 2.5 2.5 5.85786 2.5 10 2.5 14.1421 5.85786 17.5 10 17.5 10.1182 17.5 10.2358 17.4973 10.3528 17.4918 9.8244 17.9181 9.34523 18.403 8.92512 18.9365 4.46128 18.4052 1 14.6068 1 10 1 5.02944 5.02944 1 10 1 13.7291 1 16.9284 3.26795 18.294 6.49978 17.6967 6.22531 17.0418 6.05471 16.3524 6.01111 15.0251 3.90175 12.6763 2.5 10 2.5zM10 5.25C9.58579 5.25 9.25 5.58579 9.25 6V9.75H5.5C5.08579 9.75 4.75 10.0858 4.75 10.5 4.75 10.9142 5.08579 11.25 5.5 11.25H10C10.4142 11.25 10.75 10.9142 10.75 10.5V6C10.75 5.58579 10.4142 5.25 10 5.25z"/><path fill="currentColor" fill-rule="evenodd" d="M20 11.5C20 13.7091 18.2091 15.5 16 15.5 13.7909 15.5 12 13.7091 12 11.5 12 9.29086 13.7909 7.5 16 7.5 18.2091 7.5 20 9.29086 20 11.5zM18.5 11.5C18.5 12.8807 17.3807 14 16 14 14.6193 14 13.5 12.8807 13.5 11.5 13.5 10.1193 14.6193 9 16 9 17.3807 9 18.5 10.1193 18.5 11.5zM22.0636 23C22.6159 23 23.0886 22.5421 22.9831 22 22.4305 19.1594 19.454 17 15.9832 17 12.5123 17 9.56744 19.1653 9.01483 22.0058 8.90936 22.548 9.38213 23 9.93441 23H22.0636zM21.0149 21.5H10.9831C11.7039 19.7522 13.6973 18.5 15.9832 18.5 18.269 18.5 20.2942 19.7522 21.0149 21.5z" clip-rule="evenodd"/></svg>