<svg xmlns="http://www.w3.org/2000/svg" viewBox="0 0 24 24"><path fill="currentColor" fill-rule="evenodd" d="M1.29251 0.221759C0.996829 -0.0739198 0.517439 -0.0739198 0.221759 0.221759C-0.0739198 0.517439 -0.0739198 0.996829 0.221759 1.29251L22.7075 23.7782C23.0032 24.0739 23.4826 24.0739 23.7782 23.7782C24.0739 23.4826 24.0739 23.0032 23.7782 22.7075L17 15.9293V15.5294L22.6672 17.5296C23.3178 17.7592 24 17.2766 24 16.5866V7.4134C24 6.72344 23.3178 6.24078 22.6672 6.47041L17 8.47059V5C17 3.89543 16.1046 3 15 3H4.07075L1.29251 0.221759ZM5.57075 4.5L15.5 14.4293V5C15.5 4.72386 15.2761 4.5 15 4.5H5.57075ZM22.5 15.8799L17 13.9387V10.0613L22.5 8.1201V15.8799Z" clip-rule="evenodd"/><path fill="currentColor" d="M1.30385e-08 5C1.30385e-08 4.72559 0.055264 4.46409 0.155269 4.22602L1.5 5.57075V19C1.5 19.2761 1.72386 19.5 2 19.5H15C15.1201 19.5 15.2302 19.4577 15.3164 19.3872L16.3784 20.4491C16.0196 20.7905 15.5343 21 15 21H2C0.89543 21 1.30385e-08 20.1046 1.30385e-08 19V5Z"/></svg>