<svg xmlns="http://www.w3.org/2000/svg" viewBox="0 0 24 24"><path fill="currentColor" d="M12.7196 5.13172C12.7196 4.68987 12.3614 4.3317 11.9196 4.33173C11.4777 4.33175 11.1196 4.68983 11.1196 5.13168L11.1196 11.1199L5.13136 11.1199C4.68954 11.1199 4.33137 11.4781 4.33137 11.9199C4.33137 12.3618 4.68954 12.7199 5.13136 12.7199L11.1196 12.7199L11.1196 18.7082C11.1196 19.15 11.4777 19.5081 11.9196 19.5081C12.3614 19.5081 12.7196 19.15 12.7196 18.7081L12.7196 12.7199L18.7078 12.7199C19.1497 12.7199 19.5078 12.3618 19.5078 11.9199C19.5078 11.4781 19.1497 11.12 18.7078 11.12L12.7196 11.1199L12.7196 5.13172Z"/><path fill="currentColor" fill-rule="evenodd" d="M12 0C5.37258 0 0 5.37258 0 12C0 18.6274 5.37258 24 12 24C18.6274 24 24 18.6274 24 12C24 5.37258 18.6274 0 12 0ZM1.6 12C1.6 6.25625 6.25625 1.6 12 1.6C17.7438 1.6 22.4 6.25625 22.4 12C22.4 17.7438 17.7438 22.4 12 22.4C6.25625 22.4 1.6 17.7438 1.6 12Z" clip-rule="evenodd"/></svg>