<svg xmlns="http://www.w3.org/2000/svg" viewBox="0 0 24 24"><g fill="currentColor" clip-path="url(#clip0_966_79)"><path d="M6.75 0C8.4 0 9.9.6 10.95 1.5 6.15 1.95 2.25 5.25.6 9.6.3 8.7 0 7.8 0 6.75 0 3 3 0 6.75 0zM17.2499 0C15.5999 0 14.0999.6 13.0499 1.5 17.8499 1.95 21.8999 5.1 23.3999 9.6 23.6999 8.7 23.9999 7.8 23.9999 6.75 23.9999 3 20.9999 0 17.2499 0z"/><path fill-rule="evenodd" d="M19.35 18.75C20.4 17.25 21 15.45 21 13.5C21 8.55 16.95 4.5 12 4.5C7.05 4.5 3 8.55 3 13.5C3 15.45 3.6 17.25 4.65 18.75L1.95 21.45C1.35 22.05 1.35 22.95 1.95 23.55C2.25 23.85 2.55 24 3 24C3.45 24 3.75 23.85 4.05 23.55L6.75 20.85C8.25 21.9 10.05 22.5 12 22.5C13.95 22.5 15.75 21.9 17.25 20.85L19.95 23.55C20.25 23.85 20.7 24 21 24C21.3 24 21.75 23.85 22.05 23.55C22.65 22.95 22.65 22.05 22.05 21.45L19.35 18.75ZM10.5 15V9H13.5V12H16.5V15H10.5Z" clip-rule="evenodd"/></g></svg>