<svg xmlns="http://www.w3.org/2000/svg" viewBox="0 0 24 24"><g fill="currentColor" clip-path="url(#clip0_969_5778)"><path d="M0 1C0 .447715.447715 0 1 0H10C10.5523 0 11 .447715 11 1V10C11 10.5523 10.5523 11 10 11H1C.447715 11 0 10.5523 0 10V1zM13 1C13 .447715 13.4477 0 14 0H23C23.5523 0 24 .447715 24 1V10C24 10.5523 23.5523 11 23 11H14C13.4477 11 13 10.5523 13 10V1zM0 14C0 13.4477.447715 13 1 13H10C10.5523 13 11 13.4477 11 14V23C11 23.5523 10.5523 24 10 24H1C.447715 24 0 23.5523 0 23V14zM13 14C13 13.4477 13.4477 13 14 13H23C23.5523 13 24 13.4477 24 14V23C24 23.5523 23.5523 24 23 24H14C13.4477 24 13 23.5523 13 23V14z"/></g></svg>