<svg xmlns="http://www.w3.org/2000/svg" viewBox="0 0 24 24"><g fill="currentColor" clip-path="url(#clip0_969_6443)"><path d="M2.61446.448571C2.01637-.149524 1.04667-.149524.448571.448571-.149524 1.04667-.149524 2.01637.448571 2.61446L21.3855 23.5514C21.9836 24.1495 22.9533 24.1495 23.5514 23.5514 24.1495 22.9533 24.1495 21.9836 23.5514 21.3855L21.7015 19.5356C25.2843 14.2085 24.6784 6.96819 19.8846 2.28704 19.4976 1.90915 18.8645 1.90367 18.4704 2.27481 18.0764 2.64595 18.0707 3.25315 18.4577 3.63104 22.4688 7.54784 23.0734 13.5584 20.2716 18.1057L18.8867 16.7208C21.015 13.1012 20.497 8.39 17.3336 5.3009 16.9466 4.92301 16.3134 4.91753 15.9194 5.28867 15.5254 5.65981 15.5197 6.26701 15.9067 6.64491 18.2831 8.96544 18.7886 12.4445 17.4232 15.2573L15.9514 13.7855C16.6343 11.9405 16.2212 9.7883 14.7122 8.31476 14.3252 7.93687 13.6921 7.9314 13.2981 8.30253 12.904 8.67367 12.8983 9.28088 13.2853 9.65877 13.9683 10.3257 14.2962 11.2189 14.269 12.1031L10.9125 8.74665V3.45939C10.9125 3.04864 10.4092 2.82801 10.0853 3.09681L7.45005 5.28415 2.61446.448571zM2.98023e-8 9.97598C2.98023e-8 8.95153.739303 8.09646 1.72561 7.89151L10.9125 17.0784V20.5419C10.9125 20.9526 10.4092 21.1732 10.0853 20.9044L4.36502 16.1565H2.18251C.976673 16.1565 2.98023e-8 15.2028 2.98023e-8 14.0253V9.97598z"/></g></svg>