<svg xmlns="http://www.w3.org/2000/svg" viewBox="0 0 24 24"><path fill="currentColor" fill-rule="evenodd" d="M11.7476 5.95973C11.7476 2.73826 14.4858 0 17.8684 0 21.0899 0 23.9892 2.57718 23.9892 5.95973 23.9892 9.34228 21.2509 12.0805 17.8684 12.0805 14.4858 12.0805 11.7476 9.18121 11.7476 5.95973zM17.8684 1.44966C15.2912 1.44966 13.3583 3.54362 13.3583 5.95973 13.3583 6.92617 13.6805 7.89262 14.1637 8.53691L20.4456 2.25503C19.6402 1.77181 18.8348 1.44966 17.8684 1.44966zM15.2912 9.66443C16.0966 10.1477 16.902 10.4698 17.8684 10.4698 20.2845 10.4698 22.2174 8.53691 22.2174 6.12081 22.2174 5.15436 21.8952 4.18792 21.412 3.54362L15.2912 9.66443zM4.01626.805369H4.66056C5.627.805369 6.43237 1.28859 6.91559 1.93289 8.04311 3.54362 9.49277 5.63758 9.49277 7.08725 9.65385 8.53691 9.00955 9.50336 8.36526 10.1477 8.68741 10.953 9.3317 11.9195 10.6203 13.2081 11.6069 14.3356 12.5934 14.9698 13.1484 15.3266 13.2277 15.3775 13.2981 15.4228 13.3585 15.4631 13.8418 14.9799 14.4861 14.4966 15.4525 14.3356H16.2579C17.8686 14.3356 19.3183 15.1409 21.7344 17.0738 22.5398 17.7181 22.8619 18.8456 22.5398 20.1342 22.0565 21.906 20.6069 23.6779 18.3518 24H17.7075C14.6471 24 9.81492 21.2617 6.43237 17.7181 2.88875 13.8524.794787 10.3087.150492 6.92618-.493804 3.86577.955861 1.61074 4.01626.805369zM5.627 2.89933C5.46593 2.73826 5.14378 2.41611 4.66056 2.41611H4.33841C4.30928 2.42582 4.27137 2.43728 4.22602 2.451 3.5191 2.66481 1.00441 3.42538 1.76123 6.60403 2.40553 10.1477 4.82163 13.5302 7.72096 16.5906 10.9424 19.9732 15.2914 22.3893 17.8686 22.3893H18.3518C20.7679 21.906 21.7344 19.0067 20.929 18.3624 18.674 16.5906 17.5465 15.9463 16.4189 15.9463H15.9357C14.6471 16.1074 14.1639 17.396 14.1639 17.396 14.1639 17.396 11.9089 16.9128 9.49277 14.3356 6.75452 11.5973 6.43237 9.66443 6.43237 9.66443 7.39881 9.02013 7.88204 8.37584 7.88204 7.24832 7.88204 6.12081 6.11022 3.54362 5.627 2.89933z" clip-rule="evenodd"/></svg>