<svg xmlns="http://www.w3.org/2000/svg" viewBox="0 0 24 24"><path fill="currentColor" d="M8.5 4C9.32843 4 10 3.32843 10 2.5 10 1.67157 9.32843 1 8.5 1 7.67157 1 7 1.67157 7 2.5 7 3.32843 7.67157 4 8.5 4zM11 8.5C11 9.88071 9.88071 11 8.5 11 7.11929 11 6 9.88071 6 8.5 6 7.11929 7.11929 6 8.5 6 9.88071 6 11 7.11929 11 8.5zM18 8.5C18 9.88071 16.8807 11 15.5 11 14.1193 11 13 9.88071 13 8.5 13 7.11929 14.1193 6 15.5 6 16.8807 6 18 7.11929 18 8.5zM8.5 18C9.88071 18 11 16.8807 11 15.5 11 14.1193 9.88071 13 8.5 13 7.11929 13 6 14.1193 6 15.5 6 16.8807 7.11929 18 8.5 18zM18 15.5C18 16.8807 16.8807 18 15.5 18 14.1193 18 13 16.8807 13 15.5 13 14.1193 14.1193 13 15.5 13 16.8807 13 18 14.1193 18 15.5zM2.5 10C3.32843 10 4 9.32843 4 8.5 4 7.67157 3.32843 7 2.5 7 1.67157 7 1 7.67157 1 8.5 1 9.32843 1.67157 10 2.5 10zM4 15.5C4 16.3284 3.32843 17 2.5 17 1.67157 17 1 16.3284 1 15.5 1 14.6716 1.67157 14 2.5 14 3.32843 14 4 14.6716 4 15.5zM21.5 10C22.3284 10 23 9.32843 23 8.5 23 7.67157 22.3284 7 21.5 7 20.6716 7 20 7.67157 20 8.5 20 9.32843 20.6716 10 21.5 10zM23 15.5C23 16.3284 22.3284 17 21.5 17 20.6716 17 20 16.3284 20 15.5 20 14.6716 20.6716 14 21.5 14 22.3284 14 23 14.6716 23 15.5zM17 2.5C17 3.32843 16.3284 4 15.5 4 14.6716 4 14 3.32843 14 2.5 14 1.67157 14.6716 1 15.5 1 16.3284 1 17 1.67157 17 2.5zM8.5 23C9.32843 23 10 22.3284 10 21.5 10 20.6716 9.32843 20 8.5 20 7.67157 20 7 20.6716 7 21.5 7 22.3284 7.67157 23 8.5 23zM17 21.5C17 22.3284 16.3284 23 15.5 23 14.6716 23 14 22.3284 14 21.5 14 20.6716 14.6716 20 15.5 20 16.3284 20 17 20.6716 17 21.5z"/></svg>