<svg xmlns="http://www.w3.org/2000/svg" viewBox="0 0 24 24"><g fill="currentColor" clip-path="url(#clip0_12581_61217)"><path d="M2.61446.448571C2.01637-.149524 1.04667-.149524.448571.448571-.149524 1.04667-.149524 2.01637.448571 2.61446L21.3855 23.5514C21.9836 24.1495 22.9533 24.1495 23.5514 23.5514 24.1495 22.9533 24.1495 21.9836 23.5514 21.3855L17.9804 15.8145C17.9933 15.7115 18 15.6065 18 15.5 18 14.1193 16.8807 13 15.5 13 15.3935 13 15.2885 13.0067 15.1855 13.0196L10.9804 8.81451C10.9933 8.71149 11 8.60653 11 8.5 11 7.11929 9.88071 6 8.5 6 8.39347 6 8.28851 6.00666 8.18549 6.01959L2.61446.448571zM10 2.5C10 3.32843 9.32843 4 8.5 4 7.67157 4 7 3.32843 7 2.5 7 1.67157 7.67157 1 8.5 1 9.32843 1 10 1.67157 10 2.5zM16.4745 22.6404L14.3596 20.5255C14.1354 20.7876 14 21.128 14 21.5 14 22.3284 14.6716 23 15.5 23 15.872 23 16.2124 22.8646 16.4745 22.6404zM7.19892 13.3648L10.6352 16.8011C10.1961 17.5201 9.40411 18 8.5 18 7.11929 18 6 16.8807 6 15.5 6 14.5959 6.47993 13.8039 7.19892 13.3648zM3.47449 9.64038L1.35962 7.52551C1.13541 7.78765 1 8.12801 1 8.5 1 9.32843 1.67157 10 2.5 10 2.87199 10 3.21235 9.86459 3.47449 9.64038zM18 8.5C18 9.88071 16.8807 11 15.5 11 14.1193 11 13 9.88071 13 8.5 13 7.11929 14.1193 6 15.5 6 16.8807 6 18 7.11929 18 8.5zM2.5 17C3.32843 17 4 16.3284 4 15.5 4 14.6716 3.32843 14 2.5 14 1.67157 14 1 14.6716 1 15.5 1 16.3284 1.67157 17 2.5 17zM21.5 10C22.3284 10 23 9.32843 23 8.5 23 7.67157 22.3284 7 21.5 7 20.6716 7 20 7.67157 20 8.5 20 9.32843 20.6716 10 21.5 10zM21.5 17C22.3284 17 23 16.3284 23 15.5 23 14.6716 22.3284 14 21.5 14 20.6716 14 20 14.6716 20 15.5 20 16.3284 20.6716 17 21.5 17zM17 2.5C17 3.32843 16.3284 4 15.5 4 14.6716 4 14 3.32843 14 2.5 14 1.67157 14.6716 1 15.5 1 16.3284 1 17 1.67157 17 2.5zM10 21.5C10 22.3284 9.32843 23 8.5 23 7.67157 23 7 22.3284 7 21.5 7 20.6716 7.67157 20 8.5 20 9.32843 20 10 20.6716 10 21.5z"/></g></svg>