<svg xmlns="http://www.w3.org/2000/svg" viewBox="0 0 24 24"><g fill="currentColor" clip-path="url(#clip0_966_81)"><path d="M19.5 3H22.5C23.4 3 24 3.6 24 4.5V13H21V9H3V21H10V24H1.5C.6 24 0 23.4 0 22.5V4.5C0 3.6.6 3 1.5 3H4.5V1.5C4.5.6 5.1 0 6 0H7.5C8.4 0 9 .6 9 1.5V3H15V1.5C15 .6 15.6 0 16.5 0H18C18.9 0 19.5.6 19.5 1.5V3zM16.3814 24C15.9522 23.9999 15.5406 23.8337 15.2371 23.5379L12 20.3839 14.2886 18.154 16.3814 20.1931 21.7114 15 24 17.2299 17.5258 23.5379C17.2223 23.8337 16.8107 23.9999 16.3814 24z"/></g></svg>