<svg xmlns="http://www.w3.org/2000/svg" viewBox="0 0 24 24"><path fill="currentColor" fill-rule="evenodd" d="M10.2756 6.90455C9.87843 6.73442 9.4503 6.70805 9.04556 6.8092L9.02512 6.8143 8.89794 6.85379 8.48357 7.00843C7.80046 7.26337 7.30733 7.77429 6.99901 8.42032L6.99448 8.43017C6.70467 9.06072 6.69386 9.74443 6.85068 10.4137 6.975 10.9443 7.18067 11.4729 7.45712 11.9993 7.71582 12.4918 8.01593 12.9691 8.3563 13.4308 8.69136 13.8854 9.02924 14.2863 9.37239 14.6293 9.71553 14.9723 10.1165 15.31 10.5712 15.6449 11.033 15.9851 11.5103 16.285 12.003 16.5436 12.5293 16.8198 13.0577 17.0252 13.5881 17.1494 14.2565 17.3059 14.9392 17.2953 15.569 17.006L15.5788 17.0014C16.2248 16.6933 16.7358 16.2003 16.9911 15.5169L17.1458 15.1027 17.1854 14.9751 17.1906 14.9546C17.292 14.5489 17.2656 14.1197 17.0949 13.7217 16.9162 13.3049 16.6158 13.0135 16.2862 12.8096 16.1572 12.7186 15.8616 12.5292 15.4679 12.2802 14.7756 11.8422 13.9932 11.5436 13.1632 11.7741L13.1452 11.7796C12.9994 11.8241 12.8546 11.8774 12.7143 11.9427 12.5399 11.7966 12.4233 11.6918 12.3591 11.6277 12.2993 11.5679 12.1975 11.4554 12.0528 11.285 12.1177 11.1419 12.1692 10.9948 12.2105 10.8475 12.4602 10.0178 12.1518 9.21729 11.7072 8.52349 11.4279 8.08765 11.254 7.8165 11.1856 7.7101 10.99 7.38742 10.6936 7.08367 10.2756 6.90455zM9.38294 8.27384L9.42526 8.26071C9.51939 8.24033 9.606 8.24956 9.68486 8.28335 9.76453 8.31748 9.83969 8.38201 9.90519 8.49153L9.91144 8.50198 9.91803 8.51221C9.9811 8.6103 10.1562 8.88331 10.4443 9.33284 10.8064 9.89789 10.8344 10.2178 10.773 10.4181L10.7678 10.437C10.7103 10.6437 10.6408 10.7717 10.5729 10.852L10.2277 11.2607 10.5017 11.7202C10.5669 11.8294 10.6525 11.9482 10.7554 12.0722 10.9805 12.3436 11.1676 12.5575 11.2987 12.6886 11.4369 12.8267 11.6538 13.0148 11.9254 13.2366 12.0522 13.3402 12.1737 13.4269 12.2853 13.4933L12.7442 13.7666 13.1525 13.4223C13.2325 13.3548 13.3606 13.2831 13.5726 13.2175 13.7957 13.1586 14.1162 13.2001 14.666 13.5478 14.8974 13.6942 15.0805 13.8111 15.2125 13.8966 15.2787 13.9394 15.3302 13.9733 15.3679 13.9984 15.395 14.0166 15.4103 14.0271 15.4157 14.0308L15.4492 14.0565 15.4856 14.0783C15.6238 14.1612 15.6844 14.2384 15.7163 14.3128 15.7504 14.3923 15.7597 14.4797 15.7391 14.5747L15.7258 14.6174 15.5859 14.9921C15.4887 15.2524 15.2894 15.4762 14.9382 15.645 14.6879 15.7585 14.3632 15.7904 13.93 15.6889 13.5418 15.598 13.1323 15.4423 12.7 15.2154 12.2773 14.9935 11.8641 14.7343 11.4608 14.4372 11.0533 14.137 10.7122 13.8477 10.4329 13.5684 10.1535 13.2892 9.86403 12.9482 9.56373 12.5408 9.26647 12.1375 9.0071 11.7245 8.78511 11.3018 8.55805 10.8695 8.40214 10.4599 8.31113 10.0715 8.20949 9.63775 8.24136 9.31228 8.35528 9.06129 8.52427 8.7098 8.74818 8.51073 9.00803 8.41376L9.38294 8.27384zM22.3925 6.00021C22.5449 6.26431 21.8008 9.37389 21.8008 9.37389L23.6591 11.1897C23.8772 11.403 24 11.695 24 12 24 12.305 23.8772 12.597 23.659 12.8104L21.8008 14.6261 22.5021 17.1277C22.5843 17.4213 22.5449 17.7357 22.3922 18.0004 22.2394 18.2644 21.9869 18.4559 21.6918 18.5311L19.1747 19.1748 18.5312 21.6912C18.4559 21.9868 18.2645 22.2394 17.9996 22.3926 17.7353 22.5449 17.4212 22.5845 17.1276 22.5021L14.6261 21.8009 12.8103 23.6591C12.5971 23.8771 12.3049 24 12 24 11.6951 24 11.4029 23.8771 11.1896 23.659L9.37389 21.8009 6.87192 22.5022C6.57838 22.5842 6.26417 22.5448 5.99956 22.3922 5.73552 22.2394 5.54407 21.9868 5.46891 21.6917L4.82532 19.1748 2.30858 18.5312C2.01315 18.4559 1.76059 18.2644 1.60746 17.9998 1.45514 17.7357 1.41566 17.4213 1.49796 17.1276L2.1992 14.6261.340852 12.8103C.122843 12.597 0 12.305 0 12 0 11.695.122843 11.403.341028 11.1896L2.1992 9.37389 1.49794 6.87232C1.41566 6.57868 1.45514 6.26431 1.60783 5.99956 1.76062 5.73552 2.01324 5.54407 2.30834 5.46891L4.82531 4.82531 5.46882 2.30872C5.54412 2.01328 5.73558 1.76072 5.99988 1.60778 6.26416 1.45511 6.57865 1.41561 6.87235 1.49809L9.37388 2.19921 11.1897.340852C11.403.122843 11.695 0 12 0 12.305 0 12.597.122843 12.8104.341028L14.6261 2.19921 17.1286 1.49782C17.4221 1.41615 17.736 1.45544 18.0004 1.60797 18.2644 1.76072 18.4559 2.01328 18.5311 2.30834L19.1747 4.82531 21.6912 5.46879C21.9868 5.54407 22.2394 5.73552 22.3925 6.00021zM20.3495 8.99302L20.342 9.02487 20.144 9.85219 22.3421 12 20.1164 14.1747 20.9564 17.1709 17.9417 17.9419 17.1708 20.9564 14.1747 20.1166 12 22.3421 9.82525 20.1166 6.82915 20.9564 6.0583 17.9419 3.04365 17.1709 3.88355 14.1747 1.65792 12 3.88355 9.82525 3.04366 6.82915 6.0583 6.0583 6.82912 3.04377 9.82527 3.88353 12 1.65792 14.1747 3.88353 17.1709 3.04377 17.9417 6.0583 20.8186 6.79393C20.7806 7.00587 20.7345 7.24158 20.6847 7.48339 20.604 7.87487 20.5182 8.26091 20.4522 8.5506 20.4193 8.69501 20.3915 8.81448 20.372 8.89749L20.3495 8.99302z" clip-rule="evenodd"/></svg>