<svg xmlns="http://www.w3.org/2000/svg" viewBox="0 0 24 24"><g fill="currentColor" clip-path="url(#clip0_964_79)"><path d="M15.217 4.5H13.767L10.5889 1.50007 7.75719 4.5H6.75L6 1.2C5.85.45 5.25 0 4.5 0H0V3H3.3L6 15.3C6.15 16.05 6.75 16.5 7.5 16.5H19.5C20.1 16.5 20.7 16.05 20.85 15.45L23.85 6.45C24.15 5.7 23.7 4.5 22.5 4.5H21.2195L18.1405 1.49971 15.217 4.5zM7.5 24C9.15685 24 10.5 22.6569 10.5 21 10.5 19.3431 9.15685 18 7.5 18 5.84315 18 4.5 19.3431 4.5 21 4.5 22.6569 5.84315 24 7.5 24zM22.5 21C22.5 22.6569 21.1569 24 19.5 24 17.8431 24 16.5 22.6569 16.5 21 16.5 19.3431 17.8431 18 19.5 18 21.1569 18 22.5 19.3431 22.5 21z"/></g></svg>