<svg xmlns="http://www.w3.org/2000/svg" viewBox="0 0 24 24"><g fill="currentColor" clip-path="url(#clip0_1914_14)"><path d="M1.5 0H16.2799L3.50185 13.5H1.5C.672 13.5 0 12.828 0 12V1.5C0 .672.672 0 1.5 0zM4.5 16.8262V16.8096L18 2.54682V2.56343L19.9439.509709C20.5134-.0919446 21.4628-.118029 22.0644.451448 22.6661 1.02092 22.6921 1.97031 22.1227 2.57197L18 6.92758V12C18 12.828 17.328 13.5 16.5 13.5H11.7791L3.16558 22.6002C2.59611 23.2018 1.64672 23.2279 1.04506 22.6584.44341 22.089.417326 21.1396.986803 20.5379L4.5 16.8262zM21 6H22.5C23.328 6 24 6.672 24 7.5V18C24 18.828 23.328 19.5 22.5 19.5H19.5V24L15 19.5H7.5L10.242 16.5H19.5C20.328 16.5 21 15.828 21 15V6z"/></g></svg>