<svg xmlns="http://www.w3.org/2000/svg" viewBox="0 0 24 24"><path fill="currentColor" d="M12 0C14.0082 0 15.9012.493294 17.5644 1.36532L16.3698 2.55983C15.0413 1.94381 13.5608 1.6 12 1.6 6.25624 1.6 1.6 6.25624 1.6 12 1.6 13.5608 1.94381 15.0413 2.55983 16.3698L1.36532 17.5644C.493294 15.9012 0 14.0082 0 12 0 5.37258 5.37258 0 12 0zM12.8 5.6V6.12967L11.2 7.72967V5.6C11.2 5.15818 11.5582 4.8 12 4.8 12.4418 4.8 12.8 5.15818 12.8 5.6z"/><path fill="currentColor" fill-rule="evenodd" d="M4.06668 21.0036L1.28096 23.7894C0.994086 24.0762 0.52193 24.0692 0.226366 23.7736C-0.0691971 23.4781 -0.0762442 23.0059 0.210626 22.719L22.719 0.210627C23.0059 -0.0762449 23.4781 -0.0691967 23.7736 0.226367C24.0692 0.52193 24.0762 0.994085 23.7894 1.28096L21.0036 4.06668C22.8686 6.18156 24 8.95865 24 12C24 18.6274 18.6274 24 12 24C8.95865 24 6.18156 22.8686 4.06668 21.0036ZM19.8697 5.20062C21.4463 7.02379 22.4 9.40052 22.4 12C22.4 17.7438 17.7438 22.4 12 22.4C9.40052 22.4 7.02379 21.4463 5.20062 19.8697L12.2703 12.8H18.4C18.8418 12.8 19.2 12.4418 19.2 12C19.2 11.5582 18.8418 11.2 18.4 11.2H13.8703L19.8697 5.20062Z" clip-rule="evenodd"/></svg>