<svg xmlns="http://www.w3.org/2000/svg" viewBox="0 0 24 24"><path fill="currentColor" d="M11.5 1.25C7.25615 1.25 3.77241 4.45575 3.31095 8.57419 1.52736 9.25332.25 10.9696.25 13 .25 15.6232 2.37678 17.75 5 17.75H8.75V16.25H5C3.20522 16.25 1.74999 14.7948 1.74999 13 1.74999 11.4877 2.79176 10.2207 4.20237 9.86298L4.74033 9.72655 4.76712 9.17221C4.93998 5.59624 7.88477 2.74999 11.5 2.74999 15.0749 2.74999 17.9953 5.53249 18.2266 9.05218L18.2729 9.75802 18.9803 9.75298C20.8013 9.73999 22.25 11.2135 22.25 13 22.25 14.7948 20.7947 16.25 19 16.25H15.25V17.75H19C21.6232 17.75 23.75 15.6232 23.75 13 23.75 10.6201 21.9878 8.61423 19.6538 8.29666 19.0709 4.31185 15.6478 1.25 11.5 1.25zM12.0001 7.93945L16.0608 12.0001 15.0001 13.0608 12.75 10.8106V22H11.25V10.8109L9.00012 13.0608 7.93945 12.0001 12.0001 7.93945z"/></svg>