<svg xmlns="http://www.w3.org/2000/svg" viewBox="0 0 24 24"><path fill="currentColor" d="M18.9999 0C16.9549 0 15.1979 1.237 14.4239 3H17.9999C19.1799 3 20.2539 3.695 20.7369 4.772 21.2199 5.844 21.0269 7.11 20.2419 7.992L18.4979 9.954C18.6659 9.971 18.8309 10 18.9999 10 21.7569 10 23.9999 7.757 23.9999 5 23.9999 2.243 21.7569 0 18.9999 0zM18.7479 6.664C19.0089 6.37 19.0739 5.949 18.9129 5.591 18.7509 5.231 18.3939 5 17.9999 5H1.99993C1.60593 5 1.24893 5.231 1.08793 5.591.925928 5.949.990928 6.37 1.25193 6.664L8.99993 15.38V21H4.99993C4.44793 21 3.99993 21.447 3.99993 22 3.99993 22.553 4.44793 23 4.99993 23H14.9999C15.5519 23 15.9999 22.553 15.9999 22 15.9999 21.447 15.5519 21 14.9999 21H10.9999V15.38L18.7479 6.664zM15.7729 7L13.1069 10H6.89293L4.22693 7H15.7729z"/></svg>