<svg xmlns="http://www.w3.org/2000/svg" viewBox="0 0 24 24"><path fill="currentColor" fill-rule="evenodd" d="M2 5C2 4.58579 2.33579 4.25 2.75 4.25H21.25C21.6642 4.25 22 4.58579 22 5 22 5.41421 21.6642 5.75 21.25 5.75H2.75C2.33579 5.75 2 5.41421 2 5zM2 8.5C2 8.08579 2.33579 7.75 2.75 7.75H21.25C21.6642 7.75 22 8.08579 22 8.5 22 8.91421 21.6642 9.25 21.25 9.25H2.75C2.33579 9.25 2 8.91421 2 8.5zM2 19C2 18.5858 2.33579 18.25 2.75 18.25H21.25C21.6642 18.25 22 18.5858 22 19 22 19.4142 21.6642 19.75 21.25 19.75H2.75C2.33579 19.75 2 19.4142 2 19zM2 15.5C2 15.0858 2.33579 14.75 2.75 14.75H21.25C21.6642 14.75 22 15.0858 22 15.5 22 15.9142 21.6642 16.25 21.25 16.25H2.75C2.33579 16.25 2 15.9142 2 15.5zM2 12C2 11.5858 2.33579 11.25 2.75 11.25H21.25C21.6642 11.25 22 11.5858 22 12 22 12.4142 21.6642 12.75 21.25 12.75H2.75C2.33579 12.75 2 12.4142 2 12z" clip-rule="evenodd"/></svg>