<svg xmlns="http://www.w3.org/2000/svg" viewBox="0 0 24 24"><g fill="currentColor" clip-path="url(#clip0_988_4)"><path d="M10.5 5.25C10.5 4.83579 10.8358 4.5 11.25 4.5H18.75C19.1642 4.5 19.5 4.83579 19.5 5.25 19.5 5.66421 19.1642 6 18.75 6H11.25C10.8358 6 10.5 5.66421 10.5 5.25zM11.25 9C10.8358 9 10.5 9.33579 10.5 9.75 10.5 10.1642 10.8358 10.5 11.25 10.5H18.75C19.1642 10.5 19.5 10.1642 19.5 9.75 19.5 9.33579 19.1642 9 18.75 9H11.25zM10.5 14.25C10.5 13.8358 10.8358 13.5 11.25 13.5H18.75C19.1642 13.5 19.5 13.8358 19.5 14.25 19.5 14.6642 19.1642 15 18.75 15H11.25C10.8358 15 10.5 14.6642 10.5 14.25zM11.25 18C10.8358 18 10.5 18.3358 10.5 18.75 10.5 19.1642 10.8358 19.5 11.25 19.5H14.25C14.6642 19.5 15 19.1642 15 18.75 15 18.3358 14.6642 18 14.25 18H11.25z"/><path fill-rule="evenodd" d="M6.75 0C6.33579 0 6 0.335786 6 0.75V12H0.75C0.335786 12 0 12.3358 0 12.75V20.25C0 22.3217 1.67829 24 3.75 24H20.25C22.3217 24 24 22.3217 24 20.25V0.75C24 0.335786 23.6642 0 23.25 0H6.75ZM6.75067 22.5H20.25C21.4933 22.5 22.5 21.4933 22.5 20.25V1.5H7.5V20.25C7.5 21.0943 7.22123 21.8733 6.75067 22.5ZM1.5 20.25V13.5H6V20.25C6 21.4933 4.99329 22.5 3.75 22.5C2.50671 22.5 1.5 21.4933 1.5 20.25Z" clip-rule="evenodd"/></g></svg>