<svg xmlns="http://www.w3.org/2000/svg" viewBox="0 0 24 24"><path fill="currentColor" fill-rule="evenodd" d="M11.126 19.8341C10.8962 20.1787 10.9893 20.6444 11.334 20.8741C11.6786 21.1039 12.1443 21.0108 12.374 20.6661L17.874 12.4161C18.042 12.1642 18.042 11.836 17.874 11.5841L12.374 3.33405C12.1443 2.98941 11.6786 2.89628 11.334 3.12604C10.9893 3.35581 10.8962 3.82146 11.126 4.1661L16.3486 12.0001L11.126 19.8341ZM5.12596 19.8341C4.8962 20.1787 4.98933 20.6444 5.33397 20.8741C5.67862 21.1039 6.14427 21.0108 6.37404 20.6661L11.874 12.4161C12.042 12.1642 12.042 11.836 11.874 11.5841L6.37404 3.33405C6.14427 2.98941 5.67862 2.89628 5.33397 3.12604C4.98933 3.35581 4.8962 3.82146 5.12596 4.1661L10.3486 12.0001L5.12596 19.8341Z" clip-rule="evenodd"/></svg>