<svg xmlns="http://www.w3.org/2000/svg" viewBox="0 0 24 24"><g fill="currentColor" fill-rule="evenodd" clip-path="url(#clip0_4758_449)" clip-rule="evenodd"><path d="M23.3133 9.58028C23.0102 9.58028 22.7324 9.37751 22.65 9.07124 21.6446 5.31259 18.6865 2.35446 14.93 1.35011 14.5635 1.25189 14.346.874867 14.4442.509457 14.5413.141935 14.9152-.0745651 15.2838.0236519 19.5134 1.15368 22.8444 4.48566 23.9765 8.71639 24.0747 9.0818 23.8572 9.45883 23.4907 9.55704 23.4305 9.57289 23.3724 9.58028 23.3133 9.58028zM20.6638 10.2904C20.3607 10.2904 20.083 10.0876 20.0006 9.78136 19.2476 6.96791 17.033 4.75222 14.2185 3.99922 13.8531 3.901 13.6355 3.52503 13.7337 3.15857 13.8309 2.7921 14.2069 2.57455 14.5733 2.67276 17.8599 3.55249 20.4473 6.13993 21.3271 9.42651 21.4253 9.79192 21.2077 10.1689 20.8413 10.2672 20.7811 10.283 20.723 10.2904 20.6638 10.2904zM18.0133 11C17.7102 11 17.4313 10.7972 17.35 10.491 16.8505 8.62167 15.3793 7.14947 13.509 6.64888 13.1436 6.55172 12.926 6.17469 13.0232 5.80822 13.1214 5.44176 13.4953 5.22526 13.8638 5.32347 16.2063 5.94974 18.0502 7.79369 18.6765 10.1361 18.7747 10.5026 18.5571 10.8785 18.1907 10.9768 18.1305 10.9926 18.0713 11 18.0133 11zM.686811 9.58028C.989911 9.58028 1.26766 9.37751 1.35004 9.07124 2.35544 5.31259 5.31357 2.35446 9.07011 1.35011 9.43658 1.25189 9.65413.874867 9.55592.509457 9.45876.141935 9.0849-.0745652 8.71632.0236519 4.48665 1.15368 1.15572 4.48566.0235817 8.71639-.0746354 9.0818.14292 9.45883.509386 9.55704.569584 9.57289.627669 9.58028.686811 9.58028zM3.33624 10.2904C3.63934 10.2904 3.9171 10.0876 3.99947 9.78136 4.75247 6.96791 6.9671 4.75222 9.7816 3.99922 10.147 3.901 10.3646 3.52503 10.2664 3.15857 10.1692 2.7921 9.79322 2.57455 9.42675 2.67276 6.14018 3.55249 3.55274 6.13993 2.67301 9.42651 2.5748 9.79192 2.79235 10.1689 3.15882 10.2672 3.21902 10.283 3.2771 10.2904 3.33624 10.2904zM5.98683 11C6.28993 11 6.56874 10.7972 6.65006 10.491 7.14959 8.62167 8.62074 7.14947 10.4911 6.64888 10.8565 6.55172 11.0741 6.17469 10.9769 5.80822 10.8787 5.44176 10.5048 5.22526 10.1362 5.32347 7.79381 5.94974 5.94986 7.79369 5.3236 10.1361 5.22538 10.5026 5.44294 10.8785 5.8094 10.9768 5.8696 10.9926 5.92874 11 5.98683 11zM23.3134 14.4197C23.0103 14.4197 22.7325 14.6225 22.6502 14.9288 21.6448 18.6874 18.6866 21.6455 14.9301 22.6499 14.5636 22.7481 14.3461 23.1251 14.4443 23.4905 14.5415 23.8581 14.9153 24.0746 15.2839 23.9763 19.5136 22.8463 22.8445 19.5143 23.9766 15.2836 24.0748 14.9182 23.8573 14.5412 23.4908 14.443 23.4306 14.4271 23.3725 14.4197 23.3134 14.4197zM20.664 13.7096C20.3609 13.7096 20.0831 13.9124 20.0007 14.2186 19.2477 17.0321 17.0331 19.2478 14.2186 20.0008 13.8532 20.099 13.6356 20.475 13.7339 20.8414 13.831 21.2079 14.207 21.4255 14.5735 21.3272 17.86 20.4475 20.4475 17.8601 21.3272 14.5735 21.4254 14.2081 21.2079 13.8311 20.8414 13.7328 20.7812 13.717 20.7231 13.7096 20.664 13.7096zM18.0134 13C17.7103 13 17.4315 13.2028 17.3501 13.509 16.8506 15.3783 15.3795 16.8505 13.5091 17.3511 13.1437 17.4483 12.9262 17.8253 13.0233 18.1918 13.1215 18.5582 13.4954 18.7747 13.864 18.6765 16.2064 18.0503 18.0503 16.2063 18.6766 13.8639 18.7748 13.4974 18.5573 13.1215 18.1908 13.0232 18.1306 13.0074 18.0715 13 18.0134 13zM.686933 14.4197C.990033 14.4197 1.26779 14.6225 1.35016 14.9288 2.35557 18.6874 5.3137 21.6455 9.07024 22.6499 9.4367 22.7481 9.65426 23.1251 9.55604 23.4905 9.45888 23.8581 9.08502 24.0746 8.71644 23.9763 4.48677 22.8463 1.15584 19.5143.0237035 15.2836-.0745136 14.9182.143042 14.5412.509508 14.443.569706 14.4271.627791 14.4197.686933 14.4197zM3.33636 13.7096C3.63946 13.7096 3.91722 13.9124 3.99959 14.2186 4.75259 17.0321 6.96723 19.2478 9.78173 20.0008 10.1471 20.099 10.3647 20.475 10.2665 20.8414 10.1693 21.2079 9.79334 21.4255 9.42688 21.3272 6.1403 20.4475 3.55286 17.8601 2.67313 14.5735 2.57492 14.2081 2.79247 13.8311 3.15894 13.7328 3.21914 13.717 3.27722 13.7096 3.33636 13.7096zM5.98695 13C6.29005 13 6.56886 13.2028 6.65018 13.509 7.14971 15.3783 8.62086 16.8505 10.4912 17.3511 10.8566 17.4483 11.0742 17.8253 10.977 18.1918 10.8788 18.5582 10.5049 18.7747 10.1364 18.6765 7.79393 18.0503 5.94999 16.2063 5.32372 13.8639 5.2255 13.4974 5.44306 13.1215 5.80953 13.0232 5.86972 13.0074 5.92886 13 5.98695 13z"/></g></svg>