<svg xmlns="http://www.w3.org/2000/svg" viewBox="0 0 24 24"><path fill="currentColor" fill-rule="evenodd" d="M17.7803 0.21967C17.4874 -0.0732233 17.0126 -0.0732233 16.7197 0.21967L12.9723 3.96708L12.9697 3.96967L12.9671 3.97227L1.71968 15.2197C1.61498 15.3244 1.54362 15.4577 1.51458 15.6029L0.0145767 23.1029C-0.0346024 23.3488 0.0423645 23.603 0.219682 23.7803C0.397 23.9576 0.651204 24.0346 0.897099 23.9854L8.3971 22.4854C8.54229 22.4564 8.67564 22.385 8.78034 22.2803L23.7803 7.28033C24.0732 6.98744 24.0732 6.51256 23.7803 6.21967L17.7803 0.21967ZM19.5 9.43934L22.1894 6.75L17.25 1.81066L14.5607 4.50001L19.5 9.43934ZM13.5 5.56067L18.4393 10.5L7.88025 21.0591L1.70608 22.2939L2.94091 16.1198L13.5 5.56067Z" clip-rule="evenodd"/></svg>