<svg xmlns="http://www.w3.org/2000/svg" viewBox="0 0 24 24"><path fill="currentColor" d="M12.5017 0C17.4969 0 20.4576 2.61337 20.4576 6.33494C20.4576 8.76637 19.2171 10.8174 16.9841 11.7436C19.7298 12.5045 20.9869 14.8201 20.9869 17.3839C20.9869 21.4032 17.9269 24 12.5017 24C7.09304 24 4 21.4197 4 17.3508C4 14.8201 5.2736 12.5045 8.0193 11.7436C5.78635 10.8174 4.52929 8.76637 4.52929 6.33494C4.52929 2.61337 7.50655 0 12.5017 0ZM12.5017 3.09304C9.55755 3.09304 7.9366 4.43281 7.9366 6.76499C7.9366 8.98139 9.49138 10.3708 12.5017 10.3708C15.5121 10.3708 17.0669 8.98139 17.0669 6.74845C17.0669 4.43281 15.4459 3.09304 12.5017 3.09304ZM12.5017 12.9345C9.1275 12.9345 7.39076 14.357 7.39076 16.838C7.39076 19.3687 9.22674 20.907 12.5017 20.907C15.7767 20.907 17.6127 19.3687 17.6127 16.838C17.6127 14.357 15.8759 12.9345 12.5017 12.9345Z"/></svg>