<svg xmlns="http://www.w3.org/2000/svg" viewBox="0 0 24 24"><path fill="currentColor" d="M16.8334 11.9122C16.8334 11.9122 16.8334 11.9122 16.8334 11.9122V11.9122Z"/><path fill="currentColor" fill-rule="evenodd" d="M15.8749 11.2197L14.1883 11.7921L15.9278 12.1746C17.4639 12.5124 18.5353 13.2587 19.2277 14.2188C19.9246 15.185 20.2607 16.4008 20.2607 17.7053C20.2607 19.6714 19.5259 21.2203 18.1816 22.2895C16.823 23.37 14.7908 24 12.139 24C9.4536 24 7.41748 23.3575 6.06316 22.2732C4.72231 21.1998 3.99998 19.6547 3.99998 17.7225C3.99998 16.4089 4.33643 15.1887 5.0333 14.2205C5.72565 13.2586 6.79689 12.5124 8.33294 12.1746L10.0724 11.7921L8.38587 11.2197C5.76249 10.3294 4.58601 8.27498 4.58601 5.95011C4.58601 4.14358 5.28763 2.67695 6.55242 1.65177C7.82807 0.61778 9.71912 0.00012207 12.139 0.00012207C14.5498 0.00012207 16.4368 0.617595 17.7105 1.64967C18.9736 2.67306 19.6747 4.1356 19.6747 5.93287C19.6747 8.27582 18.4975 10.3296 15.8749 11.2197ZM12.139 1.24803C10.2954 1.24803 8.77841 1.67227 7.71263 2.52974C6.63145 3.3996 6.07523 4.66685 6.07523 6.20865C6.07523 7.73085 6.61683 8.99405 7.69195 9.86497C8.75195 10.7236 10.2699 11.152 12.139 11.152C13.9999 11.152 15.5136 10.7234 16.5714 9.86462C17.644 8.99374 18.1855 7.73078 18.1855 6.20865C18.1855 4.66692 17.6293 3.3999 16.5507 2.53009C15.4872 1.6725 13.9745 1.24803 12.139 1.24803ZM12.139 12.0552C10.0515 12.0552 8.38001 12.5069 7.22016 13.4146C6.04193 14.3367 5.45473 15.6801 5.45473 17.3089C5.45473 18.9926 6.07843 20.379 7.26713 21.3329C8.44127 22.2751 10.112 22.7521 12.139 22.7521C14.1578 22.7521 15.824 22.2748 16.9956 21.3351C18.1817 20.3838 18.806 19.002 18.806 17.3261C18.806 15.6897 18.2195 14.3421 17.0436 13.4175C15.8858 12.5071 14.2182 12.0552 12.139 12.0552Z" clip-rule="evenodd"/></svg>