<svg xmlns="http://www.w3.org/2000/svg" viewBox="0 0 24 24"><g fill="currentColor" clip-path="url(#clip0_959_18448)"><path d="M9.75 1.6C9.33621 1.6 9 1.95863 9 2.4V7.2C9 7.64183 8.66421 8 8.25 8 7.83579 8 7.5 7.64183 7.5 7.2V2.4C7.5 1.07497 8.50779 0 9.75 0H21.75C22.9922 0 24 1.07497 24 2.4V21.6C24 22.925 22.9922 24 21.75 24H9.75C8.50779 24 7.5 22.925 7.5 21.6V16.8C7.5 16.3582 7.83579 16 8.25 16 8.66421 16 9 16.3582 9 16.8V21.6C9 22.0414 9.33621 22.4 9.75 22.4H21.75C22.1638 22.4 22.5 22.0414 22.5 21.6V2.4C22.5 1.95863 22.1638 1.6 21.75 1.6H9.75zM0 12C0 11.5582.335786 11.2.75 11.2H15.4393L12.2197 7.76569C11.9268 7.45327 11.9268 6.94673 12.2197 6.63432 12.5126 6.3219 12.9874 6.3219 13.2803 6.63432L17.7803 11.4343C17.8522 11.511 17.9065 11.5994 17.9431 11.6938 17.9751 11.7761 17.9946 11.8653 17.999 11.9588 17.9997 11.9725 18 11.9862 18 12 18 12.1085 17.9798 12.2119 17.9431 12.3062 17.9065 12.4006 17.8522 12.489 17.7803 12.5657L13.2803 17.3657C12.9874 17.6781 12.5126 17.6781 12.2197 17.3657 11.9268 17.0533 11.9268 16.5467 12.2197 16.2343L15.4393 12.8H.75C.335786 12.8 0 12.4418 0 12z"/></g></svg>