<svg xmlns="http://www.w3.org/2000/svg" viewBox="0 0 24 24"><path fill="currentColor" d="M23.9999 18.6C23.0999 18.8 22.5999 18.6 22.0999 17.9 20.9999 16.3 19.7999 14.7 18.6999 13.1 18.5999 12.9 18.3999 12.7 18.1999 12.4 16.7999 14.3 15.4999 16 14.1999 17.9 13.6999 18.6 13.2999 18.8 12.3999 18.6L17.5999 11.6 12.7999 5.29996C13.5999 5.09996 14.1999 5.19996 14.6999 5.99996 15.7999 7.59996 16.9999 9.19996 18.2999 10.9 19.4999 9.29996 20.7999 7.69996 21.8999 6.09996 22.3999 5.39996 22.8999 5.19996 23.6999 5.39996 23.0999 6.19996 22.4999 7.09996 21.7999 7.89996 20.9999 8.99996 20.0999 10.1 19.2999 11.2 18.9999 11.6 18.9999 11.8 19.2999 12.2 20.7999 14.3 22.3999 16.4 23.9999 18.6zM0 11.6C.1 10.9.2 10.2.4 9.5 1.5 5.4 6.3 3.7 9.5 6.2 11.4 7.7 11.9 9.79999 11.8 12.2H1.1C.9 16.5 4 19 7.9 17.7 9.3 17.2 10.1 16.2 10.5 14.8 10.7 14.1 11 14 11.7 14.2 11.4 15.9 10.6 17.3 9.1 18.2 6.8 19.5 3.5 19.1 1.8 17.3.8 16.2.3 14.9.2 13.4.1 13.2 0 13 0 12.7 0 12.3 0 12 0 11.6zM1.1 11.3H10.8C10.7 8.2 8.8 6 6.2 6 3.3 6 1.3 8.1 1.1 11.3z"/></svg>