<svg xmlns="http://www.w3.org/2000/svg" viewBox="0 0 24 24"><path fill="currentColor" fill-rule="evenodd" d="M0.75 0C0.335787 0 0 0.335787 0 0.75V5.25C0 5.50077 0.125326 5.73493 0.333975 5.87404L9 11.6514V23.25C9 23.5266 9.15224 23.7807 9.3961 23.9112C9.63997 24.0417 9.93588 24.0275 10.166 23.874L14.666 20.874C14.8747 20.735 15 20.5008 15 20.25V11.6514L23.6661 5.87404C23.8746 5.73493 24 5.50077 24 5.25V0.75C24 0.335787 23.6642 0 23.25 0H0.75ZM10.166 10.626L1.5 4.84861V1.5H22.5V4.84861L13.834 10.626C13.6253 10.7651 13.5 10.9992 13.5 11.25V19.8486L10.5 21.8485V11.25C10.5 10.9992 10.3747 10.7651 10.166 10.626Z" clip-rule="evenodd"/></svg>