<svg xmlns="http://www.w3.org/2000/svg" viewBox="0 0 24 24"><path fill="currentColor" d="M12.0394 24C8.1284 24 5.15991 21.9972 3.99998 18.5796L5.50078 18.1238C6.51029 20.9835 8.94189 22.6284 12.0916 22.6284C14.0064 22.6284 15.6133 22.0174 16.7437 20.9132C17.8749 19.8083 18.4902 18.2469 18.4902 16.4213C18.4902 14.7101 17.9512 13.1628 16.899 12.0393C15.8428 10.9114 14.3052 10.249 12.3875 10.249C10.1945 10.249 8.08787 11.0757 6.67078 12.4081L4.87032 11.7558L6.45848 0.00012207H18.6608V1.40656H7.55925L6.1918 11.5706L7.06268 10.8672C8.78267 9.47795 10.7337 8.92958 12.7008 8.92958C15.1028 8.92958 16.9382 9.73563 18.1744 11.0344C19.414 12.3368 20.0881 14.1739 20.0881 16.2994C20.0881 18.5964 19.2997 20.5126 17.9209 21.8548C16.5415 23.1976 14.5357 24 12.0394 24Z"/></svg>