<svg xmlns="http://www.w3.org/2000/svg" viewBox="0 0 24 24"><path fill="currentColor" d="M18.625 0.90625V3.85938H8.95312L8.04688 10.3438C9.60938 9.01562 11.4375 8.65625 12.9688 8.65625C17.5156 8.65625 19.9844 11.8125 19.9844 15.7656C19.9844 20.1406 16.9219 23.25 12.1719 23.25C8.17188 23.25 5.125 21.0469 4.17188 17.4531L7.20312 16.5312C7.875 18.9062 9.70312 20.3281 12.2031 20.3281C15 20.3281 16.7812 18.5469 16.7812 15.875C16.7812 13.4844 15.3438 11.5156 12.4688 11.5156C10.6562 11.5156 9.03125 12.25 7.98438 13.375L4.96875 12.3438L6.53125 0.90625H18.625Z"/></svg>