<svg xmlns="http://www.w3.org/2000/svg" fill="none" viewBox="0 0 37 24"><path fill="#FF4B55" d="M35.4699 23.9786H0.620301C0.274906 23.9786 0 23.6929 0 23.3501V0.650056C0 0.300056 0.281955 0.0214844 0.620301 0.0214844H35.4629C35.8083 0.0214844 36.0832 0.307199 36.0832 0.650056V23.3501C36.0902 23.7001 35.8083 23.9786 35.4699 23.9786Z"/><path fill="#41479B" d="M0.620301 0.0214844H17.4178C17.7632 0.0214844 18.0381 0.307199 18.0381 0.650056V11.3715C18.0381 11.7215 17.7561 12.0001 17.4178 12.0001H0.620301C0.281955 12.0001 0 11.7143 0 11.3715V0.650056C0 0.300056 0.281955 0.0214844 0.620301 0.0214844Z"/><path fill="#F5F5F5" d="M6.79461 6.00737C6.79461 5.38594 7.04133 4.82166 7.44311 4.41451L5.57516 3.87166C5.46943 3.84309 5.39189 3.9788 5.46943 4.05737L6.87215 5.4288 4.9901 5.90737C4.87732 5.93594 4.87732 6.09308 4.9901 6.12166L6.87215 6.60023 5.47648 7.97166C5.39894 8.05023 5.47648 8.18594 5.58221 8.15737L7.45016 7.61451C7.04133 7.20023 6.79461 6.63594 6.79461 6.00737zM7.45029 4.41451C7.85208 4.00737 8.40894 3.75737 9.02219 3.75737 9.63544 3.75737 10.1923 4.00737 10.5941 4.41451L11.1298 2.52165C11.158 2.41451 11.0241 2.33594 10.9465 2.41451L9.59315 3.8288 9.12087 1.92165C9.09268 1.80737 8.9376 1.80737 8.90941 1.92165L8.43713 3.8288 7.08375 2.41451C7.00621 2.33594 6.87228 2.41451 6.90048 2.52165L7.45029 4.41451zM10.5933 7.60738C10.1915 8.01452 9.63467 8.26452 9.02142 8.26452 8.40817 8.26452 7.85131 8.01452 7.44952 7.60738L6.91381 9.50023C6.88561 9.60737 7.01954 9.68594 7.09708 9.60737L8.45046 8.19309 8.92274 10.1002C8.95093 10.2145 9.10601 10.2145 9.1342 10.1002L9.60648 8.19309 10.9599 9.60737C11.0374 9.68594 11.1713 9.60737 11.1431 9.50023L10.5933 7.60738zM13.0542 5.90022L11.1722 5.42165 12.5679 4.05022C12.6454 3.97165 12.5679 3.83594 12.4621 3.86451L10.5942 4.40737C10.996 4.81451 11.2427 5.37879 11.2427 6.00022 11.2427 6.62165 10.996 7.18594 10.5942 7.59308L12.4621 8.13594C12.5679 8.16451 12.6454 8.02879 12.5679 7.95022L11.1722 6.57879 13.0542 6.10022C13.167 6.08594 13.167 5.92879 13.0542 5.90022zM9.02213 7.80737C10.0032 7.80737 10.7984 7.00148 10.7984 6.00737 10.7984 5.01326 10.0032 4.20737 9.02213 4.20737 8.0411 4.20737 7.24581 5.01326 7.24581 6.00737 7.24581 7.00148 8.0411 7.80737 9.02213 7.80737z"/></svg>