<svg xmlns="http://www.w3.org/2000/svg" fill="none" viewBox="0 0 37 24"><path fill="#82AFFF" d="M36.0902 8.0072H0V.650056C0 .300056.281955.0214844.620301.0214844H35.4629C35.8083.0214844 36.0832.307199 36.0832.650056L36.0902 8.0072zM35.4699 23.9786H.620301C.274906 23.9786 0 23.6929 0 23.3501V15.9929H36.0902V23.3501C36.0902 23.7001 35.8083 23.9786 35.4699 23.9786z"/><path fill="#F5F5F5" d="M0 8.007H36.09V15.992999999999999H0z"/><path fill="#FFE15A" d="M20.4207 12.743C20.2516 12.6715 20.1458 12.6715 20.0542 12.6715C19.9767 12.6715 19.9203 12.6715 19.8004 12.6215C19.6877 12.5715 19.6383 12.5287 19.589 12.4787C19.5749 12.4644 19.5608 12.4501 19.5396 12.4358C19.5678 12.343 19.5819 12.243 19.596 12.143H21.1609L21.1538 11.843H19.596C19.589 11.743 19.5678 11.6501 19.5396 11.5572C19.6172 11.5572 19.7158 11.543 19.8498 11.4858C20.0189 11.4144 20.0965 11.343 20.1599 11.2715C20.2163 11.2144 20.2586 11.1715 20.3714 11.1287C20.4842 11.0787 20.5476 11.0787 20.6252 11.0787C20.7168 11.0787 20.8225 11.0787 20.9917 11.0072L20.8719 10.7144C20.7591 10.7644 20.6956 10.7644 20.6181 10.7644C20.5265 10.7644 20.4207 10.7644 20.2516 10.8358C20.0824 10.9072 20.0049 10.9787 19.9414 11.0501C19.885 11.1072 19.8427 11.1501 19.7299 11.193C19.6172 11.243 19.5537 11.243 19.4762 11.243C19.455 11.243 19.4339 11.243 19.4127 11.243C19.3634 11.1572 19.3141 11.0715 19.2506 11.0001L20.3502 9.88581L20.1317 9.66438L19.0321 10.7787C18.9546 10.7144 18.877 10.6572 18.7854 10.6144C18.8418 10.5572 18.8982 10.4787 18.9546 10.343C19.0251 10.1715 19.0251 10.0644 19.0251 9.97153C19.0251 9.89295 19.0251 9.83581 19.0744 9.71438C19.1237 9.6001 19.166 9.55724 19.2154 9.5001C19.2788 9.43581 19.3564 9.35724 19.4268 9.18581L19.1378 9.06438C19.0885 9.17867 19.0462 9.22153 18.9969 9.27867C18.9334 9.34295 18.8559 9.42153 18.7854 9.59295C18.7149 9.76438 18.7149 9.87153 18.7149 9.96438C18.7149 10.043 18.7149 10.1001 18.6656 10.2215C18.6162 10.3358 18.5739 10.3858 18.5246 10.4358C18.5105 10.4501 18.4964 10.4644 18.4752 10.4858C18.3836 10.4572 18.2849 10.443 18.1933 10.4287V8.8501H17.8831V10.4287C17.7845 10.4358 17.6928 10.4572 17.6012 10.4858C17.6012 10.4072 17.5871 10.3072 17.5307 10.1715C17.4602 10.0001 17.3897 9.92153 17.3192 9.85724C17.2628 9.8001 17.2205 9.75724 17.1782 9.64295C17.1289 9.52867 17.1289 9.46438 17.1289 9.38581C17.1289 9.29295 17.1289 9.18581 17.0584 9.01438L16.7694 9.13581C16.8188 9.2501 16.8188 9.31438 16.8188 9.39295C16.8188 9.48581 16.8188 9.59295 16.8892 9.76438C16.9597 9.93581 17.0302 10.0144 17.1007 10.0787C17.1571 10.1358 17.1994 10.1787 17.2417 10.293C17.291 10.4072 17.291 10.4715 17.291 10.5501C17.291 10.5715 17.291 10.593 17.291 10.6215C17.2064 10.6715 17.1289 10.7215 17.0514 10.7858L15.9517 9.67153L15.7332 9.89295L16.8399 11.0144C16.7835 11.0858 16.7271 11.1715 16.6778 11.2572C16.6566 11.2572 16.6425 11.2572 16.6214 11.2572C16.5439 11.2572 16.4804 11.2572 16.3676 11.2072C16.2478 11.1572 16.2055 11.1144 16.1491 11.0572C16.0857 10.993 16.0081 10.9144 15.8319 10.843C15.6627 10.7715 15.557 10.7715 15.4654 10.7715C15.3878 10.7715 15.3244 10.7715 15.2116 10.7215L15.0847 11.0001C15.2539 11.0715 15.3596 11.0715 15.4513 11.0715C15.5288 11.0715 15.5923 11.0715 15.705 11.1215C15.8249 11.1715 15.8672 11.2144 15.9235 11.2715C15.987 11.3358 16.0645 11.4144 16.2407 11.4858C16.3747 11.543 16.4734 11.5572 16.5509 11.5572C16.5227 11.6501 16.5086 11.743 16.4945 11.843H14.9226V12.1572H16.4945C16.5016 12.2572 16.5227 12.3501 16.5509 12.4358C16.5368 12.4501 16.5157 12.4644 16.5016 12.4858C16.4452 12.543 16.4029 12.5858 16.283 12.6358C16.1632 12.6858 16.1068 12.6858 16.0293 12.6858C15.9376 12.6858 15.8319 12.6858 15.6627 12.7572C15.4936 12.8287 15.416 12.9072 15.3455 12.9715C15.2891 13.0287 15.2469 13.0715 15.127 13.1215L15.2469 13.4144C15.416 13.343 15.4936 13.2644 15.5641 13.2001C15.6204 13.143 15.6627 13.1001 15.7826 13.0501C15.9024 13.0001 15.9588 13.0001 16.0363 13.0001C16.128 13.0001 16.2337 13.0001 16.4099 12.9215C16.5439 12.8644 16.6214 12.8072 16.6778 12.7501C16.7271 12.8358 16.7765 12.9215 16.8399 13.0001L15.7403 14.1144L15.9588 14.3358L17.0584 13.2215C17.136 13.2858 17.2135 13.3358 17.2981 13.3858C17.2981 13.4001 17.2981 13.4215 17.2981 13.4358C17.2981 13.5144 17.2981 13.5787 17.2487 13.693C17.1994 13.8144 17.1571 13.8572 17.1007 13.9144C17.0373 13.9787 16.9597 14.0572 16.8892 14.2358C16.8188 14.4144 16.8188 14.5144 16.8188 14.6072C16.8188 14.6858 16.8188 14.7501 16.7694 14.8644L17.0584 14.9858C17.1289 14.8144 17.1289 14.7072 17.1289 14.6144C17.1289 14.5358 17.1289 14.4715 17.1782 14.3572C17.2276 14.2358 17.2699 14.193 17.3263 14.1358C17.3897 14.0715 17.4673 13.993 17.5377 13.8144C17.5941 13.6858 17.6012 13.593 17.6082 13.5144C17.6999 13.543 17.7915 13.5572 17.8831 13.5715V15.143H18.1933V13.5715C18.292 13.5644 18.3907 13.543 18.4893 13.5144C18.4964 13.5215 18.5105 13.5358 18.5175 13.543C18.5739 13.6001 18.6162 13.643 18.6656 13.7644C18.7149 13.8858 18.7149 13.943 18.7149 14.0215C18.7149 14.1144 18.7149 14.2215 18.7854 14.393C18.8559 14.5644 18.9334 14.643 18.9969 14.7144C19.0533 14.7715 19.0955 14.8144 19.1449 14.9358L19.4339 14.8144C19.3634 14.643 19.2859 14.5644 19.2224 14.493C19.166 14.4358 19.1237 14.393 19.0744 14.2715C19.0251 14.1501 19.0251 14.093 19.0251 14.0144C19.0251 13.9215 19.0251 13.8144 18.9546 13.643C18.9052 13.5144 18.8488 13.443 18.7995 13.3858C18.8841 13.3358 18.9616 13.2858 19.0392 13.2215L20.1317 14.3287L20.3502 14.1072L19.2577 13.0001C19.3211 12.9215 19.3705 12.843 19.4198 12.7572C19.4762 12.8144 19.5537 12.8715 19.6806 12.9215C19.8498 12.993 19.9555 12.993 20.0471 12.993C20.1247 12.993 20.1811 12.993 20.3009 13.043C20.4137 13.093 20.456 13.1358 20.5124 13.1858C20.5758 13.2501 20.6533 13.3287 20.8225 13.4001L20.9424 13.1072C20.8296 13.0572 20.7873 13.0144 20.7309 12.9644C20.6674 12.893 20.5899 12.8144 20.4207 12.743Z"/></svg>