<svg xmlns="http://www.w3.org/2000/svg" fill="none" viewBox="0 0 37 24"><path fill="#FFD250" d="M35.4699 0.0214844H0.620301C0.274906 0.0214844 0 0.307199 0 0.650056V23.3501C0 23.7001 0.281955 23.9786 0.620301 23.9786H35.4629C35.8083 23.9786 36.0832 23.6929 36.0832 23.3501V0.650056C36.0902 0.300056 35.8083 0.0214844 35.4699 0.0214844Z"/><path fill="#963C3C" d="M13.0686 2.54263V21.4569C13.0686 21.8069 13.3506 22.0855 13.6889 22.0855H33.602C33.9474 22.0855 34.2223 21.7998 34.2223 21.4569V2.54263C34.2223 2.19263 33.9403 1.91406 33.602 1.91406H13.6889C13.3435 1.91406 13.0686 2.19263 13.0686 2.54263Z"/><path fill="#5AA587" d="M6.53452 1.91406H2.48846C2.14307 1.91406 1.86816 2.19978 1.86816 2.54263V21.4569C1.86816 21.8069 2.15012 22.0855 2.48846 22.0855H6.53452V1.91406Z"/><path fill="#FF7350" d="M10.5807 1.91406H6.53467V22.0926H10.5807C10.9261 22.0926 11.201 21.8069 11.201 21.4641V2.54263C11.201 2.19263 10.9191 1.91406 10.5807 1.91406Z"/><path fill="#FFD250" fill-rule="evenodd" d="M30.9304 8.11446C30.8811 8.03588 28.0051 6.6716 27.0676 6.55017C26.4834 6.47343 25.1809 6.8889 24.5621 7.08629C24.3746 7.14609 24.2499 7.18588 24.2269 7.18588C23.8674 6.75731 23.4938 6.74303 23.4727 6.74303C23.4353 6.74777 23.373 6.87207 23.3209 6.97602C23.2946 7.0287 23.2708 7.07615 23.2542 7.10017C22.9502 6.7168 22.5296 6.74023 22.4828 6.74284L22.4788 6.74303C22.4659 6.74303 22.4456 6.82079 22.422 6.91131C22.394 7.01863 22.3614 7.14387 22.3308 7.17874C21.7105 6.67874 21.2312 7.08589 21.2312 7.09303C21.1959 7.12874 19.8425 7.5716 19.8002 7.50017C19.7297 7.38589 19.624 7.30731 19.5042 7.28588C19.3703 7.25731 19.187 7.28588 19.0672 7.4216C18.9332 7.5716 18.9403 10.2287 18.9403 10.2287C18.9336 10.2422 19.2962 10.404 19.6786 10.5747C20.1097 10.7671 20.5661 10.9707 20.5474 10.9859L20.5326 10.9982C20.2165 11.2615 19.7813 11.624 19.476 12.2287C19.3209 12.543 19.194 13.0145 19.2293 13.5145C18.9967 13.3216 18.5667 12.9287 18.2495 12.5359C18.263 12.5249 18.2777 12.5149 18.2925 12.5048C18.3162 12.4887 18.3406 12.4721 18.3623 12.4502C18.461 12.3502 18.5173 12.2287 18.5173 12.1073C18.5173 11.8502 18.3341 11.6716 18.1578 11.6073C18.0944 11.5859 18.031 11.5787 17.9746 11.593C17.9675 7.37874 18.4398 6.09303 18.5385 5.8716C18.5526 5.83589 18.461 5.72874 18.4257 5.74303L18.4233 5.74382C18.3327 5.77407 16.8957 6.25364 16.8609 8.68588L16.882 11.6216C16.6846 11.6002 16.4943 11.6573 16.3815 11.7787C16.3181 11.843 16.2547 11.9645 16.2899 12.1502C16.3392 12.393 16.5296 12.5716 16.8256 12.6716C16.8186 12.7002 16.9666 13.943 17.023 13.993C16.875 13.9645 16.7763 14.0359 16.7269 14.1216C16.6564 14.2502 16.6846 14.4287 16.7904 14.5145C16.875 14.5859 16.9807 14.6073 17.0794 14.6002C17.059 14.6355 17.0315 14.7702 17.0018 14.9159C16.9593 15.1239 16.9123 15.3544 16.875 15.3502C16.7974 15.3359 16.7199 15.3502 16.6494 15.4002C16.5507 15.4716 16.5084 15.6145 16.5578 15.7573C16.593 15.8645 17.2274 16.6502 17.3402 16.7645C17.3613 16.7859 17.3895 16.793 17.4177 16.793C17.4459 16.793 17.4671 16.7859 17.4882 16.7645C17.601 16.6502 18.2354 15.8645 18.2706 15.7573C18.32 15.6145 18.2777 15.4645 18.179 15.4002C18.1085 15.3502 18.031 15.3359 17.9534 15.3502C17.9207 15.3585 17.8738 15.1363 17.8306 14.9315C17.7992 14.7829 17.7698 14.6433 17.749 14.6073C17.796 14.6073 18.1843 14.8547 18.5915 15.114C19.0403 15.3998 19.5119 15.7002 19.5747 15.7002C19.9201 15.7002 20.1738 15.4073 20.2866 15.2573C20.4981 15.393 21.0408 15.6145 21.0479 15.6145L21.0514 15.6252C21.1001 15.7727 21.3921 16.6577 21.351 16.9216C21.2876 17.2716 20.7377 17.2787 20.4558 17.2287C20.2514 17.193 20.0681 17.2502 19.9271 17.3787C19.7932 17.5073 19.7157 17.7073 19.7368 17.9073C19.7509 18.043 19.8214 18.1145 19.8778 18.143C20.0047 18.2145 22.2039 18.143 22.2462 18.1216C22.4698 17.9319 22.7739 16.5841 22.935 15.8699C22.9924 15.6158 23.0316 15.4419 23.0427 15.4287C23.3226 15.3662 23.9701 15.0942 24.5475 14.8517C24.959 14.6789 25.335 14.5209 25.5169 14.4645C25.6367 14.4287 26.7998 17.1359 26.7786 17.2073C26.7575 17.2502 26.5742 17.443 26.3063 17.4073C26.0878 17.3787 25.8411 17.4502 25.679 17.593C25.5662 17.693 25.5028 17.8287 25.5028 17.9645C25.5028 18.0787 25.5592 18.1359 25.6015 18.1645C25.7424 18.2502 30.2396 18.2073 30.2678 18.1716C30.3806 18.0073 30.3172 17.7287 30.1973 17.5787C30.1268 17.4859 30.0916 14.7573 30.296 14.1359L30.3145 14.0785C30.4217 13.7462 30.5329 13.4017 30.6062 13.0573C30.7894 12.1573 30.3454 11.4359 30.1832 11.2145C30.6344 10.7645 30.8176 10.343 30.7401 9.94303C30.6555 9.50017 30.2467 9.20017 29.9295 9.07874C29.5418 8.92874 28.8933 9.00731 28.2659 9.08589C27.7725 9.14303 25.4252 8.1216 25.4323 8.00731C25.4323 7.92874 25.4605 7.78589 25.6156 7.70017C25.686 7.66446 25.7495 7.65731 25.7988 7.6716C25.8255 7.68199 26.1622 7.77877 26.6338 7.91433C27.7837 8.24489 29.7357 8.80601 29.9506 8.90731C30.2819 9.06446 30.5216 9.02874 30.6626 8.9716C30.8035 8.91446 30.9163 8.80731 30.9586 8.68588C31.015 8.49303 31.0361 8.27874 30.9304 8.11446ZM27.117 14.4859C27.1247 14.491 27.1324 14.4971 27.1404 14.5034C27.1548 14.5146 27.1701 14.5267 27.1884 14.5359C27.1729 14.5204 27.1536 14.5086 27.136 14.4978L27.1308 14.4947C27.126 14.4917 27.1214 14.4888 27.117 14.4859ZM29.0694 9.60017C28.8861 9.62874 25.27 9.79303 25.2418 9.77874C25.0585 9.66446 24.5228 10.8002 24.6286 10.9002C25.0163 10.9287 28.8367 11.1859 29.6333 10.6002C29.9223 10.3859 30.0421 10.1645 29.9646 9.9716C29.8659 9.71446 29.4641 9.55017 29.0694 9.60017ZM28.2376 15.6216C28.1813 15.5859 27.9205 16.9502 27.9134 17.0287C27.9275 17.1145 28.0332 17.5287 28.0473 17.5787C28.1901 17.4472 28.6135 17.3521 28.702 17.3322C28.7096 17.3305 28.7147 17.3293 28.717 17.3287C28.9284 17.2859 29.0835 17.2359 29.0553 16.9645C29.0534 16.9499 29.0521 16.9254 29.0505 16.8934C29.0399 16.6896 29.0135 16.1785 28.7029 15.9502C28.5408 15.8287 28.3857 15.7216 28.2376 15.6216Z" clip-rule="evenodd"/><path fill="#FFD250" d="M15.6766 4.80017L13.7029 3.62874 14.8659 2.56445 15.6766 4.80017zM15.6766 19.2716L13.7029 20.4359 14.8659 21.5073 15.6766 19.2716zM31.3817 4.80017L33.3554 3.62874 32.1923 2.56445 31.3817 4.80017zM31.3817 19.2716L33.3554 20.4359 32.1923 21.5073 31.3817 19.2716z"/></svg>