<svg xmlns="http://www.w3.org/2000/svg" fill="none" viewBox="0 0 37 24"><path fill="#F5F5F5" d="M0 1.73096H36.0902V3.44239H0V1.73096zM0 5.15382H36.0902V6.86524H0V5.15382zM0 8.57738H36.0902V10.2888H0V8.57738zM0 12.0002H36.0902V13.7117H0V12.0002zM0 15.4231H36.0902V17.1345H0V15.4231zM0 18.8467H36.0902V20.5581H0V18.8467zM35.468 23.9807H.622274C.278642 23.9807 0 23.6984 0 23.3501V22.2692H36.0902V23.3501C36.0902 23.6984 35.8116 23.9807 35.468 23.9807z"/><path fill="#FF4B55" d="M36.0902 1.73103H0V.650103C0 .301888.278642.0195312.622274.0195312H35.468C35.8117.0195312 36.0903.301888 36.0903.650103L36.0902 1.73103zM0 3.44274H36.0902V5.15417H0V3.44274zM0 6.8656H36.0902V8.57703H0V6.8656zM0 10.2885H36.0902V11.9999H0V10.2885zM36.0902 15.4229H0V12.6305H.622274L.622415 13.7113H36.0902V15.4229zM0 17.1342H36.0902V18.8456H0V17.1342zM0 20.557H36.0902V22.2685H0V20.557z"/><path fill="#41479B" d="M21.7786 13.7113H0.622274C0.278642 13.7113 0 13.429 0 13.0807V0.650103C0 0.301888 0.278642 0.0195312 0.622274 0.0195312H21.7786C22.1223 0.0195312 22.4009 0.301888 22.4009 0.650103V13.0807C22.4008 13.4291 22.1223 13.7113 21.7786 13.7113Z"/><path fill="#FFE15A" d="M5.91131 6.85896C5.91131 4.47417 7.82156 2.53967 10.1728 2.53967 10.7644 2.53967 11.3269 2.66239 11.8392 2.88353 11.9057 2.91224 11.9558 2.81846 11.8961 2.77717 11.0485 2.19246 10.0119 1.8721 8.89997 1.93067 6.45549 2.05946 4.45664 4.05467 4.2986 6.52996 4.11484 9.4091 6.36315 11.7942 9.15943 11.7942 10.17 11.7942 11.1093 11.4787 11.8894 10.9437 11.9494 10.9025 11.8997 10.8086 11.8329 10.8372 11.3223 11.0567 10.7621 11.1784 10.1729 11.1784 7.82156 11.1783 5.91131 9.24381 5.91131 6.85896zM15.6526 6.85896L17.4541 6.15261C17.5431 6.11768 17.5128 5.98289 17.4176 5.99061L15.4927 6.14682 16.8155 4.71396C16.8808 4.64332 16.7958 4.53539 16.7133 4.58411L15.0414 5.57239 15.6185 3.70268C15.6469 3.61039 15.5241 3.55046 15.4708 3.63061L14.3885 5.25525 14.1108 3.31611C14.0972 3.22032 13.9607 3.22025 13.9469 3.31603L13.7695 4.54303 13.6959 5.06232 13.6676 5.25532 12.5853 3.63203C12.5319 3.55189 12.409 3.61189 12.4376 3.70418L13.0168 5.57232 11.3451 4.58403C11.2626 4.53525 11.1776 4.64325 11.2429 4.71389L12.5656 6.14675 10.6402 5.99053C10.545 5.98282 10.5146 6.11761 10.6037 6.15253L12.4068 6.85889 10.6036 7.56539C10.5144 7.60032 10.5449 7.73511 10.6401 7.72739L12.5656 7.57118 11.2428 9.00761C11.1776 9.07839 11.2628 9.18618 11.3452 9.13732L13.0169 8.14554 12.4377 10.0137C12.4091 10.106 12.5319 10.166 12.5854 10.0858L13.6677 8.46254 13.7696 9.17482 13.947 10.4051C13.9608 10.501 14.0973 10.5008 14.111 10.405L14.3886 8.46268 15.4709 10.0873C15.5244 10.1675 15.6471 10.1077 15.6186 10.0152L15.0416 8.14554 16.7132 9.13732C16.7956 9.18618 16.8808 9.07839 16.8156 9.00761L15.4928 7.57118 17.4177 7.72739C17.513 7.73511 17.5434 7.60032 17.4543 7.56539L15.6526 6.85896z"/></svg>