<svg xmlns="http://www.w3.org/2000/svg" fill="none" viewBox="0 0 37 25"><path fill="#FF4B55" d="M36.3711 24.8941H0.63606C0.28189 24.8941 0 24.5975 0 24.2416V0.675096C0 0.311736 0.289118 0.0225309 0.63606 0.0225309H36.3639C36.718 0.0225309 36.9999 0.319151 36.9999 0.675096V24.2416C37.0071 24.6049 36.718 24.8941 36.3711 24.8941Z"/><path fill="#F5F5F5" d="M.635923.0225309C.462452.0225309.310665.096686.195017.207919L26.1578 24.8941H28.0733L1.91527.0225309H.635923zM10.8488.0225309H8.93341L35.0914 24.8941H36.3707C36.5442 24.8941 36.696 24.82 36.8116 24.7088L10.8488.0225309z"/><path fill="#464655" d="M1.91563 0.0225309L28.0736 24.8941H35.092L8.93398 0.0225309H1.91563Z"/></svg>