<svg xmlns="http://www.w3.org/2000/svg" fill="none" viewBox="0 0 36 24"><path fill="#73AF00" d="M0 15.9453H35.9831V23.2806C35.9831 23.6296 35.702 23.9073 35.3647 23.9073H0.61846C0.27409 23.9073 0 23.6225 0 23.2806V15.9453Z"/><path fill="#FFE15A" d="M0 7.983H35.983V15.945H0z"/><path fill="#FF4B55" d="M0.61846 0.0214844H35.3576C35.702 0.0214844 35.9761 0.306351 35.9761 0.648191V7.9835H0V0.648191C0 0.299229 0.281118 0.0214844 0.61846 0.0214844Z"/><path fill="#73AF00" d="M17.1901 8.40381C17.1901 8.40381 17.1761 8.42518 17.1409 8.46079C17.1128 8.4964 17.0777 8.54625 17.0355 8.62459C16.9582 8.76702 16.8739 8.98779 16.8669 9.25129C16.8669 9.37948 16.895 9.53616 16.9371 9.65723C16.9863 9.79254 17.0636 9.92785 17.162 10.0418C17.2604 10.1629 17.394 10.2483 17.5345 10.3195C17.6048 10.3551 17.6821 10.3765 17.7594 10.3979C17.7945 10.4121 17.8367 10.4121 17.8789 10.4192C17.9 10.4264 17.921 10.4192 17.9351 10.4264H17.9632H17.9773H17.9843H17.9913C17.9843 10.4264 18.0054 10.4264 17.9773 10.4264C18.0265 10.4264 18.0827 10.4264 18.1249 10.4192C18.16 10.4121 18.1881 10.4121 18.2303 10.3979C18.3076 10.3765 18.3849 10.3551 18.4552 10.3195C18.5957 10.2554 18.7293 10.1629 18.8277 10.0418C18.926 9.92785 19.0034 9.79254 19.0525 9.65723C19.0947 9.51479 19.1228 9.3866 19.1228 9.25129C19.1228 8.98779 19.0385 8.76702 18.9542 8.62459C18.912 8.55337 18.8768 8.4964 18.8487 8.46079C18.8206 8.42518 18.8066 8.40381 18.8066 8.40381L18.7995 8.39669C18.7714 8.36108 18.7785 8.31123 18.8136 8.28275C18.8417 8.26138 18.8768 8.26138 18.905 8.27562C18.905 8.27562 18.926 8.28987 18.9682 8.31835C19.0104 8.34684 19.0736 8.38957 19.1369 8.46079C19.2704 8.5961 19.4531 8.83824 19.5164 9.19432C19.5445 9.36524 19.5515 9.56464 19.5094 9.77117C19.4672 9.9777 19.3829 10.1842 19.2423 10.3694C19.1088 10.5546 18.926 10.7184 18.7082 10.8252C18.6028 10.8822 18.4833 10.9249 18.3638 10.9534C18.3076 10.9676 18.2373 10.9747 18.167 10.989C18.1038 10.9961 18.0616 10.9961 18.0124 10.9961H17.9913H17.9843H17.9702H17.9492H17.9C17.8719 10.9961 17.8367 10.9961 17.8086 10.989C17.7453 10.9747 17.6891 10.9747 17.6259 10.9534C17.5064 10.9249 17.3869 10.8822 17.2815 10.8252C17.0636 10.7184 16.8809 10.5546 16.7474 10.3694C16.6068 10.1842 16.5225 9.9777 16.4803 9.77117C16.4382 9.55752 16.4382 9.37236 16.4733 9.19432C16.5365 8.84536 16.7122 8.5961 16.8528 8.46079C16.9231 8.38957 16.9863 8.34684 17.0285 8.31123C17.0707 8.28275 17.0917 8.2685 17.0917 8.2685C17.1269 8.24714 17.1761 8.25426 17.2042 8.29699C17.2112 8.33972 17.2112 8.37533 17.1901 8.40381Z"/><path fill="#FF4B55" d="M17.837 14.6641V15.6611C17.837 15.7608 17.7175 15.8106 17.6473 15.7394L17.591 15.6825C17.5489 15.6397 17.5208 15.5756 17.5208 15.5115V14.6641H17.837zM18.1461 14.6641V15.6611C18.1461 15.7608 18.2656 15.8106 18.3359 15.7394L18.3921 15.6825C18.4343 15.6397 18.4624 15.5756 18.4624 15.5115V14.6641H18.1461z"/><path fill="#FFE15A" d="M17.3662 14.5003V15.2196C17.3662 15.2623 17.3803 15.305 17.4154 15.3335L17.5208 15.4403V14.4932L17.3662 14.5003zM18.617 14.5003V15.2196C18.617 15.2623 18.6029 15.305 18.5678 15.3335L18.4623 15.4403V14.4932L18.617 14.5003z"/><path fill="#FF4B55" d="M20.9503 11.5374V10.8751L20.4865 11.2169V10.3979L19.861 10.8609V11.6798L20.3318 11.3309V13.154C20.3318 13.9018 19.7345 14.5071 18.9965 14.5071 18.8841 14.5071 18.7787 14.4929 18.6732 14.4644L19.376 14.9344C19.5939 15.0698 19.8329 15.141 20.0859 15.141 20.8238 15.141 21.4212 14.5356 21.4212 13.7879V11.1885L20.9503 11.5374zM17.3097 14.4644C17.2043 14.4929 17.0989 14.5071 16.9864 14.5071 16.2485 14.5071 15.6511 13.9018 15.6511 13.154V11.3309L16.122 11.6798V10.8609L15.4965 10.3979V11.2169L15.0326 10.8751V11.5374L14.5618 11.1885V13.7879C14.5618 14.5356 15.1591 15.141 15.8971 15.141 16.1501 15.141 16.389 15.0698 16.6069 14.9344L17.3097 14.4644z"/><path fill="#FFBE5A" d="M15.9464 14.4856L15.7426 14.2791C15.6161 14.1509 15.6231 13.9443 15.7496 13.8233L16.3891 13.1895 16.853 13.9443 16.3891 14.4714C16.2767 14.6067 16.0729 14.6067 15.9464 14.4856zM15.8481 14.5354C15.9335 14.5354 16.0027 14.4653 16.0027 14.3788 16.0027 14.2922 15.9335 14.2221 15.8481 14.2221 15.7627 14.2221 15.6935 14.2922 15.6935 14.3788 15.6935 14.4653 15.7627 14.5354 15.8481 14.5354zM20.0649 14.4927L20.2476 14.3076C20.36 14.1936 20.353 14.0084 20.2406 13.9016L19.5659 13.2536 19.1372 13.9515 19.6643 14.4785C19.7697 14.5995 19.9524 14.5995 20.0649 14.4927zM20.1564 14.5354C20.234 14.5354 20.2969 14.4749 20.2969 14.4001 20.2969 14.3254 20.234 14.2648 20.1564 14.2648 20.0788 14.2648 20.0158 14.3254 20.0158 14.4001 20.0158 14.4749 20.0788 14.5354 20.1564 14.5354z"/><path fill="#3CC8FF" d="M17.9916 14.7417C17.0007 14.7417 16.1995 13.823 16.1995 12.6907C16.1995 11.5583 17.0007 10.6396 17.9916 10.6396C18.9825 10.6396 19.7837 11.5583 19.7837 12.6907C19.7837 13.823 18.9825 14.7417 17.9916 14.7417Z"/><path fill="#825546" d="M18.4766 10.1841L20.325 9.60724L19.341 9.23691C19.1653 9.17282 18.9826 9.13721 18.7929 9.13721H18.6101C18.5258 9.13721 18.4555 9.20842 18.4555 9.29388V9.45056H18.2587C18.2025 9.35798 18.1041 9.29388 17.9917 9.29388C17.8792 9.29388 17.7808 9.35798 17.7246 9.45056H17.5208V9.29388C17.5208 9.20842 17.4505 9.13721 17.3662 9.13721H17.1835C16.9937 9.13721 16.811 9.17282 16.6353 9.23691L15.6514 9.60724L17.4997 10.1841C17.5911 10.2126 17.6332 10.3194 17.5911 10.4049L17.3592 10.8678H18.6031L18.3712 10.4049C18.3431 10.3194 18.3852 10.2126 18.4766 10.1841Z"/></svg>