<svg xmlns="http://www.w3.org/2000/svg" fill="none" viewBox="0 0 37 24"><path fill="#82AFFF" d="M36.0902 8.0072H0V0.650056C0 0.300056 0.281955 0.0214844 0.620301 0.0214844H35.4629C35.8083 0.0214844 36.0832 0.307199 36.0832 0.650056L36.0902 8.0072Z"/><path fill="#73AF00" d="M35.4699 23.9784H0.620301C0.274906 23.9784 0 23.6927 0 23.3498V15.9927H36.0902V23.3498C36.0902 23.6998 35.8083 23.9784 35.4699 23.9784Z"/><path fill="#F5F5F5" d="M0 8.007H36.09V15.992999999999999H0z"/><path fill="#FF4B55" d="M0 7.2998H36.0902V8.29267H0V7.2998zM0 15.707H36.0902V16.6998H0V15.707z"/><path fill="#F5F5F5" d="M8.00015 6.00711C6.72431 6.00711 5.69517 4.96425 5.69517 3.67854C5.69517 2.38568 6.72431 1.33568 8.00015 1.33568C8.0072 1.33568 8.0072 1.33568 8.01425 1.33568C8.09179 1.33568 8.11293 1.23568 8.04949 1.19996C7.65476 0.985678 7.21068 0.864249 6.73136 0.871392C5.2088 0.885678 3.9682 2.16425 3.9823 3.70711C3.99639 5.23568 5.22995 6.47139 6.74545 6.47139C7.21773 6.47139 7.65476 6.34997 8.04245 6.14282C8.10589 6.10711 8.08474 6.00711 8.0072 6.00711C8.0072 6.00711 8.0072 6.00711 8.00015 6.00711Z"/></svg>