<svg xmlns="http://www.w3.org/2000/svg" fill="none" viewBox="0 0 37 24"><path fill="#41479B" d="M35.4699 23.9786H0.620301C0.274906 23.9786 0 23.6929 0 23.3501V0.650056C0 0.300056 0.281955 0.0214844 0.620301 0.0214844H35.4629C35.8083 0.0214844 36.0832 0.307199 36.0832 0.650056V23.3501C36.0902 23.7001 35.8083 23.9786 35.4699 23.9786Z"/><path fill="#F5F5F5" d="M17.4248 0.0214844H16.3463L10.5804 3.85006V0.0214844H7.4718V3.85006L1.70583 0.0214844H0.620301C0.274906 0.0214844 0 0.307199 0 0.650056V1.15006L4.94831 4.43577H0V7.58577H4.94831L0 10.8715V11.3715C0 11.7215 0.281955 12.0001 0.620301 12.0001H1.69878L7.46476 8.17148V12.0001H10.5733V8.17148L16.3393 12.0001H17.4178C17.7632 12.0001 18.0381 11.7143 18.0381 11.3715V10.8715L13.0898 7.58577H18.0451V4.43577H13.0968L18.0451 1.15006V0.650056C18.0451 0.300056 17.7632 0.0214844 17.4248 0.0214844Z"/><path fill="#FF4B55" d="M18.0451 5.06434H9.95301V.0214844H8.09211V5.06434H0V6.9572H8.09211V12.0001H9.95301V6.9572H18.0451V5.06434zM6.84446 4.43576L.296053.128617C.119831.23576 0 .428617 0 .650046V.68576L5.70254 4.43576H6.84446zM11.7221 4.43577L17.9533.33577C17.8476.150056 17.6573.0214844 17.4246.0214844H17.2907L10.5802 4.43577H11.7221zM6.30888 7.58577L.0917746 11.6786C.197508 11.8715.394876 12.0001.627489 12.0001H.74732L7.45785 7.58577H6.30888zM18.0378 11.4215L12.2084 7.58577H11.0665L17.6853 11.9358C17.8827 11.8429 18.0166 11.6501 18.0378 11.4215zM27.8782 20.0072C27.85 20.0072 27.8289 20 27.8078 19.9858L27.0747 19.45 26.3416 19.9858C26.3204 20 26.2923 20.0072 26.2711 20.0072 26.2429 20.0072 26.2218 20 26.2006 19.9858 26.1583 19.9572 26.1372 19.9 26.1583 19.8429L26.4332 18.9715 25.7072 18.4286C25.6649 18.3929 25.6438 18.3429 25.6649 18.2858 25.679 18.2358 25.7283 18.2 25.7847 18.2L26.687 18.1929 26.976 17.3215C26.9901 17.2715 27.0394 17.2358 27.0958 17.2358 27.1522 17.2358 27.1945 17.2715 27.2157 17.3215L27.5047 18.1929 28.4069 18.2C28.4633 18.2 28.5056 18.2358 28.5267 18.2858 28.5408 18.3358 28.5267 18.3929 28.4844 18.4286L27.7584 18.9715 28.0333 19.8429C28.0474 19.8929 28.0333 19.95 27.991 19.9858 27.9276 20 27.8994 20.0072 27.8782 20.0072zM27.8786 9.84291C27.8504 9.84291 27.8293 9.83577 27.8081 9.82148L27.068 9.28577 26.3349 9.82148C26.3138 9.83577 26.2856 9.84291 26.2644 9.84291 26.2362 9.84291 26.2151 9.83577 26.194 9.82148 26.1517 9.79291 26.1305 9.73577 26.1517 9.67863L26.4266 8.8072 25.7005 8.26434C25.6582 8.22863 25.6371 8.17863 25.6582 8.12148 25.6723 8.07148 25.7217 8.03577 25.7781 8.03577L26.6803 8.02863 26.9693 7.1572C26.9834 7.1072 27.0328 7.07148 27.0892 7.07148 27.1456 7.07148 27.1878 7.1072 27.209 7.1572L27.498 8.02863 28.4003 8.03577C28.4566 8.03577 28.4989 8.07148 28.5201 8.12148 28.5342 8.17148 28.5201 8.22863 28.4778 8.26434L27.7518 8.8072 28.0267 9.67863C28.0408 9.72863 28.0267 9.78577 27.9844 9.82148 27.928 9.83577 27.8998 9.84291 27.8786 9.84291zM32.2347 12.9929C32.2065 12.9929 32.1853 12.9858 32.1642 12.9715L31.4311 12.4358 30.698 12.9715C30.6769 12.9858 30.6487 12.9929 30.6275 12.9929 30.5993 12.9929 30.5782 12.9858 30.557 12.9715 30.5147 12.9429 30.4936 12.8858 30.5147 12.8286L30.7896 11.9572 30.0636 11.4143C30.0213 11.3786 30.0002 11.3286 30.0213 11.2715 30.0354 11.2215 30.0848 11.1858 30.1411 11.1858L31.0434 11.1786 31.3324 10.3072C31.3465 10.2572 31.3958 10.2215 31.4522 10.2215 31.5086 10.2215 31.5509 10.2572 31.5721 10.3072L31.8611 11.1786 32.7633 11.1858C32.8197 11.1858 32.862 11.2215 32.8832 11.2715 32.8973 11.3215 32.8832 11.3786 32.8409 11.4143L32.1148 11.9572 32.3897 12.8286C32.4038 12.8786 32.3897 12.9358 32.3474 12.9715 32.284 12.9858 32.2558 12.9929 32.2347 12.9929zM23.5218 14.2572C23.4936 14.2572 23.4725 14.2501 23.4513 14.2358L22.7183 13.7001 21.9852 14.2358C21.964 14.2501 21.9358 14.2572 21.9147 14.2572 21.8865 14.2572 21.8654 14.2501 21.8442 14.2358 21.8019 14.2072 21.7808 14.1501 21.8019 14.0929L22.0768 13.2215 21.3508 12.6786C21.3085 12.6429 21.2873 12.5929 21.3085 12.5358 21.3226 12.4858 21.3719 12.4501 21.4283 12.4501L22.3306 12.4429 22.6196 11.5715C22.6337 11.5215 22.683 11.4858 22.7394 11.4858 22.7958 11.4858 22.8381 11.5215 22.8592 11.5715L23.1482 12.4429 24.0505 12.4501C24.1069 12.4501 24.1492 12.4858 24.1703 12.5358 24.1844 12.5858 24.1703 12.6429 24.128 12.6786L23.402 13.2215 23.6769 14.0929C23.691 14.1429 23.6769 14.2001 23.6346 14.2358 23.5712 14.2501 23.543 14.2572 23.5218 14.2572z"/></svg>