<svg xmlns="http://www.w3.org/2000/svg" fill="none" viewBox="0 0 37 24"><path fill="#FF4B55" d="M36.0902 4.81434H0V.650056C0 .300056.281955.0214844.620301.0214844H35.4629C35.8083.0214844 36.0832.307199 36.0832.650056L36.0902 4.81434zM0 9.60719H36.0902V14.4H0V9.60719zM35.4699 23.9786H.620301C.274906 23.9786 0 23.6929 0 23.35V19.1858H36.0902V23.35C36.0902 23.7001 35.8083 23.9786 35.4699 23.9786z"/><path fill="#F5F5F5" d="M0 4.81445H36.0902V9.60731H0V4.81445zM0 14.4002H36.0902V19.193H0V14.4002z"/><path fill="#41479B" d="M0.232613 23.8285L17.453 12.3928C17.735 12.2071 17.735 11.7928 17.453 11.6071L0.232613 0.171387C0.0916353 0.285672 0 0.457101 0 0.649958V23.35C0 23.5428 0.0916353 23.7142 0.232613 23.8285Z"/><path fill="#F5F5F5" d="M6.35805 9.07137L7.00655 11.0428L9.05777 11.0571C9.32563 11.0571 9.43136 11.3999 9.2199 11.5642L7.57046 12.7999L8.19076 14.7857C8.2683 15.0428 7.97929 15.2571 7.76783 15.0999L6.09725 13.8928L4.42666 15.0999C4.20815 15.2571 3.91914 15.0428 4.00373 14.7857L4.62403 12.7999L2.96755 11.5714C2.75608 11.4142 2.86181 11.0642 3.12967 11.0642L5.18089 11.0499L5.82939 9.07851C5.91397 8.81423 6.27347 8.81423 6.35805 9.07137Z"/></svg>