<svg xmlns="http://www.w3.org/2000/svg" fill="none" viewBox="0 0 37 24"><path fill="#73AF00" d="M12.0324 23.9786H0.620301C0.274906 23.9786 0 23.6929 0 23.3501V0.650056C0 0.300056 0.281955 0.0214844 0.620301 0.0214844H12.0254L12.0324 23.9786Z"/><path fill="#F5F5F5" d="M12.032 0.021H24.064V23.985H12.032z"/><path fill="#FF4B55" d="M35.47 23.9786H24.0579V0.0214844H35.4629C35.8083 0.0214844 36.0832 0.307199 36.0832 0.650056V23.3501C36.0903 23.7001 35.8083 23.9786 35.47 23.9786Z"/><path fill="#FFD250" d="M19.1166 12.5645L18.0452 13.1073V13.6502H18.5809L19.1166 12.5645Z"/><path fill="#00AADC" d="M20.9142 12.7642C21.0199 12.6571 21.027 12.4856 20.9283 12.3785C20.8226 12.2713 20.6534 12.2642 20.5477 12.3642C19.8498 13.0213 18.9617 13.3785 18.0453 13.3785C17.129 13.3785 16.2408 13.0213 15.543 12.3642C15.4302 12.2642 15.261 12.2713 15.1623 12.3785C15.0637 12.4928 15.0707 12.6642 15.1764 12.7642C15.9025 13.4428 16.8188 13.8499 17.7775 13.9142V14.4571C17.2981 14.4142 16.8259 14.2571 16.417 13.9856L16.121 14.4356C16.6919 14.8142 17.3545 15.0213 18.0453 15.0213C18.7361 15.0213 19.3987 14.8142 19.9697 14.4356L19.6736 13.9856C19.2648 14.2571 18.7925 14.4142 18.3132 14.4571V13.9142C19.2718 13.8499 20.1882 13.4499 20.9142 12.7642Z"/><path fill="#AAD264" d="M17.3258 9.07846C17.2553 9.02132 16.9733 8.75703 16.9733 8.75703L16.4376 9.29989V9.49989C16.3953 9.49275 16.346 9.4856 16.3037 9.4856 16.1698 9.4856 16.1557 9.42132 16.1486 9.39275 16.1345 9.32846 16.1627 9.22846 16.2261 9.19275L15.9794 8.70703C15.6975 8.85703 15.5495 9.19275 15.627 9.52132 15.7045 9.8356 15.9653 10.0285 16.3037 10.0285 16.4235 10.0285 16.5292 10.0927 16.5433 10.1427 16.5504 10.1642 16.5292 10.207 16.4729 10.257 16.1557 10.5427 15.486 11.1427 15.9794 11.7142 16.0993 11.8499 16.2684 11.9142 16.4235 11.9642 16.7055 12.057 16.7055 12.0856 16.6914 12.1927 16.6773 12.2785 16.5504 12.3285 16.4235 12.3285 16.0147 12.3285 15.338 11.9499 15.1477 10.8285L14.619 10.9213C14.8446 12.2642 15.6904 12.8713 16.4024 12.8713 16.4165 12.8713 16.4235 12.8713 16.4376 12.8713 16.8676 12.857 17.1777 12.607 17.22 12.2499 17.2835 11.6785 16.8323 11.5285 16.5927 11.4427 16.5222 11.4213 16.4094 11.3785 16.3812 11.3499 16.2614 11.2142 16.4729 10.9785 16.8253 10.657 17.1495 10.3642 17.0861 10.0642 17.0438 9.94989 17.0015 9.8356 16.9169 9.72846 16.8112 9.64989 16.9945 9.55703 17.1918 9.45703 17.2905 9.40703 17.4386 9.3356 17.4104 9.16417 17.3258 9.07846zM18.045 16.0999C15.5285 16.0999 13.4844 14.0285 13.4844 11.4785H14.0201C14.0201 13.7285 15.8246 15.557 18.045 15.557 20.2654 15.557 22.0699 13.7285 22.0699 11.4785H22.6056C22.6056 14.0213 20.5614 16.0999 18.045 16.0999z"/><path fill="#9B4B5A" d="M21.2667 12.5642C21.8024 7.67133 18.0453 8.21419 18.0453 8.21419C19.1168 8.75705 18.581 9.84276 18.581 9.84276V9.85705C18.5529 9.79276 18.5247 9.72133 18.4894 9.65705C18.2145 9.10705 17.6576 8.75705 17.0514 8.75705H16.9739V9.29991C17.27 9.29991 17.5096 9.54276 17.5096 9.84276C17.1924 10.1642 17.1078 10.6642 17.3122 11.0713L17.4321 11.3142C17.4603 11.3713 17.4955 11.4285 17.5378 11.4785L17.0303 12.2713L16.9246 12.5785L18.285 12.257L19.1168 13.0999V12.557L19.6595 13.107C20.731 12.5642 20.731 12.5642 20.731 12.5642L19.0604 11.5499C19.011 11.207 18.9405 10.8713 18.8348 10.5428L20.1952 11.3428C20.3785 11.8785 20.7592 12.3642 21.2667 12.5642Z"/></svg>