<svg xmlns="http://www.w3.org/2000/svg" fill="none" viewBox="0 0 37 24"><path fill="#FF4B55" d="M35.47 0.0214844H18.0452V23.9786H35.47C35.8154 23.9786 36.0903 23.6929 36.0903 23.3501V0.650056C36.0903 0.300056 35.8083 0.0214844 35.47 0.0214844Z"/><path fill="#F5F5F5" d="M0.620301 23.9786H18.0451V0.0214844H0.620301C0.274906 0.0214844 0 0.307199 0 0.650056V23.3501C0 23.7001 0.281955 23.9786 0.620301 23.9786Z"/><path fill="#FF4B55" fill-rule="evenodd" d="M5.18812 1.27832H5.39254V1.49975V3.02118C5.47008 3.05689 5.54761 3.10689 5.61105 3.17118C5.67449 3.23546 5.72384 3.31403 5.75908 3.39261H7.26049H7.46491V3.59975V5.27832V5.48546H7.26049H5.75203C5.71679 5.56403 5.66745 5.64261 5.60401 5.70689C5.54057 5.77118 5.46303 5.82118 5.38549 5.85689V7.36404V7.57118H5.18107H3.52459H3.32017V7.36404V5.84261C3.24263 5.80689 3.1651 5.75689 3.10166 5.69261C3.03822 5.62832 2.98887 5.54975 2.95363 5.47118H1.45222H1.2478V5.26403V3.58546V3.37832H1.45222H2.95363C2.98887 3.29975 3.03822 3.22118 3.10166 3.15689C3.1651 3.09261 3.24263 3.04261 3.32017 3.00689V1.48546V1.27832H3.52459H5.18812ZM5.18798 3.17832V1.49261H3.52445V3.17832C3.43281 3.17832 3.32708 3.22118 3.24249 3.3069C3.15791 3.39261 3.12266 3.49975 3.11561 3.59261H1.45208V5.27118H3.11561C3.11561 5.36404 3.15791 5.47118 3.24249 5.5569C3.32708 5.64261 3.43281 5.67832 3.52445 5.68547V7.37118H5.18798V5.68547C5.27962 5.68547 5.38535 5.64261 5.46994 5.5569C5.55452 5.47118 5.58977 5.36404 5.59682 5.27118H7.26035V3.59261H5.59682C5.59682 3.49975 5.55452 3.39261 5.46994 3.3069C5.38535 3.22118 5.27962 3.18547 5.18798 3.17832Z" clip-rule="evenodd"/><path fill="#CDCDCD" d="M7.26042 3.59268H5.18805V1.49268H3.52452V3.59268H1.45215V5.27125H3.52452V7.37839H5.18805V5.27125H7.26042V3.59268Z"/><path fill="#B4A08C" d="M4.35633 5.27837C4.81571 5.27837 5.1881 4.90101 5.1881 4.43551 5.1881 3.97002 4.81571 3.59266 4.35633 3.59266 3.89696 3.59266 3.52457 3.97002 3.52457 4.43551 3.52457 4.90101 3.89696 5.27837 4.35633 5.27837zM3.69066 5.63169C3.79252 5.52848 3.75904 5.32723 3.6159 5.18218 3.47276 5.03713 3.27415 5.00321 3.1723 5.10642 3.07045 5.20963 3.10392 5.41088 3.24707 5.55593 3.39021 5.70098 3.58881 5.7349 3.69066 5.63169zM5.46458 5.55968C5.60772 5.41463 5.64119 5.21337 5.53934 5.11016 5.43749 5.00696 5.23888 5.04088 5.09574 5.18593 4.9526 5.33098 4.91913 5.53223 5.02098 5.63544 5.12283 5.73865 5.32144 5.70473 5.46458 5.55968zM5.53723 3.75713C5.63908 3.65392 5.60561 3.45267 5.46247 3.30762 5.31933 3.16257 5.12072 3.12865 5.01887 3.23186 4.91702 3.33507 4.95049 3.53632 5.09363 3.68137 5.23678 3.82642 5.43538 3.86034 5.53723 3.75713zM3.61435 3.6777C3.7575 3.53265 3.79097 3.33139 3.68912 3.22818 3.58727 3.12497 3.38866 3.15889 3.24552 3.30394 3.10238 3.44899 3.0689 3.65025 3.17076 3.75346 3.27261 3.85667 3.47121 3.82275 3.61435 3.6777z"/><path fill="#B4A08C" fill-rule="evenodd" d="M3.22112 4.43551C3.22112 5.07122 3.72864 5.58551 4.35599 5.58551C4.98334 5.58551 5.49086 5.07122 5.49086 4.43551C5.49086 3.7998 4.98334 3.28551 4.35599 3.28551C3.72864 3.28551 3.22112 3.7998 3.22112 4.43551ZM3.32696 4.42838C3.32696 3.85695 3.78513 3.38552 4.35609 3.38552C4.92705 3.38552 5.38523 3.85695 5.38523 4.42838C5.38523 4.9998 4.92 5.47123 4.35609 5.47123C3.79218 5.47123 3.32696 4.9998 3.32696 4.42838Z" clip-rule="evenodd"/></svg>