<svg xmlns="http://www.w3.org/2000/svg" fill="none" viewBox="0 0 37 24"><path fill="#FF4B55" d="M36.0902 12.0001H0V0.650056C0 0.300056 0.281955 0.0214844 0.620301 0.0214844H35.4629C35.8083 0.0214844 36.0832 0.307199 36.0832 0.650056L36.0902 12.0001Z"/><path fill="#F5F5F5" d="M0 11.9998H36.0902V23.3498C36.0902 23.6998 35.8083 23.9783 35.4699 23.9783H.620301C.274906 23.9783 0 23.6926 0 23.3498V11.9998zM5.11743 6.02121C5.11743 3.94978 6.61884 2.22835 8.57843 1.91407 8.68416 1.89978 8.69121 1.74978 8.58548 1.72121 8.09911 1.60693 7.58454 1.57835 7.04882 1.64978 4.93416 1.94264 3.29883 3.79264 3.27063 5.95693 3.23539 8.42835 5.20202 10.4355 7.62683 10.4355 7.95813 10.4355 8.27533 10.3998 8.58548 10.3212 8.69121 10.2998 8.68416 10.1498 8.57843 10.1284 6.61884 9.81407 5.11743 8.09978 5.11743 6.02121zM8.60664 7.12836L8.42337 7.6855 7.83831 7.69264C7.76078 7.69264 7.73258 7.79264 7.78897 7.8355L8.2542 8.1855 8.07798 8.74979C8.05683 8.82122 8.13437 8.8855 8.19781 8.8355L8.67008 8.49265 9.14236 8.8355C9.2058 8.87836 9.28333 8.82122 9.26219 8.74979L9.08597 8.1855 9.55119 7.8355C9.61463 7.79264 9.57939 7.69264 9.50185 7.69264L8.91679 7.6855 8.73352 7.12836C8.73352 7.05693 8.63484 7.05693 8.60664 7.12836zM11.4895 7.12836L11.3062 7.6855 10.7211 7.69264C10.6436 7.69264 10.6154 7.79264 10.6718 7.8355L11.137 8.1855 10.9608 8.74979C10.9396 8.82122 11.0172 8.8855 11.0806 8.8355L11.5529 8.49265 12.0252 8.8355C12.0886 8.87836 12.1661 8.82122 12.145 8.74979L11.9688 8.1855 12.434 7.8355C12.4974 7.79264 12.4622 7.69264 12.3847 7.69264L11.7996 7.6855 11.6163 7.12836C11.6093 7.05693 11.5106 7.05693 11.4895 7.12836zM10.0588 2.62836L9.87551 3.1855 9.29045 3.19264C9.21291 3.19264 9.18472 3.29264 9.24111 3.3355L9.70633 3.6855 9.53011 4.24979C9.50896 4.32122 9.5865 4.3855 9.64994 4.3355L10.1222 3.99264 10.5945 4.3355C10.6579 4.37836 10.7355 4.32122 10.7143 4.24979L10.5381 3.6855 11.0033 3.3355C11.0668 3.29264 11.0315 3.19264 10.954 3.19264L10.3689 3.1855 10.1857 2.62836C10.1857 2.55693 10.087 2.55693 10.0588 2.62836zM7.76807 4.34977L7.5848 4.90692 6.99974 4.91406C6.9222 4.91406 6.89401 5.01406 6.9504 5.05692L7.41563 5.40692 7.2394 5.9712C7.21826 6.04263 7.29579 6.10692 7.35923 6.05692L7.83151 5.71406 8.30378 6.05692C8.36722 6.09977 8.44476 6.04263 8.42361 5.9712L8.24739 5.40692 8.71262 5.05692C8.77606 5.01406 8.74081 4.91406 8.66327 4.91406L8.07822 4.90692 7.89495 4.34977C7.89495 4.27835 7.78922 4.27835 7.76807 4.34977zM12.3354 4.34977L12.1522 4.90692 11.5671 4.91406C11.4896 4.91406 11.4614 5.01406 11.5178 5.05692L11.983 5.40692 11.8068 5.9712C11.7856 6.04263 11.8631 6.10692 11.9266 6.05692L12.3989 5.71406 12.8711 6.05692C12.9346 6.09977 13.0121 6.04263 12.991 5.9712L12.8147 5.40692 13.28 5.05692C13.3434 5.01406 13.3082 4.91406 13.2306 4.91406L12.6456 4.90692 12.4623 4.34977C12.4623 4.27835 12.3636 4.27835 12.3354 4.34977z"/></svg>