<svg xmlns="http://www.w3.org/2000/svg" fill="none" viewBox="0 0 37 24"><path fill="#F5F5F5" d="M8.092 0.021H28.005000000000003V23.985H8.092z"/><path fill="#FF4B55" d="M.620301.0214844C.274906.0214844 0 .307199 0 .650056V23.3501C0 23.7001.281955 23.9786.620301 23.9786H8.08506V.0214844H.620301zM35.4699.0214844H27.9981V23.9786H35.4628C35.8082 23.9786 36.0831 23.6929 36.0831 23.3501V.650056C36.0902.300056 35.8082.0214844 35.4699.0214844zM21.8235 14.7715L25.5171 12.6358 24.6712 12.2072C24.4316 12.0858 24.2976 11.8286 24.3329 11.5572L24.6078 9.46435 23.0429 9.92864C22.6975 10.0286 22.338 9.81435 22.2605 9.45721L22.1125 8.77149 20.6463 10.5144C20.4419 10.7572 20.0542 10.5715 20.1106 10.2572L20.738 6.56435 19.7793 6.82864C19.4974 6.90721 19.2013 6.77864 19.0674 6.51435L18.0453 4.59292 17.0373 6.51435C16.9034 6.7715 16.6073 6.90007 16.3254 6.82864L15.3667 6.56435 15.9941 10.2572C16.0505 10.5715 15.6628 10.7572 15.4583 10.5144L13.9922 8.77149 13.8442 9.45721C13.7666 9.81435 13.4071 10.0286 13.0617 9.92864L11.4969 9.46435 11.7718 11.5572C11.807 11.8215 11.6731 12.0858 11.4334 12.2072L10.5876 12.6358 14.2812 14.7715C14.6618 14.9929 14.831 15.4644 14.6759 15.8786L14.3587 16.7358 17.5237 16.4644C17.6999 16.4501 17.8479 16.5929 17.8409 16.7715L17.7422 20.2001H18.3625L18.2638 16.7715C18.2568 16.5929 18.4048 16.4501 18.581 16.4644L21.7459 16.7358 21.4287 15.8786C21.2737 15.4572 21.4358 14.9929 21.8235 14.7715z"/></svg>