<svg xmlns="http://www.w3.org/2000/svg" fill="none" viewBox="0 0 37 24"><path fill="#FF4B55" d="M35.4699 23.9786H0.620301C0.274906 23.9786 0 23.6929 0 23.3501V0.650056C0 0.300056 0.281955 0.0214844 0.620301 0.0214844H35.4629C35.8083 0.0214844 36.0832 0.307199 36.0832 0.650056V23.3501C36.0902 23.7001 35.8083 23.9786 35.4699 23.9786Z"/><path fill="#FFE15A" d="M5.99161 3.76441L6.58371 5.56441 8.45871 5.5787C8.69837 5.5787 8.80411 5.89298 8.60674 6.04298L7.09828 7.17156 7.66219 8.98584C7.73268 9.22156 7.47187 9.41441 7.2745 9.27156L5.75195 8.16441 4.22939 9.27156C4.03202 9.41441 3.77121 9.22156 3.8417 8.98584L4.40561 7.17156 2.89715 6.04298C2.69979 5.90013 2.80552 5.58584 3.04518 5.5787L4.92018 5.56441 5.51228 3.76441C5.58982 3.53584 5.91407 3.53584 5.99161 3.76441zM12.8007 4.21441L13.2237 4.80013 13.9074 4.58584C13.9991 4.55727 14.0695 4.65727 14.0132 4.73584L13.5902 5.3287 14.0061 5.92156C14.0625 6.00013 13.985 6.10013 13.9004 6.07156L13.2166 5.85013 12.7866 6.43584C12.7303 6.51441 12.6104 6.47156 12.6104 6.3787V5.65013L11.9267 5.41441C11.835 5.38584 11.8421 5.25727 11.9267 5.2287L12.6104 5.00013 12.6175 4.27156C12.6245 4.17156 12.7444 4.13584 12.8007 4.21441zM10.214 2.45727L10.9259 2.53584 11.229 1.87869C11.2713 1.79298 11.3911 1.80727 11.4123 1.90012L11.5603 2.61441 12.2722 2.70727C12.3639 2.72155 12.3921 2.84298 12.3075 2.89298L11.6801 3.25727 11.814 3.97155C11.8281 4.06441 11.7224 4.12869 11.6519 4.06441L11.1162 3.57155 10.4889 3.92155C10.4043 3.96441 10.3126 3.87869 10.3549 3.79298L10.651 3.12869 10.1223 2.62869C10.0659 2.56441 10.1153 2.45012 10.214 2.45727zM11.3418 9.52155L10.9189 10.1073 10.2351 9.89297C10.1435 9.8644 10.073 9.9644 10.1294 10.043L10.5523 10.6358 10.1365 11.2287C10.0801 11.3073 10.1576 11.4073 10.2422 11.3787L10.9259 11.1573 11.3559 11.743C11.4123 11.8215 11.5321 11.7787 11.5321 11.6858V10.9573L12.2159 10.7215C12.3075 10.693 12.3005 10.5644 12.2159 10.5358L11.5321 10.3073 11.5251 9.57869C11.518 9.48583 11.3982 9.44297 11.3418 9.52155zM13.9286 7.87869L13.2166 7.95726 12.9135 7.30012C12.8712 7.2144 12.7514 7.22869 12.7303 7.32154L12.5822 8.03583 11.8703 8.12869C11.7787 8.14297 11.7505 8.2644 11.8351 8.3144L12.4624 8.67869 12.3285 9.39298C12.3144 9.48583 12.4201 9.55012 12.4906 9.48583L13.0263 8.99298 13.6537 9.34298C13.7382 9.38583 13.8299 9.30012 13.7876 9.2144L13.4915 8.55012 14.0202 8.05012C14.0766 7.97869 14.0202 7.8644 13.9286 7.87869z"/></svg>