<svg xmlns="http://www.w3.org/2000/svg" fill="none" viewBox="0 0 37 24"><path fill="#F5F5F5" d="M35.4699 23.9786H0.620301C0.274906 23.9786 0 23.6929 0 23.3501V0.650056C0 0.300056 0.281955 0.0214844 0.620301 0.0214844H35.4629C35.8083 0.0214844 36.0832 0.307199 36.0832 0.650056V23.3501C36.0902 23.7001 35.8083 23.9786 35.4699 23.9786Z"/><path fill="#FF4B55" d="M35.4699 23.9786H.620301C.274906 23.9786 0 23.6929 0 23.35V20.2H36.0902V23.35C36.0902 23.7 35.8083 23.9786 35.4699 23.9786zM.620301.0214844H35.4629C35.8083.0214844 36.0832.307199 36.0832.650056V3.80006H0V.650056C0 .300056.281955.0214844.620301.0214844z"/><path fill="#41479B" d="M0 7.586H36.09V16.415H0z"/></svg>