<svg xmlns="http://www.w3.org/2000/svg" fill="none" viewBox="0 0 37 24"><path fill="#FF4B55" d="M36.0902 8.0072H0V0.650056C0 0.300056 0.281955 0.0214844 0.620301 0.0214844H35.4629C35.8083 0.0214844 36.0832 0.307199 36.0832 0.650056L36.0902 8.0072Z"/><path fill="#73AF00" d="M35.4699 23.9784H0.620301C0.274906 23.9784 0 23.6927 0 23.3498V15.9927H36.0902V23.3498C36.0902 23.6998 35.8083 23.9784 35.4699 23.9784Z"/><path fill="#FFE15A" d="M0 8.007H36.09V15.992999999999999H0z"/><path fill="#464655" d="M18.3063 8.99308L18.9548 10.9645L21.006 10.9788C21.2739 10.9788 21.3796 11.3216 21.1682 11.4859L19.5187 12.7216L20.139 14.7074C20.2166 14.9645 19.9276 15.1788 19.7161 15.0216L18.0455 13.8074L16.3749 15.0145C16.1564 15.1716 15.8674 14.9574 15.952 14.7002L16.5723 12.7145L14.9229 11.4788C14.7114 11.3216 14.8171 10.9716 15.085 10.9716L17.1362 10.9574L17.7847 8.98593C17.8693 8.73593 18.2217 8.73593 18.3063 8.99308Z"/></svg>