<svg xmlns="http://www.w3.org/2000/svg" fill="none" viewBox="0 0 37 24"><path fill="#F5F5F5" d="M35.4699 23.9786H0.620301C0.274906 23.9786 0 23.6929 0 23.3501V0.650056C0 0.300056 0.281955 0.0214844 0.620301 0.0214844H35.4629C35.8083 0.0214844 36.0832 0.307199 36.0832 0.650056V23.3501C36.0902 23.7001 35.8083 23.9786 35.4699 23.9786Z"/><path fill="#FF4B55" d="M21.4989 6.75007C18.6371 4.8215 14.7743 5.60722 12.8711 8.50007C11.9125 9.94293 12.3072 11.9072 13.7311 12.8715C15.162 13.8358 17.0863 13.4429 18.045 11.9929C18.9966 10.5429 20.928 10.1572 22.3589 11.1144C23.7898 12.0786 24.1775 14.0429 23.2189 15.4858C25.1291 12.6001 24.3537 8.68579 21.4989 6.75007Z"/><path fill="#41479B" d="M12.8712 8.5C11.9125 9.94286 12.3073 11.9071 13.7311 12.8714C15.1621 13.8357 17.0864 13.4429 18.0451 11.9929C18.9966 10.5429 20.928 10.1571 22.359 11.1143C23.7899 12.0786 24.1776 14.0429 23.2189 15.4857C21.3157 18.3857 17.4529 19.1643 14.5982 17.2357C11.7434 15.3143 10.968 11.4 12.8712 8.5Z"/><path fill="#464655" d="M25.8759 3.55021L28.7519 7.92878C28.8506 8.07164 28.8083 8.27164 28.6673 8.3645L28.3783 8.55735C28.2373 8.65735 28.0399 8.6145 27.9483 8.47164L25.0724 4.09307C24.9737 3.95021 25.016 3.75021 25.157 3.65736L25.446 3.4645C25.5869 3.37164 25.7773 3.40736 25.8759 3.55021zM27.0957 2.74307L29.9716 7.12164C30.0703 7.26449 30.028 7.46449 29.887 7.55735L29.598 7.75021C29.457 7.85021 29.2597 7.80735 29.168 7.66449L26.2921 3.28592C26.1934 3.14307 26.2357 2.94307 26.3767 2.85021L26.6657 2.65735C26.8067 2.55735 27.004 2.60021 27.0957 2.74307zM24.678 4.38592L27.554 8.76449C27.6527 8.90735 27.6104 9.10735 27.4694 9.2002L27.1804 9.39306C27.0394 9.49306 26.842 9.4502 26.7504 9.30735L23.8674 4.92878C23.7687 4.78592 23.811 4.58592 23.952 4.49306L24.241 4.3002C24.389 4.2002 24.5794 4.24306 24.678 4.38592zM9.35397 14.7145L12.2299 19.0859C12.3286 19.2288 12.2863 19.4288 12.1453 19.5216L11.8563 19.7145C11.7153 19.8145 11.518 19.7716 11.4263 19.6288L8.5504 15.2573C8.45172 15.1145 8.49401 14.9145 8.63499 14.8216L8.92399 14.6288C9.06497 14.5288 9.26234 14.5716 9.35397 14.7145zM8.18383 15.5716L11.0598 19.9431C11.1585 20.0859 11.1162 20.2859 10.9752 20.3788L10.6862 20.5716C10.5452 20.6716 10.3478 20.6288 10.2562 20.4859L7.38026 16.1145C7.28157 15.9716 7.32387 15.7716 7.46484 15.6788L7.75385 15.4859C7.89483 15.3859 8.08515 15.4288 8.18383 15.5716zM6.93597 16.3502L9.8119 20.7216C9.91059 20.8645 9.8683 21.0645 9.72732 21.1573L9.43832 21.3502C9.29734 21.4502 9.09997 21.4073 9.00833 21.2645L6.1324 16.893C6.03371 16.7502 6.076 16.5502 6.21698 16.4573L6.50599 16.2645C6.64696 16.1645 6.84433 16.2002 6.93597 16.3502zM8.5504 8.74307L11.4263 4.3645C11.525 4.22164 11.7153 4.17878 11.8563 4.27878L12.1453 4.47164C12.2863 4.57164 12.3286 4.7645 12.2299 4.90735L9.35397 9.28592C9.25529 9.42878 9.06497 9.47164 8.92399 9.37164L8.63499 9.17878C8.49401 9.08592 8.45172 8.89307 8.5504 8.74307zM7.33764 7.92878L10.2136 3.55021C10.3123 3.40735 10.5026 3.36449 10.6436 3.46449L10.9326 3.65735C11.0735 3.75735 11.1158 3.95021 11.0172 4.09306L8.14121 8.47164C8.04253 8.61449 7.85221 8.65735 7.71123 8.55735L7.42223 8.36449C7.28125 8.27164 7.24601 8.07164 7.33764 7.92878zM6.1324 7.11449L9.00833 2.73592C9.10702 2.59306 9.29734 2.5502 9.43832 2.6502L9.72732 2.84306C9.8683 2.94306 9.91059 3.13592 9.8119 3.27877L6.93597 7.65735C6.83728 7.8002 6.64696 7.84306 6.50599 7.74306L6.21698 7.5502C6.076 7.45735 6.03371 7.26449 6.1324 7.11449zM26.3136 20.6502L29.1895 16.2716C29.2882 16.1288 29.4785 16.0859 29.6195 16.1859L29.9085 16.3788C30.0495 16.4788 30.0917 16.6716 29.9931 16.8145L27.1171 21.1859C27.0184 21.3288 26.8281 21.3716 26.6871 21.2716L26.3981 21.0788C26.2572 20.9931 26.2149 20.7931 26.3136 20.6502zM25.1008 19.8359L27.9767 15.4573C28.0754 15.3145 28.2657 15.2716 28.4067 15.3716L28.6957 15.5645C28.8367 15.6645 28.879 15.8573 28.7803 16.0002L25.9044 20.3788C25.8057 20.5216 25.6154 20.5645 25.4744 20.4645L25.1854 20.2716C25.0444 20.1716 25.0092 19.9788 25.1008 19.8359zM23.8955 19.0216L26.7715 14.6431C26.8702 14.5002 27.0605 14.4573 27.2015 14.5573L27.4905 14.7502C27.6315 14.8502 27.6737 15.0431 27.5751 15.1859L24.6991 19.5645C24.6004 19.7073 24.4101 19.7502 24.2691 19.6502L23.9801 19.4573C23.8392 19.3645 23.7969 19.1645 23.8955 19.0216z"/></svg>