<svg xmlns="http://www.w3.org/2000/svg" fill="none" viewBox="0 0 37 24"><path fill="#FF4B55" d="M0 8.214H36.09V15.778H0z"/><path fill="#41479B" d="M.620301.0214844H35.4629C35.8083.0214844 36.0832.307199 36.0832.650056V4.12148H0V.650056C0 .300056.281955.0214844.620301.0214844zM35.4699 23.9786H.620301C.274906 23.9786 0 23.6929 0 23.3501V19.8786H36.0902V23.3501C36.0902 23.7001 35.8083 23.9786 35.4699 23.9786z"/><path fill="#F5F5F5" d="M0 4.12158H36.0902V8.22158H0V4.12158zM0 15.7859H36.0902V19.8859H0V15.7859zM9.75555 15.1502C11.3634 15.1502 12.6667 13.7399 12.6667 12.0002 12.6667 10.2605 11.3634 8.85017 9.75555 8.85017 8.14775 8.85017 6.84437 10.2605 6.84437 12.0002 6.84437 13.7399 8.14775 15.1502 9.75555 15.1502z"/><path fill="#3CC8FF" d="M8.247 10.779H11.257V12.308H8.247z"/><path fill="#FFE15A" d="M8.60681 12.4429C8.80535 12.4429 8.9663 12.2798 8.9663 12.0786C8.9663 11.8775 8.80535 11.7144 8.60681 11.7144C8.40827 11.7144 8.24731 11.8775 8.24731 12.0786C8.24731 12.2798 8.40827 12.4429 8.60681 12.4429Z"/><path fill="#41479B" d="M10.3545 14.443H9.15623L8.04956 13.5288V12.2002H11.5599V13.5288L10.3545 14.443Z"/><path fill="#73AF00" d="M10.961 11.8C10.961 11.7714 10.9399 11.75 10.9117 11.75C10.8835 11.75 10.8624 11.7714 10.8624 11.8C10.8624 11.9786 10.7637 12.2214 10.6368 12.3929C10.4606 12.1714 10.3971 11.9143 10.376 11.7571C10.3619 11.6786 10.2843 11.6357 10.2139 11.6714C10.1786 11.6857 10.1575 11.7214 10.1504 11.7571C10.0729 12.2571 9.84027 12.4643 9.69224 12.5571C9.46668 12.3357 9.39619 11.9786 9.36799 11.7714C9.36095 11.6929 9.26931 11.6429 9.19882 11.6786C9.17063 11.6929 9.14948 11.7214 9.14243 11.75C8.82523 12.7214 7.95117 12.8214 7.95117 12.8214V13.1286H11.4615V13.0286V12.9286V12.8286V12.7143V12.6143C11.0597 12.5071 10.961 11.8 10.961 11.8Z"/><path fill="#F0AA00" d="M11.4617 10.8784C11.0599 10.6784 11.0599 10.4713 11.0599 10.4713 11.0599 10.4713 10.5594 10.2713 10.1576 10.2713 10.1576 10.2713 10.2563 10.0713 10.0589 10.0713 9.86157 10.0713 9.75584 10.0713 9.75584 10.0713 9.75584 10.0713 9.65716 10.0713 9.45274 10.0713 9.24832 10.0713 9.35405 10.2713 9.35405 10.2713 8.95227 10.2713 8.4518 10.4713 8.4518 10.4713 8.4518 10.4713 8.4518 10.6713 8.05001 10.8784 7.64823 11.0784 7.64823 11.5427 7.64823 11.5427 7.64823 11.6284 7.71872 11.6927 7.79625 11.6927 7.88084 11.6927 7.94428 11.6213 7.94428 11.5427 7.94428 11.5284 7.93723 11.507 7.93723 11.4927H7.94428L8.94522 10.7784H10.5524L11.5533 11.4927H11.5604C11.5533 11.507 11.5533 11.5213 11.5533 11.5427 11.5533 11.6284 11.6238 11.6927 11.7013 11.6927 11.7789 11.6927 11.8494 11.6213 11.8494 11.5427 11.8635 11.5427 11.8635 11.0856 11.4617 10.8784zM11.7647 12.0999C11.666 12.0999 11.3629 12.0999 11.3629 11.7927 11.3629 11.4856 11.7647 11.4856 11.7647 11.4856L11.1655 11.2856C10.9681 11.9999 11.3629 11.9999 11.3629 12.9142 11.3629 13.7356 10.4606 14.2356 10.1575 14.2356 9.85442 14.2356 9.75574 14.4356 9.75574 14.4356 9.75574 14.4356 9.65705 14.2356 9.35395 14.2356 9.05085 14.2356 8.14859 13.7356 8.14859 12.9142 8.14859 11.9999 8.55038 11.9999 8.34596 11.2856L7.74681 11.4856C7.74681 11.4856 8.14859 11.4856 8.14859 11.7927 8.14859 12.0999 7.84549 12.0999 7.74681 12.0999 7.64812 12.0999 7.24634 12.0999 7.24634 12.607 7.24634 13.1142 7.74681 13.7284 8.4517 14.1356 9.15658 14.5427 8.85348 14.9499 9.75574 14.9499 10.658 14.9499 10.3549 14.5427 11.0598 14.1356 11.7647 13.7284 12.2651 13.1213 12.2651 12.607 12.2651 12.0999 11.8633 12.0999 11.7647 12.0999z"/><path fill="#F5F5F5" d="M11.7644 11.4927C11.7644 11.3213 11.6023 11.2427 11.4613 11.2141V11.1356C11.271 11.1141 11.1653 11.0427 10.982 10.9213C10.9115 10.8713 10.834 10.8141 10.7353 10.757C10.3828 10.5427 10.1079 10.507 9.95285 10.5141V10.6856H9.55106V10.5141C9.39599 10.507 9.12108 10.5356 8.76864 10.757C8.66995 10.8141 8.59242 10.8713 8.52193 10.9213C8.33866 11.0498 8.23292 11.1213 8.0426 11.1356V11.2141C7.90163 11.2498 7.7395 11.3213 7.7395 11.4927L8.0426 11.3927V11.4356C8.32456 11.4141 8.49373 11.307 8.6911 11.1641C8.76159 11.1141 8.83208 11.0641 8.92371 11.007C9.15632 10.8641 9.33255 10.8213 9.44533 10.8141V10.9784H10.0445V10.8141C10.1643 10.8213 10.3405 10.8713 10.5661 11.007C10.6577 11.0641 10.7353 11.1141 10.7987 11.1641C10.9961 11.2998 11.1582 11.4141 11.4472 11.4356V11.3927L11.7644 11.4927Z"/><path fill="#3CC8FF" d="M10.6792 9.75714C10.7286 9.71429 10.7568 9.66429 10.7568 9.60714C10.7568 9.32857 10.1294 9.25 9.75582 9.25C9.38223 9.25 8.75488 9.32143 8.75488 9.60714C8.75488 9.66429 8.78307 9.71429 8.83242 9.75714C8.86766 9.72143 8.34604 9.83572 8.09229 10.0786L8.20507 10.25C8.20507 10.25 8.56456 9.97857 8.75488 9.96429C8.9452 9.95 10.644 9.96429 10.7638 9.96429C10.8836 9.96429 11.3066 10.25 11.3136 10.25L11.4264 10.0786C11.2572 9.90714 10.651 9.72857 10.6792 9.75714Z"/><path fill="#F5F5F5" d="M9.88934 11.9287H9.67082C9.64263 11.9287 9.61443 11.9573 9.61443 11.9859V11.993C9.57214 12.0501 9.54395 12.1144 9.54395 12.1144L9.61443 12.143C9.62148 12.1716 9.64263 12.2001 9.67082 12.2001H9.88934C9.91753 12.2001 9.94573 12.2001 9.94573 12.143V11.993C9.93868 11.9573 9.91049 11.9287 9.88934 11.9287Z"/><path fill="#8C5A28" d="M9.49487 12.1284L9.6711 12.2498H9.88961L9.9883 12.1641L9.91076 12.1927H9.657L9.49487 12.1284Z"/><path fill="#F5F5F5" d="M10.1715 12.9355H9.57235C9.50186 12.9355 9.43842 13.007 9.42433 13.0784C9.2904 13.2427 9.20581 13.4355 9.20581 13.4355L9.42433 13.5141C9.42433 13.5998 9.50186 13.6784 9.57235 13.6784H10.1715C10.249 13.6784 10.3195 13.6784 10.3195 13.5141V13.0998C10.3195 13.0141 10.249 12.9355 10.1715 12.9355Z"/><path fill="#8C5A28" d="M9.0647 13.4644L9.57222 13.8072H10.1925L10.4745 13.5572L10.256 13.6501H9.52992L9.0647 13.4644Z"/></svg>