<svg xmlns="http://www.w3.org/2000/svg" fill="none" viewBox="0 0 37 24"><path fill="#464655" d="M0 4.43555V19.5641L9.95301 11.9998L0 4.43555Z"/><path fill="#FF4B55" d="M4.97656 0.0214844L16.1772 8.85005H36.0903V0.650056C36.0903 0.300056 35.8083 0.0214844 35.47 0.0214844H4.97656Z"/><path fill="#41479B" d="M4.97656 23.9785L16.1772 15.1499H36.0903V23.3499C36.0903 23.6999 35.8083 23.9785 35.47 23.9785H4.97656Z"/><path fill="#73AF00" d="M4.01081 0.0214844H0.620301C0.274906 0.0214844 0 0.307199 0 0.650056V3.23577L10.9258 12.0001L0 20.7643V23.3501C0 23.7001 0.281955 23.9786 0.620301 23.9786H4.01081L15.8036 14.5215H36.0902V9.47863H15.7965L4.01081 0.0214844Z"/><path fill="#F5F5F5" d="M6.01262 0.0214844H4.01074L15.7965 9.47863H36.0901V8.21434H16.2335L6.01262 0.0214844Z"/><path fill="#FFE15A" d="M0 3.23584V4.84298L8.91682 12.0001L0 19.1573V20.7644L10.9257 12.0001L0 3.23584Z"/><path fill="#F5F5F5" d="M15.7965 14.5215L4.01074 23.9786H6.01262L16.2335 15.7858H36.0901V14.5215H15.7965Z"/></svg>