<svg xmlns="http://www.w3.org/2000/svg" fill="none" viewBox="0 0 37 24"><path fill="#41479B" d="M36.0902 12.0001H0V0.650056C0 0.300056 0.281955 0.0214844 0.620301 0.0214844H35.4629C35.8083 0.0214844 36.0832 0.307199 36.0832 0.650056L36.0902 12.0001Z"/><path fill="#FF4B55" d="M0 12H36.0902V23.35C36.0902 23.7 35.8083 23.9786 35.4699 23.9786H0.620301C0.274906 23.9786 0 23.6929 0 23.35V12Z"/><path fill="#FFE15A" d="M8.12131 4.76442C8.12131 4.75728 8.11417 4.75728 8.11417 4.75728 8.11417 4.75728 8.11417 4.75728 8.10703 4.76442 8.11417 4.76442 8.11417 4.76442 8.12131 4.76442zM7.09169 4.93585C7.29801 4.93585 7.46528 4.76636 7.46528 4.55728 7.46528 4.3482 7.29801 4.17871 7.09169 4.17871 6.88536 4.17871 6.7181 4.3482 6.7181 4.55728 6.7181 4.76636 6.88536 4.93585 7.09169 4.93585zM10.785 7.22157C10.785 7.15014 10.785 7.07871 10.785 7.00729 10.7921 7.00729 10.8062 7.00729 10.8132 7.00729 11.067 6.48586 11.0459 5.81443 10.7498 5.32871 10.5806 5.05014 10.2493 4.72157 9.63608 4.72157 9.02988 4.72157 7.23242 5.16443 7.17603 5.17871H7.00685C6.94341 5.16443 5.1389 4.73586 4.5468 4.73586 3.93355 4.73586 3.60225 5.06443 3.43308 5.343 3.15112 5.793 3.11588 6.42871 3.32734 6.93586 3.34144 6.96443 3.37669 7.13586 3.38373 7.193 3.15112 7.18586 2.93966 7.23586 2.81982 7.27157 2.989 7.56443 3.48242 8.50014 3.68684 9.47157 4.08862 9.27157 5.4561 9.12157 7.08439 9.12157 8.71268 9.12157 10.0802 9.27157 10.4819 9.47157 10.6864 8.50014 11.1798 7.56443 11.349 7.30014 11.2362 7.26443 11.0177 7.20729 10.785 7.22157zM7.61976 3.15728H7.22502V2.67871H6.94307V3.15728H6.51308V3.443H6.94307V3.96443H7.22502V3.443H7.61976V3.15728z"/><path fill="#41479B" d="M3.44678 8.17141L4.08823 8.92141 3.87676 7.67856 3.44678 8.17141zM4.77235 7.85712L5.4138 8.60712 5.20233 7.36426 4.77235 7.85712zM10.7142 8.17141L10.0798 8.92141 10.2913 7.67856 10.7142 8.17141zM9.39644 7.85712L8.75499 8.60712 8.96646 7.36426 9.39644 7.85712zM6.63304 7.49284L7.08417 8.67141 7.54939 7.55712 6.63304 7.49284z"/></svg>