<svg xmlns="http://www.w3.org/2000/svg" fill="none" viewBox="0 0 37 24"><path fill="#F5F5F5" d="M35.4699 23.9786H0.620301C0.274906 23.9786 0 23.6929 0 23.3501V0.650056C0 0.300056 0.281955 0.0214844 0.620301 0.0214844H35.4629C35.8083 0.0214844 36.0832 0.307199 36.0832 0.650056V23.3501C36.0902 23.7001 35.8083 23.9786 35.4699 23.9786Z"/><path fill="#FF4B55" d="M36.0902 1.86434H0V.650056C0 .300056.281955.0214844.620301.0214844H35.4629C35.8083.0214844 36.0832.307199 36.0832.650056L36.0902 1.86434zM0 7.39291H36.0902V9.23577H0V7.39291zM0 3.70719H36.0902V5.55005H0V3.70719zM36.0902 12.9215H.620301C.274906 12.9215 0 12.6358 0 12.2929V11.0786H36.0902V12.9215zM0 18.4501H36.0902V20.2929H0V18.4501zM35.4699 23.9786H.620301C.274906 23.9786 0 23.6929 0 23.3501V22.1358H36.0902V23.3501C36.0902 23.7001 35.8083 23.9786 35.4699 23.9786zM0 14.7643H36.0902V16.6072H0V14.7643z"/><path fill="#41479B" d="M16.1772 0.0214844H0.620301C0.274906 0.0214844 0 0.307199 0 0.650056V12.2929C0 12.6429 0.281955 12.9215 0.620301 12.9215H16.1772C16.5226 12.9215 16.7975 12.6358 16.7975 12.2929V0.650056C16.7975 0.300056 16.5226 0.0214844 16.1772 0.0214844Z"/><path fill="#F5F5F5" d="M1.67014 2.7858C1.97769 2.7858 2.227 2.53316 2.227 2.22151 2.227 1.90987 1.97769 1.65723 1.67014 1.65723 1.3626 1.65723 1.11328 1.90987 1.11328 2.22151 1.11328 2.53316 1.3626 2.7858 1.67014 2.7858zM1.67014 4.97866C1.97769 4.97866 2.227 4.72602 2.227 4.41437 2.227 4.10272 1.97769 3.85009 1.67014 3.85009 1.3626 3.85009 1.11328 4.10272 1.11328 4.41437 1.11328 4.72602 1.3626 4.97866 1.67014 4.97866zM1.67014 7.16439C1.97769 7.16439 2.227 6.91175 2.227 6.60011 2.227 6.28846 1.97769 6.03582 1.67014 6.03582 1.3626 6.03582 1.11328 6.28846 1.11328 6.60011 1.11328 6.91175 1.3626 7.16439 1.67014 7.16439zM1.67014 9.35725C1.97769 9.35725 2.227 9.10461 2.227 8.79296 2.227 8.48132 1.97769 8.22868 1.67014 8.22868 1.3626 8.22868 1.11328 8.48132 1.11328 8.79296 1.11328 9.10461 1.3626 9.35725 1.67014 9.35725zM3.42573 3.87152C3.73327 3.87152 3.98259 3.61888 3.98259 3.30723 3.98259 2.99558 3.73327 2.74295 3.42573 2.74295 3.11818 2.74295 2.86887 2.99558 2.86887 3.30723 2.86887 3.61888 3.11818 3.87152 3.42573 3.87152zM3.42573 6.05723C3.73327 6.05723 3.98259 5.80459 3.98259 5.49294 3.98259 5.1813 3.73327 4.92866 3.42573 4.92866 3.11818 4.92866 2.86887 5.1813 2.86887 5.49294 2.86887 5.80459 3.11818 6.05723 3.42573 6.05723zM3.42573 8.25009C3.73327 8.25009 3.98259 7.99745 3.98259 7.6858 3.98259 7.37416 3.73327 7.12152 3.42573 7.12152 3.11818 7.12152 2.86887 7.37416 2.86887 7.6858 2.86887 7.99745 3.11818 8.25009 3.42573 8.25009zM3.42573 10.4429C3.73327 10.4429 3.98259 10.1903 3.98259 9.87866 3.98259 9.56701 3.73327 9.31437 3.42573 9.31437 3.11818 9.31437 2.86887 9.56701 2.86887 9.87866 2.86887 10.1903 3.11818 10.4429 3.42573 10.4429zM6.817 3.87152C7.12455 3.87152 7.37386 3.61888 7.37386 3.30723 7.37386 2.99558 7.12455 2.74295 6.817 2.74295 6.50946 2.74295 6.26014 2.99558 6.26014 3.30723 6.26014 3.61888 6.50946 3.87152 6.817 3.87152zM6.817 6.05723C7.12455 6.05723 7.37386 5.80459 7.37386 5.49294 7.37386 5.1813 7.12455 4.92866 6.817 4.92866 6.50946 4.92866 6.26014 5.1813 6.26014 5.49294 6.26014 5.80459 6.50946 6.05723 6.817 6.05723zM6.817 8.25009C7.12455 8.25009 7.37386 7.99745 7.37386 7.6858 7.37386 7.37416 7.12455 7.12152 6.817 7.12152 6.50946 7.12152 6.26014 7.37416 6.26014 7.6858 6.26014 7.99745 6.50946 8.25009 6.817 8.25009zM6.817 10.4429C7.12455 10.4429 7.37386 10.1903 7.37386 9.87866 7.37386 9.56701 7.12455 9.31437 6.817 9.31437 6.50946 9.31437 6.26014 9.56701 6.26014 9.87866 6.26014 10.1903 6.50946 10.4429 6.817 10.4429zM10.1994 3.87152C10.507 3.87152 10.7563 3.61888 10.7563 3.30723 10.7563 2.99558 10.507 2.74295 10.1994 2.74295 9.89188 2.74295 9.64256 2.99558 9.64256 3.30723 9.64256 3.61888 9.89188 3.87152 10.1994 3.87152zM10.1994 6.05723C10.507 6.05723 10.7563 5.80459 10.7563 5.49294 10.7563 5.1813 10.507 4.92866 10.1994 4.92866 9.89188 4.92866 9.64256 5.1813 9.64256 5.49294 9.64256 5.80459 9.89188 6.05723 10.1994 6.05723zM10.1994 8.25009C10.507 8.25009 10.7563 7.99745 10.7563 7.6858 10.7563 7.37416 10.507 7.12152 10.1994 7.12152 9.89188 7.12152 9.64256 7.37416 9.64256 7.6858 9.64256 7.99745 9.89188 8.25009 10.1994 8.25009zM10.1994 10.4429C10.507 10.4429 10.7563 10.1903 10.7563 9.87866 10.7563 9.56701 10.507 9.31437 10.1994 9.31437 9.89188 9.31437 9.64256 9.56701 9.64256 9.87866 9.64256 10.1903 9.89188 10.4429 10.1994 10.4429zM13.5907 3.87152C13.8982 3.87152 14.1476 3.61888 14.1476 3.30723 14.1476 2.99558 13.8982 2.74295 13.5907 2.74295 13.2831 2.74295 13.0338 2.99558 13.0338 3.30723 13.0338 3.61888 13.2831 3.87152 13.5907 3.87152zM13.5907 6.05723C13.8982 6.05723 14.1476 5.80459 14.1476 5.49294 14.1476 5.1813 13.8982 4.92866 13.5907 4.92866 13.2831 4.92866 13.0338 5.1813 13.0338 5.49294 13.0338 5.80459 13.2831 6.05723 13.5907 6.05723zM13.5907 8.25009C13.8982 8.25009 14.1476 7.99745 14.1476 7.6858 14.1476 7.37416 13.8982 7.12152 13.5907 7.12152 13.2831 7.12152 13.0338 7.37416 13.0338 7.6858 13.0338 7.99745 13.2831 8.25009 13.5907 8.25009zM13.5907 10.4429C13.8982 10.4429 14.1476 10.1903 14.1476 9.87866 14.1476 9.56701 13.8982 9.31437 13.5907 9.31437 13.2831 9.31437 13.0338 9.56701 13.0338 9.87866 13.0338 10.1903 13.2831 10.4429 13.5907 10.4429zM1.67014 11.5501C1.97769 11.5501 2.227 11.2974 2.227 10.9858 2.227 10.6742 1.97769 10.4215 1.67014 10.4215 1.3626 10.4215 1.11328 10.6742 1.11328 10.9858 1.11328 11.2974 1.3626 11.5501 1.67014 11.5501zM5.07475 2.7858C5.38229 2.7858 5.63161 2.53316 5.63161 2.22151 5.63161 1.90987 5.38229 1.65723 5.07475 1.65723 4.7672 1.65723 4.51788 1.90987 4.51788 2.22151 4.51788 2.53316 4.7672 2.7858 5.07475 2.7858zM5.07475 4.97866C5.38229 4.97866 5.63161 4.72602 5.63161 4.41437 5.63161 4.10272 5.38229 3.85009 5.07475 3.85009 4.7672 3.85009 4.51788 4.10272 4.51788 4.41437 4.51788 4.72602 4.7672 4.97866 5.07475 4.97866zM5.07475 7.16439C5.38229 7.16439 5.63161 6.91175 5.63161 6.60011 5.63161 6.28846 5.38229 6.03582 5.07475 6.03582 4.7672 6.03582 4.51788 6.28846 4.51788 6.60011 4.51788 6.91175 4.7672 7.16439 5.07475 7.16439zM5.07475 9.35725C5.38229 9.35725 5.63161 9.10461 5.63161 8.79296 5.63161 8.48132 5.38229 8.22868 5.07475 8.22868 4.7672 8.22868 4.51788 8.48132 4.51788 8.79296 4.51788 9.10461 4.7672 9.35725 5.07475 9.35725zM5.07475 11.5501C5.38229 11.5501 5.63161 11.2974 5.63161 10.9858 5.63161 10.6742 5.38229 10.4215 5.07475 10.4215 4.7672 10.4215 4.51788 10.6742 4.51788 10.9858 4.51788 11.2974 4.7672 11.5501 5.07475 11.5501zM8.48675 2.7858C8.7943 2.7858 9.04361 2.53316 9.04361 2.22151 9.04361 1.90987 8.7943 1.65723 8.48675 1.65723 8.1792 1.65723 7.92989 1.90987 7.92989 2.22151 7.92989 2.53316 8.1792 2.7858 8.48675 2.7858zM8.48675 4.97866C8.7943 4.97866 9.04361 4.72602 9.04361 4.41437 9.04361 4.10272 8.7943 3.85009 8.48675 3.85009 8.1792 3.85009 7.92989 4.10272 7.92989 4.41437 7.92989 4.72602 8.1792 4.97866 8.48675 4.97866zM8.48675 7.16439C8.7943 7.16439 9.04361 6.91175 9.04361 6.60011 9.04361 6.28846 8.7943 6.03582 8.48675 6.03582 8.1792 6.03582 7.92989 6.28846 7.92989 6.60011 7.92989 6.91175 8.1792 7.16439 8.48675 7.16439zM8.48675 9.35725C8.7943 9.35725 9.04361 9.10461 9.04361 8.79296 9.04361 8.48132 8.7943 8.22868 8.48675 8.22868 8.1792 8.22868 7.92989 8.48132 7.92989 8.79296 7.92989 9.10461 8.1792 9.35725 8.48675 9.35725zM8.48675 11.5501C8.7943 11.5501 9.04361 11.2974 9.04361 10.9858 9.04361 10.6742 8.7943 10.4215 8.48675 10.4215 8.1792 10.4215 7.92989 10.6742 7.92989 10.9858 7.92989 11.2974 8.1792 11.5501 8.48675 11.5501zM11.8914 2.7858C12.1989 2.7858 12.4482 2.53316 12.4482 2.22151 12.4482 1.90987 12.1989 1.65723 11.8914 1.65723 11.5838 1.65723 11.3345 1.90987 11.3345 2.22151 11.3345 2.53316 11.5838 2.7858 11.8914 2.7858zM11.8914 4.97866C12.1989 4.97866 12.4482 4.72602 12.4482 4.41437 12.4482 4.10272 12.1989 3.85009 11.8914 3.85009 11.5838 3.85009 11.3345 4.10272 11.3345 4.41437 11.3345 4.72602 11.5838 4.97866 11.8914 4.97866zM11.8914 7.16439C12.1989 7.16439 12.4482 6.91175 12.4482 6.60011 12.4482 6.28846 12.1989 6.03582 11.8914 6.03582 11.5838 6.03582 11.3345 6.28846 11.3345 6.60011 11.3345 6.91175 11.5838 7.16439 11.8914 7.16439zM11.8914 9.35725C12.1989 9.35725 12.4482 9.10461 12.4482 8.79296 12.4482 8.48132 12.1989 8.22868 11.8914 8.22868 11.5838 8.22868 11.3345 8.48132 11.3345 8.79296 11.3345 9.10461 11.5838 9.35725 11.8914 9.35725zM11.8914 11.5501C12.1989 11.5501 12.4482 11.2974 12.4482 10.9858 12.4482 10.6742 12.1989 10.4215 11.8914 10.4215 11.5838 10.4215 11.3345 10.6742 11.3345 10.9858 11.3345 11.2974 11.5838 11.5501 11.8914 11.5501zM15.3034 2.7858C15.6109 2.7858 15.8602 2.53316 15.8602 2.22151 15.8602 1.90987 15.6109 1.65723 15.3034 1.65723 14.9958 1.65723 14.7465 1.90987 14.7465 2.22151 14.7465 2.53316 14.9958 2.7858 15.3034 2.7858zM15.3034 4.97866C15.6109 4.97866 15.8602 4.72602 15.8602 4.41437 15.8602 4.10272 15.6109 3.85009 15.3034 3.85009 14.9958 3.85009 14.7465 4.10272 14.7465 4.41437 14.7465 4.72602 14.9958 4.97866 15.3034 4.97866zM15.3034 7.16439C15.6109 7.16439 15.8602 6.91175 15.8602 6.60011 15.8602 6.28846 15.6109 6.03582 15.3034 6.03582 14.9958 6.03582 14.7465 6.28846 14.7465 6.60011 14.7465 6.91175 14.9958 7.16439 15.3034 7.16439zM15.3034 9.35725C15.6109 9.35725 15.8602 9.10461 15.8602 8.79296 15.8602 8.48132 15.6109 8.22868 15.3034 8.22868 14.9958 8.22868 14.7465 8.48132 14.7465 8.79296 14.7465 9.10461 14.9958 9.35725 15.3034 9.35725zM15.3034 11.5501C15.6109 11.5501 15.8602 11.2974 15.8602 10.9858 15.8602 10.6742 15.6109 10.4215 15.3034 10.4215 14.9958 10.4215 14.7465 10.6742 14.7465 10.9858 14.7465 11.2974 14.9958 11.5501 15.3034 11.5501z"/></svg>