<svg xmlns="http://www.w3.org/2000/svg" fill="none" viewBox="0 0 37 24"><path fill="#73AF00" d="M0 18.3072V0.650056C0 0.300056 0.281955 0.0214844 0.620301 0.0214844H27.3778L0 18.3072Z"/><path fill="#4173CD" d="M36.0907 5.69287V23.35C36.0907 23.7 35.8088 23.9786 35.4704 23.9786H8.71289L36.0907 5.69287Z"/><path fill="#FFE15A" d="M36.0902 6.05006V0.650056C36.0902 0.300056 35.8083 0.0214844 35.4699 0.0214844H27.0113L0 17.9501V23.3501C0 23.7001 0.281955 23.9786 0.620301 23.9786H9.07895L36.0902 6.05006Z"/><path fill="#464655" d="M36.0902 3.78577V0.650056C36.0902 0.300056 35.8083 0.0214844 35.4699 0.0214844H30.4159L0 20.2143V23.3501C0 23.7001 0.281955 23.9786 0.620301 23.9786H5.67434L36.0902 3.78577Z"/></svg>