<svg xmlns="http://www.w3.org/2000/svg" fill="none" viewBox="0 0 37 24"><path fill="#FF4B55" d="M36.0902 8.0072H0V0.650056C0 0.300056 0.281955 0.0214844 0.620301 0.0214844H35.4629C35.8083 0.0214844 36.0832 0.307199 36.0832 0.650056L36.0902 8.0072Z"/><path fill="#464655" d="M35.4699 23.9784H0.620301C0.274906 23.9784 0 23.6927 0 23.3498V15.9927H36.0902V23.3498C36.0902 23.6998 35.8083 23.9784 35.4699 23.9784Z"/><path fill="#F5F5F5" d="M0 8.007H36.09V15.992999999999999H0z"/><path fill="#F0C727" fill-rule="evenodd" d="M19.4409 10.3215C19.7299 10.2215 20.033 10.443 20.033 10.7572L20.0471 14.143L19.2435 13.3287L19.6242 14.4787H20.0471V15.1501H16.0715V14.4787H16.4945L16.8751 13.3287L16.0715 14.143V10.7644C16.0715 10.4501 16.3676 10.2287 16.6636 10.3287L17.2416 10.5215L17.439 9.52153H16.7271L17.2628 8.8501H17.7774C18.2637 8.8501 18.6796 9.20724 18.7572 9.69295L18.8911 10.5072L19.4409 10.3215ZM17.178 14.4787H17.7137V13.7001L17.5446 13.4858L17.178 14.4787ZM18.3767 14.4787V13.7001L18.5458 13.4858L18.9124 14.4787H18.3767ZM17.0655 11.2501C17.0232 12.5644 18.0453 13.2644 18.0453 13.2644C18.0453 13.2644 19.0674 12.5644 19.0251 11.2501C19.0251 11.2501 18.3978 11.1429 18.0453 10.5787C17.6999 11.1429 17.0655 11.2501 17.0655 11.2501Z" clip-rule="evenodd"/></svg>