<svg xmlns="http://www.w3.org/2000/svg" fill="none" viewBox="0 0 37 24"><path fill="#F5F5F5" d="M36.0902 12.0001H0V0.650056C0 0.300056 0.281955 0.0214844 0.620301 0.0214844H35.4629C35.8083 0.0214844 36.0832 0.307199 36.0832 0.650056L36.0902 12.0001Z"/><path fill="#FF4B55" d="M1.24765 12.0002V11.3716H0V12.0002V12.6287V23.3502C0 23.7002 0.281955 23.9787 0.620301 23.9787H35.4629C35.8083 23.9787 36.0832 23.693 36.0832 23.3502V12.0002H1.24765Z"/><path fill="#41479B" d="M11.2007 12.0001H0.620301C0.281955 12.0001 0 11.7143 0 11.3715V0.650056C0 0.300056 0.281955 0.0214844 0.620301 0.0214844H11.2007C11.5461 0.0214844 11.821 0.307199 11.821 0.650056V11.3715C11.821 11.7143 11.5461 12.0001 11.2007 12.0001Z"/><path fill="#F5F5F5" d="M6.15372 3.32132L6.74582 5.12132L8.62082 5.1356C8.86049 5.1356 8.96622 5.44989 8.76885 5.59989L7.26039 6.72846L7.8243 8.54275C7.89479 8.77846 7.63398 8.97132 7.43661 8.82846L5.91406 7.72132L4.3915 8.82846C4.19413 8.97132 3.93332 8.77846 4.00381 8.54275L4.56772 6.72846L3.05926 5.59989C2.86189 5.45703 2.96763 5.14275 3.20729 5.1356L5.08229 5.12132L5.6744 3.32132C5.75193 3.0856 6.07618 3.0856 6.15372 3.32132Z"/></svg>