<svg xmlns="http://www.w3.org/2000/svg" fill="none" viewBox="0 0 37 24"><path fill="#F5F5F5" d="M0 15.9927H36.0902V23.3498C36.0902 23.6998 35.8083 23.9784 35.4699 23.9784H0.620301C0.274906 23.9784 0 23.6927 0 23.3498V15.9927Z"/><path fill="#41479B" d="M0 8.007H36.09V15.992999999999999H0z"/><path fill="#FF4B55" d="M.620301.0214844H35.4629C35.8083.0214844 36.0832.307199 36.0832.650056V8.0072H0V.650056C0 .300056.281955.0214844.620301.0214844zM6.40777 8.00714C6.30204 8.00714 6.2245 8.09285 6.2245 8.19285V14.8C6.2245 16.9 7.89508 18.6 9.9604 18.6 12.0257 18.6 13.6963 16.9 13.6963 14.8V8.19285C13.6963 8.08571 13.6117 8.00714 13.513 8.00714H6.40777z"/><path fill="#FFE15A" d="M9.86113 4.97834H10.0514V4.59976H10.2347V4.41405H10.0514V4.22119H9.86113V4.41405H9.67786V4.59976H9.86113V4.97834Z"/><path fill="#FFE15A" fill-rule="evenodd" d="M12.7444 5.54286C12.6668 5.40001 12.5329 5.30001 12.3778 5.27143C11.8844 5.16429 10.9187 4.98572 10.0447 4.98572H9.86844C8.99438 4.98572 8.02869 5.16429 7.53527 5.27143C7.38019 5.30715 7.24626 5.40715 7.17577 5.54286C7.09824 5.68572 7.08414 5.86429 7.14053 6.02143L7.53527 7.12858C7.54936 7.16429 7.57051 7.19286 7.59166 7.20715L7.72559 8.00715H12.1946L12.3285 7.20715C12.3567 7.18572 12.3778 7.15715 12.3849 7.12143L12.7796 6.01429C12.836 5.85715 12.8219 5.68572 12.7444 5.54286ZM8.62058 5.91428C8.59238 5.77143 8.63467 5.64286 8.65582 5.62857C8.89548 5.53571 9.34661 5.39285 9.76954 5.36428V6.87143H8.81794L8.62058 5.91428ZM11.0951 6.87143L11.2924 5.91428C11.3206 5.77143 11.2713 5.64286 11.2501 5.62857C11.0175 5.53571 10.5664 5.39285 10.1435 5.36428V6.87143H11.0951ZM7.47887 5.88573C7.45772 5.82859 7.46477 5.77144 7.49297 5.72144C7.50707 5.69287 7.54231 5.65002 7.60575 5.63573C7.78197 5.60002 8.02868 5.55002 8.30359 5.50716C8.24015 5.65002 8.22605 5.83573 8.25425 5.99287L8.43752 6.87144H7.83131L7.47887 5.88573ZM12.0745 6.86429L12.4269 5.88572C12.4481 5.83572 12.4481 5.77144 12.4128 5.7143C12.3988 5.69287 12.3635 5.64287 12.3001 5.62858C12.2669 5.62211 12.2318 5.61518 12.1951 5.6079C12.0288 5.57499 11.8273 5.5351 11.6022 5.50001C11.6657 5.64287 11.6868 5.82858 11.6516 5.98572L11.4683 6.86429H12.0745Z" clip-rule="evenodd"/><path fill="#FFE15A" d="M8.60653 15.0069L8.27523 15.0926 9.00127 13.7712 8.66997 13.5855 7.79591 15.1926H6.97119L7.08397 16.2855 7.70427 16.5783 8.04967 15.5426 8.69112 15.3783 8.60653 15.0069zM11.3064 15.0069L11.6377 15.0926 10.9117 13.7712 11.2359 13.5855 12.117 15.1926H12.9417L12.8289 16.2855 12.2086 16.5783 11.8633 15.5426 11.2148 15.3783 11.3064 15.0069z"/><path fill="#F5F5F5" d="M12.6315 8.65018C12.5892 8.60018 12.5328 8.57161 12.4694 8.57161C12.3284 8.57161 12.2297 8.70018 12.2649 8.8359L12.3143 9.02875C12.3566 9.20018 12.279 9.37875 12.1169 9.45733L11.264 9.8859L10.8904 9.50733L10.9821 9.32161H11.4473L11.0737 9.1359L11.7292 8.95018L12.0112 8.57161H11.3486C11.3627 8.4859 11.2922 8.40733 11.2076 8.42161L10.3265 8.57161L9.95292 9.32875L9.57933 8.57161L8.69822 8.42161C8.60658 8.40733 8.5361 8.4859 8.55724 8.57161H7.9017L8.18365 8.95018L8.8392 9.1359L8.46561 9.32161H8.93083L9.02247 9.50733L8.64888 9.8859L7.79596 9.45733C7.64089 9.37875 7.5563 9.20018 7.5986 9.02875L7.64794 8.8359C7.68318 8.70018 7.57745 8.57161 7.44352 8.57161C7.38008 8.57161 7.31664 8.60018 7.2814 8.65018C6.83732 9.20733 6.59766 9.90733 6.59766 10.6216V14.6216C6.59766 14.6216 7.38008 14.4645 8.07792 13.4288C8.2048 13.2359 8.42331 13.1288 8.64888 13.1145L8.27529 14.2502L9.02247 14.4359L9.45245 13.9145L9.57933 14.243L8.64888 17.4573C8.64888 17.4573 9.20574 17.8359 9.95292 17.8359C10.7001 17.8359 11.257 17.4573 11.257 17.4573L10.3265 14.243L10.4534 13.9145L10.8834 14.4359L11.6305 14.2502L11.257 13.1145C11.4825 13.1288 11.694 13.2359 11.8279 13.4288C12.5328 14.4645 13.3082 14.6216 13.3082 14.6216V10.6216C13.3152 9.90733 13.0756 9.21447 12.6315 8.65018Z"/><path fill="#FF4B55" d="M11.264 9.70703H8.64885H8.46558V9.89275V12.357C8.46558 13.1927 9.13522 13.8713 9.95994 13.8713C10.7847 13.8713 11.4543 13.1927 11.4543 12.357V9.89989V9.71417H11.264V9.70703Z"/><path fill="#F5F5F5" d="M9.67796 13.6499C9.7696 13.6713 9.86123 13.6785 9.95991 13.6785 10.0586 13.6785 10.1502 13.6642 10.2419 13.6499V9.8999H9.68501C9.67796 9.8999 9.67796 13.6499 9.67796 13.6499zM8.64917 11.457H11.2643V12.0213H8.64917V11.457z"/></svg>