<svg xmlns="http://www.w3.org/2000/svg" fill="none" viewBox="0 0 37 24"><path fill="#FF4B55" d="M35.4699 23.9786H0.620301C0.274906 23.9786 0 23.6929 0 23.3501V0.650056C0 0.300056 0.281955 0.0214844 0.620301 0.0214844H35.4629C35.8083 0.0214844 36.0832 0.307199 36.0832 0.650056V23.3501C36.0902 23.7001 35.8083 23.9786 35.4699 23.9786Z"/><path fill="#F5F5F5" d="M24.89 9.4784H20.5338V5.06412C20.5338 4.71412 20.2519 4.43555 19.9135 4.43555H16.1776C15.8322 4.43555 15.5573 4.72126 15.5573 5.06412V9.4784H11.2011C10.8557 9.4784 10.5808 9.76412 10.5808 10.107V13.8927C10.5808 14.2427 10.8628 14.5213 11.2011 14.5213H15.5573V18.9355C15.5573 19.2855 15.8393 19.5641 16.1776 19.5641H19.9135C20.2589 19.5641 20.5338 19.2784 20.5338 18.9355V14.5213H24.89C25.2354 14.5213 25.5103 14.2355 25.5103 13.8927V10.107C25.5103 9.75698 25.2354 9.4784 24.89 9.4784Z"/></svg>