<svg xmlns="http://www.w3.org/2000/svg" fill="none" viewBox="0 0 37 24"><path fill="#41479B" d="M35.4699 23.9786H0.620301C0.274906 23.9786 0 23.6929 0 23.3501V0.650056C0 0.300056 0.281955 0.0214844 0.620301 0.0214844H35.4629C35.8083 0.0214844 36.0832 0.307199 36.0832 0.650056V23.3501C36.0902 23.7001 35.8083 23.9786 35.4699 23.9786Z"/><path fill="#F5F5F5" d="M17.4248 0.0214844H16.3463L10.5804 3.85006V0.0214844H7.4718V3.85006L1.70583 0.0214844H0.620301C0.274906 0.0214844 0 0.307199 0 0.650056V1.15006L4.94831 4.43577H0V7.58577H4.94831L0 10.8715V11.3715C0 11.7215 0.281955 12.0001 0.620301 12.0001H1.69878L7.46476 8.17148V12.0001H10.5733V8.17148L16.3393 12.0001H17.4178C17.7632 12.0001 18.0381 11.7143 18.0381 11.3715V10.8715L13.0898 7.58577H18.0451V4.43577H13.0968L18.0451 1.15006V0.650056C18.0451 0.300056 17.7632 0.0214844 17.4248 0.0214844Z"/><path fill="#FF4B55" d="M18.0451 5.06434H9.95301V.0214844H8.09211V5.06434H0V6.9572H8.09211V12.0001H9.95301V6.9572H18.0451V5.06434zM6.84446 4.43576L.296053.128617C.119831.23576 0 .428617 0 .650046V.68576L5.70254 4.43576H6.84446zM11.7223 4.43577L17.9535.33577C17.8478.150056 17.6574.0214844 17.4248.0214844H17.2909L10.5804 4.43577H11.7223zM6.3087 7.58577L.0915923 11.6786C.197325 11.8715.394694 12.0001.627307 12.0001H.747137L7.45766 7.58577H6.3087zM18.0381 11.4215L12.2087 7.58577H11.0668L17.6857 11.9358C17.8831 11.8429 18.017 11.6501 18.0381 11.4215z"/><path fill="#F5F5F5" d="M9.21273 15.4355L9.685 17.0069 11.1935 16.3997C11.3203 16.3497 11.4402 16.4997 11.3626 16.614L10.4463 17.964 11.8561 18.7783C11.9759 18.8497 11.9336 19.0355 11.7997 19.0426L10.1855 19.1569 10.4322 20.7783C10.4533 20.914 10.2842 20.9997 10.1925 20.8926L9.09994 19.6855 8.00737 20.8926C7.91573 20.9926 7.74656 20.914 7.76771 20.7783L8.01442 19.1569 6.40022 19.0426C6.25925 19.0355 6.224 18.8497 6.34383 18.7783L7.75361 17.964 6.83725 16.614C6.75972 16.4997 6.8725 16.3497 7.00643 16.3997L8.51489 17.0069 8.98716 15.4355C8.98011 15.3069 9.17043 15.3069 9.21273 15.4355zM27.7231 4.26403L27.9557 5.02832 28.6888 4.72832C28.7522 4.69975 28.8086 4.77832 28.7733 4.82832L28.3222 5.48546 29.013 5.88546C29.0694 5.92118 29.0483 6.00689 28.9848 6.01403L28.1953 6.07118 28.3152 6.86403C28.3222 6.92832 28.2447 6.97118 28.1953 6.92118L27.6596 6.32832 27.1239 6.92118C27.0816 6.97118 26.997 6.92832 27.0041 6.86403L27.1239 6.07118 26.3344 6.01403C26.2639 6.00689 26.2498 5.92118 26.3062 5.88546L26.997 5.48546 26.5459 4.82832C26.5107 4.77118 26.567 4.69975 26.6305 4.72832L27.3636 5.02832 27.5962 4.26403C27.6103 4.19975 27.7019 4.19975 27.7231 4.26403zM22.6056 10.1569L22.8382 10.9283 23.5713 10.6283C23.6347 10.5997 23.6911 10.6783 23.6559 10.7283L23.2048 11.3855 23.8955 11.7855C23.9519 11.8212 23.9308 11.9069 23.8674 11.914L23.0779 11.9712 23.1977 12.764C23.2048 12.8283 23.1272 12.8712 23.0779 12.8212L22.5422 12.2283 22.0064 12.8212C21.9642 12.8712 21.8796 12.8283 21.8866 12.764L22.0064 11.9712 21.217 11.914C21.1465 11.9069 21.1324 11.8212 21.1888 11.7855L21.8796 11.3855 21.4284 10.7283C21.3932 10.6712 21.4496 10.5997 21.513 10.6283L22.2461 10.9283 22.4787 10.164C22.4928 10.0926 22.5845 10.0926 22.6056 10.1569zM32.5585 7.63546L32.7911 8.39974 33.5242 8.09974C33.5877 8.07117 33.644 8.14974 33.6088 8.19974L33.1577 8.85689 33.8485 9.25689C33.9049 9.2926 33.8837 9.37832 33.8203 9.38546L33.0308 9.4426 33.1506 10.2355C33.1577 10.2997 33.0801 10.3426 33.0308 10.2926L32.4951 9.71403 31.9594 10.3069C31.9171 10.3569 31.8325 10.314 31.8395 10.2497L31.9594 9.45689 31.1699 9.39975C31.0994 9.3926 31.0853 9.30689 31.1417 9.27117L31.8325 8.87117 31.3814 8.21403C31.3461 8.15689 31.4025 8.08546 31.4659 8.11403L32.199 8.41403 32.4316 7.64974C32.4528 7.57117 32.5444 7.57117 32.5585 7.63546zM27.7231 17.7212L27.9557 18.4855 28.6888 18.1855C28.7522 18.1569 28.8086 18.2355 28.7733 18.2855L28.3222 18.9426 29.013 19.3426C29.0694 19.3783 29.0483 19.464 28.9848 19.4712L28.1953 19.5283 28.3152 20.3212C28.3222 20.3855 28.2447 20.4283 28.1953 20.3783L27.6596 19.7854 27.1239 20.3783C27.0816 20.4283 26.997 20.3855 27.0041 20.3212L27.1239 19.5283 26.3344 19.4712C26.2639 19.464 26.2498 19.3783 26.3062 19.3426L26.997 18.9426 26.5459 18.2855C26.5107 18.2283 26.567 18.1569 26.6305 18.1855L27.3636 18.4855 27.5962 17.7212C27.6103 17.6569 27.7019 17.6569 27.7231 17.7212zM29.4993 11.5355L29.3161 12.0926 28.731 12.0997C28.6535 12.0997 28.6253 12.1997 28.6817 12.2426L29.1469 12.5926 28.9707 13.1569C28.9495 13.2283 29.027 13.2926 29.0905 13.2426L29.5628 12.8997 30.035 13.2426C30.0985 13.2855 30.176 13.2283 30.1549 13.1569L29.9786 12.5926 30.4439 12.2426C30.5073 12.1997 30.4721 12.0997 30.3945 12.0997L29.8095 12.0926 29.6262 11.5355C29.6192 11.464 29.5205 11.464 29.4993 11.5355z"/></svg>