<svg xmlns="http://www.w3.org/2000/svg" fill="none" viewBox="0 0 37 24"><path fill="#4173CD" d="M35.4699 23.9786H0.620301C0.274906 23.9786 0 23.6929 0 23.3501V0.650056C0 0.300056 0.281955 0.0214844 0.620301 0.0214844H35.4629C35.8083 0.0214844 36.0832 0.307199 36.0832 0.650056V23.3501C36.0902 23.7001 35.8083 23.9786 35.4699 23.9786Z"/><path fill="#FFE15A" d="M0 16.4141H36.0902V17.6783H0V16.4141zM0 18.9355H36.0902V20.1998H0V18.9355z"/><path fill="#FF4B55" d="M4.59597 6.27879L2.28394 5.47879L4.59597 4.67879L5.38544 2.33594L6.18196 4.67879L8.49399 5.47879L6.18196 6.27879L5.38544 8.62879L4.59597 6.27879Z"/><path fill="#F5F5F5" fill-rule="evenodd" d="M5.13152 2.67121L5.38528 1.91406L5.64608 2.66406L6.28753 4.5712L8.16253 5.2212L8.90971 5.47835L8.16253 5.73549L6.28048 6.38549L5.63904 8.29263L5.38528 9.04978L5.13152 8.29263L4.49007 6.38549L2.60802 5.73549L1.86084 5.47835L2.60802 5.2212L4.49007 4.5712L5.13152 2.67121ZM6.06896 4.78549L5.38522 2.75692L4.70147 4.78549L2.6996 5.47835L4.70147 6.17121L5.38522 8.19978L6.06896 6.17121L8.07083 5.47835L6.06896 4.78549Z" clip-rule="evenodd"/></svg>