<svg xmlns="http://www.w3.org/2000/svg" fill="none" viewBox="0 0 37 24"><path fill="#73AF00" d="M35.4699 0.0214844H0.620301C0.274906 0.0214844 0 0.307199 0 0.650056V23.3501C0 23.7001 0.281955 23.9786 0.620301 23.9786H35.4629C35.8083 23.9786 36.0832 23.6929 36.0832 23.3501V0.650056C36.0902 0.300056 35.8083 0.0214844 35.4699 0.0214844Z"/><path fill="#FFE15A" d="M36.0902 0.650056C36.0902 0.300056 35.8083 0.0214844 35.4699 0.0214844H32.6856L18.0451 9.73577L3.40461 0.0214844H0.620301C0.274906 0.0214844 0 0.307199 0 0.650056V2.27863L14.6405 12.0001L0 21.7215V23.3501C0 23.7001 0.281955 23.9786 0.620301 23.9786H3.40461L18.0451 14.2643L32.6856 23.9858H35.4699C35.8153 23.9858 36.0902 23.7001 36.0902 23.3572V21.7286L21.4497 12.0001L36.0902 2.27863V0.650056Z"/><path fill="#464655" d="M36.0903 2.27881V21.7217L21.4498 12.0002 36.0903 2.27881zM0 21.7217V2.27881L14.6405 12.0002 0 21.7217z"/></svg>