<svg xmlns="http://www.w3.org/2000/svg" fill="none" viewBox="0 0 36 24"><path fill="#73AF00" d="M35.3647 23.9075H0.61846C0.27409 23.9075 0 23.6227 0 23.2808V0.648191C0 0.299229 0.281118 0.0214844 0.61846 0.0214844H35.3576C35.702 0.0214844 35.9761 0.306351 35.9761 0.648191V23.2808C35.9831 23.6298 35.702 23.9075 35.3647 23.9075Z"/><path fill="#FFE15A" d="M17.6681 3.36131L4.5961 11.4302C4.19551 11.6723 4.19551 12.2563 4.5961 12.5055L17.6751 20.5744C17.8719 20.6954 18.1249 20.6954 18.3217 20.5744L31.4007 12.5055C31.8013 12.2634 31.8013 11.6794 31.4007 11.4302L18.3147 3.36131C18.1179 3.24024 17.8649 3.24024 17.6681 3.36131Z"/><path fill="#41479B" d="M17.9918 16.9923C20.7321 16.9923 22.9535 14.7412 22.9535 11.9644C22.9535 9.18759 20.7321 6.93652 17.9918 6.93652C15.2515 6.93652 13.03 9.18759 13.03 11.9644C13.03 14.7412 15.2515 16.9923 17.9918 16.9923Z"/><path fill="#F5F5F5" d="M13.7326 9.39331C13.5007 9.79212 13.318 10.2194 13.1985 10.6823C15.9464 10.4758 20.0226 11.2521 22.6089 13.8016C22.7776 13.3672 22.89 12.8972 22.9322 12.4129C20.2546 10.1268 16.5578 9.31497 13.7326 9.39331Z"/></svg>