<svg xmlns="http://www.w3.org/2000/svg" fill="none" viewBox="0 0 37 25"><path fill="#41479B" d="M36.364 24.8893H0.635936C0.281835 24.8893 0 24.5927 0 24.2368V0.674963C0 0.311675 0.289062 0.0225265 0.635936 0.0225265H36.3567C36.7108 0.0225265 36.9927 0.319089 36.9927 0.674963V24.2368C36.9999 24.6001 36.7108 24.8893 36.364 24.8893Z"/><path fill="#F5F5F5" d="M36.9999 0.674963C36.9999 0.311675 36.7108 0.0225265 36.364 0.0225265H33.5095L21.6869 7.96298V0.0225265H15.3058V7.96298L3.49042 0.0225265H0.635936C0.281835 0.0225265 0 0.319089 0 0.674963V2.36537L10.1388 9.17888H0V15.7255H10.1388L0 22.5464V24.2368C0 24.6001 0.289062 24.8893 0.635936 24.8893H3.49042L15.3058 16.9488V24.8893H21.6869V16.9488L33.5022 24.8893H36.3567C36.7108 24.8893 36.9927 24.5927 36.9927 24.2368V22.5464L26.8538 15.7329H36.9999V9.1863H26.8611L36.9999 2.36537V0.674963Z"/><path fill="#FF4B55" d="M36.9999 10.4912H20.415V.0225265H16.5849V10.4912H0V14.4206H16.5849V24.8893H20.415V14.4206H36.9999V10.4912zM12.9292 15.7255L.0153704 24.3258C.0587297 24.6446.311659 24.8893.636853 24.8893H1.51849L15.2778 15.7255H12.9292zM25.0322 15.7255H22.6908L36.4284 24.8744C36.7464 24.8374 36.9993 24.5705 36.9993 24.2368V23.6956L25.0322 15.7255zM0 1.39412L11.6925 9.17888H14.0339L.368554.0818366C.151757.185633 0 .408055 0 .674961V1.39412zM24.0348 9.1863L36.9775.563752C36.9269.259776 36.674.0225265 36.3632.0225265H35.4527L21.6861 9.1863H24.0348z"/></svg>