<svg xmlns="http://www.w3.org/2000/svg" fill="none" viewBox="0 0 37 24"><path fill="#73AF00" d="M18.0451 23.9786H0.620301C0.274906 23.9786 0 23.6929 0 23.3501V0.650056C0 0.300056 0.281955 0.0214844 0.620301 0.0214844H18.0451V23.9786Z"/><path fill="#F5F5F5" d="M18.0452 0.0214844H35.47C35.8154 0.0214844 36.0903 0.307199 36.0903 0.650056V23.3501C36.0903 23.7001 35.8083 23.9786 35.47 23.9786H18.0452V0.0214844Z"/><path fill="#FF4B55" d="M21.0481 9.70686L19.9696 11.1354 18.2849 10.564C18.1933 10.5354 18.1087 10.6426 18.1651 10.7211L19.1731 12.1997 18.1157 13.6497C18.0593 13.7283 18.1298 13.8426 18.2285 13.814L19.9273 13.2997 20.9564 14.764C21.0128 14.8426 21.1397 14.8069 21.1467 14.7069L21.189 12.9069 22.8808 12.364C22.9724 12.3354 22.9795 12.1997 22.8808 12.164L21.2172 11.5711 21.2313 9.77114C21.2384 9.67114 21.1115 9.62829 21.0481 9.70686zM19.1659 16.3283C16.8046 16.3283 14.8943 14.3926 14.8943 11.9997 14.8943 9.61399 16.8046 7.67113 19.1659 7.67113 20.04 7.67113 20.8506 7.94256 21.5273 8.40685 21.633 8.47828 21.7458 8.34256 21.6612 8.24971 20.6533 7.18542 19.2294 6.54256 17.6434 6.59256 14.9296 6.68542 12.6739 8.89256 12.5048 11.6426 12.3074 14.7926 14.7674 17.4068 17.8337 17.4068 19.3422 17.4068 20.7026 16.764 21.6683 15.7426 21.7529 15.6497 21.6331 15.514 21.5344 15.5854 20.8506 16.0568 20.04 16.3283 19.1659 16.3283z"/></svg>