<svg xmlns="http://www.w3.org/2000/svg" fill="none" viewBox="0 0 37 24"><path fill="#FAB446" d="M36.0902 8.0072H0V0.650056C0 0.300056 0.281955 0.0214844 0.620301 0.0214844H35.4629C35.8083 0.0214844 36.0832 0.307199 36.0832 0.650056L36.0902 8.0072Z"/><path fill="#73AF00" d="M35.4699 23.9784H0.620301C0.274906 23.9784 0 23.6927 0 23.3498V15.9927H36.0902V23.3498C36.0902 23.6998 35.8083 23.9784 35.4699 23.9784Z"/><path fill="#F5F5F5" d="M0 8.007H36.09V15.992999999999999H0z"/><path fill="#41479B" fill-rule="evenodd" d="M18.0453 8.61426C16.2055 8.61426 14.7041 10.1357 14.7041 12C14.7041 13.8643 16.1985 15.3857 18.0453 15.3857C19.8921 15.3857 21.3864 13.8643 21.3864 12C21.3864 10.1357 19.885 8.61426 18.0453 8.61426ZM20.7663 11.9285L19.0111 11.8428L18.5741 11.8857C18.56 11.8142 18.5318 11.7571 18.4965 11.7L18.8349 11.4214L20.0191 10.1C20.4632 10.5785 20.7451 11.2214 20.7663 11.9285ZM18.1584 11.4643C18.2218 11.4785 18.2853 11.5071 18.3417 11.5428L18.6166 11.2L19.9206 9.99997C19.4483 9.54283 18.8139 9.26426 18.1161 9.24283L18.2007 11.0214L18.1584 11.4643ZM17.9325 11.4643C17.862 11.4785 17.8056 11.5071 17.7492 11.5428L17.4743 11.2L16.1703 9.99997C16.6426 9.54283 17.277 9.26426 17.9748 9.24283L17.8902 11.0214L17.9325 11.4643ZM17.9325 12.5357C17.8691 12.5214 17.8056 12.4928 17.7492 12.4571L17.4743 12.8L16.1703 14C16.6426 14.4571 17.277 14.7357 17.9748 14.7571L17.8902 12.9785L17.9325 12.5357ZM18.1584 12.5357C18.2289 12.5214 18.2853 12.4928 18.3417 12.4571L18.6166 12.8L19.9206 14C19.4483 14.4571 18.8139 14.7357 18.1161 14.7571L18.2007 12.9785L18.1584 12.5357ZM17.2557 11.4214L16.0715 10.1C15.6274 10.5785 15.3455 11.2214 15.3243 11.9285L17.0795 11.8428L17.5165 11.8857C17.5306 11.8214 17.5588 11.7571 17.5941 11.7L17.2557 11.4214ZM15.3243 12.0714L17.0795 12.1571L17.5165 12.1143C17.5306 12.1857 17.5588 12.2428 17.5941 12.3L17.2557 12.5786L16.0715 13.9C15.6274 13.4214 15.3455 12.7786 15.3243 12.0714ZM18.8349 12.5786L20.0191 13.9C20.4632 13.4214 20.7451 12.7786 20.7663 12.0714L19.0111 12.1571L18.5741 12.1143C18.56 12.1785 18.5318 12.2428 18.4965 12.3L18.8349 12.5786Z" clip-rule="evenodd"/></svg>