<svg xmlns="http://www.w3.org/2000/svg" fill="none" viewBox="0 0 37 24"><path fill="#41479B" d="M35.4699 23.9786H0.620301C0.274906 23.9786 0 23.6929 0 23.3501V0.650056C0 0.300056 0.281955 0.0214844 0.620301 0.0214844H35.4629C35.8083 0.0214844 36.0832 0.307199 36.0832 0.650056V23.3501C36.0902 23.7001 35.8083 23.9786 35.4699 23.9786Z"/><path fill="#FF4B55" d="M0 5.693H36.09V18.307000000000002H0z"/><path fill="#F5F5F5" d="M24.5159 14.0999V12.3142L24.8119 11.1213L23.3387 8.13562H22.7537L21.5765 11.1213H19.8072L18.193 6.6499H17.897L16.2828 11.1213H14.5135L13.3364 8.13562H12.7513L11.2781 11.1213L11.5741 12.3142V14.0999L9.51587 17.6713H26.5741L24.5159 14.0999Z"/></svg>