<svg xmlns="http://www.w3.org/2000/svg" fill="none" viewBox="0 0 37 24"><path fill="#FF4B55" d="M35.468 23.9802H0.622274C0.278642 23.9802 0 23.6978 0 23.3496V0.650103C0 0.301888 0.278642 0.0195312 0.622274 0.0195312H35.468C35.8117 0.0195312 36.0903 0.301888 36.0903 0.650103V23.3496C36.0902 23.6979 35.8116 23.9802 35.468 23.9802Z"/><path fill="#F5F5F5" fill-rule="evenodd" d="M13.3864 11.8145C14.1581 12.6766 15.039 12.9312 15.8234 12.923 16.3635 12.9174 16.8554 12.7868 17.2373 12.6443 13.367 15.6981 9.59724 11.451 10.8509 8.01853 10.8772 7.94689 10.9795 7.95153 10.9974 8.02589 11.0971 8.44082 11.4175 9.18846 12.4234 9.03403 13.4394 8.87796 14.0847 8.85532 14.8018 9.78017 15.1085 10.1758 15.196 10.5425 15.2786 10.8888 15.3903 11.3572 15.4932 11.7886 16.1179 12.2047 16.378 12.378 16.7824 12.4025 17.1042 12.388 16.233 12.7042 14.7749 12.9335 13.5985 11.6244 13.5466 11.5667 13.4599 11.559 13.4013 11.6093 13.3408 11.6612 13.3331 11.7551 13.3864 11.8145zM12.8724 11.7546C12.891 11.817 12.9774 11.8195 12.9994 11.7582L13.1695 11.2846 13.6666 11.2945C13.731 11.2957 13.7599 11.2133 13.7092 11.1731L13.3174 10.8629 13.4802 10.3869C13.5014 10.3252 13.4329 10.2719 13.3795 10.3084L12.9673 10.5901 12.5709 10.2861C12.5196 10.2468 12.4483 10.2963 12.4661 10.359L12.603 10.8433 12.1952 11.1314C12.1424 11.1687 12.1668 11.2526 12.2311 11.2549L12.728 11.2725 12.8724 11.7546zM21.2065 10.0484C20.0786 9.82767 19.2232 10.1592 18.6003 10.6425 18.1714 10.9752 17.855 11.3787 17.6339 11.7246 18.9236 6.92889 24.4539 8.03653 25.482 11.5451 25.5035 11.6184 25.4188 11.6768 25.3606 11.6282 25.0353 11.3567 24.3363 10.9532 23.6228 11.6881 22.902 12.4305 22.3991 12.8406 21.2779 12.5364 20.7982 12.4062 20.5113 12.166 20.2402 11.939 19.8735 11.632 19.5359 11.3493 18.7898 11.396 18.4792 11.4154 18.141 11.6415 17.8921 11.8487 18.4019 11.0662 19.4332 9.99667 21.1493 10.3293 21.2249 10.344 21.2989 10.2976 21.316 10.2216 21.3336 10.1433 21.2842 10.0636 21.2065 10.0484zM21.6533 9.78383C21.6014 9.74525 21.5309 9.79583 21.5496 9.85825L21.6938 10.3405 21.2902 10.6348C21.2378 10.6728 21.2635 10.7563 21.3279 10.7577L21.8249 10.7678 21.9764 11.2477C21.996 11.3098 22.0823 11.3109 22.1035 11.2493L22.2666 10.7733 22.7637 10.7757C22.828 10.776 22.8558 10.6931 22.8045 10.6537L22.4082 10.3494 22.5641 9.87097C22.5842 9.80904 22.515 9.75668 22.4622 9.79397L22.0541 10.0818 21.6533 9.78383zM16.6069 8.26775C16.1138 9.31904 16.2168 10.2412 16.5227 10.9732 16.7334 11.4773 17.0397 11.8886 17.315 12.1922 13.0554 9.72732 15.497 4.57854 19.1065 4.44732 19.1819 4.44461 19.2165 4.54225 19.1555 4.58725 18.8148 4.83854 18.2543 5.42332 18.778 6.30718 19.307 7.19996 19.5732 7.79596 19.002 8.81989 18.7577 9.258 18.4564 9.47946 18.1717 9.68869 17.7867 9.97163 17.4322 10.2322 17.2902 10.9759 17.2311 11.2856 17.3625 11.6738 17.4982 11.97 16.8781 11.274 16.1141 9.99475 16.8612 8.39418 16.8939 8.32375 16.8681 8.23946 16.7998 8.20368 16.7295 8.16675 16.6409 8.19525 16.6069 8.26775zM16.4662 7.76305C16.4163 7.80426 16.4469 7.88612 16.5113 7.8834L17.0079 7.86269 17.1881 8.33219C17.2114 8.39298 17.2977 8.38869 17.315 8.32591L17.449 7.84076 17.9454 7.81226C18.0096 7.80855 18.0323 7.72412 17.9787 7.68798L17.5649 7.4089 17.6915 6.92176C17.7079 6.85862 17.6356 6.81069 17.5852 6.85119L17.1954 7.16383 16.7772 6.89126C16.7232 6.85598 16.6558 6.91083 16.6782 6.97198L16.8512 7.44433 16.4662 7.76305zM20.7105 14.9548C20.5632 13.8005 19.9838 13.0816 19.3354 12.6342 18.889 12.3261 18.4118 12.1485 18.0177 12.0444 22.9158 11.779 23.615 17.4472 20.6508 19.5383 20.5889 19.582 20.5076 19.519 20.5348 19.4476 20.6871 19.0493 20.8456 18.2502 19.933 17.7945 19.0111 17.3343 18.4687 16.9793 18.4017 15.8051 18.373 15.3027 18.508 14.9512 18.6355 14.6191 18.8079 14.17 18.9667 13.7563 18.6886 13.0532 18.5728 12.7604 18.2548 12.5061 17.9825 12.3317 18.8758 12.5765 20.2018 13.2326 20.4291 14.9881 20.4392 15.0653 20.5059 15.122 20.5825 15.1146 20.6613 15.107 20.7208 15.0345 20.7105 14.9548zM21.0988 15.3018C21.1186 15.2398 21.0491 15.1878 20.9965 15.2253L20.59 15.5153 20.1876 15.2194C20.1355 15.181 20.0653 15.232 20.0843 15.2943L20.2309 15.7758 19.8288 16.0722C19.7768 16.1105 19.8028 16.194 19.8672 16.195L20.3643 16.2025 20.5183 16.6815C20.5382 16.7435 20.6246 16.7442 20.6454 16.6825L20.806 16.2057 21.3032 16.2054C21.3675 16.2053 21.3947 16.1223 21.3433 16.0832L20.9454 15.781 21.0988 15.3018zM15.9503 16.0922C16.9907 15.5987 17.4901 14.8207 17.7135 14.0587 17.8673 13.5339 17.889 13.0192 17.8669 12.6076 19.6068 17.255 14.4912 19.6545 11.6234 17.4295 11.5636 17.383 11.5982 17.2854 11.6735 17.29 12.0942 17.3156 12.8937 17.2255 13.0443 16.206 13.1965 15.176 13.3651 14.5445 14.4486 14.1225 14.9121 13.9419 15.2836 13.9652 15.6346 13.9872 16.1093 14.017 16.5465 14.0444 17.1228 13.562 17.3628 13.3611 17.505 12.9768 17.5861 12.6608 17.6279 13.5976 17.4145 15.0772 15.8334 15.8308 15.7639 15.864 15.731 15.9457 15.7612 16.0173 15.7924 16.0911 15.8786 16.1262 15.9503 16.0922zM15.7425 16.5725C15.8069 16.5727 15.8346 16.4899 15.7833 16.4505L15.3871 16.1463 15.5427 15.6679C15.5628 15.6059 15.4936 15.5536 15.4408 15.5909L15.0328 15.8789 14.6318 15.581C14.58 15.5424 14.5095 15.593 14.5281 15.6554L14.6724 16.1376 14.2689 16.4319C14.2166 16.47 14.2423 16.5536 14.3067 16.5549L14.8038 16.5649 14.9554 17.0447C14.975 17.1068 15.0614 17.1079 15.0825 17.0463L15.2454 16.5703 15.7425 16.5725z" clip-rule="evenodd"/></svg>