<svg xmlns="http://www.w3.org/2000/svg" fill="none" viewBox="0 0 37 24"><path fill="#F5F5F5" d="M0.232613 23.8285L18.0451 12L0.232613 0.171387C0.0916353 0.285672 0 0.457101 0 0.649958V23.35C0 23.5428 0.0916353 23.7142 0.232613 23.8285Z"/><path fill="#FF4B55" d="M0.232422 23.8286C0.338155 23.9214 0.472083 23.9786 0.627159 23.9786H35.4697C35.8151 23.9786 36.09 23.6929 36.09 23.35V12H18.0449L0.232422 23.8286Z"/><path fill="#41479B" d="M0.232422 0.171484C0.338155 0.0786272 0.472083 0.0214844 0.627159 0.0214844H35.4697C35.8151 0.0214844 36.09 0.307199 36.09 0.650056V12.0001H18.0449L0.232422 0.171484Z"/><path fill="#FFE15A" d="M6.5348 14.0501C7.65209 14.0501 8.55783 13.1323 8.55783 12.0001 8.55783 10.868 7.65209 9.95014 6.5348 9.95014 5.41752 9.95014 4.51178 10.868 4.51178 12.0001 4.51178 13.1323 5.41752 14.0501 6.5348 14.0501zM6.53424 12.0002L5.77296 8.92872 6.53424 7.90015 7.28847 8.92872 6.53424 12.0002zM6.53424 12.0002L7.28847 15.0716 6.53424 16.1001 5.77296 15.0716 6.53424 12.0002zM6.53424 12.0002L3.5033 12.7716 2.48826 12.0002 3.5033 11.2287 6.53424 12.0002zM6.53529 12.0002L9.5663 11.2287 10.5813 12.0002 9.5663 12.7716 6.53529 12.0002zM6.53529 12.0002L8.14243 9.28587 9.39713 9.10015 9.21386 10.3716 6.53529 12.0002zM6.53424 12.0002L4.92717 14.7144 3.67247 14.9001 3.85574 13.6287 6.53424 12.0002zM6.53424 12.0002L3.85574 10.3716 3.67247 9.10015 4.92717 9.28587 6.53424 12.0002zM6.53529 12.0002L9.21386 13.6287 9.39713 14.9001 8.14243 14.7144 6.53529 12.0002zM1.67136 3.12157L1.77709 3.92158 1.06515 4.27872C.973519 4.32872.994666 4.46443 1.09335 4.48586L1.87577 4.62872 1.9956 5.42158C2.0097 5.52158 2.14363 5.55015 2.19297 5.45729L2.57361 4.75015 3.35604 4.88586C3.45472 4.90015 3.52521 4.77872 3.44767 4.70729L2.89786 4.12872 3.2644 3.41443C3.31374 3.32157 3.21506 3.22157 3.12342 3.26443L2.40444 3.61443 1.84758 3.043C1.77709 2.95729 1.65726 3.01443 1.67136 3.12157zM1.98118 18.6359L1.84725 19.4287 1.06482 19.5573C.96614 19.5716.937944 19.7144 1.02958 19.7573L1.73447 20.1287 1.61464 20.9287C1.60054 21.0287 1.72037 21.093 1.79791 21.0216L2.36887 20.4573 3.0808 20.8216C3.17244 20.8716 3.27112 20.7716 3.22178 20.6787L2.86934 19.9573 3.4262 19.3859C3.49668 19.3144 3.43324 19.1859 3.33456 19.2002L2.55214 19.3144 2.18559 18.6002C2.13625 18.5144 1.99528 18.5359 1.98118 18.6359zM14.2878 10.8287L13.8296 11.4859 13.0683 11.2644C12.9697 11.2359 12.8921 11.3501 12.9556 11.4359L13.4349 12.0787 12.9908 12.743C12.9344 12.8287 13.019 12.943 13.1106 12.9073L13.8649 12.6501 14.3512 13.2859C14.4147 13.3716 14.5415 13.3216 14.5415 13.2144L14.5275 12.4073 15.2746 12.1359C15.3733 12.1001 15.3663 11.9644 15.2676 11.9287L14.5063 11.693 14.4852 10.8859C14.4781 10.7787 14.3512 10.743 14.2878 10.8287z"/></svg>