<svg xmlns="http://www.w3.org/2000/svg" fill="none" viewBox="0 0 37 24"><path fill="#F5F5F5" d="M35.4699 23.9786H0.620301C0.274906 23.9786 0 23.6929 0 23.3501V0.650056C0 0.300056 0.281955 0.0214844 0.620301 0.0214844H35.4629C35.8083 0.0214844 36.0832 0.307199 36.0832 0.650056V23.3501C36.0902 23.7001 35.8083 23.9786 35.4699 23.9786Z"/><path fill="#4173CD" d="M.620301 23.9785H17.4178C17.7632 23.9785 18.0381 23.6928 18.0381 23.3499V11.9999H.620301C.281955 11.9999 0 12.2856 0 12.6285V23.3499C0 23.6999.281955 23.9785.620301 23.9785zM9.26254 3.32132L9.85464 5.12132 11.7296 5.1356C11.9693 5.1356 12.075 5.44989 11.8777 5.59989L10.3692 6.72846 10.9331 8.54275C11.0036 8.77846 10.7428 8.97132 10.5454 8.82846L9.02288 7.72132 7.50032 8.82846C7.30295 8.97132 7.04214 8.77846 7.11263 8.54275L7.67654 6.72846 6.16809 5.59989C5.97072 5.45703 6.07645 5.14275 6.31611 5.1356L8.19111 5.12132 8.78322 3.32132C8.86075 3.0856 9.185 3.0856 9.26254 3.32132z"/><path fill="#FF4B55" d="M18.0452 12.0001H35.47C35.8154 12.0001 36.0903 11.7143 36.0903 11.3715V.650056C36.0903.300056 35.8083.0214844 35.47.0214844H18.6655C18.3201.0214844 18.0452.307199 18.0452.650056V12.0001zM27.3077 15.3001L27.8998 17.1001 29.7748 17.1143C30.0145 17.1143 30.1202 17.4286 29.9228 17.5786L28.4144 18.7072 28.9783 20.5215C29.0488 20.7572 28.788 20.9501 28.5906 20.8072L27.068 19.7001 25.5455 20.8072C25.3481 20.9501 25.0873 20.7572 25.1578 20.5215L25.7217 18.7072 24.2132 17.5786C24.0159 17.4358 24.1216 17.1215 24.3613 17.1143L26.2363 17.1001 26.8284 15.3001C26.9059 15.0643 27.2302 15.0643 27.3077 15.3001z"/></svg>