<svg xmlns="http://www.w3.org/2000/svg" fill="none" viewBox="0 0 37 24"><path fill="#F5F5F5" d="M36.0902 8.0072H0V0.650056C0 0.300056 0.281955 0.0214844 0.620301 0.0214844H35.4629C35.8083 0.0214844 36.0832 0.307199 36.0832 0.650056L36.0902 8.0072Z"/><path fill="#FF4B55" d="M35.4699 23.9784H0.620301C0.274906 23.9784 0 23.6927 0 23.3498V15.9927H36.0902V23.3498C36.0902 23.6998 35.8083 23.9784 35.4699 23.9784Z"/><path fill="#41479B" d="M0 8.007H36.09V15.992999999999999H0z"/><path fill="#FF4B55" d="M9.17778 17.9499C8.99451 17.8427 4.6665 15.2927 4.6665 11.3713V6.01416H13.9992V11.3713C13.9992 15.2927 9.6712 17.8427 9.48793 17.9499L9.33286 18.0356L9.17778 17.9499Z"/><path fill="#F5F5F5" d="M11.7789 10.4213L9.82634 10.6213V9.7356L11.2925 9.92846V8.54275L9.82634 8.74275L10.0167 6.95703H8.64918L8.84655 8.74275L7.38038 8.54275V9.92846L8.84655 9.7356V10.6213L6.88696 10.4213V11.807L8.84655 11.607V13.8927H9.82634V11.607L11.7789 11.807V10.4213Z"/><path fill="#41479B" d="M9.33271 12.9429C8.69126 12.9429 6.27349 14.5429 6.2312 15.3714C7.49295 16.9429 9.0719 17.8786 9.17763 17.9429L9.33271 18.0286L9.48778 17.9429C9.60056 17.8786 11.1725 16.9429 12.4342 15.3714C12.3849 14.5429 9.97415 12.9429 9.33271 12.9429Z"/><path fill="#F5F5F5" fill-rule="evenodd" d="M14.3095 5.69287V11.3643C14.3095 15.4643 9.83342 18.1072 9.6431 18.2143L9.33295 18.3929L9.0228 18.2143C8.83248 18.1072 4.35645 15.4643 4.35645 11.3643V5.69287H14.3095ZM13.6891 11.3714V6.32859H4.97668V11.3714C4.97668 15.1572 9.33288 17.6786 9.33288 17.6786C9.33288 17.6786 13.6891 15.1572 13.6891 11.3714Z" clip-rule="evenodd"/></svg>