<svg xmlns="http://www.w3.org/2000/svg" fill="none" viewBox="0 0 36 24"><path fill="#F5F5F5" d="M14.8922 23.9075H0.61846C0.27409 23.9075 0 23.6227 0 23.2808V0.648191C0 0.299229 0.281118 0.0214844 0.61846 0.0214844H14.8852L14.8922 23.9075Z"/><path fill="#FF4B55" d="M9.92358 0.0214844L14.8853 1.51703L9.92358 3.01258L14.8853 4.50813L9.92358 6.00368L14.8853 7.49923L9.92358 8.99478L14.8853 10.4903L9.92358 11.9859L14.8853 13.4814L9.92358 14.977L14.8853 16.4725L9.92358 17.9681L14.8853 19.4636L9.92358 20.9592L14.8853 22.4547L9.92358 23.9503H35.3578C35.7021 23.9503 35.9762 23.6654 35.9762 23.3236V0.648191C35.9762 0.299229 35.6951 0.0214844 35.3578 0.0214844H9.92358Z"/></svg>