<svg xmlns="http://www.w3.org/2000/svg" fill="none" viewBox="0 0 37 24"><path fill="#FF4B55" d="M35.4699 23.9786H0.620301C0.274906 23.9786 0 23.6929 0 23.3501V0.650056C0 0.300056 0.281955 0.0214844 0.620301 0.0214844H35.4629C35.8083 0.0214844 36.0832 0.307199 36.0832 0.650056V23.3501C36.0902 23.7001 35.8083 23.9786 35.4699 23.9786Z"/><path fill="#464655" d="M24.8543 14.9856C24.5159 14.7713 24.3115 15.1142 24.3115 15.1142L23.3176 15.2356L23.811 14.8142C24.1705 14.8427 24.2199 14.7356 24.3186 14.5856C24.4172 14.4356 24.8261 14.507 24.8261 14.507C24.7697 14.057 24.2058 14.307 24.2058 14.307C23.7476 14.257 23.6701 14.6356 23.6701 14.6356L22.9581 15.1856L21.3933 14.7142C21.5554 14.5356 21.6823 14.357 21.7034 14.2499C21.7316 14.0713 20.5474 13.7642 20.1879 13.3856C19.8284 13.007 19.6945 12.3999 19.8637 12.2427C20.0328 12.0856 20.1738 12.5284 20.3571 12.8999C20.5404 13.2713 20.8787 13.557 21.0972 13.3713C21.3157 13.1856 20.8646 12.9142 20.6531 12.5142C20.4487 12.1213 20.8082 11.9784 20.9774 12.0142C21.1466 12.057 21.2523 12.8713 21.6541 13.2856C22.0559 13.707 22.4224 13.6284 22.4577 13.3642C22.4929 13.0999 21.7951 12.7784 21.6541 12.557C21.5131 12.3356 21.4779 11.8927 21.7105 11.8856C21.9431 11.8713 22.796 13.1642 23.522 13.657C24.3115 14.1927 24.9459 13.5642 24.8472 13.2999C24.7415 13.0356 24.2622 13.1427 23.7053 12.9999C23.1484 12.857 22.5775 12.0927 22.4083 11.6713C22.2391 11.2499 22.3801 11.2499 22.4788 11.2927C22.5775 11.3356 22.944 11.8856 23.656 12.307C24.3679 12.7284 24.8613 12.3284 24.9177 12.2284C24.9741 12.1284 25.1997 11.6856 24.4736 11.7927C23.6419 11.9142 23.1696 11.4142 22.8312 11.1427C22.4929 10.8784 22.3519 10.5142 22.507 10.3642C22.6621 10.2142 23.1766 10.8856 23.952 11.0927C24.6639 11.2856 24.96 10.9713 24.9389 10.6856C24.9177 10.3999 24.7556 10.5213 23.945 10.4427C23.1343 10.3642 22.5775 9.59273 22.5422 9.54273C22.507 9.49272 22.5211 9.21415 22.9299 9.48558C23.3388 9.75701 24.0648 9.90701 24.4948 9.89273C24.9248 9.87844 25.0093 9.29273 24.8049 9.19273C24.6005 9.09273 24.5512 9.24273 24.0859 9.34273C23.6207 9.44273 22.7467 8.95701 22.5281 8.72844C22.3096 8.49987 22.5493 8.35701 22.655 8.3713C22.7608 8.38558 23.4586 8.80701 24.0859 8.78558C24.7133 8.76415 24.9741 8.18558 24.953 8.00701C24.9318 7.82844 24.7556 7.67844 24.4948 7.85701C24.234 8.03558 23.8815 8.24273 23.2965 8.14273C22.7114 8.04273 22.4436 7.64987 22.5211 7.49987C22.5986 7.34987 23.1625 7.60701 24.0577 7.50701C24.953 7.40701 24.9882 6.60701 24.9036 6.44987C24.819 6.29273 24.6005 6.34273 24.2974 6.62844C23.9943 6.91415 23.4092 6.9713 22.9581 6.9713C22.4999 6.9713 22.4929 6.74273 22.5563 6.58558C22.6198 6.42844 23.1132 6.46415 23.7899 6.24987C24.4736 6.03558 24.8613 5.47844 24.9671 5.13558C25.0728 4.79273 24.812 4.5213 24.7062 4.5213C24.6005 4.5213 24.6639 4.36415 24.1987 5.04273C23.7335 5.7213 22.507 5.98558 22.507 5.98558C22.4224 5.8213 22.2814 5.75701 22.2814 5.75701C21.4567 5.9213 20.4558 6.64987 20.4558 6.64987C20.4558 6.64987 20.632 7.2213 20.4135 7.66415C20.1315 8.23558 19.1588 7.87844 19.4266 6.9713C19.6452 6.21415 20.4981 5.76415 21.21 5.67844C21.929 5.59987 21.9642 5.3213 21.9642 5.3213C21.9642 5.3213 21.21 5.5713 21.1959 5.22844C21.351 5.25701 21.5836 5.2713 21.9713 5.24273C22.5493 5.19273 22.8735 4.77844 22.6127 4.68558C22.359 4.59987 22.4647 4.86415 22.0277 5.0713C21.7175 5.2213 21.3862 5.14987 21.2241 5.09987C21.3792 4.76415 22.0136 4.93558 22.0136 4.93558C22.0206 4.34987 21.2523 4.55701 21.2523 4.55701C20.9139 3.8213 18.9473 4.67844 18.9473 4.67844L19.4125 5.05701C18.2706 5.69987 18.038 6.9213 18.038 6.9213C18.038 6.9213 17.8054 5.69987 16.6635 5.05701L17.1287 4.67844C17.1287 4.67844 15.155 3.8213 14.8237 4.55701C14.8237 4.55701 14.0554 4.34987 14.0624 4.93558C14.0624 4.93558 14.7039 4.76415 14.8519 5.09987C14.6898 5.14987 14.3585 5.21415 14.0483 5.0713C13.6113 4.86415 13.7171 4.59987 13.4633 4.68558C13.2095 4.7713 13.5267 5.19273 14.1047 5.24273C14.4924 5.27844 14.725 5.26415 14.8801 5.22844C14.866 5.5713 14.1118 5.3213 14.1118 5.3213C14.1118 5.3213 14.147 5.59273 14.866 5.67844C15.585 5.75701 16.4309 6.21415 16.6494 6.9713C16.9102 7.87844 15.9445 8.23558 15.6625 7.66415C15.444 7.2213 15.6202 6.64987 15.6202 6.64987C15.6202 6.64987 14.6264 5.92844 13.7946 5.75701C13.7946 5.75701 13.6607 5.81415 13.569 5.98558C13.569 5.98558 12.3425 5.7213 11.8773 5.04273C11.4121 4.36415 11.4755 4.5213 11.3698 4.5213C11.264 4.5213 11.0032 4.78558 11.109 5.13558C11.2147 5.48558 11.6024 6.03558 12.2861 6.24987C12.9699 6.46415 13.4562 6.42844 13.5197 6.58558C13.5902 6.74273 13.5761 6.9713 13.1179 6.9713C12.6597 6.9713 12.0747 6.91415 11.7786 6.62844C11.4755 6.34273 11.264 6.29273 11.1724 6.44987C11.0878 6.60701 11.1231 7.40701 12.0183 7.50701C12.9135 7.60701 13.4774 7.34987 13.5549 7.49987C13.6325 7.64987 13.3576 8.04273 12.7796 8.14273C12.1945 8.24273 11.8491 8.03558 11.5812 7.85701C11.3134 7.67844 11.1442 7.82844 11.1231 8.00701C11.1019 8.18558 11.3627 8.76415 11.9901 8.78558C12.6174 8.80701 13.3153 8.39272 13.421 8.3713C13.5267 8.34987 13.7593 8.49987 13.5479 8.72844C13.3364 8.95701 12.4624 9.43558 11.9901 9.34273C11.5178 9.24987 11.4755 9.09987 11.2711 9.19273C11.0667 9.28558 11.1513 9.8713 11.5812 9.89273C12.0112 9.91415 12.7373 9.75701 13.1461 9.48558C13.5549 9.21415 13.562 9.49272 13.5338 9.54273C13.5056 9.59273 12.9417 10.357 12.1311 10.4427C11.3275 10.5213 11.1583 10.3999 11.1372 10.6856C11.116 10.9713 11.405 11.2856 12.124 11.0927C12.8994 10.8856 13.4139 10.2142 13.569 10.3642C13.7241 10.5142 13.5902 10.8784 13.2448 11.1427C12.9064 11.407 12.4342 11.907 11.6024 11.7927C10.8693 11.6856 11.0949 12.1284 11.1583 12.2284C11.2217 12.3284 11.7152 12.7284 12.4201 12.307C13.1249 11.8856 13.4985 11.3284 13.5972 11.2927C13.6959 11.2499 13.8369 11.2499 13.6677 11.6713C13.4985 12.0927 12.9276 12.857 12.3707 12.9999C11.8139 13.1427 11.3345 13.0427 11.2288 13.2999C11.1231 13.5642 11.7575 14.1927 12.554 13.657C13.28 13.1642 14.1329 11.8713 14.3655 11.8856C14.5982 11.8999 14.5629 12.3356 14.4219 12.557C14.281 12.7784 13.5761 13.107 13.6184 13.3642C13.6607 13.6213 14.0202 13.707 14.4219 13.2856C14.8237 12.8642 14.9295 12.0499 15.0986 12.0142C15.2678 11.9713 15.6273 12.1213 15.4229 12.5142C15.2185 12.907 14.7603 13.1856 14.9788 13.3713C15.1973 13.557 15.5357 13.2642 15.7189 12.8999C15.9022 12.5356 16.0432 12.0856 16.2124 12.2427C16.3815 12.3999 16.2546 13.007 15.8881 13.3856C15.5286 13.7642 14.3374 14.0713 14.3726 14.2499C14.3937 14.357 14.5206 14.5356 14.6827 14.7142L13.1179 15.1856L12.406 14.6356C12.406 14.6356 12.3284 14.2642 11.8702 14.307C11.8702 14.307 11.3063 14.0499 11.2499 14.507C11.2499 14.507 11.6588 14.4356 11.7575 14.5856C11.8561 14.7356 11.9055 14.8427 12.265 14.8142L12.7584 15.2356L11.7645 15.1142C11.7645 15.1142 11.5601 14.7713 11.2217 14.9856C11.2217 14.9856 10.7918 14.8499 10.686 15.2642C10.686 15.2642 11.0526 15.1927 11.1513 15.2427C11.1513 15.2427 11.2993 15.5784 11.7645 15.3784L12.7443 15.4284L12.1874 15.707C12.1874 15.707 11.4896 15.4784 11.5178 16.0713C11.5178 16.0713 11.3134 16.307 11.4967 16.5427C11.4967 16.5427 11.5389 16.2856 11.7222 16.1784C11.7222 16.1784 12.0817 16.3284 12.3143 15.8927L13.0263 15.457L13.7241 15.7999C13.7241 15.7999 13.703 16.1856 14.2175 16.0284C14.2175 16.0284 14.3937 16.1499 14.4431 16.307C14.4431 16.307 14.6686 16.0642 14.3092 15.7784C14.3092 15.7784 14.2246 15.4427 13.7946 15.5713L13.3928 15.3642L14.866 14.9213C15.1198 15.1713 15.3947 15.3713 15.4934 15.3356C15.6837 15.2713 15.8317 15.0713 15.9586 14.7856C16.0925 14.507 16.6846 13.5213 16.9736 13.5356C17.2697 13.5427 17.3966 13.7784 17.3261 14.1999C17.2556 14.6213 16.6846 15.4356 16.311 15.5999C15.9445 15.7642 15.8811 15.8427 15.5427 15.8142C15.2044 15.7856 15.0845 15.9356 15.1621 16.1284C15.2396 16.3284 15.6202 16.4499 16.0009 16.307C16.4097 16.1499 16.5648 15.9356 16.7199 16.0642C16.8749 16.1927 16.5577 16.657 16.1137 16.7927C15.6696 16.9284 15.3453 16.8427 15.4158 17.1213C15.4863 17.3999 15.9515 17.4142 16.2546 17.2427C16.5577 17.0713 16.8961 16.5713 16.9807 16.7284C17.0653 16.8856 17.0089 17.2927 16.7199 17.507C16.4309 17.7213 16.0996 17.5927 16.0291 17.7927C15.9304 18.0784 16.2687 18.2642 16.5366 18.157C16.7974 18.0499 17.1005 17.7142 17.2344 17.4213C17.3684 17.1284 17.6221 17.3784 17.5446 17.657C17.4671 17.9356 17.5305 18.157 16.9736 18.5927L18.0098 20.207L19.046 18.5927C18.4891 18.157 18.5526 17.9356 18.475 17.657C18.3975 17.3784 18.6513 17.1284 18.7852 17.4213C18.9191 17.7142 19.2222 18.0499 19.483 18.157C19.7438 18.2642 20.0892 18.0784 19.9905 17.7927C19.9271 17.5927 19.5888 17.7213 19.2998 17.507C19.0108 17.2927 18.9473 16.8856 19.0389 16.7284C19.1235 16.5713 19.4689 17.0642 19.765 17.2427C20.0681 17.4213 20.5333 17.3999 20.6038 17.1213C20.6743 16.8427 20.343 16.9356 19.906 16.7927C19.4689 16.6499 19.1447 16.1927 19.2998 16.0642C19.4548 15.9356 19.6099 16.1499 20.0187 16.307C20.3923 16.4499 20.78 16.3284 20.8576 16.1284C20.9351 15.9284 20.8153 15.7856 20.4769 15.8142C20.1386 15.8427 20.0751 15.7642 19.7086 15.5999C19.3421 15.4356 18.7711 14.6213 18.6936 14.1999C18.616 13.7784 18.7499 13.5427 19.046 13.5356C19.3421 13.5284 19.9342 14.507 20.061 14.7856C20.195 15.0642 20.3359 15.2713 20.5263 15.3356C20.6249 15.3713 20.8999 15.1642 21.1536 14.9213L22.6268 15.3642L22.225 15.5713C21.7951 15.4427 21.7105 15.7784 21.7105 15.7784C21.351 16.0642 21.5765 16.307 21.5765 16.307C21.6259 16.1499 21.8021 16.0284 21.8021 16.0284C22.3167 16.1856 22.2955 15.7999 22.2955 15.7999L22.9934 15.457L23.7053 15.8927C23.9379 16.3284 24.2974 16.1784 24.2974 16.1784C24.4807 16.2856 24.523 16.5427 24.523 16.5427C24.7062 16.307 24.5018 16.0713 24.5018 16.0713C24.53 15.4784 23.8322 15.707 23.8322 15.707L23.2753 15.4284L24.2551 15.3784C24.7203 15.5784 24.8684 15.2427 24.8684 15.2427C24.9671 15.1927 25.3336 15.2642 25.3336 15.2642C25.2772 14.8499 24.8543 14.9856 24.8543 14.9856Z"/></svg>