<svg xmlns="http://www.w3.org/2000/svg" fill="none" viewBox="0 0 37 24"><path fill="#5AA587" d="M35.4699 23.9786H0.620301C0.274906 23.9786 0 23.6929 0 23.3501V0.650056C0 0.300056 0.281955 0.0214844 0.620301 0.0214844H35.4629C35.8083 0.0214844 36.0832 0.307199 36.0832 0.650056V23.3501C36.0902 23.7001 35.8083 23.9786 35.4699 23.9786Z"/><path fill="#F5F5F5" d="M24.6711 12.9429C23.6209 12.2429 23.2543 12.0501 23.2543 12.0501L23.7618 11.6072C23.7618 11.6072 21.5837 10.8429 19.6383 12.4786 20.8436 10.1143 19.5396 8.08577 19.5396 8.08577L19.2365 8.69291C19.2365 8.69291 18.9545 8.37863 18.0311 7.52148 17.1077 8.38577 16.8258 8.69291 16.8258 8.69291L16.5227 8.08577C16.5227 8.08577 15.2186 10.1143 16.424 12.4786 14.4785 10.8429 12.3004 11.6072 12.3004 11.6072L12.8079 12.0501C12.8079 12.0501 12.4343 12.2429 11.384 12.9429 11.9902 14.0572 12.2228 14.4072 12.2228 14.4072L11.5673 14.5572C11.5673 14.5572 14.1965 17.4143 18.01 14.6143 21.8234 17.4143 24.4526 14.5572 24.4526 14.5572L23.7971 14.4072C23.8323 14.4072 24.0649 14.0501 24.6711 12.9429zM14.2528 18.5429C14.5206 18.7143 14.8096 18.8643 15.0987 19.0001H20.9845C21.2805 18.8643 21.5625 18.7143 21.8303 18.5429H14.2528zM15.6272 19.2143C16.3814 19.4858 17.1991 19.6358 18.045 19.6358 18.8908 19.6358 19.7085 19.4858 20.4627 19.2143H15.6272zM12.6526 17.1786C12.7443 17.2858 12.8359 17.3858 12.9346 17.4858H23.1554C23.2541 17.3858 23.3458 17.2858 23.4374 17.1786H12.6526zM13.3158 17.8429C13.4638 17.9786 13.6189 18.1001 13.781 18.2215H22.3101C22.4723 18.1001 22.6273 17.9715 22.7754 17.8429H13.3158zM21.0482 16.3715C19.3706 16.3715 18.2146 15.2358 18.2076 15.2215L18.0454 15.0644 17.8833 15.2215C17.8692 15.2358 16.7273 16.3715 15.0426 16.3715H12.0398C12.1455 16.5286 12.2513 16.6786 12.364 16.8286H15.0426C16.5511 16.8286 17.6507 16.0286 18.0454 15.6929 18.4402 16.0286 19.5398 16.8286 21.0482 16.8286H23.7268C23.8396 16.6786 23.9524 16.5286 24.0511 16.3715H21.0482z"/><path fill="#FFE15A" d="M12.4832 9.82839C12.8491 9.82839 13.1457 9.52779 13.1457 9.15697 13.1457 8.78615 12.8491 8.48554 12.4832 8.48554 12.1172 8.48554 11.8206 8.78615 11.8206 9.15697 11.8206 9.52779 12.1172 9.82839 12.4832 9.82839zM14.5844 7.4284C14.9503 7.4284 15.247 7.12779 15.247 6.75697 15.247 6.38615 14.9503 6.08554 14.5844 6.08554 14.2184 6.08554 13.9218 6.38615 13.9218 6.75697 13.9218 7.12779 14.2184 7.4284 14.5844 7.4284zM21.6822 7.46412C22.0482 7.46412 22.3448 7.16351 22.3448 6.79269 22.3448 6.42187 22.0482 6.12126 21.6822 6.12126 21.3163 6.12126 21.0196 6.42187 21.0196 6.79269 21.0196 7.16351 21.3163 7.46412 21.6822 7.46412zM23.7124 9.91411C24.0784 9.91411 24.375 9.6135 24.375 9.24268 24.375 8.87186 24.0784 8.57125 23.7124 8.57125 23.3465 8.57125 23.0498 8.87186 23.0498 9.24268 23.0498 9.6135 23.3465 9.91411 23.7124 9.91411zM18.0098 6.74269C18.5704 6.74269 19.0249 6.28218 19.0249 5.71412 19.0249 5.14605 18.5704 4.68555 18.0098 4.68555 17.4493 4.68555 16.9948 5.14605 16.9948 5.71412 16.9948 6.28218 17.4493 6.74269 18.0098 6.74269z"/></svg>