<svg xmlns="http://www.w3.org/2000/svg" fill="none" viewBox="0 0 37 24"><path fill="#F5F5F5" d="M35.4699 0.0214844H0.620301C0.274906 0.0214844 0 0.307199 0 0.650056V23.3501C0 23.7001 0.281955 23.9786 0.620301 23.9786H35.4629C35.8083 23.9786 36.0832 23.6929 36.0832 23.3501V0.650056C36.0902 0.300056 35.8083 0.0214844 35.4699 0.0214844Z"/><path fill="#4173CD" d="M13.0685 2.68555H36.0901V5.34983H13.0685V2.68555zM13.0685 8.00698H36.0901V10.6713H13.0685V8.00698zM0 13.3284H36.0902V15.9927H0V13.3284zM0 18.657H36.0902V21.3213H0V18.657z"/><path fill="#FFE15A" d="M9.05795 7.14975L11.8211 6.64261L9.05795 6.12832L11.4193 4.59261L8.67731 5.19261L10.2704 2.84975L7.96538 4.47118L8.55748 1.68546L7.03493 4.07832L6.53446 1.27832L6.03399 4.07832L4.51143 1.68546L5.10354 4.47118L2.79151 2.84975L4.3916 5.19261L1.64959 4.59261L4.01096 6.12832L1.2478 6.64261L4.01096 7.14975L1.64959 8.69261L4.3916 8.09261L2.79151 10.4283L5.10354 8.80689L4.51143 11.5926L6.03399 9.19975L6.53446 11.9997L7.03493 9.19975L8.55748 11.5926L7.96538 8.80689L10.2704 10.4283L8.67731 8.09261L11.4193 8.69261L9.05795 7.14975Z"/></svg>