<svg xmlns="http://www.w3.org/2000/svg" fill="none" viewBox="0 0 37 24"><path fill="#82AFFF" d="M12.0324 23.9786H0.620301C0.274906 23.9786 0 23.6929 0 23.3501V0.650056C0 0.300056 0.281955 0.0214844 0.620301 0.0214844H12.0254V23.9786H12.0324Z"/><path fill="#F5F5F5" d="M12.032 0.021H24.064V23.985H12.032z"/><path fill="#82AFFF" d="M35.47 23.9786H24.0579V0.0214844H35.4629C35.8083 0.0214844 36.0832 0.307199 36.0832 0.650056V23.3501C36.0903 23.7001 35.8083 23.9786 35.47 23.9786Z"/><path fill="#FFC855" d="M17.8902 8.86426L17.5308 9.04283L17.8621 9.18569L17.8902 8.86426Z"/><path fill="#73AF00" d="M18.0451 15.543C16.0644 15.543 14.4502 13.9073 14.4502 11.9002 14.4502 10.6502 15.0705 9.5073 16.1067 8.82873L16.1983 8.97159C15.2115 9.61444 14.6194 10.7073 14.6194 11.893 14.6194 13.8073 16.156 15.3644 18.0451 15.3644V15.543zM15.9867 15.7716C16.1207 15.8002 16.3321 15.7644 16.5506 15.6573 16.7692 15.5573 16.9313 15.4144 16.9947 15.293 16.8608 15.2644 16.6493 15.3002 16.4308 15.4073 16.2193 15.5073 16.0502 15.6502 15.9867 15.7716zM17.002 15.293C17.0302 15.1573 16.995 14.943 16.8893 14.7216 16.7906 14.5001 16.6496 14.3359 16.5298 14.2716 16.5016 14.4073 16.5368 14.6216 16.6425 14.843 16.7412 15.0644 16.8752 15.2287 17.002 15.293zM15.2681 15.3287C15.402 15.3787 15.6135 15.3716 15.8461 15.3002 16.0787 15.2287 16.2549 15.1144 16.3395 15.0002 16.2056 14.9502 15.9941 14.9573 15.7615 15.0287 15.5359 15.1002 15.3526 15.2144 15.2681 15.3287zM16.3394 15.0073C16.3888 14.8716 16.3817 14.6573 16.3112 14.4216 16.2408 14.1859 16.128 14.0073 16.0152 13.9216 15.9658 14.0573 15.9729 14.2716 16.0434 14.5073 16.1139 14.7359 16.2267 14.9216 16.3394 15.0073zM14.6049 14.7216C14.7247 14.793 14.9362 14.8287 15.1759 14.8002 15.4155 14.7716 15.6129 14.693 15.7186 14.6002 15.5988 14.5287 15.3873 14.493 15.1477 14.5216 14.908 14.5502 14.7106 14.6216 14.6049 14.7216zM15.7186 14.6002C15.7891 14.4787 15.825 14.2644 15.7968 14.0216 15.7686 13.7787 15.691 13.5787 15.5994 13.4716 15.5289 13.593 15.4937 13.8073 15.5219 14.0502 15.543 14.293 15.6199 14.493 15.7186 14.6002zM14.0624 13.8787C14.1681 13.9716 14.3725 14.043 14.6122 14.0573 14.8519 14.0716 15.0633 14.0287 15.1761 13.9573 15.0704 13.8644 14.866 13.793 14.6263 13.7787 14.3866 13.7644 14.1752 13.8073 14.0624 13.8787zM15.1761 13.9573C15.2678 13.8502 15.3383 13.643 15.3524 13.4001 15.3665 13.1573 15.3242 12.943 15.2537 12.8287 15.1621 12.9359 15.0916 13.143 15.0775 13.3859 15.0564 13.6287 15.0986 13.843 15.1761 13.9573zM13.7382 12.9573C13.8228 13.0716 14.0061 13.1859 14.2387 13.2501 14.4713 13.3144 14.6828 13.3216 14.8167 13.2716 14.7321 13.1573 14.5488 13.043 14.3162 12.9787 14.0836 12.9144 13.8721 12.9073 13.7382 12.9573zM14.8099 13.2716C14.9227 13.1859 15.0355 13.0002 15.0989 12.7644 15.1624 12.5287 15.1694 12.3144 15.1201 12.1787 15.0073 12.2644 14.8945 12.4502 14.8311 12.6859 14.7676 12.9216 14.7606 13.1359 14.8099 13.2716zM13.6042 11.8787C13.6606 12.0073 13.8087 12.1644 14.0131 12.293 14.2175 12.4216 14.4219 12.4787 14.5629 12.4644 14.5065 12.3359 14.3585 12.1787 14.1541 12.0502 13.9496 11.9216 13.7452 11.8644 13.6042 11.8787zM14.5629 12.4644C14.6898 12.4073 14.8446 12.2573 14.9715 12.0502 15.0983 11.843 15.1547 11.6359 15.1406 11.493 15.0137 11.5502 14.8587 11.7002 14.7318 11.9073 14.6049 12.1144 14.5488 12.3216 14.5629 12.4644zM13.7308 10.8573C13.759 11.0001 13.8647 11.1787 14.041 11.3501 14.2172 11.5144 14.4075 11.6144 14.5414 11.6359 14.5132 11.493 14.4075 11.3144 14.2313 11.143 14.0621 10.9787 13.8718 10.8716 13.7308 10.8573zM14.5487 11.6359C14.6896 11.6073 14.8659 11.5002 15.035 11.3216 15.1972 11.143 15.2958 10.9502 15.317 10.8144 15.176 10.843 14.9998 10.9502 14.8306 11.1287 14.6614 11.3002 14.5628 11.493 14.5487 11.6359zM14.2388 9.7573C14.2106 9.89301 14.2459 10.1073 14.3445 10.3287 14.4432 10.5502 14.5842 10.7144 14.704 10.7859 14.7322 10.6502 14.697 10.4359 14.5983 10.2144 14.4996 9.99301 14.3586 9.82159 14.2388 9.7573zM14.704 10.7859C14.838 10.8144 15.0495 10.7787 15.268 10.6787 15.4865 10.5787 15.6486 10.4359 15.7191 10.3144 15.5852 10.2859 15.3737 10.3216 15.1552 10.4216 14.9367 10.5216 14.7675 10.6644 14.704 10.7859zM14.8375 8.93586C14.7741 9.06443 14.7529 9.27872 14.7882 9.51443 14.8234 9.75729 14.915 9.95015 15.0137 10.0501 15.0772 9.92158 15.0983 9.70729 15.0631 9.47158 15.0278 9.23586 14.9432 9.03586 14.8375 8.93586zM15.0142 10.0573C15.1411 10.1216 15.3525 10.143 15.5852 10.1073 15.8248 10.0716 16.0151 9.97871 16.1138 9.87871 15.9869 9.81443 15.7755 9.793 15.5429 9.82871 15.3103 9.86443 15.1129 9.95728 15.0142 10.0573zM15.4368 8.37158C15.3522 8.48587 15.3029 8.69301 15.3029 8.93587 15.3029 9.17872 15.3663 9.38587 15.4509 9.50015 15.5355 9.38587 15.5848 9.17872 15.5848 8.93587 15.5778 8.69301 15.5143 8.48587 15.4368 8.37158zM15.4442 9.50014C15.557 9.58586 15.7614 9.63586 16.0011 9.63586 16.2407 9.63586 16.4452 9.57157 16.5579 9.48586 16.4452 9.40014 16.2407 9.35014 16.0011 9.35014 15.7614 9.35729 15.557 9.42157 15.4442 9.50014zM15.7329 9.20731C15.8738 9.22159 16.0783 9.15731 16.2827 9.02873 16.4871 8.90016 16.6351 8.74302 16.6845 8.60731 16.5435 8.59302 16.3391 8.65731 16.1347 8.78588 15.9302 8.91445 15.7822 9.07159 15.7329 9.20731zM18.0451 15.543L18.045 15.3716C19.9341 15.3716 21.4708 13.8145 21.4708 11.9002 21.4708 10.7145 20.8787 9.61445 19.8918 8.97874L19.9835 8.83588C21.0197 9.50731 21.64 10.6573 21.64 11.9073 21.64 13.9145 20.0259 15.543 18.0451 15.543zM20.1033 15.7716C19.9694 15.8002 19.7579 15.7644 19.5394 15.6573 19.3209 15.5573 19.1587 15.4144 19.0953 15.293 19.2292 15.2644 19.4407 15.3002 19.6592 15.4073 19.8707 15.5073 20.0398 15.6502 20.1033 15.7716zM19.0884 15.293C19.0602 15.1573 19.0954 14.943 19.2012 14.7216 19.2999 14.5001 19.4408 14.3359 19.5607 14.2716 19.5889 14.4073 19.5536 14.6216 19.4479 14.843 19.3492 15.0644 19.2153 15.2287 19.0884 15.293zM20.8225 15.3287C20.6885 15.3787 20.4771 15.3716 20.2445 15.3002 20.0118 15.2287 19.8356 15.1144 19.751 15.0002 19.885 14.9502 20.0964 14.9573 20.3291 15.0287 20.5546 15.1002 20.7379 15.2144 20.8225 15.3287zM19.7506 15.0073C19.7013 14.8716 19.7083 14.6573 19.7788 14.4216 19.8493 14.1859 19.9621 14.0073 20.0749 13.9216 20.1242 14.0573 20.1172 14.2716 20.0467 14.5073 19.9762 14.7359 19.8634 14.9216 19.7506 15.0073zM21.485 14.7216C21.3652 14.793 21.1537 14.8287 20.914 14.8002 20.6744 14.7716 20.477 14.693 20.3713 14.6002 20.4911 14.5287 20.7026 14.493 20.9422 14.5216 21.1819 14.5502 21.3793 14.6216 21.485 14.7216zM20.3713 14.6002C20.3008 14.4787 20.2653 14.2644 20.2935 14.0216 20.3217 13.7787 20.3992 13.5787 20.4909 13.4716 20.5614 13.593 20.5966 13.8073 20.5684 14.0502 20.5402 14.293 20.47 14.493 20.3713 14.6002zM22.0275 13.8787C21.9218 13.9716 21.7174 14.043 21.4777 14.0573 21.238 14.0716 21.0266 14.0287 20.9138 13.9573 21.0195 13.8644 21.2239 13.793 21.4636 13.7787 21.7033 13.7644 21.9147 13.8073 22.0275 13.8787zM20.9138 13.9573C20.8222 13.8502 20.752 13.643 20.7379 13.4001 20.7238 13.1573 20.7661 12.943 20.8366 12.8287 20.9282 12.9359 20.9987 13.143 21.0128 13.3859 21.0339 13.6287 20.9913 13.843 20.9138 13.9573zM22.352 12.9573C22.2674 13.0716 22.0841 13.1859 21.8515 13.2501 21.6189 13.3144 21.4074 13.3216 21.2735 13.2716 21.3581 13.1573 21.5413 13.043 21.774 12.9787 22.0066 12.9144 22.218 12.9073 22.352 12.9573zM21.2802 13.2716C21.1674 13.1859 21.0546 13.0002 20.9912 12.7644 20.9278 12.5287 20.9207 12.3144 20.97 12.1787 21.0828 12.2644 21.1956 12.4502 21.259 12.6859 21.3225 12.9216 21.3295 13.1359 21.2802 13.2716zM22.486 11.8787C22.4296 12.0073 22.2816 12.1644 22.0772 12.293 21.8728 12.4216 21.6683 12.4787 21.5274 12.4644 21.5838 12.3359 21.7318 12.1787 21.9362 12.0502 22.1406 11.9216 22.345 11.8644 22.486 11.8787zM21.5274 12.4644C21.4005 12.4073 21.2453 12.2573 21.1184 12.0502 20.9915 11.843 20.9351 11.6359 20.9492 11.493 21.0761 11.5502 21.2312 11.7002 21.358 11.9073 21.4849 12.1144 21.5415 12.3216 21.5274 12.4644zM22.3587 10.8573C22.3305 11.0001 22.2248 11.1787 22.0486 11.3501 21.8723 11.5216 21.682 11.6144 21.5481 11.6359 21.5763 11.493 21.682 11.3144 21.8582 11.143 22.0345 10.9716 22.2177 10.8716 22.3587 10.8573zM21.5415 11.6359C21.4005 11.6073 21.2243 11.5002 21.0551 11.3216 20.893 11.143 20.7943 10.9502 20.7732 10.8144 20.9141 10.843 21.0904 10.9502 21.2595 11.1287 21.4287 11.3002 21.5274 11.493 21.5415 11.6359zM21.8515 9.7573C21.8797 9.89301 21.8444 10.1073 21.7458 10.3287 21.6471 10.5502 21.5061 10.7144 21.3863 10.7859 21.3581 10.6502 21.3933 10.4359 21.492 10.2144 21.5907 9.99301 21.7317 9.82159 21.8515 9.7573zM21.3863 10.7859C21.2523 10.8144 21.0409 10.7787 20.8224 10.6787 20.6039 10.5787 20.4418 10.4359 20.3713 10.3144 20.5052 10.2859 20.7167 10.3216 20.9352 10.4216 21.1537 10.5216 21.3228 10.6644 21.3863 10.7859zM21.2523 8.93586C21.3157 9.06443 21.3369 9.27872 21.3016 9.51443 21.2664 9.75729 21.1748 9.95015 21.0761 10.0501 21.0126 9.92158 20.9915 9.70729 21.0267 9.47158 21.062 9.23586 21.1466 9.03586 21.2523 8.93586zM21.0764 10.0573C20.9495 10.1216 20.7381 10.143 20.5054 10.1073 20.2658 10.0716 20.0755 9.97871 19.9768 9.87871 20.1037 9.81443 20.3151 9.793 20.5477 9.82871 20.7804 9.86443 20.9777 9.95728 21.0764 10.0573zM20.6533 8.37158C20.7378 8.48587 20.7872 8.69301 20.7872 8.93587 20.7872 9.17872 20.7238 9.38587 20.6392 9.50015 20.5546 9.38587 20.5052 9.17872 20.5052 8.93587 20.5123 8.69301 20.5757 8.48587 20.6533 8.37158zM20.6464 9.50014C20.5336 9.58586 20.3292 9.63586 20.0896 9.63586 19.8499 9.63586 19.6455 9.57157 19.5327 9.48586 19.6455 9.40014 19.8499 9.35014 20.0896 9.35014 20.3292 9.35014 20.5336 9.42157 20.6464 9.50014zM20.357 9.20731C20.216 9.22159 20.0116 9.15731 19.8072 9.02873 19.6028 8.90016 19.4547 8.74302 19.4054 8.60731 19.5464 8.59302 19.7508 8.65731 19.9552 8.78588 20.1596 8.91445 20.3077 9.07159 20.357 9.20731z"/><path fill="#B9B9B9" d="M19.4552 10.0786L16.0717 13.5072C15.9872 13.5929 15.9872 13.7358 16.0717 13.8215L16.2268 13.9786L16.8401 13.3572L19.3001 10.55L19.6103 10.2358L19.4552 10.0786Z"/><path fill="#966446" d="M16.9028 12.9715C16.8605 13.0144 16.8394 13.0715 16.8394 13.1287V13.3501L19.2994 10.543L16.9028 12.9715Z"/><path fill="#A0A0A0" d="M19.6097 10.2284L19.4546 10.0784L19.2996 10.2284L19.4546 10.3856L19.6097 10.5427L21.3014 8.51416L19.6097 10.2284Z"/><path fill="#966446" d="M16.0786 14.7357L15.4583 15.3643 15.1482 14.7428 16.0716 13.8071 16.3818 14.1214 16.2901 14.3928C16.2478 14.5214 16.1773 14.6428 16.0786 14.7357zM20.1807 14.7357L20.801 15.3643 21.1112 14.7428 20.1878 13.8071 19.8776 14.1214 19.9693 14.3928C20.0116 14.5214 20.0821 14.6428 20.1807 14.7357z"/><path fill="#B9B9B9" d="M16.8042 10.0786L20.1877 13.5072C20.2723 13.5929 20.2723 13.7358 20.1877 13.8215L20.0326 13.9786L19.4194 13.3572L16.9593 10.55L16.6492 10.2358L16.8042 10.0786Z"/><path fill="#966446" d="M19.3561 12.9715C19.3984 13.0144 19.4195 13.0715 19.4195 13.1287V13.3501L16.9595 10.543L19.3561 12.9715Z"/><path fill="#A0A0A0" d="M16.6566 10.2284L16.8046 10.0784L16.9597 10.2284L16.8046 10.3856L16.6566 10.5427L14.9648 8.51416L16.6566 10.2284Z"/><path fill="#FFE15A" d="M16.4377 15.243C16.3814 15.193 16.3814 15.1073 16.4307 15.0502L16.7549 14.6859C16.8043 14.6287 16.8889 14.6287 16.9453 14.6787C17.0017 14.7287 17.0017 14.8145 16.9523 14.8716L16.6281 15.2359C16.5787 15.293 16.4941 15.293 16.4377 15.243Z"/><path fill="#FFC855" d="M16.7484 14.4927L16.6568 14.5355C16.5793 14.5784 16.3678 14.6927 16.3325 14.8641C16.3184 14.9427 16.3396 15.0212 16.403 15.0998C16.4101 15.0855 16.4171 15.0712 16.4312 15.057L16.4735 15.0141C16.4453 14.9712 16.4312 14.9355 16.4383 14.8927C16.4594 14.7855 16.6004 14.6927 16.685 14.6427L17.0797 15.007L17.1784 14.8998L16.7484 14.4927Z"/><path fill="#B9B9B9" d="M16.8675 14.6074L17.0226 14.7502C17.5795 14.1288 18.5522 13.0502 20.103 11.6431 20.103 11.6431 18.8201 12.4431 16.8675 14.6074zM19.3917 14.7788L19.2366 14.9216C18.6797 14.3002 17.707 13.2216 16.1562 11.8145 16.1633 11.8145 17.4391 12.6145 19.3917 14.7788z"/><path fill="#FFE15A" d="M19.8212 15.4144C19.8776 15.3644 19.8776 15.2787 19.8283 15.2216L19.504 14.8573C19.4547 14.8001 19.3701 14.8001 19.3137 14.8501C19.2573 14.9001 19.2573 14.9858 19.3067 15.043L19.6309 15.4073C19.6803 15.4644 19.7649 15.4644 19.8212 15.4144Z"/><path fill="#FFC855" d="M19.5179 14.6641L19.6095 14.7069C19.687 14.7498 19.8985 14.8641 19.9338 15.0355C19.9479 15.1141 19.9267 15.1926 19.8633 15.2712C19.8562 15.2569 19.8492 15.2426 19.8351 15.2283L19.7928 15.1855C19.821 15.1426 19.8351 15.1069 19.828 15.0641C19.8069 14.9569 19.6659 14.8641 19.5813 14.8141L19.1866 15.1783L19.0879 15.0712L19.5179 14.6641Z"/><path fill="#69B469" d="M18.2 9.05001C18.2141 9.02144 18.2211 8.98573 18.2211 8.95001C18.2211 8.80716 18.1084 8.69287 17.9674 8.69287C17.8264 8.69287 17.7136 8.80716 17.7136 8.95001C17.7136 9.03573 17.7559 9.1143 17.8194 9.15716C17.7277 9.9143 18.4608 9.97144 18.7428 10.0786C19.1657 10.2357 19.7014 10.5643 19.6662 11.4714C19.6309 12.35 19.0811 13.2072 19.0811 13.2072L19.5393 12.5786C19.3701 13.2929 18.9824 14.2072 18.052 15.2929C18.052 15.2929 18.6864 14.6643 19.215 13.8572C18.8273 14.7857 18.3974 15.6429 18.3974 15.6429C18.3974 15.6429 19.1586 14.6357 19.7789 12.9C20.5191 10.7786 18.9401 9.5143 18.2 9.05001Z"/><path fill="#F4E08F" d="M16.847 12.164H17.531000000000002V12.514H16.847z"/><path fill="#ECD077" d="M16.8466 12.857C17.0374 12.857 17.192 12.7003 17.192 12.507 17.192 12.3137 17.0374 12.157 16.8466 12.157 16.6559 12.157 16.5012 12.3137 16.5012 12.507 16.5012 12.7003 16.6559 12.857 16.8466 12.857zM16.8466 10.5999C17.0374 10.5999 17.192 10.4432 17.192 10.2499 17.192 10.0566 17.0374 9.8999 16.8466 9.8999 16.6559 9.8999 16.5012 10.0566 16.5012 10.2499 16.5012 10.4432 16.6559 10.5999 16.8466 10.5999z"/><path fill="#FCF0A8" d="M18.8978 10.5999C19.0882 10.5999 19.2432 10.4428 19.2432 10.2499C19.2432 10.057 19.0882 9.8999 18.8978 9.8999H16.8466C17.0369 9.8999 17.192 10.057 17.192 10.2499C17.192 10.4428 17.0369 10.5999 16.8466 10.5999C16.6563 10.5999 16.5012 10.4428 16.5012 10.2499C16.5012 10.8356 16.9805 11.5356 17.1356 12.157C17.1356 12.157 17.185 12.3142 17.185 12.507C17.185 12.6999 17.0299 12.857 16.8396 12.857H18.8978C19.0882 12.857 19.2432 12.6999 19.2432 12.507C19.2432 11.9213 18.7639 11.2213 18.6088 10.5999H18.8978Z"/><path fill="#F4E08F" d="M17.1923 10.25C17.1923 10.4429 17.0372 10.6 16.8469 10.6H18.9052C19.0955 10.6 19.2506 10.4429 19.2506 10.25H17.1923zM17.1923 12.5071C17.1923 12.7 17.0372 12.8571 16.8469 12.8571H18.9052C19.0955 12.8571 19.2506 12.7 19.2506 12.5071H17.1923z"/></svg>