<svg xmlns="http://www.w3.org/2000/svg" fill="none" viewBox="0 0 37 24"><path fill="#F5F5F5" d="M36.0902 8.0072H0V0.650056C0 0.300056 0.281955 0.0214844 0.620301 0.0214844H35.4629C35.8083 0.0214844 36.0832 0.307199 36.0832 0.650056L36.0902 8.0072Z"/><path fill="#41479B" d="M0 8.00721H36.0902V15.9929H0V8.00721zM12.1241 4.95721C12.1241 4.95721 11.9972 9.00007 11.4404 10.1358 10.7496 11.5286 10.0517 11.9358 9.01554 12.3144 7.97936 11.9358 7.28152 11.5286 6.59073 10.1358 6.03387 9.00007 5.90699 4.95721 5.90699 4.95721 7.88067 4.05007 10.1434 4.05007 12.1241 4.95721z"/><path fill="#FF4B55" d="M35.4699 23.9784H0.620301C0.274906 23.9784 0 23.6927 0 23.3498V15.9927H36.0902V23.3498C36.0902 23.6998 35.8083 23.9784 35.4699 23.9784Z"/><path fill="#FF1722" d="M11.7643 4.7998C11.7643 4.91409 11.7714 5.02123 11.7714 5.14266C11.722 6.40695 11.5388 9.16409 11.1299 9.99266C10.5308 11.207 9.98096 11.607 9.00821 11.9784C8.03547 11.607 7.48566 11.207 6.89355 9.99266C6.48471 9.15695 6.30144 6.35695 6.2521 5.14266C6.2521 5.02123 6.2521 4.90695 6.25915 4.7998C6.13932 4.8498 6.01949 4.8998 5.89966 4.9498C5.90671 5.19266 5.97015 6.80695 6.14637 8.22123C6.24505 9.01409 6.38603 9.74266 6.5834 10.1284C7.27419 11.5284 7.97203 11.9284 9.00821 12.307C10.0444 11.9284 10.7422 11.5212 11.433 10.1284C11.6233 9.74266 11.7643 9.01409 11.8701 8.22123C12.0533 6.80695 12.1097 5.19266 12.1168 4.9498C12.004 4.8998 11.8842 4.8498 11.7643 4.7998Z"/><path fill="#FFE15A" d="M7.97922 5.48549C8.13494 5.48549 8.26117 5.35757 8.26117 5.19978 8.26117 5.04198 8.13494 4.91406 7.97922 4.91406 7.8235 4.91406 7.69727 5.04198 7.69727 5.19978 7.69727 5.35757 7.8235 5.48549 7.97922 5.48549zM10.0237 5.48549C10.1794 5.48549 10.3056 5.35757 10.3056 5.19978 10.3056 5.04198 10.1794 4.91406 10.0237 4.91406 9.86794 4.91406 9.7417 5.04198 9.7417 5.19978 9.7417 5.35757 9.86794 5.48549 10.0237 5.48549zM9.00144 6.50014C9.15716 6.50014 9.28339 6.37222 9.28339 6.21443 9.28339 6.05663 9.15716 5.92871 9.00144 5.92871 8.84572 5.92871 8.71948 6.05663 8.71948 6.21443 8.71948 6.37222 8.84572 6.50014 9.00144 6.50014z"/><path fill="#F5F5F5" d="M10.9753 9.3429L10.0448 7.77861L9.69945 8.47861L9.00866 7.07861L8.31787 8.47861L7.97247 7.77861L7.04907 9.35004C7.08432 9.48576 7.11956 9.60004 7.15481 9.70004C7.15481 9.70004 7.22529 9.85004 7.31693 10.0358C7.32398 10.0429 7.32398 10.05 7.33103 10.0572C7.45086 10.2858 7.60593 10.5572 7.73986 10.6858C8.1205 11.15 8.51524 11.3715 9.00866 11.5643C9.50208 11.3715 9.89682 11.15 10.2775 10.6858C10.3338 10.6143 10.4184 10.5072 10.503 10.3786C10.5171 10.35 10.5383 10.3215 10.5594 10.2929C10.6863 10.0929 10.8132 9.86433 10.8696 9.6929C10.9048 9.5929 10.9471 9.47861 10.9753 9.3429Z"/></svg>