<svg xmlns="http://www.w3.org/2000/svg" fill="none" viewBox="0 0 37 24"><path fill="#41479B" d="M.620301 23.9786H35.4699C35.8083 23.9786 36.0902 23.7001 36.0832 23.3501V19.5715H0V23.3501C0 23.6929.274906 23.9786.620301 23.9786zM0 4.43579V.650056C0 .300056.281955.0214844.620301.0214844H35.4629C35.8083.0214844 36.0832.307199 36.0832.650056V4.43579H0z"/><path fill="#F5F5F5" d="M0 4.436H36.09V19.572H0z"/><path fill="#41479B" fill-rule="evenodd" d="M22.895 9.16433L21.2809 12L22.895 14.8358H19.6596L18.0454 17.6715L16.4312 14.8358H13.1958L14.81 12L13.1958 9.16433H16.4312L18.0454 6.32861L19.6596 9.16433H22.895ZM20.7521 11.0715L21.309 10.0929H20.1952L20.7521 11.0715ZM20.2239 12.0001L19.1384 13.9072H16.9603L15.8677 12.0001L16.9532 10.0929H19.1313L20.2239 12.0001ZM18.6019 9.15718L18.0451 8.17861L17.4812 9.15718H18.6019ZM14.7819 10.0929H15.9027L15.3458 11.0715L14.7819 10.0929ZM15.3388 12.9286L14.7819 13.9072H15.8956L15.3388 12.9286ZM18.0454 15.8215L17.4886 14.8429H18.6093L18.0454 15.8215ZM21.3093 13.9072L20.7525 12.9286L20.1886 13.9072H21.3093Z" clip-rule="evenodd"/></svg>