<svg xmlns="http://www.w3.org/2000/svg" viewBox="0 0 24 24"><g clip-path="url(#clip0_971_4928)"><path fill="currentColor" d="M14.6443 0.112027C14.9402 0.294894 15.0715 0.657203 14.9615 0.987186L12.2906 9.00002H23.25C23.5534 9.00002 23.8268 9.18275 23.9429 9.463C24.059 9.74326 23.9949 10.0658 23.7804 10.2803L10.2804 23.7803C10.0498 24.0109 9.69674 24.0661 9.40684 23.9169C9.11694 23.7677 8.95663 23.4483 9.01023 23.1267L10.3647 15H0.750022C0.446675 15 0.173198 14.8173 0.0571123 14.537C-0.0589735 14.2568 0.00519334 13.9342 0.219692 13.7197L13.7197 0.219685C13.9656 -0.0262698 14.3484 -0.0708394 14.6443 0.112027Z"/></g></svg>