<svg xmlns="http://www.w3.org/2000/svg" viewBox="0 0 24 24"><path fill="currentColor" d="M13.5 21.5V2.5C13.5 1.67157 12.8284 1 12 1 11.1716 1 10.5 1.67157 10.5 2.5V21.5C10.5 22.3284 11.1716 23 12 23 12.8284 23 13.5 22.3284 13.5 21.5zM1.0621 17.792C.876759 18.1127 1.12858 18.5 1.52241 18.5H8.47831C8.76643 18.5 9 18.2844 9 18.0185V5.98222C9 5.48101 8.27357 5.31341 8.01799 5.75565L1.0621 17.792zM22.4776 18.5C22.8714 18.5 23.1232 18.1127 22.9379 17.792L15.982 5.75565C15.7264 5.31341 15 5.48101 15 5.98222V18.0185C15 18.2844 15.2336 18.5 15.5217 18.5H22.4776z"/></svg>