<svg xmlns="http://www.w3.org/2000/svg" viewBox="0 0 24 24"><g fill="currentColor" fill-rule="evenodd" clip-path="url(#clip0_988_98)" clip-rule="evenodd"><path d="M9.00391 7.00368C9.00391 8.10825 8.10848 9.00368 7.00391 9.00368H.75C.335786 9.00368 0 8.6679 0 8.25368 0 7.83947.335786 7.50368.75 7.50368H6.50391C7.05619 7.50368 7.50391 7.05597 7.50391 6.50368V.76123C7.50391.347017 7.83969.0112305 8.25391.0112305 8.66812.0112305 9.00391.347017 9.00391.76123V7.00368zM15 7.00368C15 8.10825 15.8954 9.00368 17 9.00368H23.2539C23.6681 9.00368 24.0039 8.6679 24.0039 8.25368 24.0039 7.83947 23.6681 7.50368 23.2539 7.50368H17.5C16.9477 7.50368 16.5 7.05597 16.5 6.50368V.757812C16.5.343599 16.1642.0078125 15.75.0078125 15.3358.0078125 15 .343599 15 .757812V7.00368zM9.00391 16.9998C9.00391 15.8952 8.10848 14.9998 7.00391 14.9998H.75C.335786 14.9998 0 15.3356 0 15.7498 0 16.164.335786 16.4998.75 16.4998H6.50391C7.05619 16.4998 7.50391 16.9475 7.50391 17.4998V23.2537C7.50391 23.6679 7.83969 24.0037 8.25391 24.0037 8.66812 24.0037 9.00391 23.6679 9.00391 23.2537V16.9998zM15 16.9998C15 15.8952 15.8954 14.9998 17 14.9998H23.2539C23.6681 14.9998 24.0039 15.3356 24.0039 15.7498 24.0039 16.164 23.6681 16.4998 23.2539 16.4998H17.5C16.9477 16.4998 16.5 16.9475 16.5 17.4998V23.2537C16.5 23.6679 16.1642 24.0037 15.75 24.0037 15.3358 24.0037 15 23.6679 15 23.2537V16.9998z"/></g></svg>