<svg xmlns="http://www.w3.org/2000/svg" viewBox="0 0 24 24"><path fill="currentColor" fill-rule="evenodd" d="M20 7.5C20.5523 7.5 21 7.05228 21 6.5 21 5.94772 20.5523 5.5 20 5.5 19.4477 5.5 19 5.94772 19 6.5 19 7.05228 19.4477 7.5 20 7.5zM20 9C21.3807 9 22.5 7.88071 22.5 6.5 22.5 5.11929 21.3807 4 20 4 18.6193 4 17.5 5.11929 17.5 6.5 17.5 7.88071 18.6193 9 20 9zM4 7.5C4.55228 7.5 5 7.05228 5 6.5 5 5.94772 4.55228 5.5 4 5.5 3.44772 5.5 3 5.94772 3 6.5 3 7.05228 3.44772 7.5 4 7.5zM4 9C5.38071 9 6.5 7.88071 6.5 6.5 6.5 5.11929 5.38071 4 4 4 2.61929 4 1.5 5.11929 1.5 6.5 1.5 7.88071 2.61929 9 4 9zM12 4.5C12.5523 4.5 13 4.05228 13 3.5 13 2.94772 12.5523 2.5 12 2.5 11.4477 2.5 11 2.94772 11 3.5 11 4.05228 11.4477 4.5 12 4.5zM12 6C13.3807 6 14.5 4.88071 14.5 3.5 14.5 2.11929 13.3807 1 12 1 10.6193 1 9.5 2.11929 9.5 3.5 9.5 4.88071 10.6193 6 12 6zM12 14C13.3807 14 14.5 12.8807 14.5 11.5 14.5 10.1193 13.3807 9 12 9 10.6193 9 9.5 10.1193 9.5 11.5 9.5 12.8807 10.6193 14 12 14zM12 15.5C14.2091 15.5 16 13.7091 16 11.5 16 9.29086 14.2091 7.5 12 7.5 9.79086 7.5 8 9.29086 8 11.5 8 13.7091 9.79086 15.5 12 15.5zM18.9044 22.0058C19.0098 22.548 18.5523 23 18 23H6C5.44772 23 4.99018 22.548 5.09565 22.0058 5.64826 19.1653 8.52913 17 12 17 15.4709 17 18.3517 19.1653 18.9044 22.0058zM7.04874 21.5H16.9513C16.2306 19.7522 14.2859 18.5 12 18.5 9.71412 18.5 7.76945 19.7522 7.04874 21.5z" clip-rule="evenodd"/></svg>