<svg xmlns="http://www.w3.org/2000/svg" viewBox="0 0 24 24"><path fill="currentColor" fill-rule="evenodd" d="M17 7C18.6569 7 20 5.65685 20 4 20 2.34315 18.6569 1 17 1 15.3431 1 14 2.34315 14 4 14 5.65685 15.3431 7 17 7zM17 5.5C17.8284 5.5 18.5 4.82843 18.5 4 18.5 3.17157 17.8284 2.5 17 2.5 16.1716 2.5 15.5 3.17157 15.5 4 15.5 4.82843 16.1716 5.5 17 5.5zM22.9882 13.5042C23.0803 14.0489 22.6184 14.5 22.0596 14.5H11.9404C11.3816 14.5 10.9197 14.0489 11.0118 13.5042 11.4918 10.6644 13.9901 8.5 17 8.5 20.0099 8.5 22.5082 10.6644 22.9882 13.5042zM21.2945 13C20.6694 11.2522 18.9827 10 17 10 15.0173 10 13.3306 11.2522 12.7055 13H21.2945zM7 15.5C8.65685 15.5 10 14.1569 10 12.5 10 10.8431 8.65685 9.5 7 9.5 5.34315 9.5 4 10.8431 4 12.5 4 14.1569 5.34315 15.5 7 15.5zM7 14C7.82843 14 8.5 13.3284 8.5 12.5 8.5 11.6716 7.82843 11 7 11 6.17157 11 5.5 11.6716 5.5 12.5 5.5 13.3284 6.17157 14 7 14zM12.9882 22.0042C13.0803 22.5489 12.6184 23 12.0596 23H1.94043C1.38157 23 .919679 22.5489 1.01176 22.0042 1.49176 19.1644 3.9901 17 7 17 10.0099 17 12.5082 19.1644 12.9882 22.0042zM11.2945 21.5C10.6694 19.7522 8.98267 18.5 7 18.5 5.01733 18.5 3.33061 19.7522 2.7055 21.5H11.2945z" clip-rule="evenodd"/></svg>