<svg xmlns="http://www.w3.org/2000/svg" viewBox="0 0 24 24"><path fill="currentColor" d="M20 4C20 5.65685 18.6569 7 17 7 15.3431 7 14 5.65685 14 4 14 2.34315 15.3431 1 17 1 18.6569 1 20 2.34315 20 4zM22.9882 13.0042C23.0803 13.5489 22.6184 14 22.0596 14H11.9404C11.3816 14 10.9197 13.5489 11.0118 13.0042 11.4918 10.1644 13.9901 8 17 8 20.0099 8 22.5082 10.1644 22.9882 13.0042zM10 13C10 14.6569 8.65685 16 7 16 5.34315 16 4 14.6569 4 13 4 11.3431 5.34315 10 7 10 8.65685 10 10 11.3431 10 13zM12.9882 22.0042C13.0803 22.5489 12.6184 23 12.0596 23H1.94043C1.38157 23 .919679 22.5489 1.01176 22.0042 1.49176 19.1644 3.9901 17 7 17 10.0099 17 12.5082 19.1644 12.9882 22.0042z"/></svg>