<svg xmlns="http://www.w3.org/2000/svg" viewBox="0 0 24 24"><path fill="currentColor" fill-rule="evenodd" d="M2.01911 3.48222C4.71126 0.839259 9.07635 0.839259 11.7685 3.48222C11.8481 3.56036 11.9252 3.64001 12 3.72103C12.0747 3.64011 12.1518 3.56047 12.2315 3.48222C14.9237 0.839259 19.2887 0.839259 21.9809 3.48222C24.673 6.12519 24.673 10.4105 21.9809 13.0535L12.6129 22.2504C12.2738 22.5832 11.7241 22.5832 11.3851 22.2503L2.01911 13.0535C2.01909 13.0535 2.01907 13.0534 2.01905 13.0534C-0.673037 10.4105 -0.673018 6.12517 2.01911 3.48222ZM10.6852 4.54573C8.59134 2.49012 5.19627 2.49012 3.10241 4.54573C1.00855 6.60133 1.00855 9.93438 3.10241 11.99L3.10247 11.99L11.999 20.726L20.8976 11.99C22.9915 9.93438 22.9915 6.60133 20.8976 4.54573C18.8037 2.49012 15.4087 2.49012 13.3148 4.54573C13.0902 4.76624 12.8909 5.00184 12.7144 5.24957C12.3676 5.73642 11.6325 5.73637 11.2857 5.24965C11.109 5.00169 10.909 4.7654 10.6852 4.54573Z" clip-rule="evenodd"/></svg>