<svg xmlns="http://www.w3.org/2000/svg" viewBox="0 0 24 24"><path fill="currentColor" d="M13 2.25C7.61583 2.25 3.25 6.61583 3.25 12H0L4.21417 16.2142L4.29 16.3658L8.66667 12H5.41667C5.41667 7.8075 8.8075 4.41667 13 4.41667C17.1925 4.41667 20.5833 7.8075 20.5833 12C20.5833 16.1925 17.1925 19.5833 13 19.5833C10.9092 19.5833 9.01333 18.7275 7.64833 17.3517L6.11 18.89C7.87583 20.6558 10.3025 21.75 13 21.75C18.3842 21.75 22.75 17.3842 22.75 12C22.75 6.61583 18.3842 2.25 13 2.25ZM11.9167 7.66667V13.0833L16.5533 15.835L17.3333 14.5242L13.5417 12.2708V7.66667H11.9167Z"/></svg>