<svg xmlns="http://www.w3.org/2000/svg" viewBox="0 0 24 24"><g fill="currentColor" clip-path="url(#clip0_970_5487)"><path d="M24 1.25C24 .973858 23.7761.75 23.5.75H.5C.223857.75 0 .973858 0 1.25V4.75C0 5.02614.223858 5.25.5 5.25H23.5C23.7761 5.25 24 5.02614 24 4.75V1.25zM24 10.25C24 9.97386 23.7761 9.75 23.5 9.75H.5C.223857 9.75 0 9.97386 0 10.25V13.75C0 14.0261.223858 14.25.5 14.25H23.5C23.7761 14.25 24 14.0261 24 13.75V10.25zM0 19.25C0 18.9739.223858 18.75.5 18.75H23.5C23.7761 18.75 24 18.9739 24 19.25V22.75C24 23.0261 23.7761 23.25 23.5 23.25H.5C.223857 23.25 0 23.0261 0 22.75V19.25z"/></g></svg>