<svg xmlns="http://www.w3.org/2000/svg" viewBox="0 0 24 24"><path fill="currentColor" fill-rule="evenodd" d="M0 3.5C0 2.67157.671573 2 1.5 2H22.5C23.3284 2 24 2.67157 24 3.5 24 4.32843 23.3284 5 22.5 5H1.5C.671573 5 0 4.32843 0 3.5zM0 20.5C0 19.6716.671573 19 1.5 19H22.5C23.3284 19 24 19.6716 24 20.5 24 21.3284 23.3284 22 22.5 22H1.5C.671573 22 0 21.3284 0 20.5zM0 12C0 11.1716.671573 10.5 1.5 10.5H22.5C23.3284 10.5 24 11.1716 24 12 24 12.8284 23.3284 13.5 22.5 13.5H1.5C.671573 13.5 0 12.8284 0 12z" clip-rule="evenodd"/></svg>