<svg xmlns="http://www.w3.org/2000/svg" viewBox="0 0 24 24"><path fill="currentColor" d="M22.7491 1.25105C23.0839 1.58579 23.0839 2.1285 22.7491 2.46323L16.6409 8.5715H21.4288C21.9022 8.5715 22.2859 8.95525 22.2859 9.42864 22.2859 9.90203 21.9022 10.2858 21.4288 10.2858H14.5716C14.4274 10.2858 14.2915 10.2502 14.1722 10.1872L14.1544 10.1776C14.1252 10.1613 14.0967 10.1431 14.0692 10.1232 14.0619 10.1179 14.0547 10.1125 14.0476 10.107 13.9935 10.0651 13.9446 10.017 13.9019 9.96361 13.859 9.91008 13.8235 9.85261 13.7953 9.79254 13.7438 9.6828 13.7149 9.56035 13.7145 9.43118L13.7145 9.42864V2.5715C13.7145 2.09811 14.0982 1.71436 14.5716 1.71436 15.045 1.71436 15.4288 2.09811 15.4288 2.5715V7.35924L21.537 1.25105C21.8717.916316 22.4144.916316 22.7491 1.25105zM8.57162 16.6406V21.4286C8.57162 21.902 8.95538 22.2858 9.42876 22.2858 9.90215 22.2858 10.2859 21.902 10.2859 21.4286V14.5715C10.2859 14.0989 9.90349 13.7157 9.43124 13.7144L9.42876 13.7144H2.57162C2.09823 13.7144 1.71448 14.0981 1.71448 14.5715 1.71448 15.0449 2.09823 15.4286 2.57162 15.4286H7.35924L1.25105 21.5368C.916316 21.8716.916316 22.4143 1.25105 22.749 1.58579 23.0838 2.1285 23.0838 2.46323 22.749L8.57162 16.6406zM7.46323 6.25105C7.1285 5.91632 6.58579 5.91632 6.25105 6.25105 5.91632 6.58579 5.91632 7.1285 6.25105 7.46323L16.5368 17.749C16.8715 18.0837 17.4142 18.0837 17.749 17.749 18.0837 17.4142 18.0837 16.8715 17.749 16.5368L7.46323 6.25105z"/></svg>