<svg xmlns="http://www.w3.org/2000/svg" viewBox="0 0 24 24"><g fill="currentColor" clip-path="url(#clip0_969_6496)"><path d="M12 0C13.5458 0 14.9656.531381 16.0813 1.41872L5.84305 11.657C5.62063 11.0114 5.5 10.3195 5.5 9.6V6.4C5.5 2.8656 8.41037 0 12 0zM3 10.3333C3 11.5274 3.2943 12.6604 3.82195 13.6781L1.69618 15.8038C.619083 14.2043 7.45058e-9 12.3331 7.45058e-9 10.3333 7.45058e-9 9.59695.671573 9 1.5 9 2.32843 9 3 9.59695 3 10.3333zM.43934 23.5606C-.146447 22.9749-.146446 22.0251.43934 21.4393L21.4393.43934C22.0251-.146446 22.9748-.146447 23.5606.439339 24.1464 1.02513 24.1464 1.97487 23.5606 2.56066L18.5 7.62126V9.6C18.5 13.1344 15.5897 16 12 16 11.424 16 10.8654 15.9262 10.3336 15.7877L8.43871 17.6826C9.53092 18.1013 10.735 18.3333 12 18.3333 16.9706 18.3333 21 14.7516 21 10.3333 21 9.59695 21.6716 9 22.5 9 23.3285 9 24 9.59695 24 10.3333 24 15.7728 19.4195 20.2613 13.5 20.9175V24H10.5V20.9175C9.02211 20.7537 7.62766 20.351 6.36711 19.7542L2.56066 23.5606C1.97488 24.1464 1.02513 24.1464.43934 23.5606z"/></g></svg>