<svg xmlns="http://www.w3.org/2000/svg" viewBox="0 0 24 24"><path fill="currentColor" fill-rule="evenodd" d="M16.9835 20.334C14.6198 22.5488 11.2481 23.826 7.13565 23.9998L7.04712 22.6816C10.8293 22.5119 13.8246 21.3996 15.9303 19.4567C18.1354 17.4221 18.8453 14.4095 18.9695 10.9051C18.0832 13.6263 14.5771 14.9902 11.409 14.9902C9.03487 14.9902 7.19343 14.2003 5.94537 12.9185C4.69489 11.6343 3.99996 9.81483 3.99996 7.68456C3.99996 5.29133 4.88251 3.38204 6.3169 2.06768C7.75609 0.748927 9.78353 0 12.1151 0C14.5921 0 16.7591 0.836556 18.3102 2.51639C19.864 4.19923 20.1407 6.83498 20.1407 10.4227C20.1407 14.7434 19.4317 18.04 16.9835 20.334ZM12.0462 1.26411C10.208 1.26411 8.55672 1.82448 7.35923 2.91548C6.15576 4.01192 5.45352 5.60588 5.45352 7.58123C5.45352 9.42413 6.06565 10.9973 7.20204 12.1099C8.33762 13.2217 9.95155 13.8295 11.874 13.8295C13.7269 13.8295 15.48 13.2667 16.7795 12.1939C18.088 11.1137 18.9144 9.53225 18.9144 7.56401C18.9144 3.79748 15.9377 1.26411 12.0462 1.26411Z" clip-rule="evenodd"/></svg>