<svg xmlns="http://www.w3.org/2000/svg" viewBox="0 0 24 24"><g fill="currentColor" clip-path="url(#clip0_959_18110)"><path d="M2.61446.448571C2.01637-.149524 1.04667-.149524.448571.448571-.149524 1.04667-.149524 2.01637.448571 2.61446L21.3855 23.5514C21.9836 24.1495 22.9533 24.1495 23.5514 23.5514 24.1495 22.9533 24.1495 21.9836 23.5514 21.3855L21.0409 18.875H21.625C22.45 18.875 23 18.325 23 17.5 23 16.675 22.45 16.125 21.625 16.125H20.9375C19.975 15.1625 18.875 13.7875 18.875 12V7.875C18.875 4.025 15.85 1 12 1 9.56442 1 7.45901 2.21062 6.24076 4.07487L2.61446.448571zM14.0841 20.25L14.6837 20.8496C14.4082 22.0763 13.3067 23 12 23 10.4875 23 9.25 21.7625 9.25 20.25H14.0841zM5.125 11.2909L12.7091 18.875H2.375C1.55 18.875 1 18.325 1 17.5 1 16.675 1.55 16.125 2.375 16.125H3.0625C4.025 15.1625 5.125 13.7875 5.125 12V11.2909z"/></g></svg>