<svg xmlns="http://www.w3.org/2000/svg" viewBox="0 0 24 24"><path fill="currentColor" fill-rule="evenodd" d="M7.42857 1H2.57143C1.62857 1 1 1.62857 1 2.57143V21.4286C1 22.3714 1.62857 23 2.57143 23H7.42857C8.37143 23 9 22.3714 9 21.4286V2.57143C9 1.62857 8.37143 1 7.42857 1zM2.57143 2.57143H7.42857V21.4286H2.57143V2.57143zM21.4286 1L16.5714 1C15.6286 1 15 1.62857 15 2.57143V21.4286C15 22.3714 15.6286 23 16.5714 23L21.4286 23C22.3714 23 23 22.3714 23 21.4286V2.57143C23 1.62857 22.3714 1 21.4286 1zM16.5714 2.57143H21.4286V21.4286L16.5714 21.4286V2.57143z" clip-rule="evenodd"/></svg>