<svg xmlns="http://www.w3.org/2000/svg" viewBox="0 0 24 24"><g fill="currentColor" fill-rule="evenodd" clip-path="url(#clip0_9432_48879)" clip-rule="evenodd"><path d="M6 7.8C6 7.2201 6.4701 6.75 7.05 6.75H9.45C10.0299 6.75 10.5 7.2201 10.5 7.8V16.2C10.5 16.7799 10.0299 17.25 9.45 17.25H7.05C6.4701 17.25 6 16.7799 6 16.2V7.8zM7.5 15.75H9V8.25H7.5V15.75zM14.55 6.75C13.9701 6.75 13.5 7.2201 13.5 7.8V16.2C13.5 16.7799 13.9701 17.25 14.55 17.25H16.95C17.5299 17.25 18 16.7799 18 16.2V7.8C18 7.2201 17.5299 6.75 16.95 6.75H14.55zM16.5 15.75H15V8.25H16.5V15.75zM0 12C0 5.37258 5.37258 0 12 0 18.6274 0 24 5.37258 24 12 24 18.6274 18.6274 24 12 24 5.37258 24 0 18.6274 0 12zM12 1.5C6.20101 1.5 1.5 6.20101 1.5 12 1.5 17.799 6.20101 22.5 12 22.5 17.799 22.5 22.5 17.799 22.5 12 22.5 6.20101 17.799 1.5 12 1.5z"/></g></svg>