<svg xmlns="http://www.w3.org/2000/svg" viewBox="0 0 24 24"><path fill="currentColor" d="M12.5 21.25C12.5 22.0784 11.8284 22.75 11 22.75 10.1716 22.75 9.5 22.0784 9.5 21.25 9.5 20.4216 10.1716 19.75 11 19.75 11.8284 19.75 12.5 20.4216 12.5 21.25zM23 21.25C23 21.6642 22.6642 22 22.25 22 21.8358 22 21.5 21.6642 21.5 21.25 21.5 20.8358 21.8358 20.5 22.25 20.5 22.6642 20.5 23 20.8358 23 21.25zM20 21.25C20 21.8023 19.5523 22.25 19 22.25 18.4477 22.25 18 21.8023 18 21.25 18 20.6977 18.4477 20.25 19 20.25 19.5523 20.25 20 20.6977 20 21.25zM16.5 21.25C16.5 21.9404 15.9404 22.5 15.25 22.5 14.5596 22.5 14 21.9404 14 21.25 14 20.5596 14.5596 20 15.25 20 15.9404 20 16.5 20.5596 16.5 21.25zM23 17.25C23 17.6642 22.6642 18 22.25 18 21.8358 18 21.5 17.6642 21.5 17.25 21.5 16.8358 21.8358 16.5 22.25 16.5 22.6642 16.5 23 16.8358 23 17.25zM20 17.25C20 17.8023 19.5523 18.25 19 18.25 18.4477 18.25 18 17.8023 18 17.25 18 16.6977 18.4477 16.25 19 16.25 19.5523 16.25 20 16.6977 20 17.25zM16.5 17.25C16.5 17.9404 15.9404 18.5 15.25 18.5 14.5596 18.5 14 17.9404 14 17.25 14 16.5596 14.5596 16 15.25 16 15.9404 16 16.5 16.5596 16.5 17.25zM23 13.25C23 13.6642 22.6642 14 22.25 14 21.8358 14 21.5 13.6642 21.5 13.25 21.5 12.8358 21.8358 12.5 22.25 12.5 22.6642 12.5 23 12.8358 23 13.25zM20 13.25C20 13.8023 19.5523 14.25 19 14.25 18.4477 14.25 18 13.8023 18 13.25 18 12.6977 18.4477 12.25 19 12.25 19.5523 12.25 20 12.6977 20 13.25zM17.8536 3.85355C17.6583 3.65829 17.6583 3.34171 17.8536 3.14645L19.379 1.621C20.207.793 21.551.793 22.379 1.621 23.203 2.445 23.21 3.79 22.379 4.621L20.8536 6.14645C20.6583 6.34171 20.3417 6.34171 20.1464 6.14645L17.8536 3.85355z"/><path fill="currentColor" fill-rule="evenodd" d="M15.6627 4.21967C15.3698 3.92678 14.8949 3.92678 14.602 4.21967L2.24909 16.5726C2.14439 16.6773 2.07303 16.8107 2.04399 16.9559L1.01458 22.1029C0.965398 22.3488 1.04236 22.603 1.21968 22.7803C1.397 22.9576 1.6512 23.0346 1.8971 22.9854L4.91528 22.3818C5.23628 22.76 5.71515 23 6.25006 23C7.21656 23 8.00006 22.2165 8.00006 21.25C8.00006 21.2264 7.9996 21.203 7.99867 21.1797L14.7729 14.4055C14.9199 14.4662 15.081 14.4998 15.25 14.4998C15.9404 14.4998 16.5 13.9401 16.5 13.2498C16.5 13.0808 16.4665 12.9196 16.4057 12.7726L19.7803 9.39798C20.0732 9.10508 20.0732 8.63021 19.7803 8.33732L15.6627 4.21967ZM2.70608 21.2939L3.47032 17.4727L15.1324 5.81066L18.1894 8.86765L6.52731 20.5297L2.70608 21.2939Z" clip-rule="evenodd"/><path fill="currentColor" d="M10.5103 18.6683C10.6638 18.7213 10.8286 18.7501 11.0001 18.7501C11.8285 18.7501 12.5001 18.0785 12.5001 17.2501C12.5001 17.0786 12.4713 16.9138 12.4183 16.7603L10.5103 18.6683Z"/></svg>