<svg xmlns="http://www.w3.org/2000/svg" viewBox="0 0 24 24"><path fill="currentColor" fill-rule="evenodd" d="M16.1523 0C15.8721 0 15.6179 0.0802257 15.4006 0.245101C15.1756 0.415819 15.0376 0.654718 14.98 0.942559L14.4747 3.6102H13.6803C13.3484 3.6102 13.0536 3.66612 12.8471 3.82532C12.6472 3.97936 12.5288 4.2047 12.4729 4.47031L12.2498 5.6797H14.1526L13.789 7.64723H12.0955L11.9463 8.55353L11.9457 8.55739C11.8969 8.88696 11.9058 9.1985 12.0593 9.41433C12.2156 9.63422 12.4658 9.71672 12.7378 9.71672H13.4675L12.7917 13.3447H14.0627C14.3404 13.3447 14.5974 13.2691 14.8275 13.1181C15.0879 12.9472 15.2337 12.6745 15.2894 12.3434L15.7767 9.71672H17.0945L16.6345 12.1438C16.5984 12.2987 16.5952 12.4532 16.6317 12.6031C16.6649 12.7397 16.7199 12.8652 16.7991 12.976C16.8799 13.0892 16.9824 13.1796 17.1049 13.2449C17.229 13.3112 17.3632 13.3447 17.5039 13.3447H18.7198L19.3956 9.71672H21.3292L21.4787 8.8198L21.4794 8.81482C21.5281 8.47995 21.5181 8.16336 21.3593 7.94674C21.2002 7.72988 20.9509 7.64723 20.6784 7.64723H19.7171L20.0806 5.6797H20.7673C21.0993 5.6797 21.3941 5.62378 21.6006 5.46458C21.8004 5.31054 21.9189 5.08522 21.9749 4.8196L22.1862 3.6102H20.4034L20.8909 1.05366L20.892 1.04702C20.938 0.762991 20.8725 0.501822 20.678 0.294649C20.4894 0.0937756 20.241 0 19.9582 0H18.7785L18.0938 3.6102H16.7663L17.451 0H16.1523ZM16.0892 7.64742L16.4527 5.67989H17.7807L17.4171 7.64742H16.0892Z" clip-rule="evenodd"/><path fill="currentColor" d="M4.66999 1.96992C5.05979 1.87159 5.46115 1.89121 5.84157 2.05572C6.26041 2.23685 6.5581 2.58318 6.77437 2.94372C6.95359 3.22507 7.43427 3.98172 8.21591 5.21286C9.01732 6.47514 9.49704 7.72333 9.17891 8.79251C8.97182 9.54032 8.62686 10.2441 8.00377 10.6147C7.99483 10.6632 7.98775 10.78 8.03443 10.9953L8.03855 11.0143C8.11696 11.4231 8.40451 11.9985 9.02606 12.7548C9.67944 13.5498 10.1613 14.0997 10.4805 14.4219C10.8176 14.762 11.3709 15.2521 12.157 15.9002C12.9063 16.518 13.4841 16.8213 13.9024 16.9174C14.1048 16.9618 14.216 16.9563 14.2633 16.9485C14.6259 16.3281 15.3172 15.9659 16.0617 15.7363L16.0817 15.7302C16.6275 15.5772 17.2097 15.6362 17.7838 15.8129C18.3597 15.9901 18.9776 16.301 19.6315 16.7185C20.8236 17.4797 21.5898 17.9791 21.901 18.2005C22.254 18.419 22.5881 18.7166 22.7635 19.1294C22.9249 19.5094 22.944 19.9095 22.8476 20.2987L22.8367 20.3426L22.4158 21.4802C22.058 22.4474 21.3244 23.1583 20.3284 23.638L20.3176 23.6432C19.3841 24.0759 18.2913 24.092 17.1126 23.8134C15.9632 23.5417 14.7842 23.0809 13.5766 22.4412C12.3809 21.8078 11.2174 21.07 10.0861 20.2289C8.96129 19.3926 7.99302 18.568 7.1865 17.7542C6.38001 16.9404 5.56291 15.9635 4.73428 14.8288C3.90084 13.6875 3.16995 12.5139 2.5425 11.3079C1.90893 10.0903 1.45279 8.90183 1.18399 7.74391C0.908602 6.55759 0.924949 5.46014 1.35168 4.52297L1.35657 4.51225C1.83027 3.51075 2.53413 2.76896 3.4971 2.40621L4.62544 1.98116L4.66999 1.96992Z"/></svg>