<svg xmlns="http://www.w3.org/2000/svg" viewBox="0 0 24 24"><g fill="currentColor" clip-path="url(#clip0_7344_41489)"><path d="M2.61446.448571C2.01637-.149524 1.04667-.149524.448571.448571-.149524 1.04667-.149524 2.01637.448571 2.61446L5.85304 8.01893 4.05 9 2.55 7.5C1.95 6.9 1.05 6.9.45 7.5-.15 8.1-.15 9 .45 9.6L6.3 15.45.931758 20.9441C.360011 21.5292.365433 22.4654.94392 23.0439 1.52718 23.6272 2.47282 23.6272 3.05608 23.0439L8.55 17.55 14.55 23.55C15.3 24.3 16.35 23.85 16.65 23.55 17.25 22.95 17.25 22.05 16.65 21.45L15.15 19.95 16.0871 18.253 21.3855 23.5514C21.9836 24.1495 22.9533 24.1495 23.5514 23.5514 24.1495 22.9533 24.1495 21.9836 23.5514 21.3855L2.61446.448571zM20.7 9.9L19.0513 12.8854 11.2489 5.08297 14.25 3.45 13.35 2.55C12.75 1.95 12.75 1.05 13.35.45 13.95-.15 14.85-.15 15.45.45L23.55 8.55C24.15 9.15 24.15 10.2 23.7 10.8 23.4 11.1 22.5 11.7 21.6 10.8L20.7 9.9z"/></g></svg>