<svg xmlns="http://www.w3.org/2000/svg" viewBox="0 0 24 24"><path fill="currentColor" d="M20.3 8.3C19.9 8.1 19.4 8 19 7.8 19.1 7.3 19.2 6.9 19.3 6.4 19.7 3.8 19.3 2 18 1.3 17.6 1.1 17.2 1 16.8 1 15.5 1 13.8 2 12 3.7 10.3 2 8.6 1 7.2 1 6.8 1 6.4 1.1 6 1.3 4.8 2 4.3 3.9 4.7 6.5 4.8 6.9 4.9 7.4 5 7.8 4.6 8 4.1 8.1 3.7 8.3 1.3 9.2 0 10.5 0 12 0 13.5 1.3 14.8 3.7 15.7 4.1 15.9 4.6 16 5 16.2 4.9 16.7 4.8 17.1 4.7 17.6 4.3 20.2 4.7 22 6 22.7 6.4 22.9 6.8 23 7.2 23 8.6 23 10.3 22 12 20.3 13.7 22 15.4 23 16.8 23 17.3 23 17.7 22.9 18 22.7 19.2 22 19.7 20.1 19.3 17.6 19.2 17.1 19.1 16.7 19 16.2 19.5 16.1 19.9 15.9 20.3 15.7 22.7 14.8 24 13.5 24 12 24 10.5 22.7 9.2 20.3 8.3zM16.8 2.1C17 2.1 17.3 2.2 17.5 2.3 18.3 2.8 18.6 4.2 18.2 6.3 18.1 6.7 18 7.1 17.9 7.6 16.9 7.4 15.8 7.2 14.7 7.1 14 6.2 13.4 5.3 12.7 4.5 14.2 3.1 15.6 2.1 16.8 2.1zM7.7 14.5C7.9 14.9 8.2 15.3 8.4 15.7 7.7 15.6 7 15.5 6.3 15.3 6.5 14.7 6.7 14 7 13.3 7.3 13.7 7.5 14.1 7.7 14.5zM6.4 8.7C7 8.5 7.7 8.4 8.4 8.3 8.2 8.7 8 9 7.7 9.5 7.5 9.9 7.3 10.3 7 10.7 6.8 10 6.6 9.3 6.4 8.7zM7.7 12C8 11.4 8.4 10.7 8.7 10 9 9.4 9.5 8.8 9.9 8.1 10.6 8 11.3 8 12 8 12.7 8 13.5 8 14.1 8.1 14.5 8.7 14.9 9.4 15.3 10 15.7 10.6 16 11.3 16.3 12 16 12.6 15.6 13.3 15.3 14 15 14.6 14.6 15.3 14.1 15.9 13.4 16 12.7 16 12 16 11.3 16 10.5 16 9.9 15.9 9.4 15.2 9 14.6 8.7 14 8.3 13.3 8 12.6 7.7 12zM16.3 14.5C16.5 14.1 16.7 13.7 17 13.3 17.3 14 17.5 14.7 17.7 15.3 17 15.5 16.4 15.6 15.6 15.7 15.8 15.3 16 15 16.3 14.5zM16.3 9.5L15.6 8.3C16.3 8.4 17 8.5 17.7 8.7 17.5 9.3 17.3 10 17 10.7 16.7 10.3 16.5 9.9 16.3 9.5zM13.3 7C12.9 7 12.4 7 12 7 11.6 7 11.1 7 10.7 7 11.1 6.4 11.6 5.9 12 5.4 12.5 5.9 12.9 6.4 13.3 7zM6.5 2.3C6.7 2.2 7 2.1 7.2 2.1 8.4 2.1 9.8 3.1 11.2 4.5 10.5 5.2 9.9 6.1 9.2 7.1 8.1 7.2 7.1 7.4 6.1 7.6 6 7.1 5.9 6.7 5.8 6.3 5.5 4.2 5.8 2.8 6.5 2.3zM5.3 15.1C2.7 14.3 1.1 13.1 1.1 12 1.1 11.1 2.2 10.1 4.1 9.4 4.5 9.2 4.9 9.1 5.3 9 5.6 10 6 11 6.5 12.1 6 13.1 5.6 14.1 5.3 15.1zM7.2 21.9C7 21.9 6.7 21.8 6.5 21.7 5.7 21.2 5.4 19.8 5.8 17.7 5.9 17.3 6 16.9 6.1 16.4 7.1 16.6 8.2 16.8 9.3 16.9 10 17.8 10.6 18.7 11.3 19.5 9.8 20.9 8.4 21.9 7.2 21.9zM10.7 17C11.1 17 11.6 17 12 17 12.4 17 12.9 17 13.3 17 12.9 17.6 12.4 18.1 12 18.6 11.5 18.1 11.1 17.6 10.7 17zM17.5 21.7C17.3 21.8 17.1 21.9 16.8 21.9 15.6 21.9 14.2 20.9 12.8 19.5 13.5 18.8 14.1 17.9 14.8 16.9 15.9 16.8 17 16.6 18 16.4 18.1 16.9 18.2 17.3 18.3 17.7 18.5 19.8 18.2 21.2 17.5 21.7zM19.9 14.6C19.5 14.8 19.1 14.9 18.7 15 18.4 14 18 13 17.5 11.9 18 10.9 18.4 9.8 18.7 8.8 21.3 9.6 22.9 10.8 22.9 11.9 22.9 12.9 21.8 13.9 19.9 14.6zM12 14.2C13.215 14.2 14.2 13.215 14.2 12 14.2 10.785 13.215 9.8 12 9.8 10.785 9.8 9.8 10.785 9.8 12 9.8 13.215 10.785 14.2 12 14.2z"/></svg>