<svg xmlns="http://www.w3.org/2000/svg" viewBox="0 0 24 24"><path fill="currentColor" fill-rule="evenodd" d="M6 12C6 8.68629 8.68629 6 12 6 15.3137 6 18 8.68629 18 12 18 15.3137 15.3137 18 12 18 8.68629 18 6 15.3137 6 12zM12 16.5C9.51472 16.5 7.5 14.4853 7.5 12 7.5 9.51472 9.51472 7.5 12 7.5 14.4853 7.5 16.5 9.51472 16.5 12 16.5 14.4853 14.4853 16.5 12 16.5zM24 12C24 18.6274 18.6274 24 12 24 5.37258 24 0 18.6274 0 12 0 5.37258 5.37258 0 12 0 18.6274 0 24 5.37258 24 12zM22.5 12C22.5 17.799 17.799 22.5 12 22.5 6.20101 22.5 1.5 17.799 1.5 12 1.5 6.20101 6.20101 1.5 12 1.5 17.799 1.5 22.5 6.20101 22.5 12z" clip-rule="evenodd"/></svg>