<svg xmlns="http://www.w3.org/2000/svg" viewBox="0 0 24 24"><path fill="currentColor" d="M6 16.5C6 18.1569 4.65685 19.5 3 19.5 1.34315 19.5 0 18.1569 0 16.5 0 14.8431 1.34315 13.5 3 13.5 4.65685 13.5 6 14.8431 6 16.5zM15 16.5C15 18.1569 13.6569 19.5 12 19.5 10.3431 19.5 9 18.1569 9 16.5 9 14.8431 10.3431 13.5 12 13.5 13.6569 13.5 15 14.8431 15 16.5zM21 19.5C22.6569 19.5 24 18.1569 24 16.5 24 14.8431 22.6569 13.5 21 13.5 19.3431 13.5 18 14.8431 18 16.5 18 18.1569 19.3431 19.5 21 19.5zM15 7.5C15 9.15685 13.6569 10.5 12 10.5 10.3431 10.5 9 9.15685 9 7.5 9 5.84315 10.3431 4.5 12 4.5 13.6569 4.5 15 5.84315 15 7.5zM3 10.5C4.65685 10.5 6 9.15685 6 7.5 6 5.84315 4.65685 4.5 3 4.5 1.34315 4.5 0 5.84315 0 7.5 0 9.15685 1.34315 10.5 3 10.5zM24 7.5C24 9.15685 22.6569 10.5 21 10.5 19.3431 10.5 18 9.15685 18 7.5 18 5.84315 19.3431 4.5 21 4.5 22.6569 4.5 24 5.84315 24 7.5z"/></svg>