<svg xmlns="http://www.w3.org/2000/svg" fill="none" viewBox="0 0 24 24"><g clip-path="url(#clip0_971_5576)"><path fill="#D91404" d="M6.62443 21.611C11.9457 22.3712 17.1584 23.1313 22.371 23.8915C20.5249 20.7422 18.7873 17.7015 17.0498 14.6608C17.0498 14.5522 6.62443 21.611 6.62443 21.611ZM23.8914 4.23542C23.457 4.9956 22.914 5.64718 22.4796 6.40736C20.8507 8.9051 19.3303 11.4028 17.7014 13.9006C17.5928 14.0092 17.4842 14.1178 17.5928 14.335C19.1131 16.9413 20.6335 19.6562 22.1538 22.3712C22.371 22.8056 22.5882 23.2399 22.914 23.5657C23.3484 17.1585 23.6742 10.6427 23.8914 4.23542C24 4.23542 23.8914 4.23542 23.8914 4.23542ZM2.82353 12.4888C2.93213 12.5974 3.04072 12.5974 3.14932 12.5974C4.66968 11.8372 6.08145 11.077 7.60181 10.3169C8.0362 10.0997 8.47059 9.55668 8.79638 9.23089C10.0995 7.92772 11.5113 6.62456 12.8145 5.32139C12.9231 5.21279 13.0317 5.21279 13.0317 5.10419C13.4661 4.12682 14.009 3.14944 14.4434 2.06347C13.9005 1.84628 13.2489 1.62908 12.7059 1.41189C12.5973 1.41189 12.4887 1.41189 12.3801 1.52048C11.0769 2.28066 9.77376 3.04085 8.47059 3.80103C8.0362 4.12682 7.60181 4.7784 6.95023 5.21279C6.08145 6.08157 5.21267 6.95035 4.34389 7.81913C4.1267 8.03632 3.9095 8.36211 3.69231 8.57931C3.04072 9.44809 2.49774 10.4255 1.84615 11.4028C2.17195 11.8372 2.49774 12.163 2.82353 12.4888ZM8.25339 11.2942C7.49321 14.5522 6.73303 17.8101 6.08145 21.068C9.66516 18.6789 13.1403 16.3983 16.5068 14.0092C13.7919 13.1404 11.0769 12.163 8.25339 11.2942ZM23.0226 4.23542C19.9819 4.7784 17.0498 5.32139 14.1176 5.75578C15.095 8.36211 16.0724 10.8598 17.1584 13.3576C19.1131 10.3169 21.0679 7.38474 23.0226 4.23542ZM8.36199 10.5341C11.0769 11.4028 13.6833 12.3802 16.3982 13.249C15.4208 10.6427 14.4434 8.25352 13.4661 5.64718C11.7285 7.38474 10.0995 8.9051 8.36199 10.5341ZM2.93213 14.4436C1.95475 16.8327 1.08597 19.1132 0.108597 21.5024C1.95475 21.3938 3.69231 21.3938 5.53846 21.2852C4.66968 19.0046 3.8009 16.7241 2.93213 14.4436ZM5.53846 19.6562C6.29864 16.8327 6.95023 14.0092 7.60181 11.1856C6.08145 11.9458 4.77828 12.706 3.25792 13.5748C4.0181 15.4209 4.77828 17.5929 5.53846 19.6562ZM21.9367 3.80103C21.0679 3.58383 20.1991 3.36664 19.3303 3.04085C18.1357 2.71505 16.8326 2.38926 15.638 2.06347C15.5294 2.06347 15.4208 1.95487 15.3122 2.17207C14.8778 3.14944 14.4434 4.01822 14.009 4.9956V5.10419C16.6154 4.66981 19.3303 4.23542 21.9367 3.80103ZM16.9412 1.62908L24 3.69243C23.5656 2.49786 23.2398 1.41189 22.8054 0.217317L16.9412 1.62908ZM6.19004 22.0454C5.32127 21.9368 4.45249 22.0454 3.58371 22.0454C2.82353 22.0454 2.17195 22.0454 1.41176 22.154C1.30317 22.154 1.30317 22.154 1.19457 22.2626C7.16742 22.8055 13.1403 23.4571 19.1131 24.0001V23.8915C17.1584 23.5657 15.3122 23.3485 13.3575 23.0227C10.9683 22.8056 8.57918 22.3712 6.19004 22.0454ZM0.217195 19.3304C0.977376 17.4843 1.73756 15.6381 2.49774 13.792C2.60633 13.5748 2.60633 13.4662 2.38914 13.3576C2.06335 13.0318 1.73756 12.706 1.41176 12.2716C0.977376 14.7694 0.434389 17.1585 0 19.5476C0.217195 19.439 0.217195 19.3304 0.217195 19.3304ZM15.4208 1.19469C16.724 0.8689 18.0271 0.543109 19.3303 0.217317C19.4389 0.217317 19.5475 0.217317 19.5475 0.108719V0.00012207C17.7014 0.217317 15.8552 0.543109 13.9005 0.760303C14.4434 1.08609 14.8778 1.30329 15.4208 1.19469Z"/></g></svg>