<svg xmlns="http://www.w3.org/2000/svg" viewBox="0 0 24 24"><path fill="currentColor" d="M9.91696 12.355L13.4064 8.76368C13.6586 8.50442 14.0753 8.49836 14.3335 8.75056C14.5928 9.00277 14.5998 9.41739 14.3466 9.67766L9.91696 14.2365L7.32433 11.5692C7.07213 11.3099 7.07717 10.8943 7.33643 10.6421C7.59469 10.3889 8.01132 10.3959 8.26353 10.6552L9.91696 12.355Z"/><path fill="currentColor" fill-rule="evenodd" d="M6.18952 2.99994C7.45088 2.99994 8.63627 3.51689 9.50412 4.40241C9.62117 4.52185 9.73245 4.648 9.83736 4.78048C9.96199 4.67063 10.0917 4.56798 10.2259 4.4728C10.9989 3.92467 11.9219 3.62439 12.888 3.62439C14.1994 3.62439 15.4584 4.20042 16.3432 5.18602C16.901 5.01251 17.476 4.92373 18.0561 4.92373C21.3327 4.92373 24 7.65861 24 11.02C24 14.3803 21.3327 17.1142 18.0561 17.1142C17.9159 17.1142 17.7777 17.1071 17.6395 17.096C16.5167 18.47 14.6736 19.1207 12.9485 18.6859C12.0739 19.959 10.6474 20.7307 9.109 20.7307C7.3446 20.7307 5.72244 19.6906 4.92851 18.0977C4.85083 18.1028 4.77315 18.1058 4.69447 18.1058C2.10587 18.1058 0.000488271 15.948 0.000488271 13.2958C0.000488271 11.7957 0.664283 10.4197 1.80222 9.51279C1.60046 8.96905 1.49554 8.38999 1.49554 7.80993C1.49554 5.15778 3.60193 2.99994 6.18952 2.99994ZM15.2171 6.19684L15.8656 6.91928L16.7926 6.63096C17.2078 6.5018 17.6314 6.43694 18.0561 6.43694C20.4612 6.43694 22.4868 8.45813 22.4868 11.02C22.4868 13.5803 20.4617 15.6009 18.0561 15.6009C17.9664 15.6009 17.87 15.5964 17.7606 15.5876L16.9698 15.5241L16.4677 16.1385C15.6997 17.0784 14.449 17.5035 13.3184 17.2186L12.2975 16.9612L11.7013 17.829C11.1002 18.704 10.1337 19.2175 9.109 19.2175C7.94227 19.2175 6.83157 18.5237 6.28282 17.4227L5.83415 16.5225L4.83046 16.5877C4.77873 16.5911 4.73436 16.5926 4.69447 16.5926C2.97629 16.5926 1.5137 15.1474 1.5137 13.2958C1.5137 12.2494 1.97312 11.3116 2.74534 10.6962L3.602 10.0134L3.22091 8.98638C3.08109 8.60956 3.00875 8.20867 3.00875 7.80993C3.00875 5.95859 4.47214 4.51315 6.18952 4.51315C7.14538 4.51315 8.04699 4.95704 8.65105 5.71987L9.6413 6.97043L10.838 5.91566C11.4078 5.41339 12.1276 5.1376 12.888 5.1376C13.7564 5.1376 14.6103 5.52091 15.2171 6.19684Z" clip-rule="evenodd"/></svg>