<svg xmlns="http://www.w3.org/2000/svg" viewBox="0 0 24 24"><path fill="currentColor" fill-rule="evenodd" d="M1.5 0.75C1.5 0.335787 1.83579 0 2.25 0H5.25H18.75H21.75C22.1642 0 22.5 0.335787 22.5 0.75C22.5 1.16421 22.1642 1.5 21.75 1.5H19.5V1.50135V1.50534V1.50933V1.51332V1.51732V1.52131V1.52531V1.52931V1.5333V1.53729V1.54129V1.54528V1.54929V1.55328V1.55727V1.56128V1.56526V1.56925V1.57325V1.57723V1.58124V1.58523V1.58922V1.59321V1.59719V1.60118V1.60517V1.60914V1.61313V1.61711V1.62108V1.62505V1.62903V1.63301V1.63698V1.64094V1.64491V1.64887V1.65283V1.6568V1.66075V1.6647V1.66866V1.67261V1.67655V1.6805V1.68442V1.68837V1.6923V1.69623V1.70015V1.70407V1.70799V1.71191V1.71581V1.71972V1.72362V1.72752V1.73141V1.73529V1.73918V1.74306V1.74693V1.7508V1.75467V1.75853V1.76238V1.76623V1.77008V1.77392V1.77776V1.78158V1.7854V1.78923V1.79304V1.79685V1.80065V1.80444V1.80823V1.81201V1.8158V1.81956V1.82332V1.82708V1.83082V1.83457V1.83831V1.84204V1.84576V1.84949V1.85319V1.8569V1.86058V1.86427V1.86795V1.87163V1.87529V1.87893V1.88259V1.88622V1.88985V1.89348V1.89709V1.90071V1.9043V1.90789V1.91148V1.91505V1.91861V1.92216V1.92571V1.92926V1.93278V1.93629V1.9398V1.94331V1.94679V1.95027V1.95375V1.9572V1.96066V1.9641V1.96754V1.97095V1.97436V1.97777V1.98116V1.98453V1.98791V1.99127V1.99461V1.99794V2.00127V2.00459V2.00788V2.01119V2.01446V2.01772V2.02098V2.02424V2.02746V2.03068V2.0339V2.03711V2.04029V2.04347V2.04662V2.04977V2.05292V2.05604V2.05914V2.06224V2.06533V2.06841V2.07147V2.07452V2.07755V2.08057V2.08358V2.08658V2.08956V2.09253V2.09547V2.09842V2.10135V2.10426V2.10716V2.11003V2.11292V2.11576V2.1186V2.12143V2.12424V2.12705V2.12982V2.1326V2.13534V2.13808V2.1408V2.14352V2.1462V2.14889V2.15154V2.15418V2.15682V2.15943V2.16202V2.16461V2.16717V2.16972V2.17226V2.17477V2.17728V2.17975V2.18223V2.18467V2.18712V2.18953V2.19194V2.19432V2.19668V2.19903V2.20135V2.20368V2.20598V2.20826V2.21052V2.21275V2.21499V2.2172V2.21939V2.22154V2.22371V2.22584V2.22796V2.23005V2.23214V2.23419V2.23624V2.23826V2.24026V2.24224V2.24421V2.24616V2.2481V2.25C19.5 6.1945 18.3108 9.93393 16.1658 12C18.3108 14.0661 19.5 17.8055 19.5 21.75V21.7519V21.7539V21.7558V21.7578V21.7598V21.7617V21.7638V21.7658V21.7678V21.77V21.772V21.7742V21.7762V21.7785V21.7806V21.7829V21.785V21.7872V21.7895V21.7917V21.7941V21.7964V21.7986V21.801V21.8032V21.8056V21.8081V21.8105V21.8128V21.8153V21.8178V21.8202V21.8228V21.8251V21.8277V21.8302V21.8328V21.8354V21.8379V21.8406V21.8432V21.8458V21.8484V21.8511V21.8538V21.8565V21.8592V21.8619V21.8646V21.8675V21.8701V21.873V21.8757V21.8785V21.8814V21.8843V21.8871V21.8899V21.8928V21.8958V21.8987V21.9016V21.9045V21.9075V21.9105V21.9135V21.9163V21.9195V21.9225V21.9255V21.9285V21.9317V21.9347V21.9378V21.9408V21.944V21.9471V21.9503V21.9534V21.9566V21.9597V21.9629V21.9662V21.9693V21.9726V21.9757V21.979V21.9822V21.9855V21.9888V21.9921V21.9954V21.9987V22.002V22.0054V22.0087V22.0121V22.0155V22.0188V22.0223V22.0257V22.029V22.0324V22.0359V22.0393V22.0428V22.0462V22.0497V22.0532V22.0568V22.0602V22.0637V22.0672V22.0707V22.0743V22.0779V22.0813V22.0849V22.0886V22.0921V22.0958V22.0993V22.103V22.1066V22.1101V22.1138V22.1173V22.1211V22.1247V22.1285V22.132V22.1358V22.1394V22.1432V22.1467V22.1505V22.1542V22.158V22.1618V22.1655V22.1691V22.1729V22.1768V22.1805V22.1842V22.188V22.1917V22.1955V22.1994V22.2031V22.2069V22.2108V22.2146V22.2184V22.2222V22.2261V22.2298V22.2337V22.2376V22.2414V22.2453V22.2492V22.2531V22.257V22.2607V22.2646V22.2686V22.2724V22.2764V22.2803V22.2841V22.288V22.292V22.296V22.2999V22.3038V22.3077V22.3116V22.3155V22.3195V22.3235V22.3274V22.3314V22.3353V22.3392V22.3433V22.3471V22.351V22.3551V22.359V22.3631V22.3669V22.371V22.3749V22.379V22.3829V22.3869V22.3908V22.3948V22.3988V22.4028V22.4068V22.4108V22.4148V22.4187V22.4227V22.4268V22.4307V22.4347V22.4388V22.4427V22.4468V22.4506V22.4547V22.4587V22.4627V22.4667V22.4708V22.4746V22.4787V22.4827V22.4867V22.4907V22.4946V22.4986V22.5H21.75C22.1642 22.5 22.5 22.8358 22.5 23.25C22.5 23.6642 22.1642 24 21.75 24H18.75H5.25H2.25C1.83579 24 1.5 23.6642 1.5 23.25C1.5 22.8358 1.83579 22.5 2.25 22.5H4.5V22.4986V22.4946V22.4907V22.4867V22.4827V22.4787V22.4746V22.4708V22.4667V22.4627V22.4587V22.4547V22.4506V22.4468V22.4427V22.4388V22.4347V22.4307V22.4268V22.4227V22.4187V22.4148V22.4108V22.4068V22.4028V22.3988V22.3948V22.3908V22.3869V22.3829V22.379V22.3749V22.371V22.3669V22.3631V22.359V22.3551V22.351V22.3471V22.3433V22.3392V22.3353V22.3314V22.3274V22.3235V22.3195V22.3155V22.3116V22.3077V22.3038V22.2999V22.296V22.292V22.288V22.2841V22.2803V22.2764V22.2724V22.2686V22.2646V22.2607V22.257V22.2531V22.2492V22.2453V22.2414V22.2376V22.2337V22.2298V22.2261V22.2222V22.2184V22.2146V22.2108V22.2069V22.2031V22.1994V22.1955V22.1917V22.188V22.1842V22.1805V22.1768V22.1729V22.1691V22.1655V22.1618V22.158V22.1542V22.1505V22.1467V22.1432V22.1394V22.1358V22.132V22.1285V22.1247V22.1211V22.1173V22.1138V22.1101V22.1066V22.103V22.0993V22.0958V22.0921V22.0886V22.0849V22.0813V22.0779V22.0743V22.0707V22.0672V22.0637V22.0602V22.0568V22.0532V22.0497V22.0462V22.0428V22.0393V22.0359V22.0324V22.029V22.0257V22.0223V22.0188V22.0155V22.0121V22.0087V22.0054V22.002V21.9987V21.9954V21.9921V21.9888V21.9855V21.9822V21.979V21.9757V21.9726V21.9693V21.9662V21.9629V21.9597V21.9566V21.9534V21.9503V21.9471V21.944V21.9408V21.9378V21.9347V21.9317V21.9285V21.9255V21.9225V21.9195V21.9163V21.9135V21.9105V21.9075V21.9045V21.9016V21.8987V21.8958V21.8928V21.8899V21.8871V21.8843V21.8814V21.8785V21.8757V21.873V21.8701V21.8675V21.8646V21.8619V21.8592V21.8565V21.8538V21.8511V21.8484V21.8458V21.8432V21.8406V21.8379V21.8354V21.8328V21.8302V21.8277V21.8251V21.8228V21.8202V21.8178V21.8153V21.8128V21.8105V21.8081V21.8056V21.8032V21.801V21.7986V21.7964V21.7941V21.7917V21.7895V21.7872V21.785V21.7829V21.7806V21.7785V21.7762V21.7742V21.772V21.77V21.7678V21.7658V21.7638V21.7617V21.7598V21.7578V21.7558V21.7539V21.7519V21.75C4.5 17.8055 5.6892 14.0661 7.83414 12C5.6892 9.93393 4.5 6.1945 4.5 2.25V2.2481V2.24616V2.24421V2.24224V2.24026V2.23826V2.23624V2.23419V2.23214V2.23005V2.22796V2.22584V2.22371V2.22154V2.21939V2.2172V2.21499V2.21275V2.21052V2.20826V2.20598V2.20368V2.20135V2.19903V2.19668V2.19432V2.19194V2.18953V2.18712V2.18467V2.18223V2.17975V2.17728V2.17477V2.17226V2.16972V2.16717V2.16461V2.16202V2.15943V2.15682V2.15418V2.15154V2.14889V2.1462V2.14352V2.1408V2.13808V2.13534V2.1326V2.12982V2.12705V2.12424V2.12143V2.1186V2.11576V2.11292V2.11003V2.10716V2.10426V2.10135V2.09842V2.09547V2.09253V2.08956V2.08658V2.08358V2.08057V2.07755V2.07452V2.07147V2.06841V2.06533V2.06224V2.05914V2.05604V2.05292V2.04977V2.04662V2.04347V2.04029V2.03711V2.0339V2.03068V2.02746V2.02424V2.02098V2.01772V2.01446V2.01119V2.00788V2.00459V2.00127V1.99794V1.99461V1.99127V1.98791V1.98453V1.98116V1.97777V1.97436V1.97095V1.96754V1.9641V1.96066V1.9572V1.95375V1.95027V1.94679V1.94331V1.9398V1.93629V1.93278V1.92926V1.92571V1.92216V1.91861V1.91505V1.91148V1.90789V1.9043V1.90071V1.89709V1.89348V1.88985V1.88622V1.88259V1.87893V1.87529V1.87163V1.86795V1.86427V1.86058V1.8569V1.85319V1.84949V1.84576V1.84204V1.83831V1.83457V1.83082V1.82708V1.82332V1.81956V1.8158V1.81201V1.80823V1.80444V1.80065V1.79685V1.79304V1.78923V1.7854V1.78158V1.77776V1.77392V1.77008V1.76623V1.76238V1.75853V1.75467V1.7508V1.74693V1.74306V1.73918V1.73529V1.73141V1.72752V1.72362V1.71972V1.71581V1.71191V1.70799V1.70407V1.70015V1.69623V1.6923V1.68837V1.68442V1.6805V1.67655V1.67261V1.66866V1.6647V1.66075V1.6568V1.65283V1.64887V1.64491V1.64094V1.63698V1.63301V1.62903V1.62505V1.62108V1.61711V1.61313V1.60914V1.60517V1.60118V1.59719V1.59321V1.58922V1.58523V1.58124V1.57723V1.57325V1.56925V1.56526V1.56128V1.55727V1.55328V1.54929V1.54528V1.54129V1.53729V1.5333V1.52931V1.52531V1.52131V1.51732V1.51332V1.50933V1.50534V1.50135V1.5H2.25C1.83579 1.5 1.5 1.16421 1.5 0.75ZM6 22.5H18V22.4986V22.4946V22.4907V22.4867V22.4827V22.4787V22.4746V22.4708V22.4667V22.4627V22.4587V22.4547V22.4506V22.4468V22.4427V22.4388V22.4347V22.4307V22.4268V22.4227V22.4187V22.4148V22.4108V22.4068V22.4028V22.3988V22.3948V22.3908V22.3869V22.3829V22.379V22.3749V22.371V22.3669V22.3631V22.359V22.3551V22.351V22.3471V22.3433V22.3392V22.3353V22.3314V22.3274V22.3235V22.3195V22.3155V22.3116V22.3077V22.3038V22.2999V22.296V22.292V22.288V22.2841V22.2803V22.2764V22.2724V22.2686V22.2646V22.2607V22.257V22.2531V22.2492V22.2453V22.2414V22.2376V22.2337V22.2298V22.2261V22.2222V22.2184V22.2146V22.2108V22.2069V22.2031V22.1994V22.1955V22.1917V22.188V22.1842V22.1805V22.1768V22.1729V22.1691V22.1655V22.1618V22.158V22.1542V22.1505V22.1467V22.1432V22.1394V22.1358V22.132V22.1285V22.1247V22.1211V22.1173V22.1138V22.1101V22.1066V22.103V22.0993V22.0958V22.0921V22.0886V22.0849V22.0813V22.0779V22.0743V22.0707V22.0672V22.0637V22.0602V22.0568V22.0532V22.0497V22.0462V22.0428V22.0393V22.0359V22.0324V22.029V22.0257V22.0223V22.0188V22.0155V22.0121V22.0087V22.0054V22.002V21.9987V21.9954V21.9921V21.9888V21.9855V21.9822V21.979V21.9757V21.9726V21.9693V21.9662V21.9629V21.9597V21.9566V21.9534V21.9503V21.9471V21.944V21.9408V21.9378V21.9347V21.9317V21.9285V21.9255V21.9225V21.9195V21.9163V21.9135V21.9105V21.9075V21.9045V21.9016V21.8987V21.8958V21.8928V21.8899V21.8871V21.8843V21.8814V21.8785V21.8757V21.873V21.8701V21.8675V21.8646V21.8619V21.8592V21.8565V21.8538V21.8511V21.8484V21.8458V21.8432V21.8406V21.8379V21.8354V21.8328V21.8302V21.8277V21.8251V21.8228V21.8202V21.8178V21.8153V21.8128V21.8105V21.8081V21.8056V21.8032V21.801V21.7986V21.7964V21.7941V21.7917V21.7895V21.7872V21.785V21.7829V21.7806V21.7785V21.7762V21.7742V21.772V21.77V21.7678V21.7658V21.7638V21.7617V21.7598V21.7578V21.7558V21.7539V21.7519V21.75C18 17.5916 16.5949 14.0694 14.5624 12.6091C14.3663 12.4682 14.25 12.2415 14.25 12C14.25 11.7585 14.3663 11.5318 14.5624 11.3909C16.5949 9.9306 18 6.4084 18 2.25V2.2481V2.24616V2.24421V2.24224V2.24026V2.23826V2.23624V2.23419V2.23214V2.23005V2.22796V2.22584V2.22371V2.22154V2.21939V2.2172V2.21499V2.21275V2.21052V2.20826V2.20598V2.20368V2.20135V2.19903V2.19668V2.19432V2.19194V2.18953V2.18712V2.18467V2.18223V2.17975V2.17728V2.17477V2.17226V2.16972V2.16717V2.16461V2.16202V2.15943V2.15682V2.15418V2.15154V2.14889V2.1462V2.14352V2.1408V2.13808V2.13534V2.1326V2.12982V2.12705V2.12424V2.12143V2.1186V2.11576V2.11292V2.11003V2.10716V2.10426V2.10135V2.09842V2.09547V2.09253V2.08956V2.08658V2.08358V2.08057V2.07755V2.07452V2.07147V2.06841V2.06533V2.06224V2.05914V2.05604V2.05292V2.04977V2.04662V2.04347V2.04029V2.03711V2.0339V2.03068V2.02746V2.02424V2.02098V2.01772V2.01446V2.01119V2.00788V2.00459V2.00127V1.99794V1.99461V1.99127V1.98791V1.98453V1.98116V1.97777V1.97436V1.97095V1.96754V1.9641V1.96066V1.9572V1.95375V1.95027V1.94679V1.94331V1.9398V1.93629V1.93278V1.92926V1.92571V1.92216V1.91861V1.91505V1.91148V1.90789V1.9043V1.90071V1.89709V1.89348V1.88985V1.88622V1.88259V1.87893V1.87529V1.87163V1.86795V1.86427V1.86058V1.8569V1.85319V1.84949V1.84576V1.84204V1.83831V1.83457V1.83082V1.82708V1.82332V1.81956V1.8158V1.81201V1.80823V1.80444V1.80065V1.79685V1.79304V1.78923V1.7854V1.78158V1.77776V1.77392V1.77008V1.76623V1.76238V1.75853V1.75467V1.7508V1.74693V1.74306V1.73918V1.73529V1.73141V1.72752V1.72362V1.71972V1.71581V1.71191V1.70799V1.70407V1.70015V1.69623V1.6923V1.68837V1.68442V1.6805V1.67655V1.67261V1.66866V1.6647V1.66075V1.6568V1.65283V1.64887V1.64491V1.64094V1.63698V1.63301V1.62903V1.62505V1.62108V1.61711V1.61313V1.60914V1.60517V1.60118V1.59719V1.59321V1.58922V1.58523V1.58124V1.57723V1.57325V1.56925V1.56526V1.56128V1.55727V1.55328V1.54929V1.54528V1.54129V1.53729V1.5333V1.52931V1.52531V1.52131V1.51732V1.51332V1.50933V1.50534V1.50135V1.5H6V1.50135V1.50534V1.50933V1.51332V1.51732V1.52131V1.52531V1.52931V1.5333V1.53729V1.54129V1.54528V1.54929V1.55328V1.55727V1.56128V1.56526V1.56925V1.57325V1.57723V1.58124V1.58523V1.58922V1.59321V1.59719V1.60118V1.60517V1.60914V1.61313V1.61711V1.62108V1.62505V1.62903V1.63301V1.63698V1.64094V1.64491V1.64887V1.65283V1.6568V1.66075V1.6647V1.66866V1.67261V1.67655V1.6805V1.68442V1.68837V1.6923V1.69623V1.70015V1.70407V1.70799V1.71191V1.71581V1.71972V1.72362V1.72752V1.73141V1.73529V1.73918V1.74306V1.74693V1.7508V1.75467V1.75853V1.76238V1.76623V1.77008V1.77392V1.77776V1.78158V1.7854V1.78923V1.79304V1.79685V1.80065V1.80444V1.80823V1.81201V1.8158V1.81956V1.82332V1.82708V1.83082V1.83457V1.83831V1.84204V1.84576V1.84949V1.85319V1.8569V1.86058V1.86427V1.86795V1.87163V1.87529V1.87893V1.88259V1.88622V1.88985V1.89348V1.89709V1.90071V1.9043V1.90789V1.91148V1.91505V1.91861V1.92216V1.92571V1.92926V1.93278V1.93629V1.9398V1.94331V1.94679V1.95027V1.95375V1.9572V1.96066V1.9641V1.96754V1.97095V1.97436V1.97777V1.98116V1.98453V1.98791V1.99127V1.99461V1.99794V2.00127V2.00459V2.00788V2.01119V2.01446V2.01772V2.02098V2.02424V2.02746V2.03068V2.0339V2.03711V2.04029V2.04347V2.04662V2.04977V2.05292V2.05604V2.05914V2.06224V2.06533V2.06841V2.07147V2.07452V2.07755V2.08057V2.08358V2.08658V2.08956V2.09253V2.09547V2.09842V2.10135V2.10426V2.10716V2.11003V2.11292V2.11576V2.1186V2.12143V2.12424V2.12705V2.12982V2.1326V2.13534V2.13808V2.1408V2.14352V2.1462V2.14889V2.15154V2.15418V2.15682V2.15943V2.16202V2.16461V2.16717V2.16972V2.17226V2.17477V2.17728V2.17975V2.18223V2.18467V2.18712V2.18953V2.19194V2.19432V2.19668V2.19903V2.20135V2.20368V2.20598V2.20826V2.21052V2.21275V2.21499V2.2172V2.21939V2.22154V2.22371V2.22584V2.22796V2.23005V2.23214V2.23419V2.23624V2.23826V2.24026V2.24224V2.24421V2.24616V2.2481V2.25C6 6.4084 7.40502 9.9306 9.43761 11.3909C9.63372 11.5318 9.75 11.7585 9.75 12C9.75 12.2415 9.63372 12.4682 9.43761 12.6091C7.40502 14.0694 6 17.5916 6 21.75V21.7519V21.7539V21.7558V21.7578V21.7598V21.7617V21.7638V21.7658V21.7678V21.77V21.772V21.7742V21.7762V21.7785V21.7806V21.7829V21.785V21.7872V21.7895V21.7917V21.7941V21.7964V21.7986V21.801V21.8032V21.8056V21.8081V21.8105V21.8128V21.8153V21.8178V21.8202V21.8228V21.8251V21.8277V21.8302V21.8328V21.8354V21.8379V21.8406V21.8432V21.8458V21.8484V21.8511V21.8538V21.8565V21.8592V21.8619V21.8646V21.8675V21.8701V21.873V21.8757V21.8785V21.8814V21.8843V21.8871V21.8899V21.8928V21.8958V21.8987V21.9016V21.9045V21.9075V21.9105V21.9135V21.9163V21.9195V21.9225V21.9255V21.9285V21.9317V21.9347V21.9378V21.9408V21.944V21.9471V21.9503V21.9534V21.9566V21.9597V21.9629V21.9662V21.9693V21.9726V21.9757V21.979V21.9822V21.9855V21.9888V21.9921V21.9954V21.9987V22.002V22.0054V22.0087V22.0121V22.0155V22.0188V22.0223V22.0257V22.029V22.0324V22.0359V22.0393V22.0428V22.0462V22.0497V22.0532V22.0568V22.0602V22.0637V22.0672V22.0707V22.0743V22.0779V22.0813V22.0849V22.0886V22.0921V22.0958V22.0993V22.103V22.1066V22.1101V22.1138V22.1173V22.1211V22.1247V22.1285V22.132V22.1358V22.1394V22.1432V22.1467V22.1505V22.1542V22.158V22.1618V22.1655V22.1691V22.1729V22.1768V22.1805V22.1842V22.188V22.1917V22.1955V22.1994V22.2031V22.2069V22.2108V22.2146V22.2184V22.2222V22.2261V22.2298V22.2337V22.2376V22.2414V22.2453V22.2492V22.2531V22.257V22.2607V22.2646V22.2686V22.2724V22.2764V22.2803V22.2841V22.288V22.292V22.296V22.2999V22.3038V22.3077V22.3116V22.3155V22.3195V22.3235V22.3274V22.3314V22.3353V22.3392V22.3433V22.3471V22.351V22.3551V22.359V22.3631V22.3669V22.371V22.3749V22.379V22.3829V22.3869V22.3908V22.3948V22.3988V22.4028V22.4068V22.4108V22.4148V22.4187V22.4227V22.4268V22.4307V22.4347V22.4388V22.4427V22.4468V22.4506V22.4547V22.4587V22.4627V22.4667V22.4708V22.4746V22.4787V22.4827V22.4867V22.4907V22.4946V22.4986V22.5Z" clip-rule="evenodd"/></svg>