<svg xmlns="http://www.w3.org/2000/svg" viewBox="0 0 24 24"><path fill="currentColor" fill-rule="evenodd" d="M7.8611 3.66565C10.2117 1.46122 13.5666 0.182819 17.6723 0L17.7538 1.2141C13.971 1.39354 10.9673 2.51276 8.85017 4.4662C6.62162 6.52244 5.44061 9.44296 5.31541 12.9754C5.30564 13.2512 5.45051 14.5281 5.77229 13.5402C6.65217 10.8388 10.259 9.04978 13.4304 9.04978C15.8029 9.04978 17.638 9.83882 18.8801 11.1145C20.1249 12.393 20.819 14.2064 20.819 16.3346C20.819 18.7245 19.9381 20.6273 18.5053 21.9366C17.0671 23.2508 15.0354 24 12.6864 24C10.219 24 8.06653 23.1684 6.527 21.4966C4.98412 19.8211 4 17.2394 4 13.6352C4 9.3063 5.41664 5.9581 7.8611 3.66565ZM12.7902 22.8407C14.6482 22.8407 16.3176 22.2741 17.5287 21.1663C18.7463 20.0526 19.452 18.4357 19.452 16.4384C19.452 14.5755 18.8377 12.9798 17.6881 11.8496C16.5391 10.72 14.9066 10.1053 12.9632 10.1053C11.0908 10.1053 9.31635 10.6739 7.99932 11.7612C6.67217 12.8568 5.83417 14.4613 5.83417 16.4557C5.83417 20.2759 8.85539 22.8407 12.7902 22.8407Z" clip-rule="evenodd"/></svg>