<svg xmlns="http://www.w3.org/2000/svg" viewBox="0 0 24 24"><path fill="currentColor" d="M17.7209 0L17.9194 3.1592C10.7574 3.29152 7.06892 6.46726 6.27498 11.5451C7.3501 9.69263 10.0296 8.46864 12.9904 8.46864C17.9194 8.46864 20.6154 11.8263 20.6154 16.0276C20.6154 21.0393 16.745 24 12.0972 24C7.2674 24 3 20.7912 3 13.5134C3 5.06134 8.75603 0.148863 17.7209 0ZM12.1633 20.907C14.9421 20.907 17.2412 19.3356 17.2412 16.1764C17.2412 13.315 15.3722 11.3963 12.3122 11.3963C9.41764 11.3963 6.80427 13.0669 6.80427 16.1268C6.80427 18.9387 9.05376 20.907 12.1633 20.907Z"/></svg>