<svg xmlns="http://www.w3.org/2000/svg" viewBox="0 0 24 24"><path fill="currentColor" d="M12.6251 2.21889L17.6251 6.21889C17.8322 6.38465 17.965 6.6259 17.9942 6.88958 18.0235 7.15325 17.9468 7.41775 17.7811 7.62489 17.6153 7.83202 17.374 7.96482 17.1104 7.99408 16.8467 8.02333 16.5822 7.94665 16.3751 7.78089L12.0001 4.28089 7.62505 7.78089C7.41792 7.94665 7.15342 8.02333 6.88974 7.99408 6.62607 7.96482 6.38481 7.83202 6.21905 7.62489 6.05329 7.41775 5.9766 7.15325 6.00586 6.88958 6.03512 6.6259 6.16792 6.38465 6.37505 6.21889L11.3751 2.21889C11.5524 2.07688 11.7728 1.99951 12.0001 1.99951 12.2273 1.99951 12.4477 2.07688 12.6251 2.21889zM12 19.7188L16.375 16.2188C16.5822 16.053 16.8467 15.9764 17.1104 16.0056 17.2409 16.0201 17.3673 16.0602 17.4824 16.1235 17.5975 16.1869 17.699 16.2722 17.781 16.3748 17.9468 16.5819 18.0235 16.8464 17.9942 17.1101 17.965 17.3738 17.8322 17.615 17.625 17.7808L12.625 21.7808C12.4477 21.9228 12.2273 22.0002 12 22.0002 11.7728 22.0002 11.5524 21.9228 11.375 21.7808L6.37505 17.7808C6.27249 17.6987 6.18709 17.5973 6.12375 17.4822 6.0604 17.3671 6.02034 17.2407 6.00586 17.1101 5.99137 16.9796 6.00274 16.8474 6.03932 16.7213 6.0759 16.5951 6.13697 16.4774 6.21905 16.3748 6.30113 16.2722 6.4026 16.1869 6.51768 16.1235 6.63275 16.0602 6.75918 16.0201 6.88974 16.0056 7.0203 15.9911 7.15243 16.0025 7.2786 16.0391 7.40476 16.0757 7.52249 16.1367 7.62505 16.2188L12 19.7188z"/></svg>