<svg xmlns="http://www.w3.org/2000/svg" viewBox="0 0 24 24"><g fill="currentColor" clip-path="url(#clip0_970_5472)"><path d="M1.5 24.0004H10.5C11.328 24.0004 12 23.3299 12 22.5004 12 21.6709 11.328 21.0004 10.5 21.0004H3V9.62138L9 3.62138 13.9395 8.56087C14.526 9.14737 15.474 9.14737 16.0605 8.56087 16.647 7.97437 16.647 7.02638 16.0605 6.43988L10.0605.439875C9.474-.146625 8.526-.146625 7.9395.439875L.4395 7.93988C.1575 8.22038 0 8.60137 0 9.00037V22.5004C0 23.3299.672 24.0004 1.5 24.0004zM19.5 16.5H24V19.5H19.5V24H16.5V19.5H12V16.5H16.5V12H19.5V16.5z"/></g></svg>