<svg xmlns="http://www.w3.org/2000/svg" viewBox="0 0 24 24"><path fill="currentColor" d="M12.2316 24C8.1865 24 5.15687 21.948 3.99998 18.5076L5.59855 18.0211C6.51096 20.8085 8.97016 22.5705 12.2663 22.5705C14.1004 22.5705 15.6757 22.0252 16.7984 21.0322C17.9257 20.0351 18.5658 18.6131 18.5658 16.9308C18.5658 15.3503 17.9993 14.0405 16.944 13.1319C15.8963 12.2297 14.4102 11.7599 12.6309 11.7599C11.4151 11.7599 10.1463 11.9778 9.18093 12.2586L8.23057 10.776L17.7801 1.46431H4.17279V0.00012207H19.4744V1.71889L9.85986 10.9336L11.1901 10.7065C11.884 10.588 12.5548 10.5214 13.2038 10.5214C15.2687 10.5214 17.0223 11.1312 18.2538 12.2171C19.4793 13.2978 20.2209 14.8784 20.2209 16.8961C20.2209 18.9565 19.4405 20.7229 18.0681 21.9772C16.6935 23.2335 14.6977 24 12.2316 24Z"/></svg>