<svg xmlns="http://www.w3.org/2000/svg" viewBox="0 0 24 24"><path fill="currentColor" d="M3.36923 0H19.2797V3.12168L11.6601 10.0699C12.0462 10.0196 12.4489 10.0028 12.8182 10.0028C16.8294 10.0028 20.0853 12.3189 20.0853 16.5986C20.0853 20.8448 16.8462 24 11.7441 24C7.33007 24 4.04056 21.6 3 17.7231L6.32308 16.6993C6.89371 19.1664 8.84056 20.8615 11.7776 20.8615C14.6811 20.8615 16.6448 19.2168 16.6448 16.6322C16.6448 14.1986 14.9329 12.8727 12.0797 12.8727C10.821 12.8727 9.47832 13.1245 8.65594 13.3762L6.92727 10.6573L14.8825 3.17203H3.36923V0Z"/></svg>