<svg xmlns="http://www.w3.org/2000/svg" viewBox="0 0 24 24"><path fill="currentColor" d="M0 4.49991C0 3.6715.671559 2.99994 1.49997 2.99994H4.49991C5.32832 2.99994 5.99988 3.6715 5.99988 4.49991 5.99988 5.32832 5.32832 5.99988 4.49991 5.99988H1.49997C.671559 5.99988 0 5.32832 0 4.49991zM1.99996 9.49981C1.99996 8.67139 2.67152 7.99984 3.49993 7.99984H12.4997C13.3281 7.99984 13.9997 8.67139 13.9997 9.49981 13.9997 10.3282 13.3281 10.9998 12.4997 10.9998H3.49993C2.67152 10.9998 1.99996 10.3282 1.99996 9.49981zM6.99986 14.4997C6.99986 13.6713 7.67141 12.9997 8.49983 12.9997H19.4996C20.328 12.9997 20.9996 13.6713 20.9996 14.4997 20.9996 15.3281 20.328 15.9997 19.4996 15.9997H8.49983C7.67141 15.9997 6.99986 15.3281 6.99986 14.4997zM16.9997 19.4996C16.9997 18.6712 17.6712 17.9996 18.4996 17.9996H21.4996C22.3279 17.9996 22.9995 18.6712 22.9995 19.4996 22.9995 20.328 22.3279 20.9996 21.4996 20.9996H18.4996C17.6712 20.9996 16.9997 20.328 16.9997 19.4996z"/></svg>