<svg xmlns="http://www.w3.org/2000/svg" viewBox="0 0 24 24"><path fill="currentColor" d="M19.2803.21967C18.9874-.0732233 18.5126-.0732233 18.2197.21967 17.9268.512563 17.9268.987437 18.2197 1.28033L21.4393 4.5H.75C.335786 4.5 0 4.83579 0 5.25V11.25C0 11.6642.335786 12 .75 12 1.16421 12 1.5 11.6642 1.5 11.25V6H21.4393L18.2197 9.21967C17.9268 9.51256 17.9268 9.98744 18.2197 10.2803 18.5126 10.5732 18.9874 10.5732 19.2803 10.2803L23.7803 5.78033C23.9268 5.63388 24 5.44194 24 5.25 24 5.14831 23.9798 5.05134 23.9431 4.96291 23.9065 4.87445 23.8522 4.79158 23.7803 4.71967L19.2803.21967zM4.71967 23.7803C5.01256 24.0732 5.48744 24.0732 5.78033 23.7803 6.07322 23.4874 6.07322 23.0126 5.78033 22.7197L2.56066 19.5H23.25C23.6642 19.5 24 19.1642 24 18.75V12.75C24 12.3358 23.6642 12 23.25 12 22.8358 12 22.5 12.3358 22.5 12.75V18H2.56066L5.78033 14.7803C6.07322 14.4874 6.07322 14.0126 5.78033 13.7197 5.48744 13.4268 5.01256 13.4268 4.71967 13.7197L.219669 18.2197C.0732231 18.3661 0 18.5581 0 18.75 0 18.8517.0202389 18.9487.0569096 19.0371.0935097 19.1255.147762 19.2084.219669 19.2803L4.71967 23.7803z"/></svg>