<svg xmlns="http://www.w3.org/2000/svg" viewBox="0 0 24 24"><path fill="currentColor" d="M20.6913 24H4V22.8293C4 19.685 6.39164 16.7247 9.85366 14.2662L12.8307 12.1589C14.4028 11.0383 16.7777 9.3993 16.7777 6.74007C16.7777 4.5993 15.2557 3.12753 12.7136 3.12753C9.73659 3.12753 7.81324 5.18467 7.81324 8.54634L4.41812 8.26202C4.46829 3.52892 7.54564 0 12.9645 0C17.8146 0 20.2063 2.82648 20.2063 6.63972C20.2063 10.7206 17.4634 12.7108 14.6871 14.6676L11.4592 16.9422C9.97073 17.9958 8.5324 19.4007 7.98049 20.839H20.6913V24Z"/></svg>