<svg xmlns="http://www.w3.org/2000/svg" viewBox="0 0 24 24"><path fill="currentColor" d="M5.8844 22.5422H20.0011V24H3.99998V23.5654C3.99998 20.6794 6.2899 17.7574 9.86978 15.193L13.0548 12.9081C13.9852 12.2448 15.1588 11.4048 16.0959 10.3258C17.0392 9.23971 17.7642 7.88757 17.7642 6.20006C17.7642 4.79943 17.2663 3.59189 16.3231 2.73794C15.3838 1.88755 14.0428 1.42329 12.416 1.42329C10.5582 1.42329 8.9817 2.02657 7.8567 3.17746C6.81559 4.24252 6.19561 5.74114 6.06762 7.56927L4.44943 7.43155C4.57961 5.29722 5.33042 3.49072 6.61712 2.19827C7.9791 0.830206 9.9792 0.00012207 12.5892 0.00012207C14.8917 0.00012207 16.5887 0.656184 17.7076 1.72317C18.8249 2.78875 19.4124 4.30851 19.4124 6.13081C19.4124 10.0646 16.6651 12.0799 13.9407 14.0359L10.4778 16.5118C8.23822 18.1215 6.47393 20.0662 6.00574 22.0326L5.8844 22.5422Z"/></svg>