<svg xmlns="http://www.w3.org/2000/svg" viewBox="0 0 24 24"><g fill="currentColor" clip-path="url(#clip0_12581_61815)"><path d="M9 .5C9 .223858 8.77614 0 8.5 0H2.5C2.22386 0 2 .223858 2 .5V2.10961C2 2.33905 2.15615 2.53904 2.37873 2.59468L3.62127 2.90532C3.84385 2.96096 4 3.16095 4 3.39039V11C4 15.4183 7.58173 19 12 19 16.4183 19 20 15.4183 20 11V3.39039C20 3.16095 20.1561 2.96096 20.3787 2.90532L21.6213 2.59468C21.8439 2.53904 22 2.33905 22 2.10961V.5C22 .223858 21.7761 0 21.5 0H15.5C15.2239 0 15 .223858 15 .5V2.10961C15 2.33905 15.1561 2.53904 15.3787 2.59468L16.6213 2.90532C16.8439 2.96096 17 3.16095 17 3.39039V11C17 13.7614 14.7614 16 12 16 9.23857 16 7 13.7614 7 11V3.39039C7 3.16095 7.15615 2.96096 7.37873 2.90532L8.62127 2.59468C8.84385 2.53904 9 2.33905 9 2.10961V.5zM1.5 21C.671573 21 0 21.6716 0 22.5 0 23.3284.671573 24 1.5 24H22.5C23.3284 24 24 23.3284 24 22.5 24 21.6716 23.3284 21 22.5 21H1.5z"/></g></svg>