<svg xmlns="http://www.w3.org/2000/svg" viewBox="0 0 24 24"><path fill="currentColor" d="M19.75 9H21.75C22.95 9 24 10.05 24 11.25V21.75C24 22.95 22.95 24 21.75 24H2.25C1.05 24 0 22.95 0 21.75V11.25C0 10.05 1.05 9 2.25 9H4.25C4.7 9 5 9.3 5 9.75C5 10.2 4.7 10.5 4.25 10.5H2.25C1.8 10.5 1.5 10.8 1.5 11.25V21.75C1.5 22.2 1.8 22.5 2.25 22.5H21.75C22.2 22.5 22.5 22.2 22.5 21.75V11.25C22.5 10.8 22.2 10.5 21.75 10.5H19.75C19.3 10.5 19 10.2 19 9.75C19 9.3 19.3 9 19.75 9Z"/><path fill="currentColor" fill-rule="evenodd" d="M9.75002 18.0002C9.33581 18.0002 9.00002 17.6645 9.00002 17.2502V8.50002H6.75002C6.45573 8.50002 6.18864 8.32791 6.06704 8.05994C5.94543 7.79195 5.9918 7.47761 6.18558 7.25615L11.4356 1.25607C11.578 1.09332 11.7837 1.00002 12 1.00002C12.2163 1.00002 12.422 1.09332 12.5645 1.25607L17.8145 7.25615C18.0083 7.47761 18.0546 7.79195 17.933 8.05994C17.8115 8.32791 17.5443 8.50002 17.25 8.50002H15V17.2502C15 17.6645 14.6642 18.0002 14.25 18.0002H9.75002ZM10.5 7.75002V16.5002H13.5V7.75002C13.5 7.33581 13.8358 7.00002 14.25 7.00002H15.5972L12 2.88897L8.40284 7.00002H9.75002C10.1642 7.00002 10.5 7.33581 10.5 7.75002Z" clip-rule="evenodd"/></svg>