<svg xmlns="http://www.w3.org/2000/svg" viewBox="0 0 24 24"><path fill="currentColor" d="M0 0H24V24H0zM17 6.5C17 9.26142 14.7614 11.5 12 11.5 9.23858 11.5 7 9.26142 7 6.5 7 3.73858 9.23858 1.5 12 1.5 14.7614 1.5 17 3.73858 17 6.5zM12.5 18.5C12.5 16.4072 13.5714 14.5647 15.1957 13.4911 14.1859 13.1719 13.1126 13 12 13 6.93149 13 2.67972 16.5672 1.52569 21.3747 1.3844 21.9632 1.84507 22.5 2.43911 22.5H14.0278C13.0777 21.4385 12.5 20.0367 12.5 18.5zM20.5 18.5C20.5 19.6046 19.6046 20.5 18.5 20.5 17.3954 20.5 16.5 19.6046 16.5 18.5 16.5 17.3954 17.3954 16.5 18.5 16.5 19.6046 16.5 20.5 17.3954 20.5 18.5z"/><path fill="currentColor" fill-rule="evenodd" d="M18.5 23C20.9853 23 23 20.9853 23 18.5C23 16.0147 20.9853 14 18.5 14C16.0147 14 14 16.0147 14 18.5C14 20.9853 16.0147 23 18.5 23ZM18.5 21.5C20.1569 21.5 21.5 20.1569 21.5 18.5C21.5 16.8431 20.1569 15.5 18.5 15.5C16.8431 15.5 15.5 16.8431 15.5 18.5C15.5 20.1569 16.8431 21.5 18.5 21.5Z" clip-rule="evenodd"/></svg>