<svg xmlns="http://www.w3.org/2000/svg" viewBox="0 0 24 24"><g fill="currentColor" clip-path="url(#clip0_3551_40)"><path d="M.000164683 1.50899C-.00559021 1.12112.139512.731431.435471.435471.731431.139512 1.12112-.00559042 1.50899.000164672 1.90841-.00567484 2.30969.143794 2.61446.448571L7.21405 5.04815C7.83613 2.99477 9.7435 1.5 12 1.5 14.7614 1.5 17 3.73858 17 6.5 17 8.7565 15.5052 10.6639 13.4518 11.286L16.8385 14.6726C17.4592 14.2453 18.2066 14 19 14 20.1119 14 21.1563 14.4976 21.8766 15.3245L23 14.5015 22.672 17.8636 19.4008 17.138 20.6329 16.2355C20.2054 15.8012 19.6191 15.5455 19 15.5455 18.6292 15.5455 18.2752 15.6346 17.9609 15.795L21.4375 19.2716 22.7111 19.6023C22.6491 19.8445 22.5652 20.0763 22.4618 20.2959L23.5514 21.3855C23.8562 21.6903 24.0057 22.0916 23.9998 22.491 24.0056 22.8789 23.8605 23.2686 23.5645 23.5645 23.4164 23.7127 23.2447 23.8231 23.0615 23.8956L23.0512 23.8853C22.4968 24.113 21.8358 24.0017 21.3855 23.5514L.448571 2.61446C.143794 2.30969-.00567503 1.90841.000164683 1.50899zM16.0577 21.2236L15.1629 20.3288 15 21.9985 16.0577 21.2236zM13.0094 18.1753L8.44566 13.6116C5.02913 14.8278 2.39616 17.7484 1.52569 21.3747 1.3844 21.9632 1.84507 22.5 2.43911 22.5H14.7251C13.6629 21.4972 13 20.076 13 18.5 13 18.391 13.0032 18.2827 13.0094 18.1753z"/></g></svg>