<svg xmlns="http://www.w3.org/2000/svg" viewBox="0 0 24 24"><path fill="currentColor" fill-rule="evenodd" d="M17 15.5294V19C17 20.1046 16.1046 21 15 21H2C0.89543 21 0 20.1046 0 19V5C0 3.89543 0.895431 3 2 3H15C16.1046 3 17 3.89543 17 5V8.47062L22.6672 6.47044C23.3178 6.24081 24 6.72348 24 7.41343V16.5866C24 17.2766 23.3178 17.7593 22.6672 17.5296L17 15.5294ZM2 4.5H15C15.2761 4.5 15.5 4.72386 15.5 5V19C15.5 19.2761 15.2761 19.5 15 19.5H2C1.72386 19.5 1.5 19.2761 1.5 19V5C1.5 4.72386 1.72386 4.5 2 4.5ZM17 13.9388L22.5 15.8799V8.12013L17 10.0613V13.9388Z" clip-rule="evenodd"/></svg>