<svg xmlns="http://www.w3.org/2000/svg" viewBox="0 0 24 24"><g fill="currentColor" clip-path="url(#clip0_969_6472)"><path d="M21.3855 23.5514C21.9836 24.1495 22.9533 24.1495 23.5514 23.5514 24.1495 22.9533 24.1495 21.9836 23.5514 21.3855L17.6098 15.4439 23.3143 17.7257C23.6427 17.8571 24 17.6152 24 17.2615V6.73852C24 6.38478 23.6427 6.14291 23.3143 6.27428L17 8.8V5C17 3.89543 16.1046 3 15 3H5.16589L2.61446.448571C2.01637-.149523 1.04667-.149524.448571.448571-.149524 1.04667-.149523 2.01637.448571 2.61446L21.3855 23.5514zM0 6.16589L14.8341 21H2C.89543 21 0 20.1046 0 19V6.16589z"/></g></svg>