<svg xmlns="http://www.w3.org/2000/svg" viewBox="0 0 24 24"><g fill="currentColor" clip-path="url(#clip0_969_6470)"><path d="M14.6.29676C15.65-.455256 17 .29676 17 1.49998V14.8341L23.5514 21.3855C24.1495 21.9836 24.1495 22.9533 23.5514 23.5514 22.9533 24.1495 21.9836 24.1495 21.3855 23.5514L.448571 2.61445C-.149524 2.01635-.149524 1.04665.448571.448556 1.04667-.149539 2.01637-.149539 2.61446.448556L7.30227 5.13636 14.6.29676zM.3414 6.50728L16.9076 23.0735C16.5859 23.9181 15.4861 24.2674 14.6 23.7597L6 17.9957 1.5 18C.6 18 0 17.447 0 16.5446V7.52041C0 7.11167.123092 6.76464.3414 6.50728z"/></g></svg>