<svg xmlns="http://www.w3.org/2000/svg" viewBox="0 0 24 24"><g fill="currentColor" clip-path="url(#clip0_970_5310)"><path d="M2.99988 0L4.49988 3 2.99988 6 5.99988 4.5 8.99988 6 7.49988 3 8.99988 0 5.99988 1.5 2.99988 0zM17.9999 6L20.9999 4.5 23.9999 6 22.4999 3 23.9999 0 20.9999 1.5 17.9999 0 19.4999 3 17.9999 6zM17.9999 21L19.4999 18 17.9999 15 20.9999 16.5 23.9999 15 22.4999 18 23.9999 21 20.9999 19.5 17.9999 21zM13.4087 7.40849L9.4386 11.3785 12.6206 14.5605 16.5906 10.5905 13.4087 7.40849zM.000976562 20.8179L8.38019 12.4387 11.5622 15.6206 3.18296 23.9999.000976562 20.8179z"/></g></svg>