<svg xmlns="http://www.w3.org/2000/svg" viewBox="0 0 24 24"><path fill="currentColor" d="M17.3108 2.18607C17.4525 1.79684 17.8829 1.59615 18.2721 1.73782 20.6131 2.58987 21.8201 5.17835 20.9681 7.51935 20.8264 7.90858 20.396 8.10927 20.0068 7.9676 19.6176 7.82593 19.4169 7.39555 19.5585 7.00632 20.1272 5.44379 19.3216 3.71607 17.7591 3.14736 17.3698 3.00569 17.1691 2.57531 17.3108 2.18607zM6.1191 10.1705C5.82118 10.0547 5.49461 10.0639 5.21122 10.1961 4.92784 10.3282 4.71086 10.5725 4.60802 10.8751 4.50517 11.1777 4.52489 11.5139 4.66283 11.8097L7.61012 18.1302C8.43776 19.9051 9.90696 21.2923 11.6945 21.9867 13.482 22.6811 15.4415 22.6258 17.1418 21.8329L18.5365 21.1826C19.4416 20.7602 20.243 20.1425 20.8881 19.3701 21.5332 18.5978 22.0072 17.6884 22.2791 16.7016L23.627 11.8183C23.7188 11.5144 23.7086 11.1843 23.5982 10.8801 23.4877 10.5758 23.2831 10.3146 23.0167 10.1376 22.7338 9.96284 22.4023 9.89724 22.0835 9.95291 21.7646 10.0086 21.4799 10.1817 21.2821 10.4404L19.4216 12.8723C19.3394 12.9795 19.2312 13.0625 19.1073 13.1134 18.9834 13.1642 18.8479 13.1812 18.7136 13.1628 18.5792 13.1443 18.4506 13.091 18.3399 13.008 18.2291 12.9249 18.14 12.8148 18.0808 12.6881L14.6544 5.34005C14.5164 5.04423 14.2716 4.81303 13.9736 4.69729 13.6757 4.58156 13.3491 4.59078 13.0657 4.72292 12.7824 4.85507 12.5654 5.09931 12.4625 5.40192 12.3597 5.70454 12.3794 6.04073 12.5174 6.33655L15.1179 11.9134 14.4056 12.2456 11.4583 5.92513C11.3203 5.62931 11.0755 5.39811 10.7776 5.28237 10.4796 5.16665 10.1531 5.17586 9.86966 5.308 9.58628 5.44015 9.3693 5.68439 9.26646 5.987 9.16361 6.28962 9.18333 6.62581 9.32127 6.92163L12.2686 13.2421 11.5562 13.5743 8.95568 7.99738C8.81774 7.70156 8.57287 7.47035 8.27495 7.35462 7.97703 7.23889 7.65046 7.2481 7.36707 7.38025 7.08369 7.51239 6.86671 7.75664 6.76387 8.05925 6.66102 8.36186 6.68074 8.69806 6.81868 8.99387L9.41923 14.5708 8.70689 14.9029 6.79983 10.8132C6.66189 10.5174 6.41702 10.2862 6.1191 10.1705zM3.55517 19.9617C3.9444 20.1034 4.37479 19.9027 4.51646 19.5135 4.65812 19.1243 4.45743 18.6939 4.0682 18.5522 2.50567 17.9835 1.70002 16.2558 2.26874 14.6932 2.41041 14.304 2.20972 13.8736 1.82048 13.732 1.43125 13.5903 1.00087 13.791.859199 14.1802.0071454 16.5212 1.21417 19.1097 3.55517 19.9617zM17.0317 3.59182C16.6425 3.45015 16.2121 3.65084 16.0704 4.04007 15.9287 4.42931 16.1294 4.85969 16.5187 5.00136 17.2332 5.26147 17.6018 6.05166 17.3417 6.7663 17.2 7.15554 17.4007 7.58592 17.7899 7.72759 18.1792 7.86926 18.6095 7.66857 18.7512 7.27933 19.2947 5.78622 18.5248 4.13527 17.0317 3.59182zM4.79566 18.108C5.18489 18.2497 5.61527 18.049 5.75694 17.6597 5.89861 17.2705 5.69792 16.8401 5.30869 16.6985 4.59405 16.4384 4.22557 15.6482 4.48568 14.9335 4.62735 14.5443 4.42666 14.1139 4.03743 13.9722 3.6482 13.8306 3.21781 14.0313 3.07614 14.4205 2.5327 15.9136 3.30255 17.5645 4.79566 18.108z"/></svg>