<svg xmlns="http://www.w3.org/2000/svg" fill="none" viewBox="0 0 24 24"><path fill="#803300" fill-rule="evenodd" d="M23.9979 16.3329L23.3294 15.6803L23.3162 7.66322L23.9979 7.0053L23.9979 16.3329L23.9979 16.3329Z" clip-rule="evenodd"/><path fill="#FF6600" d="M23.3293 7.66325H0.658196V15.6829H23.3293V7.66325Z"/><path fill="#FFCCAA" fill-rule="evenodd" d="M0.000246657 6.99993L24 7.00262L23.321 7.66063L0.665821 7.66844L0 6.99993L0.000246657 6.99993Z" clip-rule="evenodd"/><path fill="#552200" fill-rule="evenodd" d="M0.00292966 16.3328L24 16.3353L23.3288 15.6773H0.658371L0.00296966 16.3328L0.00292966 16.3328Z" clip-rule="evenodd"/><path fill="#FF9955" fill-rule="evenodd" d="M0.663391 15.6724L0.00026317 16.3332L0 7.00017L0.660702 7.66078L0.663393 15.6725L0.663391 15.6724Z" clip-rule="evenodd"/><path fill="#803300" d="M3.21143 9.57803H5.16056L6.17612 11.3397L7.16048 9.57803H9.09008L7.30888 12.3514L9.258 15.3044H7.26981L6.14092 13.4646L5.00817 15.3044H3.03171L5.00817 12.3201L3.21137 9.57803H3.21143ZM9.80492 9.57803H12.133L13.0314 13.0623L13.9259 9.57803H16.2461V15.3043H14.8009V10.9373L13.6798 15.3043H12.3713L11.2541 10.9373V15.3043H9.80498V9.57803H9.80492ZM17.3713 9.57803H19.1408V13.8943H21.9024V15.3043H17.3713V9.57803Z"/><path fill="#fff" d="M2.82838 8.95938H4.77751L5.79307 10.721L6.77743 8.95938H8.70703L6.92583 11.7327L8.87495 14.6858H6.88676L5.75787 12.846L4.62511 14.6858H2.64865L4.62511 11.7015L2.82831 8.95938H2.82838ZM9.42186 8.95938H11.7499L12.6483 12.4436L13.5428 8.95938H15.8631V14.6857H14.4178V10.3187L13.2968 14.6857H11.9882L10.8711 10.3187V14.6857H9.42193V8.95938H9.42186ZM16.9882 8.95938H18.7577V13.2756H21.5193V14.6857H16.9882V8.95938Z"/></svg>