<svg xmlns="http://www.w3.org/2000/svg" viewBox="0 0 24 24"><path fill="currentColor" fill-rule="evenodd" d="M11.2499 3.74996C7.10779 3.74996 3.74996 7.10779 3.74996 11.2499 3.74996 15.392 7.10779 18.7498 11.2499 18.7498 13.3008 18.7498 15.1595 17.9266 16.5135 16.5925 16.526 16.579 16.5389 16.5657 16.552 16.5525 16.5652 16.5393 16.5786 16.5264 16.5922 16.5138 17.9264 15.1598 18.7498 13.301 18.7498 11.2499 18.7498 7.10779 15.392 3.74996 11.2499 3.74996zM19.6593 17.5382C20.9721 15.7854 21.7498 13.6084 21.7498 11.2499 21.7498 5.45095 17.0488.749992 11.2499.749992 5.45095.749992.749992 5.45095.749992 11.2499.749992 17.0488 5.45095 21.7498 11.2499 21.7498 13.6083 21.7498 15.7851 20.9722 17.5379 19.6595L21.4393 23.5605C22.0251 24.1462 22.9748 24.1462 23.5606 23.5604 24.1463 22.9746 24.1463 22.0248 23.5605 21.4391L19.6593 17.5382zM5.74994 11.2499C5.74994 10.6976 6.19765 10.2499 6.74993 10.2499H15.7498C16.3021 10.2499 16.7498 10.6976 16.7498 11.2499 16.7498 11.8022 16.3021 12.2499 15.7498 12.2499H6.74993C6.19765 12.2499 5.74994 11.8022 5.74994 11.2499z" clip-rule="evenodd"/></svg>