<svg width="36" height="24" viewBox="0 0 36 24" fill="none" xmlns="http://www.w3.org/2000/svg">
<g clip-path="url(#clip0_865_3439)">
<path d="M14.9021 23.9571H0.618869C0.274271 23.9571 0 23.6714 0 23.3285V0.628571C0 0.278571 0.281304 0 0.618869 0H14.895L14.9021 23.9571Z" fill="#F5F5F5"/>
<path d="M9.93014 0L14.8951 1.49999L9.93014 2.99999L14.8951 4.49999L9.93014 5.99999L14.8951 7.49999L9.93014 8.99999L14.8951 10.5L9.93014 12L14.8951 13.5L9.93014 15L14.8951 16.5L9.93014 18L14.8951 19.5L9.93014 21L14.8951 22.5L9.93014 24H35.3812C35.7257 24 36 23.7143 36 23.3714V0.628571C36 0.278571 35.7187 0 35.3812 0H9.93014Z" fill="#FF4B55"/>
</g>
<defs>
<clipPath id="clip0_865_3439">
<rect width="36" height="24" fill="white"/>
</clipPath>
</defs>
</svg>
