<svg width="36" height="24" viewBox="0 0 36 24" fill="none" xmlns="http://www.w3.org/2000/svg">
<g clip-path="url(#clip0_865_3526)">
<path d="M8.07333 0H27.9404V24H8.07333V0Z" fill="#F5F5F5"/>
<path d="M0.61887 0.000485127C0.274272 0.000485127 0 0.286629 0 0.630001V23.3641C0 23.7147 0.281305 23.9936 0.61887 23.9936H8.06641V0.000485127H0.61887ZM35.3881 0.000485127H27.9335V23.9936H35.381C35.7256 23.9936 35.9999 23.7075 35.9999 23.3641V0.630001C36.007 0.279475 35.7256 0.000485127 35.3881 0.000485127ZM21.7732 14.7727L25.4582 12.6338L24.6143 12.2045C24.3752 12.0829 24.2416 11.8253 24.2768 11.5535L24.551 9.45754L22.9897 9.92252C22.6451 10.0226 22.2865 9.80806 22.2092 9.45039L22.0615 8.76364L20.5987 10.5092C20.3947 10.7523 20.0079 10.5663 20.0642 10.2516L20.6902 6.55318L19.7337 6.81787C19.4524 6.89655 19.157 6.76779 19.0234 6.5031L18.0037 4.57879L16.998 6.5031C16.8644 6.76064 16.569 6.8894 16.2877 6.81787L15.3313 6.55318L15.9572 10.2516C16.0135 10.5663 15.6267 10.7523 15.4226 10.5092L13.9599 8.76364L13.8123 9.45039C13.7348 9.80806 13.3762 10.0226 13.0316 9.92252L11.4704 9.45754L11.7446 11.5535C11.7798 11.8182 11.6462 12.0829 11.407 12.2045L10.5632 12.6338L14.2483 14.7727C14.628 14.9944 14.7968 15.4666 14.642 15.8814L14.3256 16.7399L17.4833 16.4681C17.6591 16.4538 17.8067 16.5968 17.7997 16.7757L17.7013 20.2094H18.3201L18.2217 16.7757C18.2147 16.5968 18.3623 16.4538 18.5381 16.4681L21.6957 16.7399L21.3793 15.8814C21.2246 15.4594 21.3864 14.9944 21.7732 14.7727Z" fill="#FF4B55"/>
</g>
<defs>
<clipPath id="clip0_865_3526">
<rect width="36" height="24" fill="white"/>
</clipPath>
</defs>
</svg>
