<svg width="36" height="24" viewBox="0 0 36 24" fill="none" xmlns="http://www.w3.org/2000/svg">
<g clip-path="url(#clip0_865_3545)">
<path d="M0 11.997H35.9998V17.999H0V11.997Z" fill="#73AF00"/>
<path d="M0 5.99499H35.9998V11.997H0V5.99499Z" fill="#F5F5F5"/>
<path d="M35.9998 5.99499H0V0.630001C0 0.279475 0.28125 0.000485127 0.618751 0.000485127H35.3743C35.7188 0.000485127 35.993 0.286629 35.993 0.630001L35.9998 5.99499Z" fill="#41479B"/>
<path d="M35.3813 23.9934H0.618751C0.274219 23.9934 0 23.7073 0 23.3638V17.999H35.9998L36 23.3638C36 23.7144 35.7188 23.9934 35.3813 23.9934ZM5.37889 0.808589L5.89921 2.38953L7.53748 2.40384C7.66405 2.40384 7.7203 2.56837 7.61483 2.64706L6.29999 3.63425L6.79217 5.22235C6.82733 5.34397 6.69374 5.44412 6.58827 5.37258L5.25936 4.40684L3.93045 5.37258C3.82499 5.44412 3.69139 5.34397 3.72655 5.22235L4.21874 3.63425L2.90389 2.64706C2.79843 2.56837 2.85468 2.40384 2.98124 2.40384L4.61952 2.38953L5.13983 0.808589C5.16795 0.686978 5.33671 0.686978 5.37889 0.808589Z" fill="#FFE15A"/>
<path d="M15.0543 0H20.9535V24H15.0543V0Z" fill="#FF4B55"/>
</g>
<defs>
<clipPath id="clip0_865_3545">
<rect width="36" height="24" fill="white"/>
</clipPath>
</defs>
</svg>
