<svg width="36" height="24" viewBox="0 0 36 24" fill="none" xmlns="http://www.w3.org/2000/svg">
<g clip-path="url(#clip0_865_3560)">
<path d="M36 12H0V0.629694C0 0.279069 0.28125 0 0.618751 0H35.3743C35.7188 0 35.993 0.286225 35.993 0.629694L36 12Z" fill="#F5F5F5"/>
<path d="M1.24453 12.0001V11.3704H0V12V23.3704C0 23.721 0.28125 24 0.618751 24H35.3743C35.7188 24 35.993 23.7138 35.993 23.3704V12.0001H1.24453Z" fill="#FF4B55"/>
<path d="M11.1727 12H0.618751C0.28125 12 0 11.7138 0 11.3704V0.629694C0 0.279069 0.28125 0 0.618751 0H11.1727C11.5172 0 11.7915 0.286225 11.7915 0.629694V11.3703C11.7915 11.7137 11.5172 12 11.1727 12Z" fill="#41479B"/>
<path d="M6.13834 3.30573L6.72896 5.10894L8.59927 5.12325C8.83835 5.12325 8.94381 5.4381 8.74693 5.58837L7.24224 6.71895L7.80475 8.53648C7.87506 8.77261 7.6149 8.96582 7.41802 8.8227L5.89928 7.71359L4.38052 8.8227C4.18365 8.96582 3.92349 8.77261 3.9938 8.53648L4.5563 6.71895L3.05161 5.58837C2.85474 5.44525 2.96021 5.13041 3.19927 5.12325L5.06959 5.10894L5.66022 3.30573C5.73755 3.06959 6.06099 3.06959 6.13834 3.30573Z" fill="#F5F5F5"/>
</g>
<defs>
<clipPath id="clip0_865_3560">
<rect width="36" height="24" fill="white"/>
</clipPath>
</defs>
</svg>
