<svg width="36" height="24" viewBox="0 0 36 24" fill="none" xmlns="http://www.w3.org/2000/svg">
<g clip-path="url(#clip0_865_3591)">
<path d="M0 8.20718H35.9998V15.7847H0V8.20718Z" fill="#FF4B55"/>
<path d="M0.618751 0H35.3743C35.7188 0 35.993 0.286226 35.993 0.629697V4.10733H0V0.629697C0 0.27907 0.28125 0 0.618751 0ZM35.3813 24H0.618751C0.274219 24 0 23.7138 0 23.3704V19.8927H36V23.3704C36 23.721 35.7188 24 35.3813 24Z" fill="#41479B"/>
<path d="M0 4.10733L36 4.10744V8.21477H0V4.10733ZM0 15.7926H36V19.9H0V15.7926ZM9.73117 15.1558C11.335 15.1558 12.635 13.743 12.635 12.0002C12.635 10.2573 11.335 8.84449 9.73117 8.84449C8.12739 8.84449 6.82726 10.2573 6.82726 12.0002C6.82726 13.743 8.12739 15.1558 9.73117 15.1558Z" fill="#F5F5F5"/>
<path d="M8.22639 10.7768H11.2289V12.3085H8.22639V10.7768Z" fill="#3CC8FF"/>
<path d="M8.5853 12.4437C8.78334 12.4437 8.94389 12.2803 8.94389 12.0787C8.94389 11.8772 8.78334 11.7138 8.5853 11.7138C8.38726 11.7138 8.2267 11.8772 8.2267 12.0787C8.2267 12.2803 8.38726 12.4437 8.5853 12.4437Z" fill="#FFE15A"/>
<path d="M10.3286 14.4473H9.13335L8.02944 13.5315V12.2005H11.531V13.5315L10.3286 14.4473Z" fill="#41479B"/>
<path d="M10.9336 11.7996C10.9336 11.7709 10.9126 11.7495 10.8844 11.7495C10.8563 11.7495 10.8353 11.7709 10.8353 11.7996C10.8353 11.9785 10.7368 12.2218 10.6102 12.3936C10.4345 12.1717 10.3711 11.9141 10.3501 11.7566C10.336 11.678 10.2586 11.635 10.1884 11.6708C10.1532 11.6851 10.1321 11.7209 10.125 11.7566C10.0477 12.2575 9.81568 12.4651 9.66802 12.5581C9.44302 12.3363 9.37271 11.9785 9.34458 11.7709C9.33755 11.6923 9.24614 11.6422 9.17583 11.678C9.14771 11.6923 9.12661 11.7209 9.11958 11.7495C8.80317 12.7226 7.9313 12.8228 7.9313 12.8228V13.1306H11.4329V12.6154C11.0321 12.508 10.9336 11.7996 10.9336 11.7996Z" fill="#73AF00"/>
<path d="M11.4331 10.8763C11.0323 10.676 11.0323 10.4685 11.0323 10.4685C11.0323 10.4685 10.533 10.2682 10.1322 10.2682C10.1322 10.2682 10.2307 10.0678 10.0338 10.0678C9.83692 10.0678 9.73146 10.0678 9.73146 10.0678C9.73146 10.0678 9.63302 10.0678 9.42912 10.0678C9.22521 10.0678 9.33067 10.2682 9.33067 10.2682C8.9299 10.2682 8.43068 10.4685 8.43068 10.4685C8.43068 10.4685 8.43068 10.6689 8.02989 10.8763C7.62912 11.0767 7.62912 11.5418 7.62912 11.5418C7.62912 11.6277 7.69943 11.6921 7.77677 11.6921C7.86114 11.6921 7.92443 11.6206 7.92443 11.5418C7.92443 11.5275 7.91739 11.5061 7.91739 11.4917H7.92443L8.92286 10.7762H10.526L11.5244 11.4917H11.5315C11.5244 11.5061 11.5244 11.5204 11.5244 11.5418C11.5244 11.6277 11.5947 11.6921 11.6721 11.6921C11.7495 11.6921 11.8198 11.6206 11.8198 11.5418C11.8338 11.5418 11.8339 11.0839 11.4331 10.8763ZM11.7353 12.1C11.6368 12.1 11.3345 12.1 11.3345 11.7923C11.3345 11.4846 11.7353 11.4846 11.7353 11.4846L11.1376 11.2843C10.9407 11.9999 11.3345 11.9999 11.3345 12.9158C11.3345 13.7387 10.4345 14.2396 10.1321 14.2396C9.82979 14.2396 9.73136 14.4399 9.73136 14.4399C9.73136 14.4399 9.63291 14.2396 9.33057 14.2396C9.02823 14.2396 8.12823 13.7387 8.12823 12.9158C8.12823 11.9999 8.52901 11.9999 8.3251 11.2843L7.72745 11.4846C7.72745 11.4846 8.12823 11.4846 8.12823 11.7923C8.12823 12.1 7.82588 12.1 7.72745 12.1C7.62901 12.1 7.22823 12.1 7.22823 12.608C7.22823 13.1162 7.72745 13.7315 8.43058 14.1394C9.1337 14.5472 8.83135 14.9551 9.73136 14.9551C10.6314 14.9551 10.329 14.5472 11.0322 14.1394C11.7353 13.7315 12.2344 13.1233 12.2344 12.608C12.2344 12.1 11.8337 12.1 11.7353 12.1Z" fill="#F0AA00"/>
<path d="M11.735 11.4917C11.735 11.32 11.5733 11.2413 11.4327 11.2127V11.134C11.2428 11.1125 11.1374 11.0409 10.9546 10.9193C10.8842 10.8692 10.8069 10.8119 10.7085 10.7547C10.3569 10.54 10.0826 10.5043 9.92798 10.5114V10.6832H9.52719V10.5114C9.37251 10.5043 9.09828 10.5329 8.74673 10.7547C8.64828 10.8119 8.57095 10.8692 8.50063 10.9193C8.31782 11.0481 8.21234 11.1197 8.0225 11.134V11.2127C7.88188 11.2484 7.72016 11.32 7.72016 11.4917L8.0225 11.3916V11.4345C8.30375 11.413 8.4725 11.3057 8.66938 11.1626C8.73969 11.1125 8.81001 11.0624 8.90141 11.0052C9.13344 10.862 9.30923 10.8191 9.42172 10.8119V10.9765H10.0194V10.8119C10.1389 10.8191 10.3147 10.8692 10.5397 11.0052C10.6311 11.0624 10.7085 11.1125 10.7717 11.1626C10.9686 11.2985 11.1303 11.413 11.4186 11.4345V11.3916L11.735 11.4917Z" fill="#F5F5F5"/>
<path d="M10.6525 9.75308C10.7018 9.71016 10.7299 9.66007 10.7299 9.60281C10.7299 9.32375 10.1041 9.24504 9.73144 9.24504C9.35878 9.24504 8.733 9.31659 8.733 9.60281C8.733 9.66007 8.76112 9.71016 8.81035 9.75308C8.8455 9.71731 8.32518 9.8318 8.07207 10.0751L8.18456 10.2468C8.18456 10.2468 8.54316 9.97491 8.733 9.9606C8.92284 9.94629 10.6174 9.9606 10.7369 9.9606C10.8564 9.9606 11.2783 10.2468 11.2853 10.2468L11.3978 10.0751C11.2291 9.90335 10.6244 9.72446 10.6525 9.75308Z" fill="#3CC8FF"/>
<path d="M9.86462 11.9285H9.64665C9.61853 11.9285 9.5904 11.9572 9.5904 11.9858V11.9929C9.54822 12.0501 9.5201 12.1146 9.5201 12.1146L9.5904 12.1432C9.59743 12.1719 9.61853 12.2004 9.64665 12.2004H9.86462C9.89274 12.2004 9.92087 12.2004 9.92087 12.1432V11.9929C9.91384 11.9572 9.88572 11.9285 9.86462 11.9285Z" fill="#F5F5F5"/>
<path d="M9.47114 12.1286L9.64693 12.2502H9.86489L9.96334 12.1644L9.88599 12.193H9.63286L9.47114 12.1286Z" fill="#8C5A28"/>
<path d="M10.1461 12.9371H9.54843C9.47811 12.9371 9.41483 13.0088 9.40078 13.0803C9.26718 13.2449 9.1828 13.438 9.1828 13.438L9.40078 13.5168C9.40078 13.6026 9.47811 13.6814 9.54843 13.6814H10.1461C10.2234 13.6814 10.2937 13.6814 10.2937 13.5168V13.1017C10.2937 13.0159 10.2234 12.9371 10.1461 12.9371Z" fill="#F5F5F5"/>
<path d="M9.04205 13.467L9.5483 13.8104H10.167L10.4483 13.5599L10.2304 13.653H9.5061L9.04205 13.467Z" fill="#8C5A28"/>
</g>
<defs>
<clipPath id="clip0_865_3591">
<rect width="36" height="24" fill="white"/>
</clipPath>
</defs>
</svg>
