<svg width="36" height="24" viewBox="0 0 36 24" fill="none" xmlns="http://www.w3.org/2000/svg">
<g clip-path="url(#clip0_865_3991)">
<path d="M36 4.80143H0V0.629697C0 0.27907 0.28125 0 0.618751 0H35.3743C35.7188 0 35.993 0.286226 35.993 0.629697L36 4.80143ZM0 9.60286H36V14.4043H0V9.60286ZM35.3813 24H0.618751C0.274219 24 0 23.7138 0 23.3703V19.1986H36V23.3703C36 23.721 35.7188 24 35.3813 24Z" fill="#FF4B55"/>
<path d="M0 4.80143H36V9.60286H0V4.80143ZM0 14.4043H36V19.2058H0V14.4043Z" fill="#F5F5F5"/>
<path d="M0.232032 23.8496L17.4094 12.3935C17.6907 12.2074 17.6907 11.7924 17.4094 11.6064L0.232032 0.150171C0.0914063 0.264661 0 0.436495 0 0.629697V23.3703C0 23.5634 0.0914063 23.7351 0.232032 23.8496Z" fill="#41479B"/>
<path d="M6.34216 9.06609L6.98904 11.041L9.03513 11.0554C9.30232 11.0554 9.40779 11.3988 9.19686 11.5634L7.55154 12.8013L8.17029 14.7906C8.24763 15.0482 7.95935 15.2629 7.74842 15.1054L6.08201 13.8961L4.4156 15.1054C4.19763 15.2629 3.90934 15.0482 3.99372 14.7906L4.61247 12.8013L2.96013 11.5706C2.74919 11.4131 2.85466 11.0625 3.12185 11.0625L5.16794 11.0482L5.81482 9.07324C5.89919 8.80849 6.25779 8.80849 6.34216 9.06609Z" fill="#F5F5F5"/>
</g>
<defs>
<clipPath id="clip0_865_3991">
<rect width="36" height="24" fill="white"/>
</clipPath>
</defs>
</svg>
