<svg width="36" height="24" viewBox="0 0 36 24" fill="none" xmlns="http://www.w3.org/2000/svg">
<g clip-path="url(#clip0_865_3786)">
<path d="M36 8.00008H0V0.629702C0 0.279073 0.28125 0 0.618751 0H35.3743C35.7188 0 35.993 0.286228 35.993 0.629702L36 8.00008Z" fill="#FAB446"/>
<path d="M35.3813 24H0.618751C0.274219 24 0 23.7138 0 23.3703V15.9999H36V23.3703C36 23.7209 35.7188 24 35.3813 24Z" fill="#73AF00"/>
<path d="M0 8.00008H36V15.9999H0V8.00008Z" fill="#F5F5F5"/>
<path fill-rule="evenodd" clip-rule="evenodd" d="M18.0002 8.60823C16.165 8.60823 14.6674 10.1324 14.6674 12.0001C14.6674 13.8677 16.158 15.3918 18.0002 15.3918C19.8424 15.3918 21.333 13.8677 21.333 12.0001C21.333 10.1324 19.8353 8.60823 18.0002 8.60823ZM20.7144 11.9284L18.9636 11.8426L18.5277 11.8856C18.5136 11.8139 18.4855 11.7567 18.4503 11.6995L18.7878 11.4204L19.9691 10.0966C20.4121 10.576 20.6933 11.2201 20.7144 11.9284ZM18.113 11.4634C18.1763 11.4776 18.2396 11.5063 18.2959 11.542L18.5701 11.1986L19.8708 9.99643C19.3997 9.53847 18.7669 9.2594 18.0708 9.23793L18.1552 11.0197L18.113 11.4634ZM17.8877 11.4634C17.8174 11.4776 17.7611 11.5063 17.7048 11.542L17.4306 11.1986L16.1299 9.99643C16.601 9.53847 17.2338 9.2594 17.9299 9.23793L17.8455 11.0197L17.8877 11.4634ZM17.8877 12.5367C17.8244 12.5224 17.7611 12.4937 17.7048 12.458L17.4306 12.8015L16.1299 14.0037C16.601 14.4616 17.2338 14.7407 17.9299 14.7621L17.8455 12.9803L17.8877 12.5367ZM18.113 12.5367C18.1833 12.5224 18.2396 12.4937 18.2959 12.458L18.5701 12.8015L19.8708 14.0037C19.3997 14.4616 18.7669 14.7407 18.0708 14.7621L18.1552 12.9803L18.113 12.5367ZM17.2126 11.4204L16.0313 10.0966C15.5883 10.576 15.3071 11.2201 15.286 11.9284L17.0368 11.8426L17.4727 11.8856C17.4868 11.8211 17.5149 11.7567 17.5501 11.6995L17.2126 11.4204ZM15.286 12.0716L17.0368 12.1574L17.4727 12.1146C17.4868 12.1861 17.5149 12.2433 17.5501 12.3006L17.2126 12.5797L16.0313 13.9035C15.5883 13.424 15.3071 12.7801 15.286 12.0716ZM18.7878 12.5797L19.9691 13.9035C20.4121 13.424 20.6933 12.7801 20.7144 12.0716L18.9636 12.1574L18.5277 12.1146C18.5136 12.1789 18.4855 12.2433 18.4503 12.3006L18.7878 12.5797Z" fill="#41479B"/>
</g>
<defs>
<clipPath id="clip0_865_3786">
<rect width="36" height="24" fill="white"/>
</clipPath>
</defs>
</svg>
