<svg width="36" height="24" viewBox="0 0 36 24" fill="none" xmlns="http://www.w3.org/2000/svg">
<g clip-path="url(#clip0_865_3725)">
<path d="M35.388 24H0.618869C0.274271 24 0 23.7138 0 23.3704V0.629697C0 0.27907 0.281304 0 0.618869 0H35.381C35.7256 0 35.9999 0.286226 35.9999 0.629697V23.3704C36.0069 23.721 35.7256 24 35.388 24Z" fill="#FF4B55"/>
<path d="M32.2796 3.78508V20.2073H3.72721V3.78508H32.2796Z" fill="#FFE15A"/>
<path d="M3.72721 3.78508L18.0034 11.9998L3.72721 20.2144V3.78508ZM32.2796 3.78508L18.0034 11.9998L32.2797 20.2144L32.2796 3.78508Z" fill="#73AF00"/>
<path d="M18.0034 14.5259C19.3746 14.5259 20.486 13.3949 20.486 11.9999C20.486 10.6049 19.3746 9.47396 18.0034 9.47396C16.6324 9.47396 15.521 10.6049 15.521 11.9999C15.521 13.3949 16.6324 14.5259 18.0034 14.5259Z" fill="#FF4B55"/>
<path d="M18.1585 10.1467L18.5453 11.3346L19.7759 11.3418C19.9377 11.3418 20.001 11.5493 19.8744 11.6423L18.8898 12.3864L19.2625 13.5743C19.3118 13.7318 19.136 13.8534 19.0094 13.7603L18.0037 13.0376L17.005 13.7675C16.8785 13.8605 16.7026 13.7318 16.7519 13.5815L17.1247 12.3937L16.14 11.6494C16.0135 11.5564 16.0768 11.3489 16.2385 11.3489L17.4693 11.3418L17.8561 10.1539C17.8983 9.99648 18.1092 9.99648 18.1585 10.1467ZM18.0949 0.837253L18.327 1.5385L19.0513 1.54566C19.1428 1.54566 19.1849 1.6673 19.1076 1.72455L18.5239 2.16105L18.7419 2.8623C18.7701 2.95533 18.6716 3.02687 18.5942 2.96963L18.0034 2.54029L17.4127 2.96963C17.3354 3.02687 17.2369 2.94816 17.265 2.8623L17.483 2.16105L16.8994 1.72455C16.822 1.6673 16.8642 1.54566 16.9557 1.54566L17.68 1.5385L17.912 0.837253C17.9402 0.744228 18.0668 0.744228 18.0949 0.837253ZM26.267 0.837253L26.4991 1.5385L27.2235 1.54566C27.3149 1.54566 27.3571 1.6673 27.2797 1.72455L26.696 2.16105L26.914 2.8623C26.9421 2.95533 26.8437 3.02687 26.7663 2.96963L26.1756 2.54029L25.5849 2.96963C25.5075 3.02687 25.409 2.94816 25.4371 2.8623L25.6552 2.16105L25.0715 1.72455C24.9942 1.6673 25.0364 1.54566 25.1277 1.54566L25.8521 1.5385L26.0841 0.837253C26.1053 0.744228 26.2319 0.744228 26.267 0.837253ZM9.93016 0.837253L10.1623 1.5385L10.8866 1.54566C10.978 1.54566 11.0202 1.6673 10.9429 1.72455L10.3591 2.16105L10.5771 2.8623C10.6053 2.95533 10.5068 3.02687 10.4295 2.96963L9.83873 2.54029L9.24799 2.96963C9.17063 3.02687 9.07218 2.94816 9.10031 2.8623L9.31832 2.16105L8.73461 1.72455C8.65725 1.6673 8.69946 1.54566 8.79087 1.54566L9.51524 1.5385L9.74731 0.837253C9.77543 0.744228 9.90202 0.744228 9.93016 0.837253ZM18.0949 21.0162L18.327 21.7174L19.0513 21.7245C19.1428 21.7245 19.1849 21.8463 19.1076 21.9035L18.5239 22.3399L18.7419 23.0412C18.7701 23.1343 18.6716 23.2058 18.5942 23.1486L18.0034 22.7192L17.4127 23.1486C17.3354 23.2058 17.2369 23.127 17.265 23.0412L17.483 22.3399L16.8994 21.9035C16.822 21.8463 16.8642 21.7245 16.9557 21.7245L17.68 21.7174L17.912 21.0162C17.9402 20.9231 18.0668 20.9231 18.0949 21.0162ZM26.267 21.0162L26.4991 21.7174L27.2235 21.7245C27.3149 21.7245 27.3571 21.8463 27.2797 21.9035L26.696 22.3399L26.914 23.0412C26.9421 23.1343 26.8437 23.2058 26.7663 23.1486L26.1756 22.7192L25.5849 23.1486C25.5075 23.2058 25.409 23.127 25.4371 23.0412L25.6552 22.3399L25.0715 21.9035C24.9942 21.8463 25.0364 21.7245 25.1277 21.7245L25.8521 21.7174L26.0841 21.0162C26.1053 20.9231 26.2319 20.9231 26.267 21.0162ZM9.93016 21.0162L10.1623 21.7174L10.8866 21.7245C10.978 21.7245 11.0202 21.8463 10.9429 21.9035L10.3591 22.3399L10.5771 23.0412C10.6053 23.1343 10.5068 23.2058 10.4295 23.1486L9.83873 22.7192L9.24799 23.1486C9.17063 23.2058 9.07218 23.127 9.10031 23.0412L9.31832 22.3399L8.73461 21.9035C8.65725 21.8463 8.69946 21.7245 8.79087 21.7245L9.51524 21.7174L9.74731 21.0162C9.77543 20.9231 9.90202 20.9231 9.93016 21.0162ZM8.30567 10.4186H6.75146V12.0001C6.75146 12.873 7.44769 13.5815 8.30567 13.5815C9.16364 13.5815 9.85987 12.873 9.85987 12.0001C9.85987 11.1271 9.16364 10.4186 8.30567 10.4186Z" fill="#FFE15A"/>
</g>
<defs>
<clipPath id="clip0_865_3725">
<rect width="36" height="24" fill="white"/>
</clipPath>
</defs>
</svg>
