<svg width="36" height="24" viewBox="0 0 36 24" fill="none" xmlns="http://www.w3.org/2000/svg">
<g clip-path="url(#clip0_865_3601)">
<path d="M0 15.9999H36V23.3703C36 23.7209 35.7188 24 35.3813 24H0.618751C0.274219 24 0 23.7138 0 23.3703V15.9999Z" fill="#41479B"/>
<path d="M0 8.0002H36V15.9999H0V8.0002ZM18.035 18.4046C20.2989 18.4046 22.1342 17.0622 22.1342 15.4064C22.1342 13.7505 20.2989 12.4081 18.035 12.4081C15.7711 12.4081 13.9358 13.7505 13.9358 15.4064C13.9358 17.0622 15.7711 18.4046 18.035 18.4046Z" fill="#F5F5F5"/>
<path fill-rule="evenodd" clip-rule="evenodd" d="M35.993 0.629702C35.993 0.286228 35.7188 0 35.3743 0H0.618751C0.28125 0 0 0.279073 0 0.629702V8.0002L13.3454 8.00008V13.8892C13.3454 16.501 15.4336 18.6263 18 18.6263C20.5665 18.6263 22.6547 16.501 22.6547 13.8892V8.00008H35.993V0.629702ZM20.6158 12.2506H22.3525V10.2255H20.6158V8.20759H18.872V10.2255H17.1354V8.20759H15.3986V10.2255H13.6619V12.2577H15.3986V14.2756L13.683 14.2828C13.6756 14.2376 13.6701 14.1924 13.6667 14.1472C13.6646 14.1067 13.663 14.0661 13.6619 14.0252C13.6619 14.0659 13.6635 14.1065 13.6667 14.1472C13.7081 14.9375 13.9567 15.6673 14.358 16.2936H15.3916V17.4241C15.8979 17.8106 16.4885 18.0896 17.1354 18.2255V16.2936H18.872L18.8791 18.2184C19.5048 18.0896 20.0815 17.8177 20.5806 17.4456C20.7284 17.3311 20.7423 17.3168 20.6018 17.4241V16.2936H18.872V14.2756H20.6088V16.2936H21.6424C21.9447 15.7711 22.2541 15.1486 22.3314 14.2756H20.6158V12.2506Z" fill="#FF4B55"/>
<path d="M15.3913 10.2327H17.1281V12.2506H15.3913V10.2327ZM18.8719 10.2327H20.6087V12.2506H18.8719V10.2327ZM17.1281 12.2506L18.8648 12.2505V14.2684H17.1282L17.1281 12.2506ZM15.3913 14.2756H17.1281V16.2936H15.3916L15.3913 14.2756Z" fill="#FF4B55"/>
<path d="M22.3032 4.74416C21.9094 4.76563 21.5227 4.80856 21.143 4.87296C21.0517 5.27368 21.0446 5.27368 21.143 4.86581C20.8336 4.63683 20.5102 4.42215 20.1727 4.22179C19.793 4.30766 19.4203 4.415 19.0548 4.52949C19.0266 4.89443 19.0266 4.90158 19.0548 4.52949C18.7172 4.35775 18.3657 4.19317 18 4.0429C17.6344 4.19317 17.2829 4.3506 16.9453 4.52949C16.5798 4.40784 16.2071 4.30766 15.8273 4.22179C15.4899 4.42215 15.1665 4.64398 14.8642 4.86581C14.4915 4.80856 14.0766 4.76563 13.6969 4.73701C13.3945 4.99461 13.0993 5.25937 12.8251 5.53129C13.0993 6.21108 13.3805 6.89088 13.6547 7.57067C13.936 7.45617 15.968 6.82647 18 6.82647C20.0321 6.82647 22.0641 7.46332 22.3454 7.58497C22.6266 6.89803 22.9079 6.21824 23.1821 5.53845C22.9008 5.25937 22.6056 4.99461 22.3032 4.74416Z" fill="#41479B"/>
<path d="M14.5408 6.0465C14.59 6.22539 14.4705 6.41144 14.2736 6.47584C14.0767 6.54025 13.8728 6.46153 13.8096 6.2898C13.7463 6.11806 13.8659 5.9177 14.0697 5.84614C14.2806 5.77458 14.4916 5.86761 14.5408 6.0465ZM22.0855 6.34702C21.9941 6.51161 21.7831 6.55453 21.6003 6.46151C21.4175 6.36849 21.3261 6.16813 21.3964 5.99639C21.4667 5.83181 21.6918 5.77457 21.8886 5.86759C22.0855 5.96062 22.1699 6.18244 22.0855 6.34702ZM17.9017 5.30945C17.9017 5.45256 17.7752 5.57421 17.6135 5.58136C17.4518 5.58853 17.3182 5.47403 17.3111 5.33092C17.3041 5.18781 17.4307 5.05901 17.5994 5.05184C17.7612 5.05184 17.9017 5.16634 17.9017 5.30945ZM18.6964 5.33093C18.6893 5.47403 18.5486 5.58853 18.394 5.58138C18.2322 5.57421 18.1057 5.45973 18.1057 5.30946C18.1057 5.16634 18.2463 5.04469 18.4081 5.05184C18.5698 5.05901 18.7033 5.18781 18.6964 5.33093ZM18.2816 5.99639C18.2745 6.13951 18.1479 6.26116 18.0003 6.26116C17.8456 6.26116 17.7261 6.14666 17.719 5.99639C17.712 5.85328 17.8386 5.72447 18.0003 5.73163C18.162 5.72447 18.2886 5.84612 18.2816 5.99639Z" fill="#FFE15A"/>
</g>
<defs>
<clipPath id="clip0_865_3601">
<rect width="36" height="24" fill="white"/>
</clipPath>
</defs>
</svg>
