<svg width="36" height="24" viewBox="0 0 36 24" fill="none" xmlns="http://www.w3.org/2000/svg">
<g clip-path="url(#clip0_865_3420)">
<path d="M35.388 24H0.618869C0.274271 24 0 23.7138 0 23.3704V0.629697C0 0.27907 0.281304 0 0.618869 0H35.381C35.7256 0 35.9999 0.286226 35.9999 0.629697V23.3704C36.0069 23.721 35.7256 24 35.388 24Z" fill="#41479B"/>
<path d="M17.3846 0H16.3086L10.556 3.83543V0H7.45455V3.83543L1.70189 0H0.618869C0.274271 0 0 0.286226 0 0.629697V1.1306L4.93688 4.42219H0V7.57783H4.93688L0 10.8694V11.3703C0 11.721 0.281304 12.0001 0.618869 12.0001H1.69486L7.44752 8.16459V12.0001H10.5489V8.16459L16.3016 12.0001H17.3776C17.7222 12.0001 17.9964 11.7137 17.9964 11.3703V10.8694L13.0596 7.57783H18.0034V4.42219H13.0666L18.0034 1.1306V0.629697C18.0034 0.27907 17.7222 0 17.3846 0Z" fill="#F5F5F5"/>
<path d="M18.0034 5.05188H9.93003V0H8.07342V5.05188H0V6.94813H8.07342V12.0001H9.93003V6.94813H18.0034V5.05188ZM6.82865 4.42218L0.295369 0.107324C0.119554 0.214659 0 0.407871 0 0.629697V0.665465L5.68937 4.42218H6.82865ZM11.6952 4.42219L17.912 0.314848C17.8066 0.128802 17.6166 0 17.3846 0H17.251L10.556 4.42219H11.6952ZM6.29413 7.57783L0.0913808 11.678C0.196869 11.8712 0.393783 12.0001 0.625858 12.0001H0.745412L7.44044 7.57783H6.29413ZM17.9964 11.4204L12.1805 7.57783H11.0412L17.6449 11.9356C17.8418 11.8426 17.9754 11.6494 17.9964 11.4204Z" fill="#FF4B55"/>
<path d="M9.19146 15.4416L9.66264 17.0158L11.1677 16.4075C11.2942 16.3574 11.4138 16.5077 11.3364 16.6222L10.4222 17.9746L11.8287 18.7904C11.9482 18.8619 11.906 19.0481 11.7725 19.0552L10.162 19.1697L10.4081 20.794C10.4292 20.9299 10.2605 21.0158 10.169 20.9085L9.07893 19.6992L7.98888 20.9085C7.89745 21.0087 7.72867 20.9299 7.74977 20.794L7.99591 19.1697L6.38544 19.0552C6.2448 19.0481 6.20963 18.8619 6.32918 18.7904L7.73571 17.9746L6.82146 16.6222C6.74411 16.5077 6.85663 16.3574 6.99025 16.4075L8.49523 17.0158L8.96641 15.4416C8.95937 15.3128 9.14925 15.3128 9.19146 15.4416ZM27.6591 4.25014L27.8911 5.0158L28.6226 4.71526C28.6858 4.68664 28.7421 4.76535 28.7069 4.81544L28.2568 5.47376L28.946 5.87447C29.0023 5.91026 28.9812 5.99612 28.9179 6.00327L28.1302 6.06052L28.2498 6.85479C28.2568 6.9192 28.1795 6.96214 28.1302 6.91205L27.5957 6.31812L27.0613 6.91205C27.0191 6.96214 26.9347 6.9192 26.9417 6.85479L27.0613 6.06052L26.2736 6.00327C26.2033 5.99612 26.1892 5.91026 26.2455 5.87447L26.9347 5.47376L26.4846 4.81544C26.4495 4.7582 26.5057 4.68664 26.569 4.71526L27.3004 5.0158L27.5325 4.25014C27.5465 4.18574 27.6379 4.18574 27.6591 4.25014ZM22.5534 10.1536L22.7855 10.9263L23.5169 10.6258C23.5801 10.5972 23.6364 10.6759 23.6013 10.726L23.1512 11.3844L23.8403 11.7851C23.8966 11.8208 23.8755 11.9067 23.8123 11.9138L23.0246 11.9711L23.1441 12.7653C23.1512 12.8297 23.0738 12.8727 23.0246 12.8226L22.4901 12.2287L21.9556 12.8226C21.9135 12.8727 21.8291 12.8297 21.8361 12.7653L21.9556 11.9711L21.168 11.9138C21.0977 11.9067 21.0836 11.8208 21.1399 11.7851L21.8291 11.3844L21.3789 10.726C21.3438 10.6688 21.4001 10.5972 21.4633 10.6258L22.1947 10.9263L22.4268 10.1607C22.4409 10.0891 22.5323 10.0891 22.5534 10.1536ZM32.4833 7.6276L32.7154 8.39325L33.4468 8.09272C33.5101 8.06409 33.5663 8.14281 33.5312 8.1929L33.0811 8.85122L33.7703 9.25194C33.8266 9.28771 33.8055 9.37358 33.7422 9.38074L32.9545 9.43798L33.074 10.2323C33.0811 10.2966 33.0037 10.3396 32.9545 10.2895L32.4201 9.7099L31.8856 10.3038C31.8434 10.3539 31.759 10.3109 31.766 10.2465L31.8856 9.4523L31.0979 9.39505C31.0276 9.38789 31.0135 9.30203 31.0698 9.26624L31.759 8.86553L31.3089 8.20721C31.2737 8.14997 31.33 8.07841 31.3932 8.10703L32.1246 8.40757L32.3567 7.64191C32.3779 7.5632 32.4692 7.5632 32.4833 7.6276ZM27.6591 17.7314L27.8911 18.4971L28.6226 18.1965C28.6858 18.1679 28.7421 18.2466 28.7069 18.2967L28.2568 18.955L28.946 19.3557C29.0023 19.3915 28.9812 19.4773 28.9179 19.4845L28.1302 19.5417L28.2498 20.3361C28.2568 20.4005 28.1795 20.4433 28.1302 20.3933L27.5957 19.7993L27.0613 20.3933C27.0191 20.4433 26.9347 20.4005 26.9417 20.3361L27.0613 19.5417L26.2736 19.4845C26.2033 19.4773 26.1892 19.3915 26.2455 19.3557L26.9347 18.955L26.4846 18.2967C26.4495 18.2394 26.5057 18.1679 26.569 18.1965L27.3004 18.4971L27.5325 17.7314C27.5465 17.667 27.6379 17.667 27.6591 17.7314ZM29.4312 11.5346L29.2484 12.0927L28.6647 12.0998C28.5873 12.0998 28.5592 12.2 28.6155 12.243L29.0796 12.5936L28.9038 13.1589C28.8826 13.2305 28.96 13.2949 29.0233 13.2448L29.4945 12.9013L29.9656 13.2448C30.029 13.2878 30.1063 13.2305 30.0853 13.1589L29.9094 12.5936L30.3736 12.243C30.4369 12.2 30.4017 12.0998 30.3243 12.0998L29.7407 12.0927L29.5578 11.5346C29.5508 11.463 29.4523 11.463 29.4312 11.5346Z" fill="#F5F5F5"/>
</g>
<defs>
<clipPath id="clip0_865_3420">
<rect width="36" height="24" fill="white"/>
</clipPath>
</defs>
</svg>
