<svg width="36" height="24" viewBox="0 0 36 24" fill="none" xmlns="http://www.w3.org/2000/svg">
<g clip-path="url(#clip0_865_3869)">
<path d="M0 1.7142H35.9999V3.42841H0V1.7142ZM0 5.14261H35.9999V6.8568H0V5.14261ZM0 8.57172H35.9999V10.2859H0V8.57172ZM0 12.0001H35.9999V13.7144H0V12.0001ZM0 15.4285H35.9999V17.1427H0V15.4285ZM0 18.8577H35.9999V20.5719H0V18.8577ZM35.3793 24H0.620717C0.277945 24 0 23.7172 0 23.3684V22.2857H35.9999V23.3684C35.9999 23.7172 35.722 24 35.3793 24Z" fill="#F5F5F5"/>
<path d="M35.9999 1.7142H0V0.631594C0 0.282814 0.277945 0 0.620717 0H35.3793C35.7221 0 36 0.282814 36 0.631594L35.9999 1.7142ZM0 3.42841H35.9999V5.14261H0V3.42841ZM0 6.8568H35.9999V8.57172H0V6.8568ZM0 10.2859H35.9999V12.0001H0V10.2859ZM35.9999 15.4285H0V12.6314H0.620717L0.620858 13.714L35.9999 13.7144V15.4285ZM0 17.1427H35.9999V18.8566H0V17.1427ZM0 20.5708H35.9999V22.2857H0V20.5708Z" fill="#FF4B55"/>
<path d="M21.7241 13.714H0.620858C0.278085 13.714 0 13.4312 0 13.0823V0.631594C0 0.282814 0.277945 0 0.620717 0H21.7241C22.0669 0 22.3449 0.282814 22.3449 0.631594V13.0823C22.3448 13.4313 22.0669 13.714 21.7241 13.714Z" fill="#41479B"/>
<path d="M5.89652 6.85051C5.89652 4.46186 7.80199 2.52422 10.1473 2.52422C10.7375 2.52422 11.2986 2.64714 11.8096 2.86864C11.8759 2.8974 11.9259 2.80346 11.8663 2.76211C11.0209 2.17645 9.98685 1.85557 8.8777 1.91424C6.43934 2.04323 4.44549 4.04168 4.28784 6.52098C4.10454 9.40479 6.34723 11.7938 9.13651 11.7938C10.1446 11.7938 11.0815 11.4777 11.8597 10.9419C11.9195 10.9006 11.8699 10.8066 11.8033 10.8352C11.294 11.0551 10.7352 11.177 10.1474 11.177C7.80199 11.1769 5.89652 9.23923 5.89652 6.85051ZM15.6134 6.85051L17.4104 6.14302C17.4992 6.10803 17.469 5.97302 17.374 5.98076L15.4539 6.13722L16.7734 4.70204C16.8386 4.63128 16.7538 4.52318 16.6715 4.57198L15.0038 5.56186L15.5794 3.68912C15.6077 3.59668 15.4853 3.53665 15.4321 3.61693L14.3525 5.2442L14.0755 3.30192C14.0619 3.20598 13.9258 3.20591 13.912 3.30184L13.735 4.53083L13.6616 5.05096L13.6334 5.24427L12.5538 3.61835C12.5005 3.53808 12.378 3.59818 12.4065 3.69062L12.9842 5.56179L11.3167 4.5719C11.2344 4.52304 11.1496 4.63121 11.2148 4.70197L12.5342 6.13715L10.6136 5.98068C10.5186 5.97295 10.4883 6.10796 10.5772 6.14294L12.3758 6.85044L10.5771 7.55809C10.4881 7.59308 10.5185 7.72808 10.6135 7.72035L12.5342 7.56389L11.2147 9.00265C11.1496 9.07354 11.2346 9.1815 11.3168 9.13257L12.9843 8.13918L12.4066 10.0104C12.3781 10.1028 12.5005 10.1629 12.5539 10.0826L13.6335 8.45669L13.7351 9.17013L13.9121 10.4024C13.9259 10.4985 14.062 10.4983 14.0757 10.4023L14.3526 8.45683L15.4322 10.0841C15.4856 10.1644 15.6079 10.1045 15.5795 10.0119L15.004 8.13918L16.6714 9.13257C16.7536 9.1815 16.8386 9.07354 16.7735 9.00265L15.454 7.56389L17.3741 7.72035C17.4692 7.72808 17.4995 7.59308 17.4106 7.55809L15.6134 6.85051Z" fill="#FFE15A"/>
</g>
<defs>
<clipPath id="clip0_865_3869">
<rect width="36" height="24" fill="white"/>
</clipPath>
</defs>
</svg>
