<svg width="36" height="24" viewBox="0 0 36 24" fill="none" xmlns="http://www.w3.org/2000/svg">
<g clip-path="url(#clip0_865_4125)">
<path d="M0 15.9999H36V23.3703C36 23.7209 35.7188 24 35.3813 24H0.618751C0.274219 24 0 23.7138 0 23.3703V15.9999Z" fill="#73AF00"/>
<path d="M0.618751 0H35.3743C35.7188 0 35.993 0.286228 35.993 0.629702V8.00008H0V0.629702C0 0.279073 0.28125 0 0.618751 0Z" fill="#FF4B55"/>
<path d="M0 8.00008L35.9998 7.99988L36 15.9999H0V8.00008Z" fill="#F5F5F5"/>
<path d="M18.1477 13.1307V11.8498C18.2111 11.7067 18.3516 11.6066 18.5134 11.6066C18.5697 11.6066 18.6258 11.6208 18.6751 11.6423L18.858 11.7282L18.8298 11.5278C18.7736 11.1057 18.415 10.7908 18.0001 10.7908C17.5852 10.7908 17.2266 11.1057 17.1704 11.5278L17.1423 11.7282L17.3251 11.6423C17.3814 11.6208 17.4305 11.6066 17.4868 11.6066C17.6486 11.6066 17.7891 11.7067 17.8525 11.8498V13.145C17.8525 13.2237 17.7259 13.4527 17.4939 13.6029C17.6064 13.6602 17.7188 13.6888 17.8384 13.696C17.9016 13.6387 17.9509 13.5743 18.0001 13.5028C18.0423 13.5601 18.0845 13.6173 18.1407 13.6674C18.2533 13.6459 18.3587 13.6029 18.4641 13.5457C18.2603 13.4098 18.1477 13.2022 18.1477 13.1307ZM15.476 15.1987L15.5674 15.4778C16.1861 15.2702 17.0721 15.1486 18.0002 15.1486C18.9284 15.1486 19.8143 15.2702 20.433 15.4778L20.5245 15.1987C19.8776 14.9769 18.9565 14.8552 18.0002 14.8552C17.044 14.8552 16.1229 14.9769 15.476 15.1987ZM15.4125 13.8033L15.5039 14.0824C16.1226 13.8748 17.0086 13.7532 17.9368 13.7532C18.8648 13.7532 19.7508 13.8748 20.3696 14.0824L20.4609 13.8033C19.8141 13.5815 18.893 13.4599 17.9368 13.4599C16.9805 13.4599 16.0594 13.5815 15.4125 13.8033ZM16.5867 14.7265C16.7459 14.7265 16.875 14.595 16.875 14.433C16.875 14.271 16.7459 14.1396 16.5867 14.1396C16.4275 14.1396 16.2985 14.271 16.2985 14.433C16.2985 14.595 16.4275 14.7265 16.5867 14.7265ZM18.0138 14.5976C18.1731 14.5976 18.3021 14.4663 18.3021 14.3042C18.3021 14.1422 18.1731 14.0109 18.0138 14.0109C17.8546 14.0109 17.7255 14.1422 17.7255 14.3042C17.7255 14.4663 17.8546 14.5976 18.0138 14.5976ZM19.4062 14.7407C19.5654 14.7407 19.6945 14.6093 19.6945 14.4474C19.6945 14.2853 19.5654 14.1539 19.4062 14.1539C19.247 14.1539 19.1179 14.2853 19.1179 14.4474C19.1179 14.6093 19.247 14.7407 19.4062 14.7407ZM14.9067 11.3703C15.1358 11.3703 15.3215 11.1814 15.3215 10.9482C15.3215 10.7151 15.1358 10.526 14.9067 10.526C14.6776 10.526 14.4919 10.7151 14.4919 10.9482C14.4919 11.1814 14.6776 11.3703 14.9067 11.3703ZM16.2216 10.0322C16.4507 10.0322 16.6364 9.84323 16.6364 9.61006C16.6364 9.37689 16.4507 9.18787 16.2216 9.18787C15.9924 9.18787 15.8067 9.37689 15.8067 9.61006C15.8067 9.84323 15.9924 10.0322 16.2216 10.0322ZM18.0001 9.53136C18.2292 9.53136 18.415 9.34234 18.415 9.10917C18.415 8.876 18.2292 8.68698 18.0001 8.68698C17.771 8.68698 17.5852 8.876 17.5852 9.10917C17.5852 9.34234 17.771 9.53136 18.0001 9.53136ZM19.7653 10.0322C19.9944 10.0322 20.1801 9.84323 20.1801 9.61006C20.1801 9.37689 19.9944 9.18787 19.7653 9.18787C19.5363 9.18787 19.3505 9.37689 19.3505 9.61006C19.3505 9.84323 19.5363 10.0322 19.7653 10.0322ZM21.0654 11.3632C21.2945 11.3632 21.4803 11.1742 21.4803 10.9411C21.4803 10.7078 21.2945 10.5188 21.0654 10.5188C20.8363 10.5188 20.6506 10.7078 20.6506 10.9411C20.6506 11.1742 20.8363 11.3632 21.0654 11.3632ZM21.5512 13.1737C21.7803 13.1737 21.9661 12.9846 21.9661 12.7514C21.9661 12.5183 21.7803 12.3292 21.5512 12.3292C21.3221 12.3292 21.1364 12.5183 21.1364 12.7514C21.1364 12.9846 21.3221 13.1737 21.5512 13.1737ZM14.4777 13.2165C14.7069 13.2165 14.8926 13.0275 14.8926 12.7944C14.8926 12.5612 14.7069 12.3721 14.4777 12.3721C14.2486 12.3721 14.0629 12.5612 14.0629 12.7944C14.0629 13.0275 14.2486 13.2165 14.4777 13.2165Z" fill="#FFCD5A"/>
</g>
<defs>
<clipPath id="clip0_865_4125">
<rect width="36" height="24" fill="white"/>
</clipPath>
</defs>
</svg>
