<svg width="36" height="24" viewBox="0 0 36 24" fill="none" xmlns="http://www.w3.org/2000/svg">
<g clip-path="url(#clip0_865_4212)">
<path d="M35.388 24H0.618869C0.274271 24 0 23.7138 0 23.3703V0.629696C0 0.27907 0.281304 0 0.618869 0H35.381C35.7256 0 35.9999 0.286225 35.9999 0.629696V23.3703C36.0069 23.7209 35.7256 24 35.388 24Z" fill="#FF4B55"/>
<path d="M18.3343 4.85696L19.9978 9.9141L25.2563 9.95696C25.5523 9.95696 25.6722 10.3427 25.4325 10.5141L21.2032 13.6784L22.7892 18.757C22.8808 19.0427 22.5566 19.2784 22.3169 19.0998L18.0453 16.007L13.7666 19.107C13.527 19.2784 13.2098 19.0427 13.2943 18.7641L14.8803 13.6855L10.651 10.5212C10.4114 10.3427 10.5382 9.9641 10.8272 9.9641L16.0857 9.92124L17.7492 4.8641C17.8479 4.57124 18.2427 4.57124 18.3343 4.85696Z" fill="#FFE15A"/>
</g>
<defs>
<clipPath id="clip0_865_4212">
<rect width="36" height="24" fill="white"/>
</clipPath>
</defs>
</svg>
