<svg width="36" height="24" viewBox="0 0 36 24" fill="none" xmlns="http://www.w3.org/2000/svg">
<g clip-path="url(#clip0_865_4140)">
<path d="M35.3813 24H0.618751C0.274219 24 0 23.7138 0 23.3704V0.629697C0 0.27907 0.28125 0 0.618751 0H35.3743C35.7188 0 35.993 0.286226 35.993 0.629697V23.3704C36 23.721 35.7188 24 35.3813 24Z" fill="#F5F5F5"/>
<path d="M35.3813 24H0.618751C0.274219 24 0 23.7138 0 23.3704V20.2146H36V23.3703C36 23.7209 35.7188 24 35.3813 24ZM0.618751 0H35.3743C35.7188 0 35.993 0.286226 35.993 0.629697V3.78534H0V0.629697C0 0.27907 0.28125 0 0.618751 0Z" fill="#FF4B55"/>
<path d="M0 7.57806H35.9998V16.4229H0V7.57806Z" fill="#41479B"/>
</g>
<defs>
<clipPath id="clip0_865_4140">
<rect width="36" height="24" fill="white"/>
</clipPath>
</defs>
</svg>
