<svg width="36" height="24" viewBox="0 0 36 24" fill="none" xmlns="http://www.w3.org/2000/svg">
<g clip-path="url(#clip0_865_3412)">
<path d="M35.3813 24H0.618751C0.274219 24 0 23.7138 0 23.3704V0.629697C0 0.27907 0.28125 0 0.618751 0H35.3743C35.7188 0 35.993 0.286226 35.993 0.629697V23.3704C36 23.721 35.7188 24 35.3813 24Z" fill="#4173CD"/>
<path d="M0 16.422H36V17.6884H0V16.422ZM0 18.9479H36V20.2144H0V18.9479Z" fill="#FFE15A"/>
<path d="M4.58448 6.26851L2.27823 5.46707L4.58448 4.66564L5.37198 2.3186L6.16651 4.66564L8.47276 5.46707L6.16651 6.26851L5.37198 8.62271L4.58448 6.26851Z" fill="#FF4B55"/>
<path fill-rule="evenodd" clip-rule="evenodd" d="M5.11869 2.65447L5.37182 1.89596L5.63197 2.64731L6.27182 4.55786L8.14213 5.20902L8.88744 5.46663L8.14213 5.72423L6.26478 6.3754L5.62495 8.28595L5.37182 9.04446L5.11869 8.28595L4.47885 6.3754L2.6015 5.72423L1.85619 5.46663L2.6015 5.20902L4.47885 4.55786L5.11869 2.65447ZM6.05379 4.77253L5.37176 2.74033L4.68972 4.77253L2.69285 5.46663L4.68972 6.16073L5.37176 8.19294L6.05379 6.16073L8.05066 5.46663L6.05379 4.77253Z" fill="#F5F5F5"/>
</g>
<defs>
<clipPath id="clip0_865_3412">
<rect width="36" height="24" fill="white"/>
</clipPath>
</defs>
</svg>
