<svg width="36" height="24" viewBox="0 0 36 24" fill="none" xmlns="http://www.w3.org/2000/svg">
<g clip-path="url(#clip0_865_3470)">
<path d="M35.9999 12.0002H0V0.632084C0 0.283306 0.277945 0.000490547 0.620718 0.000490547H35.3793C35.7221 0.000490547 36 0.283306 36 0.632084L35.9999 12.0002Z" fill="#FFE15A"/>
<path d="M0 12.0002H35.9999V23.3684C35.9999 23.7172 35.722 24 35.3792 24H0.620718C0.277945 24 0 23.7172 0 23.3684V12.0002Z" fill="#FF4B55"/>
<path d="M12 23.9994L0.620718 24C0.277945 24 0 23.7172 0 23.3684V0.632084C0 0.283306 0.277945 0.000490547 0.620718 0.000490547L12 0V23.9994Z" fill="#73AF00"/>
</g>
<defs>
<clipPath id="clip0_865_3470">
<rect width="36" height="24" fill="white"/>
</clipPath>
</defs>
</svg>
