<svg width="36" height="24" viewBox="0 0 36 24" fill="none" xmlns="http://www.w3.org/2000/svg">
<g clip-path="url(#clip0_865_3513)">
<path d="M36 12.0001H0V0.6297C0 0.279071 0.28125 0 0.61875 0H35.3742C35.7188 0 35.993 0.286227 35.993 0.6297L36 12.0001Z" fill="#FF4B55"/>
<path d="M0 12.0001H36V23.3703C36 23.7209 35.7188 24 35.3813 24H0.61875C0.274219 24 0 23.7137 0 23.3703V12.0001Z" fill="#73AF00"/>
<path d="M18.1898 8.55786L18.9703 10.9407L21.4383 10.9621C21.6282 10.9621 21.7055 11.2126 21.5578 11.3271L19.575 12.8227L20.3203 15.2198C20.3766 15.4058 20.1727 15.5561 20.018 15.4488L18 13.9747L15.9891 15.4345C15.8343 15.5489 15.6234 15.3915 15.6867 15.2055L16.432 12.8083L14.4492 11.3128C14.2945 11.1982 14.3718 10.9479 14.5687 10.9479L17.0367 10.9264L17.8172 8.54354C17.8734 8.3718 18.1265 8.3718 18.1898 8.55786Z" fill="#FFE15A"/>
</g>
<defs>
<clipPath id="clip0_865_3513">
<rect width="36" height="24" fill="white"/>
</clipPath>
</defs>
</svg>
