<svg width="36" height="24" viewBox="0 0 36 24" fill="none" xmlns="http://www.w3.org/2000/svg">
<g clip-path="url(#clip0_865_3911)">
<path d="M24.0021 0.000485127H35.3811C35.7257 0.000485127 36 0.286629 36 0.630001V23.3641C36 23.7147 35.7186 23.9936 35.3811 23.9936H24.0021V0.000485127Z" fill="#FF4B55"/>
<path d="M12.0055 0H24.01V24H12.0055V0Z" fill="#FFE15A"/>
<path d="M0.618883 0.000485127H11.9979V23.9936H0.618883C0.274277 23.9936 0 23.7075 0 23.3641V0.630001C0 0.279475 0.28131 0.000485127 0.618883 0.000485127Z" fill="#41479B"/>
<path d="M22.884 12.1972C22.877 12.1613 22.8488 12.1256 22.8136 12.1042L22.6026 11.9754L22.4761 11.8967L22.3917 11.8467C22.3705 11.8323 22.3424 11.8251 22.3143 11.8251C22.2651 11.8251 22.2159 11.8538 22.1878 11.8967L21.6954 12.7194V8.66329C21.6954 8.24122 21.3579 7.90501 20.95 7.90501C20.542 7.90501 20.2045 8.24837 20.2045 8.66329V8.92081C20.1904 8.92081 20.1693 8.92081 20.1552 8.92081C19.6841 8.92081 19.2902 9.27134 19.2199 9.72916H19.0933C19.0441 9.32856 18.9105 8.14107 18.9105 7.65463C18.9105 6.94642 18.4182 6.68889 17.961 6.68889C17.6234 6.68889 17.4054 6.81766 17.3069 6.88919H17.3C17.3069 6.87488 17.3069 6.85343 17.3069 6.83912V6.63882C17.3069 6.55298 17.2367 6.48859 17.1593 6.48859H17.1101V6.43852C17.1452 6.37413 17.0749 6.30975 16.9905 6.30975H16.7936C16.7092 6.30975 16.646 6.38129 16.646 6.45998V6.51006H16.5967C16.5123 6.51006 16.449 6.58159 16.449 6.66028V6.86058C16.449 6.94642 16.5193 7.01081 16.5967 7.01081H16.646V7.86923C16.646 7.95508 16.7162 8.01946 16.7936 8.01946H16.9905C17.0749 8.01946 17.1382 7.94792 17.1382 7.86923V7.71901L17.3 7.84062L17.4266 7.93362L17.0679 9.74347H16.7303C16.66 9.28565 16.2661 8.93512 15.7949 8.93512C15.7808 8.93512 15.7598 8.93512 15.7457 8.93512V8.67759C15.7457 8.25553 15.4082 7.91931 15.0002 7.91931C14.5924 7.91931 14.2547 8.26268 14.2547 8.67759V12.0541C14.1774 11.9683 14.086 11.8967 13.9735 11.8467C13.9664 11.8467 13.9594 11.8395 13.9523 11.8395C13.875 11.8108 13.7836 11.7894 13.6921 11.7894C13.2843 11.7894 12.9537 12.1256 12.9537 12.5405C12.9537 12.9554 13.2843 13.2916 13.6921 13.2916C13.7273 13.2916 13.7625 13.2916 13.7977 13.2845C13.8187 13.2988 13.8328 13.3131 13.854 13.3203C13.7625 13.4419 13.7133 13.5921 13.7133 13.7566C13.7133 14.0928 13.9313 14.379 14.2337 14.472V16.7683C14.2337 16.8326 14.2688 16.8827 14.3251 16.9114C14.3462 16.9185 14.3603 16.9257 14.3813 16.9257C14.4235 16.9257 14.4588 16.9114 14.4869 16.8827C14.508 16.8613 14.9792 16.382 15.0987 15.8168C15.1479 15.7525 15.7879 16.6824 15.7879 16.6824C15.8161 16.7111 17.8837 18.1132 17.8837 18.1132C17.9119 18.1346 17.9399 18.1418 17.968 18.1418C17.9962 18.1418 18.0314 18.1346 18.0524 18.1132C18.0524 18.1132 20.303 16.704 20.3381 16.6681C20.3381 16.6681 20.8656 15.9814 20.8726 15.9528C21.0343 16.4464 21.4211 16.847 21.4423 16.8684C21.4704 16.897 21.5126 16.9114 21.5477 16.9114C21.5689 16.9114 21.5829 16.9043 21.604 16.897C21.6603 16.8756 21.6954 16.8183 21.6954 16.754V14.0714L22.1103 13.3704C22.1174 13.3704 22.1315 13.3704 22.1385 13.3704C22.1878 13.3704 22.2369 13.3417 22.2651 13.2988L22.8629 12.2973C22.891 12.2758 22.898 12.2329 22.884 12.1972Z" fill="#FFAA5A"/>
<path d="M15.7951 9.90792C15.7951 9.90792 15.7951 12.798 15.7951 13.7565C15.7951 14.7724 17.2368 14.6365 17.9893 15.3805C18.7348 14.6365 20.1835 14.7724 20.1835 13.7565C20.1835 12.7908 20.1835 9.90792 20.1835 9.90792H15.7951Z" fill="#FF4B55"/>
<path d="M15.7951 12.1329C15.7951 12.7768 15.7951 13.3988 15.7951 13.7565C15.7951 14.7724 17.2368 14.6365 17.9893 15.3805C18.7348 14.6365 20.1835 14.7724 20.1835 13.7565C20.1835 13.3988 20.1835 12.7768 20.1835 12.1329H15.7951Z" fill="#41479B"/>
<path d="M18.3896 12.7409C18.3896 12.7409 19.578 11.718 19.578 11.1242C19.578 10.3088 18.7834 10.1085 18.7834 10.1085C18.7834 10.1085 19.5288 11.2387 18.5091 11.6822L18.3896 11.5248H17.5878L17.4683 11.6822C16.4485 11.2315 17.194 10.1085 17.194 10.1085C17.194 10.1085 16.3993 10.3088 16.3993 11.1242C16.3993 11.7109 17.5878 12.7409 17.5878 12.7409V13.957L17.3908 14.3648L17.9887 14.7726L18.5865 14.3648L18.3896 13.957V12.7409ZM19.2906 13.4849C19.3328 13.256 19.5227 13.0914 19.7407 13.07C19.6985 13.0486 19.6493 13.0271 19.593 13.0128C19.3116 12.9555 19.0445 13.1415 18.9882 13.4277C18.9319 13.7139 19.1148 13.9857 19.3961 14.0429C19.4453 14.0501 19.5016 14.0501 19.5508 14.0501C19.3609 13.9356 19.2484 13.7139 19.2906 13.4849ZM18.0031 11.1744C18.2479 11.1744 18.4462 10.9726 18.4462 10.7237C18.4462 10.4747 18.2479 10.273 18.0031 10.273C17.7585 10.273 17.5601 10.4747 17.5601 10.7237C17.5601 10.9726 17.7585 11.1744 18.0031 11.1744ZM16.7094 13.9427C16.9541 13.9427 17.1525 13.7409 17.1525 13.492C17.1525 13.2432 16.9541 13.0414 16.7094 13.0414C16.4647 13.0414 16.2663 13.2432 16.2663 13.492C16.2663 13.7409 16.4647 13.9427 16.7094 13.9427ZM16.6044 16.6398L16.2458 16.0675L17.2866 15.252L16.6044 16.6398ZM15.8867 15.4809L15.8233 14.3149L16.3649 14.7227L15.8867 15.4809ZM19.4179 16.6398L19.7837 16.0675L18.7358 15.252L19.4179 16.6398ZM20.1356 15.4809L20.1988 14.3149L19.6574 14.7227L20.1356 15.4809Z" fill="#FFE15A"/>
<path d="M16.4702 16.7186L15.577 15.3093C15.6684 15.2091 15.7317 15.0804 15.7317 14.9302C15.7317 14.6297 15.4926 14.3865 15.1972 14.3865C15.1339 14.3865 15.0707 14.4008 15.0144 14.4222L14.8526 14.1719C14.9651 14.0717 15.0354 13.9287 15.0354 13.7641C15.0354 13.4637 14.7964 13.2204 14.501 13.2204C14.4236 13.2204 14.3462 13.2419 14.2759 13.2705L14.0509 12.92C14.1423 12.8198 14.1986 12.691 14.1986 12.548C14.1986 12.2476 13.9594 12.0043 13.6641 12.0043C13.3687 12.0043 13.1296 12.2476 13.1296 12.548C13.1296 12.8485 13.3687 13.0916 13.6641 13.0916C13.7485 13.0916 13.8188 13.0702 13.8891 13.0416L14.1142 13.3921C14.0228 13.4922 13.9665 13.621 13.9665 13.7713C13.9665 14.0717 14.2055 14.315 14.501 14.315C14.5642 14.315 14.6276 14.3007 14.6838 14.2792L14.8456 14.5296C14.733 14.6297 14.6627 14.7728 14.6627 14.9373C14.6627 15.2378 14.9018 15.481 15.1972 15.481C15.2746 15.481 15.3519 15.4667 15.4153 15.4309L16.3084 16.8329L16.4702 16.7186Z" fill="#73AF00"/>
<path d="M15.5285 15.6023C15.6373 15.6023 15.7254 15.5126 15.7254 15.402C15.7254 15.2913 15.6373 15.2017 15.5285 15.2017C15.4197 15.2017 15.3316 15.2913 15.3316 15.402C15.3316 15.5126 15.4197 15.6023 15.5285 15.6023ZM14.7694 14.4148C14.8781 14.4148 14.9663 14.3251 14.9663 14.2145C14.9663 14.1039 14.8781 14.0142 14.7694 14.0142C14.6606 14.0142 14.5724 14.1039 14.5724 14.2145C14.5724 14.3251 14.6606 14.4148 14.7694 14.4148ZM14.0088 13.2201C14.1175 13.2201 14.2056 13.1304 14.2056 13.0198C14.2056 12.9092 14.1175 12.8195 14.0088 12.8195C13.9 12.8195 13.8118 12.9092 13.8118 13.0198C13.8118 13.1304 13.9 13.2201 14.0088 13.2201Z" fill="#FF4B55"/>
</g>
<defs>
<clipPath id="clip0_865_3911">
<rect width="36" height="24" fill="white"/>
</clipPath>
</defs>
</svg>
