<svg width="36" height="24" viewBox="0 0 36 24" fill="none" xmlns="http://www.w3.org/2000/svg">
<g clip-path="url(#clip0_865_3520)">
<path d="M35.3814 24H0.618754C0.27422 24 0 23.7138 0 23.3704V0.629697C0 0.27907 0.281252 0 0.618754 0H35.3745C35.719 0 35.9932 0.286226 35.9932 0.629697V23.3704C36.0002 23.721 35.719 24 35.3814 24Z" fill="#41479B"/>
<path d="M0 5.68167H36V18.3182H0V5.68167Z" fill="#FF4B55"/>
<path d="M24.4548 14.1036V12.3147L24.75 11.1197L23.2805 8.12866H22.697L21.5227 11.1197H19.7578L18.1476 6.64028H17.8524L16.2422 11.1197H14.4773L13.3031 8.12866H12.7195L11.25 11.1197L11.5452 12.3147V14.1036L9.49214 17.6814H26.5078L24.4548 14.1036Z" fill="#F5F5F5"/>
</g>
<defs>
<clipPath id="clip0_865_3520">
<rect width="36" height="24" fill="white"/>
</clipPath>
</defs>
</svg>
