<svg width="36" height="24" viewBox="0 0 36 24" fill="none" xmlns="http://www.w3.org/2000/svg">
<g clip-path="url(#clip0_865_3698)">
<path d="M36 8.00008H0V0.629702C0 0.279073 0.28125 0 0.618751 0H35.3743C35.7188 0 35.993 0.286228 35.993 0.629702L36 8.00008Z" fill="#FF4B55"/>
<path d="M35.3813 24H0.618751C0.274219 24 0 23.7138 0 23.3703V15.9999H36V23.3703C36 23.7209 35.7188 24 35.3813 24Z" fill="#73AF00"/>
<path d="M0 8.00008H36V15.9999H0V8.00008Z" fill="#FFE15A"/>
<path d="M18.2605 8.98773L18.9074 10.9627L20.9535 10.977C21.2207 10.977 21.3262 11.3204 21.1153 11.485L19.4699 12.723L20.0887 14.7123C20.1661 14.9699 19.8778 15.1846 19.6668 15.0271L18.0004 13.8107L16.334 15.02C16.116 15.1774 15.8277 14.9628 15.9121 14.7051L16.5309 12.7158L14.8856 11.4779C14.6746 11.3204 14.7801 10.9698 15.0473 10.9698L17.0934 10.9556L17.7403 8.98057C17.8246 8.73012 18.1762 8.73012 18.2605 8.98773Z" fill="#464655"/>
</g>
<defs>
<clipPath id="clip0_865_3698">
<rect width="36" height="24" fill="white"/>
</clipPath>
</defs>
</svg>
