<svg width="36" height="24" viewBox="0 0 36 24" fill="none" xmlns="http://www.w3.org/2000/svg">
<g clip-path="url(#clip0_865_3632)">
<path d="M35.3815 24H0.618756C0.274221 24 0 23.7138 0 23.3704V0.629697C0 0.27907 0.281253 0 0.618756 0H35.3746C35.7191 0 35.9933 0.286226 35.9933 0.629697V23.3704C36.0003 23.721 35.7191 24 35.3815 24Z" fill="#F5F5F5"/>
<path d="M14.8994 9.47407H0.618756C0.274221 9.47407 0 9.18784 0 8.84437V0.629697C0 0.27907 0.281253 0 0.618756 0H14.8923C15.2368 0 15.5111 0.286226 15.5111 0.629697V8.84437C15.5181 9.18784 15.2368 9.47407 14.8994 9.47407ZM35.3815 24H21.1077C20.7631 24 20.4889 23.7138 20.4889 23.3704V15.1557C20.4889 14.8051 20.7702 14.526 21.1077 14.526H35.3812C35.7258 14.526 36 14.8122 36 15.1557V23.3704C36 23.721 35.7191 24 35.3815 24Z" fill="#41479B"/>
<path d="M35.3812 9.47407H21.1077C20.7631 9.47407 20.4889 9.18784 20.4889 8.84437V0.629697C20.4889 0.27907 20.7702 0 21.1077 0H35.3812C35.7258 0 36 0.286226 36 0.629697V8.84437C36 9.18784 35.7188 9.47407 35.3812 9.47407ZM14.8994 24H0.618756C0.274221 24 0 23.7138 0 23.3704V15.1557C0 14.8051 0.281253 14.526 0.618756 14.526H14.8923C15.2368 14.526 15.5111 14.8122 15.5111 15.1557V23.3704C15.5181 23.721 15.2368 24 14.8994 24Z" fill="#FF4B55"/>
<path d="M18.2818 10.1969V10.984L17.7263 10.9984V10.1969H16.7208L16.7068 11.6066H17.7263V11.3633L18.2818 11.3561V11.6066H19.2943L19.2803 10.1969H18.2818Z" fill="#464655"/>
<path d="M18.2043 11.7422H17.7824V12.0713C17.7824 12.0785 17.7754 12.0785 17.7754 12.0856H16.7066V12.837C16.7066 13.0445 16.8684 13.2091 17.0723 13.2091H17.6277C17.7824 13.2091 17.909 13.2878 17.9863 13.3952C18.0637 13.2878 18.1973 13.2091 18.3449 13.2091H18.9004C19.1043 13.2091 19.266 13.0445 19.266 12.837V12.0856H18.2043V11.7422ZM18.2527 13.9819L17.9995 14.0463L17.7464 13.9819C17.6901 13.9676 17.634 14.0106 17.634 14.0749V14.2037C17.634 14.2681 17.6901 14.3111 17.7464 14.2968L17.9995 14.2323V14.2395L18.2527 14.3039C18.309 14.3182 18.3651 14.2752 18.3651 14.2109V14.0749C18.3651 14.0106 18.309 13.9676 18.2527 13.9819ZM15.6021 14.1322C15.6514 14.2467 15.7076 14.3612 15.7569 14.4685C15.9397 14.3826 16.9944 13.9104 18.035 13.9104C19.0545 13.9104 20.0671 14.3826 20.2428 14.4685C20.292 14.3612 20.3483 14.2467 20.3975 14.1322C20.2639 14.0678 19.1319 13.6026 17.9998 13.6026C16.8678 13.6026 15.7428 14.0678 15.6021 14.1322Z" fill="#FF6B71"/>
<path d="M15.8345 10.7834C15.7149 10.9623 15.4759 11.5133 15.5672 11.9926C15.6586 12.465 15.9609 13.0517 16.5024 13.4452C17.0438 13.8388 17.2688 13.8817 17.2688 13.8817L17.9438 13.8031C17.9438 13.8031 17.9509 13.481 17.6345 13.202C17.3181 12.9229 16.9454 12.8657 16.6852 12.3289C16.4251 11.7923 16.4813 11.1411 16.4039 10.8836C16.3266 10.6259 15.9609 10.5974 15.8345 10.7834ZM20.0954 10.7834C20.2149 10.9623 20.454 11.5133 20.3625 11.9926C20.2712 12.4721 19.9688 13.0517 19.4274 13.4452C18.886 13.8388 18.661 13.8817 18.661 13.8817L17.986 13.8031C17.986 13.8031 17.979 13.481 18.2954 13.202C18.6118 12.9229 18.9845 12.8657 19.2446 12.3289C19.5048 11.7923 19.4485 11.1411 19.5258 10.8836C19.6032 10.6259 19.9688 10.5974 20.0954 10.7834Z" fill="#64B496"/>
<path d="M17.9577 9.24504C16.8818 9.24504 15.785 10.1824 15.6021 10.4401C15.7006 10.5116 15.799 10.5903 15.8975 10.6619C16.1014 10.3828 16.8115 9.61713 17.9787 9.61713C19.1459 9.61713 19.9546 10.4543 20.1092 10.6619C20.2076 10.5903 20.3061 10.5116 20.4045 10.4401C20.1725 10.118 19.2796 9.24504 17.9577 9.24504Z" fill="#41479B"/>
</g>
<defs>
<clipPath id="clip0_865_3632">
<rect width="36" height="24" fill="white"/>
</clipPath>
</defs>
</svg>
