<svg width="36" height="24" viewBox="0 0 36 24" fill="none" xmlns="http://www.w3.org/2000/svg">
<g clip-path="url(#clip0_865_3758)">
<path d="M36 8.00001H0V0.629697C0 0.27907 0.28125 0 0.618751 0H35.3743C35.7188 0 35.993 0.286226 35.993 0.629697L36 8.00001ZM35.3813 24H0.618751C0.274219 24 0 23.7138 0 23.3704V16H36V23.3704C36 23.721 35.7188 24 35.3813 24Z" fill="#4173CD"/>
<path d="M0 8.00001H36V16H0V8.00001Z" fill="#F5F5F5"/>
<path d="M18.0912 10.9694L18.3162 11.6492L19.0193 11.6563C19.1107 11.6563 19.1459 11.7781 19.0756 11.8282L18.5131 12.2503L18.724 12.9301C18.7521 13.016 18.6537 13.0947 18.5764 13.0374L18.0068 12.6224L17.4373 13.0374C17.3599 13.0947 17.2616 13.016 17.2897 12.9301L17.5006 12.2503L16.9381 11.8282C16.8677 11.7708 16.903 11.6563 16.9943 11.6563L17.6975 11.6492L17.9225 10.9694C17.9366 10.8836 18.063 10.8836 18.0912 10.9694ZM11.7494 12.787L11.9744 13.4668L12.6774 13.4739C12.7689 13.4739 12.804 13.5956 12.7337 13.6457L12.1712 14.0679L12.3822 14.7477C12.4103 14.8335 12.3119 14.9123 12.2345 14.855L11.665 14.4399L11.0954 14.855C11.0181 14.9123 10.9196 14.8335 10.9478 14.7477L11.1587 14.0679L10.5963 13.6457C10.5259 13.5884 10.561 13.4739 10.6525 13.4739L11.3556 13.4668L11.5806 12.787C11.6017 12.7011 11.7212 12.7011 11.7494 12.787ZM11.7494 9.15192L11.9744 9.8317L12.6774 9.83886C12.7689 9.83886 12.804 9.9605 12.7337 10.0106L12.1712 10.4328L12.3822 11.1126C12.4103 11.1984 12.3119 11.2772 12.2345 11.2199L11.665 10.8048L11.0954 11.2199C11.0181 11.2772 10.9196 11.1984 10.9478 11.1126L11.1587 10.4328L10.5963 10.0106C10.5259 9.95335 10.561 9.83886 10.6525 9.83886L11.3556 9.8317L11.5806 9.15192C11.6017 9.05889 11.7212 9.05889 11.7494 9.15192ZM24.4264 12.787L24.6514 13.4668L25.3545 13.4739C25.4459 13.4739 25.4811 13.5956 25.4107 13.6457L24.8482 14.0679L25.0592 14.7477C25.0873 14.8335 24.9889 14.9123 24.9116 14.855L24.342 14.4399L23.7724 14.855C23.6951 14.9123 23.5967 14.8335 23.6248 14.7477L23.8358 14.0679L23.2733 13.6457C23.203 13.5884 23.2381 13.4739 23.3295 13.4739L24.0327 13.4668L24.2576 12.787C24.2788 12.7011 24.3983 12.7011 24.4264 12.787ZM24.4264 9.15192L24.6514 9.8317L25.3545 9.83886C25.4459 9.83886 25.4811 9.9605 25.4107 10.0106L24.8482 10.4328L25.0592 11.1126C25.0873 11.1984 24.9889 11.2772 24.9116 11.2199L24.342 10.8048L23.7724 11.2199C23.6951 11.2772 23.5967 11.1984 23.6248 11.1126L23.8358 10.4328L23.2733 10.0106C23.203 9.95335 23.2381 9.83886 23.3295 9.83886L24.0327 9.8317L24.2576 9.15192C24.2788 9.05889 24.3983 9.05889 24.4264 9.15192Z" fill="#4173CD"/>
</g>
<defs>
<clipPath id="clip0_865_3758">
<rect width="36" height="24" fill="white"/>
</clipPath>
</defs>
</svg>
