<svg width="36" height="24" viewBox="0 0 36 24" fill="none" xmlns="http://www.w3.org/2000/svg">
<g clip-path="url(#clip0_865_3898)">
<path d="M12.0046 23.9936H0.618869C0.274271 23.9936 0 23.7075 0 23.3641V0.630001C0 0.279475 0.281304 0.000485127 0.618869 0.000485127H11.9976L12.0046 23.9936Z" fill="#73AF00"/>
<path d="M12.0042 0H24.0084V24H12.0042V0Z" fill="#F5F5F5"/>
<path d="M35.3881 23.9936H24.0023V0.000485127H35.381C35.7256 0.000485127 35.9999 0.286629 35.9999 0.630001V23.3641C36.007 23.7147 35.7256 23.9936 35.3881 23.9936Z" fill="#FF4B55"/>
<path d="M19.0725 12.5623L18.0035 13.106V13.6497H18.538L19.0725 12.5623Z" fill="#FFD250"/>
<path d="M20.8659 12.7623C20.9714 12.6551 20.9784 12.4833 20.88 12.3761C20.7745 12.2687 20.6057 12.2616 20.5002 12.3617C19.804 13.0198 18.9179 13.3776 18.0036 13.3776C17.0894 13.3776 16.2033 13.0198 15.5071 12.3617C15.3946 12.2616 15.2258 12.2687 15.1273 12.3761C15.0289 12.4905 15.0359 12.6622 15.1414 12.7623C15.8658 13.442 16.78 13.8497 17.7364 13.9141V14.4578C17.2582 14.4148 16.787 14.2575 16.3791 13.9856L16.0838 14.4363C16.6534 14.8154 17.3144 15.0228 18.0036 15.0228C18.6928 15.0228 19.3539 14.8154 19.9236 14.4363L19.6282 13.9856C19.2203 14.2575 18.7491 14.4148 18.2709 14.4578V13.9141C19.2273 13.8497 20.1416 13.4491 20.8659 12.7623Z" fill="#00AADC"/>
<path d="M17.2858 9.07107C17.2155 9.01384 16.9341 8.74915 16.9341 8.74915L16.3996 9.29283V9.49313C16.3574 9.48598 16.3083 9.47882 16.266 9.47882C16.1325 9.47882 16.1184 9.41444 16.1113 9.38583C16.0972 9.32144 16.1254 9.22129 16.1886 9.18553L15.9425 8.69908C15.6612 8.8493 15.5136 9.18553 15.5909 9.51459C15.6682 9.82934 15.9284 10.0225 16.266 10.0225C16.3856 10.0225 16.491 10.0868 16.5051 10.1369C16.5122 10.1584 16.491 10.2013 16.4349 10.2514C16.1184 10.5375 15.4502 11.1384 15.9425 11.7108C16.0621 11.8467 16.2308 11.9111 16.3856 11.9611C16.6669 12.0541 16.6669 12.0827 16.6529 12.19C16.6388 12.2759 16.5122 12.326 16.3856 12.326C15.9777 12.326 15.3026 11.9468 15.1127 10.8237L14.5852 10.9167C14.8103 12.2616 15.6542 12.8696 16.3645 12.8696C16.3786 12.8696 16.3856 12.8696 16.3996 12.8696C16.8286 12.8553 17.138 12.6049 17.1802 12.2473C17.2436 11.675 16.7934 11.5248 16.5544 11.4389C16.484 11.4174 16.3715 11.3746 16.3434 11.3459C16.2238 11.21 16.4349 10.974 16.7864 10.652C17.1099 10.3587 17.0466 10.0583 17.0044 9.94381C16.9622 9.82934 16.8778 9.72204 16.7724 9.64336C16.9553 9.55036 17.1521 9.45021 17.2506 9.40013C17.3983 9.32859 17.3702 9.15691 17.2858 9.07107ZM18.0033 16.1031C15.4926 16.1031 13.4533 14.0285 13.4533 11.4747H13.9877C13.9877 13.7281 15.7881 15.5593 18.0033 15.5593C20.2186 15.5593 22.0189 13.7281 22.0189 11.4747H22.5534C22.5534 14.0213 20.5139 16.1031 18.0033 16.1031Z" fill="#AAD264"/>
<path d="M21.2176 12.562C21.7521 7.66182 18.0036 8.2055 18.0036 8.2055C19.0727 8.74917 18.5381 9.83652 18.5381 9.83652V9.85083C18.5101 9.78644 18.4819 9.7149 18.4467 9.65053C18.1724 9.0997 17.6168 8.74917 17.012 8.74917L16.9341 8.74915L16.9347 9.29285C17.2301 9.29285 17.4692 9.53606 17.4692 9.83652C17.1527 10.1584 17.0683 10.6592 17.2722 11.0669L17.3918 11.3102C17.42 11.3674 17.4551 11.4246 17.4973 11.4747L16.991 12.2687L16.8855 12.5764L18.2428 12.2544L19.0727 13.0985V12.5548L19.6141 13.1057C20.6831 12.562 20.6831 12.562 20.6831 12.562L19.0164 11.5462C18.9671 11.2028 18.8968 10.8666 18.7913 10.5376L20.1486 11.3388C20.3314 11.8753 20.7113 12.3617 21.2176 12.562Z" fill="#9B4B5A"/>
</g>
<defs>
<clipPath id="clip0_865_3898">
<rect width="36" height="24" fill="white"/>
</clipPath>
</defs>
</svg>
