<svg width="36" height="24" viewBox="0 0 36 24" fill="none" xmlns="http://www.w3.org/2000/svg">
<g clip-path="url(#clip0_865_3536)">
<path d="M35.388 24H0.618869C0.274271 24 0 23.7138 0 23.3704V0.629697C0 0.27907 0.281304 0 0.618869 0H35.381C35.7256 0 35.9999 0.286226 35.9999 0.629697V23.3704C36.0069 23.721 35.7256 24 35.388 24Z" fill="#41479B"/>
<path d="M17.3846 0H16.3086L10.556 3.83543V0H7.45455V3.83543L1.70189 0H0.618869C0.274271 0 0 0.286226 0 0.629697V1.1306L4.93688 4.42219H0V7.57783H4.93688L0 10.8694V11.3703C0 11.721 0.281304 12.0001 0.618869 12.0001H1.69486L7.44752 8.16459V12.0001H10.5489V8.16459L16.3016 12.0001H17.3776C17.7222 12.0001 17.9964 11.7137 17.9964 11.3703V10.8694L13.0596 7.57783H18.0034V4.42219H13.0666L18.0034 1.1306V0.629697C18.0034 0.27907 17.7222 0 17.3846 0Z" fill="#F5F5F5"/>
<path d="M18.0034 5.05188H9.93003V0H8.07342V5.05188H0V6.94813H8.07342V12.0001H9.93003V6.94813H18.0034V5.05188ZM6.82865 4.42218L0.295369 0.107324C0.119554 0.214659 0 0.407871 0 0.629697V0.665465L5.68937 4.42218H6.82865ZM11.695 4.42219L17.9118 0.314848C17.8064 0.128802 17.6167 0 17.3846 0H17.2508L10.5558 4.42219H11.695ZM6.29431 7.57783L0.0915627 11.678C0.197052 11.8712 0.393964 12.0001 0.62604 12.0001H0.745594L7.44063 7.57783H6.29431ZM17.9964 11.4204L12.1805 7.57783H11.0412L17.6449 11.9356C17.8418 11.8426 17.9754 11.6494 17.9964 11.4204ZM30.3667 12.0789H23.6154V9.53862C23.6154 8.74435 23.5592 8.90892 24.2343 8.90892H29.7478C30.43 8.90892 30.3667 8.84453 30.3667 9.53862V12.0789Z" fill="#FF4B55"/>
<path d="M27.0543 7.81385C27.8465 7.81385 28.4889 7.06419 28.4889 6.13944C28.4889 5.21467 27.8465 4.46501 27.0543 4.46501C26.2619 4.46501 25.6196 5.21467 25.6196 6.13944C25.6196 7.06419 26.2619 7.81385 27.0543 7.81385ZM32.4485 17.1949L31.8507 16.3291C31.8437 16.3291 31.7101 16.4221 31.5061 16.4937C31.7242 16.1574 31.914 15.7995 32.0617 15.4203L31.0982 15.0339C30.9224 15.4776 30.6833 15.8854 30.388 16.2504C30.1418 16.0142 29.959 15.6779 29.8254 15.3631L29.1643 16.3649C29.3049 16.601 29.4667 16.8085 29.6354 16.9803C28.897 17.5456 27.9757 17.889 26.9841 17.889C25.9925 17.889 25.0784 17.5527 24.3469 16.9946C24.5087 16.8371 24.6493 16.6511 24.776 16.4293C24.8251 16.3505 24.2063 15.2414 24.2063 15.2414C24.0727 15.5849 23.8688 15.9856 23.5874 16.2576C23.2921 15.8926 23.0529 15.4847 22.8771 15.0339L21.9137 15.4203C22.0613 15.7995 22.2442 16.1574 22.4622 16.4865C22.2653 16.4149 22.1317 16.3291 22.1317 16.3291L21.5339 17.1949C21.562 17.2164 22.1317 17.6242 22.8771 17.6242C23.0389 17.6242 23.2077 17.6028 23.3764 17.5527C24.3399 18.4185 25.5988 18.9481 26.9841 18.9481C28.3695 18.9481 29.6284 18.4185 30.5919 17.5527C30.7677 17.6028 30.9365 17.6242 31.0982 17.6242C31.8507 17.6242 32.4204 17.2164 32.4485 17.1949Z" fill="#FFE15A"/>
<path fill-rule="evenodd" clip-rule="evenodd" d="M28.7494 8.71534H30.1067C30.3598 8.71534 30.5639 8.92285 30.5639 9.18045V12.5221C30.5568 12.744 30.5357 13.0874 30.4654 13.5168C30.402 13.8817 30.3176 14.2395 30.2122 14.5758C30.0434 15.0982 29.8325 15.5704 29.5652 15.9855C29.3682 16.2931 29.1432 16.5722 28.8971 16.8083C28.3767 17.3021 27.7508 17.6528 27.0405 17.8316L26.9912 17.8459L26.942 17.8316C26.2247 17.6528 25.5987 17.3092 25.0854 16.8083C24.8322 16.5651 24.6142 16.2931 24.4173 15.9855C24.1501 15.5704 23.9321 15.0982 23.7703 14.5758C23.6648 14.2395 23.5804 13.8817 23.5172 13.5168C23.4468 13.0874 23.4257 12.7368 23.4187 12.5221V9.18045C23.4187 8.92285 23.6226 8.71534 23.8758 8.71534H25.3738C25.3245 8.55075 25.6691 7.81373 25.8379 7.81373L28.5595 7.48457L28.6298 8.49351C28.672 8.53645 28.7072 8.58654 28.7283 8.65093L28.7494 8.71534ZM30.3668 9.16614C30.3668 9.02303 30.2472 8.90138 30.1066 8.90138H25.5776L25.4369 8.90854V8.90138H23.8757C23.7351 8.90138 23.6154 9.02303 23.6154 9.16614V11.549C23.8968 11.549 24.0375 11.6778 24.1781 11.8066C24.3187 11.9353 24.4594 12.0642 24.7407 12.0642C25.022 12.0642 25.1627 11.9353 25.3033 11.8066C25.444 11.6778 25.5846 11.549 25.8659 11.549C26.1472 11.549 26.2879 11.6778 26.4285 11.8066C26.5692 11.9353 26.7099 12.0642 26.9911 12.0642C27.2725 12.0642 27.4131 11.9353 27.5537 11.8066C27.6944 11.6778 27.8351 11.549 28.1163 11.549C28.3976 11.549 28.5382 11.6795 28.6779 11.8091C28.8178 11.9388 28.9567 12.0678 29.2345 12.0642C29.5159 12.0642 29.6565 11.9353 29.7971 11.8066C29.9378 11.6778 30.0785 11.549 30.3597 11.549V12.5079C30.0785 12.5079 29.9378 12.6366 29.7971 12.7654C29.6565 12.8943 29.5159 13.0231 29.2345 13.0231C28.9532 13.0231 28.8126 12.8943 28.6719 12.7654C28.5313 12.6366 28.3906 12.5079 28.1093 12.5079C27.828 12.5079 27.6873 12.6366 27.5467 12.7654C27.4061 12.8943 27.2654 13.0231 26.9841 13.0231C26.7028 13.0231 26.5621 12.8943 26.4214 12.7654C26.2809 12.6366 26.1402 12.5079 25.8588 12.5079C25.5776 12.5079 25.4369 12.6366 25.2962 12.7654C25.1556 12.8943 25.015 13.0231 24.7337 13.0231C24.4559 13.0231 24.3152 12.8943 24.1745 12.7654C24.034 12.6366 23.8933 12.5079 23.6154 12.5079C23.6225 12.7368 23.6507 13.0732 23.7139 13.4667C23.7702 13.7815 23.8476 14.1322 23.96 14.4971C24.1078 14.9479 24.3046 15.4202 24.586 15.8566C24.7689 16.1357 24.9798 16.4005 25.2259 16.6438C25.6761 17.0803 26.2527 17.4381 26.9911 17.6241C27.7295 17.4381 28.3062 17.0874 28.7563 16.651C29.0095 16.4076 29.2205 16.1429 29.3963 15.8639C29.6776 15.4274 29.8815 14.955 30.0222 14.5042C30.1417 14.1393 30.2191 13.7887 30.2683 13.4739C30.3316 13.0732 30.3597 12.7368 30.3668 12.5079V9.16614Z" fill="#F5F5F5"/>
<path d="M25.4088 14.4685C25.9797 14.4685 26.4426 13.9975 26.4426 13.4166C26.4426 12.8357 25.9797 12.3647 25.4088 12.3647C24.8378 12.3647 24.375 12.8357 24.375 13.4166C24.375 13.9975 24.8378 14.4685 25.4088 14.4685ZM28.5522 14.4685C29.1232 14.4685 29.586 13.9975 29.586 13.4166C29.586 12.8357 29.1232 12.3647 28.5522 12.3647C27.9813 12.3647 27.5184 12.8357 27.5184 13.4166C27.5184 13.9975 27.9813 14.4685 28.5522 14.4685ZM26.9912 16.6581C27.5621 16.6581 28.025 16.1871 28.025 15.6062C28.025 15.0253 27.5621 14.5543 26.9912 14.5543C26.4202 14.5543 25.9574 15.0253 25.9574 15.6062C25.9574 16.1871 26.4202 16.6581 26.9912 16.6581ZM28.9882 7.24842C28.9882 6.7189 28.1373 6.28955 27.0965 6.28955C26.4073 6.28955 25.8025 6.47561 25.4719 6.75468C25.4509 6.5257 25.2539 6.33964 25.0219 6.33964C24.7758 6.33964 24.5717 6.54716 24.5717 6.79761C24.5717 7.04806 24.7758 7.25557 25.0219 7.25557C25.0851 7.25557 25.1485 7.24125 25.2047 7.2198C25.2047 7.22695 25.2047 7.2341 25.2047 7.24842C25.2047 7.48455 25.3735 7.69922 25.6548 7.8638C25.5845 7.93536 25.5423 8.03553 25.5423 8.15718C25.5423 8.37185 25.6899 8.54358 25.8657 8.54358C26.0416 8.54358 26.1893 8.37185 26.1893 8.15718C26.1893 8.12856 26.1893 8.10709 26.1822 8.08562C26.4565 8.16433 26.7659 8.20727 27.1035 8.20727C27.3777 8.20727 27.645 8.17865 27.8771 8.1214C27.8771 8.13571 27.8771 8.15003 27.8771 8.15718C27.8771 8.37185 28.0247 8.54358 28.2006 8.54358C28.3764 8.54358 28.5241 8.37185 28.5241 8.15718C28.5241 8.06416 28.4959 7.98544 28.4537 7.92104C28.7773 7.74931 28.9882 7.51317 28.9882 7.24842Z" fill="#73AF00"/>
</g>
<defs>
<clipPath id="clip0_865_3536">
<rect width="36" height="24" fill="white"/>
</clipPath>
</defs>
</svg>
