<svg width="36" height="24" viewBox="0 0 36 24" fill="none" xmlns="http://www.w3.org/2000/svg">
<g clip-path="url(#clip0_865_3664)">
<path d="M35.388 24H0.618869C0.274271 24 0 23.7138 0 23.3703V0.629696C0 0.27907 0.281304 0 0.618869 0H35.381C35.7256 0 35.9999 0.286225 35.9999 0.629696V23.3703C36.0069 23.7209 35.7256 24 35.388 24Z" fill="#3200D0"/>
<path fill-rule="evenodd" clip-rule="evenodd" d="M18.5918 4.32099H20L18.971 5.41045L19.3522 7L18 6.21217L16.6478 7L17.0277 5.41045L16 4.32099H17.407L18 3L18.5918 4.32099ZM23.092 6.82054H24.5L23.4705 7.91085L23.8517 9.5L22.4997 8.71204L21.1477 9.5L21.5282 7.91085L20.5 6.82054H21.9067L22.4997 5.5L23.092 6.82054ZM20 18.321H18.5918L18 17L17.407 18.321H16L17.0277 19.4111L16.6478 21L18 20.2122L19.3522 21L18.971 19.4111L20 18.321ZM14.092 6.82054H15.5L14.4705 7.91085L14.8523 9.5L13.5003 8.71204L12.1477 9.5L12.5282 7.91085L11.5 6.82054H12.9067L13.5003 5.5L14.092 6.82054ZM13 11.321H11.592L10.9997 10L10.4067 11.321H9L10.0282 12.4111L9.64767 14L10.9997 13.2122L12.3517 14L11.9705 12.4111L13 11.321ZM25.592 11.321H27L25.9705 12.4111L26.3517 14L25.0003 13.2122L23.6477 14L24.0282 12.4111L23 11.321H24.4067L25.0003 10L25.592 11.321ZM24.5 15.8205H23.092L22.4997 14.5L21.9067 15.8205H20.5L21.5282 16.9108L21.1477 18.5L22.4997 17.712L23.8517 18.5L23.4705 16.9108L24.5 15.8205ZM14.092 15.8205H15.5L14.4705 16.9108L14.8523 18.5L13.5003 17.712L12.1477 18.5L12.5282 16.9108L11.5 15.8205H12.9067L13.5003 14.5L14.092 15.8205Z" fill="#F6CF00"/>
</g>
<defs>
<clipPath id="clip0_865_3664">
<rect width="36" height="24" fill="white"/>
</clipPath>
</defs>
</svg>
