<svg width="36" height="24" viewBox="0 0 36 24" fill="none" xmlns="http://www.w3.org/2000/svg">
<g clip-path="url(#clip0_865_3383)">
<path d="M35.388 24H0.618869C0.274271 24 0 23.7138 0 23.3704V0.629697C0 0.27907 0.281304 0 0.618869 0H35.381C35.7256 0 35.9999 0.286226 35.9999 0.629697V23.3704C36.0069 23.721 35.7256 24 35.388 24Z" fill="#FF4B55"/>
<path d="M24.7969 14.9909C24.4593 14.7762 24.2554 15.1197 24.2554 15.1197L23.2638 15.2413L23.756 14.8192C24.1147 14.8477 24.164 14.7405 24.2624 14.5902C24.3608 14.4399 24.7688 14.5114 24.7688 14.5114C24.7125 14.0606 24.1499 14.3111 24.1499 14.3111C23.6928 14.261 23.6154 14.6403 23.6154 14.6403L22.9051 15.1913L21.3439 14.719C21.5056 14.5401 21.6322 14.3612 21.6533 14.2539C21.6814 14.075 20.5 13.7673 20.1413 13.388C19.7826 13.0088 19.649 12.4006 19.8178 12.2431C19.9865 12.0857 20.1272 12.5293 20.3101 12.9015C20.493 13.2735 20.8305 13.5597 21.0485 13.3737C21.2665 13.1877 20.8164 12.9158 20.6054 12.5151C20.4015 12.1215 20.7601 11.9783 20.929 12.0142C21.0978 12.0571 21.2032 12.8728 21.6041 13.2879C22.005 13.71 22.3706 13.6313 22.4058 13.3666C22.441 13.1018 21.7448 12.7797 21.6041 12.558C21.4634 12.3362 21.4283 11.8925 21.6604 11.8854C21.8924 11.871 22.7434 13.1662 23.4677 13.6599C24.2554 14.1966 24.8883 13.567 24.7898 13.3022C24.6844 13.0374 24.2062 13.1447 23.6506 13.0016C23.0949 12.8585 22.5254 12.0928 22.3566 11.6707C22.1877 11.2485 22.3284 11.2485 22.4269 11.2914C22.5254 11.3344 22.891 11.8854 23.6014 12.3075C24.3116 12.7297 24.8039 12.3289 24.8602 12.2288C24.9164 12.1286 25.1415 11.685 24.4171 11.7923C23.5873 11.914 23.1161 11.4131 22.7785 11.1411C22.441 10.8764 22.3003 10.5115 22.455 10.3612C22.6098 10.211 23.1231 10.8836 23.8967 11.091C24.6069 11.2843 24.9024 10.9694 24.8813 10.6832C24.8602 10.397 24.6984 10.5186 23.8897 10.4399C23.0809 10.3612 22.5254 9.58838 22.4901 9.53829C22.455 9.48819 22.4691 9.20912 22.8769 9.48104C23.2849 9.75295 24.0092 9.90322 24.4382 9.88892C24.8672 9.8746 24.9515 9.28784 24.7476 9.18766C24.5437 9.08748 24.4945 9.23775 24.0303 9.33793C23.5662 9.43811 22.6942 8.95152 22.4761 8.72254C22.2581 8.49356 22.4972 8.35045 22.6027 8.36476C22.7082 8.37907 23.4044 8.80125 24.0303 8.77978C24.6562 8.75832 24.9164 8.17871 24.8954 7.99982C24.8742 7.82093 24.6984 7.67066 24.4382 7.84955C24.178 8.02844 23.8264 8.23596 23.2427 8.13578C22.659 8.0356 22.3918 7.64204 22.4691 7.49177C22.5464 7.3415 23.109 7.5991 24.0021 7.49892C24.8954 7.39875 24.9305 6.59731 24.8461 6.43989C24.7617 6.28247 24.5437 6.33256 24.2413 6.61878C23.9389 6.905 23.3551 6.96226 22.9051 6.96226C22.4479 6.96226 22.441 6.73328 22.5042 6.57585C22.5676 6.41842 23.0598 6.4542 23.735 6.23953C24.4171 6.02486 24.8039 5.46672 24.9094 5.12325C25.0149 4.77979 24.7547 4.50787 24.6491 4.50787C24.5437 4.50787 24.6069 4.35044 24.1428 5.03023C23.6787 5.71002 22.455 5.97477 22.455 5.97477C22.3706 5.8102 22.2299 5.74579 22.2299 5.74579C21.4072 5.91038 20.4086 6.64025 20.4086 6.64025C20.4086 6.64025 20.5844 7.2127 20.3664 7.65635C20.085 8.2288 19.1146 7.87102 19.3817 6.96226C19.5998 6.20375 20.4508 5.75295 21.161 5.66708C21.8784 5.58837 21.9135 5.3093 21.9135 5.3093C21.9135 5.3093 21.161 5.55975 21.147 5.21628C21.3017 5.2449 21.5338 5.25921 21.9206 5.23059C22.4972 5.1805 22.8207 4.76547 22.5605 4.67244C22.3074 4.58658 22.4128 4.85133 21.9768 5.05886C21.6674 5.20912 21.3368 5.13757 21.1751 5.08748C21.3298 4.75116 21.9628 4.92289 21.9628 4.92289C21.9697 4.33613 21.2032 4.54364 21.2032 4.54364C20.8656 3.80662 18.9035 4.66529 18.9035 4.66529L19.3677 5.04454C18.2284 5.68855 17.9963 6.91217 17.9963 6.91217C17.9963 6.91217 17.7643 5.68855 16.625 5.04454L17.0891 4.66529C17.0891 4.66529 15.12 3.80662 14.7895 4.54364C14.7895 4.54364 14.0229 4.33613 14.0299 4.92289C14.0299 4.92289 14.6699 4.75116 14.8176 5.08748C14.6559 5.13757 14.3253 5.20196 14.0159 5.05886C13.5799 4.85133 13.6854 4.58658 13.4322 4.67244C13.179 4.75832 13.4955 5.1805 14.0721 5.23059C14.4589 5.26637 14.691 5.25205 14.8457 5.21628C14.8317 5.55975 14.0792 5.3093 14.0792 5.3093C14.0792 5.3093 14.1143 5.58122 14.8317 5.66708C15.549 5.74579 16.393 6.20375 16.611 6.96226C16.8712 7.87102 15.9077 8.2288 15.6263 7.65635C15.4083 7.2127 15.5841 6.64025 15.5841 6.64025C15.5841 6.64025 14.5926 5.91753 13.7627 5.74579C13.7627 5.74579 13.6292 5.80303 13.5377 5.97477C13.5377 5.97477 12.314 5.71002 11.8499 5.03023C11.3857 4.35044 11.449 4.50787 11.3435 4.50787C11.238 4.50787 10.9778 4.77262 11.0833 5.12325C11.1888 5.47388 11.5756 6.02486 12.2577 6.23953C12.9399 6.4542 13.4251 6.41842 13.4885 6.57585C13.5588 6.73328 13.5448 6.96226 13.0876 6.96226C12.6305 6.96226 12.0468 6.905 11.7514 6.61878C11.449 6.33256 11.238 6.28247 11.1466 6.43989C11.0622 6.59731 11.0974 7.39875 11.9905 7.49892C12.8837 7.5991 13.4463 7.3415 13.5236 7.49177C13.601 7.64204 13.3268 8.0356 12.7501 8.13578C12.1663 8.23596 11.8217 8.02844 11.5545 7.84955C11.2873 7.67066 11.1185 7.82093 11.0974 7.99982C11.0763 8.17871 11.3365 8.75832 11.9624 8.77978C12.5883 8.80125 13.2846 8.38622 13.39 8.36476C13.4955 8.34329 13.7275 8.49356 13.5166 8.72254C13.3056 8.95152 12.4336 9.43095 11.9624 9.33793C11.4912 9.2449 11.449 9.09464 11.2451 9.18766C11.0411 9.28068 11.1255 9.86745 11.5545 9.88892C11.9835 9.91037 12.7079 9.75295 13.1157 9.48104C13.5236 9.20912 13.5307 9.48819 13.5025 9.53829C13.4744 9.58838 12.9118 10.354 12.1031 10.4399C11.3013 10.5186 11.1325 10.397 11.1115 10.6832C11.0903 10.9694 11.3787 11.2843 12.096 11.091C12.8696 10.8836 13.3829 10.211 13.5377 10.3612C13.6924 10.5115 13.5588 10.8764 13.2142 11.1411C12.8766 11.4059 12.4055 11.9068 11.5756 11.7923C10.8442 11.685 11.0693 12.1286 11.1325 12.2288C11.1958 12.3289 11.6881 12.7297 12.3914 12.3075C13.0946 11.8854 13.4673 11.3272 13.5658 11.2914C13.6643 11.2485 13.8049 11.2485 13.6361 11.6707C13.4673 12.0928 12.8977 12.8585 12.3421 13.0016C11.7866 13.1447 11.3083 13.0445 11.2029 13.3022C11.0974 13.567 11.7303 14.1966 12.525 13.6599C13.2493 13.1662 14.1003 11.871 14.3323 11.8854C14.5645 11.8997 14.5293 12.3362 14.3886 12.558C14.248 12.7797 13.5447 13.1089 13.587 13.3666C13.6292 13.6242 13.9878 13.71 14.3886 13.2879C14.7895 12.8657 14.895 12.0499 15.0637 12.0142C15.2325 11.9712 15.5912 12.1215 15.3873 12.5151C15.1834 12.9086 14.7262 13.1877 14.9442 13.3737C15.1622 13.5597 15.4998 13.2664 15.6826 12.9015C15.8655 12.5365 16.0062 12.0857 16.175 12.2431C16.3437 12.4006 16.2171 13.0088 15.8514 13.388C15.4927 13.7673 14.3043 14.075 14.3394 14.2539C14.3605 14.3612 14.4871 14.5401 14.6488 14.719L13.0876 15.1913L12.3774 14.6403C12.3774 14.6403 12.2999 14.2682 11.8428 14.3111C11.8428 14.3111 11.2802 14.0535 11.2239 14.5114C11.2239 14.5114 11.6319 14.4399 11.7303 14.5902C11.8287 14.7405 11.878 14.8477 12.2367 14.8192L12.7289 15.2413L11.7373 15.1197C11.7373 15.1197 11.5334 14.7762 11.1958 14.9909C11.1958 14.9909 10.7669 14.855 10.6613 15.27C10.6613 15.27 11.0271 15.1984 11.1256 15.2485C11.1256 15.2485 11.2732 15.5848 11.7373 15.3844L12.7149 15.4345L12.1593 15.7136C12.1593 15.7136 11.4631 15.4846 11.4912 16.0785C11.4912 16.0785 11.2873 16.3147 11.4702 16.5508C11.4702 16.5508 11.5123 16.2932 11.6951 16.1858C11.6951 16.1858 12.0538 16.3361 12.2859 15.8996L12.9962 15.4631L13.6924 15.8067C13.6924 15.8067 13.6714 16.1931 14.1847 16.0356C14.1847 16.0356 14.3605 16.1573 14.4097 16.3147C14.4097 16.3147 14.6347 16.0714 14.2762 15.7851C14.2762 15.7851 14.1918 15.4488 13.7627 15.5776L13.3619 15.3702L14.8317 14.9265C15.0849 15.1769 15.3591 15.3773 15.4576 15.3415C15.6475 15.2771 15.7951 15.0768 15.9217 14.7905C16.0553 14.5114 16.6461 13.524 16.9344 13.5383C17.2298 13.5454 17.3564 13.7815 17.2861 14.2038C17.2158 14.6259 16.6461 15.4417 16.2733 15.6063C15.9077 15.7709 15.8444 15.8495 15.5068 15.821C15.1693 15.7923 15.0497 15.9426 15.1271 16.1357C15.2044 16.3361 15.5841 16.4578 15.964 16.3147C16.3718 16.1573 16.5265 15.9426 16.6813 16.0714C16.8359 16.2002 16.5195 16.6653 16.0765 16.8012C15.6334 16.9372 15.3099 16.8513 15.3802 17.1304C15.4505 17.4095 15.9147 17.4238 16.2171 17.252C16.5195 17.0803 16.8571 16.5794 16.9415 16.7368C17.0259 16.8943 16.9696 17.3021 16.6813 17.5168C16.393 17.7315 16.0624 17.6027 15.9921 17.803C15.8936 18.0892 16.2311 18.2754 16.4984 18.168C16.7586 18.0607 17.061 17.7244 17.1946 17.431C17.3283 17.1375 17.5814 17.388 17.5041 17.6671C17.4268 17.9462 17.49 18.168 16.9344 18.6045L17.9682 20.2216L19.002 18.6045C18.4464 18.168 18.5098 17.9462 18.4323 17.6671C18.355 17.388 18.6082 17.1375 18.7418 17.431C18.8754 17.7244 19.1778 18.0607 19.438 18.168C19.6982 18.2754 20.0428 18.0892 19.9443 17.803C19.8811 17.6027 19.5436 17.7315 19.2552 17.5168C18.9669 17.3021 18.9035 16.8943 18.9949 16.7368C19.0793 16.5794 19.4239 17.0732 19.7194 17.252C20.0218 17.431 20.4859 17.4095 20.5562 17.1304C20.6266 16.8513 20.296 16.9444 19.86 16.8012C19.4239 16.6582 19.1005 16.2002 19.2552 16.0714C19.4099 15.9426 19.5646 16.1573 19.9725 16.3147C20.3452 16.4578 20.732 16.3361 20.8094 16.1357C20.8868 15.9354 20.7672 15.7923 20.4296 15.821C20.0921 15.8495 20.0287 15.7709 19.6631 15.6063C19.2974 15.4417 18.7278 14.6259 18.6504 14.2038C18.573 13.7815 18.7066 13.5454 19.002 13.5383C19.2974 13.5311 19.8882 14.5114 20.0147 14.7905C20.1484 15.0696 20.2889 15.2771 20.4789 15.3415C20.5773 15.3773 20.8516 15.1698 21.1048 14.9265L22.5746 15.3702L22.1737 15.5776C21.7448 15.4488 21.6604 15.7851 21.6604 15.7851C21.3017 16.0714 21.5267 16.3147 21.5267 16.3147C21.576 16.1573 21.7518 16.0356 21.7518 16.0356C22.2652 16.1931 22.244 15.8067 22.244 15.8067L22.9403 15.4631L23.6506 15.8996C23.8826 16.3361 24.2413 16.1858 24.2413 16.1858C24.4242 16.2932 24.4664 16.5508 24.4664 16.5508C24.6491 16.3147 24.4452 16.0785 24.4452 16.0785C24.4734 15.4846 23.7772 15.7136 23.7772 15.7136L23.2216 15.4345L24.1991 15.3844C24.6632 15.5848 24.811 15.2485 24.811 15.2485C24.9094 15.1984 25.2751 15.27 25.2751 15.27C25.2188 14.855 24.7969 14.9909 24.7969 14.9909Z" fill="#464655"/>
</g>
<defs>
<clipPath id="clip0_865_3383">
<rect width="36" height="24" fill="white"/>
</clipPath>
</defs>
</svg>
