<svg width="36" height="24" viewBox="0 0 36 24" fill="none" xmlns="http://www.w3.org/2000/svg">
<g clip-path="url(#clip0_865_4147)">
<path d="M35.3881 24.0225H0.618869C0.274271 24.0225 0 23.7363 0 23.3928V0.652158C0 0.301531 0.281304 0.0224609 0.618869 0.0224609H35.3811C35.7256 0.0224609 35.9999 0.308687 35.9999 0.652158V23.3928C36.0069 23.7434 35.7256 24.0225 35.3881 24.0225Z" fill="#FF4B55"/>
<path d="M0.618869 0.0224609C0.450086 0.0224609 0.302268 0.0940174 0.189746 0.201353L25.4508 24.0225H27.3145L1.8635 0.0224609H0.618869ZM10.5556 0.0224609H8.69196L34.143 24.0225H35.3881C35.5569 24.0225 35.7042 23.951 35.8167 23.8437L10.5556 0.0224609Z" fill="#F5F5F5"/>
<path d="M1.8635 0.0224609L27.3145 24.0225H34.143L8.69196 0.0224609H1.8635Z" fill="#464655"/>
</g>
<defs>
<clipPath id="clip0_865_4147">
<rect width="36" height="24" fill="white"/>
</clipPath>
</defs>
</svg>
