<svg width="36" height="24" viewBox="0 0 36 24" fill="none" xmlns="http://www.w3.org/2000/svg">
<g clip-path="url(#clip0_865_4133)">
<path d="M0 18.3184V0.629697C0 0.27907 0.281246 0 0.618742 0H27.309L0 18.3184Z" fill="#73AF00"/>
<path d="M36 5.68154V23.3703C36 23.7209 35.7188 24 35.3813 24H8.69099L36 5.68154Z" fill="#4173CD"/>
<path d="M35.9995 6.03937V0.629697C35.9995 0.27907 35.7183 0 35.3808 0H26.9434L0 17.9607V23.3704C0 23.721 0.281246 24 0.618742 24H9.05613L35.9995 6.03937Z" fill="#FFE15A"/>
<path d="M35.9995 3.77102V0.629697C35.9995 0.27907 35.7183 0 35.3808 0H30.3395L0 20.229V23.3704C0 23.721 0.281246 24 0.618742 24H5.66008L35.9995 3.77102Z" fill="#464655"/>
</g>
<defs>
<clipPath id="clip0_865_4133">
<rect width="36" height="24" fill="white"/>
</clipPath>
</defs>
</svg>
