<svg width="36" height="24" viewBox="0 0 36 24" fill="none" xmlns="http://www.w3.org/2000/svg">
<g clip-path="url(#clip0_865_3566)">
<path d="M35.388 24H0.618869C0.274271 24 0 23.7138 0 23.3704V0.629697C0 0.27907 0.281304 0 0.618869 0H35.381C35.7256 0 35.9999 0.286226 35.9999 0.629697V23.3704C36.0069 23.721 35.7256 24 35.388 24Z" fill="#FF4B55"/>
<path d="M5.97777 3.74963L6.56851 5.55285L8.43918 5.56716C8.67828 5.56716 8.78378 5.88201 8.58687 6.03227L7.08189 7.16287L7.6445 8.9804C7.71482 9.21654 7.45462 9.40974 7.2577 9.26663L5.73867 8.1575L4.21962 9.26663C4.02271 9.40974 3.7625 9.21654 3.83283 8.9804L4.39544 7.16287L2.89046 6.03227C2.69356 5.88917 2.79904 5.57432 3.03815 5.56716L4.90882 5.55285L5.49955 3.74963C5.57691 3.52065 5.90041 3.52065 5.97777 3.74963ZM12.7711 4.20043L13.1932 4.7872L13.8753 4.57253C13.9668 4.54391 14.037 4.64408 13.9808 4.72279L13.5588 5.31672L13.9738 5.91064C14.03 5.98935 13.9527 6.08953 13.8683 6.06091L13.1861 5.83908L12.7571 6.42584C12.7009 6.50455 12.5813 6.46162 12.5813 6.3686V5.63872L11.8992 5.40258C11.8077 5.37396 11.8148 5.24516 11.8992 5.21654L12.5813 4.98756L12.5884 4.25768C12.5953 4.1575 12.715 4.12172 12.7711 4.20043ZM10.1904 2.44015L10.9007 2.51886L11.2031 1.86053C11.2453 1.77467 11.3648 1.78898 11.3859 1.882L11.5336 2.59757L12.2439 2.69059C12.3353 2.7049 12.3635 2.82655 12.2791 2.87664L11.6531 3.24158L11.7867 3.95714C11.8008 4.05016 11.6953 4.11456 11.625 4.05016L11.0905 3.55642L10.4647 3.90705C10.3803 3.94998 10.2888 3.86411 10.331 3.77825L10.6264 3.11277L10.0989 2.61187C10.0427 2.54748 10.0919 2.43298 10.1904 2.44015ZM11.3156 9.51707L10.8937 10.1039L10.2115 9.88916C10.1201 9.86054 10.0497 9.96072 10.106 10.0395L10.5279 10.6333L10.1131 11.2273C10.0568 11.306 10.1341 11.4062 10.2185 11.3775L10.9007 11.1558L11.3297 11.7425C11.3859 11.8211 11.5055 11.7783 11.5055 11.6852V10.9554L12.1877 10.7192C12.2791 10.6906 12.2721 10.5618 12.1877 10.5331L11.5055 10.3042L11.4985 9.57431C11.4914 9.48129 11.3719 9.43835 11.3156 9.51707ZM13.8964 7.87127L13.1861 7.94998L12.8837 7.29166C12.8415 7.20579 12.722 7.22011 12.7009 7.31312L12.5531 8.02869L11.8429 8.12172C11.7515 8.13602 11.7234 8.25767 11.8078 8.30776L12.4336 8.6727L12.3 9.38827C12.286 9.48129 12.3914 9.54569 12.4618 9.48129L12.9962 8.98755L13.6222 9.33818C13.7065 9.38111 13.798 9.29525 13.7558 9.20937L13.4603 8.5439L13.9878 8.04301C14.0441 7.97145 13.9878 7.85695 13.8964 7.87127Z" fill="#FFE15A"/>
</g>
<defs>
<clipPath id="clip0_865_3566">
<rect width="36" height="24" fill="white"/>
</clipPath>
</defs>
</svg>
