<svg width="36" height="24" viewBox="0 0 36 24" fill="none" xmlns="http://www.w3.org/2000/svg">
<g clip-path="url(#clip0_865_3499)">
<path d="M35.3881 24H0.618869C0.274271 24 0 23.7138 0 23.3703V0.629697C0 0.27907 0.281304 0 0.618869 0H35.381C35.7256 0 35.9999 0.286226 35.9999 0.629697V23.3703C36.0069 23.721 35.7256 24 35.3881 24Z" fill="#73AF00"/>
<path d="M17.6798 3.35576L4.59914 11.4632C4.19828 11.7064 4.19828 12.2932 4.59914 12.5436L17.6868 20.651C17.8837 20.7726 18.1369 20.7726 18.3338 20.651L31.4214 12.5436C31.8223 12.3003 31.8223 11.7135 31.4214 11.4632L18.3268 3.35576C18.1299 3.23412 17.8767 3.23412 17.6798 3.35576Z" fill="#FFE15A"/>
<path d="M18.0037 17.0518C20.7458 17.0518 22.9687 14.79 22.9687 11.9999C22.9687 9.20985 20.7458 6.94803 18.0037 6.94803C15.2616 6.94803 13.0386 9.20985 13.0386 11.9999C13.0386 14.79 15.2616 17.0518 18.0037 17.0518Z" fill="#41479B"/>
<path d="M13.7417 9.41655C13.5096 9.81726 13.3268 10.2466 13.2072 10.7117C15.9569 10.5042 20.0358 11.2842 22.6238 13.8459C22.7926 13.4094 22.9051 12.9372 22.9473 12.4505C20.268 10.1535 16.5687 9.33783 13.7417 9.41655Z" fill="#F5F5F5"/>
</g>
<defs>
<clipPath id="clip0_865_3499">
<rect width="36" height="24" fill="white"/>
</clipPath>
</defs>
</svg>
