<svg width="36" height="24" viewBox="0 0 36 24" fill="none" xmlns="http://www.w3.org/2000/svg">
<g clip-path="url(#clip0_865_4077)">
<path d="M35.388 24H0.618869C0.274271 24 0 23.7138 0 23.3704V0.629697C0 0.27907 0.281304 0 0.618869 0H35.381C35.7256 0 35.9999 0.286226 35.9999 0.629697V23.3704C36.0069 23.721 35.7256 24 35.388 24Z" fill="#F5F5F5"/>
<path d="M21.4493 6.74063C18.5941 4.80861 14.7402 5.59573 12.8414 8.49376C11.885 9.93921 12.2788 11.907 13.6994 12.873C15.127 13.839 17.0468 13.4454 18.0033 11.9928C18.9527 10.5402 20.8797 10.1539 22.3073 11.1128C23.7349 12.0787 24.1217 14.0465 23.1653 15.492C25.0711 12.6011 24.2975 8.67982 21.4493 6.74063Z" fill="#FF4B55"/>
<path d="M12.8414 8.49376C11.885 9.93921 12.2788 11.907 13.6994 12.873C15.127 13.839 17.0468 13.4454 18.0033 11.9928C18.9527 10.5402 20.8797 10.1539 22.3073 11.1128C23.7349 12.0787 24.1217 14.0465 23.1653 15.492C21.2665 18.3972 17.4126 19.1771 14.5645 17.245C11.7163 15.3202 10.9426 11.399 12.8414 8.49376Z" fill="#41479B"/>
<path d="M25.8161 3.53504L28.6855 7.92145C28.784 8.06457 28.7418 8.26492 28.6011 8.35795L28.3128 8.55115C28.1721 8.65132 27.9751 8.6084 27.8838 8.46528L25.0145 4.07887C24.916 3.93576 24.9582 3.7354 25.0989 3.64238L25.3872 3.44918C25.5278 3.35615 25.7178 3.39194 25.8161 3.53504ZM27.0331 2.72646L29.9024 7.11287C30.0009 7.25597 29.9587 7.45633 29.818 7.54936L29.5297 7.74256C29.389 7.84274 29.1921 7.7998 29.1006 7.65669L26.2314 3.27028C26.1329 3.12717 26.1751 2.92682 26.3158 2.83379L26.6041 2.64058C26.7448 2.54041 26.9416 2.58334 27.0331 2.72646ZM24.621 4.37225L27.4904 8.75866C27.5888 8.90177 27.5466 9.10213 27.406 9.19515L27.1176 9.38835C26.977 9.48853 26.78 9.44559 26.6886 9.30249L23.8123 4.91608C23.7138 4.77296 23.756 4.57261 23.8967 4.47958L24.185 4.28637C24.3327 4.1862 24.5226 4.22913 24.621 4.37225ZM9.33237 14.7193L12.2017 19.0985C12.3001 19.2417 12.2579 19.4421 12.1173 19.535L11.8289 19.7283C11.6882 19.8284 11.4914 19.7855 11.3999 19.6424L8.53065 15.2631C8.4322 15.12 8.4744 14.9197 8.61505 14.8266L8.90338 14.6335C9.04404 14.5333 9.24095 14.5762 9.33237 14.7193ZM8.16493 15.578L11.0343 19.9573C11.1327 20.1003 11.0905 20.3007 10.9499 20.3938L10.6615 20.5869C10.5208 20.6871 10.3239 20.6442 10.2325 20.501L7.36322 16.1218C7.26476 15.9787 7.30696 15.7783 7.4476 15.6853L7.73594 15.4921C7.8766 15.3919 8.06648 15.4349 8.16493 15.578ZM6.91995 16.3579L9.78924 20.7372C9.8877 20.8803 9.84551 21.0807 9.70486 21.1737L9.41652 21.3669C9.27587 21.4671 9.07896 21.4241 8.98753 21.281L6.11824 16.9017C6.01978 16.7587 6.06197 16.5583 6.20262 16.4652L6.49097 16.2721C6.63161 16.1719 6.82853 16.2077 6.91995 16.3579ZM8.53065 8.7372L11.3999 4.35079C11.4984 4.20767 11.6882 4.16474 11.8289 4.26492L12.1173 4.45812C12.2579 4.5583 12.3001 4.75151 12.2017 4.89461L9.33237 9.28102C9.23392 9.42414 9.04404 9.46707 8.90338 9.36689L8.61505 9.17369C8.4744 9.08066 8.4322 8.88747 8.53065 8.7372ZM7.3207 7.92145L10.19 3.53504C10.2885 3.39193 10.4783 3.34899 10.619 3.44917L10.9074 3.64237C11.0479 3.74255 11.0901 3.93576 10.9918 4.07886L8.12241 8.46528C8.02396 8.60839 7.83408 8.65132 7.69342 8.55115L7.40509 8.35794C7.26444 8.26492 7.22928 8.06457 7.3207 7.92145ZM6.11824 7.1057L8.98753 2.71929C9.08599 2.57618 9.27587 2.53324 9.41652 2.63342L9.70486 2.82663C9.84551 2.92681 9.8877 3.12001 9.78924 3.26312L6.91995 7.64953C6.82149 7.79264 6.63161 7.83558 6.49097 7.7354L6.20262 7.54219C6.06197 7.44918 6.01978 7.25597 6.11824 7.1057ZM26.2528 20.6656L29.1221 16.2792C29.2206 16.1361 29.4104 16.0932 29.5511 16.1933L29.8394 16.3866C29.9801 16.4868 30.0222 16.6799 29.9238 16.8231L27.0545 21.2023C26.956 21.3455 26.7661 21.3883 26.6255 21.2882L26.3371 21.095C26.1966 21.0092 26.1544 20.8088 26.2528 20.6656ZM25.0428 19.8499L27.9121 15.4634C28.0106 15.3204 28.2004 15.2774 28.3411 15.3776L28.6294 15.5708C28.7701 15.671 28.8123 15.8642 28.7138 16.0073L25.8446 20.3938C25.7461 20.5368 25.5562 20.5798 25.4156 20.4796L25.1272 20.2864C24.9866 20.1862 24.9514 19.993 25.0428 19.8499ZM23.8403 19.0341L26.7097 14.6478C26.8082 14.5046 26.998 14.4617 27.1387 14.5618L27.427 14.7551C27.5677 14.8553 27.6098 15.0485 27.5114 15.1916L24.6421 19.578C24.5436 19.7211 24.3537 19.764 24.2131 19.6639L23.9247 19.4706C23.7841 19.3776 23.7419 19.1773 23.8403 19.0341Z" fill="#464655"/>
</g>
<defs>
<clipPath id="clip0_865_4077">
<rect width="36" height="24" fill="white"/>
</clipPath>
</defs>
</svg>
