<svg width="36" height="24" viewBox="0 0 36 24" fill="none" xmlns="http://www.w3.org/2000/svg">
<g clip-path="url(#clip0_865_4153)">
<path d="M35.3881 24.0225H0.618869C0.274271 24.0225 0 23.7363 0 23.3928V0.652158C0 0.301531 0.281304 0.0224609 0.618869 0.0224609H35.3811C35.7256 0.0224609 35.9999 0.308687 35.9999 0.652158V23.3928C36.0069 23.7434 35.7256 24.0225 35.3881 24.0225Z" fill="#FF4B55"/>
<path d="M17.8283 9.86104L18.7988 11.1562L20.3178 10.641C20.4022 10.6125 20.4725 10.7126 20.4233 10.7841L19.5161 12.1295L20.4725 13.4389C20.5287 13.5105 20.4585 13.6107 20.374 13.5892L18.8409 13.124L17.9126 14.4479C17.8634 14.5194 17.7439 14.4837 17.7439 14.3978L17.7017 12.7662L16.1756 12.2797C16.0912 12.251 16.0912 12.1295 16.1756 12.1008L17.6876 11.557L17.6736 9.9255C17.6594 9.82533 17.772 9.7824 17.8283 9.86104ZM12.4483 17.0811C9.7056 17.0811 7.48329 14.82 7.48329 12.0221C7.48329 9.23139 9.7056 6.96305 12.4483 6.96305C13.4681 6.96305 14.4104 7.28506 15.191 7.82173C15.3106 7.9076 15.4512 7.74302 15.3457 7.63568C14.1713 6.39775 12.5186 5.63925 10.6761 5.70366C7.51846 5.81099 4.90233 8.39418 4.69838 11.5999C4.46631 15.2779 7.32858 18.3334 10.8941 18.3334C12.6522 18.3334 14.2276 17.5892 15.3528 16.3942C15.4512 16.2869 15.3176 16.1294 15.198 16.2153C14.4104 16.7591 13.4681 17.0811 12.4483 17.0811Z" fill="#F5F5F5"/>
</g>
<defs>
<clipPath id="clip0_865_4153">
<rect width="36" height="24" fill="white"/>
</clipPath>
</defs>
</svg>
