<svg width="36" height="24" viewBox="0 0 36 24" fill="none" xmlns="http://www.w3.org/2000/svg">
<g clip-path="url(#clip0_865_3861)">
<path d="M35.388 24H0.618869C0.274271 24 0 23.7138 0 23.3704V0.629697C0 0.27907 0.281304 0 0.618869 0H35.381C35.7256 0 35.9999 0.286226 35.9999 0.629697V23.3704C36.0069 23.721 35.7256 24 35.388 24Z" fill="#5AA587"/>
<path d="M24.6141 12.9445C23.5664 12.2433 23.2006 12.0501 23.2006 12.0501L23.7069 11.6065C23.7069 11.6065 21.5339 10.8408 19.593 12.4794C20.7955 10.1109 19.4945 8.07872 19.4945 8.07872L19.1921 8.68695C19.1921 8.68695 18.9107 8.37211 17.9895 7.51342C17.0682 8.37926 16.7869 8.68695 16.7869 8.68695L16.4845 8.07872C16.4845 8.07872 15.1835 10.1109 16.3861 12.4794C14.4451 10.8408 12.272 11.6065 12.272 11.6065L12.7783 12.0501C12.7783 12.0501 12.4056 12.2433 11.3577 12.9445C11.9625 14.0608 12.1946 14.4115 12.1946 14.4115L11.5406 14.5617C11.5406 14.5617 14.1637 17.424 17.9684 14.6189C21.773 17.424 24.3961 14.5617 24.3961 14.5617L23.7421 14.4115C23.7773 14.4115 24.0093 14.0537 24.6141 12.9445ZM14.2199 18.5546C14.4871 18.7263 14.7754 18.8765 15.0638 19.0126H20.936C21.2314 18.8765 21.5127 18.7263 21.7799 18.5546H14.2199ZM15.5911 19.2272C16.3436 19.4992 17.1594 19.6494 18.0033 19.6494C18.8472 19.6494 19.663 19.4992 20.4154 19.2272H15.5911ZM12.6234 17.1878C12.7149 17.2952 12.8063 17.3954 12.9047 17.4956H23.1019C23.2004 17.3954 23.2919 17.2952 23.3833 17.1878H12.6234ZM13.2851 17.8533C13.4327 17.9893 13.5875 18.111 13.7492 18.2326H22.2586C22.4204 18.111 22.575 17.9821 22.7228 17.8533H13.2851ZM20.9996 16.3793C19.3259 16.3793 18.1725 15.2416 18.1656 15.2272L18.0037 15.0698L17.842 15.2272C17.8279 15.2416 16.6887 16.3793 15.0079 16.3793H12.012C12.1175 16.5367 12.223 16.6869 12.3354 16.8372H15.0079C16.5129 16.8372 17.6099 16.0358 18.0037 15.6995C18.3976 16.0358 19.4947 16.8372 20.9996 16.8372H23.672C23.7845 16.6869 23.8971 16.5367 23.9956 16.3793H20.9996Z" fill="#F5F5F5"/>
<path d="M12.4544 9.82446C12.8194 9.82446 13.1153 9.52332 13.1153 9.15184C13.1153 8.78035 12.8194 8.47921 12.4544 8.47921C12.0892 8.47921 11.7933 8.78035 11.7933 9.15184C11.7933 9.52332 12.0892 9.82446 12.4544 9.82446ZM14.5507 7.42017C14.9158 7.42017 15.2118 7.11903 15.2118 6.74754C15.2118 6.37606 14.9158 6.07491 14.5507 6.07491C14.1856 6.07491 13.8897 6.37606 13.8897 6.74754C13.8897 7.11903 14.1856 7.42017 14.5507 7.42017ZM21.6321 7.45596C21.9973 7.45596 22.2932 7.15481 22.2932 6.78333C22.2932 6.41184 21.9973 6.11069 21.6321 6.11069C21.2671 6.11069 20.9711 6.41184 20.9711 6.78333C20.9711 7.15481 21.2671 7.45596 21.6321 7.45596ZM23.6576 9.91033C24.0228 9.91033 24.3187 9.60919 24.3187 9.2377C24.3187 8.86622 24.0228 8.56507 23.6576 8.56507C23.2926 8.56507 22.9966 8.86622 22.9966 9.2377C22.9966 9.60919 23.2926 9.91033 23.6576 9.91033ZM17.9682 6.73324C18.5275 6.73324 18.981 6.2719 18.981 5.70283C18.981 5.13374 18.5275 4.67241 17.9682 4.67241C17.409 4.67241 16.9556 5.13374 16.9556 5.70283C16.9556 6.2719 17.409 6.73324 17.9682 6.73324Z" fill="#FFE15A"/>
</g>
<defs>
<clipPath id="clip0_865_3861">
<rect width="36" height="24" fill="white"/>
</clipPath>
</defs>
</svg>
