<svg width="36" height="24" viewBox="0 0 36 24" fill="none" xmlns="http://www.w3.org/2000/svg">
<g clip-path="url(#clip0_865_4189)">
<path d="M35.3813 0.0214844H0.618751C0.274219 0.0214844 0 0.30771 0 0.651181V23.3919C0 23.7425 0.28125 24.0215 0.618751 24.0215H35.3743C35.7188 24.0215 35.993 23.7353 35.993 23.3919V0.651181C36 0.300555 35.7188 0.0214844 35.3813 0.0214844Z" fill="#F5F5F5"/>
<path d="M13.0358 2.69032H35.9999V5.35937H13.0358V2.69032ZM13.0358 8.02127H35.9999V10.6904H13.0358V8.02127ZM0 13.3522H36V16.0213H0V13.3522ZM0 18.6904H36V21.3594H0V18.6904Z" fill="#4173CD"/>
<path d="M9.03531 7.16251L11.7916 6.65446L9.03531 6.13925L11.3908 4.60079L8.65562 5.20187L10.2447 2.85481L7.94547 4.47915L8.53609 1.68844L7.01735 4.08558L6.51813 1.28057L6.01891 4.08558L4.50015 1.68844L5.09079 4.47915L2.78453 2.85481L4.38062 5.20187L1.64547 4.60079L4.00094 6.13925L1.24468 6.65446L4.00094 7.16251L1.64547 8.70813L4.38062 8.10706L2.78453 10.4469L5.09079 8.82262L4.50015 11.6133L6.01891 9.21618L6.51813 12.0211L7.01735 9.21618L8.53609 11.6133L7.94547 8.82262L10.2447 10.4469L8.65562 8.10706L11.3908 8.70813L9.03531 7.16251Z" fill="#FFE15A"/>
</g>
<defs>
<clipPath id="clip0_865_4189">
<rect width="36" height="24" fill="white"/>
</clipPath>
</defs>
</svg>
