<svg width="36" height="24" viewBox="0 0 36 24" fill="none" xmlns="http://www.w3.org/2000/svg">
<g clip-path="url(#clip0_865_4069)">
<path d="M0 4.42197V19.5776L9.92811 11.9998L0 4.42197Z" fill="#464655"/>
<path d="M4.96411 0L16.1367 8.84437H36V0.629697C36 0.27907 35.7187 0 35.3813 0H4.96411Z" fill="#FF4B55"/>
<path d="M4.96411 23.9999L16.1367 15.1555H36V23.3702C36 23.7208 35.7187 23.9999 35.3813 23.9999H4.96411Z" fill="#41479B"/>
<path d="M4.00077 0H0.618749C0.274218 0 0 0.286226 0 0.629697V3.22004L10.8985 12.0001L0 20.7799V23.3704C0 23.721 0.28125 24 0.618749 24H4.00077L15.7641 14.526H35.9999V9.47407H15.757L4.00077 0Z" fill="#73AF00"/>
<path d="M5.99758 0H4.00077L15.757 9.47407H35.9999L35.9998 8.20752H16.1929L5.99758 0Z" fill="#F5F5F5"/>
<path d="M0 3.22004V4.83013L8.89451 12.0001L0 19.1701V20.7799L10.8985 12.0001L0 3.22004Z" fill="#FFE15A"/>
<path d="M15.757 14.526L4.00077 24H5.99758L16.1929 15.7925H35.9998L35.9999 14.526H15.757Z" fill="#F5F5F5"/>
</g>
<defs>
<clipPath id="clip0_865_4069">
<rect width="36" height="24" fill="white"/>
</clipPath>
</defs>
</svg>
