<svg width="36" height="24" viewBox="0 0 36 24" fill="none" xmlns="http://www.w3.org/2000/svg">
<g clip-path="url(#clip0_865_3879)">
<path d="M35.3813 0H18V24H35.3813C35.7258 24 36 23.7138 36 23.3704V0.629697C36 0.27907 35.7187 0 35.3813 0Z" fill="#FF4B55"/>
<path d="M0.618749 24H18V0H0.618749C0.274218 0 0 0.286226 0 0.629697V23.3704C0 23.721 0.28125 24 0.618749 24Z" fill="#F5F5F5"/>
<path fill-rule="evenodd" clip-rule="evenodd" d="M5.37905 1.25909V3.00507C5.45639 3.04084 5.53373 3.09093 5.59701 3.15533C5.66029 3.21973 5.70952 3.29844 5.74467 3.37716H7.44623V5.47376H5.73764C5.70249 5.55247 5.65327 5.63119 5.58999 5.69558C5.52671 5.75999 5.44936 5.81008 5.37201 5.84585V7.56321H3.31186V5.83155C3.23452 5.79576 3.15718 5.74567 3.0939 5.68128C3.03062 5.61687 2.98139 5.53816 2.94624 5.45945H1.24468V3.36284H2.94624C2.98139 3.28413 3.03062 3.20542 3.0939 3.14102C3.15718 3.07662 3.23452 3.02653 3.31186 2.99075V1.25909H5.37905ZM5.175 3.16249V1.47376H3.51563V3.16249C3.42422 3.16249 3.31876 3.20542 3.23438 3.2913C3.15001 3.37716 3.11485 3.48449 3.10781 3.57752H1.44845V5.25909H3.10781C3.10781 5.35212 3.15001 5.45945 3.23438 5.54532C3.31876 5.63119 3.42422 5.66696 3.51563 5.67412V7.36285H5.175V5.67412C5.26641 5.67412 5.37188 5.63119 5.45625 5.54532C5.54062 5.45945 5.57578 5.35212 5.58282 5.25909H7.24218V3.57752H5.58282C5.58282 3.48449 5.54062 3.37716 5.45625 3.2913C5.37188 3.20542 5.26641 3.16965 5.175 3.16249Z" fill="#FF4B55"/>
<path d="M7.24218 3.57752L5.17507 3.57759L5.175 1.47376H3.51563L3.5157 3.57759L1.44845 3.57752V5.25909L3.5157 5.25916V7.37007H5.17507V5.25916L7.24218 5.25909V3.57752Z" fill="#CDCDCD"/>
<path d="M4.34543 5.2663C4.80366 5.2663 5.17512 4.88826 5.17512 4.42193C5.17512 3.9556 4.80366 3.57757 4.34543 3.57757C3.88721 3.57757 3.51575 3.9556 3.51575 4.42193C3.51575 4.88826 3.88721 5.2663 4.34543 5.2663ZM3.68143 5.62025C3.78303 5.51685 3.74963 5.31524 3.60685 5.16993C3.46407 5.02462 3.26596 4.99064 3.16436 5.09404C3.06277 5.19743 3.09615 5.39904 3.23895 5.54435C3.38173 5.68966 3.57983 5.72364 3.68143 5.62025ZM5.45091 5.54811C5.59369 5.4028 5.62708 5.20118 5.52548 5.09778C5.42388 4.9944 5.22577 5.02838 5.08299 5.17369C4.94021 5.319 4.90682 5.52061 5.00842 5.624C5.11001 5.7274 5.30813 5.69342 5.45091 5.54811ZM5.52338 3.74233C5.62497 3.63894 5.59158 3.43733 5.4488 3.29202C5.30602 3.14671 5.10791 3.11273 5.00631 3.21612C4.90472 3.31952 4.9381 3.52113 5.08088 3.66644C5.22368 3.81175 5.42178 3.84573 5.52338 3.74233ZM3.60531 3.66276C3.7481 3.51745 3.78148 3.31583 3.67989 3.21244C3.57829 3.10904 3.38018 3.14302 3.2374 3.28833C3.09462 3.43364 3.06122 3.63526 3.16283 3.73866C3.26442 3.84205 3.46252 3.80807 3.60531 3.66276Z" fill="#B4A08C"/>
<path fill-rule="evenodd" clip-rule="evenodd" d="M3.21306 4.42193C3.21306 5.05877 3.71931 5.57399 4.34509 5.57399C4.97087 5.57399 5.47712 5.05877 5.47712 4.42193C5.47712 3.78508 4.97087 3.26987 4.34509 3.26987C3.71931 3.26987 3.21306 3.78508 3.21306 4.42193ZM3.31864 4.41478C3.31864 3.84233 3.77566 3.37006 4.34519 3.37006C4.91472 3.37006 5.37176 3.84233 5.37176 4.41478C5.37176 4.98723 4.90769 5.4595 4.34519 5.4595C3.78269 5.4595 3.31864 4.98723 3.31864 4.41478Z" fill="#B4A08C"/>
</g>
<defs>
<clipPath id="clip0_865_3879">
<rect width="36" height="24" fill="white"/>
</clipPath>
</defs>
</svg>
