<svg width="36" height="24" viewBox="0 0 36 24" fill="none" xmlns="http://www.w3.org/2000/svg">
<g clip-path="url(#clip0_865_3369)">
<path d="M24 0H36V24H24V0Z" fill="#009900"/>
<path d="M12 0H24V24H12V0Z" fill="#BF0000"/>
<path d="M0 0H12V24H0V0Z" fill="black"/>
<path d="M18.0075 6.44508C17.9551 6.47826 17.8791 6.579 17.8555 6.64542C17.8501 6.66084 17.879 6.68514 17.8979 6.66822C17.9605 6.62178 18.0536 6.52332 18.0736 6.46692C18.0826 6.44148 18.0344 6.4281 18.0075 6.44508ZM17.5969 6.63342C17.6082 6.60992 17.6545 6.58447 17.6947 6.56244C17.7191 6.54903 17.7412 6.53689 17.7517 6.52722C17.7773 6.50088 17.7896 6.54942 17.7786 6.57228C17.7605 6.61008 17.6665 6.67404 17.6253 6.67572C17.6031 6.67668 17.5859 6.65628 17.5969 6.63342Z" fill="white"/>
<path fill-rule="evenodd" clip-rule="evenodd" d="M16.1827 6.87402C16.1786 6.79128 16.3069 6.78498 16.2922 6.89874C16.2828 6.9696 16.3497 7.09472 16.4218 7.22979C16.4334 7.25142 16.4451 7.27331 16.4567 7.29527C16.56 7.21598 16.6427 7.12468 16.6637 7.03078C16.6686 7.00932 16.6274 7.00807 16.579 7.00661C16.5194 7.00481 16.4488 7.00267 16.4387 6.96232C16.4276 6.9097 16.4224 6.76714 16.4969 6.7513C16.5849 6.73523 16.6133 6.79298 16.6368 6.84081C16.652 6.87172 16.6652 6.89848 16.6911 6.89848C16.7439 6.89848 16.8335 6.81298 16.8477 6.75406C16.8777 6.62715 16.9007 6.66724 16.9337 6.72476C16.9441 6.74289 16.9554 6.76276 16.9684 6.77968C17.0215 6.85162 17.0465 6.80491 17.081 6.74027C17.0858 6.73138 17.0908 6.72197 17.096 6.71266C17.1059 6.69454 17.1285 6.70042 17.1426 6.7075C17.1653 6.71628 17.1698 6.73191 17.1736 6.74521C17.1759 6.75328 17.178 6.76049 17.1837 6.7648C17.2002 6.77716 17.2286 6.76282 17.2377 6.748C17.2433 6.73888 17.2425 6.72577 17.2415 6.71059C17.2405 6.69331 17.2392 6.67333 17.2471 6.65344C17.2753 6.57094 17.3142 6.58612 17.3169 6.63712C17.3165 6.65809 17.3175 6.67666 17.3184 6.69419C17.3208 6.74165 17.3229 6.78149 17.2963 6.84082C17.2812 6.87476 17.2422 6.86501 17.2026 6.85515C17.1639 6.84549 17.1247 6.83571 17.1072 6.8668C17.0705 6.93378 17.0219 6.90808 16.9751 6.88335C16.9451 6.86751 16.9159 6.85207 16.8911 6.8617C16.8253 6.8872 16.7559 7.0015 16.7387 7.07608C16.7075 7.20348 16.6081 7.29626 16.4966 7.37337C16.5403 7.46216 16.5757 7.54859 16.5834 7.62048C16.5993 7.76886 16.4962 7.8987 16.3942 7.97952C16.269 8.07648 16.0766 8.06316 15.9865 8.00754C15.932 7.96368 15.8824 7.8135 15.9232 7.7541C15.9274 7.74823 15.936 7.76475 15.9497 7.79102C15.9826 7.85433 16.045 7.9742 16.1465 7.97352C16.342 7.97232 16.5002 7.82544 16.5061 7.69452C16.5095 7.61581 16.4725 7.52134 16.4224 7.42182C16.3977 7.43721 16.3731 7.45207 16.349 7.46657C16.3163 7.48625 16.2847 7.50528 16.2556 7.52416C16.2098 7.55194 16.1391 7.48618 16.2001 7.45288C16.2601 7.42291 16.3234 7.38727 16.3834 7.34746C16.3705 7.32373 16.3573 7.29987 16.3441 7.27602C16.2643 7.1317 16.1845 6.9874 16.1827 6.87402ZM16.6091 6.94054C16.6135 6.91348 16.5466 6.82696 16.5223 6.82576C16.5074 6.82504 16.5012 6.90784 16.5167 6.92098C16.5376 6.93868 16.6061 6.95332 16.6091 6.94054Z" fill="white"/>
<path d="M16.7545 7.43742C16.7869 7.41432 16.8385 7.51518 16.802 7.54038C16.7717 7.5606 16.7125 7.46538 16.7545 7.43742ZM16.8024 7.2156C16.7927 7.22946 16.8252 7.24074 16.8415 7.23282C16.9177 7.19586 17.0206 7.12458 17.0629 7.06416C17.076 7.04538 17.038 7.00704 17.0163 7.0176C16.9456 7.05192 16.8481 7.15026 16.8024 7.2156ZM17.6341 6.81162C17.6183 6.81954 17.6269 6.85308 17.6421 6.85818C17.6744 6.86898 17.7333 6.87102 17.7599 6.85638C17.7986 6.8325 17.7809 6.68568 17.7292 6.7641C17.7053 6.79723 17.6859 6.80037 17.6649 6.80379C17.6552 6.80536 17.6451 6.80699 17.6341 6.81162ZM17.3006 7.06122C17.218 7.00098 17.1176 7.08726 17.1967 7.14882C17.2616 7.19988 17.2429 7.26786 17.2232 7.29936C17.1823 7.3652 17.1342 7.43018 17.0811 7.49298C17.0596 7.42968 17.0577 7.34771 17.0563 7.28971L17.0558 7.27072C17.0539 7.20088 16.9973 7.21438 17.0008 7.26556L17.0011 7.29581C17.0017 7.37101 17.0027 7.48226 17.0225 7.55932C16.9587 7.62845 16.8896 7.69416 16.8184 7.75452C16.7672 7.80072 16.8023 7.908 16.8422 7.8654C16.9047 7.80313 16.9822 7.72055 17.0572 7.63155C17.0639 7.63821 17.0715 7.64292 17.08 7.6453C17.304 7.70733 17.4483 7.57459 17.5373 7.49263C17.576 7.45702 17.6043 7.43099 17.6242 7.4347C17.6409 7.43805 17.666 7.47928 17.6953 7.52764C17.7295 7.58388 17.7695 7.64976 17.8091 7.67692C17.9156 7.74484 17.9507 7.70092 17.9069 7.62712C17.8853 7.59204 17.8625 7.55616 17.8394 7.51971C17.8218 7.49203 17.804 7.46389 17.7861 7.43523C17.7939 7.42388 17.8018 7.41165 17.8099 7.39917C17.8517 7.33472 17.8993 7.26115 17.9746 7.23966C18.0382 7.2197 18.0964 7.21738 18.1582 7.21492C18.1916 7.21359 18.226 7.21222 18.2629 7.20798C18.3714 7.19514 18.3936 7.1004 18.2877 7.11528C18.1166 7.14204 17.8223 7.11528 17.7896 7.07478C17.7608 7.04196 17.9501 6.8859 18.0635 6.88086C18.1997 6.87204 18.2609 6.732 18.179 6.64896C18.1306 6.60138 18.0146 6.63036 18.0157 6.67176C18.0167 6.71339 18.0471 6.71572 18.0737 6.71777C18.0971 6.71956 18.1175 6.72113 18.1129 6.74862C18.1061 6.7926 18.0367 6.81258 17.9681 6.80964C17.8952 6.8067 17.7142 6.98796 17.6894 7.04166C17.6708 7.0761 17.6567 7.1379 17.7053 7.15254C17.7286 7.15919 17.7708 7.16425 17.8114 7.16911C17.8775 7.17703 17.9392 7.18442 17.9075 7.19724C17.844 7.22204 17.785 7.29537 17.7402 7.36067C17.6388 7.19221 17.5416 7.00425 17.4904 6.78154C17.4733 6.70624 17.3583 6.74536 17.4043 6.85096C17.4173 6.88288 17.438 6.92278 17.4607 6.96642C17.5243 7.08892 17.6033 7.24095 17.5711 7.32898C17.522 7.44502 17.2894 7.59346 17.1844 7.58758C17.1564 7.58605 17.1346 7.57496 17.1177 7.55749C17.2782 7.35444 17.4029 7.1384 17.3006 7.06122ZM18.4177 6.76422C18.4344 6.74954 18.4471 6.73 18.4598 6.71029C18.4732 6.68973 18.4867 6.66897 18.5049 6.65334C18.5245 6.63372 18.5557 6.65724 18.5505 6.70452C18.5469 6.73521 18.5123 6.76239 18.4814 6.78668C18.4748 6.79188 18.4684 6.79696 18.4624 6.8019C18.4351 6.82242 18.4033 6.77814 18.4177 6.76422ZM18.8059 6.62622C18.8566 6.62064 18.8692 6.71844 18.8138 6.73428C18.7802 6.7455 18.7508 6.63198 18.8059 6.62622ZM18.6781 6.92862C18.6774 7.00726 18.7136 7.00575 18.7829 7.00285L18.7982 7.00224L18.8173 7.00162C18.8861 6.99956 18.9429 6.99786 18.9427 6.92814C18.9423 6.8493 18.899 6.7803 18.8863 6.83394C18.8845 6.84216 18.8827 6.85124 18.8809 6.86051C18.8717 6.90808 18.8615 6.96101 18.8369 6.93096C18.8326 6.92613 18.8292 6.92188 18.8264 6.91835C18.8211 6.91158 18.8178 6.90746 18.814 6.9069C18.8081 6.90602 18.8009 6.91374 18.7825 6.93346L18.7727 6.94398C18.7534 6.96439 18.7466 6.94778 18.7382 6.92719C18.7351 6.91959 18.7317 6.9114 18.7274 6.90438C18.7164 6.88896 18.6782 6.91686 18.6781 6.92862ZM18.1804 7.6275C18.1234 7.62576 18.106 7.4697 18.1249 7.35822C18.1345 7.29882 18.0734 7.32072 18.041 7.41414C18.0052 7.51452 18.0943 7.75182 18.1804 7.76214C18.2267 7.7679 18.272 7.68514 18.3148 7.60676C18.3528 7.53736 18.3889 7.47139 18.4222 7.47336C18.4449 7.47469 18.4455 7.51423 18.4462 7.56528C18.4476 7.65772 18.4496 7.78786 18.5843 7.79706C18.6101 7.79887 18.6388 7.77575 18.6689 7.75153C18.7019 7.72497 18.7365 7.69707 18.7707 7.69926C18.7982 7.69985 18.8232 7.71952 18.8492 7.74012C18.8788 7.76349 18.9099 7.78805 18.9481 7.78728C19.0285 7.7856 19.1393 7.70466 19.1321 7.56228C19.1309 7.52471 19.1434 7.48265 19.1557 7.4411C19.1737 7.38032 19.1913 7.32062 19.1657 7.27764C19.1039 7.17138 18.9893 7.1616 19.0357 7.23942C19.0924 7.33347 19.0732 7.41973 19.0542 7.50475C19.0481 7.53222 19.042 7.55957 19.0385 7.587C19.0114 7.7655 18.8429 7.6785 18.8378 7.61958C18.8291 7.51704 18.8408 7.29126 18.8475 7.16814C18.8511 7.09932 18.7831 7.11486 18.7753 7.18908C18.7691 7.233 18.7709 7.28778 18.7727 7.34426C18.7757 7.43324 18.7788 7.52643 18.7506 7.5879C18.7253 7.64322 18.5687 7.71762 18.5474 7.6788C18.508 7.60674 18.5039 7.36146 18.5489 7.24686C18.5786 7.17258 18.5074 7.185 18.466 7.25622C18.3968 7.38384 18.2509 7.62978 18.1804 7.6275Z" fill="white"/>
<path fill-rule="evenodd" clip-rule="evenodd" d="M16.4866 15.8972C16.4125 15.8652 16.3263 15.896 16.249 15.9773C16.2269 15.999 16.2045 16.0206 16.1817 16.0422C16.0809 16.0438 15.9641 16.0451 15.8473 16.023C15.8914 16.0826 15.9633 16.1331 16.043 16.1701C15.9694 16.2363 15.8945 16.3011 15.8202 16.3637C15.8235 16.349 15.8209 16.3326 15.8112 16.3145C15.7641 16.2332 15.6593 16.2715 15.5144 16.3245C15.4183 16.3596 15.3046 16.4012 15.1784 16.4185C15.2992 16.476 15.591 16.4867 15.7363 16.4336C15.6584 16.4978 15.5822 16.5592 15.5098 16.6165C15.4547 16.5611 15.3261 16.5325 15.1603 16.4957C14.9613 16.4515 14.7087 16.3954 14.4657 16.2667C14.5432 16.434 15.0908 16.7199 15.3737 16.7495C15.3319 16.8293 15.3591 16.9337 15.6448 17.038C15.659 17.0434 15.9442 17.1491 16.125 17.1558C16.1988 17.1538 16.1986 17.264 16.185 17.2934C16.1735 17.3149 16.1693 17.3316 16.1655 17.3468C16.1588 17.3731 16.1533 17.3952 16.1134 17.431C16.0477 17.4864 16.1204 17.5582 16.172 17.5094C16.3873 17.3224 16.7335 17.4351 17.0706 17.5449L17.094 17.5525C17.1753 17.575 17.3242 17.5687 17.3229 17.4565C17.3243 17.3342 17.4129 17.2477 17.4671 17.2446C17.6077 17.2689 18.3022 17.2766 18.5162 17.2507C18.5979 17.2401 18.6293 17.3166 18.66 17.3915C18.6762 17.4309 18.6921 17.4698 18.7152 17.4953C18.7612 17.5442 18.9384 17.5571 19.0597 17.5035C19.2997 17.392 19.6656 17.392 19.8147 17.4986C19.8759 17.5453 19.9243 17.5074 19.8895 17.46C19.859 17.4161 19.8497 17.3881 19.8399 17.3587C19.8352 17.3448 19.8305 17.3305 19.8233 17.314C19.7673 17.2001 19.812 17.1722 19.8707 17.164C20.4363 17.0911 20.6735 16.9157 20.6053 16.7513C20.8812 16.7344 21.4548 16.4382 21.5342 16.2667C21.2913 16.3954 21.0387 16.4515 20.8396 16.4957C20.671 16.5332 20.5408 16.5621 20.4874 16.6194C20.4413 16.5795 20.3944 16.5394 20.3471 16.499C20.3233 16.4786 20.2993 16.4582 20.2754 16.4376C20.4241 16.4861 20.704 16.4745 20.8216 16.4185C20.6954 16.4012 20.5817 16.3596 20.4856 16.3245C20.3407 16.2715 20.2358 16.2332 20.1888 16.3145C20.1812 16.3287 20.1779 16.3419 20.1785 16.354C20.1078 16.2925 20.0371 16.2297 19.9678 16.165C20.0432 16.1285 20.1105 16.0799 20.1527 16.023C20.0446 16.0434 19.9365 16.0439 19.841 16.0425C19.8062 16.0076 19.7719 15.9721 19.7383 15.9358C19.6863 15.8808 19.6478 15.8511 19.5694 15.8663C19.5753 15.8611 19.5816 15.8546 19.5882 15.8478C19.6075 15.8279 19.6297 15.805 19.656 15.8017C19.6644 15.8012 19.6712 15.7995 19.6766 15.797C19.6904 15.8778 19.7305 15.931 19.7969 15.9159C19.8639 15.8954 19.8461 15.8249 19.8212 15.7265C19.7965 15.6285 19.7648 15.5029 19.8029 15.3717C19.7189 15.4557 19.675 15.595 19.6713 15.712C19.6447 15.6706 19.5991 15.6286 19.5649 15.6195C19.5054 15.6077 19.4684 15.7147 19.5213 15.8492C19.5262 15.8624 19.5313 15.8704 19.5368 15.8745C19.5206 15.8794 19.503 15.8858 19.4835 15.8939C19.0503 16.0912 18.5002 16.2351 17.962 16.2456C17.4612 16.2499 16.7725 16.0182 16.4866 15.8972ZM19.7125 17.1994C19.7154 17.2703 19.7238 17.3273 19.7658 17.3842C19.5213 17.2863 19.176 17.3387 18.9398 17.4487C18.8344 17.4989 18.707 17.3912 18.8305 17.2891C18.9487 17.1933 19.1711 17.1984 19.3953 17.2036C19.5046 17.2061 19.6143 17.2086 19.7125 17.1994ZM16.2622 17.1957C16.2657 17.2625 16.2579 17.3237 16.2334 17.3821C16.4992 17.272 16.7846 17.3635 17.0532 17.4717C17.2378 17.5481 17.2527 17.4159 17.2201 17.3702C17.1641 17.289 17.0556 17.1999 16.9185 17.198C16.8271 17.1967 16.4755 17.1936 16.2622 17.1957Z" fill="white"/>
<path d="M19.1375 6.87646C19.0354 6.81418 19.144 6.6523 19.1938 6.70918C19.2368 6.76064 19.2799 6.84362 19.3205 6.92178C19.371 7.01886 19.4176 7.10849 19.4552 7.12102C19.4814 7.12981 19.4909 7.05244 19.5012 6.96842C19.5077 6.91479 19.5147 6.85845 19.5265 6.82006C19.546 6.74728 19.634 6.77104 19.6172 6.86428C19.6153 6.87488 19.6014 6.9228 19.5842 6.98197C19.5508 7.0969 19.5051 7.25435 19.5106 7.26358C19.5863 7.4149 19.6612 7.56844 19.7086 7.73086C19.7282 7.80088 19.6441 7.75372 19.634 7.7392C19.5965 7.68299 19.5392 7.5157 19.5082 7.42525C19.4949 7.38652 19.4864 7.36187 19.4864 7.36606L19.4642 7.47805C19.4378 7.61171 19.424 7.68181 19.3871 7.82908C19.3732 7.88788 19.2866 7.8772 19.3061 7.77364C19.3138 7.7389 19.339 7.64849 19.3656 7.55293C19.4042 7.41451 19.4458 7.26517 19.4417 7.258C19.3444 7.08628 19.2554 6.9505 19.1375 6.87646ZM19.3218 7.8722C19.2934 7.86896 19.2492 7.9355 19.391 7.9616C19.5803 7.99592 19.7876 7.93214 19.8512 7.74644C19.883 7.64957 19.9101 7.55496 19.9337 7.47258C19.964 7.36685 19.9886 7.28124 20.0099 7.23686C20.0242 7.20921 20.0396 7.19054 20.053 7.1743C20.0843 7.13645 20.1046 7.11186 20.0733 7.0178C20.0417 6.92108 19.9827 6.95024 19.9703 7.00196C19.9372 7.14296 19.8116 7.59908 19.7723 7.68308C19.6983 7.83638 19.5492 7.89698 19.3218 7.8722ZM19.701 7.14462C19.6808 7.10112 19.6334 7.13478 19.6419 7.18242C19.6436 7.20085 19.6523 7.21792 19.6663 7.23006C19.6803 7.2422 19.6984 7.24848 19.7169 7.24758L19.726 7.24732C19.77 7.24619 19.8462 7.24423 19.8464 7.18008C19.8465 7.13166 19.8085 7.09122 19.7802 7.14462C19.7532 7.19298 19.7184 7.18794 19.701 7.14462ZM19.7643 7.02558C19.7469 7.02618 19.7339 6.9723 19.7484 6.96222C19.7896 6.93361 19.8692 6.93169 19.9283 6.93026L19.9492 6.9297C19.9687 6.92898 19.9745 6.9615 19.9608 6.9711C19.9138 7.0038 19.8261 7.02348 19.7643 7.02558ZM20.274 7.09782C20.3188 7.0278 20.4424 7.02066 20.398 7.12062C20.3665 7.1895 20.0589 7.78392 20.0169 7.85952C19.971 7.94454 19.9335 7.90242 19.9661 7.83624C19.9907 7.78848 20.08 7.56871 20.1563 7.38116C20.2161 7.23415 20.2679 7.10692 20.274 7.09782ZM19.8108 7.98289C19.7977 7.93561 19.7243 7.86566 19.7326 7.9922C19.7472 8.22188 20.0628 8.14927 20.1583 8.06761C20.1996 8.03105 20.2042 8.08809 20.2101 8.16177C20.2165 8.24286 20.2246 8.3441 20.2851 8.36293C20.3485 8.38333 20.4681 8.29664 20.5269 8.22037C20.6103 8.11212 20.6782 7.97986 20.7456 7.84852L20.7804 7.78109C20.8 7.86014 20.8161 7.94241 20.8287 8.02124C20.7527 8.15656 20.6872 8.27346 20.6765 8.30325C20.6493 8.38455 20.714 8.41515 20.7353 8.35083C20.7516 8.3004 20.7933 8.21688 20.844 8.12667C20.8579 8.23521 20.8647 8.32986 20.8647 8.38978C20.8652 8.39824 20.9291 8.34502 20.9291 8.34502C20.9192 8.24873 20.9078 8.14463 20.8943 8.03979C20.977 7.90136 21.0685 7.76671 21.1133 7.72635C21.209 7.63737 21.111 7.47237 21.0881 7.53315C21.066 7.59517 20.9722 7.76543 20.8795 7.93086C20.8669 7.84364 20.8526 7.7576 20.8362 7.67683C20.872 7.61261 20.9093 7.55152 20.9503 7.4969C21.0096 7.4153 20.9179 7.35698 20.8809 7.4219C20.8578 7.46062 20.8338 7.50617 20.8089 7.55572C20.7746 7.41942 20.7324 7.30816 20.6799 7.24738C20.6282 7.18792 20.5517 7.33936 20.5903 7.37056C20.6561 7.4247 20.7094 7.53901 20.7508 7.67398L20.745 7.68596C20.638 7.90675 20.5179 8.15464 20.3904 8.23819C20.2685 8.31616 20.2743 8.18702 20.2783 8.09957C20.2792 8.07879 20.28 8.06037 20.279 8.04764C20.2724 7.99904 20.2132 7.92745 20.1341 7.99315C20.0788 8.03635 19.993 8.07146 19.9152 8.06444L19.9106 8.06418C19.8675 8.06187 19.8313 8.05993 19.8108 7.98289ZM20.3743 7.55596C20.3759 7.543 20.3075 7.53712 20.3109 7.60348C20.3133 7.65262 20.372 7.66594 20.3822 7.65892C20.4334 7.62165 20.4218 7.61535 20.4032 7.60532C20.3884 7.59726 20.369 7.5868 20.3743 7.55596ZM20.2478 7.89106C20.2049 7.88776 20.2217 7.82962 20.2399 7.82536C20.2721 7.81939 20.3161 7.82252 20.3611 7.82572C20.3958 7.82819 20.4311 7.83071 20.4622 7.82914C20.521 7.82632 20.5105 7.87882 20.483 7.87984C20.4618 7.87858 20.4129 7.88207 20.3643 7.88553C20.3157 7.889 20.2674 7.89244 20.2478 7.89106ZM14.8381 8.24536C14.8288 8.2732 14.8658 8.34874 14.9041 8.35432C14.9418 8.35708 14.961 8.27272 14.9489 8.24536C14.9399 8.2252 14.8447 8.22562 14.8381 8.24536ZM15.0001 8.63134C14.9425 8.58196 15.0137 8.51212 15.0379 8.53816C15.0737 8.57122 15.1406 8.56648 15.1264 8.47294C15.1084 8.37418 15.0858 8.21476 15.0975 8.13946C15.1049 8.08924 15.1754 8.0857 15.1958 8.12206C15.2365 8.19796 15.367 8.35924 15.4181 8.35924C15.4646 8.35924 15.5355 8.2258 15.528 8.16406C15.5232 8.12488 15.4735 8.07549 15.4263 8.02854C15.392 7.99438 15.3589 7.96151 15.3454 7.9348C15.3167 7.87564 15.3762 7.84228 15.4003 7.85704C15.434 7.87762 15.4687 7.93121 15.5045 7.98655C15.5442 8.04772 15.5851 8.11102 15.6277 8.13424C15.6628 8.15338 15.7582 8.0827 15.7489 8.04718C15.7291 7.97182 15.6053 7.858 15.535 7.8016C15.4802 7.76008 15.5191 7.63396 15.6062 7.70656C15.6725 7.76404 15.8166 7.8925 15.8298 7.98148C15.8464 8.07418 15.8333 8.22268 15.7145 8.20684C15.6259 8.1965 15.5923 8.26876 15.5595 8.3394C15.5278 8.40778 15.4967 8.47465 15.4171 8.46364C15.3829 8.45651 15.3312 8.40376 15.2842 8.35575C15.2366 8.30714 15.1937 8.2634 15.1786 8.2768C15.1604 8.29293 15.1702 8.35906 15.181 8.43185C15.1931 8.51313 15.2064 8.60271 15.1832 8.64022C15.1508 8.69554 15.0325 8.6575 15.0001 8.63134ZM14.7937 8.02396C14.7733 8.047 14.8412 8.092 14.8547 8.08036C14.8808 8.05768 14.9824 7.94188 14.9628 7.90138C14.9454 7.86532 14.8057 7.7863 14.783 7.82542C14.7569 7.86738 14.8138 7.89499 14.8543 7.91466C14.8791 7.92671 14.8978 7.93577 14.8874 7.94332C14.874 7.951 14.8262 7.98406 14.7937 8.02396ZM15.0439 7.51636C15.0439 7.51636 15.0875 7.66576 15.1231 7.60348C15.1519 7.56034 15.0439 7.51636 15.0439 7.51636ZM15.1153 7.75396C15.0993 7.76272 15.0542 7.79836 15.0836 7.81732C15.13 7.84474 15.2561 7.86652 15.2288 7.77676C15.2226 7.75685 15.2481 7.75217 15.2797 7.74639C15.3317 7.73684 15.4001 7.7243 15.3687 7.63516C15.3555 7.59556 15.2932 7.53844 15.2625 7.53034C15.243 7.52524 15.1768 7.56154 15.2182 7.58158C15.2485 7.59718 15.3397 7.65082 15.3058 7.68598C15.2838 7.70696 15.2656 7.69858 15.2451 7.68914C15.2298 7.68206 15.2131 7.67438 15.1926 7.67806C15.1788 7.68068 15.1781 7.70449 15.1774 7.7278C15.1769 7.74499 15.1764 7.76191 15.1706 7.76986C15.1668 7.77504 15.1562 7.76922 15.1448 7.76304C15.1336 7.75691 15.1217 7.75043 15.1153 7.75396ZM15.3695 7.30282C15.3712 7.27012 15.418 7.19938 15.4441 7.18636C15.4603 7.17826 15.4749 7.20604 15.4739 7.22548C15.4723 7.2562 15.43 7.32316 15.4027 7.33684C15.3877 7.34428 15.3686 7.32028 15.3695 7.30282ZM15.6145 7.16776C15.5641 7.10614 15.6679 7.01476 15.7147 7.138C15.728 7.17465 15.8026 7.28277 15.8839 7.40073C15.9743 7.53187 16.0731 7.67516 16.1055 7.74592C16.1491 7.83688 16.1039 7.87444 16.0501 7.80928C15.9733 7.71136 15.9035 7.6013 15.8329 7.49003C15.7633 7.38027 15.6929 7.26934 15.6145 7.16776ZM16.0573 6.93298C16.0867 6.99916 15.9772 7.11796 15.9235 7.17616C15.9138 7.18666 15.8995 7.15012 15.9034 7.13608C15.9145 7.09739 15.9322 7.06937 15.9523 7.03759C15.9634 7.02018 15.9751 7.00164 15.9868 6.9796C15.9926 6.96998 15.9818 6.96641 15.9686 6.96207C15.9454 6.95443 15.915 6.94445 15.9566 6.89482C15.968 6.88162 16.0346 6.87598 16.0573 6.93298ZM21.2568 7.75745C21.3198 7.52135 21.4723 7.79387 21.3379 7.92827C21.2643 8.00044 21.2089 8.09591 21.1533 8.19165C21.0524 8.36551 20.951 8.54025 20.7387 8.57789C20.65 8.59697 20.4938 8.53793 20.4475 8.50505C20.4295 8.49221 20.4592 8.40797 20.5147 8.44907C20.5949 8.51171 20.7606 8.52587 20.848 8.45465C21.0351 8.27105 21.1874 8.02787 21.2568 7.75745ZM17.8061 8.53644C17.818 8.53277 17.8298 8.52911 17.8362 8.52185C17.8474 8.50871 17.8434 8.48567 17.8278 8.48087C17.7827 8.46719 17.7475 8.46023 17.682 8.50565C17.6473 8.52779 17.6731 8.57273 17.7067 8.58053C17.7375 8.58567 17.7228 8.63326 17.7056 8.68925C17.6947 8.7249 17.6826 8.76396 17.6806 8.79761C17.6767 8.86433 17.7336 8.86127 17.7523 8.77937C17.7623 8.73558 17.7625 8.70242 17.7627 8.66855C17.7629 8.63629 17.7631 8.60339 17.7718 8.56007C17.7742 8.54632 17.7902 8.54138 17.8061 8.53644ZM17.6929 8.4792C17.7246 8.45713 17.7569 8.43464 17.7901 8.40559C17.8376 8.36653 17.8039 8.29849 17.7566 8.33623L17.7251 8.35929C17.6462 8.41696 17.5801 8.46526 17.499 8.54809C17.4845 8.56285 17.4741 8.59693 17.464 8.62977C17.4532 8.66473 17.4429 8.69829 17.4286 8.70559C17.4123 8.71461 17.4028 8.69844 17.3916 8.67934C17.3786 8.65741 17.3635 8.63162 17.3331 8.63569C17.3141 8.63835 17.3024 8.65533 17.2881 8.67621C17.2644 8.71082 17.2333 8.75614 17.149 8.76475C17.1096 8.76883 17.1874 8.85331 17.2288 8.85415C17.263 8.85478 17.2827 8.81714 17.3035 8.77764C17.3104 8.76438 17.3175 8.75089 17.3253 8.73859C17.3468 8.70712 17.3539 8.72889 17.3629 8.75634C17.3691 8.77526 17.3762 8.79687 17.3895 8.80561C17.409 8.81671 17.472 8.80627 17.4915 8.75299C17.4987 8.7346 17.5031 8.71559 17.5074 8.69694C17.5149 8.66471 17.5221 8.63356 17.5428 8.60863C17.5921 8.54935 17.6417 8.51482 17.6929 8.4792ZM18.1069 8.69659C18.0374 8.71063 18.0492 8.80003 18.0697 8.81113C18.1033 8.82685 18.1555 8.83345 18.175 8.73061C18.1776 8.71858 18.1801 8.73048 18.1845 8.75138C18.1956 8.80379 18.2187 8.91281 18.2848 8.84341C18.31 8.81564 18.3526 8.81645 18.3964 8.81728C18.4455 8.81821 18.4961 8.81916 18.5253 8.78005C18.5649 8.73073 18.5771 8.69629 18.5463 8.62345C18.5373 8.60131 18.4831 8.61223 18.4862 8.66599C18.4889 8.71129 18.4541 8.76721 18.4088 8.75767C18.3981 8.75571 18.4007 8.72943 18.4037 8.69962C18.4069 8.66816 18.4104 8.63275 18.3991 8.61787C18.3869 8.60197 18.3684 8.60371 18.3563 8.62021C18.3502 8.62848 18.3507 8.64695 18.3512 8.66786C18.3522 8.70525 18.3533 8.75045 18.3175 8.75911C18.2742 8.76907 18.2715 8.7409 18.2689 8.7141C18.2672 8.69733 18.2656 8.68109 18.2542 8.67511C18.1875 8.64151 18.1627 8.66068 18.1397 8.6785C18.1295 8.68632 18.1198 8.69388 18.1069 8.69659ZM18.7131 8.48982C18.6884 8.51203 18.6849 8.51515 18.6499 8.52499C18.6268 8.53336 18.6355 8.55423 18.6442 8.57495C18.6485 8.58542 18.6529 8.59585 18.6531 8.60461C18.6539 8.63738 18.6507 8.66711 18.6477 8.6952C18.6436 8.73298 18.6398 8.76779 18.6466 8.80303C18.6506 8.82343 18.6921 8.82565 18.6978 8.79979C18.7008 8.78191 18.7014 8.75479 18.7021 8.72488C18.7034 8.67048 18.7049 8.6068 18.7211 8.57251C18.7293 8.55296 18.7462 8.55024 18.7622 8.54766C18.7798 8.54484 18.7963 8.54219 18.7993 8.51791C18.8026 8.49055 18.7964 8.42125 18.7652 8.44495C18.74 8.46554 18.7243 8.47967 18.7131 8.48982ZM18.3499 8.36779C18.3384 8.4199 18.3385 8.46337 18.3385 8.49998V8.50729C18.3414 8.53813 18.3977 8.51827 18.3975 8.51437C18.3964 8.49686 18.3972 8.47695 18.398 8.45774C18.3993 8.42336 18.4006 8.39124 18.3913 8.37919C18.3835 8.36899 18.3528 8.35729 18.3499 8.36779ZM17.9724 7.81201L17.8849 8.14765L17.7631 7.92265V8.15329L17.5007 7.84201L17.5919 8.17579L17.3561 7.97515L17.4816 8.20201L17.0631 7.93201L17.3294 8.24329L16.9946 8.07829L17.2343 8.28079L16.6865 8.07451L17.2153 8.33515C17.4087 8.23987 17.6737 8.18137 17.9685 8.18137C18.2623 8.18137 18.5286 8.24047 18.7218 8.33515H18.7256L19.2506 8.07451L18.7104 8.28265L18.9462 8.07829L18.6153 8.24137L18.8778 7.93201L18.4593 8.20201L18.5849 7.97515L18.3489 8.17579L18.4403 7.84201L18.1778 8.15521L18.1815 7.92265L18.0598 8.14765L17.9724 7.81201ZM14.2738 8.13232C14.2135 8.38834 14.1 8.99914 14.2573 9.07912C14.3848 8.94007 14.3269 8.5191 14.2824 8.19524L14.2738 8.13232ZM14.6455 8.33872C14.6668 8.67274 14.5632 8.8561 14.3863 8.8282C14.3376 8.64292 14.4484 8.5186 14.6455 8.33872ZM15.4572 10.998C15.4572 11.0284 15.446 11.0576 15.4258 11.08L16.3615 12.656V12.5377H16.8376V13.0585H16.3615V12.785L15.7965 11.8335C15.7693 11.8576 15.7212 11.8865 15.6683 11.9184C15.5943 11.9629 15.5107 12.0132 15.4612 12.0639C15.4484 12.0776 15.4369 12.0916 15.4264 12.1059L15.4297 12.1134C15.3556 12.2184 15.3345 12.3373 15.3139 12.4531C15.3035 12.512 15.2931 12.5702 15.276 12.6252C15.2735 12.6335 15.2703 12.6456 15.2673 12.6571L15.2637 12.6709L15.2685 12.6815L15.261 12.6751C15.2513 12.7111 15.2414 12.7522 15.2311 12.7943C15.1897 12.9649 15.1438 13.1539 15.0929 13.1093C15.0657 13.0829 15.0278 13.0396 14.9845 12.9899C14.8996 12.8927 14.7936 12.7714 14.7049 12.7054C14.6699 12.6776 14.6943 12.5937 14.7156 12.521C14.7251 12.4885 14.7339 12.4581 14.7365 12.4361C14.7435 12.3754 14.7416 12.3137 14.7391 12.2515C14.7334 12.2383 14.7283 12.2235 14.7239 12.2069L14.7356 12.2171C14.7342 12.1751 14.7343 12.1329 14.736 12.0909C14.7369 11.9217 14.8361 11.6642 14.9779 11.5677C14.9814 11.5653 14.9841 11.5626 14.9867 11.56C14.9892 11.5575 14.9916 11.555 14.9948 11.5527L14.9943 11.5574C15.126 11.4625 15.2159 11.3551 15.2816 11.2766C15.333 11.2152 15.3696 11.1715 15.3998 11.1653L15.3702 11.1155C15.3587 11.119 15.3467 11.1208 15.3344 11.1208C15.3019 11.1208 15.2706 11.1079 15.2476 11.0848C15.2246 11.0618 15.2117 11.0306 15.2117 10.998C15.2117 10.9655 15.2246 10.9343 15.2476 10.9112C15.2706 10.8882 15.3019 10.8753 15.3344 10.8753C15.367 10.8753 15.3982 10.8882 15.4212 10.9112C15.4443 10.9343 15.4572 10.9655 15.4572 10.998ZM16.7996 9.55683H16.368V9.65583H16.7996V9.55683ZM16.368 9.74463H16.7996V10.5717H16.368V9.74463ZM16.8204 9.44685L16.3416 9.44403C16.3379 9.28821 16.4888 9.11541 16.5824 9.11085C16.677 9.10905 16.8391 9.28449 16.8204 9.44685ZM16.8264 11.2441H16.3447V11.9106H16.8264V11.2441ZM16.3729 12.2917H16.8378V12.4317H16.3729V12.2917ZM16.8487 13.1653H16.3279V13.4565H16.8487V13.1653ZM16.3921 12.1663H16.8118L16.8951 12.0277H16.3169L16.3921 12.1663ZM16.9619 11.2915L16.9579 11.6557C17.0319 11.4987 17.1374 11.3851 17.251 11.2915H16.9619ZM14.3131 9.10799C14.5775 9.19997 14.7868 8.91527 14.8575 8.58551C14.7567 8.72469 14.6266 8.79962 14.5187 8.86178C14.3931 8.93411 14.2976 8.98914 14.3131 9.10799ZM14.0546 8.54315C14.0089 8.8376 13.9267 9.36726 14.1127 9.41639C14.2344 9.34108 14.15 8.89307 14.0939 8.59574C14.084 8.54297 14.0749 8.49494 14.0681 8.45459C14.0643 8.48054 14.0597 8.51039 14.0546 8.54315ZM14.1835 9.39599C14.1908 9.2549 14.2823 9.22863 14.3874 9.19843C14.4488 9.18079 14.5149 9.16181 14.5716 9.11783C14.5465 9.22943 14.452 9.42743 14.1835 9.39599ZM13.8257 8.96302C13.8057 9.2772 13.7817 9.6553 13.9303 9.69539C14.0767 9.63268 13.9209 8.99759 13.8506 8.7114L13.837 8.65565C13.8402 8.73444 13.8332 8.84417 13.8257 8.96302ZM14.0257 9.66539C14.1935 9.71999 14.4158 9.61091 14.4333 9.41105C14.382 9.44584 14.3199 9.45886 14.2597 9.47149C14.1501 9.49447 14.0466 9.51616 14.0257 9.66539ZM13.7774 10.003C13.6302 10.0147 13.6431 9.68228 13.6587 9.28159C13.6638 9.14906 13.6693 9.00906 13.6693 8.87158C13.6925 9.0379 13.7285 9.1997 13.7613 9.34737C13.8306 9.65873 13.8859 9.90728 13.7774 10.003ZM13.845 9.97624C13.9773 10.0426 14.2143 9.93652 14.282 9.71302C14.202 9.74782 14.1309 9.75959 14.0702 9.76964C13.9496 9.7896 13.8704 9.80271 13.845 9.97624ZM15.3828 8.64844C15.348 8.93818 15.2295 9.10672 15.0526 9.07888C15.0039 8.8936 15.1473 8.77516 15.3828 8.64844ZM14.9148 9.39184C15.1732 9.4285 15.2862 9.25858 15.4442 9.02102C15.4659 8.98838 15.4885 8.95447 15.5124 8.91964C15.4176 8.98823 15.3165 9.03824 15.2249 9.08355C15.0485 9.17078 14.9074 9.24056 14.9148 9.39184ZM14.8315 9.35866C14.6773 9.1736 14.815 8.94296 14.9347 8.74245L14.9485 8.71924C14.9402 8.81609 14.945 8.89934 14.9492 8.97307C14.9583 9.13238 14.9648 9.24722 14.8315 9.35866ZM15.031 9.42995C14.8922 9.48817 14.7485 9.54841 14.7607 9.67606C15.0498 9.73565 15.14 9.51003 15.1907 9.38323C15.1969 9.36768 15.2025 9.35361 15.2079 9.34174C15.1613 9.37531 15.0967 9.4024 15.031 9.42995ZM14.7227 9.07031C14.5639 9.27935 14.472 9.65543 14.6935 9.68051C14.7725 9.61505 14.7552 9.52643 14.7331 9.41333C14.7142 9.31702 14.692 9.20295 14.7227 9.07031ZM14.53 9.38142C14.4351 9.56833 14.2756 9.8826 14.5268 9.99367C14.6241 9.88657 14.5948 9.77807 14.5621 9.65715C14.539 9.572 14.5143 9.4807 14.531 9.37939L14.53 9.38142ZM15.0194 9.65088C14.9665 9.91278 14.7087 10.1371 14.5764 9.96432C14.6059 9.87668 14.6703 9.84735 14.7603 9.80636C14.832 9.77371 14.9199 9.73367 15.0194 9.65088ZM14.0365 10.8143C14.0744 10.5953 14.1152 10.359 14.0306 10.2055C14.0119 10.1713 14.0717 10.0803 14.1104 10.1355C14.1336 10.1693 14.157 10.2272 14.1786 10.2804C14.2131 10.3657 14.2428 10.439 14.2588 10.3819C14.2657 10.3566 14.2712 10.3263 14.2769 10.2947C14.2939 10.2006 14.3131 10.0942 14.3798 10.0682C14.4368 10.048 14.5172 10.0347 14.4953 10.1243C14.4909 10.1414 14.4856 10.1598 14.4801 10.1784C14.4582 10.2533 14.4354 10.331 14.4788 10.3371C14.4965 10.3397 14.5329 10.3022 14.575 10.2588C14.6075 10.2252 14.6435 10.1881 14.6768 10.1635C14.7381 10.1132 14.8297 10.1919 14.74 10.2671C14.6847 10.313 14.6297 10.3541 14.5758 10.3945C14.3792 10.5416 14.1967 10.6782 14.0641 10.9979C14.2026 11.2358 14.3307 11.4882 14.4013 11.7374C14.4647 11.9669 14.405 12.3254 14.1941 12.5662C14.2014 12.3634 14.1269 12.2262 14.0351 12.0574L14.0317 12.051C14.0042 11.9973 13.959 11.9217 13.9028 11.8345C13.8879 11.9947 13.8465 12.1188 13.6927 12.1277C13.6772 11.9644 13.729 11.8925 13.7981 11.7964C13.8113 11.778 13.8251 11.7588 13.8392 11.7379C13.8077 11.6909 13.774 11.642 13.739 11.5923C13.7545 11.6955 13.7432 11.7863 13.6573 11.8499C13.5016 11.7761 13.5511 11.592 13.6081 11.4121C13.4784 11.2385 13.3445 11.0749 13.2421 10.9758L13.2321 10.965C13.2149 11.0734 13.1966 11.182 13.0793 11.2426C13.054 11.0824 13.1021 11.025 13.1743 10.9388C13.1823 10.9293 13.1907 10.9192 13.1993 10.9087C13.1984 10.8952 13.2062 10.8856 13.2227 10.8792C13.2363 10.8615 13.2504 10.8421 13.2646 10.8205C13.2582 10.8373 13.2532 10.8548 13.249 10.8727C13.2626 10.8707 13.2789 10.8696 13.298 10.8694C13.3291 10.8674 13.3711 10.8738 13.4152 10.8804C13.4927 10.8921 13.5763 10.9048 13.6172 10.8749C13.6538 10.8484 13.6587 10.7684 13.6634 10.6916C13.6662 10.6446 13.669 10.5987 13.6789 10.567C13.6903 10.5203 13.723 10.447 13.7965 10.5614L13.8393 10.6298C13.8975 10.7228 13.9586 10.8203 14.0186 10.9208C14.0241 10.8861 14.0303 10.8504 14.0365 10.8143ZM13.4714 15.0507L13.4766 15.0517C13.6741 15.0889 13.8825 15.0954 14.0725 15.052C14.2377 15.0118 14.3905 14.9413 14.5428 14.8711C14.7239 14.7876 14.9041 14.7045 15.1031 14.6732C15.362 14.627 15.6794 14.6893 15.8665 14.833C15.9292 14.8808 15.9901 14.9444 16.0456 15.0023C16.0656 15.0233 16.085 15.0434 16.1034 15.0619C16.1728 15.1314 16.1142 15.1295 16.0174 15.0978C15.9659 15.0809 15.9103 15.0697 15.853 15.0641C15.9286 15.2277 15.9548 15.4331 15.825 15.4035C15.7514 15.3901 15.7574 15.312 15.7668 15.1895C15.7698 15.1506 15.7731 15.1071 15.7744 15.0598C15.7309 15.0594 15.687 15.062 15.6437 15.0676C15.6949 15.1312 15.7011 15.2119 15.6414 15.2547C15.5557 15.3056 15.4944 15.2154 15.4576 15.1125C15.4185 15.1268 15.3814 15.1441 15.3472 15.1642C15.2739 15.2053 15.2107 15.2437 15.152 15.2794C14.9293 15.4149 14.7716 15.5108 14.3743 15.5632C13.8775 15.6222 13.7789 15.5065 13.4382 15.0868C13.3976 15.0362 13.4379 15.0441 13.4714 15.0507ZM16.344 15.8017C16.3702 15.805 16.3925 15.8279 16.4117 15.8478C16.439 15.8759 16.4604 15.8979 16.4787 15.8492C16.5316 15.7147 16.4945 15.6077 16.4351 15.6195C16.4009 15.6286 16.3552 15.6706 16.3287 15.712C16.325 15.595 16.2811 15.4557 16.197 15.3717C16.2352 15.5029 16.2035 15.6285 16.1787 15.7265C16.1539 15.8249 16.1361 15.8954 16.203 15.9159C16.2694 15.931 16.3095 15.8778 16.3234 15.797C16.3288 15.7995 16.3356 15.8012 16.344 15.8017ZM13.0182 12.5826C13.3408 12.7226 13.7759 12.76 14.1327 12.7754C14.1155 12.5953 14.3067 12.4191 14.4179 12.3979C14.4179 12.472 14.3898 12.704 14.2449 12.7813C14.4341 12.8073 14.6122 12.991 14.6814 13.1594C14.7433 13.3258 14.7858 13.4672 14.8314 13.6367C14.8338 13.6179 14.8354 13.5983 14.8357 13.5776C14.9841 13.8707 14.8551 14.179 14.7383 14.0929C14.667 14.0178 14.7003 13.9556 14.7465 13.8693C14.7718 13.822 14.801 13.7676 14.8189 13.6999C14.7105 13.584 14.5813 13.5024 14.433 13.4552C14.4674 13.4928 14.5009 13.528 14.5319 13.5607C14.6871 13.724 14.7829 13.8249 14.6419 13.8523C14.4536 13.8593 14.4118 13.6919 14.4201 13.4512C14.3904 13.4422 14.3598 13.4345 14.3286 13.4282C14.0888 13.3786 13.6703 13.2874 13.3473 13.1974C13.3656 13.2496 13.3887 13.3022 13.4105 13.352C13.4815 13.5138 13.5396 13.646 13.3777 13.6389C13.305 13.6221 13.3111 13.5283 13.3201 13.3915C13.324 13.3321 13.3284 13.2646 13.3272 13.1917L13.2745 13.1766C13.2922 13.2473 13.2773 13.3015 13.2043 13.3785C13.1004 13.3045 13.1051 13.2393 13.1351 13.1333C13.0365 13.1005 12.9609 13.0692 12.9229 13.0419C12.6948 12.8829 12.562 12.4207 12.5478 12.3306C12.5326 12.2642 12.5937 12.2358 12.615 12.2634C12.7307 12.4061 12.8384 12.5075 13.0182 12.5826ZM16.137 15.9123C16.1483 16.1069 15.6595 15.8869 15.5339 15.7356C15.6628 15.7903 15.794 15.8004 15.9009 15.8086C16.0336 15.8188 16.1292 15.8262 16.137 15.9123ZM15.3686 15.5101C15.499 15.6573 15.9403 15.823 15.9228 15.6345C15.9121 15.5477 15.8305 15.5484 15.7099 15.5495C15.6151 15.5503 15.4962 15.5513 15.3686 15.5101ZM16.0038 15.6609C16.1738 15.6996 16.1463 15.2762 15.981 15.1307C16.0207 15.2721 15.9929 15.3946 15.972 15.4867C15.9511 15.5787 15.9371 15.6405 16.0038 15.6609ZM15.276 15.2638C15.4092 15.4474 15.7526 15.5964 15.735 15.4023C15.724 15.3133 15.6689 15.3117 15.5698 15.3088C15.4962 15.3066 15.3983 15.3037 15.276 15.2638ZM13.8875 15.5816C14.0207 15.7652 14.5544 15.9786 14.5368 15.7845C14.5248 15.6877 14.3865 15.6692 14.2145 15.6461C14.111 15.6322 13.9952 15.6167 13.8875 15.5816ZM14.8638 15.8673C14.9752 15.7873 14.7479 15.5811 14.5668 15.5326C14.5875 15.6605 14.7391 15.9414 14.8638 15.8673ZM14.173 15.9193C14.3258 16.0805 14.91 16.1762 14.898 16.0017C14.8895 15.9245 14.8304 15.9293 14.7059 15.9395C14.5895 15.949 14.4159 15.9632 14.173 15.9193ZM14.4788 16.1467C14.6756 16.241 15.2363 16.2805 15.1715 16.1185C15.1447 16.0506 15.0148 16.0735 14.8464 16.1032C14.7346 16.1229 14.6057 16.1456 14.4788 16.1467ZM14.7244 16.2983C14.9772 16.3787 15.4958 16.3818 15.4338 16.2365C15.3985 16.1538 15.2799 16.1858 15.1219 16.2284C15.0051 16.2599 14.8667 16.2972 14.7244 16.2983ZM14.9738 15.8357C15.0223 15.9822 15.0583 16.0912 15.1704 16.0205C15.2685 15.9336 15.1444 15.8255 14.9749 15.6778C14.9406 15.6479 14.9039 15.6159 14.8672 15.5825C14.9165 15.6623 14.9471 15.7547 14.9738 15.8357ZM15.1867 15.7989C15.2803 16.018 15.3717 16.232 15.4788 16.137C15.5781 16.0579 15.4329 15.918 15.2637 15.755C15.2033 15.6967 15.1397 15.6355 15.0832 15.5731C15.1185 15.6394 15.1528 15.7195 15.1867 15.7989ZM15.8868 16.2606C15.7632 16.404 15.4056 15.8396 15.2756 15.5455C15.3398 15.6197 15.4369 15.7082 15.5355 15.798C15.7411 15.9853 15.9533 16.1786 15.8868 16.2606ZM14.8506 14.3755C15.0122 14.4251 15.0627 14.1392 14.9564 13.9106C14.9649 14.0295 14.9057 14.1256 14.8591 14.2011C14.8094 14.2815 14.7741 14.3387 14.8506 14.3755ZM14.9738 14.6023C15.1298 14.68 15.1889 14.3912 15.0767 14.1768C15.0831 14.3188 15.0227 14.4088 14.98 14.4725C14.9404 14.5315 14.9159 14.568 14.9738 14.6023ZM14.9096 14.6194C14.8478 14.8042 14.4891 14.4601 14.4287 14.2729C14.5329 14.3765 14.6548 14.4262 14.7503 14.4651C14.8587 14.5094 14.9333 14.5398 14.9096 14.6194ZM14.7469 14.337C14.6766 14.5218 14.2256 14.046 14.126 13.8169C14.2181 13.9084 14.3488 13.9909 14.4669 14.0654C14.6343 14.1711 14.7763 14.2606 14.7469 14.337ZM14.6575 14.0599C14.5873 14.2699 14.0971 13.7102 13.9583 13.5118C14.0523 13.5996 14.1923 13.6808 14.3226 13.7563C14.5165 13.8687 14.6892 13.9687 14.6575 14.0599ZM14.351 13.7121C14.3974 13.6616 14.3584 13.6291 14.2787 13.5628C14.2303 13.5226 14.1671 13.4701 14.0989 13.3935C14.0722 13.5303 14.2665 13.7808 14.351 13.7121ZM15.2276 14.3106C15.3454 14.4859 15.2807 14.6794 15.1862 14.6241C15.1345 14.5815 15.1497 14.5456 15.1761 14.4832C15.1939 14.4412 15.2168 14.387 15.2276 14.3106ZM13.1348 13.4031C12.9343 13.5234 12.6157 13.0436 12.5308 12.8462C12.6102 12.9484 12.7487 13.0467 12.8733 13.1351C13.0247 13.2425 13.1556 13.3354 13.1348 13.4031ZM13.305 13.6827C13.194 13.8057 12.8448 13.4716 12.7234 13.3022C12.7976 13.3665 12.9122 13.4084 13.0204 13.4479C13.1849 13.5079 13.3346 13.5626 13.305 13.6827ZM13.4951 13.934C13.4585 14.102 12.9487 13.7243 12.8296 13.5454C12.9278 13.638 13.0778 13.6854 13.2108 13.7275C13.3753 13.7795 13.5136 13.8233 13.4951 13.934ZM13.4173 14.1153C13.3387 14.2666 12.9241 13.8917 12.8245 13.6961C12.9342 13.7919 13.0722 13.8553 13.1881 13.9085C13.3398 13.9782 13.4536 14.0305 13.4173 14.1153ZM13.529 13.8685C13.6934 13.8313 13.646 13.5987 13.52 13.3169C13.5313 13.4485 13.5068 13.5561 13.4873 13.6416C13.4617 13.7539 13.4448 13.828 13.529 13.8685ZM12.8691 13.9234C12.9436 14.0853 13.4114 14.5135 13.4732 14.3287C13.4969 14.2498 13.3746 14.1938 13.2212 14.1235C13.105 14.0703 12.9711 14.009 12.8691 13.9234ZM13.043 14.2231C13.1929 14.4272 13.6831 14.8021 13.7533 14.6172C13.773 14.5178 13.6493 14.4787 13.4848 14.4266C13.346 14.3826 13.1782 14.3295 13.043 14.2231ZM13.2949 14.5529C13.4477 14.7542 13.9603 15.1655 14.0389 14.9078C14.0603 14.8138 13.9499 14.7884 13.7932 14.7523C13.6443 14.7181 13.4538 14.6742 13.2949 14.5529ZM13.5571 14.246C13.6963 14.3181 13.7525 13.923 13.674 13.644C13.6745 13.7855 13.6142 13.9101 13.5658 14.0101C13.5101 14.1253 13.4702 14.2079 13.5571 14.246ZM13.7947 14.5601C13.962 14.6098 13.909 14.1839 13.7661 13.9077C13.7608 13.9858 13.7469 14.0628 13.7338 14.1357C13.701 14.3182 13.6728 14.4752 13.7947 14.5601ZM13.9959 14.2773C14.15 14.489 14.2786 14.8645 14.0917 14.8541C13.9862 14.8325 13.9913 14.7037 13.9978 14.5374C14.001 14.4569 14.0045 14.3675 13.9959 14.2773ZM13.7641 15.0143C13.7276 15.0762 13.6567 15.0234 13.5495 14.9435C13.4919 14.9006 13.4238 14.8499 13.345 14.8049C13.5479 14.858 13.7891 14.9261 13.7641 15.0143ZM13.4224 11.6802C13.4236 11.888 13.4251 12.1443 13.6513 12.1715C13.6875 12.0314 13.6323 11.9555 13.5638 11.8612C13.5128 11.7911 13.4545 11.7108 13.4209 11.5865C13.422 11.6158 13.4222 11.6474 13.4224 11.6802ZM13.3823 12.0211C13.4217 12.2851 13.5113 12.4545 13.6837 12.4407C13.6901 12.2923 13.6412 12.2575 13.5665 12.2044C13.5143 12.1672 13.4496 12.1212 13.3823 12.0211ZM13.7455 12.4197C13.9481 12.4458 13.9359 12.2324 13.9255 12.0502C13.9245 12.0331 13.9236 12.0163 13.9228 12C13.8971 12.0685 13.8555 12.1193 13.8173 12.1657C13.7545 12.2422 13.7014 12.3069 13.7455 12.4197ZM13.3999 12.3105C13.4176 12.479 13.5241 12.7686 13.6955 12.7035C13.7451 12.5586 13.6512 12.4949 13.5407 12.42C13.4935 12.388 13.4433 12.3539 13.3999 12.3105ZM13.7483 12.7216C13.7053 12.6389 13.765 12.5794 13.8353 12.5093C13.8906 12.4541 13.9524 12.3924 13.9758 12.3079C14.0063 12.5827 13.9807 12.7629 13.7483 12.7216ZM13.0492 10.5287C13.0945 10.6988 13.1372 10.8593 13.0337 10.9708C12.8709 10.8726 12.9372 10.6245 12.9928 10.4165C12.9982 10.3962 13.0035 10.3762 13.0085 10.3569C13.0188 10.4143 13.0342 10.472 13.0492 10.5287ZM13.0295 11.2474C12.7871 11.272 12.7285 10.7792 12.7039 10.5672C12.7387 10.6961 12.8127 10.794 12.8816 10.8853C12.9686 11.0004 13.0475 11.1049 13.0295 11.2474ZM13.0313 11.5657C12.7778 11.5875 12.6268 11.0414 12.6189 10.8267C12.6537 10.9554 12.7439 11.0582 12.8313 11.1577C12.9419 11.2836 13.0478 11.4043 13.0313 11.5657ZM13.2567 11.1173C13.2911 11.356 13.3124 11.5039 13.0799 11.5573C13.0597 11.4058 13.0962 11.3604 13.1453 11.2995C13.1806 11.2557 13.2223 11.2039 13.2541 11.0988L13.2567 11.1173ZM12.7237 11.5461C12.7965 11.7491 12.8542 11.9101 13.0284 11.8806C13.07 11.7484 12.8874 11.5475 12.7127 11.3552C12.6539 11.2905 12.596 11.2268 12.5479 11.167C12.6309 11.2871 12.68 11.4241 12.7237 11.5461ZM13.0914 11.8656C13.3018 11.8717 13.3224 11.5548 13.3108 11.4264C13.294 11.4707 13.2534 11.5142 13.2107 11.56C13.1299 11.6466 13.0414 11.7415 13.0914 11.8656ZM12.5928 11.541C12.6973 11.8803 12.8457 12.2202 13.0283 12.1944C13.0766 12.0882 13.0191 12.033 12.9139 11.932C12.8281 11.8496 12.7106 11.7368 12.5928 11.541ZM13.0944 12.1447C13.0514 12.062 13.1111 12.0024 13.1814 11.9323C13.2367 11.8772 13.2985 11.8155 13.3219 11.731C13.3525 12.0058 13.3268 12.186 13.0944 12.1447ZM12.7649 12.1596C12.7343 12.0845 12.7021 12.0051 12.6648 11.9287C12.7452 12.0598 12.8438 12.1454 12.9267 12.2173C13.045 12.3199 13.1312 12.3947 13.0862 12.5345C12.9326 12.5728 12.8563 12.3849 12.7649 12.1596ZM13.2058 12.2566C13.1358 12.3284 13.0796 12.3861 13.1287 12.4761C13.3555 12.5342 13.3867 12.326 13.3534 12.0344C13.3261 12.1331 13.2616 12.1994 13.2058 12.2566ZM13.5583 10.4073C13.7053 10.4471 13.8596 10.2819 13.8061 10.0348C13.6381 10.0766 13.5609 10.2292 13.5583 10.4073ZM13.1607 10.2613C13.1852 10.3595 13.1007 10.3532 13.0879 10.2837C13.0738 10.2106 13.0644 10.1053 13.099 10.0261C13.1254 9.97243 13.1233 9.85741 13.085 9.80221C13.0503 9.75451 13.1329 9.71881 13.1579 9.77971C13.1826 9.83743 13.1936 9.97573 13.1607 10.0569C13.1367 10.1217 13.1402 10.1816 13.1607 10.2613ZM14.4601 11.2389C14.4032 11.3225 14.2872 11.2714 14.3756 11.1566C14.3965 11.1297 14.4201 11.1042 14.4431 11.0793C14.4998 11.018 14.5535 10.96 14.5589 10.8917C14.5649 10.77 14.6363 10.5853 14.7013 10.523C14.7683 10.4567 14.8458 10.55 14.7741 10.5943C14.6936 10.6466 14.6413 10.8617 14.643 10.9445C14.6411 11.0297 14.5802 11.0981 14.5234 11.162C14.5002 11.1881 14.4776 11.2135 14.4601 11.2389ZM14.1852 11.0054C14.1338 11.1396 14.2244 11.1881 14.2813 11.1045C14.3093 11.0639 14.3164 11.0187 14.3243 10.9682C14.3334 10.9098 14.3436 10.8443 14.3887 10.7709C14.4337 10.7004 14.5148 10.6074 14.5894 10.5327C14.6509 10.4758 14.5952 10.4119 14.5282 10.4782C14.5116 10.4941 14.4918 10.5116 14.4704 10.5304C14.408 10.5855 14.3317 10.6527 14.2814 10.7294C14.2546 10.7672 14.2412 10.8196 14.2272 10.8747C14.216 10.9186 14.2044 10.9642 14.1852 11.0054ZM13.3369 10.6719C13.3301 10.7899 13.4251 10.8185 13.4209 10.6474C13.4193 10.5847 13.4028 10.5238 13.3853 10.4596C13.3529 10.3406 13.3173 10.2098 13.3677 10.0333C13.4085 9.90025 13.4092 9.6564 13.3845 9.5268C13.3627 9.39828 13.2713 9.48223 13.306 9.58231C13.3443 9.69841 13.2988 9.92101 13.2696 10.033C13.2125 10.245 13.2603 10.3862 13.2993 10.5015C13.3202 10.5635 13.3387 10.618 13.3369 10.6719ZM13.5169 9.98419C13.4902 10.1375 13.5821 10.1277 13.5961 10.0191C13.6113 9.90493 13.6215 9.74059 13.5839 9.61681C13.5553 9.53293 13.5575 9.35335 13.5991 9.26701C13.6369 9.19261 13.547 9.13686 13.5199 9.23197C13.4931 9.32208 13.4812 9.53808 13.5169 9.66493C13.543 9.76609 13.5392 9.85968 13.5169 9.98419ZM12.6625 12.2403C12.7079 12.2944 12.7846 12.2582 12.7147 12.1849C12.679 12.1479 12.6729 12.1267 12.6649 12.0983C12.6601 12.0814 12.6546 12.0619 12.6415 12.0349C12.6281 12.0035 12.6201 11.9775 12.613 11.9541C12.6019 11.9176 12.5926 11.8874 12.5673 11.8523C12.5305 11.7977 12.4752 11.8534 12.5123 11.8994C12.5399 11.9317 12.5466 11.9589 12.5534 11.9867C12.5581 12.0057 12.5628 12.025 12.5744 12.0464C12.5992 12.0889 12.6095 12.1219 12.6185 12.1509C12.6285 12.1832 12.637 12.2104 12.6625 12.2403ZM14.1512 14.1151C14.1439 13.9687 14.0329 13.7889 13.8865 13.7169C13.9078 13.7674 13.934 13.8103 13.9599 13.8526C14.009 13.933 14.0569 14.0114 14.0683 14.1361C14.0854 14.32 14.1431 14.5121 14.2636 14.5456C14.188 14.4259 14.1637 14.2836 14.1512 14.1151ZM14.1913 14.0697C14.2338 14.1483 14.2835 14.2064 14.3274 14.2577C14.3879 14.3285 14.4372 14.3863 14.4415 14.4667C14.451 14.5913 14.4605 14.6236 14.4848 14.7065C14.4916 14.7298 14.4996 14.7571 14.5091 14.7915C14.3899 14.7597 14.3599 14.7493 14.3276 14.5105C14.3187 14.435 14.2866 14.3695 14.2557 14.3062C14.2177 14.2288 14.1814 14.1547 14.1913 14.0697ZM17.3443 15.7996C17.351 15.8122 17.3578 15.8255 17.3648 15.8393C17.4173 15.9425 17.4805 16.0667 17.5851 16.0404C17.5863 15.9844 17.5265 15.9401 17.4525 15.8854C17.4179 15.8598 17.3803 15.832 17.3443 15.7996ZM17.7405 15.9032C17.6747 15.887 17.5996 15.8685 17.5207 15.8362L17.5466 15.8608C17.6887 15.9961 17.7705 16.0739 17.9743 16.0519C17.958 15.9568 17.8666 15.9343 17.7405 15.9032ZM16.5571 15.0748C16.7121 15.2018 16.8127 15.3467 16.8595 15.534C16.9084 15.7085 16.9771 15.8476 17.078 16.0044C16.9137 15.8924 16.8104 15.74 16.7588 15.5564C16.7134 15.3758 16.6598 15.241 16.5571 15.0748ZM17.1175 15.5446C17.0707 15.3574 16.9141 15.2068 16.7479 15.0742C16.7644 15.0991 16.7807 15.1232 16.7966 15.1467C16.8907 15.286 16.9724 15.407 17.0112 15.5614C17.0629 15.745 17.1325 15.9142 17.308 16.0262C17.2073 15.8702 17.1733 15.7465 17.1319 15.5964L17.1175 15.5446ZM17.2963 15.5086C17.2918 15.4759 17.3141 15.4472 17.3411 15.4387C17.3927 15.4197 17.445 15.4029 17.4979 15.3883C17.557 15.3743 17.5901 15.4165 17.5903 15.4442C17.5904 15.4583 17.5907 15.4717 17.5909 15.4846C17.5915 15.5139 17.592 15.5403 17.5903 15.5646C17.5871 15.6082 17.5788 15.6114 17.5511 15.6179L17.5411 15.6195C17.4985 15.6266 17.4467 15.6351 17.4056 15.6626C17.3703 15.6843 17.3364 15.6672 17.3188 15.6291C17.309 15.6043 17.3031 15.5593 17.2986 15.5252L17.2963 15.5086ZM17.8969 15.4358C17.9209 15.4444 17.9382 15.4759 17.9341 15.5086C17.9299 15.5431 17.9273 15.6039 17.9281 15.6347C17.9263 15.6755 17.8904 15.6926 17.8589 15.671C17.8281 15.648 17.7808 15.6416 17.7426 15.6365C17.7314 15.6349 17.721 15.6335 17.7121 15.6319C17.6885 15.6257 17.6883 15.6224 17.6858 15.5843L17.6854 15.5786C17.6839 15.5542 17.6844 15.5252 17.6849 15.4942C17.6851 15.4806 17.6854 15.4667 17.6854 15.4526C17.6856 15.4249 17.6993 15.4126 17.7541 15.4134C17.8033 15.4114 17.85 15.4162 17.8969 15.4358ZM18.5807 10.3637L17.4011 10.3649C17.2322 10.2435 17.2041 10.0996 17.1975 9.85875C17.1878 9.49443 17.4389 9.21015 17.8283 9.19071C17.879 9.18813 17.9297 9.14361 17.9444 9.09849C17.9545 9.06395 17.9596 9.03432 17.9636 9.01089C17.97 8.97275 17.9737 8.95105 17.9923 8.95131C18.0136 8.94915 18.0183 8.97292 18.0266 9.01509C18.0315 9.03973 18.0376 9.07065 18.0489 9.10635C18.0614 9.14907 18.1158 9.18555 18.1626 9.18795C18.4755 9.19929 18.7872 9.41301 18.7895 9.85875C18.7902 10.0096 18.7404 10.2792 18.5807 10.3637ZM16.0024 10.7118L16.2769 11.0142L19.6929 11.0198L19.973 10.7174L19.0994 10.7062L18.6738 10.4094L17.3017 10.4038L16.9041 10.7118H16.0024ZM19.1699 13.5503L19.6712 13.5504C19.673 13.7398 19.784 13.9433 19.94 14.0599H18.9795C19.1298 13.9237 19.1709 13.7622 19.1699 13.5503ZM15.4595 14.5698H20.5276L20.074 14.2002H15.9131L15.4595 14.5698Z" fill="white"/>
<path fill-rule="evenodd" clip-rule="evenodd" d="M16.3216 13.5513C16.3207 13.7631 16.2022 13.9106 16.0165 14.0832H17.3492L17.3464 13.7361H17.7188L17.7917 14.0581L18.0968 14.0609L17.968 13.7361H18.2536L18.4692 14.0637H18.9033L18.6093 13.7361H19.0797L18.8808 13.5961L18.8875 13.3624L18.7408 13.272V13.0418L18.5095 12.9426L18.5079 12.7202L18.3151 12.6634L18.319 12.4408L18.0498 12.355L17.9148 12.2688L17.9232 12.1205L17.0636 12.1149V11.9861C17.058 11.5548 17.6198 11.2096 17.982 11.1992C18.4009 11.1871 18.9229 11.5744 18.9229 11.9889L18.9256 12.4032H18.9873V11.9832C18.9835 11.6043 18.5262 11.1553 18.0521 11.1543L19.6509 11.1516L19.6481 11.104H16.3328V11.1516L17.9033 11.1543C17.6345 11.1561 16.9956 11.4607 17.0076 11.9804L17.0077 13.4616H17.3409L17.3437 13.7333L16.8844 13.7361C16.819 13.7407 16.7761 13.6698 16.7752 13.5513H16.3216ZM17.7857 13.189L17.8757 13.4588H17.6657L17.7189 13.7333L17.9653 13.736L17.8757 13.4588L18.0856 13.4589L17.9233 13.1909L17.8848 13.1896V13.1816H17.8506V13.1888L17.7857 13.189ZM18.2537 13.7333L18.0829 13.4616L18.3294 13.4588L18.6037 13.7333H18.2537ZM17.3466 13.4588V13.1844H17.6013L17.6657 13.4588H17.3466Z" fill="white"/>
<path d="M18.9846 12.6211H18.9258V13.0439H18.9846V12.6211ZM20.7184 11.2766C20.667 11.2152 20.6304 11.1714 20.6002 11.1653L20.6298 11.1155C20.6413 11.119 20.6533 11.1208 20.6655 11.1208C20.6981 11.1208 20.7293 11.1079 20.7523 11.0848C20.7754 11.0618 20.7883 11.0306 20.7883 10.998C20.7883 10.9655 20.7754 10.9343 20.7523 10.9112C20.7293 10.8882 20.6981 10.8753 20.6655 10.8753C20.633 10.8753 20.6018 10.8882 20.5787 10.9112C20.5557 10.9343 20.5428 10.9655 20.5428 10.998C20.5428 11.0284 20.554 11.0576 20.5742 11.08L19.6384 12.656V12.5377H19.1624V13.0585H19.6384V12.785L20.2034 11.8335C20.2307 11.8575 20.2787 11.8865 20.3317 11.9184C20.4057 11.9629 20.4893 12.0132 20.5388 12.0639C20.5516 12.0776 20.5631 12.0916 20.5736 12.1059L20.5702 12.1134C20.6444 12.2184 20.6655 12.3373 20.686 12.4531C20.6965 12.512 20.7068 12.5702 20.7239 12.6252C20.7265 12.6334 20.7296 12.6456 20.7326 12.6571L20.7363 12.671L20.7315 12.6815L20.7389 12.675C20.7486 12.7111 20.7586 12.7521 20.7688 12.7943C20.8103 12.9649 20.8562 13.1539 20.9071 13.1093C20.9343 13.0829 20.9722 13.0396 21.0155 12.9899C21.1004 12.8927 21.2064 12.7714 21.2951 12.7054C21.3301 12.6776 21.3057 12.5937 21.2844 12.521C21.2749 12.4885 21.2661 12.4581 21.2635 12.4361C21.2565 12.3754 21.2584 12.3136 21.2609 12.2514C21.2666 12.2382 21.2717 12.2234 21.2761 12.2069L21.2644 12.2171C21.2658 12.1751 21.2656 12.1329 21.2639 12.0909C21.263 11.9217 21.1639 11.6642 21.0221 11.5677C21.0186 11.5653 21.0159 11.5626 21.0133 11.56C21.0108 11.5575 21.0083 11.555 21.0052 11.5527L21.0057 11.5573C20.874 11.4625 20.7841 11.3551 20.7184 11.2766ZM21.7427 9.07912C21.8999 8.99914 21.7865 8.38834 21.7261 8.13232L21.7175 8.19524C21.673 8.5191 21.6152 8.94007 21.7427 9.07912ZM21.3545 8.33872C21.3331 8.67274 21.4367 8.8561 21.6137 8.8282C21.6624 8.64292 21.5515 8.5186 21.3545 8.33872ZM19.632 9.55683H19.2003V9.65583H19.632V9.55683ZM19.2003 9.74463H19.632V10.5717H19.2003V9.74463ZM19.6584 9.44403L19.1796 9.44685C19.1609 9.28449 19.323 9.10905 19.4175 9.11085C19.5111 9.11541 19.6621 9.28821 19.6584 9.44403ZM19.1736 11.2441H19.6552V11.9106H19.1736V11.2441ZM19.627 12.2917H19.1622V12.4317H19.627V12.2917ZM19.1512 13.1653H19.672V13.4565H19.1512V13.1653ZM19.6078 12.1663H19.1881L19.1049 12.0277H19.6831L19.6078 12.1663ZM19.0381 11.2915L19.042 11.6557C18.9681 11.4987 18.8626 11.3851 18.749 11.2915H19.0381ZM21.6868 9.10799C21.4225 9.19997 21.2132 8.91527 21.1425 8.58551C21.2433 8.72469 21.3734 8.79962 21.4813 8.86178C21.6068 8.93411 21.7024 8.98914 21.6868 9.10799ZM21.9454 8.54315C21.9911 8.8376 22.0732 9.36726 21.8872 9.41639C21.7656 9.34108 21.85 8.89307 21.906 8.59574C21.916 8.54297 21.925 8.49494 21.9319 8.45459C21.9356 8.48054 21.9403 8.51039 21.9454 8.54315ZM21.8164 9.39599C21.8092 9.2549 21.7177 9.22863 21.6126 9.19843C21.5511 9.18079 21.4851 9.16181 21.4284 9.11783C21.4534 9.22943 21.548 9.42743 21.8164 9.39599ZM22.1743 8.96302C22.1942 9.2772 22.2183 9.6553 22.0696 9.69539C21.9232 9.63268 22.0791 8.99759 22.1493 8.7114L22.1629 8.65565C22.1598 8.73439 22.1667 8.84426 22.1743 8.96302ZM21.9742 9.66539C21.8064 9.71999 21.5842 9.61091 21.5667 9.41105C21.6179 9.44584 21.68 9.45886 21.7403 9.47149C21.8499 9.49447 21.9534 9.51616 21.9742 9.66539ZM22.2225 10.003C22.3697 10.0147 22.3568 9.68228 22.3413 9.28159C22.3361 9.14908 22.3307 9.00903 22.3307 8.87158C22.3075 9.0379 22.2715 9.1997 22.2386 9.34737C22.1694 9.65873 22.1141 9.90728 22.2225 10.003ZM22.155 9.97624C22.0227 10.0426 21.7856 9.93652 21.718 9.71302C21.798 9.74782 21.8691 9.75959 21.9298 9.76964C22.0504 9.7896 22.1296 9.80271 22.155 9.97624ZM20.6172 8.64844C20.652 8.93818 20.7704 9.10672 20.9474 9.07888C20.9961 8.8936 20.8526 8.77516 20.6172 8.64844ZM21.0852 9.39184C20.8268 9.4285 20.7138 9.25858 20.5558 9.02102C20.5341 8.9885 20.5114 8.95433 20.4876 8.91964C20.5824 8.98823 20.6835 9.03824 20.7751 9.08355C20.9515 9.17078 21.0925 9.24056 21.0852 9.39184ZM21.1684 9.35866C21.3226 9.1736 21.185 8.94296 21.0653 8.74245L21.0514 8.71924C21.0597 8.81604 21.055 8.89926 21.0508 8.97296C21.0417 9.13227 21.0351 9.24722 21.1684 9.35866ZM20.9689 9.42995C21.1078 9.48817 21.2515 9.54841 21.2392 9.67606C20.9501 9.73565 20.86 9.51003 20.8093 9.38323C20.803 9.36768 20.7974 9.35361 20.7921 9.34174C20.8386 9.37531 20.9032 9.4024 20.9689 9.42995ZM21.2773 9.07031C21.436 9.27935 21.5279 9.65543 21.3065 9.68051C21.2275 9.61505 21.2448 9.52643 21.2669 9.41333C21.2857 9.31702 21.308 9.20295 21.2773 9.07031ZM21.47 9.38142C21.5648 9.56833 21.7243 9.8826 21.4731 9.99367C21.3759 9.88657 21.4052 9.77807 21.4379 9.65715C21.4609 9.572 21.4856 9.4807 21.4689 9.37939L21.47 9.38142ZM20.9806 9.65088C21.0335 9.91278 21.2913 10.1371 21.4236 9.96432C21.3941 9.87668 21.3297 9.84735 21.2397 9.80636C21.168 9.77371 21.08 9.73367 20.9806 9.65088ZM21.9634 10.8143C21.9256 10.5953 21.8848 10.359 21.9693 10.2055C21.988 10.1713 21.9282 10.0803 21.8895 10.1355C21.8663 10.1693 21.8429 10.2272 21.8214 10.2804C21.7868 10.3657 21.7572 10.439 21.7411 10.3819C21.7342 10.3566 21.7288 10.3263 21.7231 10.2947C21.7061 10.2006 21.6869 10.0942 21.6201 10.0682C21.5632 10.048 21.4827 10.0347 21.5047 10.1243C21.509 10.1414 21.5144 10.1598 21.5198 10.1784C21.5418 10.2533 21.5646 10.331 21.5212 10.3371C21.5035 10.3397 21.4671 10.3022 21.425 10.2588C21.3924 10.2252 21.3565 10.1881 21.3232 10.1635C21.2619 10.1132 21.1703 10.1919 21.26 10.2671C21.3153 10.313 21.3703 10.3541 21.4242 10.3945C21.6208 10.5416 21.8033 10.6782 21.9358 10.9979C21.7974 11.2358 21.6692 11.4882 21.5986 11.7374C21.5352 11.9669 21.5949 12.3254 21.8059 12.5662C21.7985 12.3634 21.8731 12.2262 21.9648 12.0574L21.9683 12.051C21.9957 11.9973 22.0409 11.9217 22.0971 11.8345C22.1121 11.9947 22.1535 12.1188 22.3072 12.1277C22.3228 11.9644 22.271 11.8925 22.2019 11.7964C22.1887 11.778 22.1749 11.7588 22.1608 11.7379C22.1923 11.6909 22.226 11.642 22.261 11.5923C22.2454 11.6955 22.2568 11.7863 22.3426 11.8499C22.4984 11.7761 22.4489 11.592 22.3918 11.4121C22.5216 11.2385 22.6555 11.0749 22.7579 10.9758L22.7679 10.965C22.7851 11.0734 22.8033 11.182 22.9207 11.2426C22.9459 11.0824 22.8979 11.025 22.8257 10.9388C22.8177 10.9293 22.8091 10.9191 22.8007 10.9087C22.8016 10.8952 22.7937 10.8856 22.7772 10.8792C22.7636 10.8615 22.7496 10.8421 22.7354 10.8205C22.7417 10.8373 22.7468 10.8548 22.751 10.8727C22.7374 10.8707 22.721 10.8696 22.7019 10.8694C22.6709 10.8674 22.6288 10.8738 22.5847 10.8804C22.5073 10.8921 22.4236 10.9048 22.3827 10.8749C22.3461 10.8484 22.3413 10.7684 22.3366 10.6916C22.3337 10.6446 22.331 10.5987 22.321 10.567C22.3096 10.5203 22.2769 10.447 22.2034 10.5614L22.1607 10.6298C22.1024 10.7228 22.0414 10.8203 21.9813 10.9208C21.9759 10.8863 21.9696 10.8501 21.9634 10.8143ZM22.5286 15.0507L22.5234 15.0517C22.3259 15.0889 22.1175 15.0954 21.9274 15.052C21.7623 15.0118 21.6094 14.9413 21.4572 14.8711C21.2761 14.7876 21.0959 14.7045 20.8969 14.6732C20.6379 14.627 20.3206 14.6893 20.1335 14.833C20.0708 14.8808 20.0099 14.9444 19.9544 15.0023C19.9344 15.0232 19.915 15.0434 19.8966 15.0619C19.8272 15.1314 19.8858 15.1295 19.9826 15.0978C20.0341 15.0809 20.0897 15.0697 20.147 15.0641C20.0713 15.2277 20.0452 15.4331 20.1749 15.4035C20.2486 15.3901 20.2426 15.312 20.2332 15.1895C20.2302 15.1506 20.2268 15.1071 20.2256 15.0598C20.2691 15.0594 20.3129 15.062 20.3562 15.0676C20.3051 15.1312 20.2989 15.2119 20.3585 15.2547C20.4442 15.3056 20.5056 15.2154 20.5424 15.1125C20.5814 15.1268 20.6186 15.1441 20.6528 15.1642C20.7261 15.2053 20.7893 15.2437 20.848 15.2794C21.0707 15.4149 21.2284 15.5108 21.6256 15.5632C22.1225 15.6222 22.2211 15.5065 22.5618 15.0868C22.6024 15.0362 22.562 15.0441 22.5286 15.0507ZM22.9817 12.5826C22.6591 12.7226 22.2241 12.76 21.8673 12.7754C21.8845 12.5953 21.6933 12.4191 21.5821 12.3979C21.5821 12.472 21.6102 12.704 21.7551 12.7813C21.5658 12.8073 21.3878 12.991 21.3185 13.1594C21.2567 13.3258 21.2142 13.4672 21.1686 13.6367C21.1661 13.6179 21.1646 13.5983 21.1643 13.5776C21.0159 13.8707 21.1448 14.179 21.2616 14.0929C21.333 14.0178 21.2997 13.9556 21.2535 13.8693C21.2282 13.822 21.199 13.7676 21.1811 13.6999C21.2895 13.584 21.4187 13.5024 21.5669 13.4552C21.5325 13.4928 21.4991 13.528 21.4681 13.5607C21.3129 13.724 21.2171 13.8249 21.3581 13.8523C21.5464 13.8593 21.5882 13.6919 21.5798 13.4512C21.6096 13.4422 21.6401 13.4345 21.6714 13.4282C21.9112 13.3786 22.3297 13.2874 22.6527 13.1974C22.6344 13.2495 22.6114 13.302 22.5895 13.3518C22.5185 13.5135 22.4604 13.646 22.6223 13.6389C22.695 13.6221 22.6888 13.5283 22.6799 13.3915C22.676 13.3321 22.6715 13.2646 22.6728 13.1917L22.7255 13.1766C22.7078 13.2473 22.7226 13.3015 22.7957 13.3785C22.8995 13.3045 22.8949 13.2393 22.8649 13.1333C22.9634 13.1005 23.0391 13.0692 23.077 13.0419C23.3051 12.8829 23.4379 12.4207 23.4521 12.3306C23.4674 12.2642 23.4062 12.2358 23.3849 12.2634C23.2693 12.4061 23.1616 12.5075 22.9817 12.5826ZM19.8629 15.9123C19.8517 16.1069 20.3405 15.8869 20.4661 15.7356C20.3372 15.7903 20.206 15.8004 20.099 15.8086C19.9663 15.8188 19.8708 15.8262 19.8629 15.9123ZM20.6314 15.5101C20.501 15.6573 20.0597 15.823 20.0771 15.6345C20.0879 15.5477 20.1695 15.5484 20.29 15.5495C20.3849 15.5503 20.5038 15.5513 20.6314 15.5101ZM19.9961 15.6609C19.8262 15.6996 19.8537 15.2762 20.0189 15.1307C19.9792 15.2721 20.007 15.3946 20.028 15.4867C20.0489 15.5787 20.0629 15.6405 19.9961 15.6609ZM20.7239 15.2638C20.5907 15.4474 20.2474 15.5964 20.2649 15.4023C20.276 15.3133 20.331 15.3117 20.4302 15.3088C20.5038 15.3066 20.6017 15.3037 20.7239 15.2638ZM22.1125 15.5816C21.9793 15.7652 21.4456 15.9786 21.4631 15.7845C21.4752 15.6877 21.6134 15.6692 21.7855 15.6461C21.889 15.6322 22.0047 15.6167 22.1125 15.5816ZM21.1361 15.8673C21.0248 15.7873 21.2521 15.5811 21.4332 15.5326C21.4124 15.6605 21.2609 15.9414 21.1361 15.8673ZM21.827 15.9193C21.6742 16.0805 21.09 16.1762 21.1019 16.0017C21.1104 15.9245 21.1695 15.9293 21.294 15.9395C21.4105 15.949 21.5841 15.9632 21.827 15.9193ZM21.5212 16.1467C21.3243 16.241 20.7637 16.2805 20.8285 16.1185C20.8553 16.0506 20.9851 16.0735 21.1535 16.1032C21.2654 16.1229 21.3942 16.1456 21.5212 16.1467ZM21.2756 16.2983C21.0228 16.3787 20.5041 16.3818 20.5662 16.2365C20.6015 16.1538 20.72 16.1858 20.8781 16.2284C20.9949 16.2599 21.1333 16.2972 21.2756 16.2983ZM21.0261 15.8357C20.9777 15.9822 20.9416 16.0912 20.8296 16.0205C20.7315 15.9336 20.8555 15.8255 21.025 15.6778C21.0595 15.6478 21.096 15.616 21.1327 15.5825C21.0835 15.6623 21.0529 15.7547 21.0261 15.8357ZM20.8133 15.7989C20.7197 16.018 20.6283 16.232 20.5211 16.137C20.4219 16.0579 20.567 15.918 20.7363 15.755C20.7967 15.6967 20.8602 15.6355 20.9168 15.5731C20.8814 15.6394 20.8472 15.7195 20.8133 15.7989ZM20.1131 16.2606C20.2367 16.404 20.5943 15.8396 20.7244 15.5455C20.6602 15.6197 20.5631 15.7082 20.4644 15.798C20.2588 15.9853 20.0467 16.1786 20.1131 16.2606ZM21.1494 14.3755C20.9878 14.4251 20.9372 14.1392 21.0436 13.9106C21.035 14.0295 21.0943 14.1256 21.1409 14.2011C21.1906 14.2815 21.2259 14.3387 21.1494 14.3755ZM21.0262 14.6023C20.8702 14.68 20.8111 14.3912 20.9232 14.1768C20.9169 14.3188 20.9773 14.4088 21.02 14.4725C21.0596 14.5315 21.084 14.568 21.0262 14.6023ZM21.0904 14.6194C21.1522 14.8042 21.5108 14.4601 21.5713 14.2729C21.467 14.3765 21.3452 14.4262 21.2497 14.4651C21.1412 14.5094 21.0667 14.5398 21.0904 14.6194ZM21.2531 14.337C21.3234 14.5218 21.7743 14.046 21.874 13.8169C21.7819 13.9084 21.6511 13.9909 21.533 14.0654C21.3657 14.1711 21.2237 14.2606 21.2531 14.337ZM21.3425 14.0599C21.4127 14.2699 21.9029 13.7102 22.0417 13.5118C21.9477 13.5996 21.8077 13.6807 21.6773 13.7563C21.4834 13.8687 21.3108 13.9687 21.3425 14.0599ZM21.6489 13.7121C21.6025 13.6616 21.6416 13.6291 21.7213 13.5628C21.7696 13.5226 21.8329 13.4701 21.9011 13.3935C21.9277 13.5303 21.7335 13.7808 21.6489 13.7121ZM20.7723 14.3106C20.6546 14.4859 20.7193 14.6794 20.8137 14.6241C20.8654 14.5815 20.8502 14.5456 20.8239 14.4832C20.8061 14.4412 20.7832 14.387 20.7723 14.3106ZM22.8651 13.4031C23.0656 13.5234 23.3842 13.0436 23.4692 12.8462C23.3898 12.9484 23.2513 13.0467 23.1267 13.1351C22.9752 13.2425 22.8443 13.3354 22.8651 13.4031ZM22.6949 13.6827C22.8059 13.8057 23.1552 13.4716 23.2766 13.3022C23.2023 13.3665 23.0877 13.4084 22.9796 13.4479C22.815 13.5079 22.6653 13.5626 22.6949 13.6827ZM22.5049 13.934C22.5415 14.102 23.0512 13.7243 23.1704 13.5454C23.0721 13.638 22.9221 13.6854 22.7892 13.7275C22.6247 13.7795 22.4864 13.8233 22.5049 13.934ZM22.5827 14.1153C22.6613 14.2666 23.0759 13.8917 23.1755 13.6961C23.0657 13.7919 22.9277 13.8553 22.8118 13.9085C22.6602 13.9782 22.5463 14.0305 22.5827 14.1153ZM22.471 13.8685C22.3066 13.8313 22.354 13.5987 22.48 13.3169C22.4687 13.4485 22.4932 13.5561 22.5127 13.6416C22.5383 13.7539 22.5551 13.828 22.471 13.8685ZM23.1308 13.9234C23.0564 14.0853 22.5886 14.5135 22.5268 14.3287C22.503 14.2498 22.6253 14.1938 22.7788 14.1235C22.8949 14.0703 23.0289 14.009 23.1308 13.9234ZM22.957 14.2231C22.8071 14.4272 22.3169 14.8021 22.2467 14.6172C22.227 14.5178 22.3507 14.4787 22.5151 14.4266C22.6539 14.3826 22.8218 14.3295 22.957 14.2231ZM22.705 14.5529C22.5523 14.7542 22.0397 15.1655 21.9611 14.9078C21.9397 14.8138 22.0501 14.7884 22.2068 14.7523C22.3556 14.7181 22.5462 14.6742 22.705 14.5529ZM22.4429 14.246C22.3037 14.3181 22.2474 13.923 22.326 13.644C22.3255 13.7855 22.3858 13.9101 22.4341 14.0101C22.4898 14.1253 22.5298 14.2079 22.4429 14.246ZM22.2052 14.5601C22.038 14.6098 22.091 14.1839 22.2339 13.9077C22.2392 13.9858 22.253 14.0628 22.2662 14.1357C22.299 14.3182 22.3272 14.4752 22.2052 14.5601ZM22.0041 14.2773C21.85 14.489 21.7214 14.8645 21.9082 14.8541C22.0137 14.8325 22.0087 14.7037 22.0022 14.5374C21.999 14.4569 21.9955 14.3675 22.0041 14.2773ZM22.2358 15.0143C22.2724 15.0762 22.3433 15.0234 22.4505 14.9435C22.5081 14.9006 22.5761 14.8499 22.655 14.8049C22.4521 14.858 22.2109 14.9261 22.2358 15.0143ZM22.5776 11.6802C22.5764 11.888 22.5749 12.1443 22.3486 12.1715C22.3125 12.0314 22.3677 11.9555 22.4362 11.8612C22.4871 11.7911 22.5455 11.7108 22.579 11.5865C22.578 11.6158 22.5778 11.6474 22.5776 11.6802ZM22.6176 12.0211C22.5782 12.2851 22.4886 12.4545 22.3163 12.4407C22.3099 12.2923 22.3588 12.2575 22.4335 12.2044C22.4856 12.1672 22.5504 12.1212 22.6176 12.0211ZM22.2545 12.4197C22.0518 12.4458 22.064 12.2324 22.0745 12.0502C22.0754 12.0331 22.0764 12.0163 22.0772 12C22.1028 12.0685 22.1445 12.1193 22.1826 12.1657C22.2454 12.2422 22.2986 12.3069 22.2545 12.4197ZM22.6001 12.3105C22.5824 12.479 22.4759 12.7686 22.3045 12.7035C22.2549 12.5586 22.3488 12.4949 22.4592 12.42C22.5065 12.388 22.5567 12.3539 22.6001 12.3105ZM22.2517 12.7216C22.2947 12.6389 22.235 12.5794 22.1647 12.5093C22.1094 12.4541 22.0476 12.3924 22.0242 12.3079C21.9936 12.5827 22.0192 12.7629 22.2517 12.7216ZM22.9507 10.5287C22.9055 10.6988 22.8628 10.8593 22.9663 10.9708C23.129 10.8726 23.0628 10.6245 23.0072 10.4165C23.0018 10.3962 22.9965 10.3763 22.9915 10.3569C22.9812 10.4142 22.9658 10.4721 22.9507 10.5287ZM22.9705 11.2474C23.2128 11.272 23.2714 10.7792 23.2961 10.5672C23.2613 10.6961 23.1873 10.794 23.1184 10.8853C23.0314 11.0004 22.9525 11.1049 22.9705 11.2474ZM22.9686 11.5657C23.2221 11.5875 23.3731 11.0414 23.3811 10.8267C23.3463 10.9554 23.256 11.0582 23.1686 11.1577C23.0581 11.2836 22.9521 11.4043 22.9686 11.5657ZM22.7432 11.1173C22.7089 11.356 22.6876 11.5039 22.92 11.5573C22.9403 11.4058 22.9038 11.3604 22.8547 11.2995C22.8194 11.2557 22.7777 11.2039 22.7459 11.0988L22.7432 11.1173ZM23.2762 11.5461C23.2035 11.7491 23.1457 11.9101 22.9716 11.8806C22.9299 11.7484 23.1125 11.5475 23.2873 11.3552C23.346 11.2905 23.4039 11.2268 23.4521 11.167C23.3691 11.2871 23.3199 11.4241 23.2762 11.5461ZM22.9086 11.8656C22.6982 11.8717 22.6776 11.5548 22.6892 11.4264C22.706 11.4707 22.7465 11.5142 22.7893 11.56C22.8701 11.6466 22.9586 11.7415 22.9086 11.8656ZM23.4072 11.541C23.3027 11.8803 23.1542 12.2202 22.9716 12.1944C22.9234 12.0882 22.9809 12.033 23.0861 11.932C23.1719 11.8496 23.2894 11.7368 23.4072 11.541ZM22.9056 12.1447C22.9485 12.062 22.8888 12.0024 22.8186 11.9323C22.7633 11.8772 22.7015 11.8155 22.678 11.731C22.6475 12.0058 22.6731 12.186 22.9056 12.1447ZM23.2351 12.1596C23.2656 12.0844 23.2978 12.0051 23.3352 11.9287C23.2548 12.0598 23.1561 12.1454 23.0733 12.2173C22.9549 12.3199 22.8687 12.3947 22.9137 12.5345C23.0674 12.5728 23.1437 12.3849 23.2351 12.1596ZM22.7941 12.2566C22.8642 12.3284 22.9203 12.3861 22.8713 12.4761C22.6444 12.5342 22.6132 12.326 22.6466 12.0344C22.6739 12.1331 22.7384 12.1994 22.7941 12.2566ZM22.4417 10.4073C22.2947 10.4471 22.1404 10.2819 22.1938 10.0348C22.3619 10.0766 22.4391 10.2292 22.4417 10.4073ZM22.8393 10.2613C22.8147 10.3595 22.8993 10.3532 22.9121 10.2837C22.9261 10.2106 22.9356 10.1053 22.9009 10.0261C22.8746 9.97243 22.8766 9.85741 22.9149 9.80221C22.9497 9.75451 22.8671 9.71881 22.8421 9.77971C22.8174 9.83743 22.8064 9.97573 22.8393 10.0569C22.8633 10.1217 22.8598 10.1816 22.8393 10.2613ZM21.5399 11.2389C21.5967 11.3225 21.7128 11.2714 21.6244 11.1566C21.6034 11.1297 21.5799 11.1042 21.5568 11.0793C21.5002 11.0181 21.4465 10.96 21.4411 10.8917C21.4351 10.77 21.3636 10.5853 21.2987 10.523C21.2316 10.4567 21.1542 10.55 21.2259 10.5943C21.3064 10.6466 21.3587 10.8617 21.357 10.9445C21.3589 11.0297 21.4197 11.0981 21.4765 11.162C21.4998 11.1881 21.5223 11.2135 21.5399 11.2389ZM21.8148 11.0054C21.8661 11.1396 21.7755 11.1881 21.7187 11.1045C21.6907 11.0639 21.6836 11.0187 21.6757 10.9682C21.6665 10.9098 21.6563 10.8443 21.6112 10.7709C21.5662 10.7004 21.4852 10.6074 21.4106 10.5327C21.349 10.4758 21.4047 10.4119 21.4718 10.4782C21.4884 10.4941 21.5082 10.5116 21.5295 10.5304C21.592 10.5855 21.6683 10.6527 21.7185 10.7294C21.7454 10.7672 21.7587 10.8196 21.7728 10.8747C21.7839 10.9186 21.7956 10.9642 21.8148 11.0054ZM22.6631 10.6719C22.6698 10.7899 22.5749 10.8185 22.5791 10.6474C22.5806 10.5847 22.5972 10.5238 22.6147 10.4596C22.647 10.3406 22.6826 10.2098 22.6323 10.0333C22.5915 9.90025 22.5908 9.6564 22.6155 9.5268C22.6372 9.39828 22.7287 9.48223 22.6939 9.58231C22.6557 9.69841 22.7011 9.92101 22.7304 10.033C22.7874 10.245 22.7397 10.3862 22.7007 10.5015C22.6798 10.5635 22.6613 10.618 22.6631 10.6719ZM22.483 9.98419C22.5098 10.1375 22.4178 10.1277 22.4039 10.0191C22.3887 9.90493 22.3785 9.74059 22.4161 9.61681C22.4446 9.53293 22.4425 9.35335 22.4009 9.26701C22.3631 9.19261 22.4529 9.13686 22.48 9.23197C22.5069 9.32208 22.5188 9.53808 22.483 9.66493C22.457 9.76609 22.4608 9.85968 22.483 9.98419ZM23.3375 12.2403C23.292 12.2944 23.2154 12.2582 23.2852 12.1849C23.321 12.1479 23.327 12.1267 23.3351 12.0983C23.3399 12.0814 23.3454 12.0619 23.3584 12.0349C23.3719 12.0035 23.3798 11.9775 23.387 11.9541C23.3981 11.9176 23.4073 11.8874 23.4327 11.8523C23.4694 11.7977 23.5248 11.8534 23.4877 11.8994C23.4601 11.9317 23.4534 11.9589 23.4466 11.9867C23.4419 12.0057 23.4371 12.025 23.4256 12.0464C23.4007 12.0889 23.3905 12.1219 23.3815 12.1509C23.3714 12.1832 23.363 12.2104 23.3375 12.2403ZM21.8487 14.1151C21.856 13.9687 21.9671 13.7889 22.1135 13.7169C22.0921 13.7674 22.0659 13.8103 22.0401 13.8526C21.991 13.933 21.943 14.0114 21.9317 14.1361C21.9145 14.32 21.8568 14.5121 21.7363 14.5456C21.812 14.4259 21.8363 14.2836 21.8487 14.1151ZM21.8087 14.0697C21.7661 14.1483 21.7164 14.2064 21.6726 14.2577C21.6121 14.3285 21.5627 14.3863 21.5585 14.4667C21.549 14.5913 21.5395 14.6236 21.5152 14.7065C21.5084 14.7298 21.5004 14.757 21.4909 14.7915C21.6101 14.7597 21.6401 14.7493 21.6723 14.5105C21.6812 14.435 21.7133 14.3695 21.7443 14.3062C21.7822 14.2288 21.8185 14.1547 21.8087 14.0697ZM18.6556 15.7996C18.649 15.8122 18.6422 15.8255 18.6352 15.8393C18.5826 15.9425 18.5195 16.0667 18.4149 16.0404C18.4136 15.9844 18.4735 15.9401 18.5475 15.8854C18.5821 15.8598 18.6197 15.832 18.6556 15.7996ZM18.2595 15.9032C18.3252 15.887 18.4004 15.8685 18.4792 15.8362L18.4533 15.8608C18.3112 15.9961 18.2295 16.0739 18.0256 16.0519C18.0419 15.9568 18.1334 15.9343 18.2595 15.9032ZM19.4428 15.0748C19.2879 15.2018 19.1873 15.3467 19.1404 15.534C19.0915 15.7085 19.0228 15.8476 18.922 16.0044C19.0863 15.8924 19.1896 15.74 19.2412 15.5564C19.2866 15.3758 19.3402 15.241 19.4428 15.0748ZM18.8824 15.5446C18.9292 15.3574 19.0858 15.2068 19.252 15.0742C19.2356 15.099 19.2194 15.123 19.2035 15.1465C19.1094 15.2858 19.0276 15.407 18.9888 15.5614C18.9371 15.745 18.8674 15.9142 18.6919 16.0262C18.7926 15.8702 18.8267 15.7465 18.8681 15.5964L18.8824 15.5446ZM18.7036 15.5086C18.7082 15.4759 18.6858 15.4472 18.6588 15.4387C18.6073 15.4197 18.555 15.4029 18.5021 15.3883C18.4429 15.3743 18.4098 15.4165 18.4096 15.4442C18.4095 15.4583 18.4093 15.4717 18.409 15.4846C18.4085 15.5139 18.408 15.5403 18.4096 15.5646C18.4128 15.6082 18.4212 15.6114 18.4488 15.6179L18.4589 15.6195C18.5015 15.6266 18.5532 15.6351 18.5944 15.6626C18.6297 15.6843 18.6636 15.6672 18.6812 15.6291C18.6909 15.6043 18.6969 15.5593 18.7014 15.5252L18.7036 15.5086ZM18.1031 15.4358C18.079 15.4444 18.0618 15.4759 18.0658 15.5086C18.07 15.5431 18.0727 15.6039 18.0719 15.6347C18.0736 15.6755 18.1096 15.6926 18.1411 15.671C18.1719 15.648 18.2192 15.6416 18.2574 15.6365C18.2685 15.635 18.279 15.6335 18.2879 15.6319C18.3115 15.6257 18.3117 15.6224 18.3142 15.5843L18.3145 15.5786C18.3161 15.5542 18.3156 15.5252 18.3151 15.4942C18.3148 15.4806 18.3146 15.4667 18.3145 15.4526C18.3144 15.4249 18.3006 15.4126 18.2459 15.4134C18.1967 15.4114 18.15 15.4162 18.1031 15.4358ZM17.5094 15.0977C17.5094 15.1332 17.504 15.1846 17.4934 15.2517H17.4685C17.4685 15.206 17.4663 15.1708 17.462 15.1462C17.458 15.1216 17.45 15.0923 17.438 15.0584C17.4295 15.033 17.4187 15.0086 17.4055 14.9853C17.3937 14.9649 17.3749 14.9379 17.3489 14.9043L17.3987 14.7815C17.4217 14.8109 17.438 14.8335 17.4476 14.8493C17.4586 14.8675 17.4689 14.8904 17.4785 14.9179C17.4991 14.9756 17.5096 15.0364 17.5094 15.0977ZM17.8994 14.8601C17.8994 14.8975 17.8923 14.9256 17.8781 14.9443C17.8639 14.963 17.8397 14.9764 17.8055 14.9844C17.8154 15.0192 17.8219 15.0464 17.8252 15.0659C17.8286 15.0854 17.8304 15.1072 17.8304 15.1313C17.8304 15.1468 17.8294 15.1634 17.8276 15.1811C17.8259 15.1987 17.8229 15.2225 17.8183 15.2525H17.7959C17.7959 15.2257 17.7944 15.2027 17.7914 15.1835C17.789 15.1648 17.7848 15.1464 17.779 15.1285C17.7776 15.1242 17.7706 15.1053 17.7577 15.0719C17.7473 15.043 17.7347 15.015 17.72 14.988C17.7077 14.9656 17.6875 14.9346 17.6594 14.8953L17.698 14.7798C17.7183 14.8089 17.7361 14.8292 17.7514 14.8404C17.7665 14.8514 17.7846 14.8568 17.8055 14.8568C17.851 14.8568 17.8737 14.8322 17.8737 14.783H17.897C17.897 14.7991 17.8974 14.8124 17.8982 14.8232C17.899 14.8336 17.8994 14.8459 17.8994 14.8601ZM18.2576 15.1313L18.2287 15.2516C18.2105 15.2466 18.1957 15.2322 18.1841 15.2087C18.1745 15.1892 18.1676 15.1644 18.1633 15.1344C18.1593 15.1045 18.1573 15.0735 18.1573 15.0414C18.1329 15.0478 18.1137 15.051 18.0995 15.051C18.0714 15.051 18.0481 15.0437 18.0297 15.029C18.0211 15.0223 18.0141 15.0137 18.0094 15.0039C18.0046 14.9941 18.0022 14.9833 18.0024 14.9724C18.0024 14.9234 18.015 14.8794 18.0401 14.8404C18.0655 14.801 18.0941 14.7814 18.126 14.7814C18.1506 14.7814 18.1677 14.7884 18.1774 14.8022C18.188 14.8175 18.1946 14.8349 18.197 14.8544C18.1994 14.8739 18.2006 14.9117 18.2006 14.9676C18.2006 15.0176 18.2046 15.0529 18.2126 15.0735C18.2191 15.0896 18.2341 15.1088 18.2576 15.1313ZM18.1492 14.9315C18.1444 14.9009 18.1284 14.8857 18.1011 14.8857C18.0893 14.8857 18.0785 14.8889 18.0686 14.8953C18.0587 14.9016 18.0538 14.9073 18.0538 14.9122C18.0538 14.9282 18.073 14.9362 18.1115 14.9362C18.1238 14.9362 18.1364 14.9347 18.1492 14.9315ZM18.6368 15.1013L18.6224 15.2473C18.5937 15.2273 18.5672 15.191 18.5429 15.1386C18.5175 15.0837 18.4918 15.006 18.4658 14.9055C18.4436 15.0023 18.4253 15.0733 18.4109 15.1185C18.3967 15.1635 18.3827 15.1953 18.3688 15.214C18.3594 15.2266 18.3444 15.2393 18.3238 15.2521L18.327 15.1125C18.3535 15.0764 18.3721 15.0489 18.3828 15.0299C18.3986 15.0018 18.4116 14.969 18.4217 14.9315C18.4321 14.8938 18.4415 14.8434 18.4498 14.7803H18.4763C18.4926 14.8437 18.5084 14.8941 18.5237 14.9315C18.5378 14.9669 18.5544 14.998 18.5734 15.025C18.5867 15.044 18.6079 15.0694 18.6368 15.1013Z" fill="white"/>
<path d="M19.7387 16.4788C19.7582 16.5017 19.7719 16.5241 19.7798 16.5461C19.7875 16.5678 19.793 16.5989 19.7964 16.6393L19.7529 16.6429C19.7344 16.6065 19.7163 16.5781 19.6988 16.5576C19.6782 16.5343 19.6566 16.512 19.6341 16.4907C19.6043 16.4618 19.5738 16.4337 19.5426 16.4063C19.504 16.3728 19.464 16.3408 19.4229 16.3104C19.4058 16.2978 19.395 16.2887 19.3905 16.2834C19.3836 16.2754 19.3783 16.2597 19.3743 16.2363C19.3701 16.2126 19.3676 16.1832 19.3665 16.148L19.5185 16.2716C19.5675 16.3114 19.6149 16.3531 19.6608 16.3966C19.6881 16.4227 19.7141 16.4502 19.7387 16.4788ZM19.1998 16.1541L19.1907 16.2658L19.0118 16.261L19.0252 16.147L19.1998 16.1541ZM19.6705 16.6543L19.2441 16.7842L19.1657 16.6758L19.5343 16.5634C19.5175 16.5403 19.5046 16.5242 19.4954 16.515C19.4814 16.5009 19.4648 16.4896 19.4466 16.4817C19.4454 16.5022 19.437 16.5201 19.4212 16.5357C19.4054 16.5511 19.385 16.5627 19.3601 16.5703C19.3282 16.5803 19.2944 16.5817 19.2618 16.5745C19.2291 16.5673 19.2051 16.553 19.1897 16.5318C19.167 16.5004 19.1549 16.4587 19.1531 16.4067C19.1513 16.3495 19.1669 16.3159 19.2001 16.3058C19.2431 16.2927 19.3013 16.3046 19.3745 16.3417C19.4478 16.3787 19.5041 16.4243 19.5433 16.4785L19.6705 16.6543ZM19.3431 16.4266C19.323 16.4175 19.3069 16.4119 19.2948 16.4097C19.2841 16.4071 19.2729 16.4074 19.2623 16.4104C19.2568 16.4118 19.2517 16.4144 19.2473 16.418C19.2429 16.4216 19.2394 16.4261 19.2369 16.4313C19.2346 16.436 19.2337 16.4413 19.2343 16.4465C19.2349 16.4518 19.237 16.4567 19.2404 16.4608C19.2448 16.467 19.2522 16.471 19.2627 16.473C19.2734 16.4746 19.2846 16.4736 19.2965 16.47C19.3056 16.4673 19.314 16.4626 19.321 16.4562C19.3281 16.4495 19.3355 16.4397 19.3431 16.4266ZM18.8864 16.3394L18.8603 16.45L18.6829 16.4337L18.7099 16.3219L18.8864 16.3394ZM19.3066 16.7712L19.2119 16.7929C19.1805 16.8005 19.148 16.8029 19.1157 16.8001C19.0855 16.7971 19.0563 16.7874 19.0304 16.7715C19.0148 16.8 18.9872 16.8239 18.9479 16.8432C18.9217 16.8561 18.8914 16.8664 18.8568 16.8744L18.7896 16.8898L18.7281 16.7769L18.7953 16.7614C18.8307 16.7533 18.8549 16.7466 18.8677 16.7411C18.8809 16.7353 18.8973 16.7254 18.9171 16.7116C18.9005 16.7008 18.8829 16.6915 18.8646 16.6839C18.8484 16.6779 18.8342 16.6764 18.8218 16.6792C18.8174 16.6802 18.8133 16.6824 18.8102 16.6857C18.8066 16.6899 18.8042 16.695 18.803 16.7004L18.7736 16.7043C18.7463 16.6542 18.74 16.6155 18.7548 16.5881C18.77 16.5604 18.8063 16.5399 18.8639 16.5267C18.9232 16.5131 18.9738 16.51 19.0158 16.5175C19.0581 16.5247 19.0863 16.5413 19.1007 16.5676C19.1084 16.5817 19.1113 16.5963 19.1094 16.6114C19.1074 16.6262 19.1001 16.6474 19.0874 16.6753C19.0972 16.6794 19.1078 16.6817 19.1185 16.6822C19.1304 16.6828 19.141 16.6822 19.1504 16.68L19.2451 16.6582L19.3066 16.7712ZM18.854 16.8765L18.7616 16.891C18.7102 16.899 18.668 16.8912 18.6348 16.8673C18.5981 16.8411 18.5664 16.7922 18.5397 16.7206L18.4943 16.5986C18.4839 16.5709 18.47 16.5503 18.4523 16.5368C18.4439 16.5302 18.4267 16.5216 18.4008 16.5109L18.4322 16.3927C18.4662 16.4115 18.4924 16.4313 18.5108 16.4519C18.5324 16.476 18.5506 16.5082 18.5656 16.5484L18.597 16.6327C18.6192 16.6924 18.6408 16.7328 18.6617 16.7539C18.6783 16.771 18.6971 16.7779 18.7183 16.7745L18.8106 16.7601L18.854 16.8765ZM18.4593 16.4526L18.3997 16.5576L18.231 16.5186L18.2911 16.4127L18.4593 16.4526ZM18.5575 16.9279L18.1368 16.966L18.1112 16.8474L18.4647 16.8153C18.4561 16.7967 18.4432 16.7803 18.4271 16.7676C18.4187 16.7607 18.4002 16.749 18.3716 16.7326L18.4031 16.624C18.4419 16.6456 18.4704 16.6695 18.4883 16.6954C18.5067 16.7213 18.5216 16.7608 18.533 16.8141L18.5575 16.9279ZM18.2197 16.9817C18.1691 16.98 18.1273 16.9763 18.0942 16.9705C18.0612 16.9647 18.0286 16.9561 17.997 16.9447C17.9739 16.9547 17.9496 16.9619 17.9247 16.9662C17.904 16.9693 17.8731 16.9702 17.832 16.9688L17.7216 16.9652C17.6913 16.9641 17.6678 16.9582 17.651 16.9474C17.6342 16.9365 17.6197 16.919 17.6075 16.8948C17.5824 16.9176 17.5525 16.9347 17.52 16.9448C17.493 16.953 17.4614 16.9565 17.4248 16.9553L17.3278 16.9521L17.3373 16.8324L17.4342 16.8357C17.4816 16.8372 17.5218 16.8299 17.5548 16.8136C17.5977 16.7925 17.621 16.7589 17.6246 16.7128L17.669 16.7187C17.6674 16.728 17.6656 16.7387 17.6638 16.7507C17.6619 16.7627 17.6604 16.776 17.6592 16.7907C17.658 16.8057 17.665 16.8184 17.6801 16.8288C17.6951 16.8393 17.7128 16.8449 17.7331 16.8456L17.8164 16.8484C17.8716 16.8502 17.9112 16.8466 17.9355 16.8373C17.9649 16.8262 17.981 16.8043 17.9835 16.7715C17.9841 16.7644 17.988 16.7583 17.9952 16.7529C17.9996 16.7499 18.0083 16.7452 18.0215 16.7392L18.0482 16.7269C18.0487 16.7325 18.0488 16.7401 18.0485 16.7498C18.0482 16.7592 18.0479 16.7654 18.0477 16.7683C18.0464 16.7844 18.0411 16.8057 18.0318 16.8322C18.0481 16.838 18.0665 16.8432 18.087 16.8477C18.1074 16.8522 18.1291 16.8558 18.152 16.8586C18.1528 16.8487 18.1482 16.8356 18.1381 16.8194C18.1281 16.8032 18.1233 16.7923 18.1237 16.7867C18.1238 16.7804 18.126 16.7743 18.1298 16.7693C18.1308 16.7679 18.1362 16.7635 18.1458 16.7561L18.2074 16.7075C18.2182 16.7264 18.2254 16.7435 18.2292 16.7589C18.2334 16.774 18.2346 16.7929 18.2328 16.8155L18.2197 16.9817ZM17.5811 16.4903L17.4747 16.5655L17.3946 16.516L17.3157 16.5748L17.2103 16.5112L17.3109 16.4397L17.3961 16.4872L17.4783 16.4271L17.5811 16.4903ZM17.414 16.9483L17.002 16.8808L17.0472 16.7647L17.3933 16.8214C17.396 16.8013 17.3936 16.7835 17.3861 16.768C17.3824 16.7596 17.3721 16.7442 17.355 16.7221L17.4472 16.6291C17.4707 16.6587 17.4832 16.6877 17.4848 16.7161C17.4867 16.7446 17.4776 16.7848 17.4573 16.8369L17.414 16.9483ZM17.0672 16.8946L16.9781 16.8732C16.9285 16.8612 16.9002 16.8394 16.8932 16.8076C16.8853 16.7725 16.9011 16.7205 16.9406 16.6514L17.0078 16.5337C17.0231 16.507 17.0292 16.4848 17.0262 16.4673C17.0248 16.4587 17.018 16.4454 17.0058 16.4271L17.1335 16.3404C17.1455 16.3684 17.1503 16.3942 17.1477 16.4181C17.1449 16.4458 17.1324 16.4791 17.1102 16.518L17.0637 16.5993C17.0308 16.6569 17.0139 16.6982 17.0131 16.7233C17.0122 16.7434 17.0219 16.756 17.0423 16.7609L17.1313 16.7823L17.0672 16.8946ZM16.8563 16.4488L16.7117 16.5098L16.6124 16.4131L16.7581 16.3516L16.8563 16.4488ZM16.7948 16.8223C16.7648 16.8578 16.7352 16.8844 16.7062 16.9023C16.6767 16.92 16.6437 16.9312 16.6095 16.9351C16.5741 16.9396 16.5294 16.9375 16.4752 16.929C16.4212 16.9207 16.3693 16.9078 16.3194 16.89C16.223 16.8556 16.1583 16.8177 16.1254 16.7761C16.0926 16.7349 16.094 16.6934 16.1295 16.6515C16.1599 16.6156 16.1965 16.5854 16.2375 16.5624C16.2834 16.5361 16.355 16.5064 16.4523 16.4731L16.4743 16.5021C16.3983 16.5316 16.3458 16.5539 16.3169 16.5691C16.2907 16.5826 16.2672 16.601 16.2478 16.6233C16.2249 16.6503 16.2284 16.6803 16.2582 16.7134C16.2886 16.7464 16.3401 16.7758 16.4127 16.8016C16.4841 16.8271 16.5516 16.8396 16.6155 16.8393C16.6793 16.8389 16.722 16.8258 16.7439 16.8001C16.7574 16.7842 16.7664 16.7668 16.7709 16.748C16.7759 16.7293 16.7789 16.6977 16.7799 16.6532L16.9205 16.5676C16.9206 16.6102 16.9186 16.6388 16.9145 16.6534C16.9074 16.6801 16.8893 16.7106 16.8601 16.7451L16.7948 16.8223Z" fill="#BF0000"/>
</g>
<defs>
<clipPath id="clip0_865_3369">
<rect width="36" height="24" rx="0.5" fill="white"/>
</clipPath>
</defs>
</svg>
