<svg width="36" height="24" viewBox="0 0 36 24" fill="none" xmlns="http://www.w3.org/2000/svg">
<g clip-path="url(#clip0_865_3390)">
<path d="M17.9999 24H0.618749C0.274218 24 0 23.7138 0 23.3704V0.629697C0 0.27907 0.28125 0 0.618749 0H17.9999V24Z" fill="#73AF00"/>
<path d="M17.9999 0H35.3813C35.7258 0 36 0.286226 36 0.629697V23.3704C36 23.721 35.7187 24 35.3813 24H17.9999V0Z" fill="#F5F5F5"/>
<path d="M20.9954 9.70271L19.9196 11.1338L18.2392 10.5614C18.1478 10.5327 18.0634 10.6401 18.1196 10.7188L19.1251 12.2L18.0704 13.6526C18.0141 13.7314 18.0844 13.8459 18.1829 13.8172L19.8774 13.302L20.904 14.7689C20.9602 14.8476 21.0868 14.8119 21.0938 14.7117L21.136 12.9085L22.8236 12.3646C22.9149 12.336 22.922 12.2 22.8236 12.1643L21.1641 11.5703L21.1782 9.76711C21.1853 9.66693 21.0587 9.624 20.9954 9.70271ZM19.1179 16.336C16.7626 16.336 14.857 14.3968 14.857 11.9997C14.857 9.60968 16.7626 7.66334 19.1179 7.66334C19.9899 7.66334 20.7984 7.93525 21.4734 8.40038C21.5789 8.47193 21.6914 8.33597 21.607 8.24295C20.6016 7.17676 19.1813 6.53275 17.5993 6.58284C14.8922 6.67586 12.6422 8.88696 12.4735 11.6419C12.2766 14.7976 14.7305 17.4164 17.7891 17.4164C19.2938 17.4164 20.6508 16.7725 21.6141 15.7493C21.6985 15.6562 21.579 15.5202 21.4805 15.5918C20.7984 16.064 19.9899 16.336 19.1179 16.336Z" fill="#FF4B55"/>
</g>
<defs>
<clipPath id="clip0_865_3390">
<rect width="36" height="24" fill="white"/>
</clipPath>
</defs>
</svg>
