<svg width="36" height="24" viewBox="0 0 36 24" fill="none" xmlns="http://www.w3.org/2000/svg">
<g clip-path="url(#clip0_865_3683)">
<path d="M35.3813 24H0.618751C0.274219 24 0 23.7138 0 23.3704V0.629697C0 0.27907 0.28125 0 0.618751 0H35.3743C35.7188 0 35.993 0.286226 35.993 0.629697V23.3704C36 23.721 35.7188 24 35.3813 24Z" fill="#F5F5F5"/>
<path d="M36 10.1038H19.8633V0H16.1368V10.1038H0V13.8962H16.1368V24H19.8633V13.8962H36V10.1038ZM10.554 4.18605C9.94227 4.25045 9.33757 4.31485 8.73289 4.3721C8.79617 3.75671 8.85945 3.14848 8.9157 2.51879C8.3532 2.59033 7.78367 2.59033 7.22117 2.51879C7.28445 3.14132 7.34773 3.75671 7.40398 4.3721C6.79929 4.30769 6.20164 4.24329 5.58289 4.18605C5.65321 4.7585 5.65321 5.3381 5.58289 5.91056C6.19461 5.84615 6.79929 5.78176 7.40398 5.72451C7.3407 6.33989 7.27742 6.94812 7.22117 7.57783C7.78367 7.50627 8.3532 7.50627 8.9157 7.57783C8.85242 6.95528 8.78914 6.33989 8.73289 5.72451C9.33757 5.78891 9.93524 5.85331 10.554 5.91056C10.4767 5.3381 10.4767 4.76565 10.554 4.18605ZM30.4175 4.18605C29.8057 4.25045 29.201 4.31485 28.5964 4.3721C28.6597 3.75671 28.7229 3.14848 28.7792 2.51879C28.2167 2.59033 27.6471 2.59033 27.0846 2.51879C27.1479 3.14132 27.2112 3.75671 27.2675 4.3721C26.6628 4.30769 26.0651 4.24329 25.4463 4.18605C25.5167 4.7585 25.5167 5.3381 25.4463 5.91056C26.0581 5.84615 26.6628 5.78176 27.2675 5.72451C27.2041 6.33989 27.1409 6.94812 27.0846 7.57783C27.6471 7.50627 28.2167 7.50627 28.7792 7.57783C28.7159 6.95528 28.6526 6.33989 28.5964 5.72451C29.201 5.78891 29.7987 5.85331 30.4175 5.91056C30.3401 5.3381 30.3401 4.76565 30.4175 4.18605ZM10.554 18.0823C9.94227 18.1467 9.33757 18.2112 8.73289 18.2684C8.79617 17.653 8.85945 17.0448 8.9157 16.415C8.3532 16.4866 7.78367 16.4866 7.22117 16.415C7.28445 17.0376 7.34773 17.653 7.40398 18.2684C6.79929 18.2039 6.20164 18.1395 5.58289 18.0823C5.65321 18.6547 5.65321 19.2344 5.58289 19.8068C6.19461 19.7424 6.79929 19.678 7.40398 19.6208C7.3407 20.2362 7.27742 20.8444 7.22117 21.4741C7.78367 21.4026 8.3532 21.4026 8.9157 21.4741C8.85242 20.8516 8.78914 20.2362 8.73289 19.6208C9.33757 19.6852 9.93524 19.7496 10.554 19.8068C10.4767 19.2415 10.4767 18.662 10.554 18.0823ZM30.4175 18.0823C29.8057 18.1467 29.201 18.2112 28.5964 18.2684C28.6597 17.653 28.7229 17.0448 28.7792 16.415C28.2167 16.4866 27.6471 16.4866 27.0846 16.415C27.1479 17.0376 27.2112 17.653 27.2675 18.2684C26.6628 18.2039 26.0651 18.1395 25.4463 18.0823C25.5167 18.6547 25.5167 19.2344 25.4463 19.8068C26.0581 19.7424 26.6628 19.678 27.2675 19.6208C27.2041 20.2362 27.1409 20.8444 27.0846 21.4741C27.6471 21.4026 28.2167 21.4026 28.7792 21.4741C28.7159 20.8516 28.6526 20.2362 28.5964 19.6208C29.201 19.6852 29.7987 19.7496 30.4175 19.8068C30.3401 19.2415 30.3401 18.662 30.4175 18.0823Z" fill="#FF4B55"/>
</g>
<defs>
<clipPath id="clip0_865_3683">
<rect width="36" height="24" fill="white"/>
</clipPath>
</defs>
</svg>
