<svg width="36" height="24" viewBox="0 0 36 24" fill="none" xmlns="http://www.w3.org/2000/svg">
<g clip-path="url(#clip0_865_3826)">
<path d="M35.388 24H0.618869C0.274271 24 0 23.7138 0 23.3704V0.629697C0 0.27907 0.281304 0 0.618869 0H35.381C35.7256 0 35.9999 0.286226 35.9999 0.629697V23.3704C36.0069 23.721 35.7256 24 35.388 24Z" fill="#F5F5F5"/>
<path d="M18.0032 18.9483C21.7746 18.9483 24.8319 15.8375 24.8319 12.0002C24.8319 8.16278 21.7746 5.05199 18.0032 5.05199C14.2319 5.05199 11.1745 8.16278 11.1745 12.0002C11.1745 15.8375 14.2319 18.9483 18.0032 18.9483Z" fill="#FF4B55"/>
</g>
<defs>
<clipPath id="clip0_865_3826">
<rect width="36" height="24" fill="white"/>
</clipPath>
</defs>
</svg>
