<svg width="36" height="24" viewBox="0 0 36 24" fill="none" xmlns="http://www.w3.org/2000/svg">
<g clip-path="url(#clip0_865_3966)">
<path d="M0.232033 23.8496L18.0001 12L0.232033 0.150171C0.0914068 0.264661 0 0.436396 0 0.629599V23.3703C0 23.5634 0.0914068 23.7351 0.232033 23.8496Z" fill="#F5F5F5"/>
<path d="M0.232033 23.8496C0.337502 23.9426 0.470906 24 0.625595 24H35.3812C35.7258 24 36 23.7138 36 23.3703V12H18.0001L0.232033 23.8496Z" fill="#FF4B55"/>
<path d="M0.232033 0.150171C0.337502 0.0571479 0.470906 0 0.625595 0H35.3812C35.7258 0 36 0.286226 36 0.629697V12H18.0001L0.232033 0.150171Z" fill="#41479B"/>
<path d="M6.5185 14.0537C7.63301 14.0537 8.53649 13.1343 8.53649 12.0001C8.53649 10.8659 7.63301 9.94643 6.5185 9.94643C5.40401 9.94643 4.50053 10.8659 4.50053 12.0001C4.50053 13.1343 5.40401 14.0537 6.5185 14.0537ZM6.51794 12.0002L5.75856 8.92318L6.51794 7.89277L7.27029 8.92318L6.51794 12.0002ZM6.51794 12.0002L7.27029 15.0771L6.51794 16.1074L5.75856 15.0771L6.51794 12.0002ZM6.51794 12.0002L3.49456 12.7729L2.48205 12.0002L3.49456 11.2273L6.51794 12.0002ZM6.51899 12.0002L9.54244 11.2273L10.5549 12.0002L9.54244 12.7729L6.51899 12.0002ZM6.51899 12.0002L8.12212 9.28097L9.3737 9.09492L9.19088 10.3686L6.51899 12.0002ZM6.51794 12.0002L4.91488 14.7192L3.66331 14.9052L3.84612 13.6316L6.51794 12.0002ZM6.51794 12.0002L3.84612 10.3686L3.66331 9.09492L4.91488 9.28097L6.51794 12.0002ZM6.51899 12.0002L9.19088 13.6316L9.3737 14.9052L8.12212 14.7192L6.51899 12.0002ZM1.66719 3.10563L1.77266 3.90708L1.06249 4.26486C0.971091 4.31495 0.992186 4.4509 1.09062 4.47237L1.87109 4.61548L1.99062 5.40976C2.00469 5.50994 2.13828 5.53856 2.1875 5.44554L2.56719 4.73713L3.34767 4.87308C3.4461 4.8874 3.51642 4.76575 3.43907 4.69419L2.89063 4.11459L3.25626 3.39902C3.30548 3.30599 3.20704 3.20581 3.11563 3.24875L2.39844 3.59938L1.84297 3.02692C1.77266 2.94106 1.65313 2.9983 1.66719 3.10563ZM1.97624 18.6477L1.84264 19.442L1.06216 19.5708C0.963731 19.5851 0.935605 19.7282 1.02701 19.7711L1.73014 20.1432L1.61061 20.9446C1.59655 21.0448 1.71608 21.1092 1.79343 21.0377L2.36296 20.4724L3.07312 20.8373C3.16453 20.8874 3.26296 20.7873 3.21375 20.6942L2.86218 19.9715L3.41766 19.3991C3.48796 19.3275 3.42468 19.1987 3.32624 19.213L2.54578 19.3274L2.18014 18.612C2.13092 18.526 1.9903 18.5476 1.97624 18.6477ZM14.2522 10.8266L13.7951 11.4849L13.0357 11.263C12.9374 11.2345 12.8599 11.3489 12.9233 11.4348L13.4014 12.0788L12.9584 12.7443C12.9021 12.8301 12.9865 12.9446 13.0779 12.9089L13.8303 12.6512L14.3154 13.2882C14.3788 13.374 14.5052 13.3239 14.5052 13.2165L14.4913 12.408L15.2365 12.1361C15.335 12.1002 15.328 11.9643 15.2295 11.9285L14.4701 11.6924L14.4491 10.8839C14.442 10.7765 14.3154 10.7407 14.2522 10.8266Z" fill="#FFE15A"/>
</g>
<defs>
<clipPath id="clip0_865_3966">
<rect width="36" height="24" fill="white"/>
</clipPath>
</defs>
</svg>
