<svg width="36" height="24" viewBox="0 0 36 24" fill="none" xmlns="http://www.w3.org/2000/svg">
<g clip-path="url(#clip0_865_4018)">
<path d="M35.388 24H0.618869C0.274271 24 0 23.7138 0 23.3704V0.629697C0 0.27907 0.281304 0 0.618869 0H35.381C35.7256 0 35.9999 0.286226 35.9999 0.629697V23.3704C36.0069 23.721 35.7256 24 35.388 24Z" fill="#73AF00"/>
<path d="M12.8836 8.60105C12.546 8.60105 12.2506 8.70123 12.0537 8.8515C11.9904 7.42753 11.8427 5.80321 11.8427 5.78174C11.8286 5.64577 11.7091 5.54559 11.5755 5.55991C11.5192 5.56706 11.463 5.59568 11.4277 5.63147L10.5628 6.06081C10.5205 6.06796 10.4854 6.08943 10.4503 6.11805C10.3729 6.18245 10.3448 6.28978 10.38 6.38281L10.7738 7.58496C10.8019 7.67797 10.7807 7.771 10.7175 7.84256L10.6753 7.8855C10.612 7.94989 10.5136 7.96421 10.4362 7.92842C10.2744 7.84971 10.0986 7.83541 9.92986 7.87833C9.89469 7.0769 9.8103 6.28263 9.62746 5.73165C9.58525 5.60285 9.4446 5.53129 9.31802 5.57422C9.19144 5.61715 7.51767 6.54023 7.38406 6.56885C7.25044 6.59747 7.16604 6.72627 7.19418 6.86224L7.45438 8.1574C7.45438 8.1574 7.21527 10.8121 7.19418 11.2201C7.17308 11.2844 7.02539 11.8927 7.20121 12.3649C7.31373 12.6727 7.48251 12.7442 7.6091 12.7585L8.32642 12.9445C8.8398 13.009 9.26175 13.0161 9.71184 12.9946C10.0354 12.9946 10.3588 12.8945 10.6683 12.7012C11.484 12.186 12.0748 11.0698 12.0748 10.0394C12.0818 9.94632 12.0888 9.84614 12.0888 9.73881C12.2858 9.88191 12.5741 9.96779 12.8906 9.96779C13.4813 9.96779 13.9666 9.66009 13.9666 9.28084C13.9666 8.90159 13.4743 8.60105 12.8836 8.60105ZM12.5598 7.55635C12.6161 7.55635 12.6653 7.54203 12.7075 7.50626L13.9382 6.51877C13.9523 6.50447 13.9664 6.49015 13.9804 6.46868C14.1562 6.36135 14.2758 6.16099 14.2758 5.93917C14.2758 5.59569 14.0015 5.31663 13.664 5.31663C13.3264 5.31663 13.0521 5.59569 13.0521 5.93917C13.0521 6.13237 13.1365 6.30411 13.2772 6.41859L12.4051 7.11269C12.2996 7.19856 12.2785 7.35599 12.3629 7.46332C12.4192 7.52773 12.4895 7.55635 12.5598 7.55635ZM26.9908 11.7567C27.026 11.7567 27.9895 11.542 27.9895 11.542C27.9895 11.542 28.0528 11.5349 28.088 11.5206C28.2145 11.4633 28.2708 11.3202 28.2145 11.1914C27.9895 10.6619 27.5746 9.95349 27.0964 9.23077C26.9979 8.31485 26.8784 7.42039 26.7799 6.77638C26.8291 6.78355 26.59 5.73882 26.59 5.73882C26.5267 5.63864 24.1989 5.54561 24.1216 5.63149C24.0512 5.7245 24.0512 5.85331 24.1216 5.94633C24.1356 5.96065 24.7404 6.73346 25.4578 7.72093C25.5844 9.36673 25.6687 11.0769 25.5492 11.4347C25.5281 11.4992 25.4929 11.5778 25.4578 11.5778C25.3101 11.5993 24.9584 11.2629 24.7826 10.9052C24.6772 10.6977 24.5365 10.6762 24.4521 10.6762C24.1919 10.6905 24.0863 10.9839 23.8965 11.5206C23.7629 11.907 23.58 11.6422 23.58 11.5063C23.58 11.1342 23.0737 5.70305 23.0737 5.70305C23.0315 5.5814 22.912 5.50984 22.7924 5.53846C22.7924 5.53846 21.85 5.56708 21.8219 5.57424C21.7024 5.60287 21.618 5.71735 21.632 5.839C21.8008 7.55636 22.1173 10.9052 22.1173 11.2916C22.1173 11.6351 21.5125 12.3148 20.542 12.8086C20.4224 12.873 20.3731 13.0161 20.4294 13.1449C20.4716 13.2308 20.556 13.2808 20.6474 13.2808C20.6826 13.2808 20.7248 13.2737 20.76 13.2523C21.5547 12.8515 22.4056 12.1646 22.5744 11.5206H22.6025C22.6025 11.5277 22.6025 11.5277 22.6025 11.5349C22.6728 12.0429 22.8557 12.9159 23.2776 13.0591C23.3128 13.0734 23.6293 13.0447 23.7559 12.9159C24.0231 12.644 24.206 12.1288 24.3607 11.6709C24.3958 11.5707 24.438 11.4491 24.4802 11.3417C24.7052 11.678 25.0991 12.093 25.4929 12.0573C25.6336 12.0501 25.8868 11.9714 26.0133 11.5707C26.147 11.17 26.7518 10.8551 26.7518 11.4633C26.7518 11.6494 26.8572 11.7567 26.9908 11.7567ZM28.8545 10.4472C28.6787 9.13058 28.095 5.68871 28.095 5.68871C28.0246 5.59569 27.9051 5.56706 27.7997 5.61C27.6941 5.65294 27.6378 5.76742 27.659 5.88192C27.666 5.91054 28.1021 8.4651 28.3692 10.5116C28.4747 11.2916 28.3201 11.9928 27.9684 12.3792C27.7434 12.6297 27.4339 12.7442 27.0682 12.7227C26.9346 12.7155 26.815 12.8157 26.8081 12.9589C26.801 13.1019 26.8994 13.2164 27.0401 13.2236C27.0823 13.2236 27.1245 13.2308 27.1596 13.2308C27.6238 13.2308 28.0246 13.059 28.327 12.7299C28.7842 12.2219 28.974 11.3918 28.8545 10.4472ZM25.2961 17.5528H10.1268C10.619 18.0537 11.5966 18.297 12.3279 18.297C12.8553 18.297 19.4238 18.297 23.0948 18.297V18.7979C23.0948 18.9338 23.2074 19.0484 23.341 19.0484H25.2961C25.7039 19.0484 26.0275 18.712 26.0275 18.3041C26.0275 17.8891 25.7039 17.5528 25.2961 17.5528ZM14.8178 8.11449C15.1061 8.11449 15.3523 7.89982 15.4577 7.59212C15.6055 8.07871 15.943 8.42218 16.3368 8.42218C16.6463 8.42218 16.9275 8.20751 17.0963 7.87835C17.2651 8.10733 17.4972 8.24329 17.7504 8.24329C17.9613 8.24329 18.6717 7.9356 18.728 7.92844L19.7617 7.82111C19.832 7.9356 19.9094 8.05009 19.9798 8.16457C20.0852 9.22362 20.1696 10.576 20.1696 12.0573C20.1696 12.1932 20.2822 12.3077 20.4157 12.3077C20.5283 12.2863 21.9066 10.8337 21.8574 10.7048C21.548 9.86762 20.9924 8.86583 20.4439 7.97853C20.3103 6.64042 20.1625 5.7889 20.1555 5.76744C20.1344 5.63148 20.0008 5.53845 19.8742 5.56708C19.7547 5.58854 18.4747 5.55277 18.0669 5.60286C17.9684 5.55277 17.8629 5.5313 17.7574 5.5313C17.448 5.5313 17.1667 5.74597 16.9979 6.07513C16.8291 5.84615 16.597 5.71019 16.3439 5.71019C15.8797 5.71019 15.4929 6.18246 15.4085 6.81216C15.2819 6.58318 15.0709 6.42576 14.8248 6.42576C14.4451 6.42576 14.1286 6.80501 14.1286 7.27013C14.1215 7.73524 14.438 8.11449 14.8178 8.11449ZM19.9019 10.1466C19.8387 10.1038 19.7613 10.0608 19.6839 10.0608C19.6839 10.0608 19.1073 10.1539 19.2268 9.8533C19.269 9.74597 19.3112 9.53846 19.1354 9.29517C18.9736 9.07334 18.7345 8.93022 18.5165 9.02325C16.4279 9.90339 14.5361 9.23792 14.515 9.24508C14.4094 9.28801 14.2828 9.4025 14.2828 9.68873C14.2828 9.81753 14.3391 9.94633 14.3954 10.0894C14.5079 10.3542 14.4165 10.5045 14.3391 10.6619C13.8891 11.5134 12.1942 12.3435 11.7371 12.5509C11.6175 12.6082 11.5612 12.7585 11.6175 12.8801C11.6597 12.9732 11.7441 13.0233 11.8426 13.0233C11.8777 13.0233 11.9129 13.0161 11.9411 13.0017C12.0817 12.9374 12.7286 12.6297 13.4038 12.2075C13.5304 12.6369 13.7906 13.0233 14.2899 13.0233C14.8737 13.0233 15.5417 12.5367 15.9285 11.8068C15.9777 11.8927 16.027 11.9714 16.0903 12.0429C16.7091 12.7656 17.9117 12.7728 17.9609 12.7728C18.0945 12.7728 18.2001 12.6654 18.2071 12.5295C18.2141 12.3936 18.1086 12.2791 17.9821 12.2719C17.9821 12.2719 17.7851 12.2504 17.6797 12.1217C17.6163 12.0429 17.5882 11.9356 17.6023 11.7925C17.6304 11.4848 18.6009 11.2558 19.4589 11.2415C19.5644 11.2415 19.6487 11.1771 19.6839 11.0769L19.9301 10.3757C19.9582 10.2969 19.9441 10.2183 19.9019 10.1466Z" fill="white"/>
</g>
<defs>
<clipPath id="clip0_865_4018">
<rect width="36" height="24" fill="white"/>
</clipPath>
</defs>
</svg>
