<svg width="36" height="24" viewBox="0 0 36 24" fill="none" xmlns="http://www.w3.org/2000/svg">
<g clip-path="url(#clip0_865_4031)">
<path d="M0 15.9999H36V23.3703C36 23.7209 35.7188 24 35.3813 24H0.618751C0.274219 24 0 23.7138 0 23.3703V15.9999Z" fill="#F5F5F5"/>
<path d="M0 7.99988H35.9998L36 15.9999H0V7.99988Z" fill="#41479B"/>
<path d="M0.618751 0H35.3743C35.7188 0 35.993 0.286228 35.993 0.629702V8.00008L0 7.99988V0.629702C0 0.279073 0.28125 0 0.618751 0ZM6.39176 8.00002C6.28629 8.00002 6.20894 8.08588 6.20894 8.18606V14.8051C6.20894 16.9089 7.87535 18.6119 9.93551 18.6119C11.9956 18.6119 13.6621 16.9089 13.6621 14.8051V8.18606C13.6621 8.07873 13.5777 8.00002 13.4792 8.00002H6.39176Z" fill="#FF4B55"/>
<path d="M9.83648 4.96577H10.0263V4.58651H10.2091V4.40047H10.0263V4.20726H9.83648V4.40047H9.65367V4.58651H9.83648V4.96577Z" fill="#FFE15A"/>
<path fill-rule="evenodd" clip-rule="evenodd" d="M12.7125 5.53131C12.6351 5.3882 12.5016 5.28802 12.3469 5.25939C11.8547 5.15205 10.8914 4.97316 10.0196 4.97316H9.84378C8.9719 4.97316 8.00863 5.15205 7.51644 5.25939C7.36175 5.29517 7.22815 5.39535 7.15784 5.53131C7.0805 5.67442 7.06644 5.85331 7.12268 6.01074L7.51644 7.11988C7.53049 7.15565 7.55159 7.18427 7.57269 7.19859L7.70628 8.00003H12.1641L12.2977 7.19859C12.3258 7.17712 12.3469 7.1485 12.3539 7.11271L12.7477 6.00358C12.8039 5.84616 12.7899 5.67442 12.7125 5.53131ZM8.59904 5.90339C8.57091 5.76029 8.61309 5.63148 8.63419 5.61717C8.87325 5.52414 9.32325 5.38103 9.74512 5.3524V6.86226H8.7959L8.59904 5.90339ZM11.0674 6.86226L11.2642 5.90339C11.2923 5.76029 11.2431 5.63148 11.222 5.61717C10.99 5.52414 10.54 5.38103 10.1181 5.3524V6.86226H11.0674ZM7.46018 5.87479C7.43908 5.81755 7.44611 5.7603 7.47424 5.71021C7.48831 5.68158 7.52346 5.63866 7.58674 5.62434C7.76252 5.58857 8.00861 5.53848 8.28284 5.49554C8.21956 5.63866 8.20549 5.8247 8.23362 5.98212L8.41643 6.86227H7.81174L7.46018 5.87479ZM12.0443 6.85511L12.3958 5.87478C12.417 5.82469 12.417 5.7603 12.3818 5.70305C12.3678 5.68159 12.3326 5.63149 12.2694 5.61718C12.2362 5.6107 12.2012 5.60376 12.1646 5.59646C11.9987 5.56349 11.7977 5.52353 11.5732 5.48838C11.6365 5.63149 11.6576 5.81754 11.6225 5.97496L11.4396 6.85511H12.0443Z" fill="#FFE15A"/>
<path d="M8.58502 15.0124L8.25455 15.0982L8.97877 13.7744L8.6483 13.5884L7.77643 15.1984H6.95377L7.06627 16.2933L7.68502 16.5866L8.02955 15.549L8.6694 15.3844L8.58502 15.0124ZM11.2781 15.0124L11.6086 15.0982L10.8844 13.7744L11.2078 13.5884L12.0867 15.1984H12.9094L12.7968 16.2933L12.1781 16.5866L11.8337 15.549L11.1868 15.3844L11.2781 15.0124Z" fill="#FFE15A"/>
<path d="M12.5999 8.64421C12.5577 8.59412 12.5015 8.5655 12.4382 8.5655C12.2976 8.5655 12.1991 8.6943 12.2342 8.83027L12.2835 9.02346C12.3257 9.1952 12.2483 9.37409 12.0866 9.45282L11.2358 9.88216L10.8632 9.5029L10.9547 9.31685H11.4187L11.046 9.13081L11.6999 8.94475L11.9812 8.5655H11.3202C11.3343 8.47964 11.264 8.40093 11.1796 8.41523L10.3007 8.5655L9.92805 9.324L9.55539 8.5655L8.67648 8.41523C8.58507 8.40093 8.51477 8.47964 8.53585 8.5655H7.88195L8.1632 8.94475L8.81711 9.13081L8.44445 9.31685H8.90851L8.99992 9.5029L8.62726 9.88216L7.77648 9.45282C7.62179 9.37409 7.53742 9.1952 7.57961 9.02346L7.62883 8.83027C7.66398 8.6943 7.55851 8.5655 7.42492 8.5655C7.36164 8.5655 7.29835 8.59412 7.2632 8.64421C6.82023 9.20236 6.58117 9.90362 6.58117 10.6192V14.6264C6.58117 14.6264 7.36164 14.469 8.05773 13.4314C8.18429 13.2382 8.40226 13.1309 8.62726 13.1166L8.25461 14.2543L8.99992 14.4403L9.42883 13.918L9.55539 14.2471L8.62726 17.4672C8.62726 17.4672 9.18273 17.8465 9.92805 17.8465C10.6734 17.8465 11.2289 17.4672 11.2289 17.4672L10.3007 14.2471L10.4273 13.918L10.8562 14.4403L11.6014 14.2543L11.2289 13.1166C11.4538 13.1309 11.6648 13.2382 11.7983 13.4314C12.5015 14.469 13.2749 14.6264 13.2749 14.6264V10.6192C13.2819 9.90362 13.0429 9.20952 12.5999 8.64421Z" fill="#F5F5F5"/>
<path d="M11.2358 9.70296H8.44442V12.3577C8.44442 13.1949 9.11239 13.8747 9.93505 13.8747C10.7577 13.8747 11.4257 13.1949 11.4257 12.3577V9.71012H11.2358V9.70296Z" fill="#FF4B55"/>
<path d="M9.65377 13.6529C9.74518 13.6744 9.83659 13.6816 9.93502 13.6816C10.0335 13.6816 10.1248 13.6673 10.2163 13.6529V9.89618H9.6608C9.65377 9.89618 9.65377 13.6529 9.65377 13.6529ZM8.62755 11.4561H11.2361V12.0214H8.62755V11.4561Z" fill="#F5F5F5"/>
</g>
<defs>
<clipPath id="clip0_865_4031">
<rect width="36" height="24" fill="white"/>
</clipPath>
</defs>
</svg>
