<svg width="36" height="24" viewBox="0 0 36 24" fill="none" xmlns="http://www.w3.org/2000/svg">
<g clip-path="url(#clip0_865_4037)">
<path d="M36 12.0002H0V0.629705C0 0.279074 0.28125 0 0.618751 0H35.3743C35.7188 0 35.993 0.28623 35.993 0.629705L36 12.0002Z" fill="#FF4B55"/>
<path d="M0 12.0002H36V23.3704C36 23.721 35.7188 24 35.3813 24H0.618751C0.274219 24 0 23.7138 0 23.3704V12.0002ZM5.10464 6.01054C5.10464 3.93538 6.6023 2.21084 8.55699 1.896C8.66246 1.88168 8.66949 1.73141 8.56402 1.70279C8.07887 1.5883 7.56558 1.55967 7.0312 1.63123C4.92183 1.92462 3.29059 3.77795 3.26246 5.94614C3.2273 8.42202 5.18902 10.4328 7.60777 10.4328C7.93824 10.4328 8.25465 10.397 8.56402 10.3183C8.66949 10.2968 8.66246 10.1466 8.55699 10.1251C6.6023 9.81024 5.10464 8.09286 5.10464 6.01054ZM8.58513 7.11969L8.40232 7.67783L7.81872 7.68498C7.74138 7.68498 7.71325 7.78516 7.7695 7.8281L8.23357 8.17873L8.05779 8.74404C8.03669 8.8156 8.11404 8.87999 8.17732 8.8299L8.64841 8.48644L9.11951 8.8299C9.18279 8.87284 9.26013 8.8156 9.23904 8.74404L9.06326 8.17873L9.52732 7.8281C9.5906 7.78516 9.55545 7.68498 9.4781 7.68498L8.8945 7.67783L8.71169 7.11969C8.71169 7.04813 8.61326 7.04813 8.58513 7.11969ZM11.4608 7.11969L11.2779 7.67783L10.6943 7.68498C10.617 7.68498 10.5889 7.78516 10.6451 7.8281L11.1092 8.17873L10.9334 8.74404C10.9123 8.8156 10.9897 8.87999 11.0529 8.8299L11.524 8.48644L11.9951 8.8299C12.0584 8.87284 12.1357 8.8156 12.1146 8.74404L11.9389 8.17873L12.4029 7.8281C12.4662 7.78516 12.4311 7.68498 12.3537 7.68498L11.7701 7.67783L11.5873 7.11969C11.5803 7.04813 11.4818 7.04813 11.4608 7.11969ZM10.0337 2.61157L9.85083 3.16972L9.26723 3.17687C9.18989 3.17687 9.16177 3.27705 9.21801 3.31999L9.68207 3.67062L9.50629 4.23593C9.4852 4.30749 9.56254 4.37188 9.62582 4.32179L10.0969 3.97831L10.568 4.32179C10.6313 4.36473 10.7087 4.30749 10.6875 4.23593L10.5118 3.67062L10.9758 3.31999C11.0391 3.27705 11.0039 3.17687 10.9266 3.17687L10.343 3.16972L10.1602 2.61157C10.1602 2.54002 10.0618 2.54002 10.0337 2.61157ZM7.74866 4.33609L7.56584 4.89424L6.98225 4.90139C6.9049 4.90139 6.87678 5.00157 6.93303 5.04451L7.3971 5.39514L7.22131 5.96044C7.20022 6.032 7.27756 6.09641 7.34084 6.04631L7.81194 5.70284L8.28303 6.04631C8.34631 6.08924 8.42365 6.032 8.40256 5.96044L8.22678 5.39514L8.69084 5.04451C8.75413 5.00157 8.71896 4.90139 8.64162 4.90139L8.05803 4.89424L7.87522 4.33609C7.87522 4.26454 7.76975 4.26454 7.74866 4.33609ZM12.3046 4.33609L12.1218 4.89424L11.5382 4.90139C11.4609 4.90139 11.4328 5.00157 11.489 5.04451L11.9531 5.39514L11.7773 5.96044C11.7561 6.032 11.8335 6.09641 11.8968 6.04631L12.3679 5.70284L12.8389 6.04631C12.9023 6.08924 12.9796 6.032 12.9585 5.96044L12.7827 5.39514L13.2468 5.04451C13.3101 5.00157 13.2749 4.90139 13.1975 4.90139L12.614 4.89424L12.4312 4.33609C12.4312 4.26454 12.3327 4.26454 12.3046 4.33609Z" fill="#F5F5F5"/>
</g>
<defs>
<clipPath id="clip0_865_4037">
<rect width="36" height="24" fill="white"/>
</clipPath>
</defs>
</svg>
