<svg width="36" height="24" viewBox="0 0 36 24" fill="none" xmlns="http://www.w3.org/2000/svg">
<g clip-path="url(#clip0_865_4098)">
<path d="M35.388 0H0.618869C0.274271 0 0 0.286226 0 0.629697V23.3704C0 23.721 0.281304 24 0.618869 24H35.381C35.7256 24 35.9999 23.7138 35.9999 23.3704V0.629697C36.0069 0.27907 35.7256 0 35.388 0Z" fill="#FFD250"/>
<path d="M13.0384 2.52566V21.4738C13.0384 21.8244 13.3198 22.1035 13.6573 22.1035H33.5244C33.869 22.1035 34.1433 21.8173 34.1433 21.4738V2.52566C34.1433 2.17503 33.8619 1.89596 33.5244 1.89596H13.6573C13.3127 1.89596 13.0384 2.17503 13.0384 2.52566Z" fill="#963C3C"/>
<path d="M6.51943 1.89596H2.48271C2.13812 1.89596 1.86385 2.18219 1.86385 2.52566V21.4738C1.86385 21.8244 2.14515 22.1035 2.48271 22.1035H6.51943V1.89596Z" fill="#5AA587"/>
<path d="M10.5563 1.89596H6.51943L6.51958 22.1106H10.5563C10.9009 22.1106 11.1751 21.8244 11.1751 21.481V2.52566C11.1751 2.17503 10.8939 1.89596 10.5563 1.89596Z" fill="#FF7350"/>
<path fill-rule="evenodd" clip-rule="evenodd" d="M30.859 8.10746C30.8098 8.02874 27.9404 6.66202 27.0051 6.54037C26.4222 6.46349 25.1228 6.87971 24.5054 7.07745C24.3183 7.13736 24.1939 7.17722 24.171 7.17722C23.8123 6.74788 23.4395 6.73358 23.4185 6.73358C23.3812 6.73833 23.319 6.86285 23.267 6.96698C23.2408 7.01976 23.2171 7.06729 23.2005 7.09136C22.8972 6.7073 22.4776 6.73077 22.4309 6.73339L22.4269 6.73358C22.414 6.73358 22.3938 6.81148 22.3702 6.90216C22.3423 7.00967 22.3098 7.13513 22.2792 7.17007C21.6604 6.66917 21.1822 7.07705 21.1822 7.0842C21.147 7.11998 19.7967 7.56363 19.7545 7.49207C19.6841 7.37759 19.5787 7.29887 19.4592 7.2774C19.3256 7.24878 19.1427 7.2774 19.0232 7.41336C18.8895 7.56363 18.8966 10.2255 18.8966 10.2255C18.8899 10.239 19.2516 10.4011 19.6332 10.5721C20.0633 10.7649 20.5186 10.9688 20.5 10.984L20.4852 10.9964C20.1698 11.2601 19.7356 11.6233 19.431 12.2291C19.2763 12.5439 19.1497 13.0163 19.1849 13.5172C18.9528 13.3239 18.5238 12.9303 18.2074 12.5368C18.2208 12.5258 18.2355 12.5158 18.2503 12.5057C18.2739 12.4895 18.2982 12.4729 18.3199 12.451C18.4184 12.3508 18.4745 12.2291 18.4745 12.1074C18.4745 11.8499 18.2918 11.671 18.1159 11.6066C18.0526 11.5851 17.9894 11.5779 17.9331 11.5922C17.926 7.37043 18.3972 6.08241 18.4957 5.86059C18.5098 5.82481 18.4184 5.71747 18.3831 5.73179L18.3808 5.73258C18.2904 5.76288 16.8567 6.24331 16.822 8.6799L16.843 11.6209C16.6461 11.5994 16.4562 11.6566 16.3437 11.7783C16.2804 11.8427 16.2172 11.9644 16.2523 12.1504C16.3015 12.3937 16.4914 12.5726 16.7867 12.6728C16.7798 12.7014 16.9274 13.9464 16.9837 13.9965C16.836 13.968 16.7376 14.0395 16.6883 14.1254C16.6179 14.2542 16.6461 14.433 16.7516 14.519C16.836 14.5905 16.9415 14.6119 17.04 14.6048C17.0196 14.6402 16.9922 14.7751 16.9625 14.9211C16.9201 15.1294 16.8732 15.3604 16.836 15.3562C16.7586 15.3418 16.6813 15.3562 16.611 15.4062C16.5125 15.4778 16.4703 15.6209 16.5196 15.764C16.5547 15.8714 17.1876 16.6585 17.3002 16.773C17.3212 16.7944 17.3493 16.8015 17.3775 16.8015C17.4056 16.8015 17.4268 16.7944 17.4478 16.773C17.5604 16.6585 18.1933 15.8714 18.2284 15.764C18.2777 15.6209 18.2355 15.4707 18.137 15.4062C18.0667 15.3562 17.9894 15.3418 17.9119 15.3562C17.8793 15.3645 17.8325 15.1419 17.7894 14.9367C17.7581 14.7878 17.7288 14.648 17.708 14.6119C17.7549 14.6119 18.1423 14.8598 18.5486 15.1195C18.9963 15.4058 19.4668 15.7068 19.5295 15.7068C19.8741 15.7068 20.1272 15.4134 20.2398 15.2631C20.4508 15.399 20.9922 15.6209 20.9993 15.6209L21.0028 15.6316C21.0514 15.7794 21.3427 16.666 21.3017 16.9304C21.2384 17.281 20.6898 17.2881 20.4086 17.238C20.2046 17.2023 20.0218 17.2596 19.8811 17.3883C19.7475 17.5171 19.6702 17.7175 19.6912 17.9178C19.7053 18.0538 19.7756 18.1254 19.8319 18.154C19.9585 18.2256 22.1526 18.154 22.1948 18.1325C22.4179 17.9425 22.7213 16.5923 22.882 15.8768C22.9393 15.6222 22.9784 15.448 22.9895 15.4348C23.2687 15.3722 23.9147 15.0997 24.4908 14.8568C24.9014 14.6837 25.2765 14.5254 25.458 14.4689C25.5775 14.433 26.7379 17.1451 26.7168 17.2166C26.6957 17.2596 26.5128 17.4527 26.2456 17.4169C26.0276 17.3883 25.7814 17.4599 25.6197 17.603C25.5072 17.7031 25.4439 17.8391 25.4439 17.9751C25.4439 18.0895 25.5002 18.1468 25.5424 18.1755C25.683 18.2613 30.1698 18.2184 30.1979 18.1826C30.3104 18.018 30.2472 17.7389 30.1276 17.5886C30.0572 17.4957 30.0221 14.7622 30.226 14.1397L30.2445 14.0822C30.3514 13.7493 30.4624 13.4042 30.5355 13.0591C30.7183 12.1575 30.2753 11.4348 30.1135 11.2131C30.5637 10.7622 30.7464 10.34 30.6691 9.93931C30.5847 9.49565 30.1769 9.19512 29.8604 9.07347C29.4736 8.9232 28.8266 9.00191 28.2006 9.08063C27.7084 9.13787 25.3665 8.11462 25.3736 8.00012C25.3736 7.92141 25.4017 7.7783 25.5564 7.69243C25.6267 7.65666 25.69 7.64949 25.7392 7.66381C25.7659 7.67422 26.1018 7.77117 26.5723 7.90697C27.7195 8.23813 29.667 8.80025 29.8814 8.90173C30.212 9.05916 30.4511 9.02338 30.5918 8.96614C30.7324 8.90889 30.8449 8.80155 30.8871 8.6799C30.9434 8.48671 30.9644 8.27204 30.859 8.10746ZM27.0544 14.4903C27.0621 14.4954 27.0697 14.5015 27.0777 14.5078C27.0921 14.5191 27.1074 14.5312 27.1256 14.5404C27.1102 14.5249 27.0909 14.513 27.0733 14.5022L27.0681 14.4991C27.0634 14.4961 27.0588 14.4932 27.0544 14.4903ZM29.0023 9.59583C28.8194 9.62445 25.2116 9.78904 25.1835 9.77472C25.0006 9.66024 24.4662 10.798 24.5717 10.8982C24.9585 10.9267 28.7701 11.1844 29.5649 10.5977C29.8532 10.383 29.9727 10.1612 29.8954 9.96793C29.7969 9.71033 29.3961 9.54574 29.0023 9.59583ZM28.1724 15.628C28.1162 15.5923 27.856 16.959 27.8489 17.0377C27.863 17.1236 27.9685 17.5386 27.9825 17.5886C28.125 17.4569 28.5474 17.3616 28.6357 17.3417C28.6433 17.34 28.6484 17.3388 28.6507 17.3382C28.8616 17.2953 29.0163 17.2452 28.9882 16.9733C28.9863 16.9587 28.985 16.9342 28.9834 16.9021C28.9728 16.698 28.9465 16.1859 28.6366 15.9572C28.4749 15.8355 28.3202 15.7282 28.1724 15.628Z" fill="#FFD250"/>
<path d="M15.6404 4.78724L13.6713 3.61371L14.8316 2.54752L15.6404 4.78724ZM15.6404 19.2846L13.6713 20.451L14.8316 21.5243L15.6404 19.2846ZM31.3092 4.78724L33.2784 3.61371L32.118 2.54752L31.3092 4.78724ZM31.3092 19.2846L33.2784 20.451L32.118 21.5243L31.3092 19.2846Z" fill="#FFD250"/>
</g>
<defs>
<clipPath id="clip0_865_4098">
<rect width="36" height="24" fill="white"/>
</clipPath>
</defs>
</svg>
