<svg width="36" height="24" viewBox="0 0 36 24" fill="none" xmlns="http://www.w3.org/2000/svg">
<g clip-path="url(#clip0_865_4110)">
<path d="M35.388 24H0.618869C0.274271 24 0 23.7138 0 23.3704V0.629697C0 0.27907 0.281304 0 0.618869 0H35.381C35.7256 0 35.9999 0.286226 35.9999 0.629697V23.3704C36.0069 23.721 35.7256 24 35.388 24Z" fill="#FF4B55"/>
<path d="M24.8325 9.47384H20.4864V5.05166C20.4864 4.70104 20.2051 4.42197 19.8675 4.42197H16.1402C15.7956 4.42197 15.5214 4.70819 15.5214 5.05166V9.47384H11.1752C10.8306 9.47384 10.5564 9.76008 10.5564 10.1036V13.896C10.5564 14.2467 10.8377 14.5258 11.1752 14.5258H15.5214V18.9479C15.5214 19.2985 15.8027 19.5776 16.1402 19.5776H19.8675C20.2121 19.5776 20.4864 19.2914 20.4864 18.9479V14.5258H24.8325C25.1771 14.5258 25.4514 14.2395 25.4514 13.896V10.1036C25.4514 9.75292 25.1771 9.47384 24.8325 9.47384Z" fill="#F5F5F5"/>
</g>
<defs>
<clipPath id="clip0_865_4110">
<rect width="36" height="24" fill="white"/>
</clipPath>
</defs>
</svg>
