<svg width="36" height="24" viewBox="0 0 36 24" fill="none" xmlns="http://www.w3.org/2000/svg">
<g clip-path="url(#clip0_865_4117)">
<path d="M35.388 24H0.618869C0.274271 24 0 23.7138 0 23.3704V0.629697C0 0.27907 0.281304 0 0.618869 0H35.381C35.7256 0 35.9999 0.286226 35.9999 0.629697V23.3704C36.0069 23.721 35.7256 24 35.388 24Z" fill="#FF4B55"/>
<path d="M0.618869 0H17.3776C17.7222 0 17.9964 0.286226 17.9964 0.629697V11.3703C17.9964 11.721 17.7151 12.0001 17.3776 12.0001H0.618869C0.281304 12.0001 0 11.7137 0 11.3703V0.629697C0 0.27907 0.281304 0 0.618869 0Z" fill="#41479B"/>
<path d="M6.77892 5.9966C6.77892 5.37406 7.02507 4.80877 7.42592 4.40089L5.56229 3.85707C5.4568 3.82845 5.37944 3.9644 5.4568 4.04311L6.85628 5.417L4.97858 5.89642C4.86606 5.92504 4.86606 6.08246 4.97858 6.1111L6.85628 6.59052L5.46383 7.96441C5.38647 8.04312 5.46383 8.17907 5.56932 8.15045L7.43296 7.60662C7.02507 7.1916 6.77892 6.6263 6.77892 5.9966ZM7.43309 4.40089C7.83395 3.99302 8.38952 3.74257 9.00136 3.74257C9.61319 3.74257 10.1688 3.99302 10.5696 4.40089L11.1041 2.50464C11.1322 2.39731 10.9986 2.3186 10.9212 2.39731L9.571 3.81413L9.09981 1.90357C9.07168 1.78908 8.91696 1.78908 8.88884 1.90357L8.41765 3.81413L7.06739 2.39731C6.99003 2.3186 6.85641 2.39731 6.88454 2.50464L7.43309 4.40089ZM10.5688 7.59947C10.168 8.00734 9.61242 8.25779 9.00059 8.25779C8.38875 8.25779 7.83318 8.00734 7.43232 7.59947L6.89784 9.49571C6.86971 9.60304 7.00333 9.68176 7.08069 9.60305L8.43095 8.18623L8.90214 10.0968C8.93026 10.2113 9.08498 10.2113 9.11311 10.0968L9.5843 8.18623L10.9346 9.60305C11.0119 9.68176 11.1455 9.60304 11.1174 9.49571L10.5688 7.59947ZM13.0241 5.88926L11.1464 5.40983L12.5389 4.03595C12.6162 3.95724 12.5389 3.82128 12.4333 3.8499L10.5697 4.39374C10.9706 4.80161 11.2167 5.3669 11.2167 5.98944C11.2167 6.61198 10.9706 7.17728 10.5697 7.58515L12.4333 8.12898C12.5389 8.1576 12.6162 8.02164 12.5389 7.94293L11.1464 6.56904L13.0241 6.08962C13.1366 6.07531 13.1366 5.91788 13.0241 5.88926ZM9.0013 7.79982C9.9801 7.79982 10.7735 6.99249 10.7735 5.9966C10.7735 5.00071 9.9801 4.19338 9.0013 4.19338C8.02253 4.19338 7.22908 5.00071 7.22908 5.9966C7.22908 6.99249 8.02253 7.79982 9.0013 7.79982Z" fill="#F5F5F5"/>
</g>
<defs>
<clipPath id="clip0_865_4117">
<rect width="36" height="24" fill="white"/>
</clipPath>
</defs>
</svg>
