<svg width="36" height="24" viewBox="0 0 36 24" fill="none" xmlns="http://www.w3.org/2000/svg">
<g clip-path="url(#clip0_865_4182)">
<path d="M35.3813 24.0215H0.618751C0.274219 24.0215 0 23.7353 0 23.3919V0.651181C0 0.300555 0.28125 0.0214844 0.618751 0.0214844H35.3743C35.7188 0.0214844 35.993 0.30771 35.993 0.651181V23.3919C36 23.7425 35.7188 24.0215 35.3813 24.0215Z" fill="#F5F5F5"/>
<path d="M36 1.86764H0V0.651181C0 0.300555 0.28125 0.0214844 0.618751 0.0214844H35.3743C35.7188 0.0214844 35.993 0.30771 35.993 0.651181L36 1.86764ZM0 7.40611H36V9.25226H0V7.40611ZM0 3.71379H36V5.55995H0V3.71379ZM36 12.9446H0.618751C0.274219 12.9446 0 12.6584 0 12.3149V11.0984H36V12.9446ZM0 18.4831H36V20.3292H0V18.4831ZM35.3813 24.0215H0.618751C0.274219 24.0215 0 23.7353 0 23.3919V22.1754H36V23.3919C36 23.7425 35.7188 24.0215 35.3813 24.0215ZM0 14.7907H36V16.6369H0V14.7907Z" fill="#FF4B55"/>
<path d="M16.1368 0.0214844H0.618751C0.274219 0.0214844 0 0.30771 0 0.651181V12.3149C0 12.6655 0.28125 12.9446 0.618751 12.9446H16.1368C16.4813 12.9446 16.7555 12.6584 16.7555 12.3149V0.651181C16.7555 0.300555 16.4813 0.0214844 16.1368 0.0214844Z" fill="#41479B"/>
<path d="M1.66597 2.79075C1.97275 2.79075 2.22143 2.53766 2.22143 2.22545C2.22143 1.91325 1.97275 1.66016 1.66597 1.66016C1.35919 1.66016 1.1105 1.91325 1.1105 2.22545C1.1105 2.53766 1.35919 2.79075 1.66597 2.79075ZM1.66597 4.98753C1.97275 4.98753 2.22143 4.73444 2.22143 4.42223C2.22143 4.11003 1.97275 3.85694 1.66597 3.85694C1.35919 3.85694 1.1105 4.11003 1.1105 4.42223C1.1105 4.73444 1.35919 4.98753 1.66597 4.98753ZM1.66597 7.17718C1.97275 7.17718 2.22143 6.92408 2.22143 6.61189C2.22143 6.29968 1.97275 6.04659 1.66597 6.04659C1.35919 6.04659 1.1105 6.29968 1.1105 6.61189C1.1105 6.92408 1.35919 7.17718 1.66597 7.17718ZM1.66597 9.37396C1.97275 9.37396 2.22143 9.12087 2.22143 8.80866C2.22143 8.49646 1.97275 8.24337 1.66597 8.24337C1.35919 8.24337 1.1105 8.49646 1.1105 8.80866C1.1105 9.12087 1.35919 9.37396 1.66597 9.37396ZM3.41717 3.87841C3.72394 3.87841 3.97264 3.62532 3.97264 3.31311C3.97264 3.0009 3.72394 2.74782 3.41717 2.74782C3.11039 2.74782 2.8617 3.0009 2.8617 3.31311C2.8617 3.62532 3.11039 3.87841 3.41717 3.87841ZM3.41717 6.06803C3.72394 6.06803 3.97264 5.81494 3.97264 5.50273C3.97264 5.19054 3.72394 4.93744 3.41717 4.93744C3.11039 4.93744 2.8617 5.19054 2.8617 5.50273C2.8617 5.81494 3.11039 6.06803 3.41717 6.06803ZM3.41717 8.26482C3.72394 8.26482 3.97264 8.01173 3.97264 7.69952C3.97264 7.38732 3.72394 7.13423 3.41717 7.13423C3.11039 7.13423 2.8617 7.38732 2.8617 7.69952C2.8617 8.01173 3.11039 8.26482 3.41717 8.26482ZM3.41717 10.4616C3.72394 10.4616 3.97264 10.2085 3.97264 9.89631C3.97264 9.5841 3.72394 9.33101 3.41717 9.33101C3.11039 9.33101 2.8617 9.5841 2.8617 9.89631C2.8617 10.2085 3.11039 10.4616 3.41717 10.4616ZM6.79996 3.87841C7.10674 3.87841 7.35543 3.62532 7.35543 3.31311C7.35543 3.0009 7.10674 2.74782 6.79996 2.74782C6.49319 2.74782 6.24449 3.0009 6.24449 3.31311C6.24449 3.62532 6.49319 3.87841 6.79996 3.87841ZM6.79996 6.06803C7.10674 6.06803 7.35543 5.81494 7.35543 5.50273C7.35543 5.19054 7.10674 4.93744 6.79996 4.93744C6.49319 4.93744 6.24449 5.19054 6.24449 5.50273C6.24449 5.81494 6.49319 6.06803 6.79996 6.06803ZM6.79996 8.26482C7.10674 8.26482 7.35543 8.01173 7.35543 7.69952C7.35543 7.38732 7.10674 7.13423 6.79996 7.13423C6.49319 7.13423 6.24449 7.38732 6.24449 7.69952C6.24449 8.01173 6.49319 8.26482 6.79996 8.26482ZM6.79996 10.4616C7.10674 10.4616 7.35543 10.2085 7.35543 9.89631C7.35543 9.5841 7.10674 9.33101 6.79996 9.33101C6.49319 9.33101 6.24449 9.5841 6.24449 9.89631C6.24449 10.2085 6.49319 10.4616 6.79996 10.4616ZM10.1739 3.87841C10.4807 3.87841 10.7294 3.62532 10.7294 3.31311C10.7294 3.0009 10.4807 2.74782 10.1739 2.74782C9.86716 2.74782 9.61846 3.0009 9.61846 3.31311C9.61846 3.62532 9.86716 3.87841 10.1739 3.87841ZM10.1739 6.06803C10.4807 6.06803 10.7294 5.81494 10.7294 5.50273C10.7294 5.19054 10.4807 4.93744 10.1739 4.93744C9.86716 4.93744 9.61846 5.19054 9.61846 5.50273C9.61846 5.81494 9.86716 6.06803 10.1739 6.06803ZM10.1739 8.26482C10.4807 8.26482 10.7294 8.01173 10.7294 7.69952C10.7294 7.38732 10.4807 7.13423 10.1739 7.13423C9.86716 7.13423 9.61846 7.38732 9.61846 7.69952C9.61846 8.01173 9.86716 8.26482 10.1739 8.26482ZM10.1739 10.4616C10.4807 10.4616 10.7294 10.2085 10.7294 9.89631C10.7294 9.5841 10.4807 9.33101 10.1739 9.33101C9.86716 9.33101 9.61846 9.5841 9.61846 9.89631C9.61846 10.2085 9.86716 10.4616 10.1739 10.4616ZM13.5567 3.87841C13.8635 3.87841 14.1122 3.62532 14.1122 3.31311C14.1122 3.0009 13.8635 2.74782 13.5567 2.74782C13.2499 2.74782 13.0012 3.0009 13.0012 3.31311C13.0012 3.62532 13.2499 3.87841 13.5567 3.87841ZM13.5567 6.06803C13.8635 6.06803 14.1122 5.81494 14.1122 5.50273C14.1122 5.19054 13.8635 4.93744 13.5567 4.93744C13.2499 4.93744 13.0012 5.19054 13.0012 5.50273C13.0012 5.81494 13.2499 6.06803 13.5567 6.06803ZM13.5567 8.26482C13.8635 8.26482 14.1122 8.01173 14.1122 7.69952C14.1122 7.38732 13.8635 7.13423 13.5567 7.13423C13.2499 7.13423 13.0012 7.38732 13.0012 7.69952C13.0012 8.01173 13.2499 8.26482 13.5567 8.26482ZM13.5567 10.4616C13.8635 10.4616 14.1122 10.2085 14.1122 9.89631C14.1122 9.5841 13.8635 9.33101 13.5567 9.33101C13.2499 9.33101 13.0012 9.5841 13.0012 9.89631C13.0012 10.2085 13.2499 10.4616 13.5567 10.4616ZM1.66597 11.5707C1.97275 11.5707 2.22143 11.3176 2.22143 11.0054C2.22143 10.6933 1.97275 10.4401 1.66597 10.4401C1.35919 10.4401 1.1105 10.6933 1.1105 11.0054C1.1105 11.3176 1.35919 11.5707 1.66597 11.5707ZM5.06207 2.79075C5.36884 2.79075 5.61754 2.53766 5.61754 2.22545C5.61754 1.91325 5.36884 1.66016 5.06207 1.66016C4.75529 1.66016 4.50659 1.91325 4.50659 2.22545C4.50659 2.53766 4.75529 2.79075 5.06207 2.79075ZM5.06207 4.98753C5.36884 4.98753 5.61754 4.73444 5.61754 4.42223C5.61754 4.11003 5.36884 3.85694 5.06207 3.85694C4.75529 3.85694 4.50659 4.11003 4.50659 4.42223C4.50659 4.73444 4.75529 4.98753 5.06207 4.98753ZM5.06207 7.17718C5.36884 7.17718 5.61754 6.92408 5.61754 6.61189C5.61754 6.29968 5.36884 6.04659 5.06207 6.04659C4.75529 6.04659 4.50659 6.29968 4.50659 6.61189C4.50659 6.92408 4.75529 7.17718 5.06207 7.17718ZM5.06207 9.37396C5.36884 9.37396 5.61754 9.12087 5.61754 8.80866C5.61754 8.49646 5.36884 8.24337 5.06207 8.24337C4.75529 8.24337 4.50659 8.49646 4.50659 8.80866C4.50659 9.12087 4.75529 9.37396 5.06207 9.37396ZM5.06207 11.5707C5.36884 11.5707 5.61754 11.3176 5.61754 11.0054C5.61754 10.6933 5.36884 10.4401 5.06207 10.4401C4.75529 10.4401 4.50659 10.6933 4.50659 11.0054C4.50659 11.3176 4.75529 11.5707 5.06207 11.5707ZM8.46554 2.79075C8.77232 2.79075 9.02101 2.53766 9.02101 2.22545C9.02101 1.91325 8.77232 1.66016 8.46554 1.66016C8.15876 1.66016 7.91007 1.91325 7.91007 2.22545C7.91007 2.53766 8.15876 2.79075 8.46554 2.79075ZM8.46554 4.98753C8.77232 4.98753 9.02101 4.73444 9.02101 4.42223C9.02101 4.11003 8.77232 3.85694 8.46554 3.85694C8.15876 3.85694 7.91007 4.11003 7.91007 4.42223C7.91007 4.73444 8.15876 4.98753 8.46554 4.98753ZM8.46554 7.17718C8.77232 7.17718 9.02101 6.92408 9.02101 6.61189C9.02101 6.29968 8.77232 6.04659 8.46554 6.04659C8.15876 6.04659 7.91007 6.29968 7.91007 6.61189C7.91007 6.92408 8.15876 7.17718 8.46554 7.17718ZM8.46554 9.37396C8.77232 9.37396 9.02101 9.12087 9.02101 8.80866C9.02101 8.49646 8.77232 8.24337 8.46554 8.24337C8.15876 8.24337 7.91007 8.49646 7.91007 8.80866C7.91007 9.12087 8.15876 9.37396 8.46554 9.37396ZM8.46554 11.5707C8.77232 11.5707 9.02101 11.3176 9.02101 11.0054C9.02101 10.6933 8.77232 10.4401 8.46554 10.4401C8.15876 10.4401 7.91007 10.6933 7.91007 11.0054C7.91007 11.3176 8.15876 11.5707 8.46554 11.5707ZM11.8617 2.79075C12.1684 2.79075 12.4171 2.53766 12.4171 2.22545C12.4171 1.91325 12.1684 1.66016 11.8617 1.66016C11.5548 1.66016 11.3062 1.91325 11.3062 2.22545C11.3062 2.53766 11.5548 2.79075 11.8617 2.79075ZM11.8617 4.98753C12.1684 4.98753 12.4171 4.73444 12.4171 4.42223C12.4171 4.11003 12.1684 3.85694 11.8617 3.85694C11.5548 3.85694 11.3062 4.11003 11.3062 4.42223C11.3062 4.73444 11.5548 4.98753 11.8617 4.98753ZM11.8617 7.17718C12.1684 7.17718 12.4171 6.92408 12.4171 6.61189C12.4171 6.29968 12.1684 6.04659 11.8617 6.04659C11.5548 6.04659 11.3062 6.29968 11.3062 6.61189C11.3062 6.92408 11.5548 7.17718 11.8617 7.17718ZM11.8617 9.37396C12.1684 9.37396 12.4171 9.12087 12.4171 8.80866C12.4171 8.49646 12.1684 8.24337 11.8617 8.24337C11.5548 8.24337 11.3062 8.49646 11.3062 8.80866C11.3062 9.12087 11.5548 9.37396 11.8617 9.37396ZM11.8617 11.5707C12.1684 11.5707 12.4171 11.3176 12.4171 11.0054C12.4171 10.6933 12.1684 10.4401 11.8617 10.4401C11.5548 10.4401 11.3062 10.6933 11.3062 11.0054C11.3062 11.3176 11.5548 11.5707 11.8617 11.5707ZM15.2652 2.79075C15.5719 2.79075 15.8206 2.53766 15.8206 2.22545C15.8206 1.91325 15.5719 1.66016 15.2652 1.66016C14.9583 1.66016 14.7096 1.91325 14.7096 2.22545C14.7096 2.53766 14.9583 2.79075 15.2652 2.79075ZM15.2652 4.98753C15.5719 4.98753 15.8206 4.73444 15.8206 4.42223C15.8206 4.11003 15.5719 3.85694 15.2652 3.85694C14.9583 3.85694 14.7096 4.11003 14.7096 4.42223C14.7096 4.73444 14.9583 4.98753 15.2652 4.98753ZM15.2652 7.17718C15.5719 7.17718 15.8206 6.92408 15.8206 6.61189C15.8206 6.29968 15.5719 6.04659 15.2652 6.04659C14.9583 6.04659 14.7096 6.29968 14.7096 6.61189C14.7096 6.92408 14.9583 7.17718 15.2652 7.17718ZM15.2652 9.37396C15.5719 9.37396 15.8206 9.12087 15.8206 8.80866C15.8206 8.49646 15.5719 8.24337 15.2652 8.24337C14.9583 8.24337 14.7096 8.49646 14.7096 8.80866C14.7096 9.12087 14.9583 9.37396 15.2652 9.37396ZM15.2652 11.5707C15.5719 11.5707 15.8206 11.3176 15.8206 11.0054C15.8206 10.6933 15.5719 10.4401 15.2652 10.4401C14.9583 10.4401 14.7096 10.6933 14.7096 11.0054C14.7096 11.3176 14.9583 11.5707 15.2652 11.5707Z" fill="#F5F5F5"/>
</g>
<defs>
<clipPath id="clip0_865_4182">
<rect width="36" height="24" fill="white"/>
</clipPath>
</defs>
</svg>
