<svg width="36" height="24" viewBox="0 0 36 24" fill="none" xmlns="http://www.w3.org/2000/svg">
<g clip-path="url(#clip0_865_4198)">
<path d="M36 8.02156H0V0.651186C0 0.300557 0.28125 0.0214844 0.618751 0.0214844H35.3743C35.7188 0.0214844 35.993 0.307713 35.993 0.651186L36 8.02156Z" fill="#82AFFF"/>
<path d="M35.3813 24.0215H0.618751C0.274219 24.0215 0 23.7353 0 23.3918V16.0214H36V23.3918C36 23.7424 35.7188 24.0215 35.3813 24.0215Z" fill="#73AF00"/>
<path d="M0 8.02156H36V16.0214H0V8.02156Z" fill="#F5F5F5"/>
<path d="M0 7.31289H36V8.30754H0V7.31289ZM0 15.7352H36V16.7298H0V15.7352Z" fill="#FF4B55"/>
<path d="M7.98016 6.01787C6.7075 6.01787 5.68094 4.97314 5.68094 3.68512C5.68094 2.38993 6.7075 1.33804 7.98016 1.33804C7.98719 1.33804 7.98719 1.33804 7.99422 1.33804C8.07157 1.33804 8.09265 1.23786 8.02937 1.20208C7.63563 0.987412 7.19266 0.865765 6.71454 0.87292C5.19578 0.887232 3.95828 2.1681 3.97235 3.71374C3.9864 5.24506 5.21688 6.48299 6.72859 6.48299C7.19969 6.48299 7.63563 6.36135 8.02235 6.15383C8.08563 6.11805 8.06454 6.01787 7.98719 6.01787C7.98719 6.01787 7.98719 6.01787 7.98016 6.01787Z" fill="#F5F5F5"/>
</g>
<defs>
<clipPath id="clip0_865_4198">
<rect width="36" height="24" fill="white"/>
</clipPath>
</defs>
</svg>
