<svg width="36" height="24" viewBox="0 0 36 24" fill="none" xmlns="http://www.w3.org/2000/svg">
<g clip-path="url(#clip0_865_4206)">
<path d="M36 8.02156H0V0.651186C0 0.300557 0.28125 0.0214844 0.618751 0.0214844H35.3743C35.7188 0.0214844 35.993 0.307713 35.993 0.651186L36 8.02156Z" fill="#FFE15A"/>
<path d="M35.3813 24.0215H0.618751C0.274219 24.0215 0 23.7353 0 23.3918V16.0214H36V23.3918C36 23.7424 35.7188 24.0215 35.3813 24.0215Z" fill="#FF4B55"/>
<path d="M0 8.02156H36V16.0214H0V8.02156Z" fill="#41479B"/>
<path fill-rule="evenodd" clip-rule="evenodd" d="M14.6154 15.3384C14.6149 15.342 14.6144 15.3457 14.6138 15.3494C14.6138 15.3494 14.6139 15.3492 14.6142 15.3472L14.6148 15.3428L14.6152 15.34L14.6154 15.3384ZM21.3835 15.3954C21.636 16.5981 22.8087 17.3715 24.0091 17.1244C25.2138 16.8765 25.9902 15.6947 25.7433 14.4849L23.5622 14.9338C25.7433 14.4849 25.743 14.4831 25.743 14.4831L25.7417 14.4767L25.7395 14.4666L25.7339 14.4403C25.7295 14.42 25.7239 14.3946 25.7168 14.3642C25.7026 14.3036 25.683 14.2231 25.6571 14.1256C25.6054 13.931 25.5282 13.6656 25.4196 13.3526C25.2049 12.734 24.8542 11.8905 24.3091 11.0293C23.214 9.29919 21.1694 7.28794 17.8176 7.28794C14.4143 7.28794 12.4408 9.38282 11.434 11.1779C10.9362 12.0652 10.6359 12.9311 10.4593 13.562C10.3698 13.8819 10.309 14.1527 10.2694 14.351C10.2495 14.4505 10.2349 14.5325 10.2246 14.5944C10.2194 14.6252 10.2153 14.6512 10.2121 14.6717L10.2081 14.6984L10.2066 14.7089L10.206 14.7132L10.2057 14.7152C10.2057 14.7152 10.2054 14.7171 12.4105 15.0268L10.2054 14.7171C10.0352 15.9402 10.8842 17.0703 12.1021 17.2414C13.3157 17.4119 14.4374 16.5656 14.6138 15.3494L14.6161 15.3358C14.6192 15.317 14.6256 15.2807 14.6357 15.2297C14.6562 15.1271 14.6915 14.9681 14.7464 14.7721C14.8585 14.3713 15.0398 13.8614 15.3137 13.3731C15.8502 12.4168 16.5803 11.7603 17.8176 11.7603C19.1064 11.7603 19.9341 12.4539 20.551 13.4286C20.8619 13.9197 21.0773 14.4288 21.2146 14.8245C21.282 15.0186 21.3273 15.1759 21.3541 15.2772C21.3675 15.3276 21.3761 15.3632 21.3804 15.3819L21.3835 15.3954Z" fill="white"/>
</g>
<defs>
<clipPath id="clip0_865_4206">
<rect width="36" height="24" fill="white"/>
</clipPath>
</defs>
</svg>
