<svg width="21" height="20" viewBox="0 0 21 20" fill="none" xmlns="http://www.w3.org/2000/svg">
<path d="M8.49763 0C4.1223 1.125 0.99707 5.125 0.99707 9.875C0.99707 15.5 5.49741 20 11.1228 20C15.8732 20 19.7485 16.875 20.9986 12.5C13.373 14.625 6.37247 7.625 8.49763 0Z" fill="#FF0000"/>
<path d="M8.49763 0C4.1223 1.125 0.99707 5.125 0.99707 9.875C0.99707 15.5 5.49741 20 11.1228 20C15.8732 20 19.7485 16.875 20.9986 12.5C13.373 14.625 6.37247 7.625 8.49763 0Z" fill="#000"/>
<path d="M8.49763 0C4.1223 1.125 0.99707 5.125 0.99707 9.875C0.99707 15.5 5.49741 20 11.1228 20C15.8732 20 19.7485 16.875 20.9986 12.5C13.373 14.625 6.37247 7.625 8.49763 0Z" fill="#000"/>
<path d="M8.49763 0C4.1223 1.125 0.99707 5.125 0.99707 9.875C0.99707 15.5 5.49741 20 11.1228 20C15.8732 20 19.7485 16.875 20.9986 12.5C13.373 14.625 6.37247 7.625 8.49763 0Z" fill="black"/>
<path d="M8.49763 0C4.1223 1.125 0.99707 5.125 0.99707 9.875C0.99707 15.5 5.49741 20 11.1228 20C15.8732 20 19.7485 16.875 20.9986 12.5C13.373 14.625 6.37247 7.625 8.49763 0Z" fill="#000"/>
<path d="M8.49763 0C4.1223 1.125 0.99707 5.125 0.99707 9.875C0.99707 15.5 5.49741 20 11.1228 20C15.8732 20 19.7485 16.875 20.9986 12.5C13.373 14.625 6.37247 7.625 8.49763 0Z" fill="#000"/>
<path d="M8.49763 0C4.1223 1.125 0.99707 5.125 0.99707 9.875C0.99707 15.5 5.49741 20 11.1228 20C15.8732 20 19.7485 16.875 20.9986 12.5C13.373 14.625 6.37247 7.625 8.49763 0Z" fill="#000"/>
<path d="M8.49763 0C4.1223 1.125 0.99707 5.125 0.99707 9.875C0.99707 15.5 5.49741 20 11.1228 20C15.8732 20 19.7485 16.875 20.9986 12.5C13.373 14.625 6.37247 7.625 8.49763 0Z" fill="#000"/>
<path d="M8.49763 0C4.1223 1.125 0.99707 5.125 0.99707 9.875C0.99707 15.5 5.49741 20 11.1228 20C15.8732 20 19.7485 16.875 20.9986 12.5C13.373 14.625 6.37247 7.625 8.49763 0Z" fill="black"/>
</svg>
