<svg width="21" height="20" viewBox="0 0 21 20" fill="none" xmlns="http://www.w3.org/2000/svg">
<path d="M11.4135 0H10.5801C10.1199 0 9.74674 0.373096 9.74674 0.833333V1.66667C9.74674 2.1269 10.1199 2.5 10.5801 2.5H11.4135C11.8738 2.5 12.2469 2.1269 12.2469 1.66667V0.833333C12.2469 0.373096 11.8738 0 11.4135 0Z" fill="#FF0000" style="mix-blend-mode:saturation"/>
<path d="M11.4135 0H10.5801C10.1199 0 9.74674 0.373096 9.74674 0.833333V1.66667C9.74674 2.1269 10.1199 2.5 10.5801 2.5H11.4135C11.8738 2.5 12.2469 2.1269 12.2469 1.66667V0.833333C12.2469 0.373096 11.8738 0 11.4135 0Z" fill="white" style="mix-blend-mode:difference"/>
<path d="M11.4135 0H10.5801C10.1199 0 9.74674 0.373096 9.74674 0.833333V1.66667C9.74674 2.1269 10.1199 2.5 10.5801 2.5H11.4135C11.8738 2.5 12.2469 2.1269 12.2469 1.66667V0.833333C12.2469 0.373096 11.8738 0 11.4135 0Z" fill="white" style="mix-blend-mode:saturation"/>
<path d="M11.4135 0H10.5801C10.1199 0 9.74674 0.373096 9.74674 0.833333V1.66667C9.74674 2.1269 10.1199 2.5 10.5801 2.5H11.4135C11.8738 2.5 12.2469 2.1269 12.2469 1.66667V0.833333C12.2469 0.373096 11.8738 0 11.4135 0Z" fill="black" style="mix-blend-mode:overlay"/>
<path d="M11.4135 0H10.5801C10.1199 0 9.74674 0.373096 9.74674 0.833333V1.66667C9.74674 2.1269 10.1199 2.5 10.5801 2.5H11.4135C11.8738 2.5 12.2469 2.1269 12.2469 1.66667V0.833333C12.2469 0.373096 11.8738 0 11.4135 0Z" fill="white" style="mix-blend-mode:overlay"/>
<path d="M11.4135 0H10.5801C10.1199 0 9.74674 0.373096 9.74674 0.833333V1.66667C9.74674 2.1269 10.1199 2.5 10.5801 2.5H11.4135C11.8738 2.5 12.2469 2.1269 12.2469 1.66667V0.833333C12.2469 0.373096 11.8738 0 11.4135 0Z" fill="white" style="mix-blend-mode:overlay"/>
<path d="M11.4135 0H10.5801C10.1199 0 9.74674 0.373096 9.74674 0.833333V1.66667C9.74674 2.1269 10.1199 2.5 10.5801 2.5H11.4135C11.8738 2.5 12.2469 2.1269 12.2469 1.66667V0.833333C12.2469 0.373096 11.8738 0 11.4135 0Z" fill="white" style="mix-blend-mode:overlay"/>
<path d="M11.4135 0H10.5801C10.1199 0 9.74674 0.373096 9.74674 0.833333V1.66667C9.74674 2.1269 10.1199 2.5 10.5801 2.5H11.4135C11.8738 2.5 12.2469 2.1269 12.2469 1.66667V0.833333C12.2469 0.373096 11.8738 0 11.4135 0Z" fill="white" style="mix-blend-mode:overlay"/>
<path d="M11.4135 0H10.5801C10.1199 0 9.74674 0.373096 9.74674 0.833333V1.66667C9.74674 2.1269 10.1199 2.5 10.5801 2.5H11.4135C11.8738 2.5 12.2469 2.1269 12.2469 1.66667V0.833333C12.2469 0.373096 11.8738 0 11.4135 0Z" fill="black" style="mix-blend-mode:overlay"/>
<path d="M18.276 3.2249L17.6869 2.6354C17.3615 2.30983 16.8338 2.30964 16.5082 2.63498L15.9187 3.22407C15.5931 3.54941 15.5929 4.07708 15.9183 4.40265L16.5074 4.99215C16.8327 5.31772 17.3605 5.31791 17.686 4.99257L18.2756 4.40348C18.6012 4.07814 18.6014 3.55047 18.276 3.2249Z" fill="#FF0000" style="mix-blend-mode:saturation"/>
<path d="M18.276 3.2249L17.6869 2.6354C17.3615 2.30983 16.8338 2.30964 16.5082 2.63498L15.9187 3.22407C15.5931 3.54941 15.5929 4.07708 15.9183 4.40265L16.5074 4.99215C16.8327 5.31772 17.3605 5.31791 17.686 4.99257L18.2756 4.40348C18.6012 4.07814 18.6014 3.55047 18.276 3.2249Z" fill="white" style="mix-blend-mode:difference"/>
<path d="M18.276 3.2249L17.6869 2.6354C17.3615 2.30983 16.8338 2.30964 16.5082 2.63498L15.9187 3.22407C15.5931 3.54941 15.5929 4.07708 15.9183 4.40265L16.5074 4.99215C16.8327 5.31772 17.3605 5.31791 17.686 4.99257L18.2756 4.40348C18.6012 4.07814 18.6014 3.55047 18.276 3.2249Z" fill="white" style="mix-blend-mode:saturation"/>
<path d="M18.276 3.2249L17.6869 2.6354C17.3615 2.30983 16.8338 2.30964 16.5082 2.63498L15.9187 3.22407C15.5931 3.54941 15.5929 4.07708 15.9183 4.40265L16.5074 4.99215C16.8327 5.31772 17.3605 5.31791 17.686 4.99257L18.2756 4.40348C18.6012 4.07814 18.6014 3.55047 18.276 3.2249Z" fill="black" style="mix-blend-mode:overlay"/>
<path d="M18.276 3.2249L17.6869 2.6354C17.3615 2.30983 16.8338 2.30964 16.5082 2.63498L15.9187 3.22407C15.5931 3.54941 15.5929 4.07708 15.9183 4.40265L16.5074 4.99215C16.8327 5.31772 17.3605 5.31791 17.686 4.99257L18.2756 4.40348C18.6012 4.07814 18.6014 3.55047 18.276 3.2249Z" fill="white" style="mix-blend-mode:overlay"/>
<path d="M18.276 3.2249L17.6869 2.6354C17.3615 2.30983 16.8338 2.30964 16.5082 2.63498L15.9187 3.22407C15.5931 3.54941 15.5929 4.07708 15.9183 4.40265L16.5074 4.99215C16.8327 5.31772 17.3605 5.31791 17.686 4.99257L18.2756 4.40348C18.6012 4.07814 18.6014 3.55047 18.276 3.2249Z" fill="white" style="mix-blend-mode:overlay"/>
<path d="M18.276 3.2249L17.6869 2.6354C17.3615 2.30983 16.8338 2.30964 16.5082 2.63498L15.9187 3.22407C15.5931 3.54941 15.5929 4.07708 15.9183 4.40265L16.5074 4.99215C16.8327 5.31772 17.3605 5.31791 17.686 4.99257L18.2756 4.40348C18.6012 4.07814 18.6014 3.55047 18.276 3.2249Z" fill="white" style="mix-blend-mode:overlay"/>
<path d="M18.276 3.2249L17.6869 2.6354C17.3615 2.30983 16.8338 2.30964 16.5082 2.63498L15.9187 3.22407C15.5931 3.54941 15.5929 4.07708 15.9183 4.40265L16.5074 4.99215C16.8327 5.31772 17.3605 5.31791 17.686 4.99257L18.2756 4.40348C18.6012 4.07814 18.6014 3.55047 18.276 3.2249Z" fill="white" style="mix-blend-mode:overlay"/>
<path d="M18.276 3.2249L17.6869 2.6354C17.3615 2.30983 16.8338 2.30964 16.5082 2.63498L15.9187 3.22407C15.5931 3.54941 15.5929 4.07708 15.9183 4.40265L16.5074 4.99215C16.8327 5.31772 17.3605 5.31791 17.686 4.99257L18.2756 4.40348C18.6012 4.07814 18.6014 3.55047 18.276 3.2249Z" fill="black" style="mix-blend-mode:overlay"/>
<path d="M20.1642 8.75H19.3308C18.8705 8.75 18.4974 9.1231 18.4974 9.58333V10.4167C18.4974 10.8769 18.8705 11.25 19.3308 11.25H20.1642C20.6245 11.25 20.9976 10.8769 20.9976 10.4167V9.58333C20.9976 9.1231 20.6245 8.75 20.1642 8.75Z" fill="#FF0000" style="mix-blend-mode:saturation"/>
<path d="M20.1642 8.75H19.3308C18.8705 8.75 18.4974 9.1231 18.4974 9.58333V10.4167C18.4974 10.8769 18.8705 11.25 19.3308 11.25H20.1642C20.6245 11.25 20.9976 10.8769 20.9976 10.4167V9.58333C20.9976 9.1231 20.6245 8.75 20.1642 8.75Z" fill="white" style="mix-blend-mode:difference"/>
<path d="M20.1642 8.75H19.3308C18.8705 8.75 18.4974 9.1231 18.4974 9.58333V10.4167C18.4974 10.8769 18.8705 11.25 19.3308 11.25H20.1642C20.6245 11.25 20.9976 10.8769 20.9976 10.4167V9.58333C20.9976 9.1231 20.6245 8.75 20.1642 8.75Z" fill="white" style="mix-blend-mode:saturation"/>
<path d="M20.1642 8.75H19.3308C18.8705 8.75 18.4974 9.1231 18.4974 9.58333V10.4167C18.4974 10.8769 18.8705 11.25 19.3308 11.25H20.1642C20.6245 11.25 20.9976 10.8769 20.9976 10.4167V9.58333C20.9976 9.1231 20.6245 8.75 20.1642 8.75Z" fill="black" style="mix-blend-mode:overlay"/>
<path d="M20.1642 8.75H19.3308C18.8705 8.75 18.4974 9.1231 18.4974 9.58333V10.4167C18.4974 10.8769 18.8705 11.25 19.3308 11.25H20.1642C20.6245 11.25 20.9976 10.8769 20.9976 10.4167V9.58333C20.9976 9.1231 20.6245 8.75 20.1642 8.75Z" fill="white" style="mix-blend-mode:overlay"/>
<path d="M20.1642 8.75H19.3308C18.8705 8.75 18.4974 9.1231 18.4974 9.58333V10.4167C18.4974 10.8769 18.8705 11.25 19.3308 11.25H20.1642C20.6245 11.25 20.9976 10.8769 20.9976 10.4167V9.58333C20.9976 9.1231 20.6245 8.75 20.1642 8.75Z" fill="white" style="mix-blend-mode:overlay"/>
<path d="M20.1642 8.75H19.3308C18.8705 8.75 18.4974 9.1231 18.4974 9.58333V10.4167C18.4974 10.8769 18.8705 11.25 19.3308 11.25H20.1642C20.6245 11.25 20.9976 10.8769 20.9976 10.4167V9.58333C20.9976 9.1231 20.6245 8.75 20.1642 8.75Z" fill="white" style="mix-blend-mode:overlay"/>
<path d="M20.1642 8.75H19.3308C18.8705 8.75 18.4974 9.1231 18.4974 9.58333V10.4167C18.4974 10.8769 18.8705 11.25 19.3308 11.25H20.1642C20.6245 11.25 20.9976 10.8769 20.9976 10.4167V9.58333C20.9976 9.1231 20.6245 8.75 20.1642 8.75Z" fill="white" style="mix-blend-mode:overlay"/>
<path d="M20.1642 8.75H19.3308C18.8705 8.75 18.4974 9.1231 18.4974 9.58333V10.4167C18.4974 10.8769 18.8705 11.25 19.3308 11.25H20.1642C20.6245 11.25 20.9976 10.8769 20.9976 10.4167V9.58333C20.9976 9.1231 20.6245 8.75 20.1642 8.75Z" fill="black" style="mix-blend-mode:overlay"/>
<path d="M16.0056 16.8632L16.5952 17.4523C16.9208 17.7776 17.4485 17.7775 17.7739 17.4519L18.363 16.8624C18.6884 16.5368 18.6882 16.0091 18.3626 15.6838L17.773 15.0947C17.4474 14.7694 16.9197 14.7696 16.5944 15.0951L16.0052 15.6846C15.6799 16.0102 15.6801 16.5379 16.0056 16.8632Z" fill="#FF0000" style="mix-blend-mode:saturation"/>
<path d="M16.0056 16.8632L16.5952 17.4523C16.9208 17.7776 17.4485 17.7775 17.7739 17.4519L18.363 16.8624C18.6884 16.5368 18.6882 16.0091 18.3626 15.6838L17.773 15.0947C17.4474 14.7694 16.9197 14.7696 16.5944 15.0951L16.0052 15.6846C15.6799 16.0102 15.6801 16.5379 16.0056 16.8632Z" fill="white" style="mix-blend-mode:difference"/>
<path d="M16.0056 16.8632L16.5952 17.4523C16.9208 17.7776 17.4485 17.7775 17.7739 17.4519L18.363 16.8624C18.6884 16.5368 18.6882 16.0091 18.3626 15.6838L17.773 15.0947C17.4474 14.7694 16.9197 14.7696 16.5944 15.0951L16.0052 15.6846C15.6799 16.0102 15.6801 16.5379 16.0056 16.8632Z" fill="white" style="mix-blend-mode:saturation"/>
<path d="M16.0056 16.8632L16.5952 17.4523C16.9208 17.7776 17.4485 17.7775 17.7739 17.4519L18.363 16.8624C18.6884 16.5368 18.6882 16.0091 18.3626 15.6838L17.773 15.0947C17.4474 14.7694 16.9197 14.7696 16.5944 15.0951L16.0052 15.6846C15.6799 16.0102 15.6801 16.5379 16.0056 16.8632Z" fill="black" style="mix-blend-mode:overlay"/>
<path d="M16.0056 16.8632L16.5952 17.4523C16.9208 17.7776 17.4485 17.7775 17.7739 17.4519L18.363 16.8624C18.6884 16.5368 18.6882 16.0091 18.3626 15.6838L17.773 15.0947C17.4474 14.7694 16.9197 14.7696 16.5944 15.0951L16.0052 15.6846C15.6799 16.0102 15.6801 16.5379 16.0056 16.8632Z" fill="white" style="mix-blend-mode:overlay"/>
<path d="M16.0056 16.8632L16.5952 17.4523C16.9208 17.7776 17.4485 17.7775 17.7739 17.4519L18.363 16.8624C18.6884 16.5368 18.6882 16.0091 18.3626 15.6838L17.773 15.0947C17.4474 14.7694 16.9197 14.7696 16.5944 15.0951L16.0052 15.6846C15.6799 16.0102 15.6801 16.5379 16.0056 16.8632Z" fill="white" style="mix-blend-mode:overlay"/>
<path d="M16.0056 16.8632L16.5952 17.4523C16.9208 17.7776 17.4485 17.7775 17.7739 17.4519L18.363 16.8624C18.6884 16.5368 18.6882 16.0091 18.3626 15.6838L17.773 15.0947C17.4474 14.7694 16.9197 14.7696 16.5944 15.0951L16.0052 15.6846C15.6799 16.0102 15.6801 16.5379 16.0056 16.8632Z" fill="white" style="mix-blend-mode:overlay"/>
<path d="M16.0056 16.8632L16.5952 17.4523C16.9208 17.7776 17.4485 17.7775 17.7739 17.4519L18.363 16.8624C18.6884 16.5368 18.6882 16.0091 18.3626 15.6838L17.773 15.0947C17.4474 14.7694 16.9197 14.7696 16.5944 15.0951L16.0052 15.6846C15.6799 16.0102 15.6801 16.5379 16.0056 16.8632Z" fill="white" style="mix-blend-mode:overlay"/>
<path d="M16.0056 16.8632L16.5952 17.4523C16.9208 17.7776 17.4485 17.7775 17.7739 17.4519L18.363 16.8624C18.6884 16.5368 18.6882 16.0091 18.3626 15.6838L17.773 15.0947C17.4474 14.7694 16.9197 14.7696 16.5944 15.0951L16.0052 15.6846C15.6799 16.0102 15.6801 16.5379 16.0056 16.8632Z" fill="black" style="mix-blend-mode:overlay"/>
<path d="M11.4135 17.5H10.5801C10.1199 17.5 9.74674 17.8731 9.74674 18.3333V19.1667C9.74674 19.6269 10.1199 20 10.5801 20H11.4135C11.8738 20 12.2469 19.6269 12.2469 19.1667V18.3333C12.2469 17.8731 11.8738 17.5 11.4135 17.5Z" fill="#FF0000" style="mix-blend-mode:saturation"/>
<path d="M11.4135 17.5H10.5801C10.1199 17.5 9.74674 17.8731 9.74674 18.3333V19.1667C9.74674 19.6269 10.1199 20 10.5801 20H11.4135C11.8738 20 12.2469 19.6269 12.2469 19.1667V18.3333C12.2469 17.8731 11.8738 17.5 11.4135 17.5Z" fill="white" style="mix-blend-mode:difference"/>
<path d="M11.4135 17.5H10.5801C10.1199 17.5 9.74674 17.8731 9.74674 18.3333V19.1667C9.74674 19.6269 10.1199 20 10.5801 20H11.4135C11.8738 20 12.2469 19.6269 12.2469 19.1667V18.3333C12.2469 17.8731 11.8738 17.5 11.4135 17.5Z" fill="white" style="mix-blend-mode:saturation"/>
<path d="M11.4135 17.5H10.5801C10.1199 17.5 9.74674 17.8731 9.74674 18.3333V19.1667C9.74674 19.6269 10.1199 20 10.5801 20H11.4135C11.8738 20 12.2469 19.6269 12.2469 19.1667V18.3333C12.2469 17.8731 11.8738 17.5 11.4135 17.5Z" fill="black" style="mix-blend-mode:overlay"/>
<path d="M11.4135 17.5H10.5801C10.1199 17.5 9.74674 17.8731 9.74674 18.3333V19.1667C9.74674 19.6269 10.1199 20 10.5801 20H11.4135C11.8738 20 12.2469 19.6269 12.2469 19.1667V18.3333C12.2469 17.8731 11.8738 17.5 11.4135 17.5Z" fill="white" style="mix-blend-mode:overlay"/>
<path d="M11.4135 17.5H10.5801C10.1199 17.5 9.74674 17.8731 9.74674 18.3333V19.1667C9.74674 19.6269 10.1199 20 10.5801 20H11.4135C11.8738 20 12.2469 19.6269 12.2469 19.1667V18.3333C12.2469 17.8731 11.8738 17.5 11.4135 17.5Z" fill="white" style="mix-blend-mode:overlay"/>
<path d="M11.4135 17.5H10.5801C10.1199 17.5 9.74674 17.8731 9.74674 18.3333V19.1667C9.74674 19.6269 10.1199 20 10.5801 20H11.4135C11.8738 20 12.2469 19.6269 12.2469 19.1667V18.3333C12.2469 17.8731 11.8738 17.5 11.4135 17.5Z" fill="white" style="mix-blend-mode:overlay"/>
<path d="M11.4135 17.5H10.5801C10.1199 17.5 9.74674 17.8731 9.74674 18.3333V19.1667C9.74674 19.6269 10.1199 20 10.5801 20H11.4135C11.8738 20 12.2469 19.6269 12.2469 19.1667V18.3333C12.2469 17.8731 11.8738 17.5 11.4135 17.5Z" fill="white" style="mix-blend-mode:overlay"/>
<path d="M11.4135 17.5H10.5801C10.1199 17.5 9.74674 17.8731 9.74674 18.3333V19.1667C9.74674 19.6269 10.1199 20 10.5801 20H11.4135C11.8738 20 12.2469 19.6269 12.2469 19.1667V18.3333C12.2469 17.8731 11.8738 17.5 11.4135 17.5Z" fill="black" style="mix-blend-mode:overlay"/>
<path d="M3.54309 16.7751L4.13222 17.3646C4.45759 17.6902 4.98529 17.6904 5.31089 17.365L5.90043 16.7759C6.22603 16.4506 6.22622 15.9229 5.90085 15.5974L5.31172 15.0079C4.98636 14.6823 4.45865 14.6821 4.13305 15.0074L3.54351 15.5965C3.21791 15.9219 3.21773 16.4495 3.54309 16.7751Z" fill="#FF0000" style="mix-blend-mode:saturation"/>
<path d="M3.54309 16.7751L4.13222 17.3646C4.45759 17.6902 4.98529 17.6904 5.31089 17.365L5.90043 16.7759C6.22603 16.4506 6.22622 15.9229 5.90085 15.5974L5.31172 15.0079C4.98636 14.6823 4.45865 14.6821 4.13305 15.0074L3.54351 15.5965C3.21791 15.9219 3.21773 16.4495 3.54309 16.7751Z" fill="white" style="mix-blend-mode:difference"/>
<path d="M3.54309 16.7751L4.13222 17.3646C4.45759 17.6902 4.98529 17.6904 5.31089 17.365L5.90043 16.7759C6.22603 16.4506 6.22622 15.9229 5.90085 15.5974L5.31172 15.0079C4.98636 14.6823 4.45865 14.6821 4.13305 15.0074L3.54351 15.5965C3.21791 15.9219 3.21773 16.4495 3.54309 16.7751Z" fill="white" style="mix-blend-mode:saturation"/>
<path d="M3.54309 16.7751L4.13222 17.3646C4.45759 17.6902 4.98529 17.6904 5.31089 17.365L5.90043 16.7759C6.22603 16.4506 6.22622 15.9229 5.90085 15.5974L5.31172 15.0079C4.98636 14.6823 4.45865 14.6821 4.13305 15.0074L3.54351 15.5965C3.21791 15.9219 3.21773 16.4495 3.54309 16.7751Z" fill="black" style="mix-blend-mode:overlay"/>
<path d="M3.54309 16.7751L4.13222 17.3646C4.45759 17.6902 4.98529 17.6904 5.31089 17.365L5.90043 16.7759C6.22603 16.4506 6.22622 15.9229 5.90085 15.5974L5.31172 15.0079C4.98636 14.6823 4.45865 14.6821 4.13305 15.0074L3.54351 15.5965C3.21791 15.9219 3.21773 16.4495 3.54309 16.7751Z" fill="white" style="mix-blend-mode:overlay"/>
<path d="M3.54309 16.7751L4.13222 17.3646C4.45759 17.6902 4.98529 17.6904 5.31089 17.365L5.90043 16.7759C6.22603 16.4506 6.22622 15.9229 5.90085 15.5974L5.31172 15.0079C4.98636 14.6823 4.45865 14.6821 4.13305 15.0074L3.54351 15.5965C3.21791 15.9219 3.21773 16.4495 3.54309 16.7751Z" fill="white" style="mix-blend-mode:overlay"/>
<path d="M3.54309 16.7751L4.13222 17.3646C4.45759 17.6902 4.98529 17.6904 5.31089 17.365L5.90043 16.7759C6.22603 16.4506 6.22622 15.9229 5.90085 15.5974L5.31172 15.0079C4.98636 14.6823 4.45865 14.6821 4.13305 15.0074L3.54351 15.5965C3.21791 15.9219 3.21773 16.4495 3.54309 16.7751Z" fill="white" style="mix-blend-mode:overlay"/>
<path d="M3.54309 16.7751L4.13222 17.3646C4.45759 17.6902 4.98529 17.6904 5.31089 17.365L5.90043 16.7759C6.22603 16.4506 6.22622 15.9229 5.90085 15.5974L5.31172 15.0079C4.98636 14.6823 4.45865 14.6821 4.13305 15.0074L3.54351 15.5965C3.21791 15.9219 3.21773 16.4495 3.54309 16.7751Z" fill="white" style="mix-blend-mode:overlay"/>
<path d="M3.54309 16.7751L4.13222 17.3646C4.45759 17.6902 4.98529 17.6904 5.31089 17.365L5.90043 16.7759C6.22603 16.4506 6.22622 15.9229 5.90085 15.5974L5.31172 15.0079C4.98636 14.6823 4.45865 14.6821 4.13305 15.0074L3.54351 15.5965C3.21791 15.9219 3.21773 16.4495 3.54309 16.7751Z" fill="black" style="mix-blend-mode:overlay"/>
<path d="M2.66288 8.75H1.82949C1.36922 8.75 0.996094 9.1231 0.996094 9.58333V10.4167C0.996094 10.8769 1.36922 11.25 1.82949 11.25H2.66288C3.12316 11.25 3.49628 10.8769 3.49628 10.4167V9.58333C3.49628 9.1231 3.12316 8.75 2.66288 8.75Z" fill="#FF0000" style="mix-blend-mode:saturation"/>
<path d="M2.66288 8.75H1.82949C1.36922 8.75 0.996094 9.1231 0.996094 9.58333V10.4167C0.996094 10.8769 1.36922 11.25 1.82949 11.25H2.66288C3.12316 11.25 3.49628 10.8769 3.49628 10.4167V9.58333C3.49628 9.1231 3.12316 8.75 2.66288 8.75Z" fill="white" style="mix-blend-mode:difference"/>
<path d="M2.66288 8.75H1.82949C1.36922 8.75 0.996094 9.1231 0.996094 9.58333V10.4167C0.996094 10.8769 1.36922 11.25 1.82949 11.25H2.66288C3.12316 11.25 3.49628 10.8769 3.49628 10.4167V9.58333C3.49628 9.1231 3.12316 8.75 2.66288 8.75Z" fill="white" style="mix-blend-mode:saturation"/>
<path d="M2.66288 8.75H1.82949C1.36922 8.75 0.996094 9.1231 0.996094 9.58333V10.4167C0.996094 10.8769 1.36922 11.25 1.82949 11.25H2.66288C3.12316 11.25 3.49628 10.8769 3.49628 10.4167V9.58333C3.49628 9.1231 3.12316 8.75 2.66288 8.75Z" fill="black" style="mix-blend-mode:overlay"/>
<path d="M2.66288 8.75H1.82949C1.36922 8.75 0.996094 9.1231 0.996094 9.58333V10.4167C0.996094 10.8769 1.36922 11.25 1.82949 11.25H2.66288C3.12316 11.25 3.49628 10.8769 3.49628 10.4167V9.58333C3.49628 9.1231 3.12316 8.75 2.66288 8.75Z" fill="white" style="mix-blend-mode:overlay"/>
<path d="M2.66288 8.75H1.82949C1.36922 8.75 0.996094 9.1231 0.996094 9.58333V10.4167C0.996094 10.8769 1.36922 11.25 1.82949 11.25H2.66288C3.12316 11.25 3.49628 10.8769 3.49628 10.4167V9.58333C3.49628 9.1231 3.12316 8.75 2.66288 8.75Z" fill="white" style="mix-blend-mode:overlay"/>
<path d="M2.66288 8.75H1.82949C1.36922 8.75 0.996094 9.1231 0.996094 9.58333V10.4167C0.996094 10.8769 1.36922 11.25 1.82949 11.25H2.66288C3.12316 11.25 3.49628 10.8769 3.49628 10.4167V9.58333C3.49628 9.1231 3.12316 8.75 2.66288 8.75Z" fill="white" style="mix-blend-mode:overlay"/>
<path d="M2.66288 8.75H1.82949C1.36922 8.75 0.996094 9.1231 0.996094 9.58333V10.4167C0.996094 10.8769 1.36922 11.25 1.82949 11.25H2.66288C3.12316 11.25 3.49628 10.8769 3.49628 10.4167V9.58333C3.49628 9.1231 3.12316 8.75 2.66288 8.75Z" fill="white" style="mix-blend-mode:overlay"/>
<path d="M2.66288 8.75H1.82949C1.36922 8.75 0.996094 9.1231 0.996094 9.58333V10.4167C0.996094 10.8769 1.36922 11.25 1.82949 11.25H2.66288C3.12316 11.25 3.49628 10.8769 3.49628 10.4167V9.58333C3.49628 9.1231 3.12316 8.75 2.66288 8.75Z" fill="black" style="mix-blend-mode:overlay"/>
<path d="M5.98772 3.31135L5.39818 2.72226C5.07258 2.39692 4.54487 2.39711 4.21951 2.72268L3.63038 3.31218C3.30501 3.63775 3.3052 4.16542 3.6308 4.49076L4.22034 5.07985C4.54594 5.40519 5.07364 5.405 5.39901 5.07943L5.98814 4.48993C6.3135 4.16436 6.31332 3.63669 5.98772 3.31135Z" fill="#FF0000" style="mix-blend-mode:saturation"/>
<path d="M5.98772 3.31135L5.39818 2.72226C5.07258 2.39692 4.54487 2.39711 4.21951 2.72268L3.63038 3.31218C3.30501 3.63775 3.3052 4.16542 3.6308 4.49076L4.22034 5.07985C4.54594 5.40519 5.07364 5.405 5.39901 5.07943L5.98814 4.48993C6.3135 4.16436 6.31332 3.63669 5.98772 3.31135Z" fill="white" style="mix-blend-mode:difference"/>
<path d="M5.98772 3.31135L5.39818 2.72226C5.07258 2.39692 4.54487 2.39711 4.21951 2.72268L3.63038 3.31218C3.30501 3.63775 3.3052 4.16542 3.6308 4.49076L4.22034 5.07985C4.54594 5.40519 5.07364 5.405 5.39901 5.07943L5.98814 4.48993C6.3135 4.16436 6.31332 3.63669 5.98772 3.31135Z" fill="white" style="mix-blend-mode:saturation"/>
<path d="M5.98772 3.31135L5.39818 2.72226C5.07258 2.39692 4.54487 2.39711 4.21951 2.72268L3.63038 3.31218C3.30501 3.63775 3.3052 4.16542 3.6308 4.49076L4.22034 5.07985C4.54594 5.40519 5.07364 5.405 5.39901 5.07943L5.98814 4.48993C6.3135 4.16436 6.31332 3.63669 5.98772 3.31135Z" fill="black" style="mix-blend-mode:overlay"/>
<path d="M5.98772 3.31135L5.39818 2.72226C5.07258 2.39692 4.54487 2.39711 4.21951 2.72268L3.63038 3.31218C3.30501 3.63775 3.3052 4.16542 3.6308 4.49076L4.22034 5.07985C4.54594 5.40519 5.07364 5.405 5.39901 5.07943L5.98814 4.48993C6.3135 4.16436 6.31332 3.63669 5.98772 3.31135Z" fill="white" style="mix-blend-mode:overlay"/>
<path d="M5.98772 3.31135L5.39818 2.72226C5.07258 2.39692 4.54487 2.39711 4.21951 2.72268L3.63038 3.31218C3.30501 3.63775 3.3052 4.16542 3.6308 4.49076L4.22034 5.07985C4.54594 5.40519 5.07364 5.405 5.39901 5.07943L5.98814 4.48993C6.3135 4.16436 6.31332 3.63669 5.98772 3.31135Z" fill="white" style="mix-blend-mode:overlay"/>
<path d="M5.98772 3.31135L5.39818 2.72226C5.07258 2.39692 4.54487 2.39711 4.21951 2.72268L3.63038 3.31218C3.30501 3.63775 3.3052 4.16542 3.6308 4.49076L4.22034 5.07985C4.54594 5.40519 5.07364 5.405 5.39901 5.07943L5.98814 4.48993C6.3135 4.16436 6.31332 3.63669 5.98772 3.31135Z" fill="white" style="mix-blend-mode:overlay"/>
<path d="M5.98772 3.31135L5.39818 2.72226C5.07258 2.39692 4.54487 2.39711 4.21951 2.72268L3.63038 3.31218C3.30501 3.63775 3.3052 4.16542 3.6308 4.49076L4.22034 5.07985C4.54594 5.40519 5.07364 5.405 5.39901 5.07943L5.98814 4.48993C6.3135 4.16436 6.31332 3.63669 5.98772 3.31135Z" fill="white" style="mix-blend-mode:overlay"/>
<path d="M5.98772 3.31135L5.39818 2.72226C5.07258 2.39692 4.54487 2.39711 4.21951 2.72268L3.63038 3.31218C3.30501 3.63775 3.3052 4.16542 3.6308 4.49076L4.22034 5.07985C4.54594 5.40519 5.07364 5.405 5.39901 5.07943L5.98814 4.48993C6.3135 4.16436 6.31332 3.63669 5.98772 3.31135Z" fill="black" style="mix-blend-mode:overlay"/>
<path d="M10.9968 5C8.24663 5 5.99647 7.25 5.99647 10C5.99647 12.75 8.24663 15 10.9968 15C13.747 15 15.9972 12.75 15.9972 10C15.9972 7.25 13.747 5 10.9968 5Z" fill="#FF0000" style="mix-blend-mode:saturation"/>
<path d="M10.9968 5C8.24663 5 5.99647 7.25 5.99647 10C5.99647 12.75 8.24663 15 10.9968 15C13.747 15 15.9972 12.75 15.9972 10C15.9972 7.25 13.747 5 10.9968 5Z" fill="white" style="mix-blend-mode:difference"/>
<path d="M10.9968 5C8.24663 5 5.99647 7.25 5.99647 10C5.99647 12.75 8.24663 15 10.9968 15C13.747 15 15.9972 12.75 15.9972 10C15.9972 7.25 13.747 5 10.9968 5Z" fill="white" style="mix-blend-mode:saturation"/>
<path d="M10.9968 5C8.24663 5 5.99647 7.25 5.99647 10C5.99647 12.75 8.24663 15 10.9968 15C13.747 15 15.9972 12.75 15.9972 10C15.9972 7.25 13.747 5 10.9968 5Z" fill="black" style="mix-blend-mode:overlay"/>
<path d="M10.9968 5C8.24663 5 5.99647 7.25 5.99647 10C5.99647 12.75 8.24663 15 10.9968 15C13.747 15 15.9972 12.75 15.9972 10C15.9972 7.25 13.747 5 10.9968 5Z" fill="white" style="mix-blend-mode:overlay"/>
<path d="M10.9968 5C8.24663 5 5.99647 7.25 5.99647 10C5.99647 12.75 8.24663 15 10.9968 15C13.747 15 15.9972 12.75 15.9972 10C15.9972 7.25 13.747 5 10.9968 5Z" fill="white" style="mix-blend-mode:overlay"/>
<path d="M10.9968 5C8.24663 5 5.99647 7.25 5.99647 10C5.99647 12.75 8.24663 15 10.9968 15C13.747 15 15.9972 12.75 15.9972 10C15.9972 7.25 13.747 5 10.9968 5Z" fill="white" style="mix-blend-mode:overlay"/>
<path d="M10.9968 5C8.24663 5 5.99647 7.25 5.99647 10C5.99647 12.75 8.24663 15 10.9968 15C13.747 15 15.9972 12.75 15.9972 10C15.9972 7.25 13.747 5 10.9968 5Z" fill="white" style="mix-blend-mode:overlay"/>
<path d="M10.9968 5C8.24663 5 5.99647 7.25 5.99647 10C5.99647 12.75 8.24663 15 10.9968 15C13.747 15 15.9972 12.75 15.9972 10C15.9972 7.25 13.747 5 10.9968 5Z" fill="black" style="mix-blend-mode:overlay"/>
</svg>
